<svg width="101" height="125" viewBox="0 0 101 125" fill="none" xmlns="http://www.w3.org/2000/svg">
<path fill-rule="evenodd" clip-rule="evenodd" d="M100.206 42.8563V42.8255C100.206 42.7438 100.211 42.9069 100.206 42.8255C100.211 42.917 100.206 42.7644 100.206 42.8563L58.327 0.0350692C58.157 0.0118376 57.9847 0 57.8109 0H19.2703C8.62763 0 0 8.71531 0 19.4661V105.117C0 115.868 8.62763 124.583 19.2703 124.583H80.9353C91.5779 124.583 100.206 115.868 100.206 105.117V42.8563ZM53.9569 27.2526C53.9569 38.0034 62.5846 46.7188 73.2272 46.7188H92.4975V105.117C92.4975 111.568 87.3211 116.797 80.9353 116.797H19.2703C12.8847 116.797 7.70812 111.568 7.70812 105.117V19.4661C7.70812 13.0156 12.8847 7.78646 19.2703 7.78646H53.9569V27.2526ZM61.665 13.2923L87.0471 38.9323H73.2272C66.8414 38.9323 61.665 33.7031 61.665 27.2526V13.2923Z" fill="white"/>
<rect x="29.4609" y="51.293" width="42" height="42" rx="21" fill="#EB3850" stroke="black" stroke-width="2"/>
<path d="M50.4609 58.875C51.8466 58.8752 53.1281 59.5917 53.8203 60.7539L63.9404 77.7373C64.634 78.901 64.634 80.3335 63.9404 81.4971C63.2482 82.6592 61.9667 83.3749 60.5811 83.375H40.3398C38.9542 83.3749 37.6727 82.6592 36.9805 81.4971C36.2869 80.3334 36.2869 78.9009 36.9805 77.7373L47.1016 60.7539C47.7939 59.5918 49.0753 58.875 50.4609 58.875ZM50.4609 61.4053C50.0086 61.4053 49.589 61.6384 49.3633 62.0186L39.2412 79.0029C39.0157 79.3833 39.0157 79.8511 39.2412 80.2314C39.4681 80.6118 39.8861 80.8456 40.3398 80.8457H60.5811C61.0348 80.8505 61.4566 80.6143 61.6797 80.2314C61.9104 79.8523 61.9103 79.3821 61.6797 79.0029L51.5596 62.0186C51.3327 61.6384 50.9132 61.4054 50.4609 61.4053ZM49.1279 77.8193C49.1279 76.0974 51.793 76.0974 51.793 77.8193C51.7928 79.5398 49.1281 79.5398 49.1279 77.8193ZM50.4609 65.875C51.1823 65.8752 51.7656 66.4416 51.7656 67.1406V73.2861C51.7654 73.985 51.1822 74.5506 50.4609 74.5508C49.7395 74.5508 49.1555 73.9851 49.1553 73.2861V67.1406C49.1553 66.4415 49.7393 65.875 50.4609 65.875Z" fill="white"/>
</svg>
