<svg viewBox="0 0 48 48" fill="none" xmlns="http://www.w3.org/2000/svg">
<path fill-rule="evenodd" clip-rule="evenodd" d="M7.68257 4.21454C7.14704 4.88253 6.25575 5.99466 5.70192 6.68593C5.14809 7.37718 4.56716 8.10117 4.41097 8.29477C4.2548 8.48837 4.09842 8.68444 4.06349 8.73046L4 8.81414L4.20478 9.06168C4.44637 9.35368 4.52706 9.4524 5.31286 10.4173C5.64192 10.8214 6.16225 11.4595 6.46916 11.8354C6.77605 12.2113 7.10335 12.6129 7.1965 12.7279C7.28962 12.8428 7.45029 13.0393 7.55352 13.1644C7.65676 13.2895 7.95766 13.6581 8.2222 13.9836L8.70318 14.5753L8.70931 13.6622L8.71545 12.7492L9.1199 12.7338C9.34237 12.7254 10.7702 12.7184 12.2929 12.7183C13.8156 12.7182 15.2277 12.7113 15.4307 12.7029L15.8 12.6875L15.788 10.7962C15.7814 9.756 15.7698 7.98552 15.762 6.86184L15.748 4.81877L12.2197 4.82915L8.69145 4.83952L8.68826 4.76018C8.68652 4.71653 8.67859 4.30264 8.67066 3.8404L8.65626 3L7.68257 4.21454ZM40.3086 3.91815L40.3256 4.83337L39.0611 4.8368C38.3656 4.83867 36.7724 4.84658 35.5207 4.8544L33.2449 4.86857L33.2512 7.77849C33.2547 9.37895 33.2639 11.1551 33.2715 11.7256L33.2856 12.7627L33.7227 12.7525C33.9632 12.7468 35.5509 12.7372 37.2511 12.7312L40.3423 12.7202L40.345 13.4057C40.3465 13.7827 40.3545 14.1968 40.3626 14.3258L40.3774 14.5605L40.9888 13.7978C41.3251 13.3783 42.0156 12.5177 42.5233 11.8852C45.1575 8.6036 45.0236 8.77589 44.9864 8.71622C44.9678 8.68646 44.7943 8.4688 44.6007 8.23251C44.4071 7.99622 44.1499 7.68125 44.029 7.53256C43.7844 7.23164 43.5818 6.98315 43.2232 6.54443C43.0904 6.38196 42.8023 6.029 42.5829 5.76004C42.3635 5.49111 42.126 5.20011 42.055 5.11345C41.984 5.02676 41.8585 4.87284 41.776 4.77139C40.7942 3.56408 40.3298 3.00293 40.3124 3.00293C40.3002 3.00293 40.2986 3.38402 40.3086 3.91815ZM24.1415 4.86765C23.6484 4.9351 23.1732 5.1089 22.8041 5.35683C22.0323 5.87524 21.5324 6.6662 21.4097 7.56311C21.3922 7.69098 21.3846 10.5772 21.3846 17.0732C21.3846 25.0319 21.3798 26.3997 21.3519 26.3997C21.3186 26.3997 21.0125 26.2833 20.6104 26.1178C20.4878 26.0673 20.1816 25.9458 19.9299 25.8477C19.6783 25.7496 19.4224 25.6486 19.3613 25.6233C19.3002 25.598 19.1577 25.545 19.0446 25.5056C18.5343 25.3276 18.1529 25.1979 18.0882 25.1804C18.0494 25.17 17.9861 25.1486 17.9474 25.1329C17.9087 25.1173 17.7133 25.058 17.5133 25.0012C17.3133 24.9443 17.023 24.8609 16.8681 24.8158C16.7133 24.7706 16.5298 24.7231 16.4603 24.7101C16.3909 24.6972 16.2959 24.6767 16.2492 24.6645C15.861 24.5635 15.1152 24.4348 14.6157 24.3828C14.4867 24.3694 14.2702 24.3455 14.1347 24.3297C13.7037 24.2796 12.9802 24.3028 12.4337 24.3843C12.2378 24.4136 11.7139 24.546 11.4633 24.6296C11.2438 24.7029 10.838 24.9158 10.6581 25.0521C10.5848 25.1076 10.4951 25.1684 10.4587 25.1873C10.3056 25.2665 9.81014 25.8313 9.66423 26.0928C9.65081 26.1169 9.62824 26.1508 9.61404 26.1683C9.56238 26.2321 9.43573 26.5576 9.37796 26.7751C9.32637 26.9694 9.31738 27.0604 9.30809 27.4829L9.29744 27.9676L9.37367 28.269C9.4781 28.682 9.54745 28.8379 9.77405 29.1694C10.0803 29.6174 10.4705 29.9567 11.0612 30.2884C11.4805 30.524 12.2712 30.7745 12.9355 30.8824C13.5782 30.9868 14.7701 31.3042 15.1319 31.4674C15.1577 31.479 15.3266 31.5486 15.5073 31.6221C15.9291 31.7936 16.7868 32.2206 17.0441 32.3872C17.1538 32.4582 17.3121 32.5574 17.396 32.6076C17.5297 32.6878 17.6914 32.7983 17.8887 32.9444C17.921 32.9683 18.016 33.033 18.0999 33.0881C18.1838 33.1433 18.3157 33.2403 18.3932 33.3038C18.4706 33.3673 18.6501 33.505 18.792 33.6099C18.934 33.7148 19.1453 33.8805 19.2616 33.9781C19.7505 34.3881 20.625 35.1507 20.9036 35.4098C20.9294 35.4338 21.0464 35.5363 21.1636 35.6376C21.3412 35.7911 21.7881 36.1931 21.9568 36.3512C21.9999 36.3916 21.9968 36.397 21.8463 36.5476C21.5256 36.8684 21.3278 37.2213 21.1919 37.7156L21.1383 37.9103V40.1162C21.1383 42.3119 21.1385 42.323 21.1899 42.5243C21.3284 43.0671 21.6199 43.5283 22.0288 43.8517L22.2163 44H30.719H39.2218L39.3656 43.897C39.822 43.57 40.1607 43.0356 40.2845 42.447C40.335 42.2067 40.3355 38.068 40.285 37.8041C40.1533 37.1157 39.7138 36.5028 39.1162 36.1743L38.9611 36.089L39.0123 36.0074C39.0405 35.9625 39.1139 35.8337 39.1755 35.7212C39.55 35.0369 39.7489 34.4868 39.9577 33.5571C40.0224 33.269 40.028 33.2331 40.1103 32.5832L40.1637 32.1608L40.1717 27.4087C40.1789 23.1351 40.1759 22.6318 40.142 22.4102C40.0527 21.8269 39.7994 21.3308 39.3589 20.8764C39.1239 20.6339 38.8812 20.4459 38.6587 20.3338C38.3936 20.2003 38.0889 20.0635 38.0563 20.0635C38.0393 20.0635 37.9432 20.0367 37.8426 20.0038C37.5894 19.9212 37.0197 19.8295 36.757 19.8291C36.4971 19.8288 36.3405 19.794 36.2929 19.726C36.2738 19.6987 36.1835 19.561 36.0921 19.4201C35.9181 19.1515 35.5622 18.7599 35.3845 18.6413C35.3304 18.6052 35.265 18.5574 35.2392 18.5349C35.1608 18.4668 34.7008 18.2378 34.5429 18.1884C34.1951 18.0795 34.0175 18.057 33.5147 18.0585C33.0807 18.0598 33.0071 18.0661 32.7611 18.1225C32.6111 18.1569 32.4592 18.1961 32.4236 18.2097C32.3139 18.2514 32.1584 18.2803 32.121 18.266C32.1015 18.2584 32.059 18.2072 32.0267 18.1521C31.904 17.9427 31.5653 17.5732 31.3048 17.3646C31.1478 17.2389 30.7736 17.0427 30.5375 16.9622C30.1978 16.8464 30.0519 16.8251 29.6008 16.8251C29.1195 16.8251 28.9351 16.8533 28.4468 17.0018C28.3192 17.0406 28.2514 17.0686 27.9541 17.2053C27.8702 17.2438 27.7673 17.281 27.7253 17.288L27.6491 17.3006V12.4611C27.6491 7.66383 27.6487 7.61953 27.6007 7.38389C27.5347 7.06009 27.4827 6.9112 27.3208 6.58167C26.8854 5.69574 26.0388 5.06518 25.0525 4.89218C24.7604 4.84095 24.4064 4.83142 24.1415 4.86765ZM21.536 26.337C21.5245 26.383 21.5054 26.3997 21.4642 26.3997C21.4116 26.3997 21.4081 26.3913 21.4081 26.2652V26.1307L21.4799 26.2025C21.5376 26.2603 21.5487 26.2867 21.536 26.337ZM21.22 26.4107C21.2198 26.424 21.2099 26.4503 21.198 26.4691C21.1794 26.4985 21.1694 26.4971 21.128 26.4596C21.1014 26.4355 21.0796 26.3973 21.0796 26.3746C21.0796 26.3385 21.0884 26.3366 21.15 26.3599C21.1887 26.3745 21.2202 26.3974 21.22 26.4107ZM21.3158 26.4239C21.3708 26.4534 21.3751 26.5131 21.3236 26.5329C21.2824 26.5487 21.2448 26.505 21.2442 26.4407C21.2438 26.3931 21.2538 26.3908 21.3158 26.4239Z" fill="#8D8B8D"/>
</svg>
