<svg width="36" height="36" viewBox="0 0 36 36" fill="none" xmlns="http://www.w3.org/2000/svg">
<g clip-path="url(#clip0_4894_47297)">
<circle cx="18" cy="18" r="16" fill="#777481"/>
<path fill-rule="evenodd" clip-rule="evenodd" d="M10.2226 18.9546C10.2226 18.4874 10.6014 18.1087 11.0685 18.1087C11.5355 18.1088 11.9137 18.4869 11.9137 18.9539L11.9137 22.8927L15.8525 18.9539C16.1828 18.6236 16.7189 18.6243 17.0492 18.9546C17.3792 19.2849 17.3794 19.8204 17.0492 20.1506L13.1104 24.0894L17.0492 24.0894C17.5162 24.0894 17.8943 24.4676 17.8944 24.9346C17.8944 25.4017 17.5157 25.7805 17.0485 25.7805L10.2226 25.7812L10.2226 18.9546ZM18.1064 11.068C18.1065 10.601 18.4853 10.2222 18.9523 10.2221L25.7789 10.2221L25.7789 17.0487C25.7789 17.5158 25.4002 17.8946 24.933 17.8946C24.4663 17.8944 24.0881 17.5162 24.0878 17.0494L24.0871 13.1099L20.1483 17.0487C19.818 17.3789 19.2826 17.379 18.9523 17.0487C18.6223 16.7184 18.6222 16.1829 18.9523 15.8527L22.8911 11.9139L18.9523 11.9139C18.4853 11.9138 18.1064 11.535 18.1064 11.068Z" fill="white"/>
</g>
<rect x="1" y="1" width="34" height="34" rx="17" stroke="black" stroke-opacity="0.6" stroke-width="2"/>
<defs>
<clipPath id="clip0_4894_47297">
<rect x="2" y="2" width="32" height="32" rx="16" fill="white"/>
</clipPath>
</defs>
</svg>
