<svg width="1111" height="871" viewBox="0 0 1111 871" fill="none" xmlns="http://www.w3.org/2000/svg">
<mask id="mask0_7228_283523" style="mask-type:alpha" maskUnits="userSpaceOnUse" x="0" y="-224" width="1152" height="1113">
<rect y="-223.637" width="1151.94" height="1111.83" fill="url(#paint0_radial_7228_283523)"/>
</mask>
<g mask="url(#mask0_7228_283523)">
<ellipse cx="561.013" cy="548.079" rx="40.7392" ry="14.0344" stroke="white" stroke-width="1.11622"/>
<ellipse cx="255.105" cy="438.713" rx="33.4643" ry="9.75564" stroke="white" stroke-width="1.11622"/>
<path d="M591.554 556.932C595.458 554.949 597.734 552.563 597.734 549.998C597.734 543.102 581.291 537.512 561.008 537.512C540.724 537.512 524.281 543.102 524.281 549.998C524.281 552.563 526.558 554.949 530.461 556.932" stroke="white" stroke-width="0.446487" stroke-linecap="round"/>
<path d="M280.152 444.792C283.354 443.445 285.221 441.826 285.221 440.084C285.221 435.403 271.735 431.607 255.099 431.607C238.463 431.607 224.977 435.403 224.977 440.084C224.977 441.826 226.844 443.445 230.045 444.792" stroke="white" stroke-width="0.446487" stroke-linecap="round"/>
<path d="M653.764 517.956L654.021 517.461L653.764 517.956ZM423.151 417.832L423.324 417.302L423.186 417.256L423.042 417.285L423.151 417.832ZM661.948 495.877L662.099 496.414C662.336 496.348 662.501 496.134 662.506 495.889C662.511 495.643 662.355 495.423 662.122 495.347L661.948 495.877ZM406.997 563.274L407.204 562.755V562.755L406.997 563.274ZM193.788 478.146L193.581 478.664L193.788 478.146ZM194.033 474.916L193.898 474.375L193.898 474.375L194.033 474.916ZM432.245 560.108L432.402 560.644L432.409 560.642L432.245 560.108ZM419.532 563.852L419.375 563.316H419.375L419.532 563.852ZM206.906 471.71L207.041 472.251L207.05 472.249L207.059 472.247L206.906 471.71ZM212.544 450.98L212.331 451.496L212.335 451.498L212.544 450.98ZM358.587 412.999L358.772 412.473L358.771 412.472L358.587 412.999ZM362.042 414.219L362.261 413.706L362.245 413.699L362.228 413.693L362.042 414.219ZM605.643 565.022L605.447 564.5L605.643 565.022ZM243.961 422.056L244.104 422.595L243.961 422.056ZM559.918 572.039V571.481C541.804 571.481 525.51 568.746 514.104 564.392L513.905 564.913L513.706 565.434C525.272 569.85 541.709 572.597 559.918 572.597V572.039ZM653.764 517.956L653.506 518.451C657.508 520.532 660.974 522.817 663.552 525.209C666.138 527.608 667.785 530.072 668.244 532.504C668.696 534.901 668.012 537.362 665.729 539.833C663.428 542.323 659.513 544.807 653.558 547.168L653.764 547.686L653.97 548.205C659.995 545.816 664.085 543.256 666.549 540.59C669.029 537.906 669.869 535.099 669.341 532.297C668.819 529.532 666.981 526.868 664.312 524.391C661.636 521.908 658.077 519.569 654.021 517.461L653.764 517.956ZM423.151 417.832L422.978 418.363L661.775 496.408L661.948 495.877L662.122 495.347L423.324 417.302L423.151 417.832ZM406.997 563.274L407.204 562.755L193.995 477.628L193.788 478.146L193.581 478.664L406.79 563.792L406.997 563.274ZM193.788 478.146L193.995 477.628C192.921 477.199 193.001 475.749 194.168 475.458L194.033 474.916L193.898 474.375C191.716 474.918 191.466 477.82 193.581 478.664L193.788 478.146ZM468.255 554.924V555.483C487.784 555.483 502.303 560.732 514.057 565.539L514.269 565.022L514.48 564.506C502.678 559.68 488 554.366 468.255 554.366V554.924ZM432.245 560.108L432.409 560.642C443.081 557.358 456.302 555.483 468.255 555.483V554.924V554.366C456.201 554.366 442.869 556.256 432.08 559.575L432.245 560.108ZM419.532 563.852L419.69 564.387L432.402 560.644L432.245 560.108L432.087 559.573L419.375 563.316L419.532 563.852ZM194.033 474.916L194.168 475.458L207.041 472.251L206.906 471.71L206.771 471.168L193.898 474.375L194.033 474.916ZM406.997 563.274L406.79 563.792C410.88 565.425 415.452 565.635 419.69 564.387L419.532 563.852L419.375 563.316C415.375 564.494 411.061 564.295 407.204 562.755L406.997 563.274ZM653.764 517.956L654.021 517.461C649.078 514.89 646.865 511.347 646.865 508.189H646.307H645.749C645.749 511.903 648.336 515.763 653.506 518.451L653.764 517.956ZM646.307 508.189H646.865C646.865 505.921 647.824 503.799 650.196 501.828C652.59 499.839 656.414 498.016 662.099 496.414L661.948 495.877L661.797 495.34C656.047 496.96 652.051 498.836 649.483 500.969C646.894 503.12 645.749 505.543 645.749 508.189H646.307ZM212.544 450.98L212.757 450.464C209.258 449.019 206.446 447.348 204.518 445.574C202.586 443.795 201.597 441.968 201.597 440.198H201.039H200.481C200.481 442.403 201.71 444.507 203.762 446.395C205.819 448.288 208.76 450.021 212.331 451.496L212.544 450.98ZM318.575 407.373V407.931C334.378 407.931 348.569 410.095 358.403 413.526L358.587 412.999L358.771 412.472C348.785 408.988 334.462 406.815 318.575 406.815V407.373ZM398.782 420.038V419.48C383.743 419.48 370.456 417.194 362.261 413.706L362.042 414.219L361.824 414.733C370.208 418.302 383.66 420.596 398.782 420.596V420.038ZM423.151 417.832L423.042 417.285C416.036 418.674 407.714 419.48 398.782 419.48V420.038V420.596C407.777 420.596 416.173 419.785 423.26 418.379L423.151 417.832ZM212.544 450.98L212.335 451.498C215.488 452.768 217.968 454.221 219.65 455.764C221.335 457.308 222.171 458.895 222.171 460.449H222.729H223.287C223.287 458.468 222.219 456.605 220.405 454.941C218.589 453.276 215.977 451.762 212.753 450.463L212.544 450.98ZM222.729 460.449H222.171C222.171 462.415 220.826 464.395 218.139 466.266C215.467 468.128 211.576 469.802 206.753 471.173L206.906 471.71L207.059 472.247C211.943 470.858 215.964 469.142 218.777 467.182C221.574 465.233 223.287 462.962 223.287 460.449H222.729ZM362.042 414.219L362.228 413.693L358.772 412.473L358.587 412.999L358.401 413.526L361.856 414.745L362.042 414.219ZM605.643 565.022L605.447 564.5C594.055 568.791 577.882 571.481 559.918 571.481V572.039V572.597C577.976 572.597 594.29 569.896 605.84 565.545L605.643 565.022ZM653.764 547.686L653.558 547.168C641.588 551.913 634.265 554.474 627.586 556.734C620.904 558.994 614.853 560.957 605.447 564.5L605.643 565.022L605.84 565.545C615.224 562.01 621.253 560.054 627.944 557.791C634.637 555.527 641.979 552.959 653.97 548.205L653.764 547.686ZM201.039 440.198H201.597C201.597 438.707 202.637 437.215 204.81 435.691C206.965 434.179 210.105 432.728 214.009 431.292C221.815 428.422 232.512 425.668 244.104 422.595L243.961 422.056L243.818 421.516C232.255 424.582 221.491 427.352 213.624 430.245C209.693 431.691 206.444 433.181 204.169 434.777C201.912 436.36 200.481 438.143 200.481 440.198H201.039ZM243.961 422.056L244.104 422.595C257.475 419.051 272.106 415.383 285.397 412.602C298.7 409.818 310.616 407.931 318.575 407.931V407.373V406.815C310.49 406.815 298.474 408.725 285.168 411.509C271.85 414.297 257.197 417.97 243.818 421.516L243.961 422.056Z" fill="white"/>
<path d="M509.813 585.229C522.302 589.755 539.369 591.215 559.118 591.215C579.527 591.215 598.176 588.018 611.587 582.489C630.759 576.325 671.453 563.064 678.464 552.754C685.475 542.445 682.602 528.772 659.262 514.772M510.208 585.342C497.401 580.37 489.97 576.325 468.618 576.325C451.777 576.325 439.776 581.921 423.696 586.416C415.33 589.644 404.963 591.215 398.295 587.986L180.943 500.482C179.99 500.098 179.566 499.051 180.017 498.172C181.877 494.551 186.434 485.678 188.965 480.775C190.002 478.766 191.425 476.961 193.16 475.437L193.265 475.346M203.086 436.145C200.358 438.37 198.357 441.45 195.083 448.639C192.173 455.028 198.539 460.372 205.268 463.186C210.36 465.316 209.087 470.717 203.813 472.429" stroke="white" stroke-width="1.11622"/>
<ellipse cx="419.51" cy="487.663" rx="137.495" ry="40.5629" stroke="white" stroke-width="1.11622"/>
<ellipse cx="419.514" cy="490.571" rx="122.218" ry="32.1765" stroke="white" stroke-width="1.11622"/>
<path d="M536.277 500.156C535.167 498.075 533.226 496.061 530.541 494.138C514.269 482.483 470.702 474.141 419.511 474.141C368.321 474.141 324.754 482.483 308.482 494.138C305.801 496.059 303.861 498.069 302.75 500.147" stroke="white" stroke-width="1.11622"/>
<path d="M551.844 544.322C552.707 544.337 553.576 544.477 554.238 544.754L561.586 547.828L569.603 545.005C570.316 544.754 571.209 544.642 572.073 544.656C572.936 544.671 573.804 544.811 574.467 545.088C574.798 545.226 575.068 545.396 575.255 545.597C575.445 545.802 575.561 546.056 575.529 546.338C575.499 546.612 575.336 546.843 575.119 547.025C574.902 547.208 574.606 547.363 574.25 547.488L566.933 550.065L573.597 552.854C573.928 552.992 574.198 553.16 574.385 553.361C574.575 553.566 574.69 553.821 574.658 554.103C574.627 554.377 574.466 554.608 574.249 554.79C574.032 554.973 573.736 555.127 573.38 555.253C572.667 555.504 571.774 555.616 570.91 555.602C570.047 555.587 569.178 555.447 568.516 555.17L561.167 552.095L553.151 554.919C552.438 555.17 551.545 555.282 550.681 555.268C549.818 555.253 548.95 555.113 548.287 554.836C547.956 554.697 547.686 554.528 547.499 554.327C547.309 554.122 547.193 553.868 547.225 553.586C547.255 553.312 547.418 553.081 547.635 552.898C547.852 552.716 548.148 552.561 548.504 552.436L555.82 549.857L549.157 547.07C548.826 546.932 548.556 546.763 548.369 546.562C548.179 546.357 548.064 546.103 548.096 545.821C548.126 545.547 548.288 545.316 548.505 545.134C548.722 544.951 549.018 544.796 549.374 544.671C550.087 544.42 550.98 544.308 551.844 544.322Z" stroke="white" stroke-width="0.669731"/>
<path d="M249.259 434.896C249.979 434.907 250.701 435.015 251.248 435.226L257.462 437.615L264.24 435.421C264.831 435.23 265.573 435.144 266.294 435.155C267.014 435.166 267.736 435.274 268.283 435.484C268.556 435.589 268.776 435.716 268.926 435.865C269.078 436.016 269.173 436.206 269.147 436.419C269.122 436.625 268.99 436.797 268.815 436.932C268.64 437.067 268.399 437.184 268.104 437.279L261.851 439.304L267.55 441.496C267.822 441.601 268.042 441.727 268.192 441.876C268.345 442.027 268.44 442.218 268.414 442.431C268.389 442.637 268.257 442.809 268.083 442.943C267.907 443.079 267.666 443.196 267.371 443.291C266.781 443.482 266.039 443.568 265.317 443.557C264.597 443.546 263.875 443.438 263.328 443.228L257.114 440.837L250.336 443.032C249.746 443.223 249.004 443.309 248.282 443.298C247.562 443.287 246.841 443.179 246.294 442.969C246.021 442.864 245.802 442.738 245.651 442.589C245.499 442.438 245.404 442.247 245.43 442.034C245.455 441.828 245.587 441.657 245.761 441.522C245.937 441.386 246.178 441.269 246.473 441.174L252.726 439.149L247.026 436.957C246.754 436.852 246.534 436.726 246.384 436.577C246.231 436.426 246.136 436.236 246.162 436.022C246.187 435.817 246.319 435.645 246.493 435.511C246.669 435.375 246.91 435.259 247.205 435.163C247.795 434.972 248.537 434.886 249.259 434.896Z" stroke="white" stroke-width="0.446487"/>
<path d="M416.602 419.03L424.604 417.012V146.557" stroke="white" stroke-width="1.11622"/>
<path d="M421.348 427.422L222.307 478.226C220.302 478.737 220.118 481.345 222.033 482.102L403.677 553.863C407.095 555.214 410.906 555.405 414.458 554.405L627.388 494.47C629.424 493.897 629.477 491.2 627.464 490.557L430.683 427.696C427.669 426.733 424.42 426.638 421.348 427.422Z" stroke="white" stroke-width="0.446487"/>
<path d="M656.568 808.982L649.875 803.243L654.635 785.747C656.122 779.914 659.662 767.41 661.923 764.051C664.749 759.852 671.293 757.612 675.904 755.793C679.593 754.337 834.905 697.518 912.1 669.291L985.428 695.046L654.635 822.419L656.568 820.04L657.609 816.401L656.568 808.982Z" fill="url(#paint1_linear_7228_283523)" fill-opacity="0.5"/>
<path d="M414.061 452.748C414.061 454.544 412.514 456 410.606 456C408.697 456 407.15 454.544 407.15 452.748C407.15 450.952 408.697 449.496 410.606 449.496C412.514 449.496 414.061 450.952 414.061 452.748Z" stroke="white" stroke-width="0.446487"/>
<path d="M398.42 453.433C398.42 455.229 396.873 456.684 394.965 456.684C393.056 456.684 391.509 455.229 391.509 453.433C391.509 451.637 393.056 450.181 394.965 450.181C396.873 450.181 398.42 451.637 398.42 453.433Z" stroke="white" stroke-width="0.446487"/>
<path d="M383.143 454.459C383.143 456.255 381.596 457.711 379.688 457.711C377.779 457.711 376.232 456.255 376.232 454.459C376.232 452.664 377.779 451.208 379.688 451.208C381.596 451.208 383.143 452.664 383.143 454.459Z" stroke="white" stroke-width="0.446487"/>
<path d="M368.23 455.829C368.23 457.625 366.845 459.081 365.138 459.081C363.43 459.081 362.046 457.625 362.046 455.829C362.046 454.033 363.43 452.577 365.138 452.577C366.845 452.577 368.23 454.033 368.23 455.829Z" stroke="white" stroke-width="0.446487"/>
<path d="M354.407 457.883C354.407 459.678 353.023 461.134 351.316 461.134C349.608 461.134 348.224 459.678 348.224 457.883C348.224 456.087 349.608 454.631 351.316 454.631C353.023 454.631 354.407 456.087 354.407 457.883Z" stroke="white" stroke-width="0.446487"/>
<path d="M340.949 460.963C340.949 462.759 339.646 464.215 338.039 464.215C336.432 464.215 335.129 462.759 335.129 460.963C335.129 459.167 336.432 457.711 338.039 457.711C339.646 457.711 340.949 459.167 340.949 460.963Z" stroke="white" stroke-width="0.446487"/>
<path d="M328.579 463.927C328.66 465.721 327.424 467.228 325.819 467.292C324.213 467.357 322.846 465.954 322.764 464.16C322.683 462.366 323.919 460.859 325.525 460.795C327.13 460.73 328.498 462.133 328.579 463.927Z" stroke="white" stroke-width="0.446487"/>
<path d="M317.666 467.346C317.763 469.139 316.703 470.648 315.298 470.715C313.894 470.782 312.677 469.382 312.58 467.589C312.484 465.795 313.544 464.286 314.948 464.219C316.352 464.152 317.569 465.552 317.666 467.346Z" stroke="white" stroke-width="0.446487"/>
<path d="M307.773 471.269C308.144 473.19 307.483 474.912 306.297 475.114C305.111 475.317 303.849 473.924 303.479 472.002C303.108 470.081 303.769 468.359 304.955 468.157C306.141 467.954 307.403 469.347 307.773 471.269Z" stroke="white" stroke-width="0.446487"/>
<path d="M299.638 476.473C300.282 478.674 300.02 480.662 299.051 480.913C298.083 481.164 296.775 479.584 296.131 477.382C295.486 475.181 295.749 473.194 296.717 472.942C297.686 472.691 298.993 474.272 299.638 476.473Z" stroke="white" stroke-width="0.446487"/>
<path d="M293.711 481.928C295.144 483.77 295.735 485.656 295.032 486.141C294.329 486.625 292.598 485.524 291.165 483.682C289.732 481.84 289.14 479.954 289.843 479.469C290.546 478.985 292.278 480.086 293.711 481.928Z" stroke="white" stroke-width="0.446487"/>
<path d="M430.066 452.748C430.066 454.544 428.519 456 426.61 456C424.702 456 423.155 454.544 423.155 452.748C423.155 450.952 424.702 449.496 426.61 449.496C428.519 449.496 430.066 450.952 430.066 452.748Z" stroke="white" stroke-width="0.446487"/>
<path d="M445.343 453.433C445.343 455.229 443.796 456.684 441.888 456.684C439.979 456.684 438.432 455.229 438.432 453.433C438.432 451.637 439.979 450.181 441.888 450.181C443.796 450.181 445.343 451.637 445.343 453.433Z" stroke="white" stroke-width="0.446487"/>
<path d="M459.893 454.459C459.893 456.255 458.346 457.711 456.437 457.711C454.529 457.711 452.982 456.255 452.982 454.459C452.982 452.664 454.529 451.208 456.437 451.208C458.346 451.208 459.893 452.664 459.893 454.459Z" stroke="white" stroke-width="0.446487"/>
<path d="M472.988 455.486C472.988 457.282 471.603 458.738 469.896 458.738C468.188 458.738 466.804 457.282 466.804 455.486C466.804 453.69 468.188 452.235 469.896 452.235C471.603 452.235 472.988 453.69 472.988 455.486Z" stroke="white" stroke-width="0.446487"/>
<path d="M485.719 457.54C485.719 459.336 484.334 460.792 482.627 460.792C480.919 460.792 479.535 459.336 479.535 457.54C479.535 455.744 480.919 454.288 482.627 454.288C484.334 454.288 485.719 455.744 485.719 457.54Z" stroke="white" stroke-width="0.446487"/>
<path d="M497.722 459.594C497.722 461.39 496.501 462.846 494.994 462.846C493.487 462.846 492.266 461.39 492.266 459.594C492.266 457.798 493.487 456.342 494.994 456.342C496.501 456.342 497.722 457.798 497.722 459.594Z" stroke="white" stroke-width="0.446487"/>
<path d="M508.271 461.99C508.271 463.786 507.049 465.242 505.543 465.242C504.036 465.242 502.814 463.786 502.814 461.99C502.814 460.194 504.036 458.738 505.543 458.738C507.049 458.738 508.271 460.194 508.271 461.99Z" stroke="white" stroke-width="0.446487"/>
<path d="M519.175 465.27C519.027 467.06 517.69 468.423 516.188 468.313C514.685 468.204 513.587 466.663 513.735 464.873C513.883 463.082 515.22 461.719 516.722 461.829C518.224 461.939 519.322 463.479 519.175 465.27Z" stroke="white" stroke-width="0.446487"/>
<path d="M528.301 468.673C528.067 470.455 526.826 471.778 525.53 471.627C524.235 471.477 523.374 469.909 523.608 468.127C523.842 466.345 525.083 465.022 526.378 465.173C527.674 465.324 528.535 466.891 528.301 468.673Z" stroke="white" stroke-width="0.446487"/>
<path d="M535.737 472.658C535.206 474.383 533.993 475.568 533.028 475.305C532.064 475.042 531.712 473.43 532.243 471.706C532.775 469.981 533.987 468.795 534.952 469.059C535.917 469.322 536.268 470.933 535.737 472.658Z" stroke="white" stroke-width="0.446487"/>
<path d="M542.101 476.911C541.359 478.698 540 479.867 539.064 479.524C538.128 479.18 537.971 477.452 538.713 475.666C539.454 473.879 540.814 472.709 541.749 473.053C542.685 473.397 542.842 475.124 542.101 476.911Z" stroke="white" stroke-width="0.446487"/>
<path d="M547.108 482.376C545.783 483.977 544.125 484.846 543.404 484.318C542.683 483.79 543.172 482.064 544.497 480.463C545.821 478.863 547.479 477.993 548.2 478.522C548.921 479.05 548.432 480.776 547.108 482.376Z" stroke="white" stroke-width="0.446487"/>
<path d="M549.844 488.913C547.846 490.147 545.872 490.641 545.435 490.015C544.999 489.389 546.265 487.881 548.264 486.646C550.262 485.412 552.236 484.918 552.673 485.544C553.109 486.17 551.843 487.678 549.844 488.913Z" stroke="white" stroke-width="0.446487"/>
<path d="M659.959 515.19C655.23 511.938 656.879 509.16 664.142 506.803L717.102 492.156M983.613 420.186L891.218 445.841" stroke="white" stroke-width="1.11622"/>
<path d="M963.249 333.455L870.72 357.054M665.766 408.661L706.223 398.224" stroke="white" stroke-width="1.11622"/>
<path d="M963.249 328.252L860.325 354.272M665.766 403.458L720.133 389.714" stroke="white" stroke-width="0.446487"/>
<path d="M911.656 669.254L970.734 692.358C977.75 695.102 985.627 695.155 992.683 692.506L1052.79 669.944L1064.06 665.365C1091.22 654.328 1108.8 629.152 1108.8 601.312V491.947C1108.8 464.22 1094.98 451.869 1075.89 456.684C1065.16 459.39 548.316 620.788 541.184 622.988C509.7 632.702 486.805 662.224 486.805 697.135V830.907C486.805 856.671 513.683 874.826 539.621 866.58L541.184 866.084L652.93 822.138C655.637 821.074 657.4 818.583 657.4 815.822V810.735C657.4 808.564 656.116 806.573 654.069 805.572L648.306 802.752" stroke="white" stroke-width="2.90217"/>
<path d="M499.539 756.028H503.358C503.358 744.618 503.358 727.72 503.358 713.754C503.358 699.788 497.357 649.914 557.92 630.916C605.006 616.146 1065.16 470.205 1071.89 467.98C1078.62 465.755 1085.53 465.242 1087.53 466.611" stroke="white" stroke-width="0.446487"/>
<path d="M659.219 496.48L662.161 495.738C663.751 495.337 664.857 493.981 664.857 492.432V209.201C664.857 192.973 653.809 178.571 637.442 173.462L475.414 122.887C469.195 120.946 464.806 115.702 464.256 109.559L454.568 0.878936C454.389 -1.12324 455.803 -2.91732 457.791 -3.21215L495.133 -8.74889C498.29 -9.21469 501.401 -7.68705 502.8 -4.9834L524.311 38.2871C526.441 42.4019 531.208 44.6936 535.999 43.9062L920.298 -19.2493C922.189 -19.5599 924.01 -18.4353 924.46 -16.6799L956.944 110.069C960.447 123.735 962.217 137.744 962.217 151.802V398.097C962.217 406.839 968.097 414.623 976.872 417.495L1091.35 455.486" stroke="white" stroke-width="1.33946"/>
<path d="M412.057 117.804L353.418 103.59C352.716 103.42 352.039 103.952 352.039 104.675V131.759C352.039 133.815 353.443 135.606 355.44 136.095L408.343 149.07C410.791 149.67 413.338 149.745 415.817 149.291L482.077 137.144L412.057 117.804Z" stroke="white" stroke-width="1.33946"/>
<path d="M469.528 120.372L228.121 66.1702C224.965 65.4615 222.871 62.4617 223.293 59.2545L236.295 -39.4034C236.661 -42.183 238.834 -44.3787 241.609 -44.7748L281.291 -50.4375L498.04 -8.63321" stroke="white" stroke-width="1.33946"/>
<path d="M218.502 429.244C163.468 442.703 109.111 456.012 107.243 456.571C82.7989 463.882 64.8672 487.906 64.8672 516.415L65.0121 627.144C65.0347 644.394 74.9914 660.087 90.5878 667.456L509.543 865.393M301.253 408.877C386.739 388.023 421.606 379.836 424.609 379.836" stroke="white" stroke-width="1.33946"/>
<path d="M498.807 758.411V697.884C498.807 666.436 519.428 639.843 547.783 631.092C554.207 629.11 1067.72 465.984 1075.52 464.213C1088.8 461.201 1099.71 465.404 1099.71 491.076V546.012L498.807 758.411ZM498.807 758.411V805.805M655.762 808.741L538.755 853.847C519.609 861.228 498.625 847.977 498.625 828.506V805.805M1095.97 547.678V596.89C1095.97 623.352 1078.93 647.176 1052.88 657.14L987.918 681.99C983.455 683.698 978.454 683.669 974.013 681.91L928.205 663.764" stroke="white" stroke-width="1.33946"/>
<path d="M499.719 778.962L507.318 782.39C510.94 784.025 515.12 784.177 518.866 782.811L611.752 748.931M1079.52 553.213V573.979C1079.52 578.267 1076.69 582.104 1072.42 583.601L1012.05 604.778M611.752 748.931L615.446 747.583C615.657 747.506 615.869 747.436 616.08 747.372M611.752 748.931L616.08 747.372M1012.05 604.778L1011.7 604.905M1012.05 604.778C1011.93 604.819 1011.81 604.862 1011.7 604.905M616.08 747.372L1011.7 604.905M616.08 747.372C623.046 745.269 630.302 750.153 630.302 757.158V800.376C630.302 805.21 635.483 808.521 640.258 806.74L645.099 804.934C648.47 803.677 650.957 800.926 651.736 797.593L657.624 772.396C659.189 765.697 664.205 760.176 670.992 757.679L952.348 654.163C957.772 652.167 963.905 654.531 966.283 659.534L975.518 678.967C977.03 682.148 980.937 683.642 984.378 682.356L987.009 681.372C989.77 680.34 991.696 677.953 992.012 675.173L998.079 621.711C998.937 614.15 1004.19 607.677 1011.7 604.905" stroke="white" stroke-width="2.00919"/>
<path d="M634.119 806.86L546.82 773.314" stroke="white" stroke-width="2.00919"/>
<path d="M486.807 694.413L65.0469 516.758" stroke="white" stroke-width="2.00919"/>
<path d="M661.036 195.164L464.797 140.566" stroke="white" stroke-width="2.00919"/>
<path d="M351.674 106.337L229.82 66.8008" stroke="white" stroke-width="1.33946"/>
<path d="M596.297 724.194V729.381C596.297 730.344 597.325 731.006 598.279 730.657L630.47 718.885C631.03 718.681 631.398 718.174 631.398 717.609V711.529M705.056 686.369V691.557C705.056 692.52 706.084 693.182 707.038 692.833L739.229 681.061C739.789 680.856 740.157 680.349 740.157 679.784V673.704M807.268 650.77V655.957C807.268 656.92 808.296 657.582 809.25 657.233L841.441 645.461C842 645.257 842.369 644.75 842.369 644.185V638.105M901.477 616.882V622.069C901.477 623.032 902.505 623.694 903.459 623.345L935.65 611.573C936.21 611.369 936.578 610.862 936.578 610.297V604.217M991.685 584.021V589.208C991.685 590.171 992.713 590.833 993.667 590.484L1025.86 578.712C1026.42 578.507 1026.79 578.001 1026.79 577.436V571.355" stroke="white" stroke-width="1.33946"/>
<path d="M419.224 473.727C476.609 473.727 524.477 484.865 535.484 499.665C520.562 512.801 474.158 522.379 419.224 522.379C364.288 522.379 317.882 512.801 302.961 499.665C313.967 484.865 361.838 473.727 419.224 473.727Z" fill="#E4255B" fill-opacity="0.14"/>
<path d="M413.577 118.392L353.219 103.75C352.738 110.773 351.776 125.479 351.776 128.122C351.776 131.426 353.219 135.558 358.316 136.568C363.412 137.578 388.629 142.879 396.408 146.161C402.632 148.786 410.447 149.106 413.577 148.938V118.392Z" fill="#D9D9D9" fill-opacity="0.07"/>
<path d="M456.279 -1.81187L239.23 -42.6676C238.264 -41.5402 236.303 -39.0164 236.182 -37.9399C236.032 -36.5943 223.272 54.4039 223.272 54.8278C223.272 55.2517 223.53 59.7324 224.173 61.4279C224.688 62.7842 227.243 64.822 228.457 65.6714L466.425 119.664H469.239C467.733 117.341 464.662 112.109 464.425 109.767C464.129 106.84 454.871 6.27239 454.575 3.06649C454.338 0.501762 455.612 -1.25439 456.279 -1.81187Z" fill="#D9D9D9" fill-opacity="0.07"/>
<path d="M662.046 195.35L466.425 139.953L424.754 147.742L424.052 399.368V417.746L660.461 495.413C661.112 495.413 662.598 495.284 663.333 494.765L663.448 494.684C664.309 494.078 664.942 493.633 664.942 492.494V413.788C664.559 352.524 664.023 227.424 664.942 217.131C665.861 206.839 663.394 198.322 662.046 195.35Z" fill="#D9D9D9" fill-opacity="0.07"/>
<path d="M486.721 694.385L65.0191 517.207L64.0625 585.221C64.5068 597.66 65.0191 623.794 65.0191 623.794C65.0191 623.794 413.15 781.271 486.721 814.5V694.385Z" fill="#D9D9D9" fill-opacity="0.07"/>
<path d="M203.59 445.218C201.329 443.208 201.182 440.439 201.392 439.306C200.135 439.306 194.639 448.469 194.168 451.425C193.696 454.38 197.151 458.519 199.507 460.292C201.863 462.065 207.673 464.282 208.459 466.795C209.087 468.805 206.312 471.179 204.847 472.115C205.213 472.362 207.611 472.086 214.269 469.012C222.593 465.169 221.808 462.657 222.436 460.292C223.064 457.927 219.766 454.528 216.154 452.459C212.542 450.39 206.417 447.73 203.59 445.218Z" fill="#D9D9D9" fill-opacity="0.07"/>
<path d="M594.669 587.055L591.685 570.202C584.744 570.68 569.72 571.638 565.154 571.638H542.842L541.977 590.519C544.692 590.845 552.7 591.497 563.014 591.497C573.329 591.497 588.416 588.535 594.669 587.055Z" fill="#D9D9D9" fill-opacity="0.07"/>
<path d="M517.941 587.943L521.778 567.58L512.417 564.836C510.524 569.939 506.524 580.924 505.665 584.044C507.383 585.083 514.565 587.076 517.941 587.943Z" fill="#D9D9D9" fill-opacity="0.07"/>
<path d="M405.853 589.809L412.698 564.836L408.411 563.795L193.964 478.474L192.338 476.816L189.627 479.366C186.533 485.063 180.263 496.813 179.937 498.242C179.612 499.67 181.247 500.707 182.106 501.048C250.959 528.686 389.748 584.418 394.073 586.24C398.398 588.063 403.728 589.379 405.853 589.809Z" fill="#D9D9D9" fill-opacity="0.07"/>
<path d="M281.809 -49.8035V-60.0566L496.886 -20.8926V-9.02132L495.734 -8.79085L281.809 -49.8035Z" fill="#D9D9D9" fill-opacity="0.07"/>
<path d="M496.748 658.244C500.517 648.582 502.686 648.977 505.665 646.378L79.1731 475.607C76.566 478.335 73.6207 481.426 72.0206 485.929C70.4205 490.432 68.1993 495.898 66.7285 501.048L489.681 675.476C490.222 672.571 492.979 667.906 496.748 658.244Z" fill="#D9D9D9" fill-opacity="0.07"/>
<path d="M859.933 360.084H859.375V360.814L860.079 360.623L859.933 360.084ZM716.532 395.292L716.664 395.834V395.834L716.532 395.292ZM872.016 356.805L872.163 357.344V357.344L872.016 356.805ZM704.359 401.98H703.801L703.801 401.98L704.359 401.98ZM708.168 397.342L708.035 396.8V396.8L708.168 397.342ZM708.528 481.117L708.384 480.578L708.528 481.117ZM704.445 482.237L703.887 482.238C703.887 482.413 703.969 482.577 704.108 482.683C704.248 482.788 704.428 482.822 704.596 482.775L704.445 482.237ZM872.497 437.278L872.352 436.739L872.497 437.278ZM876.197 436.251L876.354 436.787L876.755 436.67V436.251H876.197ZM855.86 339.909L855.988 340.452L855.86 339.909ZM724.189 371.126L724.06 370.583L724.189 371.126ZM724.189 371.126L724.317 371.669L855.988 340.452L855.86 339.909L855.731 339.366L724.06 370.583L724.189 371.126ZM872.497 437.278L872.352 436.739L708.384 480.578L708.528 481.117L708.672 481.656L872.641 437.817L872.497 437.278ZM704.445 482.237L705.003 482.237L704.917 401.979L704.359 401.98L703.801 401.98L703.887 482.238L704.445 482.237ZM876.197 359.765H875.639V436.251H876.197H876.755V359.765H876.197ZM859.933 342.897H859.375V360.084H859.933H860.491V342.897H859.933ZM859.933 360.084L860.079 360.623L872.163 357.344L872.016 356.805L871.87 356.267L859.787 359.546L859.933 360.084ZM708.168 397.342L708.301 397.884L716.664 395.834L716.532 395.292L716.399 394.75L708.035 396.8L708.168 397.342ZM720.34 390.654H720.898V375.773H720.34H719.782V390.654H720.34ZM716.532 395.292L716.664 395.834C719.136 395.228 720.898 393.114 720.898 390.654H720.34H719.782C719.782 392.558 718.413 394.256 716.399 394.75L716.532 395.292ZM876.197 359.765H876.755C876.755 357.303 874.274 355.614 871.87 356.267L872.016 356.805L872.163 357.344C873.945 356.86 875.639 358.127 875.639 359.765H876.197ZM704.359 401.98H704.917C704.917 400.076 706.287 398.378 708.301 397.884L708.168 397.342L708.035 396.8C705.563 397.406 703.801 399.52 703.801 401.98H704.359ZM708.528 481.117L708.384 480.578C707.336 480.858 706.314 481.139 705.554 481.349C705.173 481.454 704.859 481.542 704.639 481.603C704.529 481.634 704.443 481.658 704.384 481.675C704.355 481.683 704.332 481.689 704.317 481.694C704.309 481.696 704.304 481.697 704.3 481.699C704.298 481.699 704.296 481.7 704.295 481.7C704.295 481.7 704.294 481.7 704.294 481.7C704.294 481.7 704.294 481.7 704.294 481.7C704.294 481.7 704.294 481.7 704.294 481.7C704.294 481.7 704.294 481.7 704.445 482.237C704.596 482.775 704.596 482.775 704.596 482.775C704.596 482.775 704.596 482.775 704.597 482.775C704.597 482.775 704.597 482.775 704.597 482.775C704.597 482.774 704.597 482.774 704.598 482.774C704.599 482.774 704.6 482.774 704.602 482.773C704.606 482.772 704.612 482.77 704.619 482.768C704.634 482.764 704.656 482.758 704.686 482.75C704.744 482.733 704.83 482.709 704.939 482.678C705.158 482.617 705.472 482.53 705.851 482.425C706.61 482.215 707.629 481.935 708.672 481.656L708.528 481.117ZM872.497 437.278L872.641 437.817C873.738 437.524 874.666 437.266 875.319 437.082C875.646 436.99 875.904 436.917 876.081 436.866C876.169 436.84 876.237 436.821 876.283 436.807C876.306 436.801 876.324 436.796 876.336 436.792C876.341 436.791 876.346 436.789 876.349 436.788C876.35 436.788 876.352 436.788 876.352 436.787C876.353 436.787 876.353 436.787 876.353 436.787C876.353 436.787 876.353 436.787 876.353 436.787C876.354 436.787 876.354 436.787 876.354 436.787C876.354 436.787 876.354 436.787 876.197 436.251C876.041 435.716 876.041 435.716 876.041 435.716C876.041 435.716 876.041 435.716 876.041 435.716C876.041 435.716 876.041 435.716 876.041 435.716C876.04 435.716 876.04 435.716 876.04 435.716C876.039 435.716 876.038 435.716 876.037 435.717C876.034 435.718 876.03 435.719 876.024 435.72C876.012 435.724 875.995 435.729 875.973 435.735C875.928 435.748 875.86 435.768 875.773 435.793C875.598 435.843 875.341 435.916 875.017 436.008C874.367 436.191 873.444 436.447 872.352 436.739L872.497 437.278ZM855.86 339.909L855.988 340.452C857.748 340.035 859.375 341.293 859.375 342.897H859.933H860.491C860.491 340.487 858.106 338.803 855.731 339.366L855.86 339.909ZM724.189 371.126L724.06 370.583C721.567 371.174 719.782 373.297 719.782 375.773H720.34H720.898C720.898 373.857 722.285 372.15 724.317 371.669L724.189 371.126Z" fill="white"/>
<path d="M725.094 476.873V376.655C725.094 375.871 725.659 375.188 726.466 374.996L859.579 343.309V441.12" stroke="white" stroke-width="0.446487"/>
<path d="M704.625 482.028L717.642 487.923C720.949 489.42 724.675 489.72 728.179 488.769L890.843 444.653C891.661 444.431 891.739 443.301 890.958 442.969L875.824 436.537" stroke="white" stroke-width="1.11622"/>
<path d="M891.094 443.307V447.917C891.094 448.319 890.825 448.672 890.436 448.778L728.202 493.055C724.685 494.014 720.944 493.715 717.625 492.207L705.378 486.645C704.501 486.246 703.938 485.372 703.938 484.409V481.488" stroke="white" stroke-width="0.446487"/>
</g>
<path opacity="0.5" d="M739.534 383.109C739.534 427.789 703.314 464.009 658.634 464.009C613.954 464.009 577.734 427.789 577.734 383.109" stroke="white" stroke-width="0.879346"/>
<g filter="url(#filter0_d_7228_283523)">
<circle cx="658.634" cy="376.954" r="80.8998" fill="#1B1B2D"/>
<circle cx="658.634" cy="376.954" r="80.8998" fill="url(#paint2_linear_7228_283523)" fill-opacity="0.4"/>
</g>
<circle cx="658.185" cy="376.515" r="76.9427" stroke="#E4255B" stroke-width="10.5521"/>
<path d="M647.948 346.333C647.948 344.876 649.129 343.695 650.586 343.695H664.243C665.7 343.695 666.881 344.876 666.881 346.333V353.964C666.881 364.072 665.159 375.041 664.108 385.176C663.967 386.531 662.83 387.568 661.468 387.568H653.459C652.108 387.568 650.976 386.548 650.824 385.206C649.674 375.063 647.948 364.082 647.948 353.964V346.333ZM649.833 416.156C648.376 416.156 647.195 414.975 647.195 413.518V400.237C647.195 398.78 648.376 397.599 649.833 397.599H664.619C666.076 397.599 667.257 398.78 667.257 400.237V413.518C667.257 414.975 666.076 416.156 664.619 416.156H649.833Z" fill="#E4255B"/>
<circle cx="658.633" cy="376.954" r="71.227" stroke="white" stroke-width="1.75869"/>
<defs>
<filter id="filter0_d_7228_283523" x="535.526" y="274.95" width="246.214" height="246.216" filterUnits="userSpaceOnUse" color-interpolation-filters="sRGB">
<feFlood flood-opacity="0" result="BackgroundImageFix"/>
<feColorMatrix in="SourceAlpha" type="matrix" values="0 0 0 0 0 0 0 0 0 0 0 0 0 0 0 0 0 0 127 0" result="hardAlpha"/>
<feOffset dy="21.1043"/>
<feGaussianBlur stdDeviation="21.1043"/>
<feComposite in2="hardAlpha" operator="out"/>
<feColorMatrix type="matrix" values="0 0 0 0 0.894118 0 0 0 0 0.145098 0 0 0 0 0.356863 0 0 0 0.5 0"/>
<feBlend mode="normal" in2="BackgroundImageFix" result="effect1_dropShadow_7228_283523"/>
<feBlend mode="normal" in="SourceGraphic" in2="effect1_dropShadow_7228_283523" result="shape"/>
</filter>
<radialGradient id="paint0_radial_7228_283523" cx="0" cy="0" r="1" gradientUnits="userSpaceOnUse" gradientTransform="translate(423.405 456.097) rotate(87.9774) scale(236.691 421.469)">
<stop offset="0.672471" stop-color="#737373"/>
<stop offset="1" stop-color="#D9D9D9" stop-opacity="0"/>
</radialGradient>
<linearGradient id="paint1_linear_7228_283523" x1="786.801" y1="703.368" x2="814.719" y2="765.268" gradientUnits="userSpaceOnUse">
<stop/>
<stop offset="1" stop-opacity="0"/>
</linearGradient>
<linearGradient id="paint2_linear_7228_283523" x1="739.534" y1="479.935" x2="596.357" y2="349.159" gradientUnits="userSpaceOnUse">
<stop stop-color="#E4255B"/>
<stop offset="1" stop-color="#E4255B" stop-opacity="0.2"/>
</linearGradient>
</defs>
</svg>
