<svg width="1776" height="444" viewBox="0 0 1776 444" fill="none" xmlns="http://www.w3.org/2000/svg">
<g clip-path="url(#clip0_4785_17784)">
<rect width="1776" height="444" fill="black" fill-opacity="0.01"/>
<path d="M1353.02 338.227L1518.69 392.444C1541.57 399.929 1575.23 391.571 1593.88 373.776L1603.36 364.733C1608.12 360.184 1609.9 355.004 1608.17 350.715L1600.41 331.461C1599.37 328.888 1600.44 325.78 1603.3 323.051L1675.27 254.375C1678.3 251.482 1682.97 249.373 1687.75 248.736L1720.76 244.339C1727.14 243.49 1733.36 240.678 1737.41 236.821L1744.43 230.115C1755.67 219.389 1759.32 207.122 1754.15 197.391L1753.57 196.284C1750.75 190.972 1741.5 189.047 1731.91 191.776L1710.62 197.834C1702.49 200.148 1694.19 200.296 1687.77 198.243L1593.37 168.042C1586.87 165.96 1578.13 166.616 1570.24 169.78L1553.65 176.431C1546.36 179.35 1538.49 179.999 1532.52 178.046M1370.34 343.896L1204.67 289.68C1181.8 282.194 1178.38 261.699 1197.02 243.903L1206.5 234.86C1211.27 230.311 1218.48 226.91 1226.02 225.654L1259.87 220.019C1264.39 219.266 1268.72 217.225 1271.58 214.495L1343.55 145.819C1346.59 142.926 1347.59 139.619 1346.25 136.977L1336.96 118.737C1335.17 115.214 1336.51 110.806 1340.55 106.948L1347.58 100.242C1358.82 89.5167 1376.18 81.7391 1393.89 79.4954L1395.91 79.2401C1405.58 78.0152 1413.11 81.58 1413.54 87.5889L1414.5 100.929C1414.87 106.024 1418.7 110.142 1425.04 112.266L1518.36 143.495C1524.79 145.648 1528.04 150.227 1526.97 155.621L1524.7 166.962C1523.71 171.938 1526.55 176.093 1532.52 178.047M1613.52 250.725C1620.58 253.121 1621.87 259.528 1616.42 265.034L1535.62 346.618C1530.16 352.124 1520.02 354.645 1512.97 352.249L1313.31 284.423C1291.27 276.934 1287.21 256.914 1304.25 239.707L1304.25 239.706C1295.56 233.595 1295.26 222.959 1304.54 213.597C1313.81 204.236 1329.72 199.106 1343.09 200.49C1360.14 183.286 1391.82 175.41 1413.86 182.899L1613.52 250.725Z" stroke="url(#paint0_linear_4785_17784)" stroke-width="2"/>
<path d="M1370.14 335.411L1506.44 382.851C1511.09 384.384 1517.95 382.69 1521.74 379.071C1526.16 374.859 1533.97 372.684 1539.79 374.042L1552.27 376.953C1558.53 378.411 1566.91 376.075 1571.65 371.554L1590.46 353.609C1593.44 350.761 1594.46 347.507 1593.2 344.881L1587.57 333.229C1586.31 330.603 1587.33 327.349 1590.31 324.501L1667.82 250.538C1670.98 247.53 1675.89 245.38 1680.85 244.84L1687.97 244.064C1693.72 243.437 1699.41 240.945 1703.06 237.459L1719.85 221.441C1726.78 214.826 1725.5 207.204 1716.98 204.416C1711.73 202.698 1704.79 202.981 1698.21 205.18L1695.56 206.065C1690.79 207.661 1685.75 207.877 1681.92 206.65L1593.94 175.997C1587.43 173.91 1578.68 174.561 1570.78 177.721L1561.17 181.568C1551.31 185.513 1539.99 186.684 1531.9 184.036L1527.25 182.514C1519.16 179.866 1515.44 173.775 1516.78 167.039L1518.08 160.473C1519.15 155.078 1515.88 150.497 1509.44 148.343L1414.77 116.696C1410.99 115.429 1408.86 112.868 1409.01 109.761L1409.1 108.039C1409.31 103.756 1406.36 100.234 1401.11 98.5159C1392.59 95.7279 1380.06 98.8304 1373.13 105.445L1356.35 121.463C1352.69 124.949 1351.59 128.944 1353.42 132.052L1355.7 135.901C1357.28 138.582 1356.33 142.029 1353.17 145.037L1275.66 219C1272.68 221.848 1268.1 223.938 1263.38 224.605L1242.45 227.565C1237.73 228.233 1233.15 230.322 1230.16 233.171L1211.36 251.115C1206.62 255.637 1207.08 260.866 1212.41 263.201L1223.06 267.86C1228.03 270.035 1228.46 274.905 1224.04 279.117C1220.25 282.736 1220.96 286.907 1225.63 288.425L1370.14 335.411ZM1370.14 335.411L1368.63 334.915M1370.14 335.411L1371.65 335.902M1316.05 253.871L1316.05 253.872C1307.12 262.896 1304.11 273.084 1306.85 281.504M1316.05 253.871C1313.4 252.003 1311.59 249.681 1310.65 247.096M1316.05 253.871L1310.65 247.096M1310.65 247.096C1308.75 241.813 1310.53 235.431 1316.31 229.584C1324.93 220.875 1339.72 216.104 1352.14 217.392M1310.65 247.096L1304.76 239.691M1352.14 217.392C1367.98 201.388 1396.42 195.107 1416.9 202.073L1613.26 268.337M1352.14 217.392L1343.26 201.006M1561.64 187.474L1573.84 182.506C1579.74 180.101 1586.3 179.587 1591.16 181.147L1683.85 212.936C1687.45 214.09 1692.19 213.879 1696.7 212.364L1703.17 210.189C1706.87 208.943 1710.77 208.778 1713.71 209.741C1718.49 211.305 1719.19 215.599 1715.28 219.333L1700.18 233.744C1697.8 236.01 1694.27 237.743 1690.52 238.481L1675.4 241.46C1671.35 242.257 1667.54 244.128 1664.97 246.574L1582.61 325.169C1579.77 327.878 1578.8 330.97 1580 333.455L1585.6 344.969C1586.81 347.454 1585.83 350.546 1583 353.255L1567.61 367.938C1564.74 370.67 1559.69 372.077 1555.95 371.181L1540.46 367.464C1533.49 365.794 1524.07 368.416 1518.73 373.508C1515.94 376.169 1510.92 377.421 1507.52 376.301L1236.76 286.427C1233.35 285.319 1232.84 282.258 1235.63 279.597C1240.97 274.505 1240.45 268.627 1234.43 266.05L1221.05 260.317C1217.82 258.935 1217.55 255.782 1220.41 253.05L1235.8 238.367C1238.64 235.658 1242.99 233.671 1247.45 233.044L1268.16 230.137C1272.63 229.51 1276.98 227.524 1279.82 224.815L1362.19 146.22C1364.75 143.774 1365.8 141 1365.07 138.638L1362.32 129.809C1361.64 127.621 1362.61 125.052 1364.99 122.786L1380.09 108.376C1384 104.642 1391.05 102.882 1395.83 104.446C1398.77 105.409 1400.42 107.391 1400.29 109.805L1400.06 114.021C1399.9 116.957 1401.89 119.374 1405.45 120.564L1504.85 153.322C1509.66 154.93 1512.07 158.375 1511.2 162.429L1509.42 170.805C1507.85 178.174 1511.9 184.763 1520.7 187.642L1529.84 190.212C1538.64 193.092 1550.91 191.845 1561.64 187.474Z" stroke="url(#paint1_linear_4785_17784)"/>
<path fill-rule="evenodd" clip-rule="evenodd" d="M1396.5 79.5C1408.5 79.5 1413 82.5 1414 93C1415 103.5 1415 108.5 1424 112C1433 115.5 1462 124 1474.5 128.5C1487 133 1506.5 140 1513.5 142C1520.5 144 1528 148.5 1527 156.5C1526 164.5 1522 169.5 1526 173.5C1530 177.5 1538.5 181 1547 178.5C1555.5 176 1569 171 1573 169C1577 167 1587.5 165.5 1606.5 172C1625.5 178.5 1648.5 185.5 1662 190C1675.5 194.5 1691.5 201 1697 200C1702.5 199 1711 199 1722.5 194.5C1734 190 1748 189.5 1750.5 193.5C1753 197.5 1758 202 1756 211C1754 220 1746 229 1741 233.5C1736 238 1730 243 1722.5 244.5C1715 246 1694.5 248 1689.5 248.5C1684.5 249 1679 250.5 1671 258C1663 265.5 1607 318.5 1604.5 322C1602 325.5 1600 325.5 1600 329.5C1602.33 335.167 1607.2 347.1 1608 349.5C1609 352.5 1609 357.5 1604.5 363.5C1600 369.5 1583 385.5 1561.5 391.5C1540 397.5 1526.5 395.5 1514.5 391.5C1502.5 387.499 1209 291 1202.5 288.5C1196 286 1184.5 279 1185 267.5C1185.5 256 1195.5 244 1202.5 238.5C1209.5 233 1213.5 228 1221.5 226.5C1229.5 225 1255.5 221.5 1259.5 220C1263.5 218.5 1268 217.5 1276 210C1284 202.5 1341 149.001 1343.5 145.5C1346 142 1348.5 140 1345 134C1341.5 128 1337.5 120.5 1337 117.5C1336.5 114.5 1336 110.5 1342.5 105C1349 99.5 1369.5 80.5001 1396.5 79.5ZM1414.5 182.998C1406.5 179.998 1394 179.998 1386.5 180.498C1379 180.998 1368 185.498 1360.5 188.498C1354.5 190.898 1346.33 197.498 1343 200.498C1341.83 200.332 1337.2 200.299 1328 201.498C1316.5 202.997 1311 208.499 1305 212.998C1299 217.497 1298 224.998 1298 230.498C1298 234.898 1302 238.331 1304 239.498C1304 239.665 1303.3 240.799 1300.5 243.998C1297 247.998 1294 254.998 1293.5 262.498C1293.1 268.498 1298.67 275.331 1301.5 277.998C1303.33 279.665 1306.9 282.598 1306.5 280.998C1306 278.998 1306 271.998 1307.5 266.498C1308.7 262.098 1313.67 256.331 1316 253.998L1311 247.498C1310 245.165 1309.2 238.798 1314 231.998C1320 223.498 1331.5 219.998 1338 218.498C1343.2 217.298 1349.5 217.331 1352 217.498L1363.5 208.499C1371 204.499 1378.5 201.998 1390.5 199.999C1402.5 198.001 1413.5 200.999 1417.5 202.499C1420.7 203.699 1549.17 246.999 1613 268.499C1614.5 266.999 1617.7 263.6 1618.5 262C1619.5 260 1620 258 1618.5 254.5C1617.3 251.7 1608.67 248.665 1604.5 247.498L1499 211.5C1473.5 202.999 1420.9 185.398 1414.5 182.998Z" fill="url(#paint2_linear_4785_17784)" fill-opacity="0.1"/>
<path d="M1419.75 217.827L1370.03 230.222L1386.33 295.59M1451.47 228.135L1346.86 254.217L1354.61 285.281M1483.2 238.443L1328.87 276.92M1514.92 248.751L1360.6 287.229M1546.65 259.06L1392.33 297.537M1578.37 269.368L1424.05 307.845M1455.78 318.153L1560.39 292.071L1552.64 261.007M1487.5 328.461L1537.21 316.066L1520.92 250.698M1418.06 305.898L1394.01 209.466M1449.78 316.206L1425.74 219.774M1481.51 326.514L1457.47 230.082M1513.23 336.822L1489.19 240.39" stroke="url(#paint3_linear_4785_17784)" stroke-linecap="round"/>
<mask id="mask0_4785_17784" style="mask-type:alpha" maskUnits="userSpaceOnUse" x="716" y="-83" width="488" height="444">
<ellipse cx="959.984" cy="138.931" rx="247.715" ry="215.828" transform="rotate(-23.3759 959.984 138.931)" fill="url(#paint4_radial_4785_17784)"/>
</mask>
<g mask="url(#mask0_4785_17784)">
<rect width="345.235" height="149.036" rx="6.31299" transform="matrix(0.994522 0.104528 -0.207912 0.978148 765.867 16.8867)" fill="#D9D9D9" fill-opacity="0.07"/>
<path d="M1046.87 46.4213C1031.51 59.6846 1019.27 71.4881 1009.37 78.4711C997.012 87.1864 956.952 108.165 989.826 97.6601C1022.27 87.2926 1027.08 85.2525 1045.39 77.4861L1046.12 77.1738C1065.05 69.1477 1088.6 58.5733 1080.49 69.2537C1072.38 79.934 1031.83 111.483 1050.62 104.05C1069.42 96.6178 1080.1 94.4023 1085.59 89.2121C1091.07 84.0225 1085.68 92.864 1102.07 83.0539C1102.36 82.8798 1102.65 82.7009 1102.93 82.5196L1082.89 176.806C1079.25 174.13 1062.63 176.622 1058.59 172.261C1053.61 166.881 1063.87 154.303 1083.1 133.867C1102.32 113.43 1077.76 126.022 1073.11 132.817C1068.45 139.611 1055.27 149.454 1038.13 162.827C1020.99 176.199 1020.06 168.211 1023.57 158.565C1027.08 148.919 1031.74 144.856 1033.38 137.138C1035.02 129.42 1018.12 138.874 992.46 158.027C972.269 173.095 975.338 173.891 966.603 187.021L901.849 180.215C909.706 175.38 917.881 171.129 927.14 163.301C939.591 152.774 927.951 151.247 925.668 151.007C923.383 150.767 909.526 151.436 888.585 168.96C882.45 174.094 876.666 176.398 871.544 177.03L860.523 175.872C854.389 173.748 850.601 169.747 850.436 168.592C850.085 166.127 855.283 163.639 868.911 157.181C882.54 150.723 885.421 146.776 913.565 132.436C941.71 118.095 912.114 110.433 909.2 113.162C906.285 115.89 896.939 122.798 893.519 127.901C890.1 133.004 880.149 138.635 864.585 144.587C849.021 150.538 843.877 144.534 826.862 157.313C820.56 162.046 814.742 166.58 809.811 170.542L741.159 163.326C737.692 162.961 735.469 159.902 736.193 156.492L738.376 146.223C745.758 145.361 758.713 136.949 769.093 136.674C785.233 136.246 804.387 136.742 812.214 131.495C820.041 126.248 852.908 110.28 867.586 105.753C882.263 101.226 903.389 77.3466 948.593 62.3713C979.312 52.1948 991.025 45.2052 995.447 41.0166L1046.87 46.4213ZM1079.54 192.578C1078.81 195.989 1075.41 198.457 1071.95 198.093L1064.95 197.358C1072.52 190.736 1079.17 184.378 1082 180.971L1079.54 192.578ZM836.34 24.2937C827.861 30.7803 820.816 37.252 820.928 38.3311C821.121 40.1722 799.914 47.9583 790.726 55.4907C781.537 63.0229 755.15 86.9542 754.04 88.0528C752.596 90.3443 750.808 93.3406 748.885 96.7834L764.555 23.0622C765.279 19.652 768.678 17.1824 772.145 17.5466L836.34 24.2937ZM959.261 37.2132C950.852 39.9775 941.843 42.6921 938.107 43.0602C930.655 43.7945 880.398 48.224 860.859 72.8766C841.32 97.5291 827.487 91.2196 809.571 91.7643C791.655 92.3091 795.188 75.6859 805.199 67.0265C815.21 58.3673 845.112 56.3502 854.994 45.5532C859.826 40.2741 868.939 33.8667 877.279 28.5966L959.261 37.2132Z" fill="#D9D9D9" fill-opacity="0.07"/>
<rect width="345.235" height="149.036" rx="6.31299" transform="matrix(0.994522 0.104528 -0.207912 0.978148 765.867 16.8867)" stroke="white" stroke-width="0.742705"/>
<rect width="271.01" height="127.664" rx="18.939" transform="matrix(0.994522 0.104528 -0.207912 0.978148 820.273 33.4883)" stroke="white" stroke-width="0.742705"/>
<path d="M1075.32 196.303L1075.61 196.175M1069.75 195.884L1076.28 193.013M1066.77 194.39L1077.08 189.867M1067.43 191.309L1077.59 186.849M1068.08 188.232L1078.39 183.703M1068.73 185.151L1078.9 180.686M1069.39 182.064L1079.7 177.539M1069.96 179.384L1080.27 174.859M1070.53 176.704L1080.84 172.179M1071.1 174.024L1081.41 169.5M1071.67 171.345L1081.98 166.82M1072.24 168.665L1082.55 164.14M1072.81 165.985L1083.12 161.46M1073.38 163.305L1083.69 158.781M1073.95 160.625L1084.26 156.101M1074.52 157.946L1084.83 153.421M1075.09 155.266L1085.4 150.741M1075.66 152.586L1085.97 148.061M1076.23 149.906L1086.54 145.382M1076.8 147.227L1087.11 142.702M1077.36 144.547L1087.68 140.022M1077.93 141.867L1088.25 137.342M1078.5 139.187L1088.82 134.663M1079.07 136.508L1089.39 131.983M1079.64 133.828L1089.96 129.303M1080.21 131.148L1090.53 126.623M1080.78 128.468L1091.1 123.944M1081.35 125.788L1091.67 121.264M1081.92 123.109L1092.23 118.584M1082.49 120.429L1092.8 115.904M1083.06 117.749L1093.37 113.224M1083.63 115.069L1093.94 110.545M1084.2 112.39L1094.51 107.865M1084.77 109.71L1095.08 105.185M1085.34 107.03L1095.65 102.505M1085.91 104.35L1096.22 99.8256M1086.48 101.67L1096.79 97.1458M1087.05 98.9907L1097.36 94.466M1087.62 96.3109L1097.93 91.7863M1088.19 93.6312L1098.5 89.1065M1088.76 90.9514L1099.07 86.4268M1089.33 88.2716L1099.64 83.747M1089.9 85.5919L1100.21 81.0672M1090.47 82.9121L1100.78 78.3874M1091.04 80.2323L1101.35 75.7077M1091.6 77.5526L1101.92 73.0279M1092.17 74.8728L1102.49 70.3481M1092.74 72.193L1103.06 67.6684M1093.31 69.5133L1103.63 64.9886M1093.88 66.8335L1104.2 62.3088M1094.45 64.1537L1104.77 59.629M1095.02 61.4739L1105.34 56.9493M1095.59 58.7942L1104.39 54.93M1096.16 56.1144L1101.1 53.9446M1096.73 53.4346L1096.88 53.369" stroke="white" stroke-width="1.11406" stroke-linecap="round" stroke-linejoin="round" stroke-dasharray="0.37 3.34"/>
<path d="M778.236 164.51L789.107 159.734M783.568 165.345L788.653 163.111M773.292 163.99L789.447 156.893M772.534 161.28L789.616 154.034M772.745 158.633L789.985 151.06M773.004 155.557L790.437 147.899M773.335 152.761L790.745 145.112M773.699 149.805L791.148 142.141M773.919 146.915L791.299 139.28M774.282 143.964L791.717 136.303M774.648 141.007L791.936 133.413M774.868 138.112L792.3 130.458M775.086 135.228L792.664 127.506M775.452 132.265L793.029 124.55M775.815 129.318L793.248 121.66M776.037 126.416L793.613 118.705M776.4 123.469L793.978 115.752M776.618 120.584L794.197 112.862M777.128 117.565L794.561 109.908M777.347 114.674L794.78 107.017M777.567 111.782L795.134 104.068M777.925 108.825L795.364 101.171M778.326 105.866L795.728 98.2189M778.514 102.99L795.948 95.329M778.878 100.034L796.893 92.1194M779.099 97.1376L797.984 88.8459M779.464 94.1813L799.064 85.5776M780.118 91.1042L800.021 82.3628M781.208 87.8351L801.112 79.0903M782.3 84.558L802.202 75.8169M783.316 81.3142L803.194 72.5875M784.332 78.0932L804.239 69.3348M785.426 74.8082L805.33 66.0613M786.519 71.5219L806.417 62.7896M787.466 68.3088L807.366 59.5782M788.552 65.0563L808.457 56.3058M789.643 61.7822L809.548 53.0323M790.736 58.5023L810.547 49.7994M791.682 55.289L811.585 46.5492M792.734 52.0343L812.612 43.3044M793.864 48.7442L813.621 40.0651M794.955 45.4686L814.712 36.7937M798.11 35.5828L817.929 26.8774M795.9 42.2614L815.803 33.5212M799.056 32.3699L816.199 24.8395M796.991 38.9892L816.748 30.3117M800.146 29.1012L811.074 24.3008M801.236 25.8333L805.951 23.7623" stroke="url(#paint5_linear_4785_17784)" stroke-width="1.11406" stroke-linecap="round" stroke-linejoin="round" stroke-dasharray="0.37 3.34"/>
<g clip-path="url(#clip1_4785_17784)">
<path fill-rule="evenodd" clip-rule="evenodd" d="M1030.49 81.2734L1032.16 81.4495L1031.79 83.1913L1033.47 83.3674L1033.1 85.1092L1031.42 84.9332L1030.68 88.4169L1032.36 88.5929L1031.62 92.0766L1033.29 92.2526L1032.92 93.9945L1031.25 93.8185L1030.88 95.5603L1032.55 95.7364L1032.92 93.9945L1034.6 94.1705L1034.97 92.4287L1033.29 92.2526L1034.03 88.7689L1035.71 88.945L1035.34 90.6868L1037.01 90.8629L1037.38 89.121L1039.06 89.2971L1037.95 94.5226L1036.27 94.3466L1035.9 96.0884L1034.23 95.9124L1033.86 97.6542L1035.53 97.8303L1035.16 99.5721L1031.81 99.2201L1032.18 97.4782L1030.51 97.3022L1030.14 99.044L1028.46 98.868L1028.09 100.61L1029.77 100.786L1029.03 104.27L1027.35 104.094L1026.98 105.835L1028.66 106.011L1028.29 107.753L1029.96 107.929L1029.59 109.671L1027.92 109.495L1027.17 112.979L1025.5 112.803L1024.39 118.028L1027.74 118.38L1028.48 114.897L1030.15 115.073L1029.78 116.815L1031.46 116.991L1031.83 115.249L1033.5 115.425L1033.13 117.167L1034.81 117.343L1034.44 119.085L1037.79 119.437L1038.16 117.695L1039.83 117.871L1040.2 116.129L1041.88 116.305L1041.14 119.789L1042.81 119.965L1043.18 118.223L1044.86 118.399L1044.49 120.141L1052.86 121.021L1053.23 119.279L1054.91 119.455L1054.54 121.197L1056.21 121.373L1056.58 119.631L1054.91 119.455L1055.28 117.713L1053.6 117.537L1053.97 115.795L1052.3 115.619L1052.67 113.878L1054.34 114.054L1055.08 110.57L1056.76 110.746L1055.65 115.971L1059 116.323L1058.63 118.065L1060.3 118.241L1059.93 119.983L1058.26 119.807L1057.89 121.549L1059.56 121.725L1059.19 123.467L1022.34 119.594L1030.49 81.2734ZM1033.84 81.6255L1035.51 81.8015L1035.14 83.5434L1033.47 83.3674L1033.84 81.6255ZM1037.19 81.9776L1038.86 82.1536L1038.12 85.6373L1036.45 85.4613L1037.19 81.9776ZM1040.54 82.3297L1042.21 82.5057L1041.84 84.2475L1043.52 84.4236L1043.89 82.6817L1045.56 82.8578L1044.82 86.3415L1043.15 86.1654L1042.78 87.9073L1041.1 87.7312L1041.47 85.9894L1039.8 85.8134L1040.54 82.3297ZM1047.24 83.0338L1048.91 83.2098L1048.17 86.6935L1049.85 86.8696L1050.59 83.3859L1052.26 83.5619L1051.52 87.0456L1058.22 87.7497L1057.85 89.4916L1061.2 89.8437L1061.57 88.1018L1059.9 87.9258L1060.64 84.4421L1062.31 84.6181L1061.94 86.36L1063.62 86.536L1061.77 95.2453L1060.09 95.0692L1060.83 91.5855L1059.16 91.4095L1058.79 93.1513L1057.11 92.9753L1056.74 94.7171L1060.09 95.0692L1059.72 96.8111L1058.05 96.635L1057.67 98.3769L1056 98.2008L1056.37 96.459L1054.7 96.283L1054.33 98.0248L1056 98.2008L1055.63 99.9427L1058.98 100.295L1059.72 96.8111L1061.39 96.9871L1061.77 95.2453L1063.44 95.4213L1063.07 97.1631L1064.74 97.3392L1064.37 99.081L1061.02 98.729L1060.65 100.471L1064 100.823L1063.63 102.565L1061.96 102.389L1061.59 104.131L1063.26 104.307L1062.89 106.048L1061.22 105.872L1060.85 107.614L1059.17 107.438L1059.54 105.696L1056.19 105.344L1056.56 103.602L1059.91 103.955L1060.28 102.213L1056.93 101.861L1056.56 103.602L1054.89 103.426L1055.26 101.685L1053.58 101.509L1053.21 103.25L1051.54 103.074L1052.28 99.5906L1050.61 99.4146L1050.98 97.6727L1052.65 97.8488L1053.39 94.3651L1055.07 94.5411L1056.18 89.3156L1052.83 88.9635L1052.46 90.7053L1050.78 90.5293L1051.15 88.7875L1049.48 88.6114L1048.74 92.0951L1045.39 91.743L1045.76 90.0012L1044.08 89.8252L1043.71 91.567L1042.04 91.391L1042.78 87.9073L1046.13 88.2593L1047.24 83.0338ZM1053.94 83.7379L1055.61 83.914L1055.24 85.6558L1053.57 85.4798L1053.94 83.7379ZM1057.29 84.09L1058.96 84.266L1058.59 86.0079L1056.92 85.8319L1057.29 84.09ZM1063.99 84.7941L1065.66 84.9702L1065.29 86.712L1063.62 86.536L1063.99 84.7941ZM1065.29 86.712L1066.97 86.8881L1066.6 88.6299L1064.92 88.4539L1065.29 86.712ZM1034.77 85.2852L1036.45 85.4613L1036.08 87.2031L1034.4 87.0271L1034.77 85.2852ZM1038.12 85.6373L1039.8 85.8134L1039.43 87.5552L1037.75 87.3792L1038.12 85.6373ZM1064.55 90.1957L1066.23 90.3718L1065.86 92.1136L1064.18 91.9376L1064.55 90.1957ZM1052.46 90.7053L1054.13 90.8814L1053.76 92.6232L1052.09 92.4472L1052.46 90.7053ZM1040.36 91.2149L1042.04 91.391L1041.67 93.1328L1039.99 92.9568L1040.36 91.2149ZM1043.71 91.567L1045.39 91.743L1045.02 93.4849L1043.34 93.3089L1043.71 91.567ZM1048.74 92.0951L1050.41 92.2712L1050.04 94.013L1051.72 94.189L1050.98 97.6727L1049.3 97.4967L1049.67 95.7549L1048 95.5788L1048.74 92.0951ZM1063.81 93.6794L1065.49 93.8555L1065.11 95.5973L1063.44 95.4213L1063.81 93.6794ZM1041.67 93.1328L1043.34 93.3089L1042.6 96.7926L1040.93 96.6165L1041.67 93.1328ZM1045.02 93.4849L1046.69 93.6609L1046.32 95.4028L1048 95.5788L1047.63 97.3207L1044.28 96.9686L1045.02 93.4849ZM1037.95 94.5226L1039.62 94.6986L1039.25 96.4405L1040.93 96.6165L1039.82 101.842L1038.14 101.666L1037.77 103.408L1036.1 103.232L1036.47 101.49L1034.79 101.314L1035.16 99.5721L1036.84 99.7482L1037.95 94.5226ZM1047.63 97.3207L1049.3 97.4967L1048.19 102.722L1044.84 102.37L1044.1 105.854L1040.75 105.502L1041.12 103.76L1039.45 103.584L1039.82 101.842L1041.49 102.018L1042.23 98.5344L1047.26 99.0625L1047.63 97.3207ZM1030.14 99.044L1031.81 99.2201L1031.44 100.962L1029.77 100.786L1030.14 99.044ZM1031.44 100.962L1034.79 101.314L1034.42 103.056L1032.75 102.88L1032.38 104.622L1037.4 105.15L1036.66 108.633L1034.98 108.457L1035.36 106.716L1033.68 106.54L1033.31 108.281L1029.96 107.929L1030.33 106.187L1028.66 106.011L1029.03 104.27L1030.7 104.446L1031.44 100.962ZM1053.21 103.25L1054.89 103.426L1054.52 105.168L1052.84 104.992L1053.21 103.25ZM1037.77 103.408L1039.45 103.584L1039.08 105.326L1037.4 105.15L1037.77 103.408ZM1047.82 104.464L1049.49 104.64L1049.12 106.382L1052.47 106.734L1052.1 108.476L1048.75 108.124L1048.38 109.866L1045.03 109.514L1045.4 107.772L1043.73 107.596L1044.1 105.854L1047.45 106.206L1047.82 104.464ZM1055.82 107.086L1057.5 107.262L1057.13 109.004L1055.45 108.828L1055.82 107.086ZM1060.85 107.614L1062.52 107.79L1062.15 109.532L1060.48 109.356L1060.85 107.614ZM1038.7 107.068L1040.38 107.244L1040.01 108.986L1041.68 109.162L1041.31 110.903L1037.96 110.551L1037.59 112.293L1034.24 111.941L1033.87 113.683L1032.2 113.507L1031.83 115.249L1030.15 115.073L1030.89 111.589L1029.22 111.413L1029.59 109.671L1036.29 110.375L1036.66 108.633L1038.33 108.809L1038.7 107.068ZM1052.1 108.476L1055.45 108.828L1055.08 110.57L1051.73 110.218L1052.1 108.476ZM1057.13 109.004L1060.48 109.356L1060.11 111.098L1056.76 110.746L1057.13 109.004ZM1050.06 110.042L1051.73 110.218L1051.36 111.96L1049.69 111.784L1050.06 110.042ZM1060.11 111.098L1061.78 111.274L1061.41 113.016L1059.74 112.84L1060.11 111.098ZM1041.31 110.903L1042.99 111.079L1042.62 112.821L1045.97 113.173L1045.23 116.657L1043.55 116.481L1043.92 114.739L1040.57 114.387L1041.31 110.903ZM1046.34 111.432L1048.01 111.608L1047.64 113.349L1045.97 113.173L1046.34 111.432ZM1051.36 111.96L1053.04 112.136L1052.67 113.878L1050.99 113.701L1051.36 111.96ZM1047.64 113.349L1050.99 113.701L1050.62 115.443L1047.27 115.091L1047.64 113.349ZM1059.37 114.582L1061.04 114.758L1060.67 116.5L1059 116.323L1059.37 114.582ZM1033.87 113.683L1040.57 114.387L1040.2 116.129L1036.85 115.777L1036.48 117.519L1034.81 117.343L1035.18 115.601L1033.5 115.425L1033.87 113.683ZM1048.58 117.009L1050.25 117.185L1049.88 118.927L1048.21 118.751L1048.58 117.009ZM1051.93 117.361L1053.6 117.537L1053.23 119.279L1051.56 119.103L1051.93 117.361Z" fill="white"/>
</g>
<path d="M1003.98 143.5L1005.03 143.61L1002.27 146.982L1003.53 150.797L1002.46 150.685L1001.53 147.763L999.424 150.365L998.366 150.254L1001.16 146.855L999.91 143.072L1000.98 143.184L1001.91 146.065L1003.98 143.5Z" fill="white"/>
<path d="M1010.07 144.14L1011.12 144.25L1008.36 147.622L1009.62 151.437L1008.55 151.325L1007.62 148.403L1005.51 151.005L1004.45 150.894L1007.25 147.495L1006 143.712L1007.07 143.824L1008 146.705L1010.07 144.14Z" fill="white"/>
<path d="M1016.16 144.78L1017.21 144.89L1014.45 148.262L1015.71 152.077L1014.64 151.965L1013.71 149.043L1011.6 151.645L1010.54 151.534L1013.33 148.135L1012.09 144.352L1013.15 144.464L1014.09 147.345L1016.16 144.78Z" fill="white"/>
<path d="M1022 145.394L1023.05 145.505L1020.3 148.877L1021.55 152.691L1020.49 152.579L1019.55 149.657L1017.45 152.26L1016.39 152.148L1019.18 148.749L1017.93 144.966L1019 145.079L1019.93 147.959L1022 145.394Z" fill="white"/>
<path d="M1005.18 156.012L1006.23 156.122L1003.47 159.494L1004.73 163.309L1003.66 163.197L1002.73 160.275L1000.62 162.877L999.564 162.766L1002.35 159.366L1001.11 155.584L1002.17 155.696L1003.11 158.577L1005.18 156.012Z" fill="white"/>
<path d="M1011.27 156.652L1012.32 156.762L1009.56 160.134L1010.82 163.949L1009.75 163.837L1008.82 160.915L1006.71 163.517L1005.65 163.406L1008.44 160.006L1007.2 156.224L1008.26 156.336L1009.2 159.217L1011.27 156.652Z" fill="white"/>
<path d="M1019.93 157.563L1020.98 157.673L1018.23 161.045L1019.48 164.859L1018.42 164.747L1017.48 161.825L1015.38 164.428L1014.32 164.317L1017.11 160.917L1015.86 157.135L1016.93 157.247L1017.86 160.127L1019.93 157.563Z" fill="white"/>
<path d="M1025.78 158.177L1026.83 158.287L1024.07 161.659L1025.33 165.474L1024.26 165.362L1023.33 162.44L1021.22 165.042L1020.16 164.931L1022.95 161.532L1021.71 157.749L1022.78 157.861L1023.71 160.742L1025.78 158.177Z" fill="white"/>
<path d="M1034.62 159.106L1035.67 159.217L1032.91 162.588L1034.17 166.403L1033.1 166.291L1032.17 163.369L1030.06 165.972L1029.01 165.86L1031.8 162.461L1030.55 158.678L1031.62 158.79L1032.55 161.671L1034.62 159.106Z" fill="white"/>
<path d="M1040.47 159.721L1041.52 159.831L1038.76 163.203L1040.02 167.018L1038.95 166.905L1038.02 163.983L1035.91 166.586L1034.85 166.475L1037.64 163.075L1036.4 159.293L1037.46 159.405L1038.39 162.285L1040.47 159.721Z" fill="white"/>
<path d="M1013.55 163.608C1013.44 164.095 1012.98 164.45 1012.51 164.401C1012.04 164.352 1011.75 163.917 1011.85 163.43C1011.95 162.943 1012.42 162.588 1012.89 162.637C1013.35 162.686 1013.65 163.121 1013.55 163.608Z" fill="white"/>
<path d="M1028.23 165.152C1028.13 165.639 1027.67 165.994 1027.2 165.945C1026.73 165.895 1026.43 165.461 1026.54 164.973C1026.64 164.486 1027.1 164.131 1027.57 164.181C1028.04 164.23 1028.34 164.665 1028.23 165.152Z" fill="white"/>
<path d="M984.88 146.216L985.659 142.55L986.105 142.597L985.418 145.829L987.26 146.023L987.168 146.457L984.88 146.216Z" fill="white"/>
<path d="M988.901 146.723C987.852 146.613 987.374 145.818 987.625 144.636C987.879 143.443 988.667 142.782 989.715 142.892C990.768 143.003 991.247 143.797 990.993 144.99C990.742 146.172 989.954 146.834 988.901 146.723ZM988.092 144.685C987.898 145.599 988.235 146.21 988.993 146.289C989.756 146.37 990.332 145.855 990.526 144.941C990.723 144.017 990.386 143.406 989.623 143.326C988.865 143.246 988.289 143.761 988.092 144.685Z" fill="white"/>
<path d="M994.134 143.441L994.042 143.875L992.895 143.754L992.208 146.986L991.762 146.939L992.449 143.707L991.302 143.587L991.394 143.153L994.134 143.441Z" fill="white"/>
<path d="M994.842 142.54C995.295 142.588 995.584 142.991 995.488 143.441L994.68 147.246C994.584 147.696 994.139 148.023 993.687 147.975L984.127 146.97C983.674 146.923 983.385 146.519 983.481 146.069L984.29 142.264C984.385 141.814 984.83 141.488 985.282 141.535L994.842 142.54ZM983.754 146.098C983.69 146.398 983.883 146.667 984.185 146.699L993.745 147.703C994.046 147.735 994.343 147.517 994.406 147.217L995.215 143.413C995.279 143.113 995.086 142.844 994.784 142.812L985.225 141.807C984.923 141.775 984.627 141.993 984.563 142.293L983.754 146.098Z" fill="white"/>
<path d="M992.768 157.121L992.431 157.085L992.991 154.449L993.328 154.485L992.768 157.121ZM993.482 157.878C993.782 158.198 993.662 158.76 993.242 159.004L992.245 159.581L991.908 159.546C991.929 159.449 991.986 159.361 992.067 159.302L992.103 159.279L993.1 158.701C993.31 158.58 993.37 158.298 993.22 158.138L992.506 157.381L992.481 157.351C992.436 157.289 992.416 157.209 992.425 157.127L992.431 157.085L992.768 157.121L993.482 157.878ZM991.685 162.218L991.348 162.182L991.908 159.546L992.245 159.581L991.685 162.218ZM995.395 162.608L995.955 159.971L995.244 159.214C994.944 158.895 995.064 158.333 995.483 158.089L996.478 157.511L997.038 154.875L992.991 154.449L993.001 154.413C993.052 154.25 993.206 154.131 993.368 154.131L993.403 154.133L997.113 154.523C997.299 154.543 997.417 154.716 997.375 154.91L996.815 157.546C996.792 157.657 996.72 157.756 996.621 157.813L995.625 158.392C995.429 158.506 995.364 158.76 995.48 158.922L995.506 158.954L996.217 159.711C996.279 159.777 996.308 159.869 996.299 159.965L996.292 160.007L995.732 162.643C995.691 162.837 995.506 162.979 995.32 162.959L991.61 162.569C991.436 162.551 991.321 162.397 991.342 162.218L991.348 162.182L995.395 162.608Z" fill="white"/>
<path d="M995.843 160.499L995.395 162.608L991.685 162.218L992.133 160.109L995.843 160.499Z" fill="white"/>
<g opacity="0.5">
<path d="M839.472 64.0739C839.676 63.1119 840.592 62.4108 841.517 62.5081L952.315 74.1535C953.24 74.2507 953.825 75.1094 953.62 76.0714C953.416 77.0334 952.5 77.7344 951.575 77.6372L840.776 65.9918C839.851 65.8945 839.267 65.0359 839.472 64.0739Z" fill="#D9D9D9"/>
<path d="M837.905 71.4433C838.094 70.5553 838.939 69.9081 839.793 69.9979L931.266 79.6121C932.12 79.7019 932.659 80.4945 932.471 81.3825C932.282 82.2705 931.437 82.9176 930.583 82.8279L839.109 73.2136C838.256 73.1239 837.716 72.3312 837.905 71.4433Z" fill="#D9D9D9"/>
<path d="M836.339 78.8126C836.543 77.8506 837.459 77.1496 838.384 77.2468L977.011 91.8171C977.936 91.9143 978.52 92.773 978.316 93.735C978.111 94.697 977.196 95.398 976.271 95.3008L837.643 80.7305C836.718 80.6333 836.134 79.7746 836.339 78.8126Z" fill="#D9D9D9"/>
<path d="M834.772 86.182C834.961 85.294 835.806 84.6469 836.66 84.7366L946.428 96.2737C947.282 96.3635 947.821 97.1561 947.632 98.0441C947.444 98.9321 946.599 99.5792 945.745 99.4894L835.977 87.9523C835.123 87.8626 834.584 87.07 834.772 86.182Z" fill="#D9D9D9"/>
<path d="M833.206 93.5514C833.41 92.5894 834.326 91.8883 835.251 91.9855L942.442 103.252C943.367 103.349 943.951 104.208 943.747 105.17C943.543 106.132 942.627 106.833 941.702 106.736L834.511 95.4692C833.586 95.372 833.001 94.5134 833.206 93.5514Z" fill="#D9D9D9"/>
<path d="M831.64 100.921C831.828 100.033 832.673 99.3856 833.527 99.4754L947.16 111.419C948.014 111.508 948.553 112.301 948.365 113.189C948.176 114.077 947.331 114.724 946.477 114.634L832.844 102.691C831.99 102.601 831.451 101.809 831.64 100.921Z" fill="#D9D9D9"/>
<path d="M830.073 108.29C830.278 107.328 831.193 106.627 832.118 106.724L979.249 122.188C980.174 122.286 980.758 123.144 980.553 124.106C980.349 125.068 979.433 125.769 978.508 125.672L831.378 110.208C830.453 110.111 829.869 109.252 830.073 108.29Z" fill="#D9D9D9"/>
<path d="M824.434 134.82C824.639 133.858 825.554 133.157 826.479 133.254L886.774 139.591C887.699 139.689 888.283 140.547 888.079 141.509C887.874 142.471 886.959 143.172 886.034 143.075L825.739 136.738C824.814 136.64 824.23 135.782 824.434 134.82Z" fill="#D9D9D9"/>
<path d="M823.01 141.519C823.215 140.557 824.13 139.856 825.055 139.953L864.221 144.07C865.146 144.167 865.73 145.026 865.526 145.988C865.321 146.95 864.406 147.651 863.481 147.554L824.315 143.437C823.39 143.34 822.806 142.481 823.01 141.519Z" fill="#D9D9D9"/>
</g>
</g>
<path d="M1059 124.5L1068 84.005L1031 81L895.644 148.5L1059 124.5Z" fill="url(#paint6_linear_4785_17784)" stroke="url(#paint7_linear_4785_17784)" stroke-width="1.23618"/>
<g clip-path="url(#clip2_4785_17784)">
<path d="M903.404 124.551C909.715 128.5 927.899 141.291 948.408 160.185C974.47 184.195 968.783 212.745 967.94 216.472C967.63 217.844 966.678 220.149 965.41 222.868C964.135 225.601 962.522 228.791 960.87 231.953C957.566 238.277 954.094 244.502 952.823 246.75L934.289 279.54L934.222 279.592C932.725 280.754 930.324 282.81 928.002 285.194C925.673 287.583 923.455 290.27 922.293 292.694C921.091 295.198 898.018 336.098 869.686 386.167C841.346 436.252 807.724 495.545 785.41 534.867L756.532 585.957L755.759 585.651L782.043 477.969L782.056 477.917L782.082 477.869L939.612 185.647L902.823 125.124L903.404 124.551Z" fill="url(#paint8_linear_4785_17784)" stroke="url(#paint9_linear_4785_17784)" stroke-width="0.838676"/>
<path d="M920.248 259.518C917.653 264.11 913.607 267.795 909.012 270.305C908.004 270.855 906.803 271.956 905.501 273.45C904.211 274.931 902.865 276.746 901.561 278.667C898.954 282.508 896.545 286.729 895.128 289.438L895.123 289.448L767.429 515.361C749.742 546.654 710.035 557.683 678.743 539.995L530.252 456.063C520.719 450.675 517.359 438.577 522.747 429.044L680.909 149.228C683.722 144.25 686.099 140.293 686.734 134.599C687.273 129.765 690.263 124.785 691.717 122.844C698.066 111.478 711.478 87.5613 714.435 82.6543C716.252 79.6374 718.252 75.8997 720.574 72.5703C722.901 69.2345 725.631 66.1833 729 64.5332C735.408 61.3943 745.49 55.604 762.125 57.5324C770.319 58.4822 776.619 59.0787 785.446 61.4857C794.266 63.8903 805.594 68.0968 823.899 76.2506C842.996 84.7575 880.887 109.067 900.627 122.264L904.323 124.748L904.334 124.756L904.345 124.764C920.746 136.812 936.057 150.972 942.224 160.86C946.052 166.996 948.33 171.739 949.812 176.165C951.293 180.59 951.97 184.67 952.617 189.453C953.152 193.406 952.467 197.749 951.42 201.539C950.371 205.336 948.942 208.637 947.935 210.533L947.931 210.542L920.248 259.518Z" fill="url(#paint10_linear_4785_17784)" stroke="url(#paint11_linear_4785_17784)" stroke-width="1.41574"/>
<path d="M932.115 207.236L771.708 491.026L700.245 617.456L489.162 501.869L720.446 92.6855C722.237 89.5176 725.534 83.5531 726.964 82.233L726.987 82.2111C728.575 80.7449 735.197 74.6274 746.113 76.1848C757.085 77.7502 776.095 82.0353 796.029 90.8708C815.964 99.7062 844.978 116.41 862.894 127.069C877.227 135.596 893.118 147.775 899.272 152.799C909.174 161.41 929.816 180.673 933.17 188.831C936.523 196.99 933.864 204.5 932.115 207.236Z" fill="url(#paint12_linear_4785_17784)" stroke="url(#paint13_linear_4785_17784)" stroke-width="1.41574"/>
<path d="M891.048 244.936L759.373 477.892L732.78 524.941C731.356 527.459 728.161 528.347 725.642 526.924L556.148 431.12C553.63 429.696 552.742 426.501 554.166 423.982L568.29 398.994L714.411 140.479C715.855 137.924 719.117 137.054 721.642 138.551L889.159 237.853C891.611 239.307 892.451 242.455 891.048 244.936Z" fill="url(#paint14_linear_4785_17784)" stroke="url(#paint15_linear_4785_17784)" stroke-width="1.28915"/>
<path d="M916.087 265.964C918.895 266.284 923.064 266.259 928.536 271.1C932.01 274.174 933.052 278.033 933.605 279.384" stroke="#63606F" stroke-width="0.838676"/>
<path d="M767.396 114.96C770.158 115.856 772.928 113.24 774.238 110.923C776.908 106.2 773.292 103.32 770.457 102.554C767.622 101.787 763.863 105.211 762.964 107.743C762.065 110.274 763.607 113.73 767.396 114.96Z" stroke="white" stroke-width="0.838676"/>
<path d="M907.058 307.037L885.668 344.879C885.668 344.879 884.449 346.99 883.524 348C882.071 349.585 878.644 352.142 874.892 349.96C871.139 347.779 872.288 343.093 873.331 341.022L879.354 330.367C885.253 319.438 897.542 297.007 899.507 294.713C901.964 291.845 906.855 291.798 909.612 295.256C911.818 298.023 908.828 304.263 907.058 307.037Z" fill="#3C3645" stroke="#88848E" stroke-width="0.838676"/>
<path d="M906.78 293.225C904.635 293.971 903.336 293.556 899.395 299.925C895.453 306.294 880.624 333.341 875.101 343.178C874.444 344.24 872.853 347.227 874.463 349.649" stroke="#88848E" stroke-width="0.838676"/>
<path d="M848.908 147.535C836.642 140.551 811.947 126.521 811.296 126.275C809.03 125.04 805.994 124.494 804.036 128.631C802.469 131.941 804.881 134.353 806.282 135.145C817.75 141.703 841.243 155.769 844.586 156.795C847.824 157.79 849.211 157.13 851.094 153.482C852.383 150.988 850.174 148.478 848.908 147.535Z" fill="#2B2B2B" stroke="white" stroke-width="0.838676"/>
<path d="M891.994 188.823C894.548 189.423 896.846 186.859 897.851 184.675C899.9 180.221 896.428 177.9 893.818 177.422C891.208 176.945 888.08 180.31 887.461 182.657C886.841 185.005 888.49 188.001 891.994 188.823Z" stroke="white" stroke-width="0.838676"/>
<mask id="mask1_4785_17784" style="mask-type:alpha" maskUnits="userSpaceOnUse" x="633" y="204" width="191" height="194">
<rect x="707.266" y="204.551" width="135.07" height="144.388" transform="rotate(30.8756 707.266 204.551)" fill="url(#paint16_linear_4785_17784)"/>
</mask>
<g mask="url(#mask1_4785_17784)">
<g clip-path="url(#clip3_4785_17784)">
<path fill-rule="evenodd" clip-rule="evenodd" d="M710.476 217.168L715.722 220.255L712.634 225.502L717.881 228.589L714.793 233.836L709.547 230.748L703.372 241.241L708.618 244.328L702.444 254.821L707.69 257.909L704.602 263.155L699.356 260.067L696.269 265.314L706.761 271.489L703.674 276.735L698.428 273.648L695.34 278.894L711.079 288.156L717.254 277.664L712.008 274.576L715.095 269.33L709.849 266.242L712.936 260.996L707.69 257.909L713.865 247.416L719.111 250.503L716.024 255.75L721.27 258.837L724.358 253.591L729.604 256.678L723.429 267.171L728.675 270.258L725.588 275.505L730.834 278.592L733.922 273.346L728.675 270.258L734.85 259.766L740.097 262.853L743.184 257.607L748.43 260.694L751.518 255.448L746.272 252.36L743.184 257.607L737.938 254.519L741.025 249.273L735.779 246.185L741.954 235.693L747.2 238.78L744.113 244.027L749.359 247.114L752.447 241.868L757.693 244.955L754.605 250.201L759.852 253.289L762.939 248.043L768.186 251.13L762.011 261.623L756.764 258.535L750.589 269.028L761.082 275.203L757.995 280.449L763.241 283.537L760.154 288.783L765.4 291.871L756.138 307.61L750.891 304.522L744.716 315.015L739.47 311.927L742.557 306.681L737.311 303.594L746.573 287.855L751.82 290.942L748.732 296.188L753.979 299.276L757.066 294.029L751.82 290.942L754.907 285.696L749.661 282.608L752.748 277.362L747.502 274.274L744.414 279.521L739.168 276.433L732.993 286.926L722.5 280.751L719.413 285.997L724.659 289.085L721.572 294.331L737.311 303.594L734.224 308.84L728.977 305.753L725.89 310.999L715.397 304.824L718.484 299.578L713.238 296.49L710.151 301.737L704.904 298.649L698.729 309.142L693.483 306.054L696.57 300.808L691.324 297.721L694.412 292.474L689.165 289.387L692.253 284.14L681.76 277.965L678.672 283.212L689.165 289.387L686.078 294.633L675.585 288.458L672.498 293.705L677.744 296.792L665.394 317.777L660.148 314.69L657.06 319.936L667.553 326.111L676.815 310.372L682.062 313.46L688.237 302.967L693.483 306.054L690.396 311.301L695.642 314.388L698.729 309.142L703.976 312.229L700.888 317.476L706.135 320.563L709.222 315.317L714.468 318.404L711.381 323.651L716.627 326.738L713.54 331.984L718.786 335.072L712.611 345.565L707.365 342.477L710.452 337.231L705.206 334.143L708.294 328.897L697.801 322.722L694.713 327.968L699.96 331.056L696.872 336.302L707.365 342.477L704.278 347.723L709.524 350.811L712.611 345.565L723.104 351.739L726.192 346.493L731.438 349.581L734.525 344.334L729.279 341.247L735.454 330.754L740.7 333.841L746.875 323.349L741.629 320.261L744.716 315.015L749.963 318.102L756.138 307.61L761.384 310.697L755.209 321.19L765.702 327.365L762.614 332.611L767.861 335.699L764.773 340.945L759.527 337.857L756.439 343.104L761.686 346.191L764.773 340.945L775.266 347.12L772.178 352.366L766.932 349.279L763.845 354.525L769.091 357.613L766.004 362.859L755.511 356.684L758.598 351.438L742.859 342.175L739.772 347.422L745.018 350.509L741.931 355.755L736.684 352.668L733.597 357.914L728.35 354.827L725.263 360.073L730.509 363.161L733.597 357.914L738.843 361.002L735.756 366.248L746.248 372.423L749.336 367.177L754.582 370.264L751.495 375.511L756.741 378.598L753.654 383.844L648.726 322.095L710.476 217.168ZM720.968 223.343L726.215 226.43L723.127 231.677L717.881 228.589L720.968 223.343ZM731.461 229.518L736.707 232.605L730.532 243.098L725.286 240.011L731.461 229.518ZM773.432 254.217L778.678 257.305L775.591 262.551L770.344 259.464L773.432 254.217ZM783.925 260.392L789.171 263.48L786.084 268.726L791.33 271.814L785.155 282.306L779.909 279.219L782.996 273.973L777.75 270.885L771.575 281.378L782.068 287.553L775.893 298.045L770.646 294.958L773.734 289.712L763.241 283.537L775.591 262.551L780.837 265.639L783.925 260.392ZM794.417 266.567L799.664 269.655L796.576 274.901L791.33 271.814L794.417 266.567ZM804.91 272.742L810.157 275.83L807.069 281.076L812.315 284.163L809.228 289.41L798.735 283.235L795.648 288.481L806.141 294.656L803.053 299.903L797.807 296.815L794.719 302.061L799.966 305.149L796.878 310.395L791.632 307.308L788.544 312.554L793.791 315.642L790.703 320.888L785.457 317.801L782.369 323.047L777.123 319.959L780.21 314.713L774.964 311.626L778.052 306.379L783.298 309.467L786.385 304.22L781.139 301.133L787.314 290.64L782.068 287.553L785.155 282.306L790.401 285.394L796.576 274.901L801.823 277.989L804.91 272.742ZM720.04 236.923L725.286 240.011L722.199 245.257L716.952 242.169L720.04 236.923ZM730.532 243.098L735.779 246.185L732.691 251.432L727.445 248.344L730.532 243.098ZM762.011 261.623L767.257 264.71L764.17 269.957L758.923 266.869L762.011 261.623ZM744.414 279.521L749.661 282.608L746.573 287.855L741.327 284.767L744.414 279.521ZM732.993 286.926L738.24 290.013L735.152 295.26L729.906 292.172L732.993 286.926ZM764.471 305.451L769.718 308.538L766.63 313.785L761.384 310.697L764.471 305.451ZM687.935 267.473L684.847 272.719L690.094 275.807L693.181 270.56L687.935 267.473ZM766.63 313.785L771.877 316.872L768.789 322.118L763.543 319.031L766.63 313.785ZM782.369 323.047L787.616 326.134L784.528 331.381L779.282 328.293L782.369 323.047ZM734.224 308.84L739.47 311.927L736.382 317.174L731.136 314.086L734.224 308.84ZM776.194 333.54L781.441 336.627L778.353 341.873L773.107 338.786L776.194 333.54ZM710.151 301.737L715.397 304.824L712.31 310.07L707.063 306.983L710.151 301.737ZM725.89 310.999L731.136 314.086L728.049 319.333L722.802 316.245L725.89 310.999ZM736.382 317.174L741.629 320.261L738.541 325.508L733.295 322.42L736.382 317.174ZM728.049 319.333L733.295 322.42L730.208 327.667L724.961 324.579L728.049 319.333ZM719.715 321.492L724.961 324.579L721.874 329.825L716.627 326.738L719.715 321.492ZM721.874 329.825L727.12 332.913L724.033 338.159L718.786 335.072L721.874 329.825ZM750.264 353.597L755.511 356.684L749.336 367.177L738.843 361.002L741.931 355.755L747.177 358.843L750.264 353.597ZM678.974 318.706L675.887 323.952L681.133 327.04L678.046 332.286L688.538 338.461L691.626 333.215L686.38 330.127L689.467 324.881L678.974 318.706ZM757.67 365.018L762.916 368.105L759.829 373.352L754.582 370.264L757.67 365.018Z" fill="white"/>
</g>
</g>
<path d="M673.363 233.574L820.759 322.326" stroke="url(#paint17_linear_4785_17784)" stroke-width="1.54934"/>
<path d="M705.546 209.941C707.451 206.725 711.617 205.687 714.809 207.632L821.02 272.352C824.157 274.263 825.174 278.342 823.301 281.502L804.562 313.12L686.891 241.417L705.546 209.941Z" fill="url(#paint18_linear_4785_17784)" stroke="url(#paint19_linear_4785_17784)" stroke-width="1.54934"/>
</g>
<rect width="403.996" height="174.403" rx="6.31299" transform="matrix(0.93358 -0.358368 0.5 0.866025 99.8623 161.781)" fill="#D9D9D9" fill-opacity="0.07"/>
<path d="M408.544 43.2895C403.774 63.5395 400.978 80.8183 396.629 92.4214C391.2 106.903 367.685 147.114 392.44 120.329C416.87 93.894 420.082 89.5103 432.312 72.8185L432.804 72.1471C445.444 54.8963 460.697 32.8851 461.174 46.9796C461.65 61.0745 446.231 111.327 459.226 94.6917C472.221 78.0562 481.242 70.4606 482.572 62.8116C483.901 55.1626 485.643 66.141 494.26 48.5564C494.413 48.2444 494.558 47.9295 494.699 47.614L551.098 145.301C545.236 144.712 530.43 155.642 522.79 153.702C513.365 151.308 513.526 134.339 516.377 105.442C519.228 76.5439 504.59 100.949 505.403 109.654C506.215 118.36 500.87 134.313 494.385 155.588C487.899 176.864 480.461 169.951 476.169 159.2C471.877 148.449 473.29 142.271 468.673 134.274C464.056 126.278 454.635 143.795 444.217 174.846C436.021 199.274 439.778 198.418 441.611 215.107L370.478 242.413C374.504 233.859 379.328 225.681 382.339 213.628C386.388 197.422 373.355 202.047 370.846 203.01C368.338 203.973 354.844 211.784 347.886 238.876C345.849 246.81 341.866 251.946 337.194 255.189L325.083 259.838C317.141 261.056 310.048 259.318 308.941 258.334C306.58 256.235 309.822 251.233 318.374 238.182C326.926 225.13 326.635 219.982 343.479 192.1C360.323 164.218 324.109 172.484 323.377 176.522C322.644 180.561 318.795 191.806 319.483 198.305C320.171 204.804 314.67 215.181 303.746 228.768C292.821 242.355 282.726 239.467 275.886 260.128C273.352 267.78 271.147 274.997 269.374 281.223L192.958 310.556C189.703 311.806 185.651 310.371 183.907 307.351L177.229 295.784C184.006 291.155 190.285 276.643 200.577 271.001C216.579 262.229 236.385 252.747 240.045 243.828C243.706 234.908 264.01 203.068 275.195 191.26C286.381 179.452 288.356 146.382 321.965 109.058C344.804 83.6953 350.984 71.1458 352.056 64.9732L408.544 43.2895ZM561.07 162.572C562.813 165.592 561.588 169.053 558.333 170.302L549.645 173.637C551.928 163.577 553.494 154.239 553.59 149.616L561.07 162.572ZM177.277 132.064C173.965 142.47 172.093 152.118 173.084 153.058C174.777 154.663 159.628 172.877 156.448 184.618C153.268 196.359 146.006 232.203 145.775 233.801C146.176 236.673 146.803 240.376 147.656 244.562L103.019 167.248C101.276 164.229 102.502 160.768 105.756 159.519L177.277 132.064ZM312.305 80.2322C306.036 87.1549 299.118 94.3428 295.633 96.6224C288.682 101.169 241.374 131.353 241.636 164.315C241.898 197.278 222.752 198.616 205.046 208.419C187.34 218.221 177.397 200.998 180.494 187.786C183.591 174.574 212.24 157.189 213.468 142.065C214.068 134.67 218.087 124.009 222.248 114.802L312.305 80.2322Z" fill="#D9D9D9" fill-opacity="0.07"/>
<rect width="403.996" height="174.403" rx="6.31299" transform="matrix(0.93358 -0.358368 0.5 0.866025 99.8623 161.781)" stroke="white" stroke-width="0.742705"/>
<rect width="317.138" height="149.393" rx="18.939" transform="matrix(0.93358 -0.358368 0.5 0.866025 168.483 148.914)" stroke="white" stroke-width="0.742705"/>
<path d="M559.292 167.275L559.483 167.006M553.305 169.781L557.591 163.73M549.075 169.942L555.843 160.402M547.232 166.75L553.904 157.344M545.392 163.562L552.156 154.017M543.548 160.369L550.217 150.958M541.702 157.171L548.469 147.63M540.099 154.394L546.866 144.853M538.496 151.618L545.263 142.077M536.893 148.842L543.66 139.3M535.29 146.065L542.057 136.524M533.687 143.289L540.454 133.748M532.084 140.512L538.851 130.971M530.481 137.736L537.248 128.195M528.878 134.959L535.645 125.418M527.275 132.183L534.042 122.642M525.672 129.407L532.439 119.865M524.069 126.63L530.836 117.089M522.466 123.854L529.233 114.313M520.863 121.077L527.63 111.536M519.26 118.301L526.027 108.76M517.657 115.524L524.424 105.983M516.054 112.748L522.821 103.207M514.451 109.972L521.218 100.43M512.848 107.195L519.615 97.654M511.245 104.419L518.012 94.8775M509.642 101.642L516.409 92.1011M508.039 98.8659L514.806 89.3247M506.437 96.0894L513.203 86.5482M504.834 93.313L511.6 83.7718M503.231 90.5365L509.997 80.9954M501.628 87.7601L508.394 78.2189M500.025 84.9837L506.791 75.4425M498.422 82.2072L505.188 72.6661M496.819 79.4308L503.585 69.8897M495.216 76.6544L501.982 67.1132M493.613 73.878L500.379 64.3368M492.01 71.1015L498.776 61.5604M490.407 68.3251L497.173 58.784M488.804 65.5487L495.571 56.0075M487.201 62.7723L493.968 53.2311M485.598 59.9958L492.365 50.4547M483.995 57.2194L490.762 47.6783M482.392 54.443L489.159 44.9019M480.789 51.6666L487.556 42.1254M479.186 48.8902L485.953 39.349M477.583 46.1137L484.35 36.5726M475.98 43.3373L482.747 33.7961M474.377 40.5609L481.144 31.0197M472.774 37.7845L479.541 28.2433M471.171 35.008L477.938 25.4669M469.568 32.2316L476.335 22.6904M467.965 29.4552L473.733 21.3126M466.362 26.6788L469.601 22.1066M464.759 23.9023L464.853 23.766" stroke="white" stroke-width="1.11406" stroke-linecap="round" stroke-linejoin="round" stroke-dasharray="0.37 3.34"/>
<path d="M232.484 292.024L239.612 281.961M238.565 290.03L241.899 285.323M227.054 294.109L237.646 279.154M224.081 291.993L235.491 276.42M222.142 289.433L233.445 273.475M219.902 286.451L231.332 270.314M217.962 283.691L229.376 267.575M215.927 280.766L227.367 264.615M213.798 277.976L225.193 261.888M211.766 275.055L223.195 258.915M209.731 272.129L221.065 256.126M207.599 269.334L219.031 253.201M205.473 266.551L216.999 250.28M203.433 263.617L214.964 247.354M201.404 260.702L212.835 244.565M199.268 257.9L210.8 241.64M197.238 254.983L208.766 238.716M195.112 252.199L206.637 235.927M193.173 249.14L204.604 233.003M191.043 246.349L202.474 230.213M188.913 243.558L200.433 227.3M186.87 240.635L198.31 224.498M184.869 237.687L196.277 221.576M182.72 234.927L194.148 218.787M180.685 232.001L192.495 215.325M178.552 229.206L190.937 211.729M176.517 226.28L189.372 208.143M174.676 223.091L187.727 204.67M173.121 219.499L186.169 201.074M171.561 215.899L184.612 197.478M169.952 212.368L182.989 193.974M168.361 208.859L181.401 190.42M166.796 205.251L179.843 186.824M165.231 201.641L178.283 183.23M163.576 198.175L176.633 179.765M162.03 194.6L175.075 176.169M160.472 191.003L173.517 172.573M158.91 187.4L171.9 169.061M157.255 183.934L170.307 165.514M155.673 180.375L168.708 161.977M154.141 176.743L167.095 158.454M152.582 173.144L165.538 154.86M147.736 162.355L160.73 144.01M150.93 169.684L163.981 151.264M146.081 158.889L157.32 143.021M149.373 166.089L162.328 147.802M144.526 155.298L151.691 145.182M142.971 151.707L146.062 147.343" stroke="url(#paint20_linear_4785_17784)" stroke-width="1.11406" stroke-linecap="round" stroke-linejoin="round" stroke-dasharray="0.37 3.34"/>
<g clip-path="url(#clip4_4785_17784)">
<path fill-rule="evenodd" clip-rule="evenodd" d="M420.303 84.0547L422.143 83.3484L423.185 85.1531L425.024 84.4469L426.066 86.2515L424.226 86.9578L426.31 90.5671L428.15 89.8609L430.234 93.4703L432.074 92.764L433.116 94.5687L431.276 95.2749L432.318 97.0796L434.158 96.3734L433.116 94.5687L434.956 93.8624L433.914 92.0578L432.074 92.764L429.99 89.1547L431.83 88.4484L432.872 90.2531L434.712 89.5468L433.67 87.7422L435.509 87.0359L438.635 92.4499L436.795 93.1562L437.837 94.9609L435.998 95.6671L437.039 97.4718L438.879 96.7655L439.921 98.5702L436.242 99.9827L435.2 98.178L433.36 98.8843L434.402 100.689L432.562 101.395L433.604 103.2L435.444 102.494L437.528 106.103L435.688 106.809L436.73 108.614L438.569 107.908L439.611 109.712L441.451 109.006L442.493 110.811L440.653 111.517L442.737 115.126L440.897 115.833L444.023 121.247L447.703 119.834L445.619 116.225L447.459 115.519L448.501 117.323L450.341 116.617L449.299 114.812L451.138 114.106L452.18 115.911L454.02 115.204L455.062 117.009L458.742 115.597L457.7 113.792L459.54 113.086L458.498 111.281L460.338 110.575L462.421 114.184L464.261 113.478L463.219 111.673L465.059 110.967L466.101 112.772L475.3 109.24L474.258 107.436L476.098 106.73L477.14 108.534L478.98 107.828L477.938 106.023L476.098 106.73L475.056 104.925L473.216 105.631L472.175 103.826L470.335 104.533L469.293 102.728L471.133 102.022L469.049 98.4124L470.889 97.7061L474.014 103.12L477.694 101.708L478.736 103.512L480.576 102.806L481.618 104.611L479.778 105.317L480.82 107.122L482.66 106.415L483.702 108.22L443.225 123.758L420.303 84.0547ZM423.982 82.6422L425.822 81.9359L426.864 83.7406L425.024 84.4469L423.982 82.6422ZM427.662 81.2297L429.502 80.5234L431.586 84.1328L429.746 84.8391L427.662 81.2297ZM431.342 79.8172L433.182 79.111L434.224 80.9156L436.063 80.2094L435.021 78.4047L436.861 77.6985L438.945 81.3078L437.105 82.0141L438.147 83.8187L436.307 84.525L435.265 82.7203L433.426 83.4266L431.342 79.8172ZM438.701 76.9922L440.541 76.286L442.625 79.8953L444.465 79.1891L442.381 75.5797L444.221 74.8735L446.304 78.4828L453.664 75.6578L454.706 77.4625L458.385 76.05L457.344 74.2453L455.504 74.9516L453.42 71.3422L455.26 70.636L456.302 72.4407L458.141 71.7344L463.351 80.7578L461.511 81.464L459.427 77.8547L457.588 78.5609L458.629 80.3656L456.79 81.0719L457.832 82.8765L461.511 81.464L462.553 83.2687L460.713 83.975L461.755 85.7796L459.915 86.4859L458.873 84.6812L457.034 85.3875L458.076 87.1921L459.915 86.4859L460.957 88.2906L464.637 86.8781L462.553 83.2687L464.393 82.5625L463.351 80.7578L465.191 80.0516L466.233 81.8562L468.073 81.15L469.115 82.9547L465.435 84.3672L466.477 86.1718L470.157 84.7593L471.198 86.564L469.359 87.2703L470.401 89.0749L472.24 88.3687L473.282 90.1734L471.442 90.8796L472.484 92.6843L470.645 93.3905L469.603 91.5859L465.923 92.9984L464.881 91.1937L468.561 89.7812L467.519 87.9765L463.839 89.389L464.881 91.1937L463.041 91.8999L461.999 90.0952L460.159 90.8015L461.201 92.6062L459.362 93.3124L457.278 89.7031L455.438 90.4093L454.396 88.6046L456.236 87.8984L454.152 84.289L455.992 83.5828L452.866 78.1688L449.186 79.5813L450.228 81.3859L448.388 82.0922L447.346 80.2875L445.507 80.9937L447.59 84.6031L443.911 86.0156L442.869 84.2109L441.029 84.9172L442.071 86.7218L440.231 87.4281L438.147 83.8187L441.827 82.4062L438.701 76.9922ZM446.06 74.1672L447.9 73.461L448.942 75.2657L447.102 75.9719L446.06 74.1672ZM449.74 72.7547L451.58 72.0485L452.622 73.8532L450.782 74.5594L449.74 72.7547ZM457.099 69.9297L458.939 69.2235L459.981 71.0282L458.141 71.7344L457.099 69.9297ZM459.981 71.0282L461.821 70.3219L462.863 72.1266L461.023 72.8328L459.981 71.0282ZM427.906 85.5453L429.746 84.8391L430.788 86.6437L428.948 87.35L427.906 85.5453ZM431.586 84.1328L433.426 83.4266L434.468 85.2312L432.628 85.9375L431.586 84.1328ZM462.065 74.6375L463.905 73.9313L464.947 75.7359L463.107 76.4422L462.065 74.6375ZM450.228 81.3859L452.068 80.6797L453.11 82.4844L451.27 83.1906L450.228 81.3859ZM438.391 88.1343L440.231 87.4281L441.273 89.2328L439.433 89.939L438.391 88.1343ZM442.071 86.7218L443.911 86.0156L444.953 87.8203L443.113 88.5265L442.071 86.7218ZM447.59 84.6031L449.43 83.8969L450.472 85.7015L452.312 84.9953L454.396 88.6046L452.556 89.3109L451.514 87.5062L449.674 88.2125L447.59 84.6031ZM464.149 78.2469L465.989 77.5406L467.031 79.3453L465.191 80.0516L464.149 78.2469ZM441.273 89.2328L443.113 88.5265L445.197 92.1359L443.357 92.8421L441.273 89.2328ZM444.953 87.8203L446.793 87.114L447.834 88.9187L449.674 88.2125L450.716 90.0171L447.037 91.4296L444.953 87.8203ZM438.635 92.4499L440.475 91.7437L441.517 93.5484L443.357 92.8421L446.483 98.2562L444.643 98.9624L445.685 100.767L443.845 101.473L442.803 99.6686L440.963 100.375L439.921 98.5702L441.761 97.864L438.635 92.4499ZM450.716 90.0171L452.556 89.3109L455.682 94.7249L452.002 96.1374L454.086 99.7468L450.406 101.159L449.364 99.3546L447.525 100.061L446.483 98.2562L448.323 97.5499L446.239 93.9406L451.758 91.8218L450.716 90.0171ZM434.402 100.689L436.242 99.9827L437.283 101.787L435.444 102.494L434.402 100.689ZM437.283 101.787L440.963 100.375L442.005 102.18L440.165 102.886L441.207 104.69L446.727 102.572L448.811 106.181L446.971 106.887L445.929 105.083L444.089 105.789L445.131 107.594L441.451 109.006L440.409 107.201L438.569 107.908L437.528 106.103L439.367 105.397L437.283 101.787ZM461.201 92.6062L463.041 91.8999L464.083 93.7046L462.243 94.4108L461.201 92.6062ZM445.685 100.767L447.525 100.061L448.567 101.866L446.727 102.572L445.685 100.767ZM456.724 96.5296L458.564 95.8233L459.606 97.628L463.285 96.2155L464.327 98.0202L460.647 99.4327L461.689 101.237L458.01 102.65L456.968 100.845L455.128 101.551L454.086 99.7468L457.766 98.3343L456.724 96.5296ZM466.965 94.803L468.805 94.0968L469.847 95.9015L468.007 96.6077L466.965 94.803ZM472.484 92.6843L474.324 91.978L475.366 93.7827L473.526 94.489L472.484 92.6843ZM449.608 103.67L451.448 102.964L452.49 104.769L454.33 104.062L455.372 105.867L451.692 107.28L452.734 109.084L449.055 110.497L450.097 112.301L448.257 113.008L449.299 114.812L447.459 115.519L445.375 111.909L443.535 112.615L442.493 110.811L449.852 107.986L448.811 106.181L450.65 105.475L449.608 103.67ZM464.327 98.0202L468.007 96.6077L469.049 98.4124L465.369 99.8249L464.327 98.0202ZM469.847 95.9015L473.526 94.489L474.568 96.2936L470.889 97.7061L469.847 95.9015ZM463.529 100.531L465.369 99.8249L466.411 101.63L464.571 102.336L463.529 100.531ZM474.568 96.2936L476.408 95.5874L477.45 97.3921L475.61 98.0983L474.568 96.2936ZM455.372 105.867L457.212 105.161L458.254 106.965L461.933 105.553L464.017 109.162L462.177 109.869L461.136 108.064L457.456 109.476L455.372 105.867ZM460.892 103.748L462.731 103.042L463.773 104.847L461.933 105.553L460.892 103.748ZM466.411 101.63L468.251 100.923L469.293 102.728L467.453 103.434L466.411 101.63ZM463.773 104.847L467.453 103.434L468.495 105.239L464.815 106.651L463.773 104.847ZM476.652 99.903L478.492 99.1967L479.534 101.001L477.694 101.708L476.652 99.903ZM450.097 112.301L457.456 109.476L458.498 111.281L454.818 112.694L455.86 114.498L454.02 115.204L452.978 113.4L451.138 114.106L450.097 112.301ZM467.697 107.75L469.537 107.044L470.579 108.848L468.739 109.555L467.697 107.75ZM471.377 106.337L473.216 105.631L474.258 107.436L472.419 108.142L471.377 106.337Z" fill="white"/>
</g>
<path d="M444.072 155.416L445.225 154.974L445.173 159.527L449.55 162.406L448.378 162.856L445.057 160.635L445.04 164.137L443.877 164.584L443.939 159.988L439.599 157.133L440.771 156.683L444.059 158.866L444.072 155.416Z" fill="white"/>
<path d="M450.76 152.849L451.914 152.406L451.862 156.959L456.239 159.838L455.067 160.288L451.746 158.067L451.729 161.57L450.566 162.016L450.628 157.42L446.288 154.566L447.46 154.116L450.748 156.299L450.76 152.849Z" fill="white"/>
<path d="M457.449 150.281L458.603 149.839L458.551 154.392L462.928 157.271L461.756 157.721L458.434 155.5L458.418 159.002L457.255 159.448L457.316 154.853L452.976 151.998L454.148 151.548L457.436 153.731L457.449 150.281Z" fill="white"/>
<path d="M463.87 147.816L465.024 147.374L464.972 151.927L469.349 154.806L468.177 155.256L464.856 153.035L464.839 156.537L463.676 156.984L463.738 152.388L459.398 149.533L460.57 149.083L463.858 151.266L463.87 147.816Z" fill="white"/>
<path d="M455.464 166.381L456.618 165.939L456.566 170.492L460.943 173.371L459.771 173.821L456.449 171.599L456.433 175.102L455.27 175.548L455.332 170.953L450.991 168.098L452.164 167.648L455.451 169.831L455.464 166.381Z" fill="white"/>
<path d="M462.153 163.814L463.306 163.371L463.255 167.924L467.632 170.803L466.46 171.253L463.138 169.032L463.121 172.535L461.959 172.981L462.02 168.385L457.68 165.531L458.852 165.081L462.14 167.264L462.153 163.814Z" fill="white"/>
<path d="M471.672 160.16L472.826 159.717L472.774 164.27L477.151 167.149L475.979 167.599L472.657 165.378L472.641 168.88L471.478 169.327L471.54 164.731L467.199 161.877L468.372 161.427L471.659 163.609L471.672 160.16Z" fill="white"/>
<path d="M478.094 157.695L479.247 157.252L479.195 161.805L483.572 164.684L482.4 165.134L479.079 162.913L479.062 166.416L477.899 166.862L477.961 162.266L473.621 159.412L474.793 158.962L478.081 161.145L478.094 157.695Z" fill="white"/>
<path d="M487.806 153.966L488.96 153.524L488.908 158.077L493.285 160.956L492.113 161.406L488.791 159.185L488.775 162.687L487.612 163.133L487.674 158.538L483.333 155.683L484.506 155.233L487.793 157.416L487.806 153.966Z" fill="white"/>
<path d="M494.227 151.501L495.381 151.059L495.329 155.612L499.706 158.491L498.534 158.941L495.213 156.72L495.196 160.222L494.033 160.669L494.095 156.073L489.755 153.218L490.927 152.769L494.215 154.951L494.227 151.501Z" fill="white"/>
<path d="M470.119 169.072C470.41 169.576 470.229 170.145 469.715 170.343C469.2 170.54 468.547 170.291 468.256 169.787C467.964 169.282 468.145 168.713 468.66 168.516C469.174 168.318 469.828 168.567 470.119 169.072Z" fill="white"/>
<path d="M486.253 162.878C486.544 163.383 486.363 163.952 485.849 164.15C485.334 164.347 484.681 164.098 484.39 163.594C484.098 163.089 484.279 162.52 484.794 162.322C485.308 162.125 485.961 162.374 486.253 162.878Z" fill="white"/>
<path d="M426.93 167.845L424.737 164.047L425.227 163.859L427.161 167.207L429.184 166.431L429.444 166.88L426.93 167.845Z" fill="white"/>
<path d="M431.415 166.228C430.264 166.67 429.133 166.182 428.426 164.957C427.712 163.722 427.972 162.7 429.124 162.258C430.281 161.814 431.412 162.301 432.125 163.537C432.833 164.762 432.573 165.784 431.415 166.228ZM428.939 164.76C429.485 165.707 430.324 166.098 431.156 165.778C431.994 165.457 432.159 164.681 431.612 163.734C431.06 162.777 430.221 162.386 429.383 162.708C428.551 163.027 428.386 163.803 428.939 164.76Z" fill="white"/>
<path d="M434.047 160.473L434.306 160.923L433.046 161.406L434.98 164.755L434.49 164.943L432.556 161.594L431.296 162.078L431.037 161.629L434.047 160.473Z" fill="white"/>
<path d="M434.031 159.272C434.529 159.081 435.15 159.304 435.419 159.771L437.695 163.713C437.964 164.179 437.78 164.712 437.283 164.903L426.781 168.934C426.284 169.125 425.663 168.901 425.393 168.435L423.118 164.493C422.848 164.027 423.033 163.494 423.53 163.303L434.031 159.272ZM425.693 168.32C425.873 168.631 426.287 168.78 426.619 168.652L437.12 164.621C437.451 164.494 437.575 164.139 437.395 163.828L435.119 159.886C434.94 159.575 434.525 159.426 434.194 159.553L423.693 163.584C423.361 163.712 423.238 164.067 423.418 164.378L425.693 168.32Z" fill="white"/>
<path d="M443.795 173.849L443.424 173.991L441.847 171.26L442.218 171.118L443.795 173.849ZM445.134 174.18C445.698 174.319 446.034 174.902 445.807 175.346L445.266 176.398L444.896 176.54C444.838 176.44 444.825 176.329 444.859 176.232L444.876 176.192L445.417 175.14C445.53 174.918 445.362 174.626 445.08 174.556L443.741 174.225L443.692 174.211C443.595 174.176 443.51 174.113 443.451 174.032L443.424 173.991L443.795 173.849L445.134 174.18ZM446.843 179.129L446.473 179.272L444.896 176.54L445.266 176.398L446.843 179.129ZM450.919 177.565L449.342 174.834L448.005 174.502C447.442 174.362 447.106 173.779 447.332 173.336L447.87 172.285L446.293 169.553L441.847 171.26L441.828 171.222C441.746 171.044 441.806 170.854 441.971 170.77L442.008 170.753L446.083 169.189C446.287 169.111 446.547 169.21 446.663 169.411L448.24 172.142C448.306 172.257 448.314 172.386 448.26 172.49L447.723 173.542C447.617 173.75 447.758 174.019 448.007 174.109L448.059 174.125L449.396 174.457C449.512 174.486 449.616 174.556 449.685 174.65L449.712 174.692L451.289 177.423C451.405 177.624 451.333 177.851 451.129 177.929L447.054 179.494C446.862 179.567 446.621 179.485 446.496 179.308L446.473 179.272L450.919 177.565Z" fill="white"/>
<path d="M449.657 175.38L450.919 177.565L446.843 179.129L445.582 176.944L449.657 175.38Z" fill="white"/>
<g opacity="0.5">
<path d="M212.81 167.266C212.235 166.269 212.592 165.145 213.608 164.755L335.321 118.034C336.337 117.644 337.627 118.135 338.203 119.132C338.778 120.129 338.421 121.253 337.405 121.643L215.692 168.364C214.676 168.754 213.386 168.262 212.81 167.266Z" fill="#D9D9D9"/>
<path d="M217.219 174.901C216.687 173.981 217.017 172.943 217.955 172.583L318.439 134.011C319.377 133.651 320.568 134.105 321.099 135.025C321.63 135.945 321.3 136.983 320.362 137.343L219.879 175.915C218.941 176.275 217.75 175.821 217.219 174.901Z" fill="#D9D9D9"/>
<path d="M221.627 182.536C221.051 181.539 221.409 180.415 222.425 180.025L374.707 121.569C375.723 121.179 377.013 121.671 377.588 122.668C378.164 123.665 377.807 124.789 376.791 125.179L224.509 183.634C223.492 184.024 222.202 183.533 221.627 182.536Z" fill="#D9D9D9"/>
<path d="M226.035 190.171C225.504 189.251 225.834 188.213 226.772 187.853L347.352 141.567C348.29 141.207 349.481 141.661 350.012 142.581C350.543 143.501 350.213 144.539 349.275 144.899L228.695 191.185C227.757 191.545 226.566 191.091 226.035 190.171Z" fill="#D9D9D9"/>
<path d="M230.443 197.806C229.868 196.81 230.225 195.685 231.241 195.295L348.991 150.096C350.007 149.705 351.297 150.197 351.872 151.194C352.448 152.191 352.091 153.315 351.075 153.705L233.325 198.905C232.309 199.295 231.019 198.803 230.443 197.806Z" fill="#D9D9D9"/>
<path d="M234.851 205.441C234.32 204.521 234.65 203.484 235.588 203.124L360.414 155.208C361.352 154.847 362.543 155.301 363.074 156.221C363.605 157.141 363.275 158.179 362.337 158.539L237.511 206.455C236.573 206.815 235.383 206.361 234.851 205.441Z" fill="#D9D9D9"/>
<path d="M239.259 213.077C238.684 212.08 239.041 210.956 240.057 210.566L401.68 148.525C402.696 148.135 403.986 148.626 404.562 149.623C405.137 150.62 404.78 151.744 403.764 152.134L242.141 214.175C241.125 214.565 239.835 214.073 239.259 213.077Z" fill="#D9D9D9"/>
<path d="M255.129 240.563C254.553 239.567 254.911 238.442 255.927 238.052L322.161 212.627C323.177 212.237 324.467 212.729 325.043 213.726C325.618 214.723 325.261 215.847 324.245 216.237L258.011 241.662C256.995 242.052 255.704 241.56 255.129 240.563Z" fill="#D9D9D9"/>
<path d="M259.136 247.504C258.561 246.508 258.918 245.383 259.934 244.993L302.958 228.478C303.974 228.088 305.264 228.58 305.84 229.576C306.415 230.573 306.058 231.697 305.042 232.087L262.018 248.603C261.002 248.993 259.712 248.501 259.136 247.504Z" fill="#D9D9D9"/>
</g>
<path d="M1381.14 99.9208C1408.6 135.179 1421.78 176.791 1418.97 218.194L1445.75 197.227C1447.6 195.775 1450.28 196.104 1451.73 197.962C1453.17 199.82 1452.84 202.504 1450.99 203.956L1414.79 232.301L1412.62 234.186L1405.51 225.199L1383.27 195.611C1381.86 193.736 1382.21 191.074 1384.06 189.627C1385.93 188.163 1388.62 188.495 1390.08 190.368L1410.54 216.63C1412.92 177.777 1400.46 138.604 1374.43 105.177C1319.3 34.4024 1218.15 20.9035 1146.64 74.0173C1144.75 75.4217 1142.07 75.1048 1140.62 73.2466C1139.17 71.3885 1139.51 68.6926 1141.4 67.2858C1216.62 11.2673 1323.12 25.4341 1381.14 99.9208Z" fill="#4FE2CE"/>
<path d="M600.81 67.7589C564.676 58.4288 525.713 63.184 490 81.625L493.535 88.4284C527.393 70.9454 564.082 66.4226 598.032 74.9544L571.432 88.6902C569.534 89.6699 568.794 92.0002 569.779 93.895C570.752 95.7669 573.047 96.5175 574.938 95.5819L604.774 80.8186L613.895 76.0182L612.589 73.789L593.525 37.1027C592.548 35.2231 590.23 34.4873 588.348 35.4591C586.466 36.431 585.732 38.7425 586.709 40.6221L600.81 67.7589Z" fill="#4FE2CE"/>
</g>
<defs>
<linearGradient id="paint0_linear_4785_17784" x1="1471" y1="374.5" x2="1552.5" y2="23" gradientUnits="userSpaceOnUse">
<stop stop-color="white"/>
<stop offset="1" stop-color="white" stop-opacity="0.1"/>
</linearGradient>
<linearGradient id="paint1_linear_4785_17784" x1="1466.2" y1="383.416" x2="1532.5" y2="21" gradientUnits="userSpaceOnUse">
<stop stop-color="white"/>
<stop offset="1" stop-color="white" stop-opacity="0.1"/>
</linearGradient>
<linearGradient id="paint2_linear_4785_17784" x1="1486" y1="360.5" x2="1523" y2="136.5" gradientUnits="userSpaceOnUse">
<stop stop-color="#D9D9D9"/>
<stop offset="1" stop-color="#D9D9D9" stop-opacity="0.1"/>
</linearGradient>
<linearGradient id="paint3_linear_4785_17784" x1="1334" y1="452.5" x2="1299.59" y2="166.476" gradientUnits="userSpaceOnUse">
<stop stop-color="white"/>
<stop offset="1" stop-color="white" stop-opacity="0.1"/>
</linearGradient>
<radialGradient id="paint4_radial_4785_17784" cx="0" cy="0" r="1" gradientTransform="matrix(38.7421 162.46 -175.5 48.2448 1006.68 95.6595)" gradientUnits="userSpaceOnUse">
<stop offset="0.392236" stop-color="#D9D9D9"/>
<stop offset="1" stop-color="#737373" stop-opacity="0"/>
</radialGradient>
<linearGradient id="paint5_linear_4785_17784" x1="781.257" y1="93.1343" x2="795.371" y2="96.1343" gradientUnits="userSpaceOnUse">
<stop stop-color="white"/>
<stop offset="1" stop-color="white" stop-opacity="0.3"/>
</linearGradient>
<linearGradient id="paint6_linear_4785_17784" x1="873.925" y1="123.4" x2="1180.57" y2="10.9998" gradientUnits="userSpaceOnUse">
<stop stop-color="#1DA593"/>
<stop offset="1" stop-color="#1DA593" stop-opacity="0"/>
</linearGradient>
<linearGradient id="paint7_linear_4785_17784" x1="953.173" y1="133.85" x2="1119.74" y2="97.7029" gradientUnits="userSpaceOnUse">
<stop stop-color="#4FE2CE"/>
<stop offset="1" stop-color="#4FE2CE" stop-opacity="0"/>
</linearGradient>
<linearGradient id="paint8_linear_4785_17784" x1="858.01" y1="252.386" x2="812.103" y2="388.225" gradientUnits="userSpaceOnUse">
<stop stop-color="#36353D"/>
<stop offset="1" stop-color="#36353D" stop-opacity="0"/>
</linearGradient>
<linearGradient id="paint9_linear_4785_17784" x1="898.742" y1="202.492" x2="866.252" y2="356.277" gradientUnits="userSpaceOnUse">
<stop stop-color="#8E8B9B"/>
<stop offset="1" stop-color="#8E8B9B" stop-opacity="0"/>
</linearGradient>
<linearGradient id="paint10_linear_4785_17784" x1="818.139" y1="200.572" x2="713.475" y2="376.861" gradientUnits="userSpaceOnUse">
<stop stop-color="#1E1E1E"/>
<stop offset="0.605085" stop-color="#605C72" stop-opacity="0.3"/>
<stop offset="0.789295" stop-color="#605C72" stop-opacity="0.05"/>
<stop offset="0.938169" stop-color="#605C72" stop-opacity="0"/>
</linearGradient>
<linearGradient id="paint11_linear_4785_17784" x1="790.097" y1="231.664" x2="703.295" y2="367.449" gradientUnits="userSpaceOnUse">
<stop stop-color="white"/>
<stop offset="1" stop-color="white" stop-opacity="0"/>
</linearGradient>
<linearGradient id="paint12_linear_4785_17784" x1="786.112" y1="165.673" x2="740.626" y2="346.532" gradientUnits="userSpaceOnUse">
<stop stop-color="#2B2B2B"/>
<stop offset="1" stop-color="#605C72" stop-opacity="0"/>
</linearGradient>
<linearGradient id="paint13_linear_4785_17784" x1="801.264" y1="193.89" x2="754.705" y2="350.323" gradientUnits="userSpaceOnUse">
<stop stop-color="white"/>
<stop offset="1" stop-color="white" stop-opacity="0"/>
</linearGradient>
<linearGradient id="paint14_linear_4785_17784" x1="767.552" y1="276.9" x2="666.437" y2="451.689" gradientUnits="userSpaceOnUse">
<stop stop-color="#141421"/>
<stop offset="1" stop-color="#111128" stop-opacity="0"/>
</linearGradient>
<linearGradient id="paint15_linear_4785_17784" x1="806.349" y1="186.304" x2="711.475" y2="353.942" gradientUnits="userSpaceOnUse">
<stop stop-color="#1C1C2D"/>
<stop offset="1" stop-opacity="0"/>
</linearGradient>
<linearGradient id="paint16_linear_4785_17784" x1="769.43" y1="229.551" x2="738.446" y2="344.323" gradientUnits="userSpaceOnUse">
<stop stop-color="#D9D9D9"/>
<stop offset="1" stop-color="#737373" stop-opacity="0.1"/>
</linearGradient>
<linearGradient id="paint17_linear_4785_17784" x1="679.288" y1="234.935" x2="777.146" y2="353.625" gradientUnits="userSpaceOnUse">
<stop stop-color="#4FE2CE" stop-opacity="0.194709"/>
<stop offset="0.191376" stop-color="#4FE2CE"/>
<stop offset="0.85185" stop-color="#4FE2CE"/>
<stop offset="1" stop-color="#4FE2CE" stop-opacity="0"/>
</linearGradient>
<linearGradient id="paint18_linear_4785_17784" x1="725.869" y1="276.626" x2="756.05" y2="227.339" gradientUnits="userSpaceOnUse">
<stop stop-color="#1DA593"/>
<stop offset="1" stop-color="#1DA593" stop-opacity="0"/>
</linearGradient>
<linearGradient id="paint19_linear_4785_17784" x1="707.234" y1="316.693" x2="755.166" y2="237.263" gradientUnits="userSpaceOnUse">
<stop stop-color="#4FE2CE"/>
<stop offset="1" stop-color="#4FE2CE" stop-opacity="0"/>
</linearGradient>
<linearGradient id="paint20_linear_4785_17784" x1="177.482" y1="224.38" x2="192.004" y2="215.995" gradientUnits="userSpaceOnUse">
<stop stop-color="white"/>
<stop offset="1" stop-color="white" stop-opacity="0.3"/>
</linearGradient>
<clipPath id="clip0_4785_17784">
<rect width="1776" height="444" fill="white"/>
</clipPath>
<clipPath id="clip1_4785_17784">
<rect width="37.05" height="39.1768" fill="white" transform="matrix(0.994522 0.104528 -0.207912 0.978148 1030.49 81.2734)"/>
</clipPath>
<clipPath id="clip2_4785_17784">
<rect width="390.56" height="511.807" fill="white" transform="translate(711.445 -15.6055) rotate(29.4766)"/>
</clipPath>
<clipPath id="clip3_4785_17784">
<rect width="121.748" height="121.748" fill="white" transform="translate(710.476 217.168) rotate(30.4766)"/>
</clipPath>
<clipPath id="clip4_4785_17784">
<rect width="43.3561" height="45.845" fill="white" transform="matrix(0.93358 -0.358368 0.5 0.866025 420.303 84.0547)"/>
</clipPath>
</defs>
</svg>
