<svg width="326" height="200" viewBox="0 0 326 200" fill="none" xmlns="http://www.w3.org/2000/svg">
<path d="M1 65.4257C1 29.8443 29.7445 1 65.2025 1H227.797C263.256 1 292 29.8443 292 65.4257V91.367C292 126.948 263.256 155.793 227.797 155.793H155.321C149.556 155.793 143.907 157.415 139.015 160.476L93.3846 189.028C84.8317 194.38 73.75 188.209 73.75 178.094V167.96C73.75 161.24 68.3214 155.793 61.625 155.793C28.1427 155.793 1 128.556 1 94.957V65.4257Z" fill="#D9D9D9" fill-opacity="0.1" stroke="white" stroke-width="2"/>
<path d="M128 168.071H189.516C196.772 168.071 203.797 170.62 209.359 175.272L235.198 196.882C241.064 201.788 249.998 197.624 249.998 189.984V179.591C249.998 173.228 255.164 168.071 261.537 168.071C296.587 168.071 325 139.702 325 104.708V76.8489C325 39.9293 295.024 10 258.046 10" stroke="white"/>
<path d="M137.444 102.671C135.292 102.671 133.53 100.923 133.649 98.7739C134.271 87.6105 137.861 80.9292 147.531 73.8893C154.301 68.7234 160.925 66.5094 160.925 57.9486C161.072 49.8306 155.423 44.2218 145.12 44.2218C136.375 44.2218 130.943 50.024 128.798 58.7474C128.318 60.6984 126.604 62.1634 124.596 62.0775L111.556 61.5195C109.321 61.4239 107.607 59.4616 108.045 57.2673C111.506 39.9405 125.671 27.0117 144.531 27.0117C166.315 27.0117 181.475 40.3842 181.475 57.9486C181.475 68.1329 176.471 75.5129 164.107 83.4833C157.474 87.7502 155.163 91.9103 154.62 98.7762C154.45 100.922 152.739 102.671 150.587 102.671H137.444ZM137.094 129.298C134.942 129.298 133.197 127.554 133.197 125.402V113.269C133.197 111.117 134.942 109.372 137.094 109.372H150.349C152.501 109.372 154.245 111.117 154.245 113.269V125.402C154.245 127.554 152.501 129.298 150.349 129.298H137.094Z" stroke="white" stroke-width="2"/>
<path d="M152.553 110.568C154.807 110.568 156.633 112.379 156.633 114.613V130.13C156.633 132.364 154.807 134.175 152.553 134.175H137.7C135.447 134.175 133.62 132.364 133.62 130.13V126.755M169.558 34.3242C183.197 42.1175 185.145 53.6956 185.145 61.1135C185.145 71.6859 182.017 78.6547 169.071 86.9287C162.126 91.3581 158.569 95.3631 158 102.491C157.742 105.724 155.056 107.508 152.803 107.508H139.042C136.788 107.508 134.943 105.693 135.068 103.462C135.124 102.464 135.203 103.448 135.308 102.515M160.304 60.6265C160.304 51.859 153.194 48.7804 147.078 48.7804C137.922 48.7804 134.182 54.8037 131.936 63.8594C131.434 65.8846 129.639 67.4054 127.537 67.3163L111.935 66.7371C109.594 66.6378 107.7 64.5231 107.699 62.0877C107.7 60.6265 107.462 58.582 107.699 57.704" stroke="url(#paint0_linear_6162_136456)"/>
<defs>
<linearGradient id="paint0_linear_6162_136456" x1="166.409" y1="-70.3735" x2="166.409" y2="146.341" gradientUnits="userSpaceOnUse">
<stop stop-color="white"/>
<stop offset="1" stop-color="white" stop-opacity="0.2"/>
</linearGradient>
</defs>
</svg>
