<svg width="30" height="30" viewBox="0 0 30 30" fill="none" xmlns="http://www.w3.org/2000/svg">
<g clip-path="url(#clip0_8934_37837)">
<path d="M15.006 0C20.8794 0 25.0931 4.85827 25.0931 11.1614V13.532C25.0931 13.8709 25.3758 14.3201 26.147 15.1262C26.246 15.2296 26.3391 15.3255 26.5425 15.5342C28.1241 17.1594 28.75 18.0956 28.75 19.602C28.75 20.2607 28.6741 20.7742 28.3584 21.3896C27.6911 22.69 26.2764 23.4147 24.1615 23.4147L21.3651 23.4162C20.4447 26.8728 18.2487 28.75 15 28.75C11.7167 28.75 9.50866 26.8326 8.60596 23.3051L8.63404 23.4147H5.83847C3.66193 23.4147 2.23202 22.6703 1.59326 21.3242C1.31393 20.7356 1.25 20.2578 1.25 19.602C1.25 18.0956 1.87588 17.1594 3.45749 15.5342C3.66092 15.3255 3.75405 15.2296 3.85297 15.1262C4.62424 14.3201 4.90692 13.8709 4.90692 13.532V11.1614C4.90692 4.86072 9.13097 0 15.006 0ZM18.6071 23.4175H11.3929C12.0598 25.2649 13.2092 26.0825 15 26.0825C16.7908 26.0825 17.9402 25.2649 18.6071 23.4175ZM15.006 2.6675C10.665 2.6675 7.53989 6.26368 7.53989 11.1614V13.532C7.53989 14.7954 6.97023 15.7006 5.74363 16.9828C5.63646 17.0948 5.5353 17.1989 5.3324 17.407C4.23989 18.5296 3.88298 19.0635 3.88298 19.602C3.88298 19.8866 3.9028 20.0347 3.96624 20.1684C4.1232 20.4992 4.5996 20.7472 5.83847 20.7472H24.1615C25.3611 20.7472 25.8486 20.4975 26.0222 20.1592C26.0946 20.0182 26.117 19.8662 26.117 19.602C26.117 19.0635 25.7601 18.5296 24.6676 17.407C24.4647 17.1989 24.3635 17.0948 24.2564 16.9828C23.0298 15.7006 22.4601 14.7954 22.4601 13.532V11.1614C22.4601 6.26024 19.344 2.6675 15.006 2.6675Z" fill="white"/>
</g>
<defs>
<clipPath id="clip0_8934_37837">
<rect width="30" height="30" fill="white"/>
</clipPath>
</defs>
</svg>
