<svg viewBox="0 0 28 28" fill="none" xmlns="http://www.w3.org/2000/svg">
<path d="M14.5462 4.96831C14.1676 5.34151 14.1321 5.93123 14.4424 6.345L14.5356 6.45319L20.9417 12.9493L4.55 12.9494C3.9701 12.9494 3.5 13.4195 3.5 13.9993C3.5 14.5346 3.90056 14.9764 4.41829 15.0412L4.55 15.0493H20.9417L14.5356 21.5455C14.1624 21.924 14.1353 22.5142 14.4514 22.9235L14.5462 23.0304C14.9247 23.4036 15.5149 23.4307 15.9242 23.1146L16.031 23.0199L24.1977 14.7365C24.5672 14.3618 24.598 13.7787 24.2901 13.3693L24.1977 13.2622L16.031 4.97884C15.6239 4.56589 14.9591 4.56117 14.5462 4.96831Z" fill="black"/>
</svg>
