<svg width="25" height="25" viewBox="0 0 25 25" fill="none" xmlns="http://www.w3.org/2000/svg">
<path d="M12.9681 4.75911C12.6437 5.079 12.6132 5.58447 12.8792 5.93913L12.9591 6.03187L18.45 11.6L4.4 11.6C3.90294 11.6 3.5 12.0029 3.5 12.5C3.5 12.9588 3.84334 13.3375 4.28711 13.393L4.4 13.4H18.45L12.9591 18.9681C12.6392 19.2926 12.616 19.7984 12.8869 20.1493L12.9681 20.2409C13.2926 20.5608 13.7985 20.584 14.1493 20.3131L14.2409 20.2319L21.2409 13.1319C21.5576 12.8107 21.584 12.3109 21.3201 11.9599L21.2409 11.8681L14.2409 4.76813C13.8919 4.41418 13.3221 4.41014 12.9681 4.75911Z" fill="black"/>
</svg>
