<svg viewBox="0 0 28 28" fill="none" xmlns="http://www.w3.org/2000/svg">
<path fill-rule="evenodd" clip-rule="evenodd" d="M20.7268 7.27567C21.1369 7.68572 21.1561 8.33132 20.7698 8.71767L8.72203 20.7654C8.33568 21.1517 7.69007 21.1325 7.28002 20.7225C6.86997 20.3124 6.85076 19.6668 7.2371 19.2805L19.2848 7.23275C19.6712 6.8464 20.3168 6.86561 20.7268 7.27567Z" fill="black"/>
<path fill-rule="evenodd" clip-rule="evenodd" d="M7.27707 7.27567C7.68712 6.86561 8.33273 6.8464 8.71908 7.23275L20.7668 19.2805C21.1531 19.6668 21.1339 20.3124 20.7239 20.7225C20.3138 21.1325 19.6682 21.1517 19.2819 20.7654L7.23415 8.71767C6.8478 8.33132 6.86702 7.68572 7.27707 7.27567Z" fill="black"/>
</svg>
