<svg width="514" height="584" viewBox="0 0 514 584" fill="none" xmlns="http://www.w3.org/2000/svg">
<rect x="1" y="1" width="512" height="582" rx="25" fill="url(#paint0_linear_6557_162020)" fill-opacity="0.17"/>
<rect x="0.5" y="0.5" width="513" height="583" rx="25.5" stroke="white" stroke-opacity="0.1"/>
<rect x="51" y="50.5" width="412" height="483" rx="20" fill="white" fill-opacity="0.08"/>
<rect x="52" y="51.5" width="410" height="481" rx="19" stroke="white" stroke-opacity="0.3" stroke-width="2" stroke-dasharray="16 16"/>
<path fill-rule="evenodd" clip-rule="evenodd" d="M257.467 250.848C259.793 251.001 261.905 252.292 263.079 254.309L281.392 285.733C282.647 287.887 282.647 290.536 281.392 292.689C280.139 294.84 277.819 296.166 275.312 296.166H238.687L238.218 296.15C235.893 295.997 233.782 294.705 232.608 292.689C231.431 290.671 231.357 288.216 232.386 286.144L232.608 285.733L250.92 254.309C252.173 252.158 254.492 250.832 256.999 250.832L257.467 250.848ZM256.999 255.1C255.996 255.1 255.089 255.63 254.608 256.456L254.607 256.457L236.294 287.882V287.883C235.843 288.656 235.814 289.591 236.209 290.385L236.294 290.541V290.542C236.775 291.368 237.683 291.898 238.687 291.898H275.312C276.316 291.898 277.224 291.368 277.705 290.542V290.541C278.156 289.767 278.185 288.833 277.79 288.039L277.705 287.882L259.393 256.457L259.392 256.456C258.911 255.63 258.003 255.1 256.999 255.1ZM256.999 282.832C257.736 282.832 258.332 283.43 258.332 284.166C258.332 284.902 257.736 285.499 256.999 285.499C256.263 285.499 255.666 284.902 255.666 284.166C255.666 283.43 256.263 282.832 256.999 282.832ZM256.997 266.832C257.807 266.832 258.464 267.489 258.464 268.299V278.699C258.464 279.509 257.807 280.166 256.997 280.166C256.187 280.166 255.531 279.509 255.531 278.699V268.299C255.531 267.489 256.187 266.832 256.997 266.832Z" fill="white"/>
<path d="M177.869 333.5V313.62H185.009C187.398 313.62 189.2 314.049 190.413 314.908C191.626 315.767 192.233 317.129 192.233 318.996C192.233 319.836 192.056 320.573 191.701 321.208C191.346 321.843 190.824 322.347 190.133 322.72C189.461 323.075 188.658 323.261 187.725 323.28L187.697 323.168C189.396 323.205 190.712 323.672 191.645 324.568C192.597 325.445 193.073 326.603 193.073 328.04C193.073 329.851 192.466 331.213 191.253 332.128C190.04 333.043 188.313 333.5 186.073 333.5H177.869ZM180.893 330.784H185.989C187.24 330.784 188.21 330.532 188.901 330.028C189.61 329.505 189.965 328.749 189.965 327.76C189.965 326.789 189.61 326.033 188.901 325.492C188.21 324.951 187.24 324.68 185.989 324.68H180.893V330.784ZM180.893 322.104H184.953C186.278 322.104 187.305 321.852 188.033 321.348C188.761 320.844 189.125 320.135 189.125 319.22C189.125 318.249 188.77 317.531 188.061 317.064C187.37 316.579 186.334 316.336 184.953 316.336H180.893V322.104ZM199.731 333.5C198.76 333.5 197.976 333.248 197.379 332.744C196.781 332.24 196.483 331.437 196.483 330.336V313.62H199.451V330.056C199.451 330.392 199.535 330.644 199.703 330.812C199.889 330.98 200.151 331.064 200.487 331.064H201.663V333.5H199.731ZM208.53 333.836C206.98 333.836 205.739 333.481 204.806 332.772C203.891 332.063 203.434 331.064 203.434 329.776C203.434 328.488 203.816 327.489 204.582 326.78C205.366 326.052 206.57 325.529 208.194 325.212L213.318 324.232C213.318 323.075 213.047 322.216 212.506 321.656C211.964 321.077 211.162 320.788 210.098 320.788C209.146 320.788 208.399 321.003 207.858 321.432C207.316 321.843 206.943 322.459 206.738 323.28L203.686 323.084C203.966 321.591 204.656 320.415 205.758 319.556C206.878 318.697 208.324 318.268 210.098 318.268C212.114 318.268 213.644 318.809 214.69 319.892C215.754 320.956 216.286 322.459 216.286 324.4V330.196C216.286 330.551 216.342 330.803 216.454 330.952C216.584 331.083 216.79 331.148 217.07 331.148H217.602V333.5C217.508 333.519 217.359 333.537 217.154 333.556C216.948 333.575 216.734 333.584 216.51 333.584C215.875 333.584 215.324 333.481 214.858 333.276C214.41 333.071 214.074 332.735 213.85 332.268C213.626 331.783 213.514 331.139 213.514 330.336L213.822 330.476C213.672 331.129 213.346 331.708 212.842 332.212C212.356 332.716 211.731 333.117 210.966 333.416C210.219 333.696 209.407 333.836 208.53 333.836ZM209.006 331.484C209.902 331.484 210.667 331.316 211.302 330.98C211.936 330.625 212.431 330.14 212.786 329.524C213.14 328.908 213.318 328.208 213.318 327.424V326.472L208.95 327.312C208.054 327.48 207.419 327.751 207.046 328.124C206.691 328.479 206.514 328.936 206.514 329.496C206.514 330.131 206.728 330.625 207.158 330.98C207.606 331.316 208.222 331.484 209.006 331.484ZM220.108 333.5V318.604H222.824L222.936 322.58L222.572 322.384C222.74 321.413 223.057 320.629 223.524 320.032C223.99 319.435 224.56 318.996 225.232 318.716C225.904 318.417 226.632 318.268 227.416 318.268C228.536 318.268 229.46 318.52 230.188 319.024C230.934 319.509 231.494 320.181 231.868 321.04C232.26 321.88 232.456 322.841 232.456 323.924V333.5H229.488V324.82C229.488 323.943 229.394 323.205 229.208 322.608C229.021 322.011 228.713 321.553 228.284 321.236C227.854 320.919 227.294 320.76 226.604 320.76C225.558 320.76 224.709 321.105 224.056 321.796C223.402 322.487 223.076 323.495 223.076 324.82V333.5H220.108ZM236.377 333.5V313.62H239.345V325.968L246.037 318.604H249.789L243.965 324.876L250.013 333.5H246.597L241.977 326.724L239.345 329.524V333.5H236.377ZM260.248 333.5V318.604H263.216V333.5H260.248ZM260.192 316.448V313.48H263.272V316.448H260.192ZM267.659 333.5V318.604H270.375L270.459 322.3L270.123 322.188C270.291 321.367 270.58 320.667 270.991 320.088C271.42 319.509 271.943 319.061 272.559 318.744C273.175 318.427 273.847 318.268 274.575 318.268C275.844 318.268 276.88 318.632 277.683 319.36C278.485 320.069 278.989 321.049 279.195 322.3H278.719C278.887 321.423 279.167 320.695 279.559 320.116C279.969 319.519 280.492 319.061 281.127 318.744C281.761 318.427 282.48 318.268 283.283 318.268C284.328 318.268 285.215 318.492 285.943 318.94C286.689 319.369 287.249 320.004 287.623 320.844C288.015 321.684 288.211 322.711 288.211 323.924V333.5H285.243V324.652C285.243 323.364 285.009 322.393 284.543 321.74C284.076 321.087 283.367 320.76 282.415 320.76C281.799 320.76 281.257 320.919 280.791 321.236C280.324 321.553 279.96 322.011 279.699 322.608C279.456 323.205 279.335 323.924 279.335 324.764V333.5H276.507V324.764C276.507 323.495 276.292 322.515 275.863 321.824C275.452 321.115 274.743 320.76 273.735 320.76C273.1 320.76 272.549 320.919 272.083 321.236C271.635 321.553 271.28 322.02 271.019 322.636C270.757 323.233 270.627 323.943 270.627 324.764V333.5H267.659ZM296.303 333.836C294.754 333.836 293.513 333.481 292.579 332.772C291.665 332.063 291.207 331.064 291.207 329.776C291.207 328.488 291.59 327.489 292.355 326.78C293.139 326.052 294.343 325.529 295.967 325.212L301.091 324.232C301.091 323.075 300.821 322.216 300.279 321.656C299.738 321.077 298.935 320.788 297.871 320.788C296.919 320.788 296.173 321.003 295.631 321.432C295.09 321.843 294.717 322.459 294.511 323.28L291.459 323.084C291.739 321.591 292.43 320.415 293.531 319.556C294.651 318.697 296.098 318.268 297.871 318.268C299.887 318.268 301.418 318.809 302.463 319.892C303.527 320.956 304.059 322.459 304.059 324.4V330.196C304.059 330.551 304.115 330.803 304.227 330.952C304.358 331.083 304.563 331.148 304.843 331.148H305.375V333.5C305.282 333.519 305.133 333.537 304.927 333.556C304.722 333.575 304.507 333.584 304.283 333.584C303.649 333.584 303.098 333.481 302.631 333.276C302.183 333.071 301.847 332.735 301.623 332.268C301.399 331.783 301.287 331.139 301.287 330.336L301.595 330.476C301.446 331.129 301.119 331.708 300.615 332.212C300.13 332.716 299.505 333.117 298.739 333.416C297.993 333.696 297.181 333.836 296.303 333.836ZM296.779 331.484C297.675 331.484 298.441 331.316 299.075 330.98C299.71 330.625 300.205 330.14 300.559 329.524C300.914 328.908 301.091 328.208 301.091 327.424V326.472L296.723 327.312C295.827 327.48 295.193 327.751 294.819 328.124C294.465 328.479 294.287 328.936 294.287 329.496C294.287 330.131 294.502 330.625 294.931 330.98C295.379 331.316 295.995 331.484 296.779 331.484ZM313.764 338.036C312.588 338.036 311.552 337.859 310.656 337.504C309.76 337.149 309.023 336.645 308.444 335.992C307.865 335.357 307.473 334.611 307.268 333.752L310.348 333.556C310.553 334.172 310.908 334.657 311.412 335.012C311.935 335.385 312.719 335.572 313.764 335.572C314.996 335.572 315.939 335.311 316.592 334.788C317.264 334.265 317.6 333.472 317.6 332.408V330.252C317.245 331.017 316.676 331.624 315.892 332.072C315.108 332.52 314.231 332.744 313.26 332.744C312.009 332.744 310.899 332.436 309.928 331.82C308.957 331.204 308.201 330.355 307.66 329.272C307.119 328.189 306.848 326.939 306.848 325.52C306.848 324.083 307.109 322.823 307.632 321.74C308.173 320.657 308.92 319.808 309.872 319.192C310.843 318.576 311.935 318.268 313.148 318.268C314.212 318.268 315.145 318.511 315.948 318.996C316.769 319.481 317.357 320.135 317.712 320.956V318.604H320.568V332.324C320.568 333.556 320.288 334.592 319.728 335.432C319.187 336.291 318.403 336.935 317.376 337.364C316.368 337.812 315.164 338.036 313.764 338.036ZM313.736 330.224C314.893 330.224 315.817 329.804 316.508 328.964C317.217 328.124 317.581 326.967 317.6 325.492C317.619 324.521 317.469 323.691 317.152 323C316.835 322.291 316.377 321.749 315.78 321.376C315.201 320.984 314.52 320.788 313.736 320.788C312.523 320.788 311.58 321.217 310.908 322.076C310.255 322.916 309.928 324.055 309.928 325.492C309.928 326.948 310.264 328.105 310.936 328.964C311.627 329.804 312.56 330.224 313.736 330.224ZM330.638 333.836C329.182 333.836 327.922 333.519 326.858 332.884C325.813 332.249 325.001 331.344 324.422 330.168C323.862 328.992 323.582 327.62 323.582 326.052C323.582 324.484 323.862 323.121 324.422 321.964C325.001 320.788 325.813 319.883 326.858 319.248C327.904 318.595 329.136 318.268 330.554 318.268C331.898 318.268 333.084 318.585 334.11 319.22C335.137 319.836 335.93 320.732 336.49 321.908C337.069 323.084 337.358 324.503 337.358 326.164V326.92H326.662C326.737 328.376 327.12 329.468 327.81 330.196C328.52 330.924 329.472 331.288 330.666 331.288C331.544 331.288 332.272 331.083 332.85 330.672C333.429 330.261 333.83 329.711 334.054 329.02L337.134 329.216C336.742 330.597 335.968 331.717 334.81 332.576C333.672 333.416 332.281 333.836 330.638 333.836ZM326.662 324.68H334.222C334.129 323.355 333.746 322.375 333.074 321.74C332.421 321.105 331.581 320.788 330.554 320.788C329.49 320.788 328.613 321.124 327.922 321.796C327.25 322.449 326.83 323.411 326.662 324.68Z" fill="white"/>
<defs>
<linearGradient id="paint0_linear_6557_162020" x1="485.418" y1="583" x2="-105.837" y2="145.326" gradientUnits="userSpaceOnUse">
<stop stop-color="white"/>
<stop offset="1" stop-color="white" stop-opacity="0.5"/>
</linearGradient>
</defs>
</svg>
