<svg width="80" height="80" viewBox="0 0 80 80" fill="none" xmlns="http://www.w3.org/2000/svg">
<path d="M4.21094 40.0044C4.21094 20.6864 20.3717 5.26562 40.002 5.26562V13.6885C24.7511 13.6885 12.6338 25.604 12.6338 40.0044C12.6344 54.4043 24.7515 66.3203 40.002 66.3203V74.7407C20.372 74.7407 4.21151 59.3219 4.21094 40.0044Z" fill="white"/>
<path d="M75.7891 39.9956C75.7891 59.3136 59.6283 74.7344 39.998 74.7344L39.998 66.3115C55.2489 66.3115 67.3662 54.396 67.3662 39.9956C67.3656 25.5957 55.2485 13.6797 39.9981 13.6797L39.9981 5.25927C59.628 5.25928 75.7885 20.6781 75.7891 39.9956Z" fill="white" fill-opacity="0.15"/>
<rect x="37.8906" y="1.05469" width="4.21053" height="14.7368" rx="2.10526" fill="white"/>
<rect x="37.8906" y="17.8984" width="4.21053" height="12.6316" rx="2.10526" fill="white"/>
<rect x="37.8906" y="32.6328" width="4.21053" height="14.7368" rx="2.10526" fill="white"/>
<rect x="37.8906" y="49.4688" width="4.21053" height="12.6316" rx="2.10526" fill="white"/>
<rect x="37.8906" y="64.2109" width="4.21053" height="14.7368" rx="2.10526" fill="white"/>
</svg>
