<svg width="788" height="646" viewBox="0 0 788 646" fill="none" xmlns="http://www.w3.org/2000/svg">
<path d="M454.901 495.984L402.866 513.415L270.416 361.509C268.183 358.948 264.665 357.918 261.403 358.871L136.023 395.501L93.7278 344.491C93.0443 343.808 91.831 341.979 92.4462 340.133C93.2152 337.826 95.5226 336.032 99.1112 334.75C102.7 333.469 262.139 289.123 263.164 288.867C264.19 288.611 267.264 288.098 268.803 288.867C269.401 289.038 270.957 289.79 272.392 291.43C274.186 293.481 454.388 487.781 457.208 490.857C459.464 493.318 456.61 495.3 454.901 495.984Z" fill="#D9D9D9" fill-opacity="0.07"/>
<path d="M325.453 339.621L437.091 307.305C440.302 306.376 443.761 307.365 445.996 309.85L576.916 455.484C581.326 453.967 616.085 442.467 628.73 438.286C630.868 437.579 631.562 434.921 630.014 433.287C597.457 398.924 468.997 264.606 447.463 242.092C445.512 240.053 442.696 239.345 439.974 240.089L279.519 283.916C277.669 284.421 277.009 286.705 278.304 288.12L325.453 339.621Z" fill="#D2B2FF" fill-opacity="0.4"/>
<path d="M499.247 289.124L579.417 265.607C589.21 262.735 599.786 265.591 606.801 273.004L730.972 404.217L776.013 388.715C780.667 387.113 782.038 381.192 778.563 377.707L609.26 207.943C602.101 200.765 591.639 197.982 581.86 200.655L453.656 235.701C451.785 236.212 451.138 238.535 452.474 239.94L499.247 289.124Z" fill="#D9D9D9" fill-opacity="0.07"/>
<path d="M610.496 201.465C606.726 197.517 598.73 194.793 589.476 194.793C585.798 194.793 582.318 195.223 579.223 195.99L99.1598 329.881C90.5702 332.329 84.7566 337.036 84.7566 342.441C84.7566 344.344 85.4778 346.161 86.7876 347.824L251.117 546.528C255.987 552.805 268.038 557.248 282.133 557.248C289.07 557.248 295.511 556.172 300.845 554.331L774.549 394.844C781.859 392.088 786.597 387.668 786.597 382.685C786.597 380.394 785.595 378.223 783.803 376.277L610.496 201.465Z" stroke="white" stroke-width="1.538"/>
<path d="M786.34 384.736L776.861 453.154C776.393 463.555 769.68 472.639 759.876 476.141L293.245 642.08C276.528 648.051 257.866 642.589 247.006 628.547L97.8756 437.127C94.3335 432.547 92.2056 427.032 91.7532 421.26L84.7566 342.954" stroke="white" stroke-width="1.538"/>
<path d="M304.434 545.969C312.842 543.303 373.729 522.985 403.122 513.159L266.497 357.052L135.51 395.502C171.739 439.335 246.451 529.769 255.474 540.843C266.753 554.685 293.924 549.302 304.434 545.969Z" fill="#D9D9D9" fill-opacity="0.07"/>
<path d="M642.986 433.057L730.972 404.217L607.481 273.213C600.515 265.823 590.01 262.935 580.245 265.725L499.247 288.867L635.567 431.201C637.477 433.196 640.362 433.917 642.986 433.057Z" fill="#D9D9D9" fill-opacity="0.07"/>
<path d="M325.71 339.878L437.273 307.166C439.003 306.658 440.803 306.678 442.466 307.166M577.172 455.228L446.738 309.858C445.569 308.555 444.082 307.639 442.466 307.166M443.623 240.42L442.466 307.166" stroke="white" stroke-width="1.02533"/>
<path d="M135.767 394.989L260.916 358.432C262.646 357.925 264.445 357.945 266.109 358.432M403.122 512.902L270.381 361.125C269.211 359.821 267.724 358.906 266.109 358.432M267.522 288.867L266.109 358.432" stroke="white" stroke-width="1.02533"/>
<path d="M499.503 289.379C523.428 282.287 573.122 267.591 580.505 265.54C583.917 264.593 587.434 264.346 590.758 264.657M730.716 404.474C690.301 361.409 608.496 274.307 604.6 270.411C601.53 267.341 596.424 265.188 590.758 264.657M594.859 200.689L590.758 264.657" stroke="white" stroke-width="1.02533"/>
<path d="M295.719 556.223L291.361 642.607" stroke="white" stroke-width="1.02533"/>
<path d="M250.348 545.969L249.066 630.815" stroke="white" stroke-width="1.02533"/>
<path d="M774.549 394.989L764.039 474.452" stroke="white" stroke-width="1.02533"/>
<path d="M436.841 307.31C440.048 306.377 443.506 307.36 445.744 309.84L577.173 455.484L471.084 490.683C468.41 491.57 465.465 490.811 463.552 488.742L325.71 339.621L436.841 307.31ZM384.647 340.792C383.407 339.366 381.614 339.045 379.222 339.777L375.839 340.811L382.458 348.426L386.385 347.225C388.614 346.543 389.176 345.408 387.964 344.014C387.087 343.006 385.717 342.597 384.215 342.906C385.24 342.444 385.402 341.661 384.647 340.792ZM383.463 343.842C384.672 343.472 385.756 343.671 386.418 344.432C387.07 345.183 386.704 345.811 385.495 346.181L383.021 346.937L380.989 344.599L383.463 343.842ZM389.499 339.078C388.575 339.361 388.33 339.87 388.706 340.678L387.732 339.618L386.414 340.021L391.355 345.705L392.797 345.265L389.915 341.951C389.094 341.008 389.169 340.36 390.297 340.015L391.004 339.799L390.192 338.866L389.499 339.078ZM400.008 339.463C398.432 337.651 396.066 336.908 394 337.539C391.921 338.175 391.569 339.748 393.144 341.561C394.72 343.373 397.086 344.116 399.165 343.481C401.23 342.849 401.583 341.276 400.008 339.463ZM380.181 340.8C381.513 340.393 382.532 340.556 383.176 341.296C383.791 342.004 383.392 342.614 382.101 343.009L380.132 343.612L378.211 341.403L380.181 340.8ZM394.858 338.526C396.081 338.152 397.431 338.676 398.512 339.92C399.594 341.164 399.53 342.12 398.307 342.494C397.084 342.868 395.721 342.348 394.639 341.104C393.558 339.86 393.635 338.9 394.858 338.526ZM397.11 334.308L403.729 341.922L405.17 341.482L403.865 339.981L404.187 338.511L408.677 340.41L410.348 339.899L404.527 337.497L405.284 334.252L403.423 334.822L402.672 338.608L398.551 333.867L397.11 334.308ZM414.716 334.912C412.895 332.917 410.648 332.449 408.922 332.977C406.829 333.617 406.5 335.197 408.066 336.999C409.633 338.801 411.995 339.559 414.088 338.919C415.555 338.47 416.232 337.408 415.712 336.196L414.128 336.572C414.318 337.206 413.954 337.737 413.248 337.953C412.12 338.298 410.886 337.888 409.868 336.856L415.046 335.273L414.716 334.912ZM421.306 331.919C420.225 330.675 418.603 330.017 416.986 330.511C416.008 330.81 415.445 331.39 415.74 332.264L414.869 331.322L413.551 331.725L418.492 337.409L419.933 336.969L417.061 333.665C416.185 332.657 416.375 331.906 417.422 331.586C418.427 331.279 419.297 331.706 420.174 332.714L423.046 336.017L424.486 335.576L421.306 331.919ZM409.761 333.943C410.577 333.693 411.683 333.858 412.788 334.891L409.159 336C408.511 335.017 408.715 334.263 409.761 333.943Z" fill="#D2B2FF"/>
<path d="M177.178 408.337C178.37 410.376 177.848 412.093 175.306 412.87C172.152 413.834 168.617 412.418 166.476 409.867C164.336 407.316 164.516 404.733 167.67 403.769C170.043 403.043 172.613 403.722 174.611 405.392L172.927 405.999C171.618 404.92 170.082 404.557 168.673 404.988C166.392 405.685 166.658 407.515 168.191 409.343C169.714 411.158 172.006 412.353 174.272 411.66C175.757 411.206 176.145 410.178 175.356 408.801L177.178 408.337Z" fill="white"/>
<path d="M184.638 409.955C182.295 410.671 179.652 409.815 177.913 407.742C176.174 405.669 176.593 403.877 178.936 403.16C181.263 402.449 183.906 403.305 185.645 405.378C187.385 407.451 186.965 409.244 184.638 409.955ZM179.597 407.227C180.791 408.65 182.313 409.248 183.691 408.827C185.069 408.406 185.155 407.316 183.961 405.893C182.767 404.47 181.261 403.867 179.883 404.289C178.505 404.71 178.404 405.804 179.597 407.227Z" fill="white"/>
<path d="M184.328 401.697L185.813 401.243L186.775 402.32C186.458 401.323 187.098 400.665 188.201 400.328C190.023 399.771 191.832 400.528 193.026 401.951L196.535 406.133L194.912 406.629L191.742 402.851C190.775 401.699 189.806 401.209 188.673 401.555C187.494 401.916 187.268 402.771 188.236 403.923L191.406 407.701L189.783 408.197L184.328 401.697Z" fill="white"/>
<path d="M192.334 397.4L193.957 396.904L195.192 398.375L197.336 397.72L198.221 398.775L196.077 399.43L199.082 403.012C199.525 403.539 200.073 403.711 200.7 403.519L201.879 403.158L202.775 404.225L201.427 404.637C199.866 405.115 198.478 404.722 197.459 403.508L194.454 399.926L193.214 400.306L192.329 399.251L193.569 398.872L192.334 397.4Z" fill="white"/>
<path d="M200.002 399.355C199.222 397.945 199.85 396.766 201.718 396.195C203.923 395.521 205.956 396.133 207.448 397.911L209.475 400.327C209.753 400.658 210.04 400.725 210.362 400.627L210.683 400.528L211.537 401.546L211.032 401.701C210.307 401.938 209.23 402.144 208.381 401.247C208.539 401.985 208.078 402.789 206.73 403.201C205.092 403.702 203.219 403.396 202.252 402.243C201.161 400.943 202.052 400.193 203.683 399.34L205.701 398.26C204.811 397.222 203.782 396.89 202.603 397.25C201.654 397.54 201.355 398.125 201.758 398.926L200.002 399.355ZM203.916 401.703C204.317 402.182 205.167 402.415 206.239 402.087C207.438 401.705 207.811 400.728 206.638 399.33L206.566 399.244L205.041 400.018C204.057 400.52 203.226 400.882 203.916 401.703Z" fill="white"/>
<path d="M207.31 394.67L208.795 394.216L209.721 395.274C209.471 394.38 209.927 393.685 211.015 393.353C212.178 392.997 213.432 393.23 214.505 393.981C214.141 392.998 214.582 392.262 215.807 391.888C217.445 391.387 219.166 391.97 220.494 393.553L224.003 397.735L222.38 398.231L219.211 394.454C218.243 393.301 217.213 392.83 216.294 393.11C215.131 393.466 215.033 394.313 215.98 395.441L219.15 399.219L217.619 399.687L214.449 395.909C213.502 394.781 212.436 394.29 211.532 394.566C210.384 394.917 210.271 395.769 211.218 396.897L214.388 400.675L212.765 401.171L207.31 394.67Z" fill="white"/>
<path d="M220.538 390.626L222.161 390.13L227.616 396.631L225.993 397.127L220.538 390.626ZM219.705 389.679L218.665 388.44L220.365 387.92L221.405 389.159L219.705 389.679Z" fill="white"/>
<path d="M223.943 389.585L225.428 389.131L226.39 390.209C226.072 389.212 226.713 388.553 227.815 388.216C229.637 387.659 231.446 388.416 232.64 389.839L236.15 394.022L234.527 394.518L231.357 390.74C230.389 389.587 229.42 389.097 228.287 389.444C227.108 389.804 226.883 390.659 227.85 391.812L231.02 395.59L229.397 396.086L223.943 389.585Z" fill="white"/>
<path d="M233.805 389.021C233.025 387.61 233.653 386.432 235.521 385.861C237.726 385.187 239.759 385.798 241.251 387.576L243.278 389.993C243.556 390.324 243.843 390.39 244.164 390.292L244.486 390.194L245.34 391.212L244.835 391.366C244.11 391.603 243.033 391.809 242.184 390.913C242.342 391.651 241.881 392.454 240.533 392.866C238.895 393.367 237.022 393.061 236.055 391.908C234.964 390.608 235.854 389.858 237.486 389.005L239.504 387.925C238.614 386.888 237.585 386.555 236.406 386.915C235.457 387.206 235.158 387.79 235.561 388.592L233.805 389.021ZM237.719 391.369C238.12 391.847 238.97 392.081 240.042 391.753C241.241 391.371 241.614 390.394 240.441 388.995L240.369 388.91L238.844 389.684C237.86 390.185 237.029 390.547 237.719 391.369Z" fill="white"/>
<path d="M240.123 382.789L241.746 382.293L242.981 383.765L245.124 383.11L246.009 384.164L243.866 384.82L246.871 388.401C247.313 388.929 247.861 389.1 248.489 388.908L249.668 388.548L250.563 389.615L249.216 390.027C247.654 390.504 246.267 390.112 245.248 388.897L242.243 385.316L241.002 385.695L240.117 384.64L241.358 384.261L240.123 382.789Z" fill="white"/>
<path d="M248.534 386.151C246.805 384.09 247.199 382.29 249.557 381.569C251.502 380.975 254.015 381.516 256.027 383.799L256.392 384.211L250.558 385.995C251.684 387.176 253.062 387.649 254.333 387.26C255.129 387.017 255.545 386.412 255.342 385.688L257.123 385.267C257.688 386.651 256.913 387.859 255.259 388.364C252.901 389.085 250.263 388.212 248.534 386.151ZM249.776 385.016L253.864 383.767C252.641 382.584 251.402 382.392 250.484 382.673C249.305 383.034 249.064 383.893 249.776 385.016Z" fill="white"/>
<path d="M260.066 375.767L267.373 384.476L265.857 384.939L265.029 384.021C265.125 384.824 264.526 385.531 263.408 385.873C261.295 386.519 258.877 385.609 257.128 383.524C255.378 381.439 255.594 379.724 257.707 379.078C258.763 378.755 260.042 378.857 261.026 379.342L258.443 376.264L260.066 375.767ZM258.812 383.009C259.985 384.407 261.584 385.028 262.885 384.63C264.217 384.223 264.318 383.082 263.145 381.684C261.951 380.261 260.358 379.623 259.026 380.031C257.709 380.433 257.618 381.586 258.812 383.009Z" fill="white"/>
<path d="M520.876 300.274L522.345 299.825L529.233 307.211L527.764 307.661L520.876 300.274Z" fill="white"/>
<path d="M525.816 301.17L527.136 300.767L528.04 301.68C527.718 300.829 528.271 300.259 529.25 299.96C530.869 299.465 532.524 300.095 533.649 301.302L536.957 304.85L535.515 305.291L532.527 302.087C531.615 301.109 530.726 300.699 529.719 301.006C528.672 301.327 528.5 302.061 529.412 303.039L532.4 306.243L530.958 306.684L525.816 301.17Z" fill="white"/>
<path d="M539.882 299.357C539.082 298.705 537.996 298.516 537.18 298.765C535.956 299.14 535.904 300.078 537.03 301.285C538.155 302.492 539.546 302.989 540.77 302.615C541.627 302.353 541.937 301.71 541.368 300.894L542.936 300.495C543.922 301.852 543.322 303.065 541.662 303.572C539.567 304.212 537.163 303.49 535.533 301.742C533.903 299.995 534.193 298.449 536.288 297.808C537.893 297.317 539.975 297.657 541.32 298.837L539.882 299.357Z" fill="white"/>
<path d="M549.124 301.291C547.043 301.927 544.635 301.219 542.995 299.461C541.355 297.703 541.668 296.163 543.749 295.527C545.817 294.895 548.225 295.602 549.865 297.361C551.505 299.119 551.192 300.658 549.124 301.291ZM544.491 299.004C545.617 300.21 547.007 300.708 548.232 300.334C549.456 299.959 549.494 299.025 548.369 297.818C547.243 296.611 545.866 296.11 544.642 296.484C543.418 296.858 543.366 297.797 544.491 299.004Z" fill="white"/>
<path d="M548.547 294.221L549.866 293.817L550.737 294.714C550.48 293.951 550.865 293.351 551.831 293.056C552.865 292.74 554.001 292.927 554.993 293.56C554.631 292.722 555.001 292.087 556.089 291.754C557.545 291.309 559.114 291.792 560.365 293.134L563.674 296.682L562.232 297.123L559.244 293.918C558.332 292.941 557.388 292.547 556.572 292.797C555.538 293.113 555.481 293.839 556.373 294.796L559.361 298L558.001 298.416L555.013 295.212C554.12 294.255 553.144 293.845 552.341 294.09C551.321 294.402 551.25 295.132 552.142 296.09L555.131 299.294L553.689 299.735L548.547 294.221Z" fill="white"/>
<path d="M566.644 297.779L560.047 290.705L561.394 290.293L562.201 291.102C562.023 290.368 562.474 289.802 563.508 289.486C565.617 288.841 567.852 289.869 569.297 291.42C570.743 292.97 570.992 294.605 568.883 295.25C567.904 295.549 566.864 295.466 565.913 295.008L568.086 297.338L566.644 297.779ZM563.938 293.058C564.859 294.047 566.327 294.815 567.66 294.407C569.021 293.991 568.728 292.89 567.787 291.881C566.856 290.883 565.398 290.125 564.051 290.537C562.718 290.944 563.016 292.07 563.938 293.058Z" fill="white"/>
<path d="M569.403 289.97C568.651 288.77 569.172 287.754 570.832 287.247C572.791 286.648 574.642 287.152 576.049 288.66L577.96 290.71C578.222 290.991 578.482 291.045 578.768 290.958L579.053 290.87L579.859 291.734L579.41 291.871C578.766 292.081 577.805 292.268 577.009 291.509C577.177 292.139 576.792 292.832 575.595 293.198C574.139 293.643 572.443 293.399 571.531 292.421C570.503 291.318 571.277 290.667 572.713 289.921L574.49 288.976C573.652 288.096 572.714 287.821 571.666 288.142C570.823 288.4 570.576 288.903 570.967 289.585L569.403 289.97ZM573.008 291.943C573.387 292.349 574.16 292.54 575.112 292.249C576.177 291.91 576.477 291.07 575.371 289.884L575.303 289.811L573.96 290.489C573.093 290.928 572.358 291.246 573.008 291.943Z" fill="white"/>
<path d="M574.86 284.571L576.302 284.131L577.467 285.379L579.371 284.797L580.205 285.691L578.301 286.274L581.134 289.312C581.551 289.759 582.05 289.901 582.608 289.73L583.655 289.41L584.499 290.315L583.302 290.681C581.915 291.105 580.652 290.783 579.692 289.753L576.859 286.715L575.757 287.052L574.923 286.157L576.025 285.82L574.86 284.571Z" fill="white"/>
<path d="M580.586 284.425L582.028 283.985L587.169 289.499L585.727 289.939L580.586 284.425ZM579.802 283.622L578.822 282.571L580.332 282.11L581.312 283.161L579.802 283.622Z" fill="white"/>
<path d="M581.651 281.693L583.093 281.252L585.528 283.864C585.442 283.208 585.975 282.617 586.913 282.33C588.791 281.756 590.999 282.512 592.648 284.281C594.297 286.049 594.165 287.52 592.288 288.094C591.295 288.398 590.122 288.302 589.19 287.865L589.886 288.668L588.539 289.08L581.651 281.693ZM587.302 285.915C588.408 287.101 589.854 287.622 591.038 287.26C592.194 286.906 592.258 285.924 591.152 284.738C590.026 283.531 588.57 283.001 587.4 283.358C586.216 283.72 586.176 284.708 587.302 285.915Z" fill="white"/>
<path d="M589.684 279.237L591.126 278.796L596.821 284.903C597.054 285.153 597.347 285.224 597.66 285.128L598.245 284.949L599.089 285.854L598.191 286.129C597.225 286.424 596.126 286.145 595.428 285.396L589.684 279.237Z" fill="white"/>
<path d="M597.229 282.88C595.599 281.132 595.888 279.587 597.983 278.946C599.711 278.418 601.991 278.857 603.883 280.792L604.226 281.142L599.043 282.726C600.099 283.727 601.356 284.119 602.485 283.773C603.192 283.557 603.544 283.035 603.335 282.417L604.923 282.039C605.481 283.218 604.827 284.261 603.358 284.71C601.263 285.35 598.859 284.628 597.229 282.88ZM598.304 281.896L601.936 280.786C600.793 279.785 599.672 279.633 598.856 279.882C597.809 280.203 597.623 280.941 598.304 281.896Z" fill="white"/>
<path d="M517.308 -3.20538C515.639 -7.18479 509.788 -10.1766 501.725 -10.5991C498.519 -10.7671 495.311 -10.5109 492.301 -9.91284L19.22 97.2757C10.7336 99.2449 3.74157 103.518 1.52938 108.73C0.750197 110.566 0.634855 112.351 1.0956 114.013L69.9038 309.422C75.38 324.122 87.8377 327.243 103.076 322.921L581.093 190.759C588.59 188.436 591.128 185.949 593.167 181.144C594.105 178.936 593.932 174.723 593.167 172.765L517.308 -3.20538Z" stroke="url(#paint0_linear_2196_65177)" stroke-width="1.538"/>
<path d="M348.867 187.263C386.559 211.279 412.914 246.071 424.149 286.019L442.348 257.293C443.608 255.303 446.24 254.716 448.227 255.982C450.213 257.247 450.802 259.886 449.541 261.876L424.938 300.711L423.526 303.213L413.812 297.13L382.941 276.707C380.984 275.412 380.422 272.786 381.678 270.805C382.948 268.799 385.602 268.207 387.604 269.483L415.679 287.372C404.898 249.969 380.038 217.234 344.304 194.465C268.644 146.257 168.822 167.433 119.249 241.438C117.938 243.395 115.304 243.996 113.318 242.73C111.331 241.464 110.746 238.811 112.054 236.853C164.152 158.867 269.239 136.527 348.867 187.263Z" fill="#4FE2CE"/>
<defs>
<linearGradient id="paint0_linear_2196_65177" x1="306.118" y1="266.932" x2="287.988" y2="166.128" gradientUnits="userSpaceOnUse">
<stop stop-color="white"/>
<stop offset="1" stop-color="#999999" stop-opacity="0"/>
</linearGradient>
</defs>
</svg>
