<svg width="996" height="700" viewBox="0 0 996 700" fill="none" xmlns="http://www.w3.org/2000/svg">
<mask id="mask0_7634_34075" style="mask-type:alpha" maskUnits="userSpaceOnUse" x="0" y="8" width="828" height="829">
<circle cx="414" cy="422.668" r="414" fill="url(#paint0_radial_7634_34075)"/>
</mask>
<g mask="url(#mask0_7634_34075)">
<path d="M466.626 399.922C470.574 399.922 474.19 402.134 475.987 405.649L532.495 521.256H367.758C363.398 521.256 359.491 518.565 357.936 514.492L314.195 399.922H466.626Z" fill="#D2B2FF"/>
<path fill-rule="evenodd" clip-rule="evenodd" d="M466.913 336.465C470.861 336.465 474.477 338.677 476.275 342.192L565.233 516.156C566.425 518.488 564.731 521.256 562.112 521.256H532.494L475.986 405.649C474.189 402.134 470.573 399.922 466.625 399.922H314.195L292.237 342.408C291.143 339.54 293.261 336.465 296.33 336.465H466.913Z" fill="#D2B2FF" fill-opacity="0.4"/>
<path fill-rule="evenodd" clip-rule="evenodd" d="M275.173 399.922C279.121 399.922 282.736 402.134 284.534 405.649L327.79 522.133H173.87C161.716 522.133 154.359 514.376 151.863 504.621L123.012 409.676C121.435 402.779 124.62 399.922 127.58 399.922H275.173Z" fill="#D9D9D9" fill-opacity="0.1"/>
<path fill-rule="evenodd" clip-rule="evenodd" d="M277.057 337.344C281.417 337.344 285.324 340.035 286.879 344.108L352.123 515.003C353.437 518.444 350.895 522.135 347.212 522.135H327.796L284.54 405.652C282.742 402.137 279.127 399.925 275.179 399.925H127.586C124.626 399.925 121.441 402.781 123.017 409.676L107.809 359.629C103.898 347.515 116.209 337.344 128.362 337.344H277.057Z" fill="#D9D9D9" fill-opacity="0.1"/>
<path d="M636.69 399.711C652.367 399.711 656.649 399.711 667.998 416.555L728.971 521.924L728.901 522.136H582.535C578.587 522.136 574.971 519.923 573.174 516.408L513.5 399.711H636.69Z" fill="#D9D9D9" fill-opacity="0.1"/>
<path d="M642.258 337.344C654.412 337.344 662.602 345.562 668.977 354.855L756.887 501.874C761.88 510.066 749.084 522.135 736.93 522.135H728.904L728.972 521.924L667.998 416.554C656.65 399.711 652.367 399.711 636.691 399.711H513.501L484.217 342.444C483.025 340.112 484.718 337.344 487.337 337.344H642.258Z" fill="#D9D9D9" fill-opacity="0.1"/>
<path d="M162.218 331.902H127.999C112.327 331.902 97.6656 343.235 101.578 360.039L145.136 504.712C148.525 517.133 157.84 527.293 173.512 527.293H737.11C752.782 527.293 770.572 512.443 761.965 499.547L675.527 354.483C666.898 342.063 657.531 331.902 641.859 331.902H601.954M668.578 354.483L756.488 501.501C761.482 509.693 748.684 521.763 736.531 521.763H582.137C578.189 521.763 574.573 519.551 572.775 516.036L483.818 342.072C482.625 339.74 484.319 336.971 486.938 336.971H641.859C654.013 336.971 662.203 345.189 668.578 354.483ZM151.506 504.251L107.446 359.257C103.534 347.143 115.845 336.971 127.999 336.971H276.693C281.053 336.971 284.961 339.662 286.516 343.736L351.759 514.631C353.073 518.072 350.532 521.763 346.848 521.763H173.512C161.358 521.763 154.002 514.006 151.506 504.251ZM477.189 342.699L566.147 516.662C567.339 518.995 565.645 521.763 563.026 521.763H368.672C364.312 521.763 360.404 519.072 358.849 514.999L293.152 342.915C292.057 340.047 294.175 336.971 297.245 336.971H467.828C471.776 336.971 475.392 339.183 477.189 342.699Z" stroke="white" stroke-width="2"/>
<path d="M314.289 399.551H466.263C470.211 399.551 473.826 401.763 475.624 405.278L532.569 521.779" stroke="white" stroke-width="2"/>
<path d="M327.102 520.903L284.176 405.278C282.378 401.763 278.763 399.551 274.815 399.551H127.222C124.155 399.551 120.846 402.617 122.841 410.065" stroke="white" stroke-width="2"/>
<path d="M641.855 337.344V399.553M668.574 354.868V419.268M472.751 338.22V400.429M281.741 338.22V402.62M126.781 337.782V399.553" stroke="white"/>
<path d="M71.1734 111.123C59.0241 111.123 55.5852 119.64 58.0135 130.351L94.9725 289.559C97.1759 302.861 114.616 314.03 126.765 314.03H275.79H630.269C642.418 314.03 649.721 305.284 648.139 294.802L614.885 133.371C615.742 124.376 596.858 111.123 594.876 111.123M160.088 319.596H129.324C113.657 319.596 93.282 307.152 88.7118 288.701L51.413 129.845C48.5322 116.207 52.7162 105.051 68.3824 105.051L592.664 105.051C608.33 105.051 623.441 121.356 621.346 135.516L655.086 294.802C656.761 308.794 648.493 319.596 632.827 319.596H598.881" stroke="url(#paint1_linear_7634_34075)" stroke-width="2"/>
<path d="M160.516 317.008H598.119L601.239 333.655H163.636L160.516 317.008Z" stroke="url(#paint2_linear_7634_34075)" stroke-width="2"/>
<path d="M176.325 611.407H729.477C743.114 611.407 758.164 600.737 756.387 587.905L764.214 508.233M176.325 611.407C157.931 611.407 148.148 599.656 145.149 585.786M176.325 611.407V527.035M145.149 585.786L101.409 428.717C101.104 427.255 100.951 425.816 100.938 424.408V354.684M145.149 585.786V505.1M728.612 521.551L667.639 416.182C656.29 399.338 652.008 399.338 636.331 399.338H513.664" stroke="white" stroke-width="2"/>
<path d="M531.141 416.645H533.56L540.304 427.867H537.884L531.141 416.645Z" fill="white"/>
<path d="M538.11 419.49H540.283L541.195 420.897C541.126 419.774 542.23 419.3 543.843 419.3C546.509 419.3 548.683 420.644 549.785 422.477L553.023 427.867H550.649L547.723 422.999C546.831 421.513 545.697 420.707 544.039 420.707C542.314 420.707 541.7 421.513 542.593 422.999L545.518 427.867H543.144L538.11 419.49Z" fill="white"/>
<path d="M560.069 422.43C559.186 421.371 557.651 420.754 556.307 420.754C554.29 420.754 553.758 421.845 554.86 423.679C555.962 425.512 557.804 426.603 559.821 426.603C561.232 426.603 562.008 425.955 561.551 424.785L564.095 424.88C564.914 426.84 563.428 428.057 560.694 428.057C557.244 428.057 553.991 426.334 552.396 423.679C550.8 421.023 551.983 419.3 555.433 419.3C558.076 419.3 561.032 420.454 562.476 422.335L560.069 422.43Z" fill="white"/>
<path d="M572.983 428.057C569.555 428.057 566.289 426.35 564.684 423.679C563.079 421.007 564.293 419.3 567.721 419.3C571.126 419.3 574.392 421.007 575.998 423.679C577.603 426.35 576.388 428.057 572.983 428.057ZM567.148 423.679C568.25 425.512 570.093 426.603 572.109 426.603C574.125 426.603 574.635 425.512 573.533 423.679C572.431 421.845 570.611 420.754 568.595 420.754C566.579 420.754 566.046 421.845 567.148 423.679Z" fill="white"/>
<path d="M575.544 419.49H577.717L578.588 420.865C578.572 419.869 579.44 419.3 581.03 419.3C582.733 419.3 584.345 419.932 585.525 421.039C585.389 419.917 586.25 419.3 588.043 419.3C590.44 419.3 592.558 420.438 593.783 422.477L597.021 427.867H594.647L591.721 422.999C590.829 421.513 589.605 420.707 588.261 420.707C586.558 420.707 586.121 421.545 586.994 422.999L589.92 427.867H587.679L584.754 422.999C583.88 421.545 582.615 420.707 581.293 420.707C579.613 420.707 579.153 421.545 580.027 422.999L582.952 427.867H580.577L575.544 419.49Z" fill="white"/>
<path d="M600.941 430.238L594.483 419.49H596.701L597.518 420.738C597.608 419.806 598.558 419.3 600.261 419.3C603.734 419.3 606.585 421.323 608 423.679C609.415 426.034 608.995 428.057 605.523 428.057C603.91 428.057 602.393 427.583 601.189 426.698L603.316 430.238H600.941ZM599.173 423.679C600.075 425.18 601.903 426.619 604.098 426.619C606.339 426.619 606.434 425.212 605.513 423.679C604.601 422.161 602.783 420.738 600.565 420.738C598.37 420.738 598.271 422.177 599.173 423.679Z" fill="white"/>
<path d="M608.861 422.003C608.315 420.312 609.589 419.3 612.322 419.3C615.548 419.3 618.078 420.565 619.455 422.857L621.326 425.971C621.582 426.397 621.946 426.555 622.417 426.555H622.887L623.675 427.867H622.936C621.87 427.883 620.338 427.757 619.514 426.571C619.46 427.377 618.547 428.057 616.576 428.057C614.178 428.057 611.755 427.156 610.862 425.67C609.856 423.995 611.331 423.505 613.846 423.141L616.966 422.667C616.136 421.323 614.864 420.659 613.139 420.659C611.75 420.659 611.135 421.165 611.391 422.114L608.861 422.003ZM613.308 425.639C613.678 426.255 614.744 426.761 616.312 426.761C618.072 426.745 618.93 425.86 617.847 424.058L617.78 423.947L615.439 424.263C613.927 424.469 612.671 424.58 613.308 425.639Z" fill="white"/>
<path d="M619.656 417.593H622.031L623.17 419.49H626.307L627.124 420.849H623.987L626.76 425.465C627.169 426.144 627.848 426.492 628.767 426.492H630.492L631.318 427.867H629.347C627.061 427.867 625.326 427.03 624.386 425.465L621.612 420.849H619.798L618.981 419.49H620.795L619.656 417.593Z" fill="white"/>
<path d="M628.307 419.49H630.682L635.715 427.867H633.341L628.307 419.49ZM627.521 418.257L626.562 416.66H629.049L630.008 418.257H627.521Z" fill="white"/>
<path d="M631.228 416.645H633.603L635.987 420.612C636.175 419.806 637.26 419.3 638.805 419.3C641.897 419.3 644.84 420.991 646.455 423.679C648.069 426.366 647.159 428.057 644.067 428.057C642.432 428.057 640.72 427.52 639.535 426.666L640.189 427.867H637.971L631.228 416.645ZM637.65 423.679C638.733 425.481 640.649 426.619 642.598 426.619C644.502 426.619 645.073 425.481 643.99 423.679C642.889 421.845 640.963 420.691 639.036 420.691C637.087 420.691 636.548 421.845 637.65 423.679Z" fill="white"/>
<path d="M644.457 416.645H646.832L652.407 425.923C652.635 426.302 653.04 426.492 653.556 426.492H654.519L655.345 427.867H653.867C652.276 427.867 650.764 427.14 650.08 426.002L644.457 416.645Z" fill="white"/>
<path d="M653.998 423.679C652.403 421.023 653.585 419.3 657.036 419.3C659.881 419.3 663.085 420.644 664.983 423.615L665.328 424.153H656.793C657.89 425.718 659.583 426.634 661.443 426.634C662.607 426.634 663.388 426.144 663.375 425.338L665.937 425.465C666.202 427.061 664.717 428.057 662.297 428.057C658.847 428.057 655.594 426.334 653.998 423.679ZM656.087 422.904H662.069C660.841 421.308 659.235 420.723 657.89 420.723C656.165 420.723 655.53 421.529 656.087 422.904Z" fill="white"/>
<path d="M153.201 423.266C153.626 425.82 152.001 427.474 148.268 427.474C143.636 427.474 139.821 424.821 138.445 421.415C137.069 418.01 138.728 415.324 143.36 415.324C146.845 415.324 149.812 416.88 151.488 419.303L148.964 419.401C147.857 417.829 146.061 416.945 143.992 416.945C140.642 416.945 139.978 418.976 140.964 421.415C141.943 423.839 144.263 425.853 147.591 425.853C149.772 425.853 150.843 424.887 150.576 423.167L153.201 423.266Z" fill="white"/>
<path d="M162.006 427.408C158.565 427.408 155.602 425.64 154.484 422.873C153.366 420.105 154.9 418.337 158.341 418.337C161.758 418.337 164.722 420.105 165.84 422.873C166.958 425.64 165.424 427.408 162.006 427.408ZM156.958 422.873C157.725 424.772 159.373 425.902 161.397 425.902C163.421 425.902 164.134 424.772 163.366 422.873C162.599 420.973 160.973 419.843 158.949 419.843C156.926 419.843 156.19 420.973 156.958 422.873Z" fill="white"/>
<path d="M166.157 418.534H168.338L168.994 419.991C169.132 418.828 170.327 418.337 171.946 418.337C174.622 418.337 176.556 419.729 177.323 421.628L179.579 427.212H177.196L175.158 422.169C174.536 420.629 173.547 419.794 171.883 419.794C170.152 419.794 169.387 420.629 170.009 422.169L172.047 427.212H169.663L166.157 418.534Z" fill="white"/>
<path d="M178.933 416.569H181.317L182.111 418.534H185.259L185.828 419.942H182.68L184.611 424.723C184.896 425.427 185.514 425.787 186.436 425.787H188.167L188.743 427.212H186.764C184.47 427.212 182.883 426.344 182.228 424.723L180.296 419.942H178.475L177.906 418.534H179.727L178.933 416.569Z" fill="white"/>
<path d="M187.823 421.137C187.588 419.385 189.053 418.337 191.796 418.337C195.034 418.337 197.34 419.647 198.299 422.021L199.602 425.247C199.781 425.689 200.117 425.853 200.589 425.853H201.061L201.61 427.212H200.868C199.796 427.228 198.281 427.097 197.673 425.869C197.47 426.704 196.428 427.408 194.449 427.408C192.044 427.408 189.778 426.475 189.156 424.936C188.455 423.2 190.026 422.693 192.617 422.316L195.836 421.825C195.251 420.433 194.097 419.745 192.365 419.745C190.971 419.745 190.261 420.269 190.343 421.252L187.823 421.137ZM191.616 424.903C191.874 425.542 192.85 426.066 194.424 426.066C196.194 426.049 197.217 425.132 196.463 423.266L196.417 423.151L194.008 423.479C192.453 423.691 191.173 423.806 191.616 424.903Z" fill="white"/>
<path d="M199.907 418.534H202.088L202.708 419.958C202.876 418.927 203.852 418.337 205.449 418.337C207.158 418.337 208.659 418.992 209.639 420.138C209.709 418.976 210.688 418.337 212.487 418.337C214.893 418.337 216.808 419.516 217.661 421.628L219.917 427.212H217.534L215.496 422.169C214.874 420.629 213.795 419.794 212.446 419.794C210.737 419.794 210.143 420.662 210.752 422.169L212.789 427.212H210.541L208.503 422.169C207.895 420.662 206.78 419.794 205.453 419.794C203.767 419.794 203.15 420.662 203.759 422.169L205.797 427.212H203.413L199.907 418.534Z" fill="white"/>
<path d="M219.333 418.534H221.716L225.222 427.212H222.839L219.333 418.534ZM218.772 417.256L218.103 415.603H220.599L221.268 417.256H218.772Z" fill="white"/>
<path d="M224.332 418.534H226.513L227.169 419.991C227.307 418.828 228.502 418.337 230.121 418.337C232.797 418.337 234.731 419.729 235.498 421.628L237.754 427.212H235.371L233.333 422.169C232.711 420.629 231.722 419.794 230.058 419.794C228.326 419.794 227.562 420.629 228.184 422.169L230.222 427.212H227.838L224.332 418.534Z" fill="white"/>
<path d="M237.464 421.137C237.228 419.385 238.694 418.337 241.437 418.337C244.675 418.337 246.98 419.647 247.939 422.021L249.243 425.247C249.421 425.689 249.757 425.853 250.23 425.853H250.702L251.251 427.212H250.509C249.436 427.228 247.922 427.097 247.313 425.869C247.111 426.704 246.069 427.408 244.09 427.408C241.684 427.408 239.418 426.475 238.796 424.936C238.095 423.2 239.666 422.693 242.257 422.316L245.477 421.825C244.892 420.433 243.737 419.745 242.006 419.745C240.612 419.745 239.901 420.269 239.984 421.252L237.464 421.137ZM241.256 424.903C241.514 425.542 242.491 426.066 244.065 426.066C245.834 426.049 246.858 425.132 246.104 423.266L246.057 423.151L243.649 423.479C242.094 423.691 240.813 423.806 241.256 424.903Z" fill="white"/>
<path d="M249.112 416.569H251.496L252.29 418.534H255.438L256.007 419.942H252.859L254.79 424.723C255.075 425.427 255.693 425.787 256.614 425.787H258.346L258.921 427.212H256.943C254.649 427.212 253.062 426.344 252.407 424.723L250.475 419.942H248.654L248.085 418.534H249.906L249.112 416.569Z" fill="white"/>
<path d="M258.194 422.873C257.082 420.122 258.587 418.337 262.05 418.337C264.906 418.337 267.874 419.729 269.23 422.807L269.477 423.364H260.91C261.723 424.985 263.253 425.935 265.12 425.935C266.289 425.935 267.163 425.427 267.298 424.592L269.847 424.723C269.818 426.377 268.143 427.408 265.715 427.408C262.252 427.408 259.305 425.624 258.194 422.873ZM260.433 422.07H266.436C265.498 420.417 263.994 419.811 262.645 419.811C260.914 419.811 260.127 420.646 260.433 422.07Z" fill="white"/>
<path d="M278.909 415.586L283.606 427.212H281.38L280.81 425.967C280.493 426.852 279.324 427.408 277.682 427.408C274.579 427.408 271.938 425.656 270.813 422.873C269.688 420.089 270.914 418.337 274.017 418.337C275.569 418.337 277.174 418.861 278.186 419.696L276.526 415.586H278.909ZM273.286 422.873C274.04 424.739 275.776 425.918 277.687 425.918C279.643 425.918 280.404 424.739 279.65 422.873C278.882 420.973 277.163 419.778 275.206 419.778C273.273 419.778 272.519 420.973 273.286 422.873Z" fill="white"/>
<path d="M367.385 428.345L361.164 416.645H366.738C370.677 416.645 373.207 417.699 374.373 419.891C375.083 421.226 374.459 422.116 372.698 422.297C375.099 422.478 376.955 423.483 377.778 425.032C378.917 427.175 377.525 428.345 373.854 428.345H367.385ZM368.953 426.746H373.026C375.019 426.746 375.872 426.12 375.259 424.967C374.636 423.797 373.108 423.154 371.116 423.154H367.043L368.953 426.746ZM366.236 421.638H369.482C371.608 421.638 372.502 421.044 371.923 419.957C371.319 418.82 369.871 418.243 367.677 418.243H364.431L366.236 421.638Z" fill="#0E0C14"/>
<path d="M377.395 419.611H379.567L380.51 421.259C380.339 420.138 380.954 419.611 382.476 419.611H383.618L384.38 421.044H383.216C381.359 421.044 380.933 421.803 381.704 423.253L384.412 428.345H382.039L377.395 419.611Z" fill="#0E0C14"/>
<path d="M394.822 428.543C391.398 428.543 388.213 426.763 386.732 423.978C385.252 421.193 386.544 419.413 389.968 419.413C393.37 419.413 396.555 421.193 398.036 423.978C399.517 426.763 398.225 428.543 394.822 428.543ZM389.195 423.978C390.211 425.889 392.002 427.026 394.016 427.026C396.031 427.026 396.59 425.889 395.574 423.978C394.557 422.066 392.789 420.929 390.774 420.929C388.76 420.929 388.178 422.066 389.195 423.978Z" fill="#0E0C14"/>
<path d="M396.198 416.645H398.57L402.443 423.928L405.408 419.611H408.474L405.764 423.269L413.32 428.345H410.567L404.762 424.373L403.565 426.038L404.792 428.345H402.419L396.198 416.645Z" fill="#0E0C14"/>
<path d="M411.309 423.978C409.837 421.209 411.098 419.413 414.545 419.413C417.387 419.413 420.527 420.814 422.286 423.912L422.607 424.472H414.079C415.103 426.104 416.753 427.059 418.61 427.059C419.774 427.059 420.577 426.549 420.6 425.708L423.155 425.84C423.346 427.504 421.816 428.543 419.399 428.543C415.952 428.543 412.781 426.746 411.309 423.978ZM413.431 423.17H419.408C418.254 421.506 416.676 420.896 415.333 420.896C413.61 420.896 412.937 421.737 413.431 423.17Z" fill="#0E0C14"/>
<path d="M422.089 419.611H424.26L425.107 421.077C425.09 419.907 426.215 419.413 427.826 419.413C430.49 419.413 432.6 420.814 433.616 422.725L436.604 428.345H434.232L431.533 423.269C430.709 421.72 429.613 420.88 427.957 420.88C426.233 420.88 425.583 421.72 426.407 423.269L429.106 428.345H426.733L422.089 419.611Z" fill="#0E0C14"/>
</g>
<mask id="mask1_7634_34075" style="mask-type:alpha" maskUnits="userSpaceOnUse" x="245" y="0" width="782" height="269">
<rect x="245" width="781.562" height="268.99" fill="url(#paint3_linear_7634_34075)"/>
</mask>
<g mask="url(#mask1_7634_34075)">
<path d="M320.238 38.9844C289.088 53.5117 326.684 117.001 347.63 143.366C366.407 167.001 388.695 169.42 402.398 169.42C412.36 169.42 483.141 169.29 520.728 169.407C523.179 169.415 525.571 168.691 527.608 167.328C529.632 165.973 532.012 165.249 534.447 165.249H654.873" stroke="url(#paint4_linear_7634_34075)"/>
<path d="M332.035 96.5935C369.091 165.216 397.322 160.882 408.118 160.882H937.152C945.873 160.882 948.151 156.909 941.495 148.241C934.838 139.573 904.48 108.512 888.886 93.7041C873.293 78.8961 867.055 72.3951 847.931 57.2259C828.808 42.0567 813.233 40.2505 797.869 40.2505C782.504 40.2505 343.372 39.8891 334.86 40.2503C326.348 40.6115 299.739 36.7844 332.035 96.5935Z" stroke="white"/>
<path d="M490.399 216.001C502.856 216.001 522.789 205.158 537.738 205.158C665.495 205.158 793.255 203.49 921.017 203.49C931.814 203.49 936.848 199.674 941.645 194.479C945.952 189.815 953.822 170.543 952.161 156.364C950.5 142.184 874.112 74.6741 855.175 56.2006C832.617 34.1958 794.19 34.1958 789.622 34.1958C785.055 34.1958 754.415 34.6128 714.551 34.1958C674.686 33.7787 357.434 35.8642 339.993 35.8642C322.948 35.8642 311.34 40.8686 305.941 51.2946C302.589 57.7668 290.5 82.565 308.962 132.604C318.361 158.078 326.149 178.876 346.021 200.936C359.592 216.001 376.204 216.001 393.23 216.001H490.399Z" stroke="white" stroke-width="2"/>
<path d="M347.679 51.2682C345.815 47.9493 347.397 45.2812 351.228 45.2812H790.079C792.966 45.2812 796.442 46.8169 798.832 49.1483L902.379 150.162C905.872 153.57 905.088 157.244 900.868 157.244H413.26C409.916 157.244 405.852 154.876 404.226 151.979L347.679 51.2682Z" fill="#1C192D"/>
<path d="M347.679 51.2682C345.815 47.9493 347.397 45.2812 351.228 45.2812H790.079C792.966 45.2812 796.442 46.8169 798.832 49.1483L902.379 150.162C905.872 153.57 905.088 157.244 900.868 157.244H413.26C409.916 157.244 405.852 154.876 404.226 151.979L347.679 51.2682Z" stroke="white" stroke-width="2"/>
<path d="M389.199 185.362H407.962C409.067 185.362 409.962 186.258 409.962 187.362V195.04C409.962 196.144 409.067 197.04 407.962 197.04H389.199M389.199 185.362V197.04M389.199 185.362C380.894 185.362 362.623 186.614 355.148 176.188M389.199 197.04C382.14 197.318 361.792 197.874 357.64 188.699" stroke="url(#paint5_linear_7634_34075)"/>
<rect x="431.836" y="187.297" width="56.4745" height="10.8432" rx="5.42158" stroke="white" stroke-width="2"/>
<rect x="551.062" y="181.918" width="56.4745" height="10.8432" rx="5.42158" stroke="white" stroke-width="2"/>
<path d="M488.719 192.721V190.218C488.719 187.224 486.302 184.797 483.321 184.797H436.812C433.831 184.797 431.414 187.224 431.414 190.218V192.304" stroke="white"/>
<path d="M607.953 187.338V184.836C607.953 181.841 605.537 179.414 602.555 179.414H556.047C553.065 179.414 550.648 181.841 550.648 184.836V186.921" stroke="white"/>
<ellipse cx="6.64406" cy="3.75171" rx="6.64406" ry="3.75171" transform="matrix(1 0 0.499325 0.866414 372.336 133.145)" stroke="white" stroke-width="2"/>
<ellipse cx="2.90678" cy="1.66743" rx="2.90678" ry="1.66743" transform="matrix(1 0 0.499325 0.866414 342.258 70.9453)" stroke="white" stroke-width="2"/>
<ellipse cx="2.90678" cy="1.66743" rx="2.90678" ry="1.66743" transform="matrix(1 0 0.499325 0.866414 336.891 63.1953)" stroke="white" stroke-width="2"/>
<path d="M336.145 84.2177C335.826 83.626 336.115 83.1562 336.798 83.1562C337.498 83.1562 338.347 83.6473 338.696 84.2529L350.153 104.133C350.604 104.915 350.238 105.549 349.335 105.549C348.412 105.549 347.29 104.887 346.859 104.087L336.145 84.2177Z" fill="white"/>
<rect width="6.64406" height="27.5126" rx="3.32203" transform="matrix(1 0 0.499325 0.866414 348.031 81.4883)" stroke="white" stroke-width="2"/>
<path d="M307.847 92.3261C308.065 91.1479 308.208 89.7739 308.51 88.8159C309.143 86.8098 310.371 86.9126 311.469 89.3831C318.194 104.827 321.733 112.12 331.797 130.557C333.151 133.602 333.683 138.845 332.927 141.685L328.527 163.862C327.826 166.496 326.367 166.354 325.112 163.528C318.348 147.773 313.454 134.693 307.729 118.656C307.21 117.205 306.634 115.912 306.183 114.274C305.661 112.375 305.342 110.147 305.297 108.081C305.258 106.317 305.512 104.94 305.757 103.615L307.847 92.3261Z" stroke="white" stroke-width="2" stroke-linecap="round"/>
<path d="M310.711 98.9954C310.93 97.7491 311.525 97.676 312.038 98.8321L327.905 134.268C328.419 135.424 328.657 137.372 328.438 138.618L325.974 151.897C325.754 153.143 325.16 153.216 324.646 152.06L309.854 113.396C309.34 112.24 309.101 110.292 309.321 109.046L310.711 98.9954Z" stroke="white" stroke-width="2" stroke-linecap="round"/>
<path d="M329.649 133.622L311.608 93.0279C310.982 91.6207 310.284 91.5303 309.908 92.6164C309.706 93.2008 309.613 94.0833 309.469 94.8257L307.323 105.872C307.148 106.774 306.967 107.719 307.007 108.946C307.065 110.756 307.45 112.735 308.043 114.071L324.075 157.676C324.866 159.456 325.784 159.545 326.226 157.884L330.308 140.112M329.649 133.622C330.438 135.398 330.749 138.455 330.308 140.112M329.649 133.622L328.314 135.534M330.308 140.112L328.853 139.11M325.608 152.51L326.034 158.234M324.534 152.51L324.088 157.479M308.958 109.466L307.082 108.215M309.495 112.695L308.021 113.95M320.127 130.392C319.765 132.449 318.785 132.569 317.937 130.662C317.089 128.754 316.695 125.541 317.057 123.485C317.419 121.428 318.4 121.307 319.247 123.215C320.095 125.123 320.489 128.336 320.127 130.392ZM325.084 142.753C324.656 145.183 323.497 145.326 322.495 143.071C321.493 140.817 321.028 137.019 321.456 134.589C321.883 132.159 323.042 132.016 324.044 134.271C325.046 136.525 325.512 140.323 325.084 142.753ZM315.845 116.949C315.373 119.629 314.096 119.786 312.991 117.301C311.886 114.815 311.373 110.628 311.845 107.948C312.316 105.269 313.594 105.111 314.699 107.597C315.804 110.083 316.317 114.27 315.845 116.949Z" stroke="white"/>
<path d="M310.571 99.4189L309.498 94.402M312.355 99.4189L312.355 94.402" stroke="white"/>
<path d="M364.973 54.5213L607.58 54.9608L628.999 54.3049C632.936 54.1844 636 57.6938 635.35 61.5786L621.923 141.822C621.43 144.772 618.915 146.958 615.925 147.035L603.919 147.347L419.323 145.671C415.746 145.639 412.444 143.744 410.612 140.671L362.175 59.4357C360.882 57.2671 362.448 54.5168 364.973 54.5213Z" fill="url(#paint6_linear_7634_34075)" fill-opacity="0.1" stroke="url(#paint7_linear_7634_34075)" stroke-opacity="0.2" stroke-width="1.53713"/>
</g>
<mask id="mask2_7634_34075" style="mask-type:alpha" maskUnits="userSpaceOnUse" x="401" y="442" width="59" height="84">
<path d="M430.183 482.303C433.935 491.178 442.252 521.741 442.61 525.193C448.172 518.404 459.25 504.365 459.059 502.524C458.821 500.224 449.276 480.174 443.553 467.191C438.974 456.804 423.61 446.206 416.5 442.204L412.874 446.968L413.491 447.954L411.878 447.296L412.804 448.776L411.19 448.118L401.041 452.057C404.987 454.524 414.366 460.87 420.308 466.525C427.736 473.593 426.431 473.427 430.183 482.303Z" fill="#D9D9D9"/>
</mask>
<g mask="url(#mask2_7634_34075)">
<g filter="url(#filter0_d_7634_34075)">
<mask id="path-39-outside-1_7634_34075" maskUnits="userSpaceOnUse" x="348.487" y="436.528" width="98.1375" height="66.4818" fill="black">
<rect fill="white" x="348.487" y="436.528" width="98.1375" height="66.4818"/>
<path fill-rule="evenodd" clip-rule="evenodd" d="M357.1 443.434C356.797 441.574 359.603 438.793 362.832 440.729C366.06 442.665 371.54 448.836 374.221 452.297C378.697 458.075 385.288 465.668 390.42 470.713C398.511 478.674 404.893 483.519 413.142 487.905C416.686 489.788 425.242 491.793 428.186 493.694C431.13 495.594 444.405 501.099 434.473 498.011C424.541 494.923 424.778 496.005 418.559 493.511C412.483 491.072 409.339 489.376 402.681 484.937C395.103 479.895 391.85 477.268 376.974 464.292C364.98 453.822 362.767 451.769 360.189 448.652C358.175 446.238 357.326 444.791 357.1 443.434Z"/>
</mask>
<path fill-rule="evenodd" clip-rule="evenodd" d="M357.1 443.434C356.797 441.574 359.603 438.793 362.832 440.729C366.06 442.665 371.54 448.836 374.221 452.297C378.697 458.075 385.288 465.668 390.42 470.713C398.511 478.674 404.893 483.519 413.142 487.905C416.686 489.788 425.242 491.793 428.186 493.694C431.13 495.594 444.405 501.099 434.473 498.011C424.541 494.923 424.778 496.005 418.559 493.511C412.483 491.072 409.339 489.376 402.681 484.937C395.103 479.895 391.85 477.268 376.974 464.292C364.98 453.822 362.767 451.769 360.189 448.652C358.175 446.238 357.326 444.791 357.1 443.434Z" fill="url(#paint8_linear_7634_34075)" fill-opacity="0.8"/>
<path d="M357.1 443.434L355.777 443.329L355.778 443.332L357.1 443.434ZM362.832 440.729L363.388 439.793L363.388 439.793L362.832 440.729ZM374.221 452.297L373.174 452.8L373.174 452.8L374.221 452.297ZM390.42 470.713L391.316 470.04L391.315 470.04L390.42 470.713ZM413.142 487.905L412.669 488.887L412.669 488.888L413.142 487.905ZM428.186 493.694L427.578 494.597L427.578 494.597L428.186 493.694ZM434.473 498.011L434.635 496.899L434.635 496.899L434.473 498.011ZM418.559 493.511L418.263 494.576L418.263 494.576L418.559 493.511ZM402.681 484.937L403.312 484.049L403.311 484.048L402.681 484.937ZM376.974 464.292L376.156 465.037L376.156 465.038L376.974 464.292ZM360.189 448.652L361.204 448.108L361.199 448.102L360.189 448.652ZM357.1 443.434L358.424 443.539C358.395 443.362 358.432 443.044 358.644 442.66C358.847 442.29 359.172 441.935 359.579 441.674C360.392 441.151 361.325 441.094 362.276 441.664L362.832 440.729L363.388 439.793C361.11 438.428 359.025 438.794 357.704 439.643C357.043 440.067 356.522 440.635 356.184 441.249C355.854 441.849 355.654 442.576 355.777 443.329L357.1 443.434ZM362.832 440.729L362.276 441.664C363.654 442.491 365.684 444.352 367.796 446.573C369.864 448.748 371.868 451.113 373.174 452.8L374.221 452.297L375.268 451.793C373.894 450.019 371.817 447.568 369.668 445.309C367.563 443.095 365.238 440.903 363.388 439.793L362.832 440.729ZM374.221 452.297L373.174 452.8C377.685 458.622 384.325 466.276 389.524 471.387L390.42 470.713L391.315 470.04C386.25 465.061 379.709 457.527 375.268 451.793L374.221 452.297ZM390.42 470.713L389.524 471.386C397.709 479.439 404.23 484.4 412.669 488.887L413.142 487.905L413.615 486.923C405.556 482.637 399.314 477.909 391.316 470.04L390.42 470.713ZM413.142 487.905L412.669 488.888C414.616 489.922 417.836 490.951 420.697 491.895C422.175 492.383 423.596 492.86 424.824 493.328C426.08 493.807 427.015 494.233 427.578 494.597L428.186 493.694L428.794 492.79C427.885 492.204 426.646 491.667 425.359 491.176C424.045 490.675 422.553 490.176 421.081 489.69C418.042 488.686 415.213 487.771 413.615 486.923L413.142 487.905ZM428.186 493.694L427.578 494.597C428.425 495.143 429.914 495.893 431.389 496.615C432.928 497.367 434.508 498.115 435.723 498.725C436.331 499.03 436.79 499.273 437.074 499.441C437.23 499.535 437.253 499.559 437.215 499.527C437.21 499.523 437.064 499.405 436.941 499.2C436.871 499.084 436.779 498.891 436.768 498.657C436.755 498.403 436.842 498.184 436.993 498.026C437.244 497.762 437.586 497.75 437.613 497.748C437.694 497.743 437.738 497.751 437.705 497.747C437.647 497.74 437.504 497.715 437.233 497.649C436.705 497.521 435.869 497.282 434.635 496.899L434.473 498.011L434.31 499.123C435.56 499.511 436.481 499.776 437.117 499.931C437.428 500.006 437.718 500.067 437.961 500.097C438.079 500.111 438.24 500.126 438.408 500.115C438.521 500.108 438.919 500.078 439.197 499.786C439.36 499.614 439.453 499.379 439.44 499.106C439.427 498.853 439.327 498.638 439.243 498.498C439.09 498.243 438.888 498.067 438.802 497.995C438.602 497.826 438.363 497.676 438.176 497.565C437.77 497.323 437.208 497.029 436.593 496.721C435.363 496.103 433.692 495.311 432.225 494.594C430.693 493.845 429.419 493.194 428.794 492.79L428.186 493.694ZM434.473 498.011L434.635 496.899C429.601 495.333 427.124 494.82 425.144 494.388C423.248 493.975 421.85 493.647 418.855 492.447L418.559 493.511L418.263 494.576C421.488 495.869 423.08 496.247 425.104 496.688C427.043 497.11 429.412 497.6 434.31 499.123L434.473 498.011ZM418.559 493.511L418.856 492.447C412.917 490.063 409.885 488.432 403.312 484.049L402.681 484.937L402.051 485.825C408.792 490.321 412.049 492.081 418.263 494.576L418.559 493.511ZM402.681 484.937L403.311 484.048C395.84 479.078 392.663 476.519 377.792 463.547L376.974 464.292L376.156 465.038C391.037 478.017 394.366 480.713 402.052 485.826L402.681 484.937ZM376.974 464.292L377.792 463.548C365.759 453.043 363.673 451.094 361.204 448.108L360.189 448.652L359.175 449.196C361.861 452.444 364.201 454.601 376.156 465.037L376.974 464.292ZM360.189 448.652L361.199 448.102C359.219 445.729 358.59 444.538 358.423 443.535L357.1 443.434L355.778 443.332C356.063 445.044 357.132 446.747 359.18 449.202L360.189 448.652Z" fill="black" fill-opacity="0.13" mask="url(#path-39-outside-1_7634_34075)"/>
<g filter="url(#filter1_d_7634_34075)">
<path fill-rule="evenodd" clip-rule="evenodd" d="M441.672 489.499C440.364 486.642 436.772 478.238 433.185 471.527C429.608 464.826 426.117 460.271 420.731 455.336C418.417 453.217 412.622 449.015 409.879 447.461C406.139 445.361 400.55 442.732 396.398 441.149C393.494 440.032 388.649 438.427 386.35 437.804C379.645 436.014 370.808 434.488 365.745 434.228C346.362 433.278 326.603 439.215 313.221 459.57C312.298 460.961 311.878 461.303 311.775 460.693C311.737 460.42 312.87 457.955 314.45 455.809C330.28 434.311 351.906 429.995 371.048 432.515C383.974 434.217 394.855 437.516 406.227 443.204C411.414 445.805 414.025 447.402 418.465 450.708C422.802 453.941 425.579 456.082 429.507 460.522C433.983 465.57 437.466 470.396 440.623 475.669C443.78 480.941 445.105 483.485 446.561 487.333C448.016 491.181 442.979 492.357 441.672 489.499Z" fill="url(#paint9_linear_7634_34075)" fill-opacity="0.8"/>
<path d="M371.055 432.262C384.023 433.97 394.947 437.281 406.359 442.99L406.36 442.99C411.566 445.601 414.196 447.209 418.655 450.529C422.998 453.767 425.798 455.925 429.748 460.39L430.578 461.337C434.673 466.061 437.929 470.625 440.897 475.582C444.058 480.861 445.392 483.42 446.855 487.288C447.624 489.321 446.684 490.704 445.302 491.169C444.618 491.4 443.824 491.403 443.1 491.139C442.369 490.872 441.741 490.343 441.383 489.56C440.071 486.693 436.486 478.304 432.904 471.603L432.904 471.602C429.341 464.926 425.871 460.399 420.515 455.492C418.22 453.391 412.449 449.206 409.73 447.666L409.73 447.666C406.006 445.576 400.435 442.955 396.301 441.379L396.3 441.379C393.407 440.266 388.574 438.664 386.291 438.045L386.291 438.047C379.606 436.262 370.798 434.741 365.769 434.482C346.492 433.538 326.83 439.435 313.498 459.715L313.497 459.715C313.04 460.404 312.686 460.869 312.42 461.078C312.351 461.132 312.271 461.184 312.18 461.213C312.085 461.244 311.942 461.26 311.791 461.19C311.653 461.125 311.582 461.019 311.545 460.946C311.506 460.868 311.483 460.781 311.469 460.694L311.467 460.688C311.46 460.634 311.468 460.58 311.475 460.543C311.483 460.5 311.497 460.451 311.513 460.398C311.546 460.293 311.596 460.16 311.66 460.005C311.788 459.696 311.978 459.29 312.218 458.827C312.698 457.901 313.381 456.739 314.179 455.656C330.065 434.08 351.799 429.727 371.055 432.262Z" stroke="black" stroke-opacity="0.13" stroke-width="0.572271"/>
<ellipse cx="1.91634" cy="2.08981" rx="1.91634" ry="2.08981" transform="matrix(0.178533 0.893612 -0.902506 0.387578 446.008 486.449)" fill="#616161"/>
<path d="M444.137 487.993C445.062 487.279 446.003 488.165 446.401 488.943C448.42 493.224 449.423 496.704 451.173 503.181C451.452 504.211 450.869 505.409 449.873 505.928C448.877 506.447 447.871 506.189 447.566 505.06C445.782 498.455 445.072 494.598 443.246 490.726C442.766 489.708 443.213 488.707 444.137 487.993Z" fill="#B4B4B4"/>
<ellipse cx="1.69028" cy="1.8433" rx="1.69028" ry="1.8433" transform="matrix(0.178533 0.893612 -0.902506 0.387578 450.711 501.961)" fill="url(#paint10_linear_7634_34075)"/>
<path d="M448.553 501.609C449.306 502.908 449.495 504.995 449.207 505.091C448.92 505.188 449.332 504.699 448.178 502.039L448.553 501.609Z" fill="url(#paint11_linear_7634_34075)"/>
<path d="M447.429 501.596C448.323 502.754 448.728 504.763 448.448 504.899C448.168 505.036 448.533 504.498 447.095 502.07L447.429 501.596Z" fill="url(#paint12_linear_7634_34075)"/>
<path d="M448.116 502.235C448.885 503.52 449.097 505.6 448.81 505.7C448.524 505.801 448.931 505.307 447.746 502.67L448.116 502.235Z" fill="url(#paint13_linear_7634_34075)"/>
<path d="M449.015 499.238C450.278 500.963 450.808 503.911 450.398 504.098C449.988 504.286 450.533 503.517 448.518 499.916L449.015 499.238Z" fill="url(#paint14_linear_7634_34075)"/>
<path d="M448.28 499.676C449.746 501.68 450.361 505.103 449.885 505.321C449.409 505.539 450.042 504.645 447.702 500.463L448.28 499.676Z" fill="url(#paint15_linear_7634_34075)"/>
<path d="M447.831 501.017C448.724 502.236 449.098 504.32 448.808 504.452C448.519 504.585 448.904 504.041 447.48 501.496L447.831 501.017Z" fill="url(#paint16_linear_7634_34075)"/>
<path opacity="0.5" d="M447.542 503.604C447.329 501.526 444.298 491.126 443.678 490.325C443.058 489.524 444.532 488.302 444.884 488.856C445.468 489.778 448.055 496.141 449.259 502.312C448.019 502.628 447.611 504.281 447.542 503.604Z" fill="black" fill-opacity="0.4"/>
<path d="M447.408 503.065C447.322 501.36 444.042 490.901 443.674 490.48C443.305 490.059 443.737 489.314 444.03 489.919C444.324 490.524 446.768 496.374 447.972 502.544C448.096 503.179 447.443 503.751 447.408 503.065Z" fill="black" fill-opacity="0.5"/>
<path opacity="0.5" d="M449.883 501.235C449.147 497.099 446.258 489.551 445.88 489.142C445.501 488.733 446.027 488.777 446.334 489.371C446.64 489.966 449.105 495.298 450.433 501.413C450.57 502.043 450 501.896 449.883 501.235Z" fill="black" fill-opacity="0.4"/>
<path d="M416.547 450.098C417.118 450.477 417.685 450.874 418.241 451.281C428.228 458.759 437.708 471.186 443.816 483.266C444.14 483.931 444.475 484.649 444.776 485.334C444.849 485.5 444.858 485.702 444.802 485.896C444.745 486.09 444.626 486.262 444.473 486.371C444.319 486.481 444.144 486.517 443.988 486.475C443.831 486.432 443.705 486.314 443.637 486.145C443.363 485.467 443.054 484.749 442.754 484.082C437.06 471.908 427.935 459.193 418.202 451.345C417.659 450.917 417.106 450.499 416.547 450.098Z" fill="white"/>
<path d="M425.812 459.836C426.138 460.203 426.461 460.577 426.777 460.953C432.435 467.791 438.551 478.273 442.193 486.904C442.356 487.337 441.957 488.046 442.105 488.482C442.14 488.588 442.136 488.691 442.092 488.771C442.048 488.85 441.968 488.9 441.87 488.907C441.772 488.913 441.664 488.878 441.571 488.808C441.479 488.738 441.409 488.64 441.376 488.534C441.245 488.11 441.094 487.655 440.946 487.228C438.114 479.374 432.236 467.917 426.75 460.973C426.444 460.591 426.13 460.21 425.812 459.836Z" fill="black" fill-opacity="0.4"/>
</g>
</g>
</g>
<mask id="mask3_7634_34075" style="mask-type:alpha" maskUnits="userSpaceOnUse" x="602" y="72" width="59" height="84">
<path d="M631.41 112.845C635.162 121.721 643.479 152.284 643.836 155.736C649.399 148.947 660.476 134.908 660.286 133.067C660.047 130.767 650.502 110.717 644.779 97.7337C640.201 87.3473 624.837 76.7485 617.727 72.7474L614.1 77.5112L614.718 78.4973L613.104 77.8394L614.03 79.3186L612.417 78.6607L602.267 82.6003C606.214 85.0666 615.592 91.4128 621.534 97.0675C628.962 104.136 627.657 103.97 631.41 112.845Z" fill="#D9D9D9"/>
</mask>
<g mask="url(#mask3_7634_34075)">
<g filter="url(#filter2_d_7634_34075)">
<mask id="path-58-outside-2_7634_34075" maskUnits="userSpaceOnUse" x="549.714" y="67.0714" width="98.1375" height="66.4818" fill="black">
<rect fill="white" x="549.714" y="67.0714" width="98.1375" height="66.4818"/>
<path fill-rule="evenodd" clip-rule="evenodd" d="M558.327 73.9767C558.023 72.1175 560.83 69.3359 564.058 71.2716C567.287 73.2077 572.767 79.3787 575.448 82.8395C579.924 88.6176 586.514 96.2114 591.646 101.256C599.738 109.217 606.12 114.062 614.369 118.448C617.913 120.331 626.468 122.336 629.413 124.236C632.357 126.137 645.631 131.642 635.699 128.554C625.767 125.466 626.005 126.548 619.786 124.054C613.71 121.615 610.565 119.919 603.908 115.48C596.33 110.438 593.077 107.811 578.201 94.8354C566.206 84.3654 563.993 82.3122 561.416 79.1951C559.402 76.7811 558.553 75.3339 558.327 73.9767Z"/>
</mask>
<path fill-rule="evenodd" clip-rule="evenodd" d="M558.327 73.9767C558.023 72.1175 560.83 69.3359 564.058 71.2716C567.287 73.2077 572.767 79.3787 575.448 82.8395C579.924 88.6176 586.514 96.2114 591.646 101.256C599.738 109.217 606.12 114.062 614.369 118.448C617.913 120.331 626.468 122.336 629.413 124.236C632.357 126.137 645.631 131.642 635.699 128.554C625.767 125.466 626.005 126.548 619.786 124.054C613.71 121.615 610.565 119.919 603.908 115.48C596.33 110.438 593.077 107.811 578.201 94.8354C566.206 84.3654 563.993 82.3122 561.416 79.1951C559.402 76.7811 558.553 75.3339 558.327 73.9767Z" fill="url(#paint17_linear_7634_34075)" fill-opacity="0.8"/>
<path d="M558.327 73.9767L557.004 73.8717L557.004 73.875L558.327 73.9767ZM564.058 71.2716L564.614 70.3361L564.614 70.3361L564.058 71.2716ZM575.448 82.8395L574.401 83.3427L574.401 83.3427L575.448 82.8395ZM591.646 101.256L592.542 100.583L592.542 100.583L591.646 101.256ZM614.369 118.448L613.895 119.43L613.896 119.43L614.369 118.448ZM629.413 124.236L628.805 125.14L628.805 125.14L629.413 124.236ZM635.699 128.554L635.862 127.442L635.862 127.442L635.699 128.554ZM619.786 124.054L619.489 125.119L619.49 125.119L619.786 124.054ZM603.908 115.48L604.539 114.592L604.537 114.591L603.908 115.48ZM578.201 94.8354L577.382 95.5801L577.383 95.5806L578.201 94.8354ZM561.416 79.1951L562.43 78.6511L562.426 78.6453L561.416 79.1951ZM558.327 73.9767L559.65 74.0816C559.621 73.9047 559.659 73.5868 559.87 73.2028C560.074 72.8328 560.399 72.4776 560.805 72.2165C561.619 71.6937 562.551 71.6369 563.502 72.2071L564.058 71.2716L564.614 70.3361C562.337 68.9706 560.252 69.3367 558.931 70.1856C558.27 70.6103 557.748 71.1781 557.41 71.7921C557.08 72.392 556.881 73.119 557.004 73.8717L558.327 73.9767ZM564.058 71.2716L563.502 72.2071C564.881 73.0336 566.91 74.8948 569.022 77.1155C571.091 79.2909 573.094 81.6559 574.401 83.3427L575.448 82.8395L576.495 82.3363C575.121 80.5623 573.044 78.1114 570.895 75.852C568.789 73.638 566.465 71.4457 564.614 70.3361L564.058 71.2716ZM575.448 82.8395L574.401 83.3427C578.911 89.1655 585.552 96.8191 590.751 101.93L591.646 101.256L592.542 100.583C587.477 95.6038 580.936 88.0697 576.495 82.3363L575.448 82.8395ZM591.646 101.256L590.75 101.929C598.935 109.982 605.457 114.943 613.895 119.43L614.369 118.448L614.842 117.466C606.783 113.18 600.54 108.452 592.542 100.583L591.646 101.256ZM614.369 118.448L613.896 119.43C615.842 120.465 619.063 121.494 621.924 122.438C623.402 122.926 624.822 123.403 626.051 123.871C627.307 124.35 628.241 124.776 628.805 125.14L629.413 124.236L630.02 123.333C629.112 122.747 627.873 122.21 626.586 121.719C625.272 121.218 623.78 120.719 622.307 120.233C619.269 119.229 616.439 118.314 614.841 117.465L614.369 118.448ZM629.413 124.236L628.805 125.14C629.651 125.686 631.141 126.436 632.616 127.158C634.155 127.91 635.734 128.658 636.949 129.268C637.558 129.573 638.017 129.816 638.3 129.984C638.457 130.078 638.48 130.102 638.442 130.07C638.437 130.066 638.291 129.948 638.167 129.743C638.098 129.627 638.006 129.434 637.994 129.199C637.982 128.946 638.069 128.727 638.219 128.569C638.471 128.305 638.813 128.293 638.84 128.291C638.921 128.286 638.964 128.294 638.932 128.29C638.874 128.283 638.73 128.258 638.46 128.192C637.932 128.064 637.095 127.825 635.862 127.442L635.699 128.554L635.537 129.666C636.787 130.054 637.708 130.319 638.343 130.474C638.655 130.549 638.944 130.61 639.187 130.64C639.305 130.654 639.466 130.668 639.634 130.658C639.747 130.651 640.145 130.621 640.423 130.329C640.587 130.157 640.68 129.922 640.666 129.649C640.654 129.396 640.554 129.181 640.47 129.04C640.317 128.786 640.115 128.61 640.029 128.538C639.828 128.369 639.59 128.219 639.402 128.108C638.996 127.866 638.434 127.572 637.82 127.264C636.59 126.646 634.919 125.854 633.451 125.137C631.92 124.388 630.646 123.737 630.02 123.333L629.413 124.236ZM635.699 128.554L635.862 127.442C630.828 125.876 628.35 125.363 626.37 124.931C624.475 124.518 623.076 124.19 620.082 122.99L619.786 124.054L619.49 125.119C622.714 126.412 624.307 126.79 626.33 127.231C628.269 127.653 630.639 128.143 635.537 129.666L635.699 128.554ZM619.786 124.054L620.082 122.99C614.144 120.606 611.112 118.975 604.539 114.592L603.908 115.48L603.277 116.368C610.019 120.863 613.276 122.624 619.489 125.119L619.786 124.054ZM603.908 115.48L604.537 114.591C597.066 109.621 593.89 107.062 579.019 94.0902L578.201 94.8354L577.383 95.5806C592.264 108.56 595.593 111.256 603.279 116.369L603.908 115.48ZM578.201 94.8354L579.019 94.0906C566.986 83.5864 564.899 81.6373 562.43 78.6511L561.416 79.1951L560.402 79.739C563.087 82.9871 565.427 85.1444 577.382 95.5801L578.201 94.8354ZM561.416 79.1951L562.426 78.6453C560.445 76.2721 559.817 75.081 559.65 74.0783L558.327 73.9767L557.004 73.875C557.289 75.5869 558.358 77.2901 560.407 79.7448L561.416 79.1951Z" fill="black" fill-opacity="0.13" mask="url(#path-58-outside-2_7634_34075)"/>
<g filter="url(#filter3_d_7634_34075)">
<path fill-rule="evenodd" clip-rule="evenodd" d="M642.898 120.042C641.591 117.185 637.999 108.781 634.412 102.07C630.835 95.3689 627.344 90.8136 621.958 85.8789C619.643 83.7596 613.849 79.5576 611.105 78.0036C607.365 75.9039 601.777 73.2754 597.624 71.6917C594.721 70.575 589.875 68.9695 587.576 68.3471C580.871 66.5571 572.035 65.0309 566.972 64.7705C547.589 63.8206 527.829 69.758 514.447 90.1132C513.524 91.5038 513.104 91.846 513.002 91.2362C512.963 90.9629 514.096 88.498 515.676 86.3523C531.506 64.8537 553.132 60.5376 572.274 63.0577C585.201 64.7596 596.082 68.0585 607.454 73.7466C612.64 76.3479 615.252 77.9449 619.692 81.2515C624.029 84.4839 626.806 86.6248 630.733 91.065C635.209 96.1132 638.693 100.939 641.85 106.212C645.007 111.484 646.332 114.028 647.787 117.876C649.243 121.724 644.206 122.9 642.898 120.042Z" fill="url(#paint18_linear_7634_34075)" fill-opacity="0.8"/>
<path d="M572.282 62.8053C585.25 64.5127 596.174 67.8242 607.586 73.5325L607.587 73.5329C612.793 76.1437 615.423 77.7522 619.881 81.0721C624.225 84.3098 627.025 86.4675 630.975 90.933L631.805 91.8803C635.9 96.6036 639.156 101.168 642.124 106.125C645.285 111.404 646.618 113.963 648.082 117.831C648.851 119.864 647.911 121.247 646.528 121.712C645.844 121.943 645.051 121.946 644.327 121.682C643.596 121.415 642.968 120.886 642.61 120.103C641.298 117.236 637.713 108.847 634.131 102.146L634.131 102.145C630.567 95.4693 627.097 90.9422 621.741 86.0351C619.446 83.9339 613.676 79.7491 610.957 78.2086L610.956 78.2095C607.233 76.119 601.662 73.4984 597.528 71.9218L597.527 71.9215C594.634 70.8087 589.801 69.2066 587.517 68.5885L587.518 68.5896C580.832 66.8047 572.024 65.2839 566.995 65.0252C547.719 64.0806 528.057 69.978 514.724 90.2576L514.724 90.2584C514.267 90.9471 513.913 91.4116 513.646 91.6213C513.578 91.675 513.498 91.7269 513.406 91.7563C513.311 91.7868 513.168 91.8028 513.018 91.7325C512.88 91.6677 512.808 91.5623 512.772 91.4885C512.733 91.4108 512.71 91.3238 512.695 91.237L512.694 91.2312C512.686 91.1772 512.694 91.1234 512.702 91.0863C512.71 91.0431 512.724 90.9941 512.74 90.9414C512.773 90.8358 512.822 90.7028 512.886 90.5485C513.015 90.2389 513.205 89.8325 513.445 89.3696C513.924 88.4439 514.608 87.2817 515.405 86.1985C531.292 64.6231 553.026 60.2702 572.282 62.8053Z" stroke="black" stroke-opacity="0.13" stroke-width="0.572271"/>
<ellipse cx="1.91634" cy="2.08981" rx="1.91634" ry="2.08981" transform="matrix(0.178533 0.893612 -0.902506 0.387578 647.234 116.992)" fill="#616161"/>
<path d="M645.364 118.536C646.288 117.822 647.229 118.708 647.628 119.486C649.647 123.767 650.65 127.247 652.4 133.724C652.678 134.754 652.095 135.952 651.1 136.471C650.104 136.99 649.098 136.732 648.793 135.603C647.008 128.998 646.299 125.141 644.472 121.269C643.992 120.251 644.439 119.25 645.364 118.536Z" fill="#B4B4B4"/>
<ellipse cx="1.69028" cy="1.8433" rx="1.69028" ry="1.8433" transform="matrix(0.178533 0.893612 -0.902506 0.387578 651.938 132.504)" fill="url(#paint19_linear_7634_34075)"/>
<path d="M649.779 132.152C650.533 133.451 650.721 135.538 650.434 135.634C650.147 135.731 650.558 135.242 649.404 132.582L649.779 132.152Z" fill="url(#paint20_linear_7634_34075)"/>
<path d="M648.656 132.139C649.549 133.297 649.954 135.306 649.674 135.442C649.394 135.579 649.759 135.041 648.322 132.613L648.656 132.139Z" fill="url(#paint21_linear_7634_34075)"/>
<path d="M649.343 132.778C650.112 134.063 650.324 136.143 650.037 136.243C649.75 136.344 650.157 135.85 648.972 133.213L649.343 132.778Z" fill="url(#paint22_linear_7634_34075)"/>
<path d="M650.242 129.781C651.505 131.506 652.034 134.454 651.624 134.641C651.215 134.829 651.759 134.06 649.744 130.459L650.242 129.781Z" fill="url(#paint23_linear_7634_34075)"/>
<path d="M649.506 130.219C650.973 132.223 651.588 135.646 651.112 135.864C650.636 136.082 651.269 135.188 648.928 131.006L649.506 130.219Z" fill="url(#paint24_linear_7634_34075)"/>
<path d="M649.058 131.56C649.95 132.779 650.325 134.863 650.035 134.995C649.745 135.128 650.13 134.584 648.706 132.039L649.058 131.56Z" fill="url(#paint25_linear_7634_34075)"/>
<path opacity="0.5" d="M648.769 134.147C648.556 132.069 645.525 121.669 644.905 120.868C644.285 120.067 645.759 118.845 646.11 119.399C646.695 120.321 649.281 126.684 650.485 132.855C649.246 133.171 648.838 134.824 648.769 134.147Z" fill="black" fill-opacity="0.4"/>
<path d="M648.635 133.608C648.549 131.903 645.269 121.444 644.9 121.023C644.531 120.602 644.963 119.857 645.257 120.462C645.55 121.067 647.995 126.917 649.199 133.087C649.323 133.722 648.67 134.294 648.635 133.608Z" fill="black" fill-opacity="0.5"/>
<path opacity="0.5" d="M651.109 131.778C650.373 127.642 647.484 120.094 647.106 119.685C646.728 119.276 647.254 119.32 647.56 119.914C647.867 120.509 650.331 125.84 651.66 131.956C651.796 132.586 651.227 132.439 651.109 131.778Z" fill="black" fill-opacity="0.4"/>
<path d="M617.773 80.6406C618.344 81.0201 618.911 81.4166 619.468 81.8235C629.454 89.3021 638.935 101.729 645.043 113.809C645.367 114.474 645.702 115.192 646.003 115.877C646.076 116.043 646.085 116.245 646.028 116.439C645.971 116.633 645.853 116.805 645.699 116.914C645.546 117.024 645.371 117.06 645.214 117.018C645.058 116.975 644.931 116.857 644.863 116.688C644.59 116.01 644.281 115.292 643.981 114.624C638.286 102.451 629.162 89.7359 619.429 81.8879C618.886 81.4597 618.332 81.0421 617.773 80.6406Z" fill="white"/>
<path d="M627.039 90.3789C627.365 90.7458 627.687 91.1199 628.003 91.496C633.661 98.3341 639.778 108.816 643.42 117.447C643.583 117.88 643.184 118.589 643.331 119.025C643.367 119.131 643.362 119.234 643.318 119.314C643.274 119.393 643.194 119.443 643.096 119.449C642.998 119.456 642.891 119.421 642.798 119.351C642.706 119.281 642.635 119.183 642.602 119.077C642.471 118.653 642.32 118.198 642.173 117.771C639.341 109.917 633.463 98.4602 627.977 91.5162C627.67 91.1337 627.357 90.753 627.039 90.3789Z" fill="black" fill-opacity="0.4"/>
</g>
</g>
</g>
<mask id="mask4_7634_34075" style="mask-type:alpha" maskUnits="userSpaceOnUse" x="267" y="170" width="328" height="389">
<path d="M346.099 201.646C343.646 198.843 320.253 165.262 314.266 170.665L280.385 326.723L267.242 351.256L307.547 548.399C394.29 552.196 570.054 559.439 579.166 558.037C588.278 556.635 592.893 535.256 594.061 524.742L475.776 238.447L446.861 216.98H413.566C400.861 216.98 377.204 217.418 365.814 214.351C354.423 211.284 349.166 205.151 346.099 201.646Z" fill="#D9D9D9"/>
</mask>
<g mask="url(#mask4_7634_34075)">
<path d="M369.771 93.6641L293.579 337.785C292.981 339.7 293.04 341.76 293.747 343.638L357.536 513.064C359.883 519.298 365.848 523.426 372.51 523.426H571.285L475.78 340.74L369.771 93.6641Z" fill="url(#paint26_linear_7634_34075)" stroke="url(#paint27_linear_7634_34075)" stroke-width="2"/>
</g>
<defs>
<filter id="filter0_d_7634_34075" x="281.452" y="412.856" width="193.692" height="130.415" filterUnits="userSpaceOnUse" color-interpolation-filters="sRGB">
<feFlood flood-opacity="0" result="BackgroundImageFix"/>
<feColorMatrix in="SourceAlpha" type="matrix" values="0 0 0 0 0 0 0 0 0 0 0 0 0 0 0 0 0 0 127 0" result="hardAlpha"/>
<feOffset dx="-10.1121" dy="16.4322"/>
<feGaussianBlur stdDeviation="9.7961"/>
<feComposite in2="hardAlpha" operator="out"/>
<feColorMatrix type="matrix" values="0 0 0 0 0 0 0 0 0 0 0 0 0 0 0 0 0 0 0.25 0"/>
<feBlend mode="normal" in2="BackgroundImageFix" result="effect1_dropShadow_7634_34075"/>
<feBlend mode="normal" in="SourceGraphic" in2="effect1_dropShadow_7634_34075" result="shape"/>
</filter>
<filter id="filter1_d_7634_34075" x="301.044" y="416.016" width="164.62" height="101.343" filterUnits="userSpaceOnUse" color-interpolation-filters="sRGB">
<feFlood flood-opacity="0" result="BackgroundImageFix"/>
<feColorMatrix in="SourceAlpha" type="matrix" values="0 0 0 0 0 0 0 0 0 0 0 0 0 0 0 0 0 0 127 0" result="hardAlpha"/>
<feOffset dx="-5.05605" dy="5.05605"/>
<feGaussianBlur stdDeviation="2.52803"/>
<feComposite in2="hardAlpha" operator="out"/>
<feColorMatrix type="matrix" values="0 0 0 0 0 0 0 0 0 0 0 0 0 0 0 0 0 0 0.25 0"/>
<feBlend mode="normal" in2="BackgroundImageFix" result="effect1_dropShadow_7634_34075"/>
<feBlend mode="normal" in="SourceGraphic" in2="effect1_dropShadow_7634_34075" result="shape"/>
</filter>
<filter id="filter2_d_7634_34075" x="482.679" y="43.3986" width="193.692" height="130.415" filterUnits="userSpaceOnUse" color-interpolation-filters="sRGB">
<feFlood flood-opacity="0" result="BackgroundImageFix"/>
<feColorMatrix in="SourceAlpha" type="matrix" values="0 0 0 0 0 0 0 0 0 0 0 0 0 0 0 0 0 0 127 0" result="hardAlpha"/>
<feOffset dx="-10.1121" dy="16.4322"/>
<feGaussianBlur stdDeviation="9.7961"/>
<feComposite in2="hardAlpha" operator="out"/>
<feColorMatrix type="matrix" values="0 0 0 0 0 0 0 0 0 0 0 0 0 0 0 0 0 0 0.25 0"/>
<feBlend mode="normal" in2="BackgroundImageFix" result="effect1_dropShadow_7634_34075"/>
<feBlend mode="normal" in="SourceGraphic" in2="effect1_dropShadow_7634_34075" result="shape"/>
</filter>
<filter id="filter3_d_7634_34075" x="502.271" y="46.5586" width="164.62" height="101.343" filterUnits="userSpaceOnUse" color-interpolation-filters="sRGB">
<feFlood flood-opacity="0" result="BackgroundImageFix"/>
<feColorMatrix in="SourceAlpha" type="matrix" values="0 0 0 0 0 0 0 0 0 0 0 0 0 0 0 0 0 0 127 0" result="hardAlpha"/>
<feOffset dx="-5.05605" dy="5.05605"/>
<feGaussianBlur stdDeviation="2.52803"/>
<feComposite in2="hardAlpha" operator="out"/>
<feColorMatrix type="matrix" values="0 0 0 0 0 0 0 0 0 0 0 0 0 0 0 0 0 0 0.25 0"/>
<feBlend mode="normal" in2="BackgroundImageFix" result="effect1_dropShadow_7634_34075"/>
<feBlend mode="normal" in="SourceGraphic" in2="effect1_dropShadow_7634_34075" result="shape"/>
</filter>
<radialGradient id="paint0_radial_7634_34075" cx="0" cy="0" r="1" gradientUnits="userSpaceOnUse" gradientTransform="translate(414 422.668) rotate(90) scale(325.943 456.174)">
<stop offset="0.44145" stop-color="#D9D9D9"/>
<stop offset="1" stop-color="#D9D9D9" stop-opacity="0"/>
</radialGradient>
<linearGradient id="paint1_linear_7634_34075" x1="372.99" y1="221.249" x2="348.884" y2="347.016" gradientUnits="userSpaceOnUse">
<stop stop-color="white" stop-opacity="0"/>
<stop offset="1" stop-color="white"/>
</linearGradient>
<linearGradient id="paint2_linear_7634_34075" x1="503.106" y1="270.753" x2="500.916" y2="342.162" gradientUnits="userSpaceOnUse">
<stop stop-color="white" stop-opacity="0"/>
<stop offset="1" stop-color="white"/>
</linearGradient>
<linearGradient id="paint3_linear_7634_34075" x1="662.943" y1="-35.4857" x2="635.781" y2="111.714" gradientUnits="userSpaceOnUse">
<stop stop-color="#D9D9D9" stop-opacity="0"/>
<stop offset="1" stop-color="#D9D9D9"/>
</linearGradient>
<linearGradient id="paint4_linear_7634_34075" x1="559.78" y1="124.379" x2="654.873" y2="124.379" gradientUnits="userSpaceOnUse">
<stop stop-color="white"/>
<stop offset="1" stop-color="#999999" stop-opacity="0"/>
</linearGradient>
<linearGradient id="paint5_linear_7634_34075" x1="395.013" y1="187.865" x2="358.469" y2="185.797" gradientUnits="userSpaceOnUse">
<stop stop-color="white"/>
<stop offset="1" stop-color="#999999" stop-opacity="0"/>
</linearGradient>
<linearGradient id="paint6_linear_7634_34075" x1="499.298" y1="93.874" x2="601.377" y2="92.3535" gradientUnits="userSpaceOnUse">
<stop stop-color="#BBA1FF"/>
<stop offset="1" stop-color="#C891FF" stop-opacity="0"/>
</linearGradient>
<linearGradient id="paint7_linear_7634_34075" x1="449.916" y1="100.093" x2="547.271" y2="97.6234" gradientUnits="userSpaceOnUse">
<stop stop-color="#A041FF"/>
<stop offset="1" stop-color="#4FE2CE" stop-opacity="0"/>
</linearGradient>
<linearGradient id="paint8_linear_7634_34075" x1="362.066" y1="454.391" x2="415.158" y2="519.992" gradientUnits="userSpaceOnUse">
<stop stop-color="white"/>
<stop offset="1" stop-color="white" stop-opacity="0"/>
</linearGradient>
<linearGradient id="paint9_linear_7634_34075" x1="423.36" y1="502.67" x2="396.502" y2="406.449" gradientUnits="userSpaceOnUse">
<stop stop-color="white"/>
<stop offset="1" stop-color="white" stop-opacity="0.5"/>
</linearGradient>
<linearGradient id="paint10_linear_7634_34075" x1="0.538131" y1="1.75028" x2="4.15103" y2="1.78731" gradientUnits="userSpaceOnUse">
<stop stop-color="#353736"/>
<stop offset="1" stop-color="#A6A6A6"/>
</linearGradient>
<linearGradient id="paint11_linear_7634_34075" x1="449.208" y1="504.842" x2="448.904" y2="503.841" gradientUnits="userSpaceOnUse">
<stop stop-color="#DCDCDC"/>
<stop offset="1" stop-color="#DCDCDC" stop-opacity="0"/>
</linearGradient>
<linearGradient id="paint12_linear_7634_34075" x1="448.423" y1="504.656" x2="448.002" y2="503.729" gradientUnits="userSpaceOnUse">
<stop stop-color="#DCDCDC"/>
<stop offset="1" stop-color="#DCDCDC" stop-opacity="0"/>
</linearGradient>
<linearGradient id="paint13_linear_7634_34075" x1="448.808" y1="505.452" x2="448.491" y2="504.458" gradientUnits="userSpaceOnUse">
<stop stop-color="#DCDCDC"/>
<stop offset="1" stop-color="#DCDCDC" stop-opacity="0"/>
</linearGradient>
<linearGradient id="paint14_linear_7634_34075" x1="450.337" y1="503.554" x2="450.017" y2="502.533" gradientUnits="userSpaceOnUse">
<stop stop-color="#DCDCDC"/>
<stop offset="1" stop-color="#DCDCDC" stop-opacity="0"/>
</linearGradient>
<linearGradient id="paint15_linear_7634_34075" x1="449.706" y1="504.231" x2="449.003" y2="502.72" gradientUnits="userSpaceOnUse">
<stop stop-color="#DCDCDC"/>
<stop offset="1" stop-color="#DCDCDC" stop-opacity="0"/>
</linearGradient>
<linearGradient id="paint16_linear_7634_34075" x1="448.706" y1="503.848" x2="448.296" y2="503.204" gradientUnits="userSpaceOnUse">
<stop stop-color="#DCDCDC"/>
<stop offset="1" stop-color="#DCDCDC" stop-opacity="0"/>
</linearGradient>
<linearGradient id="paint17_linear_7634_34075" x1="563.293" y1="84.9344" x2="616.384" y2="150.535" gradientUnits="userSpaceOnUse">
<stop stop-color="white"/>
<stop offset="1" stop-color="white" stop-opacity="0"/>
</linearGradient>
<linearGradient id="paint18_linear_7634_34075" x1="624.587" y1="133.213" x2="597.729" y2="36.9918" gradientUnits="userSpaceOnUse">
<stop stop-color="white"/>
<stop offset="1" stop-color="white" stop-opacity="0.5"/>
</linearGradient>
<linearGradient id="paint19_linear_7634_34075" x1="0.538131" y1="1.75028" x2="4.15103" y2="1.78731" gradientUnits="userSpaceOnUse">
<stop stop-color="#353736"/>
<stop offset="1" stop-color="#A6A6A6"/>
</linearGradient>
<linearGradient id="paint20_linear_7634_34075" x1="650.434" y1="135.385" x2="650.13" y2="134.384" gradientUnits="userSpaceOnUse">
<stop stop-color="#DCDCDC"/>
<stop offset="1" stop-color="#DCDCDC" stop-opacity="0"/>
</linearGradient>
<linearGradient id="paint21_linear_7634_34075" x1="649.649" y1="135.199" x2="649.229" y2="134.272" gradientUnits="userSpaceOnUse">
<stop stop-color="#DCDCDC"/>
<stop offset="1" stop-color="#DCDCDC" stop-opacity="0"/>
</linearGradient>
<linearGradient id="paint22_linear_7634_34075" x1="650.035" y1="135.995" x2="649.717" y2="135.001" gradientUnits="userSpaceOnUse">
<stop stop-color="#DCDCDC"/>
<stop offset="1" stop-color="#DCDCDC" stop-opacity="0"/>
</linearGradient>
<linearGradient id="paint23_linear_7634_34075" x1="651.564" y1="134.097" x2="651.244" y2="133.076" gradientUnits="userSpaceOnUse">
<stop stop-color="#DCDCDC"/>
<stop offset="1" stop-color="#DCDCDC" stop-opacity="0"/>
</linearGradient>
<linearGradient id="paint24_linear_7634_34075" x1="650.932" y1="134.774" x2="650.229" y2="133.263" gradientUnits="userSpaceOnUse">
<stop stop-color="#DCDCDC"/>
<stop offset="1" stop-color="#DCDCDC" stop-opacity="0"/>
</linearGradient>
<linearGradient id="paint25_linear_7634_34075" x1="649.933" y1="134.391" x2="649.522" y2="133.747" gradientUnits="userSpaceOnUse">
<stop stop-color="#DCDCDC"/>
<stop offset="1" stop-color="#DCDCDC" stop-opacity="0"/>
</linearGradient>
<linearGradient id="paint26_linear_7634_34075" x1="269.697" y1="321.464" x2="465.948" y2="372.664" gradientUnits="userSpaceOnUse">
<stop stop-color="#1DA593"/>
<stop offset="1" stop-color="#1DA593" stop-opacity="0"/>
</linearGradient>
<linearGradient id="paint27_linear_7634_34075" x1="352.497" y1="385.426" x2="564.759" y2="454.106" gradientUnits="userSpaceOnUse">
<stop stop-color="#4FE2CE"/>
<stop offset="1" stop-color="#4FE2CE" stop-opacity="0"/>
</linearGradient>
</defs>
</svg>
