<svg width="996" height="700" viewBox="0 0 996 700" fill="none" xmlns="http://www.w3.org/2000/svg">
<mask id="mask0_7634_26036" style="mask-type:alpha" maskUnits="userSpaceOnUse" x="0" y="8" width="828" height="829">
<circle cx="414" cy="422.668" r="414" fill="url(#paint0_radial_7634_26036)"/>
</mask>
<g mask="url(#mask0_7634_26036)">
<path d="M466.626 399.922C470.574 399.922 474.19 402.134 475.987 405.649L532.495 521.256H367.758C363.398 521.256 359.491 518.565 357.936 514.492L314.195 399.922H466.626Z" fill="#D9D9D9" fill-opacity="0.1"/>
<path fill-rule="evenodd" clip-rule="evenodd" d="M466.913 336.465C470.861 336.465 474.477 338.677 476.275 342.192L565.233 516.156C566.425 518.488 564.731 521.256 562.112 521.256H532.494L475.986 405.649C474.189 402.134 470.573 399.922 466.625 399.922H314.195L292.237 342.408C291.143 339.54 293.261 336.465 296.33 336.465H466.913Z" fill="#D9D9D9" fill-opacity="0.1"/>
<path fill-rule="evenodd" clip-rule="evenodd" d="M275.173 399.922C279.121 399.922 282.736 402.134 284.534 405.649L327.79 522.133H173.87C161.716 522.133 154.359 514.376 151.863 504.621L123.012 409.676C121.435 402.779 124.62 399.922 127.58 399.922H275.173Z" fill="#D2B2FF"/>
<path fill-rule="evenodd" clip-rule="evenodd" d="M277.057 337.344C281.417 337.344 285.324 340.035 286.879 344.108L352.123 515.003C353.437 518.444 350.895 522.135 347.212 522.135H327.796L284.54 405.652C282.742 402.137 279.127 399.925 275.179 399.925H127.586C124.626 399.925 121.441 402.781 123.017 409.676L107.809 359.629C103.898 347.515 116.209 337.344 128.362 337.344H277.057Z" fill="#D2B2FF" fill-opacity="0.4"/>
<path d="M636.69 399.711C652.367 399.711 656.649 399.711 667.998 416.555L728.971 521.924L728.901 522.136H582.535C578.587 522.136 574.971 519.923 573.174 516.408L513.5 399.711H636.69Z" fill="#D9D9D9" fill-opacity="0.1"/>
<path d="M642.258 337.344C654.412 337.344 662.602 345.562 668.977 354.855L756.887 501.874C761.88 510.066 749.084 522.135 736.93 522.135H728.904L728.972 521.924L667.998 416.554C656.65 399.711 652.367 399.711 636.691 399.711H513.501L484.217 342.444C483.025 340.112 484.718 337.344 487.337 337.344H642.258Z" fill="#D9D9D9" fill-opacity="0.1"/>
<path d="M162.218 331.902H127.999C112.327 331.902 97.6656 343.235 101.578 360.039L145.136 504.712C148.525 517.133 157.84 527.293 173.512 527.293H737.11C752.782 527.293 770.572 512.443 761.965 499.547L675.527 354.483C666.898 342.063 657.531 331.902 641.859 331.902H601.954M668.578 354.483L756.488 501.501C761.482 509.693 748.684 521.763 736.531 521.763H582.137C578.189 521.763 574.573 519.551 572.775 516.036L483.818 342.072C482.625 339.74 484.319 336.971 486.938 336.971H641.859C654.013 336.971 662.203 345.189 668.578 354.483ZM151.506 504.251L107.446 359.257C103.534 347.143 115.845 336.971 127.999 336.971H276.693C281.053 336.971 284.961 339.662 286.516 343.736L351.759 514.631C353.073 518.072 350.532 521.763 346.848 521.763H173.512C161.358 521.763 154.002 514.006 151.506 504.251ZM477.189 342.699L566.147 516.662C567.339 518.995 565.645 521.763 563.026 521.763H368.672C364.312 521.763 360.404 519.072 358.849 514.999L293.152 342.915C292.057 340.047 294.175 336.971 297.245 336.971H467.828C471.776 336.971 475.392 339.183 477.189 342.699Z" stroke="white" stroke-width="2"/>
<path d="M314.289 399.551H466.263C470.211 399.551 473.826 401.763 475.624 405.278L532.569 521.779" stroke="white" stroke-width="2"/>
<path d="M327.102 520.903L284.176 405.278C282.378 401.763 278.763 399.551 274.815 399.551H127.222C124.155 399.551 120.846 402.617 122.841 410.065" stroke="white" stroke-width="2"/>
<path d="M641.855 337.344V399.553M668.574 354.868V419.268M472.751 338.22V400.429M281.741 338.22V402.62M126.781 337.782V399.553" stroke="white"/>
<path d="M71.1734 111.123C59.0241 111.123 55.5852 119.64 58.0135 130.351L94.9725 289.559C97.1759 302.861 114.616 314.03 126.765 314.03H275.79H630.269C642.418 314.03 649.721 305.284 648.139 294.802L614.885 133.371C615.742 124.376 596.858 111.123 594.876 111.123M160.088 319.596H129.324C113.657 319.596 93.282 307.152 88.7118 288.701L51.413 129.845C48.5322 116.207 52.7162 105.051 68.3824 105.051L592.664 105.051C608.33 105.051 623.441 121.356 621.346 135.516L655.086 294.802C656.761 308.794 648.493 319.596 632.827 319.596H598.881" stroke="url(#paint1_linear_7634_26036)" stroke-width="2"/>
<path d="M160.516 317.008H598.119L601.239 333.655H163.636L160.516 317.008Z" stroke="url(#paint2_linear_7634_26036)" stroke-width="2"/>
<path d="M176.325 611.407H729.477C743.114 611.407 758.164 600.737 756.387 587.905L764.214 508.233M176.325 611.407C157.931 611.407 148.148 599.656 145.149 585.786M176.325 611.407V527.035M145.149 585.786L101.409 428.717C101.104 427.255 100.951 425.816 100.938 424.408V354.684M145.149 585.786V505.1M728.612 521.551L667.639 416.182C656.29 399.338 652.008 399.338 636.331 399.338H513.664" stroke="white" stroke-width="2"/>
<path d="M531.141 416.645H533.56L540.304 427.867H537.884L531.141 416.645Z" fill="white"/>
<path d="M538.11 419.49H540.283L541.195 420.897C541.126 419.774 542.23 419.3 543.843 419.3C546.509 419.3 548.683 420.644 549.785 422.477L553.023 427.867H550.649L547.723 422.999C546.831 421.513 545.697 420.707 544.039 420.707C542.314 420.707 541.7 421.513 542.593 422.999L545.518 427.867H543.144L538.11 419.49Z" fill="white"/>
<path d="M560.069 422.43C559.186 421.371 557.651 420.754 556.307 420.754C554.29 420.754 553.758 421.845 554.86 423.679C555.962 425.512 557.804 426.603 559.821 426.603C561.232 426.603 562.008 425.955 561.551 424.785L564.095 424.88C564.914 426.84 563.428 428.057 560.694 428.057C557.244 428.057 553.991 426.334 552.396 423.679C550.8 421.023 551.983 419.3 555.433 419.3C558.076 419.3 561.032 420.454 562.476 422.335L560.069 422.43Z" fill="white"/>
<path d="M572.983 428.057C569.555 428.057 566.289 426.35 564.684 423.679C563.079 421.007 564.293 419.3 567.721 419.3C571.126 419.3 574.392 421.007 575.998 423.679C577.603 426.35 576.388 428.057 572.983 428.057ZM567.148 423.679C568.25 425.512 570.093 426.603 572.109 426.603C574.125 426.603 574.635 425.512 573.533 423.679C572.431 421.845 570.611 420.754 568.595 420.754C566.579 420.754 566.046 421.845 567.148 423.679Z" fill="white"/>
<path d="M575.544 419.49H577.717L578.588 420.865C578.572 419.869 579.44 419.3 581.03 419.3C582.733 419.3 584.345 419.932 585.525 421.039C585.389 419.917 586.25 419.3 588.043 419.3C590.44 419.3 592.558 420.438 593.783 422.477L597.021 427.867H594.647L591.721 422.999C590.829 421.513 589.605 420.707 588.261 420.707C586.558 420.707 586.121 421.545 586.994 422.999L589.92 427.867H587.679L584.754 422.999C583.88 421.545 582.615 420.707 581.293 420.707C579.613 420.707 579.153 421.545 580.027 422.999L582.952 427.867H580.577L575.544 419.49Z" fill="white"/>
<path d="M600.941 430.238L594.483 419.49H596.701L597.518 420.738C597.608 419.806 598.558 419.3 600.261 419.3C603.734 419.3 606.585 421.323 608 423.679C609.415 426.034 608.995 428.057 605.523 428.057C603.91 428.057 602.393 427.583 601.189 426.698L603.316 430.238H600.941ZM599.173 423.679C600.075 425.18 601.903 426.619 604.098 426.619C606.339 426.619 606.434 425.212 605.513 423.679C604.601 422.161 602.783 420.738 600.565 420.738C598.37 420.738 598.271 422.177 599.173 423.679Z" fill="white"/>
<path d="M608.861 422.003C608.315 420.312 609.589 419.3 612.322 419.3C615.548 419.3 618.078 420.565 619.455 422.857L621.326 425.971C621.582 426.397 621.946 426.555 622.417 426.555H622.887L623.675 427.867H622.936C621.87 427.883 620.338 427.757 619.514 426.571C619.46 427.377 618.547 428.057 616.576 428.057C614.178 428.057 611.755 427.156 610.862 425.67C609.856 423.995 611.331 423.505 613.846 423.141L616.966 422.667C616.136 421.323 614.864 420.659 613.139 420.659C611.75 420.659 611.135 421.165 611.391 422.114L608.861 422.003ZM613.308 425.639C613.678 426.255 614.744 426.761 616.312 426.761C618.072 426.745 618.93 425.86 617.847 424.058L617.78 423.947L615.439 424.263C613.927 424.469 612.671 424.58 613.308 425.639Z" fill="white"/>
<path d="M619.656 417.593H622.031L623.17 419.49H626.307L627.124 420.849H623.987L626.76 425.465C627.169 426.144 627.848 426.492 628.767 426.492H630.492L631.318 427.867H629.347C627.061 427.867 625.326 427.03 624.386 425.465L621.612 420.849H619.798L618.981 419.49H620.795L619.656 417.593Z" fill="white"/>
<path d="M628.307 419.49H630.682L635.715 427.867H633.341L628.307 419.49ZM627.521 418.257L626.562 416.66H629.049L630.008 418.257H627.521Z" fill="white"/>
<path d="M631.228 416.645H633.603L635.987 420.612C636.175 419.806 637.26 419.3 638.805 419.3C641.897 419.3 644.84 420.991 646.455 423.679C648.069 426.366 647.159 428.057 644.067 428.057C642.432 428.057 640.72 427.52 639.535 426.666L640.189 427.867H637.971L631.228 416.645ZM637.65 423.679C638.733 425.481 640.649 426.619 642.598 426.619C644.502 426.619 645.073 425.481 643.99 423.679C642.889 421.845 640.963 420.691 639.036 420.691C637.087 420.691 636.548 421.845 637.65 423.679Z" fill="white"/>
<path d="M644.457 416.645H646.832L652.407 425.923C652.635 426.302 653.04 426.492 653.556 426.492H654.519L655.345 427.867H653.867C652.276 427.867 650.764 427.14 650.08 426.002L644.457 416.645Z" fill="white"/>
<path d="M653.998 423.679C652.403 421.023 653.585 419.3 657.036 419.3C659.881 419.3 663.085 420.644 664.983 423.615L665.328 424.153H656.793C657.89 425.718 659.583 426.634 661.443 426.634C662.607 426.634 663.388 426.144 663.375 425.338L665.937 425.465C666.202 427.061 664.717 428.057 662.297 428.057C658.847 428.057 655.594 426.334 653.998 423.679ZM656.087 422.904H662.069C660.841 421.308 659.235 420.723 657.89 420.723C656.165 420.723 655.53 421.529 656.087 422.904Z" fill="white"/>
<path d="M153.201 423.266C153.626 425.82 152.001 427.474 148.268 427.474C143.636 427.474 139.821 424.821 138.445 421.415C137.069 418.01 138.728 415.324 143.36 415.324C146.845 415.324 149.812 416.88 151.488 419.303L148.964 419.401C147.857 417.829 146.061 416.945 143.992 416.945C140.642 416.945 139.978 418.976 140.964 421.415C141.943 423.839 144.263 425.853 147.591 425.853C149.772 425.853 150.843 424.887 150.576 423.167L153.201 423.266Z" fill="#0E0C14"/>
<path d="M162.006 427.408C158.565 427.408 155.602 425.64 154.484 422.873C153.366 420.105 154.9 418.337 158.341 418.337C161.758 418.337 164.722 420.105 165.84 422.873C166.958 425.64 165.424 427.408 162.006 427.408ZM156.958 422.873C157.725 424.772 159.373 425.902 161.397 425.902C163.421 425.902 164.134 424.772 163.366 422.873C162.599 420.973 160.973 419.843 158.949 419.843C156.926 419.843 156.19 420.973 156.958 422.873Z" fill="#0E0C14"/>
<path d="M166.157 418.534H168.338L168.994 419.991C169.132 418.828 170.327 418.337 171.946 418.337C174.622 418.337 176.556 419.729 177.323 421.628L179.579 427.212H177.196L175.158 422.169C174.536 420.629 173.547 419.794 171.883 419.794C170.152 419.794 169.387 420.629 170.009 422.169L172.047 427.212H169.663L166.157 418.534Z" fill="#0E0C14"/>
<path d="M178.933 416.569H181.317L182.111 418.534H185.259L185.828 419.942H182.68L184.611 424.723C184.896 425.427 185.514 425.787 186.436 425.787H188.167L188.743 427.212H186.764C184.47 427.212 182.883 426.344 182.228 424.723L180.296 419.942H178.475L177.906 418.534H179.727L178.933 416.569Z" fill="#0E0C14"/>
<path d="M187.823 421.137C187.588 419.385 189.053 418.337 191.796 418.337C195.034 418.337 197.34 419.647 198.299 422.021L199.602 425.247C199.781 425.689 200.117 425.853 200.589 425.853H201.061L201.61 427.212H200.868C199.796 427.228 198.281 427.097 197.673 425.869C197.47 426.704 196.428 427.408 194.449 427.408C192.044 427.408 189.778 426.475 189.156 424.936C188.455 423.2 190.026 422.693 192.617 422.316L195.836 421.825C195.251 420.433 194.097 419.745 192.365 419.745C190.971 419.745 190.261 420.269 190.343 421.252L187.823 421.137ZM191.616 424.903C191.874 425.542 192.85 426.066 194.424 426.066C196.194 426.049 197.217 425.132 196.463 423.266L196.417 423.151L194.008 423.479C192.453 423.691 191.173 423.806 191.616 424.903Z" fill="#0E0C14"/>
<path d="M199.907 418.534H202.088L202.708 419.958C202.876 418.927 203.852 418.337 205.449 418.337C207.158 418.337 208.659 418.992 209.639 420.138C209.709 418.976 210.688 418.337 212.487 418.337C214.893 418.337 216.808 419.516 217.661 421.628L219.917 427.212H217.534L215.496 422.169C214.874 420.629 213.795 419.794 212.446 419.794C210.737 419.794 210.143 420.662 210.752 422.169L212.789 427.212H210.541L208.503 422.169C207.895 420.662 206.78 419.794 205.453 419.794C203.767 419.794 203.15 420.662 203.759 422.169L205.797 427.212H203.413L199.907 418.534Z" fill="#0E0C14"/>
<path d="M219.333 418.534H221.716L225.222 427.212H222.839L219.333 418.534ZM218.772 417.256L218.103 415.603H220.599L221.268 417.256H218.772Z" fill="#0E0C14"/>
<path d="M224.332 418.534H226.513L227.169 419.991C227.307 418.828 228.502 418.337 230.121 418.337C232.797 418.337 234.731 419.729 235.498 421.628L237.754 427.212H235.371L233.333 422.169C232.711 420.629 231.722 419.794 230.058 419.794C228.326 419.794 227.562 420.629 228.184 422.169L230.222 427.212H227.838L224.332 418.534Z" fill="#0E0C14"/>
<path d="M237.464 421.137C237.228 419.385 238.694 418.337 241.437 418.337C244.675 418.337 246.98 419.647 247.939 422.021L249.243 425.247C249.421 425.689 249.757 425.853 250.23 425.853H250.702L251.251 427.212H250.509C249.436 427.228 247.922 427.097 247.313 425.869C247.111 426.704 246.069 427.408 244.09 427.408C241.684 427.408 239.418 426.475 238.796 424.936C238.095 423.2 239.666 422.693 242.257 422.316L245.477 421.825C244.892 420.433 243.737 419.745 242.006 419.745C240.612 419.745 239.901 420.269 239.984 421.252L237.464 421.137ZM241.256 424.903C241.514 425.542 242.491 426.066 244.065 426.066C245.834 426.049 246.858 425.132 246.104 423.266L246.057 423.151L243.649 423.479C242.094 423.691 240.813 423.806 241.256 424.903Z" fill="#0E0C14"/>
<path d="M249.112 416.569H251.496L252.29 418.534H255.438L256.007 419.942H252.859L254.79 424.723C255.075 425.427 255.693 425.787 256.614 425.787H258.346L258.921 427.212H256.943C254.649 427.212 253.062 426.344 252.407 424.723L250.475 419.942H248.654L248.085 418.534H249.906L249.112 416.569Z" fill="#0E0C14"/>
<path d="M258.194 422.873C257.082 420.122 258.587 418.337 262.05 418.337C264.906 418.337 267.874 419.729 269.23 422.807L269.477 423.364H260.91C261.723 424.985 263.253 425.935 265.12 425.935C266.289 425.935 267.163 425.427 267.298 424.592L269.847 424.723C269.818 426.377 268.143 427.408 265.715 427.408C262.252 427.408 259.305 425.624 258.194 422.873ZM260.433 422.07H266.436C265.498 420.417 263.994 419.811 262.645 419.811C260.914 419.811 260.127 420.646 260.433 422.07Z" fill="#0E0C14"/>
<path d="M278.909 415.586L283.606 427.212H281.38L280.81 425.967C280.493 426.852 279.324 427.408 277.682 427.408C274.579 427.408 271.938 425.656 270.813 422.873C269.688 420.089 270.914 418.337 274.017 418.337C275.569 418.337 277.174 418.861 278.186 419.696L276.526 415.586H278.909ZM273.286 422.873C274.04 424.739 275.776 425.918 277.687 425.918C279.643 425.918 280.404 424.739 279.65 422.873C278.882 420.973 277.163 419.778 275.206 419.778C273.273 419.778 272.519 420.973 273.286 422.873Z" fill="#0E0C14"/>
<path d="M367.385 428.345L361.164 416.645H366.738C370.677 416.645 373.207 417.699 374.373 419.891C375.083 421.226 374.459 422.116 372.698 422.297C375.099 422.478 376.955 423.483 377.778 425.032C378.917 427.175 377.525 428.345 373.854 428.345H367.385ZM368.953 426.746H373.026C375.019 426.746 375.872 426.12 375.259 424.967C374.636 423.797 373.108 423.154 371.116 423.154H367.043L368.953 426.746ZM366.236 421.638H369.482C371.608 421.638 372.502 421.044 371.923 419.957C371.319 418.82 369.871 418.243 367.677 418.243H364.431L366.236 421.638Z" fill="white"/>
<path d="M377.395 419.611H379.567L380.51 421.259C380.339 420.138 380.954 419.611 382.476 419.611H383.618L384.38 421.044H383.216C381.359 421.044 380.933 421.803 381.704 423.253L384.412 428.345H382.039L377.395 419.611Z" fill="white"/>
<path d="M394.822 428.543C391.398 428.543 388.213 426.763 386.732 423.978C385.252 421.193 386.544 419.413 389.968 419.413C393.37 419.413 396.555 421.193 398.036 423.978C399.517 426.763 398.225 428.543 394.822 428.543ZM389.195 423.978C390.211 425.889 392.002 427.026 394.016 427.026C396.031 427.026 396.59 425.889 395.574 423.978C394.557 422.066 392.789 420.929 390.774 420.929C388.76 420.929 388.178 422.066 389.195 423.978Z" fill="white"/>
<path d="M396.198 416.645H398.57L402.443 423.928L405.408 419.611H408.474L405.764 423.269L413.32 428.345H410.567L404.762 424.373L403.565 426.038L404.792 428.345H402.419L396.198 416.645Z" fill="white"/>
<path d="M411.309 423.978C409.837 421.209 411.098 419.413 414.545 419.413C417.387 419.413 420.527 420.814 422.286 423.912L422.607 424.472H414.079C415.103 426.104 416.753 427.059 418.61 427.059C419.774 427.059 420.577 426.549 420.6 425.708L423.155 425.84C423.346 427.504 421.816 428.543 419.399 428.543C415.952 428.543 412.781 426.746 411.309 423.978ZM413.431 423.17H419.408C418.254 421.506 416.676 420.896 415.333 420.896C413.61 420.896 412.937 421.737 413.431 423.17Z" fill="white"/>
<path d="M422.089 419.611H424.26L425.107 421.077C425.09 419.907 426.215 419.413 427.826 419.413C430.49 419.413 432.6 420.814 433.616 422.725L436.604 428.345H434.232L431.533 423.269C430.709 421.72 429.613 420.88 427.957 420.88C426.233 420.88 425.583 421.72 426.407 423.269L429.106 428.345H426.733L422.089 419.611Z" fill="white"/>
</g>
<mask id="mask1_7634_26036" style="mask-type:alpha" maskUnits="userSpaceOnUse" x="239" y="0" width="782" height="269">
<rect x="239.203" width="781.562" height="268.99" fill="url(#paint3_linear_7634_26036)"/>
</mask>
<g mask="url(#mask1_7634_26036)">
<path d="M320.246 38.9844C289.096 53.5117 326.691 117.001 347.637 143.366C366.415 167.001 388.703 169.42 402.406 169.42C412.367 169.42 483.149 169.29 520.736 169.407C523.187 169.415 525.579 168.691 527.616 167.328C529.64 165.973 532.02 165.249 534.455 165.249H654.881" stroke="url(#paint4_linear_7634_26036)"/>
<path d="M332.043 96.5935C369.098 165.216 397.33 160.882 408.126 160.882H937.16C945.881 160.882 948.159 156.909 941.502 148.241C934.846 139.573 904.488 108.512 888.894 93.7041C873.301 78.8961 867.063 72.3951 847.939 57.2259C828.816 42.0567 813.241 40.2505 797.876 40.2505C782.512 40.2505 343.38 39.8891 334.868 40.2503C326.355 40.6115 299.746 36.7844 332.043 96.5935Z" stroke="white"/>
<path d="M490.407 216.001C502.864 216.001 522.796 205.158 537.746 205.158C665.503 205.158 793.263 203.49 921.025 203.49C931.822 203.49 936.856 199.674 941.653 194.479C945.96 189.815 953.83 170.543 952.169 156.364C950.508 142.184 874.12 74.6741 855.183 56.2006C832.625 34.1958 794.198 34.1958 789.63 34.1958C785.062 34.1958 754.423 34.6128 714.559 34.1958C674.694 33.7787 357.442 35.8642 340.001 35.8642C322.955 35.8642 311.348 40.8686 305.949 51.2946C302.597 57.7668 290.508 82.565 308.97 132.604C318.369 158.078 326.157 178.876 346.029 200.936C359.6 216.001 376.212 216.001 393.238 216.001H490.407Z" stroke="white" stroke-width="2"/>
<path d="M347.687 51.2682C345.823 47.9493 347.405 45.2812 351.236 45.2812H790.087C792.974 45.2812 796.45 46.8169 798.839 49.1483L902.387 150.162C905.88 153.57 905.096 157.244 900.876 157.244H413.267C409.923 157.244 405.86 154.876 404.233 151.979L347.687 51.2682Z" fill="#1C192D"/>
<path d="M347.687 51.2682C345.823 47.9493 347.405 45.2812 351.236 45.2812H790.087C792.974 45.2812 796.45 46.8169 798.839 49.1483L902.387 150.162C905.88 153.57 905.096 157.244 900.876 157.244H413.267C409.923 157.244 405.86 154.876 404.233 151.979L347.687 51.2682Z" stroke="white" stroke-width="2"/>
<path d="M389.207 185.362H407.97C409.074 185.362 409.97 186.258 409.97 187.362V195.04C409.97 196.144 409.074 197.04 407.97 197.04H389.207M389.207 185.362V197.04M389.207 185.362C380.902 185.362 362.631 186.614 355.156 176.188M389.207 197.04C382.148 197.318 361.8 197.874 357.648 188.699" stroke="url(#paint5_linear_7634_26036)"/>
<rect x="431.844" y="187.297" width="56.4745" height="10.8432" rx="5.42158" stroke="white" stroke-width="2"/>
<rect x="551.07" y="181.918" width="56.4745" height="10.8432" rx="5.42158" stroke="white" stroke-width="2"/>
<path d="M488.727 192.721V190.218C488.727 187.224 486.31 184.797 483.329 184.797H436.82C433.839 184.797 431.422 187.224 431.422 190.218V192.304" stroke="white"/>
<path d="M607.961 187.338V184.836C607.961 181.841 605.544 179.414 602.563 179.414H556.055C553.073 179.414 550.656 181.841 550.656 184.836V186.921" stroke="white"/>
<ellipse cx="6.64406" cy="3.75171" rx="6.64406" ry="3.75171" transform="matrix(1 0 0.499325 0.866414 372.344 133.145)" stroke="white" stroke-width="2"/>
<ellipse cx="2.90678" cy="1.66743" rx="2.90678" ry="1.66743" transform="matrix(1 0 0.499325 0.866414 342.266 70.9453)" stroke="white" stroke-width="2"/>
<ellipse cx="2.90678" cy="1.66743" rx="2.90678" ry="1.66743" transform="matrix(1 0 0.499325 0.866414 336.898 63.1953)" stroke="white" stroke-width="2"/>
<path d="M336.153 84.2177C335.834 83.626 336.123 83.1562 336.806 83.1562C337.505 83.1562 338.355 83.6473 338.704 84.2529L350.161 104.133C350.612 104.915 350.245 105.549 349.343 105.549C348.42 105.549 347.298 104.887 346.867 104.087L336.153 84.2177Z" fill="white"/>
<rect width="6.64406" height="27.5126" rx="3.32203" transform="matrix(1 0 0.499325 0.866414 348.039 81.4883)" stroke="white" stroke-width="2"/>
<path d="M307.855 92.3261C308.073 91.1479 308.216 89.7739 308.518 88.8159C309.15 86.8098 310.379 86.9126 311.477 89.3831C318.202 104.827 321.741 112.12 331.805 130.557C333.158 133.602 333.691 138.845 332.934 141.685L328.535 163.862C327.834 166.496 326.375 166.354 325.119 163.528C318.355 147.773 313.462 134.693 307.736 118.656C307.218 117.205 306.642 115.912 306.191 114.274C305.669 112.375 305.35 110.147 305.304 108.081C305.266 106.317 305.519 104.94 305.765 103.615L307.855 92.3261Z" stroke="white" stroke-width="2" stroke-linecap="round"/>
<path d="M310.719 98.9954C310.938 97.7491 311.532 97.676 312.046 98.8321L327.913 134.268C328.426 135.424 328.665 137.372 328.446 138.618L325.981 151.897C325.762 153.143 325.168 153.216 324.654 152.06L309.862 113.396C309.348 112.24 309.109 110.292 309.329 109.046L310.719 98.9954Z" stroke="white" stroke-width="2" stroke-linecap="round"/>
<path d="M329.657 133.622L311.615 93.0279C310.99 91.6207 310.292 91.5303 309.916 92.6164C309.714 93.2008 309.621 94.0833 309.477 94.8257L307.331 105.872C307.156 106.774 306.975 107.719 307.014 108.946C307.073 110.756 307.458 112.735 308.051 114.071L324.082 157.676C324.873 159.456 325.792 159.545 326.234 157.884L330.316 140.112M329.657 133.622C330.446 135.398 330.757 138.455 330.316 140.112M329.657 133.622L328.322 135.534M330.316 140.112L328.861 139.11M325.616 152.51L326.042 158.234M324.542 152.51L324.096 157.479M308.966 109.466L307.09 108.215M309.503 112.695L308.029 113.95M320.135 130.392C319.773 132.449 318.792 132.569 317.945 130.662C317.097 128.754 316.703 125.541 317.065 123.485C317.427 121.428 318.407 121.307 319.255 123.215C320.103 125.123 320.497 128.336 320.135 130.392ZM325.092 142.753C324.664 145.183 323.505 145.326 322.503 143.071C321.501 140.817 321.036 137.019 321.464 134.589C321.891 132.159 323.05 132.016 324.052 134.271C325.054 136.525 325.52 140.323 325.092 142.753ZM315.853 116.949C315.381 119.629 314.103 119.786 312.999 117.301C311.894 114.815 311.381 110.628 311.852 107.948C312.324 105.269 313.602 105.111 314.707 107.597C315.811 110.083 316.325 114.27 315.853 116.949Z" stroke="white"/>
<path d="M310.579 99.4189L309.506 94.402M312.363 99.4189L312.363 94.402" stroke="white"/>
</g>
<path d="M367.496 57.8729L610.104 58.3124L631.522 57.6565C635.459 57.5359 638.524 61.0453 637.874 64.9302L624.447 145.174C623.953 148.123 621.438 150.309 618.449 150.387L606.442 150.698L421.846 149.023C418.269 148.991 414.968 147.095 413.136 144.023L364.699 62.7873C363.406 60.6187 364.971 57.8683 367.496 57.8729Z" fill="url(#paint6_linear_7634_26036)" fill-opacity="0.1" stroke="url(#paint7_linear_7634_26036)" stroke-opacity="0.2" stroke-width="1.53713"/>
<g filter="url(#filter0_d_7634_26036)">
<path fill-rule="evenodd" clip-rule="evenodd" d="M650.874 121.577C650.506 119.157 649.621 112.046 648.361 106.353C647.106 100.668 645.44 96.7815 642.402 92.5384C641.096 90.7161 637.581 87.078 635.82 85.7202C633.414 83.885 629.707 81.5688 626.869 80.1571C624.888 79.1622 621.522 77.7179 619.895 77.1494C615.142 75.5123 608.693 74.0523 604.861 73.7299C590.181 72.5351 573.675 77.0996 558.854 93.8686C557.835 95.0141 557.436 95.292 557.493 94.7793C557.525 94.5495 558.945 92.5089 560.637 90.7447C577.593 73.0687 595.172 69.9002 609.317 72.4049C618.869 74.0964 626.494 77.083 633.963 82.0803C637.368 84.3654 639.019 85.7565 641.693 88.6168C644.304 91.4129 645.961 93.2628 647.988 97.0618C650.302 101.381 651.902 105.494 653.152 109.974C654.402 114.454 654.853 116.612 655.113 119.864C655.374 123.116 651.241 123.997 650.874 121.577Z" fill="url(#paint8_linear_7634_26036)" fill-opacity="0.8"/>
<path d="M609.379 72.194C618.962 73.891 626.617 76.889 634.112 81.9041C637.53 84.1976 639.193 85.5984 641.878 88.4702C644.494 91.2709 646.164 93.1356 648.204 96.9563L648.203 96.956C650.523 101.288 652.128 105.415 653.382 109.907C654.633 114.393 655.088 116.563 655.35 119.832C655.487 121.551 654.456 122.689 653.29 123.05C652.713 123.229 652.103 123.216 651.606 122.98C651.104 122.741 650.74 122.284 650.639 121.622C650.27 119.193 649.386 112.094 648.128 106.41C646.879 100.747 645.222 96.8845 642.201 92.6653C640.906 90.8586 637.406 87.2348 635.66 85.8888L635.659 85.8897C633.265 84.0624 629.568 81.7533 626.743 80.3479L626.742 80.3475C624.768 79.3561 621.413 77.9149 619.796 77.3501L619.797 77.3513C615.354 75.8208 609.425 74.4468 605.565 74.0172L604.823 73.9439C590.222 72.7557 573.8 77.2885 559.035 93.9953L559.034 93.9962C558.529 94.5635 558.154 94.9454 557.902 95.1154C557.838 95.1589 557.765 95.1996 557.688 95.2224C557.609 95.246 557.495 95.2572 557.395 95.1951C557.303 95.1381 557.272 95.0487 557.26 94.9862C557.247 94.9203 557.249 94.8468 557.257 94.7738L557.258 94.7688C557.264 94.7235 557.283 94.6785 557.297 94.6476C557.313 94.6116 557.333 94.5707 557.358 94.527C557.406 94.4393 557.475 94.329 557.558 94.2011C557.726 93.9445 557.962 93.6082 558.25 93.2255C558.825 92.4603 559.609 91.5012 560.463 90.6106C577.48 72.8716 595.149 69.6745 609.379 72.194Z" stroke="black" stroke-opacity="0.13" stroke-width="0.452742"/>
<ellipse cx="1.51608" cy="1.65332" rx="1.51608" ry="1.65332" transform="matrix(-0.0784618 0.950484 -0.985729 0.386721 654.875 119.113)" fill="#616161"/>
<path d="M653.097 120.365C653.966 119.786 654.492 120.547 654.624 121.208C655.221 124.834 655.216 127.769 655.116 133.228C655.101 134.096 654.385 135.088 653.505 135.502C652.624 135.916 651.909 135.679 651.926 134.727C652.027 129.16 652.342 125.916 651.802 122.635C651.661 121.773 652.227 120.944 653.097 120.365Z" fill="#B4B4B4"/>
<ellipse cx="1.33724" cy="1.45829" rx="1.33724" ry="1.45829" transform="matrix(-0.0784618 0.950484 -0.985729 0.386721 655.031 132.195)" fill="url(#paint9_linear_7634_26036)"/>
<path d="M653.454 131.859C653.743 132.962 653.423 134.713 653.181 134.788C652.938 134.863 653.364 134.462 653.07 132.211L653.454 131.859Z" fill="url(#paint10_linear_7634_26036)"/>
<path d="M652.593 131.823C653.021 132.811 652.884 134.502 652.639 134.61C652.393 134.719 652.794 134.276 652.23 132.213L652.593 131.823Z" fill="url(#paint11_linear_7634_26036)"/>
<path d="M652.979 132.376C653.284 133.467 652.983 135.213 652.74 135.292C652.497 135.37 652.92 134.965 652.597 132.732L652.979 132.376Z" fill="url(#paint12_linear_7634_26036)"/>
<path d="M654.34 129.88C654.926 131.351 654.675 133.83 654.319 133.979C653.962 134.127 654.552 133.494 653.807 130.438L654.34 129.88Z" fill="url(#paint13_linear_7634_26036)"/>
<path d="M653.677 130.235C654.357 131.943 654.066 134.823 653.652 134.995C653.238 135.168 653.923 134.433 653.057 130.883L653.677 130.235Z" fill="url(#paint14_linear_7634_26036)"/>
<path d="M653.032 131.349C653.445 132.388 653.268 134.14 653.016 134.245C652.764 134.35 653.181 133.903 652.655 131.743L653.032 131.349Z" fill="url(#paint15_linear_7634_26036)"/>
<path opacity="0.5" d="M652.235 133.512C652.535 131.767 652.525 122.996 652.227 122.312C651.929 121.629 653.335 120.636 653.481 121.107C653.724 121.891 654.293 127.273 653.842 132.465C652.819 132.704 652.137 134.08 652.235 133.512Z" fill="black" fill-opacity="0.4"/>
<path d="M652.247 133.053C652.561 131.624 652.373 122.798 652.184 122.438C651.994 122.078 652.492 121.463 652.583 121.976C652.673 122.488 653.247 127.437 652.797 132.629C652.75 133.163 652.121 133.628 652.247 133.053Z" fill="black" fill-opacity="0.5"/>
<path opacity="0.5" d="M654.559 131.573C654.916 128.094 654.379 121.713 654.18 121.363C653.981 121.013 654.375 121.061 654.478 121.565C654.58 122.069 655.285 126.584 654.942 131.733C654.907 132.263 654.502 132.128 654.559 131.573Z" fill="black" fill-opacity="0.4"/>
<path d="M640.352 88.0664C640.706 88.3959 641.053 88.7396 641.39 89.0918C647.395 95.5599 651.909 106.161 653.908 116.402C654.009 116.966 654.106 117.574 654.185 118.154C654.204 118.294 654.166 118.463 654.079 118.625C653.992 118.787 653.862 118.928 653.72 119.016C653.578 119.104 653.435 119.132 653.324 119.093C653.213 119.054 653.143 118.952 653.128 118.809C653.069 118.236 652.992 117.628 652.91 117.063C651.249 106.752 647.074 95.9171 641.345 89.1449C641.024 88.7752 640.691 88.4141 640.352 88.0664Z" fill="white"/>
<path d="M645.297 96.4141C645.465 96.728 645.63 97.0479 645.789 97.3694C648.611 103.212 650.974 112.115 651.848 119.417C651.876 119.783 651.411 120.369 651.427 120.737C651.431 120.826 651.405 120.913 651.353 120.979C651.302 121.044 651.229 121.084 651.152 121.088C651.075 121.091 651.001 121.059 650.945 120.999C650.89 120.938 650.858 120.855 650.856 120.765C650.85 120.408 650.835 120.024 650.817 119.663C650.392 113.028 648.431 103.313 645.764 97.3857C645.613 97.0591 645.457 96.7339 645.297 96.4141Z" fill="black" fill-opacity="0.4"/>
<path d="M590.097 73.2704C585.878 74.2555 581.421 76.4814 577.102 78.6027C576.877 78.714 576.653 78.8273 576.432 78.9423C571.621 81.8177 566.301 85.6916 562.207 89.4475C561.768 89.9261 561.328 90.4284 560.922 90.9428C561.306 90.409 561.73 89.8831 562.155 89.3805C566.595 85.2256 571.161 81.5832 576.418 78.3805C576.644 78.2633 576.872 78.1471 577.101 78.0344C581.456 75.9085 585.958 73.8241 590.124 73.1535C591.258 72.9881 591.315 73.0036 590.097 73.2704Z" fill="white"/>
</g>
<g filter="url(#filter1_d_7634_26036)">
<path fill-rule="evenodd" clip-rule="evenodd" d="M282.686 495.776C282.319 493.357 281.433 486.245 280.173 480.552C278.919 474.867 277.253 470.981 274.215 466.738C272.909 464.915 269.394 461.277 267.632 459.919C265.227 458.084 261.519 455.768 258.682 454.356C256.7 453.361 253.335 451.917 251.707 451.349C246.955 449.712 240.506 448.252 236.674 447.929C221.993 446.734 205.487 451.299 190.667 468.068C189.647 469.213 189.249 469.491 189.306 468.978C189.337 468.749 190.757 466.708 192.45 464.944C209.406 447.268 226.984 444.099 241.13 446.604C250.682 448.296 258.307 451.282 265.776 456.28C269.181 458.565 270.831 459.956 273.505 462.816C276.117 465.612 277.773 467.462 279.801 471.261C282.114 475.58 283.715 479.693 284.965 484.173C286.215 488.653 286.665 490.811 286.926 494.063C287.186 497.315 283.054 498.196 282.686 495.776Z" fill="url(#paint16_linear_7634_26036)" fill-opacity="0.8"/>
<path d="M241.191 446.393C250.775 448.09 258.43 451.088 265.925 456.103C269.343 458.397 271.006 459.798 273.691 462.669C276.306 465.47 277.977 467.335 280.016 471.156L280.015 471.155C282.336 475.488 283.941 479.614 285.194 484.106C286.446 488.592 286.9 490.762 287.162 494.031C287.3 495.75 286.269 496.888 285.103 497.25C284.526 497.428 283.916 497.416 283.419 497.179C282.916 496.941 282.552 496.484 282.452 495.821C282.083 493.393 281.199 486.294 279.941 480.609C278.691 474.946 277.034 471.084 274.013 466.864C272.719 465.058 269.218 461.434 267.472 460.088L267.472 460.089C265.077 458.262 261.38 455.952 258.556 454.547L258.555 454.547C256.58 453.555 253.225 452.114 251.609 451.549L251.609 451.551C247.166 450.02 241.238 448.646 237.378 448.216L236.635 448.143C222.035 446.955 205.613 451.488 190.847 468.195L190.847 468.195C190.342 468.763 189.967 469.145 189.715 469.315C189.65 469.358 189.578 469.399 189.501 469.422C189.421 469.445 189.307 469.456 189.207 469.394C189.116 469.337 189.084 469.248 189.072 469.185C189.06 469.12 189.061 469.046 189.069 468.973L189.07 468.968C189.076 468.923 189.095 468.878 189.109 468.847C189.125 468.811 189.146 468.77 189.17 468.726C189.219 468.638 189.287 468.528 189.371 468.4C189.538 468.144 189.775 467.807 190.062 467.425C190.637 466.66 191.421 465.7 192.275 464.81C209.292 447.071 226.962 443.874 241.191 446.393Z" stroke="black" stroke-opacity="0.13" stroke-width="0.452742"/>
<ellipse cx="1.51608" cy="1.65332" rx="1.51608" ry="1.65332" transform="matrix(-0.0784618 0.950484 -0.985729 0.386721 286.688 493.312)" fill="#616161"/>
<path d="M284.909 494.564C285.779 493.986 286.304 494.747 286.437 495.407C287.034 499.033 287.028 501.968 286.929 507.427C286.913 508.296 286.198 509.287 285.317 509.701C284.436 510.115 283.721 509.878 283.739 508.926C283.84 503.359 284.155 500.115 283.615 496.834C283.473 495.973 284.04 495.143 284.909 494.564Z" fill="#B4B4B4"/>
<ellipse cx="1.33724" cy="1.45829" rx="1.33724" ry="1.45829" transform="matrix(-0.0784618 0.950484 -0.985729 0.386721 286.844 506.395)" fill="url(#paint17_linear_7634_26036)"/>
<path d="M285.267 506.058C285.556 507.161 285.236 508.912 284.993 508.987C284.751 509.062 285.176 508.661 284.883 506.41L285.267 506.058Z" fill="url(#paint18_linear_7634_26036)"/>
<path d="M284.405 506.022C284.834 507.01 284.697 508.701 284.451 508.809C284.206 508.918 284.606 508.475 284.043 506.413L284.405 506.022Z" fill="url(#paint19_linear_7634_26036)"/>
<path d="M284.792 506.575C285.096 507.667 284.795 509.413 284.552 509.491C284.31 509.57 284.732 509.164 284.41 506.931L284.792 506.575Z" fill="url(#paint20_linear_7634_26036)"/>
<path d="M286.153 504.08C286.738 505.55 286.488 508.029 286.131 508.178C285.774 508.326 286.364 507.693 285.619 504.637L286.153 504.08Z" fill="url(#paint21_linear_7634_26036)"/>
<path d="M285.489 504.434C286.17 506.142 285.879 509.022 285.465 509.194C285.05 509.367 285.736 508.632 284.87 505.082L285.489 504.434Z" fill="url(#paint22_linear_7634_26036)"/>
<path d="M284.844 505.548C285.258 506.587 285.081 508.339 284.829 508.444C284.577 508.549 284.994 508.102 284.467 505.942L284.844 505.548Z" fill="url(#paint23_linear_7634_26036)"/>
<path opacity="0.5" d="M284.048 507.711C284.347 505.966 284.338 497.195 284.04 496.512C283.742 495.828 285.147 494.835 285.294 495.307C285.537 496.09 286.106 501.472 285.655 506.664C284.632 506.904 283.95 508.279 284.048 507.711Z" fill="black" fill-opacity="0.4"/>
<path d="M284.06 507.252C284.373 505.823 284.186 496.997 283.996 496.637C283.807 496.277 284.304 495.662 284.395 496.175C284.486 496.688 285.06 501.636 284.609 506.828C284.563 507.362 283.934 507.827 284.06 507.252Z" fill="black" fill-opacity="0.5"/>
<path opacity="0.5" d="M286.372 505.772C286.729 502.293 286.192 495.913 285.993 495.562C285.793 495.212 286.187 495.26 286.29 495.764C286.393 496.268 287.098 500.783 286.755 505.932C286.72 506.462 286.315 506.327 286.372 505.772Z" fill="black" fill-opacity="0.4"/>
<path d="M272.164 462.266C272.518 462.595 272.865 462.939 273.202 463.291C279.208 469.759 283.721 480.36 285.721 490.602C285.821 491.165 285.919 491.773 285.997 492.353C286.016 492.494 285.978 492.663 285.891 492.824C285.804 492.986 285.675 493.127 285.533 493.216C285.39 493.304 285.248 493.331 285.137 493.292C285.026 493.253 284.955 493.152 284.941 493.009C284.882 492.435 284.804 491.827 284.723 491.263C283.062 480.951 278.886 470.116 273.158 463.344C272.836 462.974 272.504 462.613 272.164 462.266Z" fill="white"/>
<path d="M277.109 470.613C277.278 470.927 277.442 471.247 277.601 471.569C280.424 477.411 282.786 486.314 283.66 493.617C283.688 493.983 283.224 494.568 283.24 494.936C283.244 495.025 283.217 495.112 283.166 495.178C283.114 495.243 283.042 495.283 282.965 495.287C282.888 495.291 282.813 495.258 282.758 495.198C282.702 495.138 282.67 495.054 282.669 494.965C282.662 494.607 282.648 494.223 282.629 493.863C282.205 487.227 280.243 477.513 277.576 471.585C277.426 471.258 277.27 470.933 277.109 470.613Z" fill="black" fill-opacity="0.4"/>
<path d="M221.909 447.47C217.69 448.455 213.233 450.681 208.915 452.802C208.69 452.913 208.466 453.027 208.244 453.142C203.434 456.017 198.113 459.891 194.019 463.647C193.58 464.125 193.14 464.628 192.735 465.142C193.119 464.608 193.542 464.082 193.967 463.58C198.407 459.425 202.974 455.782 208.23 452.58C208.456 452.463 208.684 452.346 208.913 452.234C213.269 450.108 217.77 448.023 221.937 447.353C223.07 447.187 223.127 447.203 221.909 447.47Z" fill="white"/>
</g>
<mask id="mask2_7634_26036" style="mask-type:alpha" maskUnits="userSpaceOnUse" x="64" y="57" width="362" height="518">
<path d="M350.444 206.782C344.748 202.84 335.548 191.011 326.786 177.868L273.258 57.168L64.7578 275.125C76.4343 335.217 99.6634 521.795 101.462 536.246L101.558 537.011C102.259 542.619 206.409 564.465 258.396 574.687L391.577 548.401L425.358 216.421C421.999 216.275 410.112 216.07 389.434 216.421C363.586 216.859 356.139 210.725 350.444 206.782Z" fill="#D9D9D9"/>
</mask>
<g mask="url(#mask2_7634_26036)">
<path d="M376.258 99.668L110.647 339.681C106.627 343.313 105.064 348.938 106.633 354.124L153.28 508.234C155.716 516.283 163.152 521.773 171.561 521.73L354.777 520.802L376.258 99.668Z" fill="url(#paint24_linear_7634_26036)" stroke="url(#paint25_linear_7634_26036)" stroke-width="2"/>
</g>
<defs>
<filter id="filter0_d_7634_26036" x="548.758" y="57.668" width="126.883" height="86.9531" filterUnits="userSpaceOnUse" color-interpolation-filters="sRGB">
<feFlood flood-opacity="0" result="BackgroundImageFix"/>
<feColorMatrix in="SourceAlpha" type="matrix" values="0 0 0 0 0 0 0 0 0 0 0 0 0 0 0 0 0 0 127 0" result="hardAlpha"/>
<feOffset dx="-4" dy="4"/>
<feGaussianBlur stdDeviation="2"/>
<feComposite in2="hardAlpha" operator="out"/>
<feColorMatrix type="matrix" values="0 0 0 0 0 0 0 0 0 0 0 0 0 0 0 0 0 0 0.25 0"/>
<feBlend mode="normal" in2="BackgroundImageFix" result="effect1_dropShadow_7634_26036"/>
<feBlend mode="normal" in="SourceGraphic" in2="effect1_dropShadow_7634_26036" result="shape"/>
</filter>
<filter id="filter1_d_7634_26036" x="180.57" y="431.867" width="126.883" height="86.9531" filterUnits="userSpaceOnUse" color-interpolation-filters="sRGB">
<feFlood flood-opacity="0" result="BackgroundImageFix"/>
<feColorMatrix in="SourceAlpha" type="matrix" values="0 0 0 0 0 0 0 0 0 0 0 0 0 0 0 0 0 0 127 0" result="hardAlpha"/>
<feOffset dx="-4" dy="4"/>
<feGaussianBlur stdDeviation="2"/>
<feComposite in2="hardAlpha" operator="out"/>
<feColorMatrix type="matrix" values="0 0 0 0 0 0 0 0 0 0 0 0 0 0 0 0 0 0 0.25 0"/>
<feBlend mode="normal" in2="BackgroundImageFix" result="effect1_dropShadow_7634_26036"/>
<feBlend mode="normal" in="SourceGraphic" in2="effect1_dropShadow_7634_26036" result="shape"/>
</filter>
<radialGradient id="paint0_radial_7634_26036" cx="0" cy="0" r="1" gradientUnits="userSpaceOnUse" gradientTransform="translate(414 422.668) rotate(90) scale(325.943 456.174)">
<stop offset="0.44145" stop-color="#D9D9D9"/>
<stop offset="1" stop-color="#D9D9D9" stop-opacity="0"/>
</radialGradient>
<linearGradient id="paint1_linear_7634_26036" x1="372.99" y1="221.249" x2="348.884" y2="347.016" gradientUnits="userSpaceOnUse">
<stop stop-color="white" stop-opacity="0"/>
<stop offset="1" stop-color="white"/>
</linearGradient>
<linearGradient id="paint2_linear_7634_26036" x1="503.106" y1="270.753" x2="500.916" y2="342.162" gradientUnits="userSpaceOnUse">
<stop stop-color="white" stop-opacity="0"/>
<stop offset="1" stop-color="white"/>
</linearGradient>
<linearGradient id="paint3_linear_7634_26036" x1="657.146" y1="-35.4857" x2="629.984" y2="111.714" gradientUnits="userSpaceOnUse">
<stop stop-color="#D9D9D9" stop-opacity="0"/>
<stop offset="1" stop-color="#D9D9D9"/>
</linearGradient>
<linearGradient id="paint4_linear_7634_26036" x1="559.787" y1="124.379" x2="654.881" y2="124.379" gradientUnits="userSpaceOnUse">
<stop stop-color="white"/>
<stop offset="1" stop-color="#999999" stop-opacity="0"/>
</linearGradient>
<linearGradient id="paint5_linear_7634_26036" x1="395.021" y1="187.865" x2="358.477" y2="185.797" gradientUnits="userSpaceOnUse">
<stop stop-color="white"/>
<stop offset="1" stop-color="#999999" stop-opacity="0"/>
</linearGradient>
<linearGradient id="paint6_linear_7634_26036" x1="501.821" y1="97.2256" x2="603.901" y2="95.705" gradientUnits="userSpaceOnUse">
<stop stop-color="#BBA1FF"/>
<stop offset="1" stop-color="#C891FF" stop-opacity="0"/>
</linearGradient>
<linearGradient id="paint7_linear_7634_26036" x1="452.44" y1="103.444" x2="549.795" y2="100.975" gradientUnits="userSpaceOnUse">
<stop stop-color="#A041FF"/>
<stop offset="1" stop-color="#4FE2CE" stop-opacity="0"/>
</linearGradient>
<linearGradient id="paint8_linear_7634_26036" x1="633.868" y1="132.228" x2="614.388" y2="56.3115" gradientUnits="userSpaceOnUse">
<stop stop-color="white"/>
<stop offset="1" stop-color="white" stop-opacity="0.5"/>
</linearGradient>
<linearGradient id="paint9_linear_7634_26036" x1="0.425733" y1="1.3847" x2="3.28401" y2="1.414" gradientUnits="userSpaceOnUse">
<stop stop-color="#353736"/>
<stop offset="1" stop-color="#A6A6A6"/>
</linearGradient>
<linearGradient id="paint10_linear_7634_26036" x1="653.237" y1="134.579" x2="653.017" y2="133.794" gradientUnits="userSpaceOnUse">
<stop stop-color="#DCDCDC"/>
<stop offset="1" stop-color="#DCDCDC" stop-opacity="0"/>
</linearGradient>
<linearGradient id="paint11_linear_7634_26036" x1="652.674" y1="134.406" x2="652.38" y2="133.694" gradientUnits="userSpaceOnUse">
<stop stop-color="#DCDCDC"/>
<stop offset="1" stop-color="#DCDCDC" stop-opacity="0"/>
</linearGradient>
<linearGradient id="paint12_linear_7634_26036" x1="652.793" y1="135.084" x2="652.565" y2="134.306" gradientUnits="userSpaceOnUse">
<stop stop-color="#DCDCDC"/>
<stop offset="1" stop-color="#DCDCDC" stop-opacity="0"/>
</linearGradient>
<linearGradient id="paint13_linear_7634_26036" x1="654.393" y1="133.522" x2="654.162" y2="132.722" gradientUnits="userSpaceOnUse">
<stop stop-color="#DCDCDC"/>
<stop offset="1" stop-color="#DCDCDC" stop-opacity="0"/>
</linearGradient>
<linearGradient id="paint14_linear_7634_26036" x1="653.757" y1="134.079" x2="653.267" y2="132.92" gradientUnits="userSpaceOnUse">
<stop stop-color="#DCDCDC"/>
<stop offset="1" stop-color="#DCDCDC" stop-opacity="0"/>
</linearGradient>
<linearGradient id="paint15_linear_7634_26036" x1="653.073" y1="133.737" x2="652.797" y2="133.248" gradientUnits="userSpaceOnUse">
<stop stop-color="#DCDCDC"/>
<stop offset="1" stop-color="#DCDCDC" stop-opacity="0"/>
</linearGradient>
<linearGradient id="paint16_linear_7634_26036" x1="265.681" y1="506.428" x2="246.2" y2="430.511" gradientUnits="userSpaceOnUse">
<stop stop-color="white"/>
<stop offset="1" stop-color="white" stop-opacity="0.5"/>
</linearGradient>
<linearGradient id="paint17_linear_7634_26036" x1="0.425733" y1="1.3847" x2="3.28401" y2="1.414" gradientUnits="userSpaceOnUse">
<stop stop-color="#353736"/>
<stop offset="1" stop-color="#A6A6A6"/>
</linearGradient>
<linearGradient id="paint18_linear_7634_26036" x1="285.049" y1="508.779" x2="284.829" y2="507.993" gradientUnits="userSpaceOnUse">
<stop stop-color="#DCDCDC"/>
<stop offset="1" stop-color="#DCDCDC" stop-opacity="0"/>
</linearGradient>
<linearGradient id="paint19_linear_7634_26036" x1="284.486" y1="508.605" x2="284.192" y2="507.893" gradientUnits="userSpaceOnUse">
<stop stop-color="#DCDCDC"/>
<stop offset="1" stop-color="#DCDCDC" stop-opacity="0"/>
</linearGradient>
<linearGradient id="paint20_linear_7634_26036" x1="284.606" y1="509.283" x2="284.377" y2="508.505" gradientUnits="userSpaceOnUse">
<stop stop-color="#DCDCDC"/>
<stop offset="1" stop-color="#DCDCDC" stop-opacity="0"/>
</linearGradient>
<linearGradient id="paint21_linear_7634_26036" x1="286.206" y1="507.721" x2="285.975" y2="506.921" gradientUnits="userSpaceOnUse">
<stop stop-color="#DCDCDC"/>
<stop offset="1" stop-color="#DCDCDC" stop-opacity="0"/>
</linearGradient>
<linearGradient id="paint22_linear_7634_26036" x1="285.569" y1="508.278" x2="285.079" y2="507.119" gradientUnits="userSpaceOnUse">
<stop stop-color="#DCDCDC"/>
<stop offset="1" stop-color="#DCDCDC" stop-opacity="0"/>
</linearGradient>
<linearGradient id="paint23_linear_7634_26036" x1="284.885" y1="507.936" x2="284.609" y2="507.447" gradientUnits="userSpaceOnUse">
<stop stop-color="#DCDCDC"/>
<stop offset="1" stop-color="#DCDCDC" stop-opacity="0"/>
</linearGradient>
<linearGradient id="paint24_linear_7634_26036" x1="152.377" y1="278.535" x2="193.903" y2="470.606" gradientUnits="userSpaceOnUse">
<stop stop-color="#1DA593"/>
<stop offset="1" stop-color="#1DA593" stop-opacity="0"/>
</linearGradient>
<linearGradient id="paint25_linear_7634_26036" x1="171.913" y1="391.564" x2="384.175" y2="460.244" gradientUnits="userSpaceOnUse">
<stop stop-color="#4FE2CE"/>
<stop offset="1" stop-color="#4FE2CE" stop-opacity="0"/>
</linearGradient>
</defs>
</svg>
