<svg width="996" height="700" viewBox="0 0 996 700" fill="none" xmlns="http://www.w3.org/2000/svg">
<mask id="mask0_7634_30895" style="mask-type:alpha" maskUnits="userSpaceOnUse" x="0" y="8" width="828" height="829">
<circle cx="414" cy="422.668" r="414" fill="url(#paint0_radial_7634_30895)"/>
</mask>
<g mask="url(#mask0_7634_30895)">
<path d="M466.626 399.922C470.574 399.922 474.19 402.134 475.987 405.649L532.495 521.256H367.758C363.398 521.256 359.491 518.565 357.936 514.492L314.195 399.922H466.626Z" fill="#D9D9D9" fill-opacity="0.1"/>
<path fill-rule="evenodd" clip-rule="evenodd" d="M466.913 336.465C470.861 336.465 474.477 338.677 476.275 342.192L565.233 516.156C566.425 518.488 564.731 521.256 562.112 521.256H532.494L475.986 405.649C474.189 402.134 470.573 399.922 466.625 399.922H314.195L292.237 342.408C291.143 339.54 293.261 336.465 296.33 336.465H466.913Z" fill="#D9D9D9" fill-opacity="0.1"/>
<path fill-rule="evenodd" clip-rule="evenodd" d="M275.173 399.922C279.121 399.922 282.736 402.134 284.534 405.649L327.79 522.133H173.87C161.716 522.133 154.359 514.376 151.863 504.621L123.012 409.676C121.435 402.779 124.62 399.922 127.58 399.922H275.173Z" fill="#D9D9D9" fill-opacity="0.1"/>
<path fill-rule="evenodd" clip-rule="evenodd" d="M277.057 337.344C281.417 337.344 285.324 340.035 286.879 344.108L352.123 515.003C353.437 518.444 350.895 522.135 347.212 522.135H327.796L284.54 405.652C282.742 402.137 279.127 399.925 275.179 399.925H127.586C124.626 399.925 121.441 402.781 123.017 409.676L107.809 359.629C103.898 347.515 116.209 337.344 128.362 337.344H277.057Z" fill="#D9D9D9" fill-opacity="0.1"/>
<path d="M636.69 399.711C652.367 399.711 656.649 399.711 667.998 416.555L728.971 521.924L728.901 522.136H582.535C578.587 522.136 574.971 519.923 573.174 516.408L513.5 399.711H636.69Z" fill="#D2B2FF"/>
<path d="M642.258 337.344C654.412 337.344 662.602 345.562 668.977 354.855L756.887 501.874C761.88 510.066 749.084 522.135 736.93 522.135H728.904L728.972 521.924L667.998 416.554C656.65 399.711 652.367 399.711 636.691 399.711H513.501L484.217 342.444C483.025 340.112 484.718 337.344 487.337 337.344H642.258Z" fill="#D2B2FF" fill-opacity="0.4"/>
<path d="M162.218 331.902H127.999C112.327 331.902 97.6656 343.235 101.578 360.039L145.136 504.712C148.525 517.133 157.84 527.293 173.512 527.293H737.11C752.782 527.293 770.572 512.443 761.965 499.547L675.527 354.483C666.898 342.063 657.531 331.902 641.859 331.902H601.954M668.578 354.483L756.488 501.501C761.482 509.693 748.684 521.763 736.531 521.763H582.137C578.189 521.763 574.573 519.551 572.775 516.036L483.818 342.072C482.625 339.74 484.319 336.971 486.938 336.971H641.859C654.013 336.971 662.203 345.189 668.578 354.483ZM151.506 504.251L107.446 359.257C103.534 347.143 115.845 336.971 127.999 336.971H276.693C281.053 336.971 284.961 339.662 286.516 343.736L351.759 514.631C353.073 518.072 350.532 521.763 346.848 521.763H173.512C161.358 521.763 154.002 514.006 151.506 504.251ZM477.189 342.699L566.147 516.662C567.339 518.995 565.645 521.763 563.026 521.763H368.672C364.312 521.763 360.404 519.072 358.849 514.999L293.152 342.915C292.057 340.047 294.175 336.971 297.245 336.971H467.828C471.776 336.971 475.392 339.183 477.189 342.699Z" stroke="white" stroke-width="2"/>
<path d="M314.289 399.551H466.263C470.211 399.551 473.826 401.763 475.624 405.278L532.569 521.779" stroke="white" stroke-width="2"/>
<path d="M327.102 520.903L284.176 405.278C282.378 401.763 278.763 399.551 274.815 399.551H127.222C124.155 399.551 120.846 402.617 122.841 410.065" stroke="white" stroke-width="2"/>
<path d="M641.855 337.344V399.553M668.574 354.868V419.268M472.751 338.22V400.429M281.741 338.22V402.62M126.781 337.782V399.553" stroke="white"/>
<path d="M71.1734 111.123C59.0241 111.123 55.5852 119.64 58.0135 130.351L94.9725 289.559C97.1759 302.861 114.616 314.03 126.765 314.03H275.79H630.269C642.418 314.03 649.721 305.284 648.139 294.802L614.885 133.371C615.742 124.376 596.858 111.123 594.876 111.123M160.088 319.596H129.324C113.657 319.596 93.282 307.152 88.7118 288.701L51.413 129.845C48.5322 116.207 52.7162 105.051 68.3824 105.051L592.664 105.051C608.33 105.051 623.441 121.356 621.346 135.516L655.086 294.802C656.761 308.794 648.493 319.596 632.827 319.596H598.881" stroke="url(#paint1_linear_7634_30895)" stroke-width="2"/>
<path d="M160.516 317.008H598.119L601.239 333.655H163.636L160.516 317.008Z" stroke="url(#paint2_linear_7634_30895)" stroke-width="2"/>
<path d="M176.325 611.407H729.477C743.114 611.407 758.164 600.737 756.387 587.905L764.214 508.233M176.325 611.407C157.931 611.407 148.148 599.656 145.149 585.786M176.325 611.407V527.035M145.149 585.786L101.409 428.717C101.104 427.255 100.951 425.816 100.938 424.408V354.684M145.149 585.786V505.1M728.612 521.551L667.639 416.182C656.29 399.338 652.008 399.338 636.331 399.338H513.664" stroke="white" stroke-width="2"/>
<path d="M531.141 416.645H533.56L540.304 427.867H537.884L531.141 416.645Z" fill="#0E0C14"/>
<path d="M538.11 419.49H540.283L541.195 420.897C541.126 419.774 542.23 419.3 543.843 419.3C546.509 419.3 548.683 420.644 549.785 422.477L553.023 427.867H550.649L547.723 422.999C546.831 421.513 545.697 420.707 544.039 420.707C542.314 420.707 541.7 421.513 542.593 422.999L545.518 427.867H543.144L538.11 419.49Z" fill="#0E0C14"/>
<path d="M560.069 422.43C559.186 421.371 557.651 420.754 556.307 420.754C554.29 420.754 553.758 421.845 554.86 423.679C555.962 425.512 557.804 426.603 559.821 426.603C561.232 426.603 562.008 425.955 561.551 424.785L564.095 424.88C564.914 426.84 563.428 428.057 560.694 428.057C557.244 428.057 553.991 426.334 552.396 423.679C550.8 421.023 551.983 419.3 555.433 419.3C558.076 419.3 561.032 420.454 562.476 422.335L560.069 422.43Z" fill="#0E0C14"/>
<path d="M572.983 428.057C569.555 428.057 566.289 426.35 564.684 423.679C563.079 421.007 564.293 419.3 567.721 419.3C571.126 419.3 574.392 421.007 575.998 423.679C577.603 426.35 576.388 428.057 572.983 428.057ZM567.148 423.679C568.25 425.512 570.093 426.603 572.109 426.603C574.125 426.603 574.635 425.512 573.533 423.679C572.431 421.845 570.611 420.754 568.595 420.754C566.579 420.754 566.046 421.845 567.148 423.679Z" fill="#0E0C14"/>
<path d="M575.544 419.49H577.717L578.588 420.865C578.572 419.869 579.44 419.3 581.03 419.3C582.733 419.3 584.345 419.932 585.525 421.039C585.389 419.917 586.25 419.3 588.043 419.3C590.44 419.3 592.558 420.438 593.783 422.477L597.021 427.867H594.647L591.721 422.999C590.829 421.513 589.605 420.707 588.261 420.707C586.558 420.707 586.121 421.545 586.994 422.999L589.92 427.867H587.679L584.754 422.999C583.88 421.545 582.615 420.707 581.293 420.707C579.613 420.707 579.153 421.545 580.027 422.999L582.952 427.867H580.577L575.544 419.49Z" fill="#0E0C14"/>
<path d="M600.941 430.238L594.483 419.49H596.701L597.518 420.738C597.608 419.806 598.558 419.3 600.261 419.3C603.734 419.3 606.585 421.323 608 423.679C609.415 426.034 608.995 428.057 605.523 428.057C603.91 428.057 602.393 427.583 601.189 426.698L603.316 430.238H600.941ZM599.173 423.679C600.075 425.18 601.903 426.619 604.098 426.619C606.339 426.619 606.434 425.212 605.513 423.679C604.601 422.161 602.783 420.738 600.565 420.738C598.37 420.738 598.271 422.177 599.173 423.679Z" fill="#0E0C14"/>
<path d="M608.861 422.003C608.315 420.312 609.589 419.3 612.322 419.3C615.548 419.3 618.078 420.565 619.455 422.857L621.326 425.971C621.582 426.397 621.946 426.555 622.417 426.555H622.887L623.675 427.867H622.936C621.87 427.883 620.338 427.757 619.514 426.571C619.46 427.377 618.547 428.057 616.576 428.057C614.178 428.057 611.755 427.156 610.862 425.67C609.856 423.995 611.331 423.505 613.846 423.141L616.966 422.667C616.136 421.323 614.864 420.659 613.139 420.659C611.75 420.659 611.135 421.165 611.391 422.114L608.861 422.003ZM613.308 425.639C613.678 426.255 614.744 426.761 616.312 426.761C618.072 426.745 618.93 425.86 617.847 424.058L617.78 423.947L615.439 424.263C613.927 424.469 612.671 424.58 613.308 425.639Z" fill="#0E0C14"/>
<path d="M619.656 417.593H622.031L623.17 419.49H626.307L627.124 420.849H623.987L626.76 425.465C627.169 426.144 627.848 426.492 628.767 426.492H630.492L631.318 427.867H629.347C627.061 427.867 625.326 427.03 624.386 425.465L621.612 420.849H619.798L618.981 419.49H620.795L619.656 417.593Z" fill="#0E0C14"/>
<path d="M628.307 419.49H630.682L635.715 427.867H633.341L628.307 419.49ZM627.521 418.257L626.562 416.66H629.049L630.008 418.257H627.521Z" fill="#0E0C14"/>
<path d="M631.228 416.645H633.603L635.987 420.612C636.175 419.806 637.26 419.3 638.805 419.3C641.897 419.3 644.84 420.991 646.455 423.679C648.069 426.366 647.159 428.057 644.067 428.057C642.432 428.057 640.72 427.52 639.535 426.666L640.189 427.867H637.971L631.228 416.645ZM637.65 423.679C638.733 425.481 640.649 426.619 642.598 426.619C644.502 426.619 645.073 425.481 643.99 423.679C642.889 421.845 640.963 420.691 639.036 420.691C637.087 420.691 636.548 421.845 637.65 423.679Z" fill="#0E0C14"/>
<path d="M644.457 416.645H646.832L652.407 425.923C652.635 426.302 653.04 426.492 653.556 426.492H654.519L655.345 427.867H653.867C652.276 427.867 650.764 427.14 650.08 426.002L644.457 416.645Z" fill="#0E0C14"/>
<path d="M653.998 423.679C652.403 421.023 653.585 419.3 657.036 419.3C659.881 419.3 663.085 420.644 664.983 423.615L665.328 424.153H656.793C657.89 425.718 659.583 426.634 661.443 426.634C662.607 426.634 663.388 426.144 663.375 425.338L665.937 425.465C666.202 427.061 664.717 428.057 662.297 428.057C658.847 428.057 655.594 426.334 653.998 423.679ZM656.087 422.904H662.069C660.841 421.308 659.235 420.723 657.89 420.723C656.165 420.723 655.53 421.529 656.087 422.904Z" fill="#0E0C14"/>
<path d="M153.201 423.266C153.626 425.82 152.001 427.474 148.268 427.474C143.636 427.474 139.821 424.821 138.445 421.415C137.069 418.01 138.728 415.324 143.36 415.324C146.845 415.324 149.812 416.88 151.488 419.303L148.964 419.401C147.857 417.829 146.061 416.945 143.992 416.945C140.642 416.945 139.978 418.976 140.964 421.415C141.943 423.839 144.263 425.853 147.591 425.853C149.772 425.853 150.843 424.887 150.576 423.167L153.201 423.266Z" fill="white"/>
<path d="M162.006 427.408C158.565 427.408 155.602 425.64 154.484 422.873C153.366 420.105 154.9 418.337 158.341 418.337C161.758 418.337 164.722 420.105 165.84 422.873C166.958 425.64 165.424 427.408 162.006 427.408ZM156.958 422.873C157.725 424.772 159.373 425.902 161.397 425.902C163.421 425.902 164.134 424.772 163.366 422.873C162.599 420.973 160.973 419.843 158.949 419.843C156.926 419.843 156.19 420.973 156.958 422.873Z" fill="white"/>
<path d="M166.157 418.534H168.338L168.994 419.991C169.132 418.828 170.327 418.337 171.946 418.337C174.622 418.337 176.556 419.729 177.323 421.628L179.579 427.212H177.196L175.158 422.169C174.536 420.629 173.547 419.794 171.883 419.794C170.152 419.794 169.387 420.629 170.009 422.169L172.047 427.212H169.663L166.157 418.534Z" fill="white"/>
<path d="M178.933 416.569H181.317L182.111 418.534H185.259L185.828 419.942H182.68L184.611 424.723C184.896 425.427 185.514 425.787 186.436 425.787H188.167L188.743 427.212H186.764C184.47 427.212 182.883 426.344 182.228 424.723L180.296 419.942H178.475L177.906 418.534H179.727L178.933 416.569Z" fill="white"/>
<path d="M187.823 421.137C187.588 419.385 189.053 418.337 191.796 418.337C195.034 418.337 197.34 419.647 198.299 422.021L199.602 425.247C199.781 425.689 200.117 425.853 200.589 425.853H201.061L201.61 427.212H200.868C199.796 427.228 198.281 427.097 197.673 425.869C197.47 426.704 196.428 427.408 194.449 427.408C192.044 427.408 189.778 426.475 189.156 424.936C188.455 423.2 190.026 422.693 192.617 422.316L195.836 421.825C195.251 420.433 194.097 419.745 192.365 419.745C190.971 419.745 190.261 420.269 190.343 421.252L187.823 421.137ZM191.616 424.903C191.874 425.542 192.85 426.066 194.424 426.066C196.194 426.049 197.217 425.132 196.463 423.266L196.417 423.151L194.008 423.479C192.453 423.691 191.173 423.806 191.616 424.903Z" fill="white"/>
<path d="M199.907 418.534H202.088L202.708 419.958C202.876 418.927 203.852 418.337 205.449 418.337C207.158 418.337 208.659 418.992 209.639 420.138C209.709 418.976 210.688 418.337 212.487 418.337C214.893 418.337 216.808 419.516 217.661 421.628L219.917 427.212H217.534L215.496 422.169C214.874 420.629 213.795 419.794 212.446 419.794C210.737 419.794 210.143 420.662 210.752 422.169L212.789 427.212H210.541L208.503 422.169C207.895 420.662 206.78 419.794 205.453 419.794C203.767 419.794 203.15 420.662 203.759 422.169L205.797 427.212H203.413L199.907 418.534Z" fill="white"/>
<path d="M219.333 418.534H221.716L225.222 427.212H222.839L219.333 418.534ZM218.772 417.256L218.103 415.603H220.599L221.268 417.256H218.772Z" fill="white"/>
<path d="M224.332 418.534H226.513L227.169 419.991C227.307 418.828 228.502 418.337 230.121 418.337C232.797 418.337 234.731 419.729 235.498 421.628L237.754 427.212H235.371L233.333 422.169C232.711 420.629 231.722 419.794 230.058 419.794C228.326 419.794 227.562 420.629 228.184 422.169L230.222 427.212H227.838L224.332 418.534Z" fill="white"/>
<path d="M237.464 421.137C237.228 419.385 238.694 418.337 241.437 418.337C244.675 418.337 246.98 419.647 247.939 422.021L249.243 425.247C249.421 425.689 249.757 425.853 250.23 425.853H250.702L251.251 427.212H250.509C249.436 427.228 247.922 427.097 247.313 425.869C247.111 426.704 246.069 427.408 244.09 427.408C241.684 427.408 239.418 426.475 238.796 424.936C238.095 423.2 239.666 422.693 242.257 422.316L245.477 421.825C244.892 420.433 243.737 419.745 242.006 419.745C240.612 419.745 239.901 420.269 239.984 421.252L237.464 421.137ZM241.256 424.903C241.514 425.542 242.491 426.066 244.065 426.066C245.834 426.049 246.858 425.132 246.104 423.266L246.057 423.151L243.649 423.479C242.094 423.691 240.813 423.806 241.256 424.903Z" fill="white"/>
<path d="M249.112 416.569H251.496L252.29 418.534H255.438L256.007 419.942H252.859L254.79 424.723C255.075 425.427 255.693 425.787 256.614 425.787H258.346L258.921 427.212H256.943C254.649 427.212 253.062 426.344 252.407 424.723L250.475 419.942H248.654L248.085 418.534H249.906L249.112 416.569Z" fill="white"/>
<path d="M258.194 422.873C257.082 420.122 258.587 418.337 262.05 418.337C264.906 418.337 267.874 419.729 269.23 422.807L269.477 423.364H260.91C261.723 424.985 263.253 425.935 265.12 425.935C266.289 425.935 267.163 425.427 267.298 424.592L269.847 424.723C269.818 426.377 268.143 427.408 265.715 427.408C262.252 427.408 259.305 425.624 258.194 422.873ZM260.433 422.07H266.436C265.498 420.417 263.994 419.811 262.645 419.811C260.914 419.811 260.127 420.646 260.433 422.07Z" fill="white"/>
<path d="M278.909 415.586L283.606 427.212H281.38L280.81 425.967C280.493 426.852 279.324 427.408 277.682 427.408C274.579 427.408 271.938 425.656 270.813 422.873C269.688 420.089 270.914 418.337 274.017 418.337C275.569 418.337 277.174 418.861 278.186 419.696L276.526 415.586H278.909ZM273.286 422.873C274.04 424.739 275.776 425.918 277.687 425.918C279.643 425.918 280.404 424.739 279.65 422.873C278.882 420.973 277.163 419.778 275.206 419.778C273.273 419.778 272.519 420.973 273.286 422.873Z" fill="white"/>
<path d="M367.385 428.345L361.164 416.645H366.738C370.677 416.645 373.207 417.699 374.373 419.891C375.083 421.226 374.459 422.116 372.698 422.297C375.099 422.478 376.955 423.483 377.778 425.032C378.917 427.175 377.525 428.345 373.854 428.345H367.385ZM368.953 426.746H373.026C375.019 426.746 375.872 426.12 375.259 424.967C374.636 423.797 373.108 423.154 371.116 423.154H367.043L368.953 426.746ZM366.236 421.638H369.482C371.608 421.638 372.502 421.044 371.923 419.957C371.319 418.82 369.871 418.243 367.677 418.243H364.431L366.236 421.638Z" fill="white"/>
<path d="M377.395 419.611H379.567L380.51 421.259C380.339 420.138 380.954 419.611 382.476 419.611H383.618L384.38 421.044H383.216C381.359 421.044 380.933 421.803 381.704 423.253L384.412 428.345H382.039L377.395 419.611Z" fill="white"/>
<path d="M394.822 428.543C391.398 428.543 388.213 426.763 386.732 423.978C385.252 421.193 386.544 419.413 389.968 419.413C393.37 419.413 396.555 421.193 398.036 423.978C399.517 426.763 398.225 428.543 394.822 428.543ZM389.195 423.978C390.211 425.889 392.002 427.026 394.016 427.026C396.031 427.026 396.59 425.889 395.574 423.978C394.557 422.066 392.789 420.929 390.774 420.929C388.76 420.929 388.178 422.066 389.195 423.978Z" fill="white"/>
<path d="M396.198 416.645H398.57L402.443 423.928L405.408 419.611H408.474L405.764 423.269L413.32 428.345H410.567L404.762 424.373L403.565 426.038L404.792 428.345H402.419L396.198 416.645Z" fill="white"/>
<path d="M411.309 423.978C409.837 421.209 411.098 419.413 414.545 419.413C417.387 419.413 420.527 420.814 422.286 423.912L422.607 424.472H414.079C415.103 426.104 416.753 427.059 418.61 427.059C419.774 427.059 420.577 426.549 420.6 425.708L423.155 425.84C423.346 427.504 421.816 428.543 419.399 428.543C415.952 428.543 412.781 426.746 411.309 423.978ZM413.431 423.17H419.408C418.254 421.506 416.676 420.896 415.333 420.896C413.61 420.896 412.937 421.737 413.431 423.17Z" fill="white"/>
<path d="M422.089 419.611H424.26L425.107 421.077C425.09 419.907 426.215 419.413 427.826 419.413C430.49 419.413 432.6 420.814 433.616 422.725L436.604 428.345H434.232L431.533 423.269C430.709 421.72 429.613 420.88 427.957 420.88C426.233 420.88 425.583 421.72 426.407 423.269L429.106 428.345H426.733L422.089 419.611Z" fill="white"/>
</g>
<mask id="mask1_7634_30895" style="mask-type:alpha" maskUnits="userSpaceOnUse" x="239" y="0" width="782" height="269">
<rect x="239.195" width="781.562" height="268.99" fill="url(#paint3_linear_7634_30895)"/>
</mask>
<g mask="url(#mask1_7634_30895)">
<path d="M320.231 38.9844C289.08 53.5117 326.676 117.001 347.622 143.366C366.4 167.001 388.687 169.42 402.391 169.42C412.352 169.42 483.133 169.29 520.721 169.407C523.172 169.415 525.564 168.691 527.6 167.328C529.624 165.973 532.004 165.249 534.439 165.249H654.865" stroke="url(#paint4_linear_7634_30895)"/>
<path d="M332.027 96.5935C369.083 165.216 397.314 160.882 408.111 160.882H937.145C945.865 160.882 948.143 156.909 941.487 148.241C934.83 139.573 904.472 108.512 888.879 93.7041C873.285 78.8961 867.047 72.3951 847.924 57.2259C828.8 42.0567 813.225 40.2505 797.861 40.2505C782.496 40.2505 343.364 39.8891 334.852 40.2503C326.34 40.6115 299.731 36.7844 332.027 96.5935Z" stroke="white"/>
<path d="M490.391 216.001C502.849 216.001 522.781 205.158 537.73 205.158C665.487 205.158 793.247 203.49 921.009 203.49C931.806 203.49 936.84 199.674 941.637 194.479C945.945 189.815 953.814 170.543 952.153 156.364C950.492 142.184 874.104 74.6741 855.167 56.2006C832.609 34.1958 794.182 34.1958 789.615 34.1958C785.047 34.1958 754.407 34.6128 714.543 34.1958C674.679 33.7787 357.426 35.8642 339.985 35.8642C322.94 35.8642 311.333 40.8686 305.933 51.2946C302.581 57.7668 290.493 82.565 308.954 132.604C318.353 158.078 326.142 178.876 346.013 200.936C359.584 216.001 376.197 216.001 393.222 216.001H490.391Z" stroke="white" stroke-width="2"/>
<path d="M347.671 51.2682C345.808 47.9493 347.389 45.2812 351.22 45.2812H790.071C792.958 45.2812 796.434 46.8169 798.824 49.1483L902.371 150.162C905.864 153.57 905.081 157.244 900.861 157.244H413.252C409.908 157.244 405.844 154.876 404.218 151.979L347.671 51.2682Z" fill="#1C192D"/>
<path d="M347.671 51.2682C345.808 47.9493 347.389 45.2812 351.22 45.2812H790.071C792.958 45.2812 796.434 46.8169 798.824 49.1483L902.371 150.162C905.864 153.57 905.081 157.244 900.861 157.244H413.252C409.908 157.244 405.844 154.876 404.218 151.979L347.671 51.2682Z" stroke="white" stroke-width="2"/>
<path d="M389.191 185.362H407.954C409.059 185.362 409.954 186.258 409.954 187.362V195.04C409.954 196.144 409.059 197.04 407.954 197.04H389.191M389.191 185.362V197.04M389.191 185.362C380.886 185.362 362.615 186.614 355.141 176.188M389.191 197.04C382.132 197.318 361.785 197.874 357.632 188.699" stroke="url(#paint5_linear_7634_30895)"/>
<rect x="431.828" y="187.297" width="56.4745" height="10.8432" rx="5.42158" stroke="white" stroke-width="2"/>
<rect x="551.055" y="181.918" width="56.4745" height="10.8432" rx="5.42158" stroke="white" stroke-width="2"/>
<path d="M488.711 192.721V190.218C488.711 187.224 486.294 184.797 483.313 184.797H436.805C433.823 184.797 431.406 187.224 431.406 190.218V192.304" stroke="white"/>
<path d="M607.946 187.338V184.836C607.946 181.841 605.529 179.414 602.547 179.414H556.039C553.058 179.414 550.641 181.841 550.641 184.836V186.921" stroke="white"/>
<ellipse cx="6.64406" cy="3.75171" rx="6.64406" ry="3.75171" transform="matrix(1 0 0.499325 0.866414 372.328 133.145)" stroke="white" stroke-width="2"/>
<ellipse cx="2.90678" cy="1.66743" rx="2.90678" ry="1.66743" transform="matrix(1 0 0.499325 0.866414 342.25 70.9453)" stroke="white" stroke-width="2"/>
<ellipse cx="2.90678" cy="1.66743" rx="2.90678" ry="1.66743" transform="matrix(1 0 0.499325 0.866414 336.883 63.1953)" stroke="white" stroke-width="2"/>
<path d="M336.137 84.2177C335.818 83.626 336.107 83.1562 336.791 83.1562C337.49 83.1562 338.339 83.6473 338.688 84.2529L350.145 104.133C350.596 104.915 350.23 105.549 349.327 105.549C348.404 105.549 347.283 104.887 346.851 104.087L336.137 84.2177Z" fill="white"/>
<rect width="6.64406" height="27.5126" rx="3.32203" transform="matrix(1 0 0.499325 0.866414 348.023 81.4883)" stroke="white" stroke-width="2"/>
<path d="M307.839 92.3261C308.057 91.1479 308.2 89.7739 308.502 88.8159C309.135 86.8098 310.364 86.9126 311.462 89.3831C318.187 104.827 321.726 112.12 331.789 130.557C333.143 133.602 333.675 138.845 332.919 141.685L328.519 163.862C327.818 166.496 326.359 166.354 325.104 163.528C318.34 147.773 313.447 134.693 307.721 118.656C307.203 117.205 306.626 115.912 306.175 114.274C305.653 112.375 305.334 110.147 305.289 108.081C305.25 106.317 305.504 104.94 305.749 103.615L307.839 92.3261Z" stroke="white" stroke-width="2" stroke-linecap="round"/>
<path d="M310.703 98.9954C310.922 97.7491 311.517 97.676 312.031 98.8321L327.897 134.268C328.411 135.424 328.65 137.372 328.43 138.618L325.966 151.897C325.746 153.143 325.152 153.216 324.638 152.06L309.846 113.396C309.332 112.24 309.094 110.292 309.313 109.046L310.703 98.9954Z" stroke="white" stroke-width="2" stroke-linecap="round"/>
<path d="M329.641 133.622L311.6 93.0279C310.974 91.6207 310.276 91.5303 309.9 92.6164C309.698 93.2008 309.606 94.0833 309.461 94.8257L307.316 105.872C307.141 106.774 306.959 107.719 306.999 108.946C307.058 110.756 307.442 112.735 308.036 114.071L324.067 157.676C324.858 159.456 325.776 159.545 326.218 157.884L330.301 140.112M329.641 133.622C330.431 135.398 330.741 138.455 330.301 140.112M329.641 133.622L328.306 135.534M330.301 140.112L328.845 139.11M325.6 152.51L326.026 158.234M324.526 152.51L324.081 157.479M308.951 109.466L307.074 108.215M309.488 112.695L308.013 113.95M320.119 130.392C319.757 132.449 318.777 132.569 317.929 130.662C317.081 128.754 316.687 125.541 317.049 123.485C317.411 121.428 318.392 121.307 319.24 123.215C320.087 125.123 320.481 128.336 320.119 130.392ZM325.076 142.753C324.648 145.183 323.489 145.326 322.488 143.071C321.486 140.817 321.02 137.019 321.448 134.589C321.876 132.159 323.035 132.016 324.037 134.271C325.038 136.525 325.504 140.323 325.076 142.753ZM315.837 116.949C315.366 119.629 314.088 119.786 312.983 117.301C311.878 114.815 311.365 110.628 311.837 107.948C312.308 105.269 313.586 105.111 314.691 107.597C315.796 110.083 316.309 114.27 315.837 116.949Z" stroke="white"/>
<path d="M310.563 99.4189L309.49 94.402M312.347 99.4189L312.347 94.402" stroke="white"/>
<path d="M368.473 56.2713L611.08 56.7108L632.499 56.0549C636.436 55.9344 639.5 59.4438 638.85 63.3286L625.423 143.572C624.93 146.522 622.415 148.708 619.425 148.785L607.419 149.097L422.823 147.421C419.246 147.389 415.944 145.494 414.112 142.421L365.675 61.1857C364.382 59.0171 365.948 56.2668 368.473 56.2713Z" fill="url(#paint6_linear_7634_30895)" fill-opacity="0.1" stroke="url(#paint7_linear_7634_30895)" stroke-opacity="0.2" stroke-width="1.53713"/>
</g>
<g filter="url(#filter0_d_7634_30895)">
<path fill-rule="evenodd" clip-rule="evenodd" d="M665.937 123.785C664.574 121.248 660.828 113.771 657.092 107.846C653.366 101.928 649.737 97.9723 644.142 93.7874C641.738 91.9902 635.723 88.5023 632.876 87.2501C628.995 85.5603 623.198 83.5016 618.891 82.3105C615.88 81.469 610.855 80.3014 608.471 79.8751C601.52 78.6549 592.361 77.8102 587.116 77.8889C567.032 78.2335 546.579 84.9137 532.776 104.408C531.824 105.74 531.39 106.08 531.282 105.528C531.241 105.28 532.408 102.95 534.038 100.884C550.374 80.1885 572.765 74.8771 592.603 75.9867C606 76.7361 617.282 79.0773 629.08 83.5775C634.461 85.6364 637.171 86.9363 641.781 89.6884C646.283 92.3791 649.167 94.1671 653.249 97.9902C657.901 102.336 661.524 106.541 664.81 111.175C668.096 115.809 669.476 118.058 670.996 121.493C672.515 124.928 667.3 126.322 665.937 123.785Z" fill="url(#paint8_linear_7634_30895)" fill-opacity="0.8"/>
<path d="M592.641 75.7679C606.061 76.5186 617.367 78.8653 629.187 83.374L631.092 84.1164C635.288 85.7859 637.877 87.0866 641.92 89.5004L643.541 90.4735C647.17 92.6739 649.837 94.4693 653.422 97.8271C658.084 102.182 661.715 106.397 665.009 111.042C668.298 115.68 669.687 117.94 671.213 121.392C671.611 122.292 671.58 123.09 671.246 123.735C670.914 124.378 670.302 124.834 669.611 125.082C668.241 125.573 666.466 125.277 665.726 123.899C664.359 121.355 660.619 113.889 656.888 107.971C653.406 102.441 650.012 98.6342 645.008 94.7437L643.986 93.9639C641.594 92.1761 635.592 88.6958 632.759 87.4498L632.759 87.4489C628.888 85.7632 623.101 83.7091 618.805 82.5209L618.804 82.5207C616.174 81.7858 612.003 80.8011 609.411 80.2819L608.406 80.0902C601.898 78.9479 593.456 78.1357 588.12 78.1033L587.096 78.108C567.065 78.4517 546.707 85.1103 532.967 104.516L532.966 104.516C532.726 104.852 532.516 105.129 532.334 105.347C532.154 105.561 531.993 105.73 531.848 105.839C531.718 105.938 531.521 106.048 531.325 105.979C531.231 105.945 531.17 105.879 531.13 105.813C531.092 105.747 531.068 105.669 531.052 105.588L531.051 105.583C531.042 105.529 531.052 105.473 531.059 105.436C531.069 105.393 531.082 105.345 531.1 105.295C531.134 105.194 531.186 105.067 531.252 104.921C531.385 104.628 531.581 104.242 531.829 103.802C532.324 102.922 533.031 101.811 533.856 100.766C550.261 79.9828 572.75 74.6553 592.641 75.7679Z" stroke="black" stroke-opacity="0.13" stroke-width="0.452742"/>
<ellipse cx="1.68232" cy="2.01579" rx="1.68232" ry="2.01579" transform="matrix(0.213705 0.920165 -0.968117 0.426912 670.414 120.719)" fill="#616161"/>
<path d="M668.488 122.252C669.443 121.539 670.421 122.292 670.836 122.981C672.94 126.778 673.99 129.904 675.822 135.73C676.113 136.657 675.513 137.792 674.483 138.33C673.453 138.868 672.41 138.694 672.091 137.678C670.222 131.738 669.476 128.247 667.572 124.812C667.072 123.91 667.532 122.964 668.488 122.252Z" fill="#B4B4B4"/>
<ellipse cx="1.48387" cy="1.77801" rx="1.48387" ry="1.77801" transform="matrix(0.213705 0.920165 -0.968117 0.426912 675.336 134.637)" fill="url(#paint9_linear_7634_30895)"/>
<path d="M673.099 134.451C673.883 135.594 674.085 137.495 673.787 137.601C673.49 137.707 673.915 137.234 672.712 134.868L673.099 134.451Z" fill="url(#paint10_linear_7634_30895)"/>
<path d="M671.936 134.51C672.866 135.515 673.291 137.331 673.001 137.473C672.712 137.616 673.088 137.1 671.592 134.965L671.936 134.51Z" fill="url(#paint11_linear_7634_30895)"/>
<path d="M672.654 135.054C673.455 136.183 673.681 138.075 673.384 138.186C673.087 138.296 673.507 137.818 672.272 135.475L672.654 135.054Z" fill="url(#paint12_linear_7634_30895)"/>
<path d="M673.573 132.249C674.886 133.751 675.443 136.42 675.019 136.617C674.595 136.815 675.157 136.075 673.059 132.902L673.573 132.249Z" fill="url(#paint13_linear_7634_30895)"/>
<path d="M672.815 132.695C674.34 134.439 674.988 137.539 674.495 137.768C674.003 137.998 674.656 137.139 672.219 133.453L672.815 132.695Z" fill="url(#paint14_linear_7634_30895)"/>
<path d="M672.354 133.953C673.282 135.015 673.676 136.901 673.377 137.04C673.077 137.18 673.474 136.657 671.991 134.415L672.354 133.953Z" fill="url(#paint15_linear_7634_30895)"/>
<path opacity="0.5" d="M672.06 136.346C671.833 134.455 668.663 125.113 668.018 124.418C667.373 123.723 668.897 122.51 669.262 122.996C669.87 123.805 672.569 129.474 673.835 135.054C672.551 135.422 672.134 136.963 672.06 136.346Z" fill="black" fill-opacity="0.4"/>
<path d="M671.92 135.857C671.825 134.3 668.396 124.919 668.013 124.557C667.63 124.194 668.075 123.484 668.381 124.021C668.687 124.557 671.237 129.765 672.502 135.344C672.632 135.918 671.958 136.483 671.92 135.857Z" fill="black" fill-opacity="0.5"/>
<path opacity="0.5" d="M674.474 134.029C673.699 130.285 670.684 123.548 670.291 123.197C669.898 122.845 670.443 122.853 670.762 123.379C671.081 123.905 673.65 128.636 675.044 134.158C675.188 134.726 674.597 134.627 674.474 134.029Z" fill="black" fill-opacity="0.4"/>
<path d="M639.797 89.25C640.39 89.5619 640.978 89.8898 641.556 90.2279C651.924 96.4559 661.782 107.25 668.146 117.939C668.484 118.528 668.833 119.165 669.147 119.774C669.222 119.922 669.233 120.106 669.174 120.288C669.116 120.469 668.994 120.634 668.835 120.744C668.677 120.853 668.495 120.898 668.333 120.869C668.17 120.84 668.039 120.739 667.968 120.589C667.683 119.984 667.361 119.346 667.048 118.753C661.113 107.953 651.622 96.8718 641.516 90.2893C640.952 89.931 640.377 89.5829 639.797 89.25Z" fill="white"/>
<path d="M649.422 97.5938C649.761 97.9096 650.096 98.2322 650.424 98.5572C656.306 104.469 662.674 113.692 666.472 121.374C666.642 121.761 666.231 122.436 666.385 122.826C666.422 122.921 666.418 123.016 666.373 123.092C666.327 123.167 666.244 123.218 666.143 123.23C666.041 123.243 665.93 123.216 665.834 123.158C665.738 123.1 665.665 123.014 665.63 122.919C665.493 122.539 665.335 122.132 665.181 121.75C662.224 114.729 656.101 104.597 650.397 98.5773C650.078 98.2459 649.752 97.9167 649.422 97.5938Z" fill="black" fill-opacity="0.4"/>
<path d="M567.187 79.0234C561.894 80.5375 556.728 83.3994 551.711 86.1346C551.45 86.2779 551.191 86.4233 550.936 86.5702C545.531 90.1629 539.803 94.8753 535.675 99.327C535.259 99.8851 534.851 100.469 534.493 101.061C534.815 100.45 535.193 99.8435 535.581 99.2614C540.029 94.3466 544.831 89.9638 550.715 85.9733C550.975 85.8236 551.238 85.6747 551.505 85.5294C556.569 82.7853 561.845 80.0691 567.181 78.8959C568.639 78.5948 568.721 78.605 567.187 79.0234Z" fill="white"/>
</g>
<g filter="url(#filter1_d_7634_30895)">
<path fill-rule="evenodd" clip-rule="evenodd" d="M688.076 489.079C686.977 487.035 683.958 481.009 680.947 476.233C677.945 471.464 675.019 468.276 670.51 464.903C668.573 463.455 663.725 460.644 661.43 459.635C658.303 458.273 653.63 456.613 650.16 455.654C647.733 454.975 643.683 454.034 641.762 453.691C636.16 452.707 628.778 452.027 624.551 452.09C608.365 452.368 591.881 457.752 580.757 473.463C579.989 474.537 579.64 474.811 579.552 474.365C579.52 474.165 580.46 472.287 581.774 470.623C594.939 453.943 612.985 449.663 628.974 450.557C639.77 451.161 648.863 453.048 658.371 456.675C662.708 458.334 664.892 459.382 668.607 461.6C672.236 463.768 674.56 465.209 677.85 468.29C681.599 471.793 684.519 475.182 687.167 478.917C689.816 482.651 690.928 484.464 692.153 487.232C693.377 490.001 689.174 491.124 688.076 489.079Z" fill="url(#paint16_linear_7634_30895)" fill-opacity="0.8"/>
<path d="M629.012 450.339C639.831 450.944 648.947 452.836 658.477 456.471L658.478 456.471C662.826 458.134 665.021 459.187 668.747 461.412C672.379 463.583 674.718 465.032 678.023 468.128L678.023 468.127C681.781 471.639 684.71 475.037 687.366 478.783C690.018 482.522 691.137 484.346 692.369 487.131C692.694 487.865 692.671 488.52 692.395 489.055C692.121 489.586 691.615 489.961 691.049 490.164C689.928 490.566 688.473 490.325 687.865 489.194C686.762 487.141 683.75 481.126 680.743 476.358L680.742 476.358C677.752 471.608 674.842 468.438 670.353 465.08C668.549 463.731 664.187 461.182 661.77 460.042L661.314 459.834C658.391 458.562 654.11 457.027 650.735 456.052L650.073 455.864C647.651 455.187 643.609 454.247 641.696 453.905L641.697 453.906C636.105 452.924 628.739 452.245 624.53 452.308C608.398 452.585 592.009 457.948 580.948 473.57L580.947 473.571C580.753 473.842 580.583 474.066 580.435 474.243C580.29 474.417 580.156 474.556 580.035 474.648C579.928 474.729 579.75 474.833 579.568 474.769C579.48 474.738 579.425 474.677 579.391 474.618C579.357 474.56 579.336 474.493 579.323 474.426L579.322 474.42C579.313 474.369 579.322 474.318 579.329 474.288C579.337 474.251 579.348 474.21 579.362 474.169C579.391 474.085 579.434 473.982 579.487 473.863C579.595 473.625 579.753 473.313 579.953 472.958C580.353 472.247 580.925 471.35 581.591 470.505C594.826 453.738 612.97 449.442 629.012 450.339Z" stroke="black" stroke-opacity="0.13" stroke-width="0.452742"/>
<ellipse cx="1.35584" cy="1.6246" rx="1.35584" ry="1.6246" transform="matrix(0.213706 0.920165 -0.968117 0.426912 691.688 486.609)" fill="#616161"/>
<path d="M690.128 487.841C690.898 487.267 691.686 487.874 692.021 488.429C693.717 491.489 694.563 494.009 696.039 498.704C696.274 499.451 695.79 500.366 694.96 500.8C694.13 501.233 693.29 501.093 693.032 500.274C691.526 495.487 690.925 492.673 689.39 489.905C688.987 489.178 689.358 488.416 690.128 487.841Z" fill="#B4B4B4"/>
<ellipse cx="1.1959" cy="1.43296" rx="1.1959" ry="1.43296" transform="matrix(0.213706 0.920165 -0.968117 0.426912 695.656 497.828)" fill="url(#paint17_linear_7634_30895)"/>
<path d="M693.85 497.674C694.483 498.596 694.645 500.127 694.405 500.213C694.166 500.299 694.508 499.917 693.538 498.01L693.85 497.674Z" fill="url(#paint18_linear_7634_30895)"/>
<path d="M692.913 497.723C693.662 498.533 694.005 499.996 693.771 500.111C693.538 500.226 693.841 499.811 692.635 498.09L692.913 497.723Z" fill="url(#paint19_linear_7634_30895)"/>
<path d="M693.492 498.16C694.137 499.07 694.319 500.596 694.08 500.685C693.841 500.774 694.179 500.388 693.184 498.5L693.492 498.16Z" fill="url(#paint20_linear_7634_30895)"/>
<path d="M694.227 495.9C695.285 497.11 695.735 499.261 695.393 499.42C695.051 499.579 695.504 498.983 693.813 496.426L694.227 495.9Z" fill="url(#paint21_linear_7634_30895)"/>
<path d="M693.616 496.262C694.846 497.668 695.368 500.166 694.971 500.351C694.574 500.535 695.1 499.843 693.136 496.873L693.616 496.262Z" fill="url(#paint22_linear_7634_30895)"/>
<path d="M693.244 497.275C693.992 498.13 694.31 499.65 694.068 499.762C693.827 499.875 694.147 499.454 692.952 497.646L693.244 497.275Z" fill="url(#paint23_linear_7634_30895)"/>
<path opacity="0.5" d="M693.008 499.204C692.825 497.68 690.27 490.151 689.75 489.591C689.231 489.03 690.459 488.053 690.753 488.445C691.243 489.096 693.418 493.666 694.438 498.163C693.404 498.459 693.067 499.701 693.008 499.204Z" fill="black" fill-opacity="0.4"/>
<path d="M692.898 498.808C692.822 497.553 690.059 489.993 689.75 489.701C689.441 489.408 689.799 488.837 690.046 489.269C690.293 489.701 692.348 493.898 693.368 498.395C693.473 498.857 692.929 499.313 692.898 498.808Z" fill="black" fill-opacity="0.5"/>
<path opacity="0.5" d="M694.959 497.335C694.335 494.317 691.905 488.887 691.588 488.604C691.271 488.321 691.711 488.327 691.968 488.751C692.225 489.175 694.296 492.988 695.419 497.438C695.535 497.896 695.059 497.816 694.959 497.335Z" fill="black" fill-opacity="0.4"/>
<path d="M667.008 461.246C667.486 461.497 667.96 461.762 668.425 462.034C676.781 467.054 684.727 475.753 689.855 484.368C690.127 484.842 690.409 485.356 690.662 485.847C690.723 485.965 690.731 486.114 690.684 486.26C690.637 486.407 690.539 486.54 690.411 486.628C690.283 486.716 690.137 486.753 690.006 486.729C689.875 486.706 689.769 486.625 689.712 486.503C689.482 486.016 689.222 485.501 688.97 485.024C684.187 476.319 676.538 467.389 668.393 462.084C667.939 461.795 667.475 461.514 667.008 461.246Z" fill="white"/>
<path d="M674.766 467.973C675.039 468.227 675.309 468.487 675.573 468.749C680.314 473.514 685.446 480.947 688.507 487.138C688.644 487.45 688.313 487.994 688.437 488.308C688.467 488.385 688.463 488.461 688.427 488.522C688.39 488.583 688.324 488.624 688.242 488.634C688.16 488.644 688.07 488.623 687.993 488.576C687.915 488.529 687.856 488.46 687.829 488.383C687.718 488.077 687.591 487.749 687.467 487.441C685.083 481.783 680.148 473.617 675.551 468.765C675.294 468.498 675.032 468.233 674.766 467.973Z" fill="black" fill-opacity="0.4"/>
<path d="M608.489 453.004C604.223 454.224 600.06 456.531 596.017 458.735C595.806 458.851 595.598 458.968 595.392 459.086C591.036 461.982 586.42 465.78 583.093 469.368C582.758 469.817 582.429 470.288 582.14 470.765C582.4 470.273 582.704 469.784 583.017 469.315C586.602 465.354 590.472 461.821 595.214 458.605C595.424 458.485 595.636 458.365 595.85 458.248C599.932 456.036 604.184 453.847 608.485 452.901C609.66 452.659 609.726 452.667 608.489 453.004Z" fill="white"/>
</g>
<mask id="mask2_7634_30895" style="mask-type:alpha" maskUnits="userSpaceOnUse" x="249" y="192" width="579" height="354">
<path d="M371.619 215.108C354.972 212.48 349.277 203.28 340.077 192.766C328.248 195.832 302.488 203.017 294.077 207.223C283.562 212.48 267.791 226.937 253.772 245.775C239.753 264.613 264.724 393.756 267.791 415.661C270.858 437.566 356.724 530.004 371.619 538.766C386.515 547.527 699.239 540.956 740.858 544.461C782.477 547.966 804.819 545.775 824.096 533.07C839.517 522.907 793.137 431.286 768.019 386.747L683.029 204.423C674.532 204.627 609.348 204.812 540.753 204.739C525.73 204.723 505.044 216.695 490.253 216.652C427.503 216.469 377.38 216.018 371.619 215.108Z" fill="#D9D9D9"/>
</mask>
<g mask="url(#mask2_7634_30895)">
<path d="M582.71 522.995H771.579L660.75 343.672L366.25 97.6719L576.446 519.119C577.63 521.494 580.056 522.995 582.71 522.995Z" fill="url(#paint24_linear_7634_30895)" stroke="url(#paint25_linear_7634_30895)" stroke-width="2"/>
</g>
<defs>
<filter id="filter0_d_7634_30895" x="522.758" y="63.668" width="167.945" height="83.8242" filterUnits="userSpaceOnUse" color-interpolation-filters="sRGB">
<feFlood flood-opacity="0" result="BackgroundImageFix"/>
<feColorMatrix in="SourceAlpha" type="matrix" values="0 0 0 0 0 0 0 0 0 0 0 0 0 0 0 0 0 0 127 0" result="hardAlpha"/>
<feOffset dx="-4" dy="4"/>
<feGaussianBlur stdDeviation="2"/>
<feComposite in2="hardAlpha" operator="out"/>
<feColorMatrix type="matrix" values="0 0 0 0 0 0 0 0 0 0 0 0 0 0 0 0 0 0 0.25 0"/>
<feBlend mode="normal" in2="BackgroundImageFix" result="effect1_dropShadow_7634_30895"/>
<feBlend mode="normal" in="SourceGraphic" in2="effect1_dropShadow_7634_30895" result="shape"/>
</filter>
<filter id="filter1_d_7634_30895" x="571.086" y="440.629" width="136.953" height="69.1094" filterUnits="userSpaceOnUse" color-interpolation-filters="sRGB">
<feFlood flood-opacity="0" result="BackgroundImageFix"/>
<feColorMatrix in="SourceAlpha" type="matrix" values="0 0 0 0 0 0 0 0 0 0 0 0 0 0 0 0 0 0 127 0" result="hardAlpha"/>
<feOffset dx="-4" dy="4"/>
<feGaussianBlur stdDeviation="2"/>
<feComposite in2="hardAlpha" operator="out"/>
<feColorMatrix type="matrix" values="0 0 0 0 0 0 0 0 0 0 0 0 0 0 0 0 0 0 0.25 0"/>
<feBlend mode="normal" in2="BackgroundImageFix" result="effect1_dropShadow_7634_30895"/>
<feBlend mode="normal" in="SourceGraphic" in2="effect1_dropShadow_7634_30895" result="shape"/>
</filter>
<radialGradient id="paint0_radial_7634_30895" cx="0" cy="0" r="1" gradientUnits="userSpaceOnUse" gradientTransform="translate(414 422.668) rotate(90) scale(325.943 456.174)">
<stop offset="0.44145" stop-color="#D9D9D9"/>
<stop offset="1" stop-color="#D9D9D9" stop-opacity="0"/>
</radialGradient>
<linearGradient id="paint1_linear_7634_30895" x1="372.99" y1="221.249" x2="348.884" y2="347.016" gradientUnits="userSpaceOnUse">
<stop stop-color="white" stop-opacity="0"/>
<stop offset="1" stop-color="white"/>
</linearGradient>
<linearGradient id="paint2_linear_7634_30895" x1="503.106" y1="270.753" x2="500.916" y2="342.162" gradientUnits="userSpaceOnUse">
<stop stop-color="white" stop-opacity="0"/>
<stop offset="1" stop-color="white"/>
</linearGradient>
<linearGradient id="paint3_linear_7634_30895" x1="724.605" y1="-12.7048" x2="650.129" y2="229.562" gradientUnits="userSpaceOnUse">
<stop stop-color="#D9D9D9" stop-opacity="0"/>
<stop offset="1" stop-color="#D9D9D9"/>
</linearGradient>
<linearGradient id="paint4_linear_7634_30895" x1="559.772" y1="124.379" x2="654.865" y2="124.379" gradientUnits="userSpaceOnUse">
<stop stop-color="white"/>
<stop offset="1" stop-color="#999999" stop-opacity="0"/>
</linearGradient>
<linearGradient id="paint5_linear_7634_30895" x1="395.005" y1="187.865" x2="358.462" y2="185.797" gradientUnits="userSpaceOnUse">
<stop stop-color="white"/>
<stop offset="1" stop-color="#999999" stop-opacity="0"/>
</linearGradient>
<linearGradient id="paint6_linear_7634_30895" x1="502.798" y1="95.624" x2="604.877" y2="94.1035" gradientUnits="userSpaceOnUse">
<stop stop-color="#BBA1FF"/>
<stop offset="1" stop-color="#C891FF" stop-opacity="0"/>
</linearGradient>
<linearGradient id="paint7_linear_7634_30895" x1="453.416" y1="101.843" x2="550.771" y2="99.3734" gradientUnits="userSpaceOnUse">
<stop stop-color="#A041FF"/>
<stop offset="1" stop-color="#4FE2CE" stop-opacity="0"/>
</linearGradient>
<linearGradient id="paint8_linear_7634_30895" x1="647.006" y1="137.004" x2="620.261" y2="50.082" gradientUnits="userSpaceOnUse">
<stop stop-color="white"/>
<stop offset="1" stop-color="white" stop-opacity="0.5"/>
</linearGradient>
<linearGradient id="paint9_linear_7634_30895" x1="0.472414" y1="1.68829" x2="3.64417" y2="1.71787" gradientUnits="userSpaceOnUse">
<stop stop-color="#353736"/>
<stop offset="1" stop-color="#A6A6A6"/>
</linearGradient>
<linearGradient id="paint10_linear_7634_30895" x1="673.787" y1="137.373" x2="673.489" y2="136.468" gradientUnits="userSpaceOnUse">
<stop stop-color="#DCDCDC"/>
<stop offset="1" stop-color="#DCDCDC" stop-opacity="0"/>
</linearGradient>
<linearGradient id="paint11_linear_7634_30895" x1="672.974" y1="137.252" x2="672.584" y2="136.406" gradientUnits="userSpaceOnUse">
<stop stop-color="#DCDCDC"/>
<stop offset="1" stop-color="#DCDCDC" stop-opacity="0"/>
</linearGradient>
<linearGradient id="paint12_linear_7634_30895" x1="673.381" y1="137.958" x2="673.072" y2="137.059" gradientUnits="userSpaceOnUse">
<stop stop-color="#DCDCDC"/>
<stop offset="1" stop-color="#DCDCDC" stop-opacity="0"/>
</linearGradient>
<linearGradient id="paint13_linear_7634_30895" x1="674.955" y1="136.122" x2="674.643" y2="135.199" gradientUnits="userSpaceOnUse">
<stop stop-color="#DCDCDC"/>
<stop offset="1" stop-color="#DCDCDC" stop-opacity="0"/>
</linearGradient>
<linearGradient id="paint14_linear_7634_30895" x1="674.306" y1="136.781" x2="673.654" y2="135.401" gradientUnits="userSpaceOnUse">
<stop stop-color="#DCDCDC"/>
<stop offset="1" stop-color="#DCDCDC" stop-opacity="0"/>
</linearGradient>
<linearGradient id="paint15_linear_7634_30895" x1="673.269" y1="136.493" x2="672.895" y2="135.895" gradientUnits="userSpaceOnUse">
<stop stop-color="#DCDCDC"/>
<stop offset="1" stop-color="#DCDCDC" stop-opacity="0"/>
</linearGradient>
<linearGradient id="paint16_linear_7634_30895" x1="672.819" y1="499.733" x2="651.264" y2="429.679" gradientUnits="userSpaceOnUse">
<stop stop-color="white"/>
<stop offset="1" stop-color="white" stop-opacity="0.5"/>
</linearGradient>
<linearGradient id="paint17_linear_7634_30895" x1="0.380736" y1="1.36065" x2="2.93696" y2="1.38449" gradientUnits="userSpaceOnUse">
<stop stop-color="#353736"/>
<stop offset="1" stop-color="#A6A6A6"/>
</linearGradient>
<linearGradient id="paint18_linear_7634_30895" x1="694.405" y1="500.029" x2="694.165" y2="499.3" gradientUnits="userSpaceOnUse">
<stop stop-color="#DCDCDC"/>
<stop offset="1" stop-color="#DCDCDC" stop-opacity="0"/>
</linearGradient>
<linearGradient id="paint19_linear_7634_30895" x1="693.749" y1="499.933" x2="693.434" y2="499.251" gradientUnits="userSpaceOnUse">
<stop stop-color="#DCDCDC"/>
<stop offset="1" stop-color="#DCDCDC" stop-opacity="0"/>
</linearGradient>
<linearGradient id="paint20_linear_7634_30895" x1="694.077" y1="500.501" x2="693.828" y2="499.777" gradientUnits="userSpaceOnUse">
<stop stop-color="#DCDCDC"/>
<stop offset="1" stop-color="#DCDCDC" stop-opacity="0"/>
</linearGradient>
<linearGradient id="paint21_linear_7634_30895" x1="695.341" y1="499.021" x2="695.089" y2="498.277" gradientUnits="userSpaceOnUse">
<stop stop-color="#DCDCDC"/>
<stop offset="1" stop-color="#DCDCDC" stop-opacity="0"/>
</linearGradient>
<linearGradient id="paint22_linear_7634_30895" x1="694.818" y1="499.555" x2="694.293" y2="498.443" gradientUnits="userSpaceOnUse">
<stop stop-color="#DCDCDC"/>
<stop offset="1" stop-color="#DCDCDC" stop-opacity="0"/>
</linearGradient>
<linearGradient id="paint23_linear_7634_30895" x1="693.981" y1="499.321" x2="693.68" y2="498.84" gradientUnits="userSpaceOnUse">
<stop stop-color="#DCDCDC"/>
<stop offset="1" stop-color="#DCDCDC" stop-opacity="0"/>
</linearGradient>
<linearGradient id="paint24_linear_7634_30895" x1="383.25" y1="263.172" x2="623.336" y2="539.096" gradientUnits="userSpaceOnUse">
<stop stop-color="#1DA593"/>
<stop offset="1" stop-color="#1DA593" stop-opacity="0"/>
</linearGradient>
<linearGradient id="paint25_linear_7634_30895" x1="456.963" y1="384.995" x2="669.225" y2="453.675" gradientUnits="userSpaceOnUse">
<stop stop-color="#4FE2CE"/>
<stop offset="1" stop-color="#4FE2CE" stop-opacity="0"/>
</linearGradient>
</defs>
</svg>
