<svg width="752" height="573" viewBox="0 0 752 573" fill="none" xmlns="http://www.w3.org/2000/svg">
<path d="M396.548 442.261L351.187 457.456L235.729 325.037C233.782 322.804 230.715 321.906 227.872 322.737L118.575 354.668L81.7058 310.202C81.11 309.606 80.0523 308.012 80.5886 306.403C81.2589 304.392 83.2703 302.828 86.3986 301.71C89.527 300.593 228.513 261.936 229.407 261.713C230.301 261.489 232.981 261.042 234.323 261.713C234.844 261.862 236.2 262.517 237.451 263.947C239.015 265.735 396.101 435.111 398.559 437.792C400.525 439.937 398.038 441.665 396.548 442.261Z" fill="#D9D9D9" fill-opacity="0.07"/>
<path d="M283.706 305.956L381.022 277.786C383.821 276.976 386.837 277.837 388.785 280.004L502.911 406.956C506.755 405.634 537.055 395.609 548.078 391.964C549.942 391.348 550.547 389.031 549.197 387.607C520.817 357.652 408.835 240.564 390.064 220.938C388.363 219.161 385.909 218.544 383.536 219.192L243.664 257.397C242.051 257.837 241.476 259.828 242.605 261.061L283.706 305.956Z" fill="#D9D9D9" fill-opacity="0.07"/>
<path d="M435.205 261.937L505.091 241.437C513.627 238.933 522.847 241.423 528.961 247.884L637.204 362.266L676.467 348.752C680.524 347.356 681.72 342.194 678.69 339.156L531.105 191.17C524.864 184.912 515.745 182.487 507.22 184.817L395.462 215.367C393.832 215.812 393.267 217.837 394.432 219.062L435.205 261.937Z" fill="#D9D9D9" fill-opacity="0.07"/>
<path d="M532.182 185.523C528.896 182.081 521.926 179.707 513.859 179.707C510.652 179.707 507.619 180.082 504.921 180.75L86.4403 297.465C78.9526 299.6 73.8848 303.703 73.8848 308.414C73.8848 310.074 74.5135 311.658 75.6552 313.107L218.904 486.321C223.15 491.793 233.655 495.666 245.942 495.666C251.989 495.666 257.604 494.728 262.254 493.123L675.191 354.095C681.563 351.693 685.693 347.84 685.693 343.496C685.693 341.499 684.82 339.606 683.258 337.91L532.182 185.523Z" stroke="white" stroke-width="1.3407"/>
<path d="M685.47 345.284L677.206 404.925C676.798 413.992 670.947 421.911 662.4 424.964L255.628 569.615C241.055 574.821 224.788 570.059 215.321 557.818L85.3209 390.954C82.2331 386.961 80.3782 382.154 79.9839 377.122L73.8848 308.861" stroke="white" stroke-width="1.3407"/>
<path d="M410.653 437.64L503.133 406.956L388.564 279.995C386.613 277.834 383.599 276.977 380.803 277.79L283.928 305.956L404.088 435.948C405.755 437.751 408.323 438.413 410.653 437.64Z" fill="#D9D9D9" fill-opacity="0.07"/>
<path d="M560.505 387.406L637.205 362.266L529.555 248.067C523.482 241.625 514.325 239.107 505.813 241.539L435.205 261.713L554.038 385.788C555.703 387.527 558.218 388.156 560.505 387.406Z" fill="#D9D9D9" fill-opacity="0.07"/>
<path d="M283.928 306.18L381.18 277.664C382.688 277.222 384.257 277.239 385.707 277.664M503.133 406.733L389.431 280.011C388.411 278.875 387.115 278.077 385.707 277.664M386.715 219.481L385.707 277.664" stroke="white" stroke-width="0.893803"/>
<path d="M118.352 354.222L227.446 322.354C228.955 321.912 230.523 321.929 231.973 322.354M351.411 457.009L235.697 324.701C234.678 323.565 233.382 322.767 231.973 322.354M233.205 261.713L231.973 322.354" stroke="white" stroke-width="0.893803"/>
<path d="M435.428 262.159C456.283 255.977 499.603 243.166 506.038 241.378C509.012 240.552 512.078 240.337 514.976 240.608M636.98 362.489C601.75 324.949 530.439 249.02 527.043 245.624C524.367 242.948 519.916 241.071 514.976 240.608M518.551 184.846L514.976 240.608" stroke="white" stroke-width="0.893803"/>
<path d="M257.785 494.772L253.986 570.075" stroke="white" stroke-width="0.893803"/>
<path d="M218.234 485.834L217.117 559.796" stroke="white" stroke-width="0.893803"/>
<path d="M675.191 354.222L666.029 423.491" stroke="white" stroke-width="0.893803"/>
<path d="M333.398 313.632L327.627 306.994L330.577 306.092C332.662 305.455 334.225 305.734 335.306 306.978C335.964 307.735 335.822 308.418 334.928 308.821C336.238 308.551 337.433 308.907 338.197 309.786C339.253 311.002 338.764 311.992 336.821 312.586L333.398 313.632ZM333.889 312.334L336.045 311.675C337.099 311.353 337.418 310.805 336.849 310.151C336.272 309.487 335.327 309.315 334.273 309.637L332.117 310.296L333.889 312.334ZM331.369 309.436L333.087 308.911C334.212 308.567 334.56 308.034 334.023 307.417C333.462 306.772 332.574 306.63 331.413 306.985L329.695 307.51L331.369 309.436Z" fill="white"/>
<path d="M336.846 306.306L337.995 305.954L338.844 306.879C338.516 306.174 338.73 305.73 339.535 305.484L340.14 305.299L340.847 306.112L340.231 306.301C339.247 306.601 339.183 307.165 339.898 307.988L342.409 310.877L341.154 311.261L336.846 306.306Z" fill="white"/>
<path d="M347.961 309.322C346.149 309.876 344.086 309.228 342.713 307.648C341.339 306.068 341.646 304.696 343.459 304.142C345.26 303.592 347.322 304.239 348.696 305.819C350.069 307.399 349.762 308.771 347.961 309.322ZM344.016 307.25C344.959 308.334 346.147 308.788 347.214 308.462C348.28 308.136 348.335 307.302 347.392 306.218C346.45 305.133 345.273 304.676 344.207 305.002C343.14 305.328 343.073 306.165 344.016 307.25Z" fill="white"/>
<path d="M346.17 301.325L347.426 300.941L351.018 305.074L351.673 301.773L353.296 301.277L352.636 304.106L357.71 306.199L356.253 306.645L352.339 304.989L352.058 306.27L353.196 307.579L351.94 307.963L346.17 301.325Z" fill="white"/>
<path d="M355.721 303.671C354.355 302.101 354.642 300.723 356.467 300.165C357.971 299.705 359.93 300.112 361.517 301.852L361.805 302.166L357.291 303.546C358.179 304.446 359.255 304.804 360.238 304.503C360.854 304.315 361.171 303.851 361.005 303.298L362.385 302.971C362.839 304.028 362.249 304.954 360.969 305.345C359.145 305.903 357.086 305.242 355.721 303.671ZM356.673 302.8L359.836 301.833C358.873 300.932 357.909 300.789 357.198 301.007C356.286 301.286 356.108 301.943 356.673 302.8Z" fill="white"/>
<path d="M360.502 299.074L361.651 298.722L362.41 299.543C362.153 298.782 362.643 298.277 363.496 298.016C364.906 297.585 366.32 298.159 367.262 299.243L370.034 302.432L368.778 302.815L366.275 299.936C365.511 299.057 364.753 298.685 363.876 298.953C362.964 299.232 362.798 299.886 363.562 300.765L366.065 303.645L364.809 304.029L360.502 299.074Z" fill="white"/>
<path d="M265.353 485.09C272.642 482.781 325.427 465.181 350.908 456.669L232.464 321.449L118.908 354.754C150.316 392.723 215.086 471.057 222.908 480.649C232.686 492.639 256.242 487.977 265.353 485.09Z" fill="#D9D9D9" fill-opacity="0.07"/>
<path d="M155.087 365.737C156.122 367.508 155.669 368.999 153.462 369.673C150.723 370.511 147.654 369.281 145.795 367.066C143.936 364.851 144.093 362.609 146.831 361.771C148.892 361.141 151.124 361.73 152.858 363.18L151.396 363.708C150.259 362.771 148.926 362.456 147.703 362.83C145.722 363.435 145.952 365.024 147.284 366.611C148.607 368.187 150.596 369.225 152.564 368.623C153.854 368.229 154.191 367.336 153.505 366.141L155.087 365.737Z" fill="white"/>
<path d="M161.564 367.143C159.53 367.765 157.236 367.021 155.725 365.221C154.215 363.421 154.58 361.865 156.614 361.243C158.634 360.625 160.929 361.369 162.439 363.168C163.949 364.968 163.585 366.525 161.564 367.143ZM157.188 364.774C158.224 366.009 159.546 366.529 160.742 366.163C161.939 365.797 162.013 364.851 160.977 363.616C159.94 362.38 158.632 361.857 157.436 362.223C156.239 362.588 156.151 363.539 157.188 364.774Z" fill="white"/>
<path d="M161.295 359.972L162.585 359.578L163.42 360.513C163.145 359.648 163.701 359.076 164.658 358.783C166.24 358.3 167.811 358.957 168.847 360.192L171.895 363.824L170.485 364.255L167.733 360.975C166.893 359.974 166.052 359.548 165.068 359.849C164.044 360.162 163.848 360.904 164.688 361.905L167.441 365.186L166.032 365.616L161.295 359.972Z" fill="white"/>
<path d="M168.247 356.241L169.656 355.81L170.728 357.088L172.59 356.519L173.358 357.435L171.497 358.004L174.106 361.114C174.49 361.572 174.966 361.721 175.511 361.554L176.535 361.241L177.312 362.167L176.143 362.525C174.786 362.94 173.582 362.599 172.697 361.545L170.088 358.435L169.011 358.764L168.242 357.848L169.319 357.519L168.247 356.241Z" fill="white"/>
<path d="M174.905 357.939C174.228 356.714 174.773 355.691 176.395 355.195C178.309 354.61 180.074 355.141 181.37 356.685L183.13 358.783C183.372 359.07 183.621 359.128 183.9 359.043L184.179 358.957L184.921 359.841L184.482 359.975C183.853 360.181 182.917 360.36 182.18 359.582C182.317 360.223 181.917 360.92 180.747 361.278C179.325 361.713 177.698 361.447 176.858 360.446C175.911 359.317 176.684 358.666 178.101 357.925L179.854 356.988C179.081 356.087 178.187 355.798 177.163 356.111C176.339 356.363 176.08 356.87 176.43 357.566L174.905 357.939ZM178.303 359.978C178.651 360.393 179.389 360.596 180.32 360.311C181.361 359.979 181.685 359.131 180.667 357.917L180.604 357.842L179.28 358.515C178.426 358.95 177.704 359.264 178.303 359.978Z" fill="white"/>
<path d="M181.25 353.871L182.54 353.477L183.344 354.395C183.127 353.619 183.523 353.016 184.467 352.727C185.477 352.418 186.566 352.621 187.497 353.273C187.182 352.419 187.565 351.78 188.628 351.455C190.051 351.02 191.545 351.527 192.698 352.901L195.745 356.532L194.336 356.963L191.583 353.683C190.743 352.682 189.849 352.273 189.051 352.517C188.041 352.826 187.956 353.561 188.778 354.54L191.531 357.821L190.201 358.227L187.449 354.947C186.627 353.967 185.701 353.541 184.917 353.781C183.919 354.086 183.821 354.825 184.644 355.805L187.396 359.085L185.987 359.515L181.25 353.871Z" fill="white"/>
<path d="M192.736 350.36L194.145 349.929L198.882 355.573L197.472 356.004L192.736 350.36ZM192.013 349.537L191.11 348.461L192.586 348.01L193.488 349.086L192.013 349.537Z" fill="white"/>
<path d="M195.692 349.456L196.982 349.062L197.817 349.997C197.541 349.131 198.098 348.56 199.055 348.267C200.637 347.784 202.207 348.441 203.244 349.676L206.291 353.308L204.882 353.739L202.13 350.459C201.29 349.457 200.448 349.032 199.464 349.333C198.441 349.646 198.245 350.388 199.085 351.389L201.837 354.669L200.428 355.1L195.692 349.456Z" fill="white"/>
<path d="M204.255 348.966C203.578 347.741 204.123 346.718 205.745 346.222C207.66 345.636 209.425 346.167 210.721 347.712L212.481 349.81C212.722 350.097 212.971 350.155 213.25 350.069L213.53 349.984L214.271 350.868L213.833 351.002C213.203 351.208 212.268 351.387 211.531 350.608C211.668 351.249 211.268 351.947 210.098 352.305C208.675 352.74 207.049 352.474 206.209 351.473C205.262 350.344 206.035 349.693 207.451 348.952L209.204 348.015C208.431 347.113 207.537 346.825 206.514 347.138C205.689 347.39 205.43 347.897 205.78 348.593L204.255 348.966ZM207.653 351.004C208.002 351.42 208.74 351.622 209.671 351.338C210.712 351.006 211.036 350.158 210.017 348.944L209.955 348.869L208.631 349.541C207.777 349.977 207.055 350.291 207.653 351.004Z" fill="white"/>
<path d="M209.741 343.555L211.15 343.124L212.222 344.402L214.084 343.833L214.852 344.749L212.991 345.318L215.6 348.428C215.985 348.886 216.46 349.035 217.005 348.868L218.029 348.555L218.807 349.481L217.637 349.839C216.281 350.254 215.076 349.913 214.191 348.859L211.582 345.749L210.505 346.078L209.736 345.162L210.813 344.833L209.741 343.555Z" fill="white"/>
<path d="M217.045 346.474C215.543 344.685 215.886 343.122 217.933 342.496C219.621 341.979 221.804 342.45 223.55 344.432L223.867 344.79L218.802 346.338C219.78 347.364 220.976 347.774 222.079 347.437C222.771 347.226 223.132 346.7 222.955 346.072L224.502 345.706C224.993 346.908 224.319 347.957 222.884 348.396C220.836 349.021 218.546 348.263 217.045 346.474ZM218.123 345.489L221.672 344.403C220.61 343.377 219.535 343.21 218.737 343.454C217.714 343.767 217.505 344.513 218.123 345.489Z" fill="white"/>
<path d="M227.057 337.458L233.402 345.019L232.086 345.422L231.367 344.624C231.45 345.321 230.93 345.936 229.959 346.232C228.125 346.793 226.025 346.003 224.506 344.193C222.987 342.382 223.174 340.893 225.009 340.332C225.926 340.052 227.036 340.141 227.891 340.562L225.648 337.889L227.057 337.458ZM225.968 343.746C226.987 344.96 228.375 345.499 229.505 345.153C230.662 344.8 230.75 343.809 229.731 342.595C228.694 341.36 227.311 340.806 226.154 341.16C225.011 341.509 224.932 342.51 225.968 343.746Z" fill="white"/>
<path d="M454.059 271.656L455.339 271.265L461.344 277.704L460.063 278.096L454.059 271.656Z" fill="white"/>
<path d="M458.365 272.438L459.515 272.086L460.303 272.882C460.023 272.141 460.505 271.644 461.359 271.383C462.77 270.951 464.212 271.501 465.193 272.553L468.077 275.646L466.82 276.03L464.215 273.237C463.42 272.384 462.645 272.027 461.767 272.295C460.854 272.574 460.704 273.214 461.499 274.067L464.104 276.86L462.847 277.244L458.365 272.438Z" fill="white"/>
<path d="M470.626 270.857C469.929 270.289 468.983 270.124 468.271 270.341C467.204 270.668 467.159 271.486 468.14 272.538C469.121 273.59 470.333 274.023 471.4 273.697C472.148 273.469 472.418 272.908 471.922 272.197L473.289 271.849C474.148 273.032 473.625 274.089 472.179 274.531C470.352 275.09 468.256 274.46 466.836 272.937C465.415 271.413 465.667 270.065 467.493 269.507C468.893 269.079 470.708 269.375 471.88 270.404L470.626 270.857Z" fill="white"/>
<path d="M478.683 272.543C476.869 273.098 474.769 272.481 473.34 270.948C471.911 269.415 472.183 268.073 473.998 267.518C475.8 266.967 477.9 267.584 479.329 269.117C480.758 270.65 480.486 271.992 478.683 272.543ZM474.645 270.549C475.626 271.601 476.838 272.035 477.905 271.708C478.972 271.382 479.005 270.568 478.024 269.516C477.043 268.464 475.843 268.027 474.776 268.353C473.709 268.679 473.664 269.497 474.645 270.549Z" fill="white"/>
<path d="M478.18 266.38L479.33 266.028L480.089 266.81C479.865 266.144 480.201 265.622 481.043 265.365C481.944 265.089 482.935 265.252 483.799 265.804C483.484 265.073 483.806 264.52 484.755 264.23C486.024 263.842 487.391 264.263 488.482 265.433L491.366 268.525L490.109 268.91L487.504 266.116C486.709 265.264 485.887 264.921 485.175 265.138C484.274 265.414 484.224 266.047 485.002 266.881L487.607 269.675L486.421 270.037L483.816 267.244C483.038 266.409 482.187 266.052 481.487 266.266C480.598 266.538 480.536 267.174 481.314 268.009L483.919 270.802L482.662 271.186L478.18 266.38Z" fill="white"/>
<path d="M493.956 269.482L488.205 263.315L489.379 262.956L490.082 263.661C489.927 263.021 490.321 262.528 491.222 262.252C493.06 261.691 495.008 262.587 496.269 263.938C497.529 265.289 497.746 266.715 495.907 267.277C495.054 267.538 494.148 267.465 493.318 267.066L495.213 269.098L493.956 269.482ZM491.596 265.366C492.4 266.228 493.679 266.897 494.841 266.542C496.027 266.18 495.773 265.22 494.952 264.34C494.14 263.47 492.869 262.809 491.695 263.168C490.533 263.524 490.793 264.505 491.596 265.366Z" fill="white"/>
<path d="M496.361 262.674C495.705 261.628 496.16 260.743 497.606 260.301C499.314 259.779 500.927 260.218 502.154 261.533L503.82 263.319C504.048 263.564 504.275 263.611 504.524 263.535L504.773 263.459L505.475 264.212L505.084 264.331C504.523 264.515 503.684 264.678 502.991 264.016C503.138 264.565 502.802 265.169 501.758 265.488C500.489 265.876 499.011 265.664 498.216 264.811C497.319 263.85 497.994 263.282 499.246 262.631L500.795 261.808C500.064 261.041 499.247 260.801 498.334 261.081C497.598 261.305 497.383 261.744 497.724 262.339L496.361 262.674ZM499.503 264.394C499.833 264.748 500.507 264.915 501.337 264.661C502.266 264.366 502.527 263.633 501.563 262.599L501.504 262.536L500.333 263.127C499.577 263.509 498.937 263.787 499.503 264.394Z" fill="white"/>
<path d="M501.118 257.968L502.375 257.584L503.39 258.672L505.05 258.165L505.777 258.945L504.117 259.452L506.587 262.1C506.95 262.49 507.385 262.614 507.872 262.465L508.785 262.186L509.52 262.975L508.477 263.294C507.267 263.664 506.167 263.383 505.33 262.485L502.86 259.837L501.899 260.13L501.172 259.35L502.133 259.057L501.118 257.968Z" fill="white"/>
<path d="M506.109 257.841L507.366 257.457L511.848 262.263L510.591 262.648L506.109 257.841ZM505.425 257.141L504.571 256.225L505.887 255.822L506.742 256.738L505.425 257.141Z" fill="white"/>
<path d="M507.038 255.459L508.295 255.075L510.417 257.351C510.342 256.78 510.806 256.265 511.625 256.015C513.261 255.514 515.186 256.173 516.624 257.715C518.061 259.257 517.947 260.539 516.31 261.039C515.444 261.304 514.422 261.22 513.609 260.839L514.216 261.539L513.042 261.898L507.038 255.459ZM511.963 259.14C512.927 260.174 514.189 260.627 515.22 260.312C516.228 260.004 516.283 259.148 515.319 258.114C514.338 257.062 513.069 256.599 512.049 256.911C511.017 257.226 510.982 258.088 511.963 259.14Z" fill="white"/>
<path d="M514.04 253.318L515.297 252.934L520.262 258.258C520.465 258.475 520.72 258.537 520.993 258.454L521.503 258.298L522.239 259.087L521.456 259.326C520.614 259.583 519.656 259.34 519.047 258.687L514.04 253.318Z" fill="white"/>
<path d="M520.617 256.494C519.196 254.97 519.448 253.623 521.274 253.065C522.781 252.604 524.768 252.987 526.418 254.674L526.717 254.979L522.199 256.36C523.119 257.232 524.214 257.574 525.199 257.273C525.815 257.084 526.122 256.629 525.94 256.09L527.324 255.76C527.811 256.789 527.24 257.697 525.96 258.089C524.133 258.647 522.038 258.018 520.617 256.494ZM521.554 255.636L524.721 254.668C523.724 253.796 522.747 253.663 522.036 253.881C521.122 254.16 520.961 254.804 521.554 255.636Z" fill="white"/>
<path d="M450.948 7.10749C449.493 3.63855 444.392 1.03055 437.364 0.6622C434.57 0.515765 431.773 0.739111 429.149 1.26046L16.7545 94.6989C9.35671 96.4155 3.26163 100.141 1.33322 104.684C0.65399 106.284 0.553444 107.84 0.955085 109.29L60.9366 279.631C65.7103 292.445 76.57 295.166 89.8536 291.399L506.551 176.19C513.086 174.165 515.298 171.998 517.076 167.809C517.893 165.883 517.743 162.212 517.076 160.505L450.948 7.10749Z" stroke="url(#paint0_linear_4794_64137)" stroke-width="1.3407"/>
<g filter="url(#filter0_d_4794_64137)">
<path d="M407.006 342.485C419.216 350.186 425.904 364.439 422.424 377.513C422.066 376.46 421.526 377.13 420.49 377.14C423.417 364.754 417.16 351.549 405.955 344.296C405.425 343.952 405.2 343.308 405.458 342.811C405.731 342.284 406.439 342.127 407.006 342.485Z" fill="url(#paint1_linear_4794_64137)" fill-opacity="0.8"/>
<path d="M407.344 341.945C406.408 341.355 405.262 341.626 404.826 342.467C404.409 343.27 404.779 344.293 405.609 344.83C416.553 351.914 422.67 364.818 419.809 376.927L419.601 377.81L420.575 377.801C420.91 377.798 421.195 377.742 421.416 377.69C421.574 377.652 421.672 377.628 421.748 377.61C421.753 377.622 421.758 377.636 421.763 377.65L422.526 379.899L423.1 377.741C426.657 364.38 419.822 349.816 407.344 341.945Z" stroke="black" stroke-opacity="0.13" stroke-width="1.35912" stroke-linejoin="round"/>
<path d="M405.735 370.156C402.171 383.546 389.096 391.36 374.733 389.766C374.645 389.756 374.58 389.671 374.601 389.592C374.615 389.536 374.67 389.502 374.732 389.507C388.446 390.688 400.718 382.833 403.802 369.783C403.845 369.6 403.886 369.418 403.925 369.235L404.47 369.545L405.548 368.977L405.913 369.449C405.857 369.685 405.798 369.921 405.735 370.156Z" fill="url(#paint2_linear_4794_64137)" fill-opacity="0.8"/>
<path d="M405.16 368.389L404.416 368.781L404.232 368.677L403.418 368.212L403.242 369.034C403.204 369.213 403.163 369.392 403.121 369.57C400.107 382.328 388.112 390.001 374.717 388.848C374.342 388.815 374.014 389.024 373.924 389.364C373.796 389.845 374.191 390.364 374.73 390.424C389.408 392.052 402.769 384.068 406.412 370.384C406.476 370.144 406.536 369.903 406.594 369.662L406.664 369.364L406.458 369.097L406.093 368.625L405.693 368.108L405.16 368.389Z" stroke="black" stroke-opacity="0.13" stroke-width="1.35912"/>
<path d="M406.631 343.533C397.367 337.966 401.156 331.274 407.002 328.903C412.848 326.531 416.47 321.516 413.851 316.84" stroke="url(#paint3_linear_4794_64137)" stroke-width="2.23353" stroke-linecap="round"/>
<path d="M414.166 350.41C409.612 346.374 408.042 345.267 406.565 344.328C405.087 343.389 406.043 342.26 407.131 342.873C407.509 343.087 407.567 343.2 407.582 343.349C407.673 344.219 408.518 344.86 409.21 345.498C410.614 346.793 412.662 348.815 414.166 350.41Z" fill="url(#paint4_linear_4794_64137)"/>
<path d="M406.369 343.958C417.861 350.767 424.189 364.161 421.504 376.565C421.504 376.565 422.011 376.376 422.1 376.579C425.268 363.52 418.421 350.273 406.902 343.024C406.619 342.846 406.264 342.911 406.111 343.163C405.954 343.424 406.073 343.782 406.369 343.958Z" fill="url(#paint5_linear_4794_64137)"/>
<path d="M405.26 369.82C401.681 383.264 389.744 390.992 375.509 389.711C389.489 390.428 401.613 382.785 404.705 369.701C404.824 369.867 405.049 369.929 405.217 369.842L405.26 369.82Z" fill="url(#paint6_linear_4794_64137)"/>
</g>
<path d="M241.978 421.557C240.853 421.96 238.361 422.682 235.065 421.557C233.859 420.59 235.789 420.191 235.065 419.066C234.342 417.941 236.03 416.654 239.084 415.451C242.139 414.247 241.255 413.198 241.978 411.191C242.702 409.183 245.354 409.098 246.399 410.787C247.444 412.475 249.293 410.706 254.276 409.098C259.26 407.491 261.43 410.789 258.536 411.191C255.643 411.593 256.205 413.924 255 415.451C253.794 416.978 257.331 419.148 258.536 422.524C259.742 425.9 251.463 426.54 249.775 423.808C248.087 421.075 243.103 421.155 241.978 421.557Z" fill="url(#paint7_linear_4794_64137)" fill-opacity="0.1"/>
<path d="M232.407 450.949C231.282 450.225 233.875 449.02 233.407 446.949C232.282 444.778 228.796 444.466 231.609 443.421C234.422 442.376 239.084 443.984 240.612 445.35C242.139 446.717 246.399 446.476 248.73 446.476C251.061 446.476 251.543 442.939 253.553 441.01C255.562 439.081 257.652 441.572 256.205 442.939C254.759 444.305 254.276 446.476 255.804 446.878C257.331 447.279 259.501 445.752 263.681 446.476C267.861 447.199 262.716 452.343 261.269 450.816C259.823 449.289 256.768 450.012 255.804 451.54C254.839 453.067 256.125 454.916 257.652 457.568C259.18 460.221 255.482 458.292 253.553 457.568C251.624 456.845 251.383 459.738 248.167 461.185C244.952 462.632 244.309 458.774 247.203 455.88C250.097 452.987 247.203 452.343 245.274 451.54C243.345 450.736 241.978 449.611 240.21 448.405C238.441 447.199 237.033 450.334 235.907 451.54C234.782 452.745 233.533 451.672 232.407 450.949Z" fill="url(#paint8_linear_4794_64137)" fill-opacity="0.1"/>
<g filter="url(#filter1_d_4794_64137)">
<path fill-rule="evenodd" clip-rule="evenodd" d="M235.536 445.163C235.659 444.916 235.959 444.814 236.207 444.937C236.454 445.06 236.554 445.36 236.431 445.607C236.273 445.925 236.326 446.249 236.381 446.829C236.434 447.371 236.463 448.062 235.963 448.757C235.801 448.981 235.488 449.033 235.264 448.871C235.04 448.71 234.99 448.397 235.151 448.173C235.428 447.788 235.434 447.416 235.387 446.926C235.344 446.476 235.22 445.8 235.536 445.163ZM245.086 413.734C245.273 413.531 245.59 413.52 245.793 413.707C245.995 413.895 246.006 414.211 245.819 414.413C245.28 414.995 244.537 415.187 244.026 415.329C243.747 415.406 243.543 415.465 243.384 415.542C243.237 415.614 243.183 415.677 243.158 415.733C243.044 415.984 242.748 416.096 242.497 415.982C242.246 415.868 242.134 415.572 242.248 415.321C242.403 414.978 242.677 414.775 242.945 414.644C243.202 414.518 243.503 414.436 243.759 414.365C244.318 414.21 244.77 414.074 245.086 413.734Z" fill="white"/>
</g>
<g filter="url(#filter2_d_4794_64137)">
<path d="M220.012 407.251C227.296 403.178 230.557 394.755 228.36 387.106C228.347 387.058 228.292 387.036 228.25 387.06C228.219 387.077 228.204 387.112 228.213 387.146C230.117 394.503 226.76 402.492 219.627 406.246C212.856 409.809 204.795 408.451 199.668 403.432C199.425 403.194 199.039 403.172 198.78 403.392C198.505 403.625 198.48 404.04 198.735 404.297C204.207 409.797 212.901 411.227 220.012 407.251Z" fill="url(#paint9_linear_4794_64137)" fill-opacity="0.8"/>
<path d="M198.314 404.712C197.806 404.201 197.869 403.389 198.394 402.942C198.897 402.515 199.63 402.568 200.084 403.011C205.027 407.85 212.808 409.165 219.348 405.724C226.238 402.098 229.474 394.386 227.638 387.292C227.563 387.002 227.691 386.694 227.957 386.545C228.335 386.334 228.812 386.53 228.931 386.945C231.202 394.852 227.831 403.558 220.304 407.767C212.956 411.875 203.971 410.397 198.314 404.712Z" stroke="black" stroke-opacity="0.13" stroke-width="1.18478"/>
<path d="M199.295 403.924C195.3 399.706 191.841 402.846 191.02 406.435C190.199 410.025 187.677 412.808 184.786 412.105" stroke="url(#paint10_linear_4794_64137)" stroke-width="1.94701" stroke-linecap="round"/>
<path d="M203.88 406.983C201.178 405.115 200.408 404.426 199.742 403.761C199.076 403.097 198.52 403.801 198.967 404.302C199.471 404.868 200.321 404.827 200.959 405.237C201.808 405.783 202.958 406.474 203.88 406.983Z" fill="url(#paint11_linear_4794_64137)"/>
<path d="M219.779 407.042C227.091 402.953 230.407 395.169 228.399 387.54C230.063 395.117 226.813 402.991 219.661 406.755C212.807 410.363 204.479 409.029 199.514 403.712C199.387 403.577 199.173 403.568 199.039 403.695C198.909 403.819 198.905 404.025 199.032 404.153C204.263 409.424 212.572 411.072 219.779 407.042Z" fill="url(#paint12_linear_4794_64137)"/>
</g>
<g filter="url(#filter3_d_4794_64137)">
<path d="M253.936 442.21C251.666 450.24 255.316 458.503 262.278 462.358C262.321 462.382 262.375 462.359 262.388 462.312C262.398 462.278 262.383 462.243 262.354 462.225C255.805 458.37 252.529 450.347 254.919 442.648C257.187 435.341 263.848 430.601 271.022 430.525C271.362 430.521 271.651 430.264 271.678 429.926C271.707 429.566 271.431 429.255 271.07 429.254C263.311 429.234 256.153 434.371 253.936 442.21Z" fill="url(#paint13_linear_4794_64137)" fill-opacity="0.8"/>
<path d="M271.074 428.662C271.795 428.664 272.325 429.283 272.269 429.97C272.216 430.628 271.659 431.109 271.026 431.116C264.109 431.19 257.676 435.762 255.486 442.82C253.178 450.256 256.342 457.998 262.657 461.716C262.915 461.868 263.042 462.176 262.959 462.469C262.842 462.886 262.365 463.084 261.988 462.875C254.791 458.89 251.018 450.35 253.365 442.052C255.655 433.95 263.054 428.642 271.074 428.662Z" stroke="black" stroke-opacity="0.13" stroke-width="1.18478"/>
<path d="M270.937 429.913C276.744 430.071 276.97 425.405 275.012 422.286C273.054 419.168 272.87 415.416 275.412 413.869" stroke="url(#paint14_linear_4794_64137)" stroke-width="1.94701" stroke-linecap="round"/>
<path d="M265.532 430.991C268.764 430.401 269.796 430.344 270.737 430.343C271.678 430.343 271.573 429.452 270.902 429.413C270.146 429.369 269.574 430 268.833 430.161C267.846 430.375 266.545 430.699 265.532 430.991Z" fill="url(#paint15_linear_4794_64137)"/>
<path d="M254.248 442.193C251.969 450.255 255.129 458.104 261.943 462.078C255.408 457.897 252.138 450.031 254.534 442.312C256.83 434.914 263.662 429.969 270.932 430.217C271.118 430.224 271.276 430.079 271.28 429.894C271.284 429.714 271.142 429.566 270.962 429.565C263.535 429.537 256.495 434.247 254.248 442.193Z" fill="url(#paint16_linear_4794_64137)"/>
</g>
<circle cx="252.408" cy="412.949" r="0.5" fill="white" fill-opacity="0.5"/>
<circle cx="250.408" cy="450.949" r="0.5" fill="url(#paint17_radial_4794_64137)" fill-opacity="0.5"/>
<circle cx="260.408" cy="447.949" r="0.5" fill="white" fill-opacity="0.5"/>
<path d="M615.159 278.514L606.358 270.202L597.037 288.713C591.456 291.313 586.33 293.283 581.132 288.713C569.533 278.514 573.144 250.571 573.306 235.401L561.929 224.839L556.403 275.063C578.37 291.012 575.609 323.325 574.958 325.015C574.146 327.128 566.451 336.253 552.323 342.255C538.195 348.257 533.947 346.179 529.422 345.625C525.803 345.182 517.433 338.674 513.701 335.475C515.82 338.327 521.818 344.668 528.859 347.21C537.66 350.388 548.906 345.499 553.306 344.032C557.707 342.565 590.223 325.452 596.09 318.117C600.784 312.25 610.759 289.271 615.159 278.514Z" fill="url(#paint18_linear_4794_64137)"/>
<path d="M609.191 202.989C628.319 210.35 637.855 231.832 630.49 250.97C624.582 266.323 613.046 280.701 601.896 292.344C588.08 306.769 565.75 322.215 565.701 322.249L561.508 320.636C561.48 320.516 555.28 294.124 554.7 274.181C554.232 258.067 555.311 239.665 561.219 224.312C568.584 205.174 590.062 195.627 609.191 202.989ZM603.915 216.699C591.803 212.038 578.205 218.083 573.542 230.2C569.807 239.906 565.42 261.826 567.043 276.153C567.524 279.209 570.294 279.953 573.165 279.859C577.336 279.722 581.616 281.134 584.71 283.935C586.845 285.868 589.363 287.191 591.415 285.532C601.311 277.679 613.659 256.799 617.4 247.078C622.063 234.962 616.025 221.36 603.915 216.699Z" fill="url(#paint19_linear_4794_64137)"/>
<path d="M609.191 202.989L609.449 202.319L609.449 202.319L609.191 202.989ZM630.49 250.97L631.161 251.228V251.228L630.49 250.97ZM601.896 292.344L602.414 292.84V292.84L601.896 292.344ZM565.701 322.249L565.443 322.92L565.797 323.056L566.109 322.84L565.701 322.249ZM561.508 320.636L560.809 320.8L560.896 321.17L561.25 321.306L561.508 320.636ZM554.7 274.181L553.983 274.202L553.983 274.202L554.7 274.181ZM561.219 224.312L560.549 224.054V224.054L561.219 224.312ZM603.915 216.699L604.173 216.029L604.172 216.029L603.915 216.699ZM573.542 230.2L572.872 229.942L572.872 229.942L573.542 230.2ZM567.043 276.153L566.33 276.234L566.331 276.249L566.334 276.265L567.043 276.153ZM573.165 279.859L573.141 279.141L573.141 279.141L573.165 279.859ZM584.71 283.935L584.228 284.468L584.228 284.468L584.71 283.935ZM591.415 285.532L590.969 284.969L590.964 284.974L591.415 285.532ZM617.4 247.078L618.071 247.336L618.071 247.336L617.4 247.078ZM609.191 202.989L608.933 203.659C627.691 210.878 637.043 231.944 629.82 250.712L630.49 250.97L631.161 251.228C638.668 231.72 628.948 209.823 609.449 202.319L609.191 202.989ZM630.49 250.97L629.82 250.712C623.964 265.93 612.507 280.226 601.377 291.847L601.896 292.344L602.414 292.84C613.585 281.176 625.201 266.715 631.161 251.228L630.49 250.97ZM601.896 292.344L601.377 291.847C587.619 306.213 565.347 321.621 565.292 321.659L565.701 322.249L566.109 322.84C566.152 322.81 588.541 307.326 602.414 292.84L601.896 292.344ZM565.701 322.249L565.959 321.579L561.766 319.966L561.508 320.636L561.25 321.306L565.443 322.92L565.701 322.249ZM561.508 320.636L562.207 320.472C562.178 320.345 555.996 294.02 555.418 274.16L554.7 274.181L553.983 274.202C554.565 294.227 560.783 320.688 560.809 320.8L561.508 320.636ZM554.7 274.181L555.418 274.16C554.951 258.076 556.033 239.789 561.889 224.57L561.219 224.312L560.549 224.054C554.589 239.541 553.513 258.057 553.983 274.202L554.7 274.181ZM561.219 224.312L561.889 224.57C569.112 205.802 590.174 196.44 608.933 203.659L609.191 202.989L609.449 202.319C589.949 194.815 568.056 204.546 560.549 224.054L561.219 224.312ZM603.915 216.699L604.172 216.029C591.691 211.225 577.677 217.455 572.872 229.942L573.542 230.2L574.212 230.458C578.733 218.711 591.916 212.851 603.657 217.369L603.915 216.699ZM573.542 230.2L572.872 229.942C570.98 234.857 568.94 242.815 567.574 251.33C566.209 259.842 565.508 268.977 566.33 276.234L567.043 276.153L567.757 276.072C566.956 269.002 567.636 260.014 568.993 251.557C570.348 243.104 572.368 235.249 574.212 230.458L573.542 230.2ZM567.043 276.153L566.334 276.265C566.612 278.033 567.578 279.174 568.887 279.829C570.153 280.463 571.702 280.625 573.188 280.576L573.165 279.859L573.141 279.141C571.758 279.186 570.486 279.024 569.529 278.545C568.615 278.087 567.955 277.329 567.753 276.041L567.043 276.153ZM573.165 279.859L573.188 280.576C577.192 280.445 581.286 281.804 584.228 284.468L584.71 283.935L585.192 283.403C581.947 280.465 577.48 278.998 573.141 279.141L573.165 279.859ZM584.71 283.935L584.228 284.468C585.326 285.462 586.58 286.355 587.877 286.765C589.21 287.188 590.616 287.102 591.867 286.091L591.415 285.532L590.964 284.974C590.162 285.622 589.283 285.704 588.311 285.396C587.301 285.077 586.229 284.342 585.192 283.403L584.71 283.935ZM591.415 285.532L591.862 286.095C596.906 282.092 602.519 274.826 607.319 267.395C612.127 259.954 616.176 252.259 618.071 247.336L617.4 247.078L616.73 246.821C614.884 251.619 610.889 259.223 606.113 266.616C601.33 274.019 595.821 281.119 590.969 284.97L591.415 285.532ZM617.4 247.078L618.071 247.336C622.876 234.85 616.654 220.832 604.173 216.029L603.915 216.699L603.657 217.369C615.397 221.888 621.251 235.073 616.73 246.821L617.4 247.078Z" fill="white"/>
<path d="M604.897 214.148C618.29 219.302 625.431 234.248 620.275 247.647C615.118 261.046 603.206 279.866 592.263 288.55C589.994 290.385 586.573 289.205 584.212 287.067C580.791 283.969 576.058 282.407 571.445 282.559C568.271 282.663 564.926 281.204 564.394 277.825C562.599 261.982 565.897 242.104 571.054 228.705C576.21 215.306 591.505 208.994 604.897 214.148Z" stroke="white" stroke-width="0.766104"/>
<path d="M565.584 322.678C565.877 321.929 561.848 320.35 561.554 321.102C561.405 321.481 561.582 321.906 561.944 322.091C562.078 322.16 562.179 322.216 562.174 322.228C561.587 323.745 559.071 330.278 558.516 331.588C558.336 332.013 558.375 332.353 558.3 332.502C552.689 343.698 539.457 348.876 528.084 344.39C520.189 341.276 514.968 334.205 513.61 326.121C513.156 323.417 513.956 323.043 514.544 318.836C514.892 316.341 514.656 310.95 514.08 309.894C512.993 310.669 511.265 316.307 510.97 318.067C510.51 320.817 511.079 323.007 511.494 325.68C512.855 334.445 518.698 342.275 527.542 345.763C540.116 350.723 554.245 345.127 560.144 333.229C560.218 333.08 560.6 332.704 560.779 332.279C561.335 330.962 563.81 324.536 564.376 323.075C564.381 323.062 564.504 323.091 564.661 323.134C565.041 323.236 565.44 323.044 565.584 322.678Z" fill="url(#paint20_linear_4794_64137)" fill-opacity="0.8"/>
<path d="M566.126 322.891C565.9 323.465 565.327 323.79 564.745 323.738C563.963 325.759 561.83 331.287 561.316 332.505C561.197 332.788 561.019 333.037 560.885 333.212C560.823 333.292 560.745 333.39 560.709 333.436C560.653 333.508 560.654 333.513 560.666 333.488C554.633 345.654 540.186 351.376 527.328 346.305C518.283 342.738 512.31 334.73 510.918 325.769C510.513 323.159 509.916 320.84 510.395 317.971C510.55 317.044 511.068 315.159 511.677 313.419C511.983 312.545 512.319 311.69 512.652 310.998C512.818 310.653 512.988 310.337 513.159 310.076C513.323 309.826 513.517 309.581 513.743 309.42L514.277 309.038L514.592 309.616C514.702 309.816 514.782 310.075 514.846 310.342C514.913 310.62 514.971 310.947 515.021 311.304C515.122 312.02 515.196 312.89 515.24 313.797C515.328 315.603 515.303 317.616 515.121 318.916C514.823 321.052 514.465 322.243 514.255 323.17C514.052 324.065 513.973 324.758 514.185 326.025C515.512 333.925 520.609 340.815 528.297 343.848C539.37 348.215 552.273 343.186 557.762 332.274C557.763 332.271 557.764 332.267 557.764 332.263C557.773 332.208 557.776 332.173 557.791 332.067C557.817 331.888 557.86 331.64 557.979 331.361C558.485 330.164 560.655 324.54 561.456 322.467C560.995 322.107 560.78 321.477 561.012 320.888C561.156 320.522 561.495 320.395 561.711 320.352C561.938 320.307 562.19 320.318 562.424 320.348C562.901 320.41 563.472 320.577 564.002 320.785C564.531 320.992 565.063 321.256 565.456 321.534C565.648 321.671 565.842 321.834 565.978 322.021C566.107 322.197 566.271 322.521 566.127 322.89L566.126 322.891Z" stroke="black" stroke-opacity="0.13" stroke-width="1.16545"/>
<path d="M563.692 323.663C563.873 323.205 562.995 322.733 562.815 323.191C562.603 323.728 560 330.501 559.388 331.946C559.208 332.371 559.247 332.711 559.172 332.86C553.561 344.056 539.389 349.099 528.016 344.613C520.121 341.499 514.729 334.22 513.372 326.135C512.918 323.431 513.445 322.874 514.032 318.668C514.381 316.173 514.616 311.909 514.041 310.854C513.428 322.261 511.517 320.829 512.197 325.206C513.558 333.971 518.939 341.558 527.783 345.047C540.357 350.006 553.801 345.088 559.701 333.19C559.775 333.041 560.156 332.665 560.336 332.239C560.946 330.794 563.481 324.199 563.692 323.663Z" fill="url(#paint21_linear_4794_64137)"/>
<path d="M563.56 321.95C562.58 321.573 562.201 321.531 561.922 321.523C561.782 321.519 561.691 321.382 561.742 321.25C561.789 321.057 562.519 321.102 563.658 321.518C564.758 321.92 565.419 322.44 565.358 322.598C565.306 322.733 565.14 322.777 565.025 322.69C564.785 322.508 564.43 322.285 563.56 321.95Z" fill="url(#paint22_linear_4794_64137)"/>
<path d="M559.203 332.697L559.273 332.295C559.296 332.162 559.231 332.028 559.111 331.964C558.904 331.853 558.652 331.999 558.608 332.229C558.588 332.332 558.562 332.426 558.529 332.489C558.412 332.706 558.773 332.9 556.666 335.957C555.402 337.792 552.983 340.217 551.774 341.429C552.451 340.862 555.093 338.576 556.184 337.374C557.376 336.063 558.54 334.019 559.111 332.963C559.156 332.88 559.187 332.791 559.203 332.697Z" fill="url(#paint23_linear_4794_64137)"/>
<defs>
<filter id="filter0_d_4794_64137" x="347.412" y="310.568" width="101.602" height="94.3982" filterUnits="userSpaceOnUse" color-interpolation-filters="sRGB">
<feFlood flood-opacity="0" result="BackgroundImageFix"/>
<feColorMatrix in="SourceAlpha" type="matrix" values="0 0 0 0 0 0 0 0 0 0 0 0 0 0 0 0 0 0 127 0" result="hardAlpha"/>
<feOffset dy="4"/>
<feGaussianBlur stdDeviation="2"/>
<feComposite in2="hardAlpha" operator="out"/>
<feColorMatrix type="matrix" values="0 0 0 0 0 0 0 0 0 0 0 0 0 0 0 0 0 0 0.25 0"/>
<feBlend mode="normal" in2="BackgroundImageFix" result="effect1_dropShadow_4794_64137"/>
<feBlend mode="normal" in="SourceGraphic" in2="effect1_dropShadow_4794_64137" result="shape"/>
</filter>
<filter id="filter1_d_4794_64137" x="231.057" y="413.574" width="18.8965" height="43.3916" filterUnits="userSpaceOnUse" color-interpolation-filters="sRGB">
<feFlood flood-opacity="0" result="BackgroundImageFix"/>
<feColorMatrix in="SourceAlpha" type="matrix" values="0 0 0 0 0 0 0 0 0 0 0 0 0 0 0 0 0 0 127 0" result="hardAlpha"/>
<feOffset dy="4"/>
<feGaussianBlur stdDeviation="2"/>
<feComposite in2="hardAlpha" operator="out"/>
<feColorMatrix type="matrix" values="0 0 0 0 0 0 0 0 0 0 0 0 0 0 0 0 0 0 0.25 0"/>
<feBlend mode="normal" in2="BackgroundImageFix" result="effect1_dropShadow_4794_64137"/>
<feBlend mode="normal" in="SourceGraphic" in2="effect1_dropShadow_4794_64137" result="shape"/>
</filter>
<filter id="filter2_d_4794_64137" x="179.249" y="383.722" width="59.2765" height="40.9708" filterUnits="userSpaceOnUse" color-interpolation-filters="sRGB">
<feFlood flood-opacity="0" result="BackgroundImageFix"/>
<feColorMatrix in="SourceAlpha" type="matrix" values="0 0 0 0 0 0 0 0 0 0 0 0 0 0 0 0 0 0 127 0" result="hardAlpha"/>
<feOffset dy="3.48688"/>
<feGaussianBlur stdDeviation="1.74344"/>
<feComposite in2="hardAlpha" operator="out"/>
<feColorMatrix type="matrix" values="0 0 0 0 0 0 0 0 0 0 0 0 0 0 0 0 0 0 0.25 0"/>
<feBlend mode="normal" in2="BackgroundImageFix" result="effect1_dropShadow_4794_64137"/>
<feBlend mode="normal" in="SourceGraphic" in2="effect1_dropShadow_4794_64137" result="shape"/>
</filter>
<filter id="filter3_d_4794_64137" x="232.421" y="408.449" width="67.9972" height="67.9972" filterUnits="userSpaceOnUse" color-interpolation-filters="sRGB">
<feFlood flood-opacity="0" result="BackgroundImageFix"/>
<feColorMatrix in="SourceAlpha" type="matrix" values="0 0 0 0 0 0 0 0 0 0 0 0 0 0 0 0 0 0 127 0" result="hardAlpha"/>
<feOffset dy="3.48688"/>
<feGaussianBlur stdDeviation="1.74344"/>
<feComposite in2="hardAlpha" operator="out"/>
<feColorMatrix type="matrix" values="0 0 0 0 0 0 0 0 0 0 0 0 0 0 0 0 0 0 0.25 0"/>
<feBlend mode="normal" in2="BackgroundImageFix" result="effect1_dropShadow_4794_64137"/>
<feBlend mode="normal" in="SourceGraphic" in2="effect1_dropShadow_4794_64137" result="shape"/>
</filter>
<linearGradient id="paint0_linear_4794_64137" x1="266.85" y1="242.592" x2="251.045" y2="154.719" gradientUnits="userSpaceOnUse">
<stop stop-color="white"/>
<stop offset="1" stop-color="#999999" stop-opacity="0"/>
</linearGradient>
<linearGradient id="paint1_linear_4794_64137" x1="392.335" y1="404.34" x2="424.659" y2="405.499" gradientUnits="userSpaceOnUse">
<stop stop-color="white"/>
<stop offset="1" stop-color="white" stop-opacity="0.5"/>
</linearGradient>
<linearGradient id="paint2_linear_4794_64137" x1="375.647" y1="396.982" x2="407.97" y2="398.142" gradientUnits="userSpaceOnUse">
<stop stop-color="white"/>
<stop offset="1" stop-color="white" stop-opacity="0.5"/>
</linearGradient>
<linearGradient id="paint3_linear_4794_64137" x1="399.772" y1="343.683" x2="404.002" y2="329.666" gradientUnits="userSpaceOnUse">
<stop stop-color="white"/>
<stop offset="1" stop-color="white" stop-opacity="0.2"/>
</linearGradient>
<linearGradient id="paint4_linear_4794_64137" x1="407.848" y1="345.385" x2="401.321" y2="330.126" gradientUnits="userSpaceOnUse">
<stop stop-opacity="0.4"/>
<stop offset="1" stop-color="#666666" stop-opacity="0"/>
</linearGradient>
<linearGradient id="paint5_linear_4794_64137" x1="411.735" y1="348.493" x2="397.948" y2="357.555" gradientUnits="userSpaceOnUse">
<stop stop-color="white"/>
<stop offset="1" stop-color="white" stop-opacity="0.5"/>
</linearGradient>
<linearGradient id="paint6_linear_4794_64137" x1="395.046" y1="341.136" x2="381.259" y2="350.197" gradientUnits="userSpaceOnUse">
<stop stop-color="white"/>
<stop offset="1" stop-color="white" stop-opacity="0.5"/>
</linearGradient>
<linearGradient id="paint7_linear_4794_64137" x1="247.956" y1="462.46" x2="238.446" y2="410.761" gradientUnits="userSpaceOnUse">
<stop stop-color="#D9D9D9"/>
<stop offset="1" stop-color="#D9D9D9" stop-opacity="0.5"/>
</linearGradient>
<linearGradient id="paint8_linear_4794_64137" x1="247.956" y1="462.46" x2="238.446" y2="410.761" gradientUnits="userSpaceOnUse">
<stop stop-color="#D9D9D9"/>
<stop offset="1" stop-color="#D9D9D9" stop-opacity="0.5"/>
</linearGradient>
<linearGradient id="paint9_linear_4794_64137" x1="232.541" y1="386.47" x2="237.894" y2="403.504" gradientUnits="userSpaceOnUse">
<stop stop-color="white"/>
<stop offset="1" stop-color="white" stop-opacity="0.5"/>
</linearGradient>
<linearGradient id="paint10_linear_4794_64137" x1="198.763" y1="400.127" x2="190.94" y2="404.196" gradientUnits="userSpaceOnUse">
<stop stop-color="white"/>
<stop offset="1" stop-color="white" stop-opacity="0.2"/>
</linearGradient>
<linearGradient id="paint11_linear_4794_64137" x1="200.458" y1="404.3" x2="191.464" y2="402.072" gradientUnits="userSpaceOnUse">
<stop stop-opacity="0.4"/>
<stop offset="1" stop-color="#666666" stop-opacity="0"/>
</linearGradient>
<linearGradient id="paint12_linear_4794_64137" x1="202.571" y1="405.948" x2="205.594" y2="396.648" gradientUnits="userSpaceOnUse">
<stop stop-color="white"/>
<stop offset="1" stop-color="white" stop-opacity="0.5"/>
</linearGradient>
<linearGradient id="paint13_linear_4794_64137" x1="259.771" y1="465.764" x2="243.94" y2="457.504" gradientUnits="userSpaceOnUse">
<stop stop-color="white"/>
<stop offset="1" stop-color="white" stop-opacity="0.5"/>
</linearGradient>
<linearGradient id="paint14_linear_4794_64137" x1="273.997" y1="432.222" x2="276.652" y2="423.813" gradientUnits="userSpaceOnUse">
<stop stop-color="white"/>
<stop offset="1" stop-color="white" stop-opacity="0.2"/>
</linearGradient>
<linearGradient id="paint15_linear_4794_64137" x1="269.849" y1="430.468" x2="277.784" y2="425.684" gradientUnits="userSpaceOnUse">
<stop stop-opacity="0.4"/>
<stop offset="1" stop-color="#666666" stop-opacity="0"/>
</linearGradient>
<linearGradient id="paint16_linear_4794_64137" x1="267.189" y1="430.798" x2="271.628" y2="439.512" gradientUnits="userSpaceOnUse">
<stop stop-color="white"/>
<stop offset="1" stop-color="white" stop-opacity="0.5"/>
</linearGradient>
<radialGradient id="paint17_radial_4794_64137" cx="0" cy="0" r="1" gradientUnits="userSpaceOnUse" gradientTransform="translate(250.408 450.449) rotate(90) scale(1 0.786487)">
<stop stop-color="white"/>
<stop offset="1" stop-color="#999999"/>
</radialGradient>
<linearGradient id="paint18_linear_4794_64137" x1="594.941" y1="255.937" x2="541.363" y2="345.971" gradientUnits="userSpaceOnUse">
<stop offset="0.144005" stop-opacity="0.6"/>
<stop offset="0.489271" stop-opacity="0.1"/>
<stop offset="0.912099" stop-opacity="0.6"/>
</linearGradient>
<linearGradient id="paint19_linear_4794_64137" x1="609.19" y1="202.989" x2="563.605" y2="321.443" gradientUnits="userSpaceOnUse">
<stop offset="0.0144231" stop-color="#454353"/>
<stop offset="0.980769" stop-color="#292738"/>
</linearGradient>
<linearGradient id="paint20_linear_4794_64137" x1="544.085" y1="355.961" x2="519.852" y2="309.92" gradientUnits="userSpaceOnUse">
<stop stop-color="white"/>
<stop offset="1" stop-color="white" stop-opacity="0.5"/>
</linearGradient>
<linearGradient id="paint21_linear_4794_64137" x1="548.586" y1="322.441" x2="546.617" y2="334.359" gradientUnits="userSpaceOnUse">
<stop stop-color="white"/>
<stop offset="1" stop-color="white" stop-opacity="0.5"/>
</linearGradient>
<linearGradient id="paint22_linear_4794_64137" x1="548.586" y1="322.441" x2="546.617" y2="334.359" gradientUnits="userSpaceOnUse">
<stop stop-color="white"/>
<stop offset="1" stop-color="white" stop-opacity="0.5"/>
</linearGradient>
<linearGradient id="paint23_linear_4794_64137" x1="558.661" y1="331.722" x2="553.655" y2="341.043" gradientUnits="userSpaceOnUse">
<stop stop-opacity="0.4"/>
<stop offset="1" stop-color="#666666" stop-opacity="0"/>
</linearGradient>
</defs>
</svg>
