<svg width="24" height="24" viewBox="0 0 24 24" fill="none" xmlns="http://www.w3.org/2000/svg">
<path fill-rule="evenodd" clip-rule="evenodd" d="M4 16.1894C4.00002 16.0939 4.01968 16.0019 4.05566 15.9179C4.05754 15.9143 4.05785 15.9108 4.05957 15.9071C4.09958 15.8154 4.15846 15.7308 4.23047 15.662L7.43652 12.5985C7.74058 12.3081 8.23503 12.3081 8.53906 12.5985C8.69093 12.7437 8.76653 12.9349 8.7666 13.1239C8.7666 13.313 8.69082 13.5041 8.53906 13.6493L6.6582 15.4462L19.2227 15.4462C19.6526 15.4463 20.0009 15.7786 20.001 16.1894C20.001 16.6002 19.6526 16.9324 19.2227 16.9325L6.6582 16.9325L8.53906 18.7294C8.84279 19.0198 8.84277 19.4917 8.54102 19.7821C8.23697 20.0726 7.74252 20.0726 7.43848 19.7821L4.23047 16.7167C4.15846 16.6479 4.09958 16.5643 4.05957 16.4726C4.05757 16.4688 4.05766 16.4647 4.05566 16.4609C4.0197 16.3768 4 16.2849 4 16.1894ZM4 7.80753C4 7.39676 4.34831 7.06437 4.77832 7.06437L17.3428 7.06437L15.4619 5.26847C15.1582 4.97814 15.1583 4.50611 15.46 4.21573C15.764 3.92533 16.2585 3.92533 16.5625 4.21573L19.7705 7.28019C19.8424 7.34888 19.9004 7.43276 19.9404 7.52433C19.9424 7.5281 19.9424 7.53228 19.9443 7.53605C19.9803 7.62011 20.001 7.712 20.001 7.80753C20.001 7.90303 19.9803 7.99497 19.9443 8.07902C19.9425 8.08263 19.9422 8.08614 19.9404 8.08976C19.9004 8.18146 19.8425 8.2661 19.7705 8.33488L16.5625 11.3993C16.2585 11.6897 15.764 11.6897 15.46 11.3993C15.1562 11.1071 15.1562 10.637 15.46 10.3466L17.3408 8.5507L4.77832 8.5507C4.34833 8.5507 4.00004 8.21827 4 7.80753Z" fill="white"/>
</svg>
