<svg width="1916" height="441" viewBox="0 0 1916 441" fill="none" xmlns="http://www.w3.org/2000/svg">
<rect x="1096.55" y="65.1172" width="259" height="57" rx="11.5" fill="url(#paint0_linear_4245_155357)" fill-opacity="0.1"/>
<rect x="1096.55" y="65.1172" width="259" height="57" rx="11.5" stroke="url(#paint1_linear_4245_155357)"/>
<rect x="1316.04" y="81.6172" width="24" height="24" rx="2" stroke="white"/>
<path d="M1334.89 90.6064C1335.09 90.8224 1335.09 91.1707 1334.88 91.3842L1327.01 99.4584C1326.81 99.6634 1326.49 99.6708 1326.28 99.4752L1321.21 94.7224C1321 94.5188 1320.98 94.171 1321.18 93.9456L1322.83 92.0414C1323.03 91.8161 1323.37 91.7985 1323.58 92.0022L1326.42 94.6637C1326.49 94.7289 1326.6 94.7265 1326.66 94.6581L1332.4 88.776C1332.61 88.5625 1332.94 88.5645 1333.15 88.7806L1334.89 90.6064Z" stroke="white"/>
<path d="M1118.5 102.117L1124.05 93.6341L1118.55 85.1986H1120.98L1125.39 92.0137L1129.75 85.1986H1132.13L1126.63 93.5864L1132.23 102.117H1129.8L1125.34 95.2068L1120.89 102.117H1118.5ZM1134.95 102.117L1140.51 93.6341L1135 85.1986H1137.43L1141.84 92.0137L1146.2 85.1986H1148.58L1143.08 93.5864L1148.68 102.117H1146.25L1141.79 95.2068L1137.34 102.117H1134.95ZM1151.4 102.117L1156.96 93.6341L1151.45 85.1986H1153.88L1158.29 92.0137L1162.65 85.1986H1165.03L1159.53 93.5864L1165.13 102.117H1162.7L1158.24 95.2068L1153.79 102.117H1151.4ZM1167.86 102.117L1173.41 93.6341L1167.9 85.1986H1170.33L1174.74 92.0137L1179.1 85.1986H1181.49L1175.98 93.5864L1181.58 102.117H1179.15L1174.69 95.2068L1170.24 102.117H1167.86Z" fill="white"/>
<g opacity="0.5">
<rect x="1096.55" y="133.117" width="259" height="57" rx="11.5" fill="url(#paint2_linear_4245_155357)" fill-opacity="0.1"/>
<rect x="1096.55" y="133.117" width="259" height="57" rx="11.5" stroke="url(#paint3_linear_4245_155357)"/>
<rect x="1316.04" y="149.617" width="24" height="24" rx="2" stroke="white"/>
<path d="M1334.89 158.606C1335.09 158.822 1335.09 159.171 1334.88 159.384L1327.01 167.458C1326.81 167.663 1326.49 167.671 1326.28 167.475L1321.21 162.722C1321 162.519 1320.98 162.171 1321.18 161.946L1322.83 160.041C1323.03 159.816 1323.37 159.798 1323.58 160.002L1326.42 162.664C1326.49 162.729 1326.6 162.726 1326.66 162.658L1332.4 156.776C1332.61 156.562 1332.94 156.565 1333.15 156.781L1334.89 158.606Z" stroke="white"/>
<path d="M1118.5 170.117L1124.05 161.634L1118.55 153.199H1120.98L1125.39 160.014L1129.75 153.199H1132.13L1126.63 161.586L1132.23 170.117H1129.8L1125.34 163.207L1120.89 170.117H1118.5ZM1134.95 170.117L1140.51 161.634L1135 153.199H1137.43L1141.84 160.014L1146.2 153.199H1148.58L1143.08 161.586L1148.68 170.117H1146.25L1141.79 163.207L1137.34 170.117H1134.95ZM1151.4 170.117L1156.96 161.634L1151.45 153.199H1153.88L1158.29 160.014L1162.65 153.199H1165.03L1159.53 161.586L1165.13 170.117H1162.7L1158.24 163.207L1153.79 170.117H1151.4ZM1167.86 170.117L1173.41 161.634L1167.9 153.199H1170.33L1174.74 160.014L1179.1 153.199H1181.49L1175.98 161.586L1181.58 170.117H1179.15L1174.69 163.207L1170.24 170.117H1167.86Z" fill="white"/>
</g>
<g opacity="0.1">
<rect x="1096.55" y="201.117" width="259" height="57" rx="11.5" fill="url(#paint4_linear_4245_155357)" fill-opacity="0.1"/>
<rect x="1096.55" y="201.117" width="259" height="57" rx="11.5" stroke="url(#paint5_linear_4245_155357)"/>
<rect x="1316.04" y="217.617" width="24" height="24" rx="2" stroke="white"/>
<path d="M1334.89 226.606C1335.09 226.822 1335.09 227.171 1334.88 227.384L1327.01 235.458C1326.81 235.663 1326.49 235.671 1326.28 235.475L1321.21 230.722C1321 230.519 1320.98 230.171 1321.18 229.946L1322.83 228.041C1323.03 227.816 1323.37 227.798 1323.58 228.002L1326.42 230.664C1326.49 230.729 1326.6 230.726 1326.66 230.658L1332.4 224.776C1332.61 224.562 1332.94 224.565 1333.15 224.781L1334.89 226.606Z" stroke="white"/>
<path d="M1118.5 238.117L1124.05 229.634L1118.55 221.199H1120.98L1125.39 228.014L1129.75 221.199H1132.13L1126.63 229.586L1132.23 238.117H1129.8L1125.34 231.207L1120.89 238.117H1118.5ZM1134.95 238.117L1140.51 229.634L1135 221.199H1137.43L1141.84 228.014L1146.2 221.199H1148.58L1143.08 229.586L1148.68 238.117H1146.25L1141.79 231.207L1137.34 238.117H1134.95ZM1151.4 238.117L1156.96 229.634L1151.45 221.199H1153.88L1158.29 228.014L1162.65 221.199H1165.03L1159.53 229.586L1165.13 238.117H1162.7L1158.24 231.207L1153.79 238.117H1151.4ZM1167.86 238.117L1173.41 229.634L1167.9 221.199H1170.33L1174.74 228.014L1179.1 221.199H1181.49L1175.98 229.586L1181.58 238.117H1179.15L1174.69 231.207L1170.24 238.117H1167.86Z" fill="white"/>
</g>
<path d="M954.288 49.9039L933.02 60.8654M945.51 51.4438L935.563 56.5708M962.558 48.1688L930.954 64.4585M962.457 51.0791L929.174 67.9913M960.715 54.3764L926.988 71.7598M958.667 58.2137L924.562 75.7926M956.64 61.7489L922.581 79.3042M954.472 65.4916L920.338 83.0846M952.589 69.086L918.588 86.6113M950.424 72.8238L916.317 90.4059M948.255 76.5685L914.434 94.0003M946.367 80.1694L912.266 97.7427M944.49 83.7562L910.101 101.481M942.314 87.5099L907.932 105.225M940.154 91.2409L906.049 108.819M938.26 94.8516L903.881 112.562M936.099 98.5834L901.714 116.303M934.221 102.171L899.831 119.897M931.769 106.06L897.664 123.638M929.884 109.657L895.781 127.234M928 113.253L893.636 130.963M925.842 116.995L891.729 134.572M923.61 120.76L889.564 138.31M921.788 124.323L887.681 141.905M919.619 128.066L884.377 146.232M917.731 131.669L880.788 150.706M915.562 135.413L877.222 155.169M912.83 139.441L873.896 159.508M909.246 143.91L870.308 163.981M905.654 148.389L866.719 168.455M902.209 152.791L863.326 172.828M898.777 157.167L859.827 177.255M895.179 161.656L856.239 181.729M891.579 166.147L852.658 186.2M888.271 170.479L849.346 190.531M884.701 174.925L845.759 195.004M881.112 179.4L842.17 199.478M877.518 183.883L838.761 203.859M874.211 188.215L835.277 208.28M870.7 192.648L831.813 212.689M867.036 197.161L828.384 217.083M863.445 201.638L824.797 221.554M852.849 215.082L814.078 235.065M860.143 205.962L821.209 226.027M849.542 219.414L816.006 236.7M856.556 210.434L817.905 230.354M845.958 223.882L824.579 234.901M842.374 228.349L833.151 233.103" stroke="white" stroke-width="1.34918" stroke-linecap="round" stroke-linejoin="round" stroke-dasharray="0.45 4.05"/>
<path d="M528.892 55.4136L528.189 55.5983M540.985 55.4644L525.179 59.621M546.826 57.0852L521.895 63.6334M543.894 61.0042L519.313 67.461M540.965 64.9182L516.028 71.4735M538.032 68.838L513.446 75.3011M535.093 72.7648L510.161 79.3149M532.543 76.1736L507.61 82.7236M529.992 79.5823L505.059 86.1324M527.441 82.991L502.509 89.5411M524.891 86.3997L499.958 92.9498M522.34 89.8085L497.407 96.3585M519.789 93.2172L494.857 99.7673M517.239 96.6259L492.306 103.176M514.688 100.035L489.755 106.585M512.137 103.443L487.205 109.993M509.587 106.852L484.654 113.402M507.036 110.261L482.103 116.811M504.485 113.67L479.553 120.22M501.935 117.078L477.002 123.628M499.384 120.487L474.451 127.037M496.833 123.896L471.901 130.446M494.283 127.304L469.35 133.855M491.732 130.713L466.799 137.263M489.181 134.122L464.249 140.672M486.631 137.531L461.698 144.081M484.08 140.939L459.147 147.489M481.529 144.348L456.597 150.898M478.979 147.757L454.046 154.307M476.428 151.166L451.495 157.716M473.877 154.574L448.944 161.124M471.327 157.983L446.394 164.533M468.776 161.392L443.843 167.942M466.225 164.8L441.292 171.351M463.675 168.209L438.742 174.759M461.124 171.618L436.191 178.168M458.573 175.027L433.64 181.577M456.023 178.435L431.09 184.985M453.472 181.844L428.539 188.394M450.921 185.253L425.988 191.803M448.371 188.662L423.438 195.212M445.82 192.07L420.887 198.62M443.269 195.479L418.337 202.029M440.719 198.888L415.786 205.438M438.168 202.296L413.235 208.846M435.617 205.705L410.685 212.255M433.067 209.114L408.134 215.664M430.516 212.523L405.583 219.073M427.965 215.931L403.033 222.481M425.415 219.34L400.482 225.89M422.864 222.749L397.931 229.299M420.313 226.158L395.38 232.708M417.763 229.566L396.494 235.159M415.212 232.975L403.269 236.115M412.661 236.384L412.308 236.478" stroke="white" stroke-width="1.38266" stroke-linecap="round" stroke-linejoin="round" stroke-dasharray="0.46 4.15"/>
<path d="M750.421 76.6613C674.03 74.0458 589.745 60.0359 543.838 50.4557C534.536 48.5146 523.874 52.3127 518.355 59.6884L391.336 229.427C387.606 234.413 390.547 240.254 397.118 240.815C463.6 246.498 580.507 254.024 644.476 259.404C704.502 264.453 818.477 241.824 878.392 225.267C892.512 221.365 904.324 212.565 911.504 201.651L1013.81 46.1266C1019.09 38.101 1010.75 30.0319 1000.41 33.0645C933.032 52.828 825.488 79.2316 750.421 76.6613Z" fill="#D9D9D9" fill-opacity="0.07"/>
<g opacity="0.7">
<path d="M963.929 62.1283C965.775 58.9041 969.857 55.6663 973.047 54.8965L988.483 51.1711C991.673 50.4013 992.762 52.3911 990.917 55.6154C989.071 58.8396 984.989 62.0774 981.799 62.8472L966.363 66.5726C963.173 67.3423 962.084 65.3526 963.929 62.1283Z" stroke="white"/>
<path d="M865.602 211.812C867.447 208.587 871.529 205.35 874.719 204.58L890.156 200.855C893.345 200.085 894.435 202.075 892.589 205.299C890.743 208.523 886.661 211.761 883.471 212.531L868.035 216.256C864.845 217.026 863.756 215.036 865.602 211.812Z" stroke="white"/>
<path d="M890.683 180.568C892.529 177.344 896.611 174.106 899.8 173.336L912.303 170.319C915.493 169.549 916.582 171.539 914.736 174.763C912.89 177.987 908.808 181.225 905.619 181.995L893.116 185.012C889.926 185.782 888.837 183.792 890.683 180.568Z" stroke="white"/>
<path d="M915.195 151.182C917.04 147.957 921.122 144.72 924.312 143.95L930.455 142.467C933.645 141.698 934.734 143.687 932.888 146.912C931.043 150.136 926.96 153.374 923.771 154.143L917.628 155.626C914.438 156.396 913.349 154.406 915.195 151.182Z" stroke="white"/>
<path d="M934.295 122.845C936.141 119.62 940.223 116.383 943.413 115.613L949.556 114.13C952.745 113.36 953.835 115.35 951.989 118.574C950.143 121.799 946.061 125.037 942.871 125.806L936.728 127.289C933.539 128.059 932.449 126.069 934.295 122.845Z" stroke="white"/>
<path d="M948.831 94.1263C950.676 90.902 954.759 87.6642 957.948 86.8944L967.444 84.6027C970.634 83.8329 971.723 85.8227 969.877 89.047C968.032 92.2712 963.949 95.509 960.76 96.2788L951.264 98.5705C948.074 99.3403 946.985 97.3506 948.831 94.1263Z" stroke="white"/>
</g>
<path d="M750.421 76.6613C674.03 74.0458 589.745 60.0359 543.838 50.4557C534.536 48.5146 523.874 52.3127 518.355 59.6884L391.336 229.427C387.606 234.413 390.547 240.254 397.118 240.815C463.6 246.498 580.507 254.024 644.476 259.404C704.502 264.453 818.477 241.824 878.392 225.267C892.512 221.365 904.324 212.565 911.504 201.651L1013.81 46.1266C1019.09 38.101 1010.75 30.0319 1000.41 33.0645C933.032 52.828 825.488 79.2316 750.421 76.6613Z" stroke="white"/>
<path d="M740.062 93.1093C681.297 91.0972 616.639 80.5804 579.6 73.0188C570.28 71.1162 559.615 74.9144 554.096 82.29L456.945 212.116C453.214 217.101 456.146 222.939 462.719 223.493C515.852 227.969 606.224 233.804 656.064 237.996C703.392 241.976 760.798 234.603 800.199 224.165C810.863 221.34 820.271 215.389 827.167 207.833C866.857 164.353 882.607 135.756 908.304 86.9363C912.45 79.0603 904.149 71.8626 894.283 74.5298C850 86.5012 797.639 95.0807 740.062 93.1093Z" stroke="white"/>
<path d="M710.922 102.173C650.916 108.418 612.228 91.1683 583.801 80.7636C574.011 77.1805 562.019 82.2608 557.275 91.1579C537.187 128.824 518.558 156.114 479.616 199.664C475.099 204.716 477.902 211.11 485.058 210.997C533.117 210.24 603.494 191.598 664.103 208.994C704.653 220.633 754.111 221.592 790.368 213.836C801.136 211.533 810.531 205.459 817.508 197.949C853.426 159.293 863.756 142.353 886.326 99.7785C890.521 91.8658 882.054 84.7267 872.196 87.6434C775.145 116.36 779.415 95.0447 710.922 102.173Z" stroke="white"/>
<path d="M458.164 196.722C455.321 186.195 442.654 173.993 436.676 169.208L477.941 114.061C481.784 114.774 491.107 116.753 497.656 118.956C505.843 121.71 523.932 130.527 537.647 146.435C551.362 162.343 585.324 162.397 606.744 169.874C628.165 177.351 635.866 209.388 650.191 225.725C664.516 242.063 682.382 259.409 679.521 259.66C676.661 259.911 664.085 260.052 657.538 260.022C652.301 259.997 640.027 253.092 634.545 249.643C630.085 247.412 619.294 241.868 611.814 237.537C602.464 232.123 605.548 225.085 598.861 205.699C592.174 186.314 571.83 171.018 558.633 166.164C545.436 161.309 518.231 176.008 516.68 180.995C515.13 185.983 524.461 199.336 538.836 205.533C553.21 211.729 552.226 219.292 571.451 231.502C586.831 241.27 593.292 251.6 594.6 255.544L541.872 251.455C528.513 248.205 500.396 241.16 494.799 238.977C487.803 236.247 467.935 231.145 465.851 227.683C463.766 224.221 461.717 209.882 458.164 196.722Z" fill="#D9D9D9" fill-opacity="0.07"/>
<path d="M570.532 55.6372C570.493 54.2767 570.481 53.4114 570.583 55.6462L591.777 59.3942C590.286 61.3864 588.454 66.0792 593.053 68.9127C598.802 72.4546 600.289 85.593 604.716 92.0834C609.142 98.5739 635.611 104.57 654.1 106.587C672.589 108.604 699.635 110.928 685.08 113.221C670.526 115.513 656.438 126.052 667.377 131.782C678.315 137.512 682.124 154.84 694.228 166.874C706.332 178.908 735.087 207.187 743.802 216.924C750.773 224.713 760.773 242.068 764.901 249.772L721.527 256.003C710.502 241.004 671.356 212.69 655.542 192.431C639.729 172.173 637.799 131.513 622.567 118.758C616.311 113.281 591.69 99.6413 589.332 97.3019C586.385 94.3777 571.903 89.2922 571.111 68.7564C570.827 61.3686 570.667 57.4724 570.583 55.6462L570.532 55.6372Z" fill="#D9D9D9" fill-opacity="0.07"/>
<path d="M744.702 76.7468C740.826 76.9047 717.487 74.8289 706.303 73.7713C702.63 82.5013 725.49 87.776 728.42 92.7844C731.35 97.7928 743.688 100.775 753.755 101.245C761.809 101.62 773.949 106.343 779.013 108.657C782.969 114.405 790.755 128.086 790.247 136.826C789.611 147.751 772.228 163.785 774.142 185.689C776.056 207.593 810.544 200.095 798.112 187.921C785.68 175.747 808.99 145.172 810.57 143.347C812.151 141.523 825.116 147.802 826.101 157.137C827.086 166.472 823.334 189.623 824.667 190.144C826.001 190.664 830.866 193.376 835.672 194.437C840.479 195.499 845.329 203.698 847.132 207.046C848.935 210.394 871.518 227.138 880.771 224.849C890.024 222.559 900.379 214.19 906.073 208.884C910.627 204.639 920.278 189.132 924.534 181.91C911.464 179.246 881.301 172.35 865.205 166.07C845.086 158.221 858.492 144.061 850.618 121.723C842.745 99.3855 812.717 101.455 802.27 102.86C791.822 104.265 791.979 95.1913 789.186 92.2748C786.394 89.3584 766.089 93.9645 757.429 93.7181C748.77 93.4716 749.548 76.5494 744.702 76.7468Z" fill="#D9D9D9" fill-opacity="0.07"/>
<path d="M919.564 54.623L884.345 62.2584C890.088 62.1452 902.18 62.4604 904.602 64.6265C907.628 67.3341 897.513 72.5489 895.253 74.1485C892.994 75.748 896.244 79.3065 900.117 81.9627C903.99 84.6189 894.425 96.9191 890.677 105.381C886.93 113.844 893.193 115.524 900.925 100.6C907.11 88.6606 908.801 89.8039 908.873 91.8679C911.883 96.6684 918.643 106.52 921.603 107.522C925.304 108.776 936.205 113.41 941.596 116.468C945.909 118.914 950.962 132.4 952.949 138.837L972.582 109.089L954.694 100.584C950.465 98.0429 941.249 92.2461 938.217 89.3837C934.427 85.8057 930.754 72.3487 929.103 64.8334C927.781 58.8211 922.193 55.5214 919.564 54.623Z" fill="#D9D9D9" fill-opacity="0.07"/>
<mask id="mask0_4245_155357" style="mask-type:alpha" maskUnits="userSpaceOnUse" x="610" y="42" width="439" height="300">
<path d="M998.897 69.8013C1006.33 60.3011 1009.09 53.3628 1021.83 42.1542L1048.44 130.372L911.438 341.703L759.934 328.617L610.276 305.117C614.185 289.577 616.686 265.769 657.465 262.033C708.437 257.362 858.696 233.016 875.815 227.751C892.934 222.487 911.522 205.132 914.12 199.392C916.719 193.652 977.047 97.7403 998.897 69.8013Z" fill="url(#paint6_linear_4245_155357)"/>
</mask>
<g mask="url(#mask0_4245_155357)">
<path d="M857.632 293.348L849.329 281.065M850.963 291.688L847.08 285.942M863.607 295.238L851.269 276.984M866.673 291.915L853.416 272.969M868.599 288.168L855.433 268.689M870.823 283.808L857.509 264.109M872.737 279.792L859.441 260.12M874.742 275.541L861.417 255.827M876.858 271.457L863.585 251.819M878.862 267.211L865.549 247.51M880.868 262.958L867.665 243.425M882.987 258.866L869.671 239.174M885.1 254.79L871.675 234.928M887.11 250.527L873.681 230.676M889.111 246.289L875.797 226.592M891.234 242.186L877.803 222.341M893.235 237.948L879.808 218.092M895.348 233.87L881.923 214.008M897.243 229.455L883.928 209.759M899.36 225.368L886.045 205.672M901.476 221.282L888.058 201.437M903.491 217.031L890.167 197.336M905.46 212.756L892.171 193.09M907.599 208.707L894.287 189.005M909.605 204.455L895.848 184.099M911.725 200.361L897.299 179.028M913.731 196.108L898.758 173.971M915.512 191.538L900.311 169.052M916.96 186.474L901.761 163.983M918.412 181.398L903.211 158.912M919.922 176.407L904.738 153.955M921.414 171.448L906.223 148.937M922.871 166.361L907.673 143.867M924.329 161.271L909.126 138.801M925.893 156.36L910.685 133.89M927.331 151.321L912.135 128.821M928.782 146.249L913.586 123.751M930.236 141.169L915.106 118.785M931.8 136.258L916.598 113.774M933.279 131.234L918.096 108.777M934.7 126.12L919.61 103.796M936.151 121.046L921.06 98.7287M940.689 105.807L925.553 83.4152M937.711 116.144L922.51 93.6598M942.252 100.896L929.16 81.527M939.161 111.075L924.071 88.7536M943.7 95.833L935.354 83.4857M945.147 90.7708L941.547 85.4439" stroke="white" stroke-width="1.09126" stroke-linecap="round" stroke-linejoin="round" stroke-dasharray="0.36 3.27"/>
<path d="M692.961 265.069C615.215 269.028 516.352 286.903 463.322 298.345C455.354 300.065 451.088 295.759 453.548 288.327L518.737 91.3676C520.16 87.07 525.575 82.5678 529.928 82.1045C598.29 74.8269 722.344 64.5648 790.818 57.5155C853.839 51.0276 938.393 76.036 976.941 94.3195C985.299 98.2838 986.752 108.436 981.756 120.726L906.768 305.224C904.002 312.029 894.297 317.947 889.845 315.564C848.613 293.498 771.129 261.088 692.961 265.069Z" fill="#D9D9D9" fill-opacity="0.07"/>
<path d="M692.961 265.069C615.215 269.028 516.352 286.903 463.322 298.345C455.354 300.065 451.088 295.759 453.548 288.327L518.737 91.3676C520.16 87.07 525.575 82.5678 529.928 82.1045C598.29 74.8269 722.344 64.5648 790.818 57.5155C853.839 51.0276 938.393 76.036 976.941 94.3195C985.299 98.2838 986.752 108.436 981.756 120.726L906.768 305.224C904.002 312.029 894.297 317.947 889.845 315.564C848.613 293.498 771.129 261.088 692.961 265.069Z" stroke="white" stroke-width="1.61767"/>
<path d="M538.058 136.024C523.918 148.081 498.623 162.16 487.743 167.693L467.044 230.223C471.472 229.365 482.481 227.001 491.099 224.411C501.872 221.174 528.643 210.901 558.96 192.577C589.278 174.252 621.613 173.811 650.095 165.031C678.577 156.251 720.703 119.571 752.067 100.749C783.431 81.9277 819.256 61.9143 816.811 61.6594C814.365 61.4046 802.566 61.3842 796.311 61.4922C791.307 61.5785 772.14 69.6031 763.182 73.6046C756.52 76.2024 740.242 82.6558 728.427 87.6865C713.659 93.9749 708.944 101.98 681.526 124.198C654.109 146.416 618.157 164.114 600.34 169.807C582.524 175.499 572.638 159.014 576.583 153.334C580.529 147.655 603.905 132.298 624.298 125.059C644.692 117.82 651.973 109.192 683.51 95.031C708.739 83.7018 726.103 71.8299 731.631 67.3101L677.078 72.5701C660.851 76.4314 626.474 84.7932 618.783 87.3499C609.169 90.5457 584.743 96.5961 579 100.574C573.258 104.552 555.733 120.953 538.058 136.024Z" fill="#D9D9D9" fill-opacity="0.07"/>
<path d="M491.565 295.923C490.05 297.477 489.098 298.466 491.623 295.912L515.837 291.394C516.585 289.135 519.943 283.795 527.392 280.507C536.703 276.397 552.391 261.373 563.65 253.91C574.908 246.447 606.579 239.301 626.342 236.791C646.105 234.28 674.333 231.324 662.992 228.867C651.65 226.411 649.711 214.531 666.333 207.864C682.954 201.196 705.4 181.361 729.978 167.48C754.556 153.599 812.608 120.976 831.469 109.756C846.558 100.781 874.917 80.8458 887.21 72.0001L852.759 65.367C825.984 82.6234 758.018 115.403 720.979 138.72C683.94 162.037 637.931 208.501 609.597 223.241C597.701 229.567 559.482 245.422 554.7 248.121C548.722 251.494 529.432 257.465 506.369 280.931C498.072 289.373 493.686 293.825 491.623 295.912L491.565 295.923Z" fill="#D9D9D9" fill-opacity="0.07"/>
<path d="M680.957 262.095C677.444 261.957 653.008 264.589 641.23 265.923C647.225 255.992 674.681 249.711 682.907 243.958C691.133 238.204 705.17 242.428 715.247 241.779C723.309 241.261 739.978 235.73 747.305 233.03C757.31 226.42 779.573 210.706 788.586 200.729C799.851 188.257 800.751 170.136 826.368 145.095C851.985 120.054 876.615 128.234 851.574 142.278C826.532 156.323 815.466 190.987 814.986 193.053C814.506 195.119 833.65 187.802 844.728 177.128C855.807 166.454 877.394 140.051 879.227 139.442C881.06 138.832 888.629 135.681 894.35 134.415C900.071 133.149 913.589 123.729 918.94 119.885C924.291 116.04 966.69 94.386 972.996 96.8979C979.302 99.4098 980.051 108.854 979.697 114.851C979.414 119.648 971.738 137.253 967.935 145.456C952.621 148.644 913.717 159.134 891.598 166.487C863.948 175.677 861.304 191.702 829.553 217.305C797.801 242.908 771.512 240.88 763.109 239.392C754.706 237.904 744.997 248.267 739.174 251.629C733.352 254.992 719.059 249.957 710.561 250.336C702.064 250.714 685.348 262.266 680.957 262.095Z" fill="#D9D9D9" fill-opacity="0.07"/>
<path d="M823.105 285.411L797.929 277.083C803.264 277.148 815.099 276.653 819.753 274.152C825.571 271.025 820.694 272.95 820.284 271.148C819.875 269.347 826.83 265.246 833.397 262.168C839.964 259.091 844.237 245.148 849.869 235.524C855.501 225.899 863.279 223.91 854.413 240.871C847.32 254.439 850.169 253.115 852.48 250.756C860.556 245.239 877.684 233.911 881.587 232.733C886.465 231.26 901.86 225.844 910.306 222.291C917.063 219.449 939.075 203.266 947.958 195.891L934.296 229.652L905.497 240.289C898.717 243.238 883.66 249.962 877.669 253.266C870.18 257.395 852.068 272.807 842.333 281.41C834.545 288.292 826.579 284.355 823.105 285.411Z" fill="#D9D9D9" fill-opacity="0.07"/>
</g>
<g opacity="0.6">
<path d="M542.272 185.323L526.261 193.575M535.664 186.482L528.175 190.342M548.498 184.017L524.705 196.28M548.422 186.208L523.365 198.94M547.11 188.69L521.72 201.777M545.569 191.579L519.893 204.813M544.043 194.241L518.402 207.457M542.41 197.058L516.713 210.303M540.993 199.764L515.396 212.958M539.363 202.578L513.686 215.815M537.73 205.397L512.269 218.521M536.309 208.108L510.636 221.338M534.896 210.809L509.006 224.152M533.258 213.634L507.373 226.971M531.631 216.443L505.956 229.677M530.206 219.162L504.324 232.494M528.579 221.971L502.692 235.311M527.165 224.672L501.275 238.017M525.319 227.6L499.644 240.833M523.9 230.308L498.225 243.54M522.482 233.015L496.611 246.348M520.857 235.832L495.175 249.065M519.176 238.667L493.545 251.879M517.805 241.349L492.128 254.585M516.172 244.167L489.64 257.843M514.751 246.879L486.939 261.211M513.118 249.698L484.254 264.571M511.061 252.731L481.749 267.838M508.362 256.095L479.049 271.205M505.658 259.467L476.347 274.573M503.065 262.781L473.792 277.866M500.482 266.075L471.158 281.198M497.772 269.454L468.457 284.567M495.062 272.835L465.761 287.932M492.572 276.097L463.268 291.193M489.885 279.444L460.567 294.56M487.183 282.813L457.865 297.929M484.477 286.188L455.299 301.227M481.987 289.449L452.676 304.555M479.344 292.786L450.068 307.874M476.585 296.184L447.486 311.182M473.882 299.554L444.786 314.548M465.905 309.676L436.717 324.72M471.396 302.81L442.085 317.916M463.415 312.937L438.168 325.95M468.695 306.177L439.598 321.173M460.717 316.301L444.622 324.596M458.019 319.664L451.075 323.243" stroke="white" stroke-width="1.01572" stroke-linecap="round" stroke-linejoin="round" stroke-dasharray="0.34 3.05"/>
<path d="M222.013 189.48L221.484 189.619M231.117 189.518L219.218 192.647M235.514 190.738L216.745 195.668M233.307 193.688L214.801 198.549M231.102 196.635L212.329 201.57M228.894 199.586L210.385 204.452M226.682 202.542L207.911 207.473M224.761 205.108L205.991 210.04M222.841 207.675L204.071 212.606M220.921 210.241L202.15 215.172M219.001 212.807L200.23 217.738M217.08 215.373L198.31 220.305M215.16 217.94L196.39 222.871M213.24 220.506L194.469 225.437M211.32 223.072L192.549 228.003M209.399 225.638L190.629 230.569M207.479 228.204L188.709 233.136M205.559 230.771L186.789 235.702M203.639 233.337L184.868 238.268M201.718 235.903L182.948 240.834M199.798 238.469L181.028 243.401M197.878 241.036L179.108 245.967M195.958 243.602L177.187 248.533M194.037 246.168L175.267 251.099M192.117 248.734L173.347 253.665M190.197 251.301L171.427 256.232M188.277 253.867L169.506 258.798M186.356 256.433L167.586 261.364M184.436 258.999L165.666 263.93M182.516 261.565L163.746 266.497M180.596 264.132L161.825 269.063M178.675 266.698L159.905 271.629M176.755 269.264L157.985 274.195M174.835 271.83L156.065 276.762M172.915 274.397L154.144 279.328M170.994 276.963L152.224 281.894M169.074 279.529L150.304 284.46M167.154 282.095L148.384 287.026M165.234 284.661L146.463 289.593M163.314 287.228L144.543 292.159M161.393 289.794L142.623 294.725M159.473 292.36L140.703 297.291M157.553 294.926L138.782 299.858M155.633 297.493L136.862 302.424M153.712 300.059L134.942 304.99M151.792 302.625L133.022 307.556M149.872 305.191L131.101 310.122M147.952 307.757L129.181 312.689M146.031 310.324L127.261 315.255M144.111 312.89L125.341 317.821M142.191 315.456L123.42 320.387M140.271 318.022L121.5 322.954M138.35 320.589L122.339 324.799M136.43 323.155L127.439 325.519M134.51 325.721L134.244 325.792" stroke="white" stroke-width="1.04092" stroke-linecap="round" stroke-linejoin="round" stroke-dasharray="0.35 3.12"/>
<path d="M388.789 205.473C331.279 203.504 267.826 192.957 233.265 185.745C226.262 184.283 218.236 187.143 214.08 192.695L118.456 320.482C115.647 324.235 117.862 328.632 122.809 329.055C172.859 333.333 260.871 338.999 309.03 343.049C354.22 346.85 440.025 329.815 485.131 317.35C495.761 314.412 504.654 307.787 510.059 299.57L587.083 182.486C591.057 176.444 584.775 170.369 576.991 172.652C526.266 187.531 445.303 207.408 388.789 205.473Z" fill="#D9D9D9" fill-opacity="0.07"/>
<g opacity="0.7">
<path d="M549.525 194.528C550.914 192.101 553.988 189.664 556.389 189.084L568.01 186.279C570.411 185.7 571.232 187.198 569.842 189.625C568.452 192.053 565.379 194.49 562.978 195.07L551.357 197.874C548.955 198.454 548.135 196.956 549.525 194.528Z" stroke="white" stroke-width="0.75284"/>
<path d="M475.5 307.216C476.889 304.789 479.963 302.351 482.364 301.772L493.985 298.967C496.386 298.388 497.206 299.886 495.817 302.313C494.427 304.74 491.354 307.178 488.953 307.757L477.332 310.562C474.93 311.141 474.11 309.643 475.5 307.216Z" stroke="white" stroke-width="0.75284"/>
<path d="M494.382 283.695C495.772 281.267 498.845 278.83 501.246 278.25L510.658 275.979C513.06 275.399 513.88 276.897 512.49 279.324C511.101 281.752 508.028 284.189 505.626 284.769L496.214 287.04C493.812 287.62 492.992 286.122 494.382 283.695Z" stroke="white" stroke-width="0.75284"/>
<path d="M512.835 261.571C514.225 259.144 517.298 256.707 519.699 256.127L524.324 255.011C526.725 254.431 527.546 255.929 526.156 258.357C524.766 260.784 521.693 263.222 519.292 263.801L514.667 264.917C512.266 265.497 511.446 263.999 512.835 261.571Z" stroke="white" stroke-width="0.75284"/>
<path d="M527.215 240.238C528.605 237.811 531.678 235.373 534.079 234.794L538.704 233.678C541.105 233.098 541.925 234.596 540.536 237.023C539.146 239.451 536.073 241.888 533.671 242.468L529.047 243.584C526.645 244.163 525.825 242.665 527.215 240.238Z" stroke="white" stroke-width="0.75284"/>
<path d="M538.158 218.618C539.548 216.19 542.621 213.753 545.022 213.173L552.171 211.448C554.572 210.869 555.392 212.367 554.003 214.794C552.613 217.221 549.54 219.659 547.139 220.238L539.99 221.964C537.588 222.543 536.768 221.045 538.158 218.618Z" stroke="white" stroke-width="0.75284"/>
</g>
<path d="M388.789 205.473C331.279 203.504 267.826 192.957 233.265 185.745C226.262 184.283 218.236 187.143 214.08 192.695L118.456 320.482C115.647 324.235 117.862 328.632 122.809 329.055C172.859 333.333 260.871 338.999 309.03 343.049C354.22 346.85 440.025 329.815 485.131 317.35C495.761 314.412 504.654 307.787 510.059 299.57L587.083 182.486C591.057 176.444 584.775 170.369 576.991 172.652C526.266 187.531 445.303 207.408 388.789 205.473Z" stroke="white" stroke-width="0.75284"/>
<path d="M380.992 217.856C336.751 216.342 288.074 208.424 260.189 202.732C253.173 201.299 245.144 204.159 240.989 209.711L167.85 307.449C165.041 311.203 167.248 315.598 172.197 316.014C212.198 319.384 280.233 323.777 317.755 326.933C353.385 329.929 396.603 324.379 426.265 316.52C434.294 314.393 441.376 309.913 446.568 304.225C476.448 271.492 488.306 249.962 507.651 213.209C510.772 207.28 504.523 201.861 497.095 203.869C463.757 212.882 424.338 219.341 380.992 217.856Z" stroke="white" stroke-width="0.75284"/>
<path d="M359.051 224.673C313.876 229.374 284.75 216.388 263.349 208.555C255.979 205.857 246.951 209.682 243.379 216.38C228.256 244.737 214.232 265.282 184.915 298.068C181.514 301.871 183.625 306.685 189.012 306.6C225.193 306.03 278.175 291.995 323.804 305.092C354.331 313.854 391.565 314.577 418.861 308.737C426.968 307.003 434.04 302.431 439.294 296.777C466.333 267.675 474.11 254.922 491.102 222.87C494.26 216.913 487.886 211.539 480.465 213.734C407.401 235.354 410.615 219.306 359.051 224.673Z" stroke="white" stroke-width="0.75284"/>
<path d="M168.763 295.852C166.623 287.926 157.087 278.74 152.587 275.138L183.653 233.621C186.546 234.158 193.564 235.647 198.495 237.306C204.658 239.379 218.276 246.017 228.601 257.993C238.926 269.969 264.494 270.01 280.621 275.639C296.747 281.268 302.545 305.387 313.329 317.686C324.114 329.986 337.563 343.045 335.41 343.234C333.257 343.423 323.789 343.529 318.86 343.506C314.917 343.488 305.677 338.289 301.55 335.692C298.192 334.013 290.069 329.839 284.437 326.578C277.398 322.503 279.72 317.204 274.686 302.61C269.652 288.016 254.336 276.501 244.4 272.846C234.465 269.191 213.984 280.257 212.817 284.012C211.65 287.766 218.675 297.819 229.496 302.484C240.318 307.15 239.577 312.843 254.05 322.035C265.629 329.389 270.493 337.166 271.478 340.135L231.782 337.057C221.725 334.61 200.557 329.306 196.344 327.662C191.077 325.608 176.119 321.766 174.55 319.16C172.981 316.553 171.439 305.759 168.763 295.852Z" fill="#D9D9D9" fill-opacity="0.07"/>
<path d="M253.359 189.637C253.329 188.613 253.32 187.961 253.397 189.644L269.353 192.466C268.23 193.965 266.851 197.498 270.313 199.631C274.641 202.298 275.761 212.189 279.093 217.075C282.426 221.962 302.353 226.476 316.272 227.994C330.191 229.513 350.553 231.262 339.595 232.988C328.638 234.714 318.032 242.648 326.267 246.962C334.502 251.276 337.37 264.321 346.482 273.381C355.595 282.44 377.242 303.73 383.803 311.06C389.052 316.924 396.58 329.99 399.688 335.789L367.034 340.481C358.734 329.188 329.263 307.872 317.358 292.621C305.452 277.37 304 246.76 292.533 237.157C287.823 233.034 269.287 222.765 267.512 221.004C265.293 218.803 254.39 214.974 253.795 199.514C253.58 193.952 253.46 191.019 253.397 189.644L253.359 189.637Z" fill="#D9D9D9" fill-opacity="0.07"/>
<path d="M384.481 205.529C381.562 205.648 363.992 204.085 355.572 203.289C352.807 209.862 370.017 213.832 372.223 217.603C374.429 221.374 383.718 223.619 391.296 223.972C397.359 224.255 406.499 227.81 410.311 229.553C413.29 233.88 419.151 244.179 418.769 250.759C418.29 258.984 405.203 271.055 406.644 287.545C408.085 304.035 434.049 298.39 424.69 289.225C415.331 280.061 432.879 257.042 434.069 255.669C435.259 254.295 445.02 259.022 445.761 266.05C446.503 273.078 443.678 290.507 444.682 290.899C445.686 291.291 449.348 293.332 452.967 294.131C456.585 294.931 460.237 301.103 461.594 303.624C462.952 306.144 479.953 318.75 486.919 317.026C493.885 315.302 501.681 309.002 505.967 305.007C509.396 301.812 516.661 290.138 519.865 284.7C510.026 282.695 487.318 277.503 475.2 272.776C460.054 266.866 470.146 256.206 464.219 239.389C458.292 222.573 435.685 224.131 427.82 225.189C419.954 226.246 420.072 219.415 417.97 217.219C415.868 215.024 400.581 218.491 394.062 218.306C387.543 218.12 388.129 205.381 384.481 205.529Z" fill="#D9D9D9" fill-opacity="0.07"/>
<path d="M516.124 188.874L489.61 194.622C493.933 194.537 503.037 194.774 504.859 196.405C507.138 198.443 499.523 202.369 497.822 203.573C496.121 204.777 498.568 207.456 501.484 209.456C504.399 211.456 497.198 220.716 494.377 227.087C491.555 233.457 496.271 234.722 502.091 223.487C506.748 214.499 508.021 215.359 508.075 216.913C510.341 220.527 515.43 227.944 517.659 228.698C520.445 229.642 528.651 233.131 532.71 235.433C535.958 237.274 539.761 247.427 541.257 252.274L556.038 229.878L542.571 223.475C539.387 221.562 532.449 217.198 530.167 215.043C527.314 212.349 524.548 202.218 523.305 196.56C522.31 192.034 518.103 189.55 516.124 188.874Z" fill="#D9D9D9" fill-opacity="0.07"/>
<mask id="mask1_4245_155357" style="mask-type:alpha" maskUnits="userSpaceOnUse" x="283" y="179" width="331" height="227">
<path d="M575.85 200.314C581.443 193.161 583.527 187.938 593.112 179.5L613.145 245.914L510.007 405.012L395.949 395.16L283.28 377.469C286.223 365.77 288.106 347.846 318.806 345.033C357.18 341.517 470.301 323.188 483.189 319.225C496.077 315.262 510.07 302.196 512.027 297.875C513.983 293.554 559.4 221.347 575.85 200.314Z" fill="url(#paint7_linear_4245_155357)"/>
</mask>
<g mask="url(#mask1_4245_155357)">
<path d="M469.504 368.605L463.253 359.358M464.483 367.355L461.559 363.03M474.002 370.028L464.713 356.286M476.31 367.526L466.33 353.263M477.76 364.705L467.848 350.04M479.434 361.422L469.411 346.593M480.875 358.399L470.866 343.59M482.385 355.199L472.353 340.358M483.978 352.124L473.985 337.34M485.486 348.928L475.464 334.096M486.997 345.726L477.057 331.021M488.592 342.646L478.567 327.821M490.182 339.577L480.076 324.624M491.696 336.367L481.586 321.423M493.202 333.177L483.179 318.348M494.801 330.088L484.689 315.148M496.307 326.897L486.198 311.949M497.898 323.828L487.791 308.874M499.324 320.504L489.301 305.675M500.918 317.427L490.894 302.599M502.511 314.35L492.41 299.41M504.028 311.151L493.997 296.323M505.51 307.932L495.506 293.126M507.121 304.883L497.099 290.051M508.631 301.683L498.274 286.358M510.227 298.6L499.366 282.541M511.737 295.399L500.465 278.733M513.078 291.958L501.634 275.03M514.168 288.146L502.726 271.214M515.262 284.324L503.818 267.396M516.398 280.567L504.967 263.664M517.521 276.834L506.085 259.887M518.618 273.004L507.177 256.07M519.716 269.172L508.271 252.256M520.893 265.475L509.444 248.559M521.976 261.681L510.536 244.743M523.068 257.863L511.628 240.925M524.163 254.039L512.773 237.187M525.34 250.341L513.895 233.415M526.454 246.559L515.024 229.652M527.523 242.709L516.163 225.903M528.616 238.889L517.255 222.088M532.032 227.417L520.637 210.559M529.791 235.198L518.346 218.272M533.209 223.719L523.353 209.137M530.882 231.383L519.522 214.578M534.299 219.908L528.016 210.612M535.389 216.097L532.678 212.086" stroke="white" stroke-width="0.821547" stroke-linecap="round" stroke-linejoin="round" stroke-dasharray="0.27 2.46"/>
<path d="M345.529 347.317C286.999 350.297 212.571 363.754 172.648 372.369C166.649 373.663 163.438 370.421 165.289 364.826L214.366 216.548C215.437 213.312 219.514 209.923 222.791 209.574C274.257 204.095 367.65 196.369 419.2 191.062C466.645 186.178 530.3 205.005 559.321 218.77C565.613 221.754 566.707 229.397 562.946 238.65L506.492 377.547C504.41 382.67 497.103 387.125 493.751 385.332C462.71 368.72 404.377 344.32 345.529 347.317Z" fill="#D9D9D9" fill-opacity="0.07"/>
<path d="M345.529 347.317C286.999 350.297 212.571 363.754 172.648 372.369C166.649 373.663 163.438 370.421 165.289 364.826L214.366 216.548C215.437 213.312 219.514 209.923 222.791 209.574C274.257 204.095 367.65 196.369 419.2 191.062C466.645 186.178 530.3 205.005 559.321 218.77C565.613 221.754 566.707 229.397 562.946 238.65L506.492 377.547C504.41 382.67 497.103 387.125 493.751 385.332C462.71 368.72 404.377 344.32 345.529 347.317Z" stroke="white" stroke-width="1.21785"/>
<path d="M228.916 250.17C218.271 259.247 199.228 269.846 191.037 274.011L175.454 321.086C178.787 320.44 187.076 318.661 193.564 316.711C201.674 314.274 221.828 306.54 244.652 292.744C267.477 278.949 291.82 278.617 313.262 272.007C334.704 265.397 366.418 237.783 390.031 223.613C413.643 209.444 440.613 194.377 438.772 194.185C436.931 193.993 428.048 193.978 423.339 194.059C419.572 194.124 405.143 200.165 398.399 203.178C393.383 205.133 381.128 209.992 372.233 213.779C361.115 218.513 357.566 224.539 336.925 241.266C316.284 257.993 289.218 271.317 275.805 275.602C262.392 279.888 254.949 267.477 257.92 263.201C260.89 258.926 278.488 247.364 293.841 241.915C309.194 236.465 314.676 229.97 338.418 219.308C357.412 210.779 370.484 201.842 374.646 198.439L333.576 202.399C321.359 205.306 295.479 211.601 289.689 213.526C282.451 215.932 264.062 220.487 259.739 223.481C255.416 226.476 242.222 238.823 228.916 250.17Z" fill="#D9D9D9" fill-opacity="0.07"/>
<path d="M193.914 370.548C192.774 371.718 192.057 372.462 193.958 370.539L212.187 367.138C212.75 365.437 215.278 361.417 220.886 358.942C227.896 355.848 239.707 344.537 248.183 338.919C256.659 333.3 280.501 327.921 295.38 326.031C310.258 324.141 331.509 321.915 322.971 320.066C314.433 318.217 312.973 309.273 325.486 304.253C338 299.234 354.898 284.301 373.401 273.851C391.905 263.4 435.608 238.841 449.808 230.394C461.167 223.637 482.517 208.629 491.772 201.97L465.836 196.976C445.678 209.967 394.511 234.645 366.626 252.199C338.742 269.753 304.104 304.733 282.773 315.83C273.818 320.592 245.045 332.529 241.445 334.561C236.944 337.1 222.422 341.595 205.059 359.261C198.813 365.616 195.511 368.968 193.958 370.539L193.914 370.548Z" fill="#D9D9D9" fill-opacity="0.07"/>
<path d="M336.496 345.08C333.852 344.977 315.455 346.959 306.588 347.962C311.101 340.486 331.771 335.758 337.964 331.426C344.157 327.095 354.724 330.275 362.311 329.786C368.38 329.396 380.929 325.232 386.445 323.199C393.978 318.223 410.738 306.393 417.523 298.882C426.005 289.493 426.682 275.85 445.968 256.999C465.253 238.147 483.795 244.305 464.943 254.878C446.091 265.451 437.76 291.548 437.398 293.103C437.037 294.659 451.449 289.15 459.79 281.114C468.13 273.078 484.382 253.201 485.762 252.743C487.142 252.284 492.84 249.911 497.147 248.958C501.454 248.005 511.631 240.913 515.66 238.019C519.688 235.125 551.608 218.823 556.355 220.714C561.102 222.605 561.666 229.715 561.4 234.229C561.187 237.841 555.408 251.095 552.545 257.27C541.015 259.67 511.727 267.567 495.075 273.103C474.259 280.022 472.269 292.086 448.365 311.361C424.461 330.636 404.67 329.109 398.344 327.989C392.018 326.869 384.708 334.67 380.325 337.202C375.941 339.733 365.181 335.943 358.783 336.228C352.386 336.513 339.802 345.209 336.496 345.08Z" fill="#D9D9D9" fill-opacity="0.07"/>
<path d="M443.511 362.634L424.557 356.364C428.574 356.413 437.483 356.041 440.987 354.157C445.367 351.804 441.696 353.253 441.387 351.897C441.079 350.54 446.315 347.453 451.259 345.136C456.203 342.819 459.42 332.322 463.66 325.077C467.9 317.831 473.756 316.334 467.081 329.102C461.741 339.317 463.885 338.32 465.625 336.544C471.705 332.391 484.6 323.862 487.538 322.976C491.211 321.867 502.801 317.79 509.159 315.115C514.246 312.975 530.818 300.792 537.505 295.24L527.22 320.656L505.539 328.664C500.435 330.884 489.099 335.947 484.589 338.434C478.951 341.542 465.316 353.145 457.987 359.622C452.123 364.803 446.126 361.839 443.511 362.634Z" fill="#D9D9D9" fill-opacity="0.07"/>
</g>
</g>
<g opacity="0.2">
<path d="M1735.27 222.323L1719.26 230.575M1728.66 223.482L1721.18 227.342M1741.5 221.017L1717.71 233.28M1741.42 223.208L1716.37 235.94M1740.11 225.69L1714.72 238.777M1738.57 228.579L1712.89 241.813M1737.04 231.241L1711.4 244.457M1735.41 234.058L1709.71 247.303M1733.99 236.764L1708.4 249.958M1732.36 239.578L1706.69 252.815M1730.73 242.397L1705.27 255.521M1729.31 245.108L1703.64 258.338M1727.9 247.809L1702.01 261.152M1726.26 250.634L1700.37 263.971M1724.63 253.443L1698.96 266.677M1723.21 256.162L1697.32 269.494M1721.58 258.971L1695.69 272.311M1720.16 261.672L1694.28 275.017M1718.32 264.6L1692.64 277.833M1716.9 267.308L1691.23 280.54M1715.48 270.015L1689.61 283.348M1713.86 272.832L1688.18 286.065M1712.18 275.667L1686.55 288.879M1710.8 278.349L1685.13 291.585M1709.17 281.167L1682.64 294.843M1707.75 283.879L1679.94 298.211M1706.12 286.698L1677.25 301.571M1704.06 289.731L1674.75 304.838M1701.36 293.095L1672.05 308.205M1698.66 296.467L1669.35 311.573M1696.07 299.781L1666.79 314.866M1693.48 303.075L1664.16 318.198M1690.77 306.454L1661.46 321.567M1688.06 309.835L1658.76 324.932M1685.57 313.097L1656.27 328.193M1682.88 316.444L1653.57 331.56M1680.18 319.813L1650.87 334.929M1677.48 323.188L1648.3 338.227M1674.99 326.449L1645.68 341.555M1672.34 329.786L1643.07 344.874M1669.58 333.184L1640.49 348.182M1666.88 336.554L1637.79 351.548M1658.9 346.676L1629.72 361.72M1664.4 339.81L1635.09 354.916M1656.42 349.937L1631.17 362.95M1661.7 343.177L1632.6 358.173M1653.72 353.301L1637.62 361.596M1651.02 356.664L1644.08 360.243" stroke="white" stroke-width="1.01572" stroke-linecap="round" stroke-linejoin="round" stroke-dasharray="0.34 3.05"/>
<path d="M1415.01 226.48L1414.48 226.619M1424.12 226.518L1412.22 229.647M1428.51 227.738L1409.75 232.668M1426.31 230.688L1407.8 235.549M1424.1 233.635L1405.33 238.57M1421.89 236.586L1403.38 241.452M1419.68 239.542L1400.91 244.473M1417.76 242.108L1398.99 247.04M1415.84 244.675L1397.07 249.606M1413.92 247.241L1395.15 252.172M1412 249.807L1393.23 254.738M1410.08 252.373L1391.31 257.305M1408.16 254.94L1389.39 259.871M1406.24 257.506L1387.47 262.437M1404.32 260.072L1385.55 265.003M1402.4 262.638L1383.63 267.569M1400.48 265.204L1381.71 270.136M1398.56 267.771L1379.79 272.702M1396.64 270.337L1377.87 275.268M1394.72 272.903L1375.95 277.834M1392.8 275.469L1374.03 280.401M1390.88 278.036L1372.11 282.967M1388.96 280.602L1370.19 285.533M1387.04 283.168L1368.27 288.099M1385.12 285.734L1366.35 290.665M1383.2 288.301L1364.43 293.232M1381.28 290.867L1362.51 295.798M1379.36 293.433L1360.59 298.364M1377.44 295.999L1358.67 300.93M1375.52 298.565L1356.75 303.497M1373.6 301.132L1354.83 306.063M1371.68 303.698L1352.91 308.629M1369.76 306.264L1350.98 311.195M1367.83 308.83L1349.06 313.762M1365.91 311.397L1347.14 316.328M1363.99 313.963L1345.22 318.894M1362.07 316.529L1343.3 321.46M1360.15 319.095L1341.38 324.026M1358.23 321.661L1339.46 326.593M1356.31 324.228L1337.54 329.159M1354.39 326.794L1335.62 331.725M1352.47 329.36L1333.7 334.291M1350.55 331.926L1331.78 336.858M1348.63 334.493L1329.86 339.424M1346.71 337.059L1327.94 341.99M1344.79 339.625L1326.02 344.556M1342.87 342.191L1324.1 347.122M1340.95 344.757L1322.18 349.689M1339.03 347.324L1320.26 352.255M1337.11 349.89L1318.34 354.821M1335.19 352.456L1316.42 357.387M1333.27 355.022L1314.5 359.954M1331.35 357.589L1315.34 361.799M1329.43 360.155L1320.44 362.519M1327.51 362.721L1327.24 362.792" stroke="white" stroke-width="1.04092" stroke-linecap="round" stroke-linejoin="round" stroke-dasharray="0.35 3.12"/>
<path d="M1581.79 242.473C1524.28 240.504 1460.83 229.957 1426.27 222.745C1419.26 221.283 1411.24 224.143 1407.08 229.695L1311.46 357.482C1308.65 361.235 1310.86 365.632 1315.81 366.055C1365.86 370.333 1453.87 375.999 1502.03 380.049C1547.22 383.85 1633.02 366.815 1678.13 354.35C1688.76 351.412 1697.65 344.787 1703.06 336.57L1780.08 219.486C1784.06 213.444 1777.77 207.369 1769.99 209.652C1719.27 224.531 1638.3 244.408 1581.79 242.473Z" fill="#D9D9D9" fill-opacity="0.07"/>
<g opacity="0.7">
<path d="M1742.52 231.528C1743.91 229.101 1746.99 226.664 1749.39 226.084L1761.01 223.279C1763.41 222.7 1764.23 224.198 1762.84 226.625C1761.45 229.053 1758.38 231.49 1755.98 232.07L1744.36 234.874C1741.96 235.454 1741.14 233.956 1742.52 231.528Z" stroke="white" stroke-width="0.75284"/>
<path d="M1668.5 344.216C1669.89 341.789 1672.96 339.351 1675.36 338.772L1686.98 335.967C1689.39 335.388 1690.21 336.886 1688.82 339.313C1687.43 341.74 1684.35 344.178 1681.95 344.757L1670.33 347.562C1667.93 348.141 1667.11 346.643 1668.5 344.216Z" stroke="white" stroke-width="0.75284"/>
<path d="M1687.38 320.695C1688.77 318.267 1691.84 315.83 1694.25 315.25L1703.66 312.979C1706.06 312.399 1706.88 313.897 1705.49 316.324C1704.1 318.752 1701.03 321.189 1698.63 321.769L1689.21 324.04C1686.81 324.62 1685.99 323.122 1687.38 320.695Z" stroke="white" stroke-width="0.75284"/>
<path d="M1705.84 298.571C1707.22 296.144 1710.3 293.707 1712.7 293.127L1717.32 292.011C1719.73 291.431 1720.55 292.929 1719.16 295.357C1717.77 297.784 1714.69 300.222 1712.29 300.801L1707.67 301.917C1705.27 302.497 1704.45 300.999 1705.84 298.571Z" stroke="white" stroke-width="0.75284"/>
<path d="M1720.21 277.238C1721.6 274.811 1724.68 272.373 1727.08 271.794L1731.7 270.678C1734.11 270.098 1734.93 271.596 1733.54 274.023C1732.15 276.451 1729.07 278.888 1726.67 279.468L1722.05 280.584C1719.65 281.163 1718.83 279.665 1720.21 277.238Z" stroke="white" stroke-width="0.75284"/>
<path d="M1731.16 255.618C1732.55 253.19 1735.62 250.753 1738.02 250.173L1745.17 248.448C1747.57 247.869 1748.39 249.367 1747 251.794C1745.61 254.221 1742.54 256.659 1740.14 257.238L1732.99 258.964C1730.59 259.543 1729.77 258.045 1731.16 255.618Z" stroke="white" stroke-width="0.75284"/>
</g>
<path d="M1581.79 242.473C1524.28 240.504 1460.83 229.957 1426.27 222.745C1419.26 221.283 1411.24 224.143 1407.08 229.695L1311.46 357.482C1308.65 361.235 1310.86 365.632 1315.81 366.055C1365.86 370.333 1453.87 375.999 1502.03 380.049C1547.22 383.85 1633.02 366.815 1678.13 354.35C1688.76 351.412 1697.65 344.787 1703.06 336.57L1780.08 219.486C1784.06 213.444 1777.77 207.369 1769.99 209.652C1719.27 224.531 1638.3 244.408 1581.79 242.473Z" stroke="white" stroke-width="0.75284"/>
<path d="M1573.99 254.856C1529.75 253.342 1481.07 245.424 1453.19 239.732C1446.17 238.299 1438.14 241.159 1433.99 246.711L1360.85 344.449C1358.04 348.203 1360.25 352.598 1365.2 353.014C1405.2 356.384 1473.23 360.777 1510.75 363.933C1546.39 366.929 1589.6 361.379 1619.27 353.52C1627.29 351.393 1634.38 346.913 1639.57 341.225C1669.45 308.492 1681.31 286.962 1700.65 250.209C1703.77 244.28 1697.52 238.861 1690.1 240.869C1656.76 249.882 1617.34 256.341 1573.99 254.856Z" stroke="white" stroke-width="0.75284"/>
<path d="M1552.05 261.673C1506.88 266.374 1477.75 253.388 1456.35 245.555C1448.98 242.857 1439.95 246.682 1436.38 253.38C1421.26 281.737 1407.23 302.282 1377.91 335.068C1374.51 338.871 1376.62 343.685 1382.01 343.6C1418.19 343.03 1471.17 328.995 1516.8 342.092C1547.33 350.854 1584.57 351.577 1611.86 345.737C1619.97 344.003 1627.04 339.431 1632.29 333.777C1659.33 304.675 1667.11 291.922 1684.1 259.87C1687.26 253.913 1680.89 248.539 1673.46 250.734C1600.4 272.354 1603.62 256.306 1552.05 261.673Z" stroke="white" stroke-width="0.75284"/>
<path d="M1361.76 332.852C1359.62 324.926 1350.09 315.74 1345.59 312.138L1376.65 270.621C1379.55 271.158 1386.56 272.647 1391.49 274.306C1397.66 276.379 1411.28 283.017 1421.6 294.993C1431.93 306.969 1457.49 307.01 1473.62 312.639C1489.75 318.268 1495.54 342.387 1506.33 354.686C1517.11 366.986 1530.56 380.045 1528.41 380.234C1526.26 380.423 1516.79 380.529 1511.86 380.506C1507.92 380.488 1498.68 375.289 1494.55 372.692C1491.19 371.013 1483.07 366.839 1477.44 363.578C1470.4 359.503 1472.72 354.204 1467.69 339.61C1462.65 325.016 1447.34 313.501 1437.4 309.846C1427.46 306.191 1406.98 317.257 1405.82 321.012C1404.65 324.766 1411.67 334.819 1422.5 339.484C1433.32 344.15 1432.58 349.843 1447.05 359.035C1458.63 366.389 1463.49 374.166 1464.48 377.135L1424.78 374.057C1414.72 371.61 1393.56 366.306 1389.34 364.662C1384.08 362.608 1369.12 358.766 1367.55 356.16C1365.98 353.553 1364.44 342.759 1361.76 332.852Z" fill="#D9D9D9" fill-opacity="0.07"/>
<path d="M1446.36 226.637C1446.33 225.613 1446.32 224.961 1446.4 226.644L1462.35 229.466C1461.23 230.965 1459.85 234.498 1463.31 236.631C1467.64 239.298 1468.76 249.189 1472.09 254.075C1475.43 258.962 1495.35 263.476 1509.27 264.994C1523.19 266.513 1543.55 268.262 1532.6 269.988C1521.64 271.714 1511.03 279.648 1519.27 283.962C1527.5 288.276 1530.37 301.321 1539.48 310.381C1548.59 319.44 1570.24 340.73 1576.8 348.06C1582.05 353.924 1589.58 366.99 1592.69 372.789L1560.03 377.481C1551.73 366.188 1522.26 344.872 1510.36 329.621C1498.45 314.37 1497 283.76 1485.53 274.157C1480.82 270.034 1462.29 259.765 1460.51 258.004C1458.29 255.803 1447.39 251.974 1446.79 236.514C1446.58 230.952 1446.46 228.019 1446.4 226.644L1446.36 226.637Z" fill="#D9D9D9" fill-opacity="0.07"/>
<path d="M1577.48 242.529C1574.56 242.648 1556.99 241.085 1548.57 240.289C1545.81 246.862 1563.02 250.832 1565.22 254.603C1567.43 258.374 1576.72 260.619 1584.3 260.972C1590.36 261.255 1599.5 264.81 1603.31 266.553C1606.29 270.88 1612.15 281.179 1611.77 287.759C1611.29 295.984 1598.2 308.055 1599.64 324.545C1601.09 341.035 1627.05 335.39 1617.69 326.225C1608.33 317.061 1625.88 294.042 1627.07 292.669C1628.26 291.295 1638.02 296.022 1638.76 303.05C1639.5 310.078 1636.68 327.507 1637.68 327.899C1638.69 328.291 1642.35 330.332 1645.97 331.131C1649.59 331.931 1653.24 338.103 1654.59 340.624C1655.95 343.144 1672.95 355.75 1679.92 354.026C1686.88 352.302 1694.68 346.002 1698.97 342.007C1702.4 338.812 1709.66 327.138 1712.87 321.7C1703.03 319.695 1680.32 314.503 1668.2 309.776C1653.05 303.866 1663.15 293.206 1657.22 276.389C1651.29 259.573 1628.69 261.131 1620.82 262.189C1612.95 263.246 1613.07 256.415 1610.97 254.219C1608.87 252.024 1593.58 255.491 1587.06 255.306C1580.54 255.12 1581.13 242.381 1577.48 242.529Z" fill="#D9D9D9" fill-opacity="0.07"/>
<path d="M1709.12 225.874L1682.61 231.622C1686.93 231.537 1696.04 231.774 1697.86 233.405C1700.14 235.443 1692.52 239.369 1690.82 240.573C1689.12 241.777 1691.57 244.456 1694.48 246.456C1697.4 248.456 1690.2 257.716 1687.38 264.087C1684.56 270.457 1689.27 271.722 1695.09 260.487C1699.75 251.499 1701.02 252.359 1701.08 253.913C1703.34 257.527 1708.43 264.944 1710.66 265.698C1713.45 266.642 1721.65 270.131 1725.71 272.433C1728.96 274.274 1732.76 284.427 1734.26 289.274L1749.04 266.878L1735.57 260.475C1732.39 258.562 1725.45 254.198 1723.17 252.043C1720.31 249.349 1717.55 239.218 1716.3 233.56C1715.31 229.034 1711.1 226.55 1709.12 225.874Z" fill="#D9D9D9" fill-opacity="0.07"/>
<mask id="mask2_4245_155357" style="mask-type:alpha" maskUnits="userSpaceOnUse" x="1476" y="216" width="331" height="227">
<path d="M1768.85 237.314C1774.44 230.161 1776.53 224.938 1786.11 216.5L1806.15 282.914L1703.01 442.012L1588.95 432.16L1476.28 414.469C1479.22 402.77 1481.11 384.846 1511.81 382.033C1550.18 378.517 1663.3 360.188 1676.19 356.225C1689.08 352.262 1703.07 339.196 1705.03 334.875C1706.98 330.554 1752.4 258.347 1768.85 237.314Z" fill="url(#paint8_linear_4245_155357)"/>
</mask>
<g mask="url(#mask2_4245_155357)">
<path d="M1662.5 405.605L1656.25 396.358M1657.48 404.355L1654.56 400.03M1667 407.028L1657.71 393.286M1669.31 404.526L1659.33 390.263M1670.76 401.705L1660.85 387.04M1672.43 398.422L1662.41 383.593M1673.87 395.399L1663.87 380.59M1675.38 392.199L1665.35 377.358M1676.98 389.124L1666.99 374.34M1678.49 385.928L1668.46 371.096M1680 382.726L1670.06 368.021M1681.59 379.646L1671.57 364.821M1683.18 376.577L1673.08 361.624M1684.7 373.367L1674.59 358.423M1686.2 370.177L1676.18 355.348M1687.8 367.088L1677.69 352.148M1689.31 363.897L1679.2 348.949M1690.9 360.828L1680.79 345.874M1692.32 357.504L1682.3 342.675M1693.92 354.427L1683.89 339.599M1695.51 351.35L1685.41 336.41M1697.03 348.151L1687 333.323M1698.51 344.932L1688.51 330.126M1700.12 341.883L1690.1 327.051M1701.63 338.683L1691.27 323.358M1703.23 335.6L1692.37 319.541M1704.74 332.399L1693.46 315.733M1706.08 328.958L1694.63 312.03M1707.17 325.146L1695.73 308.214M1708.26 321.324L1696.82 304.396M1709.4 317.567L1697.97 300.664M1710.52 313.834L1699.08 296.887M1711.62 310.004L1700.18 293.07M1712.72 306.172L1701.27 289.256M1713.89 302.475L1702.44 285.559M1714.98 298.681L1703.54 281.743M1716.07 294.863L1704.63 277.925M1717.16 291.039L1705.77 274.187M1718.34 287.341L1706.9 270.415M1719.45 283.559L1708.02 266.652M1720.52 279.709L1709.16 262.903M1721.62 275.889L1710.25 259.088M1725.03 264.417L1713.64 247.559M1722.79 272.198L1711.35 255.272M1726.21 260.719L1716.35 246.137M1723.88 268.383L1712.52 251.578M1727.3 256.908L1721.02 247.612M1728.39 253.097L1725.68 249.086" stroke="white" stroke-width="0.821547" stroke-linecap="round" stroke-linejoin="round" stroke-dasharray="0.27 2.46"/>
<path d="M1538.53 384.317C1480 387.297 1405.57 400.754 1365.65 409.369C1359.65 410.663 1356.44 407.421 1358.29 401.826L1407.37 253.548C1408.44 250.312 1412.51 246.923 1415.79 246.574C1467.26 241.095 1560.65 233.369 1612.2 228.062C1659.64 223.178 1723.3 242.005 1752.32 255.77C1758.61 258.754 1759.71 266.397 1755.95 275.65L1699.49 414.547C1697.41 419.67 1690.1 424.125 1686.75 422.332C1655.71 405.72 1597.38 381.32 1538.53 384.317Z" fill="#D9D9D9" fill-opacity="0.07"/>
<path d="M1538.53 384.317C1480 387.297 1405.57 400.754 1365.65 409.369C1359.65 410.663 1356.44 407.421 1358.29 401.826L1407.37 253.548C1408.44 250.312 1412.51 246.923 1415.79 246.574C1467.26 241.095 1560.65 233.369 1612.2 228.062C1659.64 223.178 1723.3 242.005 1752.32 255.77C1758.61 258.754 1759.71 266.397 1755.95 275.65L1699.49 414.547C1697.41 419.67 1690.1 424.125 1686.75 422.332C1655.71 405.72 1597.38 381.32 1538.53 384.317Z" stroke="white" stroke-width="1.21785"/>
<path d="M1421.92 287.17C1411.27 296.247 1392.23 306.846 1384.04 311.011L1368.45 358.086C1371.79 357.44 1380.08 355.661 1386.56 353.711C1394.67 351.274 1414.83 343.54 1437.65 329.744C1460.48 315.949 1484.82 315.617 1506.26 309.007C1527.7 302.397 1559.42 274.783 1583.03 260.613C1606.64 246.444 1633.61 231.377 1631.77 231.185C1629.93 230.993 1621.05 230.978 1616.34 231.059C1612.57 231.124 1598.14 237.165 1591.4 240.178C1586.38 242.133 1574.13 246.992 1565.23 250.779C1554.12 255.513 1550.57 261.539 1529.92 278.266C1509.28 294.993 1482.22 308.317 1468.8 312.602C1455.39 316.888 1447.95 304.477 1450.92 300.201C1453.89 295.926 1471.49 284.364 1486.84 278.915C1502.19 273.465 1507.68 266.97 1531.42 256.308C1550.41 247.779 1563.48 238.842 1567.65 235.439L1526.58 239.399C1514.36 242.306 1488.48 248.601 1482.69 250.526C1475.45 252.932 1457.06 257.487 1452.74 260.481C1448.42 263.476 1435.22 275.823 1421.92 287.17Z" fill="#D9D9D9" fill-opacity="0.07"/>
<path d="M1386.91 407.548C1385.77 408.718 1385.06 409.462 1386.96 407.539L1405.19 404.138C1405.75 402.437 1408.28 398.417 1413.89 395.942C1420.9 392.848 1432.71 381.537 1441.18 375.919C1449.66 370.3 1473.5 364.921 1488.38 363.031C1503.26 361.141 1524.51 358.915 1515.97 357.066C1507.43 355.217 1505.97 346.273 1518.49 341.253C1531 336.234 1547.9 321.301 1566.4 310.851C1584.9 300.4 1628.61 275.841 1642.81 267.394C1654.17 260.637 1675.52 245.629 1684.77 238.97L1658.84 233.976C1638.68 246.967 1587.51 271.645 1559.63 289.199C1531.74 306.753 1497.1 341.733 1475.77 352.83C1466.82 357.592 1438.05 369.529 1434.44 371.561C1429.94 374.1 1415.42 378.595 1398.06 396.261C1391.81 402.616 1388.51 405.968 1386.96 407.539L1386.91 407.548Z" fill="#D9D9D9" fill-opacity="0.07"/>
<path d="M1529.5 382.08C1526.85 381.977 1508.46 383.959 1499.59 384.962C1504.1 377.486 1524.77 372.758 1530.96 368.426C1537.16 364.095 1547.72 367.275 1555.31 366.786C1561.38 366.396 1573.93 362.232 1579.45 360.199C1586.98 355.223 1603.74 343.393 1610.52 335.882C1619 326.493 1619.68 312.85 1638.97 293.999C1658.25 275.147 1676.8 281.305 1657.94 291.878C1639.09 302.451 1630.76 328.548 1630.4 330.103C1630.04 331.659 1644.45 326.15 1652.79 318.114C1661.13 310.078 1677.38 290.201 1678.76 289.743C1680.14 289.284 1685.84 286.911 1690.15 285.958C1694.45 285.005 1704.63 277.913 1708.66 275.019C1712.69 272.125 1744.61 255.823 1749.36 257.714C1754.1 259.605 1754.67 266.715 1754.4 271.229C1754.19 274.841 1748.41 288.095 1745.54 294.27C1734.02 296.67 1704.73 304.567 1688.07 310.103C1667.26 317.022 1665.27 329.086 1641.37 348.361C1617.46 367.636 1597.67 366.109 1591.34 364.989C1585.02 363.869 1577.71 371.67 1573.32 374.202C1568.94 376.733 1558.18 372.943 1551.78 373.228C1545.39 373.513 1532.8 382.209 1529.5 382.08Z" fill="#D9D9D9" fill-opacity="0.07"/>
<path d="M1636.51 399.634L1617.56 393.364C1621.57 393.413 1630.48 393.041 1633.99 391.157C1638.37 388.804 1634.7 390.253 1634.39 388.897C1634.08 387.54 1639.32 384.453 1644.26 382.136C1649.2 379.819 1652.42 369.322 1656.66 362.077C1660.9 354.831 1666.76 353.334 1660.08 366.102C1654.74 376.317 1656.89 375.32 1658.63 373.544C1664.71 369.391 1677.6 360.862 1680.54 359.976C1684.21 358.867 1695.8 354.79 1702.16 352.115C1707.25 349.975 1723.82 337.792 1730.51 332.24L1720.22 357.656L1698.54 365.664C1693.43 367.884 1682.1 372.947 1677.59 375.434C1671.95 378.542 1658.32 390.145 1650.99 396.622C1645.12 401.803 1639.13 398.839 1636.51 399.634Z" fill="#D9D9D9" fill-opacity="0.07"/>
</g>
</g>
<defs>
<linearGradient id="paint0_linear_4245_155357" x1="1209.01" y1="51.6172" x2="1266.51" y2="135.117" gradientUnits="userSpaceOnUse">
<stop stop-color="#D9D9D9"/>
<stop offset="1" stop-color="#D9D9D9" stop-opacity="0.5"/>
</linearGradient>
<linearGradient id="paint1_linear_4245_155357" x1="1153.01" y1="28.1172" x2="1239.51" y2="122.617" gradientUnits="userSpaceOnUse">
<stop stop-color="white"/>
<stop offset="1" stop-color="white" stop-opacity="0.2"/>
</linearGradient>
<linearGradient id="paint2_linear_4245_155357" x1="1209.01" y1="119.617" x2="1266.51" y2="203.117" gradientUnits="userSpaceOnUse">
<stop stop-color="#D9D9D9"/>
<stop offset="1" stop-color="#D9D9D9" stop-opacity="0.5"/>
</linearGradient>
<linearGradient id="paint3_linear_4245_155357" x1="1153.01" y1="96.1172" x2="1239.51" y2="190.617" gradientUnits="userSpaceOnUse">
<stop stop-color="white"/>
<stop offset="1" stop-color="white" stop-opacity="0.2"/>
</linearGradient>
<linearGradient id="paint4_linear_4245_155357" x1="1209.01" y1="187.617" x2="1266.51" y2="271.117" gradientUnits="userSpaceOnUse">
<stop stop-color="#D9D9D9"/>
<stop offset="1" stop-color="#D9D9D9" stop-opacity="0.5"/>
</linearGradient>
<linearGradient id="paint5_linear_4245_155357" x1="1153.01" y1="164.117" x2="1239.51" y2="258.617" gradientUnits="userSpaceOnUse">
<stop stop-color="white"/>
<stop offset="1" stop-color="white" stop-opacity="0.2"/>
</linearGradient>
<linearGradient id="paint6_linear_4245_155357" x1="1031.99" y1="224.115" x2="737.388" y2="121.535" gradientUnits="userSpaceOnUse">
<stop stop-color="#D9D9D9"/>
<stop offset="1" stop-color="#737373" stop-opacity="0"/>
</linearGradient>
<linearGradient id="paint7_linear_4245_155357" x1="600.76" y1="316.487" x2="378.975" y2="239.261" gradientUnits="userSpaceOnUse">
<stop stop-color="#D9D9D9"/>
<stop offset="1" stop-color="#737373" stop-opacity="0"/>
</linearGradient>
<linearGradient id="paint8_linear_4245_155357" x1="1793.76" y1="353.487" x2="1571.98" y2="276.261" gradientUnits="userSpaceOnUse">
<stop stop-color="#D9D9D9"/>
<stop offset="1" stop-color="#737373" stop-opacity="0"/>
</linearGradient>
</defs>
</svg>
