<svg width="1090" height="700" viewBox="0 0 1090 700" fill="none" xmlns="http://www.w3.org/2000/svg">
<path d="M1084.34 592.487C1086.68 621.728 1063.59 646.75 1034.25 646.75L55.5898 646.75C26.313 646.75 3.23536 621.822 5.48923 592.632L37.6123 176.631C39.6336 150.457 61.4622 130.25 87.7139 130.25L1000.92 130.25C1027.12 130.25 1048.92 150.375 1051.01 176.487L1084.34 592.487Z" stroke="white" stroke-width="1.5"/>
<path d="M1002.41 135C1025.34 135 1044.42 152.603 1046.27 175.453L1080.15 594.454C1082.23 620.069 1062 642 1036.3 642L53.5613 642C27.9137 642 7.7021 620.153 9.69425 594.583L42.3383 175.582C44.1228 152.677 63.2303 135 86.2053 135L1002.41 135Z" stroke="white" stroke-opacity="0.17" stroke-width="8"/>
<path d="M1052.21 589.457C1053.4 604.575 1041.45 617.5 1026.29 617.5L766.622 617.5C762.888 617.5 759.811 614.568 759.631 610.838L737.907 161.898C737.713 157.885 740.931 154.532 744.949 154.561L994.216 156.333C1007.71 156.429 1018.89 166.835 1019.95 180.289L1052.21 589.457Z" stroke="white" stroke-width="2"/>
<path d="M1024 579.646C1024.79 589.814 1016.75 598.5 1006.55 598.5L758.477 598.5L738.026 187L977.343 187C986.483 187 994.083 194.034 994.79 203.146L1024 579.646Z" stroke="white"/>
<path d="M65.6563 579.019C64.7887 589.231 72.8445 598 83.0938 598L333.52 598L350.978 187L115.035 187C105.945 187 98.3672 193.961 97.5977 203.019L65.6563 579.019Z" stroke="white"/>
<path d="M63.7334 617.5C48.5611 617.5 36.612 604.562 37.8154 589.438L70.5186 178.438C71.5942 164.921 82.8771 154.5 96.4366 154.5L345.157 154.5C349.138 154.5 352.318 157.816 352.151 161.793L333.322 610.793C333.165 614.542 330.08 617.5 326.328 617.5L63.7334 617.5Z" stroke="white" stroke-width="2"/>
<path d="M704.5 186.5L385.5 186.5" stroke="white"/>
<path d="M716.5 598.5C578.254 598.109 371 598.5 371 598.5" stroke="white"/>
<path d="M717.252 610.289C717.371 614.236 714.204 617.5 710.256 617.5L377.289 617.5C373.326 617.5 370.153 614.213 370.293 610.252L386.225 161.252C386.358 157.485 389.451 154.5 393.221 154.5L696.736 154.5C700.52 154.5 703.619 157.507 703.733 161.289L717.252 610.289Z" stroke="white" stroke-width="2"/>
<path d="M701.999 187L716.5 598L370.5 598L387.999 187L701.999 187Z" fill="#D9D9D9" fill-opacity="0.07"/>
<path d="M977.305 187C986.723 187 994.549 194.26 995.255 203.651L1023.4 578.151C1024.18 588.594 1015.92 597.5 1005.45 597.5L761.853 597.5L737.003 187L977.305 187Z" fill="#D9D9D9" fill-opacity="0.07"/>
<path d="M116.51 187.035C107.17 187.015 99.3668 194.142 98.5416 203.445L65.2442 578.837C64.308 589.391 72.6451 598.466 83.2404 598.427L333.5 597.5L351 187.536L116.51 187.035Z" fill="#D9D9D9" fill-opacity="0.07"/>
<rect x="36" y="9" width="1019" height="104" rx="38" stroke="url(#paint0_linear_4245_155611)" stroke-width="2"/>
<rect x="45" y="1" width="1001" height="104" rx="32" stroke="url(#paint1_linear_4245_155611)" stroke-width="2"/>
<path d="M14 625L71 699" stroke="url(#paint2_linear_4245_155611)" stroke-width="1.5"/>
<path d="M1077 623L1020 697" stroke="url(#paint3_linear_4245_155611)" stroke-width="1.5"/>
<path d="M127.554 275.448C125.762 275.448 124.185 275.037 122.822 274.216C121.459 273.376 120.395 272.181 119.63 270.632C118.865 269.083 118.482 267.235 118.482 265.088C118.482 262.96 118.855 261.121 119.602 259.572C120.367 258.004 121.431 256.8 122.794 255.96C124.157 255.101 125.753 254.672 127.582 254.672C130.046 254.672 131.959 255.288 133.322 256.52C134.685 257.752 135.571 259.46 135.982 261.644L132.818 261.812C132.557 260.449 131.997 259.385 131.138 258.62C130.279 257.836 129.094 257.444 127.582 257.444C126.369 257.444 125.314 257.752 124.418 258.368C123.541 258.984 122.85 259.861 122.346 261C121.861 262.139 121.618 263.501 121.618 265.088C121.618 266.675 121.861 268.037 122.346 269.176C122.85 270.315 123.55 271.183 124.446 271.78C125.342 272.377 126.378 272.676 127.554 272.676C129.159 272.676 130.401 272.256 131.278 271.416C132.174 270.557 132.734 269.381 132.958 267.888L136.122 268.056C135.879 269.568 135.394 270.875 134.666 271.976C133.938 273.077 132.977 273.936 131.782 274.552C130.587 275.149 129.178 275.448 127.554 275.448ZM145.224 275.336C143.806 275.336 142.564 275.019 141.5 274.384C140.436 273.749 139.615 272.844 139.036 271.668C138.458 270.492 138.168 269.12 138.168 267.552C138.168 265.965 138.458 264.593 139.036 263.436C139.615 262.279 140.436 261.383 141.5 260.748C142.564 260.095 143.806 259.768 145.224 259.768C146.643 259.768 147.884 260.095 148.948 260.748C150.012 261.383 150.834 262.279 151.412 263.436C151.991 264.593 152.28 265.965 152.28 267.552C152.28 269.12 151.991 270.492 151.412 271.668C150.834 272.844 150.012 273.749 148.948 274.384C147.884 275.019 146.643 275.336 145.224 275.336ZM145.224 272.76C146.494 272.76 147.474 272.303 148.164 271.388C148.855 270.455 149.2 269.176 149.2 267.552C149.2 265.928 148.855 264.659 148.164 263.744C147.474 262.811 146.494 262.344 145.224 262.344C143.974 262.344 142.994 262.811 142.284 263.744C141.594 264.659 141.248 265.928 141.248 267.552C141.248 269.176 141.594 270.455 142.284 271.388C142.994 272.303 143.974 272.76 145.224 272.76ZM155.28 275V260.104H157.996L158.108 264.08L157.744 263.884C157.912 262.913 158.229 262.129 158.696 261.532C159.162 260.935 159.732 260.496 160.404 260.216C161.076 259.917 161.804 259.768 162.588 259.768C163.708 259.768 164.632 260.02 165.36 260.524C166.106 261.009 166.666 261.681 167.04 262.54C167.432 263.38 167.628 264.341 167.628 265.424V275H164.66V266.32C164.66 265.443 164.566 264.705 164.38 264.108C164.193 263.511 163.885 263.053 163.456 262.736C163.026 262.419 162.466 262.26 161.776 262.26C160.73 262.26 159.881 262.605 159.228 263.296C158.574 263.987 158.248 264.995 158.248 266.32V275H155.28ZM176.468 275C175.05 275 174.004 274.673 173.332 274.02C172.66 273.367 172.324 272.349 172.324 270.968V256.604H175.292V270.744C175.292 271.435 175.442 271.911 175.74 272.172C176.039 272.433 176.496 272.564 177.112 272.564H179.24V275H176.468ZM170.056 262.54V260.104H179.24V262.54H170.056ZM186.167 275.336C184.617 275.336 183.376 274.981 182.443 274.272C181.528 273.563 181.071 272.564 181.071 271.276C181.071 269.988 181.453 268.989 182.219 268.28C183.003 267.552 184.207 267.029 185.831 266.712L190.955 265.732C190.955 264.575 190.684 263.716 190.143 263.156C189.601 262.577 188.799 262.288 187.735 262.288C186.783 262.288 186.036 262.503 185.495 262.932C184.953 263.343 184.58 263.959 184.375 264.78L181.323 264.584C181.603 263.091 182.293 261.915 183.395 261.056C184.515 260.197 185.961 259.768 187.735 259.768C189.751 259.768 191.281 260.309 192.327 261.392C193.391 262.456 193.923 263.959 193.923 265.9V271.696C193.923 272.051 193.979 272.303 194.091 272.452C194.221 272.583 194.427 272.648 194.707 272.648H195.239V275C195.145 275.019 194.996 275.037 194.791 275.056C194.585 275.075 194.371 275.084 194.147 275.084C193.512 275.084 192.961 274.981 192.495 274.776C192.047 274.571 191.711 274.235 191.487 273.768C191.263 273.283 191.151 272.639 191.151 271.836L191.459 271.976C191.309 272.629 190.983 273.208 190.479 273.712C189.993 274.216 189.368 274.617 188.603 274.916C187.856 275.196 187.044 275.336 186.167 275.336ZM186.643 272.984C187.539 272.984 188.304 272.816 188.939 272.48C189.573 272.125 190.068 271.64 190.423 271.024C190.777 270.408 190.955 269.708 190.955 268.924V267.972L186.587 268.812C185.691 268.98 185.056 269.251 184.683 269.624C184.328 269.979 184.151 270.436 184.151 270.996C184.151 271.631 184.365 272.125 184.795 272.48C185.243 272.816 185.859 272.984 186.643 272.984ZM197.745 275V260.104H200.461L200.545 263.8L200.209 263.688C200.377 262.867 200.666 262.167 201.077 261.588C201.506 261.009 202.029 260.561 202.645 260.244C203.261 259.927 203.933 259.768 204.661 259.768C205.93 259.768 206.966 260.132 207.769 260.86C208.571 261.569 209.075 262.549 209.281 263.8H208.805C208.973 262.923 209.253 262.195 209.645 261.616C210.055 261.019 210.578 260.561 211.213 260.244C211.847 259.927 212.566 259.768 213.369 259.768C214.414 259.768 215.301 259.992 216.029 260.44C216.775 260.869 217.335 261.504 217.709 262.344C218.101 263.184 218.297 264.211 218.297 265.424V275H215.329V266.152C215.329 264.864 215.095 263.893 214.629 263.24C214.162 262.587 213.453 262.26 212.501 262.26C211.885 262.26 211.343 262.419 210.877 262.736C210.41 263.053 210.046 263.511 209.785 264.108C209.542 264.705 209.421 265.424 209.421 266.264V275H206.593V266.264C206.593 264.995 206.378 264.015 205.949 263.324C205.538 262.615 204.829 262.26 203.821 262.26C203.186 262.26 202.635 262.419 202.169 262.736C201.721 263.053 201.366 263.52 201.105 264.136C200.843 264.733 200.713 265.443 200.713 266.264V275H197.745ZM222.245 275V260.104H225.213V275H222.245ZM222.189 257.948V254.98H225.269V257.948H222.189ZM229.655 275V260.104H232.371L232.483 264.08L232.119 263.884C232.287 262.913 232.604 262.129 233.071 261.532C233.537 260.935 234.107 260.496 234.779 260.216C235.451 259.917 236.179 259.768 236.963 259.768C238.083 259.768 239.007 260.02 239.735 260.524C240.481 261.009 241.041 261.681 241.415 262.54C241.807 263.38 242.003 264.341 242.003 265.424V275H239.035V266.32C239.035 265.443 238.941 264.705 238.755 264.108C238.568 263.511 238.26 263.053 237.831 262.736C237.401 262.419 236.841 262.26 236.151 262.26C235.105 262.26 234.256 262.605 233.603 263.296C232.949 263.987 232.623 264.995 232.623 266.32V275H229.655ZM250.069 275.336C248.52 275.336 247.278 274.981 246.345 274.272C245.43 273.563 244.973 272.564 244.973 271.276C244.973 269.988 245.356 268.989 246.121 268.28C246.905 267.552 248.109 267.029 249.733 266.712L254.857 265.732C254.857 264.575 254.586 263.716 254.045 263.156C253.504 262.577 252.701 262.288 251.637 262.288C250.685 262.288 249.938 262.503 249.397 262.932C248.856 263.343 248.482 263.959 248.277 264.78L245.225 264.584C245.505 263.091 246.196 261.915 247.297 261.056C248.417 260.197 249.864 259.768 251.637 259.768C253.653 259.768 255.184 260.309 256.229 261.392C257.293 262.456 257.825 263.959 257.825 265.9V271.696C257.825 272.051 257.881 272.303 257.993 272.452C258.124 272.583 258.329 272.648 258.609 272.648H259.141V275C259.048 275.019 258.898 275.037 258.693 275.056C258.488 275.075 258.273 275.084 258.049 275.084C257.414 275.084 256.864 274.981 256.397 274.776C255.949 274.571 255.613 274.235 255.389 273.768C255.165 273.283 255.053 272.639 255.053 271.836L255.361 271.976C255.212 272.629 254.885 273.208 254.381 273.712C253.896 274.216 253.27 274.617 252.505 274.916C251.758 275.196 250.946 275.336 250.069 275.336ZM250.545 272.984C251.441 272.984 252.206 272.816 252.841 272.48C253.476 272.125 253.97 271.64 254.325 271.024C254.68 270.408 254.857 269.708 254.857 268.924V267.972L250.489 268.812C249.593 268.98 248.958 269.251 248.585 269.624C248.23 269.979 248.053 270.436 248.053 270.996C248.053 271.631 248.268 272.125 248.697 272.48C249.145 272.816 249.761 272.984 250.545 272.984ZM266.593 275C265.175 275 264.129 274.673 263.457 274.02C262.785 273.367 262.449 272.349 262.449 270.968V256.604H265.417V270.744C265.417 271.435 265.567 271.911 265.865 272.172C266.164 272.433 266.621 272.564 267.237 272.564H269.365V275H266.593ZM260.181 262.54V260.104H269.365V262.54H260.181ZM278.087 275.336C276.631 275.336 275.371 275.019 274.307 274.384C273.262 273.749 272.45 272.844 271.871 271.668C271.311 270.492 271.031 269.12 271.031 267.552C271.031 265.984 271.311 264.621 271.871 263.464C272.45 262.288 273.262 261.383 274.307 260.748C275.353 260.095 276.585 259.768 278.003 259.768C279.347 259.768 280.533 260.085 281.559 260.72C282.586 261.336 283.379 262.232 283.939 263.408C284.518 264.584 284.807 266.003 284.807 267.664V268.42H274.111C274.186 269.876 274.569 270.968 275.259 271.696C275.969 272.424 276.921 272.788 278.115 272.788C278.993 272.788 279.721 272.583 280.299 272.172C280.878 271.761 281.279 271.211 281.503 270.52L284.583 270.716C284.191 272.097 283.417 273.217 282.259 274.076C281.121 274.916 279.73 275.336 278.087 275.336ZM274.111 266.18H281.671C281.578 264.855 281.195 263.875 280.523 263.24C279.87 262.605 279.03 262.288 278.003 262.288C276.939 262.288 276.062 262.624 275.371 263.296C274.699 263.949 274.279 264.911 274.111 266.18ZM293.107 275.336C291.838 275.336 290.727 275.019 289.775 274.384C288.842 273.749 288.123 272.853 287.619 271.696C287.134 270.52 286.891 269.139 286.891 267.552C286.891 265.965 287.143 264.593 287.647 263.436C288.151 262.26 288.87 261.355 289.803 260.72C290.736 260.085 291.838 259.768 293.107 259.768C294.134 259.768 295.048 259.983 295.851 260.412C296.654 260.841 297.26 261.439 297.671 262.204V255.12H300.639V275H297.867L297.783 272.76C297.372 273.563 296.747 274.197 295.907 274.664C295.086 275.112 294.152 275.336 293.107 275.336ZM293.891 272.76C294.694 272.76 295.375 272.555 295.935 272.144C296.495 271.733 296.924 271.136 297.223 270.352C297.522 269.568 297.671 268.635 297.671 267.552C297.671 266.432 297.522 265.489 297.223 264.724C296.924 263.94 296.495 263.352 295.935 262.96C295.375 262.549 294.694 262.344 293.891 262.344C292.696 262.344 291.744 262.811 291.035 263.744C290.326 264.659 289.971 265.928 289.971 267.552C289.971 269.157 290.326 270.427 291.035 271.36C291.744 272.293 292.696 272.76 293.891 272.76Z" fill="white"/>
<path d="M796.89 275V255.12H799.914V275H796.89ZM804.676 275V260.104H807.392L807.504 264.08L807.14 263.884C807.308 262.913 807.626 262.129 808.092 261.532C808.559 260.935 809.128 260.496 809.8 260.216C810.472 259.917 811.2 259.768 811.984 259.768C813.104 259.768 814.028 260.02 814.756 260.524C815.503 261.009 816.063 261.681 816.436 262.54C816.828 263.38 817.024 264.341 817.024 265.424V275H814.056V266.32C814.056 265.443 813.963 264.705 813.776 264.108C813.59 263.511 813.282 263.053 812.852 262.736C812.423 262.419 811.863 262.26 811.172 262.26C810.127 262.26 809.278 262.605 808.624 263.296C807.971 263.987 807.644 264.995 807.644 266.32V275H804.676ZM827.023 275.336C825.604 275.336 824.363 275.019 823.299 274.384C822.235 273.749 821.414 272.844 820.835 271.668C820.256 270.492 819.967 269.12 819.967 267.552C819.967 265.984 820.256 264.621 820.835 263.464C821.414 262.288 822.235 261.383 823.299 260.748C824.363 260.095 825.604 259.768 827.023 259.768C828.236 259.768 829.31 259.983 830.243 260.412C831.195 260.823 831.96 261.429 832.539 262.232C833.136 263.035 833.519 264.015 833.687 265.172L830.579 265.34C830.43 264.369 830.038 263.632 829.403 263.128C828.768 262.605 827.975 262.344 827.023 262.344C825.772 262.344 824.792 262.811 824.083 263.744C823.392 264.659 823.047 265.928 823.047 267.552C823.047 269.176 823.392 270.455 824.083 271.388C824.792 272.303 825.772 272.76 827.023 272.76C827.975 272.76 828.768 272.499 829.403 271.976C830.038 271.435 830.43 270.623 830.579 269.54L833.687 269.708C833.519 270.847 833.136 271.836 832.539 272.676C831.96 273.516 831.195 274.169 830.243 274.636C829.31 275.103 828.236 275.336 827.023 275.336ZM842.527 275.336C841.108 275.336 839.867 275.019 838.803 274.384C837.739 273.749 836.918 272.844 836.339 271.668C835.76 270.492 835.471 269.12 835.471 267.552C835.471 265.965 835.76 264.593 836.339 263.436C836.918 262.279 837.739 261.383 838.803 260.748C839.867 260.095 841.108 259.768 842.527 259.768C843.946 259.768 845.187 260.095 846.251 260.748C847.315 261.383 848.136 262.279 848.715 263.436C849.294 264.593 849.583 265.965 849.583 267.552C849.583 269.12 849.294 270.492 848.715 271.668C848.136 272.844 847.315 273.749 846.251 274.384C845.187 275.019 843.946 275.336 842.527 275.336ZM842.527 272.76C843.796 272.76 844.776 272.303 845.467 271.388C846.158 270.455 846.503 269.176 846.503 267.552C846.503 265.928 846.158 264.659 845.467 263.744C844.776 262.811 843.796 262.344 842.527 262.344C841.276 262.344 840.296 262.811 839.587 263.744C838.896 264.659 838.551 265.928 838.551 267.552C838.551 269.176 838.896 270.455 839.587 271.388C840.296 272.303 841.276 272.76 842.527 272.76ZM852.582 275V260.104H855.298L855.382 263.8L855.046 263.688C855.214 262.867 855.504 262.167 855.914 261.588C856.344 261.009 856.866 260.561 857.482 260.244C858.098 259.927 858.77 259.768 859.498 259.768C860.768 259.768 861.804 260.132 862.606 260.86C863.409 261.569 863.913 262.549 864.118 263.8H863.642C863.81 262.923 864.09 262.195 864.482 261.616C864.893 261.019 865.416 260.561 866.05 260.244C866.685 259.927 867.404 259.768 868.206 259.768C869.252 259.768 870.138 259.992 870.866 260.44C871.613 260.869 872.173 261.504 872.546 262.344C872.938 263.184 873.134 264.211 873.134 265.424V275H870.166V266.152C870.166 264.864 869.933 263.893 869.466 263.24C869 262.587 868.29 262.26 867.338 262.26C866.722 262.26 866.181 262.419 865.714 262.736C865.248 263.053 864.884 263.511 864.622 264.108C864.38 264.705 864.258 265.424 864.258 266.264V275H861.43V266.264C861.43 264.995 861.216 264.015 860.786 263.324C860.376 262.615 859.666 262.26 858.658 262.26C858.024 262.26 857.473 262.419 857.006 262.736C856.558 263.053 856.204 263.52 855.942 264.136C855.681 264.733 855.55 265.443 855.55 266.264V275H852.582ZM876.836 279.2V260.104H879.636L879.72 263.296L879.384 263.128C879.758 262.027 880.374 261.196 881.232 260.636C882.091 260.057 883.08 259.768 884.2 259.768C885.656 259.768 886.851 260.132 887.784 260.86C888.736 261.569 889.436 262.512 889.884 263.688C890.351 264.864 890.584 266.152 890.584 267.552C890.584 268.952 890.351 270.24 889.884 271.416C889.436 272.592 888.736 273.544 887.784 274.272C886.851 274.981 885.656 275.336 884.2 275.336C883.454 275.336 882.754 275.205 882.1 274.944C881.447 274.683 880.887 274.319 880.42 273.852C879.972 273.367 879.655 272.797 879.468 272.144L879.804 271.808V279.2H876.836ZM883.668 272.76C884.863 272.76 885.796 272.303 886.468 271.388C887.159 270.473 887.504 269.195 887.504 267.552C887.504 265.909 887.159 264.631 886.468 263.716C885.796 262.801 884.863 262.344 883.668 262.344C882.884 262.344 882.203 262.54 881.624 262.932C881.046 263.305 880.598 263.884 880.28 264.668C879.963 265.452 879.804 266.413 879.804 267.552C879.804 268.691 879.954 269.652 880.252 270.436C880.57 271.22 881.018 271.808 881.596 272.2C882.194 272.573 882.884 272.76 883.668 272.76ZM898.071 275.336C896.521 275.336 895.28 274.981 894.347 274.272C893.432 273.563 892.975 272.564 892.975 271.276C892.975 269.988 893.357 268.989 894.123 268.28C894.907 267.552 896.111 267.029 897.735 266.712L902.859 265.732C902.859 264.575 902.588 263.716 902.047 263.156C901.505 262.577 900.703 262.288 899.639 262.288C898.687 262.288 897.94 262.503 897.399 262.932C896.857 263.343 896.484 263.959 896.279 264.78L893.227 264.584C893.507 263.091 894.197 261.915 895.299 261.056C896.419 260.197 897.865 259.768 899.639 259.768C901.655 259.768 903.185 260.309 904.231 261.392C905.295 262.456 905.827 263.959 905.827 265.9V271.696C905.827 272.051 905.883 272.303 905.995 272.452C906.125 272.583 906.331 272.648 906.611 272.648H907.143V275C907.049 275.019 906.9 275.037 906.695 275.056C906.489 275.075 906.275 275.084 906.051 275.084C905.416 275.084 904.865 274.981 904.399 274.776C903.951 274.571 903.615 274.235 903.391 273.768C903.167 273.283 903.055 272.639 903.055 271.836L903.363 271.976C903.213 272.629 902.887 273.208 902.383 273.712C901.897 274.216 901.272 274.617 900.507 274.916C899.76 275.196 898.948 275.336 898.071 275.336ZM898.547 272.984C899.443 272.984 900.208 272.816 900.843 272.48C901.477 272.125 901.972 271.64 902.327 271.024C902.681 270.408 902.859 269.708 902.859 268.924V267.972L898.491 268.812C897.595 268.98 896.96 269.251 896.587 269.624C896.232 269.979 896.055 270.436 896.055 270.996C896.055 271.631 896.269 272.125 896.699 272.48C897.147 272.816 897.763 272.984 898.547 272.984ZM914.595 275C913.177 275 912.131 274.673 911.459 274.02C910.787 273.367 910.451 272.349 910.451 270.968V256.604H913.419V270.744C913.419 271.435 913.569 271.911 913.867 272.172C914.166 272.433 914.623 272.564 915.239 272.564H917.367V275H914.595ZM908.183 262.54V260.104H917.367V262.54H908.183ZM920.204 275V260.104H923.172V275H920.204ZM920.148 257.948V254.98H923.228V257.948H920.148ZM934.295 275.336C933.269 275.336 932.354 275.112 931.551 274.664C930.767 274.197 930.161 273.563 929.731 272.76L929.647 275H926.875V255.12H929.843V262.204C930.235 261.551 930.814 260.981 931.579 260.496C932.363 260.011 933.269 259.768 934.295 259.768C935.583 259.768 936.703 260.085 937.655 260.72C938.607 261.355 939.335 262.26 939.839 263.436C940.362 264.593 940.623 265.965 940.623 267.552C940.623 269.139 940.362 270.52 939.839 271.696C939.335 272.853 938.607 273.749 937.655 274.384C936.703 275.019 935.583 275.336 934.295 275.336ZM933.819 272.76C934.958 272.76 935.863 272.303 936.535 271.388C937.207 270.455 937.543 269.176 937.543 267.552C937.543 265.928 937.207 264.659 936.535 263.744C935.863 262.811 934.967 262.344 933.847 262.344C933.007 262.344 932.289 262.549 931.691 262.96C931.094 263.371 930.637 263.968 930.319 264.752C930.002 265.517 929.843 266.451 929.843 267.552C929.843 268.616 930.002 269.54 930.319 270.324C930.637 271.108 931.094 271.715 931.691 272.144C932.289 272.555 932.998 272.76 933.819 272.76ZM947.022 275C946.051 275 945.267 274.748 944.67 274.244C944.072 273.74 943.774 272.937 943.774 271.836V255.12H946.742V271.556C946.742 271.892 946.826 272.144 946.994 272.312C947.18 272.48 947.442 272.564 947.778 272.564H948.954V275H947.022ZM957.617 275.336C956.161 275.336 954.901 275.019 953.837 274.384C952.791 273.749 951.979 272.844 951.401 271.668C950.841 270.492 950.561 269.12 950.561 267.552C950.561 265.984 950.841 264.621 951.401 263.464C951.979 262.288 952.791 261.383 953.837 260.748C954.882 260.095 956.114 259.768 957.533 259.768C958.877 259.768 960.062 260.085 961.089 260.72C962.115 261.336 962.909 262.232 963.469 263.408C964.047 264.584 964.337 266.003 964.337 267.664V268.42H953.641C953.715 269.876 954.098 270.968 954.789 271.696C955.498 272.424 956.45 272.788 957.645 272.788C958.522 272.788 959.25 272.583 959.829 272.172C960.407 271.761 960.809 271.211 961.033 270.52L964.113 270.716C963.721 272.097 962.946 273.217 961.789 274.076C960.65 274.916 959.259 275.336 957.617 275.336ZM953.641 266.18H961.201C961.107 264.855 960.725 263.875 960.053 263.24C959.399 262.605 958.559 262.288 957.533 262.288C956.469 262.288 955.591 262.624 954.901 263.296C954.229 263.949 953.809 264.911 953.641 266.18Z" fill="white"/>
<path d="M500.924 275V255.12H508.064C510.453 255.12 512.254 255.549 513.468 256.408C514.681 257.267 515.288 258.629 515.288 260.496C515.288 261.336 515.11 262.073 514.756 262.708C514.401 263.343 513.878 263.847 513.188 264.22C512.516 264.575 511.713 264.761 510.78 264.78L510.752 264.668C512.45 264.705 513.766 265.172 514.7 266.068C515.652 266.945 516.128 268.103 516.128 269.54C516.128 271.351 515.521 272.713 514.308 273.628C513.094 274.543 511.368 275 509.128 275H500.924ZM503.948 272.284H509.044C510.294 272.284 511.265 272.032 511.956 271.528C512.665 271.005 513.02 270.249 513.02 269.26C513.02 268.289 512.665 267.533 511.956 266.992C511.265 266.451 510.294 266.18 509.044 266.18H503.948V272.284ZM503.948 263.604H508.008C509.333 263.604 510.36 263.352 511.088 262.848C511.816 262.344 512.18 261.635 512.18 260.72C512.18 259.749 511.825 259.031 511.116 258.564C510.425 258.079 509.389 257.836 508.008 257.836H503.948V263.604ZM519.62 275V260.104H522.336L522.448 264.052L522.196 263.968C522.401 262.624 522.812 261.644 523.428 261.028C524.062 260.412 524.912 260.104 525.976 260.104H527.404V262.764H525.976C525.229 262.764 524.604 262.885 524.1 263.128C523.596 263.371 523.213 263.744 522.952 264.248C522.709 264.752 522.588 265.405 522.588 266.208V275H519.62ZM535.65 275.336C534.231 275.336 532.99 275.019 531.926 274.384C530.862 273.749 530.041 272.844 529.462 271.668C528.883 270.492 528.594 269.12 528.594 267.552C528.594 265.965 528.883 264.593 529.462 263.436C530.041 262.279 530.862 261.383 531.926 260.748C532.99 260.095 534.231 259.768 535.65 259.768C537.069 259.768 538.31 260.095 539.374 260.748C540.438 261.383 541.259 262.279 541.838 263.436C542.417 264.593 542.706 265.965 542.706 267.552C542.706 269.12 542.417 270.492 541.838 271.668C541.259 272.844 540.438 273.749 539.374 274.384C538.31 275.019 537.069 275.336 535.65 275.336ZM535.65 272.76C536.919 272.76 537.899 272.303 538.59 271.388C539.281 270.455 539.626 269.176 539.626 267.552C539.626 265.928 539.281 264.659 538.59 263.744C537.899 262.811 536.919 262.344 535.65 262.344C534.399 262.344 533.419 262.811 532.71 263.744C532.019 264.659 531.674 265.928 531.674 267.552C531.674 269.176 532.019 270.455 532.71 271.388C533.419 272.303 534.399 272.76 535.65 272.76ZM545.705 275V255.12H548.673V267.468L555.365 260.104H559.117L553.293 266.376L559.341 275H555.925L551.305 268.224L548.673 271.024V275H545.705ZM567.314 275.336C565.858 275.336 564.598 275.019 563.534 274.384C562.489 273.749 561.677 272.844 561.098 271.668C560.538 270.492 560.258 269.12 560.258 267.552C560.258 265.984 560.538 264.621 561.098 263.464C561.677 262.288 562.489 261.383 563.534 260.748C564.579 260.095 565.811 259.768 567.23 259.768C568.574 259.768 569.759 260.085 570.786 260.72C571.813 261.336 572.606 262.232 573.166 263.408C573.745 264.584 574.034 266.003 574.034 267.664V268.42H563.338C563.413 269.876 563.795 270.968 564.486 271.696C565.195 272.424 566.147 272.788 567.342 272.788C568.219 272.788 568.947 272.583 569.526 272.172C570.105 271.761 570.506 271.211 570.73 270.52L573.81 270.716C573.418 272.097 572.643 273.217 571.486 274.076C570.347 274.916 568.957 275.336 567.314 275.336ZM563.338 266.18H570.898C570.805 264.855 570.422 263.875 569.75 263.24C569.097 262.605 568.257 262.288 567.23 262.288C566.166 262.288 565.289 262.624 564.598 263.296C563.926 263.949 563.506 264.911 563.338 266.18ZM577.041 275V260.104H579.757L579.869 264.08L579.505 263.884C579.673 262.913 579.991 262.129 580.457 261.532C580.924 260.935 581.493 260.496 582.165 260.216C582.837 259.917 583.565 259.768 584.349 259.768C585.469 259.768 586.393 260.02 587.121 260.524C587.868 261.009 588.428 261.681 588.801 262.54C589.193 263.38 589.389 264.341 589.389 265.424V275H586.421V266.32C586.421 265.443 586.328 264.705 586.141 264.108C585.955 263.511 585.647 263.053 585.217 262.736C584.788 262.419 584.228 262.26 583.537 262.26C582.492 262.26 581.643 262.605 580.989 263.296C580.336 263.987 580.009 264.995 580.009 266.32V275H577.041Z" fill="white"/>
<g filter="url(#filter0_d_4245_155611)">
<rect x="509" y="342" width="72" height="72" rx="36" stroke="white" stroke-opacity="0.3" stroke-width="2"/>
<circle cx="545" cy="378" r="34" fill="url(#paint4_linear_4245_155611)" fill-opacity="0.17" stroke="#E6A62F" stroke-width="2"/>
</g>
<g filter="url(#filter1_d_4245_155611)">
<rect x="844" y="342" width="72" height="72" rx="14" stroke="white" stroke-opacity="0.3" stroke-width="2"/>
<path d="M858 344H902C908.627 344 914 349.373 914 356V400C914 406.627 908.627 412 902 412H858C851.373 412 846 406.627 846 400V356C846 349.373 851.373 344 858 344Z" fill="url(#paint5_linear_4245_155611)" fill-opacity="0.17" stroke="#6FC7ED" stroke-width="2"/>
</g>
<g filter="url(#filter2_d_4245_155611)" transform="translate(0, -4)">
<path d="M206.262 343.793C208.349 342.064 211.406 342.088 213.492 343.837C228.693 356.584 239.66 373.901 244.576 393.116L245.615 397.177C246.062 398.922 245.36 400.792 243.875 401.838C223.711 416.036 196.454 416.126 176.438 401.746C175.034 400.738 174.37 398.987 174.752 397.302L175.552 393.773C179.992 374.181 190.79 356.608 206.262 343.793Z" stroke="white" stroke-opacity="0.3" stroke-width="2"/>
<path d="M206.508 345.303C208.49 343.64 211.424 343.673 213.4 345.367C227.756 357.673 238.088 374.292 242.645 392.638L243.696 396.875C244.098 398.492 243.455 400.203 242.087 401.166C222.952 414.633 197.242 414.559 178.292 400.846C176.979 399.896 176.365 398.252 176.733 396.674L177.837 391.944C182.096 373.705 192.156 357.338 206.508 345.303Z" fill="url(#paint6_linear_4245_155611)" fill-opacity="0.17" stroke="#47CE76" stroke-width="2"/>
</g>
<defs>
<filter id="filter0_d_4245_155611" x="493" y="326" width="104" height="104" filterUnits="userSpaceOnUse" color-interpolation-filters="sRGB">
<feFlood flood-opacity="0" result="BackgroundImageFix"/>
<feColorMatrix in="SourceAlpha" type="matrix" values="0 0 0 0 0 0 0 0 0 0 0 0 0 0 0 0 0 0 127 0" result="hardAlpha"/>
<feOffset/>
<feGaussianBlur stdDeviation="7.5"/>
<feComposite in2="hardAlpha" operator="out"/>
<feColorMatrix type="matrix" values="0 0 0 0 0 0 0 0 0 0 0 0 0 0 0 0 0 0 0.5 0"/>
<feBlend mode="normal" in2="BackgroundImageFix" result="effect1_dropShadow_4245_155611"/>
<feBlend mode="normal" in="SourceGraphic" in2="effect1_dropShadow_4245_155611" result="shape"/>
</filter>
<filter id="filter1_d_4245_155611" x="828" y="326" width="104" height="104" filterUnits="userSpaceOnUse" color-interpolation-filters="sRGB">
<feFlood flood-opacity="0" result="BackgroundImageFix"/>
<feColorMatrix in="SourceAlpha" type="matrix" values="0 0 0 0 0 0 0 0 0 0 0 0 0 0 0 0 0 0 127 0" result="hardAlpha"/>
<feOffset/>
<feGaussianBlur stdDeviation="7.5"/>
<feComposite in2="hardAlpha" operator="out"/>
<feColorMatrix type="matrix" values="0 0 0 0 0 0 0 0 0 0 0 0 0 0 0 0 0 0 0.5 0"/>
<feBlend mode="normal" in2="BackgroundImageFix" result="effect1_dropShadow_4245_155611"/>
<feBlend mode="normal" in="SourceGraphic" in2="effect1_dropShadow_4245_155611" result="shape"/>
</filter>
<filter id="filter2_d_4245_155611" x="158.648" y="326.508" width="103.102" height="102" filterUnits="userSpaceOnUse" color-interpolation-filters="sRGB">
<feFlood flood-opacity="0" result="BackgroundImageFix"/>
<feColorMatrix in="SourceAlpha" type="matrix" values="0 0 0 0 0 0 0 0 0 0 0 0 0 0 0 0 0 0 127 0" result="hardAlpha"/>
<feOffset/>
<feGaussianBlur stdDeviation="7.5"/>
<feComposite in2="hardAlpha" operator="out"/>
<feColorMatrix type="matrix" values="0 0 0 0 0 0 0 0 0 0 0 0 0 0 0 0 0 0 0.5 0"/>
<feBlend mode="normal" in2="BackgroundImageFix" result="effect1_dropShadow_4245_155611"/>
<feBlend mode="normal" in="SourceGraphic" in2="effect1_dropShadow_4245_155611" result="shape"/>
</filter>
<linearGradient id="paint0_linear_4245_155611" x1="589.565" y1="114" x2="590.632" y2="41.5019" gradientUnits="userSpaceOnUse">
<stop stop-color="white"/>
<stop offset="1" stop-color="white" stop-opacity="0"/>
</linearGradient>
<linearGradient id="paint1_linear_4245_155611" x1="588.788" y1="106" x2="589.874" y2="33.5025" gradientUnits="userSpaceOnUse">
<stop stop-color="white"/>
<stop offset="1" stop-color="white" stop-opacity="0"/>
</linearGradient>
<linearGradient id="paint2_linear_4245_155611" x1="42.5" y1="625" x2="43" y2="674" gradientUnits="userSpaceOnUse">
<stop offset="0.480769" stop-color="white"/>
<stop offset="1" stop-color="white" stop-opacity="0"/>
</linearGradient>
<linearGradient id="paint3_linear_4245_155611" x1="1048.5" y1="623" x2="1048" y2="672" gradientUnits="userSpaceOnUse">
<stop offset="0.480769" stop-color="white"/>
<stop offset="1" stop-color="white" stop-opacity="0"/>
</linearGradient>
<linearGradient id="paint4_linear_4245_155611" x1="576.229" y1="413" x2="502.969" y2="351.356" gradientUnits="userSpaceOnUse">
<stop stop-color="white"/>
<stop offset="1" stop-color="white" stop-opacity="0.5"/>
</linearGradient>
<linearGradient id="paint5_linear_4245_155611" x1="911.229" y1="413" x2="837.969" y2="351.356" gradientUnits="userSpaceOnUse">
<stop stop-color="white"/>
<stop offset="1" stop-color="white" stop-opacity="0.5"/>
</linearGradient>
<linearGradient id="paint6_linear_4245_155611" x1="241.702" y1="424.999" x2="157.684" y2="365.592" gradientUnits="userSpaceOnUse">
<stop stop-color="white"/>
<stop offset="1" stop-color="white" stop-opacity="0.5"/>
</linearGradient>
</defs>
</svg>
