<svg width="348" height="287" viewBox="0 15 348 287" fill="none" xmlns="http://www.w3.org/2000/svg">
<mask id="mask0_4245_157644" style="mask-type:alpha" maskUnits="userSpaceOnUse" x="15" y="26" width="316" height="261">
<path d="M331 156.5C331 228.573 260.261 287 173 287C85.7391 287 15.0001 228.573 15 156.5C15 84.4268 85.739 26 173 26C260.261 26 331 84.4268 331 156.5Z" fill="url(#paint0_radial_4245_157644)"/>
</mask>
<g mask="url(#mask0_4245_157644)">
<ellipse cx="112.045" cy="222.913" rx="16.2797" ry="5.95952" fill="#713ADA" fill-opacity="0.4"/>
<ellipse cx="112.045" cy="222.913" rx="16.2797" ry="5.95952" stroke="white" stroke-width="0.910468"/>
<path d="M124.25 226.668C125.81 225.826 126.719 224.813 126.719 223.724C126.719 220.796 120.149 218.422 112.043 218.422C103.938 218.422 97.3672 220.796 97.3672 223.724C97.3672 224.813 98.2768 225.826 99.8367 226.668" stroke="white" stroke-width="0.364187" stroke-linecap="round"/>
<path d="M149.108 210.118L149.328 209.719L149.108 210.118ZM56.9535 167.602L57.1028 167.172L56.9713 167.126L56.8367 167.162L56.9535 167.602ZM152.379 200.742L152.509 201.178C152.698 201.122 152.829 200.95 152.834 200.752C152.838 200.555 152.714 200.377 152.528 200.312L152.379 200.742ZM50.4984 229.361L50.6762 228.942V228.942L50.4984 229.361ZM-34.7015 193.213L-34.8793 193.632L-34.7015 193.213ZM-34.6037 191.842L-34.7202 191.401L-34.7202 191.401L-34.6037 191.842ZM60.5873 228.017L60.7233 228.452L60.7288 228.45L60.5873 228.017ZM55.5074 229.607L55.3715 229.172V229.172L55.5074 229.607ZM-29.4596 190.48L-29.3431 190.92L-29.3355 190.918L-29.328 190.916L-29.4596 190.48ZM31.7345 174.296L31.8284 174.741L31.8399 174.739L31.8513 174.736L31.7345 174.296ZM-27.2066 181.678L-27.3896 182.094L-27.3858 182.096L-27.2066 181.678ZM5.93415 172.244L6.09404 171.817L6.0924 171.817L5.93415 172.244ZM7.31501 172.762L7.50262 172.347L7.48895 172.341L7.47491 172.335L7.31501 172.762ZM129.879 230.104L129.71 229.681L129.879 230.104ZM111.607 233.084V232.628C104.39 232.628 97.9121 231.47 93.3905 229.636L93.2194 230.057L93.0482 230.479C97.7065 232.369 104.308 233.539 111.607 233.539V233.084ZM149.108 210.118L148.888 210.516C150.475 211.393 151.841 212.351 152.852 213.348C153.867 214.349 154.492 215.357 154.665 216.331C154.834 217.281 154.584 218.264 153.71 219.27C152.822 220.29 151.294 221.328 148.931 222.323L149.108 222.742L149.285 223.162C151.71 222.14 153.38 221.036 154.397 219.867C155.426 218.684 155.785 217.429 155.562 216.172C155.343 214.939 154.576 213.77 153.491 212.7C152.402 211.626 150.961 210.621 149.328 209.719L149.108 210.118ZM56.9535 167.602L56.8041 168.032L152.229 201.172L152.379 200.742L152.528 200.312L57.1028 167.172L56.9535 167.602ZM50.4984 229.361L50.6762 228.942L-34.5237 192.794L-34.7015 193.213L-34.8793 193.632L50.3206 229.78L50.4984 229.361ZM-34.7015 193.213L-34.5237 192.794C-34.7619 192.693 -34.7372 192.348 -34.4872 192.282L-34.6037 191.842L-34.7202 191.401C-35.8087 191.69 -35.9159 193.192 -34.8793 193.632L-34.7015 193.213ZM74.9774 225.816V226.271C82.731 226.271 88.4959 228.485 93.1833 230.521L93.3647 230.104L93.5461 229.686C88.82 227.633 82.9181 225.361 74.9774 225.361V225.816ZM60.5873 228.017L60.7288 228.45C64.9672 227.064 70.2245 226.271 74.9774 226.271V225.816V225.361C70.1369 225.361 64.7834 226.166 60.4459 227.585L60.5873 228.017ZM55.5074 229.607L55.6434 230.041L60.7233 228.452L60.5873 228.017L60.4514 227.583L55.3715 229.172L55.5074 229.607ZM-34.6037 191.842L-34.4872 192.282L-29.3431 190.92L-29.4596 190.48L-29.5761 190.04L-34.7202 191.401L-34.6037 191.842ZM31.7345 174.296L31.8513 174.736L57.0703 168.042L56.9535 167.602L56.8367 167.162L31.6177 173.856L31.7345 174.296ZM50.4984 229.361L50.3206 229.78C52.0077 230.496 53.8944 230.589 55.6434 230.041L55.5074 229.607L55.3715 229.172C53.8286 229.655 52.1644 229.574 50.6762 228.942L50.4984 229.361ZM149.108 210.118L149.328 209.719C147.407 208.658 146.584 207.217 146.584 205.971H146.128H145.673C145.673 207.642 146.768 209.345 148.888 210.516L149.108 210.118ZM146.128 205.971H146.584C146.584 205.071 146.937 204.226 147.841 203.428C148.762 202.615 150.253 201.854 152.509 201.178L152.379 200.742L152.248 200.306C149.935 200.999 148.301 201.808 147.239 202.746C146.16 203.698 145.673 204.783 145.673 205.971H146.128ZM-31.7126 177.195H-31.2574C-31.2574 176.377 -30.7692 175.529 -29.726 174.693C-28.687 173.86 -27.1557 173.091 -25.2231 172.436C-21.3623 171.127 -15.9995 170.31 -10.0548 170.31V169.855V169.399C-16.0714 169.399 -21.5375 170.225 -25.5153 171.573C-27.5019 172.247 -29.1423 173.059 -30.2953 173.982C-31.4439 174.903 -32.1678 175.985 -32.1678 177.195H-31.7126ZM-27.2066 181.678L-27.0237 181.261C-28.4079 180.653 -29.481 179.981 -30.2011 179.278C-30.9201 178.577 -31.2574 177.876 -31.2574 177.195H-31.7126H-32.1678C-32.1678 178.201 -31.6647 179.122 -30.837 179.93C-30.0105 180.737 -28.8305 181.462 -27.3896 182.094L-27.2066 181.678ZM-10.0548 169.855V170.31C-3.75988 170.31 1.88039 171.226 5.7759 172.67L5.93415 172.244L6.0924 171.817C2.06765 170.325 -3.68631 169.399 -10.0548 169.399V169.855ZM21.9967 175.233V174.777C16.0062 174.777 10.735 173.809 7.50262 172.347L7.31501 172.762L7.12741 173.176C10.5206 174.711 15.9342 175.688 21.9967 175.688V175.233ZM31.7345 174.296L31.6407 173.85C28.8592 174.436 25.5508 174.777 21.9967 174.777V175.233V175.688C25.606 175.688 28.9779 175.342 31.8284 174.741L31.7345 174.296ZM-27.2066 181.678L-27.3858 182.096C-26.1427 182.628 -25.1793 183.231 -24.5339 183.86C-23.8883 184.489 -23.5919 185.111 -23.5919 185.698H-23.1367H-22.6815C-22.6815 184.784 -23.146 183.941 -23.8984 183.208C-24.6509 182.475 -25.7225 181.818 -27.0274 181.259L-27.2066 181.678ZM-23.1367 185.698H-23.5919C-23.5919 186.439 -24.0684 187.223 -25.1144 187.997C-26.1522 188.765 -27.6784 189.466 -29.5912 190.044L-29.4596 190.48L-29.328 190.916C-27.3618 190.322 -25.7265 189.583 -24.5726 188.729C-23.427 187.881 -22.6815 186.86 -22.6815 185.698H-23.1367ZM7.31501 172.762L7.47491 172.335L6.09404 171.817L5.93415 172.244L5.77425 172.67L7.15512 173.188L7.31501 172.762ZM129.879 230.104L129.71 229.681C125.193 231.489 118.763 232.628 111.607 232.628V233.084V233.539C118.845 233.539 125.397 232.388 130.048 230.527L129.879 230.104ZM149.108 222.742L148.931 222.323C144.153 224.336 141.23 225.422 138.565 226.38C135.896 227.339 133.473 228.175 129.71 229.681L129.879 230.104L130.048 230.527C133.793 229.027 136.197 228.199 138.873 227.237C141.551 226.275 144.488 225.183 149.285 223.162L149.108 222.742Z" fill="white"/>
<path d="M91.5877 238.682C96.5786 240.603 103.399 241.224 111.29 241.224C119.446 241.224 126.898 239.866 132.257 237.518C139.919 234.901 156.18 229.269 158.982 224.892C161.784 220.514 160.635 214.708 151.309 208.763M91.7457 238.73C86.6279 236.619 83.6585 234.901 75.1259 234.901C68.3961 234.901 63.6003 237.277 57.1746 239.186C53.8315 240.557 49.6889 241.224 47.0245 239.853L-39.8309 202.695C-40.212 202.532 -40.3815 202.087 -40.2012 201.714C-39.458 200.176 -37.6367 196.409 -36.6254 194.327C-36.2112 193.474 -35.6422 192.707 -34.949 192.06L-34.9073 192.021M-30.9827 175.375C-32.0729 176.32 -32.8723 177.628 -34.1805 180.68C-35.3433 183.394 -32.7996 185.663 -30.1106 186.858C-28.0756 187.762 -28.5844 190.056 -30.692 190.783" stroke="white" stroke-width="0.910468"/>
<ellipse cx="55.5025" cy="197.256" rx="54.9439" ry="17.2245" stroke="white" stroke-width="0.910468"/>
<ellipse cx="55.5031" cy="198.491" rx="48.839" ry="13.6633" stroke="white" stroke-width="0.910468"/>
<path d="M102.163 202.563C101.719 201.679 100.943 200.824 99.8706 200.007C93.3684 195.058 75.9585 191.516 55.5025 191.516C35.0464 191.516 17.6365 195.058 11.1343 200.007C10.0629 200.823 9.28768 201.676 8.84375 202.559" stroke="white" stroke-width="0.910468"/>
<path d="M108.385 221.181C108.742 221.187 109.11 221.248 109.398 221.376L112.278 222.657L115.428 221.479C115.734 221.365 116.11 221.316 116.468 221.322C116.825 221.329 117.193 221.39 117.481 221.519C117.744 221.635 118.02 221.851 117.985 222.18C117.969 222.335 117.883 222.461 117.779 222.554C117.676 222.646 117.54 222.72 117.387 222.777L114.76 223.76L117.134 224.815C117.396 224.932 117.672 225.149 117.638 225.478C117.621 225.633 117.534 225.759 117.431 225.852C117.327 225.944 117.192 226.017 117.039 226.074C116.732 226.189 116.356 226.238 115.998 226.231C115.641 226.225 115.272 226.164 114.984 226.036L112.104 224.754L108.955 225.933C108.649 226.047 108.273 226.096 107.915 226.09C107.558 226.084 107.189 226.022 106.901 225.894C106.639 225.777 106.363 225.561 106.397 225.232C106.414 225.077 106.501 224.951 106.604 224.858C106.708 224.766 106.843 224.692 106.996 224.635L109.622 223.651L107.249 222.597C106.987 222.48 106.71 222.264 106.745 221.935C106.762 221.779 106.849 221.654 106.952 221.562C107.056 221.469 107.19 221.395 107.344 221.338C107.65 221.223 108.026 221.174 108.385 221.181Z" stroke="white" stroke-width="0.546281"/>
<path d="M54.3398 168.108L57.5376 167.251V52.4062" stroke="white" stroke-width="0.910468"/>
<path d="M56.2371 171.676L-23.3014 193.249C-24.1023 193.467 -24.1758 194.574 -23.4107 194.895L49.1753 225.368C50.5414 225.941 52.0642 226.023 53.4837 225.598L138.572 200.147C139.386 199.904 139.407 198.759 138.602 198.486L59.9671 171.793C58.763 171.384 57.4644 171.343 56.2371 171.676Z" stroke="white" stroke-width="0.364187"/>
<path d="M150.229 333.701L147.555 331.264L149.457 323.834C150.051 321.357 151.466 316.048 152.369 314.621C153.498 312.838 156.114 311.887 157.956 311.115C159.43 310.496 221.494 286.369 252.342 274.383L281.644 285.319L149.457 339.407L150.229 338.396L150.645 336.851L150.229 333.701Z" fill="url(#paint1_linear_4245_157644)" fill-opacity="0.5"/>
<path d="M53.3193 182.428C53.3193 183.19 52.7011 183.809 51.9385 183.809C51.1758 183.809 50.5576 183.19 50.5576 182.428C50.5576 181.665 51.1758 181.047 51.9385 181.047C52.7011 181.047 53.3193 181.665 53.3193 182.428Z" stroke="white" stroke-width="0.364187"/>
<path d="M47.0691 182.718C47.0691 183.481 46.4509 184.099 45.6882 184.099C44.9256 184.099 44.3074 183.481 44.3074 182.718C44.3074 181.956 44.9256 181.338 45.6882 181.338C46.4509 181.338 47.0691 181.956 47.0691 182.718Z" stroke="white" stroke-width="0.364187"/>
<path d="M40.9642 183.155C40.9642 183.917 40.346 184.535 39.5834 184.535C38.8207 184.535 38.2025 183.917 38.2025 183.155C38.2025 182.392 38.8207 181.774 39.5834 181.774C40.346 181.774 40.9642 182.392 40.9642 183.155Z" stroke="white" stroke-width="0.364187"/>
<path d="M35.0047 183.736C35.0047 184.499 34.4515 185.117 33.7692 185.117C33.0868 185.117 32.5337 184.499 32.5337 183.736C32.5337 182.973 33.0868 182.355 33.7692 182.355C34.4515 182.355 35.0047 182.973 35.0047 183.736Z" stroke="white" stroke-width="0.364187"/>
<path d="M29.4812 184.608C29.4812 185.371 28.9281 185.989 28.2457 185.989C27.5634 185.989 27.0102 185.371 27.0102 184.608C27.0102 183.845 27.5634 183.227 28.2457 183.227C28.9281 183.227 29.4812 183.845 29.4812 184.608Z" stroke="white" stroke-width="0.364187"/>
<path d="M24.1031 185.916C24.1031 186.679 23.5825 187.297 22.9403 187.297C22.2981 187.297 21.7775 186.679 21.7775 185.916C21.7775 185.154 22.2981 184.535 22.9403 184.535C23.5825 184.535 24.1031 185.154 24.1031 185.916Z" stroke="white" stroke-width="0.364187"/>
<path d="M19.16 187.175C19.1925 187.937 18.6986 188.577 18.057 188.604C17.4154 188.631 16.8689 188.036 16.8365 187.274C16.804 186.512 17.2979 185.872 17.9395 185.845C18.5811 185.817 19.1276 186.413 19.16 187.175Z" stroke="white" stroke-width="0.364187"/>
<path d="M14.7992 188.626C14.8378 189.388 14.4142 190.029 13.853 190.057C13.2918 190.086 12.8055 189.491 12.7668 188.73C12.7282 187.968 13.1518 187.327 13.713 187.299C14.2742 187.27 14.7605 187.865 14.7992 188.626Z" stroke="white" stroke-width="0.364187"/>
<path d="M10.8459 190.292C10.994 191.108 10.7299 191.839 10.256 191.925C9.78205 192.011 9.27782 191.42 9.12973 190.604C8.98165 189.788 9.24579 189.057 9.71971 188.971C10.1936 188.885 10.6979 189.476 10.8459 190.292Z" stroke="white" stroke-width="0.364187"/>
<path d="M7.59483 192.502C7.85237 193.437 7.74745 194.281 7.36049 194.388C6.97353 194.494 6.45105 193.823 6.19351 192.888C5.93597 191.954 6.04088 191.11 6.42785 191.003C6.81481 190.896 7.33728 191.568 7.59483 192.502Z" stroke="white" stroke-width="0.364187"/>
<path d="M5.22636 194.819C5.79899 195.601 6.03546 196.402 5.75452 196.608C5.47357 196.813 4.78162 196.346 4.20898 195.563C3.63635 194.781 3.39988 193.98 3.68082 193.775C3.96176 193.569 4.65372 194.036 5.22636 194.819Z" stroke="white" stroke-width="0.364187"/>
<path d="M59.7149 182.428C59.7149 183.19 59.0967 183.809 58.3341 183.809C57.5714 183.809 56.9532 183.19 56.9532 182.428C56.9532 181.665 57.5714 181.047 58.3341 181.047C59.0967 181.047 59.7149 181.665 59.7149 182.428Z" stroke="white" stroke-width="0.364187"/>
<path d="M65.8198 182.718C65.8198 183.481 65.2016 184.099 64.4389 184.099C63.6763 184.099 63.0581 183.481 63.0581 182.718C63.0581 181.956 63.6763 181.338 64.4389 181.338C65.2016 181.338 65.8198 181.956 65.8198 182.718Z" stroke="white" stroke-width="0.364187"/>
<path d="M71.634 183.155C71.634 183.917 71.0157 184.535 70.2531 184.535C69.4905 184.535 68.8722 183.917 68.8722 183.155C68.8722 182.392 69.4905 181.774 70.2531 181.774C71.0157 181.774 71.634 182.392 71.634 183.155Z" stroke="white" stroke-width="0.364187"/>
<path d="M76.8667 183.591C76.8667 184.353 76.3136 184.971 75.6312 184.971C74.9489 184.971 74.3957 184.353 74.3957 183.591C74.3957 182.828 74.9489 182.21 75.6312 182.21C76.3136 182.21 76.8667 182.828 76.8667 183.591Z" stroke="white" stroke-width="0.364187"/>
<path d="M81.9541 184.463C81.9541 185.225 81.401 185.844 80.7186 185.844C80.0363 185.844 79.4831 185.225 79.4831 184.463C79.4831 183.7 80.0363 183.082 80.7186 183.082C81.401 183.082 81.9541 183.7 81.9541 184.463Z" stroke="white" stroke-width="0.364187"/>
<path d="M86.7508 185.335C86.7508 186.097 86.2627 186.716 85.6607 186.716C85.0586 186.716 84.5705 186.097 84.5705 185.335C84.5705 184.572 85.0586 183.954 85.6607 183.954C86.2627 183.954 86.7508 184.572 86.7508 185.335Z" stroke="white" stroke-width="0.364187"/>
<path d="M90.9661 186.352C90.9661 187.115 90.478 187.733 89.8759 187.733C89.2738 187.733 88.7858 187.115 88.7858 186.352C88.7858 185.59 89.2738 184.971 89.8759 184.971C90.478 184.971 90.9661 185.59 90.9661 186.352Z" stroke="white" stroke-width="0.364187"/>
<path d="M95.3235 187.745C95.2645 188.505 94.73 189.084 94.1297 189.037C93.5295 188.991 93.0907 188.337 93.1497 187.576C93.2087 186.816 93.7432 186.237 94.3434 186.284C94.9437 186.331 95.3825 186.985 95.3235 187.745Z" stroke="white" stroke-width="0.364187"/>
<path d="M98.9703 189.19C98.8767 189.947 98.3811 190.509 97.8632 190.445C97.3454 190.381 97.0014 189.715 97.095 188.958C97.1886 188.201 97.6842 187.64 98.2021 187.704C98.7199 187.768 99.0639 188.433 98.9703 189.19Z" stroke="white" stroke-width="0.364187"/>
<path d="M101.942 190.882C101.73 191.615 101.245 192.118 100.859 192.006C100.474 191.895 100.333 191.21 100.546 190.478C100.758 189.745 101.243 189.242 101.628 189.354C102.014 189.466 102.154 190.15 101.942 190.882Z" stroke="white" stroke-width="0.364187"/>
<path d="M104.485 192.688C104.189 193.447 103.645 193.944 103.271 193.798C102.897 193.652 102.835 192.918 103.131 192.159C103.427 191.401 103.971 190.904 104.344 191.05C104.718 191.196 104.781 191.929 104.485 192.688Z" stroke="white" stroke-width="0.364187"/>
<path d="M106.486 195.009C105.956 195.689 105.294 196.058 105.006 195.834C104.718 195.609 104.913 194.876 105.442 194.197C105.972 193.517 106.634 193.148 106.922 193.372C107.21 193.596 107.015 194.329 106.486 195.009Z" stroke="white" stroke-width="0.364187"/>
<path d="M107.579 197.785C106.781 198.309 105.992 198.518 105.817 198.253C105.643 197.987 106.149 197.347 106.948 196.822C107.746 196.298 108.535 196.088 108.71 196.354C108.884 196.62 108.378 197.26 107.579 197.785Z" stroke="white" stroke-width="0.364187"/>
<path d="M151.586 208.943C149.697 207.562 150.356 206.382 153.258 205.381L170.771 200.073M280.088 168.18L239.954 180.298" stroke="white" stroke-width="0.910468" stroke-linecap="round" stroke-linejoin="round"/>
<path d="M170.727 200.022L173.205 201.18C175.445 202.227 177.99 202.422 180.364 201.728L242.621 183.538C244.283 183.067 245.202 182.223 243.522 181.642L239.997 180.352" stroke="white" stroke-width="0.364187"/>
<path d="M272.783 131.773L238.222 141.146M153.906 163.709L169.096 159.421M239.944 155.509V180.222M170.499 170.837V200.281" stroke="white" stroke-width="0.910468" stroke-linecap="round" stroke-linejoin="round"/>
<path d="M272.783 129.562L238.09 139.026M153.906 161.498L169.229 157.433" stroke="white" stroke-width="0.364187"/>
<path d="M252.164 274.369L275.772 284.18C278.576 285.345 281.724 285.368 284.543 284.243L308.562 274.662L313.065 272.717C323.918 268.031 330.946 257.34 330.946 245.518V199.078C330.946 187.304 325.423 182.059 317.792 184.104C313.504 185.253 106.971 253.788 104.121 254.723C91.5398 258.848 82.3906 271.384 82.3906 286.208V343.013C82.3906 353.953 93.1315 361.662 103.497 358.161L104.121 357.95L148.776 339.289C149.857 338.837 150.562 337.779 150.562 336.607V334.447C150.562 333.525 150.049 332.68 149.231 332.255L146.928 331.057" stroke="white" stroke-width="2.36722"/>
<path d="M87.4805 311.21H89.0067C89.0067 306.365 89.0067 299.189 89.0067 293.259C89.0067 287.328 86.6083 266.15 110.81 258.083C129.626 251.811 313.506 189.839 316.195 188.894C318.884 187.95 321.646 187.731 322.446 188.313" stroke="white" stroke-width="0.364187"/>
<path d="M151.29 200.996L152.466 200.681C153.101 200.51 153.543 199.934 153.543 199.277V79.0066C153.543 72.1158 149.128 66.0001 142.588 63.8307L77.84 42.3545C75.3551 41.5302 73.601 39.3037 73.3813 36.6949L69.6235 -8.10003C69.4878 -9.71691 70.6236 -11.1642 72.2264 -11.4167L85.72 -13.5427C86.9816 -13.7405 88.2245 -13.0918 88.7838 -11.9438L97.3798 6.43046C98.2309 8.17776 100.136 9.15087 102.05 8.81652L255.619 -18.0016C256.374 -18.1335 257.102 -17.6559 257.282 -16.9105L270.263 36.9115C271.663 42.7148 272.37 48.6634 272.37 54.633V159.219C272.37 162.931 274.72 166.236 278.226 167.456L323.971 183.588" stroke="white" stroke-width="1.09256"/>
<path d="M52.5225 40.201L29.6766 34.3164C29.1004 34.168 28.5391 34.6031 28.5391 35.1981V44.7996C28.5391 46.4573 29.6585 47.9058 31.2625 48.3238L49.3159 53.0286C51.4267 53.5787 53.634 53.6478 55.7751 53.2307L80.5032 48.4135L52.5225 40.201Z" stroke="white" stroke-width="1.09256"/>
<path d="M75.4885 41.2896L-18.7689 18.8011C-21.2956 18.1982 -22.9652 15.7921 -22.6455 13.2141L-17.9411 -24.7189C-17.6599 -26.9863 -15.9046 -28.7898 -13.6456 -29.1324L0.267674 -31.2422L86.8819 -13.4906" stroke="white" stroke-width="1.09256"/>
<path d="M-28.8038 173.452C-50.7956 179.168 -68.5388 183.816 -69.285 184.053C-79.0531 187.158 -86.2188 197.359 -86.2188 209.465L-86.1737 246.043C-86.1568 259.8 -78.3896 272.373 -66.0952 278.545L91.4768 357.654M-16.0127 170.132C18.1483 161.277 56.3368 151.469 57.5366 151.469" stroke="white" stroke-width="1.09256"/>
<path d="M87.1899 312.222V286.52C87.1899 273.166 95.43 261.874 106.761 258.158C109.328 257.316 314.53 188.047 317.649 187.295C322.954 186.016 327.315 187.801 327.315 198.702V222.03L87.1899 312.222ZM87.1899 312.222V332.347M149.91 333.594L103.153 352.748C95.5027 355.882 87.1172 350.255 87.1172 341.987V332.347M325.82 222.737V243.634C325.82 254.871 319.012 264.988 308.602 269.219L282.642 279.771C280.859 280.496 278.86 280.484 277.086 279.737L258.781 272.032" stroke="white" stroke-width="1.09256"/>
<path d="M87.5508 320.955L90.5874 322.411C92.0351 323.105 93.7053 323.169 95.2023 322.589L132.32 308.203M319.245 225.094V233.912C319.245 235.733 318.114 237.362 316.408 237.998L292.282 246.99M132.32 308.203L133.796 307.63C133.881 307.598 133.965 307.568 134.05 307.541M132.32 308.203L134.05 307.541M292.282 246.99L292.141 247.044M292.282 246.99C292.235 247.008 292.188 247.026 292.141 247.044M134.05 307.541L292.141 247.044M134.05 307.541C136.833 306.648 139.733 308.722 139.733 311.696V330.048C139.733 332.101 141.803 333.507 143.711 332.75L145.646 331.984C146.993 331.45 147.987 330.282 148.298 328.866L150.651 318.167C151.276 315.322 153.281 312.978 155.993 311.917L268.425 267.961C270.592 267.113 273.043 268.117 273.993 270.242L277.684 278.493C278.288 279.844 279.849 280.479 281.224 279.933L282.276 279.515C283.379 279.077 284.149 278.063 284.275 276.883L286.699 254.181C287.042 250.97 289.143 248.221 292.141 247.044" stroke="white" stroke-width="1.63884"/>
<path d="M82.3937 285.048L-86.1445 209.609" stroke="white" stroke-width="1.63884"/>
<path d="M152.016 73.0512L73.5977 49.8672" stroke="white" stroke-width="1.63884"/>
<path d="M28.3929 35.3275L-20.3008 18.5391" stroke="white" stroke-width="1.09256"/>
<path d="M126.145 297.698V299.9C126.145 300.309 126.555 300.59 126.937 300.442L139.8 295.443C140.024 295.356 140.171 295.141 140.171 294.901V292.319M169.605 281.636V283.839C169.605 284.248 170.016 284.529 170.397 284.381L183.261 279.382C183.485 279.295 183.632 279.08 183.632 278.84V276.258M210.45 266.519V268.722C210.45 269.131 210.861 269.412 211.242 269.264L224.106 264.265C224.329 264.178 224.477 263.963 224.477 263.723V261.141M248.097 252.129V254.332C248.097 254.741 248.508 255.022 248.889 254.874L261.753 249.875C261.976 249.788 262.123 249.573 262.123 249.333V246.751M284.145 238.175V240.378C284.145 240.787 284.555 241.068 284.937 240.92L297.8 235.921C298.024 235.834 298.171 235.619 298.171 235.379V232.797" stroke="white" stroke-width="1.09256"/>
<path fill-rule="evenodd" clip-rule="evenodd" d="M55.3838 191.336C78.3122 191.336 97.4387 196.065 101.841 202.348C95.8781 207.926 77.3364 211.995 55.3838 211.995C33.4305 211.995 14.8878 207.926 8.92578 202.348C13.3271 196.064 32.4547 191.336 55.3838 191.336Z" fill="#EFEFEF" fill-opacity="0.4"/>
<path d="M53.1294 40.4474L29.0099 34.2301C28.8177 37.2123 28.4333 43.4572 28.4333 44.5794C28.4333 45.9821 29.0099 47.737 31.0466 48.1658C33.0833 48.5946 43.16 50.8457 46.2687 52.2393C48.7557 53.3541 51.8787 53.4899 53.1294 53.4185V40.4474Z" fill="#D9D9D9" fill-opacity="0.07"/>
<path d="M70.1934 -10.5953L-16.5407 -27.9441C-16.9267 -27.4654 -17.7107 -26.3937 -17.7588 -25.9366C-17.819 -25.3652 -22.9176 13.276 -22.9176 13.456C-22.9176 13.6359 -22.8148 15.5386 -22.5577 16.2586C-22.352 16.8345 -21.3308 17.6999 -20.8459 18.0605L74.2478 40.9877H75.3724C74.7706 40.0013 73.5434 37.7797 73.4487 36.7853C73.3303 35.5424 69.631 -7.16242 69.5126 -8.52376C69.4179 -9.61284 69.927 -10.3586 70.1934 -10.5953Z" fill="#D9D9D9" fill-opacity="0.07"/>
<path d="M152.42 73.1266L74.2478 49.6033L57.5959 52.9109L57.3153 159.76V167.564L151.786 200.545C152.046 200.545 152.64 200.489 152.934 200.269L152.98 200.235C153.324 199.978 153.577 199.789 153.577 199.305V165.884C153.424 139.869 153.209 86.7464 153.577 82.3759C153.944 78.0054 152.958 74.3887 152.42 73.1266Z" fill="#D9D9D9" fill-opacity="0.07"/>
<path d="M82.3581 285.035L-86.1568 209.799L-86.5391 238.68C-86.3615 243.962 -86.1568 255.059 -86.1568 255.059C-86.1568 255.059 52.9589 321.93 82.3581 336.04V285.035Z" fill="#D9D9D9" fill-opacity="0.07"/>
<path d="M-30.7827 179.23C-31.6864 178.376 -31.745 177.2 -31.6613 176.719C-32.1634 176.719 -34.3599 180.61 -34.5482 181.865C-34.7364 183.12 -33.3558 184.878 -32.4144 185.631C-31.4731 186.384 -29.1511 187.325 -28.8373 188.392C-28.5863 189.246 -29.695 190.254 -30.2807 190.651C-30.1343 190.756 -29.1762 190.639 -26.5153 189.333C-23.1892 187.702 -23.503 186.635 -23.2519 185.631C-23.0009 184.627 -24.3188 183.183 -25.7622 182.305C-27.2056 181.426 -29.6531 180.296 -30.7827 179.23Z" fill="#D9D9D9" fill-opacity="0.07"/>
<path d="M125.495 239.459L124.303 232.302C121.529 232.506 115.526 232.912 113.701 232.912H104.785L104.439 240.93C105.524 241.068 108.724 241.345 112.846 241.345C116.968 241.345 122.996 240.087 125.495 239.459Z" fill="#D9D9D9" fill-opacity="0.07"/>
<path d="M94.8342 239.836L96.3673 231.189L92.6265 230.024C91.8702 232.191 90.2717 236.855 89.9283 238.18C90.6151 238.622 93.4851 239.468 94.8342 239.836Z" fill="#D9D9D9" fill-opacity="0.07"/>
<path d="M50.043 240.628L52.7781 230.024L51.0651 229.582L-34.6295 193.351L-35.2793 192.647L-36.3625 193.73C-37.5991 196.149 -40.1047 201.139 -40.2347 201.746C-40.3647 202.352 -39.7112 202.793 -39.3682 202.937C-11.8538 214.673 43.6071 238.339 45.3354 239.113C47.0637 239.887 49.1939 240.446 50.043 240.628Z" fill="#D9D9D9" fill-opacity="0.07"/>
<path d="M0.473969 -30.9743V-35.3281L86.4202 -18.6977V-13.6567L85.9601 -13.5588L0.473969 -30.9743Z" fill="#D9D9D9" fill-opacity="0.07"/>
<path d="M86.3653 269.688C87.8714 265.585 88.7382 265.753 89.9283 264.65L-80.5007 192.134C-81.5426 193.292 -82.7195 194.605 -83.3589 196.517C-83.9983 198.429 -84.886 200.75 -85.4737 202.937L83.5411 277.006C83.7575 275.772 84.8592 273.791 86.3653 269.688Z" fill="#D9D9D9" fill-opacity="0.07"/>
<path d="M231.493 116.717H231.037V117.322L231.619 117.154L231.493 116.717ZM174.188 131.667L174.303 132.108V132.108L174.188 131.667ZM236.321 115.324L236.447 115.762V115.762L236.321 115.324ZM169.324 134.507H168.869L168.869 134.507L169.324 134.507ZM170.846 132.538L170.731 132.097V132.097L170.846 132.538ZM170.99 168.112L170.866 167.674L170.99 168.112ZM169.358 168.587L168.903 168.588C168.903 168.732 168.971 168.867 169.087 168.953C169.202 169.038 169.351 169.065 169.489 169.023L169.358 168.587ZM236.513 149.496L236.389 149.058L236.513 149.496ZM237.992 149.06L238.127 149.495L238.447 149.395V149.06H237.992ZM229.865 108.15L229.976 108.591L229.865 108.15ZM177.248 121.405L177.137 120.964L177.248 121.405ZM177.248 121.405L177.359 121.847L229.976 108.591L229.865 108.15L229.754 107.708L177.137 120.964L177.248 121.405ZM236.513 149.496L236.389 149.058L170.866 167.674L170.99 168.112L171.114 168.55L236.637 149.934L236.513 149.496ZM169.358 168.587L169.814 168.587L169.779 134.506L169.324 134.507L168.869 134.507L168.903 168.588L169.358 168.587ZM237.992 116.581H237.537V149.06H237.992H238.447V116.581H237.992ZM231.493 109.418H231.037V116.717H231.493H231.948V109.418H231.493ZM231.493 116.717L231.619 117.154L236.447 115.762L236.321 115.324L236.195 114.887L231.366 116.279L231.493 116.717ZM170.846 132.538L170.961 132.978L174.303 132.108L174.188 131.667L174.074 131.227L170.731 132.097L170.846 132.538ZM175.71 129.698H176.165V123.379H175.71H175.255V129.698H175.71ZM174.188 131.667L174.303 132.108C175.4 131.822 176.165 130.831 176.165 129.698H175.71H175.255C175.255 130.417 174.769 131.045 174.074 131.227L174.188 131.667ZM237.992 116.581H238.447C238.447 115.408 237.322 114.562 236.195 114.887L236.321 115.324L236.447 115.762C236.993 115.604 237.537 116.014 237.537 116.581H237.992ZM169.324 134.507H169.779C169.779 133.788 170.265 133.16 170.961 132.978L170.846 132.538L170.731 132.097C169.635 132.383 168.869 133.373 168.869 134.507H169.324ZM170.99 168.112L170.866 167.674C170.446 167.793 170.037 167.912 169.733 168.002C169.58 168.046 169.454 168.084 169.366 168.11C169.322 168.123 169.288 168.133 169.264 168.14C169.252 168.144 169.243 168.147 169.237 168.148C169.234 168.149 169.232 168.15 169.23 168.15C169.23 168.151 169.229 168.151 169.229 168.151C169.228 168.151 169.228 168.151 169.228 168.151C169.228 168.151 169.228 168.151 169.228 168.151C169.228 168.151 169.228 168.151 169.228 168.151C169.228 168.151 169.228 168.151 169.358 168.587C169.489 169.023 169.489 169.023 169.489 169.023C169.489 169.023 169.489 169.023 169.489 169.023C169.489 169.023 169.489 169.023 169.489 169.023C169.489 169.023 169.489 169.023 169.49 169.023C169.49 169.023 169.49 169.023 169.491 169.023C169.493 169.022 169.495 169.022 169.498 169.021C169.504 169.019 169.513 169.016 169.524 169.013C169.548 169.006 169.582 168.996 169.626 168.983C169.713 168.957 169.838 168.92 169.989 168.875C170.292 168.786 170.699 168.668 171.114 168.55L170.99 168.112ZM236.513 149.496L236.637 149.934C237.077 149.809 237.449 149.699 237.711 149.621C237.842 149.582 237.946 149.55 238.017 149.529C238.052 149.518 238.08 149.509 238.098 149.504C238.107 149.501 238.114 149.499 238.119 149.497C238.122 149.496 238.123 149.496 238.125 149.495C238.125 149.495 238.126 149.495 238.126 149.495C238.126 149.495 238.126 149.495 238.127 149.495C238.127 149.495 238.127 149.495 238.127 149.495C238.127 149.495 238.127 149.495 238.127 149.495C238.127 149.495 238.127 149.495 237.992 149.06C237.857 148.625 237.857 148.625 237.857 148.625C237.857 148.625 237.857 148.625 237.857 148.625C237.857 148.625 237.857 148.625 237.857 148.625C237.857 148.625 237.857 148.625 237.857 148.625C237.856 148.625 237.856 148.625 237.855 148.626C237.854 148.626 237.853 148.626 237.85 148.627C237.846 148.629 237.839 148.631 237.83 148.633C237.812 148.639 237.786 148.647 237.751 148.658C237.681 148.679 237.579 148.71 237.45 148.749C237.191 148.826 236.824 148.934 236.389 149.058L236.513 149.496ZM229.865 108.15L229.976 108.591C230.515 108.455 231.037 108.863 231.037 109.418H231.493H231.948C231.948 108.27 230.867 107.428 229.754 107.708L229.865 108.15ZM177.248 121.405L177.137 120.964C176.03 121.243 175.255 122.238 175.255 123.379H175.71H176.165C176.165 122.655 176.657 122.023 177.359 121.847L177.248 121.405Z" fill="white"/>
<path d="M177.613 166.31V123.754C177.613 123.421 177.839 123.131 178.162 123.049L231.355 109.594V151.128" stroke="white" stroke-width="0.364187"/>
<path d="M169.434 168.497L172.297 169.874C175.119 171.233 178.344 171.504 181.354 170.637L242.939 152.888C243.59 152.7 243.655 151.803 243.037 151.524L237.846 149.18" stroke="white" stroke-width="0.910468"/>
<path d="M243.95 152.055V153.755C243.95 154.079 243.735 154.364 243.424 154.454L181.418 172.437C178.371 173.32 175.104 173.036 172.255 171.639L170.368 170.714C169.619 170.347 169.145 169.585 169.145 168.752V168.202" stroke="white" stroke-width="0.364187"/>
<path d="M173.772 225.108L170.905 199.709L170.613 170.99C171.129 171.256 172.631 171.959 174.509 172.638C176.857 173.488 179.479 172.963 180.853 172.638C181.952 172.379 220.697 161.141 239.932 155.555V180.046L283.151 189.877L173.772 225.108Z" fill="url(#paint2_linear_4245_157644)" fill-opacity="0.2"/>
<g filter="url(#filter0_d_4245_157644)">
<path fill-rule="evenodd" clip-rule="evenodd" d="M80.0892 204.088C79.4927 203.611 77.8058 202.193 76.2673 201.106C74.7324 200.02 73.4071 199.349 71.5443 198.723C70.7439 198.455 68.836 197.999 67.9706 197.868C66.7925 197.694 65.0763 197.533 63.8332 197.486C62.9633 197.451 61.5338 197.443 60.8677 197.467C58.9273 197.541 56.4424 197.802 55.0721 198.071C49.8299 199.113 45.0863 201.527 43.2942 206.361C43.1694 206.692 43.0874 206.785 43.0071 206.672C42.973 206.621 43.0603 206.067 43.2943 205.546C45.6387 200.334 51.0199 198.119 56.3345 197.4C59.9234 196.915 63.1068 196.872 66.6284 197.266C68.2353 197.447 69.0693 197.594 70.5387 197.961C71.9742 198.319 72.8996 198.562 74.3312 199.183C75.9617 199.888 77.3086 200.613 78.6075 201.446C79.9063 202.278 80.4802 202.692 81.2022 203.354C81.9243 204.015 80.6858 204.565 80.0892 204.088Z" fill="url(#paint3_linear_4245_157644)" fill-opacity="0.8"/>
<path d="M56.3301 197.367C59.9215 196.882 63.1075 196.839 66.6318 197.233C68.2401 197.415 69.0759 197.562 70.5469 197.929C71.9828 198.287 72.9107 198.531 74.3447 199.153C75.9766 199.859 77.3248 200.584 78.625 201.418C79.9244 202.251 80.5006 202.666 81.2246 203.329C81.41 203.499 81.4757 203.668 81.4492 203.82C81.423 203.971 81.3081 204.094 81.1562 204.177C80.8535 204.342 80.3794 204.362 80.0684 204.113C79.4706 203.635 77.7852 202.219 76.248 201.133C74.716 200.049 73.3938 199.379 71.5342 198.755C70.7357 198.487 68.8295 198.031 67.9658 197.9C66.7889 197.726 65.0739 197.566 63.832 197.519C62.9629 197.484 61.5344 197.476 60.8691 197.5C58.9299 197.574 56.4463 197.834 55.0781 198.104C49.8401 199.144 45.1113 201.555 43.3252 206.372C43.2938 206.455 43.2644 206.524 43.2373 206.579C43.2103 206.634 43.1844 206.676 43.1582 206.705C43.1326 206.733 43.1016 206.754 43.0654 206.751C43.03 206.748 43.0023 206.722 42.9805 206.691L42.9795 206.69C42.9735 206.681 42.9711 206.67 42.9697 206.662C42.9682 206.653 42.967 206.642 42.9668 206.631C42.9664 206.608 42.9681 206.579 42.9717 206.545C42.9789 206.476 42.994 206.384 43.0176 206.278C43.0648 206.067 43.1466 205.796 43.2646 205.533C45.6161 200.305 51.0114 198.086 56.3301 197.367Z" stroke="black" stroke-opacity="0.13" stroke-width="0.0659172"/>
<ellipse cx="0.39497" cy="0.513434" rx="0.39497" ry="0.513434" transform="matrix(0.607602 0.794241 -0.840656 0.541569 80.9766 203.219)" fill="#616161"/>
<path d="M80.6111 203.639C80.7951 203.44 81.1226 203.554 81.2963 203.681C82.206 204.392 82.7757 205.01 83.8047 206.167C83.9685 206.352 83.9174 206.623 83.6976 206.788C83.4776 206.953 83.1874 206.966 83.008 206.764C81.9587 205.583 81.4343 204.873 80.6114 204.23C80.3952 204.061 80.4271 203.837 80.6111 203.639Z" fill="#B4B4B4"/>
<ellipse cx="0.348379" cy="0.452868" rx="0.348379" ry="0.452868" transform="matrix(0.607602 0.794241 -0.840656 0.541569 83.5781 205.953)" fill="url(#paint4_linear_4245_157644)"/>
<path d="M82.9699 206.026C83.2834 206.233 83.515 206.63 83.4469 206.667C83.3788 206.704 83.4459 206.582 82.9075 206.134L82.9699 206.026Z" fill="url(#paint5_linear_4245_157644)"/>
<path d="M82.673 206.09C83.0115 206.26 83.294 206.628 83.2314 206.673C83.1687 206.717 83.2191 206.589 82.6253 206.204L82.673 206.09Z" fill="url(#paint6_linear_4245_157644)"/>
<path d="M82.9113 206.174C83.2277 206.377 83.465 206.771 83.3974 206.809C83.3299 206.847 83.3952 206.724 82.8505 206.283L82.9113 206.174Z" fill="url(#paint7_linear_4245_157644)"/>
<path d="M82.8898 205.528C83.376 205.786 83.7733 206.33 83.6805 206.392C83.5877 206.455 83.6658 206.27 82.8164 205.692L82.8898 205.528Z" fill="url(#paint8_linear_4245_157644)"/>
<path d="M82.7311 205.66C83.2957 205.96 83.7572 206.591 83.6494 206.664C83.5417 206.737 83.6324 206.522 82.6457 205.851L82.7311 205.66Z" fill="url(#paint9_linear_4245_157644)"/>
<path d="M82.7293 205.951C83.0729 206.133 83.3536 206.517 83.2881 206.562C83.2225 206.606 83.2777 206.475 82.6774 206.067L82.7293 205.951Z" fill="url(#paint10_linear_4245_157644)"/>
<path opacity="0.5" d="M82.878 206.476C82.6406 206.083 80.9295 204.238 80.6948 204.12C80.4601 204.003 80.7462 203.67 80.888 203.756C81.1236 203.9 82.3656 204.982 83.2226 206.114C82.9201 206.255 82.9554 206.604 82.878 206.476Z" fill="black" fill-opacity="0.4"/>
<path d="M82.7932 206.383C82.622 206.055 80.8395 204.214 80.7047 204.155C80.5699 204.096 80.6201 203.923 80.7508 204.023C80.8816 204.122 82.041 205.113 82.8981 206.245C82.9863 206.362 82.8622 206.515 82.7932 206.383Z" fill="black" fill-opacity="0.5"/>
<path opacity="0.5" d="M83.2936 205.867C82.738 205.103 81.3125 203.808 81.1763 203.752C81.0401 203.696 81.1839 203.671 81.3172 203.768C81.4505 203.865 82.5701 204.753 83.4555 205.867C83.5467 205.982 83.3823 205.989 83.2936 205.867Z" fill="black" fill-opacity="0.4"/>
<path d="M69.9727 197.961C70.1577 197.999 70.343 198.041 70.5265 198.085C73.8352 198.917 77.4394 200.751 80.1158 202.73C80.2599 202.839 80.4115 202.959 80.5512 203.074C80.585 203.102 80.605 203.141 80.6068 203.182C80.6085 203.224 80.5919 203.265 80.5606 203.296C80.5292 203.327 80.4858 203.346 80.4404 203.347C80.395 203.349 80.3512 203.334 80.3183 203.305C80.1865 203.189 80.0418 203.068 79.904 202.957C77.3296 200.933 73.795 199.021 70.5218 198.1C70.34 198.051 70.1563 198.004 69.9727 197.961Z" fill="white"/>
<path d="M73.2852 199.281C73.4038 199.332 73.5222 199.385 73.6389 199.439C75.7397 200.42 78.2794 202.085 79.9994 203.545C80.0803 203.619 80.0358 203.784 80.113 203.86C80.1317 203.878 80.1395 203.899 80.1347 203.917C80.1299 203.935 80.1128 203.95 80.0873 203.958C80.0618 203.965 80.0301 203.965 79.9994 203.957C79.9687 203.949 79.9414 203.934 79.9235 203.916C79.8517 203.841 79.772 203.762 79.6955 203.687C78.2588 202.329 75.6978 200.457 73.6336 199.445C73.5188 199.389 73.4022 199.334 73.2852 199.281Z" fill="black" fill-opacity="0.4"/>
<path d="M49.9439 199.274C48.6961 199.853 47.6086 200.714 46.548 201.54C46.4929 201.584 46.4386 201.627 46.3854 201.671C45.3037 202.7 44.2425 203.983 43.5769 205.134C43.5202 205.273 43.4679 205.418 43.4296 205.562C43.4567 205.416 43.4989 205.268 43.5461 205.125C44.2522 203.859 45.1011 202.691 46.2713 201.554C46.3256 201.509 46.3806 201.465 46.4369 201.421C47.5091 200.59 48.6394 199.755 49.9305 199.247C50.2851 199.112 50.3075 199.111 49.9439 199.274Z" fill="white"/>
</g>
</g>
<path d="M204.052 131.856V80.5894L192.306 95.8175C191.321 97.0944 189.724 97.405 188.739 96.5109C187.754 95.6168 187.754 93.8564 188.739 92.5793L204.791 71.7691C205.776 70.4921 207.373 70.1817 208.358 71.0758L224.41 85.6456C225.395 86.5397 225.395 88.3001 224.41 89.5772C223.425 90.8542 221.827 91.1646 220.842 90.2706L209.096 79.6089V130.876C209.096 132.411 207.967 133.875 206.574 134.146C205.181 134.416 204.052 133.391 204.052 131.856Z" fill="#4FE2CE"/>
<defs>
<filter id="filter0_d_4245_157644" x="42.3512" y="196.938" width="42.2312" height="11.2273" filterUnits="userSpaceOnUse" color-interpolation-filters="sRGB">
<feFlood flood-opacity="0" result="BackgroundImageFix"/>
<feColorMatrix in="SourceAlpha" type="matrix" values="0 0 0 0 0 0 0 0 0 0 0 0 0 0 0 0 0 0 127 0" result="hardAlpha"/>
<feOffset dy="0.582383"/>
<feGaussianBlur stdDeviation="0.291191"/>
<feComposite in2="hardAlpha" operator="out"/>
<feColorMatrix type="matrix" values="0 0 0 0 0 0 0 0 0 0 0 0 0 0 0 0 0 0 0.33 0"/>
<feBlend mode="normal" in2="BackgroundImageFix" result="effect1_dropShadow_4245_157644"/>
<feBlend mode="normal" in="SourceGraphic" in2="effect1_dropShadow_4245_157644" result="shape"/>
</filter>
<radialGradient id="paint0_radial_4245_157644" cx="0" cy="0" r="1" gradientUnits="userSpaceOnUse" gradientTransform="translate(173 156.5) rotate(90) scale(102.418 133.626)">
<stop stop-color="#151522"/>
<stop offset="0.167553" stop-color="#151522"/>
<stop offset="1" stop-color="#161420" stop-opacity="0"/>
</radialGradient>
<linearGradient id="paint1_linear_4245_157644" x1="202.271" y1="288.853" x2="214.599" y2="314.576" gradientUnits="userSpaceOnUse">
<stop/>
<stop offset="1" stop-opacity="0"/>
</linearGradient>
<linearGradient id="paint2_linear_4245_157644" x1="212.009" y1="164.654" x2="223.15" y2="207.168" gradientUnits="userSpaceOnUse">
<stop offset="0.0126424" stop-color="#4FE2CE" stop-opacity="0.2"/>
<stop offset="0.521391" stop-color="#4FE2CE"/>
<stop offset="1" stop-color="#4FE2CE" stop-opacity="0"/>
</linearGradient>
<linearGradient id="paint3_linear_4245_157644" x1="76.3602" y1="207.827" x2="66.6241" y2="187.864" gradientUnits="userSpaceOnUse">
<stop stop-color="white"/>
<stop offset="1" stop-color="white" stop-opacity="0.5"/>
</linearGradient>
<linearGradient id="paint4_linear_4245_157644" x1="0.110912" y1="0.430016" x2="0.855578" y2="0.436419" gradientUnits="userSpaceOnUse">
<stop stop-color="#353736"/>
<stop offset="1" stop-color="#A6A6A6"/>
</linearGradient>
<linearGradient id="paint5_linear_4245_157644" x1="83.4254" y1="206.618" x2="83.3187" y2="206.41" gradientUnits="userSpaceOnUse">
<stop stop-color="#DCDCDC"/>
<stop offset="1" stop-color="#DCDCDC" stop-opacity="0"/>
</linearGradient>
<linearGradient id="paint6_linear_4245_157644" x1="83.2035" y1="206.627" x2="83.072" y2="206.431" gradientUnits="userSpaceOnUse">
<stop stop-color="#DCDCDC"/>
<stop offset="1" stop-color="#DCDCDC" stop-opacity="0"/>
</linearGradient>
<linearGradient id="paint7_linear_4245_157644" x1="83.3752" y1="206.76" x2="83.2659" y2="206.553" gradientUnits="userSpaceOnUse">
<stop stop-color="#DCDCDC"/>
<stop offset="1" stop-color="#DCDCDC" stop-opacity="0"/>
</linearGradient>
<linearGradient id="paint8_linear_4245_157644" x1="83.617" y1="206.289" x2="83.506" y2="206.077" gradientUnits="userSpaceOnUse">
<stop stop-color="#DCDCDC"/>
<stop offset="1" stop-color="#DCDCDC" stop-opacity="0"/>
</linearGradient>
<linearGradient id="paint9_linear_4245_157644" x1="83.5068" y1="206.462" x2="83.2881" y2="206.142" gradientUnits="userSpaceOnUse">
<stop stop-color="#DCDCDC"/>
<stop offset="1" stop-color="#DCDCDC" stop-opacity="0"/>
</linearGradient>
<linearGradient id="paint10_linear_4245_157644" x1="83.2084" y1="206.45" x2="83.0853" y2="206.312" gradientUnits="userSpaceOnUse">
<stop stop-color="#DCDCDC"/>
<stop offset="1" stop-color="#DCDCDC" stop-opacity="0"/>
</linearGradient>
</defs>
</svg>
