<svg width="140" height="140" viewBox="0 0 140 140" fill="none" xmlns="http://www.w3.org/2000/svg">
<path d="M105.249 63H107.633C111.149 63 114 65.7152 114 69.0645V103.935C114 107.285 111.149 110 107.633 110H81.3673C77.8508 110 75 107.285 75 103.935V69.0645C75 65.7152 77.8508 63 81.3673 63H83.759" stroke="white" stroke-width="4" stroke-linecap="round"/>
<path d="M84.6853 68.5914L85.9531 67.8682C87.4561 67.0108 88.409 65.4371 88.4722 63.7079L88.5735 60.9387C88.6273 59.4675 89.4047 58.1181 90.6503 57.3335C92.9227 55.9022 95.8069 55.8702 98.1104 57.2508L98.212 57.3117C99.5396 58.1074 100.375 59.5206 100.431 61.0674L100.528 63.7079C100.591 65.4371 101.544 67.0108 103.047 67.8682L104.315 68.5914M84.6853 68.5914L84.5315 68.6791C82.348 69.9247 81 72.2455 81 74.7594V75H108V74.7594C108 72.2455 106.652 69.9247 104.468 68.6791L104.315 68.5914M84.6853 68.5914H104.315" stroke="white" stroke-width="1.5"/>
<mask id="mask0_4244_123096" style="mask-type:alpha" maskUnits="userSpaceOnUse" x="15" y="20" width="84" height="95">
<path d="M27.0468 113.716L15.2841 62.1839C14.724 52.8487 14.612 33.1699 18.6449 29.1364C23.6861 24.0946 40.4899 21.8547 53.9329 20.1744C64.6874 18.8301 88.2874 25.5889 98.7431 29.1364L87.5406 48.7415C86.9805 58.8238 80.8191 58.2637 72.9773 54.9029L68.4963 85.1498V114.837L27.0468 113.716Z" fill="#D9D9D9"/>
</mask>
<g mask="url(#mask0_4244_123096)">
<path d="M83.7527 57.194L83.1989 61.605C84.9986 62.4132 85.137 64.9724 85.137 65.9152C85.137 66.8581 84.168 73.458 83.7527 76.4213C83.4204 78.7919 80.3841 79.5641 78.9075 79.6539C78.2952 81.6474 77.0099 86.0966 75.898 89.9757C74.6327 94.3899 71.6073 98.0925 67.5231 100.204L65.7223 101.135C60.7087 103.728 54.746 103.728 49.7324 101.135L47.9316 100.204C43.8474 98.0925 40.822 94.3899 39.5567 89.9757C38.4448 86.0966 37.1595 81.6474 36.5472 79.6539C35.0706 79.5641 32.0343 78.7919 31.702 76.4213C31.2867 73.458 30.3177 66.8581 30.3177 65.9152C30.3177 64.9724 30.4561 62.4132 32.2558 61.605V57.194M31.0423 56.541C29.8331 47.4991 29.6219 48.789 30.0407 40.3552C30.1583 37.986 31.1791 35.7176 33.1955 34.4622C38.6968 31.0373 49.0665 26.9023 58.4803 26.9023C66.4435 26.9023 74.564 30.6576 80.2754 33.5935C83.8828 35.4479 86.1314 39.3883 85.8294 43.4274L84.6605 56.8217C84.6117 57.4746 83.7049 57.8105 83.1924 57.4019C80.4939 55.2505 73.3618 51.049 58.8137 51.049C43.7442 51.049 36.0451 53.4942 32.6115 56.9714C32.1269 57.4622 31.1336 57.2241 31.0423 56.541Z" stroke="white" stroke-width="4"/>
</g>
<path d="M82 79V102C82 103.105 82.8954 104 84 104H105C106.105 104 107 103.105 107 102V79" stroke="white" stroke-width="1.5" stroke-linecap="round"/>
</svg>
