<svg width="885" height="875" viewBox="50 0 885 875" fill="none" xmlns="http://www.w3.org/2000/svg">
<path d="M50 42.5C50 26.1328 50 17.9493 53.684 11.9375C55.7454 8.57365 58.5736 5.74539 61.9375 3.684C67.9493 0 76.1328 0 92.5 0H892.5C908.867 0 917.051 0 923.062 3.684C926.426 5.74539 929.255 8.57365 931.316 11.9375C935 17.9493 935 26.1328 935 42.5V832.5C935 848.867 935 857.051 931.316 863.062C929.255 866.426 926.426 869.255 923.062 871.316C917.051 875 908.867 875 892.5 875H92.5C76.1329 875 67.9493 875 61.9375 871.316C58.5736 869.255 55.7454 866.426 53.684 863.062C50 857.051 50 848.867 50 832.5V42.5Z" fill="white" fill-opacity="0.07"/>
<path d="M92.5 1H892.5C900.703 1 906.785 1.0011 911.57 1.45605C916.34 1.90961 919.718 2.80764 922.54 4.53711C925.769 6.51599 928.484 9.23084 930.463 12.46C932.192 15.2822 933.09 18.6599 933.544 23.4297C933.999 28.2146 934 34.2971 934 42.5V832.5C934 840.703 933.999 846.785 933.544 851.57C933.09 856.34 932.192 859.718 930.463 862.54C928.484 865.769 925.769 868.484 922.54 870.463C919.718 872.192 916.34 873.09 911.57 873.544C906.785 873.999 900.703 874 892.5 874H92.5C84.2971 874 78.2146 873.999 73.4297 873.544C68.6599 873.09 65.2822 872.192 62.46 870.463C59.2308 868.484 56.516 865.769 54.5371 862.54C52.8076 859.718 51.9096 856.34 51.4561 851.57C51.0011 846.785 51 840.703 51 832.5V42.5C51 34.2971 51.0011 28.2146 51.4561 23.4297C51.9096 18.6599 52.8076 15.2822 54.5371 12.46C56.516 9.23083 59.2308 6.51598 62.46 4.53711C65.2822 2.80763 68.6599 1.90961 73.4297 1.45605C78.2146 1.0011 84.2971 1 92.5 1Z" stroke="white" stroke-opacity="0.2" stroke-width="2"/>
<ellipse cx="21.8404" cy="7.99881" rx="21.8404" ry="7.99881" transform="matrix(-1 0 0 1 550.148 498.494)" fill="#713ADA" fill-opacity="0.4"/>
<ellipse cx="17.9403" cy="5.75524" rx="17.9403" ry="5.75524" transform="matrix(-1 0 0 1 710.25 438.697)" fill="#713ADA" fill-opacity="0.4"/>
<ellipse cx="21.8404" cy="7.99881" rx="21.8404" ry="7.99881" transform="matrix(-1 0 0 1 550.148 498.494)" stroke="white" stroke-width="1.09909"/>
<ellipse cx="17.9403" cy="5.56015" rx="17.9403" ry="5.56015" transform="matrix(-1 0 0 1 710.25 438.6)" stroke="white" stroke-width="1.09909"/>
<path d="M511.935 511.539C509.842 510.409 508.622 509.049 508.622 507.587C508.622 503.657 517.437 500.471 528.311 500.471C539.185 500.471 548 503.657 548 507.587C548 509.049 546.78 510.409 544.687 511.539" stroke="white" stroke-width="0.439638" stroke-linecap="round"/>
<path d="M678.881 447.624C677.165 446.856 676.164 445.933 676.164 444.941C676.164 442.272 683.394 440.109 692.312 440.109C701.231 440.109 708.461 442.272 708.461 444.941C708.461 445.933 707.46 446.856 705.744 447.624" stroke="white" stroke-width="0.439638" stroke-linecap="round"/>
<path d="M478.585 489.325L478.319 488.844L478.585 489.325ZM602.217 432.26L602.037 431.741L602.181 431.691L602.331 431.722L602.217 432.26ZM474.198 476.741L474.04 477.267C473.811 477.199 473.653 476.991 473.648 476.753C473.643 476.515 473.792 476.3 474.017 476.222L474.198 476.741ZM610.877 515.153L610.662 514.647H610.662L610.877 515.153ZM725.179 466.635L724.964 466.13L725.179 466.635ZM725.048 464.794L725.189 464.263L725.189 464.263L725.048 464.794ZM597.342 513.349L597.178 513.874L597.171 513.871L597.342 513.349ZM604.157 515.483L604.321 514.958H604.321L604.157 515.483ZM718.147 462.967L718.006 463.498L717.997 463.496L717.988 463.493L718.147 462.967ZM715.124 451.152L715.345 451.656L715.341 451.658L715.124 451.152ZM636.83 429.505L636.637 428.991L636.639 428.99L636.83 429.505ZM634.978 430.201L634.751 429.7L634.768 429.693L634.785 429.686L634.978 430.201ZM504.383 516.15L504.587 515.64L504.383 516.15ZM698.281 434.667L698.132 435.196L698.281 434.667ZM528.896 520.149V519.6C538.583 519.6 547.282 518.044 553.357 515.578L553.564 516.087L553.771 516.597C547.53 519.129 538.683 520.699 528.896 520.699V520.149ZM478.585 489.325L478.851 489.805C476.719 490.984 474.881 492.274 473.52 493.617C472.153 494.965 471.305 496.328 471.069 497.654C470.839 498.949 471.182 500.287 472.366 501.649C473.565 503.029 475.625 504.425 478.799 505.763L478.585 506.269L478.372 506.776C475.122 505.406 472.891 503.928 471.536 502.37C470.166 500.793 469.691 499.128 469.987 497.461C470.278 495.824 471.297 494.265 472.748 492.834C474.203 491.399 476.132 490.053 478.319 488.844L478.585 489.325ZM602.217 432.26L602.398 432.779L474.378 477.26L474.198 476.741L474.017 476.222L602.037 431.741L602.217 432.26ZM725.179 466.635L724.964 466.13C725.338 465.971 725.299 465.429 724.907 465.326L725.048 464.794L725.189 464.263C726.593 464.635 726.731 466.574 725.394 467.141L725.179 466.635ZM578.037 510.395V510.944C567.622 510.944 559.879 513.919 553.588 516.654L553.369 516.15L553.15 515.646C559.488 512.891 567.396 509.845 578.037 509.845V510.395ZM597.342 513.349L597.171 513.871C591.479 512.009 584.419 510.944 578.037 510.944V510.395V509.845C584.525 509.845 591.701 510.926 597.513 512.827L597.342 513.349ZM604.157 515.483L603.993 516.007L597.178 513.874L597.342 513.349L597.506 512.825L604.321 514.958L604.157 515.483ZM725.048 464.794L724.907 465.326L718.006 463.498L718.147 462.967L718.287 462.436L725.189 464.263L725.048 464.794ZM610.877 515.153L611.092 515.659C608.842 516.614 606.326 516.737 603.993 516.007L604.157 515.483L604.321 514.958C606.405 515.611 608.653 515.5 610.662 514.647L610.877 515.153ZM478.585 489.325L478.319 488.844C480.91 487.411 482.033 485.461 482.033 483.758H482.583H483.132C483.132 485.972 481.682 488.241 478.851 489.805L478.585 489.325ZM482.583 483.758H482.033C482.033 482.531 481.55 481.381 480.325 480.3C479.081 479.2 477.071 478.175 474.04 477.267L474.198 476.741L474.355 476.215C477.454 477.143 479.637 478.226 481.053 479.476C482.488 480.744 483.132 482.184 483.132 483.758H482.583ZM715.124 451.152L714.903 450.649C716.761 449.834 718.239 448.896 719.245 447.912C720.253 446.926 720.742 445.938 720.742 445.007H721.292H721.841C721.841 446.341 721.142 447.594 720.014 448.698C718.883 449.804 717.278 450.807 715.345 451.656L715.124 451.152ZM658.281 426.299V426.848C649.831 426.848 642.256 428.079 637.021 430.021L636.83 429.505L636.639 428.99C642.03 426.991 649.742 425.749 658.281 425.749V426.299ZM615.281 433.517V432.968C623.323 432.968 630.404 431.667 634.751 429.7L634.978 430.201L635.204 430.701C630.663 432.756 623.41 434.067 615.281 434.067V433.517ZM602.217 432.26L602.331 431.722C606.067 432.51 610.509 432.968 615.281 432.968V433.517V434.067C610.443 434.067 605.923 433.603 602.104 432.798L602.217 432.26ZM715.124 451.152L715.341 451.658C713.669 452.374 712.369 453.187 711.496 454.038C710.623 454.889 710.214 455.739 710.214 456.549H709.664H709.115C709.115 455.344 709.726 454.228 710.729 453.251C711.731 452.274 713.161 451.395 714.908 450.647L715.124 451.152ZM709.664 456.549H710.214C710.214 457.572 710.871 458.64 712.281 459.684C713.681 460.721 715.736 461.664 718.306 462.441L718.147 462.967L717.988 463.493C715.353 462.697 713.167 461.708 711.627 460.567C710.096 459.434 709.115 458.079 709.115 456.549H709.664ZM634.978 430.201L634.785 429.686L636.637 428.991L636.83 429.505L637.023 430.02L635.171 430.715L634.978 430.201ZM504.383 516.15L504.587 515.64C510.655 518.07 519.29 519.6 528.896 519.6V520.149V520.699C519.191 520.699 510.409 519.155 504.178 516.66L504.383 516.15ZM478.585 506.269L478.799 505.763C485.211 508.466 489.132 509.924 492.709 511.21C496.289 512.497 499.539 513.618 504.587 515.64L504.383 516.15L504.178 516.66C499.153 514.647 495.926 513.535 492.337 512.244C488.745 510.952 484.805 509.487 478.372 506.776L478.585 506.269ZM721.292 445.007H720.742C720.742 444.259 720.253 443.468 719.114 442.618C717.986 441.777 716.328 440.96 714.242 440.145C710.073 438.515 704.354 436.949 698.132 435.196L698.281 434.667L698.431 434.138C704.623 435.883 710.409 437.466 714.642 439.121C716.757 439.948 718.524 440.807 719.771 441.737C721.006 442.659 721.841 443.734 721.841 445.007H721.292ZM698.281 434.667L698.132 435.196C690.966 433.177 683.128 431.088 676.01 429.504C668.878 427.917 662.515 426.848 658.281 426.848V426.299V425.749C662.647 425.749 669.114 426.844 676.248 428.431C683.395 430.021 691.256 432.117 698.431 434.138L698.281 434.667ZM610.877 515.153L610.662 514.647L614.385 513.067L614.6 513.573L614.815 514.079L611.092 515.659L610.877 515.153ZM625.423 508.979L625.208 508.473L724.964 466.13L725.179 466.635L725.394 467.141L625.637 509.485L625.423 508.979Z" fill="white"/>
<path d="M555.753 527.667C549.057 530.246 539.908 531.079 529.32 531.079C518.379 531.079 508.381 529.257 501.192 526.105C490.913 522.592 469.097 515.034 465.339 509.158C461.58 503.282 463.121 495.489 475.633 487.511M555.541 527.731C562.407 524.898 566.391 522.592 577.838 522.592C585.924 522.592 591.929 525.15 599.288 527.525M720.19 442.697C721.653 443.965 722.725 445.721 724.48 449.818C726.04 453.46 722.628 456.506 719.02 458.11C716.29 459.324 716.973 462.402 719.8 463.377M725.455 465.04L725.511 465.092C726.441 465.96 727.204 466.989 727.76 468.134C728.375 469.401 729.213 471.132 730.039 472.839" stroke="white" stroke-width="1.09909"/>
<ellipse cx="73.7113" cy="23.1185" rx="73.7113" ry="23.1185" transform="matrix(-1 0 0 1 677.875 448.939)" stroke="white" stroke-width="1.09909"/>
<ellipse cx="65.5211" cy="18.3387" rx="65.5211" ry="18.3387" transform="matrix(-1 0 0 1 669.688 455.377)" stroke="white" stroke-width="1.09909"/>
<path d="M541.571 479.179C542.166 477.993 543.207 476.845 544.646 475.749C553.37 469.106 576.726 464.352 604.17 464.352C631.613 464.352 654.969 469.106 663.693 475.749C665.13 476.844 666.17 477.989 666.766 479.174" stroke="white" stroke-width="1.09909"/>
<path d="M533.222 504.212C532.745 504.22 532.257 504.302 531.876 504.472L527.997 506.196L523.76 504.611C523.354 504.459 522.854 504.394 522.376 504.402C521.9 504.411 521.412 504.493 521.031 504.662C520.682 504.818 520.333 505.097 520.377 505.513C520.398 505.71 520.507 505.871 520.642 505.991C520.776 506.111 520.953 506.208 521.156 506.284L524.766 507.635L521.497 509.088C521.148 509.243 520.8 509.523 520.844 509.938C520.865 510.136 520.974 510.296 521.108 510.416C521.243 510.536 521.419 510.633 521.622 510.709C522.028 510.861 522.528 510.926 523.006 510.918C523.482 510.91 523.97 510.827 524.351 510.658L528.23 508.933L532.468 510.519C532.874 510.67 533.373 510.736 533.851 510.728C534.327 510.719 534.815 510.637 535.195 510.468C535.545 510.312 535.893 510.033 535.85 509.617C535.829 509.42 535.72 509.259 535.585 509.139C535.45 509.018 535.273 508.923 535.07 508.847L531.462 507.495L534.729 506.042C535.079 505.887 535.427 505.607 535.383 505.191C535.362 504.994 535.253 504.834 535.118 504.714C534.984 504.594 534.807 504.497 534.604 504.421C534.199 504.269 533.699 504.204 533.222 504.212Z" stroke="white" stroke-width="0.659457"/>
<path d="M695.438 441.892C695.043 441.898 694.642 441.961 694.333 442.088L691.038 443.435L687.442 442.196C687.111 442.082 686.7 442.033 686.305 442.039C685.91 442.045 685.509 442.108 685.2 442.234C685.046 442.297 684.915 442.377 684.821 442.476C684.725 442.577 684.66 442.71 684.678 442.862C684.695 443.009 684.783 443.126 684.889 443.213C684.995 443.3 685.136 443.373 685.302 443.43L688.423 444.503L685.594 445.661C685.44 445.724 685.307 445.803 685.214 445.901C685.118 446.002 685.053 446.136 685.07 446.288C685.087 446.435 685.176 446.553 685.281 446.64C685.388 446.727 685.529 446.799 685.694 446.855C686.026 446.969 686.437 447.019 686.832 447.013C687.226 447.006 687.627 446.944 687.937 446.817L691.232 445.47L694.827 446.708C695.158 446.822 695.569 446.872 695.965 446.865C696.359 446.859 696.76 446.796 697.069 446.67C697.224 446.607 697.356 446.528 697.449 446.43C697.545 446.329 697.609 446.195 697.592 446.043C697.575 445.896 697.487 445.778 697.381 445.691C697.274 445.604 697.133 445.532 696.968 445.476L693.847 444.4L696.677 443.244C696.831 443.181 696.962 443.101 697.056 443.003C697.152 442.902 697.217 442.769 697.199 442.617C697.182 442.47 697.094 442.353 696.988 442.266C696.882 442.178 696.74 442.107 696.575 442.05C696.244 441.936 695.833 441.885 695.438 441.892Z" stroke="white" stroke-width="0.439638"/>
<path d="M605.727 432.942L601.436 431.792V277.648" stroke="white" stroke-width="1.09909"/>
<path d="M603.179 437.725L709.886 466.681C710.961 466.972 711.059 468.458 710.033 468.89L612.653 509.789C610.821 510.559 608.778 510.668 606.873 510.099L492.721 475.939C491.629 475.612 491.601 474.075 492.68 473.709L598.175 437.881C599.791 437.333 601.533 437.278 603.179 437.725Z" stroke="white" stroke-width="0.439638"/>
<path d="M607.091 452.158C607.091 453.182 607.921 454.011 608.944 454.011C609.967 454.011 610.796 453.182 610.796 452.158C610.796 451.134 609.967 450.305 608.944 450.305C607.921 450.305 607.091 451.134 607.091 452.158Z" stroke="white" stroke-width="0.439638"/>
<path d="M615.476 452.548C615.476 453.572 616.306 454.402 617.329 454.402C618.352 454.402 619.182 453.572 619.182 452.548C619.182 451.525 618.352 450.695 617.329 450.695C616.306 450.695 615.476 451.525 615.476 452.548Z" stroke="white" stroke-width="0.439638"/>
<path d="M623.667 453.134C623.667 454.157 624.496 454.987 625.519 454.987C626.542 454.987 627.372 454.157 627.372 453.134C627.372 452.11 626.542 451.28 625.519 451.28C624.496 451.28 623.667 452.11 623.667 453.134Z" stroke="white" stroke-width="0.439638"/>
<path d="M631.662 453.914C631.662 454.938 632.404 455.767 633.319 455.767C634.235 455.767 634.977 454.938 634.977 453.914C634.977 452.89 634.235 452.061 633.319 452.061C632.404 452.061 631.662 452.89 631.662 453.914Z" stroke="white" stroke-width="0.439638"/>
<path d="M639.072 455.084C639.072 456.108 639.814 456.938 640.729 456.938C641.645 456.938 642.387 456.108 642.387 455.084C642.387 454.061 641.645 453.231 640.729 453.231C639.814 453.231 639.072 454.061 639.072 455.084Z" stroke="white" stroke-width="0.439638"/>
<path d="M646.287 456.84C646.287 457.864 646.985 458.694 647.847 458.694C648.709 458.694 649.407 457.864 649.407 456.84C649.407 455.817 648.709 454.987 647.847 454.987C646.985 454.987 646.287 455.817 646.287 456.84Z" stroke="white" stroke-width="0.439638"/>
<path d="M652.919 458.529C652.875 459.552 653.538 460.411 654.398 460.448C655.259 460.484 655.992 459.685 656.036 458.662C656.079 457.64 655.417 456.781 654.556 456.744C653.695 456.708 652.962 457.507 652.919 458.529Z" stroke="white" stroke-width="0.439638"/>
<path d="M658.769 460.478C658.717 461.5 659.285 462.36 660.038 462.398C660.791 462.436 661.444 461.639 661.495 460.616C661.547 459.594 660.979 458.734 660.226 458.696C659.473 458.658 658.821 459.456 658.769 460.478Z" stroke="white" stroke-width="0.439638"/>
<path d="M664.072 462.714C663.874 463.809 664.228 464.79 664.864 464.906C665.5 465.021 666.176 464.227 666.375 463.132C666.574 462.037 666.219 461.056 665.583 460.94C664.948 460.825 664.271 461.619 664.072 462.714Z" stroke="white" stroke-width="0.439638"/>
<path d="M668.434 465.68C668.089 466.935 668.229 468.068 668.748 468.211C669.268 468.354 669.969 467.453 670.314 466.198C670.66 464.944 670.519 463.811 670 463.668C669.481 463.525 668.78 464.426 668.434 465.68Z" stroke="white" stroke-width="0.439638"/>
<path d="M671.612 468.789C670.843 469.839 670.526 470.914 670.903 471.19C671.28 471.466 672.208 470.839 672.976 469.789C673.745 468.739 674.062 467.664 673.685 467.388C673.308 467.112 672.38 467.739 671.612 468.789Z" stroke="white" stroke-width="0.439638"/>
<path d="M598.511 452.158C598.511 453.182 599.341 454.011 600.364 454.011C601.387 454.011 602.216 453.182 602.216 452.158C602.216 451.134 601.387 450.305 600.364 450.305C599.341 450.305 598.511 451.134 598.511 452.158Z" stroke="white" stroke-width="0.439638"/>
<path d="M590.321 452.548C590.321 453.572 591.15 454.402 592.174 454.402C593.197 454.402 594.026 453.572 594.026 452.548C594.026 451.525 593.197 450.695 592.174 450.695C591.15 450.695 590.321 451.525 590.321 452.548Z" stroke="white" stroke-width="0.439638"/>
<path d="M582.521 453.134C582.521 454.157 583.35 454.987 584.373 454.987C585.397 454.987 586.226 454.157 586.226 453.134C586.226 452.11 585.397 451.28 584.373 451.28C583.35 451.28 582.521 452.11 582.521 453.134Z" stroke="white" stroke-width="0.439638"/>
<path d="M575.501 453.719C575.501 454.742 576.243 455.572 577.158 455.572C578.074 455.572 578.816 454.742 578.816 453.719C578.816 452.695 578.074 451.865 577.158 451.865C576.243 451.865 575.501 452.695 575.501 453.719Z" stroke="white" stroke-width="0.439638"/>
<path d="M568.676 454.889C568.676 455.913 569.418 456.743 570.333 456.743C571.249 456.743 571.991 455.913 571.991 454.889C571.991 453.866 571.249 453.036 570.333 453.036C569.418 453.036 568.676 453.866 568.676 454.889Z" stroke="white" stroke-width="0.439638"/>
<path d="M562.241 456.06C562.241 457.084 562.895 457.913 563.703 457.913C564.511 457.913 565.166 457.084 565.166 456.06C565.166 455.036 564.511 454.207 563.703 454.207C562.895 454.207 562.241 455.036 562.241 456.06Z" stroke="white" stroke-width="0.439638"/>
<path d="M556.585 457.426C556.585 458.449 557.24 459.279 558.048 459.279C558.856 459.279 559.51 458.449 559.51 457.426C559.51 456.402 558.856 455.572 558.048 455.572C557.24 455.572 556.585 456.402 556.585 457.426Z" stroke="white" stroke-width="0.439638"/>
<path d="M550.74 459.295C550.819 460.315 551.536 461.092 552.341 461.029C553.146 460.967 553.735 460.089 553.656 459.068C553.577 458.048 552.86 457.271 552.054 457.334C551.249 457.396 550.66 458.274 550.74 459.295Z" stroke="white" stroke-width="0.439638"/>
<path d="M545.847 461.234C545.973 462.25 546.638 463.004 547.332 462.918C548.027 462.832 548.489 461.939 548.363 460.923C548.237 459.907 547.573 459.154 546.878 459.239C546.183 459.325 545.722 460.219 545.847 461.234Z" stroke="white" stroke-width="0.439638"/>
<path d="M541.861 463.506C542.145 464.489 542.796 465.164 543.313 465.014C543.83 464.864 544.018 463.946 543.734 462.963C543.449 461.98 542.799 461.304 542.281 461.454C541.764 461.604 541.576 462.523 541.861 463.506Z" stroke="white" stroke-width="0.439638"/>
<path d="M538.449 465.93C538.846 466.948 539.575 467.615 540.077 467.419C540.579 467.223 540.663 466.238 540.265 465.22C539.868 464.201 539.139 463.535 538.637 463.731C538.136 463.927 538.051 464.911 538.449 465.93Z" stroke="white" stroke-width="0.439638"/>
<path d="M535.765 469.045C536.475 469.957 537.364 470.452 537.75 470.151C538.137 469.85 537.875 468.866 537.164 467.954C536.454 467.042 535.566 466.546 535.179 466.847C534.792 467.149 535.055 468.132 535.765 469.045Z" stroke="white" stroke-width="0.439638"/>
<path d="M534.298 472.77C535.369 473.474 536.427 473.755 536.661 473.398C536.895 473.041 536.217 472.182 535.145 471.478C534.074 470.775 533.015 470.493 532.781 470.85C532.547 471.207 533.226 472.066 534.298 472.77Z" stroke="white" stroke-width="0.439638"/>
<path d="M234.638 437.434C234.638 421.631 242.048 414.592 252.286 417.336C254.474 417.923 295.928 431.598 346.667 448.389C354.541 450.994 372.389 490.743 380.598 493.461C458.544 519.272 536.797 548.484 538.941 549.187C555.819 554.724 568.094 571.55 568.094 591.447V667.689C568.094 682.373 553.684 692.72 539.779 688.021L538.941 687.738L528.216 683.254M235.777 546.291C236.797 550.461 238.481 554.41 240.735 557.997M373.48 619.876L395.613 628.854" stroke="white" stroke-width="1.75855"/>
<path d="M241.933 544.398C242.88 548.266 244.441 551.928 246.532 555.254M379.596 617.131L400.124 625.457M531.237 681.881L535.399 683.58L536.176 683.843C549.073 688.201 562.438 678.605 562.438 664.987V594.276C562.438 575.823 551.053 560.218 535.399 555.083C533.411 554.431 446.402 521.68 374.108 497.742C366.494 495.221 349.941 456.601 342.638 454.184C295.578 438.612 256.74 424.953 254.71 424.409C247.074 422.362 241.134 426.184 239.101 435.382" stroke="white" stroke-width="1.09909"/>
<path d="M472.836 473.986C464.398 471.091 455.915 468.226 447.507 465.442C439.605 462.825 422.425 422.615 414.846 420.107C366.006 403.946 331.734 393.975 329.628 393.41C326.337 392.528 323.35 392.696 320.831 393.877L242.829 417.726" stroke="white" stroke-width="1.75855"/>
<path d="M313.316 382.219C315.422 382.783 422.721 416.782 471.561 432.943L601.336 394.022" stroke="white" stroke-width="1.75855"/>
<path d="M475.662 477.085L474.085 476.662C473.233 476.434 472.64 475.661 472.64 474.778V313.351C472.64 304.103 478.563 295.894 487.337 292.982L574.201 264.157C577.535 263.051 579.888 260.063 580.183 256.561L585.257 196.05C585.42 194.098 584.049 192.352 582.115 192.047L563.629 189.133C537.937 185.103 510.555 181.675 484.002 177.963C479.953 177.397 475.92 179.113 473.531 182.43L467.366 190.989C464.981 194.3 460.93 195.979 456.903 195.326L434.16 191.64C430.755 191.088 427.988 188.597 427.082 185.269L423.858 173.418C423.167 170.879 421.031 168.993 418.426 168.621L342.963 157.86C338.405 157.161 335.988 160.103 335.697 161.371C328.532 192.588 323.849 224.504 316.051 256.852C314.173 264.641 313.225 272.625 313.225 280.637V396.752" stroke="white" stroke-width="1.31891"/>
<path d="M700.695 169.762L584.473 192.978" stroke="white" stroke-width="1.31891"/>
<path d="M608.168 261.26L638.97 253.323C639.666 253.143 640.344 253.669 640.344 254.387V267.813C640.344 269.814 638.993 271.562 637.057 272.067L612.041 278.589C609.492 279.254 606.826 279.337 604.24 278.833L570.63 272.283L608.168 261.26Z" stroke="white" stroke-width="1.31891"/>
<path d="M577.351 262.724L704.401 232.398C707.451 231.67 709.466 228.766 709.08 225.654L702.629 173.611C702.29 170.874 700.171 168.696 697.444 168.283L678.265 165.373L563.31 188.979" stroke="white" stroke-width="1.31891"/>
<path d="M711.933 438.763C741.437 446.434 770.578 454.02 771.579 454.338C784.684 458.505 794.297 472.197 794.297 488.446L794.286 497.225M667.57 427.155C621.74 415.269 603.048 410.604 601.439 410.604M555.905 687.343L681.292 624.364" stroke="white" stroke-width="1.31891"/>
<path d="M568.089 589.894L599.094 576.009M794.195 488.641L790.783 490.169" stroke="white" stroke-width="1.97837"/>
<path d="M474.686 305.352L579.891 274.234" stroke="white" stroke-width="1.97837"/>
<path d="M640.533 254.725L705.859 232.191" stroke="white" stroke-width="1.31891"/>
<path fill-rule="evenodd" clip-rule="evenodd" d="M604.322 464.115C573.563 464.115 547.903 470.462 541.997 478.895C549.996 486.381 574.871 491.844 604.322 491.844C633.774 491.844 658.65 486.382 666.648 478.895C660.743 470.461 635.082 464.115 604.322 464.115Z" fill="#713ADA" fill-opacity="0.1"/>
<path d="M466.336 142.449V125.814M434.411 137.962V126.428M385.117 150.786V133.618" stroke="white" stroke-width="0.439638" stroke-linejoin="round"/>
<path d="M335.489 145.81V162.835M340.754 147.078V158.153M572.049 181.027V187.222M564.639 181.153V188.392M683.57 158.101L683.57 166.054M444.659 159.478L564.073 176.663C566.357 176.942 569.656 176.879 571.44 176.522L618.719 167.527C619.451 167.388 619.426 166.33 618.688 166.226L499.584 149.419L444.659 159.478ZM444.659 159.478L435.448 158.153M435.448 158.153L343.635 144.94C333.738 143.73 331.983 141.493 339.717 139.943L380.627 134.181C383.283 133.807 385.977 133.802 388.634 134.169L492.954 148.541L435.448 158.153ZM683.015 155.347C684.799 154.989 684.394 154.473 682.11 154.194L565.008 138.923L465.768 125.982C455.87 124.772 441.577 125.047 433.843 126.596L396.773 131.884C396.268 131.956 396.27 132.686 396.775 132.755L628.56 164.632C630.682 164.924 632.839 164.869 634.944 164.47L683.015 155.347ZM344.069 136.641C328.469 138.201 326.634 145.293 338.024 146.688L562.746 180.778C565.375 181.1 569.171 181.027 571.225 180.615L685.812 157.516C687.866 157.103 691.175 152.541 681.132 151.468L466.581 122.931C455.191 121.535 442.642 121.852 433.741 123.638L344.069 136.641Z" stroke="white" stroke-width="1.31891"/>
<path d="M261.06 433.722L282.802 479.081M266.325 480.446L243.899 434.404M300.255 484.4L284.218 479.643C279.813 478.126 272.76 478.111 268.122 479.61L165.898 516.377M89.6516 487.762L119.487 535.365C119.798 536.211 120.849 537.027 122.654 537.681L182.482 561.166C187.049 562.82 194.647 562.787 199.302 561.093L343.543 503.362C345.931 502.493 347.066 501.359 346.951 500.248L346.959 465.034M200.212 520.836L342.51 469.02C348.379 466.882 348.35 463.5 342.444 461.466L263.634 434.317C257.981 432.369 248.932 432.351 242.979 434.274L94.215 482.341C87.8359 484.402 87.4445 487.892 93.3523 490.032L178.629 520.93C184.489 523.053 194.24 523.01 200.212 520.836Z" stroke="white" stroke-width="1.31891"/>
<path d="M353.103 520.929L374.846 566.288M358.368 567.653L335.943 521.612M395.419 573.12L376.262 566.85C371.856 565.333 364.804 565.318 360.165 566.817L260.282 607.789M189.495 581.212L219.331 628.815C219.641 629.662 220.692 630.477 222.497 631.131L282.325 654.616C286.892 656.27 294.491 656.237 299.145 654.543L435.586 590.569C437.975 589.7 439.11 588.566 438.994 587.455L439.002 552.241M300.056 614.286L434.553 556.227C440.423 554.089 440.393 550.707 434.487 548.673L355.677 521.524C350.024 519.576 340.975 519.558 335.023 521.481L194.059 575.791C187.68 577.853 187.288 581.342 193.196 583.482L278.473 614.38C284.333 616.503 294.083 616.46 300.056 614.286Z" stroke="white" stroke-width="1.31891"/>
<path d="M456.059 608.331L477.802 653.69M461.324 655.056L438.899 609.014M502.275 661.552L479.218 654.252C475.09 652.831 468.637 652.728 464.024 653.954C463.419 654.115 462.84 654.359 462.278 654.637L363.043 703.778M294.402 677.979L324.237 725.582C324.548 726.428 325.599 727.244 327.404 727.897L387.232 751.383C391.512 752.933 398.454 753.001 403.141 751.609C403.753 751.428 404.333 751.156 404.893 750.851L537.701 678.43C538.261 678.125 538.85 677.875 539.431 677.61C541.211 676.8 542.051 675.82 541.95 674.858L541.958 639.643M404.962 711.052L537.509 643.629C543.379 641.492 543.35 638.11 537.444 636.075L458.634 608.926C452.981 606.979 443.931 606.96 437.979 608.883L298.965 672.558C292.586 674.619 292.194 678.109 298.102 680.249L383.379 711.146C389.239 713.27 398.99 713.227 404.962 711.052Z" stroke="white" stroke-width="1.31891"/>
<path d="M759.588 526.294L759.818 506.395M743.11 527.66V517.222M845.487 555.929L761.003 526.856C756.598 525.339 749.546 525.325 744.907 526.823L641.122 570.775M598.613 531.074L599.198 588.431C599.508 589.278 600.559 590.093 602.364 590.747L716.793 639.594C721.36 641.248 728.958 641.215 733.613 639.521L801.562 611.765C819.19 604.565 835.613 594.712 850.263 582.548L868.79 567.166C871.133 564.93 871.627 564.18 871.512 563.069L871.52 533.708M768.168 469.707L775.652 472.286C780.63 474.001 784.719 477.629 787.014 482.367L796.656 502.274C799.068 507.255 803.456 510.997 808.755 512.593L867.005 530.139C872.911 532.174 872.361 534.502 868.79 537.805L850.156 552.297C835.532 563.672 819.297 572.808 801.985 579.406L734.524 605.117C728.551 607.291 718.801 607.334 712.941 605.211L648.373 575.935C644.609 574.229 641.475 571.387 639.409 567.809L627.669 547.474C625.338 543.437 621.657 540.352 617.275 538.765L602.313 533.344C596.405 531.203 596.797 527.714 603.176 525.653L618.6 519.237M739.21 469.07L639.076 510.721" stroke="white" stroke-width="1.31891"/>
<path d="M247.599 466.499L233.364 437.82C190.138 451.607 101.717 479.863 93.8392 482.594C85.9611 485.325 91.5967 489.13 95.3993 490.69C119.255 499.502 169.618 518.043 180.226 521.71C190.834 525.378 200.766 521.678 204.406 519.369L274.412 493.617L242.432 488.154L247.599 466.499Z" fill="url(#paint0_linear_7228_282997)" fill-opacity="0.1"/>
<path d="M350.077 551.169L335.842 522.49C292.616 536.277 203.389 570.678 195.511 573.409C187.633 576.141 193.269 579.945 197.071 581.506C220.927 590.318 271.289 608.858 281.898 612.526C292.506 616.193 302.438 612.493 306.078 610.184L376.084 583.847L344.909 572.824L350.077 551.169Z" fill="url(#paint1_linear_7228_282997)" fill-opacity="0.1"/>
<path d="M451.673 642.765L430.223 614.086C386.997 627.873 301.67 668.127 293.792 670.858C285.914 673.589 291.55 677.394 295.352 678.954C319.208 687.766 365.671 702.404 376.279 706.072C386.887 709.74 404.034 706.04 407.674 703.731L477.681 675.443L446.505 664.42L451.673 642.765Z" fill="url(#paint2_linear_7228_282997)" fill-opacity="0.1"/>
<path d="M346.955 499.371V466.4C346.337 466.986 344.927 468.293 344.225 468.839C343.347 469.522 203.432 520.344 198.85 521.319C195.184 522.099 191.667 522.555 190.367 522.685C190.757 535.951 191.791 562.484 192.805 562.484C194.072 562.484 198.85 561.216 200.995 560.533C203.14 559.85 341.105 504.639 344.225 502.98C346.721 501.654 347.085 500.021 346.955 499.371Z" fill="#D9D9D9" fill-opacity="0.1"/>
<path d="M439 585.992V553.021C438.383 553.607 436.972 554.914 436.27 555.46C435.393 556.143 299.378 614.768 294.795 615.744C291.129 616.524 287.613 616.979 286.312 617.109C286.703 630.376 287.736 656.908 288.75 656.908C290.018 656.908 294.795 655.64 296.94 654.958C299.085 654.275 433.15 591.26 436.27 589.601C438.766 588.275 439.13 586.642 439 585.992Z" fill="#D9D9D9" fill-opacity="0.1"/>
<path d="M541.961 674.174V641.203C541.344 641.788 539.933 643.096 539.231 643.642C538.354 644.325 407.409 710.949 402.826 711.924C399.16 712.705 395.644 713.16 394.344 713.29C394.734 726.556 395.767 753.089 396.781 753.089C398.049 753.089 402.826 751.821 404.971 751.138C407.116 750.455 536.111 679.441 539.231 677.783C541.727 676.456 542.091 674.824 541.961 674.174Z" fill="#D9D9D9" fill-opacity="0.1"/>
<path d="M871.516 561.996V533.902C870.898 534.488 869.488 535.795 868.786 536.341C868.403 536.639 849.258 557.065 820.62 571.555C783.682 590.246 734.962 604.074 732.381 604.624C728.715 605.404 725.198 605.859 723.898 605.989C724.288 619.255 725.322 640.911 726.336 640.911C727.604 640.911 732.381 639.643 734.526 638.96C735.811 638.551 786.229 622.263 824.228 601.404C849.658 587.445 867.535 566.27 868.786 565.605C871.282 564.278 871.646 562.646 871.516 561.996Z" fill="#D9D9D9" fill-opacity="0.1"/>
<path fill-rule="evenodd" clip-rule="evenodd" d="M568.136 589.878V658.337C583.132 651.136 619.408 633.697 658.613 614.847C630.191 602.854 602.155 591.031 601.24 590.675C599.836 590.129 599.03 588.952 598.803 588.432V576.18L568.136 589.878ZM557.979 562.518C559.576 563.999 560.739 563.774 562.76 569.28C564.78 574.787 566.259 577.446 566.549 579.102L598.803 564.96V545.14L557.979 562.518ZM510.265 528.706C513.618 529.55 521.705 531.238 527.234 531.238C532.764 531.238 537.057 530.866 538.513 530.681L538.049 519.919H526.088C523.64 519.919 515.585 519.373 511.864 519.101L510.265 528.706ZM549.342 517.606L551.398 529.212C553.208 528.718 557.057 527.583 557.979 526.99C557.519 525.212 555.375 518.951 554.36 516.043L549.342 517.606ZM610.118 515.449L607.819 516.043L609.531 522.68C610.659 522.211 611.93 521.685 613.33 521.102C614.76 520.505 616.326 519.851 618.011 519.147C614.239 517.46 613.862 515.209 614.931 513.413L610.118 515.449ZM725.083 466.821L623.846 509.643C628.125 509.204 633.646 509.335 638.583 510.534C668.145 498.142 708.905 481.016 729.884 472.245C728.994 470.452 728.067 468.619 727.408 467.33L725.955 465.876L725.083 466.821ZM791.008 490.327C792.015 492.299 793.125 494.435 794.312 496.607L794.211 488.897L791.008 490.327ZM772.512 471.193C773.646 471.561 774.771 471.895 775.865 472.156C782.398 473.717 783.958 478.302 785.908 480.74C786.175 481.074 786.532 481.664 786.97 482.46L793.295 479.688C792.506 476.753 791.315 473.637 790.457 471.07C789.599 468.504 788.021 466.742 786.623 465.188L772.512 471.193ZM474.144 305.457C473.421 307.151 472.098 312.005 472.591 317.871C473.084 323.737 472.796 395.037 472.591 429.954V474.812C472.591 475.462 472.93 475.715 473.392 476.061L473.453 476.106C473.847 476.402 474.644 476.476 474.993 476.476L601.732 432.21V421.735L601.356 278.323L579.017 273.885L474.144 305.457ZM721.102 444.498C721.214 445.144 721.135 446.722 719.923 447.867C718.407 449.299 715.124 450.815 713.188 451.994C711.251 453.173 709.483 455.111 709.819 456.459C710.156 457.807 709.735 459.239 714.197 461.429C717.767 463.181 719.052 463.338 719.249 463.197C718.463 462.664 716.976 461.311 717.312 460.165C717.733 458.733 720.848 457.47 722.111 456.459C723.374 455.448 725.227 453.09 724.975 451.405C724.722 449.721 721.775 444.499 721.102 444.498ZM607.349 261.596V279.005C609.027 279.101 613.216 278.918 616.553 277.422C620.723 275.552 634.24 272.531 636.974 271.955C639.706 271.38 640.48 269.024 640.48 267.142C640.48 265.635 639.964 257.254 639.706 253.251L607.349 261.596ZM584.456 193.086C584.813 193.404 585.496 194.405 585.369 195.867C585.21 197.702 580.248 255.012 580.089 256.681C579.962 258.015 578.315 260.996 577.508 262.32H579.017L706.592 231.548C707.242 231.064 708.612 229.902 708.888 229.129C709.232 228.163 709.371 225.612 709.371 225.368C709.371 225.127 702.531 173.262 702.45 172.495C702.385 171.881 701.334 170.443 700.816 169.801L584.456 193.086Z" fill="#D9D9D9" fill-opacity="0.07"/>
<path d="M752.397 474.205L749.264 474.402M765.373 476.866L768.758 481.413C769.136 481.985 769.337 482.59 769.334 483.214C769.318 486.851 762.408 489.805 753.899 489.812C745.391 489.82 738.507 486.879 738.523 483.243C738.526 482.758 738.651 482.284 738.886 481.829L740.59 478.381M767.278 479.88C767.264 483.002 761.173 485.539 753.674 485.546C746.174 485.553 740.106 483.027 740.12 479.905C740.134 476.783 746.225 474.246 753.724 474.239C761.223 474.232 767.291 476.758 767.278 479.88Z" stroke="white" stroke-width="1.31891"/>
<path d="M765.373 460.683L768.758 465.248C769.136 465.823 769.337 466.429 769.334 467.057C769.323 469.441 766.37 471.534 761.95 472.7M740.59 462.205L738.886 465.666C738.651 466.123 738.526 466.598 738.523 467.085C738.507 470.735 745.391 473.688 753.899 473.68C756.849 473.677 759.606 473.319 761.95 472.7M761.95 472.7V479.51C761.95 481.15 758.196 482.789 754.84 482.789C747.001 482.789 745.634 481.241 745.087 479.51V472.7M767.278 463.709C767.264 466.843 761.173 469.39 753.674 469.397C746.174 469.404 740.106 466.869 740.12 463.735C740.134 460.6 746.225 458.054 753.724 458.047C761.223 458.04 767.291 460.575 767.278 463.709Z" stroke="white" stroke-width="1.31891"/>
<path d="M641.079 511.79L644.699 516.679C645.103 517.294 645.318 517.943 645.315 518.615C645.304 521.169 642.144 523.41 637.417 524.659M614.57 513.419L612.747 517.125C612.495 517.615 612.362 518.124 612.359 518.646C612.342 522.555 619.705 525.716 628.806 525.708C631.96 525.705 634.909 525.322 637.417 524.659M637.417 524.659V531.951C637.417 533.707 633.401 535.463 629.812 535.463C621.427 535.463 619.965 533.804 619.379 531.951V524.659M643.115 515.03C643.1 518.387 636.586 521.114 628.564 521.121C620.543 521.129 614.052 518.414 614.067 515.058C614.082 511.701 620.597 508.974 628.618 508.967C636.64 508.959 643.13 511.674 643.115 515.03Z" stroke="white" stroke-width="1.31891"/>
<path d="M641.074 531.3L644.694 536.189C645.098 536.804 645.313 537.453 645.31 538.125C645.293 542.034 637.901 545.209 628.801 545.218C627.984 545.219 627.18 545.194 626.395 545.145M612.742 536.635L614.565 532.929M619.283 529.903C616.099 531.021 614.071 532.696 614.062 534.567C614.048 537.924 620.538 540.639 628.56 540.631C636.581 540.624 643.096 537.897 643.111 534.54C643.119 532.606 640.967 530.885 637.607 529.775" stroke="white" stroke-width="1.31891"/>
<path d="M738.43 482.984V512.654C738.43 514.516 739.598 516.199 741.41 516.624C744.185 517.273 747.688 517.68 749.935 516.638C753.932 514.785 764.17 503.372 769.143 484.35" stroke="white" stroke-width="1.31891"/>
<path d="M645.311 538.672C642.849 548.064 639.178 555.713 635.523 561.41" stroke="white" stroke-width="1.31891"/>
<g clip-path="url(#clip0_7228_282997)">
<path opacity="0.5" d="M573.543 115.121C573.543 130.871 560.775 143.639 545.025 143.639C529.276 143.639 516.508 130.871 516.508 115.121" stroke="white" stroke-width="0.316861"/>
<g filter="url(#filter0_d_7228_282997)">
<circle cx="545.028" cy="112.903" r="27.5669" fill="#1B1B2D"/>
<circle cx="545.028" cy="112.903" r="27.5669" fill="url(#paint3_linear_7228_282997)" fill-opacity="0.4"/>
</g>
<path d="M555.251 102.362C556.423 100.983 558.533 100.781 559.963 101.911C561.393 103.041 561.602 105.076 560.43 106.455L545.723 125.029C545.108 125.753 544.197 126.184 543.227 126.21C542.257 126.237 541.323 125.856 540.667 125.167L531.335 115.1C530.084 113.787 530.175 111.745 531.536 110.538C532.898 109.332 535.017 109.418 536.267 110.732L542.99 118.058L555.251 102.362Z" fill="#4FE2CE"/>
<circle cx="545.186" cy="112.745" r="27.7254" stroke="#4FE2CE" stroke-width="2.53489"/>
<circle cx="545.026" cy="112.903" r="26.2995" stroke="white" stroke-width="0.633723"/>
</g>
<g clip-path="url(#clip1_7228_282997)">
<path opacity="0.5" d="M847.543 623.121C847.543 638.871 834.775 651.639 819.025 651.639C803.276 651.639 790.508 638.871 790.508 623.121" stroke="white" stroke-width="0.316861"/>
<g filter="url(#filter1_d_7228_282997)">
<circle cx="819.028" cy="620.903" r="27.5669" fill="#1B1B2D"/>
<circle cx="819.028" cy="620.903" r="27.5669" fill="url(#paint4_linear_7228_282997)" fill-opacity="0.4"/>
</g>
<path d="M829.251 610.362C830.423 608.983 832.533 608.781 833.963 609.911C835.393 611.041 835.602 613.076 834.43 614.455L819.723 633.029C819.108 633.753 818.197 634.184 817.227 634.21C816.257 634.237 815.323 633.856 814.667 633.167L805.335 623.1C804.084 621.787 804.175 619.745 805.536 618.538C806.898 617.332 809.017 617.418 810.267 618.732L816.99 626.058L829.251 610.362Z" fill="#4FE2CE"/>
<circle cx="819.186" cy="620.745" r="27.7254" stroke="#4FE2CE" stroke-width="2.53489"/>
<circle cx="819.026" cy="620.903" r="26.2995" stroke="white" stroke-width="0.633723"/>
</g>
<g clip-path="url(#clip2_7228_282997)">
<path opacity="0.5" d="M810.543 445.121C810.543 460.871 797.775 473.639 782.025 473.639C766.276 473.639 753.508 460.871 753.508 445.121" stroke="white" stroke-width="0.316861"/>
<g filter="url(#filter2_d_7228_282997)">
<circle cx="782.028" cy="442.903" r="27.5669" fill="#1B1B2D"/>
<circle cx="782.028" cy="442.903" r="27.5669" fill="url(#paint5_linear_7228_282997)" fill-opacity="0.4"/>
</g>
<path d="M792.251 432.362C793.423 430.983 795.533 430.781 796.963 431.911C798.393 433.041 798.602 435.076 797.43 436.455L782.723 455.029C782.108 455.753 781.197 456.184 780.227 456.21C779.257 456.237 778.323 455.856 777.667 455.167L768.335 445.1C767.084 443.787 767.175 441.745 768.536 440.538C769.898 439.332 772.017 439.418 773.267 440.732L779.99 448.058L792.251 432.362Z" fill="#4FE2CE"/>
<circle cx="782.186" cy="442.745" r="27.7254" stroke="#4FE2CE" stroke-width="2.53489"/>
<circle cx="782.026" cy="442.903" r="26.2995" stroke="white" stroke-width="0.633723"/>
</g>
<g clip-path="url(#clip3_7228_282997)">
<path opacity="0.5" d="M680.543 489.121C680.543 504.871 667.775 517.639 652.025 517.639C636.276 517.639 623.508 504.871 623.508 489.121" stroke="white" stroke-width="0.316861"/>
<g filter="url(#filter3_d_7228_282997)">
<circle cx="652.028" cy="486.903" r="27.5669" fill="#1B1B2D"/>
<circle cx="652.028" cy="486.903" r="27.5669" fill="url(#paint6_linear_7228_282997)" fill-opacity="0.4"/>
</g>
<path d="M662.251 476.362C663.423 474.983 665.533 474.781 666.963 475.911C668.393 477.041 668.602 479.076 667.43 480.455L652.723 499.029C652.108 499.753 651.197 500.184 650.227 500.21C649.257 500.237 648.323 499.856 647.667 499.167L638.335 489.1C637.084 487.787 637.175 485.745 638.536 484.538C639.898 483.332 642.017 483.418 643.267 484.732L649.99 492.058L662.251 476.362Z" fill="#4FE2CE"/>
<circle cx="652.186" cy="486.745" r="27.7254" stroke="#4FE2CE" stroke-width="2.53489"/>
<circle cx="652.026" cy="486.903" r="26.2995" stroke="white" stroke-width="0.633723"/>
</g>
<g clip-path="url(#clip4_7228_282997)">
<path opacity="0.5" d="M367.543 750.121C367.543 765.871 354.775 778.639 339.025 778.639C323.276 778.639 310.508 765.871 310.508 750.121" stroke="white" stroke-width="0.316861"/>
<g filter="url(#filter4_d_7228_282997)">
<circle cx="339.028" cy="747.903" r="27.5669" fill="#1B1B2D"/>
<circle cx="339.028" cy="747.903" r="27.5669" fill="url(#paint7_linear_7228_282997)" fill-opacity="0.4"/>
</g>
<path d="M349.251 737.362C350.423 735.983 352.533 735.781 353.963 736.911C355.393 738.041 355.602 740.076 354.43 741.455L339.723 760.029C339.108 760.753 338.197 761.184 337.227 761.21C336.257 761.237 335.323 760.856 334.667 760.167L325.335 750.1C324.084 748.787 324.175 746.745 325.536 745.538C326.898 744.332 329.017 744.418 330.267 745.732L336.99 753.058L349.251 737.362Z" fill="#4FE2CE"/>
<circle cx="339.186" cy="747.745" r="27.7254" stroke="#4FE2CE" stroke-width="2.53489"/>
<circle cx="339.026" cy="747.903" r="26.2995" stroke="white" stroke-width="0.633723"/>
</g>
<g clip-path="url(#clip5_7228_282997)">
<path opacity="0.5" d="M260.543 652.121C260.543 667.871 247.775 680.639 232.025 680.639C216.276 680.639 203.508 667.871 203.508 652.121" stroke="white" stroke-width="0.316861"/>
<g filter="url(#filter5_d_7228_282997)">
<circle cx="232.028" cy="649.903" r="27.5669" fill="#1B1B2D"/>
<circle cx="232.028" cy="649.903" r="27.5669" fill="url(#paint8_linear_7228_282997)" fill-opacity="0.4"/>
</g>
<path d="M242.251 639.362C243.423 637.983 245.533 637.781 246.963 638.911C248.393 640.041 248.602 642.076 247.43 643.455L232.723 662.029C232.108 662.753 231.197 663.184 230.227 663.21C229.257 663.237 228.323 662.856 227.667 662.167L218.335 652.1C217.084 650.787 217.175 648.745 218.536 647.538C219.898 646.332 222.017 646.418 223.267 647.732L229.99 655.058L242.251 639.362Z" fill="#4FE2CE"/>
<circle cx="232.186" cy="649.745" r="27.7254" stroke="#4FE2CE" stroke-width="2.53489"/>
<circle cx="232.026" cy="649.903" r="26.2995" stroke="white" stroke-width="0.633723"/>
</g>
<g clip-path="url(#clip6_7228_282997)">
<path opacity="0.5" d="M159.543 558.121C159.543 573.871 146.775 586.639 131.025 586.639C115.276 586.639 102.508 573.871 102.508 558.121" stroke="white" stroke-width="0.316861"/>
<g filter="url(#filter6_d_7228_282997)">
<circle cx="131.028" cy="555.903" r="27.5669" fill="#1B1B2D"/>
<circle cx="131.028" cy="555.903" r="27.5669" fill="url(#paint9_linear_7228_282997)" fill-opacity="0.4"/>
</g>
<path d="M141.251 545.362C142.423 543.983 144.533 543.781 145.963 544.911C147.393 546.041 147.602 548.076 146.43 549.455L131.723 568.029C131.108 568.753 130.197 569.184 129.227 569.21C128.257 569.237 127.323 568.856 126.667 568.167L117.335 558.1C116.084 556.787 116.175 554.745 117.536 553.538C118.898 552.332 121.017 552.418 122.267 553.732L128.99 561.058L141.251 545.362Z" fill="#4FE2CE"/>
<circle cx="131.186" cy="555.745" r="27.7254" stroke="#4FE2CE" stroke-width="2.53489"/>
<circle cx="131.026" cy="555.903" r="26.2995" stroke="white" stroke-width="0.633723"/>
</g>
<defs>
<filter id="filter0_d_7228_282997" x="502.252" y="77.7313" width="85.5515" height="85.5535" filterUnits="userSpaceOnUse" color-interpolation-filters="sRGB">
<feFlood flood-opacity="0" result="BackgroundImageFix"/>
<feColorMatrix in="SourceAlpha" type="matrix" values="0 0 0 0 0 0 0 0 0 0 0 0 0 0 0 0 0 0 127 0" result="hardAlpha"/>
<feOffset dy="7.60467"/>
<feGaussianBlur stdDeviation="7.60467"/>
<feComposite in2="hardAlpha" operator="out"/>
<feColorMatrix type="matrix" values="0 0 0 0 0.309804 0 0 0 0 0.886275 0 0 0 0 0.807843 0 0 0 0.5 0"/>
<feBlend mode="normal" in2="BackgroundImageFix" result="effect1_dropShadow_7228_282997"/>
<feBlend mode="normal" in="SourceGraphic" in2="effect1_dropShadow_7228_282997" result="shape"/>
</filter>
<filter id="filter1_d_7228_282997" x="776.252" y="585.731" width="85.5515" height="85.5535" filterUnits="userSpaceOnUse" color-interpolation-filters="sRGB">
<feFlood flood-opacity="0" result="BackgroundImageFix"/>
<feColorMatrix in="SourceAlpha" type="matrix" values="0 0 0 0 0 0 0 0 0 0 0 0 0 0 0 0 0 0 127 0" result="hardAlpha"/>
<feOffset dy="7.60467"/>
<feGaussianBlur stdDeviation="7.60467"/>
<feComposite in2="hardAlpha" operator="out"/>
<feColorMatrix type="matrix" values="0 0 0 0 0.309804 0 0 0 0 0.886275 0 0 0 0 0.807843 0 0 0 0.5 0"/>
<feBlend mode="normal" in2="BackgroundImageFix" result="effect1_dropShadow_7228_282997"/>
<feBlend mode="normal" in="SourceGraphic" in2="effect1_dropShadow_7228_282997" result="shape"/>
</filter>
<filter id="filter2_d_7228_282997" x="739.252" y="407.731" width="85.5515" height="85.5535" filterUnits="userSpaceOnUse" color-interpolation-filters="sRGB">
<feFlood flood-opacity="0" result="BackgroundImageFix"/>
<feColorMatrix in="SourceAlpha" type="matrix" values="0 0 0 0 0 0 0 0 0 0 0 0 0 0 0 0 0 0 127 0" result="hardAlpha"/>
<feOffset dy="7.60467"/>
<feGaussianBlur stdDeviation="7.60467"/>
<feComposite in2="hardAlpha" operator="out"/>
<feColorMatrix type="matrix" values="0 0 0 0 0.309804 0 0 0 0 0.886275 0 0 0 0 0.807843 0 0 0 0.5 0"/>
<feBlend mode="normal" in2="BackgroundImageFix" result="effect1_dropShadow_7228_282997"/>
<feBlend mode="normal" in="SourceGraphic" in2="effect1_dropShadow_7228_282997" result="shape"/>
</filter>
<filter id="filter3_d_7228_282997" x="609.252" y="451.731" width="85.5515" height="85.5535" filterUnits="userSpaceOnUse" color-interpolation-filters="sRGB">
<feFlood flood-opacity="0" result="BackgroundImageFix"/>
<feColorMatrix in="SourceAlpha" type="matrix" values="0 0 0 0 0 0 0 0 0 0 0 0 0 0 0 0 0 0 127 0" result="hardAlpha"/>
<feOffset dy="7.60467"/>
<feGaussianBlur stdDeviation="7.60467"/>
<feComposite in2="hardAlpha" operator="out"/>
<feColorMatrix type="matrix" values="0 0 0 0 0.309804 0 0 0 0 0.886275 0 0 0 0 0.807843 0 0 0 0.5 0"/>
<feBlend mode="normal" in2="BackgroundImageFix" result="effect1_dropShadow_7228_282997"/>
<feBlend mode="normal" in="SourceGraphic" in2="effect1_dropShadow_7228_282997" result="shape"/>
</filter>
<filter id="filter4_d_7228_282997" x="296.252" y="712.731" width="85.5515" height="85.5535" filterUnits="userSpaceOnUse" color-interpolation-filters="sRGB">
<feFlood flood-opacity="0" result="BackgroundImageFix"/>
<feColorMatrix in="SourceAlpha" type="matrix" values="0 0 0 0 0 0 0 0 0 0 0 0 0 0 0 0 0 0 127 0" result="hardAlpha"/>
<feOffset dy="7.60467"/>
<feGaussianBlur stdDeviation="7.60467"/>
<feComposite in2="hardAlpha" operator="out"/>
<feColorMatrix type="matrix" values="0 0 0 0 0.309804 0 0 0 0 0.886275 0 0 0 0 0.807843 0 0 0 0.5 0"/>
<feBlend mode="normal" in2="BackgroundImageFix" result="effect1_dropShadow_7228_282997"/>
<feBlend mode="normal" in="SourceGraphic" in2="effect1_dropShadow_7228_282997" result="shape"/>
</filter>
<filter id="filter5_d_7228_282997" x="189.252" y="614.731" width="85.5515" height="85.5535" filterUnits="userSpaceOnUse" color-interpolation-filters="sRGB">
<feFlood flood-opacity="0" result="BackgroundImageFix"/>
<feColorMatrix in="SourceAlpha" type="matrix" values="0 0 0 0 0 0 0 0 0 0 0 0 0 0 0 0 0 0 127 0" result="hardAlpha"/>
<feOffset dy="7.60467"/>
<feGaussianBlur stdDeviation="7.60467"/>
<feComposite in2="hardAlpha" operator="out"/>
<feColorMatrix type="matrix" values="0 0 0 0 0.309804 0 0 0 0 0.886275 0 0 0 0 0.807843 0 0 0 0.5 0"/>
<feBlend mode="normal" in2="BackgroundImageFix" result="effect1_dropShadow_7228_282997"/>
<feBlend mode="normal" in="SourceGraphic" in2="effect1_dropShadow_7228_282997" result="shape"/>
</filter>
<filter id="filter6_d_7228_282997" x="88.2516" y="520.731" width="85.5515" height="85.5535" filterUnits="userSpaceOnUse" color-interpolation-filters="sRGB">
<feFlood flood-opacity="0" result="BackgroundImageFix"/>
<feColorMatrix in="SourceAlpha" type="matrix" values="0 0 0 0 0 0 0 0 0 0 0 0 0 0 0 0 0 0 127 0" result="hardAlpha"/>
<feOffset dy="7.60467"/>
<feGaussianBlur stdDeviation="7.60467"/>
<feComposite in2="hardAlpha" operator="out"/>
<feColorMatrix type="matrix" values="0 0 0 0 0.309804 0 0 0 0 0.886275 0 0 0 0 0.807843 0 0 0 0.5 0"/>
<feBlend mode="normal" in2="BackgroundImageFix" result="effect1_dropShadow_7228_282997"/>
<feBlend mode="normal" in="SourceGraphic" in2="effect1_dropShadow_7228_282997" result="shape"/>
</filter>
<linearGradient id="paint0_linear_7228_282997" x1="228.099" y1="447.477" x2="167.034" y2="510.562" gradientUnits="userSpaceOnUse">
<stop stop-color="#D9D9D9"/>
<stop offset="1" stop-color="#737373" stop-opacity="0"/>
</linearGradient>
<linearGradient id="paint1_linear_7228_282997" x1="329.771" y1="537.707" x2="268.706" y2="600.792" gradientUnits="userSpaceOnUse">
<stop stop-color="#D9D9D9"/>
<stop offset="1" stop-color="#737373" stop-opacity="0"/>
</linearGradient>
<linearGradient id="paint2_linear_7228_282997" x1="424.152" y1="629.303" x2="363.087" y2="692.388" gradientUnits="userSpaceOnUse">
<stop stop-color="#D9D9D9"/>
<stop offset="1" stop-color="#737373" stop-opacity="0"/>
</linearGradient>
<linearGradient id="paint3_linear_7228_282997" x1="572.595" y1="147.994" x2="523.807" y2="103.431" gradientUnits="userSpaceOnUse">
<stop stop-color="#4FE2CE"/>
<stop offset="1" stop-color="#4FE2CE" stop-opacity="0.2"/>
</linearGradient>
<linearGradient id="paint4_linear_7228_282997" x1="846.595" y1="655.994" x2="797.807" y2="611.431" gradientUnits="userSpaceOnUse">
<stop stop-color="#4FE2CE"/>
<stop offset="1" stop-color="#4FE2CE" stop-opacity="0.2"/>
</linearGradient>
<linearGradient id="paint5_linear_7228_282997" x1="809.595" y1="477.994" x2="760.807" y2="433.431" gradientUnits="userSpaceOnUse">
<stop stop-color="#4FE2CE"/>
<stop offset="1" stop-color="#4FE2CE" stop-opacity="0.2"/>
</linearGradient>
<linearGradient id="paint6_linear_7228_282997" x1="679.595" y1="521.994" x2="630.807" y2="477.431" gradientUnits="userSpaceOnUse">
<stop stop-color="#4FE2CE"/>
<stop offset="1" stop-color="#4FE2CE" stop-opacity="0.2"/>
</linearGradient>
<linearGradient id="paint7_linear_7228_282997" x1="366.595" y1="782.994" x2="317.807" y2="738.431" gradientUnits="userSpaceOnUse">
<stop stop-color="#4FE2CE"/>
<stop offset="1" stop-color="#4FE2CE" stop-opacity="0.2"/>
</linearGradient>
<linearGradient id="paint8_linear_7228_282997" x1="259.595" y1="684.994" x2="210.807" y2="640.431" gradientUnits="userSpaceOnUse">
<stop stop-color="#4FE2CE"/>
<stop offset="1" stop-color="#4FE2CE" stop-opacity="0.2"/>
</linearGradient>
<linearGradient id="paint9_linear_7228_282997" x1="158.595" y1="590.994" x2="109.807" y2="546.431" gradientUnits="userSpaceOnUse">
<stop stop-color="#4FE2CE"/>
<stop offset="1" stop-color="#4FE2CE" stop-opacity="0.2"/>
</linearGradient>
<clipPath id="clip0_7228_282997">
<rect width="76.0467" height="76.0467" fill="white" transform="translate(507 79)"/>
</clipPath>
<clipPath id="clip1_7228_282997">
<rect width="76.0467" height="76.0467" fill="white" transform="translate(781 587)"/>
</clipPath>
<clipPath id="clip2_7228_282997">
<rect width="76.0467" height="76.0467" fill="white" transform="translate(744 409)"/>
</clipPath>
<clipPath id="clip3_7228_282997">
<rect width="76.0467" height="76.0467" fill="white" transform="translate(614 453)"/>
</clipPath>
<clipPath id="clip4_7228_282997">
<rect width="76.0467" height="76.0467" fill="white" transform="translate(301 714)"/>
</clipPath>
<clipPath id="clip5_7228_282997">
<rect width="76.0467" height="76.0467" fill="white" transform="translate(194 616)"/>
</clipPath>
<clipPath id="clip6_7228_282997">
<rect width="76.0467" height="76.0467" fill="white" transform="translate(93 522)"/>
</clipPath>
</defs>
</svg>
