<svg width="885" height="875" viewBox="0 0 885 875" fill="none" xmlns="http://www.w3.org/2000/svg">
<path d="M0 42.5C0 26.1328 0 17.9493 3.684 11.9375C5.74539 8.57365 8.57365 5.74539 11.9375 3.684C17.9493 0 26.1328 0 42.5 0H842.5C858.867 0 867.051 0 873.062 3.684C876.426 5.74539 879.255 8.57365 881.316 11.9375C885 17.9493 885 26.1328 885 42.5V832.5C885 848.867 885 857.051 881.316 863.062C879.255 866.426 876.426 869.255 873.062 871.316C867.051 875 858.867 875 842.5 875H42.5C26.1329 875 17.9493 875 11.9375 871.316C8.57365 869.255 5.74539 866.426 3.684 863.062C0 857.051 0 848.867 0 832.5V42.5Z" fill="white" fill-opacity="0.07"/>
<path d="M42.5 1H842.5C850.703 1 856.785 1.0011 861.57 1.45605C866.34 1.90961 869.718 2.80764 872.54 4.53711C875.769 6.51599 878.484 9.23084 880.463 12.46C882.192 15.2822 883.09 18.6599 883.544 23.4297C883.999 28.2146 884 34.2971 884 42.5V832.5C884 840.703 883.999 846.785 883.544 851.57C883.09 856.34 882.192 859.718 880.463 862.54C878.484 865.769 875.769 868.484 872.54 870.463C869.718 872.192 866.34 873.09 861.57 873.544C856.785 873.999 850.703 874 842.5 874H42.5C34.2971 874 28.2146 873.999 23.4297 873.544C18.6599 873.09 15.2822 872.192 12.46 870.463C9.23084 868.484 6.51599 865.769 4.53711 862.54C2.80764 859.718 1.90961 856.34 1.45605 851.57C1.0011 846.785 1 840.703 1 832.5V42.5C1 34.2971 1.0011 28.2146 1.45605 23.4297C1.90961 18.6599 2.80763 15.2822 4.53711 12.46C6.51598 9.23083 9.23083 6.51598 12.46 4.53711C15.2822 2.80763 18.6599 1.90961 23.4297 1.45605C28.2146 1.0011 34.2971 1 42.5 1Z" stroke="white" stroke-opacity="0.15" stroke-width="2"/>
<g clip-path="url(#clip0_6162_136703)">
<path d="M792.086 387.907L792.086 419.137C792.928 425.448 788.03 431.651 777.335 436.077L373.397 603.322C353.167 611.695 319.856 610.543 298.995 600.748L116.969 509.281C106.511 504.371 101.168 498.221 100.987 492.254L100.987 467.195" stroke="white" stroke-width="1.92667"/>
<g opacity="0.4">
<path d="M485.929 480.993C487.445 481.655 487.424 483.814 485.896 484.447L370.925 532.066C351.613 539.953 319.829 538.875 299.935 529.659L123.084 446.48C103.19 437.264 98.1417 426.18 117.454 418.293L233.763 373.269C235.608 372.554 237.662 372.598 239.476 373.39L485.929 480.993Z" stroke="white" stroke-width="0.93825"/>
<path d="M644.347 415.377C645.866 416.037 645.848 418.198 644.317 418.831L499.259 478.912C498.316 479.303 497.256 479.293 496.321 478.885L246.694 369.9C245.929 369.566 245.948 368.475 246.724 368.168L395.104 309.507C396.957 308.775 399.026 308.809 400.854 309.603L644.347 415.377Z" stroke="white" stroke-width="0.93825"/>
<path d="M512.185 262.239C531.498 254.353 563.281 255.43 583.176 264.646L765.537 339.98C785.431 349.196 788.058 359.402 771.168 366.293L657.698 413.289C656.758 413.679 655.7 413.67 654.767 413.264L408.045 306.094C407.282 305.762 407.296 304.675 408.067 304.363L512.185 262.239Z" stroke="white" stroke-width="0.93825"/>
</g>
<path d="M113.38 448.096C92.514 438.296 92.0018 423.56 112.236 415.182L510.294 257.968C530.528 249.59 563.846 250.743 584.712 260.543L773.698 338.617C794.564 348.417 795.076 363.153 774.842 371.531L373.286 537.791C353.052 546.169 319.734 545.016 298.868 535.216L113.38 448.096Z" stroke="white" stroke-width="1.92667"/>
<path d="M111.808 448.144C90.9419 438.344 90.4297 423.608 110.664 415.23L511.682 257.536C531.916 249.159 565.234 250.312 586.1 260.112L772.126 338.665C792.992 348.466 793.504 363.202 773.27 371.579L371.714 537.84C351.48 546.217 318.162 545.064 297.296 535.264L111.808 448.144Z" fill="#D9D9D9" fill-opacity="0.1"/>
<path d="M780.767 342.323C801.633 352.147 809.214 380.408 788.984 388.805L665.542 440.181C663.583 440.996 662.957 443.472 663.394 445.618C663.493 446.106 663.567 446.614 663.613 447.14C664.243 454.359 659.472 462.404 652.956 465.108L522.286 519.346C515.77 522.051 509.976 518.391 509.345 511.173C509.126 508.659 506.406 506.255 504.129 507.197L371.231 562.202C351.001 570.599 317.687 569.442 296.821 559.617L102.383 468.066C81.5172 458.241 87.6479 425.981 107.878 417.584" stroke="white" stroke-width="1.92667"/>
<path d="M508.836 502.65C510.17 497.138 514.11 492.006 519.055 489.952L649.657 435.711C653.594 434.076 657.267 434.766 659.696 437.162M516.023 505.684C517.307 500.406 521.093 495.491 525.845 493.524L651.34 441.576C655.123 440.01 658.651 440.671 660.984 442.965" stroke="white" stroke-width="0.642223"/>
<path opacity="0.5" d="M150.094 465.018L238.022 429.805M314.02 399.37L399.401 365.177M474.93 334.93L511.132 320.432C531.358 312.036 564.666 313.193 585.528 323.017L734.825 381.314M398.463 309.281V364.638L578.607 445.328M237.553 372.613V429.846L419.573 511.943" stroke="white" stroke-width="0.93825"/>
<mask id="mask0_6162_136703" style="mask-type:alpha" maskUnits="userSpaceOnUse" x="-278" y="316" width="1394" height="379">
<path d="M-277.555 316.316L103.844 473.942C99.7489 483.945 98.9025 489.885 103.844 501.621L327.93 615.267C331.308 616.981 335.262 617.152 338.776 615.738L805.186 427.968L1115.75 316.316V694.431H-277.555V316.316Z" fill="#D9D9D9"/>
</mask>
<g mask="url(#mask0_6162_136703)">
<path d="M-78.5062 482.943L-122.697 503.684M-40.3734 482.751L-110.275 515.559M-2.2406 482.559L-97.853 527.435M35.8922 482.367L-85.4311 539.31M74.025 482.175L-73.0092 551.185M112.158 481.983L-60.5873 563.061M150.291 481.791L-48.1654 574.936M188.423 481.599L-35.7435 586.811M226.556 481.406L-23.3217 598.687M264.689 481.214L-10.8998 610.562M302.822 481.022L1.52213 622.437M340.954 480.83L13.944 634.313M379.087 480.638L27.9728 645.434M417.22 480.446L54.8571 650.521M455.353 480.254L92.9899 650.329M493.486 480.062L131.123 650.137M531.618 479.87L169.255 649.945M568.948 480.055L207.388 649.753M607.884 479.486L245.521 649.561M646.017 479.293L283.654 649.369M683.346 479.478L321.787 649.177M722.282 478.909L359.919 648.985M759.611 479.094L398.052 648.792M797.744 478.902L436.185 648.6M822.218 485.121L474.318 648.408M834.64 496.996L512.45 648.216M847.062 508.872L550.583 648.024M859.484 520.747L588.716 647.832M871.906 532.622L626.849 647.64M884.328 544.498L664.982 647.448M895.197 554.888L698.348 647.28M906.066 565.279L731.714 647.112M916.935 575.67L765.08 646.944M927.804 586.061L798.446 646.775M938.673 596.452L831.812 646.607M949.542 606.843L865.179 646.439M960.412 617.234L898.545 646.271M971.281 627.625L931.911 646.103M982.15 638.016L965.277 645.935" stroke="url(#paint0_radial_6162_136703)" stroke-width="1.8765" stroke-linecap="round" stroke-linejoin="round" stroke-dasharray="1.88 7.51"/>
</g>
<path d="M-285.062 470.191L1063.2 470.192" stroke="url(#paint1_linear_6162_136703)" stroke-opacity="0.5" stroke-width="0.93825"/>
</g>
<g clip-path="url(#clip1_6162_136703)">
<path opacity="0.5" d="M693.543 285.121C693.543 300.871 680.775 313.639 665.025 313.639C649.276 313.639 636.508 300.871 636.508 285.121" stroke="white" stroke-width="0.316861"/>
<g filter="url(#filter0_d_6162_136703)">
<circle cx="665.028" cy="282.903" r="27.5669" fill="#1B1B2D"/>
<circle cx="665.028" cy="282.903" r="27.5669" fill="url(#paint2_linear_6162_136703)" fill-opacity="0.4"/>
</g>
<path d="M675.251 272.362C676.423 270.983 678.533 270.781 679.963 271.911C681.393 273.041 681.602 275.076 680.43 276.455L665.723 295.029C665.108 295.753 664.197 296.184 663.227 296.21C662.257 296.237 661.323 295.856 660.667 295.167L651.335 285.1C650.084 283.787 650.175 281.745 651.536 280.538C652.898 279.332 655.017 279.418 656.267 280.732L662.99 288.058L675.251 272.362Z" fill="#4FE2CE"/>
<circle cx="665.186" cy="282.745" r="27.7254" stroke="#4FE2CE" stroke-width="2.53489"/>
<circle cx="665.026" cy="282.903" r="26.2995" stroke="white" stroke-width="0.633723"/>
</g>
<defs>
<filter id="filter0_d_6162_136703" x="622.252" y="247.731" width="85.5515" height="85.5535" filterUnits="userSpaceOnUse" color-interpolation-filters="sRGB">
<feFlood flood-opacity="0" result="BackgroundImageFix"/>
<feColorMatrix in="SourceAlpha" type="matrix" values="0 0 0 0 0 0 0 0 0 0 0 0 0 0 0 0 0 0 127 0" result="hardAlpha"/>
<feOffset dy="7.60467"/>
<feGaussianBlur stdDeviation="7.60467"/>
<feComposite in2="hardAlpha" operator="out"/>
<feColorMatrix type="matrix" values="0 0 0 0 0.309804 0 0 0 0 0.886275 0 0 0 0 0.807843 0 0 0 0.5 0"/>
<feBlend mode="normal" in2="BackgroundImageFix" result="effect1_dropShadow_6162_136703"/>
<feBlend mode="normal" in="SourceGraphic" in2="effect1_dropShadow_6162_136703" result="shape"/>
</filter>
<radialGradient id="paint0_radial_6162_136703" cx="0" cy="0" r="1" gradientUnits="userSpaceOnUse" gradientTransform="translate(441.5 530.999) rotate(-4.90906) scale(409 117.217)">
<stop stop-color="white" stop-opacity="0"/>
<stop offset="0.408122" stop-color="#DEDEDE" stop-opacity="0.1"/>
<stop offset="0.747946" stop-color="#B2B2B2" stop-opacity="0.75"/>
<stop offset="1" stop-color="#999999" stop-opacity="0"/>
</radialGradient>
<linearGradient id="paint1_linear_6162_136703" x1="-285.063" y1="470.691" x2="1063.2" y2="470.692" gradientUnits="userSpaceOnUse">
<stop stop-color="white" stop-opacity="0"/>
<stop offset="0.087352" stop-color="white" stop-opacity="0"/>
<stop offset="0.244352" stop-color="white" stop-opacity="0"/>
<stop offset="0.271871" stop-color="white"/>
<stop offset="0.286365" stop-color="white" stop-opacity="0"/>
<stop offset="0.541459" stop-color="white" stop-opacity="0"/>
<stop offset="0.751954" stop-color="white" stop-opacity="0"/>
<stop offset="0.800085" stop-color="white"/>
<stop offset="0.859688" stop-color="white" stop-opacity="0"/>
<stop offset="1" stop-color="white" stop-opacity="0"/>
</linearGradient>
<linearGradient id="paint2_linear_6162_136703" x1="692.595" y1="317.994" x2="643.807" y2="273.431" gradientUnits="userSpaceOnUse">
<stop stop-color="#4FE2CE"/>
<stop offset="1" stop-color="#4FE2CE" stop-opacity="0.2"/>
</linearGradient>
<clipPath id="clip0_6162_136703">
<rect width="885" height="875" fill="white"/>
</clipPath>
<clipPath id="clip1_6162_136703">
<rect width="76.0467" height="76.0467" fill="white" transform="translate(627 249)"/>
</clipPath>
</defs>
</svg>
