<svg width="885" height="875" viewBox="0 0 885 875" fill="none" xmlns="http://www.w3.org/2000/svg">
<g clip-path="url(#clip0_6162_135821)">
<path d="M0 42.5C0 26.1328 0 17.9493 3.684 11.9375C5.74539 8.57365 8.57365 5.74539 11.9375 3.684C17.9493 0 26.1328 0 42.5 0H842.5C858.867 0 867.051 0 873.062 3.684C876.426 5.74539 879.255 8.57365 881.316 11.9375C885 17.9493 885 26.1328 885 42.5V832.5C885 848.867 885 857.051 881.316 863.062C879.255 866.426 876.426 869.255 873.062 871.316C867.051 875 858.867 875 842.5 875H42.5C26.1329 875 17.9493 875 11.9375 871.316C8.57365 869.255 5.74539 866.426 3.684 863.062C0 857.051 0 848.867 0 832.5V42.5Z" fill="white" fill-opacity="0.07"/>
<path fill-rule="evenodd" clip-rule="evenodd" d="M313.779 203.959C325.088 202.262 333.569 200.566 339.223 203.959C344.877 207.351 344.312 212.439 351.097 213.005C357.882 213.57 363.535 210.743 367.493 210.743C371.451 210.743 384.456 214.701 390.111 218.093C395.765 221.486 419.511 236.751 421.774 241.275C424.035 245.798 430.255 252.018 435.344 254.845C440.433 257.672 450.61 263.892 462.484 268.981C474.357 274.07 490.754 281.42 500.932 291.032C511.109 300.644 520.721 313.649 525.81 316.476C530.898 319.303 537.118 322.13 541.076 325.522C545.034 328.915 549.558 331.742 551.82 332.307C554.081 332.873 555.212 335.135 556.908 337.396C558.605 339.658 561.997 343.051 573.87 349.27C585.744 355.49 593.094 360.013 601.01 366.232C608.926 372.452 631.542 389.415 637.762 393.938C643.982 398.461 658.683 412.596 666.599 417.685C674.514 422.774 678.472 425.601 686.388 428.428C694.304 431.255 702.786 435.778 708.44 437.474C714.094 439.171 725.967 441.432 731.056 441.432C736.145 441.432 745.757 445.956 759.326 447.087C772.896 448.217 779.682 449.914 783.074 452.175C786.467 454.437 790.425 455.003 790.99 467.442C791.556 479.881 795.513 486.101 796.644 492.885C797.775 499.67 797.775 507.021 798.34 510.979C798.906 514.937 801.733 520.025 805.691 522.852C809.648 525.679 811.91 526.81 813.607 527.376C815.303 527.941 816.999 529.637 811.91 530.203C806.822 530.768 795.513 531.334 794.382 533.595C793.251 535.857 794.382 536.988 796.078 538.119C797.775 539.25 803.429 538.119 806.256 538.684C809.083 539.25 810.779 539.815 808.518 542.077C806.256 544.338 798.906 547.73 797.209 552.254C795.513 556.777 797.775 557.342 800.036 553.95C802.298 550.558 801.168 548.861 807.387 551.123C813.606 553.384 821.522 558.473 832.265 560.735C843.008 562.997 853.751 570.347 867.321 570.347C880.891 570.347 889.938 571.478 904.639 572.044C919.339 572.609 918.209 572.044 934.04 576.567C946.706 580.186 966.081 587.875 974.185 591.267C965.327 589.383 946.593 586.745 942.522 591.267C937.433 596.921 934.04 605.403 931.213 619.539C928.386 633.674 925.559 642.721 930.082 651.767C933.701 659.005 942.145 669.86 945.914 674.383C943.276 672.499 937.094 668.391 933.475 667.034C928.952 665.338 909.163 666.468 904.073 664.772C898.985 663.076 892.199 662.51 889.938 658.552C887.676 654.594 884.849 654.029 880.325 655.16C875.802 656.291 870.714 657.987 869.018 660.249C867.322 662.51 865.625 664.206 861.667 659.683C857.709 655.16 858.274 650.636 854.317 647.244C850.359 643.851 848.662 644.982 844.139 649.506C839.616 654.029 826.046 663.076 823.219 653.464C820.392 643.851 820.957 641.024 811.91 638.197C802.864 635.37 783.074 636.502 771.766 633.674C760.458 630.847 754.804 630.282 749.715 627.455C744.626 624.628 735.014 617.843 728.794 595.792C722.575 573.74 725.402 568.085 715.225 559.604C705.047 551.123 708.439 557.343 703.351 552.82C698.262 548.297 690.911 548.862 684.692 549.427C678.472 549.993 666.598 552.255 657.552 551.689C648.505 551.124 649.07 553.951 641.154 542.077C633.239 530.203 630.412 520.591 623.627 514.937C616.842 509.283 591.964 497.409 578.959 491.755C565.955 486.1 547.861 481.577 534.291 465.18C520.721 448.783 515.067 445.39 508.848 444.259C502.628 443.129 496.974 442.564 490.189 431.256C483.404 419.947 480.577 408.638 471.53 406.942C462.484 405.246 446.652 404.115 439.302 403.549C431.952 402.984 431.386 404.115 431.386 399.027C431.386 393.938 429.124 387.718 425.732 386.588C422.339 385.457 418.381 391.676 414.988 393.938C411.596 396.2 409.334 401.288 408.203 396.765C407.072 392.242 403.681 389.415 399.157 393.938C394.634 398.461 392.938 399.027 393.503 392.242C394.069 385.457 398.592 373.017 398.027 371.886C397.461 370.756 395.765 370.756 392.372 374.714C388.98 378.671 382.195 391.111 381.064 392.242C379.933 393.373 378.802 393.938 377.106 391.676C375.409 389.415 370.886 380.933 368.624 378.672C366.363 376.41 362.405 376.41 361.84 382.064C361.275 387.718 364.102 396.2 362.971 399.027C361.84 401.854 360.709 405.246 357.882 404.115C355.055 402.984 351.097 400.723 347.704 393.938C344.312 387.153 340.354 386.588 338.092 389.415C335.83 392.242 334.699 399.593 332.438 401.854C330.176 404.116 325.653 406.942 321.695 410.335C317.738 413.727 306.429 418.251 297.947 421.643C290.796 424.504 282.84 427.364 278.826 430.224C276.471 432.443 274.886 435.417 274.402 438.71C273.424 445.354 268.032 450.471 261.345 451.098L260.488 451.178C249.217 452.235 242.753 464.53 248.272 474.415L256.404 488.979C259.41 494.361 247.285 495.729 244.799 501.369L254.41 532.467C257.802 549.429 226.938 546.603 232.869 555.34L235.366 556.75C240.523 559.659 242.687 564.856 239.082 568.859C235.506 572.83 230.555 576.334 224.916 575.771C213.392 574.62 213.083 582.293 185.919 583.137C158.755 583.981 130.932 580.222 126.528 575.771C123.412 572.621 119.732 566.516 117.761 562.919C117.363 562.192 117.761 561.364 118.676 560.975L126.312 557.735C128.237 556.918 128.483 554.92 126.788 553.855C124.93 535.859 97.8762 530.771 97.8762 513.243C97.8762 512.584 98.6875 475.762 98.7648 475.113C99.1172 472.156 99.2037 469.057 97.8762 466.391C95.6881 461.997 96.4734 456.704 99.843 453.134L107.079 445.468C110.915 441.404 111.85 435.397 109.43 430.359L108.293 427.993C104.515 420.129 110.246 411.016 118.971 411.016C125.513 411.016 130.817 405.713 130.818 399.171V378.399C130.818 371.304 134.642 364.76 140.824 361.279L188.053 334.685C187.842 335.014 187.641 335.337 187.449 335.655C191.282 334.161 195.706 333.305 200.131 334.569C208.047 336.831 225.574 343.616 227.836 344.181C230.098 344.747 236.318 348.139 240.841 342.485C245.364 336.831 251.584 328.35 258.934 327.219C266.284 326.089 269.112 328.349 270.808 329.48C272.504 330.611 274.766 331.177 273.07 325.523C271.373 319.869 269.112 309.691 269.677 305.733C270.242 301.775 270.242 300.644 272.504 303.471C274.766 306.298 286.638 319.868 288.901 321C291.162 322.13 293.424 321.565 292.293 317.607C291.162 313.649 285.509 301.775 285.509 298.382C285.509 294.99 286.074 286.509 286.074 276.332C286.074 266.154 284.378 260.499 286.074 250.322C287.771 240.144 290.597 224.878 293.989 218.093C297.382 211.308 302.471 205.655 313.779 203.959Z" fill="url(#paint0_linear_6162_135821)" fill-opacity="0.1"/>
<path d="M529.203 325.919L530.841 325.768C531.528 325.705 532.148 325.331 532.526 324.754L532.747 324.416C532.934 324.131 533.239 323.946 533.577 323.911L534.824 323.782C535.858 323.676 536.896 323.928 537.765 324.497L543.721 328.394C544.59 328.963 545.237 329.813 545.553 330.803L545.934 331.997C546.038 332.321 545.99 332.675 545.803 332.96L545.582 333.298C545.204 333.875 545.111 334.593 545.328 335.248L545.845 336.81M533.683 324.496L545.511 332.237" stroke="white" stroke-linecap="round"/>
<path d="M676.211 426.564L677.849 426.412C678.536 426.349 679.156 425.976 679.534 425.399L679.755 425.061C679.941 424.776 680.246 424.59 680.585 424.555L681.832 424.427C682.865 424.32 683.904 424.572 684.773 425.141L690.729 429.039C691.598 429.607 692.245 430.458 692.561 431.447L692.942 432.642C693.046 432.966 692.997 433.32 692.811 433.605L692.59 433.943C692.212 434.52 692.118 435.238 692.335 435.892L692.853 437.454M680.691 425.141L692.518 432.881" stroke="white" stroke-linecap="round"/>
<ellipse cx="373.315" cy="281.582" rx="5.13115" ry="5.1094" transform="rotate(28.6795 373.315 281.582)" stroke="white" stroke-linecap="round" stroke-linejoin="round"/>
<path opacity="0.5" d="M751.29 457.989L750.295 457.89V457.89L751.29 457.989ZM766.154 456.661L766.23 455.664L766.154 456.661ZM780.526 460.232L781.521 460.332V460.332L780.526 460.232ZM750.517 465.703L751.512 465.803L750.517 465.703ZM765.381 464.374L765.457 463.377L765.381 464.374ZM779.753 467.946L780.748 468.046L779.753 467.946ZM751.635 466.776L751.203 467.678V467.678L751.635 466.776ZM778.844 468.697L779.2 469.632V469.632L778.844 468.697ZM772.595 479.826L771.6 479.726V479.726L772.595 479.826ZM755.697 478.529L756.692 478.629L756.697 478.58L756.697 478.53L755.697 478.529ZM773.022 475.566L774.017 475.666V475.666L773.022 475.566ZM755.701 474.207L756.701 474.208V474.198L756.701 474.187L755.701 474.207ZM754.118 468.993L753.174 469.324V469.324L754.118 468.993ZM775.999 470.445L775.222 469.815V469.815L775.999 470.445ZM371.16 266.129C371.457 265.663 371.321 265.045 370.855 264.748C370.39 264.45 369.772 264.587 369.474 265.052L370.317 265.591L371.16 266.129ZM363.243 276.663L362.4 276.124V276.124L363.243 276.663ZM366.436 292.118L366.997 291.289V291.289L366.436 292.118ZM376.536 298.95L377.456 299.344C377.645 298.903 377.494 298.39 377.097 298.122L376.536 298.95ZM374.84 302.908L373.921 302.514C373.74 302.937 373.871 303.429 374.238 303.706L374.84 302.908ZM399.042 321.152L398.44 321.951V321.951L399.042 321.152ZM397.817 323.047L397.336 323.923V323.923L397.817 323.047ZM371.448 308.562L371.929 307.686C371.461 307.428 370.874 307.585 370.595 308.04C370.316 308.496 370.444 309.09 370.886 309.39L371.448 308.562ZM438.604 345.933L439.449 346.468V346.468L438.604 345.933ZM431.498 357.153L430.653 356.618V356.618L431.498 357.153ZM432.545 361.832L433.081 360.988V360.988L432.545 361.832ZM692.463 526.982L692.999 526.138V526.138L692.463 526.982ZM697.69 528.156L697.814 529.148H697.814L697.69 528.156ZM701.47 527.683L701.346 526.691H701.346L701.47 527.683ZM705.353 525.383L706.163 525.968V525.968L705.353 525.383ZM443.3 344.892L443.839 344.05L443.3 344.892ZM440.375 337.438L439.875 336.572L440.375 337.438ZM752.538 478.752L753.313 478.12L753.222 478.009L753.103 477.927L752.538 478.752ZM390.812 230.663L390.246 231.488V231.488L390.812 230.663ZM386.765 229.141L386.883 228.148V228.148L386.765 229.141ZM369.389 227.072L369.271 228.065V228.065L369.389 227.072ZM362.922 230.076L362.087 229.525V229.525L362.922 230.076ZM358.763 236.386L359.598 236.936V236.936L358.763 236.386ZM536.549 378.674L535.962 379.483V379.483L536.549 378.674ZM652.459 469.14L653.094 468.368V468.368L652.459 469.14ZM696.775 507.882L696.107 508.626V508.626L696.775 507.882ZM751.857 506.768L752.554 507.485V507.485L751.857 506.768ZM757.547 501.239L756.85 500.522V500.522L757.547 501.239ZM758.432 485.986L757.657 486.618V486.618L758.432 485.986ZM363.863 261.433L363.31 262.266V262.266L363.863 261.433ZM788.238 556.879L787.238 556.898V556.898L788.238 556.879ZM748.12 557.613L749.12 557.594V557.594L748.12 557.613ZM788.229 556.417L789.229 556.398L789.229 556.398L788.229 556.417ZM748.113 557.228L747.113 557.246V557.246L748.113 557.228ZM776.859 582.716L777.359 581.85L776.859 582.716ZM782.759 601.609L781.893 601.109V601.109L782.759 601.609ZM765.542 581.078L765.292 580.109L765.229 580.126L765.169 580.15L765.542 581.078ZM775.72 607.3L775.929 608.278L775.985 608.266L776.039 608.248L775.72 607.3ZM752.981 506.742C752.546 506.401 751.918 506.477 751.577 506.911C751.236 507.346 751.312 507.975 751.747 508.315L752.364 507.529L752.981 506.742ZM753.727 508.598L754.344 507.811L754.344 507.811L753.727 508.598ZM756.724 522.821L755.842 522.35V522.35L756.724 522.821ZM752.09 531.501L752.972 531.972V531.972L752.09 531.501ZM742.923 534.299L742.454 535.182V535.182L742.923 534.299ZM734.882 530.03L735.351 529.147L734.771 528.839L734.257 529.249L734.882 530.03ZM733.26 531.328L733.885 532.108H733.885L733.26 531.328ZM729.399 531.59L728.885 532.448V532.448L729.399 531.59ZM710.305 520.164L710.818 519.306L710.209 518.942L709.665 519.396L710.305 520.164ZM708.228 521.895L707.587 521.127L706.594 521.955L707.645 522.708L708.228 521.895ZM719.639 530.068L720.221 529.255V529.255L719.639 530.068ZM718.618 531.655L718.12 532.522V532.522L718.618 531.655ZM706.648 523.624C706.17 523.349 705.558 523.514 705.283 523.993C705.008 524.472 705.173 525.083 705.652 525.358L706.15 524.491L706.648 523.624ZM719.443 531.712L719.817 532.639V532.639L719.443 531.712ZM752.488 548.779L752.428 549.777V549.777L752.488 548.779ZM774.058 550.076L773.998 551.074L774.087 551.08L774.176 551.069L774.058 550.076ZM781.961 549.137L782.079 550.13V550.13L781.961 549.137ZM785.949 544.536L784.949 544.56V544.56L785.949 544.536ZM784.557 487.101L785.556 487.077V487.077L784.557 487.101ZM754.75 480.584C754.198 480.584 753.75 481.032 753.75 481.584C753.75 482.136 754.198 482.584 754.75 482.584V481.584V480.584ZM765.749 497.098L766.747 497.031V497.031L765.749 497.098ZM757.689 530.187L756.834 529.669L756.833 529.669L757.689 530.187ZM756.657 531.889L757.513 532.407V532.407L756.657 531.889ZM758.042 536.681L757.594 537.576V537.576L758.042 536.681ZM762.472 538.896L762.919 538.002V538.002L762.472 538.896ZM770.057 545.047L769.275 545.669V545.669L770.057 545.047ZM742.235 537.822L741.838 538.74V538.74L742.235 537.822ZM737.994 535.988L738.391 535.07V535.07L737.994 535.988ZM734.49 533.022L735.33 532.479V532.479L734.49 533.022ZM734.396 531.035C734.096 530.572 733.477 530.439 733.014 530.739C732.55 531.039 732.417 531.658 732.717 532.122L733.557 531.579L734.396 531.035ZM746.992 541.817L746.319 542.557V542.557L746.992 541.817ZM743.483 538.627L744.155 537.887V537.887L743.483 538.627ZM749.856 546.598L748.887 546.842V546.842L749.856 546.598ZM788.594 556.779C788.594 556.227 788.146 555.779 787.594 555.779C787.041 555.779 786.594 556.227 786.594 556.779H787.594H788.594ZM791.551 562.999L791.41 563.989V563.989L791.551 562.999ZM902.373 579.396L902.182 580.378V580.378L902.373 579.396ZM1033.31 610.898C1033.84 611.033 1034.38 610.708 1034.52 610.172C1034.65 609.637 1034.33 609.093 1033.79 608.959L1033.55 609.928L1033.31 610.898ZM789.194 612.34L788.194 612.359V612.359L789.194 612.34ZM769.221 617.381L769.202 616.381L769.221 617.381ZM749.076 613.074L748.077 613.092V613.092L749.076 613.074ZM787.147 608.817L787.41 609.781L787.43 609.776L787.45 609.77L787.147 608.817ZM785.12 606.257L784.343 605.627V605.627L785.12 606.257ZM884.845 625.76L885.125 624.8V624.8L884.845 625.76ZM342.521 227.928L342.061 228.815L342.231 228.904L342.422 228.923L342.521 227.928ZM355.581 229.231L355.68 228.236V228.236L355.581 229.231ZM351.159 250.403L352.155 250.312V250.312L351.159 250.403ZM356.651 231.734L357.439 232.35V232.35L356.651 231.734ZM296.462 348.862L295.962 347.996L296.462 348.862ZM311.784 364.672L312.65 364.172L311.784 364.672ZM317.814 385.846L317.314 384.98L317.814 385.846ZM344.873 300.646H343.873V300.842L343.947 301.024L344.873 300.646ZM371.72 334.444L372.586 333.944V333.944L371.72 334.444ZM356.121 320.019L355.33 320.631L355.706 321.118L356.311 321.001L356.121 320.019ZM346.118 303.702L345.192 304.08V304.08L346.118 303.702ZM353.75 316.953L352.959 317.565V317.565L353.75 316.953ZM345.57 350.152L346.07 351.018L345.57 350.152ZM326.678 317.43L327.178 318.296L326.678 317.43ZM349.397 347.116L350.127 347.799L350.139 347.787L350.15 347.774L349.397 347.116ZM330.18 315.912L330.469 316.869L330.479 316.867L330.18 315.912ZM352.041 288.417L352.541 289.283V289.283L352.041 288.417ZM326.324 281.308L327.19 280.808L326.324 281.308ZM360.781 276.728L361.752 276.967V276.967L360.781 276.728ZM324.091 275.359L325.072 275.167V275.167L324.091 275.359ZM751.29 457.989L752.285 458.089C752.259 458.346 752.096 458.416 752.202 458.343C752.294 458.28 752.488 458.184 752.828 458.08C753.499 457.873 754.516 457.699 755.834 457.581C758.454 457.347 762.078 457.351 766.077 457.658L766.154 456.661L766.23 455.664C762.156 455.351 758.416 455.343 755.656 455.589C754.284 455.712 753.107 455.901 752.24 456.168C751.812 456.3 751.401 456.467 751.071 456.694C750.755 456.91 750.354 457.294 750.295 457.89L751.29 457.989ZM766.154 456.661L766.077 457.658C770.076 457.965 773.645 458.513 776.177 459.142C777.451 459.458 778.415 459.784 779.031 460.088C779.344 460.242 779.51 460.363 779.58 460.431C779.66 460.509 779.505 460.399 779.531 460.133L780.526 460.232L781.521 460.332C781.582 459.727 781.255 459.272 780.977 459C780.69 458.72 780.312 458.489 779.915 458.293C779.11 457.897 777.986 457.531 776.659 457.201C773.99 456.537 770.304 455.976 766.23 455.664L766.154 456.661ZM751.29 457.989L750.295 457.89L749.52 465.617L750.515 465.717L751.51 465.817L752.285 458.089L751.29 457.989ZM780.526 460.232L779.531 460.133L778.757 467.86L779.752 467.96L780.747 468.06L781.521 460.332L780.526 460.232ZM750.517 465.703L751.512 465.803C751.486 466.06 751.323 466.129 751.429 466.057C751.521 465.994 751.714 465.898 752.055 465.793C752.726 465.587 753.743 465.413 755.061 465.295C757.681 465.061 761.305 465.065 765.304 465.371L765.381 464.374L765.457 463.377C761.383 463.065 757.643 463.056 754.883 463.303C753.511 463.426 752.334 463.615 751.467 463.882C751.039 464.013 750.628 464.181 750.298 464.407C749.982 464.624 749.581 465.008 749.522 465.603L750.517 465.703ZM765.381 464.374L765.304 465.371C769.303 465.678 772.872 466.226 775.404 466.855C776.678 467.172 777.642 467.498 778.258 467.801C778.571 467.955 778.737 468.076 778.807 468.145C778.887 468.222 778.731 468.113 778.758 467.846L779.753 467.946L780.748 468.046C780.809 467.441 780.482 466.985 780.204 466.714C779.917 466.434 779.539 466.203 779.142 466.007C778.337 465.611 777.213 465.244 775.886 464.914C773.216 464.251 769.531 463.69 765.457 463.377L765.381 464.374ZM751.635 466.776L752.067 465.874C751.732 465.714 751.549 465.586 751.468 465.509C751.375 465.421 751.539 465.528 751.512 465.803L750.517 465.703L749.522 465.603C749.459 466.226 749.807 466.69 750.093 466.961C750.392 467.244 750.786 467.479 751.203 467.678L751.635 466.776ZM779.753 467.946L778.758 467.846C778.78 467.629 778.904 467.543 778.866 467.574C778.851 467.586 778.816 467.612 778.749 467.647C778.684 467.682 778.598 467.721 778.488 467.763L778.844 468.697L779.2 469.632C779.531 469.506 779.861 469.343 780.131 469.123C780.4 468.903 780.698 468.549 780.748 468.046L779.753 467.946ZM772.595 479.826L771.6 479.726C771.622 479.506 771.721 479.348 771.8 479.26C771.873 479.178 771.937 479.142 771.947 479.137C771.963 479.128 771.917 479.154 771.758 479.19C771.453 479.259 770.952 479.319 770.238 479.352C768.825 479.416 766.747 479.367 764.124 479.166L764.047 480.163L763.971 481.16C766.636 481.365 768.804 481.419 770.329 481.35C771.084 481.315 771.724 481.249 772.201 481.14C772.433 481.088 772.688 481.012 772.91 480.889C773.09 480.791 773.532 480.505 773.59 479.925L772.595 479.826ZM764.047 480.163L764.124 479.166C761.501 478.965 759.444 478.696 758.067 478.418C757.37 478.277 756.89 478.142 756.607 478.029C756.458 477.969 756.424 477.939 756.444 477.956C756.457 477.965 756.519 478.016 756.58 478.116C756.647 478.227 756.714 478.407 756.692 478.629L755.697 478.529L754.702 478.43C754.643 479.023 755.036 479.391 755.202 479.523C755.404 479.683 755.645 479.798 755.863 479.886C756.314 480.066 756.934 480.229 757.67 480.378C759.159 480.679 761.305 480.956 763.971 481.16L764.047 480.163ZM772.595 479.826L773.59 479.925L774.017 475.666L773.022 475.566L772.027 475.467L771.6 479.726L772.595 479.826ZM755.697 478.529L756.697 478.53L756.701 474.208L755.701 474.207L754.701 474.206L754.697 478.528L755.697 478.529ZM755.701 474.207L756.701 474.187C756.679 473.058 756.345 471.937 755.995 470.995C755.819 470.518 755.63 470.067 755.465 469.672C755.295 469.266 755.158 468.936 755.061 468.661L754.118 468.993L753.174 469.324C753.294 469.666 753.458 470.056 753.62 470.443C753.786 470.842 753.96 471.257 754.12 471.69C754.444 472.565 754.686 473.435 754.701 474.227L755.701 474.207ZM773.022 475.566L774.017 475.666C774.091 474.928 774.476 474.122 775.039 473.289C775.601 472.457 776.243 471.732 776.776 471.074L775.999 470.445L775.222 469.815C774.758 470.388 774.009 471.241 773.381 472.169C772.754 473.098 772.15 474.236 772.027 475.467L773.022 475.566ZM778.844 468.697L778.488 467.763C777.407 468.174 776.091 468.742 775.222 469.815L775.999 470.445L776.776 471.074C777.273 470.46 778.113 470.045 779.2 469.632L778.844 468.697ZM751.635 466.776L751.203 467.678C752.277 468.193 752.961 468.717 753.174 469.324L754.118 468.993L755.061 468.661C754.553 467.214 753.148 466.392 752.067 465.874L751.635 466.776ZM370.317 265.591L369.474 265.052L362.4 276.124L363.243 276.663L364.086 277.201L371.16 266.129L370.317 265.591ZM366.436 292.118L365.876 292.946L375.976 299.778L376.536 298.95L377.097 298.122L366.997 291.289L366.436 292.118ZM376.536 298.95L375.617 298.556L373.921 302.514L374.84 302.908L375.759 303.302L377.456 299.344L376.536 298.95ZM374.84 302.908L374.238 303.706L398.44 321.951L399.042 321.152L399.644 320.354L375.442 302.109L374.84 302.908ZM397.817 323.047L398.298 322.17L371.929 307.686L371.448 308.562L370.966 309.439L397.336 323.923L397.817 323.047ZM371.448 308.562L370.886 309.39L434.213 352.361L434.774 351.534L435.336 350.706L372.009 307.735L371.448 308.562ZM399.042 321.152L398.44 321.951C398.482 321.982 398.496 322.004 398.499 322.01C398.503 322.016 398.504 322.02 398.504 322.024C398.506 322.036 398.504 322.076 398.471 322.127C398.439 322.177 398.403 322.195 398.391 322.199C398.387 322.2 398.384 322.2 398.377 322.2C398.37 322.199 398.344 322.195 398.298 322.17L397.817 323.047L397.336 323.923C399.653 325.196 401.755 321.945 399.644 320.354L399.042 321.152ZM363.243 276.663L362.4 276.124C358.808 281.747 360.35 289.207 365.876 292.946L366.436 292.118L366.997 291.289C362.368 288.158 361.077 281.91 364.086 277.201L363.243 276.663ZM438.604 345.933L437.759 345.398L430.653 356.618L431.498 357.153L432.343 357.688L439.449 346.468L438.604 345.933ZM432.545 361.832L432.008 362.676L691.927 527.826L692.463 526.982L692.999 526.138L433.081 360.988L432.545 361.832ZM697.69 528.156L697.814 529.148L701.594 528.675L701.47 527.683L701.346 526.691L697.566 527.163L697.69 528.156ZM705.353 525.383L706.163 525.968L712.073 517.786L711.262 517.2L710.452 516.615L704.542 524.797L705.353 525.383ZM693.735 505.327L694.274 504.485L443.839 344.05L443.3 344.892L442.76 345.734L693.195 506.169L693.735 505.327ZM701.47 527.683L701.594 528.675C703.427 528.446 705.082 527.466 706.163 525.968L705.353 525.383L704.542 524.797C703.786 525.845 702.628 526.53 701.346 526.691L701.47 527.683ZM692.463 526.982L691.927 527.826C693.676 528.938 695.757 529.405 697.814 529.148L697.69 528.156L697.566 527.163C695.971 527.363 694.356 527 692.999 526.138L692.463 526.982ZM431.498 357.153L430.653 356.618C429.357 358.665 429.963 361.376 432.008 362.676L432.545 361.832L433.081 360.988C431.967 360.28 431.637 358.803 432.343 357.688L431.498 357.153ZM438.604 345.933L439.449 346.468C440.158 345.348 441.644 345.019 442.76 345.734L443.3 344.892L443.839 344.05C441.789 342.736 439.062 343.341 437.759 345.398L438.604 345.933ZM442.429 331.09L441.929 330.224C434.637 334.434 425.071 331.676 420.596 323.926L419.73 324.426L418.864 324.926C423.845 333.554 434.604 336.762 442.929 331.956L442.429 331.09ZM419.73 324.426L420.596 323.926C416.122 316.176 418.517 306.512 425.808 302.303L425.308 301.437L424.808 300.57C416.483 305.377 413.883 316.298 418.864 324.926L419.73 324.426ZM425.308 301.437L425.808 302.303C433.1 298.093 442.667 300.851 447.141 308.601L448.007 308.101L448.873 307.601C443.892 298.973 433.133 295.764 424.808 300.57L425.308 301.437ZM448.007 308.101L447.141 308.601C451.615 316.35 449.221 326.014 441.929 330.224L442.429 331.09L442.929 331.956C451.254 327.15 453.854 316.228 448.873 307.601L448.007 308.101ZM440.375 337.438L439.875 336.572C432.033 341.1 421.658 338.028 416.75 329.526L415.884 330.026L415.018 330.526C420.417 339.879 431.973 343.443 440.875 338.304L440.375 337.438ZM415.884 330.026L416.75 329.526C414.285 325.256 413.558 320.861 414.613 316.612C415.672 312.35 418.554 308.121 423.514 304.262L422.9 303.472L422.286 302.683C417.07 306.741 413.866 311.326 412.672 316.13C411.476 320.946 412.329 325.869 415.018 330.526L415.884 330.026ZM449.475 322.696L448.486 322.544C447.395 329.617 444.067 334.152 439.875 336.572L440.375 337.438L440.875 338.304C445.663 335.539 449.293 330.435 450.463 322.849L449.475 322.696ZM752.538 478.752L753.103 477.927L391.378 229.839L390.812 230.663L390.246 231.488L751.972 479.577L752.538 478.752ZM386.765 229.141L386.883 228.148L369.508 226.079L369.389 227.072L369.271 228.065L386.646 230.134L386.765 229.141ZM362.922 230.076L362.087 229.525L357.928 235.836L358.763 236.386L359.598 236.936L363.757 230.626L362.922 230.076ZM536.549 378.674L535.962 379.483C581.169 412.259 626.383 448.994 651.824 469.912L652.459 469.14L653.094 468.368C627.648 447.445 582.395 410.677 537.136 377.864L536.549 378.674ZM652.459 469.14L651.824 469.912C663.444 479.467 680.737 494.839 696.107 508.626L696.775 507.882L697.442 507.137C682.079 493.356 664.753 477.954 653.094 468.368L652.459 469.14ZM751.857 506.768L752.554 507.485L758.244 501.956L757.547 501.239L756.85 500.522L751.161 506.051L751.857 506.768ZM758.432 485.986L759.208 485.355L753.313 478.12L752.538 478.752L751.763 479.384L757.657 486.618L758.432 485.986ZM450.04 319.127L449.481 319.956C484.825 343.804 518.4 366.75 535.962 379.483L536.549 378.674L537.136 377.864C519.542 365.108 485.938 342.143 450.6 318.298L450.04 319.127ZM363.863 261.433L363.31 262.266C380.61 273.766 402.003 288.041 424.039 302.834L424.597 302.004L425.154 301.174C403.115 286.379 381.719 272.102 364.417 260.6L363.863 261.433ZM358.763 236.386L357.928 235.836C352.135 244.624 354.544 256.439 363.31 262.266L363.863 261.433L364.417 260.6C356.568 255.383 354.412 244.805 359.598 236.936L358.763 236.386ZM757.547 501.239L758.244 501.956C762.82 497.509 763.238 490.302 759.208 485.355L758.432 485.986L757.657 486.618C761.033 490.761 760.682 496.797 756.85 500.522L757.547 501.239ZM369.389 227.072L369.508 226.079C366.581 225.731 363.709 227.065 362.087 229.525L362.922 230.076L363.757 230.626C364.962 228.798 367.097 227.806 369.271 228.065L369.389 227.072ZM696.775 507.882L696.107 508.626C712.33 523.178 736.927 522.673 752.554 507.485L751.857 506.768L751.161 506.051C736.286 520.507 712.882 520.986 697.442 507.137L696.775 507.882ZM390.812 230.663L391.378 229.839C390.038 228.92 388.496 228.34 386.883 228.148L386.765 229.141L386.646 230.134C387.938 230.287 389.173 230.752 390.246 231.488L390.812 230.663ZM788.238 556.879L787.238 556.898C787.234 556.698 787.356 556.668 787.194 556.806C787.043 556.934 786.76 557.106 786.299 557.299C785.387 557.681 784.005 558.056 782.223 558.389C778.673 559.053 773.724 559.519 768.222 559.619L768.241 560.619L768.259 561.619C773.836 561.517 778.902 561.045 782.59 560.355C784.426 560.012 785.969 559.606 787.072 559.144C787.619 558.914 788.116 558.648 788.492 558.328C788.856 558.017 789.25 557.527 789.238 556.861L788.238 556.879ZM768.241 560.619L768.222 559.619C762.721 559.72 757.758 559.435 754.187 558.901C752.393 558.633 750.998 558.309 750.073 557.961C749.605 557.785 749.316 557.624 749.161 557.501C748.994 557.369 749.116 557.394 749.12 557.594L748.12 557.613L747.12 557.631C747.132 558.297 747.544 558.772 747.919 559.069C748.306 559.376 748.813 559.624 749.368 559.833C750.487 560.254 752.043 560.603 753.891 560.879C757.602 561.434 762.682 561.721 768.259 561.619L768.241 560.619ZM788.238 556.879L789.238 556.861L789.229 556.398L788.229 556.417L787.23 556.435L787.238 556.898L788.238 556.879ZM748.113 557.228L747.113 557.246L747.12 557.631L748.12 557.613L749.12 557.594L749.113 557.209L748.113 557.228ZM748.113 557.228L749.113 557.209C749.097 556.32 749.804 555.586 750.694 555.569L750.676 554.569L750.657 553.57C748.664 553.606 747.077 555.252 747.113 557.246L748.113 557.228ZM788.229 556.417L789.229 556.398C789.194 554.447 787.583 552.895 785.632 552.93L785.65 553.93L785.669 554.93C786.515 554.915 787.214 555.588 787.23 556.435L788.229 556.417ZM756.492 607.574L756.992 606.708C750.78 603.122 748.538 595.662 751.746 590.105L750.88 589.605L750.014 589.105C746.178 595.75 748.96 604.38 755.992 608.44L756.492 607.574ZM750.88 589.605L751.746 590.105C754.955 584.548 762.536 582.76 768.748 586.346L769.248 585.48L769.748 584.614C762.716 580.554 753.851 582.46 750.014 589.105L750.88 589.605ZM769.248 585.48L768.748 586.346C774.96 589.933 777.203 597.392 773.994 602.95L774.86 603.45L775.726 603.95C779.562 597.305 776.78 588.674 769.748 584.614L769.248 585.48ZM774.86 603.45L773.994 602.95C770.785 608.507 763.204 610.295 756.992 606.708L756.492 607.574L755.992 608.44C763.024 612.5 771.89 610.595 775.726 603.95L774.86 603.45ZM776.859 582.716L776.359 583.582C782.911 587.365 785.283 595.238 781.893 601.109L782.759 601.609L783.625 602.109C787.643 595.151 784.731 586.107 777.359 581.85L776.859 582.716ZM765.542 581.078L765.792 582.046C769.142 581.18 772.957 581.618 776.359 583.582L776.859 582.716L777.359 581.85C773.506 579.626 769.152 579.112 765.292 580.109L765.542 581.078ZM757.061 584.484L757.434 585.412L765.915 582.006L765.542 581.078L765.169 580.15L756.688 583.556L757.061 584.484ZM782.759 601.609L781.893 601.109C780.423 603.656 778.101 605.444 775.401 606.353L775.72 607.3L776.039 608.248C779.165 607.196 781.894 605.109 783.625 602.109L782.759 601.609ZM766.107 609.362L766.317 610.34L775.929 608.278L775.72 607.3L775.51 606.323L765.898 608.384L766.107 609.362ZM752.364 507.529L751.747 508.315L753.11 509.385L753.727 508.598L754.344 507.811L752.981 506.742L752.364 507.529ZM756.724 522.821L755.842 522.35L751.208 531.03L752.09 531.501L752.972 531.972L757.606 523.292L756.724 522.821ZM742.923 534.299L743.392 533.415L735.351 529.147L734.882 530.03L734.413 530.913L742.454 535.182L742.923 534.299ZM734.882 530.03L734.257 529.249L732.635 530.547L733.26 531.328L733.885 532.108L735.507 530.811L734.882 530.03ZM729.399 531.59L729.912 530.732L710.818 519.306L710.305 520.164L709.791 521.022L728.885 532.448L729.399 531.59ZM710.305 520.164L709.665 519.396L707.587 521.127L708.228 521.895L708.868 522.663L710.945 520.932L710.305 520.164ZM708.228 521.895L707.645 522.708L719.057 530.881L719.639 530.068L720.221 529.255L708.81 521.082L708.228 521.895ZM718.618 531.655L719.117 530.788L706.648 523.624L706.15 524.491L705.652 525.358L718.12 532.522L718.618 531.655ZM719.443 531.712L719.068 530.784C719.084 530.778 719.102 530.779 719.117 530.788L718.618 531.655L718.12 532.522C718.638 532.819 719.263 532.862 719.817 532.639L719.443 531.712ZM733.26 531.328L732.635 530.547C731.855 531.171 730.77 531.244 729.912 530.732L729.399 531.59L728.885 532.448C730.459 533.389 732.453 533.254 733.885 532.108L733.26 531.328ZM719.639 530.068L719.057 530.881C719.057 530.881 719.054 530.879 719.049 530.873C719.045 530.868 719.041 530.861 719.038 530.855C719.033 530.843 719.033 530.834 719.034 530.829C719.034 530.825 719.036 530.816 719.044 530.806C719.048 530.8 719.054 530.795 719.059 530.79C719.065 530.786 719.069 530.784 719.068 530.784L719.443 531.712L719.817 532.639C721.239 532.065 721.468 530.148 720.221 529.255L719.639 530.068ZM752.09 531.501L751.208 531.03C749.706 533.844 746.209 534.911 743.392 533.415L742.923 534.299L742.454 535.182C746.246 537.194 750.951 535.759 752.972 531.972L752.09 531.501ZM753.727 508.598L753.11 509.385C757.045 512.472 758.197 517.938 755.842 522.35L756.724 522.821L757.606 523.292C760.418 518.024 759.043 511.497 754.344 507.811L753.727 508.598ZM752.488 548.779L752.428 549.777L773.998 551.074L774.058 550.076L774.118 549.078L752.548 547.781L752.488 548.779ZM774.058 550.076L774.176 551.069L782.079 550.13L781.961 549.137L781.843 548.144L773.94 549.083L774.058 550.076ZM785.949 544.536L786.949 544.512L785.556 487.077L784.557 487.101L783.557 487.125L784.949 544.56L785.949 544.536ZM778.904 481.584V480.584H764.709V481.584V482.584H778.904V481.584ZM764.709 481.584V480.584H754.75V481.584V482.584H764.709V481.584ZM764.709 481.584L763.711 481.651L764.752 497.164L765.749 497.098L766.747 497.031L765.707 481.517L764.709 481.584ZM757.689 530.187L756.833 529.669L755.802 531.371L756.657 531.889L757.513 532.407L758.544 530.705L757.689 530.187ZM758.042 536.681L757.594 537.576L762.024 539.791L762.472 538.896L762.919 538.002L758.489 535.787L758.042 536.681ZM770.057 545.047L769.275 545.669L773.275 550.699L774.058 550.076L774.84 549.454L770.84 544.424L770.057 545.047ZM742.235 537.822L742.632 536.905L738.391 535.07L737.994 535.988L737.597 536.906L741.838 538.74L742.235 537.822ZM734.49 533.022L735.33 532.479L734.396 531.035L733.557 531.579L732.717 532.122L733.651 533.565L734.49 533.022ZM746.992 541.817L747.664 541.077L744.155 537.887L743.483 538.627L742.81 539.367L746.319 542.557L746.992 541.817ZM749.856 546.598L750.826 546.353C750.314 544.322 749.215 542.487 747.664 541.077L746.992 541.817L746.319 542.557C747.578 543.702 748.471 545.192 748.887 546.842L749.856 546.598ZM737.994 535.988L738.391 535.07C737.137 534.528 736.072 533.626 735.33 532.479L734.49 533.022L733.651 533.565C734.607 535.044 735.981 536.207 737.597 536.906L737.994 535.988ZM742.235 537.822L741.838 538.74C742.195 538.894 742.523 539.106 742.81 539.367L743.483 538.627L744.155 537.887C743.705 537.478 743.191 537.146 742.632 536.905L742.235 537.822ZM762.472 538.896L762.024 539.791C764.84 541.199 767.315 543.205 769.275 545.669L770.057 545.047L770.84 544.424C768.699 541.732 765.995 539.54 762.919 538.002L762.472 538.896ZM765.749 497.098L764.752 497.164C765.516 508.556 762.751 519.905 756.834 529.669L757.689 530.187L758.544 530.705C764.674 520.59 767.539 508.832 766.747 497.031L765.749 497.098ZM784.557 487.101L785.556 487.077C785.469 483.466 782.516 480.584 778.904 480.584V481.584V482.584C781.431 482.584 783.496 484.599 783.557 487.125L784.557 487.101ZM756.657 531.889L755.802 531.371C754.472 533.565 755.299 536.428 757.594 537.576L758.042 536.681L758.489 535.787C757.238 535.162 756.788 533.603 757.513 532.407L756.657 531.889ZM781.961 549.137L782.079 550.13C784.908 549.794 787.018 547.36 786.949 544.512L785.949 544.536L784.949 544.56C784.993 546.377 783.648 547.93 781.843 548.144L781.961 549.137ZM752.488 548.779L752.548 547.781C751.724 547.731 751.028 547.154 750.826 546.353L749.856 546.598L748.887 546.842C749.301 548.487 750.734 549.675 752.428 549.777L752.488 548.779ZM787.594 556.779H786.594C786.594 557.829 786.809 559.424 787.48 560.852C788.158 562.294 789.376 563.698 791.41 563.989L791.551 562.999L791.693 562.009C790.56 561.847 789.799 561.084 789.29 560.001C788.774 558.903 788.594 557.615 788.594 556.779H787.594ZM791.551 562.999L791.41 563.989C795.419 564.562 858.677 571.903 902.182 580.378L902.373 579.396L902.564 578.414C858.995 569.927 795.6 562.567 791.693 562.009L791.551 562.999ZM902.373 579.396L902.182 580.378C936.981 587.157 1004.09 603.547 1033.31 610.898L1033.55 609.928L1033.79 608.959C1004.58 601.609 937.424 585.205 902.564 578.414L902.373 579.396ZM789.194 612.34L788.194 612.359C788.195 612.371 788.195 612.461 788.041 612.644C787.881 612.833 787.598 613.065 787.153 613.322C786.262 613.833 784.903 614.337 783.135 614.783C779.614 615.671 774.688 616.281 769.202 616.381L769.221 617.381L769.239 618.381C774.831 618.278 779.916 617.658 783.624 616.722C785.47 616.256 787.03 615.699 788.15 615.055C788.709 614.734 789.204 614.365 789.567 613.936C789.936 613.5 790.206 612.955 790.194 612.322L789.194 612.34ZM769.221 617.381L769.202 616.381C763.716 616.481 758.772 616.052 755.221 615.293C753.438 614.912 752.061 614.459 751.152 613.979C750.698 613.74 750.407 613.518 750.24 613.335C750.079 613.158 750.076 613.068 750.076 613.055L749.076 613.074L748.077 613.092C748.088 613.725 748.378 614.26 748.762 614.682C749.141 615.097 749.649 615.448 750.219 615.749C751.361 616.351 752.941 616.851 754.803 617.249C758.543 618.049 763.647 618.483 769.239 618.381L769.221 617.381ZM789.194 612.34L790.194 612.322L790.118 608.172L789.118 608.19L788.119 608.208L788.194 612.359L789.194 612.34ZM788.285 559.607H789.285V556.179H788.285H787.285V559.607H788.285ZM789.118 608.19L788.815 607.237L786.844 607.864L787.147 608.817L787.45 609.77L789.421 609.143L789.118 608.19ZM785.12 606.257L785.896 606.887C787.143 605.351 788.841 604.143 790.986 604.143V603.143V602.143C788.014 602.143 785.801 603.83 784.343 605.627L785.12 606.257ZM884.845 625.76L884.564 626.72C921.271 637.45 955.726 650.44 994.737 665.705L995.101 664.774L995.465 663.842C956.448 648.575 921.923 635.556 885.125 624.8L884.845 625.76ZM787.147 608.817L786.884 607.852C786.367 607.993 785.99 607.805 785.825 607.605C785.744 607.507 785.711 607.406 785.711 607.314C785.711 607.226 785.74 607.079 785.896 606.887L785.12 606.257L784.343 605.627C783.476 606.695 783.545 607.983 784.281 608.876C784.979 609.725 786.185 610.115 787.41 609.781L787.147 608.817ZM748.076 557.288L747.076 557.306L748.077 613.092L749.076 613.074L750.076 613.056L749.076 557.27L748.076 557.288ZM790.986 603.143V604.143C791.802 604.143 793.865 604.441 797.022 605.029L797.205 604.046L797.388 603.063C794.288 602.486 792.026 602.143 790.986 602.143V603.143ZM797.205 604.046L797.022 605.029C812.913 607.987 853.87 617.748 884.564 626.72L884.845 625.76L885.125 624.8C854.382 615.814 813.36 606.036 797.388 603.063L797.205 604.046ZM789.118 608.19L790.016 608.632C790.717 607.208 793.128 604.483 797.066 605.036L797.205 604.046L797.344 603.056C792.236 602.338 789.142 605.88 788.221 607.748L789.118 608.19ZM375.698 357.584L375.262 356.684L317.655 384.601L318.091 385.501L318.527 386.401L376.134 358.484L375.698 357.584ZM303.032 230.535H304.032C304.032 230.288 304.231 229.805 305.215 229.177C306.152 228.578 307.574 228.001 309.421 227.502C313.1 226.508 318.238 225.881 323.953 225.881V224.881V223.881C318.114 223.881 312.792 224.519 308.899 225.571C306.96 226.095 305.318 226.737 304.138 227.491C303.005 228.215 302.032 229.22 302.032 230.535H303.032ZM323.953 224.881V225.881C331.983 225.881 338.792 227.118 342.061 228.815L342.521 227.928L342.982 227.04C339.277 225.116 332.072 223.881 323.953 223.881V224.881ZM342.521 227.928L342.422 228.923L355.482 230.226L355.581 229.231L355.68 228.236L342.621 226.933L342.521 227.928ZM351.159 250.403L350.163 250.494L350.413 253.23L351.409 253.139L352.404 253.048L352.155 250.312L351.159 250.403ZM353.92 287.076L353.172 286.412C352.064 287.659 350.988 288.735 349.97 289.753C348.961 290.762 347.995 291.728 347.151 292.718C345.437 294.73 344.187 296.894 343.878 299.981L344.873 300.081L345.868 300.18C346.125 297.613 347.137 295.819 348.674 294.015C349.456 293.097 350.362 292.189 351.385 291.167C352.399 290.153 353.514 289.038 354.667 287.741L353.92 287.076ZM356.651 231.734L355.863 231.118C351.567 236.616 349.528 243.545 350.163 250.494L351.159 250.403L352.155 250.312C351.566 243.87 353.456 237.447 357.439 232.35L356.651 231.734ZM355.581 229.231L355.482 230.226C355.916 230.269 356.132 230.775 355.863 231.118L356.651 231.734L357.439 232.35C358.678 230.765 357.682 228.436 355.68 228.236L355.581 229.231ZM305.294 218.096H306.294C306.294 218.262 306.198 218.283 306.337 218.159C306.473 218.039 306.73 217.877 307.155 217.694C307.998 217.332 309.279 216.982 310.938 216.681C314.239 216.08 318.841 215.703 323.953 215.703V214.703V213.703C318.759 213.703 314.032 214.085 310.58 214.713C308.863 215.025 307.411 215.407 306.365 215.856C305.847 216.079 305.371 216.343 305.009 216.664C304.651 216.982 304.294 217.461 304.294 218.096H305.294ZM323.953 214.703V215.703C329.064 215.703 333.666 216.08 336.968 216.681C338.627 216.982 339.908 217.332 340.75 217.694C341.176 217.877 341.433 218.039 341.568 218.159C341.708 218.283 341.612 218.262 341.612 218.096H342.612H343.612C343.612 217.461 343.254 216.982 342.897 216.664C342.535 216.343 342.059 216.079 341.54 215.856C340.495 215.407 339.043 215.025 337.325 214.713C333.874 214.085 329.146 213.703 323.953 213.703V214.703ZM342.612 218.096H341.612V228.273H342.612H343.612V218.096H342.612ZM305.294 218.096H304.294V226.577H305.294H306.294V218.096H305.294ZM296.462 348.862L296.962 349.729C297.11 349.643 297.578 349.559 298.62 350.144C299.596 350.691 300.8 351.679 302.156 353.078C304.857 355.864 307.999 360.115 310.918 365.172L311.784 364.672L312.65 364.172C309.674 359.016 306.437 354.621 303.592 351.686C302.175 350.224 300.815 349.082 299.599 348.399C298.448 347.754 297.096 347.341 295.962 347.996L296.462 348.862ZM311.784 364.672L310.918 365.172C313.838 370.228 315.948 375.075 317.011 378.807C317.545 380.681 317.798 382.218 317.784 383.336C317.769 384.531 317.463 384.894 317.314 384.98L317.814 385.846L318.314 386.712C319.449 386.057 319.767 384.68 319.784 383.361C319.801 381.966 319.492 380.217 318.934 378.259C317.815 374.328 315.627 369.328 312.65 364.172L311.784 364.672ZM296.867 357.978L297.814 357.657C297.02 355.315 296.581 353.347 296.504 351.9C296.465 351.175 296.521 350.636 296.633 350.265C296.742 349.9 296.88 349.776 296.962 349.729L296.462 348.862L295.962 347.996C295.305 348.376 294.923 349.008 294.718 349.688C294.515 350.362 294.461 351.155 294.507 352.007C294.597 353.714 295.099 355.877 295.92 358.299L296.867 357.978ZM317.814 385.846L317.314 384.98C317.229 385.029 317.038 385.09 316.63 384.983C316.219 384.876 315.682 384.619 315.027 384.172C313.72 383.282 312.129 381.764 310.396 379.723L309.633 380.37L308.871 381.017C310.658 383.123 312.383 384.791 313.9 385.825C314.656 386.34 315.408 386.731 316.125 386.918C316.847 387.107 317.625 387.11 318.314 386.712L317.814 385.846ZM303.032 300.646H304.032C304.032 300.399 304.231 299.917 305.215 299.288C306.152 298.689 307.574 298.113 309.421 297.614C313.1 296.619 318.238 295.992 323.953 295.992V294.992V293.992C318.114 293.992 312.792 294.631 308.899 295.683C306.96 296.207 305.318 296.849 304.138 297.603C303.005 298.327 302.032 299.332 302.032 300.646H303.032ZM323.953 294.992V295.992C329.668 295.992 334.806 296.619 338.485 297.614C340.331 298.113 341.754 298.689 342.691 299.288C343.675 299.917 343.873 300.399 343.873 300.646H344.873H345.873C345.873 299.332 344.901 298.327 343.768 297.603C342.587 296.849 340.946 296.207 339.007 295.683C335.114 294.631 329.792 293.992 323.953 293.992V294.992ZM303.032 300.646H304.032V229.969H303.032H302.032V300.646H303.032ZM303.032 300.646H302.032V322.664H303.032H304.032V300.646H303.032ZM303.032 322.664H302.032C302.032 331.794 299.742 340.778 295.37 348.793L296.247 349.272L297.125 349.751C301.658 341.442 304.032 332.128 304.032 322.664H303.032ZM371.72 334.444L370.854 334.944C373.853 340.139 375.734 345.271 376.377 349.345C376.699 351.386 376.701 353.107 376.416 354.417C376.13 355.728 375.586 356.519 374.9 356.915L375.4 357.781L375.9 358.647C377.242 357.873 378.013 356.48 378.37 354.843C378.726 353.206 378.697 351.217 378.352 349.034C377.663 344.661 375.676 339.296 372.586 333.944L371.72 334.444ZM356.121 320.019L356.311 321.001C356.705 320.925 357.46 321.049 358.59 321.627C359.678 322.182 360.968 323.083 362.36 324.308C365.141 326.755 368.24 330.417 370.854 334.944L371.72 334.444L372.586 333.944C369.87 329.241 366.635 325.406 363.682 322.807C362.206 321.509 360.779 320.499 359.5 319.845C358.264 319.214 357.002 318.83 355.931 319.038L356.121 320.019ZM344.873 300.646L343.947 301.024L345.192 304.08L346.118 303.702L347.044 303.325L345.799 300.269L344.873 300.646ZM353.75 316.953L352.959 317.565L355.33 320.631L356.121 320.019L356.912 319.408L354.541 316.342L353.75 316.953ZM346.118 303.702L345.192 304.08C347.159 308.906 349.771 313.442 352.959 317.565L353.75 316.953L354.541 316.342C351.464 312.362 348.942 307.983 347.044 303.325L346.118 303.702ZM352.049 343.479L351.549 342.613C344.851 346.48 335.827 343.703 331.459 336.138L330.593 336.638L329.727 337.138C334.556 345.503 344.745 348.851 352.549 344.345L352.049 343.479ZM330.593 336.638L331.459 336.138C327.092 328.573 329.198 319.37 335.897 315.502L335.397 314.636L334.897 313.77C327.092 318.276 324.898 328.773 329.727 337.138L330.593 336.638ZM335.397 314.636L335.897 315.502C342.595 311.635 351.619 314.412 355.986 321.977L356.852 321.477L357.718 320.977C352.889 312.612 342.701 309.264 334.897 313.77L335.397 314.636ZM356.852 321.477L355.986 321.977C360.354 329.542 358.247 338.746 351.549 342.613L352.049 343.479L352.549 344.345C360.353 339.839 362.548 329.342 357.718 320.977L356.852 321.477ZM345.57 350.152L345.07 349.286C337.158 353.855 326.672 350.733 321.699 342.119L320.833 342.619L319.967 343.119C325.428 352.578 337.093 356.202 346.07 351.018L345.57 350.152ZM320.833 342.619L321.699 342.119C316.726 333.506 319.265 322.864 327.178 318.296L326.678 317.43L326.178 316.564C317.2 321.747 314.506 333.661 319.967 343.119L320.833 342.619ZM349.397 347.116L348.667 346.433C347.636 347.534 346.435 348.499 345.07 349.286L345.57 350.152L346.07 351.018C347.608 350.131 348.964 349.042 350.127 347.799L349.397 347.116ZM357.878 337.398L357.125 336.74L348.643 346.459L349.397 347.116L350.15 347.774L358.631 338.055L357.878 337.398ZM326.678 317.43L327.178 318.296C328.238 317.684 329.341 317.21 330.469 316.869L330.18 315.912L329.891 314.955C328.617 315.34 327.372 315.874 326.178 316.564L326.678 317.43ZM339.219 313.085L338.921 312.131L329.882 314.958L330.18 315.912L330.479 316.867L339.518 314.039L339.219 313.085ZM350.771 281.211L350.271 280.345C343.028 284.527 333.598 281.867 329.234 274.308L328.368 274.808L327.502 275.308C332.387 283.769 343.018 286.842 351.271 282.077L350.771 281.211ZM328.368 274.808L329.234 274.308C324.87 266.749 327.281 257.253 334.524 253.071L334.024 252.205L333.524 251.339C325.271 256.104 322.617 266.847 327.502 275.308L328.368 274.808ZM334.024 252.205L334.524 253.071C341.768 248.889 351.197 251.549 355.562 259.108L356.428 258.608L357.294 258.108C352.409 249.647 341.778 246.574 333.524 251.339L334.024 252.205ZM356.428 258.608L355.562 259.108C359.926 266.667 357.514 276.163 350.271 280.345L350.771 281.211L351.271 282.077C359.525 277.312 362.178 266.569 357.294 258.108L356.428 258.608ZM352.041 288.417L351.541 287.551C343.08 292.436 332.172 289.438 327.19 280.808L326.324 281.308L325.457 281.808C330.977 291.368 343.098 294.735 352.541 289.283L352.041 288.417ZM357.749 261.406L356.904 261.941C359.892 266.656 360.865 272.186 359.81 276.49L360.781 276.728L361.752 276.967C362.956 272.055 361.827 265.973 358.594 260.87L357.749 261.406ZM360.781 276.728L359.81 276.49C358.701 281.012 355.848 285.064 351.541 287.551L352.041 288.417L352.541 289.283C357.344 286.51 360.52 281.991 361.752 276.967L360.781 276.728ZM326.324 281.308L327.19 280.808C326.147 279.003 325.449 277.097 325.072 275.167L324.091 275.359L323.109 275.55C323.528 277.695 324.303 279.809 325.457 281.808L326.324 281.308ZM324.091 275.359L325.072 275.167C324.149 270.434 325.162 265.55 327.813 261.649L326.986 261.087L326.159 260.525C323.207 264.869 322.084 270.296 323.109 275.55L324.091 275.359ZM234.617 388.698L235.058 389.595L301.778 356.791L301.336 355.894L300.895 354.996L234.176 387.801L234.617 388.698ZM314.165 378.257L313.724 377.359L264.708 401.459L265.15 402.357L265.591 403.254L314.607 379.154L314.165 378.257Z" fill="url(#paint1_linear_6162_135821)"/>
<path opacity="0.6" d="M204.65 395.069V389.98C204.65 385.608 194.778 382.064 182.599 382.064C170.42 382.064 160.548 385.608 160.548 389.98V456.982M204.65 442.564V456.982M204.65 393.372V396.166C204.65 399.515 208.164 401.703 211.169 400.225L234.617 388.696M204.65 444.26V441.959C204.65 435.924 208.081 430.415 213.496 427.752L265.15 402.355M191.08 455.568L224.052 457.576C226.407 457.72 228.256 459.649 228.299 462.008L229.449 524.74C229.494 527.162 227.622 529.189 225.204 529.338L191.08 531.431M191.08 455.568V453.036C191.08 449.396 188.209 446.405 184.572 446.256L171.614 445.727C167.119 445.544 163.375 449.138 163.375 453.636V524.644C163.375 529.196 167.203 532.809 171.747 532.547L191.08 531.431M191.08 455.568V531.431M165.071 530.203L148.674 531.431L129.341 532.547C124.797 532.809 120.969 529.195 120.969 524.644V455.898C120.969 451.4 124.713 447.805 129.207 447.989L142.166 448.518C145.803 448.666 148.674 451.658 148.674 455.297V457.83H163.375" stroke="white" stroke-width="2"/>
<path opacity="0.5" d="M214.266 530.204L168.427 540.145C167.822 540.276 167.224 539.897 167.085 539.294L166.854 538.29C166.143 535.212 163.402 533.031 160.242 533.031H138.054C136.92 533.031 135.86 533.598 135.231 534.542L135.116 534.714C134.373 535.829 133.977 537.138 133.977 538.478V539.549C133.977 540.648 134.282 541.725 134.858 542.661C135.721 544.064 137.225 544.945 138.87 545.012L163.167 546.004C163.682 546.025 164.198 545.975 164.7 545.856L228.401 530.769V528.508" stroke="white" stroke-width="2" stroke-linecap="round"/>
<path d="M779.491 563.23C779.306 563.025 778.99 563.008 778.785 563.193C778.58 563.378 778.563 563.694 778.748 563.899L779.119 563.564L779.491 563.23ZM781.026 565.683L781.398 565.348V565.348L781.026 565.683ZM788.943 569.583L788.895 570.081V570.081L788.943 569.583ZM989.454 609.928L989.583 609.445L989.454 609.928ZM1045.29 625.675C1045.56 625.751 1045.83 625.598 1045.91 625.332C1045.99 625.067 1045.83 624.79 1045.57 624.714L1045.43 625.195L1045.29 625.675ZM756.549 459.338C756.576 459.063 756.376 458.818 756.101 458.791C755.826 458.763 755.581 458.964 755.554 459.238L756.051 459.288L756.549 459.338ZM766.004 459.227C766.031 458.953 765.831 458.708 765.556 458.68C765.281 458.652 765.036 458.853 765.009 459.128L765.506 459.178L766.004 459.227ZM775.797 460.815C775.825 460.54 775.624 460.295 775.35 460.267C775.075 460.24 774.83 460.44 774.802 460.715L775.3 460.765L775.797 460.815ZM771.089 459.866C771.117 459.591 770.916 459.346 770.641 459.318C770.367 459.291 770.122 459.491 770.094 459.766L770.592 459.816L771.089 459.866ZM761.333 459.117C761.361 458.843 761.161 458.598 760.886 458.57C760.611 458.542 760.366 458.743 760.338 459.018L760.836 459.068L761.333 459.117ZM753.941 468.449C753.913 468.724 754.113 468.969 754.388 468.996C754.663 469.024 754.908 468.824 754.936 468.549L754.438 468.499L753.941 468.449ZM775.344 470.091C775.317 470.366 775.517 470.611 775.792 470.639C776.067 470.666 776.312 470.466 776.339 470.191L775.842 470.141L775.344 470.091ZM785.98 553.832L786.48 553.823V553.823L785.98 553.832ZM750.28 554.485L749.78 554.494V554.494L750.28 554.485ZM779.685 553.386L780.132 553.61L780.168 553.537L780.18 553.457L779.685 553.386ZM756.503 553.832L756.019 553.957L756.032 554.008L756.056 554.056L756.503 553.832ZM348.804 292.232C348.528 292.251 348.32 292.489 348.339 292.765C348.358 293.04 348.597 293.248 348.873 293.229L348.838 292.73L348.804 292.232ZM365.27 292.098C365.545 292.079 365.753 291.841 365.734 291.565C365.715 291.29 365.476 291.082 365.201 291.101L365.235 291.6L365.27 292.098ZM345.658 301.989C345.462 302.184 345.462 302.501 345.658 302.696C345.853 302.891 346.169 302.891 346.365 302.696L346.011 302.343L345.658 301.989ZM348.838 299.515L348.803 299.017L348.617 299.03L348.485 299.162L348.838 299.515ZM360.147 298.708L360.111 298.209V298.209L360.147 298.708ZM372.621 298.318C372.897 298.298 373.104 298.059 373.084 297.784C373.065 297.508 372.826 297.301 372.55 297.32L372.586 297.819L372.621 298.318ZM372.299 307.841C372.525 307.999 372.837 307.944 372.995 307.718C373.154 307.492 373.099 307.18 372.873 307.022L372.586 307.431L372.299 307.841ZM720.57 529.774C720.332 529.634 720.025 529.713 719.885 529.951C719.745 530.189 719.825 530.496 720.063 530.636L720.316 530.205L720.57 529.774ZM725.331 533.155L725.077 533.586V533.586L725.331 533.155ZM734.717 533.456C734.951 533.31 735.022 533.001 734.876 532.767C734.729 532.533 734.421 532.462 734.187 532.608L734.452 533.032L734.717 533.456ZM298.322 354.678L298.572 355.111L298.322 354.678ZM309.1 366.192L309.533 365.942L309.1 366.192ZM313.683 381.283L313.433 380.85V380.85L313.683 381.283ZM779.119 563.564L778.748 563.899L780.654 566.017L781.026 565.683L781.398 565.348L779.491 563.23L779.119 563.564ZM788.943 569.583L788.895 570.081C797.133 570.865 814.405 572.992 842.931 577.628L843.011 577.134L843.091 576.641C814.553 572.003 797.258 569.873 788.99 569.086L788.943 569.583ZM843.011 577.134L842.931 577.628C888.14 584.974 949.186 599.67 989.325 610.411L989.454 609.928L989.583 609.445C949.433 598.701 888.349 583.995 843.091 576.641L843.011 577.134ZM989.454 609.928L989.325 610.411C1021.44 619.006 1040.02 624.169 1045.29 625.675L1045.43 625.195L1045.57 624.714C1040.29 623.205 1021.7 618.04 989.583 609.445L989.454 609.928ZM781.026 565.683L780.654 566.017C782.779 568.378 785.751 569.782 788.895 570.081L788.943 569.583L788.99 569.086C786.077 568.808 783.343 567.51 781.398 565.348L781.026 565.683ZM749.449 527.114L749.01 526.874C748.08 528.574 745.987 529.199 744.342 528.299L744.103 528.738L743.863 529.176C746.008 530.35 748.702 529.521 749.887 527.354L749.449 527.114ZM744.103 528.738L744.342 528.299C742.698 527.4 742.095 525.3 743.025 523.6L742.586 523.36L742.148 523.12C740.962 525.287 741.717 528.003 743.863 529.176L744.103 528.738ZM742.586 523.36L743.025 523.6C743.955 521.901 746.048 521.275 747.693 522.175L747.932 521.736L748.172 521.298C746.027 520.124 743.333 520.953 742.148 523.12L742.586 523.36ZM747.932 521.736L747.693 522.175C749.337 523.075 749.94 525.175 749.01 526.874L749.449 527.114L749.887 527.354C751.073 525.187 750.318 522.471 748.172 521.298L747.932 521.736ZM756.051 459.288L755.554 459.238L755.317 461.602L755.814 461.652L756.312 461.702L756.549 459.338L756.051 459.288ZM765.506 459.178L765.009 459.128L764.772 461.492L765.269 461.541L765.767 461.591L766.004 459.227L765.506 459.178ZM775.3 460.765L774.802 460.715L774.565 463.079L775.063 463.129L775.56 463.179L775.797 460.815L775.3 460.765ZM770.592 459.816L770.094 459.766L769.857 462.13L770.355 462.18L770.852 462.23L771.089 459.866L770.592 459.816ZM760.836 459.068L760.338 459.018L760.102 461.382L760.599 461.431L761.097 461.481L761.333 459.117L760.836 459.068ZM754.438 468.499L754.936 468.549C754.919 468.709 754.822 468.789 754.806 468.8C754.788 468.814 754.792 468.806 754.844 468.788C754.944 468.752 755.12 468.712 755.386 468.675C755.909 468.603 756.68 468.557 757.65 468.542C759.585 468.513 762.256 468.607 765.2 468.833L765.239 468.334L765.277 467.836C762.311 467.608 759.609 467.512 757.635 467.543C756.651 467.558 755.833 467.604 755.249 467.685C754.961 467.724 754.705 467.776 754.507 467.846C754.41 467.881 754.299 467.93 754.201 468.005C754.105 468.077 753.963 468.221 753.941 468.449L754.438 468.499ZM765.239 468.334L765.2 468.833C768.145 469.059 770.794 469.373 772.693 469.697C773.646 469.859 774.395 470.021 774.895 470.172C775.149 470.248 775.313 470.314 775.403 470.364C775.449 470.389 775.448 470.396 775.429 470.375C775.411 470.356 775.328 470.255 775.344 470.091L775.842 470.141L776.339 470.191C776.363 469.959 776.248 469.788 776.164 469.697C776.079 469.605 775.975 469.537 775.886 469.488C775.703 469.387 775.459 469.297 775.183 469.214C774.624 469.046 773.827 468.875 772.861 468.711C770.923 468.38 768.242 468.063 765.277 467.836L765.239 468.334ZM785.98 553.832L785.48 553.841C785.478 553.718 785.567 553.739 785.355 553.876C785.174 553.993 784.874 554.126 784.441 554.265C783.582 554.54 782.311 554.804 780.709 555.037C777.513 555.503 773.078 555.838 768.163 555.927L768.172 556.427L768.181 556.927C773.124 556.837 777.604 556.5 780.854 556.027C782.475 555.791 783.809 555.518 784.746 555.217C785.211 555.068 785.608 554.903 785.898 554.716C786.156 554.549 786.488 554.26 786.48 553.823L785.98 553.832ZM768.172 556.427L768.163 555.927C763.248 556.017 758.803 555.845 755.592 555.496C753.983 555.322 752.703 555.105 751.834 554.861C751.396 554.738 751.092 554.616 750.907 554.506C750.69 554.376 750.778 554.352 750.78 554.475L750.28 554.485L749.78 554.494C749.788 554.931 750.131 555.207 750.395 555.365C750.691 555.541 751.094 555.692 751.564 555.824C752.512 556.09 753.855 556.314 755.484 556.491C758.748 556.845 763.237 557.018 768.181 556.927L768.172 556.427ZM779.817 552.233L779.771 552.73L779.803 552.733L779.849 552.236L779.895 551.738L779.863 551.735L779.817 552.233ZM779.849 552.236L779.803 552.733C781.667 552.906 783.166 553.132 784.192 553.393C784.708 553.525 785.076 553.658 785.304 553.783C785.418 553.845 785.474 553.893 785.496 553.917C785.515 553.938 785.482 553.911 785.48 553.841L785.98 553.832L786.48 553.823C786.476 553.583 786.366 553.389 786.238 553.247C786.113 553.109 785.952 552.997 785.784 552.905C785.447 552.721 784.985 552.563 784.438 552.424C783.338 552.144 781.778 551.912 779.896 551.738L779.849 552.236ZM750.28 554.485L750.78 554.475C750.782 554.604 750.689 554.573 750.937 554.421C751.146 554.294 751.486 554.151 751.97 554.005C752.931 553.714 754.346 553.439 756.113 553.201L756.047 552.705L755.98 552.21C754.192 552.451 752.717 552.734 751.681 553.048C751.167 553.203 750.731 553.375 750.415 553.568C750.139 553.737 749.772 554.034 749.78 554.494L750.28 554.485ZM780.25 549.429L779.755 549.358L779.354 552.165L779.849 552.236L780.344 552.306L780.745 549.5L780.25 549.429ZM779.849 552.236L779.354 552.165L779.19 553.315L779.685 553.386L780.18 553.457L780.344 552.306L779.849 552.236ZM779.685 553.386L779.238 553.162C779.286 553.067 779.349 553.04 779.319 553.058C779.301 553.068 779.258 553.089 779.178 553.116C779.019 553.169 778.781 553.226 778.461 553.284C777.826 553.398 776.934 553.502 775.862 553.593C773.72 553.775 770.905 553.901 768.084 553.957C765.264 554.012 762.448 553.997 760.307 553.898C759.235 553.849 758.344 553.779 757.709 553.689C757.389 553.643 757.152 553.595 756.996 553.547C756.916 553.523 756.875 553.505 756.86 553.496C756.832 553.481 756.9 553.508 756.95 553.608L756.503 553.832L756.056 554.056C756.141 554.227 756.287 554.322 756.376 554.371C756.477 554.427 756.591 554.47 756.705 554.504C756.934 554.574 757.229 554.63 757.568 554.679C758.25 554.776 759.178 554.847 760.261 554.897C762.432 554.998 765.271 555.012 768.104 554.956C770.938 554.9 773.776 554.774 775.946 554.589C777.029 554.497 777.957 554.39 778.638 554.268C778.977 554.207 779.271 554.14 779.498 554.063C779.61 554.025 779.723 553.979 779.822 553.922C779.908 553.872 780.049 553.776 780.132 553.61L779.685 553.386ZM756.503 553.832L756.987 553.708L755.856 549.304L755.372 549.428L754.887 549.553L756.019 553.957L756.503 553.832ZM433.651 356.057L433.383 356.48L702.521 526.67L702.788 526.247L703.056 525.824L433.918 355.634L433.651 356.057ZM711.69 516.745L711.449 517.184L735.907 530.644L736.148 530.206L736.389 529.768L711.932 516.307L711.69 516.745ZM436.478 339.41L436.198 339.824L444.02 345.104L444.3 344.69L444.579 344.275L436.757 338.995L436.478 339.41ZM377.285 299.455L377.005 299.869L413.116 324.244L413.395 323.829L413.675 323.415L377.564 299.04L377.285 299.455ZM348.838 292.73L348.873 293.229L365.27 292.098L365.235 291.6L365.201 291.101L348.804 292.232L348.838 292.73ZM346.011 302.343L346.365 302.696L349.192 299.869L348.838 299.515L348.485 299.162L345.658 301.989L346.011 302.343ZM348.838 299.515L348.874 300.014L360.182 299.206L360.147 298.708L360.111 298.209L348.803 299.017L348.838 299.515ZM360.147 298.708L360.182 299.206L372.621 298.318L372.586 297.819L372.55 297.32L360.111 298.209L360.147 298.708ZM372.586 307.431L372.873 307.022L360.434 298.298L360.147 298.708L359.859 299.117L372.299 307.841L372.586 307.431ZM720.316 530.205L720.063 530.636L725.077 533.586L725.331 533.155L725.584 532.724L720.57 529.774L720.316 530.205ZM725.331 533.155L725.077 533.586C728.063 535.342 731.779 535.292 734.717 533.456L734.452 533.032L734.187 532.608C731.565 534.247 728.249 534.291 725.584 532.724L725.331 533.155ZM298.322 354.678L298.572 355.111C298.651 355.065 298.782 355.033 299.004 355.078C299.231 355.123 299.521 355.242 299.872 355.455C300.575 355.88 301.435 356.624 302.397 357.651C304.314 359.7 306.559 362.792 308.667 366.442L309.1 366.192L309.533 365.942C307.399 362.246 305.11 359.087 303.127 356.968C302.138 355.911 301.206 355.092 300.39 354.599C299.982 354.353 299.581 354.173 299.2 354.097C298.815 354.02 298.42 354.044 298.072 354.245L298.322 354.678ZM309.1 366.192L308.667 366.442C310.774 370.092 312.33 373.583 313.145 376.267C313.554 377.614 313.768 378.73 313.785 379.552C313.793 379.962 313.751 380.273 313.677 380.492C313.604 380.707 313.512 380.804 313.433 380.85L313.683 381.283L313.933 381.716C314.281 381.515 314.499 381.185 314.624 380.813C314.749 380.444 314.794 380.008 314.785 379.531C314.765 378.578 314.522 377.362 314.102 375.977C313.258 373.2 311.667 369.638 309.533 365.942L309.1 366.192ZM313.683 381.283L313.433 380.85C313.307 380.923 313.04 380.957 312.53 380.72C312.037 380.491 311.427 380.057 310.726 379.419L310.39 379.789L310.054 380.159C310.788 380.828 311.484 381.337 312.109 381.627C312.716 381.909 313.377 382.037 313.933 381.716L313.683 381.283ZM297.867 357.76L298.359 357.672C298.218 356.888 298.187 356.265 298.249 355.815C298.313 355.355 298.459 355.176 298.572 355.111L298.322 354.678L298.072 354.245C297.568 354.536 297.341 355.089 297.259 355.677C297.176 356.275 297.225 357.015 297.374 357.848L297.867 357.76Z" fill="url(#paint2_linear_6162_135821)"/>
<path opacity="0.6" d="M162.811 514.94H137.367C134.869 514.94 132.844 512.915 132.844 510.417V468.011C132.844 465.513 134.869 463.488 137.367 463.488H162.811M167.9 544.907L165.875 543.895C164.329 543.122 163.313 541.568 163.211 539.842C162.988 536.039 159.836 533.034 156.026 533.034M185.648 463.785C184.169 464.639 182.254 464.092 181.372 462.563C180.489 461.034 180.972 459.103 182.451 458.249C183.93 457.395 185.845 457.942 186.727 459.471C187.61 461 187.127 462.931 185.648 463.785ZM185.648 505.626C184.169 506.48 182.254 505.933 181.372 504.404C180.489 502.875 180.972 500.943 182.451 500.09C183.93 499.236 185.845 499.783 186.727 501.312C187.61 502.841 187.127 504.772 185.648 505.626ZM213.918 522.588C212.439 523.442 210.525 522.895 209.642 521.366C208.76 519.837 209.243 517.906 210.722 517.052C212.201 516.198 214.115 516.745 214.998 518.274C215.881 519.803 215.397 521.735 213.918 522.588ZM207.492 466.014C206.492 466.591 205.198 466.222 204.601 465.188C204.004 464.154 204.331 462.849 205.331 462.271C206.331 461.694 207.625 462.064 208.222 463.097C208.819 464.131 208.492 465.437 207.492 466.014Z" stroke="white" stroke-linecap="round"/>
<path d="M325.085 263.899V225.451C317.835 224.527 317.307 225.26 310.384 227.147C310.76 241.471 311.514 315.351 311.514 322.136C311.514 330.618 310.949 332.879 308.687 339.099C306.807 344.27 301.714 348.146 299.641 349.842L308.122 358.889L326.215 348.711C325.273 347.58 322.71 344.414 319.996 340.795C316.603 336.272 317.734 331.749 318.865 327.226L318.865 327.226C319.769 323.607 325.273 318.179 327.911 315.917C327.346 304.42 325.65 280.183 323.388 275.207C321.127 270.232 323.577 265.595 325.085 263.899Z" fill="#D9D9D9" fill-opacity="0.1"/>
<path d="M205.966 417.921L309.257 366.798L304.168 359.447L211.366 405.339C206.713 407.639 201.263 404.254 201.263 399.064V389.81C201.263 389.556 201.167 389.309 200.986 389.131C200.133 388.296 199.407 387.95 198.344 387.803C197.781 387.726 197.305 388.192 197.305 388.761L197.305 412.544C197.305 416.994 201.978 419.895 205.966 417.921Z" fill="#D9D9D9" fill-opacity="0.1"/>
<path d="M166.203 385.457L178.642 382.064V445.391H166.203V385.457Z" fill="#D9D9D9" fill-opacity="0.1"/>
<path d="M377.104 350.969L318.866 379.239L316.039 372.454L375.408 341.922L377.104 350.969Z" fill="#D9D9D9" fill-opacity="0.1"/>
<path d="M760.455 488.93C760.002 486.668 754.989 481.202 752.539 478.752C632.859 396.767 393.274 232.683 392.369 232.23C391.238 231.665 389.542 229.403 387.28 229.403C385.019 229.403 377.103 228.273 373.71 227.707C370.318 227.142 366.925 227.142 365.229 228.273C363.533 229.404 361.837 231.1 359.01 235.058C356.183 239.016 355.617 244.104 355.617 249.193C355.617 253.264 361.271 259.559 364.098 262.198L423.467 301.212C427.802 299.139 438.055 296.688 444.387 303.473C450.72 310.258 451.172 317.232 450.607 319.87C478.878 339.095 541.526 382.066 565.952 400.159C596.484 422.776 673.381 486.103 680.731 492.888C688.081 499.673 700.521 512.112 711.263 516.635C722.006 521.158 739.534 514.939 742.361 513.808C745.188 512.677 755.366 503.065 758.758 500.238C762.151 497.411 761.02 491.757 760.455 488.93Z" fill="#D9D9D9" fill-opacity="0.1"/>
<path d="M765.545 609.364V617.28H755.367V608.233L765.545 609.364ZM765.545 583.355H755.367V560.738H765.545V583.355Z" fill="#D9D9D9" fill-opacity="0.1"/>
<path d="M110.383 432.387C110.383 438.041 113.291 449.349 117.011 457.265C120.731 465.181 122.552 476.489 128.885 482.709C135.217 488.928 157.017 493.451 166.812 494.017C176.608 494.582 186.573 497.975 191.371 499.106C195.209 500.01 204.839 504.006 209.174 505.891M131.216 400.158C131.216 405.812 131.598 407.508 133.408 413.728C135.217 419.947 136.8 418.817 138.497 425.602C140.193 432.387 140.193 431.256 142.455 434.648C144.716 438.041 154.894 443.129 157.721 444.826C159.982 446.183 171.255 448.784 176.608 449.914L185.852 453.307M256.907 453.307C249.883 453.307 235.748 453.307 233.486 453.307C231.677 453.307 223.686 447.653 219.917 444.826C213.509 443.695 200.353 440.755 198.996 438.041C197.639 435.327 193.347 430.879 191.371 428.994M279.285 428.994C273.37 428.617 259.435 427.411 251.014 425.602C240.488 423.34 230.686 416.555 226.136 413.728C221.587 410.901 212.001 406.943 207.477 401.854C203.859 397.783 199.185 393.75 197.3 392.242M795.509 555.082C794.379 556.213 783.07 567.521 780.243 575.437C777.416 583.353 775.154 608.796 773.458 611.058C772.101 612.867 765.354 618.22 762.15 620.67M797.206 538.685C797.206 538.119 796.188 536.649 792.117 535.292C787.028 533.596 766.673 534.161 762.15 535.292C757.627 536.423 740.664 547.731 738.968 548.862C737.611 549.767 729.356 553.386 725.398 555.082M805.121 522.853C801.164 520.591 802.294 513.241 794.379 511.545C786.463 509.849 776.851 506.456 771.762 503.629C766.673 500.802 759.323 497.409 756.496 495.148M701.085 549.993C702.216 548.862 698.823 545.47 712.959 538.685C727.094 531.9 728.79 530.769 733.879 522.853C738.968 514.937 737.272 519.461 755.365 517.764M625.319 517.764C632.67 522.853 641.151 525.115 652.459 514.372C663.768 503.629 657.548 508.152 667.16 497.409C676.772 486.666 675.076 486.101 682.992 483.274C690.907 480.447 697.693 478.751 699.389 478.751C700.746 478.751 707.493 475.735 710.697 474.227M848.093 645.548C851.486 642.721 845.831 655.16 854.878 636.502C863.925 617.843 867.883 620.105 863.925 611.058C859.967 602.011 854.878 590.138 854.878 588.441M820.953 644.417C819.822 641.59 815.864 642.156 816.43 631.413C816.995 620.67 815.864 612.754 822.084 605.969C828.303 599.184 825.476 583.918 825.476 583.353M395.195 371.887C397.457 370.756 408.765 362.84 412.158 356.621C415.55 350.401 416.116 345.313 412.158 328.916C408.2 312.519 405.938 301.776 409.896 292.164C413.062 284.474 416.869 278.782 418.377 276.897M424.031 386.588C440.428 375.28 437.036 378.107 448.344 371.887C459.653 365.668 472.657 373.583 473.788 356.621C474.919 339.658 471.526 335.135 470.961 328.916C470.509 323.94 474.165 315.157 476.05 311.388M369.752 379.238C360.705 367.364 359.009 361.144 359.009 356.621C359.009 352.098 366.924 345.878 365.794 336.266C364.663 326.654 361.836 318.738 355.051 311.388C348.266 304.037 339.219 290.467 338.654 285.379C338.201 281.308 340.35 274.636 341.481 271.809M273.631 328.916C273.631 329.669 273.631 333.213 273.631 341.355C273.631 351.532 275.893 363.406 277.589 365.668C279.285 367.929 280.416 374.149 283.243 379.238C285.505 383.309 289.839 391.488 291.724 395.069C293.609 397.896 294.551 405.134 283.243 411.466M222.744 343.051C227.644 344.559 240.158 348.253 251.014 350.967C264.584 354.359 269.673 371.322 267.977 383.195M291.724 322.131C292.101 325.146 295.682 333.891 306.99 344.747C321.126 358.317 330.172 348.14 338.654 365.668C347.135 383.195 343.742 388.284 349.397 395.069" stroke="white" stroke-width="0.755408"/>
<path d="M244.8 500.68L254.081 530.439C255.933 536.38 252.937 542.752 247.179 545.114L235.245 550.01C232.635 551.08 232.413 554.69 234.871 556.073C240.283 559.117 242.446 566.085 237.95 570.369C234.532 573.626 230.16 576.163 225.275 575.677C213.677 574.522 213.367 582.221 186.029 583.068C158.691 583.915 130.689 580.142 126.258 575.677C123.428 572.824 120.136 567.558 118.063 563.904C117.337 562.624 117.913 561.018 119.269 560.445L125.972 557.608C128.106 556.705 128.931 554.11 127.71 552.139L122.326 543.457C121.293 541.79 119.988 540.308 118.467 539.07L102.843 526.366C100.041 524.087 98.4141 520.667 98.4141 517.055V477.526C98.4141 476.869 98.4531 476.215 98.5305 475.566C98.8829 472.608 98.9697 469.51 97.6421 466.844C95.4541 462.449 96.2393 457.157 99.6088 453.587L106.845 445.921C110.681 441.857 111.616 435.849 109.196 430.811L108.059 428.445C104.281 420.581 110.012 411.469 118.737 411.469C125.28 411.469 130.583 406.165 130.583 399.623V377.523C130.583 371.249 133.966 365.462 139.433 362.383L187.819 335.138C200.951 330.048 221.615 343.62 233.489 345.882C237.466 346.639 240.525 343.921 242.806 339.827C247.987 330.529 257.7 322.506 267.176 327.355C268.523 328.044 269.757 328.758 270.806 329.485C278.157 334.573 269.11 315.915 269.676 305.172C270.241 294.429 277.591 313.088 287.769 320.438C297.946 327.788 288.334 305.172 286.073 300.649C283.811 296.125 288.334 276.336 286.073 264.462C283.811 252.588 290.03 219.229 298.512 210.748C306.993 202.266 340.918 199.439 344.876 206.79C348.834 214.14 359.577 214.705 366.927 210.748C374.277 206.79 418.38 233.93 422.338 242.976C426.296 252.023 450.608 263.897 478.879 276.336C507.15 288.775 519.589 314.219 529.767 318.742C539.944 323.265 545.033 330.05 550.687 331.181C556.341 332.312 555.776 339.097 563.126 343.62C570.477 348.144 585.743 353.798 593.093 360.017C600.444 366.237 658.116 408.078 665.466 415.993C672.817 423.909 695.999 431.258 705.611 436.348C715.223 441.438 723.704 438.61 745.755 444.264C767.807 449.918 777.419 447.657 785.9 453.875C794.381 460.094 788.727 470.273 791.554 477.624C794.381 484.974 799.47 498.544 798.339 507.025C797.208 515.506 803.428 523.988 813.04 526.815C822.652 529.642 802.862 530.773 796.643 531.904C790.423 533.034 794.946 539.254 799.47 539.254C803.993 539.254 815.301 536.992 807.951 542.081C800.601 547.17 792.685 555.651 796.643 556.216C800.601 556.782 802.297 546.039 807.951 551.128C813.605 556.216 841.311 562.436 858.838 568.09C876.366 573.744 896.721 571.483 913.118 572.048C926.236 572.5 961.932 585.806 978.141 592.403C973.241 591.08 960.613 588.434 949.305 588.434C935.169 588.434 931.777 619.543 927.819 636.466C924.653 650.005 940.824 669.436 949.305 677.459C945.724 673.549 936.413 665.727 927.819 665.727C917.076 665.727 893.329 665.727 889.936 657.86C886.544 649.993 871.843 657.86 867.32 661.949C862.796 666.038 859.969 652.477 853.184 646.128C846.399 639.779 843.572 657.86 831.133 657.86C818.694 657.86 826.61 646.128 816.998 640.331C807.386 634.534 770.068 636.466 758.76 630.807C747.452 625.148 746.321 630.807 735.578 612.726C729.45 602.413 726.216 586.698 724.727 574.635C723.828 567.345 718.964 561.081 712.277 558.041C707.658 555.941 703.317 553.466 701.653 551.128C697.695 545.566 658.116 553.955 649.069 551.128C640.023 548.301 636.065 524.553 620.798 512.679C605.532 500.806 568.215 488.367 550.687 479.885C533.159 471.404 522.416 443.133 508.281 444.264C494.145 445.395 486.23 422.213 478.879 411.469C471.529 400.725 427.992 405.249 430.819 401.858C433.646 398.467 427.426 382.634 422.338 387.157C417.249 391.68 408.768 401.858 408.768 397.899C408.768 393.94 404.81 387.157 397.459 395.073C390.109 402.989 395.198 387.157 397.459 375.283C399.721 363.41 388.413 378.111 383.889 387.157C379.366 396.204 379.366 395.073 372.016 382.634C364.665 370.195 359.577 380.938 362.404 392.246C365.231 403.554 357.88 411.469 348.268 395.073C341.758 383.968 336.95 389.1 334.599 394.823C333.784 396.808 333.962 399.169 332.849 401.004C331.476 403.268 328.533 404.711 326.782 405.249L321.304 409.885C320.062 410.936 318.679 411.807 317.194 412.473L282.619 427.988C278.078 430.025 274.891 434.239 274.167 439.162C273.19 445.807 267.798 450.924 261.111 451.551L260.255 451.631C248.983 452.688 242.519 464.983 248.038 474.868L252.963 483.687C256.851 490.65 252.666 499.363 244.8 500.68Z" stroke="url(#paint3_linear_6162_135821)" stroke-width="1.51082"/>
<path fill-rule="evenodd" clip-rule="evenodd" d="M111.362 439.736C114.943 450.668 122.897 473.774 126.063 478.75C130.021 484.97 141.894 488.928 152.637 491.189C163.38 493.451 183.17 497.975 190.52 499.671C197.87 501.367 204.09 501.367 206.917 504.194C209.745 507.022 219.921 516.067 222.183 518.329C224.445 520.591 243.669 529.638 222.183 528.507C200.698 527.376 191.651 518.329 169.6 518.329C147.549 518.329 143.59 518.329 141.894 523.418C140.198 528.507 126.063 497.975 123.801 513.24C121.54 528.506 121.54 535.292 123.801 538.119C126.063 540.947 135.733 560.289 126.063 548.861C119.843 541.511 117.623 535.317 106.273 528.507C97.7919 523.418 98.357 508.718 99.4877 504.194C100.619 499.671 99.488 484.97 101.749 478.75C104.011 472.531 99.4879 469.704 99.4877 462.919C99.4877 456.134 101.184 454.437 104.011 449.914C106.273 446.295 109.854 441.621 111.362 439.736ZM181.473 354.924C180.531 356.432 178.08 360.578 175.819 365.102C172.992 370.756 175.819 369.625 181.473 382.63C187.127 395.634 175.819 391.111 173.557 391.111C171.295 391.11 164.511 379.238 161.119 379.803C157.726 380.368 156.03 383.196 151.506 391.111C146.983 399.027 156.03 412.597 156.03 422.209C156.03 431.821 169.034 434.082 191.651 440.867C214.267 447.652 213.136 453.307 223.879 463.484C234.622 473.662 233.492 477.054 235.188 483.839C236.545 489.267 228.214 486.101 223.879 483.839C218.225 478.373 206.466 466.651 204.656 463.484C202.394 459.526 190.52 454.437 187.693 453.307C184.866 452.176 167.903 447.087 156.03 443.694C144.156 440.302 143.59 436.909 140.198 430.689C137.484 425.713 131.906 407.507 129.455 399.026C130.021 392.241 131.378 376.862 132.283 369.625C133.414 360.578 145.852 358.882 148.114 357.186C149.924 355.828 167.338 346.443 175.819 341.92L181.473 354.924ZM200.698 386.022C204.657 388.285 227.272 402.419 235.188 406.942C243.104 411.466 256.673 416.555 258.935 417.686C260.744 418.59 274.013 418.062 280.421 417.686L292.294 422.209C290.598 423.528 286.528 426.62 283.814 428.429C280.421 430.69 260.066 426.732 254.977 425.602C249.888 424.471 239.145 426.167 226.706 417.686C214.267 409.204 208.614 403.55 204.656 401.288C200.698 399.026 202.959 393.938 197.305 391.111C192.782 388.85 197.682 386.776 200.698 386.022Z" fill="#D9D9D9" fill-opacity="0.1"/>
<g clip-path="url(#clip1_6162_135821)">
<path opacity="0.5" d="M676.543 394.121C676.543 409.871 663.775 422.639 648.025 422.639C632.276 422.639 619.508 409.871 619.508 394.121" stroke="white" stroke-width="0.316861"/>
<g filter="url(#filter0_d_6162_135821)">
<circle cx="648.028" cy="391.903" r="27.5669" fill="#1B1B2D"/>
<circle cx="648.028" cy="391.903" r="27.5669" fill="url(#paint4_linear_6162_135821)" fill-opacity="0.4"/>
</g>
<path d="M658.251 381.362C659.423 379.983 661.533 379.781 662.963 380.911C664.393 382.041 664.602 384.076 663.43 385.455L648.723 404.029C648.108 404.753 647.197 405.184 646.227 405.21C645.257 405.237 644.323 404.856 643.667 404.167L634.335 394.1C633.084 392.787 633.175 390.745 634.536 389.538C635.898 388.332 638.017 388.418 639.267 389.732L645.99 397.058L658.251 381.362Z" fill="#4FE2CE"/>
<circle cx="648.186" cy="391.745" r="27.7254" stroke="#4FE2CE" stroke-width="2.53489"/>
<circle cx="648.026" cy="391.903" r="26.2995" stroke="white" stroke-width="0.633723"/>
</g>
</g>
<path d="M42.5 1H842.5C850.703 1 856.785 1.0011 861.57 1.45605C866.34 1.90961 869.718 2.80764 872.54 4.53711C875.769 6.51599 878.484 9.23084 880.463 12.46C882.192 15.2822 883.09 18.6599 883.544 23.4297C883.999 28.2146 884 34.2971 884 42.5V832.5C884 840.703 883.999 846.785 883.544 851.57C883.09 856.34 882.192 859.718 880.463 862.54C878.484 865.769 875.769 868.484 872.54 870.463C869.718 872.192 866.34 873.09 861.57 873.544C856.785 873.999 850.703 874 842.5 874H42.5C34.2971 874 28.2146 873.999 23.4297 873.544C18.6599 873.09 15.2822 872.192 12.46 870.463C9.23084 868.484 6.51599 865.769 4.53711 862.54C2.80764 859.718 1.90961 856.34 1.45605 851.57C1.0011 846.785 1 840.703 1 832.5V42.5C1 34.2971 1.0011 28.2146 1.45605 23.4297C1.90961 18.6599 2.80763 15.2822 4.53711 12.46C6.51598 9.23083 9.23083 6.51598 12.46 4.53711C15.2822 2.80763 18.6599 1.90961 23.4297 1.45605C28.2146 1.0011 34.2971 1 42.5 1Z" stroke="white" stroke-opacity="0.15" stroke-width="2"/>
<defs>
<filter id="filter0_d_6162_135821" x="605.252" y="356.731" width="85.5515" height="85.5535" filterUnits="userSpaceOnUse" color-interpolation-filters="sRGB">
<feFlood flood-opacity="0" result="BackgroundImageFix"/>
<feColorMatrix in="SourceAlpha" type="matrix" values="0 0 0 0 0 0 0 0 0 0 0 0 0 0 0 0 0 0 127 0" result="hardAlpha"/>
<feOffset dy="7.60467"/>
<feGaussianBlur stdDeviation="7.60467"/>
<feComposite in2="hardAlpha" operator="out"/>
<feColorMatrix type="matrix" values="0 0 0 0 0.309804 0 0 0 0 0.886275 0 0 0 0 0.807843 0 0 0 0.5 0"/>
<feBlend mode="normal" in2="BackgroundImageFix" result="effect1_dropShadow_6162_135821"/>
<feBlend mode="normal" in="SourceGraphic" in2="effect1_dropShadow_6162_135821" result="shape"/>
</filter>
<linearGradient id="paint0_linear_6162_135821" x1="663.375" y1="411.449" x2="960.218" y2="640.442" gradientUnits="userSpaceOnUse">
<stop stop-color="#D9D9D9"/>
<stop offset="1" stop-color="#737373" stop-opacity="0"/>
</linearGradient>
<linearGradient id="paint1_linear_6162_135821" x1="621.361" y1="439.738" x2="916.804" y2="598.096" gradientUnits="userSpaceOnUse">
<stop stop-color="white"/>
<stop offset="1" stop-color="#999999" stop-opacity="0"/>
</linearGradient>
<linearGradient id="paint2_linear_6162_135821" x1="474.36" y1="359.449" x2="878.067" y2="650.073" gradientUnits="userSpaceOnUse">
<stop stop-color="white"/>
<stop offset="1" stop-color="#999999" stop-opacity="0"/>
</linearGradient>
<linearGradient id="paint3_linear_6162_135821" x1="681.929" y1="475.381" x2="903.611" y2="577.646" gradientUnits="userSpaceOnUse">
<stop stop-color="white"/>
<stop offset="1" stop-color="#999999" stop-opacity="0"/>
</linearGradient>
<linearGradient id="paint4_linear_6162_135821" x1="675.595" y1="426.994" x2="626.807" y2="382.431" gradientUnits="userSpaceOnUse">
<stop stop-color="#4FE2CE"/>
<stop offset="1" stop-color="#4FE2CE" stop-opacity="0.2"/>
</linearGradient>
<clipPath id="clip0_6162_135821">
<path d="M0 42.5C0 26.1328 0 17.9493 3.684 11.9375C5.74539 8.57365 8.57365 5.74539 11.9375 3.684C17.9493 0 26.1328 0 42.5 0H842.5C858.867 0 867.051 0 873.062 3.684C876.426 5.74539 879.255 8.57365 881.316 11.9375C885 17.9493 885 26.1328 885 42.5V832.5C885 848.867 885 857.051 881.316 863.062C879.255 866.426 876.426 869.255 873.062 871.316C867.051 875 858.867 875 842.5 875H42.5C26.1329 875 17.9493 875 11.9375 871.316C8.57365 869.255 5.74539 866.426 3.684 863.062C0 857.051 0 848.867 0 832.5V42.5Z" fill="white"/>
</clipPath>
<clipPath id="clip1_6162_135821">
<rect width="76.0467" height="76.0467" fill="white" transform="translate(610 358)"/>
</clipPath>
</defs>
</svg>
