<svg width="886" height="875" viewBox="0 0 886 875" fill="none" xmlns="http://www.w3.org/2000/svg">
<path d="M0.5 42.5C0.5 26.1328 0.5 17.9493 4.184 11.9375C6.24539 8.57365 9.07365 5.74539 12.4375 3.684C18.4493 0 26.6328 0 43 0H843C859.367 0 867.551 0 873.562 3.684C876.926 5.74539 879.755 8.57365 881.816 11.9375C885.5 17.9493 885.5 26.1328 885.5 42.5V832.5C885.5 848.867 885.5 857.051 881.816 863.062C879.755 866.426 876.926 869.255 873.562 871.316C867.551 875 859.367 875 843 875H43C26.6329 875 18.4493 875 12.4375 871.316C9.07365 869.255 6.24539 866.426 4.184 863.062C0.5 857.051 0.5 848.867 0.5 832.5V42.5Z" fill="white" fill-opacity="0.07"/>
<path d="M43 1H843C851.203 1 857.285 1.0011 862.07 1.45605C866.84 1.90961 870.218 2.80764 873.04 4.53711C876.269 6.51599 878.984 9.23084 880.963 12.46C882.692 15.2822 883.59 18.6599 884.044 23.4297C884.499 28.2146 884.5 34.2971 884.5 42.5V832.5C884.5 840.703 884.499 846.785 884.044 851.57C883.59 856.34 882.692 859.718 880.963 862.54C878.984 865.769 876.269 868.484 873.04 870.463C870.218 872.192 866.84 873.09 862.07 873.544C857.285 873.999 851.203 874 843 874H43C34.7971 874 28.7146 873.999 23.9297 873.544C19.1599 873.09 15.7822 872.192 12.96 870.463C9.73084 868.484 7.01599 865.769 5.03711 862.54C3.30764 859.718 2.40961 856.34 1.95605 851.57C1.5011 846.785 1.5 840.703 1.5 832.5V42.5C1.5 34.2971 1.5011 28.2146 1.95605 23.4297C2.40961 18.6599 3.30763 15.2822 5.03711 12.46C7.01598 9.23083 9.73083 6.51598 12.96 4.53711C15.7822 2.80763 19.1599 1.90961 23.9297 1.45605C28.7146 1.0011 34.7971 1 43 1Z" stroke="white" stroke-opacity="0.15" stroke-width="2"/>
<g clip-path="url(#clip0_6162_135956)">
<path d="M623.026 318.326H626.302V322.69H623.026V325.964H618.659V322.69H615.383V318.326H618.659V315.053H623.026V318.326Z" stroke="url(#paint0_radial_6162_135956)"/>
<path d="M623.026 540.906H626.302V545.271H623.026V548.544H618.659V545.271H615.383V540.906H618.659V537.633H623.026V540.906Z" stroke="url(#paint1_radial_6162_135956)"/>
<path d="M844.681 318.326H847.957V322.69H844.681V325.964H840.314V322.69H837.038V318.326H840.314V315.053H844.681V318.326Z" stroke="url(#paint2_radial_6162_135956)"/>
<path d="M844.681 540.906H847.957V545.271H844.681V548.544H840.314V545.271H837.038V540.906H840.314V537.633H844.681V540.906Z" stroke="url(#paint3_radial_6162_135956)"/>
<path d="M906.098 676.559L458.204 676.559M408.486 676.559H132.539C110.448 676.559 92.5391 658.65 92.5391 636.559V-142.913M906.098 658.078H207.599C197.657 658.078 188.072 654.376 180.711 647.693L125.033 597.143C116.682 589.561 111.92 578.806 111.92 567.528V-165.451M848.747 301.628L796.904 303.264C793.136 303.383 789.698 305.447 787.815 308.72L767.311 344.362C765.367 347.741 761.771 349.823 757.879 349.823H704.048C700.156 349.823 696.56 347.741 694.616 344.362L674.113 308.72C672.23 305.447 668.791 303.383 665.023 303.264L613.18 301.628C607.036 301.434 601.95 306.373 601.95 312.533V362.68C601.95 366.544 603.99 370.12 607.312 372.081L636.327 389.208C639.649 391.169 641.689 394.744 641.689 398.608V465.78C641.689 469.644 639.649 473.219 636.327 475.18L607.312 492.307C603.99 494.268 601.95 497.844 601.95 501.708V551.855C601.95 558.015 607.036 562.954 613.18 562.76L665.023 561.124C668.791 561.005 672.23 558.941 674.113 555.668L694.616 520.026C696.56 516.647 700.156 514.565 704.048 514.565H757.879C761.771 514.565 765.367 516.647 767.311 520.026L787.815 555.668C789.698 558.941 793.136 561.005 796.904 561.124L848.747 562.76C854.891 562.954 859.977 558.015 859.977 551.855V501.708C859.977 497.844 857.938 494.268 854.615 492.307L825.6 475.18C822.278 473.219 820.239 469.644 820.239 465.78V398.608C820.239 394.744 822.278 391.169 825.6 389.208L854.615 372.081C857.938 370.12 859.977 366.544 859.977 362.68V312.533C859.977 306.373 854.891 301.434 848.747 301.628ZM631.89 321.457C631.89 327.483 627.016 332.367 621.003 332.367C614.99 332.367 610.116 327.483 610.116 321.457C610.116 315.432 614.99 310.547 621.003 310.547C627.016 310.547 631.89 315.432 631.89 321.457ZM631.89 544.022C631.89 550.047 627.016 554.932 621.003 554.932C614.99 554.932 610.116 550.047 610.116 544.022C610.116 537.997 614.99 533.112 621.003 533.112C627.016 533.112 631.89 537.997 631.89 544.022ZM852.9 321.457C852.9 327.483 848.026 332.367 842.013 332.367C836 332.367 831.126 327.483 831.126 321.457C831.126 315.432 836 310.547 842.013 310.547C848.026 310.547 852.9 315.432 852.9 321.457ZM852.9 544.022C852.9 550.047 848.026 554.932 842.013 554.932C836 554.932 831.126 550.047 831.126 544.022C831.126 537.997 836 533.112 842.013 533.112C848.026 533.112 852.9 537.997 852.9 544.022ZM587.435 585.238H871.392C881.35 585.238 889.421 577.166 889.421 567.208V287.107C889.421 277.149 881.35 269.077 871.392 269.077H587.435C577.478 269.077 569.406 277.149 569.406 287.107V567.208C569.406 577.166 577.478 585.238 587.435 585.238Z" stroke="url(#paint4_radial_6162_135956)" stroke-width="2"/>
<path d="M332.806 396.765L359.111 419.997C364.919 424.438 368.915 425.463 371.752 425.463H518.204C523.733 425.463 528.216 420.98 528.216 415.45L528.737 220.816C528.737 217.98 527.874 213.641 523.433 209.943L503.277 188.36M342.372 400.181H493.37C501.295 400.181 507.718 393.757 507.718 385.832V198.609C507.718 190.684 501.295 184.26 493.37 184.26H342.372C334.447 184.26 328.023 190.684 328.023 198.609V385.832C328.023 393.757 334.447 400.181 342.372 400.181ZM411.484 417.763H456.578C460.541 417.763 461.665 415.816 459.089 413.413C456.513 411.011 451.213 409.064 447.251 409.064H402.156C398.194 409.064 397.07 411.011 399.646 413.413C402.222 415.816 407.522 417.763 411.484 417.763Z" stroke="white" stroke-width="2"/>
<path d="M328.023 198.609C328.023 190.684 334.447 184.26 342.372 184.26H493.37C501.295 184.26 507.718 190.684 507.718 198.609V385.832C507.718 393.757 501.295 400.181 493.37 400.181H342.372C334.447 400.181 328.023 393.757 328.023 385.832V198.609Z" fill="#D9D9D9" fill-opacity="0.1"/>
<path d="M343.055 405.989L343.055 450.137C343.055 463.303 353.729 473.977 366.896 473.977H522.139C535.306 473.977 545.98 463.303 545.98 450.137V193.75C545.98 180.584 535.306 169.91 522.139 169.91H366.896C356.97 169.91 348.461 175.975 344.873 184.601" stroke="white" stroke-width="2"/>
<path d="M351.066 184.26C354.23 178.941 360.032 175.377 366.665 175.377H521.692C531.711 175.377 539.834 183.508 539.834 193.538V449.667C539.834 459.697 531.711 467.828 521.692 467.828H366.665C356.646 467.828 348.523 459.697 348.523 449.667L348.523 410.772" stroke="white"/>
<path fill-rule="evenodd" clip-rule="evenodd" d="M522.372 175.375C532.391 175.375 540.513 183.506 540.514 193.536V449.665C540.514 459.695 532.391 467.826 522.372 467.826H367.345C357.325 467.826 349.203 459.695 349.203 449.665V411.154L359.111 419.995C364.919 424.437 368.916 425.462 371.752 425.462H518.204C523.733 425.462 528.216 420.979 528.216 415.449L528.737 220.814C528.737 217.978 527.874 213.64 523.434 209.942L503.412 188.358C500.824 185.822 497.28 184.259 493.37 184.259H351.746C354.91 178.94 360.712 175.375 367.345 175.375H522.372Z" fill="#D9D9D9" fill-opacity="0.1"/>
<path d="M426.25 733.971L426.225 733.472C425.954 733.485 425.743 733.712 425.75 733.984C425.757 734.255 425.979 734.471 426.25 734.471V733.971ZM454.947 560.414H454.447V651.402H454.947H455.447V560.414H454.947ZM454.947 651.402H454.447C454.447 652.997 453.908 655.421 453.068 658.482C452.229 661.537 451.121 665.124 449.998 669.076C447.763 676.938 445.511 686.111 445.511 694.548H446.011H446.511C446.511 686.262 448.727 677.206 450.96 669.349C452.07 665.441 453.196 661.795 454.033 658.746C454.868 655.703 455.447 653.152 455.447 651.402H454.947ZM446.011 694.548H445.511V724.409H446.011H446.511V694.548H446.011ZM436.445 733.971V733.471H426.25V733.971V734.471H436.445V733.971ZM446.011 724.409H445.511C445.511 729.416 441.452 733.471 436.445 733.471V733.971V734.471C442.004 734.471 446.511 729.969 446.511 724.409H446.011ZM450.164 560.756H449.664V650.951H450.164H450.664V560.756H450.164ZM450.164 650.951H449.664C449.664 652.294 449.214 654.643 448.513 657.695C447.814 660.735 446.889 664.382 445.954 668.331C444.093 676.192 442.217 685.169 442.217 692.29H442.717H443.217C443.217 685.301 445.065 676.431 446.927 668.561C447.854 664.644 448.79 660.954 449.488 657.919C450.182 654.895 450.664 652.429 450.664 650.951H450.164ZM442.717 692.29H442.217V724.066H442.717H443.217V692.29H442.717ZM442.717 724.066H442.217C442.217 726.727 441.637 728.581 440.71 729.888C439.786 731.192 438.479 732.004 436.925 732.514C435.364 733.026 433.576 733.226 431.721 733.317C430.795 733.361 429.862 733.379 428.937 733.396C428.015 733.412 427.1 733.428 426.225 733.472L426.25 733.971L426.275 734.471C427.131 734.428 428.03 734.412 428.955 734.395C429.878 734.379 430.826 734.361 431.769 734.315C433.651 734.224 435.547 734.019 437.237 733.464C438.934 732.907 440.446 731.99 441.526 730.466C442.605 728.944 443.217 726.87 443.217 724.066H442.717Z" fill="white"/>
<path d="M397.029 559.389C397.124 560.162 398.508 560.643 401.135 560.643H449.646C454.74 560.643 462.582 558.833 467.16 556.6C469.265 555.573 470.314 554.635 470.338 553.922M397.029 559.389C396.939 558.663 397.985 557.681 400.202 556.6C402.651 555.405 406.033 554.331 409.429 553.591M397.029 559.389V646.167C397.029 650.95 400.11 653.571 403.709 653.571H449.646C454.74 653.571 462.582 651.761 467.16 649.528C469.82 648.439 470.387 645.467 470.338 644.117V553.922M470.338 553.922C470.366 553.084 468.979 552.556 466.227 552.556H459.394M409.429 513.381C409.478 513.741 410.187 513.966 411.534 513.966H448.697C451.308 513.966 455.327 513.121 457.674 512.079C458.753 511.6 459.29 511.162 459.303 510.829M409.429 513.381C409.384 513.042 409.919 512.583 411.056 512.079C413.403 511.036 417.422 510.191 420.033 510.191H457.195C458.606 510.191 459.317 510.438 459.303 510.829M409.429 513.381V553.591M459.303 510.829V552.926C459.328 553.556 459.303 554.902 458.028 555.631C455.636 556.997 454.612 557.339 448.697 557.339H412.854C411.009 557.339 409.429 556.115 409.429 553.883V553.591M398.585 651.292L403.37 662.574C409.455 676.922 412.592 692.348 412.592 707.933V726.113C412.592 733.66 418.71 739.779 426.257 739.779H439.238C446.785 739.779 452.903 733.66 452.903 726.113V709.296C452.903 692.831 456.403 676.554 463.172 661.544L469.643 647.192M434.456 636.259C434.456 641.731 430.02 646.167 424.548 646.167C419.077 646.167 414.641 641.731 414.641 636.259C414.641 630.788 419.077 626.352 424.548 626.352C430.02 626.352 434.456 630.788 434.456 636.259Z" stroke="white" stroke-width="2"/>
<path d="M439.044 740.121V788.293C439.044 815.625 433.92 903.429 400.782 943.402C367.645 983.374 314.351 1036.67 273.356 1055.12M426.404 740.463V787.068C426.404 813.51 421.459 898.457 389.483 937.129C357.507 975.801 306.082 1027.36 266.523 1045.21" stroke="url(#paint5_linear_6162_135956)" stroke-width="2"/>
<path d="M403.859 560.756H422.99V653.684L425.163 666.083C427.582 679.886 428.849 693.867 428.952 707.881L429.125 731.565C429.133 732.703 428.213 733.63 427.075 733.63H424.528C419.245 733.63 414.962 729.347 414.962 724.064V699.972C414.962 691.264 413.552 682.614 410.785 674.357L403.859 653.684V560.756Z" fill="#D9D9D9" fill-opacity="0.1"/>
<path d="M449.633 560.755L461.931 558.705V651.633L449.633 653.683V560.755Z" fill="#D9D9D9" fill-opacity="0.1"/>
<path d="M427.771 557.338H416.156V514.291H427.771V557.338ZM454.419 556.655L448.953 557.338V514.29L454.419 513.607V556.655Z" fill="#D9D9D9" fill-opacity="0.1"/>
<path d="M536.136 539.6C538.089 537.647 541.255 537.647 543.207 539.6L575.027 571.421C576.979 573.374 576.979 576.539 575.027 578.492C573.074 580.445 569.908 580.445 567.956 578.492L539.672 550.207L511.388 578.49C509.435 580.443 506.269 580.443 504.317 578.49C502.364 576.537 502.364 573.372 504.317 571.419L536.136 539.6ZM544.672 669.395C544.672 672.156 542.433 674.395 539.672 674.395C536.91 674.394 534.672 672.156 534.672 669.394L539.672 669.395L544.672 669.395ZM539.672 669.395L534.672 669.394L534.672 543.135L539.672 543.135L544.672 543.136L544.672 669.395L539.672 669.395Z" fill="#4FE2CE"/>
</g>
<defs>
<radialGradient id="paint0_radial_6162_135956" cx="0" cy="0" r="1" gradientUnits="userSpaceOnUse" gradientTransform="translate(731.67 431.798) rotate(90) scale(116.746 116.287)">
<stop stop-color="white"/>
<stop offset="1" stop-color="#999999"/>
</radialGradient>
<radialGradient id="paint1_radial_6162_135956" cx="0" cy="0" r="1" gradientUnits="userSpaceOnUse" gradientTransform="translate(731.67 431.798) rotate(90) scale(116.746 116.287)">
<stop stop-color="white"/>
<stop offset="1" stop-color="#999999"/>
</radialGradient>
<radialGradient id="paint2_radial_6162_135956" cx="0" cy="0" r="1" gradientUnits="userSpaceOnUse" gradientTransform="translate(731.67 431.798) rotate(90) scale(116.746 116.287)">
<stop stop-color="white"/>
<stop offset="1" stop-color="#999999"/>
</radialGradient>
<radialGradient id="paint3_radial_6162_135956" cx="0" cy="0" r="1" gradientUnits="userSpaceOnUse" gradientTransform="translate(731.67 431.798) rotate(90) scale(116.746 116.287)">
<stop stop-color="white"/>
<stop offset="1" stop-color="#999999"/>
</radialGradient>
<radialGradient id="paint4_radial_6162_135956" cx="0" cy="0" r="1" gradientTransform="matrix(449.492 257.337 -345.216 603.219 401.183 419.406)" gradientUnits="userSpaceOnUse">
<stop stop-color="white"/>
<stop offset="1" stop-color="white" stop-opacity="0"/>
</radialGradient>
<linearGradient id="paint5_linear_6162_135956" x1="388.484" y1="751.395" x2="311.267" y2="1024.71" gradientUnits="userSpaceOnUse">
<stop stop-color="white"/>
<stop offset="1" stop-color="#999999" stop-opacity="0"/>
</linearGradient>
<clipPath id="clip0_6162_135956">
<rect width="885" height="875" fill="white"/>
</clipPath>
</defs>
</svg>
