<svg width="886" height="875" viewBox="0 0 886 875" fill="none" xmlns="http://www.w3.org/2000/svg">
<path d="M0 42.5C0 26.1328 0 17.9493 3.684 11.9375C5.74539 8.57365 8.57365 5.74539 11.9375 3.684C17.9493 0 26.1328 0 42.5 0H842.5C858.867 0 867.051 0 873.062 3.684C876.426 5.74539 879.255 8.57365 881.316 11.9375C885 17.9493 885 26.1328 885 42.5V832.5C885 848.867 885 857.051 881.316 863.062C879.255 866.426 876.426 869.255 873.062 871.316C867.051 875 858.867 875 842.5 875H42.5C26.1329 875 17.9493 875 11.9375 871.316C8.57365 869.255 5.74539 866.426 3.684 863.062C0 857.051 0 848.867 0 832.5V42.5Z" fill="white" fill-opacity="0.07"/>
<path d="M42.5 1H842.5C850.703 1 856.785 1.0011 861.57 1.45605C866.34 1.90961 869.718 2.80764 872.54 4.53711C875.769 6.51599 878.484 9.23084 880.463 12.46C882.192 15.2822 883.09 18.6599 883.544 23.4297C883.999 28.2146 884 34.2971 884 42.5V832.5C884 840.703 883.999 846.785 883.544 851.57C883.09 856.34 882.192 859.718 880.463 862.54C878.484 865.769 875.769 868.484 872.54 870.463C869.718 872.192 866.34 873.09 861.57 873.544C856.785 873.999 850.703 874 842.5 874H42.5C34.2971 874 28.2146 873.999 23.4297 873.544C18.6599 873.09 15.2822 872.192 12.46 870.463C9.23084 868.484 6.51599 865.769 4.53711 862.54C2.80764 859.718 1.90961 856.34 1.45605 851.57C1.0011 846.785 1 840.703 1 832.5V42.5C1 34.2971 1.0011 28.2146 1.45605 23.4297C1.90961 18.6599 2.80763 15.2822 4.53711 12.46C6.51598 9.23083 9.23083 6.51598 12.46 4.53711C15.2822 2.80763 18.6599 1.90961 23.4297 1.45605C28.2146 1.0011 34.2971 1 42.5 1Z" stroke="white" stroke-opacity="0.15" stroke-width="2"/>
<path d="M148.808 210.487C199.482 207.146 250.378 223.354 293.469 257.039L287.022 265.242C246.169 233.307 198.256 217.985 150.704 220.811L183.153 248.863C185.277 250.699 185.582 253.876 183.847 256.083C182.013 258.417 178.61 258.78 176.325 256.886L140.206 226.947L129.224 218.223L131.535 215.573L166.294 174.089C168.094 171.941 171.278 171.606 173.486 173.332C175.811 175.149 176.149 178.532 174.231 180.774L148.808 210.487Z" fill="#4FE2CE"/>
<path d="M537.602 321.086V330.781M669.969 352.947L667.359 423.281" stroke="white"/>
<path d="M701.868 491.316L675.755 588.964C675.935 592.299 672.59 595.568 666.54 597.297L384.256 690.778C375.613 693.248 364.722 691.638 359.931 687.183L357.552 684.97C354.324 681.968 347.133 680.77 341.108 682.231C335.082 683.692 327.891 682.494 324.663 679.492L320.08 675.23C315.711 671.167 306.983 668.884 298.042 669.466L294.007 669.729C285.066 670.311 276.338 668.028 271.969 663.965L229.197 624.188C227.362 622.481 226.451 620.605 226.434 618.736L196.891 527.274" stroke="white" stroke-width="2"/>
<path d="M381.175 691.588L375.119 587.569M324.782 679.754L311.903 600.313M274.755 666.554L251.695 576.432" stroke="white"/>
<path d="M118.332 448.247L254.966 571.374C273.137 587.749 307.068 595.392 330.207 588.323L420.409 560.764C426.624 558.617 439.51 549.134 441.329 528.378C441.329 453.552 377.596 404.168 299.046 364.526C297.592 363.792 296.177 363.038 294.805 362.264L128.117 406.891C104.725 413.471 100.334 432.028 118.332 448.247Z" fill="#D9D9D9" fill-opacity="0.1"/>
<path d="M479.024 312.719C482.451 292.629 483.719 271.783 477.395 252.41C468.29 224.515 452.674 207.405 426.098 187.402C420.471 183.166 410.561 181.521 402.829 189.257L273.237 311.868C257.392 326.757 270.436 349.986 299.658 364.734C378.209 404.376 441.941 453.759 441.941 528.586L479.024 312.719Z" fill="url(#paint0_linear_6162_136680)" fill-opacity="0.2"/>
<path d="M436.664 546.046L699.225 469.997C709.213 467.143 712.822 460.656 707.286 455.508L704.537 452.952C700.806 449.483 702.932 445.117 709.399 442.967C715.866 440.818 717.993 436.452 714.262 432.983L708.966 428.058C703.917 423.363 704.923 417.557 711.504 413.397L714.475 411.519C721.056 407.359 722.062 401.553 717.013 396.858L667.586 350.895C662.538 346.2 652.452 343.562 642.12 344.235L637.456 344.538C627.125 345.211 617.039 342.574 611.99 337.879L606.694 332.954C602.964 329.485 594.654 328.101 587.691 329.789C580.728 331.476 572.418 330.092 568.688 326.624L565.939 324.067C560.402 318.919 547.817 317.059 537.829 319.913L474.412 338.281" stroke="white" stroke-width="2"/>
<path d="M478.503 314.676L569.635 288.523C592.814 281.871 626.13 289.569 644.05 305.717L781.538 429.613C799.457 445.761 795.193 464.243 772.015 470.895L330.367 597.639C307.188 604.291 273.872 596.593 255.953 580.446L118.465 456.549C109.241 448.238 105.895 439.308 107.98 431.691" stroke="white" stroke-width="2"/>
<path d="M420.745 560.802L330.543 588.361C307.404 595.43 273.473 587.787 255.302 571.412L118.668 448.285C100.67 432.066 105.061 413.508 128.453 406.929L295.075 362.265M420.745 560.802L433.024 486.541M420.745 560.802C426.96 558.655 439.846 549.172 441.665 528.416M441.625 530.206C441.625 455.38 377.932 404.206 299.382 364.564C270.159 349.817 257.115 326.587 272.961 311.698L402.553 189.087C410.284 181.351 420.195 182.997 425.822 187.232C452.397 207.235 468.014 224.345 477.119 252.24C483.442 271.613 482.174 292.459 478.748 312.549L441.625 530.206Z" stroke="white" stroke-width="2"/>
<path d="M565.804 324.645C560.268 319.496 547.683 317.636 537.695 320.49L474.277 338.858L478.37 315.252L569.503 289.099C592.681 282.447 625.998 290.145 643.917 306.293L781.405 430.189C799.324 446.337 795.06 464.82 771.882 471.471L330.234 598.216C307.055 604.867 273.739 597.169 255.82 581.022L118.332 457.125C109.109 448.814 105.762 439.884 107.847 432.267C108.689 438.059 115.323 445.746 118.535 448.866L255.169 571.992C273.341 588.367 307.272 596.011 330.411 588.941L420.612 561.383C424.675 559.979 431.588 555.441 436.397 546.669L699.091 470.575C709.079 467.721 712.688 461.234 707.151 456.086L704.402 453.529C700.672 450.06 702.798 445.694 709.265 443.545C715.732 441.395 717.858 437.03 714.128 433.56L708.832 428.636C703.783 423.941 704.788 418.134 711.37 413.974L714.34 412.096C720.922 407.937 721.927 402.13 716.879 397.435L667.452 351.472C662.403 346.777 652.317 344.14 641.986 344.813L637.322 345.116C626.99 345.788 616.904 343.151 611.856 338.456L606.56 333.531C602.829 330.062 594.52 328.678 587.556 330.366C580.593 332.054 572.283 330.67 568.553 327.201L565.804 324.645Z" fill="url(#paint1_linear_6162_136680)" fill-opacity="0.2"/>
<path d="M442.183 529.714L570.8 495.251M557.354 498.855L685.971 464.392C703.73 459.634 706.388 446.606 691.91 435.294L684.552 429.546C680.852 426.655 675.252 424.492 669.398 423.694L643.12 420.112C639.608 419.633 636.248 418.336 634.027 416.601L578.152 372.947C575.799 371.108 575.017 369.006 576.061 367.327L583.272 355.733C584.665 353.493 583.622 350.691 580.484 348.239L575.028 343.976C566.302 337.158 552.822 332.215 539.071 330.788L537.506 330.626C529.998 329.847 524.154 332.113 523.818 335.933L523.071 344.413C522.786 347.651 519.814 350.269 514.887 351.619L470.501 363.781" stroke="white" stroke-width="2"/>
<path d="M557.517 493.462L451.7 523.617C449.054 524.331 445.492 523.944 442.617 522.783M557.517 493.462L558.686 493.146M557.517 493.462L669.705 463.595C673.33 462.63 673.882 459.979 670.937 457.678C667.511 455.001 667.84 451.905 671.699 450.523L679.967 447.561C684.11 446.077 684.464 442.753 680.785 439.879L666.186 428.473C663.868 426.662 660.314 425.334 656.65 424.91L640.398 423.028C636.734 422.604 633.18 421.275 630.862 419.465L570.686 372.45C568.239 370.539 567.501 368.347 568.73 366.643L570.493 364.196C571.916 362.221 571.061 359.682 568.225 357.466L555.193 347.284C549.811 343.079 540.086 341.107 533.472 342.879C529.397 343.971 527.103 346.21 527.269 348.932L527.335 350.027C527.456 352.002 525.805 353.63 522.864 354.435L469.503 369.041M557.517 493.462L556.344 493.774M443.503 518.516C445.709 519.613 448.706 520.037 450.862 519.456L661.068 462.328C663.715 461.623 664.107 459.678 661.942 457.986C657.799 454.749 658.202 451.013 662.872 449.375L673.26 445.73C675.765 444.852 675.981 442.848 673.759 441.111L661.812 431.778C659.608 430.056 656.231 428.793 652.762 428.395L636.685 426.547C633.216 426.148 629.839 424.885 627.635 423.163L563.691 373.205C561.7 371.65 560.882 369.887 561.453 368.385L563.588 362.773C564.117 361.383 563.359 359.75 561.515 358.309L549.791 349.149C546.753 346.775 541.283 345.657 537.574 346.651C535.289 347.263 534.007 348.523 534.11 350.057L534.29 352.737C534.415 354.604 532.868 356.14 530.102 356.896L468.503 373.518" stroke="white"/>
<path d="M556.683 412.199C558.471 411.686 561.217 412.32 562.815 413.614M556.683 412.199L555.5 382.281M556.683 412.199L457 440.783M562.815 413.614L588.499 434.412M562.815 413.614L562 383.782M490.428 462.29L462.072 439.328L460.666 419.282" stroke="white"/>
<path d="M614.248 427.067L451.5 473.734M516.784 455.014L462.164 410.783M447 499.946C452.757 501.822 459.049 502.322 463.79 500.962L639.44 450.595C641.229 450.082 641.383 448.617 639.784 447.323L560.817 383.376C559.218 382.082 556.472 381.448 554.684 381.961L462.5 408.394M640.5 447.782C642.167 449.282 644.7 452.582 641.5 453.782C638.3 454.982 522.5 487.948 465 504.282C460.751 505.42 452.627 505.315 446 503.323" stroke="white" stroke-width="2"/>
<defs>
<linearGradient id="paint0_linear_6162_136680" x1="336.167" y1="260.762" x2="461.781" y2="373.085" gradientUnits="userSpaceOnUse">
<stop stop-color="#D9D9D9"/>
<stop offset="1" stop-color="#737373" stop-opacity="0"/>
</linearGradient>
<linearGradient id="paint1_linear_6162_136680" x1="667.551" y1="391.85" x2="229.131" y2="418.206" gradientUnits="userSpaceOnUse">
<stop stop-color="#D9D9D9"/>
<stop offset="1" stop-color="#737373" stop-opacity="0"/>
</linearGradient>
</defs>
</svg>
