<svg width="52" height="52" viewBox="0 0 52 52" fill="none" xmlns="http://www.w3.org/2000/svg">
<rect width="52" height="52" rx="16" fill="#3782C8"/>
<path d="M31.5889 12.418C34.5238 12.418 36.9148 14.7705 36.915 17.6729V38.3799C36.915 38.8377 36.6535 39.2572 36.2354 39.46L36.2344 39.459C36.1402 39.5052 36.0438 39.5348 35.9473 39.5537V39.585H35.7031C35.4385 39.585 35.1757 39.5013 34.9609 39.3301V39.3291L25.999 32.4844L17.0342 39.332C16.6692 39.6124 16.1732 39.6623 15.7607 39.459V39.458C15.3441 39.2552 15.082 38.8413 15.082 38.3799V17.6729C15.0823 14.7706 17.4734 12.4181 20.4082 12.418H31.5889ZM20.4062 14.8193C18.8046 14.8195 17.505 16.106 17.5049 17.6768V35.9434L25.2578 30.0215C25.4753 29.8541 25.736 29.7705 25.9961 29.7705H25.998C26.2582 29.7706 26.5188 29.854 26.7363 30.0215L34.4893 35.9443V17.6768C34.4891 16.106 33.1887 14.8193 31.5869 14.8193H20.4062Z" fill="white" stroke="white" stroke-width="0.5"/>
</svg>
