<svg width="30" height="30" viewBox="0 0 30 30" fill="none" xmlns="http://www.w3.org/2000/svg">
<path d="M9.50977 3.08496H20.4893C22.9858 3.08496 24.9148 4.98204 24.915 7.19238V26.6045C24.915 26.6873 24.8645 26.8014 24.7188 26.8691L24.7148 26.8711L24.6826 26.8828L24.5918 26.915H24.5303C24.4264 26.915 24.3423 26.8833 24.2852 26.8398L24.2764 26.833L24.2666 26.8271L15.6396 20.5342L15 20.0684L14.3604 20.5342L6.45703 26.2979L6.45605 26.2969L5.72266 26.832C5.60136 26.9207 5.42512 26.9393 5.28418 26.873L5.28027 26.8711C5.13519 26.8035 5.08496 26.6912 5.08496 26.6045V7.19238C5.08521 4.98216 7.01347 3.08517 9.50977 3.08496Z" stroke="white" stroke-width="2.17"/>
</svg>
