<svg width="31" height="184" viewBox="0 0 31 184" fill="none" xmlns="http://www.w3.org/2000/svg">
<g clip-path="url(#clip0_7029_408215)">
<path d="M8.67056 173.105C3.38272 170.643 0.00141943 165.339 0.00136446 159.506L8.27069e-05 23.4943C2.77379e-05 17.6613 3.38145 12.3572 8.66951 9.89545L30.9999 -0.500017L31 183.5L8.67056 173.105Z" fill="url(#paint0_linear_7029_408215)"/>
<path d="M20.724 95.848C20.724 96.744 20.5187 97.5327 20.108 98.214C19.688 98.8953 19.0907 99.4273 18.316 99.81C17.5413 100.193 16.6173 100.384 15.544 100.384C14.48 100.384 13.5607 100.197 12.786 99.824C12.002 99.4413 11.4 98.9093 10.98 98.228C10.5507 97.5467 10.336 96.7487 10.336 95.834C10.336 94.602 10.644 93.6453 11.26 92.964C11.876 92.2827 12.73 91.8393 13.822 91.634L13.906 93.216C13.2247 93.3467 12.6927 93.6267 12.31 94.056C11.918 94.4853 11.722 95.078 11.722 95.834C11.722 96.4407 11.876 96.968 12.184 97.416C12.492 97.8547 12.9307 98.2 13.5 98.452C14.0693 98.6947 14.7507 98.816 15.544 98.816C16.3373 98.816 17.0187 98.6947 17.588 98.452C18.1573 98.2 18.5913 97.85 18.89 97.402C19.1887 96.954 19.338 96.436 19.338 95.848C19.338 95.0453 19.128 94.4247 18.708 93.986C18.2787 93.538 17.6907 93.258 16.944 93.146L17.028 91.564C17.784 91.6853 18.4373 91.928 18.988 92.292C19.5387 92.656 19.968 93.1367 20.276 93.734C20.5747 94.3313 20.724 95.036 20.724 95.848ZM20.5 88.4959C20.5 88.9813 20.374 89.3733 20.122 89.6719C19.87 89.9706 19.4687 90.1199 18.918 90.1199L10.56 90.1199L10.56 88.6359L18.778 88.6359C18.946 88.6359 19.072 88.5939 19.156 88.5099C19.24 88.4166 19.282 88.2859 19.282 88.1179L19.282 87.5299L20.5 87.5299L20.5 88.4959ZM20.668 83.1985C20.668 83.9078 20.5093 84.5285 20.192 85.0605C19.8747 85.5925 19.422 86.0031 18.834 86.2925C18.246 86.5818 17.56 86.7265 16.776 86.7265C15.9827 86.7265 15.2967 86.5818 14.718 86.2925C14.1393 86.0031 13.6913 85.5925 13.374 85.0605C13.0473 84.5285 12.884 83.9078 12.884 83.1985C12.884 82.4891 13.0473 81.8685 13.374 81.3365C13.6913 80.8045 14.1393 80.3938 14.718 80.1045C15.2967 79.8151 15.9827 79.6705 16.776 79.6705C17.56 79.6705 18.246 79.8151 18.834 80.1045C19.422 80.3938 19.8747 80.8045 20.192 81.3365C20.5093 81.8685 20.668 82.4891 20.668 83.1985ZM19.38 83.1985C19.38 82.5638 19.1513 82.0738 18.694 81.7285C18.2273 81.3831 17.588 81.2105 16.776 81.2105C15.964 81.2105 15.3293 81.3831 14.872 81.7285C14.4053 82.0738 14.172 82.5638 14.172 83.1985C14.172 83.8238 14.4053 84.3138 14.872 84.6685C15.3293 85.0138 15.964 85.1865 16.776 85.1865C17.588 85.1865 18.2273 85.0138 18.694 84.6685C19.1513 84.3138 19.38 83.8238 19.38 83.1985ZM20.668 75.3007C20.668 76.0007 20.5607 76.5934 20.346 77.0787C20.1313 77.5547 19.8373 77.9234 19.464 78.1847C19.0813 78.446 18.6427 78.5954 18.148 78.6327L18.078 77.1067C18.4887 77.032 18.8153 76.8547 19.058 76.5747C19.3007 76.2947 19.422 75.87 19.422 75.3007C19.422 74.834 19.3473 74.4654 19.198 74.1947C19.0487 73.924 18.8107 73.7887 18.484 73.7887C18.3067 73.7887 18.1573 73.8354 18.036 73.9287C17.9053 74.0127 17.798 74.1807 17.714 74.4327C17.6207 74.6847 17.532 75.058 17.448 75.5527C17.308 76.29 17.1447 76.8687 16.958 77.2887C16.7713 77.7087 16.5333 78.0074 16.244 78.1847C15.9547 78.362 15.6047 78.4507 15.194 78.4507C14.5127 78.4507 13.9573 78.1987 13.528 77.6947C13.0987 77.1814 12.884 76.444 12.884 75.4827C12.884 74.8387 12.996 74.2974 13.22 73.8587C13.4347 73.42 13.7287 73.0794 14.102 72.8367C14.466 72.5847 14.8767 72.426 15.334 72.3607L15.418 73.8867C15.1567 73.9334 14.9327 74.0267 14.746 74.1667C14.55 74.2974 14.4007 74.4747 14.298 74.6987C14.186 74.9227 14.13 75.1887 14.13 75.4967C14.13 75.9727 14.2233 76.3274 14.41 76.5607C14.5967 76.794 14.8393 76.9107 15.138 76.9107C15.362 76.9107 15.544 76.8594 15.684 76.7567C15.824 76.6447 15.9407 76.4674 16.034 76.2247C16.118 75.982 16.1927 75.66 16.258 75.2587C16.3887 74.484 16.552 73.8774 16.748 73.4387C16.9347 73 17.168 72.692 17.448 72.5147C17.728 72.3374 18.0687 72.2487 18.47 72.2487C18.9367 72.2487 19.3333 72.3794 19.66 72.6407C19.9867 72.902 20.2387 73.2614 20.416 73.7187C20.584 74.176 20.668 74.7034 20.668 75.3007ZM20.668 67.6809C20.668 68.4089 20.5093 69.0389 20.192 69.5709C19.8747 70.0935 19.422 70.4995 18.834 70.7889C18.246 71.0689 17.56 71.2089 16.776 71.2089C15.992 71.2089 15.3107 71.0689 14.732 70.7889C14.144 70.4995 13.6913 70.0935 13.374 69.5709C13.0473 69.0482 12.884 68.4322 12.884 67.7229C12.884 67.0509 13.0427 66.4582 13.36 65.9449C13.668 65.4315 14.116 65.0349 14.704 64.7549C15.292 64.4655 16.0013 64.3209 16.832 64.3209L17.21 64.3209L17.21 69.6689C17.938 69.6315 18.484 69.4402 18.848 69.0949C19.212 68.7402 19.394 68.2642 19.394 67.6669C19.394 67.2282 19.2913 66.8642 19.086 66.5749C18.8807 66.2855 18.6053 66.0849 18.26 65.9729L18.358 64.4329C19.0487 64.6289 19.6087 65.0162 20.038 65.5949C20.458 66.1642 20.668 66.8595 20.668 67.6809ZM16.09 69.6689L16.09 65.8889C15.4273 65.9355 14.9373 66.1269 14.62 66.4629C14.3027 66.7895 14.144 67.2095 14.144 67.7229C14.144 68.2549 14.312 68.6935 14.648 69.0389C14.9747 69.3749 15.4553 69.5849 16.09 69.6689Z" fill="white"/>
<path d="M18.1201 106.15C19.4867 106.15 20.5996 107.246 20.5996 108.597V118.303C20.5996 118.485 20.5086 118.653 20.3584 118.754L20.291 118.793C20.2438 118.816 20.195 118.829 20.1465 118.837V118.85H20.0488C19.9287 118.85 19.8102 118.812 19.7129 118.734V118.735L15.5 115.517L11.2871 118.734L11.2881 118.735C11.1429 118.847 10.9514 118.878 10.7803 118.822L10.709 118.793C10.5192 118.701 10.4004 118.513 10.4004 118.303V108.597C10.4004 107.246 11.5133 106.15 12.8799 106.15H18.1201ZM12.8789 107.241C12.1189 107.241 11.5012 107.852 11.501 108.598V117.195L15.1631 114.398L15.2402 114.349C15.3209 114.306 15.4102 114.284 15.499 114.284H15.5C15.6183 114.284 15.7371 114.322 15.8359 114.398H15.835L19.4971 117.195V108.598C19.4969 107.852 18.8791 107.241 18.1191 107.241H12.8789Z" fill="white" stroke="white" stroke-width="0.2"/>
</g>
<defs>
<linearGradient id="paint0_linear_7029_408215" x1="22.5" y1="83.9124" x2="34.2426" y2="83.9124" gradientUnits="userSpaceOnUse">
<stop stop-color="#3782C8"/>
<stop offset="1" stop-color="#235B90"/>
</linearGradient>
<clipPath id="clip0_7029_408215">
<rect width="184" height="31" fill="white" transform="translate(0 184) rotate(-90)"/>
</clipPath>
</defs>
</svg>
