<svg width="32" height="32" viewBox="0 0 32 32" fill="none" xmlns="http://www.w3.org/2000/svg">
<path d="M22.0391 8.2666C22.4806 7.82506 23.2189 7.8468 23.6875 8.31543C24.1561 8.78406 24.1779 9.52233 23.7363 9.96387L17.7002 15.999L23.7363 22.0352C24.1779 22.4767 24.1561 23.215 23.6875 23.6836C23.2189 24.1521 22.4806 24.1739 22.0391 23.7324L16.0029 17.6963L9.96777 23.7324C9.52623 24.1739 8.78795 24.1522 8.31934 23.6836C7.85072 23.215 7.82901 22.4767 8.27051 22.0352L14.3057 15.999L8.27051 9.96387C7.82899 9.52235 7.85079 8.78406 8.31934 8.31543C8.78797 7.8468 9.52623 7.82506 9.96777 8.2666L16.0029 14.3018L22.0391 8.2666Z" fill="white"/>
</svg>
