<svg width="15" height="15" viewBox="0 0 15 15" fill="none" xmlns="http://www.w3.org/2000/svg">
<path d="M10.1201 1.15039C11.4867 1.15039 12.5996 2.24582 12.5996 3.59668V13.3027C12.5996 13.4847 12.5086 13.6529 12.3584 13.7539L12.291 13.793C12.2438 13.8162 12.195 13.8287 12.1465 13.8369V13.8496H12.0488C11.9287 13.8496 11.8102 13.8117 11.7129 13.7344V13.7354L7.5 10.5166L3.28711 13.7344L3.28809 13.7354C3.14289 13.8469 2.95139 13.8783 2.78027 13.8223L2.70898 13.793C2.51919 13.7009 2.40042 13.5126 2.40039 13.3027V3.59668C2.40039 2.24582 3.51333 1.15039 4.87988 1.15039H10.1201ZM4.87891 2.24121C4.1189 2.24121 3.50116 2.85172 3.50098 3.59766V12.1953L7.16309 9.39844L7.24023 9.34863C7.32092 9.3056 7.41015 9.28418 7.49902 9.28418H7.5C7.6183 9.28427 7.73705 9.32214 7.83594 9.39844H7.83496L11.4971 12.1953V3.59766C11.4969 2.85172 10.8791 2.24121 10.1191 2.24121H4.87891Z" fill="white" stroke="white" stroke-width="0.2"/>
</svg>
