<svg width="13" height="16" viewBox="0 0 13 16" fill="none" xmlns="http://www.w3.org/2000/svg">
<path d="M9.54297 0.198242C11.2259 0.198242 12.5986 1.54763 12.5986 3.21387V14.8613C12.5986 15.1417 12.4381 15.3986 12.1826 15.5225L12.1816 15.5215C12.1392 15.5423 12.0959 15.5569 12.0527 15.5684V15.5986H11.8574C11.6961 15.5986 11.5345 15.5478 11.4023 15.4424V15.4414L6.39844 11.6201L1.3916 15.4434L1.39258 15.4443C1.16955 15.6157 0.866423 15.6455 0.614258 15.5215C0.359391 15.3977 0.198242 15.1441 0.198242 14.8613V3.21387C0.198289 1.54763 1.57095 0.198242 3.25391 0.198242H9.54297ZM3.25293 1.66797C2.38397 1.66797 1.6798 2.36585 1.67969 3.21582V13.3701L5.94434 10.1133C6.0774 10.0106 6.23725 9.95906 6.39648 9.95898H6.39746C6.5567 9.95898 6.71651 10.0107 6.84961 10.1133L11.1152 13.3701V3.21582C11.1151 2.36587 10.4109 1.668 9.54199 1.66797H3.25293Z" fill="#6FC7ED" stroke="white" stroke-width="0.4"/>
</svg>
