<svg width="167" height="79" viewBox="0 0 167 79" fill="none" xmlns="http://www.w3.org/2000/svg">
<g clip-path="url(#clip0_6162_144704)">
<path d="M167 7.9973L163.224 0.0078125L4 0L0 8H12.8639L167 7.9973Z" fill="#1C4C78"/>
<path d="M151.816 45.9154C149.088 57.116 139.055 64.9989 127.527 64.999L39.763 64.9998C28.2899 64.9999 18.2895 57.1908 15.5083 46.0599L4.00001 1.35857e-06L163 8.39233e-05L151.816 45.9154Z" fill="url(#paint0_linear_6162_144704)"/>
<path d="M75.304 42.448C73.512 42.448 71.9347 42.0373 70.572 41.216C69.2093 40.376 68.1453 39.1813 67.38 37.632C66.6147 36.0827 66.232 34.2347 66.232 32.088C66.232 29.96 66.6053 28.1213 67.352 26.572C68.1173 25.004 69.1813 23.8 70.544 22.96C71.9067 22.1013 73.5027 21.672 75.332 21.672C77.796 21.672 79.7093 22.288 81.072 23.52C82.4347 24.752 83.3213 26.46 83.732 28.644L80.568 28.812C80.3067 27.4493 79.7467 26.3853 78.888 25.62C78.0293 24.836 76.844 24.444 75.332 24.444C74.1187 24.444 73.064 24.752 72.168 25.368C71.2907 25.984 70.6 26.8613 70.096 28C69.6107 29.1387 69.368 30.5013 69.368 32.088C69.368 33.6747 69.6107 35.0373 70.096 36.176C70.6 37.3147 71.3 38.1827 72.196 38.78C73.092 39.3773 74.128 39.676 75.304 39.676C76.9093 39.676 78.1507 39.256 79.028 38.416C79.924 37.5573 80.484 36.3813 80.708 34.888L83.872 35.056C83.6293 36.568 83.144 37.8747 82.416 38.976C81.688 40.0773 80.7267 40.936 79.532 41.552C78.3373 42.1493 76.928 42.448 75.304 42.448ZM90.0082 42C89.0375 42 88.2535 41.748 87.6562 41.244C87.0588 40.74 86.7602 39.9373 86.7602 38.836V22.12H89.7282V38.556C89.7282 38.892 89.8122 39.144 89.9802 39.312C90.1668 39.48 90.4282 39.564 90.7642 39.564H91.9402V42H90.0082ZM100.603 42.336C99.1844 42.336 97.9431 42.0187 96.8791 41.384C95.8151 40.7493 94.9938 39.844 94.4151 38.668C93.8364 37.492 93.5471 36.12 93.5471 34.552C93.5471 32.9653 93.8364 31.5933 94.4151 30.436C94.9938 29.2787 95.8151 28.3827 96.8791 27.748C97.9431 27.0947 99.1844 26.768 100.603 26.768C102.022 26.768 103.263 27.0947 104.327 27.748C105.391 28.3827 106.212 29.2787 106.791 30.436C107.37 31.5933 107.659 32.9653 107.659 34.552C107.659 36.12 107.37 37.492 106.791 38.668C106.212 39.844 105.391 40.7493 104.327 41.384C103.263 42.0187 102.022 42.336 100.603 42.336ZM100.603 39.76C101.872 39.76 102.852 39.3027 103.543 38.388C104.234 37.4547 104.579 36.176 104.579 34.552C104.579 32.928 104.234 31.6587 103.543 30.744C102.852 29.8107 101.872 29.344 100.603 29.344C99.3524 29.344 98.3724 29.8107 97.6631 30.744C96.9724 31.6587 96.6271 32.928 96.6271 34.552C96.6271 36.176 96.9724 37.4547 97.6631 38.388C98.3724 39.3027 99.3524 39.76 100.603 39.76ZM116.399 42.336C114.999 42.336 113.813 42.1213 112.843 41.692C111.891 41.2627 111.153 40.6747 110.631 39.928C110.108 39.1627 109.809 38.2853 109.735 37.296L112.787 37.156C112.936 37.9773 113.291 38.6307 113.851 39.116C114.411 39.6013 115.26 39.844 116.399 39.844C117.332 39.844 118.069 39.6947 118.611 39.396C119.152 39.0973 119.423 38.6213 119.423 37.968C119.423 37.6133 119.329 37.3147 119.143 37.072C118.975 36.8107 118.639 36.596 118.135 36.428C117.631 36.2413 116.884 36.064 115.895 35.896C114.42 35.616 113.263 35.2893 112.423 34.916C111.583 34.5427 110.985 34.0667 110.631 33.488C110.276 32.9093 110.099 32.2093 110.099 31.388C110.099 30.0253 110.603 28.9147 111.611 28.056C112.637 27.1973 114.112 26.768 116.035 26.768C117.323 26.768 118.405 26.992 119.283 27.44C120.16 27.8693 120.841 28.4573 121.327 29.204C121.831 29.932 122.148 30.7533 122.279 31.668L119.227 31.836C119.133 31.3133 118.947 30.8653 118.667 30.492C118.405 30.1 118.051 29.8013 117.603 29.596C117.155 29.372 116.623 29.26 116.007 29.26C115.055 29.26 114.345 29.4467 113.879 29.82C113.412 30.1933 113.179 30.6787 113.179 31.276C113.179 31.724 113.281 32.088 113.487 32.368C113.711 32.648 114.065 32.8813 114.551 33.068C115.036 33.236 115.68 33.3853 116.483 33.516C118.032 33.7773 119.245 34.104 120.123 34.496C121 34.8693 121.616 35.336 121.971 35.896C122.325 36.456 122.503 37.1373 122.503 37.94C122.503 38.8733 122.241 39.6667 121.719 40.32C121.196 40.9733 120.477 41.4773 119.563 41.832C118.648 42.168 117.593 42.336 116.399 42.336ZM131.638 42.336C130.182 42.336 128.922 42.0187 127.858 41.384C126.813 40.7493 126.001 39.844 125.422 38.668C124.862 37.492 124.582 36.12 124.582 34.552C124.582 32.984 124.862 31.6213 125.422 30.464C126.001 29.288 126.813 28.3827 127.858 27.748C128.904 27.0947 130.136 26.768 131.554 26.768C132.898 26.768 134.084 27.0853 135.11 27.72C136.137 28.336 136.93 29.232 137.49 30.408C138.069 31.584 138.358 33.0027 138.358 34.664V35.42H127.662C127.737 36.876 128.12 37.968 128.81 38.696C129.52 39.424 130.472 39.788 131.666 39.788C132.544 39.788 133.272 39.5827 133.85 39.172C134.429 38.7613 134.83 38.2107 135.054 37.52L138.134 37.716C137.742 39.0973 136.968 40.2173 135.81 41.076C134.672 41.916 133.281 42.336 131.638 42.336ZM127.662 33.18H135.222C135.129 31.8547 134.746 30.8747 134.074 30.24C133.421 29.6053 132.581 29.288 131.554 29.288C130.49 29.288 129.613 29.624 128.922 30.296C128.25 30.9493 127.83 31.9107 127.662 33.18Z" fill="white"/>
<path d="M45.8887 20.0835C48.4737 20.0835 50.5811 22.156 50.5811 24.7134V42.8315C50.5811 43.2437 50.3445 43.6194 49.9688 43.8022L49.9697 43.8032C49.8922 43.8414 49.8126 43.8678 49.7334 43.8853V43.9165H49.4883C49.2503 43.9164 49.0132 43.8416 48.8193 43.687V43.686L40.998 37.7114L33.1729 43.6899C32.8441 43.9424 32.3969 43.9864 32.0254 43.8032V43.8022C31.6504 43.6196 31.4141 43.2473 31.4141 42.8315V24.7134C31.4141 22.1561 33.5206 20.0837 36.1055 20.0835H45.8887ZM36.1045 22.2476C34.7198 22.2476 33.5967 23.3595 33.5967 24.7163V40.6362L40.3301 35.4937C40.5261 35.3427 40.7607 35.2671 40.9951 35.2671H40.9971C41.2312 35.2672 41.4653 35.3429 41.6611 35.4937L48.3955 40.6372V24.7163C48.3955 23.3596 47.2722 22.2478 45.8877 22.2476H36.1045Z" fill="white" stroke="white" stroke-width="0.5"/>
</g>
<defs>
<linearGradient id="paint0_linear_6162_144704" x1="75.1186" y1="5.46943" x2="75.1186" y2="-2.72314" gradientUnits="userSpaceOnUse">
<stop stop-color="#3782C8"/>
<stop offset="1" stop-color="#26629A"/>
</linearGradient>
<clipPath id="clip0_6162_144704">
<rect width="167" height="78.9999" fill="white" transform="translate(167 79) rotate(-180)"/>
</clipPath>
</defs>
</svg>
