<svg xmlns="http://www.w3.org/2000/svg" viewBox="0 0 377 570" fill="none" preserveAspectRatio="none">
  <!-- Subtract.svg path (top) -->
  <path d="M333.677 0C350.044 0 358.228 -0.00038537 364.239 3.68359C367.603 5.74495 370.431 8.5737 372.492 11.9375C376.176 17.9492 376.177 26.1328 376.177 42.5V222.5C376.177 238.867 376.176 247.051 372.492 253.062C370.431 256.426 367.603 259.255 364.239 261.316C358.228 265 350.044 265 333.677 265H0.367188C16.7342 265 24.918 265 30.9297 261.316C34.2936 259.255 37.1222 256.426 39.1836 253.062C42.8675 247.051 42.8672 238.867 42.8672 222.5V42.5C42.8672 26.133 42.8675 17.9492 39.1836 11.9375C37.1222 8.57361 34.2936 5.74499 30.9297 3.68359C24.918 -0.000311808 16.7342 0 0.367188 0H333.677Z" fill="white" fill-opacity="0.08"/>
  <!-- HorizontalSubtract.svg path (middle, centered horizontally, shifted down by 265 units) -->
  <g transform="translate(130,265)">
    <path d="M209 0.0244141C208.669 0.00810164 208.335 0 208 0C196.954 0 188 8.9543 188 20C188 31.0457 196.954 40 208 40H0C11.0457 40 20 31.0457 20 20C20 8.9543 11.0457 0 0 0H209V0.0244141ZM209 40H208C208.335 40 208.669 39.9909 209 39.9746V40Z" fill="white" fill-opacity="0.08"/>
  </g>
  <!-- Subtract.svg path (bottom, shifted down by 305 units) -->
  <g transform="translate(0,305)">
    <path d="M333.677 0C350.044 0 358.228 -0.00038537 364.239 3.68359C367.603 5.74495 370.431 8.5737 372.492 11.9375C376.176 17.9492 376.177 26.1328 376.177 42.5V222.5C376.177 238.867 376.176 247.051 372.492 253.062C370.431 256.426 367.603 259.255 364.239 261.316C358.228 265 350.044 265 333.677 265H0.367188C16.7342 265 24.918 265 30.9297 261.316C34.2936 259.255 37.1222 256.426 39.1836 253.062C42.8675 247.051 42.8672 238.867 42.8672 222.5V42.5C42.8672 26.133 42.8675 17.9492 39.1836 11.9375C37.1222 8.57361 34.2936 5.74499 30.9297 3.68359C24.918 -0.000311808 16.7342 0 0.367188 0H333.677Z" fill="white" fill-opacity="0.08"/>
  </g>
</svg>