<svg width="600" height="600" viewBox="30 50 600 600" fill="none" xmlns="http://www.w3.org/2000/svg">
<ellipse cx="317.515" cy="451.762" rx="22.5934" ry="8.26978" stroke="white" stroke-width="1.16632"/>
<ellipse cx="147.864" cy="387.317" rx="18.5589" ry="5.7485" stroke="white" stroke-width="1.16632"/>
<path d="M334.457 456.979C336.622 455.81 337.884 454.404 337.884 452.893C337.884 448.829 328.765 445.535 317.516 445.535C306.267 445.535 297.148 448.829 297.148 452.893C297.148 454.404 298.411 455.81 300.576 456.979" stroke="white" stroke-width="0.466527" stroke-linecap="round"/>
<path d="M161.764 390.9C163.539 390.106 164.575 389.152 164.575 388.126C164.575 385.367 157.095 383.131 147.869 383.131C138.643 383.131 131.164 385.367 131.164 388.126C131.164 389.152 132.199 390.106 133.975 390.9" stroke="white" stroke-width="0.466527" stroke-linecap="round"/>
<path d="M368.961 434.012L369.243 433.502L368.961 434.012ZM241.066 375.015L241.258 374.464L241.105 374.41L240.946 374.444L241.066 375.015ZM373.5 421.003L373.667 421.561C373.91 421.489 374.078 421.268 374.083 421.015C374.089 420.762 373.93 420.535 373.691 420.452L373.5 421.003ZM232.108 460.716L232.335 460.179V460.179L232.108 460.716ZM113.865 410.555L113.637 411.091L113.865 410.555ZM114.001 408.651L113.851 408.088L113.851 408.088L114.001 408.651ZM246.109 458.851L246.284 459.407L246.291 459.405L246.109 458.851ZM239.059 461.057L238.885 460.5V460.5L239.059 461.057ZM121.14 406.762L121.289 407.326L121.299 407.323L121.308 407.32L121.14 406.762ZM124.266 394.547L124.032 395.081L124.037 395.083L124.266 394.547ZM205.26 372.167L205.465 371.621L205.462 371.62L205.26 372.167ZM207.176 372.886L207.417 372.354L207.399 372.346L207.381 372.34L207.176 372.886ZM342.274 461.746L342.057 461.205L342.274 461.746ZM141.69 377.503L141.848 378.065L141.69 377.503ZM316.916 465.881V465.298C306.896 465.298 297.899 463.69 291.616 461.141L291.397 461.682L291.178 462.222C297.636 464.842 306.79 466.464 316.916 466.464V465.881ZM368.961 434.012L368.679 434.523C370.884 435.741 372.784 437.073 374.191 438.461C375.603 439.853 376.479 441.26 376.722 442.626C376.959 443.961 376.606 445.339 375.384 446.744C374.145 448.168 372.017 449.611 368.735 450.994L368.961 451.531L369.188 452.069C372.55 450.652 374.86 449.123 376.264 447.509C377.684 445.876 378.177 444.151 377.87 442.422C377.569 440.725 376.511 439.111 375.01 437.63C373.503 436.145 371.507 434.752 369.243 433.502L368.961 434.012ZM241.066 375.015L240.875 375.565L373.309 421.553L373.5 421.003L373.691 420.452L241.258 374.464L241.066 375.015ZM232.108 460.716L232.335 460.179L114.093 410.018L113.865 410.555L113.637 411.091L231.88 461.253L232.108 460.716ZM113.865 410.555L114.093 410.018C113.719 409.859 113.758 409.319 114.15 409.215L114.001 408.651L113.851 408.088C112.385 408.476 112.241 410.499 113.637 411.091L113.865 410.555ZM266.08 455.796V456.379C276.851 456.379 284.859 459.454 291.367 462.281L291.599 461.746L291.831 461.211C285.274 458.363 277.091 455.213 266.08 455.213V455.796ZM246.109 458.851L246.291 459.405C252.178 457.481 259.48 456.379 266.08 456.379V455.796V455.213C259.367 455.213 251.943 456.33 245.928 458.296L246.109 458.851ZM239.059 461.057L239.234 461.613L246.284 459.407L246.109 458.851L245.935 458.294L238.885 460.5L239.059 461.057ZM114.001 408.651L114.15 409.215L121.289 407.326L121.14 406.762L120.991 406.198L113.851 408.088L114.001 408.651ZM232.108 460.716L231.88 461.253C234.211 462.241 236.817 462.369 239.234 461.613L239.059 461.057L238.885 460.5C236.733 461.173 234.411 461.06 232.335 460.179L232.108 460.716ZM368.961 434.012L369.243 433.502C366.566 432.023 365.409 430.01 365.409 428.258H364.826H364.243C364.243 430.554 365.748 432.903 368.679 434.523L368.961 434.012ZM364.826 428.258H365.409C365.409 426.994 365.907 425.809 367.171 424.693C368.456 423.559 370.533 422.499 373.667 421.561L373.5 421.003L373.333 420.444C370.126 421.404 367.865 422.524 366.399 423.819C364.911 425.132 364.243 426.625 364.243 428.258H364.826ZM124.266 394.547L124.501 394.013C122.58 393.17 121.052 392.202 120.014 391.186C118.972 390.168 118.469 389.151 118.469 388.194H117.886H117.303C117.303 389.579 118.03 390.878 119.198 392.02C120.37 393.166 122.032 394.203 124.032 395.081L124.266 394.547ZM183.07 368.852V369.435C191.81 369.435 199.644 370.707 205.057 372.714L205.26 372.167L205.462 371.62C199.884 369.552 191.904 368.268 183.07 368.268V368.852ZM227.552 376.315V375.731C219.234 375.731 211.911 374.387 207.417 372.354L207.176 372.886L206.936 373.417C211.636 375.543 219.142 376.898 227.552 376.898V376.315ZM241.066 375.015L240.946 374.444C237.082 375.258 232.487 375.731 227.552 375.731V376.315V376.898C232.558 376.898 237.234 376.418 241.187 375.585L241.066 375.015ZM124.266 394.547L124.037 395.083C125.765 395.823 127.108 396.663 128.01 397.541C128.911 398.42 129.332 399.295 129.332 400.126H129.915H130.498C130.498 398.875 129.862 397.718 128.824 396.706C127.785 395.694 126.304 394.785 124.496 394.011L124.266 394.547ZM129.915 400.126H129.332C129.332 401.177 128.656 402.277 127.199 403.356C125.753 404.426 123.629 405.401 120.971 406.204L121.14 406.762L121.308 407.32C124.034 406.497 126.298 405.474 127.893 404.293C129.478 403.12 130.498 401.716 130.498 400.126H129.915ZM207.176 372.886L207.381 372.34L205.465 371.621L205.26 372.167L205.055 372.713L206.971 373.432L207.176 372.886ZM342.274 461.746L342.057 461.205C335.782 463.717 326.851 465.298 316.916 465.298V465.881V466.464C326.957 466.464 336.043 464.868 342.491 462.288L342.274 461.746ZM368.961 451.531L368.735 450.994C362.102 453.788 358.045 455.295 354.345 456.625C350.642 457.956 347.28 459.115 342.057 461.205L342.274 461.746L342.491 462.288C347.689 460.207 351.027 459.057 354.74 457.723C358.456 456.387 362.532 454.872 369.188 452.069L368.961 451.531ZM117.886 388.194H118.469C118.469 387.427 118.971 386.614 120.148 385.736C121.313 384.868 123.027 384.024 125.185 383.181C129.497 381.496 135.412 379.877 141.848 378.065L141.69 377.503L141.532 376.942C135.127 378.746 129.14 380.383 124.76 382.094C122.572 382.949 120.743 383.838 119.451 384.801C118.172 385.755 117.303 386.87 117.303 388.194H117.886ZM141.69 377.503L141.848 378.065C149.261 375.977 157.37 373.817 164.733 372.18C172.11 370.54 178.691 369.435 183.07 369.435V368.852V368.268C178.551 368.268 171.859 369.401 164.48 371.042C157.086 372.686 148.953 374.852 141.532 376.942L141.69 377.503Z" fill="white"/>
<path d="M289.126 473.653C296.052 476.319 305.517 477.18 316.47 477.18C327.788 477.18 338.131 475.296 345.568 472.038C356.201 468.406 378.769 460.592 382.658 454.517C386.546 448.442 384.952 440.385 372.008 432.136M289.345 473.719C282.242 470.79 278.121 468.406 266.28 468.406C256.94 468.406 250.284 471.703 241.366 474.352C236.727 476.254 230.977 477.18 227.28 475.277L106.739 423.715C106.21 423.489 105.975 422.872 106.225 422.354C107.257 420.22 109.784 414.992 111.188 412.103C111.763 410.92 112.552 409.856 113.514 408.958L113.572 408.904M119.019 385.805C117.506 387.116 116.397 388.931 114.581 393.167C112.967 396.932 116.497 400.081 120.229 401.739C123.054 402.994 122.347 406.177 119.422 407.185" stroke="white" stroke-width="1.16632"/>
<ellipse cx="239.05" cy="416.161" rx="76.2527" ry="23.9017" stroke="white" stroke-width="1.16632"/>
<ellipse cx="239.046" cy="417.876" rx="67.7802" ry="18.96" stroke="white" stroke-width="1.16632"/>
<path d="M303.8 423.523C303.185 422.296 302.108 421.11 300.619 419.977C291.595 413.109 267.433 408.193 239.043 408.193C210.654 408.193 186.492 413.109 177.468 419.977C175.981 421.108 174.905 422.293 174.289 423.518" stroke="white" stroke-width="1.16632"/>
<path d="M312.437 449.395C312.93 449.403 313.437 449.488 313.832 449.664L317.842 451.446L322.222 449.808C322.643 449.65 323.161 449.583 323.655 449.592C324.149 449.6 324.656 449.686 325.051 449.861C325.413 450.022 325.778 450.314 325.732 450.75C325.711 450.957 325.595 451.125 325.455 451.25C325.315 451.375 325.131 451.476 324.921 451.555L321.208 452.942L324.567 454.437C324.929 454.597 325.296 454.889 325.25 455.325C325.228 455.532 325.113 455.7 324.973 455.825C324.832 455.95 324.648 456.051 324.438 456.13C324.016 456.287 323.499 456.354 323.004 456.346C322.511 456.337 322.004 456.253 321.609 456.077L317.598 454.294L313.219 455.933C312.798 456.09 312.28 456.158 311.785 456.149C311.292 456.141 310.786 456.055 310.391 455.88C310.029 455.719 309.662 455.427 309.708 454.991C309.73 454.784 309.845 454.617 309.985 454.491C310.125 454.366 310.309 454.265 310.52 454.187L314.231 452.798L310.873 451.305C310.511 451.144 310.146 450.852 310.191 450.416C310.213 450.209 310.328 450.041 310.468 449.916C310.608 449.791 310.792 449.69 311.003 449.611C311.424 449.454 311.942 449.386 312.437 449.395Z" stroke="white" stroke-width="0.69979"/>
<path d="M144.621 384.967C145.03 384.973 145.446 385.038 145.767 385.169L149.173 386.561L152.891 385.282C153.234 385.164 153.659 385.113 154.068 385.119C154.477 385.126 154.893 385.19 155.214 385.321C155.374 385.387 155.511 385.469 155.608 385.571C155.708 385.677 155.776 385.816 155.758 385.976C155.74 386.13 155.648 386.252 155.538 386.343C155.427 386.434 155.28 386.508 155.108 386.567L151.894 387.673L154.808 388.863C154.968 388.929 155.105 389.011 155.202 389.113C155.302 389.219 155.37 389.359 155.352 389.519C155.334 389.672 155.242 389.795 155.132 389.886C155.021 389.977 154.874 390.05 154.702 390.109C154.359 390.228 153.933 390.279 153.523 390.272C153.115 390.266 152.7 390.201 152.379 390.07L148.972 388.678L145.255 389.957C144.911 390.075 144.486 390.127 144.076 390.12C143.668 390.114 143.252 390.049 142.931 389.918C142.771 389.853 142.634 389.77 142.536 389.668C142.436 389.563 142.369 389.423 142.387 389.264C142.404 389.11 142.497 388.987 142.607 388.896C142.718 388.805 142.865 388.731 143.036 388.672L146.25 387.565L143.338 386.376C143.178 386.311 143.041 386.228 142.943 386.126C142.843 386.021 142.775 385.881 142.793 385.721C142.811 385.567 142.904 385.444 143.014 385.354C143.124 385.263 143.271 385.189 143.442 385.13C143.786 385.012 144.212 384.96 144.621 384.967Z" stroke="white" stroke-width="0.466527"/>
<path d="M237.43 375.721L241.868 374.532V215.166" stroke="white" stroke-width="1.16632"/>
<path d="M240.061 380.665L129.675 410.601C128.563 410.903 128.461 412.439 129.523 412.885L230.26 455.17C232.156 455.966 234.27 456.079 236.24 455.49L354.327 420.173C355.457 419.835 355.486 418.247 354.37 417.868L245.237 380.826C243.566 380.259 241.764 380.203 240.061 380.665Z" stroke="white" stroke-width="0.466527"/>
<path d="M236.023 395.588C236.023 396.646 235.165 397.504 234.106 397.504C233.048 397.504 232.19 396.646 232.19 395.588C232.19 394.53 233.048 393.672 234.106 393.672C235.165 393.672 236.023 394.53 236.023 395.588Z" stroke="white" stroke-width="0.466527"/>
<path d="M227.348 395.991C227.348 397.05 226.49 397.908 225.432 397.908C224.374 397.908 223.516 397.05 223.516 395.991C223.516 394.933 224.374 394.075 225.432 394.075C226.49 394.075 227.348 394.933 227.348 395.991Z" stroke="white" stroke-width="0.466527"/>
<path d="M218.876 396.597C218.876 397.655 218.018 398.513 216.96 398.513C215.901 398.513 215.043 397.655 215.043 396.597C215.043 395.538 215.901 394.68 216.96 394.68C218.018 394.68 218.876 395.538 218.876 396.597Z" stroke="white" stroke-width="0.466527"/>
<path d="M210.605 397.403C210.605 398.462 209.837 399.32 208.89 399.32C207.943 399.32 207.176 398.462 207.176 397.403C207.176 396.345 207.943 395.487 208.89 395.487C209.837 395.487 210.605 396.345 210.605 397.403Z" stroke="white" stroke-width="0.466527"/>
<path d="M202.94 398.614C202.94 399.672 202.172 400.53 201.225 400.53C200.278 400.53 199.51 399.672 199.51 398.614C199.51 397.555 200.278 396.697 201.225 396.697C202.172 396.697 202.94 397.555 202.94 398.614Z" stroke="white" stroke-width="0.466527"/>
<path d="M195.476 400.429C195.476 401.487 194.753 402.345 193.862 402.345C192.971 402.345 192.248 401.487 192.248 400.429C192.248 399.371 192.971 398.513 193.862 398.513C194.753 398.513 195.476 399.371 195.476 400.429Z" stroke="white" stroke-width="0.466527"/>
<path d="M188.615 402.175C188.66 403.233 187.975 404.12 187.085 404.158C186.194 404.196 185.436 403.37 185.391 402.313C185.346 401.255 186.031 400.367 186.922 400.33C187.812 400.292 188.57 401.118 188.615 402.175Z" stroke="white" stroke-width="0.466527"/>
<path d="M182.563 404.19C182.617 405.247 182.029 406.135 181.25 406.175C180.471 406.214 179.796 405.39 179.743 404.333C179.689 403.276 180.277 402.387 181.056 402.348C181.835 402.308 182.51 403.133 182.563 404.19Z" stroke="white" stroke-width="0.466527"/>
<path d="M177.077 406.501C177.282 407.634 176.916 408.648 176.258 408.768C175.6 408.887 174.901 408.066 174.695 406.934C174.49 405.801 174.856 404.787 175.514 404.668C176.172 404.548 176.871 405.369 177.077 406.501Z" stroke="white" stroke-width="0.466527"/>
<path d="M172.565 409.568C172.922 410.865 172.777 412.036 172.24 412.184C171.703 412.332 170.978 411.401 170.62 410.104C170.263 408.807 170.408 407.636 170.945 407.488C171.482 407.34 172.208 408.271 172.565 409.568Z" stroke="white" stroke-width="0.466527"/>
<path d="M169.278 412.782C170.073 413.868 170.401 414.979 170.011 415.265C169.621 415.55 168.661 414.901 167.866 413.816C167.071 412.73 166.743 411.619 167.133 411.334C167.523 411.048 168.483 411.697 169.278 412.782Z" stroke="white" stroke-width="0.466527"/>
<path d="M244.899 395.588C244.899 396.646 244.041 397.504 242.982 397.504C241.924 397.504 241.066 396.646 241.066 395.588C241.066 394.53 241.924 393.672 242.982 393.672C244.041 393.672 244.899 394.53 244.899 395.588Z" stroke="white" stroke-width="0.466527"/>
<path d="M253.371 395.991C253.371 397.05 252.513 397.908 251.455 397.908C250.396 397.908 249.538 397.05 249.538 395.991C249.538 394.933 250.396 394.075 251.455 394.075C252.513 394.075 253.371 394.933 253.371 395.991Z" stroke="white" stroke-width="0.466527"/>
<path d="M261.44 396.597C261.44 397.655 260.582 398.513 259.524 398.513C258.466 398.513 257.608 397.655 257.608 396.597C257.608 395.538 258.466 394.68 259.524 394.68C260.582 394.68 261.44 395.538 261.44 396.597Z" stroke="white" stroke-width="0.466527"/>
<path d="M268.702 397.202C268.702 398.26 267.935 399.118 266.988 399.118C266.041 399.118 265.273 398.26 265.273 397.202C265.273 396.143 266.041 395.285 266.988 395.285C267.935 395.285 268.702 396.143 268.702 397.202Z" stroke="white" stroke-width="0.466527"/>
<path d="M275.763 398.412C275.763 399.47 274.995 400.328 274.048 400.328C273.101 400.328 272.334 399.47 272.334 398.412C272.334 397.354 273.101 396.496 274.048 396.496C274.995 396.496 275.763 397.354 275.763 398.412Z" stroke="white" stroke-width="0.466527"/>
<path d="M282.42 399.622C282.42 400.68 281.743 401.538 280.907 401.538C280.071 401.538 279.394 400.68 279.394 399.622C279.394 398.564 280.071 397.706 280.907 397.706C281.743 397.706 282.42 398.564 282.42 399.622Z" stroke="white" stroke-width="0.466527"/>
<path d="M288.27 401.034C288.27 402.092 287.593 402.95 286.757 402.95C285.921 402.95 285.244 402.092 285.244 401.034C285.244 399.976 285.921 399.118 286.757 399.118C287.593 399.118 288.27 399.976 288.27 401.034Z" stroke="white" stroke-width="0.466527"/>
<path d="M294.317 402.967C294.235 404.022 293.494 404.825 292.661 404.76C291.828 404.695 291.219 403.788 291.3 402.732C291.382 401.677 292.124 400.874 292.957 400.939C293.79 401.004 294.399 401.911 294.317 402.967Z" stroke="white" stroke-width="0.466527"/>
<path d="M299.379 404.972C299.249 406.022 298.561 406.802 297.842 406.713C297.123 406.624 296.646 405.7 296.776 404.65C296.906 403.6 297.594 402.82 298.312 402.909C299.031 402.998 299.508 403.922 299.379 404.972Z" stroke="white" stroke-width="0.466527"/>
<path d="M303.503 407.32C303.208 408.337 302.535 409.035 302 408.88C301.465 408.725 301.27 407.775 301.565 406.759C301.86 405.742 302.532 405.044 303.067 405.199C303.602 405.354 303.797 406.304 303.503 407.32Z" stroke="white" stroke-width="0.466527"/>
<path d="M307.032 409.826C306.621 410.879 305.867 411.568 305.348 411.366C304.829 411.163 304.742 410.145 305.153 409.092C305.564 408.039 306.318 407.35 306.837 407.553C307.356 407.755 307.443 408.773 307.032 409.826Z" stroke="white" stroke-width="0.466527"/>
<path d="M309.809 413.047C309.074 413.99 308.154 414.502 307.755 414.191C307.355 413.879 307.626 412.862 308.361 411.919C309.095 410.976 310.015 410.464 310.414 410.775C310.814 411.086 310.543 412.103 309.809 413.047Z" stroke="white" stroke-width="0.466527"/>
<path d="M311.326 416.898C310.218 417.626 309.123 417.916 308.881 417.548C308.639 417.179 309.341 416.29 310.45 415.563C311.558 414.835 312.653 414.544 312.895 414.913C313.137 415.282 312.435 416.171 311.326 416.898Z" stroke="white" stroke-width="0.466527"/>
<path d="M372.395 432.381C369.772 430.465 370.687 428.829 374.715 427.44L404.086 418.809M551.889 376.4L500.648 391.518" stroke="white" stroke-width="1.16632"/>
<path d="M540.598 325.295L489.282 339.2M375.617 369.61L398.054 363.46" stroke="white" stroke-width="1.16632"/>
<path d="M540.598 322.229L483.517 337.561M375.617 366.544L405.768 358.445" stroke="white" stroke-width="0.466527"/>
<path d="M306.525 495.903C289.065 501.627 276.367 519.023 276.367 539.594V618.419C276.367 633.601 291.274 644.298 305.659 639.44L306.525 639.147L368.498 613.252L556.921 536.867L590.254 523.572L596.504 520.873C611.566 514.37 621.32 499.535 621.32 483.13V418.687C621.32 402.349 613.654 395.071 603.064 397.909C597.113 399.503 310.481 494.606 306.525 495.903Z" stroke="white" stroke-width="3.03242"/>
<path d="M285.1 605.63V577.861V542.397C285.1 523.971 296.455 508.39 312.07 503.263C315.607 502.101 598.382 406.523 602.68 405.486C609.991 403.721 616 406.183 616 421.225L615.939 483.223C615.939 498.728 604.558 512.686 590.213 518.525L371.531 607.35L307.098 633.778C296.555 638.103 285 630.339 285 618.931V605.63" stroke="white" stroke-width="1.03837"/>
<path d="M615.5 486.492L496.5 441.492M593.5 516.992L443 459.492" stroke="white" stroke-width="1.4"/>
<path d="M139.195 103.625L259.425 127.628" stroke="white" stroke-width="1.39958"/>
<path d="M234.91 198.223L203.082 190.026C202.344 189.836 201.625 190.393 201.625 191.155V204.904C201.625 207.028 203.059 208.883 205.114 209.419L230.803 216.112C233.506 216.817 236.334 216.905 239.076 216.371L273.742 209.619L234.91 198.223Z" stroke="white" stroke-width="0.930089"/>
<path d="M127.563 381.739C97.0421 389.669 66.8962 397.512 65.8606 397.841C52.3041 402.149 42.3594 416.305 42.3594 433.104L42.4248 486.253C42.4465 503.876 52.3973 519.983 68.1476 527.89L288.97 638.739M173.456 369.737C220.865 357.449 240.202 352.625 241.867 352.625" stroke="white" stroke-width="1.39958"/>
<path d="M276.363 537.99L42.4609 433.307" stroke="white" stroke-width="2.09937"/>
<path d="M372.996 243.806L264.164 211.635" stroke="white" stroke-width="2.09937"/>
<path d="M201.422 191.465L133.844 168.168" stroke="white" stroke-width="0.930089"/>
<path opacity="0.2" d="M238.888 392.514C280.911 392.514 314.977 403.045 314.978 416.036C314.978 429.027 280.911 439.559 238.888 439.559C196.864 439.559 162.797 429.027 162.797 416.036C162.797 403.045 196.864 392.514 238.888 392.514ZM238.887 407.95C207.066 407.95 180.52 414.511 174.411 423.23C182.686 430.971 208.42 436.618 238.887 436.618C269.353 436.618 295.086 430.971 303.361 423.23C297.252 414.512 270.707 407.95 238.887 407.95Z" fill="#D9D9D9"/>
<path d="M238.882 407.949C270.703 407.949 297.247 414.511 303.356 423.229C295.082 430.97 269.349 436.617 238.882 436.617C208.415 436.617 182.681 430.97 174.406 423.229C180.515 414.51 207.061 407.949 238.882 407.949Z" fill="#713ADA" fill-opacity="0.1"/>
<path d="M235.75 198.568L202.276 189.94C202.01 194.079 201.476 202.744 201.476 204.302C201.476 206.248 202.276 208.683 205.103 209.278C207.93 209.873 221.914 212.997 226.229 214.931C229.68 216.478 234.014 216.666 235.75 216.567V198.568Z" fill="#D9D9D9" fill-opacity="0.07"/>
<path d="M259.432 127.738L139.06 103.664C138.524 104.328 137.436 105.815 137.369 106.45C137.286 107.243 130.21 160.863 130.21 161.113C130.21 161.363 130.352 164.003 130.709 165.002C130.995 165.801 132.412 167.002 133.085 167.503L265.059 199.318H266.619C265.784 197.949 264.081 194.866 263.95 193.486C263.785 191.761 258.651 132.502 258.487 130.613C258.356 129.101 259.062 128.067 259.432 127.738Z" fill="#D9D9D9" fill-opacity="0.07"/>
<path d="M373.548 243.915L265.059 211.273L241.949 215.863L241.559 364.133V374.962L372.669 420.728C373.03 420.728 373.854 420.651 374.262 420.346L374.325 420.298C374.803 419.941 375.154 419.679 375.154 419.008V372.63C374.941 336.531 374.644 262.815 375.154 256.75C375.663 250.685 374.296 245.667 373.548 243.915Z" fill="#D9D9D9" fill-opacity="0.07"/>
<path d="M276.315 537.971L42.4446 433.57L41.9141 473.647C42.1605 480.977 42.4446 496.376 42.4446 496.376C42.4446 496.376 235.513 589.169 276.315 608.749V537.971Z" fill="#D9D9D9" fill-opacity="0.07"/>
<path d="M119.294 391.15C118.04 389.966 117.959 388.334 118.075 387.666C117.378 387.666 114.33 393.066 114.069 394.807C113.807 396.549 115.723 398.987 117.03 400.033C118.336 401.078 121.559 402.384 121.994 403.864C122.343 405.049 120.804 406.448 119.991 406.999C120.194 407.144 121.524 406.982 125.217 405.171C129.833 402.906 129.397 401.426 129.746 400.033C130.094 398.639 128.265 396.636 126.262 395.417C124.259 394.198 120.862 392.63 119.294 391.15Z" fill="#D9D9D9" fill-opacity="0.07"/>
<path d="M336.182 474.727L334.526 464.797C330.677 465.079 322.345 465.643 319.813 465.643H307.439L306.959 476.769C308.465 476.961 312.906 477.345 318.626 477.345C324.347 477.345 332.713 475.6 336.182 474.727Z" fill="#D9D9D9" fill-opacity="0.07"/>
<path d="M293.629 475.251L295.757 463.252L290.565 461.635C289.516 464.642 287.297 471.115 286.821 472.953C287.774 473.566 291.757 474.74 293.629 475.251Z" fill="#D9D9D9" fill-opacity="0.07"/>
<path d="M231.467 476.35L235.263 461.635L232.885 461.022L113.956 410.746L113.054 409.769L111.551 411.272C109.834 414.629 106.357 421.553 106.177 422.394C105.996 423.236 106.903 423.847 107.379 424.048C145.564 440.333 222.535 473.174 224.933 474.248C227.332 475.321 230.288 476.097 231.467 476.35Z" fill="#D9D9D9" fill-opacity="0.07"/>
<path d="M281.876 516.676C283.966 510.982 285.169 511.215 286.821 509.684L50.2942 409.057C48.8483 410.664 47.2149 412.485 46.3275 415.139C45.4401 417.793 44.2083 421.013 43.3926 424.048L277.956 526.83C278.257 525.118 279.786 522.369 281.876 516.676Z" fill="#D9D9D9" fill-opacity="0.07"/>
<path d="M483.295 340.985H482.712V341.76L483.456 341.545L483.295 340.985ZM403.766 361.731L403.913 362.295V362.295L403.766 361.731ZM489.996 339.053L490.158 339.613L489.996 339.053ZM397.016 365.672H396.432L396.432 365.672L397.016 365.672ZM399.128 362.939L398.981 362.375V362.375L399.128 362.939ZM399.327 412.304L399.168 411.743L399.327 412.304ZM397.063 412.964L396.48 412.964C396.48 413.148 396.567 413.322 396.715 413.432C396.863 413.542 397.054 413.575 397.23 413.522L397.063 412.964ZM490.262 386.471L490.103 385.91L490.262 386.471ZM492.315 385.866L492.487 386.423L492.898 386.296V385.866H492.315ZM481.036 329.097L481.178 329.662L481.036 329.097ZM408.013 347.491L407.87 346.926L408.013 347.491ZM408.013 347.491L408.155 348.057L481.178 329.662L481.036 329.097L480.893 328.531L407.87 346.926L408.013 347.491ZM490.262 386.471L490.103 385.91L399.168 411.743L399.327 412.304L399.487 412.865L490.422 387.032L490.262 386.471ZM397.063 412.964L397.646 412.963L397.599 365.671L397.016 365.672L396.432 365.672L396.48 412.964L397.063 412.964ZM492.315 340.797H491.731V385.866H492.315H492.898V340.797H492.315ZM483.295 330.857H482.712V340.985H483.295H483.878V330.857H483.295ZM483.295 340.985L483.456 341.545L490.158 339.613L489.996 339.053L489.834 338.492L483.133 340.425L483.295 340.985ZM399.128 362.939L399.275 363.504L403.913 362.295L403.766 361.731L403.619 361.167L398.981 362.375L399.128 362.939ZM405.878 358.998H406.462V350.229H405.878H405.295V358.998H405.878ZM403.766 361.731L403.913 362.295C405.414 361.904 406.462 360.549 406.462 358.998H405.878H405.295C405.295 360.018 404.606 360.91 403.619 361.167L403.766 361.731ZM492.315 340.797H492.898C492.898 339.201 491.368 338.05 489.834 338.492L489.996 339.053L490.158 339.613C490.946 339.386 491.731 339.977 491.731 340.797H492.315ZM397.016 365.672H397.599C397.599 364.652 398.288 363.761 399.275 363.504L399.128 362.939L398.981 362.375C397.48 362.766 396.432 364.121 396.432 365.672H397.016ZM399.327 412.304L399.168 411.743C398.586 411.908 398.018 412.073 397.596 412.198C397.385 412.26 397.21 412.312 397.088 412.348C397.027 412.366 396.979 412.38 396.946 412.39C396.93 412.395 396.917 412.399 396.909 412.401C396.905 412.402 396.901 412.403 396.899 412.404C396.898 412.404 396.897 412.405 396.897 412.405C396.897 412.405 396.896 412.405 396.896 412.405C396.896 412.405 396.896 412.405 396.896 412.405C396.896 412.405 396.896 412.405 396.896 412.405C396.896 412.405 396.896 412.405 397.063 412.964C397.23 413.522 397.23 413.522 397.23 413.522C397.23 413.522 397.23 413.522 397.23 413.522C397.23 413.522 397.231 413.522 397.231 413.522C397.231 413.522 397.231 413.522 397.231 413.522C397.232 413.522 397.232 413.522 397.233 413.521C397.236 413.521 397.239 413.52 397.243 413.519C397.251 413.516 397.263 413.512 397.28 413.508C397.312 413.498 397.359 413.484 397.42 413.466C397.541 413.43 397.715 413.378 397.925 413.317C398.345 413.193 398.909 413.029 399.487 412.865L399.327 412.304ZM490.262 386.471L490.422 387.032C491.032 386.859 491.548 386.707 491.911 386.598C492.093 386.544 492.236 386.5 492.335 386.47C492.384 386.455 492.422 386.443 492.448 386.436C492.461 386.432 492.47 386.429 492.477 386.427C492.48 386.426 492.483 386.425 492.485 386.424C492.485 386.424 492.486 386.424 492.487 386.424C492.487 386.424 492.487 386.423 492.487 386.423C492.487 386.423 492.487 386.423 492.487 386.423C492.487 386.423 492.487 386.423 492.487 386.423C492.487 386.423 492.487 386.423 492.315 385.866C492.142 385.309 492.142 385.309 492.142 385.309C492.142 385.309 492.142 385.309 492.142 385.309C492.142 385.309 492.142 385.309 492.142 385.309C492.142 385.309 492.142 385.309 492.141 385.31C492.141 385.31 492.14 385.31 492.14 385.31C492.138 385.311 492.136 385.311 492.133 385.312C492.126 385.314 492.117 385.317 492.105 385.321C492.08 385.329 492.043 385.34 491.994 385.355C491.898 385.384 491.756 385.427 491.577 385.481C491.217 385.588 490.707 385.739 490.103 385.91L490.262 386.471ZM481.036 329.097L481.178 329.662C481.957 329.466 482.712 330.055 482.712 330.857H483.295H483.878C483.878 329.295 482.408 328.15 480.893 328.531L481.036 329.097ZM408.013 347.491L407.87 346.926C406.356 347.307 405.295 348.668 405.295 350.229H405.878H406.462C406.462 349.203 407.159 348.307 408.155 348.057L408.013 347.491Z" fill="white"/>
<path d="M408.516 409.804V350.751C408.516 350.289 408.829 349.886 409.277 349.773L483.1 331.102V388.737" stroke="white" stroke-width="0.466527"/>
<path d="M397.164 412.84L401.606 414.978C405.222 416.718 409.352 417.065 413.207 415.954L499.38 391.122C500.214 390.882 500.297 389.733 499.506 389.375L492.109 386.035" stroke="white" stroke-width="1.16632"/>
<path d="M500.576 390.025V392.443C500.576 392.858 500.301 393.223 499.903 393.339L413.229 418.472C409.36 419.594 405.213 419.246 401.585 417.495L398.232 415.877C397.345 415.449 396.781 414.551 396.781 413.566V412.524" stroke="white" stroke-width="0.466527"/>
<path d="M266.784 199.734L134.729 168.232C131.929 167.564 130.08 164.899 130.434 162.043L137.253 107.064C137.565 104.552 139.509 102.554 142.012 102.175L162.391 99.0852M273.643 121.575L170.964 100.818M371.985 421.358L373.617 420.921C374.499 420.685 375.112 419.886 375.112 418.973V252.078C375.112 242.516 368.985 234.029 359.908 231.019L270.049 201.217C266.6 200.074 264.166 196.984 263.861 193.364L258.578 130.401C258.428 128.61 259.686 127.007 261.462 126.727L280.985 123.651C307.812 119.446 336.419 115.875 364.129 111.996C365.96 111.739 367.786 111.992 369.431 112.677M611.636 397.202L548.151 374.817C543.285 373.124 540.023 368.537 540.023 363.386V218.256C540.023 209.972 539.042 201.717 537.099 193.664C529.032 160.22 524.188 127.223 516.776 94.9494C516.475 93.6384 513.975 90.5967 509.26 91.3187L502.122 92.336M502.122 92.336L430.694 102.516C428.302 102.857 426.343 104.587 425.708 106.918L422.067 120.292C421.236 123.346 418.696 125.631 415.572 126.137L390.622 130.179C387.659 130.659 384.682 129.764 382.491 127.825M502.122 92.336L491.863 90.596M502.122 92.336L512.185 94.0427M382.491 127.825C381.949 127.346 381.456 126.803 381.022 126.201L373.736 116.092C372.624 114.548 371.124 113.383 369.431 112.677M382.491 127.825L410.024 123.726C413.148 123.22 415.688 120.934 416.52 117.881L420.161 104.506C420.795 102.176 422.755 100.446 425.146 100.105L491.863 90.596M382.491 127.825L382.475 127.827M369.431 112.677C367.441 111.68 365.176 110.81 363.916 110.279C362.263 109.583 360.424 109.326 358.582 109.584C330.872 113.463 302.265 117.034 275.438 121.24L273.038 121.618M369.431 112.677C370.093 113.009 370.725 113.355 371.279 113.708M493.021 90.4309L491.863 90.596M491.863 90.596L393.815 73.9664C389.506 73.2355 385.113 73.1451 380.777 73.6982L316.993 81.7472C314.596 82.0463 312.606 83.742 311.931 86.061L308.239 98.7507C307.354 101.789 304.775 104.03 301.642 104.482L278.706 108.317C276.046 108.7 273.394 107.981 271.319 106.408M387.921 74.5784V113.809M387.921 113.809L415.255 120.264M387.921 113.809L375.011 116.633M250.644 388.591L252.237 388.194C253.098 387.979 253.707 387.213 253.723 386.326M162.391 99.0847C188.494 95.4571 220.549 91.29 248.091 87.8314C250.191 87.5678 252.274 87.9748 254.076 88.9329L258.203 91.0087M512.185 91.2189L393.815 71.1425C389.506 70.4117 385.113 70.3213 380.777 70.8743L313.16 79.3268C310.763 79.6259 308.774 81.3216 308.099 83.6406L304.406 96.3303C303.521 99.3689 300.942 101.61 297.81 102.062L273.864 105.896L271.319 106.408M271.319 106.408L271.122 106.447M271.319 106.408C270.504 105.789 269.778 105.039 269.175 104.171L262.465 94.506C261.598 93.2574 260.48 92.2454 259.208 91.5144M258.203 91.0087L259.208 91.5144M258.203 91.0087C258.547 91.1583 258.883 91.3271 259.208 91.5144M258.203 91.0087C256.575 90.301 254.76 90.0224 252.933 90.2519C225.391 93.7104 197.068 97.172 170.964 100.8M259.208 91.5144L259.623 91.7231M254.477 391.011L256.07 390.614C256.931 390.399 257.54 389.633 257.556 388.746" stroke="white" stroke-width="0.930089"/>
<g clip-path="url(#clip0_7228_283331)">
<path opacity="0.5" d="M439.5 306C439.5 355.706 399.206 396 349.5 396C299.794 396 259.5 355.706 259.5 306" stroke="white"/>
<g filter="url(#filter0_d_7228_283331)">
<circle cx="349.5" cy="299" r="87" fill="#1B1B2D"/>
<circle cx="349.5" cy="299" r="87" fill="url(#paint0_linear_7228_283331)" fill-opacity="0.4"/>
</g>
<path d="M379.762 262.731C383.461 258.379 390.118 257.741 394.631 261.308C399.144 264.876 399.805 271.296 396.107 275.648L349.691 334.267C347.75 336.551 344.875 337.913 341.814 337.996C338.754 338.079 335.806 336.877 333.735 334.702L304.283 302.932C300.336 298.787 300.622 292.342 304.919 288.536C309.217 284.729 315.902 285.001 319.85 289.146L341.064 312.268L379.762 262.731Z" fill="#4FE2CE"/>
<circle cx="350" cy="298.5" r="87.5" stroke="#4FE2CE" stroke-width="8"/>
<circle cx="349.5" cy="299" r="83" stroke="white" stroke-width="2"/>
</g>
<defs>
<filter id="filter0_d_7228_283331" x="214.5" y="188" width="270" height="270" filterUnits="userSpaceOnUse" color-interpolation-filters="sRGB">
<feFlood flood-opacity="0" result="BackgroundImageFix"/>
<feColorMatrix in="SourceAlpha" type="matrix" values="0 0 0 0 0 0 0 0 0 0 0 0 0 0 0 0 0 0 127 0" result="hardAlpha"/>
<feOffset dy="24"/>
<feGaussianBlur stdDeviation="24"/>
<feComposite in2="hardAlpha" operator="out"/>
<feColorMatrix type="matrix" values="0 0 0 0 0.309804 0 0 0 0 0.886275 0 0 0 0 0.807843 0 0 0 0.5 0"/>
<feBlend mode="normal" in2="BackgroundImageFix" result="effect1_dropShadow_7228_283331"/>
<feBlend mode="normal" in="SourceGraphic" in2="effect1_dropShadow_7228_283331" result="shape"/>
</filter>
<linearGradient id="paint0_linear_7228_283331" x1="436.5" y1="409.745" x2="282.527" y2="269.108" gradientUnits="userSpaceOnUse">
<stop stop-color="#4FE2CE"/>
<stop offset="1" stop-color="#4FE2CE" stop-opacity="0.2"/>
</linearGradient>
<clipPath id="clip0_7228_283331">
<rect width="240" height="240" fill="white" transform="translate(229.5 192)"/>
</clipPath>
</defs>
</svg>
