<svg width="60" height="57" viewBox="0 0 60 57" fill="none" xmlns="http://www.w3.org/2000/svg">
<path d="M28.2002 2.15039C30.2273 0.488943 33.1949 0.643107 35.0273 2.50879L35.3096 2.79688C44.8105 12.47 51.9832 24.1804 56.2832 37.0391L58.1143 42.5137C58.6405 44.0879 58.027 45.8182 56.627 46.71L55.1143 47.6729C38.9547 57.963 18.2006 57.5598 2.45312 46.6494C1.22771 45.8004 0.70462 44.2474 1.16699 42.8301L1.90039 40.5811C6.80686 25.5418 15.9646 12.18 28.2002 2.15039Z" stroke="white" stroke-opacity="0.3" stroke-width="2"/>
<path d="M28.1924 3.17383C30.1274 1.5263 33.0137 1.68178 34.7598 3.52832L35.0527 3.83887C43.8192 13.1096 50.3994 24.2257 54.3096 36.3711L56.2715 42.4668C56.7149 43.8441 56.1873 45.3483 54.9805 46.1465L53.5889 47.0674C38.5039 57.045 18.8206 56.6563 4.14062 46.0918C3.08768 45.3338 2.63955 43.9858 3.02832 42.748L3.96777 39.7549C8.43753 25.5238 16.8349 12.844 28.1924 3.17383Z" fill="black" fill-opacity="0.3" stroke="#47CE76" stroke-width="2"/>
</svg>
