<svg width="1039" height="644" viewBox="0 0 1039 644" fill="none" xmlns="http://www.w3.org/2000/svg">
<path d="M533.454 493.191L481.418 510.622L348.969 358.716C346.736 356.155 343.217 355.125 339.956 356.078L214.576 392.708L172.281 341.698C171.597 341.015 170.384 339.186 170.999 337.34C171.768 335.033 174.075 333.239 177.664 331.957C181.253 330.676 340.692 286.33 341.717 286.074C342.742 285.818 345.817 285.305 347.356 286.074C347.954 286.245 349.509 286.997 350.945 288.637C352.739 290.688 532.941 484.988 535.761 488.064C538.017 490.525 535.163 492.507 533.454 493.191Z" fill="#D2B2FF" fill-opacity="0.4"/>
<path d="M404.006 336.828L515.644 304.512C518.854 303.583 522.314 304.572 524.548 307.057L655.469 452.691C659.879 451.174 694.638 439.674 707.283 435.493C709.42 434.786 710.115 432.128 708.566 430.494C676.01 396.131 547.549 261.813 526.015 239.299C524.065 237.26 521.249 236.552 518.527 237.296L358.072 281.123C356.222 281.628 355.562 283.912 356.857 285.327L404.006 336.828Z" fill="#D9D9D9" fill-opacity="0.07"/>
<path d="M577.8 286.331L657.97 262.814C667.763 259.942 678.339 262.798 685.353 270.211L809.525 401.424L854.565 385.922C859.22 384.32 860.591 378.399 857.115 374.914L687.812 205.15C680.653 197.972 670.192 195.189 660.412 197.862L532.209 232.908C530.338 233.419 529.691 235.742 531.027 237.147L577.8 286.331Z" fill="#D9D9D9" fill-opacity="0.07"/>
<path d="M689.048 198.672C685.278 194.724 677.283 192 668.029 192C664.35 192 660.87 192.43 657.776 193.197L177.713 327.088C169.123 329.536 163.309 334.243 163.309 339.648C163.309 341.551 164.031 343.369 165.34 345.031L329.669 543.735C334.54 550.012 346.591 554.455 360.686 554.455C367.622 554.455 374.064 553.379 379.398 551.538L853.102 392.051C860.411 389.295 865.149 384.875 865.149 379.892C865.149 377.601 864.148 375.43 862.356 373.484L689.048 198.672Z" stroke="white" stroke-width="1.538"/>
<path d="M864.893 381.943L855.414 450.361C854.946 460.762 848.233 469.846 838.429 473.348L371.798 639.287C355.08 645.258 336.419 639.796 325.559 625.754L176.428 434.334C172.886 429.754 170.758 424.239 170.306 418.467L163.309 340.161" stroke="white" stroke-width="1.538"/>
<path d="M549.636 487.89L655.725 452.691L524.297 307.047C522.059 304.567 518.601 303.584 515.393 304.517L404.262 336.828L542.106 485.949C544.018 488.018 546.963 488.777 549.636 487.89Z" fill="#D9D9D9" fill-opacity="0.07"/>
<path d="M721.539 430.264L809.525 401.424L686.034 270.42C679.068 263.031 668.562 260.142 658.798 262.932L577.8 286.074L714.12 428.408C716.03 430.403 718.915 431.124 721.539 430.264Z" fill="#D9D9D9" fill-opacity="0.07"/>
<path d="M404.262 337.085L515.826 304.373C517.556 303.865 519.355 303.885 521.019 304.373M655.725 452.435L525.291 307.065C524.121 305.762 522.634 304.846 521.019 304.373M522.176 237.627L521.019 304.373" stroke="white" stroke-width="1.02533"/>
<path d="M214.32 392.196L339.469 355.639C341.198 355.132 342.998 355.152 344.662 355.639M481.675 510.109L348.933 358.332C347.764 357.028 346.277 356.113 344.662 355.639M346.075 286.074L344.662 355.639" stroke="white" stroke-width="1.02533"/>
<path d="M578.056 286.586C601.981 279.494 651.675 264.798 659.057 262.747C662.469 261.8 665.986 261.553 669.311 261.864M809.269 401.681C768.853 358.616 687.049 271.514 683.153 267.618C680.083 264.548 674.977 262.395 669.311 261.864M673.412 197.896L669.311 261.864" stroke="white" stroke-width="1.02533"/>
<path d="M374.271 553.43L369.914 639.814" stroke="white" stroke-width="1.02533"/>
<path d="M328.901 543.176L327.619 628.023" stroke="white" stroke-width="1.02533"/>
<path d="M853.102 392.196L842.592 471.659" stroke="white" stroke-width="1.02533"/>
<path d="M461.011 345.634L454.391 338.019L457.775 336.984C460.167 336.253 461.96 336.574 463.2 338C463.955 338.869 463.793 339.652 462.767 340.115C464.269 339.805 465.64 340.214 466.516 341.222C467.729 342.616 467.167 343.752 464.938 344.433L461.011 345.634ZM461.574 344.145L464.048 343.389C465.257 343.019 465.623 342.391 464.971 341.64C464.309 340.879 463.225 340.681 462.015 341.05L459.542 341.807L461.574 344.145ZM458.684 340.82L460.655 340.217C461.946 339.823 462.344 339.212 461.729 338.504C461.085 337.764 460.066 337.601 458.734 338.008L456.763 338.61L458.684 340.82Z" fill="white"/>
<path d="M464.967 337.229L466.285 336.826L467.258 337.886C466.883 337.078 467.128 336.568 468.052 336.286L468.745 336.074L469.556 337.007L468.85 337.223C467.722 337.568 467.648 338.215 468.468 339.159L471.349 342.473L469.908 342.914L464.967 337.229Z" fill="white"/>
<path d="M477.718 340.689C475.639 341.325 473.273 340.582 471.697 338.769C470.121 336.957 470.473 335.383 472.553 334.747C474.618 334.115 476.984 334.858 478.56 336.671C480.136 338.484 479.784 340.057 477.718 340.689ZM473.192 338.312C474.273 339.556 475.637 340.076 476.86 339.702C478.083 339.328 478.147 338.372 477.065 337.128C475.984 335.884 474.634 335.36 473.41 335.734C472.187 336.108 472.11 337.068 473.192 338.312Z" fill="white"/>
<path d="M475.663 331.515L477.103 331.075L481.224 335.816L481.975 332.029L483.837 331.46L483.08 334.705L488.901 337.107L487.229 337.618L482.74 335.719L482.418 337.189L483.723 338.69L482.282 339.131L475.663 331.515Z" fill="white"/>
<path d="M486.619 334.207C485.053 332.405 485.382 330.825 487.475 330.185C489.201 329.657 491.448 330.124 493.268 332.12L493.599 332.48L488.421 334.063C489.439 335.096 490.673 335.506 491.801 335.162C492.508 334.945 492.871 334.414 492.681 333.779L494.264 333.404C494.784 334.616 494.108 335.678 492.64 336.127C490.547 336.767 488.185 336.009 486.619 334.207ZM487.712 333.208L491.34 332.098C490.235 331.065 489.129 330.901 488.314 331.15C487.267 331.47 487.063 332.225 487.712 333.208Z" fill="white"/>
<path d="M492.104 328.933L493.422 328.53L494.293 329.472C493.997 328.598 494.56 328.019 495.539 327.719C497.156 327.225 498.778 327.883 499.859 329.127L503.039 332.785L501.598 333.225L498.726 329.922C497.85 328.914 496.98 328.487 495.975 328.794C494.928 329.114 494.738 329.865 495.614 330.873L498.486 334.177L497.045 334.617L492.104 328.933Z" fill="white"/>
<path d="M481.675 510.365C452.282 520.191 391.395 540.511 382.987 543.177C372.477 546.509 345.306 551.892 334.027 538.05C325.004 526.976 250.292 436.542 214.063 392.709L345.05 354.259L481.675 510.365ZM253.164 402.599C251.166 400.929 248.596 400.25 246.222 400.976C243.068 401.94 242.888 404.523 245.029 407.074C247.17 409.625 250.705 411.041 253.859 410.077C256.401 409.3 256.923 407.584 255.731 405.544L253.909 406.009C254.698 407.385 254.31 408.413 252.825 408.867C250.559 409.56 248.267 408.365 246.744 406.55C245.21 404.722 244.945 402.893 247.226 402.195C248.635 401.765 250.171 402.127 251.48 403.206L253.164 402.599ZM264.198 402.585C262.459 400.512 259.816 399.656 257.489 400.367C255.146 401.083 254.726 402.876 256.466 404.949C258.205 407.022 260.848 407.878 263.19 407.162C265.518 406.451 265.937 404.658 264.198 402.585ZM258.435 401.496C259.813 401.075 261.321 401.678 262.514 403.101C263.708 404.523 263.622 405.613 262.244 406.034C260.866 406.455 259.344 405.857 258.15 404.435C256.956 403.012 257.058 401.918 258.435 401.496ZM271.578 399.157C270.384 397.735 268.576 396.978 266.754 397.535C265.651 397.872 265.011 398.53 265.328 399.527L264.366 398.45L262.881 398.904L268.336 405.404L269.959 404.908L266.789 401.131C265.821 399.978 266.047 399.123 267.225 398.763C268.358 398.416 269.327 398.906 270.295 400.059L273.465 403.836L275.088 403.34L271.578 399.157ZM270.886 394.606L272.122 396.079L270.882 396.458L271.766 397.513L273.007 397.134L276.012 400.715C277.031 401.929 278.419 402.322 279.98 401.845L281.328 401.433L280.432 400.365L279.254 400.726C278.626 400.917 278.078 400.746 277.635 400.219L274.63 396.638L276.773 395.981L275.888 394.927L273.745 395.582L272.51 394.11L270.886 394.606ZM286.001 395.118C284.508 393.34 282.475 392.728 280.27 393.402C278.403 393.973 277.775 395.152 278.554 396.562L280.311 396.133C279.908 395.331 280.207 394.747 281.156 394.457C282.335 394.097 283.365 394.429 284.255 395.467L282.236 396.547C280.605 397.4 279.714 398.15 280.804 399.45C281.772 400.603 283.645 400.909 285.283 400.408C286.63 399.996 287.092 399.192 286.934 398.454C287.783 399.351 288.86 399.145 289.585 398.908L290.09 398.753L289.236 397.735L288.914 397.834C288.592 397.932 288.306 397.865 288.028 397.534L286.001 395.118ZM285.19 396.537C286.363 397.935 285.991 398.913 284.792 399.295C283.72 399.623 282.87 399.389 282.469 398.91C281.779 398.088 282.611 397.727 283.594 397.226L285.119 396.451L285.19 396.537ZM299.047 390.76C297.719 389.178 295.998 388.594 294.36 389.095C293.135 389.469 292.694 390.205 293.057 391.188C291.985 390.438 290.731 390.204 289.567 390.56C288.48 390.892 288.024 391.587 288.274 392.481L287.348 391.424L285.863 391.878L291.318 398.378L292.94 397.882L289.771 394.104C288.824 392.976 288.937 392.125 290.086 391.773C290.989 391.497 292.055 391.988 293.002 393.116L296.172 396.895L297.703 396.426L294.533 392.648C293.586 391.52 293.684 390.673 294.847 390.317C295.766 390.037 296.796 390.508 297.763 391.66L300.933 395.438L302.556 394.942L299.047 390.76ZM299.092 387.833L304.546 394.334L306.169 393.838L300.715 387.337L299.092 387.833ZM311.193 387.046C309.999 385.623 308.19 384.867 306.368 385.424C305.266 385.761 304.625 386.419 304.942 387.416L303.98 386.339L302.495 386.792L307.95 393.293L309.573 392.797L306.403 389.02C305.436 387.867 305.661 387.011 306.84 386.65C307.973 386.304 308.942 386.794 309.91 387.947L313.079 391.725L314.702 391.229L311.193 387.046ZM319.803 384.783C318.311 383.005 316.279 382.394 314.074 383.067C312.206 383.638 311.578 384.817 312.358 386.228L314.114 385.799C313.711 384.997 314.009 384.412 314.959 384.122C316.138 383.762 317.167 384.095 318.057 385.133L316.039 386.212C314.408 387.065 313.517 387.815 314.607 389.115C315.575 390.268 317.447 390.574 319.086 390.073C320.433 389.661 320.894 388.858 320.737 388.12C321.585 389.016 322.663 388.81 323.387 388.573L323.893 388.419L323.039 387.4L322.718 387.499C322.396 387.597 322.109 387.531 321.831 387.2L319.803 384.783ZM318.994 386.202C320.167 387.6 319.794 388.578 318.594 388.96C317.523 389.288 316.673 389.054 316.271 388.576C315.582 387.754 316.413 387.392 317.397 386.891L318.922 386.116L318.994 386.202ZM318.676 379.996L319.91 381.468L318.67 381.848L319.555 382.902L320.796 382.523L323.801 386.104C324.819 387.319 326.208 387.711 327.769 387.233L329.116 386.822L328.22 385.755L327.042 386.115C326.414 386.307 325.866 386.136 325.424 385.608L322.419 382.026L324.562 381.371L323.677 380.316L321.533 380.972L320.299 379.5L318.676 379.996ZM297.219 385.647L298.258 386.886L299.958 386.366L298.918 385.128L297.219 385.647ZM334.579 381.006C332.567 378.724 330.055 378.182 328.11 378.776C325.752 379.497 325.359 381.298 327.088 383.358C328.817 385.419 331.454 386.292 333.812 385.571C335.466 385.066 336.241 383.857 335.677 382.474L333.894 382.896C334.097 383.619 333.682 384.224 332.885 384.468C331.615 384.856 330.237 384.383 329.111 383.202L334.944 381.418L334.579 381.006ZM336.996 373.471L339.579 376.549C338.595 376.064 337.316 375.962 336.26 376.285C334.147 376.931 333.931 378.645 335.68 380.73C337.43 382.815 339.848 383.726 341.961 383.08C343.078 382.738 343.678 382.031 343.582 381.229L344.41 382.146L345.926 381.683L338.619 372.975L336.996 373.471ZM329.037 379.88C329.956 379.599 331.194 379.791 332.417 380.974L328.329 382.224C327.617 381.1 327.858 380.24 329.037 379.88ZM337.579 377.237C338.911 376.83 340.504 377.469 341.698 378.892C342.871 380.29 342.77 381.43 341.438 381.837C340.137 382.235 338.538 381.614 337.365 380.216C336.171 378.793 336.262 377.64 337.579 377.237Z" fill="#D2B2FF"/>
<path d="M599.429 297.481L600.898 297.032L607.786 304.418L606.317 304.868L599.429 297.481Z" fill="white"/>
<path d="M604.369 298.377L605.688 297.974L606.593 298.887C606.271 298.036 606.823 297.466 607.803 297.167C609.422 296.672 611.076 297.303 612.202 298.509L615.51 302.057L614.068 302.498L611.08 299.294C610.168 298.316 609.279 297.906 608.272 298.213C607.224 298.534 607.053 299.268 607.965 300.246L610.953 303.45L609.511 303.891L604.369 298.377Z" fill="white"/>
<path d="M618.435 296.564C617.635 295.912 616.549 295.723 615.733 295.972C614.509 296.347 614.457 297.285 615.582 298.492C616.708 299.699 618.098 300.196 619.323 299.822C620.18 299.56 620.489 298.917 619.921 298.101L621.489 297.702C622.475 299.059 621.875 300.272 620.215 300.779C618.12 301.419 615.716 300.697 614.086 298.949C612.456 297.202 612.745 295.656 614.84 295.015C616.446 294.525 618.528 294.864 619.873 296.044L618.435 296.564Z" fill="white"/>
<path d="M627.677 298.498C625.595 299.134 623.187 298.426 621.548 296.668C619.908 294.91 620.221 293.37 622.302 292.734C624.37 292.102 626.778 292.81 628.418 294.568C630.057 296.326 629.745 297.866 627.677 298.498ZM623.044 296.211C624.17 297.417 625.56 297.915 626.784 297.541C628.009 297.166 628.047 296.232 626.921 295.025C625.796 293.818 624.419 293.317 623.195 293.691C621.97 294.065 621.919 295.004 623.044 296.211Z" fill="white"/>
<path d="M627.099 291.428L628.419 291.024L629.29 291.921C629.033 291.158 629.418 290.558 630.384 290.263C631.418 289.947 632.554 290.134 633.546 290.767C633.184 289.929 633.554 289.294 634.642 288.961C636.098 288.516 637.667 288.999 638.918 290.341L642.226 293.889L640.784 294.33L637.796 291.125C636.884 290.148 635.941 289.754 635.124 290.004C634.091 290.32 634.033 291.046 634.926 292.003L637.914 295.207L636.554 295.623L633.566 292.419C632.673 291.462 631.696 291.052 630.894 291.297C629.873 291.609 629.803 292.339 630.695 293.297L633.683 296.501L632.241 296.942L627.099 291.428Z" fill="white"/>
<path d="M645.197 294.986L638.6 287.912L639.947 287.5L640.754 288.309C640.576 287.575 641.027 287.009 642.061 286.693C644.17 286.048 646.405 287.076 647.85 288.627C649.296 290.177 649.544 291.812 647.436 292.457C646.456 292.756 645.417 292.673 644.466 292.215L646.639 294.545L645.197 294.986ZM642.49 290.265C643.412 291.254 644.88 292.022 646.213 291.614C647.573 291.198 647.281 290.097 646.34 289.088C645.409 288.09 643.951 287.332 642.604 287.744C641.271 288.151 641.569 289.277 642.49 290.265Z" fill="white"/>
<path d="M647.956 287.177C647.203 285.977 647.725 284.961 649.385 284.454C651.344 283.855 653.195 284.359 654.601 285.867L656.513 287.917C656.775 288.198 657.035 288.252 657.32 288.165L657.606 288.077L658.411 288.941L657.962 289.078C657.319 289.288 656.357 289.475 655.562 288.716C655.73 289.346 655.344 290.039 654.147 290.405C652.692 290.85 650.996 290.606 650.084 289.628C649.056 288.525 649.83 287.874 651.266 287.128L653.043 286.183C652.205 285.303 651.267 285.028 650.219 285.349C649.376 285.607 649.128 286.11 649.52 286.792L647.956 287.177ZM651.561 289.15C651.939 289.556 652.712 289.747 653.665 289.456C654.73 289.117 655.03 288.277 653.924 287.091L653.856 287.018L652.513 287.696C651.646 288.135 650.911 288.453 651.561 289.15Z" fill="white"/>
<path d="M653.413 281.778L654.855 281.338L656.019 282.586L657.924 282.004L658.758 282.899L656.854 283.481L659.687 286.519C660.104 286.966 660.603 287.108 661.161 286.937L662.208 286.617L663.052 287.522L661.855 287.888C660.467 288.312 659.205 287.99 658.245 286.96L655.412 283.922L654.31 284.259L653.475 283.364L654.577 283.027L653.413 281.778Z" fill="white"/>
<path d="M659.138 281.632L660.58 281.192L665.722 286.706L664.28 287.146L659.138 281.632ZM658.354 280.829L657.374 279.779L658.885 279.317L659.864 280.368L658.354 280.829Z" fill="white"/>
<path d="M660.204 278.9L661.646 278.459L664.081 281.071C663.994 280.415 664.527 279.824 665.466 279.537C667.343 278.963 669.551 279.719 671.201 281.488C672.85 283.256 672.718 284.727 670.841 285.301C669.848 285.605 668.674 285.509 667.742 285.072L668.439 285.875L667.092 286.287L660.204 278.9ZM665.854 283.122C666.96 284.308 668.407 284.829 669.591 284.467C670.747 284.113 670.81 283.131 669.704 281.945C668.579 280.738 667.122 280.208 665.953 280.565C664.769 280.927 664.729 281.915 665.854 283.122Z" fill="white"/>
<path d="M668.237 276.444L669.679 276.003L675.374 282.11C675.607 282.36 675.9 282.431 676.213 282.335L676.798 282.156L677.642 283.061L676.744 283.336C675.778 283.631 674.679 283.352 673.98 282.603L668.237 276.444Z" fill="white"/>
<path d="M675.781 280.087C674.152 278.339 674.441 276.794 676.536 276.153C678.264 275.625 680.544 276.064 682.436 277.999L682.779 278.349L677.596 279.933C678.652 280.934 679.908 281.326 681.037 280.98C681.745 280.764 682.097 280.242 681.888 279.624L683.476 279.246C684.034 280.425 683.38 281.468 681.911 281.917C679.816 282.557 677.411 281.835 675.781 280.087ZM676.857 279.103L680.489 277.993C679.346 276.992 678.225 276.84 677.409 277.089C676.362 277.41 676.176 278.148 676.857 279.103Z" fill="white"/>
<path d="M595.86 -5.99835C594.192 -9.97776 588.34 -12.9695 580.277 -13.3921C577.072 -13.5601 573.864 -13.3039 570.854 -12.7058L97.7727 94.4828C89.2863 96.4519 82.2943 100.725 80.0821 105.937C79.3029 107.773 79.1876 109.558 79.6483 111.22L148.457 306.629C153.933 321.329 166.39 324.45 181.629 320.128L659.646 187.966C667.143 185.643 669.68 183.157 671.72 178.351C672.658 176.143 672.485 171.931 671.72 169.972L595.86 -5.99835Z" stroke="url(#paint0_linear_2196_65152)" stroke-width="1.538"/>
<path d="M236.467 242.006C274.616 265.289 301.638 299.566 313.642 339.289L331.283 310.217C332.505 308.203 335.125 307.566 337.135 308.793C339.146 310.02 339.785 312.647 338.563 314.661L314.714 353.964L313.351 356.493L303.522 350.598L272.262 330.775C270.281 329.518 269.668 326.904 270.885 324.898C272.117 322.868 274.758 322.225 276.785 323.462L305.2 340.805C293.699 303.618 268.212 271.369 232.044 249.294C155.467 202.556 56.0733 225.656 7.93836 300.604C6.66562 302.586 4.04347 303.237 2.03299 302.01C0.0225048 300.783 -0.614424 298.142 0.655828 296.158C51.2385 217.181 155.874 192.816 236.467 242.006Z" fill="#4FE2CE"/>
<defs>
<linearGradient id="paint0_linear_2196_65152" x1="384.671" y1="264.14" x2="366.541" y2="163.335" gradientUnits="userSpaceOnUse">
<stop stop-color="white"/>
<stop offset="1" stop-color="#999999" stop-opacity="0"/>
</linearGradient>
</defs>
</svg>
