<svg viewBox="0 0 140 138" fill="none" xmlns="http://www.w3.org/2000/svg">
<path d="M135.277 91.6246L138.823 102.534C140.249 106.921 138.611 111.723 134.801 114.324C95.5565 141.118 43.7924 141.044 4.54787 114.25C0.793435 111.687 -0.873106 106.976 0.4473 102.626L3.25329 93.3819C13.7089 58.936 33.2772 27.9551 59.8896 3.71416C65.4429 -1.34429 74.0349 -1.20186 79.5093 3.94184C105.048 27.9374 124.444 58.2982 135.277 91.6246Z" fill="url(#paint0_linear_1361_32751)" fill-opacity="0.15"/>
<path d="M60.2266 4.08398C65.5832 -0.795307 73.8793 -0.661622 79.167 4.30664C104.645 28.2452 123.995 58.534 134.801 91.7793L138.348 102.688C139.705 106.864 138.146 111.435 134.52 113.911C95.4458 140.588 43.905 140.516 4.83008 113.838C1.25546 111.397 -0.330935 106.912 0.925781 102.771L3.73145 93.5273C14.1609 59.1677 33.6808 28.2642 60.2266 4.08398Z" stroke="white" stroke-opacity="0.1"/>
<path d="M78.1231 46.6829C81.1402 49.2519 82.8645 52.9613 82.8622 56.8539C82.8621 64.2542 76.7544 70.2979 69.2284 70.3002C65.5798 70.3001 62.1556 68.9005 59.5809 66.3588C57.0062 63.817 55.5912 60.4448 55.5912 56.8547C55.5912 52.9591 57.3153 49.2513 60.3311 46.6837C61.4181 45.7579 61.5719 44.1527 60.6971 43.0433L60.6096 42.9383C59.6409 41.8293 57.9571 41.7141 56.8433 42.664C52.6503 46.2351 50.2404 51.4075 50.2427 56.8555C50.2416 60.1109 51.0817 63.2396 52.6535 66.0045C49.5125 66.041 46.3387 66.8453 43.4287 68.5029C38.6551 71.2246 35.3186 75.8665 34.2788 81.2398C33.9992 82.6873 34.9616 84.0709 36.4037 84.3442L36.4104 84.345C37.8445 84.6054 39.2506 83.6858 39.5323 82.2393C40.2789 78.3843 42.6699 75.0513 46.0946 73.0986L46.0954 73.0995C52.6118 69.3894 60.9737 71.6061 64.7301 78.0237C68.4812 84.4353 66.25 92.6726 59.7401 96.3825C56.4196 98.2742 52.4454 98.6869 48.7763 97.537L48.422 97.4211C47.0726 96.952 45.6023 97.6238 45.0692 98.9233L45.0209 99.0509C44.5304 100.442 45.2788 101.952 46.6689 102.43C48.7117 103.133 50.8312 103.48 52.9419 103.48C56.2317 103.48 59.4977 102.636 62.4068 100.978C65.325 99.315 67.6245 96.994 69.2309 94.3134C70.8369 96.9935 73.136 99.3164 76.0565 100.981C78.9634 102.638 82.2287 103.482 85.5173 103.482C87.6259 103.481 89.7482 103.135 91.7911 102.433C93.1805 101.954 93.9296 100.445 93.4392 99.0534C92.9493 97.6636 91.4231 96.953 90.0405 97.4211L90.0363 97.4228C86.2726 98.7179 82.148 98.3357 78.725 96.3841C72.2126 92.6731 69.9821 84.4354 73.7332 78.0237C77.4883 71.6063 85.8479 69.3887 92.368 73.1011C95.7939 75.0513 98.1841 78.3822 98.9261 82.2368C99.2048 83.689 100.614 84.6052 102.047 84.345L102.053 84.3442C103.494 84.0713 104.46 82.6905 104.18 81.2414C103.144 75.8654 99.8072 71.2231 95.0322 68.5037C92.1164 66.8421 88.9341 66.038 85.7865 66.0045C87.2706 63.3963 88.147 60.4062 88.209 57.2198L88.2124 56.8547C88.2148 51.4083 85.8027 46.2368 81.6109 42.6623L81.6101 42.6615C80.5312 41.7446 78.9179 41.822 77.9388 42.8349L77.8463 42.9358C76.8763 44.0454 76.9996 45.7243 78.1222 46.6821L78.1231 46.6829Z" fill="white"/>
<path d="M81.6071 73.1787C81.6071 66.3427 76.0654 60.8011 69.2295 60.8011C62.3935 60.8011 56.8519 66.3427 56.8519 73.1787C56.8519 80.0147 62.3935 85.5563 69.2295 85.5563V88.1172C60.9792 88.1172 54.291 81.429 54.291 73.1787C54.291 64.9284 60.9792 58.2402 69.2295 58.2402C77.4798 58.2402 84.1679 64.9284 84.1679 73.1787C84.1679 81.429 77.4798 88.1172 69.2295 88.1172V85.5563C76.0654 85.5563 81.6071 80.0147 81.6071 73.1787Z" fill="white"/>
<defs>
<linearGradient id="paint0_linear_1361_32751" x1="132.458" y1="136.497" x2="-10.0825" y2="10.0877" gradientUnits="userSpaceOnUse">
<stop stop-color="white"/>
<stop offset="1" stop-color="white" stop-opacity="0.5"/>
</linearGradient>
</defs>
</svg>
