<svg width="140" height="135" viewBox="0 0 140 135" fill="none" xmlns="http://www.w3.org/2000/svg">
<path d="M135.278 91.6227L138.825 102.532C140.251 106.919 138.613 111.721 134.803 114.322C95.5585 141.116 43.7943 141.042 4.54982 114.248C0.795388 111.685 -0.871153 106.974 0.449253 102.624L3.25525 93.3799C13.7109 58.9341 33.2792 27.9531 59.8915 3.71221C65.4448 -1.34625 74.0368 -1.20381 79.5113 3.93989C105.05 27.9354 124.446 58.2962 135.278 91.6227Z" fill="url(#paint0_linear_4889_19022)" fill-opacity="0.15"/>
<path d="M60.2285 4.08203C65.5852 -0.79726 73.8812 -0.663575 79.1689 4.30469C104.647 28.2433 123.997 58.5321 134.803 91.7773L138.35 102.687C139.707 106.862 138.148 111.433 134.521 113.909C95.4477 140.586 43.907 140.514 4.83203 113.836C1.25741 111.395 -0.328982 106.91 0.927734 102.77L3.7334 93.5254C14.1629 59.1657 33.6828 28.2623 60.2285 4.08203Z" stroke="white" stroke-opacity="0.1"/>
<defs>
<linearGradient id="paint0_linear_4889_19022" x1="132.46" y1="136.495" x2="-10.0805" y2="10.0858" gradientUnits="userSpaceOnUse">
<stop stop-color="white"/>
<stop offset="1" stop-color="white" stop-opacity="0.5"/>
</linearGradient>
</defs>
</svg>
