<svg viewBox="0 0 24 24" fill="none" xmlns="http://www.w3.org/2000/svg">
    <rect width="24" height="24" rx="12" fill="#FF465E" />
    <path
        fill-rule="evenodd"
        clip-rule="evenodd"
        d="M17.7653 6.23601C18.1168 6.58748 18.1332 7.14086 17.8021 7.47201L7.47547 17.7986C7.14431 18.1298 6.59093 18.1133 6.23946 17.7618C5.88799 17.4104 5.87152 16.857 6.20268 16.5258L16.5293 6.19922C16.8605 5.86806 17.4138 5.88453 17.7653 6.23601Z"
        fill="white"
    />
    <path
        fill-rule="evenodd"
        clip-rule="evenodd"
        d="M6.2386 6.23601C6.59008 5.88453 7.14345 5.86806 7.47461 6.19922L17.8012 16.5258C18.1324 16.857 18.1159 17.4104 17.7644 17.7618C17.413 18.1133 16.8596 18.1298 16.5284 17.7986L6.20182 7.47201C5.87066 7.14086 5.88713 6.58748 6.2386 6.23601Z"
        fill="white"
    />
</svg>
