<svg width="86" height="86" viewBox="0 0 86 86" fill="none" xmlns="http://www.w3.org/2000/svg">
<path fill-rule="evenodd" clip-rule="evenodd" d="M77.0398 30.144V30.1237C77.0398 30.0696 77.0434 30.1775 77.0398 30.1237C77.0436 30.1842 77.0403 30.0833 77.0398 30.144L49.3355 1.81617C49.2231 1.8008 49.1091 1.79297 48.9941 1.79297H23.498C16.4575 1.79297 10.75 7.55848 10.75 14.6706V71.332C10.75 78.4441 16.4575 84.2096 23.498 84.2096H64.2918C71.3322 84.2096 77.0398 78.4441 77.0398 71.332V30.144ZM46.4445 19.8216C46.4445 26.9337 52.1521 32.6992 59.1925 32.6992H71.9406V71.332C71.9406 75.5994 68.5162 79.0586 64.2918 79.0586H23.498C19.2737 79.0586 15.8492 75.5994 15.8492 71.332V14.6706C15.8492 10.4033 19.2737 6.94401 23.498 6.94401H46.4445V19.8216ZM51.5437 10.5863L68.3349 27.5482H59.1925C54.9681 27.5482 51.5437 24.0889 51.5437 19.8216V10.5863Z" fill="white"/>
<rect x="34.0391" y="39.418" width="19.8332" height="2.91665" rx="1.45833" fill="white"/>
<rect x="34.0391" y="50.5" width="19.8332" height="2.91665" rx="1.45833" fill="white"/>
<rect x="34.0391" y="61.582" width="19.8332" height="2.91665" rx="1.45833" fill="white"/>
</svg>
