<svg width="80" height="80" viewBox="0 0 80 80" fill="none" xmlns="http://www.w3.org/2000/svg">
<path d="M33.333 0C51.7425 0 66.6669 14.9241 66.667 33.334C66.667 51.7439 51.7426 66.668 33.333 66.668C14.9237 66.6677 0 51.7438 0 33.334C8.86472e-05 14.9243 14.9237 0.000235041 33.333 0ZM49.0303 20.5342C47.9444 19.6655 46.388 19.8795 45.5557 21.0127L29.0107 43.5518L17.5215 32.0957C16.5321 31.1098 14.9635 31.1481 14.0186 32.1807C13.0741 33.2135 13.1105 34.8515 14.0996 35.8379L27.585 49.2861C28.0938 49.7935 28.7858 50.0497 29.4873 49.9932C30.1885 49.9365 30.8336 49.5718 31.2617 48.9893L49.4893 24.1611C50.3213 23.0276 50.1158 21.4031 49.0303 20.5342Z" fill="white"/>
<path d="M71.3672 28.5391C76.0215 33.8845 78.8652 41.0244 78.8652 48.8682C78.8652 65.4371 66.1803 78.869 50.5322 78.8691C43.4906 78.8691 37.0495 76.1483 32.0938 71.6465C32.5046 71.6595 32.917 71.668 33.3311 71.668C54.502 71.668 71.665 54.5054 71.665 33.334C71.665 31.7101 71.5632 30.1099 71.3672 28.5391Z" fill="white" fill-opacity="0.5"/>
</svg>
