<svg width="708" height="922" viewBox="0 0 708 922" fill="none" xmlns="http://www.w3.org/2000/svg">
<path d="M483.994 130.77V329.841M539.386 130.77V275.648" stroke="white" stroke-width="1.51082"/>
<path d="M187.272 262.832V688.803M249.74 262.832V688.803" stroke="url(#paint0_linear_7002_3258)" stroke-width="1.51082"/>
<path d="M484.238 136.877C475.274 135.4 469.597 133.212 469.597 130.77C469.597 126.321 488.443 122.715 511.69 122.715C534.937 122.715 553.783 126.321 553.783 130.77C553.783 133.212 548.106 135.4 539.142 136.877" stroke="white" stroke-width="1.51082"/>
<path d="M321.968 167.875C321.968 166.257 331.682 164.945 343.664 164.945C347.38 164.945 350.877 165.071 353.934 165.294" stroke="white" stroke-width="1.51082"/>
<path d="M321.968 185.207V172.757C321.968 171.14 331.036 169.828 342.222 169.828C348.576 169.828 354.247 170.251 357.96 170.914M362.475 182.522V177.64" stroke="white" stroke-width="1.51082"/>
<path d="M238.637 258.137C245.427 259.234 249.74 260.875 249.74 262.71C249.74 266.013 235.756 268.69 218.506 268.69C201.256 268.69 187.272 266.013 187.272 262.71C187.272 260.931 191.327 259.333 197.765 258.238" stroke="white" stroke-width="1.51082"/>
<path d="M469.597 108.315C469.597 104.607 488.443 101.602 511.69 101.602C534.937 101.602 553.783 104.607 553.783 108.315V130.281" stroke="white" stroke-width="1.51082"/>
<path d="M539.386 130.771C539.386 128.749 526.986 127.109 511.69 127.109C496.394 127.109 483.994 128.749 483.994 130.771" stroke="white" stroke-width="1.51082"/>
<path d="M470.451 129.185L397.946 190.7M483.872 157.378L442.269 192.253C440.455 193.773 438.165 194.606 435.798 194.606H397.491M395.173 173.246L470.207 107.215" stroke="white" stroke-width="1.51082"/>
<path d="M198.009 235.005C208.299 233.589 211.108 231.609 226.041 219.632C228.154 217.938 230.586 216.685 233.193 215.952L343.808 184.841C333.555 183.681 332.555 183.953 321.968 184.841L218.291 212.061C215.537 212.784 212.944 214.056 210.805 215.935C203.534 222.32 200.739 227.034 198.009 235.005ZM198.009 235.005L198.009 262.589" stroke="white" stroke-width="1.51082"/>
<path d="M322.877 184.767L219.199 211.987C216.446 212.709 213.853 213.982 211.714 215.861C204.443 222.246 201.648 226.96 198.917 234.931C209.219 233.513 212.022 231.531 226.998 219.519C229.08 217.85 231.472 216.609 234.037 215.872L342.222 184.767C331.969 183.607 333.464 183.879 322.877 184.767Z" fill="#D9D9D9" fill-opacity="0.1"/>
<path d="M383.46 208.037L342.587 148.955L342.587 136.194C342.587 135.09 342.95 134.017 343.619 133.139L350.64 123.937M383.46 208.037L386.461 190.82C386.897 188.322 386.856 185.764 386.343 183.281L384.41 173.934C383.785 170.912 382.474 168.075 380.579 165.64L350.615 127.145C349.347 125.516 350.47 123.137 352.534 123.081L393.564 121.968C395.679 121.911 397.74 122.639 399.35 124.011L425.604 146.395M383.46 208.037H452.517L456.513 190.96C456.85 189.517 456.756 188.007 456.242 186.617L454.59 182.157M447.514 187.649C447.907 188.357 448.025 189.184 447.845 189.973L445.769 199.091C445.456 200.466 444.233 201.441 442.823 201.441H399.576C397.888 201.441 396.592 199.944 396.835 198.273L398.247 188.556C398.392 187.555 398.335 186.535 398.078 185.556L394.327 171.234C394.076 170.277 394.798 169.341 395.788 169.341H399.321" stroke="white" stroke-width="1.51082"/>
<path d="M425.946 146.173L399.836 169.363H396.243C395.284 169.363 394.584 170.271 394.827 171.199L398.605 185.623C398.854 186.572 398.91 187.561 398.769 188.532L397.336 198.392C397.101 200.012 398.356 201.464 399.993 201.464H443.413C444.779 201.464 445.964 200.518 446.268 199.185L448.36 189.995C448.667 188.649 448.834 187.046 449.925 186.2L455.106 182.179L456.781 186.703C457.28 188.051 457.371 189.516 457.044 190.916L453.033 208.059H383.975L386.996 190.728C387.419 188.305 387.38 185.825 386.882 183.416L384.896 173.816C384.29 170.887 383.02 168.135 381.182 165.775L351.037 127.047C350.406 126.236 350.386 125.233 350.787 124.442C351.167 123.693 351.924 123.134 352.896 123.107L394.181 121.987C396.231 121.932 398.228 122.637 399.788 123.967L425.946 146.173Z" fill="#D9D9D9" fill-opacity="0.1"/>
<path opacity="0.6" d="M539.386 275.895V554.057C539.386 558.102 526.986 561.38 511.69 561.38C496.394 561.38 483.994 558.102 483.994 554.057V329.232M562.06 558.776C562.244 557.503 560.692 556.047 557.338 554.684L539.296 547.354M562.06 558.776C561.863 560.137 559.68 561.287 555.593 561.885L515.268 567.783C507.361 568.94 495.323 567.591 488.381 564.77L468.238 556.586C465.132 555.325 463.572 553.982 463.504 552.78M562.06 558.776L562.06 644.707C561.72 646.188 559.552 647.431 555.627 648.09L515.315 657.329C507.411 658.656 495.376 657.108 488.436 653.873L468.299 644.487C464.96 642.931 463.336 641.267 463.504 639.812L463.504 552.78M463.504 552.78C463.42 551.295 465.613 550.024 469.983 549.385L483.872 547.354M511.812 578.956L549.39 573.098L555.247 575.537M511.812 578.956V588.599M511.812 578.956L517.668 581.396M517.668 581.396L555.247 575.537M517.668 581.396L517.668 591.282M555.247 575.537V584.936L549.39 585.925M517.668 645.354L555.247 636.81L555.247 628.388M517.668 645.354V636.444M517.668 645.354L511.812 642.057V633.515M517.668 591.282L511.812 588.599M517.668 591.282L549.39 585.925M517.668 636.444L555.247 628.388M517.668 636.444L511.812 633.515M555.247 628.388L549.586 625.947M511.812 588.599V633.515M549.39 585.925V603.305L549.586 625.947M511.812 633.515L549.586 625.947M516.692 671.35L520.089 673.262C521.672 674.154 523.53 674.424 525.301 674.021L558.228 666.535C559.339 666.283 560.127 665.294 560.127 664.155L560.127 657.682M516.692 671.35V664.809C516.692 663.645 517.513 662.643 518.653 662.415L549.756 656.184M516.692 671.35L496.073 656.461M560.127 657.682L522.549 665.737M560.127 657.682L557.262 656.446C555.442 655.661 553.426 655.449 551.482 655.838L549.756 656.184M522.549 665.737L517.668 663.54M522.549 665.737V674.037M549.756 656.184L542.924 651.701" stroke="white" stroke-opacity="0.7" stroke-width="1.51082"/>
<path d="M348.688 126.621C340.033 129.972 332.479 132.451 326.191 136.79C323.339 138.758 321.968 142.158 321.968 145.624L321.968 167.509" stroke="white" stroke-width="1.51082"/>
<path d="M198.009 262.591C198.009 264.343 207.131 265.764 218.384 265.764C229.637 265.764 238.759 264.343 238.759 262.591V255.075C238.759 248.541 243.086 242.797 249.364 240.996L334.901 209.131C346.159 205.455 352.551 202.92 359.664 197.774C361.471 196.466 362.475 194.335 362.475 192.104V178.129" stroke="white" stroke-width="1.51082"/>
<path d="M383.237 184.18C383.237 187.258 381.867 189.437 380.176 189.047C378.486 188.656 377.115 185.845 377.115 182.766C377.115 179.688 378.486 177.509 380.176 177.9C381.867 178.29 383.237 181.102 383.237 184.18Z" fill="white"/>
<path d="M353.091 140.185C353.091 143.263 351.72 145.442 350.03 145.052C348.339 144.661 346.969 141.85 346.969 138.771C346.969 135.693 348.339 133.514 350.03 133.905C351.72 134.295 353.091 137.107 353.091 140.185Z" fill="white"/>
<path d="M483.872 274.063C474.193 286.472 452.565 315.61 450.808 317.758M450.808 317.758C449.933 318.828 449.426 320.655 449.743 322.673M450.808 317.758L449.743 322.673M449.743 322.673C450.221 325.719 452.576 329.202 458.373 331.184C468.011 334.48 519.254 326.302 523.037 306.895C526.819 287.489 528.283 278.945 542.924 274.063C557.565 269.18 572.694 262.59 575.866 258.318M449.743 322.673L439.645 369.251C438.42 374.902 440.633 380.744 445.293 384.165L454.751 391.106C460.062 395.004 462.117 401.97 459.773 408.128L439.776 460.665C438.402 464.274 438.509 468.28 440.072 471.81L461.166 519.438C462.809 523.146 462.841 527.37 461.254 531.102L445.143 569.007C444.373 570.82 443.976 572.769 443.976 574.739V644.743L455.558 661.193C460.334 667.976 459.734 677.171 454.117 683.275L446.304 691.767C444.984 693.201 444.972 695.404 446.276 696.852L455.402 706.987C456.959 708.716 456.597 711.43 454.64 712.69L449.651 715.902C447.497 717.289 447.319 720.371 449.298 721.997L454.357 726.151C456.339 727.779 456.157 730.867 453.996 732.251L444.799 738.14C442.541 739.585 442.466 742.858 444.655 744.405L449.906 748.116C452.163 749.711 451.998 753.111 449.597 754.481L440.623 759.6C438.342 760.901 438.052 764.076 440.061 765.769L452.922 776.611C454.931 778.304 454.64 781.481 452.357 782.781L443.302 787.936C442.217 788.554 441.746 789.87 442.218 791.026C444.555 796.748 448.919 806.459 452.614 811.469C457.834 818.549 490.827 824.529 523.037 823.187C555.247 821.844 555.613 809.639 569.278 811.469C575.964 812.365 581.835 806.792 586.075 800.476C590.35 794.108 587.784 785.843 581.669 781.214L578.708 778.973C576.053 776.963 576.045 772.976 578.692 770.955L585.93 765.429C588.796 763.241 588.501 758.838 585.369 757.051L581.89 755.067C578.871 753.346 578.462 749.157 581.09 746.884L582.358 745.787C584.974 743.524 584.583 739.357 581.59 737.622L580.922 737.234C578.205 735.658 577.578 732.008 579.612 729.615L580.562 728.498C582.617 726.082 581.954 722.392 579.187 720.842L572.997 717.374C570.85 716.171 569.887 713.594 570.718 711.278L584.528 672.815L573.426 625.214L575.706 555.19C575.81 551.999 574.869 548.862 573.026 546.255L561.898 530.517C559.526 527.162 558.672 522.964 559.545 518.948L572.605 458.846C573.143 456.371 573.031 453.806 572.284 451.386C565.705 430.091 554.692 393.171 555.613 390.869C556.46 388.751 563.004 356.268 567.43 333.944C568.558 328.256 566.165 322.506 561.696 318.813C556.444 314.474 551.381 309.467 551.83 306.895C552.514 302.99 568.139 272.883 575.866 258.318M575.866 258.318C579.038 254.046 569.4 248.065 562.933 244.892C557.76 242.353 544.917 238.789 539.142 237.324" stroke="white" stroke-width="1.51082"/>
<path d="M576.106 258.195C576.042 258.389 575.931 258.613 575.768 258.864C569.427 271.385 556.916 296.076 554.999 299.816C552.559 304.576 549.387 305.675 558.415 315.805C567.444 325.935 569.03 326.546 567.932 333.259C566.834 339.972 562.197 364.26 558.903 376.954C555.609 389.648 555.609 390.503 556.829 397.216C558.049 403.929 571.47 447.38 572.324 450.554C573.178 453.727 573.3 456.046 571.592 464.468C569.884 472.89 561.71 510.726 560.611 515.975C559.513 521.223 558.171 526.105 562.93 531.354C567.688 536.602 573.788 545.634 575.252 550.272C576.716 554.911 575.252 573.828 575.252 576.88C575.252 579.931 573.544 622.895 573.788 624.97C574.032 627.046 583.427 668.421 584.159 670.984C584.891 673.547 584.037 676.721 581.719 682.213C579.746 686.887 574.327 701.288 572.23 706.902C571.177 709.831 570.343 712.325 570.254 713.215C570.01 715.656 573.182 716.999 574.89 718.464C576.598 719.929 580.868 722.003 581.478 724.078C582.088 726.153 580.624 727.74 578.916 730.303C577.208 732.866 580.258 736.405 582.088 737.504C583.918 738.602 585.748 742.874 583.064 745.071C580.38 747.268 579.282 749.221 579.526 752.15C579.77 755.08 584.284 756.056 586.358 757.521C588.433 758.985 588.067 761.671 587.457 763.258C586.847 764.844 585.139 765.699 583.431 767.041C581.723 768.384 577.818 771.069 576.964 772.655C576.11 774.242 576.72 776.44 577.818 778.271C578.917 780.101 582.576 781.932 584.65 784.007C586.724 786.082 588.311 790.11 588.677 793.405C589.043 796.701 586.48 799.386 584.284 803.048C582.088 806.709 575.255 810.37 572.693 811.347C570.131 812.323 563.543 811.713 561.591 812.323C559.638 812.934 547.315 820.989 529.015 822.698C510.714 824.407 488.997 822.576 475.454 820.013C461.911 817.45 454.103 813.3 452.395 811.713C450.686 810.126 443.488 793.894 442.634 792.062C441.78 790.232 442.024 789.255 443 788.156C443.978 787.057 452.272 783.64 453.614 781.932C454.956 780.223 454.59 779.003 453.614 777.294C452.638 775.585 441.414 766.919 439.096 765.332C436.778 763.745 438.608 760.816 441.048 759.474C443.488 758.131 449.466 755.812 450.564 753.615C451.662 751.419 451.418 749.832 450.564 748.855C449.71 747.879 447.27 746.902 444.342 744.583C441.414 742.264 443.61 739.945 444.342 738.847C445.074 737.748 452.273 733.965 454.591 732.012C456.908 730.059 455.445 727.862 454.591 726.886C453.737 725.909 453.248 725.421 450.076 722.369C446.909 719.323 447.755 718.223 448.972 716.641L448.978 716.633C450.199 715.046 456.054 711.873 456.421 710.042C456.787 708.211 455.444 707.722 453.736 705.281C452.028 702.84 447.026 698.08 445.562 694.175C445.186 693.174 445.68 692.39 446.645 691.78C450.205 687.934 459.348 679.935 459.349 670.984C459.349 665.858 445.314 647.183 444.582 644.742C443.85 642.296 444.582 578.837 444.582 574.195C444.582 569.557 446.29 565.285 447.876 562.111C449.462 558.938 461.297 534.893 462.029 529.522C462.761 524.152 461.175 517.561 456.417 507.431C451.659 497.3 442.752 477.528 441.044 473.134C439.336 468.74 439.214 461.416 441.898 455.313C444.583 449.21 458.613 411.13 459.589 408.811C460.565 406.491 463.249 398.192 456.417 392.211C449.585 386.23 437.75 379.639 439.824 368.898C441.484 360.305 447.266 334.805 449.95 323.129C451.008 326.18 454.855 332.233 461.785 332.038C470.448 331.794 497.168 328.987 508.393 321.786C519.617 314.585 521.935 313.486 524.619 299.816C527.303 286.146 533.16 276.015 553.657 270.034C568.432 265.723 574.279 261.155 575.768 258.864C575.883 258.637 575.996 258.414 576.106 258.195Z" fill="#D9D9D9" fill-opacity="0.1"/>
<path d="M453.98 779.49C455.322 780.466 459.007 782.785 463.009 784.25C468.011 786.08 467.767 788.644 471.061 791.207C474.355 793.77 494.853 796.455 505.467 797.065C515.995 797.671 533.484 792.273 544.959 788.731L545.242 788.644C554.417 785.812 567.854 787.464 573.426 788.644C569.155 789.864 557.077 788.644 550.366 793.892C543.656 799.14 538.287 803.9 522.304 803.9C506.321 803.9 485.214 797.92 472.647 803.046C462.594 807.147 449.019 798.652 443.488 793.892C442.878 792.793 441.853 790.206 442.634 788.644C443.61 786.691 446.294 785.714 449.71 784.25C453.126 782.785 453.98 780.466 453.98 779.49Z" fill="#D9D9D9" fill-opacity="0.1"/>
<path d="M582.088 742.629C584.626 742.434 584.122 743.687 583.552 744.338C583.186 744.785 582.308 745.876 581.722 746.657C580.99 747.633 580.502 748.366 578.916 749.464C577.33 750.563 579.648 752.76 580.502 753.858L577.452 752.76H563.543C557.809 752.76 552.074 753.858 542.314 756.299C532.553 758.74 527.429 761.792 519.498 766.308C511.568 770.824 509.616 769.847 504.491 772.166C500.392 774.021 495.381 772.939 493.389 772.166C499.408 770.295 513.056 765.697 519.498 762.28C527.551 758.008 527.551 754.712 529.625 752.76C531.699 750.807 550.122 747.511 565.617 744.826C581.112 742.141 578.916 742.873 582.088 742.629Z" fill="#D9D9D9" fill-opacity="0.1"/>
<path d="M537.067 741.897C544.876 739.944 554.474 740.351 558.297 740.798C553.823 741.49 544.559 742.971 543.29 743.361C541.703 743.85 526.941 750.807 522.06 755.689C517.18 760.571 506.077 759.595 500.587 758.008C495.097 756.421 482.042 757.764 471.061 758.008C460.081 758.252 456.176 761.425 448.856 764.843C443 767.577 439.339 764.273 438.241 762.28C438.119 761.751 438.07 760.595 438.851 760.205C439.827 759.717 446.66 756.299 448.124 755.689C449.295 755.201 450.645 753.533 451.174 752.76C450.035 752.882 448.832 752.93 453.126 752.149C458.494 751.173 473.745 752.149 485.336 752.76C496.927 753.37 507.785 752.76 511.202 752.149C514.618 751.539 527.307 744.338 537.067 741.897Z" fill="#D9D9D9" fill-opacity="0.1"/>
<path d="M570.375 713.336C572.449 718.462 577.086 719.317 578.916 720.903C580.746 722.49 581.966 722.856 581.722 724.443C581.478 726.03 581.356 728.837 580.502 729.691C579.648 730.546 580.502 733.719 565.983 730.668C551.464 727.616 540.484 726.274 532.553 728.471C524.623 730.668 506.809 738.113 493.389 737.015C479.968 735.916 476.674 741.042 471.793 742.873C466.913 744.704 453.858 742.019 451.174 742.019C448.49 742.019 441.169 742.629 442.878 740.798C444.586 738.967 452.882 733.841 453.98 732.254C455.078 730.668 445.44 728.227 456.664 729.813C467.889 731.4 475.82 728.715 484.238 727.372C492.657 726.03 510.836 727.128 520.352 723.711C529.869 720.293 532.675 716.998 543.656 718.584C554.636 720.171 561.713 720.537 563.543 719.317C565.007 718.34 568.708 714.923 570.375 713.336Z" fill="#D9D9D9" fill-opacity="0.1"/>
<path d="M564.275 639.249C569.033 632.17 573.67 629.851 574.89 632.536C575.866 634.684 580.746 655.401 583.064 665.49C583.796 667.037 585.041 670.69 584.162 672.936C583.064 675.743 567.447 676.964 561.713 681.968C555.978 686.972 544.51 698.323 536.579 701.008C528.649 703.694 508.762 707.843 497.781 711.017C486.8 714.19 466.059 714.068 463.619 713.336C461.179 712.604 458.983 712.97 456.176 709.308C453.37 705.646 452.516 705.402 451.174 702.839C449.832 700.276 450.442 691.244 463.619 695.394C476.796 699.544 493.511 699.178 503.271 693.075C513.032 686.972 531.455 678.672 533.407 677.208C535.359 675.743 533.285 666.589 536.579 658.289C539.873 649.99 559.517 646.328 564.275 639.249Z" fill="#D9D9D9" fill-opacity="0.1"/>
<path d="M573.514 545.511C574.613 546.569 576.711 549.88 576.321 554.665C575.833 560.646 576.321 566.382 575.345 571.752C565.218 575.17 563.388 576.635 542.281 580.296C525.395 583.226 501.815 595.431 492.135 601.168C489.777 608.979 483.717 627.263 478.349 637.906C471.638 651.21 474.444 623.382 469.564 622.161C464.684 620.941 468.832 645.229 466.026 652.431C463.781 658.192 459.559 662.561 457.729 664.026C454.11 659.184 446.651 648.891 445.773 646.45C444.675 643.399 443.576 643.032 444.675 639.249C445.773 635.465 443.576 607.515 444.675 602.51C445.773 597.506 459.315 587.742 464.44 588.718C469.564 589.695 482.863 591.769 488.719 586.521C494.576 581.273 502.14 575.536 512.267 576.635C522.393 577.733 536.424 578.099 548.381 570.654C560.338 563.209 577.053 561.622 573.514 545.511Z" fill="#D9D9D9" fill-opacity="0.1"/>
<path d="M553.749 467.518C559.118 453.237 571.684 457.265 572.294 461.781C572.904 466.297 571.684 468.738 566.682 492.295C562.68 511.14 560.785 523.012 560.338 526.592C557.125 527.243 548.674 528.033 540.572 525.982C530.446 523.419 522.149 526.592 494.576 544.046C472.517 558.009 474.566 544.575 478.349 536.113C484.083 527.528 496.308 509.798 499.334 507.552C503.116 504.744 529.226 503.036 535.692 499.618C542.159 496.201 548.381 481.798 553.749 467.518Z" fill="#D9D9D9" fill-opacity="0.1"/>
<path d="M539.108 391.234C546.307 386.229 553.184 379.394 553.749 383.666C553.627 384.439 554.018 388.036 556.555 396.238C559.093 404.44 562.574 417.557 563.998 423.09C559.931 422.032 548.576 420.551 535.692 423.09C519.587 426.263 566.682 427.118 548.381 443.717C530.08 460.317 505.556 472.4 482.985 475.573C464.928 478.112 456.021 493.8 453.825 501.327L445.773 481.798C447.806 476.184 455.167 464.32 468.344 461.781C484.815 458.608 492.379 451.651 501.896 439.689C511.413 427.728 533.13 413.326 539.108 409.054C545.087 404.782 512.755 416.987 504.58 423.09C496.406 429.193 497.016 420.405 507.874 409.054C518.733 397.703 531.91 396.238 539.108 391.234Z" fill="#D9D9D9" fill-opacity="0.1"/>
<path d="M554.725 294.078C553.139 298.716 549.479 306.772 554.725 312.142C559.972 317.513 565.34 321.052 566.682 325.08C568.024 329.108 570.83 326.911 567.658 332.037C564.486 337.163 537.156 363.405 529.226 368.409C521.295 373.414 520.929 366.823 526.42 358.645C531.91 350.467 513.853 354.373 504.58 366.579C495.308 378.784 490.671 389.037 482.985 396.238C475.298 403.439 463.464 408.199 461.878 403.073C460.291 397.947 455.045 395.017 455.411 391.234C455.777 387.45 476.884 380.981 484.815 375.977C492.745 370.973 507.386 353.763 511.413 349.491C515.439 345.219 524.467 344.487 531.178 339.605C537.888 334.722 546.063 330.45 548.381 325.08C550.699 319.71 545.819 302.866 554.725 294.078Z" fill="#D9D9D9" fill-opacity="0.1"/>
<path d="M512.788 126.621L528.161 127.72V285.902C528.161 285.902 524.989 295.484 522.793 305.309C520.597 315.135 512.788 318.247 512.788 318.247V126.621Z" fill="#D9D9D9" fill-opacity="0.1"/>
<path d="M529.869 102.453L545.486 104.284V125.644L529.869 123.202L529.869 102.453Z" fill="#D9D9D9" fill-opacity="0.1"/>
<path d="M482.896 103.512L493.334 102.211V123.571L482.896 125.157V103.512Z" fill="#D9D9D9" fill-opacity="0.1"/>
<path d="M332.407 184.23L326.604 184.596V171.308C328.406 170.938 330.491 170.567 332.407 170.353V184.23Z" fill="#D9D9D9" fill-opacity="0.1"/>
<path d="M332.407 165.44C330.693 165.43 328.71 165.57 326.971 166.044C326.845 166.078 326.723 166.117 326.604 166.159V136.221L332.407 133.211V165.44Z" fill="#D9D9D9" fill-opacity="0.1"/>
<path opacity="0.6" d="M487.452 632.437C488.053 631.48 488.786 631.126 489.518 631.295C490.315 631.479 491.143 632.276 491.785 633.593C492.415 634.887 492.813 636.584 492.813 638.368C492.813 640.157 492.414 641.639 491.811 642.598C491.21 643.554 490.477 643.908 489.745 643.739C488.948 643.555 488.12 642.759 487.478 641.441C486.848 640.147 486.45 638.45 486.45 636.666C486.45 634.877 486.849 633.395 487.452 632.437ZM471.103 624.625C471.705 623.668 472.438 623.314 473.17 623.483C473.967 623.668 474.794 624.464 475.435 625.781C476.066 627.075 476.465 628.772 476.465 630.557C476.465 632.345 476.064 633.828 475.462 634.786C474.86 635.742 474.128 636.097 473.396 635.928C472.599 635.744 471.771 634.947 471.13 633.63C470.499 632.336 470.101 630.639 470.101 628.854C470.101 627.066 470.501 625.583 471.103 624.625ZM478.424 567.991C479.025 567.035 479.758 566.681 480.49 566.85C481.287 567.034 482.115 567.83 482.757 569.147C483.387 570.442 483.785 572.139 483.785 573.923C483.785 575.711 483.385 577.194 482.783 578.152C482.182 579.109 481.448 579.464 480.717 579.295C479.92 579.111 479.092 578.313 478.45 576.996C477.819 575.702 477.422 574.005 477.422 572.221C477.422 570.432 477.821 568.95 478.424 567.991Z" stroke="white" stroke-width="1.00721"/>
<path d="M587.945 763.256C589.311 761.01 588.026 759.31 587.213 758.74C583.186 754.834 581.112 759.351 575.988 761.67C570.864 763.989 568.301 766.308 563.421 768.26C558.541 770.213 537.922 772.899 524.257 777.048C510.592 781.198 497.293 780.222 489.851 780.344C483.897 780.442 467.198 778.513 459.593 777.537C463.253 778.798 471.11 782.053 473.258 784.982C475.942 788.644 499.855 789.62 500.343 789.742C500.831 789.864 514.74 786.203 527.429 783.883C540.118 781.564 533.651 782.907 549.634 782.663C562.421 782.468 572.531 776.886 575.988 774.119C576.923 773.224 579.258 770.921 581.112 768.871C583.43 766.308 586.237 766.064 587.945 763.256Z" fill="#D9D9D9" fill-opacity="0.1"/>
<path d="M552.441 307.383C552.441 307.383 540.313 342.315 524.013 344.365C507.713 346.416 493.958 358.158 489.119 363.772M452.882 427.851C455.404 422.765 461.765 411.813 467.035 408.688C473.624 404.782 484.97 407.956 494.731 398.802C502.539 391.478 511.568 381.918 515.106 378.052M557.199 386.962C554.515 392.577 546.706 415.035 545.364 419.917C544.022 424.799 532.065 444.206 526.209 448.478C520.353 452.75 508.762 458.486 504.858 460.073M458.129 539.653C456.909 538.554 456.323 534.258 463.741 525.861C473.014 515.364 467.645 512.679 485.092 509.383C502.539 506.088 514.374 510.97 526.209 507.064C535.677 503.94 544.876 496.812 548.292 493.638M573.67 620.575C573.304 622.894 573.304 623.504 571.962 626.19C570.62 628.875 561.835 636.808 545.364 638.761C528.893 640.714 504.37 640.958 494.731 651.211C487.02 659.413 479.399 669.356 476.552 673.303M450.93 702.23C448.693 702.474 447.002 704.598 458.129 711.14C472.038 719.317 498.513 713.459 504.492 711.14C510.47 708.821 534.139 699.056 539.752 698.324C544.242 697.738 558.704 686.851 565.373 681.48M573.67 704.183C573.751 706.257 573.06 711.335 569.644 715.045C565.373 719.683 565.739 722.247 548.292 721.27C530.845 720.294 521.817 722.491 513.154 725.542C506.224 727.983 485.865 731.197 476.552 732.499M444.952 757.52C445.115 754.713 447.27 749.343 454.59 750.319C463.741 751.54 482.896 754.225 494.731 752.272C506.566 750.319 518.888 742.386 526.209 741.043C532.065 739.969 550.61 740.596 559.151 741.043M584.162 741.043C583.39 742.589 581.576 746.145 580.502 748C579.16 750.319 566.105 752.272 552.929 752.272C539.752 752.272 509.372 765.82 504.492 768.749C499.611 771.679 469.353 775.829 463.741 773.265M450.93 784.861C450.971 784.332 451.76 782.932 454.59 781.565C458.129 779.856 462.155 779.612 473.014 784.861C483.872 790.109 511.446 792.672 521.329 788.766C531.211 784.861 552.929 781.565 559.151 781.565" stroke="white" stroke-width="0.755408"/>
<path d="M257.056 99.5459C256.644 102.276 258.524 104.824 261.254 105.236L305.751 111.948C308.481 112.36 311.029 110.48 311.441 107.75C311.853 105.019 309.973 102.472 307.242 102.06L267.69 96.0934L273.656 56.5409C274.068 53.8103 272.188 51.2629 269.458 50.851C266.727 50.4391 264.18 52.3187 263.768 55.0493L257.056 99.5459ZM284.411 83.7556L281.442 79.7323L284.411 83.7556ZM627 186.043H632V113.346H627H622V186.043H627ZM284.411 83.7556L281.442 79.7323L259.031 96.2683L262 100.292L264.969 104.315L287.38 87.779L284.411 83.7556ZM284.411 83.7556L287.38 87.779C353.93 38.6747 434.112 11.4975 516.804 10.0169L516.714 5.01769L516.625 0.0184953C431.857 1.53631 349.663 29.3956 281.442 79.7323L284.411 83.7556ZM627 113.346H632C632 49.953 580.008 -1.11641 516.625 0.0184953L516.714 5.01769L516.804 10.0169C574.595 8.98211 622 55.5459 622 113.346H627Z" fill="#4FE2CE"/>
<defs>
<linearGradient id="paint0_linear_7002_3258" x1="218.506" y1="262.832" x2="218.506" y2="517.804" gradientUnits="userSpaceOnUse">
<stop stop-color="white"/>
<stop offset="1" stop-color="#999999" stop-opacity="0"/>
</linearGradient>
</defs>
</svg>
