<svg width="361" height="285" viewBox="0 0 361 285" fill="none" xmlns="http://www.w3.org/2000/svg">
<path d="M179.074 257.069C159.219 257.888 155.943 265.45 152.35 271.56C148.711 271.253 142.416 274.643 138.924 274.348C134.558 273.98 126.59 269.387 123.534 269.129C120.478 268.872 115.657 263.478 101.984 258.761C88.3119 254.045 79.4912 254.369 62.3937 258.984C45.2961 263.599 17.9739 243.478 16.0595 240.11C14.528 237.417 26.7152 202.41 33.0003 185.244C29.8036 177.967 24.0811 162.756 26.7647 160.132C30.1193 156.852 41.7613 143.938 61.2507 137.031C76.8423 131.506 75.5538 146.353 79.998 151.004C80.9471 151.915 83.9684 153.975 88.4611 154.925C92.9538 155.874 99.1045 155.585 101.618 155.322L96.595 162.737C95.6423 163.607 94.0502 165.8 95.304 167.616C96.5578 169.432 101.297 169.547 103.51 169.377C102.878 169.918 102.184 171.546 104.462 173.733C106.634 175.819 111.294 175.89 113.65 175.643C113.699 175.491 113.836 175.513 113.978 175.605C113.874 175.618 113.765 175.631 113.65 175.643C113.554 175.939 113.793 176.892 114.989 179.253C117.25 183.72 125.77 178.491 125.998 181.004C126.18 183.015 129.815 184.186 132.967 185.046C134.291 183.257 138.521 179.504 139.998 176.504C142.264 171.9 151.035 158.759 155.498 154.504L193.998 152.004L248.303 171.34L264.357 220.795L243.796 224.761C237.66 226.262 224.555 229.765 221.221 231.764C217.053 234.263 213.519 239.665 209.896 246.13C206.273 252.594 198.929 256.25 179.074 257.069Z" fill="url(#paint0_radial_4794_61720)" fill-opacity="0.07"/>
<path d="M257.54 207.748L264.363 220.794L243.803 224.76C237.667 226.262 224.562 229.764 221.228 231.763C217.06 234.262 213.526 239.665 209.903 246.129C206.28 252.593 198.936 256.249 179.081 257.068C159.226 257.887 155.95 265.449 152.356 271.559C148.718 271.253 142.423 274.642 138.93 274.347C134.565 273.979 126.597 269.386 123.541 269.128C120.485 268.871 115.664 263.477 101.991 258.76C88.3187 254.044 79.498 254.369 62.4005 258.983C45.3029 263.598 17.9807 243.477 16.0663 240.11C14.5348 237.416 15.1863 229.583 21.4714 212.417M184.571 243.992C182.16 241.294 171.003 217.193 165.368 211.017C159.734 204.841 156.122 205.961 155.029 213.708C154.154 219.905 159.983 243.58 163.007 254.643M120.132 252.095C122.337 241.592 127.272 224.905 127.839 218.184C128.406 211.462 126.225 205.933 120.677 214.373C116.238 221.124 102.608 242.659 96.3479 252.582M49.1594 238.625C52.305 237.821 105.732 219.525 108.62 216.562C111.508 213.599 94.5225 206.465 77.0592 204.992" stroke="url(#paint1_radial_4794_61720)" stroke-width="1.13"/>
<path d="M227.036 178.453L139.264 207.747L36.4916 185.537" stroke="url(#paint2_radial_4794_61720)" stroke-width="1.13"/>
<path d="M147.35 210.923C148.552 207.105 190.001 195.281 191.747 195.428C197.365 194.121 204.282 187.578 195.628 191.124C188.706 193.96 156.624 203.51 141.448 207.931C137.945 207.754 130.509 207.293 128.788 206.863C126.636 206.325 95.3496 201.904 67.856 194.24C45.8611 188.109 46.9503 191.883 50.2443 194.536C70.2435 198.955 111.464 207.896 116.354 208.308C122.466 208.824 113.078 215.87 107.541 218.966C102.003 222.062 57.5474 238.264 50.2338 241.567C42.9201 244.869 44.6553 250.36 45.1405 255.033C45.6256 259.706 75.6229 253.329 82.8172 251.442C90.0114 249.555 106.299 228.482 111.639 222.519C116.978 216.556 122.467 208.824 128.579 209.339C134.691 209.855 132.825 211.123 132.199 218.552C131.572 225.982 126.915 239.485 125.147 250.025C123.378 260.564 125.113 266.055 128.05 267.728C130.987 269.401 136.979 271.332 144.024 271.214C151.069 271.096 156.965 263.754 158.364 262.803C159.764 261.853 154.019 251.748 151.847 246.22C149.676 240.692 146.149 214.741 147.35 210.923Z" fill="#D9D9D9" fill-opacity="0.15"/>
<path d="M141.216 104.053C141.184 103.743 140.906 103.518 140.595 103.55C140.285 103.582 140.06 103.86 140.092 104.171L140.654 104.112L141.216 104.053ZM142.75 113.454C142.947 113.696 143.303 113.732 143.545 113.535C143.786 113.338 143.823 112.982 143.626 112.74L143.188 113.097L142.75 113.454ZM163.566 99.7084C163.459 99.4152 163.134 99.2642 162.841 99.3711C162.548 99.4779 162.397 99.8022 162.504 100.095L163.035 99.9019L163.566 99.7084ZM162.526 107.8C162.39 108.081 162.509 108.418 162.79 108.554C163.071 108.689 163.409 108.571 163.544 108.29L163.035 108.045L162.526 107.8ZM170.21 98.9766C170.164 98.6679 169.877 98.4544 169.568 98.4998C169.26 98.5452 169.046 98.8323 169.092 99.141L169.651 99.0588L170.21 98.9766ZM172.379 113.342C172.514 113.623 172.852 113.741 173.133 113.606C173.414 113.471 173.532 113.133 173.397 112.852L172.888 113.097L172.379 113.342ZM174.586 94.7362C174.525 95.0422 174.723 95.3399 175.029 95.4013C175.335 95.4626 175.633 95.2644 175.694 94.9584L175.14 94.8473L174.586 94.7362ZM179.691 87.0244C179.945 86.8433 180.004 86.4905 179.823 86.2364C179.642 85.9822 179.289 85.923 179.035 86.104L179.363 86.5642L179.691 87.0244ZM176.69 105.46C176.657 105.77 176.883 106.048 177.193 106.08C177.504 106.112 177.781 105.887 177.814 105.576L177.252 105.518L176.69 105.46ZM184.632 97.235C184.942 97.2014 185.166 96.9227 185.133 96.6124C185.099 96.3022 184.82 96.078 184.51 96.1116L184.571 96.6733L184.632 97.235ZM251.313 79.3571L251.076 78.8443V78.8443L251.313 79.3571ZM198.003 99.4646L198.121 100.017L198.003 99.4646ZM186.912 133.958L187.417 133.705V133.705L186.912 133.958ZM209.004 154.272L209.032 154.836L209.004 154.272ZM281.149 133.958L281.438 134.444V134.444L281.149 133.958ZM180.672 119.665C180.979 119.609 181.182 119.315 181.126 119.008C181.07 118.701 180.776 118.497 180.469 118.553L180.57 119.109L180.672 119.665ZM148.386 124.151L148.386 123.586V123.586L148.386 124.151ZM105.719 135.692L106.153 136.054V136.054L105.719 135.692ZM86.2592 144.318L86.4006 144.865V144.865L86.2592 144.318ZM82.1312 151.18L82.3514 150.66V150.66L82.1312 151.18ZM109.809 143.189C110.052 142.993 110.09 142.638 109.893 142.395C109.697 142.152 109.342 142.114 109.099 142.31L109.454 142.75L109.809 143.189ZM99.8222 154.121L100.365 154.279V154.279L99.8222 154.121ZM103.754 169.021H104.319V168.323L103.636 168.468L103.754 169.021ZM114.761 175.294H115.326V174.683L114.717 174.731L114.761 175.294ZM125.769 180.391L126.317 180.254L126.146 179.572L125.517 179.886L125.769 180.391ZM187.515 135.715C187.528 136.027 187.791 136.269 188.103 136.256C188.414 136.244 188.657 135.981 188.644 135.669L188.08 135.692L187.515 135.715ZM191.848 122.142C192.053 121.906 192.027 121.549 191.791 121.345C191.555 121.141 191.198 121.167 190.994 121.403L191.421 121.772L191.848 122.142ZM169.376 126.005C169.331 125.696 169.045 125.482 168.736 125.526C168.427 125.57 168.213 125.857 168.257 126.166L168.816 126.085L169.376 126.005ZM171.308 138.181C171.492 138.434 171.846 138.489 172.098 138.305C172.35 138.121 172.405 137.768 172.221 137.516L171.765 137.849L171.308 138.181ZM181.135 134.496C181.124 134.184 180.862 133.94 180.55 133.951C180.238 133.962 179.994 134.224 180.006 134.536L180.57 134.516L181.135 134.496ZM182.772 142.75L183.125 142.308V142.308L182.772 142.75ZM177.662 152.552L177.698 153.116V153.116L177.662 152.552ZM191.421 151.495L191.468 152.058V152.058L191.421 151.495ZM195.204 151.743C195.515 151.716 195.746 151.442 195.719 151.132C195.692 150.821 195.418 150.59 195.108 150.617L195.156 151.18L195.204 151.743ZM157.778 140.313C157.731 140.004 157.443 139.792 157.135 139.838C156.826 139.885 156.614 140.173 156.66 140.481L157.219 140.397L157.778 140.313ZM151.631 147.79C151.491 147.511 151.151 147.398 150.872 147.538C150.593 147.678 150.481 148.017 150.62 148.296L151.126 148.043L151.631 147.79ZM188.468 110.224C188.695 110.009 188.704 109.652 188.49 109.425C188.276 109.198 187.918 109.188 187.691 109.403L188.08 109.813L188.468 110.224ZM181.039 123.06C181.1 123.366 181.398 123.564 181.704 123.503C182.01 123.441 182.208 123.144 182.147 122.838L181.593 122.949L181.039 123.06ZM189.911 138.855C189.601 138.82 189.322 139.044 189.287 139.354C189.253 139.664 189.476 139.944 189.786 139.978L189.849 139.416L189.911 138.855ZM199.359 138.344C199.633 138.194 199.733 137.85 199.583 137.577C199.432 137.303 199.089 137.203 198.815 137.353L199.087 137.849L199.359 138.344ZM193.615 143.946C193.409 143.711 193.052 143.688 192.818 143.893C192.583 144.099 192.56 144.456 192.766 144.691L193.19 144.318L193.615 143.946ZM202.152 144.871C202.457 144.807 202.653 144.507 202.589 144.202C202.524 143.897 202.225 143.701 201.92 143.765L202.036 144.318L202.152 144.871ZM253.28 12.1963C253.388 11.9037 253.239 11.5786 252.946 11.4702C252.654 11.3618 252.329 11.5111 252.22 11.8037L252.75 12L253.28 12.1963ZM242.222 43.4984L241.664 43.4101V43.4101L242.222 43.4984ZM169.962 95.2129C169.998 95.5228 170.279 95.7443 170.589 95.7078C170.899 95.6712 171.121 95.3904 171.084 95.0805L170.523 95.1467L169.962 95.2129ZM179.539 116.507C179.656 116.796 179.985 116.936 180.275 116.819C180.564 116.701 180.703 116.372 180.586 116.083L180.062 116.295L179.539 116.507ZM175.303 95.1467L175.867 95.1141L175.836 94.5817H175.303V95.1467ZM143.892 99.9974L143.904 100.562L143.892 99.9974ZM82.9718 131.96L82.9393 131.396L82.8977 131.398L82.8569 131.407L82.9718 131.96ZM242.787 61.5126C242.787 61.2006 242.534 60.9476 242.222 60.9476C241.91 60.9476 241.657 61.2006 241.657 61.5126H242.222H242.787ZM245.257 146.889L245.114 146.343L245.257 146.889ZM244.707 208.724C244.78 209.027 245.086 209.214 245.389 209.141C245.692 209.067 245.879 208.762 245.806 208.459L245.257 208.591L244.707 208.724ZM99.8222 128.76L99.6376 128.226L99.8222 128.76ZM110.823 128.149C111.108 128.275 111.442 128.146 111.568 127.861C111.695 127.576 111.566 127.242 111.28 127.116L111.052 127.632L110.823 128.149ZM96.0415 141.427L96.2357 141.958L96.0415 141.427ZM140.654 104.112L140.092 104.171C140.212 105.314 140.483 107.136 140.911 108.906C141.125 109.791 141.38 110.672 141.68 111.453C141.976 112.227 142.328 112.937 142.75 113.454L143.188 113.097L143.626 112.74C143.315 112.359 143.014 111.777 142.735 111.049C142.458 110.327 142.216 109.496 142.009 108.64C141.595 106.928 141.331 105.156 141.216 104.053L140.654 104.112ZM163.035 99.9019L162.504 100.095C162.768 100.82 163.094 102.101 163.189 103.537C163.284 104.977 163.143 106.517 162.526 107.8L163.035 108.045L163.544 108.29C164.278 106.764 164.418 105.005 164.316 103.462C164.214 101.915 163.865 100.529 163.566 99.7084L163.035 99.9019ZM169.651 99.0588L169.092 99.141C169.351 100.905 169.825 103.724 170.403 106.458C170.978 109.169 171.669 111.867 172.379 113.342L172.888 113.097L173.397 112.852C172.755 111.518 172.087 108.952 171.509 106.224C170.936 103.517 170.466 100.722 170.21 98.9766L169.651 99.0588ZM175.14 94.8473L175.694 94.9584C175.762 94.6188 176.071 93.1116 176.722 91.437C177.382 89.7409 178.353 87.9775 179.691 87.0244L179.363 86.5642L179.035 86.104C177.417 87.2568 176.347 89.284 175.669 91.0275C174.983 92.7924 174.659 94.3739 174.586 94.7362L175.14 94.8473ZM177.252 105.518L177.814 105.576C177.947 104.288 178.46 102.305 179.551 100.592C180.635 98.8891 182.26 97.4922 184.632 97.235L184.571 96.6733L184.51 96.1116C181.702 96.4161 179.808 98.0843 178.598 99.985C177.394 101.875 176.837 104.034 176.69 105.46L177.252 105.518ZM278.192 36.91L277.644 36.7726C276.235 42.3935 273.205 51.2617 268.702 59.5616C264.189 67.8814 258.252 75.5271 251.076 78.8443L251.313 79.3571L251.551 79.87C259.068 76.3949 265.152 68.4765 269.696 60.1004C274.25 51.7046 277.312 42.7453 278.74 37.0473L278.192 36.91ZM198.003 99.4646L197.885 98.9121C194.68 99.5972 191.028 101.078 187.831 103.241C184.636 105.403 181.854 108.276 180.455 111.765L180.98 111.975L181.504 112.186C182.793 108.972 185.387 106.26 188.464 104.177C191.539 102.096 195.055 100.672 198.121 100.017L198.003 99.4646ZM180.98 111.975L180.455 111.765C179.033 115.312 179.709 119.252 181.113 123.092C182.515 126.93 184.699 130.805 186.407 134.212L186.912 133.958L187.417 133.705C185.673 130.226 183.547 126.461 182.174 122.704C180.802 118.95 180.239 115.341 181.504 112.186L180.98 111.975ZM186.912 133.958L186.407 134.212C188.14 137.67 190.148 140.894 191.684 143.618C192.458 144.99 193.113 146.236 193.574 147.345C194.039 148.46 194.286 149.39 194.286 150.14H194.851H195.416C195.416 149.169 195.103 148.076 194.618 146.91C194.13 145.738 193.448 144.445 192.668 143.063C191.098 140.278 189.135 137.133 187.417 133.705L186.912 133.958ZM194.851 150.14H194.286C194.286 151.233 194.873 152.095 195.758 152.743C196.631 153.381 197.835 153.844 199.206 154.175C201.955 154.838 205.553 155.009 209.032 154.836L209.004 154.272L208.976 153.707C205.551 153.878 202.073 153.705 199.471 153.077C198.167 152.762 197.127 152.343 196.425 151.83C195.736 151.326 195.416 150.769 195.416 150.14H194.851ZM281.149 133.958L281.438 134.444C290.446 129.088 302.393 120.54 312.874 110.13C323.346 99.7286 332.406 87.417 335.549 74.5298L335 74.396L334.451 74.2621C331.38 86.8525 322.49 98.9855 312.078 109.328C301.674 119.662 289.803 128.155 280.861 133.473L281.149 133.958ZM180.57 119.109L180.469 118.553C175.861 119.393 168.722 120.653 162.286 121.703C159.067 122.227 156.026 122.699 153.566 123.04C151.09 123.382 149.243 123.586 148.386 123.586L148.386 124.151L148.386 124.716C149.336 124.716 151.265 124.499 153.721 124.159C156.194 123.817 159.245 123.343 162.467 122.818C168.913 121.767 176.059 120.506 180.672 119.665L180.57 119.109ZM148.386 124.151L148.386 123.586C143.864 123.585 139.725 123.586 133.238 123.586V124.151V124.716C139.725 124.716 143.864 124.715 148.386 124.716L148.386 124.151ZM133.238 124.151V123.586C126.841 123.586 123.117 122.76 117.267 125.576L117.513 126.085L117.758 126.595C123.309 123.922 126.662 124.716 133.238 124.716V124.151ZM117.513 126.085L117.267 125.576C114.388 126.963 112.379 128.212 110.588 129.722C108.803 131.226 107.253 132.975 105.286 135.33L105.719 135.692L106.153 136.054C108.116 133.704 109.613 132.022 111.317 130.586C113.015 129.154 114.936 127.953 117.758 126.595L117.513 126.085ZM86.2592 144.318L86.1177 143.771C84.7713 144.119 83.4154 144.557 82.2391 145.065C81.0751 145.567 80.0364 146.159 79.3694 146.839C79.0328 147.181 78.7638 147.573 78.6425 148.015C78.5172 148.472 78.5614 148.941 78.7878 149.395C79.2161 150.254 80.2707 151.006 81.911 151.7L82.1312 151.18L82.3514 150.66C80.7484 149.981 80.0339 149.362 79.7989 148.891C79.6935 148.679 79.6825 148.495 79.7322 148.314C79.7861 148.118 79.9225 147.888 80.1756 147.63C80.688 147.109 81.5658 146.586 82.6869 146.102C83.7957 145.623 85.0934 145.203 86.4006 144.865L86.2592 144.318ZM82.1312 151.18L81.911 151.7C84.5673 152.824 88.344 153.061 91.9541 152.921C95.5852 152.781 99.1367 152.256 101.397 151.797L101.285 151.243L101.172 150.69C98.9611 151.139 95.4709 151.655 91.9106 151.792C88.3295 151.93 84.7654 151.681 82.3514 150.66L82.1312 151.18ZM109.454 142.75L109.099 142.31C106.983 144.019 103.064 147.602 100.817 150.927L101.285 151.243L101.753 151.56C103.907 148.374 107.722 144.874 109.809 143.189L109.454 142.75ZM101.285 151.243L100.817 150.927C100.12 151.958 99.5633 152.993 99.2799 153.962L99.8222 154.121L100.365 154.279C100.601 153.469 101.088 152.544 101.753 151.56L101.285 151.243ZM99.8222 154.121L99.2799 153.962C97.9264 158.591 95.7992 162.065 94.6205 164.024L95.1047 164.315L95.5888 164.607C96.7689 162.645 98.9661 159.061 100.365 154.279L99.8222 154.121ZM95.1047 164.315L94.6205 164.024C93.933 165.167 93.7405 167.13 95.1192 168.534C96.4857 169.926 99.2023 170.564 103.871 169.573L103.754 169.021L103.636 168.468C99.0662 169.438 96.8687 168.703 95.9256 167.742C94.9946 166.794 95.097 165.424 95.5888 164.607L95.1047 164.315ZM103.754 169.021H103.189C103.189 170.492 103.248 171.735 103.518 172.739C103.795 173.77 104.303 174.58 105.2 175.137C106.068 175.676 107.242 175.942 108.777 176.036C110.32 176.13 112.293 176.054 114.805 175.857L114.761 175.294L114.717 174.731C112.216 174.926 110.308 174.997 108.846 174.908C107.378 174.818 106.427 174.569 105.796 174.177C105.194 173.803 104.83 173.265 104.609 172.446C104.382 171.6 104.319 170.49 104.319 169.021H103.754ZM114.761 175.294H114.196C114.196 177.585 115.135 179.996 117.153 181.329C119.196 182.678 122.177 182.814 126.021 180.897L125.769 180.391L125.517 179.886C121.891 181.694 119.368 181.438 117.775 180.386C116.156 179.316 115.326 177.316 115.326 175.294H114.761ZM125.769 180.391L125.221 180.529C125.961 183.483 128.255 185.488 130.901 185.733C133.574 185.98 136.422 184.422 138.267 180.639L137.759 180.391L137.251 180.144C135.558 183.615 133.099 184.801 131.005 184.608C128.884 184.411 126.952 182.79 126.317 180.254L125.769 180.391ZM137.759 180.391L138.267 180.639C141.784 173.429 145.685 168.182 147.807 165.874L147.391 165.492L146.975 165.109C144.772 167.506 140.811 172.846 137.251 180.144L137.759 180.391ZM147.391 165.492L147.807 165.874C148.922 164.66 150.718 162.07 152.353 159.684C153.178 158.481 153.967 157.322 154.625 156.388C155.296 155.436 155.793 154.772 156.045 154.521L155.646 154.121L155.247 153.721C154.91 154.057 154.351 154.815 153.701 155.737C153.038 156.679 152.242 157.848 151.421 159.046C149.764 161.464 148.022 163.97 146.975 165.109L147.391 165.492ZM188.08 135.692L188.644 135.669C188.58 134.104 188.667 131.528 189.137 128.926C189.61 126.305 190.456 123.75 191.848 122.142L191.421 121.772L190.994 121.403C189.398 123.246 188.508 126.049 188.025 128.725C187.538 131.419 187.448 134.078 187.515 135.715L188.08 135.692ZM168.816 126.085L168.257 126.166C168.488 127.777 168.913 130.302 169.44 132.645C169.703 133.816 169.993 134.95 170.3 135.906C170.601 136.843 170.936 137.67 171.308 138.181L171.765 137.849L172.221 137.516C171.965 137.164 171.674 136.49 171.376 135.56C171.083 134.649 170.801 133.551 170.542 132.397C170.024 130.09 169.603 127.596 169.376 126.005L168.816 126.085ZM180.57 134.516L180.006 134.536C180.046 135.671 180.206 137.449 180.558 139.113C180.735 139.944 180.962 140.763 181.254 141.464C181.542 142.153 181.916 142.789 182.42 143.191L182.772 142.75L183.125 142.308C182.842 142.083 182.558 141.654 182.297 141.029C182.042 140.416 181.832 139.671 181.664 138.878C181.328 137.294 181.173 135.582 181.135 134.496L180.57 134.516ZM177.662 152.552L177.698 153.116C181.336 152.882 187.164 152.416 191.468 152.058L191.421 151.495L191.374 150.932C187.07 151.29 181.252 151.755 177.625 151.988L177.662 152.552ZM191.421 151.495L191.468 152.058C192.94 151.936 194.235 151.826 195.204 151.743L195.156 151.18L195.108 150.617C194.14 150.7 192.846 150.81 191.374 150.932L191.421 151.495ZM182.772 142.75L182.42 143.191C183.357 143.939 185.034 145.81 186.753 147.695C187.6 148.624 188.449 149.545 189.199 150.301C189.933 151.042 190.619 151.674 191.131 151.98L191.421 151.495L191.711 151.01C191.339 150.788 190.747 150.258 190.001 149.505C189.27 148.768 188.436 147.863 187.588 146.933C185.917 145.102 184.153 143.129 183.125 142.308L182.772 142.75ZM155.646 154.121L156.045 154.521C156.03 154.536 156.052 154.51 156.165 154.464C156.268 154.422 156.413 154.376 156.603 154.329C156.985 154.236 157.501 154.149 158.135 154.07C159.4 153.913 161.075 153.793 162.948 153.696L162.919 153.131L162.89 152.567C161.009 152.665 159.302 152.787 157.995 152.949C157.344 153.03 156.778 153.123 156.334 153.232C156.113 153.286 155.91 153.347 155.736 153.418C155.573 153.485 155.389 153.579 155.247 153.721L155.646 154.121ZM162.919 153.131L162.948 153.696C165.432 153.566 168.243 153.478 170.873 153.393C173.499 153.309 175.949 153.229 177.698 153.116L177.662 152.552L177.625 151.988C175.899 152.1 173.469 152.179 170.837 152.264C168.21 152.348 165.387 152.437 162.89 152.567L162.919 153.131ZM157.219 140.397L156.66 140.481C156.959 142.464 157.605 145.49 158.58 148.131C159.068 149.451 159.646 150.699 160.319 151.678C160.982 152.644 161.795 153.431 162.781 153.679L162.919 153.131L163.057 152.583C162.47 152.436 161.858 151.923 161.25 151.038C160.651 150.167 160.111 149.016 159.64 147.74C158.699 145.191 158.069 142.245 157.778 140.313L157.219 140.397ZM151.126 148.043L150.62 148.296C151.286 149.625 153.149 152.753 155.282 154.552L155.646 154.121L156.011 153.689C154.055 152.038 152.275 149.076 151.631 147.79L151.126 148.043ZM188.08 109.813L187.691 109.403C186.383 110.641 184.49 112.789 183.038 115.235C181.6 117.66 180.525 120.495 181.039 123.06L181.593 122.949L182.147 122.838C181.718 120.697 182.609 118.174 184.01 115.812C185.399 113.471 187.221 111.404 188.468 110.224L188.08 109.813ZM189.849 139.416L189.786 139.978C190.714 140.081 192.281 140.12 194.018 139.914C195.753 139.709 197.699 139.254 199.359 138.344L199.087 137.849L198.815 137.353C197.33 138.168 195.541 138.596 193.885 138.792C192.232 138.988 190.752 138.948 189.911 138.855L189.849 139.416ZM193.19 144.318L192.766 144.691C192.98 144.935 193.333 145.119 193.754 145.253C194.192 145.393 194.771 145.501 195.507 145.549C196.981 145.644 199.131 145.505 202.152 144.871L202.036 144.318L201.92 143.765C198.965 144.386 196.922 144.508 195.581 144.421C194.91 144.377 194.427 144.282 194.097 144.177C193.933 144.124 193.814 144.072 193.732 144.026C193.691 144.003 193.662 143.984 193.642 143.969C193.622 143.953 193.615 143.945 193.615 143.946L193.19 144.318ZM252.75 12L252.22 11.8037C250.607 16.1577 248.144 22.9584 245.998 29.2115C244.926 32.3378 243.931 35.3304 243.162 37.8134C242.397 40.283 241.842 42.2851 241.664 43.4101L242.222 43.4984L242.78 43.5867C242.944 42.5548 243.473 40.6289 244.241 38.1479C245.006 35.6802 245.996 32.6995 247.067 29.5782C249.209 23.3361 251.669 16.5444 253.28 12.1963L252.75 12ZM242.222 43.4984L241.664 43.4101C241.257 45.9806 240.327 47.4791 238.779 48.6944C237.176 49.9533 234.914 50.9129 231.746 52.3488L231.98 52.8634L232.213 53.378C235.305 51.9761 237.737 50.9493 239.477 49.5831C241.273 48.1734 242.334 46.4082 242.78 43.5867L242.222 43.4984ZM231.98 52.8634L231.746 52.3488C225.451 55.2028 189.08 72.4915 180.85 75.6049L181.05 76.1334L181.25 76.6618C189.523 73.5321 225.989 56.1997 232.213 53.378L231.98 52.8634ZM181.05 76.1334L180.85 75.6049C176.628 77.2021 173.592 79.6201 171.771 82.9194C169.954 86.2114 169.384 90.3131 169.962 95.2129L170.523 95.1467L171.084 95.0805C170.524 90.3317 171.092 86.4876 172.76 83.4655C174.424 80.4507 177.22 78.1863 181.25 76.6618L181.05 76.1334ZM180.062 116.295L180.586 116.083C179.226 112.727 176.37 103.811 175.867 95.1141L175.303 95.1467L174.739 95.1793C175.251 104.037 178.149 113.078 179.539 116.507L180.062 116.295ZM175.303 95.1467V94.5817C174.052 94.5817 171.899 94.8846 169.31 95.3254C166.705 95.7688 163.605 96.3616 160.437 96.9574C154.072 98.1545 147.47 99.3547 143.879 99.4325L143.892 99.9974L143.904 100.562C147.611 100.482 154.325 99.2567 160.646 98.068C163.821 97.4709 166.907 96.8807 169.499 96.4393C172.108 95.9953 174.164 95.7117 175.303 95.7117V95.1467ZM143.892 99.9974L143.879 99.4325C140.229 99.5117 135.584 99.6305 131.433 99.8087C127.302 99.9862 123.608 100.224 121.893 100.55L121.998 101.105L122.104 101.66C123.721 101.353 127.324 101.116 131.482 100.938C135.621 100.76 140.256 100.641 143.904 100.562L143.892 99.9974ZM121.998 101.105L121.893 100.55C120.111 100.888 117.925 102.093 115.933 103.313C113.883 104.568 112.041 105.835 110.8 106.454L111.052 106.96L111.304 107.465C112.601 106.818 114.567 105.474 116.523 104.277C118.536 103.044 120.554 101.954 122.104 101.66L121.998 101.105ZM111.052 106.96L110.8 106.454C110.083 106.811 109.563 107.269 109.065 107.815C108.598 108.328 108.076 109.01 107.47 109.717C106.215 111.18 104.271 113.163 100.269 115.825L100.582 116.295L100.895 116.766C104.983 114.047 107.005 111.995 108.328 110.452C109.011 109.655 109.431 109.092 109.9 108.576C110.34 108.094 110.752 107.741 111.304 107.465L111.052 106.96ZM100.582 116.295L100.269 115.825C92.1918 121.195 86.5376 124.005 82.814 125.088L82.9718 125.631L83.1297 126.173C87.021 125.041 92.7899 122.154 100.895 116.766L100.582 116.295ZM82.9718 125.631L82.814 125.088C80.6241 125.725 79.5512 127.763 79.5512 129.507C79.5512 130.384 79.8209 131.258 80.4332 131.862C81.0659 132.487 81.9825 132.742 83.0868 132.513L82.9718 131.96L82.8569 131.407C82.0575 131.573 81.5462 131.373 81.227 131.058C80.8874 130.723 80.6812 130.173 80.6812 129.507C80.6812 128.166 81.5121 126.644 83.1297 126.173L82.9718 125.631ZM251.313 79.3571L251.076 78.8443C248.257 80.1475 245.193 81.4937 242.002 82.8438L242.222 83.3642L242.442 83.8845C245.642 82.5307 248.718 81.1795 251.551 79.87L251.313 79.3571ZM242.222 83.3642L242.002 82.8438C233.229 86.5562 223.51 90.2941 215.323 93.2454C207.119 96.2024 200.494 98.3545 197.885 98.9121L198.003 99.4646L198.121 100.017C200.819 99.4405 207.519 97.2595 215.706 94.3084C223.909 91.3516 233.647 87.6063 242.442 83.8845L242.222 83.3642ZM242.222 61.5126H241.657C241.657 61.5192 241.657 61.5258 241.657 61.5324C241.657 61.539 241.657 61.5456 241.657 61.5522C241.657 61.5589 241.657 61.5655 241.657 61.5722C241.657 61.5789 241.657 61.5856 241.657 61.5923C241.657 61.5991 241.657 61.6058 241.657 61.6126C241.657 61.6194 241.657 61.6261 241.657 61.633C241.657 61.6398 241.657 61.6466 241.657 61.6535C241.657 61.6603 241.657 61.6672 241.657 61.6741C241.657 61.681 241.657 61.6879 241.657 61.6949C241.657 61.7018 241.657 61.7088 241.657 61.7158C241.657 61.7228 241.657 61.7298 241.657 61.7368C241.657 61.7438 241.657 61.7509 241.657 61.758C241.657 61.765 241.657 61.7721 241.657 61.7792C241.657 61.7864 241.657 61.7935 241.657 61.8007C241.657 61.8078 241.657 61.815 241.657 61.8222C241.657 61.8294 241.657 61.8366 241.657 61.8439C241.657 61.8511 241.657 61.8584 241.657 61.8656C241.657 61.8729 241.657 61.8802 241.657 61.8876C241.657 61.8949 241.657 61.9022 241.657 61.9096C241.657 61.917 241.657 61.9244 241.657 61.9318C241.657 61.9392 241.657 61.9466 241.657 61.9541C241.657 61.9615 241.657 61.969 241.657 61.9765C241.657 61.984 241.657 61.9915 241.657 61.999C241.657 62.0066 241.657 62.0141 241.657 62.0217C241.657 62.0293 241.657 62.0369 241.657 62.0445C241.657 62.0521 241.657 62.0598 241.657 62.0674C241.657 62.0751 241.657 62.0828 241.657 62.0905C241.657 62.0982 241.657 62.1059 241.657 62.1137C241.657 62.1214 241.657 62.1292 241.657 62.1369C241.657 62.1447 241.657 62.1525 241.657 62.1604C241.657 62.1682 241.657 62.176 241.657 62.1839C241.657 62.1918 241.657 62.1997 241.657 62.2076C241.657 62.2155 241.657 62.2234 241.657 62.2314C241.657 62.2393 241.657 62.2473 241.657 62.2553C241.657 62.2633 241.657 62.2713 241.657 62.2793C241.657 62.2873 241.657 62.2954 241.657 62.3035C241.657 62.3115 241.657 62.3196 241.657 62.3277C241.657 62.3359 241.657 62.344 241.657 62.3521C241.657 62.3603 241.657 62.3685 241.657 62.3767C241.657 62.3849 241.657 62.3931 241.657 62.4013C241.657 62.4095 241.657 62.4178 241.657 62.4261C241.657 62.4344 241.657 62.4427 241.657 62.451C241.657 62.4593 241.657 62.4676 241.657 62.476C241.657 62.4843 241.657 62.4927 241.657 62.5011C241.657 62.5095 241.657 62.5179 241.657 62.5263C241.657 62.5348 241.657 62.5432 241.657 62.5517C241.657 62.5602 241.657 62.5687 241.657 62.5772C241.657 62.5857 241.657 62.5943 241.657 62.6028C241.657 62.6114 241.657 62.6199 241.657 62.6285C241.657 62.6371 241.657 62.6457 241.657 62.6544C241.657 62.663 241.657 62.6717 241.657 62.6803C241.657 62.689 241.657 62.6977 241.657 62.7064C241.657 62.7151 241.657 62.7239 241.657 62.7326C241.657 62.7414 241.657 62.7502 241.657 62.7589C241.657 62.7677 241.657 62.7766 241.657 62.7854C241.657 62.7942 241.657 62.8031 241.657 62.8119C241.657 62.8208 241.657 62.8297 241.657 62.8386C241.657 62.8475 241.657 62.8564 241.657 62.8654C241.657 62.8743 241.657 62.8833 241.657 62.8923C241.657 62.9013 241.657 62.9103 241.657 62.9193C241.657 62.9284 241.657 62.9374 241.657 62.9465C241.657 62.9555 241.657 62.9646 241.657 62.9737C241.657 62.9828 241.657 62.9919 241.657 63.0011C241.657 63.0102 241.657 63.0194 241.657 63.0286C241.657 63.0378 241.657 63.047 241.657 63.0562C241.657 63.0654 241.657 63.0746 241.657 63.0839C241.657 63.0932 241.657 63.1024 241.657 63.1117C241.657 63.121 241.657 63.1303 241.657 63.1397C241.657 63.149 241.657 63.1584 241.657 63.1677C241.657 63.1771 241.657 63.1865 241.657 63.1959C241.657 63.2053 241.657 63.2148 241.657 63.2242C241.657 63.2337 241.657 63.2431 241.657 63.2526C241.657 63.2621 241.657 63.2716 241.657 63.2811C241.657 63.2906 241.657 63.3002 241.657 63.3097C241.657 63.3193 241.657 63.3289 241.657 63.3385C241.657 63.3481 241.657 63.3577 241.657 63.3673C241.657 63.377 241.657 63.3866 241.657 63.3963C241.657 63.406 241.657 63.4157 241.657 63.4254C241.657 63.4351 241.657 63.4448 241.657 63.4546C241.657 63.4643 241.657 63.4741 241.657 63.4839C241.657 63.4937 241.657 63.5035 241.657 63.5133C241.657 63.5231 241.657 63.533 241.657 63.5428C241.657 63.5527 241.657 63.5626 241.657 63.5725C241.657 63.5824 241.657 63.5923 241.657 63.6022C241.657 63.6122 241.657 63.6221 241.657 63.6321C241.657 63.6421 241.657 63.6521 241.657 63.6621C241.657 63.6721 241.657 63.6821 241.657 63.6921C241.657 63.7022 241.657 63.7122 241.657 63.7223C241.657 63.7324 241.657 63.7425 241.657 63.7526C241.657 63.7627 241.657 63.7729 241.657 63.783C241.657 63.7932 241.657 63.8034 241.657 63.8136C241.657 63.8237 241.657 63.834 241.657 63.8442C241.657 63.8544 241.657 63.8647 241.657 63.8749C241.657 63.8852 241.657 63.8955 241.657 63.9058C241.657 63.9161 241.657 63.9264 241.657 63.9367C241.657 63.9471 241.657 63.9574 241.657 63.9678C241.657 63.9782 241.657 63.9885 241.657 63.999C241.657 64.0094 241.657 64.0198 241.657 64.0302C241.657 64.0407 241.657 64.0511 241.657 64.0616C241.657 64.0721 241.657 64.0826 241.657 64.0931C241.657 64.1036 241.657 64.1142 241.657 64.1247C241.657 64.1353 241.657 64.1458 241.657 64.1564C241.657 64.167 241.657 64.1776 241.657 64.1882C241.657 64.1988 241.657 64.2095 241.657 64.2201C241.657 64.2308 241.657 64.2415 241.657 64.2522C241.657 64.2628 241.657 64.2736 241.657 64.2843C241.657 64.295 241.657 64.3058 241.657 64.3165C241.657 64.3273 241.657 64.3381 241.657 64.3489C241.657 64.3597 241.657 64.3705 241.657 64.3813C241.657 64.3921 241.657 64.403 241.657 64.4138C241.657 64.4247 241.657 64.4356 241.657 64.4465C241.657 64.4574 241.657 64.4683 241.657 64.4793C241.657 64.4902 241.657 64.5011 241.657 64.5121C241.657 64.5231 241.657 64.5341 241.657 64.5451C241.657 64.5561 241.657 64.5671 241.657 64.5782C241.657 64.5892 241.657 64.6003 241.657 64.6113C241.657 64.6224 241.657 64.6335 241.657 64.6446C241.657 64.6557 241.657 64.6668 241.657 64.678C241.657 64.6891 241.657 64.7003 241.657 64.7115C241.657 64.7226 241.657 64.7338 241.657 64.745C241.657 64.7562 241.657 64.7675 241.657 64.7787C241.657 64.79 241.657 64.8012 241.657 64.8125C241.657 64.8238 241.657 64.8351 241.657 64.8464C241.657 64.8577 241.657 64.869 241.657 64.8804C241.657 64.8917 241.657 64.9031 241.657 64.9145C241.657 64.9259 241.657 64.9372 241.657 64.9487C241.657 64.9601 241.657 64.9715 241.657 64.983C241.657 64.9944 241.657 65.0059 241.657 65.0173C241.657 65.0288 241.657 65.0403 241.657 65.0518C241.657 65.0634 241.657 65.0749 241.657 65.0864C241.657 65.098 241.657 65.1095 241.657 65.1211C241.657 65.1327 241.657 65.1443 241.657 65.1559C241.657 65.1675 241.657 65.1792 241.657 65.1908C241.657 65.2024 241.657 65.2141 241.657 65.2258C241.657 65.2375 241.657 65.2492 241.657 65.2609C241.657 65.2726 241.657 65.2843 241.657 65.2961C241.657 65.3078 241.657 65.3196 241.657 65.3313C241.657 65.3431 241.657 65.3549 241.657 65.3667C241.657 65.3785 241.657 65.3904 241.657 65.4022C241.657 65.414 241.657 65.4259 241.657 65.4378C241.657 65.4497 241.657 65.4615 241.657 65.4735C241.657 65.4854 241.657 65.4973 241.657 65.5092C241.657 65.5212 241.657 65.5331 241.657 65.5451C241.657 65.5571 241.657 65.5691 241.657 65.5811C241.657 65.5931 241.657 65.6051 241.657 65.6171C241.657 65.6292 241.657 65.6412 241.657 65.6533C241.657 65.6653 241.657 65.6774 241.657 65.6895C241.657 65.7016 241.657 65.7137 241.657 65.7259C241.657 65.738 241.657 65.7502 241.657 65.7623C241.657 65.7745 241.657 65.7867 241.657 65.7989C241.657 65.8111 241.657 65.8233 241.657 65.8355C241.657 65.8477 241.657 65.86 241.657 65.8722C241.657 65.8845 241.657 65.8968 241.657 65.909C241.657 65.9213 241.657 65.9336 241.657 65.946C241.657 65.9583 241.657 65.9706 241.657 65.983C241.657 65.9953 241.657 66.0077 241.657 66.0201C241.657 66.0325 241.657 66.0449 241.657 66.0573C241.657 66.0697 241.657 66.0821 241.657 66.0946C241.657 66.107 241.657 66.1195 241.657 66.1319C241.657 66.1444 241.657 66.1569 241.657 66.1694C241.657 66.1819 241.657 66.1945 241.657 66.207C241.657 66.2195 241.657 66.2321 241.657 66.2446C241.657 66.2572 241.657 66.2698 241.657 66.2824C241.657 66.295 241.657 66.3076 241.657 66.3202C241.657 66.3329 241.657 66.3455 241.657 66.3582C241.657 66.3708 241.657 66.3835 241.657 66.3962C241.657 66.4089 241.657 66.4216 241.657 66.4343C241.657 66.447 241.657 66.4598 241.657 66.4725C241.657 66.4853 241.657 66.4981 241.657 66.5108C241.657 66.5236 241.657 66.5364 241.657 66.5492C241.657 66.562 241.657 66.5749 241.657 66.5877C241.657 66.6005 241.657 66.6134 241.657 66.6263C241.657 66.6391 241.657 66.652 241.657 66.6649C241.657 66.6778 241.657 66.6908 241.657 66.7037C241.657 66.7166 241.657 66.7296 241.657 66.7425C241.657 66.7555 241.657 66.7685 241.657 66.7814C241.657 66.7944 241.657 66.8074 241.657 66.8205C241.657 66.8335 241.657 66.8465 241.657 66.8596C241.657 66.8726 241.657 66.8857 241.657 66.8988C241.657 66.9118 241.657 66.9249 241.657 66.938C241.657 66.9511 241.657 66.9643 241.657 66.9774C241.657 66.9905 241.657 67.0037 241.657 67.0169C241.657 67.03 241.657 67.0432 241.657 67.0564C241.657 67.0696 241.657 67.0828 241.657 67.096C241.657 67.1093 241.657 67.1225 241.657 67.1357C241.657 67.149 241.657 67.1623 241.657 67.1755C241.657 67.1888 241.657 67.2021 241.657 67.2154C241.657 67.2287 241.657 67.2421 241.657 67.2554C241.657 67.2687 241.657 67.2821 241.657 67.2955C241.657 67.3088 241.657 67.3222 241.657 67.3356C241.657 67.349 241.657 67.3624 241.657 67.3758C241.657 67.3893 241.657 67.4027 241.657 67.4162C241.657 67.4296 241.657 67.4431 241.657 67.4566C241.657 67.47 241.657 67.4835 241.657 67.497C241.657 67.5106 241.657 67.5241 241.657 67.5376C241.657 67.5512 241.657 67.5647 241.657 67.5783C241.657 67.5918 241.657 67.6054 241.657 67.619C241.657 67.6326 241.657 67.6462 241.657 67.6598C241.657 67.6734 241.657 67.6871 241.657 67.7007C241.657 67.7144 241.657 67.728 241.657 67.7417C241.657 67.7554 241.657 67.7691 241.657 67.7828C241.657 67.7965 241.657 67.8102 241.657 67.8239C241.657 67.8377 241.657 67.8514 241.657 67.8652C241.657 67.8789 241.657 67.8927 241.657 67.9065C241.657 67.9203 241.657 67.9341 241.657 67.9479C241.657 67.9617 241.657 67.9755 241.657 67.9894C241.657 68.0032 241.657 68.0171 241.657 68.0309C241.657 68.0448 241.657 68.0587 241.657 68.0726C241.657 68.0865 241.657 68.1004 241.657 68.1143C241.657 68.1282 241.657 68.1422 241.657 68.1561C241.657 68.1701 241.657 68.184 241.657 68.198C241.657 68.212 241.657 68.226 241.657 68.24C241.657 68.254 241.657 68.268 241.657 68.282C241.657 68.296 241.657 68.3101 241.657 68.3241C241.657 68.3382 241.657 68.3523 241.657 68.3663C241.657 68.3804 241.657 68.3945 241.657 68.4086C241.657 68.4227 241.657 68.4369 241.657 68.451C241.657 68.4651 241.657 68.4793 241.657 68.4934C241.657 68.5076 241.657 68.5218 241.657 68.5359C241.657 68.5501 241.657 68.5643 241.657 68.5785C241.657 68.5928 241.657 68.607 241.657 68.6212C241.657 68.6355 241.657 68.6497 241.657 68.664C241.657 68.6782 241.657 68.6925 241.657 68.7068C241.657 68.7211 241.657 68.7354 241.657 68.7497C241.657 68.764 241.657 68.7784 241.657 68.7927C241.657 68.807 241.657 68.8214 241.657 68.8358C241.657 68.8501 241.657 68.8645 241.657 68.8789C241.657 68.8933 241.657 68.9077 241.657 68.9221C241.657 68.9366 241.657 68.951 241.657 68.9654C241.657 68.9799 241.657 68.9943 241.657 69.0088C241.657 69.0233 241.657 69.0377 241.657 69.0522C241.657 69.0667 241.657 69.0812 241.657 69.0958C241.657 69.1103 241.657 69.1248 241.657 69.1394C241.657 69.1539 241.657 69.1685 241.657 69.183C241.657 69.1976 241.657 69.2122 241.657 69.2268C241.657 69.2414 241.657 69.256 241.657 69.2706C241.657 69.2852 241.657 69.2998 241.657 69.3145C241.657 69.3291 241.657 69.3438 241.657 69.3585C241.657 69.3731 241.657 69.3878 241.657 69.4025C241.657 69.4172 241.657 69.4319 241.657 69.4466C241.657 69.4613 241.657 69.4761 241.657 69.4908C241.657 69.5055 241.657 69.5203 241.657 69.5351C241.657 69.5498 241.657 69.5646 241.657 69.5794C241.657 69.5942 241.657 69.609 241.657 69.6238C241.657 69.6386 241.657 69.6534 241.657 69.6683C241.657 69.6831 241.657 69.698 241.657 69.7128C241.657 69.7277 241.657 69.7426 241.657 69.7575C241.657 69.7723 241.657 69.7872 241.657 69.8021C241.657 69.8171 241.657 69.832 241.657 69.8469C241.657 69.8619 241.657 69.8768 241.657 69.8918C241.657 69.9067 241.657 69.9217 241.657 69.9367C241.657 69.9516 241.657 69.9666 241.657 69.9816C241.657 69.9966 241.657 70.0117 241.657 70.0267C241.657 70.0417 241.657 70.0568 241.657 70.0718C241.657 70.0869 241.657 70.1019 241.657 70.117C241.657 70.1321 241.657 70.1472 241.657 70.1623C241.657 70.1774 241.657 70.1925 241.657 70.2076C241.657 70.2227 241.657 70.2378 241.657 70.253C241.657 70.2681 241.657 70.2833 241.657 70.2985C241.657 70.3136 241.657 70.3288 241.657 70.344C241.657 70.3592 241.657 70.3744 241.657 70.3896C241.657 70.4048 241.657 70.42 241.657 70.4353C241.657 70.4505 241.657 70.4657 241.657 70.481C241.657 70.4963 241.657 70.5115 241.657 70.5268C241.657 70.5421 241.657 70.5574 241.657 70.5727C241.657 70.588 241.657 70.6033 241.657 70.6186C241.657 70.634 241.657 70.6493 241.657 70.6646C241.657 70.68 241.657 70.6953 241.657 70.7107C241.657 70.7261 241.657 70.7415 241.657 70.7569C241.657 70.7723 241.657 70.7877 241.657 70.8031C241.657 70.8185 241.657 70.8339 241.657 70.8493C241.657 70.8648 241.657 70.8802 241.657 70.8957C241.657 70.9111 241.657 70.9266 241.657 70.9421C241.657 70.9576 241.657 70.9731 241.657 70.9886C241.657 71.0041 241.657 71.0196 241.657 71.0351C241.657 71.0506 241.657 71.0662 241.657 71.0817C241.657 71.0973 241.657 71.1128 241.657 71.1284C241.657 71.1439 241.657 71.1595 241.657 71.1751C241.657 71.1907 241.657 71.2063 241.657 71.2219C241.657 71.2375 241.657 71.2531 241.657 71.2688C241.657 71.2844 241.657 71.3 241.657 71.3157C241.657 71.3313 241.657 71.347 241.657 71.3627C241.657 71.3784 241.657 71.394 241.657 71.4097C241.657 71.4254 241.657 71.4411 241.657 71.4568C241.657 71.4726 241.657 71.4883 241.657 71.504C241.657 71.5198 241.657 71.5355 241.657 71.5513C241.657 71.567 241.657 71.5828 241.657 71.5986C241.657 71.6143 241.657 71.6301 241.657 71.6459C241.657 71.6617 241.657 71.6775 241.657 71.6933C241.657 71.7092 241.657 71.725 241.657 71.7408C241.657 71.7567 241.657 71.7725 241.657 71.7884C241.657 71.8042 241.657 71.8201 241.657 71.836C241.657 71.8519 241.657 71.8678 241.657 71.8837C241.657 71.8996 241.657 71.9155 241.657 71.9314C241.657 71.9473 241.657 71.9632 241.657 71.9792C241.657 71.9951 241.657 72.0111 241.657 72.027C241.657 72.043 241.657 72.059 241.657 72.0749C241.657 72.0909 241.657 72.1069 241.657 72.1229C241.657 72.1389 241.657 72.1549 241.657 72.1709C241.657 72.187 241.657 72.203 241.657 72.219C241.657 72.2351 241.657 72.2511 241.657 72.2672C241.657 72.2832 241.657 72.2993 241.657 72.3154C241.657 72.3315 241.657 72.3476 241.657 72.3637C241.657 72.3798 241.657 72.3959 241.657 72.412C241.657 72.4281 241.657 72.4442 241.657 72.4604C241.657 72.4765 241.657 72.4926 241.657 72.5088C241.657 72.525 241.657 72.5411 241.657 72.5573C241.657 72.5735 241.657 72.5897 241.657 72.6058C241.657 72.622 241.657 72.6382 241.657 72.6545C241.657 72.6707 241.657 72.6869 241.657 72.7031C241.657 72.7194 241.657 72.7356 241.657 72.7519C241.657 72.7681 241.657 72.7844 241.657 72.8006C241.657 72.8169 241.657 72.8332 241.657 72.8495C241.657 72.8658 241.657 72.8821 241.657 72.8984C241.657 72.9147 241.657 72.931 241.657 72.9473C241.657 72.9636 241.657 72.98 241.657 72.9963C241.657 73.0127 241.657 73.029 241.657 73.0454C241.657 73.0617 241.657 73.0781 241.657 73.0945C241.657 73.1109 241.657 73.1273 241.657 73.1437C241.657 73.16 241.657 73.1765 241.657 73.1929C241.657 73.2093 241.657 73.2257 241.657 73.2421C241.657 73.2586 241.657 73.275 241.657 73.2915C241.657 73.3079 241.657 73.3244 241.657 73.3409C241.657 73.3573 241.657 73.3738 241.657 73.3903C241.657 73.4068 241.657 73.4233 241.657 73.4398C241.657 73.4563 241.657 73.4728 241.657 73.4893C241.657 73.5059 241.657 73.5224 241.657 73.5389C241.657 73.5555 241.657 73.572 241.657 73.5886C241.657 73.6051 241.657 73.6217 241.657 73.6383C241.657 73.6549 241.657 73.6714 241.657 73.688C241.657 73.7046 241.657 73.7212 241.657 73.7378C241.657 73.7544 241.657 73.7711 241.657 73.7877C241.657 73.8043 241.657 73.821 241.657 73.8376C241.657 73.8542 241.657 73.8709 241.657 73.8876C241.657 73.9042 241.657 73.9209 241.657 73.9376C241.657 73.9542 241.657 73.9709 241.657 73.9876C241.657 74.0043 241.657 74.021 241.657 74.0377C241.657 74.0544 241.657 74.0712 241.657 74.0879C241.657 74.1046 241.657 74.1214 241.657 74.1381C241.657 74.1549 241.657 74.1716 241.657 74.1884C241.657 74.2051 241.657 74.2219 241.657 74.2387C241.657 74.2555 241.657 74.2722 241.657 74.289C241.657 74.3058 241.657 74.3226 241.657 74.3394C241.657 74.3562 241.657 74.3731 241.657 74.3899C241.657 74.4067 241.657 74.4236 241.657 74.4404C241.657 74.4572 241.657 74.4741 241.657 74.4909C241.657 74.5078 241.657 74.5247 241.657 74.5415C241.657 74.5584 241.657 74.5753 241.657 74.5922C241.657 74.6091 241.657 74.626 241.657 74.6429C241.657 74.6598 241.657 74.6767 241.657 74.6936C241.657 74.7106 241.657 74.7275 241.657 74.7444C241.657 74.7614 241.657 74.7783 241.657 74.7953C241.657 74.8122 241.657 74.8292 241.657 74.8461C241.657 74.8631 241.657 74.8801 241.657 74.8971C241.657 74.9141 241.657 74.931 241.657 74.948C241.657 74.965 241.657 74.982 241.657 74.9991C241.657 75.0161 241.657 75.0331 241.657 75.0501C241.657 75.0672 241.657 75.0842 241.657 75.1012C241.657 75.1183 241.657 75.1353 241.657 75.1524C241.657 75.1695 241.657 75.1865 241.657 75.2036C241.657 75.2207 241.657 75.2378 241.657 75.2548C241.657 75.2719 241.657 75.289 241.657 75.3061C241.657 75.3232 241.657 75.3403 241.657 75.3575C241.657 75.3746 241.657 75.3917 241.657 75.4088C241.657 75.426 241.657 75.4431 241.657 75.4603C241.657 75.4774 241.657 75.4946 241.657 75.5117C241.657 75.5289 241.657 75.5461 241.657 75.5632C241.657 75.5804 241.657 75.5976 241.657 75.6148C241.657 75.632 241.657 75.6492 241.657 75.6664C241.657 75.6836 241.657 75.7008 241.657 75.718C241.657 75.7352 241.657 75.7525 241.657 75.7697C241.657 75.7869 241.657 75.8042 241.657 75.8214C241.657 75.8387 241.657 75.8559 241.657 75.8732C241.657 75.8904 241.657 75.9077 241.657 75.925C241.657 75.9423 241.657 75.9595 241.657 75.9768C241.657 75.9941 241.657 76.0114 241.657 76.0287C241.657 76.046 241.657 76.0633 241.657 76.0806C241.657 76.0979 241.657 76.1153 241.657 76.1326C241.657 76.1499 241.657 76.1673 241.657 76.1846C241.657 76.202 241.657 76.2193 241.657 76.2367C241.657 76.254 241.657 76.2714 241.657 76.2887C241.657 76.3061 241.657 76.3235 241.657 76.3409C241.657 76.3582 241.657 76.3756 241.657 76.393C241.657 76.4104 241.657 76.4278 241.657 76.4452C241.657 76.4626 241.657 76.4801 241.657 76.4975C241.657 76.5149 241.657 76.5323 241.657 76.5498C241.657 76.5672 241.657 76.5846 241.657 76.6021C241.657 76.6195 241.657 76.637 241.657 76.6544C241.657 76.6719 241.657 76.6894 241.657 76.7068C241.657 76.7243 241.657 76.7418 241.657 76.7593C241.657 76.7767 241.657 76.7942 241.657 76.8117C241.657 76.8292 241.657 76.8467 241.657 76.8643C241.657 76.8818 241.657 76.8993 241.657 76.9168C241.657 76.9343 241.657 76.9518 241.657 76.9694C241.657 76.9869 241.657 77.0044 241.657 77.022C241.657 77.0395 241.657 77.0571 241.657 77.0746C241.657 77.0922 241.657 77.1098 241.657 77.1273C241.657 77.1449 241.657 77.1625 241.657 77.1801C241.657 77.1976 241.657 77.2152 241.657 77.2328C241.657 77.2504 241.657 77.268 241.657 77.2856C241.657 77.3032 241.657 77.3208 241.657 77.3384C241.657 77.3561 241.657 77.3737 241.657 77.3913C241.657 77.4089 241.657 77.4266 241.657 77.4442C241.657 77.4619 241.657 77.4795 241.657 77.4972C241.657 77.5148 241.657 77.5325 241.657 77.5501C241.657 77.5678 241.657 77.5854 241.657 77.6031C241.657 77.6208 241.657 77.6385 241.657 77.6562C241.657 77.6738 241.657 77.6915 241.657 77.7092C241.657 77.7269 241.657 77.7446 241.657 77.7623C241.657 77.78 241.657 77.7978 241.657 77.8155C241.657 77.8332 241.657 77.8509 241.657 77.8686C241.657 77.8864 241.657 77.9041 241.657 77.9218C241.657 77.9396 241.657 77.9573 241.657 77.9751C241.657 77.9928 241.657 78.0106 241.657 78.0283C241.657 78.0461 241.657 78.0639 241.657 78.0816C241.657 78.0994 241.657 78.1172 241.657 78.135C241.657 78.1527 241.657 78.1705 241.657 78.1883C241.657 78.2061 241.657 78.2239 241.657 78.2417C241.657 78.2595 241.657 78.2773 241.657 78.2951C241.657 78.3129 241.657 78.3308 241.657 78.3486C241.657 78.3664 241.657 78.3842 241.657 78.4021C241.657 78.4199 241.657 78.4377 241.657 78.4556C241.657 78.4734 241.657 78.4913 241.657 78.5091C241.657 78.527 241.657 78.5448 241.657 78.5627C241.657 78.5805 241.657 78.5984 241.657 78.6163C241.657 78.6342 241.657 78.652 241.657 78.6699C241.657 78.6878 241.657 78.7057 241.657 78.7236C241.657 78.7415 241.657 78.7594 241.657 78.7773C241.657 78.7952 241.657 78.8131 241.657 78.831C241.657 78.8489 241.657 78.8668 241.657 78.8847C241.657 78.9026 241.657 78.9205 241.657 78.9385C241.657 78.9564 241.657 78.9743 241.657 78.9923C241.657 79.0102 241.657 79.0282 241.657 79.0461C241.657 79.064 241.657 79.082 241.657 79.1C241.657 79.1179 241.657 79.1359 241.657 79.1538C241.657 79.1718 241.657 79.1898 241.657 79.2077C241.657 79.2257 241.657 79.2437 241.657 79.2617C241.657 79.2796 241.657 79.2976 241.657 79.3156C241.657 79.3336 241.657 79.3516 241.657 79.3696C241.657 79.3876 241.657 79.4056 241.657 79.4236C241.657 79.4416 241.657 79.4596 241.657 79.4777C241.657 79.4957 241.657 79.5137 241.657 79.5317C241.657 79.5497 241.657 79.5678 241.657 79.5858C241.657 79.6038 241.657 79.6219 241.657 79.6399C241.657 79.6579 241.657 79.676 241.657 79.694C241.657 79.7121 241.657 79.7301 241.657 79.7482C241.657 79.7663 241.657 79.7843 241.657 79.8024C241.657 79.8204 241.657 79.8385 241.657 79.8566C241.657 79.8747 241.657 79.8927 241.657 79.9108C241.657 79.9289 241.657 79.947 241.657 79.9651C241.657 79.9832 241.657 80.0012 241.657 80.0193C241.657 80.0374 241.657 80.0555 241.657 80.0736C241.657 80.0917 241.657 80.1098 241.657 80.128C241.657 80.1461 241.657 80.1642 241.657 80.1823C241.657 80.2004 241.657 80.2185 241.657 80.2367C241.657 80.2548 241.657 80.2729 241.657 80.2911C241.657 80.3092 241.657 80.3273 241.657 80.3455C241.657 80.3636 241.657 80.3817 241.657 80.3999C241.657 80.418 241.657 80.4362 241.657 80.4543C241.657 80.4725 241.657 80.4907 241.657 80.5088C241.657 80.527 241.657 80.5451 241.657 80.5633C241.657 80.5815 241.657 80.5996 241.657 80.6178C241.657 80.636 241.657 80.6542 241.657 80.6724C241.657 80.6905 241.657 80.7087 241.657 80.7269C241.657 80.7451 241.657 80.7633 241.657 80.7815C241.657 80.7997 241.657 80.8179 241.657 80.8361C241.657 80.8543 241.657 80.8725 241.657 80.8907C241.657 80.9089 241.657 80.9271 241.657 80.9453C241.657 80.9635 241.657 80.9817 241.657 81C241.657 81.0182 241.657 81.0364 241.657 81.0546C241.657 81.0729 241.657 81.0911 241.657 81.1093C241.657 81.1275 241.657 81.1458 241.657 81.164C241.657 81.1823 241.657 81.2005 241.657 81.2187C241.657 81.237 241.657 81.2552 241.657 81.2735C241.657 81.2917 241.657 81.31 241.657 81.3282C241.657 81.3465 241.657 81.3647 241.657 81.383C241.657 81.4013 241.657 81.4195 241.657 81.4378C241.657 81.4561 241.657 81.4743 241.657 81.4926C241.657 81.5109 241.657 81.5292 241.657 81.5474C241.657 81.5657 241.657 81.584 241.657 81.6023C241.657 81.6205 241.657 81.6388 241.657 81.6571C241.657 81.6754 241.657 81.6937 241.657 81.712C241.657 81.7303 241.657 81.7486 241.657 81.7669C241.657 81.7852 241.657 81.8035 241.657 81.8218C241.657 81.8401 241.657 81.8584 241.657 81.8767C241.657 81.895 241.657 81.9133 241.657 81.9316C241.657 81.9499 241.657 81.9682 241.657 81.9866C241.657 82.0049 241.657 82.0232 241.657 82.0415C241.657 82.0598 241.657 82.0782 241.657 82.0965C241.657 82.1148 241.657 82.1332 241.657 82.1515C241.657 82.1698 241.657 82.1881 241.657 82.2065C241.657 82.2248 241.657 82.2432 241.657 82.2615C241.657 82.2798 241.657 82.2982 241.657 82.3165C241.657 82.3349 241.657 82.3532 241.657 82.3716C241.657 82.3899 241.657 82.4083 241.657 82.4266C241.657 82.445 241.657 82.4633 241.657 82.4817C241.657 82.5 241.657 82.5184 241.657 82.5368C241.657 82.5551 241.657 82.5735 241.657 82.5918C241.657 82.6102 241.657 82.6286 241.657 82.6469C241.657 82.6653 241.657 82.6837 241.657 82.702C241.657 82.7204 241.657 82.7388 241.657 82.7572C241.657 82.7755 241.657 82.7939 241.657 82.8123C241.657 82.8307 241.657 82.8491 241.657 82.8674C241.657 82.8858 241.657 82.9042 241.657 82.9226C241.657 82.941 241.657 82.9594 241.657 82.9778C241.657 82.9961 241.657 83.0145 241.657 83.0329C241.657 83.0513 241.657 83.0697 241.657 83.0881C241.657 83.1065 241.657 83.1249 241.657 83.1433C241.657 83.1617 241.657 83.1801 241.657 83.1985C241.657 83.2169 241.657 83.2353 241.657 83.2537C241.657 83.2721 241.657 83.2905 241.657 83.3089C241.657 83.3273 241.657 83.3457 241.657 83.3642H242.222H242.787C242.787 83.3457 242.787 83.3273 242.787 83.3089C242.787 83.2905 242.787 83.2721 242.787 83.2537C242.787 83.2353 242.787 83.2169 242.787 83.1985C242.787 83.1801 242.787 83.1617 242.787 83.1433C242.787 83.1249 242.787 83.1065 242.787 83.0881C242.787 83.0697 242.787 83.0513 242.787 83.0329C242.787 83.0145 242.787 82.9961 242.787 82.9778C242.787 82.9594 242.787 82.941 242.787 82.9226C242.787 82.9042 242.787 82.8858 242.787 82.8674C242.787 82.8491 242.787 82.8307 242.787 82.8123C242.787 82.7939 242.787 82.7755 242.787 82.7572C242.787 82.7388 242.787 82.7204 242.787 82.702C242.787 82.6837 242.787 82.6653 242.787 82.6469C242.787 82.6286 242.787 82.6102 242.787 82.5918C242.787 82.5735 242.787 82.5551 242.787 82.5368C242.787 82.5184 242.787 82.5 242.787 82.4817C242.787 82.4633 242.787 82.445 242.787 82.4266C242.787 82.4083 242.787 82.3899 242.787 82.3716C242.787 82.3532 242.787 82.3349 242.787 82.3165C242.787 82.2982 242.787 82.2798 242.787 82.2615C242.787 82.2432 242.787 82.2248 242.787 82.2065C242.787 82.1881 242.787 82.1698 242.787 82.1515C242.787 82.1332 242.787 82.1148 242.787 82.0965C242.787 82.0782 242.787 82.0598 242.787 82.0415C242.787 82.0232 242.787 82.0049 242.787 81.9866C242.787 81.9682 242.787 81.9499 242.787 81.9316C242.787 81.9133 242.787 81.895 242.787 81.8767C242.787 81.8584 242.787 81.8401 242.787 81.8218C242.787 81.8035 242.787 81.7852 242.787 81.7669C242.787 81.7486 242.787 81.7303 242.787 81.712C242.787 81.6937 242.787 81.6754 242.787 81.6571C242.787 81.6388 242.787 81.6205 242.787 81.6023C242.787 81.584 242.787 81.5657 242.787 81.5474C242.787 81.5292 242.787 81.5109 242.787 81.4926C242.787 81.4743 242.787 81.4561 242.787 81.4378C242.787 81.4195 242.787 81.4013 242.787 81.383C242.787 81.3647 242.787 81.3465 242.787 81.3282C242.787 81.31 242.787 81.2917 242.787 81.2735C242.787 81.2552 242.787 81.237 242.787 81.2187C242.787 81.2005 242.787 81.1823 242.787 81.164C242.787 81.1458 242.787 81.1275 242.787 81.1093C242.787 81.0911 242.787 81.0729 242.787 81.0546C242.787 81.0364 242.787 81.0182 242.787 81C242.787 80.9817 242.787 80.9635 242.787 80.9453C242.787 80.9271 242.787 80.9089 242.787 80.8907C242.787 80.8725 242.787 80.8543 242.787 80.8361C242.787 80.8179 242.787 80.7997 242.787 80.7815C242.787 80.7633 242.787 80.7451 242.787 80.7269C242.787 80.7087 242.787 80.6905 242.787 80.6724C242.787 80.6542 242.787 80.636 242.787 80.6178C242.787 80.5996 242.787 80.5815 242.787 80.5633C242.787 80.5451 242.787 80.527 242.787 80.5088C242.787 80.4907 242.787 80.4725 242.787 80.4543C242.787 80.4362 242.787 80.418 242.787 80.3999C242.787 80.3817 242.787 80.3636 242.787 80.3455C242.787 80.3273 242.787 80.3092 242.787 80.2911C242.787 80.2729 242.787 80.2548 242.787 80.2367C242.787 80.2185 242.787 80.2004 242.787 80.1823C242.787 80.1642 242.787 80.1461 242.787 80.128C242.787 80.1098 242.787 80.0917 242.787 80.0736C242.787 80.0555 242.787 80.0374 242.787 80.0193C242.787 80.0012 242.787 79.9832 242.787 79.9651C242.787 79.947 242.787 79.9289 242.787 79.9108C242.787 79.8927 242.787 79.8747 242.787 79.8566C242.787 79.8385 242.787 79.8204 242.787 79.8024C242.787 79.7843 242.787 79.7663 242.787 79.7482C242.787 79.7301 242.787 79.7121 242.787 79.694C242.787 79.676 242.787 79.6579 242.787 79.6399C242.787 79.6219 242.787 79.6038 242.787 79.5858C242.787 79.5678 242.787 79.5497 242.787 79.5317C242.787 79.5137 242.787 79.4957 242.787 79.4777C242.787 79.4596 242.787 79.4416 242.787 79.4236C242.787 79.4056 242.787 79.3876 242.787 79.3696C242.787 79.3516 242.787 79.3336 242.787 79.3156C242.787 79.2976 242.787 79.2796 242.787 79.2617C242.787 79.2437 242.787 79.2257 242.787 79.2077C242.787 79.1898 242.787 79.1718 242.787 79.1538C242.787 79.1359 242.787 79.1179 242.787 79.1C242.787 79.082 242.787 79.064 242.787 79.0461C242.787 79.0282 242.787 79.0102 242.787 78.9923C242.787 78.9743 242.787 78.9564 242.787 78.9385C242.787 78.9205 242.787 78.9026 242.787 78.8847C242.787 78.8668 242.787 78.8489 242.787 78.831C242.787 78.8131 242.787 78.7952 242.787 78.7773C242.787 78.7594 242.787 78.7415 242.787 78.7236C242.787 78.7057 242.787 78.6878 242.787 78.6699C242.787 78.652 242.787 78.6342 242.787 78.6163C242.787 78.5984 242.787 78.5805 242.787 78.5627C242.787 78.5448 242.787 78.527 242.787 78.5091C242.787 78.4913 242.787 78.4734 242.787 78.4556C242.787 78.4377 242.787 78.4199 242.787 78.4021C242.787 78.3842 242.787 78.3664 242.787 78.3486C242.787 78.3308 242.787 78.3129 242.787 78.2951C242.787 78.2773 242.787 78.2595 242.787 78.2417C242.787 78.2239 242.787 78.2061 242.787 78.1883C242.787 78.1705 242.787 78.1527 242.787 78.135C242.787 78.1172 242.787 78.0994 242.787 78.0816C242.787 78.0639 242.787 78.0461 242.787 78.0283C242.787 78.0106 242.787 77.9928 242.787 77.9751C242.787 77.9573 242.787 77.9396 242.787 77.9218C242.787 77.9041 242.787 77.8864 242.787 77.8686C242.787 77.8509 242.787 77.8332 242.787 77.8155C242.787 77.7978 242.787 77.78 242.787 77.7623C242.787 77.7446 242.787 77.7269 242.787 77.7092C242.787 77.6915 242.787 77.6738 242.787 77.6562C242.787 77.6385 242.787 77.6208 242.787 77.6031C242.787 77.5854 242.787 77.5678 242.787 77.5501C242.787 77.5325 242.787 77.5148 242.787 77.4972C242.787 77.4795 242.787 77.4619 242.787 77.4442C242.787 77.4266 242.787 77.4089 242.787 77.3913C242.787 77.3737 242.787 77.3561 242.787 77.3384C242.787 77.3208 242.787 77.3032 242.787 77.2856C242.787 77.268 242.787 77.2504 242.787 77.2328C242.787 77.2152 242.787 77.1976 242.787 77.1801C242.787 77.1625 242.787 77.1449 242.787 77.1273C242.787 77.1098 242.787 77.0922 242.787 77.0746C242.787 77.0571 242.787 77.0395 242.787 77.022C242.787 77.0044 242.787 76.9869 242.787 76.9694C242.787 76.9518 242.787 76.9343 242.787 76.9168C242.787 76.8993 242.787 76.8818 242.787 76.8643C242.787 76.8467 242.787 76.8292 242.787 76.8117C242.787 76.7942 242.787 76.7767 242.787 76.7593C242.787 76.7418 242.787 76.7243 242.787 76.7068C242.787 76.6894 242.787 76.6719 242.787 76.6544C242.787 76.637 242.787 76.6195 242.787 76.6021C242.787 76.5846 242.787 76.5672 242.787 76.5498C242.787 76.5323 242.787 76.5149 242.787 76.4975C242.787 76.4801 242.787 76.4626 242.787 76.4452C242.787 76.4278 242.787 76.4104 242.787 76.393C242.787 76.3756 242.787 76.3582 242.787 76.3409C242.787 76.3235 242.787 76.3061 242.787 76.2887C242.787 76.2714 242.787 76.254 242.787 76.2367C242.787 76.2193 242.787 76.202 242.787 76.1846C242.787 76.1673 242.787 76.1499 242.787 76.1326C242.787 76.1153 242.787 76.0979 242.787 76.0806C242.787 76.0633 242.787 76.046 242.787 76.0287C242.787 76.0114 242.787 75.9941 242.787 75.9768C242.787 75.9595 242.787 75.9423 242.787 75.925C242.787 75.9077 242.787 75.8904 242.787 75.8732C242.787 75.8559 242.787 75.8387 242.787 75.8214C242.787 75.8042 242.787 75.7869 242.787 75.7697C242.787 75.7525 242.787 75.7352 242.787 75.718C242.787 75.7008 242.787 75.6836 242.787 75.6664C242.787 75.6492 242.787 75.632 242.787 75.6148C242.787 75.5976 242.787 75.5804 242.787 75.5632C242.787 75.5461 242.787 75.5289 242.787 75.5117C242.787 75.4946 242.787 75.4774 242.787 75.4603C242.787 75.4431 242.787 75.426 242.787 75.4088C242.787 75.3917 242.787 75.3746 242.787 75.3575C242.787 75.3403 242.787 75.3232 242.787 75.3061C242.787 75.289 242.787 75.2719 242.787 75.2548C242.787 75.2378 242.787 75.2207 242.787 75.2036C242.787 75.1865 242.787 75.1695 242.787 75.1524C242.787 75.1353 242.787 75.1183 242.787 75.1012C242.787 75.0842 242.787 75.0672 242.787 75.0501C242.787 75.0331 242.787 75.0161 242.787 74.9991C242.787 74.982 242.787 74.965 242.787 74.948C242.787 74.931 242.787 74.9141 242.787 74.8971C242.787 74.8801 242.787 74.8631 242.787 74.8461C242.787 74.8292 242.787 74.8122 242.787 74.7953C242.787 74.7783 242.787 74.7614 242.787 74.7444C242.787 74.7275 242.787 74.7106 242.787 74.6936C242.787 74.6767 242.787 74.6598 242.787 74.6429C242.787 74.626 242.787 74.6091 242.787 74.5922C242.787 74.5753 242.787 74.5584 242.787 74.5415C242.787 74.5247 242.787 74.5078 242.787 74.4909C242.787 74.4741 242.787 74.4572 242.787 74.4404C242.787 74.4236 242.787 74.4067 242.787 74.3899C242.787 74.3731 242.787 74.3562 242.787 74.3394C242.787 74.3226 242.787 74.3058 242.787 74.289C242.787 74.2722 242.787 74.2555 242.787 74.2387C242.787 74.2219 242.787 74.2051 242.787 74.1884C242.787 74.1716 242.787 74.1549 242.787 74.1381C242.787 74.1214 242.787 74.1046 242.787 74.0879C242.787 74.0712 242.787 74.0544 242.787 74.0377C242.787 74.021 242.787 74.0043 242.787 73.9876C242.787 73.9709 242.787 73.9542 242.787 73.9376C242.787 73.9209 242.787 73.9042 242.787 73.8876C242.787 73.8709 242.787 73.8542 242.787 73.8376C242.787 73.821 242.787 73.8043 242.787 73.7877C242.787 73.7711 242.787 73.7544 242.787 73.7378C242.787 73.7212 242.787 73.7046 242.787 73.688C242.787 73.6714 242.787 73.6549 242.787 73.6383C242.787 73.6217 242.787 73.6051 242.787 73.5886C242.787 73.572 242.787 73.5555 242.787 73.5389C242.787 73.5224 242.787 73.5059 242.787 73.4893C242.787 73.4728 242.787 73.4563 242.787 73.4398C242.787 73.4233 242.787 73.4068 242.787 73.3903C242.787 73.3738 242.787 73.3573 242.787 73.3409C242.787 73.3244 242.787 73.3079 242.787 73.2915C242.787 73.275 242.787 73.2586 242.787 73.2421C242.787 73.2257 242.787 73.2093 242.787 73.1929C242.787 73.1765 242.787 73.16 242.787 73.1437C242.787 73.1273 242.787 73.1109 242.787 73.0945C242.787 73.0781 242.787 73.0617 242.787 73.0454C242.787 73.029 242.787 73.0127 242.787 72.9963C242.787 72.98 242.787 72.9636 242.787 72.9473C242.787 72.931 242.787 72.9147 242.787 72.8984C242.787 72.8821 242.787 72.8658 242.787 72.8495C242.787 72.8332 242.787 72.8169 242.787 72.8006C242.787 72.7844 242.787 72.7681 242.787 72.7519C242.787 72.7356 242.787 72.7194 242.787 72.7031C242.787 72.6869 242.787 72.6707 242.787 72.6545C242.787 72.6382 242.787 72.622 242.787 72.6058C242.787 72.5897 242.787 72.5735 242.787 72.5573C242.787 72.5411 242.787 72.525 242.787 72.5088C242.787 72.4926 242.787 72.4765 242.787 72.4604C242.787 72.4442 242.787 72.4281 242.787 72.412C242.787 72.3959 242.787 72.3798 242.787 72.3637C242.787 72.3476 242.787 72.3315 242.787 72.3154C242.787 72.2993 242.787 72.2832 242.787 72.2672C242.787 72.2511 242.787 72.2351 242.787 72.219C242.787 72.203 242.787 72.187 242.787 72.1709C242.787 72.1549 242.787 72.1389 242.787 72.1229C242.787 72.1069 242.787 72.0909 242.787 72.0749C242.787 72.059 242.787 72.043 242.787 72.027C242.787 72.0111 242.787 71.9951 242.787 71.9792C242.787 71.9632 242.787 71.9473 242.787 71.9314C242.787 71.9155 242.787 71.8996 242.787 71.8837C242.787 71.8678 242.787 71.8519 242.787 71.836C242.787 71.8201 242.787 71.8042 242.787 71.7884C242.787 71.7725 242.787 71.7567 242.787 71.7408C242.787 71.725 242.787 71.7092 242.787 71.6933C242.787 71.6775 242.787 71.6617 242.787 71.6459C242.787 71.6301 242.787 71.6143 242.787 71.5986C242.787 71.5828 242.787 71.567 242.787 71.5513C242.787 71.5355 242.787 71.5198 242.787 71.504C242.787 71.4883 242.787 71.4726 242.787 71.4568C242.787 71.4411 242.787 71.4254 242.787 71.4097C242.787 71.394 242.787 71.3784 242.787 71.3627C242.787 71.347 242.787 71.3313 242.787 71.3157C242.787 71.3 242.787 71.2844 242.787 71.2688C242.787 71.2531 242.787 71.2375 242.787 71.2219C242.787 71.2063 242.787 71.1907 242.787 71.1751C242.787 71.1595 242.787 71.1439 242.787 71.1284C242.787 71.1128 242.787 71.0973 242.787 71.0817C242.787 71.0662 242.787 71.0506 242.787 71.0351C242.787 71.0196 242.787 71.0041 242.787 70.9886C242.787 70.9731 242.787 70.9576 242.787 70.9421C242.787 70.9266 242.787 70.9111 242.787 70.8957C242.787 70.8802 242.787 70.8648 242.787 70.8493C242.787 70.8339 242.787 70.8185 242.787 70.8031C242.787 70.7877 242.787 70.7723 242.787 70.7569C242.787 70.7415 242.787 70.7261 242.787 70.7107C242.787 70.6953 242.787 70.68 242.787 70.6646C242.787 70.6493 242.787 70.634 242.787 70.6186C242.787 70.6033 242.787 70.588 242.787 70.5727C242.787 70.5574 242.787 70.5421 242.787 70.5268C242.787 70.5115 242.787 70.4963 242.787 70.481C242.787 70.4657 242.787 70.4505 242.787 70.4353C242.787 70.42 242.787 70.4048 242.787 70.3896C242.787 70.3744 242.787 70.3592 242.787 70.344C242.787 70.3288 242.787 70.3136 242.787 70.2985C242.787 70.2833 242.787 70.2681 242.787 70.253C242.787 70.2378 242.787 70.2227 242.787 70.2076C242.787 70.1925 242.787 70.1774 242.787 70.1623C242.787 70.1472 242.787 70.1321 242.787 70.117C242.787 70.1019 242.787 70.0869 242.787 70.0718C242.787 70.0568 242.787 70.0417 242.787 70.0267C242.787 70.0117 242.787 69.9966 242.787 69.9816C242.787 69.9666 242.787 69.9516 242.787 69.9367C242.787 69.9217 242.787 69.9067 242.787 69.8918C242.787 69.8768 242.787 69.8619 242.787 69.8469C242.787 69.832 242.787 69.8171 242.787 69.8021C242.787 69.7872 242.787 69.7723 242.787 69.7575C242.787 69.7426 242.787 69.7277 242.787 69.7128C242.787 69.698 242.787 69.6831 242.787 69.6683C242.787 69.6534 242.787 69.6386 242.787 69.6238C242.787 69.609 242.787 69.5942 242.787 69.5794C242.787 69.5646 242.787 69.5498 242.787 69.5351C242.787 69.5203 242.787 69.5055 242.787 69.4908C242.787 69.4761 242.787 69.4613 242.787 69.4466C242.787 69.4319 242.787 69.4172 242.787 69.4025C242.787 69.3878 242.787 69.3731 242.787 69.3585C242.787 69.3438 242.787 69.3291 242.787 69.3145C242.787 69.2998 242.787 69.2852 242.787 69.2706C242.787 69.256 242.787 69.2414 242.787 69.2268C242.787 69.2122 242.787 69.1976 242.787 69.183C242.787 69.1685 242.787 69.1539 242.787 69.1394C242.787 69.1248 242.787 69.1103 242.787 69.0958C242.787 69.0812 242.787 69.0667 242.787 69.0522C242.787 69.0377 242.787 69.0233 242.787 69.0088C242.787 68.9943 242.787 68.9799 242.787 68.9654C242.787 68.951 242.787 68.9366 242.787 68.9221C242.787 68.9077 242.787 68.8933 242.787 68.8789C242.787 68.8645 242.787 68.8501 242.787 68.8358C242.787 68.8214 242.787 68.807 242.787 68.7927C242.787 68.7784 242.787 68.764 242.787 68.7497C242.787 68.7354 242.787 68.7211 242.787 68.7068C242.787 68.6925 242.787 68.6782 242.787 68.664C242.787 68.6497 242.787 68.6355 242.787 68.6212C242.787 68.607 242.787 68.5928 242.787 68.5785C242.787 68.5643 242.787 68.5501 242.787 68.5359C242.787 68.5218 242.787 68.5076 242.787 68.4934C242.787 68.4793 242.787 68.4651 242.787 68.451C242.787 68.4369 242.787 68.4227 242.787 68.4086C242.787 68.3945 242.787 68.3804 242.787 68.3663C242.787 68.3523 242.787 68.3382 242.787 68.3241C242.787 68.3101 242.787 68.296 242.787 68.282C242.787 68.268 242.787 68.254 242.787 68.24C242.787 68.226 242.787 68.212 242.787 68.198C242.787 68.184 242.787 68.1701 242.787 68.1561C242.787 68.1422 242.787 68.1282 242.787 68.1143C242.787 68.1004 242.787 68.0865 242.787 68.0726C242.787 68.0587 242.787 68.0448 242.787 68.0309C242.787 68.0171 242.787 68.0032 242.787 67.9894C242.787 67.9755 242.787 67.9617 242.787 67.9479C242.787 67.9341 242.787 67.9203 242.787 67.9065C242.787 67.8927 242.787 67.8789 242.787 67.8652C242.787 67.8514 242.787 67.8377 242.787 67.8239C242.787 67.8102 242.787 67.7965 242.787 67.7828C242.787 67.7691 242.787 67.7554 242.787 67.7417C242.787 67.728 242.787 67.7144 242.787 67.7007C242.787 67.6871 242.787 67.6734 242.787 67.6598C242.787 67.6462 242.787 67.6326 242.787 67.619C242.787 67.6054 242.787 67.5918 242.787 67.5783C242.787 67.5647 242.787 67.5512 242.787 67.5376C242.787 67.5241 242.787 67.5106 242.787 67.497C242.787 67.4835 242.787 67.47 242.787 67.4566C242.787 67.4431 242.787 67.4296 242.787 67.4162C242.787 67.4027 242.787 67.3893 242.787 67.3758C242.787 67.3624 242.787 67.349 242.787 67.3356C242.787 67.3222 242.787 67.3088 242.787 67.2955C242.787 67.2821 242.787 67.2687 242.787 67.2554C242.787 67.2421 242.787 67.2287 242.787 67.2154C242.787 67.2021 242.787 67.1888 242.787 67.1755C242.787 67.1623 242.787 67.149 242.787 67.1357C242.787 67.1225 242.787 67.1093 242.787 67.096C242.787 67.0828 242.787 67.0696 242.787 67.0564C242.787 67.0432 242.787 67.03 242.787 67.0169C242.787 67.0037 242.787 66.9905 242.787 66.9774C242.787 66.9643 242.787 66.9511 242.787 66.938C242.787 66.9249 242.787 66.9118 242.787 66.8988C242.787 66.8857 242.787 66.8726 242.787 66.8596C242.787 66.8465 242.787 66.8335 242.787 66.8205C242.787 66.8074 242.787 66.7944 242.787 66.7814C242.787 66.7685 242.787 66.7555 242.787 66.7425C242.787 66.7296 242.787 66.7166 242.787 66.7037C242.787 66.6908 242.787 66.6778 242.787 66.6649C242.787 66.652 242.787 66.6391 242.787 66.6263C242.787 66.6134 242.787 66.6005 242.787 66.5877C242.787 66.5749 242.787 66.562 242.787 66.5492C242.787 66.5364 242.787 66.5236 242.787 66.5108C242.787 66.4981 242.787 66.4853 242.787 66.4725C242.787 66.4598 242.787 66.447 242.787 66.4343C242.787 66.4216 242.787 66.4089 242.787 66.3962C242.787 66.3835 242.787 66.3708 242.787 66.3582C242.787 66.3455 242.787 66.3329 242.787 66.3202C242.787 66.3076 242.787 66.295 242.787 66.2824C242.787 66.2698 242.787 66.2572 242.787 66.2446C242.787 66.2321 242.787 66.2195 242.787 66.207C242.787 66.1945 242.787 66.1819 242.787 66.1694C242.787 66.1569 242.787 66.1444 242.787 66.1319C242.787 66.1195 242.787 66.107 242.787 66.0946C242.787 66.0821 242.787 66.0697 242.787 66.0573C242.787 66.0449 242.787 66.0325 242.787 66.0201C242.787 66.0077 242.787 65.9953 242.787 65.983C242.787 65.9706 242.787 65.9583 242.787 65.946C242.787 65.9336 242.787 65.9213 242.787 65.909C242.787 65.8968 242.787 65.8845 242.787 65.8722C242.787 65.86 242.787 65.8477 242.787 65.8355C242.787 65.8233 242.787 65.8111 242.787 65.7989C242.787 65.7867 242.787 65.7745 242.787 65.7623C242.787 65.7502 242.787 65.738 242.787 65.7259C242.787 65.7137 242.787 65.7016 242.787 65.6895C242.787 65.6774 242.787 65.6653 242.787 65.6533C242.787 65.6412 242.787 65.6292 242.787 65.6171C242.787 65.6051 242.787 65.5931 242.787 65.5811C242.787 65.5691 242.787 65.5571 242.787 65.5451C242.787 65.5331 242.787 65.5212 242.787 65.5092C242.787 65.4973 242.787 65.4854 242.787 65.4735C242.787 65.4615 242.787 65.4497 242.787 65.4378C242.787 65.4259 242.787 65.414 242.787 65.4022C242.787 65.3904 242.787 65.3785 242.787 65.3667C242.787 65.3549 242.787 65.3431 242.787 65.3313C242.787 65.3196 242.787 65.3078 242.787 65.2961C242.787 65.2843 242.787 65.2726 242.787 65.2609C242.787 65.2492 242.787 65.2375 242.787 65.2258C242.787 65.2141 242.787 65.2024 242.787 65.1908C242.787 65.1792 242.787 65.1675 242.787 65.1559C242.787 65.1443 242.787 65.1327 242.787 65.1211C242.787 65.1095 242.787 65.098 242.787 65.0864C242.787 65.0749 242.787 65.0634 242.787 65.0518C242.787 65.0403 242.787 65.0288 242.787 65.0173C242.787 65.0059 242.787 64.9944 242.787 64.983C242.787 64.9715 242.787 64.9601 242.787 64.9487C242.787 64.9372 242.787 64.9259 242.787 64.9145C242.787 64.9031 242.787 64.8917 242.787 64.8804C242.787 64.869 242.787 64.8577 242.787 64.8464C242.787 64.8351 242.787 64.8238 242.787 64.8125C242.787 64.8012 242.787 64.79 242.787 64.7787C242.787 64.7675 242.787 64.7562 242.787 64.745C242.787 64.7338 242.787 64.7226 242.787 64.7115C242.787 64.7003 242.787 64.6891 242.787 64.678C242.787 64.6668 242.787 64.6557 242.787 64.6446C242.787 64.6335 242.787 64.6224 242.787 64.6113C242.787 64.6003 242.787 64.5892 242.787 64.5782C242.787 64.5671 242.787 64.5561 242.787 64.5451C242.787 64.5341 242.787 64.5231 242.787 64.5121C242.787 64.5011 242.787 64.4902 242.787 64.4793C242.787 64.4683 242.787 64.4574 242.787 64.4465C242.787 64.4356 242.787 64.4247 242.787 64.4138C242.787 64.403 242.787 64.3921 242.787 64.3813C242.787 64.3705 242.787 64.3597 242.787 64.3489C242.787 64.3381 242.787 64.3273 242.787 64.3165C242.787 64.3058 242.787 64.295 242.787 64.2843C242.787 64.2736 242.787 64.2628 242.787 64.2522C242.787 64.2415 242.787 64.2308 242.787 64.2201C242.787 64.2095 242.787 64.1988 242.787 64.1882C242.787 64.1776 242.787 64.167 242.787 64.1564C242.787 64.1458 242.787 64.1353 242.787 64.1247C242.787 64.1142 242.787 64.1036 242.787 64.0931C242.787 64.0826 242.787 64.0721 242.787 64.0616C242.787 64.0511 242.787 64.0407 242.787 64.0302C242.787 64.0198 242.787 64.0094 242.787 63.999C242.787 63.9885 242.787 63.9782 242.787 63.9678C242.787 63.9574 242.787 63.9471 242.787 63.9367C242.787 63.9264 242.787 63.9161 242.787 63.9058C242.787 63.8955 242.787 63.8852 242.787 63.8749C242.787 63.8647 242.787 63.8544 242.787 63.8442C242.787 63.834 242.787 63.8237 242.787 63.8136C242.787 63.8034 242.787 63.7932 242.787 63.783C242.787 63.7729 242.787 63.7627 242.787 63.7526C242.787 63.7425 242.787 63.7324 242.787 63.7223C242.787 63.7122 242.787 63.7022 242.787 63.6921C242.787 63.6821 242.787 63.6721 242.787 63.6621C242.787 63.6521 242.787 63.6421 242.787 63.6321C242.787 63.6221 242.787 63.6122 242.787 63.6022C242.787 63.5923 242.787 63.5824 242.787 63.5725C242.787 63.5626 242.787 63.5527 242.787 63.5428C242.787 63.533 242.787 63.5231 242.787 63.5133C242.787 63.5035 242.787 63.4937 242.787 63.4839C242.787 63.4741 242.787 63.4643 242.787 63.4546C242.787 63.4448 242.787 63.4351 242.787 63.4254C242.787 63.4157 242.787 63.406 242.787 63.3963C242.787 63.3866 242.787 63.377 242.787 63.3673C242.787 63.3577 242.787 63.3481 242.787 63.3385C242.787 63.3289 242.787 63.3193 242.787 63.3097C242.787 63.3002 242.787 63.2906 242.787 63.2811C242.787 63.2716 242.787 63.2621 242.787 63.2526C242.787 63.2431 242.787 63.2337 242.787 63.2242C242.787 63.2148 242.787 63.2053 242.787 63.1959C242.787 63.1865 242.787 63.1771 242.787 63.1677C242.787 63.1584 242.787 63.149 242.787 63.1397C242.787 63.1303 242.787 63.121 242.787 63.1117C242.787 63.1024 242.787 63.0932 242.787 63.0839C242.787 63.0746 242.787 63.0654 242.787 63.0562C242.787 63.047 242.787 63.0378 242.787 63.0286C242.787 63.0194 242.787 63.0102 242.787 63.0011C242.787 62.9919 242.787 62.9828 242.787 62.9737C242.787 62.9646 242.787 62.9555 242.787 62.9465C242.787 62.9374 242.787 62.9284 242.787 62.9193C242.787 62.9103 242.787 62.9013 242.787 62.8923C242.787 62.8833 242.787 62.8743 242.787 62.8654C242.787 62.8564 242.787 62.8475 242.787 62.8386C242.787 62.8297 242.787 62.8208 242.787 62.8119C242.787 62.8031 242.787 62.7942 242.787 62.7854C242.787 62.7766 242.787 62.7677 242.787 62.7589C242.787 62.7502 242.787 62.7414 242.787 62.7326C242.787 62.7239 242.787 62.7151 242.787 62.7064C242.787 62.6977 242.787 62.689 242.787 62.6803C242.787 62.6717 242.787 62.663 242.787 62.6544C242.787 62.6457 242.787 62.6371 242.787 62.6285C242.787 62.6199 242.787 62.6114 242.787 62.6028C242.787 62.5943 242.787 62.5857 242.787 62.5772C242.787 62.5687 242.787 62.5602 242.787 62.5517C242.787 62.5432 242.787 62.5348 242.787 62.5263C242.787 62.5179 242.787 62.5095 242.787 62.5011C242.787 62.4927 242.787 62.4843 242.787 62.476C242.787 62.4676 242.787 62.4593 242.787 62.451C242.787 62.4427 242.787 62.4344 242.787 62.4261C242.787 62.4178 242.787 62.4095 242.787 62.4013C242.787 62.3931 242.787 62.3849 242.787 62.3767C242.787 62.3685 242.787 62.3603 242.787 62.3521C242.787 62.344 242.787 62.3359 242.787 62.3277C242.787 62.3196 242.787 62.3115 242.787 62.3035C242.787 62.2954 242.787 62.2873 242.787 62.2793C242.787 62.2713 242.787 62.2633 242.787 62.2553C242.787 62.2473 242.787 62.2393 242.787 62.2314C242.787 62.2234 242.787 62.2155 242.787 62.2076C242.787 62.1997 242.787 62.1918 242.787 62.1839C242.787 62.176 242.787 62.1682 242.787 62.1604C242.787 62.1525 242.787 62.1447 242.787 62.1369C242.787 62.1292 242.787 62.1214 242.787 62.1137C242.787 62.1059 242.787 62.0982 242.787 62.0905C242.787 62.0828 242.787 62.0751 242.787 62.0674C242.787 62.0598 242.787 62.0521 242.787 62.0445C242.787 62.0369 242.787 62.0293 242.787 62.0217C242.787 62.0141 242.787 62.0066 242.787 61.999C242.787 61.9915 242.787 61.984 242.787 61.9765C242.787 61.969 242.787 61.9615 242.787 61.9541C242.787 61.9466 242.787 61.9392 242.787 61.9318C242.787 61.9244 242.787 61.917 242.787 61.9096C242.787 61.9022 242.787 61.8949 242.787 61.8876C242.787 61.8802 242.787 61.8729 242.787 61.8656C242.787 61.8584 242.787 61.8511 242.787 61.8439C242.787 61.8366 242.787 61.8294 242.787 61.8222C242.787 61.815 242.787 61.8078 242.787 61.8007C242.787 61.7935 242.787 61.7864 242.787 61.7792C242.787 61.7721 242.787 61.765 242.787 61.758C242.787 61.7509 242.787 61.7438 242.787 61.7368C242.787 61.7298 242.787 61.7228 242.787 61.7158C242.787 61.7088 242.787 61.7018 242.787 61.6949C242.787 61.6879 242.787 61.681 242.787 61.6741C242.787 61.6672 242.787 61.6603 242.787 61.6535C242.787 61.6466 242.787 61.6398 242.787 61.633C242.787 61.6261 242.787 61.6194 242.787 61.6126C242.787 61.6058 242.787 61.5991 242.787 61.5923C242.787 61.5856 242.787 61.5789 242.787 61.5722C242.787 61.5655 242.787 61.5589 242.787 61.5522C242.787 61.5456 242.787 61.539 242.787 61.5324C242.787 61.5258 242.787 61.5192 242.787 61.5126H242.222ZM209.004 154.272L209.032 154.836C210.971 154.739 215.934 153.964 222.447 152.683C228.977 151.399 237.106 149.598 245.399 147.436L245.257 146.889L245.114 146.343C236.845 148.498 228.739 150.294 222.229 151.574C215.702 152.858 210.82 153.615 208.976 153.707L209.004 154.272ZM245.257 146.889L245.399 147.436C259.063 143.874 273.247 139.315 281.438 134.444L281.149 133.958L280.861 133.473C272.822 138.252 258.782 142.78 245.114 146.343L245.257 146.889ZM245.257 146.889L244.693 146.851C244.142 154.855 243.48 167.547 243.287 179.613C243.191 185.646 243.212 191.528 243.422 196.592C243.632 201.646 244.033 205.922 244.707 208.724L245.257 208.591L245.806 208.459C245.159 205.773 244.761 201.591 244.551 196.546C244.342 191.511 244.321 185.652 244.417 179.631C244.61 167.589 245.27 154.918 245.82 146.928L245.257 146.889ZM99.8222 128.76L100.007 129.294C103.054 128.24 105.516 127.841 107.344 127.765C109.19 127.688 110.352 127.941 110.823 128.149L111.052 127.632L111.28 127.116C110.587 126.809 109.228 126.555 107.297 126.636C105.349 126.717 102.778 127.14 99.6376 128.226L99.8222 128.76ZM82.9718 131.96L83.0044 132.524C85.3263 132.39 90.2681 131.849 95.2358 130.664L95.1047 130.114L94.9736 129.565C90.0805 130.732 85.2058 131.265 82.9393 131.396L82.9718 131.96ZM95.1047 130.114L95.2358 130.664C96.8493 130.279 98.4697 129.825 100.007 129.294L99.8222 128.76L99.6376 128.226C98.1431 128.743 96.5595 129.187 94.9736 129.565L95.1047 130.114ZM95.1047 130.114L94.6548 129.773C93.9929 130.644 92.9453 132.076 91.9483 133.548C90.9587 135.01 89.9927 136.549 89.5178 137.619L90.0343 137.849L90.5507 138.078C90.9802 137.109 91.8927 135.646 92.884 134.182C93.8677 132.729 94.9031 131.314 95.5546 130.456L95.1047 130.114ZM105.719 135.692L105.286 135.33C103.342 137.656 99.7156 139.48 95.8473 140.896L96.0415 141.427L96.2357 141.958C100.121 140.535 104.002 138.629 106.153 136.054L105.719 135.692ZM96.0415 141.427L95.8473 140.896C92.3106 142.191 88.6665 143.112 86.1177 143.771L86.2592 144.318L86.4006 144.865C88.9384 144.209 92.6378 143.275 96.2357 141.958L96.0415 141.427ZM90.0343 137.849L89.5178 137.619C89.3629 137.969 89.315 138.326 89.3794 138.676C89.4429 139.021 89.6082 139.322 89.8217 139.58C90.2384 140.083 90.8874 140.478 91.5734 140.788C92.9589 141.416 94.7452 141.811 95.9608 141.986L96.0415 141.427L96.1222 140.868C94.9585 140.7 93.289 140.325 92.0397 139.759C91.4081 139.473 90.945 139.165 90.6918 138.859C90.5704 138.713 90.5114 138.583 90.4908 138.471C90.4712 138.365 90.4795 138.238 90.5507 138.078L90.0343 137.849Z" fill="url(#paint3_radial_4794_61720)"/>
<path d="M241.753 45.6077C244.208 40.304 249.446 22.9145 251.759 14.8827C276.048 -5.17185 288.719 21.9789 291.967 22.4417C295.215 22.9045 321.664 28.9209 332.8 34.9373C341.709 39.7504 355.073 73.041 360.641 89.0847C352.134 119.101 334.656 180.394 332.8 185.437C330.48 191.742 245.59 209.724 243.916 202.245C242.576 196.261 244.474 163.017 245.59 147.142C231.86 149.538 203.862 154.329 201.707 154.329C199.551 154.329 196.457 152.262 195.179 151.229C187.891 151.78 172.113 152.903 167.305 152.986C162.497 153.069 157.703 153.916 155.907 154.329C155.285 155.018 153.855 156.686 153.109 157.843C152.177 159.29 144.716 167.971 140.675 175.516C136.634 183.06 133.007 185.127 131.246 185.437C129.836 185.685 127.757 183.818 126.894 182.854C126.894 182.481 126.481 181.558 124.833 180.853C118.754 182.231 116.323 179.806 114.389 175.516C109.857 175.801 105.326 174.68 104.497 173.467C103.834 172.497 103.779 170.271 103.834 169.279C102.747 169.426 100.065 169.631 98.0316 169.279C95.4896 168.838 94.937 167.129 94.6054 165.641C94.2738 164.153 96.9817 161.011 98.0316 158.917C98.8716 157.241 100.26 153.295 100.85 151.531C98.1237 151.825 91.964 152.424 89.1347 152.468C85.5981 152.523 80.5693 150.815 79.5194 149.327C78.4694 147.839 80.1273 147.618 81.3014 146.185C82.2408 145.039 90.5621 142.878 94.6054 141.941C94.6791 141.757 94.296 141.214 92.174 140.508C89.5215 139.626 90.5162 138.193 90.7925 136.871C91.0135 135.812 93.2055 132.278 94.2739 130.642C93.2976 130.863 91.1019 131.326 90.1293 131.414C88.9136 131.524 82.6692 132.406 81.3014 131.8C78.8146 129.526 81.198 126.322 84.3066 125.495C87.4151 124.669 93.203 120.326 100.106 116.756C107.01 113.185 104.197 110.89 113.913 105.28C123.629 99.6697 126.186 100.435 133.6 100.945C141.015 101.455 157.89 98.6497 170.674 95.8446C169.396 83.859 174.254 79.2687 178.345 77.4836C182.436 75.6985 201.868 67.2831 206.214 64.988C210.561 62.6929 238.686 52.2374 241.753 45.6077Z" fill="url(#paint4_radial_4794_61720)" fill-opacity="0.07"/>
<path d="M180.413 119.175C180.413 120.41 183.765 127.534 185.441 130.941H175.385H158.947C155.642 130.941 147.15 132.676 140.961 136.34C128.749 143.572 138.896 158.064 133.543 161.03C130.013 162.986 123.17 157.172 120.075 156.786C116.981 156.4 113.693 151.578 112.34 152.928C110.986 154.279 109.052 153.893 106.345 151.578C103.637 149.264 110.406 139.619 107.698 141.355C104.991 143.091 92.4204 147.528 89.3262 147.528C86.2319 147.528 85.4581 151.964 82.944 151.578C80.43 151.193 79.2701 150.228 80.0436 147.528C80.8172 144.827 91.0671 143.67 97.449 141.355C103.831 139.041 106.731 133.833 110.406 130.941C114.08 128.049 121.622 124.96 124.523 124.96C127.424 124.96 139.608 124.381 147.15 124.96C154.692 125.539 172.291 120.524 180.413 119.175Z" fill="#D9D9D9" fill-opacity="0.15"/>
<path d="M186.518 112.491L192.288 107.119C201.714 101.747 242.109 88.1241 249.033 84.8626C255.958 81.6011 267.5 72.5852 269.423 75.463C271.347 78.3408 263.268 85.0561 252.688 91.9629C242.109 98.8696 219.603 102.9 214.986 105.586C210.388 108.261 210.561 113.412 210.752 119.109L210.755 119.175C210.947 124.898 200.175 127.073 201.521 123.044C202.868 119.015 204.022 111.149 200.175 110.766C196.328 110.382 189.98 112.491 187.672 117.481C185.363 122.47 182.286 119.175 182.863 117.481C183.324 116.125 185.492 113.589 186.518 112.491Z" fill="#D9D9D9" fill-opacity="0.15"/>
<path d="M169.126 101.183C174.3 101.183 176.236 103.379 176.557 104.478L175.385 95.8301C174.812 95.6471 173.227 95.3909 171.465 95.8301C169.263 96.3792 156.602 98.5753 149.721 99.5362C142.84 100.497 126.188 101.183 122.473 101.183C118.757 101.183 111.325 107.119 108.986 109.007C106.646 110.895 97.449 118.204 93.7101 120.674C89.9713 123.145 80.0436 127.125 80.0436 129.596C80.0436 132.067 81.7372 132.067 84.0768 130.941C86.4163 129.815 95.9121 126.165 100.866 124.96C105.821 123.756 112.34 116.282 116.693 112.491C121.046 108.7 135.822 106.399 140.961 104.478C146.101 102.556 162.658 101.183 169.126 101.183Z" fill="#D9D9D9" fill-opacity="0.15"/>
<path d="M180.413 84.8626C175.385 83.5397 175.385 89.6046 173.616 88.5526C170.674 85.1423 176.557 80.1361 182.863 78.032C189.168 75.928 216.862 63.3026 223.191 60.6751C229.52 58.0475 242.968 47.522 244.551 49.8891C246.133 52.2561 242.441 58.0424 239.54 63.3026C236.64 68.5628 235.849 69.6159 234.53 65.1447C233.212 60.6734 225.037 67.2488 220.29 69.6159C215.544 71.983 200.175 78.0322 194.448 82.2403C188.721 86.4485 187.672 93.0237 185.441 95.8301C183.211 98.6365 180.413 95.8301 180.413 93.0237C180.413 90.2173 185.441 86.1855 180.413 84.8626Z" fill="#D9D9D9" fill-opacity="0.15"/>
<defs>
<radialGradient id="paint0_radial_4794_61720" cx="0" cy="0" r="1" gradientUnits="userSpaceOnUse" gradientTransform="translate(126.077 207.701) rotate(94.8223) scale(107.577 94.7695)">
<stop offset="0.0960057" stop-color="#D9D9D9"/>
<stop offset="1" stop-color="#737373" stop-opacity="0"/>
</radialGradient>
<radialGradient id="paint1_radial_4794_61720" cx="0" cy="0" r="1" gradientTransform="matrix(-5.30356 92.8157 -99.7125 -6.62828 136.28 207.938)" gradientUnits="userSpaceOnUse">
<stop stop-color="white"/>
<stop offset="1" stop-color="#999999" stop-opacity="0"/>
</radialGradient>
<radialGradient id="paint2_radial_4794_61720" cx="0" cy="0" r="1" gradientUnits="userSpaceOnUse" gradientTransform="translate(126.816 188.525) rotate(94.8223) scale(33.3739 100.548)">
<stop stop-color="white"/>
<stop offset="1" stop-color="#999999" stop-opacity="0"/>
</radialGradient>
<radialGradient id="paint3_radial_4794_61720" cx="0" cy="0" r="1" gradientTransform="matrix(53.5359 103.741 -206.21 105.86 137.217 146.528)" gradientUnits="userSpaceOnUse">
<stop stop-color="white"/>
<stop offset="1" stop-color="#999999" stop-opacity="0"/>
</radialGradient>
<radialGradient id="paint4_radial_4794_61720" cx="0" cy="0" r="1" gradientTransform="matrix(38.782 103.526 -133.053 49.583 149.052 127.961)" gradientUnits="userSpaceOnUse">
<stop stop-color="#D9D9D9"/>
<stop offset="1" stop-color="#737373" stop-opacity="0"/>
</radialGradient>
</defs>
</svg>
