<svg width="20" height="20" viewBox="0 0 20 20" fill="none" xmlns="http://www.w3.org/2000/svg">
<path d="M12.866 2.20025C13.6257 1.35171 14.9497 1.26173 15.8236 1.99938L17.2788 3.22722C18.1527 3.96488 18.2454 5.25117 17.4857 6.09974L7.25291 17.5302C6.80425 18.0313 6.16858 18.3387 5.48638 18.3851L3.84481 18.4961C2.95532 18.5565 2.18371 17.9057 2.12134 17.042L2.00626 15.4474C1.95866 14.7852 2.18406 14.1317 2.63252 13.6307L12.866 2.20025ZM3.61464 14.4595C3.3925 14.7077 3.28106 15.0316 3.30468 15.3597L3.41977 16.9536C3.43185 17.1211 3.5812 17.2477 3.75373 17.236L5.3953 17.1243C5.73321 17.1014 6.04785 16.9488 6.27009 16.7006L14.4949 7.51337L11.8394 5.27158L3.61464 14.4595ZM14.97 2.953C14.6386 2.67323 14.1363 2.70732 13.8481 3.0291L12.693 4.31796L15.3485 6.55975L16.5036 5.27021C16.7915 4.94833 16.7566 4.46057 16.4252 4.18084L14.97 2.953Z" fill="white"/>
</svg>
