<svg width="1841" height="846" viewBox="0 0 1841 846" fill="none" xmlns="http://www.w3.org/2000/svg">
<rect width="1841" height="846" fill="black" fill-opacity="0.01"/>
<path d="M588.242 577.414L548.917 592.675M620.242 577.253L558.036 601.393M652.242 577.092L567.155 610.111M684.241 576.931L576.274 618.829M716.241 576.77L585.393 627.547M748.24 576.608L594.513 636.265M780.24 576.447L603.632 644.983M812.24 576.286L612.751 653.701M844.239 576.125L621.87 662.419M876.239 575.964L630.989 671.137M908.238 575.802L640.108 679.855M940.238 575.641L649.228 688.573M972.238 575.48L659.777 696.736M1004.24 575.319L681.766 700.459M1036.24 575.158L713.766 700.298M1068.24 574.996L745.765 700.137M1100.24 574.835L777.765 699.975M1131.52 574.951L809.765 699.814M1164.24 574.513L841.764 699.653M1196.23 574.352L873.764 699.492M1227.52 574.468L905.763 699.331M1260.23 574.029L937.763 699.169M1291.52 574.145L969.763 699.008M1323.52 573.984L1001.76 698.847M1343.36 578.54L1033.76 698.686M1352.48 587.258L1065.76 698.525M1361.6 595.976L1097.76 698.363M1370.72 604.694L1129.76 698.202M1379.84 613.412L1161.76 698.041M1388.96 622.13L1193.76 697.88M1396.94 629.758L1221.76 697.739M1404.92 637.386L1249.76 697.598M1412.9 645.014L1277.76 697.457M1420.88 652.642L1305.76 697.316M1428.85 660.271L1333.76 697.175M1436.83 667.899L1361.76 697.034M1444.81 675.527L1389.76 696.892M1452.79 683.155L1417.76 696.751M1460.77 690.783L1445.76 696.61" stroke="url(#paint0_radial_2757_47463)" stroke-width="2" stroke-linecap="round" stroke-linejoin="round" stroke-dasharray="2 8"/>
<path d="M383.583 566.645L1514.97 566.645" stroke="url(#paint1_linear_2757_47463)" stroke-opacity="0.5"/>
<mask id="mask0_2757_47463" style="mask-type:alpha" maskUnits="userSpaceOnUse" x="419" y="13" width="1061" height="675">
<ellipse cx="949.277" cy="350.725" rx="530.184" ry="337.189" fill="url(#paint2_radial_2757_47463)"/>
</mask>
<g mask="url(#mask0_2757_47463)">
<mask id="mask1_2757_47463" style="mask-type:alpha" maskUnits="userSpaceOnUse" x="745" y="217" width="473" height="473">
<ellipse cx="981.618" cy="453.782" rx="236.091" ry="236.09" fill="url(#paint3_radial_2757_47463)"/>
</mask>
<g mask="url(#mask1_2757_47463)">
<rect width="405.72" height="162.113" rx="81.0567" transform="matrix(0.469472 0.882948 -0.970296 0.241922 949.328 253.261)" fill="#D9D9D9" fill-opacity="0.07"/>
<rect width="13.9853" height="16.1894" transform="matrix(0.469472 0.882948 -0.970296 0.241922 1025.85 470.474)" fill="url(#paint4_linear_2757_47463)"/>
<rect width="13.9853" height="15.7741" transform="matrix(0.469472 0.882948 -0.970296 0.241922 959.845 347.189)" fill="url(#paint5_linear_2757_47463)"/>
<rect width="13.9853" height="14.9223" transform="matrix(0.469472 0.882948 0.970296 -0.241922 873.167 368.963)" fill="url(#paint6_linear_2757_47463)"/>
<rect width="13.9853" height="16.4483" transform="matrix(0.469472 0.882948 0.970296 -0.241922 909.518 440.483)" fill="url(#paint7_linear_2757_47463)"/>
<path d="M957.587 512L951.984 501.462C951.935 501.28 951.892 500.885 952.115 500.758C952.394 500.6 954.838 500.079 955.48 499.919L961.042 498.532C961.477 498.424 961.638 498.095 961.314 497.776C960.988 497.457 959.051 496.542 958.749 496.218L958.725 496.194C958.423 495.87 957.985 495.399 958.072 494.945C958.161 494.478 958.438 492.857 958.469 492.671C958.5 492.485 958.107 492.184 957.454 492.369C956.929 492.518 948.95 494.497 945.025 495.468C944.933 495.018 944.812 494.034 945.072 493.703C945.396 493.289 945.617 492.679 947.93 492.058C949.781 491.561 955.736 490.097 958.482 489.427L993.429 480.616L994.724 483.05L982.64 486.063L981.729 489.651L985.835 492.073L999.785 488.595L1009.19 493.229L1017.12 497.157L957.587 512ZM979.225 490.26L979.561 487.186L978.964 486.99L961.411 491.367L960.813 495.042L964.542 497.256L982.531 492.771L979.225 490.26ZM967.908 493.23C968.217 493.811 967.949 494.41 967.311 494.57L965.417 495.042C964.778 495.201 964.01 494.859 963.701 494.278C963.393 493.697 963.66 493.097 964.298 492.938L966.192 492.466C966.831 492.307 967.599 492.649 967.908 493.23ZM989.096 487.947C989.405 488.528 989.137 489.128 988.499 489.287L986.605 489.759C985.967 489.918 985.199 489.577 984.89 488.996C984.581 488.415 984.848 487.815 985.486 487.655L987.381 487.183C988.019 487.024 988.787 487.366 989.096 487.947Z" fill="url(#paint8_linear_2757_47463)"/>
<path d="M1041.95 451.072L1042.7 452.483L1035.87 451.147L1031.88 455.222L1031.12 453.787L1034.2 450.705L1028.94 449.703L1028.19 448.28L1035.09 449.64L1039.04 445.599L1039.81 447.033L1036.78 450.089L1041.95 451.072Z" fill="white"/>
<path d="M1046.31 459.256L1047.06 460.668L1040.22 459.331L1036.23 463.406L1035.47 461.972L1038.55 458.89L1033.3 457.887L1032.54 456.464L1039.44 457.824L1043.4 453.783L1044.16 455.218L1041.13 458.273L1046.31 459.256Z" fill="white"/>
<path d="M1050.66 467.441L1051.41 468.852L1044.57 467.515L1040.58 471.59L1039.82 470.156L1042.9 467.074L1037.65 466.071L1036.89 464.649L1043.79 466.008L1047.75 461.968L1048.51 463.402L1045.48 466.457L1050.66 467.441Z" fill="white"/>
<path d="M1054.83 475.298L1055.58 476.709L1048.75 475.372L1044.76 479.447L1044 478.013L1047.08 474.931L1041.82 473.928L1041.07 472.506L1047.97 473.865L1051.92 469.825L1052.69 471.259L1049.66 474.314L1054.83 475.298Z" fill="white"/>
<path d="M891.125 386.752L896.659 385.372L896.978 385.972L892.099 387.189L893.416 389.665L892.761 389.828L891.125 386.752Z" fill="white"/>
<path d="M893.887 392.211C893.138 390.802 893.784 389.677 895.569 389.232C897.37 388.783 898.921 389.36 899.67 390.769C900.423 392.185 899.777 393.31 897.976 393.759C896.191 394.204 894.64 393.627 893.887 392.211ZM895.903 389.86C894.523 390.204 894 391.03 894.542 392.048C895.087 393.073 896.263 393.476 897.642 393.132C899.038 392.784 899.561 391.958 899.016 390.933C898.474 389.914 897.298 389.512 895.903 389.86Z" fill="white"/>
<path d="M902.716 396.764L902.062 396.927L901.242 395.386L896.363 396.602L896.044 396.002L900.923 394.786L900.103 393.244L900.758 393.081L902.716 396.764Z" fill="white"/>
<path d="M904.517 397.084C904.841 397.692 904.552 398.323 903.872 398.492L898.129 399.924C897.45 400.094 896.636 399.738 896.313 399.13L889.481 386.28C889.157 385.672 889.446 385.042 890.126 384.872L895.869 383.44C896.549 383.271 897.362 383.626 897.685 384.235L904.517 397.084ZM890.321 385.239C889.868 385.352 889.675 385.772 889.891 386.178L896.723 399.027C896.939 399.433 897.481 399.67 897.934 399.557L903.677 398.125C904.13 398.012 904.323 397.592 904.107 397.186L897.275 384.337C897.059 383.931 896.517 383.694 896.064 383.807L890.321 385.239Z" fill="white"/>
<g clip-path="url(#clip0_2757_47463)">
<path fill-rule="evenodd" clip-rule="evenodd" d="M1059.39 484.194L1060.09 485.517L1058.57 485.897L1059.27 487.22L1057.74 487.6L1057.04 486.278L1053.99 487.039L1054.69 488.361L1051.64 489.122L1052.34 490.445L1050.82 490.825L1050.11 489.503L1048.59 489.883L1049.29 491.206L1050.82 490.825L1051.52 492.147L1053.05 491.767L1052.34 490.445L1055.39 489.684L1056.1 491.006L1054.57 491.386L1055.27 492.709L1056.8 492.328L1057.5 493.651L1052.93 494.792L1052.22 493.47L1050.7 493.85L1049.99 492.528L1048.47 492.909L1049.17 494.231L1047.64 494.611L1046.24 491.967L1047.76 491.586L1047.06 490.264L1045.53 490.644L1044.83 489.322L1043.31 489.702L1044.01 491.025L1040.96 491.786L1040.25 490.463L1038.73 490.844L1039.43 492.166L1037.9 492.547L1038.61 493.869L1037.08 494.25L1036.38 492.927L1033.33 493.688L1032.62 492.366L1028.04 493.508L1029.45 496.152L1032.5 495.391L1033.21 496.714L1031.68 497.094L1032.38 498.417L1033.91 498.036L1034.61 499.358L1033.09 499.739L1033.79 501.061L1032.26 501.442L1033.67 504.087L1035.19 503.706L1035.9 505.028L1037.42 504.648L1038.13 505.97L1035.07 506.731L1035.78 508.054L1037.3 507.673L1038.01 508.996L1036.48 509.376L1040 515.988L1041.52 515.608L1042.23 516.93L1040.7 517.311L1041.4 518.633L1042.93 518.252L1042.23 516.93L1043.75 516.549L1043.05 515.227L1044.58 514.847L1043.87 513.524L1045.4 513.144L1046.1 514.466L1049.15 513.705L1049.86 515.027L1045.28 516.169L1046.68 518.814L1045.16 519.194L1045.86 520.517L1044.34 520.897L1043.63 519.575L1042.11 519.955L1042.81 521.278L1041.28 521.658L1025.81 492.566L1059.39 484.194ZM1060.8 486.839L1061.5 488.162L1059.97 488.542L1059.27 487.22L1060.8 486.839ZM1062.2 489.484L1062.91 490.806L1059.85 491.567L1059.15 490.245L1062.2 489.484ZM1063.61 492.129L1064.31 493.451L1062.79 493.832L1063.49 495.154L1065.01 494.773L1065.72 496.096L1062.67 496.857L1061.96 495.534L1060.44 495.915L1059.73 494.593L1061.26 494.212L1060.56 492.89L1063.61 492.129ZM1066.42 497.418L1067.12 498.741L1064.07 499.502L1064.77 500.824L1067.83 500.063L1068.53 501.385L1065.48 502.146L1068.29 507.436L1066.76 507.816L1068.17 510.461L1069.7 510.081L1068.99 508.758L1072.05 507.997L1072.75 509.32L1071.22 509.7L1071.93 511.023L1064.3 512.925L1063.59 511.603L1066.64 510.842L1065.94 509.519L1064.42 509.9L1063.71 508.578L1062.19 508.958L1063.59 511.603L1062.07 511.983L1061.36 510.661L1059.84 511.041L1059.13 509.719L1060.66 509.339L1059.96 508.016L1058.43 508.397L1059.13 509.719L1057.61 510.1L1059.01 512.744L1062.07 511.983L1062.77 513.306L1064.3 512.925L1065 514.248L1063.47 514.628L1064.18 515.95L1062.65 516.331L1061.24 513.686L1059.72 514.067L1061.12 516.712L1059.6 517.092L1058.89 515.77L1057.37 516.15L1058.07 517.473L1056.54 517.853L1055.84 516.531L1054.32 516.911L1053.61 515.589L1055.14 515.208L1053.73 512.563L1055.26 512.183L1056.66 514.828L1058.19 514.447L1056.78 511.802L1055.26 512.183L1054.56 510.861L1056.08 510.48L1055.38 509.158L1053.85 509.538L1053.15 508.216L1056.2 507.455L1055.5 506.132L1057.02 505.752L1057.73 507.074L1060.78 506.313L1061.48 507.636L1066.06 506.494L1064.65 503.849L1063.13 504.23L1062.43 502.907L1063.95 502.527L1063.25 501.205L1060.2 501.966L1058.79 499.321L1060.32 498.94L1059.61 497.618L1058.09 497.998L1057.38 496.676L1060.44 495.915L1061.84 498.56L1066.42 497.418ZM1069.23 502.708L1069.94 504.03L1068.41 504.411L1067.71 503.088L1069.23 502.708ZM1070.64 505.353L1071.34 506.675L1069.82 507.055L1069.11 505.733L1070.64 505.353ZM1073.45 510.642L1074.16 511.965L1072.63 512.345L1071.93 511.023L1073.45 510.642ZM1072.63 512.345L1073.33 513.667L1071.81 514.048L1071.1 512.726L1072.63 512.345ZM1058.45 488.923L1059.15 490.245L1057.62 490.625L1056.92 489.303L1058.45 488.923ZM1059.85 491.567L1060.56 492.89L1059.03 493.27L1058.33 491.948L1059.85 491.567ZM1069.58 513.106L1070.28 514.428L1068.75 514.809L1068.05 513.487L1069.58 513.106ZM1063.13 504.23L1063.83 505.552L1062.31 505.933L1061.6 504.61L1063.13 504.23ZM1056.68 495.354L1057.38 496.676L1055.86 497.057L1055.15 495.734L1056.68 495.354ZM1058.09 497.998L1058.79 499.321L1057.26 499.701L1056.56 498.379L1058.09 497.998ZM1060.2 501.966L1060.9 503.288L1059.37 503.668L1060.08 504.991L1057.02 505.752L1056.32 504.429L1057.85 504.049L1057.14 502.727L1060.2 501.966ZM1066.52 513.867L1067.23 515.189L1065.7 515.57L1065 514.248L1066.52 513.867ZM1055.86 497.057L1056.56 498.379L1053.51 499.14L1052.81 497.818L1055.86 497.057ZM1057.26 499.701L1057.97 501.024L1056.44 501.404L1057.14 502.727L1055.62 503.107L1054.21 500.462L1057.26 499.701ZM1052.93 494.792L1053.63 496.115L1052.1 496.495L1052.81 497.818L1048.23 498.959L1047.52 497.637L1046 498.017L1045.29 496.695L1046.82 496.314L1046.12 494.992L1047.64 494.611L1048.35 495.934L1052.93 494.792ZM1055.62 503.107L1056.32 504.429L1051.74 505.571L1050.34 502.926L1047.28 503.687L1045.88 501.043L1047.4 500.662L1046.7 499.34L1048.23 498.959L1048.93 500.281L1051.98 499.52L1054.09 503.488L1055.62 503.107ZM1045.53 490.644L1046.24 491.967L1044.71 492.347L1044.01 491.025L1045.53 490.644ZM1044.71 492.347L1046.12 494.992L1044.59 495.372L1043.89 494.05L1042.36 494.431L1044.47 498.398L1041.42 499.159L1040.72 497.836L1042.24 497.456L1041.54 496.133L1040.01 496.514L1038.61 493.869L1040.13 493.489L1039.43 492.166L1040.96 491.786L1041.66 493.108L1044.71 492.347ZM1053.85 509.538L1054.56 510.861L1053.03 511.241L1052.33 509.919L1053.85 509.538ZM1046 498.017L1046.7 499.34L1045.17 499.72L1044.47 498.398L1046 498.017ZM1050.22 505.952L1050.92 507.274L1049.39 507.654L1050.8 510.299L1049.27 510.68L1047.87 508.035L1046.34 508.415L1044.93 505.771L1046.46 505.39L1045.76 504.068L1047.28 503.687L1048.69 506.332L1050.22 505.952ZM1052.21 512.944L1052.91 514.266L1051.38 514.647L1050.68 513.325L1052.21 512.944ZM1054.32 516.911L1055.02 518.234L1053.49 518.614L1052.79 517.292L1054.32 516.911ZM1043.65 500.101L1044.35 501.423L1042.83 501.804L1043.53 503.126L1042 503.506L1040.6 500.862L1039.07 501.242L1037.66 498.597L1036.14 498.978L1035.43 497.656L1033.91 498.036L1033.21 496.714L1036.26 495.953L1035.55 494.63L1037.08 494.25L1039.89 499.539L1041.42 499.159L1042.12 500.481L1043.65 500.101ZM1049.27 510.68L1050.68 513.325L1049.15 513.705L1047.75 511.06L1049.27 510.68ZM1051.38 514.647L1052.79 517.292L1051.26 517.672L1049.86 515.027L1051.38 514.647ZM1047.04 509.738L1047.75 511.06L1046.22 511.441L1045.52 510.118L1047.04 509.738ZM1051.26 517.672L1051.97 518.995L1050.44 519.375L1049.74 518.053L1051.26 517.672ZM1042 503.506L1042.71 504.829L1041.18 505.209L1042.59 507.854L1039.53 508.615L1038.83 507.293L1040.36 506.912L1038.95 504.267L1042 503.506ZM1044.11 507.474L1044.81 508.796L1043.29 509.177L1042.59 507.854L1044.11 507.474ZM1046.22 511.441L1046.92 512.763L1045.4 513.144L1044.7 511.821L1046.22 511.441ZM1043.29 509.177L1044.7 511.821L1043.17 512.202L1041.76 509.557L1043.29 509.177ZM1048.21 518.433L1048.91 519.756L1047.39 520.136L1046.68 518.814L1048.21 518.433ZM1036.14 498.978L1038.95 504.267L1037.42 504.648L1036.02 502.003L1034.49 502.384L1033.79 501.061L1035.31 500.681L1034.61 499.358L1036.14 498.978ZM1040.94 511.26L1041.64 512.582L1040.12 512.963L1039.41 511.64L1040.94 511.26ZM1042.35 513.905L1043.05 515.227L1041.52 515.608L1040.82 514.285L1042.35 513.905Z" fill="white"/>
</g>
<g filter="url(#filter1_f_2757_47463)">
<path d="M929.005 513.096C928.737 512.702 928.177 512.512 927.756 512.672C927.334 512.831 927.211 513.279 927.479 513.672L928.242 513.384L929.005 513.096ZM989.393 558.799L989.645 558.112L989.393 558.799ZM1008.26 533.341C1007.78 533.137 1007.27 533.274 1007.12 533.646C1006.96 534.019 1007.22 534.486 1007.69 534.69L1007.98 534.016L1008.26 533.341ZM928.242 513.384L927.479 513.672C937.035 527.667 945.892 536.54 955.686 543.216C965.459 549.879 976.111 554.315 989.141 559.485L989.393 558.799L989.645 558.112C976.601 552.935 966.182 548.584 956.651 542.087C947.141 535.604 938.459 526.942 929.005 513.096L928.242 513.384ZM989.393 558.799L989.141 559.485C1001.04 564.209 1011.09 566.264 1018.76 566.344C1026.41 566.425 1031.83 564.539 1034.22 561.234C1036.66 557.874 1035.82 553.271 1031.57 548.375C1027.35 543.501 1019.7 538.255 1008.26 533.341L1007.98 534.016L1007.69 534.69C1018.96 539.529 1026.26 544.6 1030.18 549.129C1034.09 553.637 1034.62 557.525 1032.63 560.265C1030.61 563.06 1025.82 564.885 1018.45 564.807C1011.12 564.73 1001.35 562.759 989.645 558.112L989.393 558.799ZM924.359 514.051L923.574 514.305C944.59 548.198 958.797 554.08 971.456 567.499L972.121 567.089L972.786 566.68C959.701 552.81 946.048 547.507 925.144 513.797L924.359 514.051ZM922.079 514.62L921.287 514.864C941.762 548.888 951.678 555.623 963.472 569.443L964.171 569.071L964.871 568.7C952.944 554.726 943.239 548.223 922.87 514.376L922.079 514.62ZM919.179 515.343L918.376 515.566C937.773 549.809 944.851 557.184 954.708 571.531L955.469 571.241L956.231 570.95C946.316 556.52 939.328 549.271 919.982 515.119L919.179 515.343Z" fill="black" fill-opacity="0.5"/>
</g>
<path d="M895.373 406.417L897.215 409.88L896.164 410.142L894.89 407.745L893.552 408.078L894.782 410.391L893.748 410.649L892.518 408.336L891.165 408.673L892.469 411.127L891.419 411.389L889.548 407.87L895.373 406.417Z" fill="white"/>
<path d="M899.139 413.5L899.788 414.72L895.993 413.753L893.97 416.186L893.318 414.96L894.73 413.369L892.151 412.766L891.499 411.539L895.334 412.512L897.332 410.1L897.984 411.327L896.613 412.908L899.139 413.5Z" fill="white"/>
<path d="M900.975 416.953C901.609 418.144 901.27 419.046 900.089 419.341C898.907 419.635 897.793 419.095 897.16 417.904L896.668 416.978L894.658 417.48L894.091 416.414L899.917 414.962L900.975 416.953ZM897.718 416.717L898.176 417.579C898.475 418.14 898.941 418.388 899.508 418.247C900.074 418.106 900.189 417.712 899.891 417.151L899.433 416.289L897.718 416.717Z" fill="white"/>
<path d="M904.19 404.53L903.994 404.161L907.233 403.353L907.429 403.722L904.19 404.53ZM903.867 405.67C903.731 406.15 903.04 406.322 902.485 406.014L901.167 405.283L900.971 404.914C901.09 404.885 901.225 404.898 901.345 404.951L901.395 404.976L902.713 405.708C902.99 405.861 903.336 405.775 903.404 405.535L903.727 404.395L903.742 404.353C903.778 404.274 903.85 404.211 903.945 404.176L903.994 404.161L904.19 404.53L903.867 405.67ZM897.928 406.091L897.732 405.722L900.971 404.914L901.167 405.283L897.928 406.091ZM900.086 410.149L903.325 409.342L903.649 408.203C903.786 407.724 904.476 407.552 905.031 407.859L906.348 408.588L909.587 407.78L907.233 403.353L907.278 403.344C907.49 403.311 907.725 403.409 907.838 403.577L907.861 403.614L910.018 407.673C910.127 407.876 910.021 408.09 909.783 408.149L906.544 408.957C906.408 408.991 906.251 408.968 906.12 408.896L904.803 408.167C904.543 408.023 904.224 408.09 904.129 408.296L904.112 408.339L903.788 409.477C903.76 409.576 903.681 409.655 903.57 409.695L903.521 409.71L900.282 410.518C900.044 410.577 899.763 410.46 899.654 410.257L897.497 406.199C897.395 406.008 897.481 405.808 897.689 405.735L897.732 405.722L900.086 410.149Z" fill="white"/>
<path d="M902.677 409.503L900.086 410.149L897.928 406.091L900.519 405.445L902.677 409.503Z" fill="white"/>
<path d="M940.2 314.902C938.623 311.934 940.924 309.435 945.787 308.222C950.672 307.004 954.803 307.9 956.381 310.868C957.959 313.835 955.644 316.356 950.759 317.574C945.896 318.786 941.778 317.87 940.2 314.902ZM947.069 310.634C943.645 311.487 942.219 312.753 942.992 314.206C943.764 315.659 946.045 316 949.469 315.147C952.915 314.288 954.363 313.016 953.59 311.564C952.818 310.111 950.515 309.774 947.069 310.634Z" fill="white"/>
<path d="M932.24 304.785C930.08 304.351 928.383 304.774 927.136 306.057L926.925 305.661C928.064 304.313 929.892 303.857 932.03 304.388L932.24 304.785Z" fill="white"/>
<path d="M933.34 307.359L933.605 307.857L930.88 307.207L929.399 308.923L929.129 308.415L930.33 307.033L928.11 306.499L927.846 306.001L930.597 306.662L932.065 304.96L932.335 305.469L931.155 306.839L933.34 307.359Z" fill="white"/>
<path d="M930.104 308.87L930.393 309.413L929.746 309.575L929.457 309.031L930.104 308.87Z" fill="white"/>
<path d="M930.488 311.174C930.024 310.3 930.578 309.534 931.925 309.198C933.284 308.859 934.428 309.202 934.892 310.076C935.36 310.955 934.805 311.72 933.446 312.059C932.099 312.395 930.956 312.053 930.488 311.174ZM932.168 309.656C931.082 309.926 930.657 310.429 930.987 311.049C931.319 311.674 932.117 311.873 933.203 311.602C934.295 311.329 934.726 310.825 934.394 310.2C934.064 309.58 933.26 309.383 932.168 309.656Z" fill="white"/>
<path d="M935.244 313.215L935.452 313.606L934.929 313.748C935.376 313.78 935.745 314.005 935.942 314.376C936.15 314.767 936.061 315.106 935.702 315.328C936.185 315.339 936.571 315.56 936.796 315.981C937.085 316.525 936.819 316.948 936.059 317.138L934.035 317.642L933.808 317.215L935.69 316.746C936.26 316.604 936.483 316.33 936.31 316.005C936.086 315.583 935.624 315.422 935.06 315.562L933.179 316.031L932.952 315.605L934.833 315.135C935.391 314.996 935.627 314.719 935.457 314.399C935.235 313.982 934.764 313.817 934.207 313.957L932.325 314.426L932.098 313.999L935.244 313.215Z" fill="white"/>
<path d="M935.769 317.553C936.767 317.305 937.67 317.626 938.07 318.378C938.386 318.973 938.21 319.615 937.116 319.934L936.893 319.995L935.856 318.044C935.236 318.245 935.011 318.617 935.257 319.08C935.408 319.364 935.744 319.58 936.142 319.619L936.343 320.086C935.666 320.077 935.055 319.711 934.782 319.198C934.382 318.446 934.772 317.802 935.769 317.553ZM936.3 317.945L937.084 319.418C937.705 319.183 937.768 318.822 937.595 318.497C937.368 318.07 936.896 317.877 936.3 317.945Z" fill="white"/>
<path d="M939.596 319.882L939.823 320.309L939.111 320.487L939.492 321.203L939.052 321.313L938.671 320.596L936.802 321.063C936.541 321.128 936.461 321.268 936.574 321.482L936.78 321.868L936.34 321.978L936.135 321.591C935.878 321.109 936.041 320.769 936.575 320.636L938.444 320.17L938.234 319.773L938.673 319.664L938.884 320.06L939.596 319.882Z" fill="white"/>
<path d="M939.664 321.528L939.864 321.904L939.296 322.063C939.737 322.057 940.026 322.209 940.213 322.56L940.353 322.824L939.914 322.933L939.773 322.669C939.555 322.258 939.161 322.137 938.621 322.272L936.745 322.739L936.519 322.312L939.664 321.528Z" fill="white"/>
<path d="M940.554 323.201L940.781 323.628L937.635 324.412L937.408 323.985L940.554 323.201ZM941.041 323.068L941.611 322.926L941.848 323.373L941.279 323.515L941.041 323.068Z" fill="white"/>
<path d="M940.939 326.175C941.318 326.017 941.405 325.662 941.235 325.342C940.97 324.844 940.377 324.664 939.647 324.846C938.917 325.028 938.632 325.427 938.896 325.925C939.075 326.26 939.493 326.49 939.976 326.438L940.181 326.9C939.423 326.991 938.724 326.612 938.422 326.043C938.022 325.291 938.412 324.647 939.409 324.399C940.406 324.15 941.31 324.471 941.71 325.223C942.001 325.772 941.851 326.374 941.212 326.614L940.939 326.175Z" fill="white"/>
<path d="M943.847 326.614C942.709 327.962 940.881 328.418 938.743 327.886L938.532 327.49C940.692 327.924 942.389 327.501 943.636 326.217L943.847 326.614Z" fill="white"/>
<path d="M924.642 306.303L925.112 307.187L922.366 306.485L920.903 308.248L920.431 307.359L921.451 306.207L919.585 305.768L919.112 304.879L921.887 305.586L923.331 303.839L923.804 304.728L922.813 305.873L924.642 306.303Z" fill="white"/>
<path d="M926.444 309.693L926.914 310.577L924.168 309.875L922.706 311.638L922.233 310.749L923.254 309.597L921.387 309.158L920.914 308.269L923.69 308.976L925.134 307.229L925.607 308.118L924.616 309.263L926.444 309.693Z" fill="white"/>
<path d="M927.471 311.625L927.785 312.214L927.286 312.338L926.09 312.504L925.853 312.057L927.471 311.625ZM926.473 310.797L926.966 310.674L927.279 311.264L925.636 311.65L925.399 311.203L926.473 310.797Z" fill="white"/>
<path d="M929.295 314.548C927.156 314.155 925.459 314.578 924.19 315.821L923.828 315.14C925.01 313.81 926.779 313.369 928.933 313.867L929.295 314.548Z" fill="white"/>
<path d="M930.411 317.154L930.881 318.038L928.135 317.336L926.673 319.099L926.2 318.209L927.221 317.057L925.354 316.619L924.881 315.73L927.657 316.436L929.101 314.689L929.573 315.578L928.582 316.723L930.411 317.154Z" fill="white"/>
<path d="M932.213 320.543L932.684 321.428L929.937 320.725L928.475 322.488L928.002 321.599L929.023 320.447L927.157 320.009L926.684 319.119L929.459 319.826L930.903 318.079L931.376 318.968L930.385 320.113L932.213 320.543Z" fill="white"/>
<path d="M931.945 324.881C932.301 324.74 932.401 324.474 932.258 324.204C932.055 323.823 931.589 323.692 930.977 323.844C930.366 323.997 930.132 324.303 930.335 324.684C930.486 324.968 930.813 325.128 931.247 325.072L931.63 325.869C930.809 325.993 930.033 325.57 929.652 324.854C929.206 324.015 929.57 323.309 930.561 323.062C931.552 322.815 932.494 323.196 932.94 324.034C933.31 324.73 933.131 325.391 932.403 325.653L931.945 324.881Z" fill="white"/>
<path d="M933.664 325.547L934.028 326.233L933.538 326.372C933.973 326.419 934.324 326.637 934.508 326.982C934.708 327.358 934.613 327.687 934.269 327.911C934.769 327.941 935.137 328.166 935.334 328.537C935.624 329.081 935.4 329.534 934.617 329.729L932.593 330.234L932.188 329.471L933.915 329.041C934.437 328.91 934.631 328.718 934.496 328.464C934.328 328.149 933.972 328.06 933.461 328.187L931.734 328.618L931.375 327.942L933.102 327.511C933.624 327.381 933.82 327.194 933.683 326.935C933.518 326.625 933.161 326.535 932.651 326.663L930.923 327.093L930.518 326.331L933.664 325.547Z" fill="white"/>
<path d="M937.549 330.073C936.368 331.403 934.599 331.844 932.445 331.345L932.083 330.664C934.221 331.058 935.919 330.635 937.187 329.392L937.549 330.073Z" fill="white"/>
<path d="M883.839 290.286C870.517 299.428 866.073 315.379 874.239 330.737C882.515 346.302 901.286 356.632 920.337 357.532C920.765 357.552 921.173 357.787 921.352 358.122C921.629 358.645 921.242 359.166 920.577 359.147C901.095 358.594 881.586 347.958 873.005 331.82C864.443 315.717 869.359 299.019 883.689 290.004C884.49 289.566 884.14 290.123 883.839 290.286Z" fill="white"/>
<path d="M882.788 312.521L886.339 313.372L888.252 311.173L888.609 311.845L887.058 313.61L889.896 314.266L890.246 314.924L886.732 314.079L884.803 316.311L884.446 315.64L886.021 313.854L883.138 313.179L882.788 312.521Z" fill="white"/>
<path d="M885.644 317.892L889.717 316.876L889.986 317.383L888.967 317.659L888.956 317.573C889.202 317.556 889.431 317.576 889.641 317.633C889.858 317.693 890.049 317.784 890.213 317.907C890.382 318.029 890.514 318.178 890.607 318.353C890.768 318.656 890.801 318.926 890.707 319.163C890.615 319.405 890.407 319.593 890.085 319.728L890.036 319.621C890.291 319.597 890.522 319.612 890.73 319.664C890.945 319.72 891.136 319.811 891.302 319.939C891.469 320.066 891.603 320.227 891.706 320.42C891.839 320.67 891.889 320.896 891.857 321.097C891.83 321.298 891.725 321.471 891.541 321.616C891.357 321.761 891.101 321.875 890.773 321.956L888.152 322.61L887.858 322.057L890.341 321.438C890.71 321.346 890.954 321.216 891.073 321.047C891.197 320.877 891.195 320.671 891.067 320.43C890.981 320.267 890.859 320.136 890.701 320.037C890.546 319.941 890.364 319.882 890.155 319.86C889.95 319.836 889.725 319.855 889.48 319.916L887.043 320.524L886.749 319.971L889.186 319.364C889.549 319.273 889.805 319.147 889.951 318.986C890.098 318.826 890.102 318.616 889.965 318.357C889.879 318.195 889.757 318.064 889.599 317.964C889.444 317.868 889.26 317.807 889.049 317.78C888.84 317.758 888.615 317.777 888.374 317.837L885.937 318.444L885.644 317.892Z" fill="white"/>
<path d="M888.459 323.187L892.533 322.172L892.802 322.679L891.783 322.955L891.772 322.868C892.018 322.852 892.246 322.872 892.457 322.929C892.674 322.989 892.865 323.08 893.029 323.203C893.198 323.325 893.33 323.474 893.423 323.649C893.584 323.952 893.617 324.222 893.523 324.459C893.431 324.701 893.223 324.889 892.9 325.024L892.852 324.917C893.107 324.893 893.338 324.908 893.545 324.96C893.761 325.016 893.952 325.107 894.118 325.235C894.284 325.362 894.419 325.522 894.522 325.715C894.655 325.965 894.705 326.191 894.673 326.393C894.646 326.594 894.541 326.766 894.357 326.912C894.173 327.057 893.917 327.17 893.589 327.252L890.968 327.906L890.674 327.353L893.157 326.734C893.526 326.642 893.77 326.512 893.889 326.343C894.013 326.173 894.011 325.967 893.883 325.726C893.797 325.563 893.675 325.432 893.517 325.332C893.362 325.237 893.18 325.178 892.97 325.156C892.766 325.132 892.541 325.151 892.295 325.212L889.859 325.82L889.565 325.267L892.001 324.659C892.365 324.569 892.621 324.443 892.767 324.282C892.914 324.121 892.918 323.912 892.781 323.653C892.694 323.49 892.572 323.359 892.415 323.26C892.26 323.164 892.076 323.103 891.865 323.076C891.656 323.054 891.431 323.073 891.19 323.133L888.753 323.74L888.459 323.187Z" fill="white"/>
<path d="M891.807 329.483L895.358 330.334L897.271 328.136L897.628 328.807L896.077 330.572L898.915 331.228L899.265 331.886L895.751 331.041L893.822 333.273L893.465 332.602L895.04 330.816L892.157 330.141L891.807 329.483Z" fill="white"/>
<path d="M892.987 333.503L900.629 333.796L900.908 334.322L893.266 334.029L892.987 333.503Z" fill="white"/>
<path d="M895.207 335.878L898.759 336.729L900.671 334.531L901.028 335.202L899.477 336.968L902.316 337.624L902.666 338.282L899.152 337.436L897.223 339.669L896.866 338.998L898.44 337.211L895.557 336.536L895.207 335.878Z" fill="white"/>
<path d="M897.844 341.034C897.671 340.709 897.608 340.404 897.654 340.12C897.702 339.839 897.85 339.594 898.098 339.383C898.351 339.171 898.692 339.011 899.123 338.904C899.553 338.796 899.962 338.769 900.35 338.821C900.737 338.874 901.081 338.997 901.382 339.19C901.689 339.387 901.929 339.647 902.102 339.972C902.244 340.24 902.314 340.49 902.311 340.725C902.315 340.962 902.247 341.173 902.107 341.357C901.967 341.541 901.756 341.69 901.475 341.805L901.121 341.238C901.371 341.13 901.525 340.978 901.583 340.78C901.645 340.58 901.613 340.362 901.487 340.125C901.317 339.805 901.048 339.589 900.681 339.477C900.319 339.363 899.902 339.365 899.431 339.483C898.959 339.6 898.635 339.783 898.46 340.03C898.289 340.277 898.288 340.56 898.459 340.88C898.585 341.117 898.768 341.298 899.008 341.422C899.248 341.546 899.532 341.589 899.86 341.552L900.122 342.142C899.799 342.178 899.49 342.159 899.194 342.083C898.904 342.006 898.641 341.878 898.406 341.698C898.174 341.523 897.986 341.301 897.844 341.034Z" fill="white"/>
<path d="M901.603 324.089C899.529 324.286 897.841 323.492 896.96 321.834C895.871 319.787 896.965 318.056 899.324 317.468C901.683 316.88 904.167 317.718 905.256 319.766C906.101 321.355 905.608 322.715 903.935 323.474L903.038 321.953C903.94 321.53 904.214 320.854 903.809 320.093C903.161 318.875 901.687 318.602 900.132 318.989C898.589 319.374 897.733 320.239 898.375 321.448C898.806 322.257 899.689 322.633 900.846 322.522L901.603 324.089Z" fill="white"/>
<path d="M902.796 324.022L904.574 327.367L903.199 327.71L901.421 324.365L902.796 324.022Z" fill="white"/>
<path d="M907.501 327.512C907.962 328.38 908.65 328.673 909.661 328.432L910.278 329.592L902.34 331.571L901.552 330.089L906.773 328.787L905.975 327.286L907.216 326.976L907.501 327.512Z" fill="white"/>
<path d="M865.749 391.913L866.973 394.217L866.457 394.346L865.468 392.486L864.06 392.837L865.016 394.635L864.511 394.76L863.556 392.963L862.135 393.317L863.146 395.218L862.629 395.347L861.382 393.002L865.749 391.913Z" fill="white"/>
<path d="M868.525 397.134L868.008 397.263L867.401 396.122L863.552 397.082L863.315 396.637L867.165 395.678L866.558 394.536L867.075 394.407L868.525 397.134Z" fill="white"/>
<path d="M864.336 398.556L868.702 397.467L868.938 397.912L867.025 398.388L867.978 400.181L869.891 399.704L870.127 400.148L865.761 401.236L865.525 400.792L867.462 400.309L866.509 398.517L864.572 399L864.336 398.556Z" fill="white"/>
<path d="M865.927 401.549L870.996 401.782L871.315 402.381L867.651 404.792L867.393 404.307L868.441 403.63L867.622 402.091L866.185 402.034L865.927 401.549ZM868.218 402.112L868.877 403.352L870.694 402.197L868.218 402.112Z" fill="white"/>
<path d="M867.777 405.028L872.143 403.939L872.379 404.383L868.529 405.343L869.504 407.177L868.988 407.305L867.777 405.028Z" fill="white"/>
<path d="M869.225 407.752L873.591 406.663L873.827 407.108L869.978 408.067L870.953 409.901L870.436 410.03L869.225 407.752Z" fill="white"/>
<path d="M871.264 411.795C870.709 410.752 871.241 409.906 872.649 409.555C874.07 409.201 875.272 409.615 875.827 410.658C876.384 411.706 875.852 412.552 874.431 412.907C873.023 413.258 871.821 412.844 871.264 411.795ZM872.896 410.02C871.808 410.291 871.379 410.913 871.78 411.667C872.184 412.426 873.096 412.713 874.184 412.442C875.285 412.167 875.714 411.546 875.31 410.787C874.909 410.033 873.997 409.745 872.896 410.02Z" fill="white"/>
<path d="M876.585 412.294L876.865 412.821L875.37 414.317L877.92 414.804L878.2 415.331L874.928 414.679L873.145 415.124L872.909 414.679L874.692 414.235L876.585 412.294Z" fill="white"/>
<path d="M878.363 417.38L878 417.471L877.671 416.851L877.199 417.325L876.874 417.108L877.346 416.634L876.542 416.483L876.586 416.174L877.391 416.324L877.061 415.704L877.424 415.614L877.754 416.234L878.222 415.766L878.547 415.983L878.072 416.453L878.879 416.608L878.835 416.918L878.034 416.76L878.363 417.38Z" fill="white"/>
<path d="M879.959 418.639L880.289 419.259L877.505 421.989L881.244 421.056L881.48 421.501L877.114 422.589L876.771 421.944L879.506 419.255L875.829 420.172L875.593 419.728L879.959 418.639Z" fill="white"/>
<path d="M881.802 422.105L883.026 424.408L882.51 424.537L881.521 422.678L880.113 423.029L881.069 424.826L880.564 424.952L879.609 423.155L878.188 423.509L879.199 425.409L878.682 425.538L877.436 423.193L881.802 422.105Z" fill="white"/>
<path d="M883.312 424.945L884.536 427.248L884.02 427.377L883.031 425.518L881.623 425.869L882.579 427.666L882.074 427.792L881.119 425.995L879.698 426.349L880.709 428.249L880.192 428.378L878.946 426.033L883.312 424.945Z" fill="white"/>
<path d="M885.426 428.921C886.025 430.047 885.575 430.878 884.173 431.228C882.777 431.576 881.667 431.151 881.076 430.041L880.456 428.873L884.822 427.785L885.426 428.921ZM881.208 429.189L881.576 429.881C882.035 430.743 882.819 431.039 883.926 430.763C885.045 430.484 885.368 429.912 884.909 429.05L884.541 428.358L881.208 429.189Z" fill="white"/>
<path d="M882.212 432.177L886.579 431.089L886.815 431.533L882.965 432.493L883.94 434.326L883.423 434.455L882.212 432.177Z" fill="white"/>
<path d="M888.027 433.813L889.252 436.116L888.735 436.245L887.747 434.386L886.338 434.737L887.294 436.534L886.79 436.66L885.834 434.863L884.414 435.217L885.424 437.117L884.908 437.246L883.661 434.901L888.027 433.813Z" fill="white"/>
<path d="M885.518 438.394L890.587 438.628L890.906 439.227L887.242 441.638L886.984 441.152L888.032 440.476L887.213 438.937L885.776 438.88L885.518 438.394ZM887.809 438.958L888.468 440.197L890.285 439.042L887.809 438.958Z" fill="white"/>
<path d="M887.368 441.873L891.734 440.785L891.97 441.229L888.12 442.189L889.095 444.022L888.579 444.151L887.368 441.873Z" fill="white"/>
<path d="M888.816 444.597L893.182 443.509L893.418 443.953L889.569 444.913L890.544 446.746L890.027 446.875L888.816 444.597Z" fill="white"/>
<path d="M890.855 448.641C890.3 447.597 890.832 446.751 892.24 446.4C893.661 446.046 894.863 446.46 895.418 447.503C895.975 448.551 895.443 449.398 894.022 449.752C892.614 450.103 891.412 449.689 890.855 448.641ZM892.487 446.865C891.399 447.136 890.97 447.758 891.371 448.512C891.775 449.271 892.687 449.558 893.775 449.287C894.876 449.013 895.305 448.391 894.901 447.632C894.5 446.878 893.588 446.59 892.487 446.865Z" fill="white"/>
<path d="M896.176 449.14L896.457 449.667L894.961 451.163L897.511 451.65L897.791 452.177L894.519 451.524L892.736 451.969L892.5 451.525L894.283 451.08L896.176 449.14Z" fill="white"/>
<path d="M1008.66 430.607L1008.47 430.774L1005.04 433.779L1011.05 435.641L1011.39 435.744L1015.31 443.126C1016.03 444.47 1016.25 445.647 1015.91 446.543C1015.57 447.453 1014.68 448.016 1013.34 448.179C1011.99 448.342 1010.63 448.053 1009.42 447.332C1008.22 446.622 1007.23 445.537 1006.52 444.193L1005.45 442.187L1000.83 442.748L999.431 440.122L1012.33 438.558L1011.95 438.435L1002.64 435.467L997.301 436.115L995.905 433.49L1001.25 432.842L1006.13 428.395L1004.6 428.58L1002.78 425.152L992.156 426.44L990.76 423.814L1001.38 422.526L999.562 419.098L1002.36 418.759L1008.66 430.607ZM1022.45 456.553L1019.66 456.892L1016.7 451.325L1014.17 451.631L1017.03 457.01L1014.29 457.342L1011.43 451.963L1008.87 452.274L1011.9 457.967L1009.1 458.306L1004.68 449.987L1018.1 448.36L1022.45 456.553ZM1008.23 441.85L1009.27 443.809C1009.65 444.526 1010.08 444.969 1010.48 445.216C1010.86 445.447 1011.32 445.562 1011.91 445.49C1012.48 445.421 1012.76 445.219 1012.85 444.934C1012.96 444.626 1012.88 444.139 1012.49 443.419L1011.45 441.46L1008.23 441.85Z" stroke="white" stroke-width="1.04942"/>
<path d="M1084.04 522.96C1084.69 522.014 1085.12 520.752 1085.26 520.24L1094.23 536.313C1091.27 537.398 1085.21 539.392 1084.69 538.691C1084.06 537.814 1081.93 537.234 1080.25 537.653C1078.57 538.071 1070.07 540.117 1069.11 540.43C1068.35 540.68 1068.4 542.064 1068.52 542.724L1048.99 547.594L1041.17 532.896C1041.33 532.781 1041.87 532.691 1042.77 533.248C1043.91 533.945 1048.33 534.801 1049.72 534.977C1050.83 535.117 1052.46 534.729 1053.13 534.517L1066.73 531.127C1072.11 529.784 1079.97 527.499 1080.88 527.206C1081.79 526.913 1083.22 524.143 1084.04 522.96Z" fill="url(#paint9_linear_2757_47463)" fill-opacity="0.3"/>
<path d="M979.27 375.145L971.198 377.158C970.397 377.358 969.951 377.688 969.763 378.072C969.577 378.452 969.606 378.961 969.957 379.621C970.304 380.273 970.76 380.677 971.261 380.888C971.767 381.101 972.421 381.16 973.22 380.96L981.291 378.948L982.593 381.395L974.521 383.407C973.069 383.769 971.617 383.67 970.332 383.113C969.044 382.556 967.998 381.572 967.311 380.28C966.621 378.982 966.499 377.768 966.963 376.775C967.426 375.784 968.446 375.073 969.898 374.712L977.969 372.699L979.27 375.145ZM988.475 392.459L980.404 394.471C979.602 394.671 979.156 395.001 978.968 395.385C978.782 395.764 978.811 396.274 979.162 396.934C979.509 397.586 979.965 397.99 980.466 398.201C980.973 398.414 981.626 398.473 982.426 398.273L990.497 396.261L991.798 398.707L983.726 400.72C982.274 401.082 980.823 400.983 979.537 400.426C978.25 399.869 977.204 398.885 976.517 397.593C975.827 396.295 975.704 395.08 976.168 394.088C976.632 393.097 977.652 392.386 979.103 392.024L987.174 390.011L988.475 392.459ZM987.151 390.003L984.506 390.663L982.874 387.594L972.829 390.099L971.529 387.653L981.574 385.148L979.942 382.079L982.587 381.42L987.151 390.003ZM994.157 403.179C994.757 404.308 994.919 405.385 994.586 406.271C994.251 407.163 993.434 407.805 992.217 408.109C991.089 408.39 989.926 408.191 988.989 407.693C988.959 407.855 988.905 408.01 988.819 408.155C988.557 408.599 988.056 408.892 987.42 409.111L987.419 409.112L984.159 410.228L983.628 410.409L982.316 407.941L982.768 407.791L985.821 406.775L985.822 406.774C986.222 406.636 986.328 406.48 986.349 406.299C986.376 406.06 986.266 405.669 985.908 404.997L984.957 403.208L980.403 404.343L979.102 401.897L991.793 398.733L994.157 403.179ZM1000.5 415.113L997.857 415.773L995.208 410.791L992.823 411.385L995.383 416.199L992.786 416.847L990.227 412.033L987.808 412.635L990.518 417.731L987.872 418.39L983.862 410.849L996.553 407.685L1000.5 415.113ZM987.603 402.548L988.614 404.449C988.914 405.015 989.263 405.349 989.599 405.52C989.921 405.684 990.324 405.746 990.837 405.618C991.343 405.491 991.602 405.268 991.7 404.998C991.801 404.719 991.761 404.308 991.459 403.74L990.448 401.839L987.603 402.548ZM971.032 367.249C970.645 367.346 970.469 367.59 970.43 368.041C970.388 368.521 970.516 369.126 970.653 369.801L970.652 369.8C970.892 370.885 970.94 371.914 970.665 372.747C970.383 373.597 969.761 374.245 968.694 374.512C967.439 374.825 966.192 374.579 965.121 373.97C964.068 373.37 963.215 372.437 962.66 371.394C962.006 370.163 961.853 368.969 962.206 367.966C962.56 366.961 963.411 366.182 964.684 365.76L965.177 365.595L965.461 366.054L966.406 367.588L966.657 367.995L966.246 368.18C965.649 368.448 965.272 368.816 965.114 369.243C964.958 369.666 964.999 370.191 965.335 370.823C965.62 371.359 965.95 371.714 966.26 371.904C966.542 372.076 966.851 372.142 967.223 372.043L967.231 372.041C967.594 371.951 967.817 371.759 967.922 371.363C968.035 370.934 968.003 370.276 967.784 369.297L967.785 369.297C967.554 368.301 967.475 367.316 967.732 366.501C967.996 365.666 968.612 365.019 969.717 364.743C970.868 364.456 972.05 364.619 973.102 365.166C974.142 365.707 975.002 366.595 975.586 367.694C976.219 368.883 976.328 370.015 975.964 370.962C975.601 371.907 974.779 372.637 973.621 373.057L973.118 373.24L972.829 372.763L971.908 371.24L971.652 370.817L972.09 370.644C972.64 370.424 972.98 370.094 973.124 369.71C973.266 369.328 973.228 368.858 972.942 368.321C972.701 367.868 972.377 367.554 972.054 367.379C971.744 367.212 971.4 367.152 971.039 367.247L971.032 367.249Z" stroke="white" stroke-width="1.04942"/>
<path d="M958.053 369.78C958.59 370.789 958.314 371.53 957.317 371.779C956.305 372.031 955.383 371.589 954.847 370.58L954.273 369.501L952.234 370.009L951.942 369.46L957.187 368.152L958.053 369.78ZM954.893 369.346L955.467 370.425C955.83 371.108 956.354 371.368 957.011 371.204C957.654 371.044 957.796 370.618 957.433 369.935L956.859 368.856L954.893 369.346Z" fill="white"/>
<path d="M954.468 374.401C953.969 373.462 954.441 372.65 955.69 372.339C956.939 372.028 958.063 372.442 958.562 373.38C959.057 374.313 958.585 375.125 957.337 375.436C956.088 375.747 954.964 375.333 954.468 374.401ZM955.989 372.901C955.08 373.128 954.727 373.628 955.059 374.254C955.389 374.873 956.129 375.101 957.038 374.874C957.947 374.647 958.3 374.147 957.971 373.528C957.638 372.902 956.898 372.674 955.989 372.901Z" fill="white"/>
<path d="M960.877 375.092L961.163 375.628L956.707 376.739C956.545 376.779 956.501 376.87 956.575 377.01L956.732 377.304L956.185 377.44L955.985 377.064C955.774 376.668 955.942 376.322 956.392 376.21L960.877 375.092Z" fill="white"/>
<path d="M960.047 376.363L960.353 376.938L957.642 378.764L961.419 378.943L961.721 379.511L956.58 379.238C956.091 379.215 955.77 379.021 955.566 378.637L955.332 378.197L955.879 378.06L956.086 378.45C956.174 378.616 956.306 378.692 956.532 378.707L956.959 378.739L956.864 378.56L960.047 376.363Z" fill="white"/>
<path d="M959.733 379.942C960.974 379.633 962.102 380.039 962.604 380.984C963.001 381.731 962.786 382.537 961.424 382.934L961.146 383.01L959.843 380.558C959.072 380.808 958.793 381.276 959.102 381.857C959.292 382.214 959.713 382.486 960.208 382.536L960.462 383.123C959.618 383.11 958.854 382.649 958.511 382.004C958.009 381.059 958.491 380.252 959.733 379.942ZM960.396 380.435L961.381 382.287C962.153 381.993 962.23 381.54 962.013 381.131C961.728 380.595 961.138 380.351 960.396 380.435Z" fill="white"/>
<path d="M963.374 385.201C963.777 385.014 963.842 384.571 963.642 384.194C963.442 383.818 963.057 383.566 962.68 383.66C962.296 383.756 962.375 384.235 962.483 384.628C962.721 385.436 962.776 386.059 962 386.252C961.239 386.442 960.554 385.846 960.211 385.202C959.787 384.403 959.971 383.663 960.756 383.41L961.099 383.96C960.664 384.149 960.534 384.55 960.802 385.054C960.979 385.386 961.332 385.783 961.738 385.681C962.204 385.565 962.001 385.074 961.9 384.665C961.734 384.005 961.591 383.295 962.352 383.106C963.098 382.92 963.849 383.325 964.264 384.104C964.62 384.775 964.42 385.454 963.717 385.752L963.374 385.201Z" fill="white"/>
<path d="M966.136 385.925L966.421 386.462L965.534 386.683L966.013 387.583L965.466 387.72L964.987 386.819L962.66 387.4C962.335 387.481 962.236 387.657 962.379 387.925L962.637 388.41L962.09 388.547L961.832 388.062C961.51 387.455 961.71 387.029 962.375 386.863L964.702 386.283L964.437 385.785L964.984 385.648L965.249 386.147L966.136 385.925Z" fill="white"/>
<path d="M964.11 388.175C965.351 387.866 966.479 388.271 966.982 389.216C967.379 389.964 967.163 390.769 965.801 391.167L965.524 391.243L964.22 388.791C963.449 389.041 963.171 389.509 963.48 390.09C963.67 390.447 964.09 390.718 964.585 390.769L964.839 391.356C963.995 391.342 963.231 390.882 962.889 390.237C962.386 389.292 962.869 388.485 964.11 388.175ZM964.774 388.668L965.758 390.519C966.531 390.226 966.608 389.773 966.391 389.364C966.106 388.827 965.516 388.584 964.774 388.668Z" fill="white"/>
<path d="M967.911 391.153L968.162 391.626L967.456 391.824C968.005 391.817 968.366 392.009 968.6 392.449L968.777 392.782L968.23 392.918L968.054 392.586C967.779 392.069 967.288 391.916 966.615 392.084L964.28 392.666L963.995 392.13L967.911 391.153Z" fill="white"/>
<path d="M967.739 395.503C967.091 395.795 966.841 396.349 967.221 397.064C967.53 397.645 968.004 397.968 968.528 397.838C969.06 397.705 969.175 397.228 968.959 396.255C968.779 395.461 968.844 394.685 969.686 394.475C970.573 394.254 971.453 394.729 971.914 395.598C972.43 396.568 972.071 397.388 971.154 397.725L970.805 397.162C971.418 396.915 971.623 396.372 971.29 395.746C971.015 395.229 970.494 394.925 969.992 395.05C969.356 395.209 969.528 395.91 969.649 396.531C969.821 397.421 969.698 398.197 968.9 398.396C967.925 398.639 967.015 397.998 966.577 397.174C966.051 396.184 966.366 395.282 967.389 394.94L967.739 395.503Z" fill="white"/>
<path d="M969.215 401.946L968.943 401.435L969.593 401.273C968.988 401.222 968.552 400.889 968.315 400.442C967.914 399.689 968.375 399.154 969.202 398.948L971.722 398.32L972.007 398.856L969.672 399.438C968.941 399.621 968.661 399.929 968.923 400.421C969.201 400.944 969.779 401.198 970.511 401.016L972.846 400.433L973.131 400.97L969.215 401.946Z" fill="white"/>
<path d="M974.499 401.655L974.785 402.192L973.898 402.413L974.377 403.313L973.83 403.45L973.351 402.549L971.024 403.129C970.699 403.211 970.6 403.387 970.743 403.655L971.001 404.14L970.454 404.277L970.196 403.792C969.873 403.185 970.074 402.759 970.739 402.593L973.066 402.013L972.801 401.515L973.348 401.378L973.613 401.877L974.499 401.655Z" fill="white"/>
<path d="M972.087 407.347L971.815 406.837L972.465 406.674C971.86 406.623 971.424 406.29 971.187 405.843C970.786 405.09 971.247 404.556 972.074 404.349L974.594 403.721L974.879 404.258L972.544 404.84C971.813 405.022 971.533 405.33 971.794 405.822C972.073 406.346 972.651 406.599 973.383 406.417L975.717 405.835L976.003 406.371L972.087 407.347Z" fill="white"/>
<path d="M976.368 407.058L976.619 407.53L975.913 407.728C976.461 407.722 976.823 407.914 977.057 408.354L977.234 408.686L976.687 408.822L976.51 408.49C976.235 407.973 975.744 407.821 975.072 407.988L972.737 408.571L972.452 408.034L976.368 407.058Z" fill="white"/>
<path d="M975.313 409.244C976.554 408.935 977.682 409.34 978.184 410.285C978.582 411.032 978.366 411.838 977.004 412.236L976.726 412.312L975.423 409.86C974.652 410.11 974.373 410.578 974.682 411.159C974.872 411.516 975.293 411.787 975.788 411.837L976.042 412.425C975.198 412.411 974.434 411.951 974.091 411.306C973.589 410.361 974.071 409.554 975.313 409.244ZM975.976 409.737L976.961 411.588C977.733 411.295 977.811 410.841 977.593 410.433C977.308 409.896 976.718 409.653 975.976 409.737Z" fill="white"/>
<path d="M1025.46 460.432C1025.75 460.673 1025.94 460.997 1025.94 461.338L1025.94 461.459L1025.92 461.564C1025.87 461.942 1025.6 462.207 1025.23 462.319C1025.16 462.658 1024.87 462.921 1024.49 463.016L1024.37 463.045C1023.99 463.14 1023.53 463.063 1023.15 462.837C1022.76 462.915 1022.3 462.833 1021.91 462.563L1021.8 462.49C1021.4 462.217 1021.2 461.843 1021.2 461.496C1020.87 461.227 1020.68 460.853 1020.72 460.469L1020.74 460.366C1020.79 459.986 1021.06 459.719 1021.43 459.607C1021.51 459.268 1021.79 459.005 1022.18 458.91L1022.29 458.881C1022.67 458.786 1023.14 458.863 1023.52 459.088C1023.9 459.012 1024.36 459.095 1024.75 459.363L1024.86 459.438L1024.98 459.528C1025.3 459.79 1025.46 460.121 1025.46 460.432ZM1024.93 461.217C1024.95 461.072 1024.82 460.925 1024.63 460.893C1024.37 460.847 1024.24 460.593 1024.39 460.445C1024.5 460.339 1024.47 460.167 1024.32 460.064L1024.21 459.989C1024.06 459.886 1023.85 459.892 1023.75 460.002C1023.6 460.158 1023.27 460.096 1023.17 459.892L1023.17 459.885C1023.09 459.745 1022.9 459.664 1022.73 459.705L1022.61 459.734C1022.45 459.776 1022.37 459.928 1022.45 460.072C1022.56 460.275 1022.37 460.467 1022.11 460.412C1021.92 460.373 1021.76 460.461 1021.74 460.608L1021.72 460.711C1021.71 460.856 1021.84 461.002 1022.03 461.035C1022.29 461.08 1022.42 461.335 1022.26 461.483C1022.17 461.576 1022.18 461.719 1022.29 461.822L1022.34 461.865L1022.44 461.938C1022.58 462.029 1022.76 462.036 1022.87 461.962L1022.91 461.924C1023.06 461.768 1023.39 461.831 1023.49 462.035C1023.57 462.179 1023.77 462.263 1023.94 462.221L1024.05 462.192C1024.22 462.15 1024.29 461.998 1024.21 461.855C1024.1 461.653 1024.29 461.462 1024.55 461.516C1024.71 461.55 1024.86 461.488 1024.91 461.374L1024.92 461.322L1024.93 461.217Z" fill="white"/>
<rect width="405.72" height="162.113" rx="81.0567" transform="matrix(0.469472 0.882948 -0.970296 0.241922 949.328 253.261)" stroke="white" stroke-width="0.839533"/>
<path d="M1053.35 534.401L1063.62 553.714C1073.3 571.921 1063.91 590.979 1042.64 596.281C1021.38 601.583 996.288 591.122 986.607 572.915L980.422 561.281C979.959 560.411 980.725 559.617 981.782 559.87L992.023 562.329" stroke="white" stroke-width="0.839533" stroke-linecap="round" stroke-linejoin="round"/>
<path d="M946.945 573.33L982.159 564.55M1068.73 542.966L1059.17 545.349M1094.38 536.569L1084.75 538.97M1054.34 618.286L1058.67 626.43M1042.64 596.281L1047.02 604.514M1092.27 588.935L1101.95 592.746M1065.85 578.528L1075.51 582.333M997.175 611.911L993.09 619.138M1008.08 592.613L1004.04 599.764M1056.88 589.455L1085.17 613.952M1025.32 597.326L1025.53 628.346M1067.41 564.196L1105.18 564.192M993.523 582.578L964.609 599.242M1068.8 542.969C1068.09 541.632 1068.78 540.233 1070.34 539.844L1080.66 537.272C1082.22 536.883 1084.06 537.651 1084.77 538.988C1085.48 540.324 1084.79 541.723 1083.23 542.113L1072.92 544.684C1071.36 545.073 1069.51 544.305 1068.8 542.969ZM1075.58 582.425C1076.13 581.183 1077.89 580.685 1079.52 581.313L1090.26 585.461C1091.88 586.089 1092.76 587.605 1092.21 588.848C1091.67 590.091 1089.91 590.589 1088.28 589.961L1077.54 585.812C1075.91 585.184 1075.04 583.668 1075.58 582.425ZM1004.22 599.826C1002.63 599.115 1000.82 599.509 1000.16 600.706L995.828 608.613C995.172 609.81 995.925 611.357 997.51 612.068C999.095 612.779 1000.91 612.385 1001.57 611.188L1005.9 603.281C1006.56 602.084 1005.8 600.538 1004.22 599.826ZM1047.02 604.52C1048.58 604.131 1050.42 604.899 1051.14 606.236L1055.83 615.066C1056.54 616.403 1055.85 617.802 1054.29 618.191C1052.73 618.58 1050.89 617.812 1050.18 616.476L1045.48 607.645C1044.77 606.309 1045.46 604.909 1047.02 604.52Z" stroke="white" stroke-width="0.839533" stroke-linecap="round"/>
<path d="M980.601 322.574L980.193 322.676L980.193 322.676L980.601 322.574ZM1090.76 609.076L1090.4 608.798L1090.4 608.798L1090.76 609.076ZM1080.61 617.183L1080.92 617.506L1080.92 617.506L1080.61 617.183ZM1065.21 624.511L1065.44 624.872L1065.44 624.872L1065.21 624.511ZM1051.86 627.84L1052.02 628.218L1052.02 628.218L1051.86 627.84ZM1033.15 629.005L1033.08 628.621L1033.08 628.621L1033.15 629.005ZM1017.76 627.261L1017.78 626.887V626.887L1017.76 627.261ZM999.039 621.879L998.916 622.223V622.223L999.039 621.879ZM985.917 615.695L985.72 616.005V616.005L985.917 615.695ZM970.393 604.944L970.682 604.698L970.682 604.698L970.393 604.944ZM959.836 594.303L959.481 594.482V594.482L959.836 594.303ZM1104.32 586.166L1103.87 586.016L1103.87 586.016L1104.32 586.166ZM1100.05 596.729L1099.63 596.518L1099.63 596.518L1100.05 596.729ZM1104.18 558.336L1104.62 558.316L1104.62 558.316L1104.18 558.336ZM1106.11 571.053L1106.56 571.114L1106.56 571.114L1106.11 571.053ZM953.007 581.005L953.137 581.388V581.388L953.007 581.005ZM961.635 584.918L961.247 585.051V585.051L961.635 584.918ZM960.271 592.138L960.586 592.458V592.458L960.271 592.138ZM973.181 605.162L973.475 605.495V605.495L973.181 605.162ZM982.538 605.874L982.294 606.155V606.155L982.538 605.874ZM985.143 613.458L985.564 613.661V613.661L985.143 613.458ZM1001.55 621.173L1001.95 621.407V621.407L1001.55 621.173ZM1009.93 618.933L1010 618.57V618.57L1009.93 618.933ZM1015.98 625.342L1016.43 625.393L1016.43 625.393L1015.98 625.342ZM1034.91 627.484L1034.46 627.397V627.397L1034.91 627.484ZM1040.92 622.41L1040.81 622.027V622.027L1040.92 622.41ZM1049.34 626.57L1049.74 626.45L1049.74 626.45L1049.34 626.57ZM1096.95 545.13L1096.7 544.78L1096.7 544.78L1096.95 545.13ZM1093.91 551.963L1093.49 552.032V552.032L1093.91 551.963ZM1101.81 556.87L1101.75 556.486L1101.75 556.486L1101.81 556.87ZM1104.18 572.453L1104.09 572.069L1104.09 572.069L1104.18 572.453ZM1097.78 577.163L1097.33 577.055V577.055L1097.78 577.163ZM1102.81 584.11L1102.94 583.769V583.769L1102.81 584.11ZM1097.46 597.291L1097.55 596.935L1097.55 596.935L1097.46 597.291ZM1088.95 599.243L1088.56 598.995V598.995L1088.95 599.243ZM1090.33 606.821L1090.63 606.584V606.584L1090.33 606.821ZM1077.83 616.794L1077.56 617.058V617.058L1077.83 616.794ZM1068.49 615.537L1068.22 615.194V615.194L1068.49 615.537ZM1065.95 622.428L1066.37 622.345V622.345L1065.95 622.428ZM1084.65 522.248L1085.05 522.477L1085.05 522.477L1084.65 522.248ZM1082.22 525.982L1082.63 526.212L1082.63 526.212L1082.22 525.982ZM1047.34 534.645L1047.44 534.292V534.292L1047.34 534.645ZM1042.11 532.85L1042.21 532.497V532.497L1042.11 532.85ZM1038.42 529.881L1038.83 529.779V529.779L1038.42 529.881ZM1024.14 503.081L1023.73 503.183V503.183L1024.14 503.081ZM1019.23 498.413L1019.41 498.095V498.095L1019.23 498.413ZM999.957 488.378L999.776 488.696V488.696L999.957 488.378ZM976.416 459.5C976.191 459.556 976.097 459.767 976.205 459.972C976.314 460.177 976.585 460.297 976.81 460.241L976.613 459.871L976.416 459.5ZM1084.7 518.308L1085.11 518.206L1085.11 518.206L1084.7 518.308ZM833.161 359.335L833.568 359.234C815.154 324.601 833.005 288.31 873.518 278.209L873.321 277.838L873.124 277.468C832.209 287.669 814.099 324.353 832.754 359.437L833.161 359.335ZM980.601 322.574L981.008 322.473C962.353 287.389 914.04 267.266 873.124 277.468L873.321 277.838L873.518 278.209C914.031 268.108 961.779 288.043 980.193 322.676L980.601 322.574ZM1090.76 609.076L1090.4 608.798C1087.43 611.758 1084.05 614.463 1080.3 616.861L1080.61 617.183L1080.92 617.506C1084.72 615.082 1088.13 612.348 1091.13 609.355L1090.76 609.076ZM1065.21 624.511L1064.98 624.15C1062.88 624.864 1060.71 625.502 1058.47 626.06L1058.67 626.431L1058.87 626.801C1061.13 626.237 1063.32 625.593 1065.44 624.872L1065.21 624.511ZM1058.67 626.431L1058.47 626.06C1056.24 626.618 1053.97 627.085 1051.7 627.462L1051.86 627.84L1052.02 628.218C1054.32 627.837 1056.61 627.365 1058.87 626.801L1058.67 626.431ZM1033.15 629.005L1033.08 628.621C1027.96 628.436 1022.83 627.848 1017.78 626.887L1017.76 627.261L1017.74 627.636C1022.85 628.608 1028.03 629.202 1033.21 629.389L1033.15 629.005ZM999.039 621.879L999.161 621.534C994.656 619.779 990.288 617.721 986.115 615.386L985.917 615.695L985.72 616.005C989.942 618.368 994.36 620.448 998.916 622.223L999.039 621.879ZM970.393 604.944L970.682 604.698C966.823 601.424 963.342 597.951 960.192 594.124L959.836 594.303L959.481 594.482C962.673 598.36 966.199 601.878 970.104 605.19L970.393 604.944ZM1104.32 586.166L1103.87 586.016C1102.87 589.66 1101.44 593.176 1099.63 596.518L1100.05 596.729L1100.47 596.939C1102.3 593.559 1103.74 590.003 1104.76 586.316L1104.32 586.166ZM1104.18 558.336L1103.74 558.356C1104.92 562.647 1105.53 566.813 1105.65 570.993L1106.11 571.053L1106.56 571.114C1106.43 566.883 1105.81 562.664 1104.62 558.316L1104.18 558.336ZM953.007 581.005L953.137 581.388C956.255 581.09 959.64 582.551 961.247 585.051L961.635 584.918L962.024 584.784C960.177 581.911 956.339 580.293 952.878 580.623L953.007 581.005ZM961.635 584.918L961.247 585.051C962.849 587.544 962.252 590.311 959.956 591.818L960.271 592.138L960.586 592.458C963.152 590.774 963.863 587.645 962.024 584.784L961.635 584.918ZM973.181 605.162L973.475 605.495C975.953 604.11 979.607 604.301 982.294 606.155L982.538 605.874L982.782 605.594C979.716 603.479 975.628 603.298 972.887 604.829L973.181 605.162ZM982.538 605.874L982.294 606.155C984.974 608.003 985.882 610.97 984.722 613.254L985.143 613.458L985.564 613.661C986.865 611.099 985.864 607.72 982.782 605.594L982.538 605.874ZM1001.55 621.173L1001.95 621.407C1003.37 619.302 1006.6 618.375 1009.86 619.296L1009.93 618.933L1010 618.57C1006.35 617.541 1002.74 618.57 1001.15 620.939L1001.55 621.173ZM1009.93 618.933L1009.86 619.296C1013.12 620.213 1015.37 622.733 1015.53 625.292L1015.98 625.342L1016.43 625.393C1016.25 622.471 1013.68 619.607 1010 618.57L1009.93 618.933ZM1034.91 627.484L1035.36 627.57C1035.5 625.03 1037.77 622.983 1041.03 622.794L1040.92 622.41L1040.81 622.027C1037.16 622.239 1034.61 624.519 1034.46 627.397L1034.91 627.484ZM1040.92 622.41L1041.03 622.794C1044.3 622.604 1047.51 624.279 1048.94 626.689L1049.34 626.57L1049.74 626.45C1048.09 623.684 1044.45 621.815 1040.81 622.027L1040.92 622.41ZM1096.95 545.13L1096.7 544.78C1093.71 546.055 1092.2 549.01 1093.49 552.032L1093.91 551.963L1094.33 551.894C1093.22 549.277 1094.51 546.635 1097.21 545.48L1096.95 545.13ZM1093.91 551.963L1093.49 552.032C1094.77 555.039 1098.32 557.102 1101.87 557.254L1101.81 556.87L1101.75 556.486C1098.56 556.35 1095.45 554.504 1094.33 551.894L1093.91 551.963ZM1104.18 572.453L1104.09 572.069C1100.57 572.117 1097.69 574.095 1097.33 577.055L1097.78 577.163L1098.23 577.27C1098.55 574.662 1101.1 572.881 1104.27 572.837L1104.18 572.453ZM1097.78 577.163L1097.33 577.055C1096.97 580.032 1099.29 583.058 1102.68 584.45L1102.81 584.11L1102.94 583.769C1099.94 582.534 1097.91 579.87 1098.23 577.27L1097.78 577.163ZM1097.46 597.291L1097.55 596.935C1094.11 595.818 1090.39 596.6 1088.56 598.995L1088.95 599.243L1089.34 599.491C1090.98 597.351 1094.31 596.655 1097.37 597.648L1097.46 597.291ZM1088.95 599.243L1088.56 598.995C1086.72 601.408 1087.42 604.739 1090.03 607.058L1090.33 606.821L1090.63 606.584C1088.35 604.554 1087.71 601.628 1089.34 599.491L1088.95 599.243ZM1077.83 616.794L1078.1 616.53C1075.28 614.388 1071.21 613.75 1068.22 615.194L1068.49 615.537L1068.76 615.88C1071.44 614.587 1075.08 615.167 1077.56 617.058L1077.83 616.794ZM1068.49 615.537L1068.22 615.194C1065.23 616.633 1064.19 619.669 1065.53 622.511L1065.95 622.428L1066.37 622.345C1065.2 619.868 1066.09 617.171 1068.76 615.88L1068.49 615.537ZM950.423 579.873L950.831 579.771L833.568 359.234L833.161 359.335L832.754 359.437L950.016 579.975L950.423 579.873ZM1096.95 545.13L1097.21 545.48C1098.18 545.067 1098.84 544.083 1098.28 543.025L1097.87 543.126L1097.46 543.228C1097.76 543.788 1097.45 544.457 1096.7 544.78L1096.95 545.13ZM1106.11 571.053L1105.65 570.993C1105.67 571.586 1105 572.056 1104.09 572.069L1104.18 572.453L1104.27 572.837C1105.43 572.821 1106.59 572.213 1106.56 571.114L1106.11 571.053ZM1104.18 558.336L1104.62 558.316C1104.31 557.191 1102.93 556.536 1101.75 556.486L1101.81 556.87L1101.87 557.254C1102.79 557.293 1103.58 557.781 1103.74 558.356L1104.18 558.336ZM1100.05 596.729L1099.63 596.518C1099.34 597.051 1098.44 597.221 1097.55 596.935L1097.46 597.291L1097.37 597.648C1098.53 598.022 1099.96 597.877 1100.47 596.939L1100.05 596.729ZM1104.32 586.166L1104.76 586.316C1105.05 585.272 1104.06 584.23 1102.94 583.769L1102.81 584.11L1102.68 584.45C1103.52 584.798 1104.03 585.469 1103.87 586.016L1104.32 586.166ZM959.836 594.303L960.192 594.124C959.773 593.615 959.919 592.895 960.586 592.458L960.271 592.138L959.956 591.818C959.109 592.374 958.66 593.485 959.481 594.482L959.836 594.303ZM970.393 604.944L970.104 605.19C971.111 606.044 972.574 605.998 973.475 605.495L973.181 605.162L972.887 604.829C972.181 605.224 971.226 605.159 970.682 604.698L970.393 604.944ZM985.917 615.695L986.115 615.386C985.484 615.033 985.242 614.296 985.564 613.661L985.143 613.458L984.722 613.254C984.293 614.1 984.518 615.332 985.72 616.005L985.917 615.695ZM999.039 621.879L998.916 622.223C1000.19 622.718 1001.42 622.2 1001.95 621.407L1001.55 621.173L1001.15 620.939C1000.74 621.547 999.883 621.815 999.161 621.534L999.039 621.879ZM1017.76 627.261L1017.78 626.887C1017.04 626.746 1016.47 626.099 1016.43 625.393L1015.98 625.342L1015.53 625.292C1015.59 626.272 1016.4 627.382 1017.74 627.636L1017.76 627.261ZM1051.86 627.84L1051.7 627.462C1050.97 627.583 1050.14 627.123 1049.74 626.45L1049.34 626.57L1048.94 626.689C1049.5 627.631 1050.77 628.426 1052.02 628.218L1051.86 627.84ZM1065.21 624.511L1065.44 624.872C1066.6 624.478 1066.82 623.313 1066.37 622.345L1065.95 622.428L1065.53 622.511C1065.86 623.203 1065.65 623.921 1064.98 624.15L1065.21 624.511ZM1080.61 617.183L1080.3 616.861C1079.73 617.221 1078.78 617.053 1078.1 616.53L1077.83 616.794L1077.56 617.058C1078.5 617.776 1079.96 618.119 1080.92 617.506L1080.61 617.183ZM1033.15 629.005L1033.21 629.389C1034.52 629.437 1035.31 628.533 1035.36 627.57L1034.91 627.484L1034.46 627.397C1034.42 628.101 1033.85 628.649 1033.08 628.621L1033.15 629.005ZM953.007 581.005L952.878 580.623C951.995 580.708 951.128 580.332 950.831 579.771L950.423 579.873L950.016 579.975C950.579 581.034 952.01 581.495 953.137 581.388L953.007 581.005ZM1090.76 609.076L1091.13 609.355C1091.91 608.571 1091.5 607.362 1090.63 606.584L1090.33 606.821L1090.03 607.058C1090.66 607.619 1090.83 608.363 1090.4 608.798L1090.76 609.076ZM1084.81 518.571L1084.41 518.672L1097.46 543.228L1097.87 543.126L1098.28 543.025L1085.22 518.469L1084.81 518.571ZM1084.65 522.248L1084.24 522.018L1081.82 525.753L1082.22 525.982L1082.63 526.212L1085.05 522.477L1084.65 522.248ZM1079.2 528L1079 527.63L1051.41 534.51L1051.61 534.88L1051.8 535.251L1079.4 528.371L1079.2 528ZM1047.34 534.645L1047.44 534.292L1042.21 532.497L1042.11 532.85L1042.01 533.203L1047.24 534.998L1047.34 534.645ZM1038.42 529.881L1038.83 529.779L1024.55 502.979L1024.14 503.081L1023.73 503.183L1038.01 529.983L1038.42 529.881ZM1019.23 498.413L1019.41 498.095L1000.14 488.06L999.957 488.378L999.776 488.696L1019.05 498.731L1019.23 498.413ZM995.045 483.704L995.452 483.602L983.579 461.272L983.172 461.373L982.764 461.475L994.638 483.805L995.045 483.704ZM978.462 459.409L978.265 459.039L976.416 459.5L976.613 459.871L976.81 460.241L978.659 459.78L978.462 459.409ZM1084.7 518.308L1085.11 518.206L981.008 322.473L980.601 322.574L980.193 322.676L1084.3 518.41L1084.7 518.308ZM983.172 461.373L983.579 461.272C982.645 459.516 980.254 458.543 978.265 459.039L978.462 459.409L978.659 459.78C980.245 459.385 982.071 460.17 982.764 461.475L983.172 461.373ZM999.957 488.378L1000.14 488.06C998.063 486.979 996.411 485.406 995.452 483.602L995.045 483.704L994.638 483.805C995.693 485.79 997.508 487.516 999.776 488.696L999.957 488.378ZM1024.14 503.081L1024.55 502.979C1023.49 500.997 1021.68 499.274 1019.41 498.095L1019.23 498.413L1019.05 498.731C1021.12 499.811 1022.77 501.382 1023.73 503.183L1024.14 503.081ZM1042.11 532.85L1042.21 532.497C1040.7 531.981 1039.47 530.985 1038.83 529.779L1038.42 529.881L1038.01 529.983C1038.78 531.423 1040.25 532.599 1042.01 533.203L1042.11 532.85ZM1051.61 534.88L1051.41 534.51C1050.16 534.821 1048.75 534.743 1047.44 534.292L1047.34 534.645L1047.24 534.998C1048.76 535.519 1050.37 535.607 1051.8 535.251L1051.61 534.88ZM1082.22 525.982L1081.82 525.753C1081.23 526.657 1080.24 527.323 1079 527.63L1079.2 528L1079.4 528.371C1080.81 528.02 1081.95 527.258 1082.63 526.212L1082.22 525.982ZM1084.65 522.248L1085.05 522.477C1085.86 521.231 1085.89 519.665 1085.11 518.206L1084.7 518.308L1084.3 518.41C1084.95 519.63 1084.93 520.953 1084.24 522.018L1084.65 522.248Z" fill="white"/>
<path d="M950.965 466.3L949.735 466.606C947.936 467.055 947.183 468.746 948.054 470.384L958.223 489.509L946.705 492.381C945.131 492.773 944.472 494.253 945.234 495.686L948.576 501.972C950.1 504.838 948.782 507.797 945.633 508.583L922.3 514.4C919.151 515.185 915.363 513.499 913.839 510.633L891.263 468.173" stroke="white" stroke-width="0.839533" stroke-linecap="round"/>
<ellipse cx="3.83444" cy="4.07543" rx="3.83444" ry="4.07543" transform="matrix(0.469472 0.882948 -0.970296 0.241922 1007.47 570.018)" stroke="white" stroke-width="0.419766"/>
<ellipse cx="6.37107" cy="6.77148" rx="6.37107" ry="6.77148" transform="matrix(0.469472 0.882948 -0.970296 0.241922 1026.46 553.673)" stroke="white" stroke-width="0.419766"/>
<mask id="path-33-outside-1_2757_47463" maskUnits="userSpaceOnUse" x="956.071" y="487.754" width="61.8643" height="58.3582" fill="black">
<rect fill="white" x="956.071" y="487.754" width="61.8643" height="58.3582"/>
<path d="M1013.09 536.459C1014.53 536.318 1015.59 535.296 1015.33 534.293C1015.08 533.274 1013.85 532.421 1010.95 531.329C1002.71 528.221 994.37 524.402 986.793 520.716C979.413 517.128 974.661 514.046 969.914 509.73C967.876 507.876 964.135 503.465 962.903 501.469C962.3 500.481 961.671 499.329 961.072 498.125C961.051 498.13 958.731 498.684 958.731 498.684C960.556 502.173 961.883 504.083 964.766 507.378C967.673 510.697 969.502 512.338 974.003 515.662C979.117 519.448 981.657 520.991 993.989 527.879C1004.44 532.882 1006.36 534.139 1009.15 535.179C1011.31 535.996 1012.04 536.559 1013.09 536.459Z"/>
</mask>
<path d="M1013.09 536.459C1014.53 536.318 1015.59 535.296 1015.33 534.293C1015.08 533.274 1013.85 532.421 1010.95 531.329C1002.71 528.221 994.37 524.402 986.793 520.716C979.413 517.128 974.661 514.046 969.914 509.73C967.876 507.876 964.135 503.465 962.903 501.469C962.3 500.481 961.671 499.329 961.072 498.125C961.051 498.13 958.731 498.684 958.731 498.684C960.556 502.173 961.883 504.083 964.766 507.378C967.673 510.697 969.502 512.338 974.003 515.662C979.117 519.448 981.657 520.991 993.989 527.879C1004.44 532.882 1006.36 534.139 1009.15 535.179C1011.31 535.996 1012.04 536.559 1013.09 536.459Z" fill="url(#paint10_linear_2757_47463)"/>
<path d="M1013.09 536.459L1013.23 536.837L1013.22 536.837L1013.09 536.459ZM1015.33 534.293L1014.88 534.301L1014.88 534.299L1015.33 534.293ZM1010.95 531.329L1010.83 531.671V531.671L1010.95 531.329ZM986.793 520.716L986.963 520.396L986.964 520.396L986.793 520.716ZM969.914 509.73L969.604 509.956L969.604 509.956L969.914 509.73ZM962.903 501.469L962.503 501.587L962.502 501.585L962.903 501.469ZM961.072 498.125L960.87 497.758L961.298 497.655L961.49 498.041L961.072 498.125ZM958.731 498.684L958.316 498.775L958.127 498.413L958.53 498.316L958.731 498.684ZM964.766 507.378L964.414 507.56L964.414 507.56L964.766 507.378ZM974.003 515.662L974.267 515.4L974.268 515.4L974.003 515.662ZM993.989 527.879L993.822 528.2L993.805 528.191L993.788 528.182L993.989 527.879ZM1009.15 535.179L1009.26 534.837L1009.27 534.838L1009.15 535.179ZM1013.09 536.459L1012.95 536.081C1013.57 536.02 1014.11 535.768 1014.47 535.421C1014.84 535.071 1014.97 534.661 1014.88 534.301L1015.33 534.293L1015.78 534.286C1015.94 534.928 1015.68 535.531 1015.21 535.978C1014.75 536.428 1014.04 536.757 1013.23 536.837L1013.09 536.459ZM1015.33 534.293L1014.88 534.299C1014.79 533.916 1014.51 533.54 1013.89 533.114C1013.25 532.678 1012.27 532.212 1010.83 531.671L1010.95 531.329L1011.07 530.987C1012.53 531.538 1013.62 532.045 1014.38 532.563C1015.15 533.092 1015.62 533.651 1015.78 534.288L1015.33 534.293ZM1010.95 531.329L1010.83 531.671C1002.56 528.553 994.207 524.725 986.623 521.035L986.793 520.716L986.964 520.396C994.532 524.079 1002.85 527.889 1011.07 530.987L1010.95 531.329ZM986.793 520.716L986.623 521.035C979.204 517.429 974.401 514.316 969.604 509.956L969.914 509.73L970.224 509.505C974.921 513.775 979.622 516.828 986.963 520.396L986.793 520.716ZM969.914 509.73L969.604 509.956C968.559 509.005 967.097 507.418 965.749 505.829C964.402 504.241 963.139 502.617 962.503 501.587L962.903 501.469L963.302 501.351C963.899 502.318 965.123 503.896 966.464 505.477C967.803 507.055 969.231 508.601 970.224 509.505L969.914 509.73ZM962.903 501.469L962.502 501.585C961.891 500.584 961.256 499.421 960.653 498.209L961.072 498.125L961.49 498.041C962.086 499.236 962.708 500.377 963.304 501.353L962.903 501.469ZM961.072 498.125L961.273 498.493C961.262 498.495 960.677 498.635 960.095 498.774C959.803 498.844 959.513 498.913 959.295 498.965C959.186 498.991 959.095 499.013 959.032 499.028C959 499.035 958.975 499.041 958.958 499.045C958.95 499.047 958.943 499.049 958.939 499.05C958.937 499.05 958.935 499.051 958.934 499.051C958.933 499.051 958.933 499.051 958.933 499.051C958.933 499.051 958.932 499.051 958.932 499.051C958.932 499.051 958.932 499.051 958.932 499.051C958.932 499.051 958.932 499.051 958.731 498.684C958.53 498.316 958.53 498.316 958.53 498.316C958.53 498.316 958.53 498.316 958.53 498.316C958.531 498.316 958.531 498.316 958.531 498.316C958.531 498.316 958.531 498.316 958.532 498.316C958.533 498.316 958.535 498.315 958.537 498.315C958.541 498.314 958.548 498.312 958.556 498.31C958.573 498.306 958.598 498.3 958.63 498.293C958.694 498.277 958.784 498.256 958.893 498.23C959.111 498.178 959.401 498.108 959.693 498.039C959.984 497.969 960.276 497.9 960.496 497.847C960.606 497.821 960.699 497.799 960.764 497.783C960.797 497.775 960.823 497.769 960.841 497.765C960.85 497.763 960.857 497.761 960.862 497.76C960.864 497.759 960.866 497.759 960.868 497.758C960.869 497.758 960.87 497.758 960.87 497.758L961.072 498.125ZM958.731 498.684L959.146 498.593C960.953 502.049 962.259 503.929 965.118 507.196L964.766 507.378L964.414 507.56C961.507 504.238 960.158 502.298 958.316 498.775L958.731 498.684ZM964.766 507.378L965.118 507.196C967.995 510.48 969.793 512.095 974.267 515.4L974.003 515.662L973.738 515.924C969.211 512.581 967.351 510.913 964.414 507.56L964.766 507.378ZM974.003 515.662L974.268 515.4C979.349 519.161 981.86 520.688 994.19 527.575L993.989 527.879L993.788 528.182C981.454 521.293 978.884 519.734 973.737 515.924L974.003 515.662ZM993.989 527.879L994.156 527.558C999.387 530.062 1002.49 531.63 1004.62 532.699C1006.76 533.77 1007.91 534.33 1009.26 534.837L1009.15 535.179L1009.03 535.522C1007.61 534.989 1006.4 534.4 1004.27 533.332C1002.13 532.262 999.042 530.699 993.822 528.2L993.989 527.879ZM1009.15 535.179L1009.27 534.838C1009.82 535.046 1010.28 535.238 1010.67 535.406C1011.07 535.576 1011.38 535.713 1011.66 535.824C1012.2 536.039 1012.55 536.119 1012.95 536.081L1013.09 536.459L1013.22 536.837C1012.58 536.899 1012.03 536.747 1011.41 536.501C1011.1 536.382 1010.76 536.232 1010.38 536.07C1010 535.905 1009.56 535.721 1009.03 535.521L1009.15 535.179Z" fill="black" fill-opacity="0.13" mask="url(#path-33-outside-1_2757_47463)"/>
<ellipse cx="2.6707" cy="2.83855" rx="2.6707" ry="2.83855" transform="matrix(0.469472 0.882948 -0.970296 0.241922 1007.78 552.987)" stroke="white" stroke-width="0.419766"/>
<path d="M992.119 562.036L995.371 568.153C995.68 568.734 996.665 568.875 997.115 568.451C998.117 567.508 999.454 566.777 1001.06 566.377C1006.23 565.088 1012.32 567.631 1014.68 572.056C1016.81 576.071 1015.13 580.256 1010.94 581.96C1010.89 581.979 1010.85 581.998 1010.8 582.016C1010.17 582.259 1010.12 583.029 1010.79 583.37C1018.92 587.522 1028.71 589.024 1037.6 586.807C1053.36 582.879 1060.32 568.757 1053.15 555.266L1040.98 532.379" stroke="white" stroke-width="0.419766"/>
<path d="M1026.76 470.449C1029 469.892 1031.63 470.991 1032.65 472.904L1035.3 477.884C1036.31 479.796 1035.33 481.799 1033.09 482.356L1016.57 486.475L1010.24 474.568L1026.76 470.449Z" stroke="white" stroke-width="0.839533"/>
<path d="M961.179 347.107C963.413 346.55 966.049 347.649 967.066 349.562L969.713 354.541C970.73 356.454 969.744 358.456 967.51 359.013L950.987 363.133L944.657 351.226L961.179 347.107Z" stroke="white" stroke-width="0.839533"/>
<path d="M950.086 361.438L957.222 359.659C958.455 359.351 959 358.246 958.439 357.19L955.963 352.534C955.401 351.478 953.947 350.871 952.713 351.179L945.577 352.958" stroke="white" stroke-width="0.419766"/>
<path d="M1015.66 484.762L1022.79 482.983C1024.03 482.675 1024.57 481.57 1024.01 480.514L1021.54 475.858C1020.97 474.802 1019.52 474.196 1018.29 474.503L1011.15 476.282" stroke="white" stroke-width="0.419766"/>
<path d="M893.023 375.665L885.887 377.444C884.654 377.752 883.199 377.145 882.638 376.089L880.162 371.433C879.601 370.377 880.145 369.272 881.378 368.964L888.514 367.185" stroke="white" stroke-width="0.419766"/>
<path d="M930.922 446.941L923.786 448.72C922.553 449.028 921.098 448.421 920.536 447.365L918.06 442.709C917.499 441.653 918.044 440.548 919.277 440.241L926.413 438.461" stroke="white" stroke-width="0.419766"/>
<path d="M871.072 369.573C868.837 370.13 867.851 372.132 868.868 374.045L871.516 379.025C872.533 380.938 875.168 382.037 877.402 381.48L893.925 377.36L887.594 365.454L871.072 369.573Z" stroke="white" stroke-width="0.839533"/>
<path d="M908.979 440.868C906.745 441.425 905.758 443.427 906.776 445.339L909.423 450.319C910.44 452.232 913.076 453.331 915.31 452.774L931.832 448.655L925.501 436.748L908.979 440.868Z" stroke="white" stroke-width="0.839533"/>
<path d="M1064.13 529.07C1062.71 529.424 1061.29 528.502 1060.39 526.794C1059.47 525.08 1059.69 523.744 1061.11 523.389C1062.53 523.035 1063.95 523.963 1064.86 525.678C1065.77 527.385 1065.55 528.715 1064.13 529.07ZM1061.54 526.507C1062.18 527.708 1062.91 528.263 1063.61 528.09C1064.3 527.916 1064.34 527.17 1063.7 525.968C1063.06 524.758 1062.32 524.196 1061.63 524.369C1060.93 524.543 1060.9 525.297 1061.54 526.507Z" fill="white"/>
<path d="M994.536 483.101L982.982 485.982C982.721 486.047 982.536 486.223 982.485 486.454L981.878 489.229C981.811 489.539 981.997 489.889 982.34 490.097L985.411 491.955C985.666 492.11 985.973 492.163 986.234 492.098L1000.3 488.592" stroke="white" stroke-width="0.839533" stroke-linecap="round"/>
<path d="M961.852 491.25L979.027 486.968C979.352 486.887 979.722 487.169 979.672 487.461L979.252 489.909C979.202 490.204 979.374 490.529 979.69 490.733L982.311 492.423C982.623 492.624 982.604 493.003 982.279 493.084L965.104 497.366C964.843 497.432 964.536 497.379 964.28 497.224L961.21 495.366C960.866 495.158 960.68 494.808 960.748 494.498L961.355 491.722C961.406 491.491 961.591 491.316 961.852 491.25Z" stroke="white" stroke-width="0.839533" stroke-linecap="round"/>
<rect width="2.77571" height="4.69835" rx="1.38785" transform="matrix(0.469472 0.882948 -0.970296 0.241922 988.575 486.712)" stroke="white" stroke-width="0.839533" stroke-linecap="round"/>
<rect width="2.77571" height="4.69835" rx="1.38785" transform="matrix(0.469472 0.882948 -0.970296 0.241922 967.444 491.981)" stroke="white" stroke-width="0.839533" stroke-linecap="round"/>
<path d="M959.606 489.055L993.202 480.679" stroke="white" stroke-width="0.839533" stroke-linecap="round"/>
<path d="M945.18 495.408L957.927 492.229C958.245 492.15 958.598 492.402 958.551 492.675L958.113 495.229C958.068 495.495 958.22 495.782 958.506 495.966L961.239 497.729C961.531 497.918 961.497 498.266 961.179 498.345L952.47 500.517C952.02 500.629 951.831 501.052 952.049 501.461L963.134 522.308C965.028 525.871 968.159 529.027 972.101 531.346L973.808 532.35C975.858 533.556 977.486 535.197 978.471 537.049L981.344 542.451C981.911 543.518 980.917 544.521 979.554 544.256L973.345 543.052C972.013 542.793 970.851 541.992 970.296 540.949C968.727 537.997 966.363 535.292 963.399 533.053L934.867 511.507" stroke="white" stroke-width="0.839533" stroke-linecap="round"/>
<path d="M969.106 529.466L972.941 536.679C973.815 538.322 975.633 539.57 977.639 539.903" stroke="white" stroke-width="0.419766" stroke-linecap="round"/>
<path d="M931.823 512.394C931.554 512 930.995 511.81 930.573 511.969C930.152 512.129 930.028 512.577 930.297 512.97L931.06 512.682L931.823 512.394ZM992.21 558.096L992.462 557.41V557.41L992.21 558.096ZM1014.24 534.052C1013.77 533.835 1013.25 533.954 1013.08 534.319C1012.91 534.684 1013.15 535.155 1013.62 535.373L1013.93 534.712L1014.24 534.052ZM931.06 512.682L930.297 512.97C939.852 526.965 948.709 535.837 958.503 542.514C968.277 549.177 978.929 553.613 991.958 558.783L992.21 558.096L992.462 557.41C979.418 552.233 968.999 547.882 959.469 541.385C949.958 534.902 941.277 526.24 931.823 512.394L931.06 512.682ZM927.176 513.349L926.391 513.603C947.408 547.496 961.614 553.378 974.273 566.796L974.939 566.387L975.604 565.977C962.519 552.108 948.865 546.805 927.962 513.095L927.176 513.349ZM924.896 513.918L924.104 514.162C944.579 548.186 954.495 554.921 966.289 568.74L966.989 568.369L967.688 567.998C955.762 554.024 946.056 547.521 925.687 513.674L924.896 513.918ZM921.996 514.641L921.193 514.864C940.59 549.107 947.668 556.482 957.525 570.829L958.287 570.539L959.048 570.248C949.134 555.818 942.146 548.569 922.8 514.417L921.996 514.641ZM992.21 558.096L991.958 558.783C1003.58 563.395 1013.43 565.462 1021.03 565.633C1028.6 565.803 1034.06 564.086 1036.68 560.994C1039.34 557.848 1038.92 553.456 1035.24 548.714C1031.59 544.005 1024.7 538.899 1014.24 534.052L1013.93 534.712L1013.62 535.373C1023.9 540.138 1030.42 545.048 1033.79 549.385C1037.13 553.688 1037.33 557.371 1035.14 559.955C1032.91 562.592 1028.04 564.26 1020.74 564.096C1013.47 563.933 1003.89 561.946 992.462 557.41L992.21 558.096Z" fill="url(#paint11_radial_2757_47463)"/>
<path d="M943.335 437.627C940.536 432.363 943.251 426.853 949.4 425.32C955.548 423.787 962.801 426.811 965.6 432.075M951.064 452.162C948.265 446.898 950.98 441.388 957.128 439.855M957.128 439.855C963.276 438.322 970.53 441.346 973.329 446.61M957.128 439.855L962.196 449.386" stroke="white" stroke-width="3.7779"/>
<path d="M918.53 417.137C919.032 417.235 919.286 417.716 918.994 418.011L911.422 425.651C911.11 425.964 910.476 425.815 910.277 425.441L904.877 415.286C904.678 414.912 905.024 414.518 905.557 414.621L918.53 417.137Z" stroke="white" stroke-width="0.419766" stroke-linecap="round"/>
<path opacity="0.6" d="M1063.1 630.563C1014.07 646.364 962.436 624.122 941.583 584.904L825.716 367.915C804.864 328.697 825.071 286.504 864.042 274.775" stroke="white" stroke-width="0.536124"/>
</g>
<path d="M1204.25 377.391L1185.63 365.461M1199.45 370.428L1190.74 364.848M1209.05 383.759L1181.38 366.029M1206.2 385.655L1177.29 366.817M1202.35 386.317L1172.82 367.396M1197.87 387.069L1168.01 367.937M1193.69 387.634L1163.86 368.527M1189.25 388.211L1159.36 369.062M1185.06 388.948L1155.29 369.874M1180.63 389.525L1150.76 370.393M1176.19 390.103L1146.58 371.13M1172 390.84L1142.14 371.707M1167.82 391.576L1137.71 372.284M1163.37 392.154L1133.27 372.862M1158.95 392.731L1129.09 373.598M1154.74 393.469L1124.65 374.176M1150.32 394.046L1120.21 374.753M1146.14 394.782L1116.03 375.49M1141.46 395.2L1111.59 376.068M1137.27 395.937L1107.4 376.805M1133.08 396.674L1102.99 377.394M1128.65 397.261L1098.78 378.119M1124.16 397.794L1094.35 378.696M1120.03 398.565L1090.16 379.433M1115.59 399.143L1084.73 379.373M1111.4 399.88L1079.05 379.153M1106.96 400.458L1073.39 378.945M1102.03 400.716L1067.94 378.873M1096.36 400.496L1062.26 378.653M1090.67 400.276L1056.58 378.433M1085.12 400.139L1051.07 378.323M1079.59 399.995L1045.47 378.153M1073.89 399.776L1039.79 377.933M1068.19 399.557L1034.12 377.717M1062.76 399.497L1028.68 377.653M1057.11 399.276L1023 377.433M1051.43 399.056L1017.32 377.214M1045.74 398.837L1011.8 377.095M1040.3 398.777L1006.21 376.933M1034.69 398.6L1000.64 376.783M1028.94 398.337L995.097 376.653M1023.26 398.118L989.42 376.434M1006.26 397.629L972.311 375.878M1017.83 398.057L983.742 376.214M1000.82 397.569L971.458 378.755M1012.15 397.837L978.311 376.153M995.152 397.348L976.432 385.355M989.481 397.128L981.405 391.954" stroke="white" stroke-width="1.20555" stroke-linecap="round" stroke-linejoin="round" stroke-dasharray="0.4 3.62"/>
<path d="M740.86 196.069C770.458 124.296 791.923 42.3984 801.523 -4.02939C803.196 -12.121 810.299 -17.9861 818.562 -17.9075L1034.18 -15.8564C1039.66 -15.8043 1043.49 -10.4527 1041.7 -5.27969C1019.83 58.0939 977.885 170.526 956.276 232.619C951.88 245.25 942.385 263.155 934.144 277.764C893.611 265.628 880.428 270.916 874.354 271.845C868.28 272.774 862.194 275.048 858.684 276.493C855.174 277.938 846.09 282.274 838.947 288.344C831.804 294.413 826.973 302.217 824.371 306.883C821.77 311.549 820.077 317.289 818.838 322.285C817.6 327.281 816.856 334.507 817.93 344.045C819.004 353.583 822.885 361.676 823.793 363.906C824.52 365.69 840.992 396.792 843.369 401.062C834.776 411.304 830.023 416.636 826.258 420.437C817.869 428.907 805.782 432.594 793.879 431.947L591.299 420.932C582.676 420.463 578.7 409.855 584.807 403.748C632.735 355.829 711.65 266.904 740.86 196.069Z" fill="#D9D9D9" fill-opacity="0.07"/>
<path d="M740.86 196.066C770.358 124.535 791.779 42.9467 801.426 -3.56233C802.104 -6.83073 803.638 -9.74698 805.765 -12.0825C806.209 1.00063 817.272 29.5512 823.793 50.1354C846.906 123.09 882.244 243.161 896.103 270.219C888.776 269.8 880.429 270.913 874.354 271.842C868.28 272.771 862.194 275.045 858.684 276.49C855.174 277.935 846.091 282.271 838.947 288.341C831.804 294.411 826.973 302.215 824.371 306.88C821.77 311.546 820.077 317.286 818.839 322.282C817.6 327.278 816.857 334.504 817.93 344.042C819.004 353.58 822.885 361.673 823.793 363.903C824.52 365.687 840.992 396.789 843.369 401.059C835.112 410.901 830.4 416.209 826.704 419.981C818.077 428.786 805.554 432.579 793.245 431.91L592.078 420.971C583.161 420.486 579.052 409.51 585.362 403.191C633.341 355.142 711.762 266.629 740.86 196.066Z" fill="url(#paint12_linear_2757_47463)" fill-opacity="0.4"/>
<path d="M843.269 401.418C838.417 407.44 832.506 413.784 826.031 420.18C817.55 428.558 805.782 432.593 793.879 431.946L591.299 420.931C582.676 420.462 578.7 409.854 584.807 403.748C632.735 355.828 711.65 266.903 740.86 196.068C770.458 124.295 791.923 42.3975 801.523 -4.03037C803.196 -12.122 810.299 -17.9871 818.562 -17.9085L1034.18 -15.8573C1039.66 -15.8053 1043.49 -10.4536 1041.7 -5.28067C1019.83 58.0929 977.885 170.525 956.276 232.618C951.88 245.249 943.392 263.121 935.151 277.73" stroke="url(#paint13_linear_2757_47463)" stroke-width="0.89354"/>
<path opacity="0.6" d="M802.435 -5.49512C803.144 -0.125406 803.55 2.30621 802.825 7.65498C792.575 55.0457 771.813 132.37 743.726 200.48C714.628 271.043 638.599 355.144 590.62 403.193C582.671 411.154 586.019 420.418 594.935 420.903" stroke="url(#paint14_linear_2757_47463)" stroke-width="0.44677"/>
<path d="M1098.37 206.691C1071.64 133.934 1053.22 45.6692 1045.38 -2.29427C1044.01 -10.6357 1036.86 -16.8295 1028.41 -16.8297L813.2 -16.8357C807.827 -16.8359 803.957 -11.7039 805.509 -6.55999C824.864 57.5573 862.49 171.82 881.695 234.815C899.596 293.53 965.341 383.068 1003.84 426.096C1012.33 435.587 1024.84 440.114 1037.55 439.25L1232.02 426.033C1240.4 425.464 1244.32 415.328 1238.58 409.205C1194.1 361.729 1124.94 278.996 1098.37 206.691Z" fill="#D9D9D9" fill-opacity="0.07"/>
<path d="M1198.85 391.73C1202.67 391.193 1207.86 393.084 1210.45 395.953L1222.95 409.839C1225.53 412.708 1224.53 415.47 1220.71 416.007C1216.88 416.545 1211.69 414.654 1209.1 411.785L1196.6 397.899C1194.02 395.029 1195.02 392.268 1198.85 391.73Z" stroke="white" stroke-width="0.89354"/>
<path d="M1013.66 402.897C1017.49 402.36 1022.68 404.25 1025.26 407.12L1037.77 421.006C1040.35 423.875 1039.35 426.637 1035.52 427.174C1031.7 427.712 1026.51 425.821 1023.92 422.952L1011.42 409.066C1008.83 406.196 1009.84 403.435 1013.66 402.897Z" stroke="white" stroke-width="0.89354"/>
<path d="M1055.09 405.536C1058.91 404.998 1064.1 406.889 1066.69 409.758L1076.81 421.005C1079.4 423.875 1078.39 426.636 1074.57 427.174C1070.75 427.711 1065.55 425.821 1062.97 422.951L1052.84 411.704C1050.26 408.835 1051.26 406.073 1055.09 405.536Z" stroke="white" stroke-width="0.89354"/>
<path d="M1094.61 409.022C1098.43 408.485 1103.63 410.375 1106.21 413.245L1111.18 418.771C1113.77 421.64 1112.76 424.402 1108.94 424.939C1105.12 425.477 1099.92 423.586 1097.34 420.717L1092.36 415.191C1089.78 412.321 1090.78 409.56 1094.61 409.022Z" stroke="white" stroke-width="0.89354"/>
<path d="M1129.96 407.438C1133.78 406.9 1138.98 408.791 1141.56 411.66L1146.54 417.186C1149.12 420.056 1148.12 422.817 1144.29 423.355C1140.47 423.892 1135.27 422.002 1132.69 419.132L1127.72 413.606C1125.13 410.737 1126.14 407.975 1129.96 407.438Z" stroke="white" stroke-width="0.89354"/>
<path d="M1162.86 400.574C1166.68 400.037 1171.88 401.927 1174.46 404.797L1182.15 413.339C1184.73 416.208 1183.73 418.97 1179.91 419.507C1176.08 420.045 1170.89 418.154 1168.3 415.285L1160.61 406.742C1158.03 403.873 1159.03 401.111 1162.86 400.574Z" stroke="white" stroke-width="0.89354"/>
<path d="M919.597 312.054C914.834 304.982 901.955 281.251 896.11 270.27C879.135 269.296 862.731 275.479 857.834 277.227C853.917 278.627 847.652 282.863 845.009 284.806C852.702 302.12 871.818 342.093 886.74 363.475C905.391 390.201 963.89 455.017 974.064 471.126C984.238 487.234 1016.45 491.897 1032.14 486.81C1044.69 482.741 1058.16 472.522 1063.33 467.922L1047.8 438.568C1042.29 438.917 1030.71 439.544 1028.4 439.255C1025.51 438.894 1018.83 437.27 1009.99 431.677C1001.15 426.084 984.191 402.808 981.123 399.2C978.056 395.591 965.787 379.172 954.059 363.475C942.331 347.777 925.551 320.893 919.597 312.054Z" fill="url(#paint15_radial_2757_47463)" fill-opacity="0.5"/>
<path d="M1098.37 206.691C1071.64 133.934 1053.22 45.6692 1045.38 -2.29427C1044.01 -10.6357 1036.86 -16.8295 1028.41 -16.8297L813.2 -16.8357C807.827 -16.8359 803.957 -11.7039 805.509 -6.55999C824.864 57.5573 862.49 171.82 881.695 234.815C899.596 293.53 965.341 383.068 1003.84 426.096C1012.33 435.587 1024.84 440.114 1037.55 439.25L1232.02 426.033C1240.4 425.464 1244.32 415.328 1238.58 409.205C1194.1 361.729 1124.94 278.996 1098.37 206.691Z" stroke="white" stroke-width="0.89354"/>
<path opacity="0.5" d="M1239.93 411.267C1244.34 420.541 1237.19 428.272 1228.53 428.86L1035.46 441.981C1022.32 442.874 1009.37 438.182 1000.61 428.354C962.044 385.129 896.753 296.072 878.924 237.592C859.754 174.713 822.231 60.7557 802.845 -3.42758C801.238 -8.7464 806.809 -14.0212 810.556 -16.0923" stroke="white" stroke-width="0.44677"/>
<path d="M1078.56 208.469C1057.92 152.283 1043.53 84.4327 1037.05 45.8049C1035.65 37.4692 1028.49 31.2524 1020.04 31.2522L854.696 31.2476C849.322 31.2474 845.46 36.4015 847.019 41.5436C862.543 92.7476 891.758 181.518 906.772 230.767C920.912 277.147 950.117 325 975.238 353.763C981.518 360.954 990.404 365.242 999.888 366.339C1058.7 373.142 1092.56 367.555 1152.3 357.142C1160.1 355.782 1163.25 346.17 1157.96 340.274C1128.59 307.547 1099.14 264.463 1078.56 208.469Z" stroke="white" stroke-width="0.89354"/>
<path d="M1058.81 188.053C1029.31 136.084 1032.36 87.7246 1031.49 54.5454C1031.23 44.8757 1022.3 38.3814 1012.77 40.0004C967.598 47.6684 933.82 49.342 875.198 43.2285C869.465 42.6307 864.978 48.0012 867.172 53.3311C885.268 97.2872 931.676 149.59 937.851 218.292C941.938 263.761 960.01 310.086 981.492 337.801C987.341 345.347 996.336 349.564 1005.81 350.759C1058.65 357.422 1078.56 354.98 1131.67 345.846C1139.52 344.495 1142.57 334.78 1137.09 329C1068.54 256.747 1092.1 246.718 1058.81 188.053Z" stroke="white" stroke-width="0.89354"/>
<path d="M872.025 21.8399C881.133 12.0498 888.153 -7.85522 890.525 -16.584H959.419C960.178 -12.5871 961.782 -2.72172 962.123 4.76456C962.548 14.1224 960.846 36.6663 950.638 60.0609C940.429 83.4556 953.19 114.507 954.041 139.177C954.891 163.848 926.818 192.772 916.424 217.018C906.031 241.263 895.997 269.431 894.675 266.99C893.354 264.55 888.473 253.162 886.033 247.162C884.08 242.363 886.127 226.436 887.394 219.073C887.869 213.475 889.159 199.833 890.525 190.043C892.232 177.805 900.202 175.812 916.424 156.459C932.647 137.106 939.762 108.076 939.478 92.7067C939.193 77.3379 914.717 62.5382 909.309 64.5305C903.902 66.5228 894.51 84.1685 893.94 101.53C893.371 118.891 885.687 123.16 881.133 149.059C877.49 169.779 869.938 182.738 866.618 186.627L850.68 135.683C848.782 121.262 844.988 90.7714 844.988 84.1685C844.988 75.9148 842.426 54.2846 844.988 50.0155C847.549 45.7464 860.641 34.0774 872.025 21.8399Z" fill="#D9D9D9" fill-opacity="0.07"/>
<path d="M1050.84 28.0475C1052.14 27.0823 1052.98 26.4797 1050.85 28.1002L1055.23 50.0155C1052.74 50.0155 1047.51 51.5494 1046.5 57.6853C1045.25 65.355 1033.1 75.691 1028.5 84.1685C1023.89 92.6459 1028.08 120.915 1033.1 139.177C1038.13 157.44 1046.08 183.726 1038.38 172.001C1030.67 160.276 1015.16 154.613 1013.75 168.517C1012.33 182.422 997.016 197.741 989.946 217.018C982.876 236.294 966.378 281.876 960.251 296.488C955.349 308.178 942.34 329.168 936.448 338.202L914.059 302.851C924.404 282.533 937.014 227.438 950.638 199.153C964.261 170.869 1002.85 141.324 1009.44 118.698C1012.37 109.243 1016.27 77.4381 1017.65 73.6864C1019.36 68.9968 1018.82 52.2962 1038.38 37.5411C1045.41 32.2329 1049.12 29.4243 1050.85 28.1002L1050.84 28.0475Z" fill="#D9D9D9" fill-opacity="0.07"/>
<path d="M1096.14 201.524C1094.52 198.092 1087.73 175.361 1084.53 164.424C1074.7 167.036 1078.23 191.516 1074.49 197.614C1070.75 203.713 1072.52 217.018 1075.86 226.531C1078.54 234.143 1078.55 248.456 1078.23 254.662C1074.16 262.202 1063.87 278.661 1055.23 284.169C1044.42 291.054 1022.36 286.136 1001.9 302.851C981.442 319.567 1001.7 345.937 1008.79 326.266C1015.87 306.594 1054.23 306.988 1056.59 307.185C1058.95 307.381 1057.77 323.512 1049.11 330.79C1040.46 338.069 1016.65 350.462 1016.65 352.035C1016.65 353.609 1015.87 359.904 1016.65 365.019C1017.44 370.133 1011.34 380.166 1008.79 384.1C1006.23 388.034 998.556 420.099 1004.26 426.984C1009.97 433.869 1021.97 437.606 1029.24 439.18C1035.07 440.439 1053.7 438.655 1062.29 437.606C1059.94 423.851 1055.23 391.594 1055.23 372.604C1055.23 348.868 1073.98 351.434 1092.61 328.98C1111.23 306.527 1097.91 280.52 1092.61 271.939C1087.31 263.358 1096.14 257.301 1097.91 252.758C1099.67 248.215 1087.56 232.82 1084.53 224.743C1081.5 216.667 1098.16 205.815 1096.14 201.524Z" fill="#D9D9D9" fill-opacity="0.07"/>
<path d="M1183.5 346.09L1162.83 319.146C1165.11 324.313 1169.36 335.571 1168.18 339.262C1166.71 343.876 1157.85 338.202 1155.45 337.232C1153.05 336.261 1150.83 341.661 1149.73 347.013C1148.62 352.365 1133.12 352.035 1123.52 354.395C1113.92 356.755 1114.66 363.623 1132.01 360.486C1145.89 357.976 1145.42 360.301 1143.45 361.778C1139.95 367.806 1132.97 380.711 1133.12 384.1C1133.3 388.336 1132.93 401.457 1132.01 408.47C1131.27 414.08 1120.14 427.91 1114.66 434.123L1150.83 431.724L1152.31 409.577C1153.17 403.979 1155.3 391.602 1156.92 386.877C1158.95 380.971 1170.58 368.422 1177.23 361.778C1182.54 356.462 1183.62 349.105 1183.5 346.09Z" fill="#D9D9D9" fill-opacity="0.07"/>
</g>
<path d="M735.849 354.182C728.146 376.209 730.25 398.514 741.599 417.658L722.499 412.218C721.292 411.874 719.934 412.582 719.518 413.773C719.124 414.899 719.721 416.038 720.867 416.35L747.343 423.562L749.047 424.041L751.076 418.406L756.946 400.461C757.397 399.084 756.627 397.716 755.214 397.383C753.78 397.045 752.223 397.899 751.737 399.289L746.139 415.297C735.635 397.284 733.685 376.276 740.989 355.393C745.961 341.175 755.092 328.861 766.991 319.078C768.329 317.978 768.378 316.058 767.05 315.17C766.142 314.564 764.859 314.644 763.937 315.387C751.061 325.77 741.181 338.936 735.849 354.182Z" fill="#4FE2CE"/>
<defs>
<filter id="filter1_f_2757_47463" x="916.696" y="510.936" width="120.557" height="62.2741" filterUnits="userSpaceOnUse" color-interpolation-filters="sRGB">
<feFlood flood-opacity="0" result="BackgroundImageFix"/>
<feBlend mode="normal" in="SourceGraphic" in2="BackgroundImageFix" result="shape"/>
<feGaussianBlur stdDeviation="0.839533" result="effect1_foregroundBlur_2757_47463"/>
</filter>
<radialGradient id="paint0_radial_2757_47463" cx="0" cy="0" r="1" gradientUnits="userSpaceOnUse" gradientTransform="translate(991.149 584.401) rotate(1.09885) scale(396.842 113.208)">
<stop stop-color="white" stop-opacity="0"/>
<stop offset="0.408122" stop-color="#DEDEDE" stop-opacity="0.1"/>
<stop offset="0.747946" stop-color="#B2B2B2" stop-opacity="0.75"/>
<stop offset="1" stop-color="#999999" stop-opacity="0"/>
</radialGradient>
<linearGradient id="paint1_linear_2757_47463" x1="383.583" y1="567.145" x2="1514.97" y2="567.145" gradientUnits="userSpaceOnUse">
<stop stop-color="white" stop-opacity="0"/>
<stop offset="0.087352" stop-color="white"/>
<stop offset="0.207372" stop-color="white"/>
<stop offset="0.379257" stop-color="white" stop-opacity="0"/>
<stop offset="0.636531" stop-color="white" stop-opacity="0"/>
<stop offset="0.738553" stop-color="white"/>
<stop offset="0.926674" stop-color="white"/>
<stop offset="1" stop-color="white" stop-opacity="0"/>
</linearGradient>
<radialGradient id="paint2_radial_2757_47463" cx="0" cy="0" r="1" gradientTransform="matrix(79.8604 357.357 -435.837 65.128 891.6 360.008)" gradientUnits="userSpaceOnUse">
<stop offset="0.61733" stop-color="#D9D9D9"/>
<stop offset="1" stop-color="#737373" stop-opacity="0"/>
</radialGradient>
<radialGradient id="paint3_radial_2757_47463" cx="0" cy="0" r="1" gradientUnits="userSpaceOnUse" gradientTransform="translate(1054.92 601.365) rotate(-116.308) scale(438.542 374.292)">
<stop offset="0.418464" stop-color="#D9D9D9"/>
<stop offset="1" stop-color="#737373" stop-opacity="0"/>
</radialGradient>
<linearGradient id="paint4_linear_2757_47463" x1="6.5455" y1="15.8116" x2="6.5455" y2="1.05055" gradientUnits="userSpaceOnUse">
<stop stop-opacity="0.5"/>
<stop offset="1" stop-opacity="0"/>
</linearGradient>
<linearGradient id="paint5_linear_2757_47463" x1="6.5455" y1="15.406" x2="6.5455" y2="1.0236" gradientUnits="userSpaceOnUse">
<stop stop-opacity="0.5"/>
<stop offset="1" stop-opacity="0"/>
</linearGradient>
<linearGradient id="paint6_linear_2757_47463" x1="6.5455" y1="14.5741" x2="6.5455" y2="0.968334" gradientUnits="userSpaceOnUse">
<stop stop-opacity="0.5"/>
<stop offset="1" stop-opacity="0"/>
</linearGradient>
<linearGradient id="paint7_linear_2757_47463" x1="6.5455" y1="16.0645" x2="6.5455" y2="1.06736" gradientUnits="userSpaceOnUse">
<stop stop-opacity="0.5"/>
<stop offset="1" stop-opacity="0"/>
</linearGradient>
<linearGradient id="paint8_linear_2757_47463" x1="977.64" y1="493.62" x2="980.781" y2="506.217" gradientUnits="userSpaceOnUse">
<stop stop-opacity="0.5"/>
<stop offset="1" stop-opacity="0"/>
</linearGradient>
<linearGradient id="paint9_linear_2757_47463" x1="1072.29" y1="529.502" x2="1075.02" y2="540.438" gradientUnits="userSpaceOnUse">
<stop/>
<stop offset="1" stop-opacity="0"/>
</linearGradient>
<linearGradient id="paint10_linear_2757_47463" x1="1004.11" y1="535.688" x2="953.32" y2="505.672" gradientUnits="userSpaceOnUse">
<stop stop-color="white"/>
<stop offset="1" stop-color="white" stop-opacity="0"/>
</linearGradient>
<radialGradient id="paint11_radial_2757_47463" cx="0" cy="0" r="1" gradientTransform="matrix(71.7947 64.1196 -36.4969 26.0673 956.597 544.108)" gradientUnits="userSpaceOnUse">
<stop stop-color="white"/>
<stop offset="1" stop-color="#999999"/>
</radialGradient>
<linearGradient id="paint12_linear_2757_47463" x1="862.94" y1="126.22" x2="681.442" y2="366.88" gradientUnits="userSpaceOnUse">
<stop/>
<stop offset="1" stop-opacity="0"/>
</linearGradient>
<linearGradient id="paint13_linear_2757_47463" x1="756.648" y1="237.524" x2="942.157" y2="304.708" gradientUnits="userSpaceOnUse">
<stop stop-color="white"/>
<stop offset="1" stop-color="#999999" stop-opacity="0.2"/>
</linearGradient>
<linearGradient id="paint14_linear_2757_47463" x1="760.059" y1="237.525" x2="945.567" y2="304.71" gradientUnits="userSpaceOnUse">
<stop stop-color="white"/>
<stop offset="1" stop-color="#999999" stop-opacity="0.2"/>
</linearGradient>
<radialGradient id="paint15_radial_2757_47463" cx="0" cy="0" r="1" gradientUnits="userSpaceOnUse" gradientTransform="translate(934.084 331.326) rotate(129.726) scale(170.92 196.004)">
<stop/>
<stop offset="1" stop-opacity="0"/>
</radialGradient>
<clipPath id="clip0_2757_47463">
<rect width="32.9494" height="34.6033" fill="white" transform="matrix(0.469472 0.882948 -0.970296 0.241922 1059.39 484.194)"/>
</clipPath>
</defs>
</svg>
