<svg width="563" height="557" viewBox="0 0 563 557" fill="none" xmlns="http://www.w3.org/2000/svg">
<ellipse cx="40.2163" cy="51.4715" rx="40.2163" ry="51.4715" transform="matrix(0.996188 -0.0872322 -0.0870794 0.996201 428.031 404.633)" stroke="white" stroke-width="0.608213"/>
<path d="M329.232 518.279C336.816 517.513 342.53 523.894 341.911 532.62C341.291 541.347 334.583 548.981 326.999 549.746C319.415 550.512 313.701 544.131 314.32 535.405C314.94 526.678 321.648 519.044 329.232 518.279Z" stroke="white" stroke-width="0.608213"/>
<path d="M305.654 543.542C298.431 544.04 293.015 538.19 293.055 530.109" stroke="white" stroke-width="0.608213"/>
<path d="M237.624 517.97C228.095 519.137 222.245 512.607 222.285 504.526C222.249 502.022 222.995 496.178 226.267 492.838" stroke="white" stroke-width="0.608213"/>
<path d="M358.43 320.992C358.43 362.039 355.117 436.515 344.871 451.685C337.249 462.971 329.951 477.129 298.107 482.761C279.989 485.052 263.761 481.702 258.159 475.234C252.258 468.42 259.363 460.461 275.395 454.34" stroke="url(#paint0_linear_4245_157598)" stroke-width="1.21643"/>
<path d="M453.254 511.48C441.7 511.48 431.73 507.846 424.128 501.392M509.471 448.658C506.645 480.98 483.574 509.001 457.94 511.246C432.306 513.491 413.815 489.108 416.641 456.786C419.466 424.465 442.537 396.443 468.171 394.198C493.806 391.953 512.296 416.336 509.471 448.658Z" stroke="white" stroke-width="1.21643"/>
<path d="M329.324 513.639C339.317 512.63 346.882 520.85 346.08 532.149C345.278 543.449 336.429 553.325 326.436 554.333C316.443 555.342 308.879 547.122 309.681 535.823C310.483 524.523 319.332 514.647 329.324 513.639Z" stroke="white" stroke-width="1.21643"/>
<path d="M292.542 516.786C290.083 520.446 288.48 524.793 288.157 529.347C287.336 540.919 295.089 549.451 305.475 548.403C305.805 548.371 306.815 548.238 308.22 547.96" stroke="white" stroke-width="1.21643"/>
<path d="M239.731 521.38C237.982 522.233 235.033 522.785 234.703 522.817C224.318 523.865 216.565 515.333 217.386 503.761C217.709 499.206 219.312 494.86 221.77 491.199L222.558 490.166" stroke="white" stroke-width="1.21643"/>
<path d="M321.049 554.355C313.206 552.267 313.22 551.483 311.35 550.454C307.229 548.185 303.205 541.104 303.8 532.722C304.257 526.286 307.642 516.402 318.546 511.932" stroke="white" stroke-width="1.21643"/>
<path d="M300.114 548.059C292.273 545.951 292.287 545.161 290.418 544.123C286.298 541.835 282.278 534.701 282.877 526.26C283.129 522.711 284.259 518.121 287.022 513.957" stroke="white" stroke-width="1.21643"/>
<path d="M229.341 522.473C221.499 520.365 221.514 519.575 219.645 518.537C215.524 516.249 211.505 509.115 212.104 500.674C212.356 497.125 213.486 492.535 216.248 488.37C216.641 487.793 217.756 486.36 219.078 485.246" stroke="white" stroke-width="1.21643"/>
<path d="M540.199 430.633C547.192 413.439 560.957 377.667 561.814 352.681C561.863 351.232 560.99 349.919 559.65 349.367C551.696 346.092 543.809 343.362 540.505 342.31M552.481 346.631L555.065 317.13C555.287 314.593 553.627 312.272 551.156 311.665L540.659 309.086" stroke="white" stroke-width="1.21643"/>
<path d="M342.141 455.625V13.4688L310.039 18.1222L310.039 473.961" stroke="white" stroke-width="1.21643"/>
<path d="M275.304 440.304L225.799 456.247C220.238 458.263 217.384 463.184 217.295 468.155M397.314 463.999L394.205 469.067C391.007 474.28 386.062 478.188 380.253 480.092L376.791 481.227L321.515 499.349C304.632 504.884 286.331 504.223 269.89 497.486L225.304 480.331C220.033 478.171 217.381 473.423 217.295 468.636M217.295 468.636C217.297 480.349 217.423 488.682 226.812 492.706L265.614 508.372C284.541 516.418 306.08 516.127 325.644 509.791C339.902 505.174 349.397 517.193 351.11 527.069C351.229 527.751 351.418 528.434 351.856 528.97C353.371 530.826 355.832 531.684 358.104 530.767C367.218 527.09 391.103 517.447 417.8 506.632C421.782 505.018 422.908 499.839 420.617 496.205C414.207 486.033 411.001 472.435 412.336 457.167C415.333 422.875 440.14 393.117 467.744 390.7C495.347 388.283 515.294 414.122 512.297 448.413C512.014 451.653 511.551 454.833 510.912 457.952C509.95 462.644 514.706 467.16 519.042 465.125C519.174 465.063 519.286 465.009 519.377 464.963C529.382 459.956 540.499 450.83 540.499 421.614V287.497C540.499 282.519 514.633 273.256 495.962 267.218C483.756 263.271 470.646 263.53 458.436 267.466L406.234 284.296C390.543 289.354 373.723 289.744 357.815 285.418L342.049 281.13M217.295 468.636C217.295 468.476 217.295 468.316 217.295 468.155M217.295 468.636C217.292 468.476 217.292 468.315 217.295 468.155M217.295 468.155L217.295 468.154" stroke="white" stroke-width="1.21643"/>
<path d="M377.641 522.456V487.745C377.641 485.437 376.875 483.265 375.551 481.514C374.292 479.849 372.529 478.563 370.44 477.9L357.369 473.755C355.965 473.31 355.212 471.802 355.693 470.409C369.042 431.733 375.482 355.248 375.482 289.07M329.469 509.124C329.469 506.049 326.417 503.877 323.465 504.74C316.436 506.798 306.457 509.124 298.66 509.124C285.556 509.124 278.554 506.722 274.052 505.42C269.551 504.118 227.138 487.098 224.237 486.097C221.336 485.096 218.435 481.792 217.535 475.184" stroke="white" stroke-width="0.608213"/>
<path d="M331.908 468.082L316.944 472.905C312.262 474.414 307.209 474.304 302.598 472.591L297.528 470.709C295.86 470.09 294.753 468.498 294.753 466.718V106.948M294.753 463.748L286.536 465.922C285.983 466.073 285.061 466.192 284.665 465.938M310.333 18.4717L294.753 15.1185V71.1599M275.359 69.4438L275.359 11.2891L285.655 13.4966V69.4438M275.359 162.509L275.359 461.221C275.359 461.977 275.829 462.652 276.536 462.915L283.194 465.391C284.386 465.835 285.655 464.953 285.655 463.681V181.737" stroke="white" stroke-width="1.21643"/>
<path d="M465.617 232.155C481.427 238.425 510.972 252.412 525.56 260.072C527.712 261.202 528.725 263.699 528.029 266.03L525.947 272.998C525.947 272.998 499.556 259.222 476.848 255.475C457.433 252.272 435.497 256.788 407.073 262.163C397.16 264.037 386.964 263.765 377.135 261.49L342.145 253.389M465.617 232.155C462.758 231.022 460.148 230.078 457.891 229.388C446.882 226.021 431.013 227.226 416.062 230.12C403.538 232.544 390.656 233.356 378.169 230.745L342.145 223.21M465.617 232.155C439.093 219.824 396.8 217.441 375.1 216.5L342.145 218.249M525.044 275.258C513.531 270.074 505.46 266.986 496.259 264.025C484.19 260.142 471.259 259.97 458.903 262.805L405.354 275.093C391.195 278.342 376.451 278.02 362.446 274.156L342.158 268.557" stroke="white" stroke-width="1.21643"/>
<path d="M277.059 512.325L271.118 521.089C266.59 527.77 257.97 530.316 250.539 527.167C243.338 524.116 237.73 518.208 235.058 510.857L228.75 493.5" stroke="white" stroke-width="1.21643"/>
<path d="M282.63 526.984C279.579 528.22 272.847 530.845 270.32 531.455C267.16 532.218 263.599 532.445 258.414 530.462" stroke="white" stroke-width="0.608213"/>
<path d="M292.512 514.484V526.933C292.512 531.26 295.207 535.128 299.264 536.623L304.008 538.372" stroke="white" stroke-width="1.21643"/>
<path d="M532.05 280.741L553.465 210.695C555.47 204.137 551.524 197.248 544.857 195.665L473.866 178.812C469.909 177.873 465.901 180.159 464.692 184.044L451.391 226.773M524.573 277.583L545.712 207.365C547.124 202.677 544.306 197.766 539.549 196.623L479.74 182.256C475.771 181.302 471.744 183.598 470.54 187.502L457.759 228.945" stroke="white" stroke-width="1.21643"/>
<path d="M526.623 278.312L547.867 208.135C549.701 202.078 545.891 195.764 539.68 194.569M475.94 179.473L475.651 179.403C471.706 178.454 467.698 180.716 466.469 184.586L452.914 227.239" stroke="white" stroke-width="0.608213"/>
<path d="M552.335 211.044L546.262 209.039C548.594 201.938 544.177 197.084 541.828 195.727C545.29 196.578 548.869 198.102 550.938 201.258C553.489 205.149 552.841 209.201 552.335 211.044Z" fill="#D9D9D9" fill-opacity="0.1"/>
<path d="M285.657 465.109C285.657 465.678 285.041 466.294 284.473 465.962C283.905 465.63 277.274 463.26 276.705 462.976C276.136 462.691 275.425 463.07 275.378 460.226C273.432 343.355 274.594 278.973 275.169 162.021L279.053 175.266C279.961 178.364 282.499 180.712 285.657 181.377L285.657 465.109Z" fill="#D9D9D9" fill-opacity="0.1"/>
<path d="M285.561 13.6093L285.577 69.5074C281.63 68.6076 279.343 68.7112 275.192 69.5074C275.301 44.0555 275.375 36.851 275.378 11.4062L285.561 13.6093Z" fill="#D9D9D9" fill-opacity="0.1"/>
<path d="M309.909 472.152V469.212L309.813 18.5153L294.622 15.0391C294.62 31.9512 294.616 71.0388 294.616 71.0388L295.538 71.2092C298.422 71.7422 300.515 74.2573 300.515 77.19V99.8875C300.515 103.371 298.036 106.362 294.613 107.008C294.613 107.008 294.591 465.451 294.622 467.32C294.669 470.164 295.38 469.785 295.948 470.069C296.517 470.354 306.772 474.483 309.695 473.856C309.909 473.647 309.909 472.72 309.909 472.152Z" fill="#D9D9D9" fill-opacity="0.1"/>
<path d="M189.453 90.2455C189.453 88.7088 190.579 87.4044 192.098 87.1805L297.007 71.7212C298.876 71.4458 300.553 72.8955 300.553 74.7861V102.187C300.553 104.304 299.043 106.119 296.963 106.503L192.5 125.781C190.915 126.073 189.453 124.855 189.453 123.242V90.2455Z" stroke="white" stroke-width="1.21643"/>
<path d="M121.883 100.786L179.653 92.3177C183.323 91.7796 186.617 94.6253 186.617 98.3356V117.451C186.617 120.332 184.596 122.818 181.776 123.406L137.02 132.735" stroke="white" stroke-width="1.21643"/>
<path d="M298.049 71.7393L285.548 69.5217C282.433 68.9689 279.25 68.9059 276.115 69.3347L173.864 83.3221C170.914 83.7257 168.715 86.2457 168.715 89.2231" stroke="white" stroke-width="1.21643"/>
<path d="M110.863 96.8004L169.713 89.0638C169.946 89.032 170.173 89.0459 170.386 89.0981" stroke="white" stroke-width="1.21643"/>
<path d="M294.395 180.247L287.778 181.666C286.656 181.907 285.512 181.597 284.672 180.877C284.091 180.379 283.826 179.627 283.619 178.891L264.936 112.383M285.491 181.541L281.99 180.63C281.606 180.494 281.245 180.293 280.924 180.034C280.304 179.534 280.02 178.751 279.801 177.985L261.23 113.128" stroke="white" stroke-width="1.21643"/>
<path d="M171.434 83.6719L191.113 87.4364" stroke="white" stroke-width="0.608213"/>
<path d="M170.359 89.0859L184.589 91.7749" stroke="white" stroke-width="1.21643"/>
<path d="M178.738 123.867L191.665 125.792" stroke="white" stroke-width="1.21643"/>
<path fill-rule="evenodd" clip-rule="evenodd" d="M225.979 75.2359C231.342 73.4663 237.049 72.032 244.982 72.5054C248.231 72.6994 250.906 73.6152 252.823 75.4918C254.742 77.3699 255.598 79.9114 255.83 82.7164C256.281 88.1745 254.436 95.658 251.871 104.342C246.652 122.016 238.023 145.982 235.555 173.324C233.107 200.44 241.003 226.194 252.905 242.852C258.859 251.185 265.714 257.102 272.622 259.879C279.446 262.623 286.37 262.337 292.858 258.204C303.938 251.146 307.002 237.525 309.481 223.631C310.688 216.868 311.773 210.014 313.748 204.404C315.734 198.763 318.781 193.897 324.235 191.602C326.153 190.795 327.936 190.36 329.469 190.107V194.568C328.379 194.787 327.19 195.12 325.935 195.648C322.148 197.241 319.697 200.71 317.883 205.863C316.058 211.046 315.04 217.443 313.798 224.403C311.379 237.954 308.158 253.66 295.213 261.906C287.42 266.869 278.996 267.171 270.988 263.952C263.065 260.767 255.603 254.173 249.338 245.405C236.802 227.861 228.647 201.054 231.187 172.929C233.705 145.03 242.533 120.48 247.666 103.098C250.277 94.2553 251.832 87.576 251.46 83.0787C251.28 80.9062 250.668 79.5213 249.758 78.6304C248.846 77.7384 247.33 77.042 244.721 76.8863C237.542 76.4579 232.421 77.7323 227.353 79.4049C222.295 81.0736 216.999 83.2628 209.99 84.315L209.98 84.2457C207.404 84.5342 203.208 84.6207 198.985 84.7955C193.718 85.0135 188.175 85.1236 185.114 85.1236C184.024 85.1237 182.594 85.5148 180.576 86.3267C178.546 87.1435 176.324 88.2072 173.474 89.4439C167.895 91.8645 160.659 94.5992 151.188 95.7144C141.457 96.8603 132.727 93.985 125.751 90.9888C124.003 90.238 122.352 89.4748 120.825 88.7613C119.287 88.0427 117.892 87.384 116.606 86.8199C113.927 85.6446 112.149 85.0858 111.007 85.1226C108.66 85.1984 106.082 85.9195 103.749 86.8531C101.429 87.7816 101.247 87.7049 100.21 88.3863L94.6055 87.4791C95.875 86.6451 99.6424 84.0485 102.217 83.0181C104.778 81.993 107.858 81.0911 110.874 80.9937C113.084 80.9224 115.685 81.9056 118.264 83.0367C119.606 83.6258 121.06 84.3122 122.571 85.0181C124.093 85.7292 125.694 86.4693 127.379 87.1929C134.135 90.0948 142.056 92.6314 150.706 91.6129C159.616 90.5636 166.436 87.995 171.832 85.6539C174.469 84.5098 176.964 83.3283 179.036 82.4947C181.12 81.6565 183.178 80.9928 185.114 80.9927C188.108 80.9927 193.595 80.8846 198.815 80.6685C204.133 80.4484 208.892 80.1245 210.617 79.7408L210.622 79.7652C216.499 78.7308 220.963 76.8911 225.979 75.2359Z" fill="url(#paint1_linear_4245_157598)"/>
<path d="M15.4065 98.698L2.14061 105.245M135.81 112.349C138.434 114.582 139.672 118.042 139.062 121.433L137.811 128.379C136.938 133.228 133.227 137.071 128.412 138.113L64.2697 151.99C50.9459 154.873 37.0706 153.805 24.3451 148.917C15.6021 145.559 9.00222 138.208 6.6014 129.155L2.15099 112.374C1.19292 108.761 4.49653 105.462 8.10782 106.425L22.6827 110.312C36.4893 113.994 51.0729 113.542 64.625 109.012L84.4255 102.394C102.115 96.4813 121.609 100.258 135.81 112.349Z" stroke="white" stroke-width="1.21643"/>
<path d="M103.881 96.3818V94.5666C103.881 91.2076 101.158 88.4845 97.7989 88.4845H55.848C52.1612 88.4845 48.4808 88.1798 44.8443 87.5734L35.8079 86.0667C27.4066 84.6658 19.1537 89.2638 15.9236 97.1449L14.8925 99.6607C14.0265 101.774 15.2919 104.154 17.5278 104.618L27.9582 106.782C38.9378 109.06 50.2947 108.777 61.1474 105.956L88.2485 98.9116C92.3101 97.9598 101.123 96.1631 103.881 96.5914" stroke="white" stroke-width="1.21643"/>
<path d="M101.594 88.5439L87.5713 86.3935L26.7891 84.6641" stroke="white" stroke-width="1.21643"/>
<path d="M51.4062 113.672L53.4601 154.058" stroke="white" stroke-width="0.608213"/>
<path d="M53.4612 88.5078L51.8906 108.267" stroke="white" stroke-width="0.608213"/>
<path d="M36.4258 114.523L42.3455 155.03" stroke="white" stroke-width="0.608213"/>
<path d="M46.2031 87.7578L40.3477 109.102" stroke="white" stroke-width="0.608213"/>
<path d="M330.74 199.634L328.272 199.397C327.821 199.353 327.477 198.974 327.477 198.52V196.789C327.477 196.266 327.929 195.858 328.449 195.913L328.478 195.916C328.998 195.971 329.45 195.563 329.45 195.041V189.671C329.45 189.184 329.056 188.79 328.571 188.79H328.356C327.87 188.79 327.477 188.396 327.477 187.91V186.079C327.477 185.626 327.82 185.247 328.271 185.203L334.261 184.62C335.427 184.536 336.684 184.95 336.853 185.69M331.126 199.698L336.151 199.209C336.602 199.165 336.946 198.786 336.946 198.332V186.062C336.946 185.542 336.498 185.135 335.981 185.186L330.956 185.675C330.505 185.719 330.162 186.098 330.162 186.551V198.821C330.162 199.341 330.609 199.748 331.126 199.698Z" stroke="white" stroke-width="1.21643"/>
<path d="M327.633 185.672L330.442 185.905" stroke="white" stroke-width="0.608213"/>
<path d="M439.271 494.151C429.776 486.486 424.3 472.276 425.771 455.45C428.086 428.959 446.742 406.014 467.44 404.202C477.663 403.307 486.471 407.734 492.49 415.635C487.361 450.479 475.253 471.206 439.271 494.151Z" fill="#D9D9D9" fill-opacity="0.1"/>
<path d="M319.858 547.033C316.653 544.696 314.746 540.446 315.106 535.378C315.688 527.179 321.983 519.944 329.166 519.219C332.872 518.845 336.09 520.276 338.257 522.876C336.445 531.725 330.378 541.023 319.858 547.033Z" fill="#D9D9D9" fill-opacity="0.1"/>
<path d="M384.161 292.024C377.091 292.549 368.342 291.151 364.851 290.386C364.851 310.619 364.851 340.002 363.2 371.596C361.445 405.157 359.622 431.122 350.11 457.243C347.138 465.403 364.851 469.96 377.426 465.298C392.042 459.88 396.279 395.325 398.516 376.064C400.745 356.88 402.093 310.078 402.489 289.076C399.325 289.84 391.23 291.5 384.161 292.024Z" fill="#D9D9D9" fill-opacity="0.1"/>
<path d="M368.957 273.457V262.601C372.596 263.259 379.748 264.494 385.228 265.225C390.708 265.957 401.373 265.472 410.22 263.473V272.517C404.456 274.22 391.668 276.062 383.87 275.543C378.494 275.185 371.683 274.153 368.957 273.457Z" fill="#D9D9D9" fill-opacity="0.1"/>
<path d="M369.577 257.821L371.729 232.235C375.368 232.892 379.357 233.831 384.837 234.562C390.317 235.293 404.956 234.977 411.946 233.422L410.458 259.79C402.968 261.124 393.69 261.74 385.383 260.807C380.028 260.205 372.303 258.516 369.577 257.821Z" fill="#D9D9D9" fill-opacity="0.1"/>
<path d="M310.008 511.946L310.176 503.557C305.064 504.307 297.491 504.665 292.017 504.532C286.928 504.407 278.97 502.689 273.706 500.714V509.462C276.997 510.545 283.722 512.385 291.081 512.723C296.079 512.953 305.768 512.464 310.008 511.946Z" fill="#D9D9D9" fill-opacity="0.1"/>
<path d="M228.082 491.811V482.636C221.183 480.676 219.434 477.561 218.438 476.088C218.438 478.618 219.223 483.451 220.908 486.441C222.592 489.431 226.475 491.471 228.082 491.811Z" fill="#D9D9D9" fill-opacity="0.1"/>
<path d="M228.989 492.167V482.877L272.352 500.327V509.178L228.989 492.167Z" fill="#D9D9D9" fill-opacity="0.1"/>
<path d="M25.7393 112.507C22.2783 111.596 20.403 111.138 19.3086 110.715L26.5533 148.763C37.3797 152.816 38.6275 154.468 47.4735 154.222C51.7714 154.102 55.4837 152.85 56.6527 152.327L55.3842 113.493C53.8422 113.916 50.4245 115.03 48.8927 115.36C39.9938 117.276 36.5657 115.36 25.7393 112.507Z" fill="#D9D9D9" fill-opacity="0.1"/>
<path d="M46.8748 108.55C43.7734 108.886 40.2843 108.582 38.9275 108.388L44.678 88.4375C45.6794 88.6315 48.0895 89.0777 49.7177 89.3106C51.346 89.5435 53.9068 89.4077 54.9836 89.3106L53.8206 107.16C52.7976 107.483 49.9762 108.214 46.8748 108.55Z" fill="#D9D9D9" fill-opacity="0.1"/>
<path d="M35.4945 153.265C33.6001 155.549 32.8594 158.92 32.8594 162.336V183.549C32.8594 189.018 37.275 192.709 42.6174 191.413L51.4085 189.279M104.723 143.305C105.384 144.335 105.772 145.513 105.772 146.803V166.422C105.772 171.67 101.695 177.076 96.5686 178.32L61.3329 186.871" stroke="white" stroke-width="1.21643"/>
<path d="M39.7477 191.646C34.0509 191.413 18.4514 185.257 16.7549 184.163C14.6056 182.778 13.2266 180.276 13.2266 177.22V156.007C13.2266 152.077 14.2065 148.208 16.795 145.984" stroke="white" stroke-width="1.21643"/>
<path d="M51.4062 154.941V201.828C51.4062 205.676 61.3069 205.738 61.3069 199.504V152.805" stroke="white" stroke-width="1.21643"/>
<path d="M53.461 201.794C53.461 203.152 56.9551 203.174 56.9551 200.974L56.9551 153.734L53.4609 154.488L53.461 201.794Z" fill="#D9D9D9" fill-opacity="0.1"/>
<path d="M32.7646 190.227C31.7599 195.435 22.957 195.172 22.957 191.544V186.875" stroke="white" stroke-width="1.21643"/>
<path d="M274.449 4.31897V10.3093L310.111 17.3795L343.266 12.4759V6.20394M274.449 4.31897L310.111 11.2215L343.266 6.20394M274.449 4.31897L311.478 0.617188L343.266 6.20394" stroke="white" stroke-width="1.21643"/>
<defs>
<linearGradient id="paint0_linear_4245_157598" x1="338.21" y1="404.89" x2="402.882" y2="332.049" gradientUnits="userSpaceOnUse">
<stop stop-color="white"/>
<stop offset="1" stop-color="#999999" stop-opacity="0"/>
</linearGradient>
<linearGradient id="paint1_linear_4245_157598" x1="171.903" y1="89.7759" x2="324.186" y2="205.693" gradientUnits="userSpaceOnUse">
<stop stop-color="#A7A7A7"/>
<stop offset="0.390158" stop-color="white"/>
<stop offset="1" stop-color="#999999"/>
</linearGradient>
</defs>
</svg>
