<svg width="736" height="501" viewBox="0 0 736 501" fill="none" xmlns="http://www.w3.org/2000/svg">
<g opacity="0.3" filter="url(#filter0_d_4956_90016)">
<rect x="69.7266" y="97.7656" width="516.544" height="314.794" rx="144.298" fill="url(#paint0_linear_4956_90016)" shape-rendering="crispEdges"/>
</g>
<path d="M571.717 30.3604C584.128 14.8098 607.766 14.8098 620.177 30.3604L635.193 49.1763C640.066 55.2829 647.066 59.3241 654.791 60.4914L678.594 64.088C698.267 67.0605 710.086 87.532 702.824 106.055L694.037 128.468C691.186 135.742 691.186 143.824 694.037 151.098L702.824 173.51C710.086 192.033 698.267 212.505 678.594 215.477L654.791 219.074C647.066 220.241 640.066 224.283 635.193 230.389L620.177 249.205C607.766 264.756 584.128 264.756 571.717 249.205L556.701 230.389C551.827 224.283 544.828 220.241 537.102 219.074L513.299 215.477C493.627 212.505 481.807 192.033 489.069 173.51L497.856 151.098C500.708 143.824 500.708 135.742 497.856 128.468L489.069 106.055C481.807 87.532 493.627 67.0605 513.299 64.088L537.102 60.4914C544.828 59.3241 551.827 55.2829 556.701 49.1763L571.717 30.3604Z" fill="url(#paint1_linear_4956_90016)" fill-opacity="0.1" stroke="url(#paint2_linear_4956_90016)"/>
<path d="M525.641 138.313C525.641 128.191 531.364 121.624 540.281 121.624C547.33 121.624 553.596 126.263 554.078 137.59L554.138 139.879H531.003C531.485 146.386 534.798 150.182 540.281 150.182C543.655 150.182 546.788 148.194 548.234 144.82L553.656 145.241C551.788 151.266 546.366 155.002 540.281 155.002C531.364 155.002 525.641 148.435 525.641 138.313ZM531.123 135.421H548.595C547.752 128.733 544.137 126.444 540.281 126.444C535.22 126.444 531.967 129.758 531.123 135.421ZM579.658 122.347H585.864L574.838 137.951L586.406 154.279H580.261L571.645 141.867L563.029 154.279H556.824L568.512 137.891L557.426 122.347H563.632L571.645 134.035L579.658 122.347ZM596.13 115.117H601.191V122.347H609.686V126.805H601.191V145.784C601.191 148.435 602.456 149.82 604.987 149.82H609.566V154.279H604.987C599.263 154.279 596.13 151.206 596.13 145.784V126.805H591.431V122.347H596.13V115.117ZM616.707 122.347H621.165L621.346 128.191C622.431 124.215 624.78 122.347 628.938 122.347H632.07V126.805H628.938C624.057 126.805 621.768 129.758 621.768 135.24V154.279H616.707V122.347ZM637.089 131.746C638.355 125.54 643.355 121.624 650.163 121.624C658.357 121.624 662.996 126.444 662.996 134.999V147.832C662.996 149.158 663.599 149.82 664.924 149.82H666.25V154.279H664.081C660.827 154.279 657.996 153.254 657.996 149.338C656.61 152.29 653.115 155.002 648.055 155.002C641.668 155.002 636.547 151.628 636.547 145.904C636.547 139.337 641.488 137.65 648.597 136.325L657.935 134.457C657.875 129.095 655.284 126.444 650.163 126.444C646.127 126.444 643.415 128.492 642.452 132.167L637.089 131.746ZM641.849 145.904C641.849 148.435 644.018 150.543 648.717 150.543C653.899 150.483 658.056 146.868 658.056 139.397V138.976L650.525 140.301C645.765 141.145 641.849 141.446 641.849 145.904Z" stroke="url(#paint3_linear_4956_90016)" stroke-width="1.77754"/>
<mask id="mask0_4956_90016" style="mask-type:alpha" maskUnits="userSpaceOnUse" x="0" y="58" width="620" height="443">
<path d="M401.959 498.455C266.414 510.779 80.5535 456.356 4.56624 427.604C5.21391 425.245 5.29942 402.149 0.460056 328.637C-5.58915 236.746 49.1417 120.947 98.3995 80.9073C147.657 40.8673 361.972 67.3721 420.736 68.8124C479.499 70.2527 488.527 75.753 488.527 82.2403C488.527 91.3673 485.281 93.8012 491.163 111.852C502.971 148.091 542.097 241.447 576.795 257.219C579.21 258.317 589.35 261.092 595.36 259.89C599.454 259.071 613.259 289.17 619.63 297.638C619.117 312.013 615.443 315.776 600.656 373.69C582.172 446.084 571.391 483.05 401.959 498.455Z" fill="#D9D9D9"/>
</mask>
<g mask="url(#mask0_4956_90016)">
<rect x="58.3828" y="87.7344" width="537.274" height="335.961" rx="154" stroke="url(#paint4_linear_4956_90016)" stroke-width="2"/>
<rect x="69.5742" y="98.3203" width="516.544" height="314.794" rx="144.298" stroke="url(#paint5_linear_4956_90016)"/>
<path d="M60.0039 291.945C65.9039 376.574 136.277 442.211 221.11 442.211H436.235C519.592 442.211 588.639 377.512 594.052 294.331" stroke="url(#paint6_linear_4956_90016)"/>
</g>
<defs>
<filter id="filter0_d_4956_90016" x="21.7266" y="73.7656" width="612.543" height="410.797" filterUnits="userSpaceOnUse" color-interpolation-filters="sRGB">
<feFlood flood-opacity="0" result="BackgroundImageFix"/>
<feColorMatrix in="SourceAlpha" type="matrix" values="0 0 0 0 0 0 0 0 0 0 0 0 0 0 0 0 0 0 127 0" result="hardAlpha"/>
<feOffset dy="24"/>
<feGaussianBlur stdDeviation="24"/>
<feComposite in2="hardAlpha" operator="out"/>
<feColorMatrix type="matrix" values="0 0 0 0 0.894118 0 0 0 0 0.145098 0 0 0 0 0.356863 0 0 0 0.5 0"/>
<feBlend mode="normal" in2="BackgroundImageFix" result="effect1_dropShadow_4956_90016"/>
<feBlend mode="normal" in="SourceGraphic" in2="effect1_dropShadow_4956_90016" result="shape"/>
</filter>
<linearGradient id="paint0_linear_4956_90016" x1="586.271" y1="455.519" x2="327.999" y2="68.4283" gradientUnits="userSpaceOnUse">
<stop stop-color="#E4255B"/>
<stop offset="1" stop-color="#E4255B" stop-opacity="0.2"/>
</linearGradient>
<linearGradient id="paint1_linear_4956_90016" x1="595.947" y1="0" x2="595.947" y2="279.565" gradientUnits="userSpaceOnUse">
<stop stop-color="#D9D9D9"/>
<stop offset="1" stop-color="#E4255B"/>
</linearGradient>
<linearGradient id="paint2_linear_4956_90016" x1="452.938" y1="241.594" x2="685.056" y2="82.5556" gradientUnits="userSpaceOnUse">
<stop stop-color="white"/>
<stop offset="1" stop-color="white" stop-opacity="0.1"/>
</linearGradient>
<linearGradient id="paint3_linear_4956_90016" x1="503.277" y1="62.6171" x2="718.247" y2="-23.1832" gradientUnits="userSpaceOnUse">
<stop stop-color="white"/>
<stop offset="1" stop-color="white" stop-opacity="0.2"/>
</linearGradient>
<linearGradient id="paint4_linear_4956_90016" x1="327.02" y1="87.7344" x2="327.02" y2="423.695" gradientUnits="userSpaceOnUse">
<stop stop-color="white"/>
<stop offset="1" stop-color="white" stop-opacity="0.5"/>
</linearGradient>
<linearGradient id="paint5_linear_4956_90016" x1="327.846" y1="98.3203" x2="327.846" y2="413.115" gradientUnits="userSpaceOnUse">
<stop stop-color="white"/>
<stop offset="1" stop-color="white" stop-opacity="0.5"/>
</linearGradient>
<linearGradient id="paint6_linear_4956_90016" x1="465.028" y1="134.386" x2="465.028" y2="460.52" gradientUnits="userSpaceOnUse">
<stop stop-color="white"/>
<stop offset="1" stop-color="white" stop-opacity="0.2"/>
</linearGradient>
</defs>
</svg>
