<svg width="66" height="66" viewBox="0 0 66 66" fill="none" xmlns="http://www.w3.org/2000/svg">
    <g clip-path="url(#clip0_17239_110204)">
        <path
            d="M26.3828 32.6816C26.3828 34.3811 27.058 36.011 28.2597 37.2128C29.4615 38.4145 31.0914 39.0897 32.7909 39.0897C34.4905 39.0897 36.1204 38.4145 37.3222 37.2128C38.5239 36.011 39.199 34.3811 39.199 32.6816C39.199 30.982 38.5239 29.3521 37.3222 28.1503C36.1204 26.9486 34.4905 26.2734 32.7909 26.2734C31.0914 26.2734 29.4615 26.9486 28.2597 28.1503C27.058 29.3521 26.3828 30.982 26.3828 32.6816Z"
            stroke="white"
            stroke-width="3.66182"
            stroke-linecap="round"
            stroke-linejoin="round"
        />
        <path
            d="M61.6184 32.6931C53.9286 45.5093 44.3165 51.9175 32.7818 51.9175C21.2472 51.9175 11.6351 45.5093 3.94531 32.6931C11.6351 19.8769 21.2472 13.4688 32.7818 13.4688C44.3165 13.4688 53.9286 19.8769 61.6184 32.6931Z"
            stroke="white"
            stroke-width="5.62412"
            stroke-linecap="round"
            stroke-linejoin="round"
        />
    </g>
    <defs>
        <clipPath id="clip0_17239_110204">
            <rect width="66" height="66" fill="white" />
        </clipPath>
    </defs>
</svg>
