<svg width="600" height="600" viewBox="30 125 600 600" fill="none" xmlns="http://www.w3.org/2000/svg">
<ellipse cx="313.789" cy="522.615" rx="22.328" ry="8.17364" stroke="white" stroke-width="0.996786"/>
<ellipse cx="146.13" cy="458.92" rx="18.3409" ry="5.68168" stroke="white" stroke-width="0.996786"/>
<path d="M330.527 527.771C332.666 526.616 333.914 525.227 333.914 523.733C333.914 519.717 324.902 516.461 313.785 516.461C302.668 516.461 293.656 519.717 293.656 523.733C293.656 525.227 294.904 526.616 297.043 527.771" stroke="white" stroke-width="0.398714" stroke-linecap="round"/>
<path d="M159.857 462.46C161.612 461.676 162.635 460.733 162.635 459.718C162.635 456.992 155.244 454.781 146.126 454.781C137.009 454.781 129.617 456.992 129.617 459.718C129.617 460.733 130.64 461.676 132.395 462.46" stroke="white" stroke-width="0.398714" stroke-linecap="round"/>
<path d="M364.621 505.071L364.862 504.635L364.621 505.071ZM238.229 446.759L238.392 446.288L238.262 446.243L238.126 446.272L238.229 446.759ZM369.107 492.213L369.25 492.69C369.457 492.628 369.6 492.44 369.605 492.224C369.61 492.007 369.475 491.813 369.27 491.742L369.107 492.213ZM229.376 531.464L229.57 531.006V531.006L229.376 531.464ZM112.522 481.886L112.327 482.345L112.522 481.886ZM112.656 480.005L112.528 479.523L112.528 479.523L112.656 480.005ZM243.213 529.621L243.362 530.097L243.368 530.095L243.213 529.621ZM236.246 531.801L236.097 531.326V531.326L236.246 531.801ZM119.711 478.138L119.839 478.619L119.847 478.617L119.855 478.615L119.711 478.138ZM122.801 466.065L122.601 466.521L122.605 466.523L122.801 466.065ZM202.843 443.945L203.018 443.478L203.016 443.477L202.843 443.945ZM204.737 444.655L204.942 444.201L204.927 444.194L204.912 444.189L204.737 444.655ZM338.248 532.483L338.063 532.02L338.248 532.483ZM140.02 449.219L140.155 449.699L140.02 449.219ZM313.187 536.57V536.071C303.278 536.071 294.376 534.481 288.156 531.957L287.969 532.419L287.781 532.881C294.151 535.465 303.188 537.068 313.187 537.068V536.57ZM364.621 505.071L364.38 505.507C366.563 506.714 368.447 508.035 369.844 509.412C371.246 510.795 372.124 512.199 372.367 513.571C372.606 514.917 372.248 516.302 371.027 517.706C369.792 519.127 367.677 520.558 364.428 521.927L364.621 522.386L364.815 522.846C368.132 521.448 370.404 519.943 371.78 518.36C373.17 516.762 373.647 515.079 373.349 513.397C373.055 511.742 372.022 510.16 370.544 508.703C369.062 507.241 367.095 505.869 364.862 504.635L364.621 505.071ZM238.229 446.759L238.065 447.23L368.943 492.684L369.107 492.213L369.27 491.742L238.392 446.288L238.229 446.759ZM229.376 531.464L229.57 531.006L112.716 481.427L112.522 481.886L112.327 482.345L229.181 531.923L229.376 531.464ZM112.522 481.886L112.716 481.427C112.279 481.242 112.324 480.608 112.783 480.487L112.656 480.005L112.528 479.523C111.151 479.888 111.016 481.789 112.327 482.345L112.522 481.886ZM262.949 526.602V527.1C273.609 527.1 281.535 530.144 287.969 532.94L288.168 532.483L288.367 532.026C281.89 529.212 273.814 526.103 262.949 526.103V526.602ZM243.213 529.621L243.368 530.095C249.195 528.19 256.418 527.1 262.949 527.1V526.602V526.103C256.323 526.103 248.993 527.207 243.058 529.147L243.213 529.621ZM236.246 531.801L236.394 532.277L243.362 530.097L243.213 529.621L243.064 529.145L236.097 531.326L236.246 531.801ZM112.656 480.005L112.783 480.487L119.839 478.619L119.711 478.138L119.584 477.656L112.528 479.523L112.656 480.005ZM229.376 531.464L229.181 531.923C231.467 532.893 234.024 533.019 236.394 532.277L236.246 531.801L236.097 531.326C233.952 531.997 231.639 531.883 229.57 531.006L229.376 531.464ZM364.621 505.071L364.862 504.635C362.2 503.164 361.033 501.152 361.033 499.383H360.535H360.036C360.036 501.617 361.5 503.916 364.38 505.507L364.621 505.071ZM360.535 499.383H361.033C361.033 498.11 361.536 496.918 362.8 495.802C364.083 494.67 366.147 493.619 369.25 492.69L369.107 492.213L368.964 491.735C365.799 492.683 363.578 493.786 362.141 495.055C360.685 496.34 360.036 497.795 360.036 499.383H360.535ZM122.801 466.065L123.001 465.608C121.098 464.773 119.579 463.812 118.544 462.799C117.506 461.784 116.994 460.76 116.994 459.785H116.496H115.997C115.997 461.126 116.701 462.391 117.847 463.512C118.996 464.635 120.629 465.656 122.601 466.521L122.801 466.065ZM180.914 440.668V441.166C189.558 441.166 197.309 442.425 202.67 444.412L202.843 443.945L203.016 443.477C197.514 441.438 189.638 440.17 180.914 440.17V440.668ZM224.873 448.044V447.546C216.647 447.546 209.398 446.216 204.942 444.201L204.737 444.655L204.532 445.109C209.163 447.204 216.568 448.543 224.873 448.543V448.044ZM238.229 446.759L238.126 446.272C234.302 447.077 229.755 447.546 224.873 447.546V448.044V448.543C229.816 448.543 234.432 448.069 238.332 447.247L238.229 446.759ZM122.801 466.065L122.605 466.523C124.318 467.257 125.655 468.091 126.555 468.968C127.455 469.845 127.885 470.729 127.885 471.579H128.383H128.882C128.882 470.371 128.268 469.246 127.25 468.254C126.233 467.263 124.779 466.369 122.997 465.607L122.801 466.065ZM128.383 471.579H127.885C127.885 472.653 127.194 473.761 125.746 474.834C124.306 475.899 122.198 476.866 119.567 477.66L119.711 478.138L119.855 478.615C122.545 477.802 124.772 476.794 126.339 475.635C127.896 474.482 128.882 473.114 128.882 471.579H128.383ZM204.737 444.655L204.912 444.189L203.018 443.478L202.843 443.945L202.668 444.411L204.562 445.122L204.737 444.655ZM338.248 532.483L338.063 532.02C331.85 534.507 323.013 536.071 313.187 536.071V536.57V537.068C323.104 537.068 332.072 535.492 338.433 532.946L338.248 532.483ZM364.621 522.386L364.428 521.927C357.871 524.689 353.861 526.18 350.203 527.494C346.543 528.81 343.222 529.955 338.063 532.02L338.248 532.483L338.433 532.946C343.572 530.888 346.872 529.751 350.541 528.432C354.212 527.113 358.239 525.616 364.815 522.846L364.621 522.386ZM116.496 459.785H116.994C116.994 458.99 117.514 458.166 118.685 457.294C119.844 456.429 121.546 455.592 123.68 454.758C127.946 453.091 133.796 451.49 140.155 449.699L140.02 449.219L139.885 448.74C133.553 450.523 127.641 452.14 123.317 453.829C121.157 454.674 119.357 455.549 118.089 456.495C116.831 457.432 115.997 458.515 115.997 459.785H116.496ZM140.02 449.219L140.155 449.699C147.482 447.635 155.497 445.5 162.775 443.882C170.066 442.26 176.577 441.166 180.914 441.166V440.668V440.17C176.457 440.17 169.852 441.287 162.559 442.909C155.254 444.533 147.219 446.674 139.885 448.74L140.02 449.219Z" fill="white"/>
<path d="M285.726 544.252C292.571 546.888 301.925 547.739 312.749 547.739C323.934 547.739 334.156 545.877 341.505 542.657C352.013 539.067 374.316 531.343 378.159 525.339C382.002 519.335 380.427 511.372 367.635 503.219M285.943 544.318C278.923 541.423 274.851 539.067 263.148 539.067C253.918 539.067 247.341 542.326 238.528 544.944C233.942 546.824 228.261 547.739 224.606 545.858L105.482 494.896C104.959 494.672 104.727 494.062 104.974 493.551C105.993 491.441 108.491 486.274 109.878 483.419C110.447 482.249 111.227 481.197 112.178 480.31L112.235 480.257M117.617 457.426C116.122 458.722 115.026 460.516 113.232 464.702C111.637 468.424 115.126 471.536 118.814 473.175C121.605 474.415 120.907 477.561 118.016 478.558" stroke="white" stroke-width="0.996786"/>
<ellipse cx="236.24" cy="487.429" rx="75.357" ry="23.6238" stroke="white" stroke-width="0.996786"/>
<ellipse cx="236.242" cy="489.122" rx="66.984" ry="18.7396" stroke="white" stroke-width="0.996786"/>
<path d="M300.232 494.704C299.624 493.492 298.559 492.319 297.088 491.199C288.17 484.411 264.292 479.553 236.236 479.553C208.18 479.553 184.302 484.411 175.384 491.199C173.914 492.318 172.851 493.489 172.242 494.699" stroke="white" stroke-width="0.996786"/>
<path d="M308.767 520.323C309.25 520.332 309.745 520.415 310.128 520.585L314.107 522.354L318.454 520.729C318.863 520.575 319.369 520.509 319.854 520.518C320.337 520.526 320.832 520.609 321.215 520.779C321.57 520.937 321.903 521.212 321.861 521.61C321.841 521.8 321.735 521.955 321.603 522.074C321.47 522.193 321.294 522.29 321.089 522.366L317.313 523.779L320.737 525.302C321.092 525.459 321.426 525.735 321.384 526.133C321.364 526.322 321.259 526.478 321.126 526.597C320.993 526.715 320.817 526.812 320.612 526.889C320.203 527.042 319.697 527.108 319.212 527.1C318.728 527.091 318.234 527.008 317.852 526.838L313.87 525.066L309.525 526.694C309.116 526.848 308.61 526.914 308.125 526.905C307.641 526.897 307.148 526.813 306.765 526.643C306.41 526.485 306.076 526.21 306.118 525.812C306.138 525.623 306.244 525.466 306.377 525.348C306.51 525.229 306.686 525.132 306.891 525.056L310.666 523.643L307.241 522.12C306.887 521.962 306.554 521.688 306.596 521.29C306.616 521.101 306.721 520.944 306.854 520.825C306.986 520.706 307.163 520.61 307.367 520.533C307.776 520.38 308.282 520.315 308.767 520.323Z" stroke="white" stroke-width="0.598072"/>
<path d="M142.926 456.627C143.327 456.633 143.734 456.698 144.046 456.825L147.422 458.204L151.107 456.938C151.442 456.822 151.86 456.772 152.262 456.778C152.663 456.785 153.07 456.848 153.382 456.976C153.538 457.039 153.669 457.119 153.762 457.216C153.856 457.315 153.917 457.444 153.9 457.59C153.884 457.731 153.799 457.846 153.694 457.933C153.589 458.02 153.447 458.092 153.279 458.149L150.024 459.269L152.98 460.477C153.136 460.54 153.267 460.62 153.359 460.717C153.454 460.816 153.516 460.945 153.499 461.092C153.483 461.233 153.398 461.347 153.293 461.434C153.187 461.521 153.045 461.593 152.878 461.65C152.543 461.766 152.126 461.816 151.724 461.81C151.322 461.803 150.916 461.739 150.604 461.611L147.227 460.231L143.542 461.5C143.207 461.615 142.79 461.666 142.388 461.659C141.986 461.653 141.58 461.589 141.268 461.461C141.112 461.397 140.981 461.319 140.889 461.222C140.794 461.122 140.732 460.993 140.749 460.847C140.765 460.705 140.85 460.59 140.955 460.504C141.061 460.417 141.203 460.346 141.37 460.288L144.624 459.167L141.669 457.96C141.513 457.896 141.382 457.818 141.29 457.721C141.196 457.621 141.134 457.492 141.15 457.346C141.167 457.204 141.251 457.089 141.356 457.003C141.462 456.916 141.604 456.845 141.771 456.787C142.107 456.672 142.524 456.62 142.926 456.627Z" stroke="white" stroke-width="0.398714"/>
<path d="M234.641 447.458L239.026 446.283V288.77" stroke="white" stroke-width="0.996786"/>
<path d="M237.246 452.345L128.157 481.933C127.058 482.231 126.957 483.75 128.007 484.191L227.56 525.984C229.434 526.771 231.523 526.883 233.469 526.3L350.17 491.394C351.286 491.06 351.315 489.49 350.212 489.115L242.362 452.505C240.71 451.944 238.929 451.888 237.246 452.345Z" stroke="white" stroke-width="0.398714"/>
<path d="M366.161 674.565L362.492 671.223L365.101 661.033C365.916 657.636 367.856 650.354 369.095 648.397C370.644 645.952 374.231 644.647 376.758 643.588C378.78 642.74 463.902 609.649 506.21 593.209L546.399 608.209L365.101 682.391L366.161 681.005L366.731 678.886L366.161 674.565Z" fill="url(#paint0_linear_7228_283421)" fill-opacity="0.5"/>
<path d="M233.251 467.093C233.251 468.139 232.403 468.987 231.357 468.987C230.311 468.987 229.463 468.139 229.463 467.093C229.463 466.047 230.311 465.199 231.357 465.199C232.403 465.199 233.251 466.047 233.251 467.093Z" stroke="white" stroke-width="0.398714"/>
<path d="M224.678 467.492C224.678 468.538 223.83 469.386 222.784 469.386C221.738 469.386 220.89 468.538 220.89 467.492C220.89 466.446 221.738 465.598 222.784 465.598C223.83 465.598 224.678 466.446 224.678 467.492Z" stroke="white" stroke-width="0.398714"/>
<path d="M216.305 468.09C216.305 469.136 215.457 469.984 214.411 469.984C213.365 469.984 212.517 469.136 212.517 468.09C212.517 467.044 213.365 466.196 214.411 466.196C215.457 466.196 216.305 467.044 216.305 468.09Z" stroke="white" stroke-width="0.398714"/>
<path d="M208.132 468.887C208.132 469.933 207.373 470.781 206.437 470.781C205.501 470.781 204.743 469.933 204.743 468.887C204.743 467.841 205.501 466.993 206.437 466.993C207.373 466.993 208.132 467.841 208.132 468.887Z" stroke="white" stroke-width="0.398714"/>
<path d="M200.556 470.083C200.556 471.129 199.797 471.977 198.862 471.977C197.926 471.977 197.167 471.129 197.167 470.083C197.167 469.038 197.926 468.19 198.862 468.19C199.797 468.19 200.556 469.038 200.556 470.083Z" stroke="white" stroke-width="0.398714"/>
<path d="M193.18 471.878C193.18 472.924 192.466 473.772 191.585 473.772C190.704 473.772 189.99 472.924 189.99 471.878C189.99 470.832 190.704 469.984 191.585 469.984C192.466 469.984 193.18 470.832 193.18 471.878Z" stroke="white" stroke-width="0.398714"/>
<path d="M186.4 473.604C186.445 474.649 185.767 475.526 184.887 475.564C184.007 475.601 183.258 474.785 183.213 473.739C183.169 472.694 183.846 471.817 184.726 471.779C185.606 471.742 186.356 472.559 186.4 473.604Z" stroke="white" stroke-width="0.398714"/>
<path d="M180.419 475.595C180.472 476.639 179.891 477.518 179.122 477.557C178.352 477.596 177.685 476.781 177.632 475.736C177.579 474.692 178.16 473.813 178.929 473.774C179.699 473.735 180.366 474.55 180.419 475.595Z" stroke="white" stroke-width="0.398714"/>
<path d="M174.997 477.88C175.2 478.999 174.838 480.001 174.188 480.119C173.538 480.237 172.847 479.426 172.643 478.307C172.44 477.188 172.803 476.185 173.453 476.067C174.103 475.949 174.794 476.761 174.997 477.88Z" stroke="white" stroke-width="0.398714"/>
<path d="M170.538 480.911C170.891 482.193 170.748 483.35 170.217 483.497C169.686 483.643 168.97 482.722 168.616 481.44C168.263 480.158 168.407 479.001 168.938 478.854C169.468 478.708 170.185 479.629 170.538 480.911Z" stroke="white" stroke-width="0.398714"/>
<path d="M167.29 484.088C168.075 485.161 168.4 486.259 168.014 486.541C167.629 486.823 166.68 486.182 165.894 485.109C165.109 484.036 164.785 482.938 165.17 482.656C165.555 482.374 166.504 483.015 167.29 484.088Z" stroke="white" stroke-width="0.398714"/>
<path d="M242.022 467.093C242.022 468.139 241.174 468.987 240.128 468.987C239.082 468.987 238.235 468.139 238.235 467.093C238.235 466.047 239.082 465.199 240.128 465.199C241.174 465.199 242.022 466.047 242.022 467.093Z" stroke="white" stroke-width="0.398714"/>
<path d="M250.395 467.492C250.395 468.538 249.547 469.386 248.501 469.386C247.455 469.386 246.608 468.538 246.608 467.492C246.608 466.446 247.455 465.598 248.501 465.598C249.547 465.598 250.395 466.446 250.395 467.492Z" stroke="white" stroke-width="0.398714"/>
<path d="M258.37 468.09C258.37 469.136 257.522 469.984 256.476 469.984C255.43 469.984 254.582 469.136 254.582 468.09C254.582 467.044 255.43 466.196 256.476 466.196C257.522 466.196 258.37 467.044 258.37 468.09Z" stroke="white" stroke-width="0.398714"/>
<path d="M265.547 468.688C265.547 469.734 264.788 470.582 263.852 470.582C262.916 470.582 262.157 469.734 262.157 468.688C262.157 467.642 262.916 466.794 263.852 466.794C264.788 466.794 265.547 467.642 265.547 468.688Z" stroke="white" stroke-width="0.398714"/>
<path d="M272.524 469.884C272.524 470.93 271.765 471.778 270.829 471.778C269.894 471.778 269.135 470.93 269.135 469.884C269.135 468.838 269.894 467.99 270.829 467.99C271.765 467.99 272.524 468.838 272.524 469.884Z" stroke="white" stroke-width="0.398714"/>
<path d="M279.103 471.08C279.103 472.126 278.433 472.974 277.608 472.974C276.782 472.974 276.112 472.126 276.112 471.08C276.112 470.034 276.782 469.186 277.608 469.186C278.433 469.186 279.103 470.034 279.103 471.08Z" stroke="white" stroke-width="0.398714"/>
<path d="M284.884 472.476C284.884 473.522 284.215 474.37 283.389 474.37C282.563 474.37 281.894 473.522 281.894 472.476C281.894 471.43 282.563 470.582 283.389 470.582C284.215 470.582 284.884 471.43 284.884 472.476Z" stroke="white" stroke-width="0.398714"/>
<path d="M290.86 474.386C290.78 475.429 290.046 476.222 289.223 476.158C288.4 476.095 287.798 475.197 287.879 474.154C287.96 473.112 288.693 472.318 289.516 472.382C290.34 472.446 290.941 473.343 290.86 474.386Z" stroke="white" stroke-width="0.398714"/>
<path d="M295.862 476.368C295.734 477.406 295.054 478.176 294.344 478.088C293.634 478.001 293.162 477.088 293.29 476.05C293.418 475.012 294.098 474.241 294.809 474.329C295.519 474.417 295.991 475.33 295.862 476.368Z" stroke="white" stroke-width="0.398714"/>
<path d="M299.938 478.689C299.647 479.694 298.982 480.384 298.453 480.23C297.924 480.077 297.732 479.139 298.023 478.134C298.314 477.129 298.979 476.439 299.508 476.592C300.036 476.746 300.229 477.684 299.938 478.689Z" stroke="white" stroke-width="0.398714"/>
<path d="M303.426 481.166C303.019 482.206 302.274 482.887 301.761 482.687C301.248 482.487 301.162 481.481 301.569 480.44C301.975 479.4 302.72 478.718 303.233 478.919C303.746 479.119 303.832 480.125 303.426 481.166Z" stroke="white" stroke-width="0.398714"/>
<path d="M306.17 484.349C305.444 485.281 304.535 485.787 304.14 485.48C303.745 485.172 304.013 484.167 304.739 483.234C305.465 482.302 306.373 481.796 306.768 482.104C307.164 482.411 306.896 483.416 306.17 484.349Z" stroke="white" stroke-width="0.398714"/>
<path d="M307.67 488.155C306.574 488.875 305.492 489.162 305.253 488.797C305.014 488.433 305.708 487.555 306.803 486.836C307.899 486.117 308.981 485.829 309.22 486.194C309.459 486.558 308.765 487.436 307.67 488.155Z" stroke="white" stroke-width="0.398714"/>
<path d="M368.018 503.461C365.426 501.567 366.33 499.95 370.311 498.577L399.337 490.047M545.404 448.131L494.765 463.072" stroke="white" stroke-width="0.996786"/>
<path d="M534.245 397.617L483.533 411.361M371.203 441.417L393.377 435.339" stroke="white" stroke-width="0.996786"/>
<path d="M534.245 394.588L477.836 409.742M371.203 438.388L401 430.383" stroke="white" stroke-width="0.398714"/>
<path d="M505.966 593.188L538.345 606.645C542.19 608.242 546.508 608.273 550.375 606.731L583.317 593.59L589.493 590.923C604.379 584.495 614.018 569.833 614.018 553.619V489.925C614.018 473.777 606.442 466.583 595.976 469.388C590.095 470.964 306.83 564.962 302.921 566.243C285.666 571.901 273.117 589.094 273.117 609.426V687.335C273.117 702.34 287.849 712.913 302.064 708.111L302.921 707.822L364.166 682.228C365.65 681.608 366.616 680.157 366.616 678.549V675.587C366.616 674.322 365.912 673.163 364.79 672.58L361.632 670.938" stroke="white" stroke-width="2.59164"/>
<path d="M280.094 643.725H282.187C282.187 637.08 282.187 627.238 282.187 619.104C282.187 610.971 278.898 581.924 312.091 570.86C337.897 562.258 590.094 477.262 593.782 475.966C597.47 474.67 601.258 474.371 602.355 475.168" stroke="white" stroke-width="0.398714"/>
<path d="M137.555 178.523L256.372 202.247" stroke="white" stroke-width="1.19614"/>
<path d="M232.152 272.023L200.503 263.872C199.872 263.709 199.258 264.185 199.258 264.837V279.109C199.258 280.924 200.483 282.51 202.239 282.968L228.641 289.848C230.952 290.45 233.369 290.526 235.713 290.069L270.528 283.287L232.152 272.023Z" stroke="white" stroke-width="1.19614"/>
<path d="M126.07 453.406C95.9076 461.245 66.1158 468.996 65.0923 469.321C51.695 473.579 41.8672 487.571 41.8672 504.174L41.9366 560.55C41.9552 575.611 50.4587 589.377 63.9187 596.134L285.581 707.419M171.424 441.544C218.276 429.399 237.386 424.631 239.031 424.631" stroke="white" stroke-width="1.19614"/>
<path d="M279.701 645.112V609.861C279.701 591.546 291.003 576.058 306.544 570.962C310.064 569.807 591.504 474.803 595.782 473.772C603.059 472.018 609.039 474.465 609.039 489.417V521.411L279.701 645.112ZM279.701 645.112V672.715M365.724 674.425L301.596 700.694C291.102 704.993 279.602 697.275 279.602 685.936V672.715M606.988 522.382V551.043C606.988 566.454 597.651 580.329 583.374 586.132L547.769 600.605C545.323 601.599 542.582 601.582 540.149 600.558L515.042 589.99" stroke="white" stroke-width="1.19614"/>
<path d="M280.195 657.082L284.36 659.078C286.346 660.03 288.636 660.119 290.69 659.323L341.597 639.591M597.971 525.605V537.7C597.971 540.197 596.419 542.431 594.079 543.304L560.99 555.637M341.597 639.591L343.622 638.806C343.738 638.762 343.854 638.721 343.97 638.684M341.597 639.591L343.97 638.684M560.99 555.637L560.796 555.711M560.99 555.637C560.925 555.661 560.86 555.686 560.796 555.711M343.97 638.684L560.796 555.711M343.97 638.684C347.787 637.459 351.765 640.303 351.765 644.383V669.553C351.765 672.368 354.604 674.297 357.221 673.259L359.874 672.208C361.722 671.475 363.085 669.873 363.511 667.932L366.739 653.257C367.597 649.356 370.345 646.141 374.066 644.686L528.269 584.398C531.241 583.236 534.603 584.613 535.906 587.527L540.967 598.845C541.796 600.697 543.938 601.568 545.824 600.818L547.266 600.245C548.779 599.644 549.834 598.254 550.007 596.635L553.333 565.499C553.803 561.095 556.684 557.326 560.796 555.711" stroke="white" stroke-width="1.79421"/>
<path d="M353.861 673.328L306.016 653.791" stroke="white" stroke-width="1.79421"/>
<path d="M273.116 607.839L41.9609 504.373" stroke="white" stroke-width="1.79421"/>
<path d="M368.608 317.077L261.055 285.279" stroke="white" stroke-width="1.79421"/>
<path d="M199.058 265.344L132.273 242.318" stroke="white" stroke-width="1.19614"/>
<path d="M333.125 625.185V628.206C333.125 628.767 333.689 629.152 334.211 628.949L351.854 622.093C352.161 621.974 352.363 621.679 352.363 621.35V617.809M392.733 603.156V606.177C392.733 606.738 393.296 607.123 393.819 606.92L411.462 600.064C411.769 599.945 411.971 599.65 411.971 599.321V595.78M448.752 582.423V585.444C448.752 586.005 449.316 586.39 449.838 586.187L467.482 579.331C467.788 579.212 467.99 578.917 467.99 578.588V575.047M500.386 562.686V565.707C500.386 566.268 500.949 566.654 501.472 566.451L519.115 559.595C519.422 559.475 519.624 559.18 519.624 558.851V555.31M549.826 543.548V546.569C549.826 547.13 550.39 547.516 550.913 547.312L568.556 540.456C568.862 540.337 569.064 540.042 569.064 539.713V536.172" stroke="white" stroke-width="1.19614"/>
<path fill-rule="evenodd" clip-rule="evenodd" d="M236.078 479.312C267.525 479.312 293.758 485.797 299.796 494.415C291.618 502.066 266.187 507.647 236.078 507.647C205.968 507.647 180.536 502.066 172.359 494.415C178.396 485.797 204.63 479.313 236.078 479.312Z" fill="#E4255B" fill-opacity="0.33"/>
<path d="M232.981 272.365L199.9 263.838C199.637 267.928 199.109 276.493 199.109 278.032C199.109 279.956 199.9 282.363 202.694 282.951C205.487 283.539 219.308 286.626 223.571 288.538C226.982 290.067 231.266 290.253 232.981 290.155V272.365Z" fill="#D9D9D9" fill-opacity="0.07"/>
<path d="M256.385 202.359L137.426 178.564C136.897 179.221 135.822 180.691 135.756 181.318C135.673 182.101 128.68 235.099 128.68 235.345C128.68 235.592 128.821 238.202 129.174 239.189C129.456 239.979 130.857 241.166 131.522 241.661L261.945 273.106H263.488C262.662 271.753 260.979 268.706 260.849 267.342C260.687 265.638 255.613 207.067 255.451 205.2C255.321 203.706 256.019 202.683 256.385 202.359Z" fill="#D9D9D9" fill-opacity="0.07"/>
<path d="M369.16 317.185L261.945 284.923L239.107 289.459L238.722 436.005V446.709L368.291 491.942C368.648 491.942 369.462 491.867 369.865 491.565L369.928 491.517C370.4 491.165 370.747 490.906 370.747 490.242V444.404C370.537 408.724 370.243 335.865 370.747 329.871C371.251 323.877 369.899 318.916 369.16 317.185Z" fill="#D9D9D9" fill-opacity="0.07"/>
<path d="M273.069 607.823L41.9462 504.635L41.4219 544.246C41.6654 551.491 41.9462 566.711 41.9462 566.711C41.9462 566.711 232.747 658.426 273.069 677.778V607.823Z" fill="#D9D9D9" fill-opacity="0.07"/>
<path d="M117.893 462.708C116.654 461.538 116.573 459.925 116.688 459.265C116 459.265 112.987 464.602 112.729 466.323C112.471 468.045 114.364 470.455 115.655 471.488C116.946 472.521 120.131 473.812 120.561 475.275C120.906 476.445 119.385 477.828 118.582 478.373C118.783 478.517 120.097 478.356 123.746 476.566C128.308 474.328 127.878 472.865 128.222 471.488C128.566 470.111 126.759 468.131 124.779 466.926C122.799 465.721 119.442 464.172 117.893 462.708Z" fill="#D9D9D9" fill-opacity="0.07"/>
<path d="M332.233 545.314L330.597 535.499C326.793 535.778 318.559 536.335 316.056 536.335H303.827L303.353 547.332C304.841 547.522 309.23 547.901 314.883 547.901C320.537 547.901 328.805 546.177 332.233 545.314Z" fill="#D9D9D9" fill-opacity="0.07"/>
<path d="M290.18 545.831L292.283 533.972L287.152 532.374C286.115 535.346 283.923 541.744 283.452 543.561C284.394 544.166 288.33 545.327 290.18 545.831Z" fill="#D9D9D9" fill-opacity="0.07"/>
<path d="M228.748 546.918L232.499 532.374L230.15 531.768L112.617 482.077L111.726 481.111L110.24 482.597C108.544 485.914 105.108 492.758 104.93 493.59C104.751 494.421 105.648 495.026 106.118 495.224C143.855 511.32 219.921 543.779 222.291 544.84C224.662 545.901 227.583 546.668 228.748 546.918Z" fill="#D9D9D9" fill-opacity="0.07"/>
<path d="M278.565 586.775C280.63 581.148 281.819 581.378 283.452 579.864L49.7036 480.407C48.2747 481.996 46.6605 483.796 45.7835 486.419C44.9065 489.041 43.6891 492.225 42.883 495.224L274.691 596.811C274.988 595.119 276.499 592.402 278.565 586.775Z" fill="#D9D9D9" fill-opacity="0.07"/>
<path d="M477.617 413.127H477.119V413.79L477.755 413.606L477.617 413.127ZM399.023 433.632L399.148 434.115V434.115L399.023 433.632ZM484.24 411.218L484.378 411.697L484.24 411.218ZM392.352 437.527H391.853L391.853 437.528L392.352 437.527ZM394.439 434.826L394.313 434.344V434.344L394.439 434.826ZM394.636 483.617L394.5 483.138L394.636 483.617ZM392.399 484.269L391.9 484.27C391.9 484.427 391.975 484.575 392.101 484.669C392.227 484.763 392.391 484.792 392.541 484.747L392.399 484.269ZM484.503 458.085L484.367 457.605L484.503 458.085ZM486.531 457.487L486.679 457.963L487.029 457.854V457.487H486.531ZM475.385 401.378L475.506 401.861V401.861L475.385 401.378ZM403.219 419.558L403.098 419.075L403.219 419.558ZM403.219 419.558L403.341 420.041L475.506 401.861L475.385 401.378L475.263 400.894L403.098 419.075L403.219 419.558ZM484.503 458.085L484.367 457.605L394.5 483.138L394.636 483.617L394.772 484.096L484.639 458.564L484.503 458.085ZM392.399 484.269L392.897 484.269L392.85 437.527L392.352 437.527L391.853 437.528L391.9 484.27L392.399 484.269ZM486.531 412.942H486.033V457.487H486.531H487.029V412.942H486.531ZM477.617 403.117H477.119V413.127H477.617H478.116V403.117H477.617ZM477.617 413.127L477.755 413.606L484.378 411.697L484.24 411.218L484.102 410.739L477.479 412.648L477.617 413.127ZM394.439 434.826L394.565 435.309L399.148 434.115L399.023 433.632L398.897 433.15L394.313 434.344L394.439 434.826ZM401.11 430.931H401.609V422.264H401.11H400.612V430.931H401.11ZM399.023 433.632L399.148 434.115C400.597 433.737 401.609 432.429 401.609 430.931H401.11H400.612C400.612 431.975 399.907 432.887 398.897 433.15L399.023 433.632ZM486.531 412.942H487.029C487.029 411.416 485.567 410.316 484.102 410.739L484.24 411.218L484.378 411.697C485.206 411.458 486.033 412.079 486.033 412.942H486.531ZM392.352 437.527H392.85C392.85 436.484 393.555 435.572 394.565 435.309L394.439 434.826L394.313 434.344C392.864 434.722 391.853 436.03 391.853 437.527H392.352ZM394.636 483.617L394.5 483.138C393.925 483.301 393.364 483.464 392.947 483.587C392.739 483.648 392.566 483.7 392.445 483.735C392.385 483.753 392.337 483.767 392.305 483.777C392.289 483.782 392.277 483.786 392.268 483.788C392.264 483.789 392.261 483.79 392.259 483.791C392.258 483.791 392.257 483.791 392.256 483.792C392.256 483.792 392.256 483.792 392.256 483.792C392.256 483.792 392.256 483.792 392.256 483.792C392.256 483.792 392.256 483.792 392.256 483.792C392.256 483.792 392.256 483.792 392.399 484.269C392.541 484.747 392.541 484.747 392.541 484.747C392.542 484.747 392.542 484.747 392.542 484.747C392.542 484.747 392.542 484.747 392.542 484.747C392.542 484.747 392.542 484.747 392.542 484.747C392.543 484.746 392.544 484.746 392.545 484.746C392.547 484.745 392.55 484.744 392.554 484.743C392.562 484.741 392.574 484.737 392.59 484.732C392.622 484.723 392.669 484.709 392.729 484.691C392.849 484.655 393.021 484.604 393.228 484.543C393.644 484.421 394.202 484.259 394.772 484.096L394.636 483.617ZM484.503 458.085L484.639 458.564C485.242 458.393 485.751 458.243 486.11 458.136C486.289 458.082 486.431 458.039 486.528 458.009C486.577 457.994 486.614 457.983 486.64 457.975C486.652 457.971 486.662 457.968 486.669 457.966C486.672 457.965 486.674 457.964 486.676 457.964C486.677 457.964 486.678 457.963 486.678 457.963C486.678 457.963 486.678 457.963 486.678 457.963C486.679 457.963 486.679 457.963 486.679 457.963C486.679 457.963 486.679 457.963 486.679 457.963C486.679 457.963 486.679 457.963 486.531 457.487C486.383 457.011 486.383 457.011 486.383 457.011C486.383 457.011 486.383 457.011 486.383 457.011C486.383 457.011 486.383 457.011 486.383 457.011C486.383 457.011 486.383 457.011 486.383 457.011C486.383 457.011 486.382 457.011 486.381 457.012C486.38 457.012 486.377 457.013 486.374 457.014C486.368 457.016 486.359 457.019 486.347 457.022C486.322 457.03 486.285 457.041 486.237 457.056C486.142 457.085 486.002 457.127 485.824 457.181C485.469 457.287 484.964 457.436 484.367 457.605L484.503 458.085ZM475.385 401.378L475.506 401.861C476.325 401.655 477.119 402.273 477.119 403.117H477.617H478.116C478.116 401.624 476.711 400.529 475.263 400.894L475.385 401.378ZM403.219 419.558L403.098 419.075C401.636 419.443 400.612 420.757 400.612 422.264H401.11H401.609C401.609 421.214 402.322 420.298 403.341 420.041L403.219 419.558Z" fill="white"/>
<path d="M403.719 481.145V422.778C403.719 422.322 404.029 421.924 404.471 421.812L477.427 403.357V460.323" stroke="white" stroke-width="0.398714"/>
<path d="M392.5 484.146L397.64 486.619C400.73 488.107 404.26 488.404 407.555 487.454L493.841 462.586C494.554 462.381 494.625 461.399 493.949 461.093L486.33 457.652" stroke="white" stroke-width="0.996786"/>
<path d="M494.7 461.596V464.079C494.7 464.434 494.466 464.746 494.125 464.845L407.578 489.944C404.271 490.903 400.726 490.606 397.625 489.109L393.365 487.053C392.607 486.687 392.125 485.92 392.125 485.078V483.833" stroke="white" stroke-width="0.398714"/>
<path d="M263.651 273.517L133.146 242.381C130.38 241.721 128.552 239.087 128.902 236.264L135.641 181.924C135.949 179.442 137.871 177.467 140.344 177.092L160.484 174.038M270.429 196.267L168.956 175.751M367.616 492.565L369.228 492.133C370.1 491.899 370.706 491.11 370.706 490.207V325.253C370.706 315.802 364.651 307.414 355.68 304.438L266.877 274.983C263.469 273.853 261.063 270.799 260.762 267.221L255.541 204.99C255.393 203.22 256.636 201.635 258.391 201.359L277.685 198.319C304.197 194.162 332.468 190.633 359.852 186.799C361.661 186.545 363.467 186.795 365.092 187.472M604.452 468.69L541.712 446.564C536.903 444.892 533.68 440.358 533.68 435.267V291.823C533.68 283.636 532.71 275.477 530.791 267.518C522.818 234.463 518.031 201.849 510.706 169.951C510.409 168.655 507.938 165.648 503.278 166.362L496.224 167.368M496.224 167.368L425.635 177.43C423.272 177.766 421.335 179.476 420.708 181.78L417.11 194.999C416.288 198.017 413.778 200.276 410.691 200.776L386.034 204.771C383.106 205.245 380.164 204.36 377.998 202.444M496.224 167.368L486.086 165.648M377.998 202.444C377.463 201.97 376.975 201.434 376.547 200.839L369.346 190.847C368.247 189.322 366.765 188.17 365.092 187.472M377.998 202.444L405.208 198.393C408.296 197.892 410.806 195.633 411.627 192.615L415.226 179.396C415.853 177.093 417.789 175.383 420.153 175.046L486.086 165.648M377.998 202.444L377.982 202.446M365.092 187.472C363.125 186.486 360.887 185.627 359.641 185.102C358.008 184.414 356.191 184.16 354.37 184.415C326.985 188.249 298.714 191.779 272.202 195.935L269.831 196.309M365.092 187.472C365.746 187.801 366.37 188.143 366.918 188.491M486.086 165.648L389.19 149.211C384.931 148.489 380.589 148.4 376.305 148.946L313.269 156.902C310.901 157.197 308.935 158.873 308.268 161.165L304.618 173.708C303.744 176.711 301.195 178.926 298.099 179.372L275.432 183.163C272.803 183.542 270.183 182.831 268.132 181.276M383.365 148.946V188.591M383.365 188.591L410.378 194.971M383.365 188.591L370.606 191.382M160.484 174.038C186.28 170.452 217.959 166.334 245.178 162.915C247.253 162.655 249.311 163.057 251.091 164.004L255.17 166.056M505.371 166.285L389.19 146.42C384.931 145.698 380.589 145.609 376.305 146.155L309.482 154.51C307.113 154.805 305.147 156.481 304.48 158.773L300.83 171.315C299.956 174.319 297.407 176.534 294.312 176.98L270.648 180.77L268.132 181.276M268.132 181.276L267.937 181.315M268.132 181.276C267.327 180.664 266.609 179.922 266.014 179.065L259.382 169.512C258.525 168.278 257.42 167.278 256.164 166.555M255.17 166.056L256.164 166.555M255.17 166.056C255.51 166.204 255.842 166.37 256.164 166.555M255.17 166.056C253.562 165.356 251.768 165.081 249.962 165.308C222.744 168.726 194.753 172.147 168.956 175.733M256.164 166.555L256.574 166.762" stroke="white" stroke-width="1.19614"/>
<g clip-path="url(#clip0_7228_283421)">
<path opacity="0.5" d="M439.5 367C439.5 416.706 399.206 457 349.5 457C299.794 457 259.5 416.706 259.5 367" stroke="white"/>
<g filter="url(#filter0_d_7228_283421)">
<circle cx="349.5" cy="360" r="87" fill="#1B1B2D"/>
<circle cx="349.5" cy="360" r="87" fill="url(#paint1_linear_7228_283421)" fill-opacity="0.4"/>
</g>
<circle cx="350" cy="359.5" r="87.5" stroke="#E4255B" stroke-width="8"/>
<path d="M339.356 324C339.356 322.343 340.699 321 342.356 321H357.887C359.544 321 360.887 322.343 360.887 324V332.678C360.887 344.173 358.928 356.647 357.733 368.172C357.573 369.713 356.28 370.892 354.731 370.892H345.623C344.087 370.892 342.8 369.733 342.627 368.207C341.318 356.672 339.356 344.184 339.356 332.678V324ZM341.5 403.403C339.843 403.403 338.5 402.06 338.5 400.403V385.3C338.5 383.643 339.843 382.3 341.5 382.3H358.315C359.972 382.3 361.315 383.643 361.315 385.3V400.403C361.315 402.06 359.972 403.403 358.315 403.403H341.5Z" fill="#E4255B"/>
<circle cx="349.5" cy="360" r="83" stroke="white" stroke-width="2"/>
</g>
<defs>
<filter id="filter0_d_7228_283421" x="214.5" y="249" width="270" height="270" filterUnits="userSpaceOnUse" color-interpolation-filters="sRGB">
<feFlood flood-opacity="0" result="BackgroundImageFix"/>
<feColorMatrix in="SourceAlpha" type="matrix" values="0 0 0 0 0 0 0 0 0 0 0 0 0 0 0 0 0 0 127 0" result="hardAlpha"/>
<feOffset dy="24"/>
<feGaussianBlur stdDeviation="24"/>
<feComposite in2="hardAlpha" operator="out"/>
<feColorMatrix type="matrix" values="0 0 0 0 0.894118 0 0 0 0 0.145098 0 0 0 0 0.356863 0 0 0 0.5 0"/>
<feBlend mode="normal" in2="BackgroundImageFix" result="effect1_dropShadow_7228_283421"/>
<feBlend mode="normal" in="SourceGraphic" in2="effect1_dropShadow_7228_283421" result="shape"/>
</filter>
<linearGradient id="paint0_linear_7228_283421" x1="437.538" y1="613.056" x2="454.446" y2="648.335" gradientUnits="userSpaceOnUse">
<stop/>
<stop offset="1" stop-opacity="0"/>
</linearGradient>
<linearGradient id="paint1_linear_7228_283421" x1="436.5" y1="470.745" x2="282.527" y2="330.108" gradientUnits="userSpaceOnUse">
<stop stop-color="#E4255B"/>
<stop offset="1" stop-color="#E4255B" stop-opacity="0.2"/>
</linearGradient>
<clipPath id="clip0_7228_283421">
<rect width="240" height="240" fill="white" transform="translate(229.5 253)"/>
</clipPath>
</defs>
</svg>
