<svg width="600" height="600" viewBox="30 125 600 600" fill="none" xmlns="http://www.w3.org/2000/svg">
<ellipse cx="317.515" cy="528.762" rx="22.5934" ry="8.26978" stroke="white" stroke-width="1.16632"/>
<ellipse cx="147.864" cy="464.317" rx="18.5589" ry="5.7485" stroke="white" stroke-width="1.16632"/>
<path d="M334.457 533.979C336.622 532.81 337.884 531.404 337.884 529.893C337.884 525.829 328.765 522.535 317.516 522.535C306.267 522.535 297.148 525.829 297.148 529.893C297.148 531.404 298.411 532.81 300.576 533.979" stroke="white" stroke-width="0.466527" stroke-linecap="round"/>
<path d="M161.764 467.9C163.539 467.106 164.575 466.152 164.575 465.126C164.575 462.367 157.095 460.131 147.869 460.131C138.643 460.131 131.164 462.367 131.164 465.126C131.164 466.152 132.199 467.106 133.975 467.9" stroke="white" stroke-width="0.466527" stroke-linecap="round"/>
<path d="M368.961 511.012L369.243 510.502L368.961 511.012ZM241.066 452.015L241.258 451.464L241.105 451.41L240.946 451.444L241.066 452.015ZM373.5 498.003L373.667 498.561C373.91 498.489 374.078 498.268 374.083 498.015C374.089 497.762 373.93 497.535 373.691 497.452L373.5 498.003ZM232.108 537.716L232.335 537.179V537.179L232.108 537.716ZM113.865 487.555L113.637 488.091L113.865 487.555ZM114.001 485.651L113.851 485.088L113.851 485.088L114.001 485.651ZM246.109 535.851L246.284 536.407L246.291 536.405L246.109 535.851ZM239.059 538.057L238.885 537.5V537.5L239.059 538.057ZM121.14 483.762L121.289 484.326L121.299 484.323L121.308 484.32L121.14 483.762ZM124.266 471.547L124.032 472.081L124.037 472.083L124.266 471.547ZM205.26 449.167L205.465 448.621L205.462 448.62L205.26 449.167ZM207.176 449.886L207.417 449.354L207.399 449.346L207.381 449.34L207.176 449.886ZM342.274 538.746L342.057 538.205L342.274 538.746ZM141.69 454.503L141.848 455.065L141.69 454.503ZM316.916 542.881V542.298C306.896 542.298 297.899 540.69 291.616 538.141L291.397 538.682L291.178 539.222C297.636 541.842 306.79 543.464 316.916 543.464V542.881ZM368.961 511.012L368.679 511.523C370.884 512.741 372.784 514.073 374.191 515.461C375.603 516.853 376.479 518.26 376.722 519.626C376.959 520.961 376.606 522.339 375.384 523.744C374.145 525.168 372.017 526.611 368.735 527.994L368.961 528.531L369.188 529.069C372.55 527.652 374.86 526.123 376.264 524.509C377.684 522.876 378.177 521.151 377.87 519.422C377.569 517.725 376.511 516.111 375.01 514.63C373.503 513.145 371.507 511.752 369.243 510.502L368.961 511.012ZM241.066 452.015L240.875 452.565L373.309 498.553L373.5 498.003L373.691 497.452L241.258 451.464L241.066 452.015ZM232.108 537.716L232.335 537.179L114.093 487.018L113.865 487.555L113.637 488.091L231.88 538.253L232.108 537.716ZM113.865 487.555L114.093 487.018C113.719 486.859 113.758 486.319 114.15 486.215L114.001 485.651L113.851 485.088C112.385 485.476 112.241 487.499 113.637 488.091L113.865 487.555ZM266.08 532.796V533.379C276.851 533.379 284.859 536.454 291.367 539.281L291.599 538.746L291.831 538.211C285.274 535.363 277.091 532.213 266.08 532.213V532.796ZM246.109 535.851L246.291 536.405C252.178 534.481 259.48 533.379 266.08 533.379V532.796V532.213C259.367 532.213 251.943 533.33 245.928 535.296L246.109 535.851ZM239.059 538.057L239.234 538.613L246.284 536.407L246.109 535.851L245.935 535.294L238.885 537.5L239.059 538.057ZM114.001 485.651L114.15 486.215L121.289 484.326L121.14 483.762L120.991 483.198L113.851 485.088L114.001 485.651ZM232.108 537.716L231.88 538.253C234.211 539.241 236.817 539.369 239.234 538.613L239.059 538.057L238.885 537.5C236.733 538.173 234.411 538.06 232.335 537.179L232.108 537.716ZM368.961 511.012L369.243 510.502C366.566 509.023 365.409 507.01 365.409 505.258H364.826H364.243C364.243 507.554 365.748 509.903 368.679 511.523L368.961 511.012ZM364.826 505.258H365.409C365.409 503.994 365.907 502.809 367.171 501.693C368.456 500.559 370.533 499.499 373.667 498.561L373.5 498.003L373.333 497.444C370.126 498.404 367.865 499.524 366.399 500.819C364.911 502.132 364.243 503.625 364.243 505.258H364.826ZM124.266 471.547L124.501 471.013C122.58 470.17 121.052 469.202 120.014 468.186C118.972 467.168 118.469 466.151 118.469 465.194H117.886H117.303C117.303 466.579 118.03 467.878 119.198 469.02C120.37 470.166 122.032 471.203 124.032 472.081L124.266 471.547ZM183.07 445.852V446.435C191.81 446.435 199.644 447.707 205.057 449.714L205.26 449.167L205.462 448.62C199.884 446.552 191.904 445.268 183.07 445.268V445.852ZM227.552 453.315V452.731C219.234 452.731 211.911 451.387 207.417 449.354L207.176 449.886L206.936 450.417C211.636 452.543 219.142 453.898 227.552 453.898V453.315ZM241.066 452.015L240.946 451.444C237.082 452.258 232.487 452.731 227.552 452.731V453.315V453.898C232.558 453.898 237.234 453.418 241.187 452.585L241.066 452.015ZM124.266 471.547L124.037 472.083C125.765 472.823 127.108 473.663 128.01 474.541C128.911 475.42 129.332 476.295 129.332 477.126H129.915H130.498C130.498 475.875 129.862 474.718 128.824 473.706C127.785 472.694 126.304 471.785 124.496 471.011L124.266 471.547ZM129.915 477.126H129.332C129.332 478.177 128.656 479.277 127.199 480.356C125.753 481.426 123.629 482.401 120.971 483.204L121.14 483.762L121.308 484.32C124.034 483.497 126.298 482.474 127.893 481.293C129.478 480.12 130.498 478.716 130.498 477.126H129.915ZM207.176 449.886L207.381 449.34L205.465 448.621L205.26 449.167L205.055 449.713L206.971 450.432L207.176 449.886ZM342.274 538.746L342.057 538.205C335.782 540.717 326.851 542.298 316.916 542.298V542.881V543.464C326.957 543.464 336.043 541.868 342.491 539.288L342.274 538.746ZM368.961 528.531L368.735 527.994C362.102 530.788 358.045 532.295 354.345 533.625C350.642 534.956 347.28 536.115 342.057 538.205L342.274 538.746L342.491 539.288C347.689 537.207 351.027 536.057 354.74 534.723C358.456 533.387 362.532 531.872 369.188 529.069L368.961 528.531ZM117.886 465.194H118.469C118.469 464.427 118.971 463.614 120.148 462.736C121.313 461.868 123.027 461.024 125.185 460.181C129.497 458.496 135.412 456.877 141.848 455.065L141.69 454.503L141.532 453.942C135.127 455.746 129.14 457.383 124.76 459.094C122.572 459.949 120.743 460.838 119.451 461.801C118.172 462.755 117.303 463.87 117.303 465.194H117.886ZM141.69 454.503L141.848 455.065C149.261 452.977 157.37 450.817 164.733 449.18C172.11 447.54 178.691 446.435 183.07 446.435V445.852V445.268C178.551 445.268 171.859 446.401 164.48 448.042C157.086 449.686 148.953 451.852 141.532 453.942L141.69 454.503Z" fill="white"/>
<path d="M289.126 550.653C296.052 553.319 305.517 554.18 316.47 554.18C327.788 554.18 338.131 552.296 345.568 549.038C356.201 545.406 378.769 537.592 382.658 531.517C386.546 525.442 384.952 517.385 372.008 509.136M289.345 550.719C282.242 547.79 278.121 545.406 266.28 545.406C256.94 545.406 250.284 548.703 241.366 551.352C236.727 553.254 230.977 554.18 227.28 552.277L106.739 500.715C106.21 500.489 105.975 499.872 106.225 499.354C107.257 497.22 109.784 491.992 111.188 489.103C111.763 487.92 112.552 486.856 113.514 485.958L113.572 485.904M119.019 462.805C117.506 464.116 116.397 465.931 114.581 470.167C112.967 473.932 116.497 477.081 120.229 478.739C123.054 479.994 122.347 483.177 119.422 484.185" stroke="white" stroke-width="1.16632"/>
<ellipse cx="239.05" cy="493.161" rx="76.2527" ry="23.9017" stroke="white" stroke-width="1.16632"/>
<ellipse cx="239.046" cy="494.876" rx="67.7802" ry="18.96" stroke="white" stroke-width="1.16632"/>
<path d="M303.8 500.523C303.185 499.296 302.108 498.11 300.619 496.977C291.595 490.109 267.433 485.193 239.043 485.193C210.654 485.193 186.492 490.109 177.468 496.977C175.981 498.108 174.905 499.293 174.289 500.518" stroke="white" stroke-width="1.16632"/>
<path d="M312.437 526.395C312.93 526.403 313.437 526.488 313.832 526.664L317.842 528.446L322.222 526.808C322.643 526.65 323.161 526.583 323.655 526.592C324.149 526.6 324.656 526.686 325.051 526.861C325.413 527.022 325.778 527.314 325.732 527.75C325.711 527.957 325.595 528.125 325.455 528.25C325.315 528.375 325.131 528.476 324.921 528.555L321.208 529.942L324.567 531.437C324.929 531.597 325.296 531.889 325.25 532.325C325.228 532.532 325.113 532.7 324.973 532.825C324.832 532.95 324.648 533.051 324.438 533.13C324.016 533.287 323.499 533.354 323.004 533.346C322.511 533.337 322.004 533.253 321.609 533.077L317.598 531.294L313.219 532.933C312.798 533.09 312.28 533.158 311.785 533.149C311.292 533.141 310.786 533.055 310.391 532.88C310.029 532.719 309.662 532.427 309.708 531.991C309.73 531.784 309.845 531.617 309.985 531.491C310.125 531.366 310.309 531.265 310.52 531.187L314.231 529.798L310.873 528.305C310.511 528.144 310.146 527.852 310.191 527.416C310.213 527.209 310.328 527.041 310.468 526.916C310.608 526.791 310.792 526.69 311.003 526.611C311.424 526.454 311.942 526.386 312.437 526.395Z" stroke="white" stroke-width="0.69979"/>
<path d="M144.621 461.967C145.03 461.973 145.446 462.038 145.767 462.169L149.173 463.561L152.891 462.282C153.234 462.164 153.659 462.113 154.068 462.119C154.477 462.126 154.893 462.19 155.214 462.321C155.374 462.387 155.511 462.469 155.608 462.571C155.708 462.677 155.776 462.816 155.758 462.976C155.74 463.13 155.648 463.252 155.538 463.343C155.427 463.434 155.28 463.508 155.108 463.567L151.894 464.673L154.808 465.863C154.968 465.929 155.105 466.011 155.202 466.113C155.302 466.219 155.37 466.359 155.352 466.519C155.334 466.672 155.242 466.795 155.132 466.886C155.021 466.977 154.874 467.05 154.702 467.109C154.359 467.228 153.933 467.279 153.523 467.272C153.115 467.266 152.7 467.201 152.379 467.07L148.972 465.678L145.255 466.957C144.911 467.075 144.486 467.127 144.076 467.12C143.668 467.114 143.252 467.049 142.931 466.918C142.771 466.853 142.634 466.77 142.536 466.668C142.436 466.563 142.369 466.423 142.387 466.264C142.404 466.11 142.497 465.987 142.607 465.896C142.718 465.805 142.865 465.731 143.036 465.672L146.25 464.565L143.338 463.376C143.178 463.311 143.041 463.228 142.943 463.126C142.843 463.021 142.775 462.881 142.793 462.721C142.811 462.567 142.904 462.444 143.014 462.354C143.124 462.263 143.271 462.189 143.442 462.13C143.786 462.012 144.212 461.96 144.621 461.967Z" stroke="white" stroke-width="0.466527"/>
<path d="M237.43 452.721L241.868 451.532V292.166" stroke="white" stroke-width="1.16632"/>
<path d="M240.061 457.665L129.675 487.601C128.563 487.903 128.461 489.439 129.523 489.885L230.26 532.17C232.156 532.966 234.27 533.079 236.24 532.49L354.327 497.173C355.457 496.835 355.486 495.247 354.37 494.868L245.237 457.826C243.566 457.259 241.764 457.203 240.061 457.665Z" stroke="white" stroke-width="0.466527"/>
<path d="M236.023 472.588C236.023 473.646 235.165 474.504 234.106 474.504C233.048 474.504 232.19 473.646 232.19 472.588C232.19 471.53 233.048 470.672 234.106 470.672C235.165 470.672 236.023 471.53 236.023 472.588Z" stroke="white" stroke-width="0.466527"/>
<path d="M227.348 472.991C227.348 474.05 226.49 474.908 225.432 474.908C224.374 474.908 223.516 474.05 223.516 472.991C223.516 471.933 224.374 471.075 225.432 471.075C226.49 471.075 227.348 471.933 227.348 472.991Z" stroke="white" stroke-width="0.466527"/>
<path d="M218.876 473.597C218.876 474.655 218.018 475.513 216.96 475.513C215.901 475.513 215.043 474.655 215.043 473.597C215.043 472.538 215.901 471.68 216.96 471.68C218.018 471.68 218.876 472.538 218.876 473.597Z" stroke="white" stroke-width="0.466527"/>
<path d="M210.605 474.403C210.605 475.462 209.837 476.32 208.89 476.32C207.943 476.32 207.176 475.462 207.176 474.403C207.176 473.345 207.943 472.487 208.89 472.487C209.837 472.487 210.605 473.345 210.605 474.403Z" stroke="white" stroke-width="0.466527"/>
<path d="M202.94 475.614C202.94 476.672 202.172 477.53 201.225 477.53C200.278 477.53 199.51 476.672 199.51 475.614C199.51 474.555 200.278 473.697 201.225 473.697C202.172 473.697 202.94 474.555 202.94 475.614Z" stroke="white" stroke-width="0.466527"/>
<path d="M195.476 477.429C195.476 478.487 194.753 479.345 193.862 479.345C192.971 479.345 192.248 478.487 192.248 477.429C192.248 476.371 192.971 475.513 193.862 475.513C194.753 475.513 195.476 476.371 195.476 477.429Z" stroke="white" stroke-width="0.466527"/>
<path d="M188.615 479.175C188.66 480.233 187.975 481.12 187.085 481.158C186.194 481.196 185.436 480.37 185.391 479.313C185.346 478.255 186.031 477.367 186.922 477.33C187.812 477.292 188.57 478.118 188.615 479.175Z" stroke="white" stroke-width="0.466527"/>
<path d="M182.563 481.19C182.617 482.247 182.029 483.135 181.25 483.175C180.471 483.214 179.796 482.39 179.743 481.333C179.689 480.276 180.277 479.387 181.056 479.348C181.835 479.308 182.51 480.133 182.563 481.19Z" stroke="white" stroke-width="0.466527"/>
<path d="M177.077 483.501C177.282 484.634 176.916 485.648 176.258 485.768C175.6 485.887 174.901 485.066 174.695 483.934C174.49 482.801 174.856 481.787 175.514 481.668C176.172 481.548 176.871 482.369 177.077 483.501Z" stroke="white" stroke-width="0.466527"/>
<path d="M172.565 486.568C172.922 487.865 172.777 489.036 172.24 489.184C171.703 489.332 170.978 488.401 170.62 487.104C170.263 485.807 170.408 484.636 170.945 484.488C171.482 484.34 172.208 485.271 172.565 486.568Z" stroke="white" stroke-width="0.466527"/>
<path d="M169.278 489.782C170.073 490.868 170.401 491.979 170.011 492.265C169.621 492.55 168.661 491.901 167.866 490.816C167.071 489.73 166.743 488.619 167.133 488.334C167.523 488.048 168.483 488.697 169.278 489.782Z" stroke="white" stroke-width="0.466527"/>
<path d="M244.899 472.588C244.899 473.646 244.041 474.504 242.982 474.504C241.924 474.504 241.066 473.646 241.066 472.588C241.066 471.53 241.924 470.672 242.982 470.672C244.041 470.672 244.899 471.53 244.899 472.588Z" stroke="white" stroke-width="0.466527"/>
<path d="M253.371 472.991C253.371 474.05 252.513 474.908 251.455 474.908C250.396 474.908 249.538 474.05 249.538 472.991C249.538 471.933 250.396 471.075 251.455 471.075C252.513 471.075 253.371 471.933 253.371 472.991Z" stroke="white" stroke-width="0.466527"/>
<path d="M261.44 473.597C261.44 474.655 260.582 475.513 259.524 475.513C258.466 475.513 257.608 474.655 257.608 473.597C257.608 472.538 258.466 471.68 259.524 471.68C260.582 471.68 261.44 472.538 261.44 473.597Z" stroke="white" stroke-width="0.466527"/>
<path d="M268.702 474.202C268.702 475.26 267.935 476.118 266.988 476.118C266.041 476.118 265.273 475.26 265.273 474.202C265.273 473.143 266.041 472.285 266.988 472.285C267.935 472.285 268.702 473.143 268.702 474.202Z" stroke="white" stroke-width="0.466527"/>
<path d="M275.763 475.412C275.763 476.47 274.995 477.328 274.048 477.328C273.101 477.328 272.334 476.47 272.334 475.412C272.334 474.354 273.101 473.496 274.048 473.496C274.995 473.496 275.763 474.354 275.763 475.412Z" stroke="white" stroke-width="0.466527"/>
<path d="M282.42 476.622C282.42 477.68 281.743 478.538 280.907 478.538C280.071 478.538 279.394 477.68 279.394 476.622C279.394 475.564 280.071 474.706 280.907 474.706C281.743 474.706 282.42 475.564 282.42 476.622Z" stroke="white" stroke-width="0.466527"/>
<path d="M288.27 478.034C288.27 479.092 287.593 479.95 286.757 479.95C285.921 479.95 285.244 479.092 285.244 478.034C285.244 476.976 285.921 476.118 286.757 476.118C287.593 476.118 288.27 476.976 288.27 478.034Z" stroke="white" stroke-width="0.466527"/>
<path d="M294.317 479.967C294.235 481.022 293.494 481.825 292.661 481.76C291.828 481.695 291.219 480.788 291.3 479.732C291.382 478.677 292.124 477.874 292.957 477.939C293.79 478.004 294.399 478.911 294.317 479.967Z" stroke="white" stroke-width="0.466527"/>
<path d="M299.379 481.972C299.249 483.022 298.561 483.802 297.842 483.713C297.123 483.624 296.646 482.7 296.776 481.65C296.906 480.6 297.594 479.82 298.312 479.909C299.031 479.998 299.508 480.922 299.379 481.972Z" stroke="white" stroke-width="0.466527"/>
<path d="M303.503 484.32C303.208 485.337 302.535 486.035 302 485.88C301.465 485.725 301.27 484.775 301.565 483.759C301.86 482.742 302.532 482.044 303.067 482.199C303.602 482.354 303.797 483.304 303.503 484.32Z" stroke="white" stroke-width="0.466527"/>
<path d="M307.032 486.826C306.621 487.879 305.867 488.568 305.348 488.366C304.829 488.163 304.742 487.145 305.153 486.092C305.564 485.039 306.318 484.35 306.837 484.553C307.356 484.755 307.443 485.773 307.032 486.826Z" stroke="white" stroke-width="0.466527"/>
<path d="M309.809 490.047C309.074 490.99 308.154 491.502 307.755 491.191C307.355 490.879 307.626 489.862 308.361 488.919C309.095 487.976 310.015 487.464 310.414 487.775C310.814 488.086 310.543 489.103 309.809 490.047Z" stroke="white" stroke-width="0.466527"/>
<path d="M311.326 493.898C310.218 494.626 309.123 494.916 308.881 494.548C308.639 494.179 309.341 493.29 310.45 492.563C311.558 491.835 312.653 491.544 312.895 491.913C313.137 492.282 312.435 493.171 311.326 493.898Z" stroke="white" stroke-width="0.466527"/>
<path d="M372.395 509.381C369.772 507.465 370.687 505.829 374.715 504.44L404.086 495.809M551.889 453.4L500.648 468.518" stroke="white" stroke-width="1.16632"/>
<path d="M540.598 402.295L489.282 416.2M375.617 446.61L398.054 440.46" stroke="white" stroke-width="1.16632"/>
<path d="M540.598 399.229L483.517 414.561M375.617 443.544L405.768 435.445" stroke="white" stroke-width="0.466527"/>
<path d="M306.525 572.903C289.065 578.627 276.367 596.023 276.367 616.594V695.419C276.367 710.601 291.274 721.298 305.659 716.44L306.525 716.147L368.498 690.252L556.921 613.867L590.254 600.572L596.504 597.873C611.566 591.37 621.32 576.535 621.32 560.13V495.687C621.32 479.349 613.654 472.071 603.064 474.909C597.113 476.503 310.481 571.606 306.525 572.903Z" stroke="white" stroke-width="3.03242"/>
<path d="M285.1 682.63V654.861V619.397C285.1 600.971 296.455 585.39 312.07 580.263C315.607 579.101 598.382 483.523 602.68 482.486C609.991 480.721 616 483.183 616 498.225L615.939 560.223C615.939 575.728 604.558 589.686 590.213 595.525L371.531 684.35L307.098 710.778C296.555 715.103 285 707.339 285 695.931V682.63" stroke="white" stroke-width="1.03837"/>
<path d="M615.5 563.492L496.5 518.492M593.5 593.992L443 536.492" stroke="white" stroke-width="1.4"/>
<path d="M139.195 180.625L259.425 204.628" stroke="white" stroke-width="1.39958"/>
<path d="M234.91 275.223L203.082 267.026C202.344 266.836 201.625 267.393 201.625 268.155V281.904C201.625 284.028 203.059 285.883 205.114 286.419L230.803 293.112C233.506 293.817 236.334 293.905 239.076 293.371L273.742 286.619L234.91 275.223Z" stroke="white" stroke-width="0.930089"/>
<path d="M127.563 458.739C97.0421 466.669 66.8962 474.512 65.8606 474.841C52.3041 479.149 42.3594 493.305 42.3594 510.104L42.4248 563.253C42.4465 580.876 52.3973 596.983 68.1476 604.89L288.97 715.739M173.456 446.737C220.865 434.449 240.202 429.625 241.867 429.625" stroke="white" stroke-width="1.39958"/>
<path d="M276.363 614.99L42.4609 510.307" stroke="white" stroke-width="2.09937"/>
<path d="M372.996 320.806L264.164 288.635" stroke="white" stroke-width="2.09937"/>
<path d="M201.422 268.465L133.844 245.168" stroke="white" stroke-width="0.930089"/>
<path opacity="0.2" d="M238.888 469.514C280.911 469.514 314.977 480.045 314.978 493.036C314.978 506.027 280.911 516.559 238.888 516.559C196.864 516.559 162.797 506.027 162.797 493.036C162.797 480.045 196.864 469.514 238.888 469.514ZM238.887 484.95C207.066 484.95 180.52 491.511 174.411 500.23C182.686 507.971 208.42 513.618 238.887 513.618C269.353 513.618 295.086 507.971 303.361 500.23C297.252 491.512 270.707 484.95 238.887 484.95Z" fill="#D9D9D9"/>
<path d="M238.882 484.949C270.703 484.949 297.247 491.511 303.356 500.229C295.082 507.97 269.349 513.617 238.882 513.617C208.415 513.617 182.681 507.97 174.406 500.229C180.515 491.51 207.061 484.949 238.882 484.949Z" fill="#713ADA" fill-opacity="0.1"/>
<path d="M235.75 275.568L202.276 266.94C202.01 271.079 201.476 279.744 201.476 281.302C201.476 283.248 202.276 285.683 205.103 286.278C207.93 286.873 221.914 289.997 226.229 291.931C229.68 293.478 234.014 293.666 235.75 293.567V275.568Z" fill="#D9D9D9" fill-opacity="0.07"/>
<path d="M259.432 204.738L139.06 180.664C138.524 181.328 137.436 182.815 137.369 183.45C137.286 184.243 130.21 237.863 130.21 238.113C130.21 238.363 130.352 241.003 130.709 242.002C130.995 242.801 132.412 244.002 133.085 244.503L265.059 276.318H266.619C265.784 274.949 264.081 271.866 263.95 270.486C263.785 268.761 258.651 209.502 258.487 207.613C258.356 206.101 259.062 205.067 259.432 204.738Z" fill="#D9D9D9" fill-opacity="0.07"/>
<path d="M373.548 320.915L265.059 288.273L241.949 292.863L241.559 441.133V451.962L372.669 497.728C373.03 497.728 373.854 497.651 374.262 497.346L374.325 497.298C374.803 496.941 375.154 496.679 375.154 496.008V449.63C374.941 413.531 374.644 339.815 375.154 333.75C375.663 327.685 374.296 322.667 373.548 320.915Z" fill="#D9D9D9" fill-opacity="0.07"/>
<path d="M276.315 614.971L42.4446 510.57L41.9141 550.647C42.1605 557.977 42.4446 573.376 42.4446 573.376C42.4446 573.376 235.513 666.169 276.315 685.749V614.971Z" fill="#D9D9D9" fill-opacity="0.07"/>
<path d="M119.294 468.15C118.04 466.966 117.959 465.334 118.075 464.666C117.378 464.666 114.33 470.066 114.069 471.807C113.807 473.549 115.723 475.987 117.03 477.033C118.336 478.078 121.559 479.384 121.994 480.864C122.343 482.049 120.804 483.448 119.991 483.999C120.194 484.144 121.524 483.982 125.217 482.171C129.833 479.906 129.397 478.426 129.746 477.033C130.094 475.639 128.265 473.636 126.262 472.417C124.259 471.198 120.862 469.63 119.294 468.15Z" fill="#D9D9D9" fill-opacity="0.07"/>
<path d="M336.182 551.727L334.526 541.797C330.677 542.079 322.345 542.643 319.813 542.643H307.439L306.959 553.769C308.465 553.961 312.906 554.345 318.626 554.345C324.347 554.345 332.713 552.6 336.182 551.727Z" fill="#D9D9D9" fill-opacity="0.07"/>
<path d="M293.629 552.251L295.757 540.252L290.565 538.635C289.516 541.642 287.297 548.115 286.821 549.953C287.774 550.566 291.757 551.74 293.629 552.251Z" fill="#D9D9D9" fill-opacity="0.07"/>
<path d="M231.467 553.35L235.263 538.635L232.885 538.022L113.956 487.746L113.054 486.769L111.551 488.272C109.834 491.629 106.357 498.553 106.177 499.394C105.996 500.236 106.903 500.847 107.379 501.048C145.564 517.333 222.535 550.174 224.933 551.248C227.332 552.321 230.288 553.097 231.467 553.35Z" fill="#D9D9D9" fill-opacity="0.07"/>
<path d="M281.876 593.676C283.966 587.982 285.169 588.215 286.821 586.684L50.2942 486.057C48.8483 487.664 47.2149 489.485 46.3275 492.139C45.4401 494.793 44.2083 498.013 43.3926 501.048L277.956 603.83C278.257 602.118 279.786 599.369 281.876 593.676Z" fill="#D9D9D9" fill-opacity="0.07"/>
<path d="M483.295 417.985H482.712V418.76L483.456 418.545L483.295 417.985ZM403.766 438.731L403.913 439.295V439.295L403.766 438.731ZM489.996 416.053L490.158 416.613L489.996 416.053ZM397.016 442.672H396.432L396.432 442.672L397.016 442.672ZM399.128 439.939L398.981 439.375V439.375L399.128 439.939ZM399.327 489.304L399.168 488.743L399.327 489.304ZM397.063 489.964L396.48 489.964C396.48 490.148 396.567 490.322 396.715 490.432C396.863 490.542 397.054 490.575 397.23 490.522L397.063 489.964ZM490.262 463.471L490.103 462.91L490.262 463.471ZM492.315 462.866L492.487 463.423L492.898 463.296V462.866H492.315ZM481.036 406.097L481.178 406.662L481.036 406.097ZM408.013 424.491L407.87 423.926L408.013 424.491ZM408.013 424.491L408.155 425.057L481.178 406.662L481.036 406.097L480.893 405.531L407.87 423.926L408.013 424.491ZM490.262 463.471L490.103 462.91L399.168 488.743L399.327 489.304L399.487 489.865L490.422 464.032L490.262 463.471ZM397.063 489.964L397.646 489.963L397.599 442.671L397.016 442.672L396.432 442.672L396.48 489.964L397.063 489.964ZM492.315 417.797H491.731V462.866H492.315H492.898V417.797H492.315ZM483.295 407.857H482.712V417.985H483.295H483.878V407.857H483.295ZM483.295 417.985L483.456 418.545L490.158 416.613L489.996 416.053L489.834 415.492L483.133 417.425L483.295 417.985ZM399.128 439.939L399.275 440.504L403.913 439.295L403.766 438.731L403.619 438.167L398.981 439.375L399.128 439.939ZM405.878 435.998H406.462V427.229H405.878H405.295V435.998H405.878ZM403.766 438.731L403.913 439.295C405.414 438.904 406.462 437.549 406.462 435.998H405.878H405.295C405.295 437.018 404.606 437.91 403.619 438.167L403.766 438.731ZM492.315 417.797H492.898C492.898 416.201 491.368 415.05 489.834 415.492L489.996 416.053L490.158 416.613C490.946 416.386 491.731 416.977 491.731 417.797H492.315ZM397.016 442.672H397.599C397.599 441.652 398.288 440.761 399.275 440.504L399.128 439.939L398.981 439.375C397.48 439.766 396.432 441.121 396.432 442.672H397.016ZM399.327 489.304L399.168 488.743C398.586 488.908 398.018 489.073 397.596 489.198C397.385 489.26 397.21 489.312 397.088 489.348C397.027 489.366 396.979 489.38 396.946 489.39C396.93 489.395 396.917 489.399 396.909 489.401C396.905 489.402 396.901 489.403 396.899 489.404C396.898 489.404 396.897 489.405 396.897 489.405C396.897 489.405 396.896 489.405 396.896 489.405C396.896 489.405 396.896 489.405 396.896 489.405C396.896 489.405 396.896 489.405 396.896 489.405C396.896 489.405 396.896 489.405 397.063 489.964C397.23 490.522 397.23 490.522 397.23 490.522C397.23 490.522 397.23 490.522 397.23 490.522C397.23 490.522 397.231 490.522 397.231 490.522C397.231 490.522 397.231 490.522 397.231 490.522C397.232 490.522 397.232 490.522 397.233 490.521C397.236 490.521 397.239 490.52 397.243 490.519C397.251 490.516 397.263 490.512 397.28 490.508C397.312 490.498 397.359 490.484 397.42 490.466C397.541 490.43 397.715 490.378 397.925 490.317C398.345 490.193 398.909 490.029 399.487 489.865L399.327 489.304ZM490.262 463.471L490.422 464.032C491.032 463.859 491.548 463.707 491.911 463.598C492.093 463.544 492.236 463.5 492.335 463.47C492.384 463.455 492.422 463.443 492.448 463.436C492.461 463.432 492.47 463.429 492.477 463.427C492.48 463.426 492.483 463.425 492.485 463.424C492.485 463.424 492.486 463.424 492.487 463.424C492.487 463.424 492.487 463.423 492.487 463.423C492.487 463.423 492.487 463.423 492.487 463.423C492.487 463.423 492.487 463.423 492.487 463.423C492.487 463.423 492.487 463.423 492.315 462.866C492.142 462.309 492.142 462.309 492.142 462.309C492.142 462.309 492.142 462.309 492.142 462.309C492.142 462.309 492.142 462.309 492.142 462.309C492.142 462.309 492.142 462.309 492.141 462.31C492.141 462.31 492.14 462.31 492.14 462.31C492.138 462.311 492.136 462.311 492.133 462.312C492.126 462.314 492.117 462.317 492.105 462.321C492.08 462.329 492.043 462.34 491.994 462.355C491.898 462.384 491.756 462.427 491.577 462.481C491.217 462.588 490.707 462.739 490.103 462.91L490.262 463.471ZM481.036 406.097L481.178 406.662C481.957 406.466 482.712 407.055 482.712 407.857H483.295H483.878C483.878 406.295 482.408 405.15 480.893 405.531L481.036 406.097ZM408.013 424.491L407.87 423.926C406.356 424.307 405.295 425.668 405.295 427.229H405.878H406.462C406.462 426.203 407.159 425.307 408.155 425.057L408.013 424.491Z" fill="white"/>
<path d="M408.516 486.804V427.751C408.516 427.289 408.829 426.886 409.277 426.773L483.1 408.102V465.737" stroke="white" stroke-width="0.466527"/>
<path d="M397.164 489.84L401.606 491.978C405.222 493.718 409.352 494.065 413.207 492.954L499.38 468.122C500.214 467.882 500.297 466.733 499.506 466.375L492.109 463.035" stroke="white" stroke-width="1.16632"/>
<path d="M500.576 467.025V469.443C500.576 469.858 500.301 470.223 499.903 470.339L413.229 495.472C409.36 496.594 405.213 496.246 401.585 494.495L398.232 492.877C397.345 492.449 396.781 491.551 396.781 490.566V489.524" stroke="white" stroke-width="0.466527"/>
<path d="M266.784 276.734L134.729 245.232C131.929 244.564 130.08 241.899 130.434 239.043L137.253 184.064C137.565 181.552 139.509 179.554 142.012 179.175L162.391 176.085M273.643 198.575L170.964 177.818M371.985 498.358L373.617 497.921C374.499 497.685 375.112 496.886 375.112 495.973V329.078C375.112 319.516 368.985 311.029 359.908 308.019L270.049 278.217C266.6 277.074 264.166 273.984 263.861 270.364L258.578 207.401C258.428 205.61 259.686 204.007 261.462 203.727L280.985 200.651C307.812 196.446 336.419 192.875 364.129 188.996C365.96 188.739 367.786 188.992 369.431 189.677M611.636 474.202L548.151 451.817C543.285 450.124 540.023 445.537 540.023 440.386V295.256C540.023 286.972 539.042 278.717 537.099 270.664C529.032 237.22 524.188 204.223 516.776 171.949C516.475 170.638 513.975 167.597 509.26 168.319L502.122 169.336M502.122 169.336L430.694 179.516C428.302 179.857 426.343 181.587 425.708 183.918L422.067 197.292C421.236 200.346 418.696 202.631 415.572 203.137L390.622 207.179C387.659 207.659 384.682 206.764 382.491 204.825M502.122 169.336L491.863 167.596M502.122 169.336L512.185 171.043M382.491 204.825C381.949 204.346 381.456 203.803 381.022 203.201L373.736 193.092C372.624 191.548 371.124 190.383 369.431 189.677M382.491 204.825L410.024 200.726C413.148 200.22 415.688 197.934 416.52 194.881L420.161 181.506C420.795 179.176 422.755 177.446 425.146 177.105L491.863 167.596M382.491 204.825L382.475 204.827M369.431 189.677C367.441 188.68 365.176 187.81 363.916 187.279C362.263 186.583 360.424 186.326 358.582 186.584C330.872 190.463 302.265 194.034 275.438 198.24L273.038 198.618M369.431 189.677C370.093 190.009 370.725 190.355 371.279 190.708M493.021 167.431L491.863 167.596M491.863 167.596L393.815 150.966C389.506 150.235 385.113 150.145 380.777 150.698L316.993 158.747C314.596 159.046 312.606 160.742 311.931 163.061L308.239 175.751C307.354 178.789 304.775 181.03 301.642 181.482L278.706 185.317C276.046 185.7 273.394 184.981 271.319 183.408M387.921 151.578V190.809M387.921 190.809L415.255 197.264M387.921 190.809L375.011 193.633M250.644 465.591L252.237 465.194C253.098 464.979 253.707 464.213 253.723 463.326M162.391 176.085C188.494 172.457 220.549 168.29 248.091 164.831C250.191 164.568 252.274 164.975 254.076 165.933L258.203 168.009M512.185 168.219L393.815 148.143C389.506 147.412 385.113 147.321 380.777 147.874L313.16 156.327C310.763 156.626 308.774 158.322 308.099 160.641L304.406 173.33C303.521 176.369 300.942 178.61 297.81 179.062L273.864 182.896L271.319 183.408M271.319 183.408L271.122 183.447M271.319 183.408C270.504 182.789 269.778 182.039 269.175 181.171L262.465 171.506C261.598 170.257 260.48 169.245 259.208 168.514M258.203 168.009L259.208 168.514M258.203 168.009C258.547 168.158 258.883 168.327 259.208 168.514M258.203 168.009C256.575 167.301 254.76 167.022 252.933 167.252C225.391 170.71 197.068 174.172 170.964 177.8M259.208 168.514L259.623 168.723M254.477 468.011L256.07 467.614C256.931 467.399 257.54 466.633 257.556 465.746" stroke="white" stroke-width="0.930089"/>
<g clip-path="url(#clip0_7228_283316)">
<path opacity="0.5" d="M440 383C440 432.706 399.706 473 350 473C300.294 473 260 432.706 260 383" stroke="white"/>
<g filter="url(#filter0_d_7228_283316)">
<circle cx="350" cy="376" r="87" fill="#1B1B2D"/>
<circle cx="350" cy="376" r="87" fill="url(#paint0_linear_7228_283316)" fill-opacity="0.4"/>
</g>
<circle cx="350.5" cy="375.5" r="87.5" stroke="#E4255B" stroke-width="8"/>
<path d="M339.856 340C339.856 338.343 341.199 337 342.856 337H358.387C360.044 337 361.387 338.343 361.387 340V348.678C361.387 360.173 359.428 372.647 358.233 384.172C358.073 385.713 356.78 386.892 355.231 386.892H346.123C344.587 386.892 343.3 385.733 343.127 384.207C341.818 372.672 339.856 360.184 339.856 348.678V340ZM342 419.403C340.343 419.403 339 418.06 339 416.403V401.3C339 399.643 340.343 398.3 342 398.3H358.815C360.472 398.3 361.815 399.643 361.815 401.3V416.403C361.815 418.06 360.472 419.403 358.815 419.403H342Z" fill="#E4255B"/>
<circle cx="350" cy="376" r="83" stroke="white" stroke-width="2"/>
</g>
<defs>
<filter id="filter0_d_7228_283316" x="215" y="265" width="270" height="270" filterUnits="userSpaceOnUse" color-interpolation-filters="sRGB">
<feFlood flood-opacity="0" result="BackgroundImageFix"/>
<feColorMatrix in="SourceAlpha" type="matrix" values="0 0 0 0 0 0 0 0 0 0 0 0 0 0 0 0 0 0 127 0" result="hardAlpha"/>
<feOffset dy="24"/>
<feGaussianBlur stdDeviation="24"/>
<feComposite in2="hardAlpha" operator="out"/>
<feColorMatrix type="matrix" values="0 0 0 0 0.894118 0 0 0 0 0.145098 0 0 0 0 0.356863 0 0 0 0.5 0"/>
<feBlend mode="normal" in2="BackgroundImageFix" result="effect1_dropShadow_7228_283316"/>
<feBlend mode="normal" in="SourceGraphic" in2="effect1_dropShadow_7228_283316" result="shape"/>
</filter>
<linearGradient id="paint0_linear_7228_283316" x1="437" y1="486.745" x2="283.027" y2="346.108" gradientUnits="userSpaceOnUse">
<stop stop-color="#E4255B"/>
<stop offset="1" stop-color="#E4255B" stop-opacity="0.2"/>
</linearGradient>
<clipPath id="clip0_7228_283316">
<rect width="240" height="240" fill="white" transform="translate(230 269)"/>
</clipPath>
</defs>
</svg>
