<svg width="507" height="345" viewBox="0 0 507 345" fill="none" xmlns="http://www.w3.org/2000/svg">
<path d="M311.178 189.11L312.023 185.945V90.0151C310.338 93.3659 306.614 101.605 305.198 107.755C303.429 115.442 292.814 111.894 288.292 107.755C283.771 103.616 288.685 89.6208 277.48 90.0151C268.516 90.3304 261.787 85.81 259.544 83.5104C259.713 101.707 260.042 139.274 260.004 143.975C259.955 149.851 260.246 151.551 260.924 152.765C259.955 153.59 259.18 156.164 259.544 159.804C244.542 160.388 234.493 175.138 229.395 185.945C224.297 196.752 225.463 211.501 226.919 214.568C228.084 217.022 235.172 220.653 238.571 222.162C239.833 224.012 243.581 228.266 248.475 230.486C253.368 232.706 259.447 230.632 261.874 229.318C263.865 231.849 268.37 237.321 270.467 238.956C273.089 241.001 282.993 243.483 294.207 238.956C305.422 234.429 312.023 216.321 313.433 206.828C314.56 199.234 312.399 191.852 311.178 189.11Z" fill="#D9D9D9" fill-opacity="0.07"/>
<ellipse cx="16.1936" cy="26.2407" rx="16.1936" ry="26.2407" transform="matrix(1 0 -0.190317 0.981723 283.596 185.746)" stroke="white" stroke-width="0.3772"/>
<path d="M261.326 152.371C259.679 153.723 258.957 155.6 259.996 160.421C261.035 165.242 273.122 168.915 286.994 168.625C295.175 168.454 301.643 168.183 308.198 178.121" stroke="white" stroke-width="1.1316"/>
<ellipse cx="19.3174" cy="30.2754" rx="19.3174" ry="30.2754" transform="matrix(1 0 -0.190317 0.981723 279.783 180.961)" stroke="white" stroke-width="1.1316"/>
<path d="M291.08 239.985C275.852 244.042 269.382 237.916 266.504 235.566C264.584 233.998 263.013 231.798 261.86 229.117C261.442 228.248 260.607 226.327 260.607 225.6" stroke="white" stroke-width="1.1316"/>
<path d="M261.792 229.088C259.335 230.425 256.798 231.159 254.291 231.159C249.404 231.159 240.975 228.213 238.975 222.506" stroke="white" stroke-width="1.1316"/>
<path d="M311.956 153.199C312.268 157.821 302.206 162.171 287.857 162.471C273.508 162.77 261.034 159.105 259.995 154.285M311.956 153.199L311.82 185.772M311.956 153.199C311.938 152.932 311.475 152.414 310.867 152.303M311.82 185.772C309.013 176.55 302.85 170.584 294.607 170.584C280.695 170.584 266.123 187.574 262.06 208.532C261.089 213.545 260.806 218.331 261.129 222.712C261.351 225.723 258.795 228.438 255.852 227.802C247.676 226.037 241.97 223.744 233.321 219.6C228.336 216.873 226.509 213.982 226.288 212.793C225.378 207.89 225.353 202.363 226.381 196.517C229.939 176.286 244.756 159.886 259.476 159.886M311.82 185.772C311.976 187.051 311.988 189.323 310.794 188.18" stroke="white" stroke-width="1.1316"/>
<path d="M259.996 0L259.996 150.463C260.304 155.201 273.509 158.949 287.858 158.649C301.441 158.365 311.835 154.63 312.024 150.143L312.013 0" stroke="url(#paint0_linear_4794_61729)" stroke-width="1.1316"/>
<rect width="9.52737" height="50.5377" rx="4.76369" transform="matrix(0.984728 0.1741 0 1 264.225 99.9844)" fill="#D9D9D9" fill-opacity="0.1"/>
<path d="M278.66 172.168C273.461 172.168 269.166 171.037 265.437 169.678C251.2 177.241 244.594 193.242 243.23 206.578C242.723 211.54 243.714 217.514 248.463 219.157C248.776 219.265 249.103 219.36 249.443 219.441C252.997 220.284 255.532 216.737 255.83 213.117C257.723 190.123 273.648 174.42 278.66 172.168Z" fill="#D9D9D9" fill-opacity="0.1"/>
<g filter="url(#filter0_f_4794_61729)">
<path d="M253.27 231.156C249.064 231.472 243.896 228.564 241.837 227.071L238.498 222.406C236.717 221.374 232.437 218.937 229.566 217.448C225.977 215.587 225.977 211.451 225.658 209.052C225.403 207.133 220.583 207.792 218.204 208.361L174.253 219.31L164.426 268.305L288.489 240.643C286.912 240.907 282.944 241.46 279.685 241.566C275.611 241.697 270.617 238.667 267.2 236.427C264.467 234.635 262.381 231.024 261.681 229.443C260.629 229.882 257.475 230.84 253.27 231.156Z" fill="url(#paint1_radial_4794_61729)" fill-opacity="0.7"/>
</g>
<path d="M311.999 158.004C316.439 155.824 319.17 154.413 323.217 152.422M311.999 162.79C319.878 158.927 325.775 155.778 332.597 152.422M537.224 271.383L465.866 252.211C465.401 252.086 465.341 251.449 465.774 251.239C501.346 233.989 536.439 216.818 562.636 203.928M537.224 274.742L462.389 254.636C460.885 254.232 459.286 254.384 457.884 255.063C427.641 269.709 397.501 284.188 372.623 295.923C372.185 296.129 372.246 296.77 372.713 296.895L427.788 311.692M553.256 203.928C528.105 216.302 494.756 232.623 460.655 249.172C459.253 249.852 457.652 250.005 456.147 249.6L360.151 223.809C359.686 223.684 359.627 223.047 360.059 222.837C387.959 209.262 414.467 196.279 435.333 186.013M313.619 322.112C316.576 321.816 336.485 312.889 364.647 299.675C366.034 299.024 367.609 298.883 369.087 299.28L427.788 315.051M304.239 322.112C307.343 321.801 329.129 311.978 359.534 297.669C359.973 297.463 359.922 296.818 359.455 296.692L263.762 270.983C262.274 270.583 260.685 270.73 259.293 271.392C219.899 290.107 189.993 303.829 186.316 304.197M176.935 304.197C180.745 303.815 212.694 289.107 254.179 269.362C254.616 269.155 254.564 268.511 254.098 268.386L152.964 241.215C151.479 240.816 149.894 240.961 148.504 241.619C113.141 258.355 87.0023 270.263 83.5795 270.607M76.8793 217.414L146.887 236.223C148.375 236.623 149.956 236.48 151.348 235.817C174.304 224.892 200.188 212.421 225.843 199.981M76.8793 220.773L143.31 238.621C143.777 238.746 143.828 239.39 143.391 239.598C105.879 257.388 77.7584 270.249 74.1992 270.606M186.316 177.105L228.469 188.43M186.316 180.464L227.597 191.555M425.953 186.013C406.151 195.755 381.269 207.944 354.939 220.763C353.534 221.447 351.931 221.601 350.423 221.195L312.69 210.909M311.962 214.332L346.967 223.626C347.432 223.751 347.493 224.387 347.06 224.597C318.502 238.485 288.689 252.895 262.126 265.575C260.732 266.24 259.149 266.384 257.658 265.984L156.551 238.819C156.084 238.694 156.023 238.054 156.46 237.847C177.608 227.8 201.497 216.312 225.533 204.676M367.513 293.905C392.726 281.984 422.814 267.514 452.766 252.998C453.199 252.788 453.139 252.151 452.674 252.026L356.692 226.239C355.185 225.834 353.584 225.986 352.18 226.669C323.385 240.663 293.551 255.07 267.239 267.61C266.803 267.818 266.864 268.457 267.331 268.582L363.068 294.304C364.551 294.702 366.125 294.562 367.513 293.905Z" stroke="url(#paint2_radial_4794_61729)" stroke-width="0.754401"/>
<defs>
<filter id="filter0_f_4794_61729" x="155.373" y="198.721" width="142.17" height="78.6369" filterUnits="userSpaceOnUse" color-interpolation-filters="sRGB">
<feFlood flood-opacity="0" result="BackgroundImageFix"/>
<feBlend mode="normal" in="SourceGraphic" in2="BackgroundImageFix" result="shape"/>
<feGaussianBlur stdDeviation="4.52641" result="effect1_foregroundBlur_4794_61729"/>
</filter>
<linearGradient id="paint0_linear_4794_61729" x1="279.17" y1="150.445" x2="296.971" y2="38.8517" gradientUnits="userSpaceOnUse">
<stop stop-color="white"/>
<stop offset="1" stop-color="#999999" stop-opacity="0"/>
</linearGradient>
<radialGradient id="paint1_radial_4794_61729" cx="0" cy="0" r="1" gradientTransform="matrix(-79.8881 7.37144 -1.87306 -20.4085 258.462 230.668)" gradientUnits="userSpaceOnUse">
<stop stop-color="#120000"/>
<stop offset="1" stop-opacity="0"/>
</radialGradient>
<radialGradient id="paint2_radial_4794_61729" cx="0" cy="0" r="1" gradientUnits="userSpaceOnUse" gradientTransform="translate(283.318 237.267) rotate(90) scale(78.4907 156.241)">
<stop stop-color="white"/>
<stop offset="1" stop-color="#999999" stop-opacity="0"/>
</radialGradient>
</defs>
</svg>
