<svg width="888" height="739" viewBox="0 0 888 739" fill="none" xmlns="http://www.w3.org/2000/svg">
<mask id="mask0_4961_119149" style="mask-type:alpha" maskUnits="userSpaceOnUse" x="0" y="-137" width="921" height="889">
<rect y="-136.77" width="920.646" height="888.583" fill="url(#paint0_radial_4961_119149)"/>
</mask>
<g mask="url(#mask0_4961_119149)">
<ellipse cx="448.419" cy="481.047" rx="32.5592" ry="11.2165" fill="#713ADA" fill-opacity="0.4"/>
<ellipse cx="203.933" cy="394.051" rx="26.7451" ry="8.07039" fill="#713ADA" fill-opacity="0.4"/>
<ellipse cx="448.419" cy="481.047" rx="32.5592" ry="11.2165" stroke="white" stroke-width="0.892094"/>
<ellipse cx="203.933" cy="393.641" rx="26.7451" ry="7.79682" stroke="white" stroke-width="0.892094"/>
<path d="M472.828 488.123C475.947 486.537 477.767 484.631 477.767 482.581C477.767 477.069 464.625 472.602 448.415 472.602C432.204 472.602 419.062 477.069 419.062 482.581C419.062 484.631 420.882 486.537 424.002 488.123" stroke="white" stroke-width="0.356838" stroke-linecap="round"/>
<path d="M223.956 398.498C226.515 397.422 228.007 396.128 228.007 394.736C228.007 390.994 217.229 387.961 203.933 387.961C190.638 387.961 179.859 390.994 179.859 394.736C179.859 396.128 181.352 397.422 183.91 398.498" stroke="white" stroke-width="0.356838" stroke-linecap="round"/>
<path d="M522.551 456.973L522.757 456.577L522.551 456.973ZM338.242 376.953L338.381 376.529L338.27 376.492L338.155 376.515L338.242 376.953ZM529.092 439.327L529.213 439.757C529.402 439.703 529.534 439.533 529.538 439.336C529.542 439.14 529.417 438.964 529.23 438.903L529.092 439.327ZM325.332 493.191L325.497 492.777V492.777L325.332 493.191ZM154.933 425.156L154.767 425.571L154.933 425.156ZM155.129 422.575L155.021 422.142L155.021 422.142L155.129 422.575ZM345.51 490.662L345.636 491.089L345.641 491.088L345.51 490.662ZM335.35 493.653L335.224 493.226V493.226L335.35 493.653ZM165.417 420.012L165.524 420.445L165.532 420.443L165.539 420.441L165.417 420.012ZM169.923 403.445L169.752 403.857L169.756 403.859L169.923 403.445ZM286.642 373.09L286.79 372.67L286.789 372.669L286.642 373.09ZM289.403 374.065L289.578 373.655L289.565 373.649L289.552 373.645L289.403 374.065ZM484.092 494.589L483.935 494.171L484.092 494.589ZM195.031 380.329L195.146 380.76L195.031 380.329ZM447.548 500.197V499.751C433.071 499.751 420.048 497.565 410.933 494.085L410.774 494.501L410.615 494.918C419.859 498.447 432.995 500.643 447.548 500.643V500.197ZM522.551 456.973L522.345 457.368C525.543 459.031 528.313 460.858 530.374 462.77C532.44 464.687 533.757 466.656 534.123 468.6C534.485 470.516 533.938 472.482 532.113 474.457C530.274 476.447 527.145 478.432 522.386 480.319L522.551 480.734L522.715 481.149C527.531 479.239 530.8 477.193 532.768 475.063C534.751 472.917 535.422 470.674 535 468.435C534.583 466.225 533.114 464.096 530.981 462.116C528.842 460.131 525.998 458.262 522.757 456.577L522.551 456.973ZM338.242 376.953L338.104 377.377L528.953 439.751L529.092 439.327L529.23 438.903L338.381 376.529L338.242 376.953ZM325.332 493.191L325.497 492.777L155.098 424.742L154.933 425.156L154.767 425.571L325.167 493.605L325.332 493.191ZM154.933 425.156L155.098 424.742C154.24 424.399 154.303 423.24 155.236 423.008L155.129 422.575L155.021 422.142C153.277 422.577 153.077 424.896 154.767 425.571L154.933 425.156ZM374.29 486.519V486.965C389.898 486.965 401.501 491.16 410.896 495.002L411.064 494.589L411.233 494.176C401.801 490.319 390.071 486.072 374.29 486.072V486.519ZM345.51 490.662L345.641 491.088C354.171 488.464 364.737 486.965 374.29 486.965V486.519V486.072C364.656 486.072 354.001 487.583 345.379 490.235L345.51 490.662ZM335.35 493.653L335.476 494.081L345.636 491.089L345.51 490.662L345.384 490.234L335.224 493.226L335.35 493.653ZM155.129 422.575L155.236 423.008L165.524 420.445L165.417 420.012L165.309 419.579L155.021 422.142L155.129 422.575ZM325.332 493.191L325.167 493.605C328.435 494.91 332.089 495.079 335.476 494.081L335.35 493.653L335.224 493.226C332.028 494.167 328.58 494.008 325.497 492.777L325.332 493.191ZM522.551 456.973L522.757 456.577C518.806 454.523 517.037 451.691 517.037 449.167H516.591H516.145C516.145 452.135 518.213 455.22 522.345 457.368L522.551 456.973ZM516.591 449.167H517.037C517.037 447.355 517.803 445.658 519.699 444.083C521.612 442.494 524.669 441.037 529.213 439.757L529.092 439.327L528.971 438.898C524.376 440.192 521.182 441.692 519.129 443.397C517.06 445.116 516.145 447.052 516.145 449.167H516.591ZM169.923 403.445L170.093 403.033C167.297 401.878 165.049 400.542 163.508 399.124C161.964 397.703 161.174 396.242 161.174 394.828H160.728H160.282C160.282 396.59 161.264 398.271 162.904 399.781C164.548 401.294 166.898 402.679 169.752 403.857L169.923 403.445ZM254.664 368.594V369.04C267.294 369.04 278.635 370.769 286.495 373.511L286.642 373.09L286.789 372.669C278.808 369.885 267.361 368.148 254.664 368.148V368.594ZM318.767 378.716V378.27C306.747 378.27 296.128 376.443 289.578 373.655L289.403 374.065L289.229 374.476C295.93 377.328 306.681 379.162 318.767 379.162V378.716ZM338.242 376.953L338.155 376.515C332.556 377.626 325.905 378.27 318.767 378.27V378.716V379.162C325.956 379.162 332.665 378.513 338.329 377.39L338.242 376.953ZM169.923 403.445L169.756 403.859C172.275 404.874 174.257 406.035 175.602 407.268C176.948 408.503 177.616 409.771 177.616 411.013H178.062H178.509C178.509 409.429 177.655 407.94 176.205 406.611C174.754 405.28 172.666 404.07 170.089 403.031L169.923 403.445ZM178.062 411.013H177.616C177.616 412.584 176.541 414.166 174.394 415.662C172.259 417.15 169.149 418.488 165.295 419.583L165.417 420.012L165.539 420.441C169.442 419.332 172.656 417.96 174.904 416.394C177.14 414.836 178.509 413.021 178.509 411.013H178.062ZM289.403 374.065L289.552 373.645L286.79 372.67L286.642 373.09L286.493 373.511L289.255 374.486L289.403 374.065ZM484.092 494.589L483.935 494.171C474.831 497.601 461.905 499.751 447.548 499.751V500.197V500.643C461.98 500.643 475.019 498.484 484.249 495.006L484.092 494.589ZM522.551 480.734L522.386 480.319C512.82 484.112 506.967 486.159 501.629 487.965C496.289 489.771 491.453 491.34 483.935 494.171L484.092 494.589L484.249 495.006C491.75 492.181 496.568 490.618 501.915 488.81C507.264 487 513.132 484.948 522.715 481.149L522.551 480.734ZM160.728 394.828H161.174C161.174 393.636 162.005 392.444 163.742 391.226C165.464 390.018 167.973 388.858 171.094 387.71C177.332 385.416 185.881 383.215 195.146 380.76L195.031 380.329L194.917 379.897C185.676 382.347 177.073 384.561 170.786 386.873C167.644 388.029 165.047 389.22 163.229 390.495C161.425 391.761 160.282 393.185 160.282 394.828H160.728ZM195.031 380.329L195.146 380.76C205.832 377.927 217.526 374.996 228.147 372.773C238.779 370.548 248.303 369.04 254.664 369.04V368.594V368.148C248.202 368.148 238.599 369.674 227.965 371.9C217.321 374.127 205.609 377.063 194.917 379.897L195.031 380.329Z" fill="white"/>
<path d="M407.503 510.738C417.484 514.355 431.125 515.522 446.908 515.522C463.219 515.522 478.124 512.967 488.842 508.548C504.164 503.622 536.687 493.023 542.291 484.784C547.894 476.545 545.597 465.616 526.944 454.428M407.819 510.828C397.583 506.855 391.644 503.622 374.579 503.622C361.12 503.622 351.528 508.094 338.677 511.686C331.99 514.267 323.705 515.522 318.377 512.942L144.666 443.007C143.904 442.7 143.565 441.863 143.926 441.161C145.412 438.267 149.055 431.176 151.077 427.257C151.906 425.652 153.044 424.209 154.43 422.991L154.514 422.918M162.363 391.588C160.182 393.366 158.583 395.828 155.967 401.573C153.641 406.68 158.729 410.951 164.107 413.2C168.177 414.902 167.159 419.219 162.944 420.587" stroke="white" stroke-width="0.892094"/>
<ellipse cx="335.333" cy="432.762" rx="109.887" ry="32.4183" stroke="white" stroke-width="0.892094"/>
<ellipse cx="335.334" cy="435.087" rx="97.6777" ry="25.7158" stroke="white" stroke-width="0.892094"/>
<path d="M428.653 442.747C427.766 441.083 426.214 439.474 424.069 437.937C411.064 428.622 376.245 421.955 335.333 421.955C294.421 421.955 259.601 428.622 246.597 437.937C244.454 439.472 242.903 441.079 242.016 442.74" stroke="white" stroke-width="0.892094"/>
<path d="M441.092 478.044C441.782 478.055 442.476 478.167 443.006 478.389L448.878 480.846L455.285 478.589C455.855 478.388 456.568 478.299 457.259 478.311C457.949 478.322 458.643 478.435 459.173 478.656C459.437 478.767 459.654 478.901 459.803 479.062C459.955 479.225 460.047 479.429 460.021 479.654C459.997 479.873 459.867 480.059 459.694 480.204C459.521 480.35 459.284 480.473 458.999 480.573L453.15 482.633L458.478 484.861C458.742 484.972 458.958 485.107 459.107 485.268C459.259 485.431 459.351 485.635 459.326 485.86C459.302 486.08 459.171 486.264 458.998 486.409C458.824 486.555 458.589 486.679 458.304 486.779C457.734 486.98 457.021 487.069 456.33 487.058C455.64 487.046 454.946 486.935 454.416 486.713L448.543 484.255L442.137 486.513C441.567 486.713 440.854 486.802 440.163 486.791C439.473 486.78 438.779 486.668 438.249 486.446C437.985 486.336 437.768 486.201 437.619 486.04C437.467 485.876 437.375 485.672 437.4 485.447C437.425 485.228 437.555 485.044 437.728 484.898C437.901 484.752 438.138 484.629 438.423 484.528L444.271 482.468L438.944 480.24C438.68 480.13 438.464 479.995 438.314 479.834C438.162 479.67 438.07 479.466 438.096 479.241C438.12 479.022 438.251 478.838 438.424 478.692C438.598 478.546 438.833 478.423 439.118 478.322C439.688 478.122 440.401 478.033 441.092 478.044Z" stroke="white" stroke-width="0.535257"/>
<path d="M199.261 390.59C199.837 390.599 200.413 390.684 200.851 390.853L205.815 392.763L211.233 391.009C211.705 390.856 212.299 390.788 212.875 390.797C213.451 390.806 214.028 390.891 214.465 391.06C214.683 391.143 214.858 391.244 214.979 391.363C215.1 391.484 215.176 391.636 215.155 391.807C215.135 391.971 215.03 392.108 214.891 392.216C214.75 392.325 214.557 392.418 214.321 392.494L209.323 394.112L213.879 395.864C214.097 395.948 214.272 396.049 214.393 396.168C214.515 396.289 214.59 396.441 214.569 396.611C214.549 396.776 214.444 396.913 214.305 397.021C214.164 397.129 213.972 397.223 213.736 397.299C213.264 397.452 212.671 397.519 212.095 397.511C211.519 397.502 210.942 397.416 210.505 397.248L205.537 395.338L200.121 397.092C199.649 397.244 199.057 397.313 198.48 397.305C197.905 397.296 197.328 397.209 196.891 397.041C196.673 396.957 196.497 396.856 196.377 396.737C196.255 396.616 196.179 396.464 196.2 396.294C196.22 396.129 196.326 395.992 196.465 395.885C196.605 395.776 196.798 395.683 197.033 395.606L202.03 393.988L197.477 392.237C197.259 392.153 197.083 392.052 196.963 391.933C196.841 391.812 196.766 391.66 196.786 391.49C196.806 391.326 196.912 391.188 197.051 391.08C197.191 390.972 197.384 390.879 197.619 390.803C198.091 390.65 198.684 390.581 199.261 390.59Z" stroke="white" stroke-width="0.356838"/>
<path d="M333.008 377.91L339.403 376.298V160.146" stroke="white" stroke-width="0.892094"/>
<path d="M336.802 384.617L177.725 425.22C176.124 425.629 175.976 427.713 177.507 428.318L322.678 485.67C325.41 486.75 328.456 486.903 331.295 486.104L501.471 438.203C503.099 437.745 503.14 435.59 501.532 435.076L344.262 384.836C341.854 384.067 339.256 383.991 336.802 384.617Z" stroke="white" stroke-width="0.356838"/>
<path d="M524.787 689.563L519.438 684.976L523.242 670.993C524.43 666.331 527.259 656.338 529.066 653.653C531.325 650.297 536.555 648.507 540.24 647.053C543.188 645.89 667.316 600.48 729.011 577.92L787.615 598.503L523.242 700.302L524.787 698.4L525.619 695.492L524.787 689.563Z" fill="url(#paint1_linear_4961_119149)" fill-opacity="0.5"/>
<path d="M330.974 404.857C330.974 406.292 329.738 407.456 328.213 407.456C326.687 407.456 325.451 406.292 325.451 404.857C325.451 403.421 326.687 402.258 328.213 402.258C329.738 402.258 330.974 403.421 330.974 404.857Z" stroke="white" stroke-width="0.356838"/>
<path d="M318.474 405.404C318.474 406.839 317.237 408.003 315.712 408.003C314.187 408.003 312.95 406.839 312.95 405.404C312.95 403.969 314.187 402.805 315.712 402.805C317.237 402.805 318.474 403.969 318.474 405.404Z" stroke="white" stroke-width="0.356838"/>
<path d="M306.264 406.225C306.264 407.66 305.028 408.824 303.502 408.824C301.977 408.824 300.741 407.66 300.741 406.225C300.741 404.789 301.977 403.626 303.502 403.626C305.028 403.626 306.264 404.789 306.264 406.225Z" stroke="white" stroke-width="0.356838"/>
<path d="M294.345 407.319C294.345 408.754 293.239 409.918 291.874 409.918C290.509 409.918 289.403 408.754 289.403 407.319C289.403 405.884 290.509 404.72 291.874 404.72C293.239 404.72 294.345 405.884 294.345 407.319Z" stroke="white" stroke-width="0.356838"/>
<path d="M283.298 408.96C283.298 410.396 282.192 411.559 280.827 411.559C279.463 411.559 278.356 410.396 278.356 408.96C278.356 407.525 279.463 406.361 280.827 406.361C282.192 406.361 283.298 407.525 283.298 408.96Z" stroke="white" stroke-width="0.356838"/>
<path d="M272.542 411.422C272.542 412.858 271.501 414.021 270.216 414.021C268.932 414.021 267.891 412.858 267.891 411.422C267.891 409.987 268.932 408.824 270.216 408.824C271.501 408.824 272.542 409.987 272.542 411.422Z" stroke="white" stroke-width="0.356838"/>
<path d="M262.656 413.791C262.721 415.225 261.733 416.429 260.45 416.481C259.167 416.532 258.074 415.411 258.009 413.977C257.944 412.543 258.932 411.339 260.215 411.288C261.498 411.236 262.591 412.357 262.656 413.791Z" stroke="white" stroke-width="0.356838"/>
<path d="M253.934 416.523C254.012 417.957 253.164 419.162 252.042 419.216C250.919 419.27 249.947 418.151 249.87 416.717C249.792 415.284 250.639 414.078 251.762 414.025C252.884 413.971 253.857 415.09 253.934 416.523Z" stroke="white" stroke-width="0.356838"/>
<path d="M246.028 419.659C246.324 421.194 245.796 422.57 244.848 422.732C243.9 422.894 242.892 421.781 242.595 420.245C242.299 418.709 242.827 417.333 243.775 417.171C244.723 417.01 245.732 418.123 246.028 419.659Z" stroke="white" stroke-width="0.356838"/>
<path d="M239.526 423.818C240.041 425.577 239.831 427.166 239.057 427.367C238.283 427.567 237.238 426.304 236.723 424.545C236.208 422.786 236.418 421.197 237.192 420.996C237.966 420.796 239.01 422.059 239.526 423.818Z" stroke="white" stroke-width="0.356838"/>
<path d="M234.789 428.178C235.934 429.65 236.407 431.158 235.845 431.545C235.283 431.932 233.899 431.052 232.754 429.579C231.609 428.107 231.136 426.6 231.698 426.213C232.259 425.826 233.643 426.705 234.789 428.178Z" stroke="white" stroke-width="0.356838"/>
<path d="M343.765 404.857C343.765 406.292 342.529 407.456 341.004 407.456C339.478 407.456 338.242 406.292 338.242 404.857C338.242 403.421 339.478 402.258 341.004 402.258C342.529 402.258 343.765 403.421 343.765 404.857Z" stroke="white" stroke-width="0.356838"/>
<path d="M355.975 405.404C355.975 406.839 354.739 408.003 353.213 408.003C351.688 408.003 350.452 406.839 350.452 405.404C350.452 403.969 351.688 402.805 353.213 402.805C354.739 402.805 355.975 403.969 355.975 405.404Z" stroke="white" stroke-width="0.356838"/>
<path d="M367.603 406.225C367.603 407.66 366.367 408.824 364.842 408.824C363.316 408.824 362.08 407.66 362.08 406.225C362.08 404.789 363.316 403.626 364.842 403.626C366.367 403.626 367.603 404.789 367.603 406.225Z" stroke="white" stroke-width="0.356838"/>
<path d="M378.069 407.045C378.069 408.481 376.963 409.644 375.598 409.644C374.233 409.644 373.127 408.481 373.127 407.045C373.127 405.61 374.233 404.446 375.598 404.446C376.963 404.446 378.069 405.61 378.069 407.045Z" stroke="white" stroke-width="0.356838"/>
<path d="M388.244 408.687C388.244 410.122 387.137 411.286 385.773 411.286C384.408 411.286 383.302 410.122 383.302 408.687C383.302 407.251 384.408 406.088 385.773 406.088C387.137 406.088 388.244 407.251 388.244 408.687Z" stroke="white" stroke-width="0.356838"/>
<path d="M397.837 410.328C397.837 411.764 396.861 412.927 395.657 412.927C394.453 412.927 393.476 411.764 393.476 410.328C393.476 408.893 394.453 407.729 395.657 407.729C396.861 407.729 397.837 408.893 397.837 410.328Z" stroke="white" stroke-width="0.356838"/>
<path d="M406.267 412.243C406.267 413.679 405.291 414.842 404.087 414.842C402.883 414.842 401.907 413.679 401.907 412.243C401.907 410.808 402.883 409.644 404.087 409.644C405.291 409.644 406.267 410.808 406.267 412.243Z" stroke="white" stroke-width="0.356838"/>
<path d="M414.982 414.864C414.864 416.295 413.795 417.384 412.595 417.297C411.394 417.209 410.517 415.978 410.635 414.547C410.753 413.116 411.822 412.027 413.022 412.115C414.223 412.202 415.1 413.433 414.982 414.864Z" stroke="white" stroke-width="0.356838"/>
<path d="M422.276 417.584C422.089 419.009 421.097 420.066 420.062 419.945C419.026 419.825 418.338 418.572 418.525 417.148C418.712 415.723 419.704 414.666 420.739 414.787C421.775 414.907 422.463 416.16 422.276 417.584Z" stroke="white" stroke-width="0.356838"/>
<path d="M428.219 420.769C427.794 422.148 426.825 423.095 426.054 422.885C425.283 422.675 425.002 421.386 425.427 420.008C425.851 418.629 426.821 417.682 427.592 417.892C428.363 418.103 428.644 419.391 428.219 420.769Z" stroke="white" stroke-width="0.356838"/>
<path d="M433.305 424.168C432.712 425.596 431.626 426.531 430.878 426.256C430.13 425.981 430.004 424.601 430.597 423.173C431.19 421.745 432.276 420.81 433.024 421.085C433.772 421.36 433.898 422.74 433.305 424.168Z" stroke="white" stroke-width="0.356838"/>
<path d="M437.307 428.536C436.248 429.815 434.923 430.51 434.347 430.088C433.77 429.666 434.161 428.286 435.22 427.007C436.278 425.728 437.604 425.033 438.18 425.455C438.756 425.877 438.365 427.257 437.307 428.536Z" stroke="white" stroke-width="0.356838"/>
<path d="M439.494 433.76C437.896 434.747 436.319 435.141 435.97 434.641C435.621 434.141 436.633 432.936 438.23 431.949C439.828 430.962 441.405 430.568 441.754 431.068C442.103 431.568 441.091 432.773 439.494 433.76Z" stroke="white" stroke-width="0.356838"/>
<path d="M527.493 454.76C523.714 452.161 525.032 449.941 530.836 448.058L573.163 436.352M786.161 378.832L712.318 399.336" stroke="white" stroke-width="0.892094"/>
<path d="M769.893 309.518L695.943 328.378M532.141 369.623L564.474 361.282" stroke="white" stroke-width="0.892094"/>
<path d="M769.893 305.359L687.635 326.155M532.141 365.465L575.591 354.48" stroke="white" stroke-width="0.356838"/>
<path d="M728.656 577.891L775.872 596.357C781.478 598.55 787.774 598.592 793.413 596.475L841.45 578.443L850.456 574.783C872.163 565.962 886.219 545.842 886.219 523.591V436.186C886.219 414.026 875.172 404.154 859.91 408.003C851.334 410.166 438.27 539.157 432.57 540.915C407.408 548.679 389.109 572.273 389.109 600.174V707.087C389.109 727.678 410.591 742.187 431.321 735.597L432.57 735.2L521.879 700.078C524.042 699.227 525.451 697.237 525.451 695.03V690.964C525.451 689.229 524.425 687.639 522.789 686.838L518.183 684.585" stroke="white" stroke-width="2.31945"/>
<path d="M399.289 647.241H402.341C402.341 638.122 402.341 624.617 402.341 613.455C402.341 602.293 397.545 562.434 445.948 547.251C483.58 535.446 851.339 418.808 856.717 417.03C862.095 415.252 867.619 414.841 869.218 415.936" stroke="white" stroke-width="0.356838"/>
<path d="M526.907 439.808L529.259 439.215C530.53 438.894 531.413 437.81 531.413 436.572V210.211C531.413 197.242 522.584 185.731 509.503 181.648L380.008 141.228C375.038 139.676 371.53 135.486 371.091 130.576L363.348 43.7177C363.205 42.1175 364.335 40.6837 365.924 40.4481L395.768 36.023C398.291 35.6508 400.777 36.8717 401.896 39.0325L419.087 73.6148C420.79 76.9034 424.599 78.7349 428.428 78.1056L735.565 27.631C737.076 27.3827 738.532 28.2815 738.891 29.6845L764.853 130.983C767.652 141.906 769.067 153.102 769.067 164.337V361.179C769.067 368.166 773.767 374.387 780.779 376.682L872.268 407.045" stroke="white" stroke-width="1.07051"/>
<path d="M191.43 8.86133L364.691 41.4165" stroke="white" stroke-width="1.07051"/>
<path d="M329.373 137.166L282.508 125.806C281.947 125.67 281.406 126.095 281.406 126.673V148.319C281.406 149.962 282.529 151.393 284.125 151.785L326.405 162.154C328.362 162.634 330.397 162.694 332.379 162.331L385.334 152.623L329.373 137.166Z" stroke="white" stroke-width="1.07051"/>
<path d="M375.304 139.218L182.369 95.8993C179.847 95.3329 178.173 92.9354 178.511 90.3722L188.902 11.5237C189.195 9.30214 190.931 7.54731 193.149 7.23076L224.863 2.70508L398.091 36.1156" stroke="white" stroke-width="1.07051"/>
<path d="M174.677 386.073C130.694 396.83 87.2505 407.467 85.758 407.913C66.2218 413.756 51.8906 432.957 51.8906 455.741L52.0064 544.238C52.0245 558.024 59.982 570.566 72.4469 576.455L407.28 734.649M240.813 369.796C309.135 353.129 337.001 346.586 339.4 346.586" stroke="white" stroke-width="1.07051"/>
<path d="M398.708 649.147V600.773C398.708 575.639 415.188 554.386 437.85 547.392C442.984 545.808 853.387 415.436 859.624 414.021C870.235 411.613 878.956 414.972 878.956 435.49V479.395L398.708 649.147ZM398.708 649.147V687.025M524.148 689.372L430.635 725.421C415.333 731.319 398.562 720.729 398.562 705.168V687.025M875.966 480.727V520.057C875.966 541.206 862.35 560.246 841.531 568.21L789.611 588.071C786.044 589.435 782.047 589.412 778.498 588.006L741.888 573.504" stroke="white" stroke-width="1.07051"/>
<path d="M399.43 665.571L405.503 668.312C408.398 669.618 411.739 669.74 414.733 668.648L488.968 641.57M862.817 485.15V501.747C862.817 505.174 860.554 508.24 857.142 509.437L808.891 526.362M488.968 641.57L491.921 640.493C492.089 640.432 492.258 640.375 492.427 640.324M488.968 641.57L492.427 640.324M808.891 526.362L808.608 526.463M808.891 526.362C808.796 526.395 808.702 526.429 808.608 526.463M492.427 640.324L808.608 526.463M492.427 640.324C497.994 638.644 503.794 642.547 503.794 648.146V682.686C503.794 686.549 507.934 689.196 511.75 687.772L515.619 686.329C518.313 685.324 520.301 683.125 520.923 680.462L525.629 660.324C526.881 654.97 530.889 650.558 536.314 648.562L761.176 565.831C765.511 564.236 770.413 566.125 772.313 570.124L779.694 585.654C780.902 588.197 784.025 589.391 786.775 588.363L788.878 587.577C791.085 586.752 792.624 584.844 792.876 582.623L797.725 539.895C798.411 533.852 802.613 528.679 808.608 526.463" stroke="white" stroke-width="1.60577"/>
<path d="M506.848 687.867L437.078 661.057" stroke="white" stroke-width="1.60577"/>
<path d="M389.114 598L52.0391 456.016" stroke="white" stroke-width="1.60577"/>
<path d="M528.36 198.994L371.523 155.359" stroke="white" stroke-width="1.60577"/>
<path d="M281.114 128.002L183.727 96.4043" stroke="white" stroke-width="1.07051"/>
<path d="M476.617 621.801V625.946C476.617 626.716 477.439 627.245 478.201 626.966L503.929 617.558C504.376 617.394 504.67 616.989 504.67 616.538V611.678M563.539 591.571V595.717C563.539 596.486 564.36 597.015 565.123 596.737L590.85 587.328C591.297 587.165 591.592 586.759 591.592 586.308V581.449M645.227 563.119V567.265C645.227 568.035 646.049 568.564 646.812 568.285L672.539 558.876C672.986 558.713 673.281 558.308 673.281 557.857V552.997M720.521 536.036V540.181C720.521 540.951 721.342 541.48 722.105 541.201L747.832 531.793C748.279 531.629 748.574 531.224 748.574 530.773V525.913M792.616 509.773V513.918C792.616 514.688 793.438 515.217 794.2 514.938L819.928 505.53C820.375 505.366 820.669 504.961 820.669 504.51V499.65" stroke="white" stroke-width="1.07051"/>
<path d="M335.098 421.623C380.961 421.623 419.219 430.525 428.016 442.354C416.09 452.852 379.002 460.507 335.098 460.507C291.192 460.507 254.105 452.851 242.18 442.353C250.977 430.525 289.235 421.623 335.098 421.623Z" fill="#713ADA" fill-opacity="0.1"/>
<path d="M397.447 26.6118L741.051 -19.8216M741.051 -19.8216V22.7402C741.051 24.3142 740.358 25.8084 739.157 26.8254L737.81 27.9654M741.051 -19.8216L684.987 -26.6022M225.102 -5.014L534.168 -43.1672C535.559 -43.339 536.966 -43.3462 538.359 -43.1886L593.575 -36.9427M345.606 16.6472L684.987 -26.6022M684.987 -26.6022L593.575 -36.9427M277.009 4.35681L593.575 -36.9427" stroke="white" stroke-width="1.07051"/>
<path d="M225.008 2.72001V-4.7321C225.008 -4.95489 225.21 -5.12321 225.429 -5.08311L397.132 26.3368V35.7417" stroke="white" stroke-width="1.07051"/>
<path d="M330.586 137.635L282.347 125.934C281.963 131.547 281.194 143.3 281.194 145.412C281.194 148.052 282.347 151.355 286.421 152.162C290.494 152.969 310.647 157.206 316.865 159.829C321.839 161.927 328.085 162.183 330.586 162.048V137.635Z" fill="#D9D9D9" fill-opacity="0.07"/>
<path d="M364.714 41.5675L191.246 8.91514C190.474 9.81613 188.906 11.8332 188.81 12.6935C188.69 13.769 178.492 86.4958 178.492 86.8345C178.492 87.1733 178.698 90.7544 179.212 92.1094C179.624 93.1934 181.666 94.8221 182.636 95.5009L372.823 138.652H375.072C373.868 136.796 371.414 132.615 371.224 130.743C370.988 128.404 363.589 48.0285 363.352 45.4663C363.163 43.4166 364.181 42.013 364.714 41.5675Z" fill="#D9D9D9" fill-opacity="0.07"/>
<path d="M529.166 199.141L372.823 154.868L339.519 161.093L338.958 362.195V376.883L527.899 438.956C528.419 438.956 529.607 438.852 530.194 438.437L530.286 438.373C530.974 437.889 531.48 437.533 531.48 436.623V373.72C531.174 324.757 530.745 224.775 531.48 216.549C532.214 208.324 530.243 201.517 529.166 199.141Z" fill="#D9D9D9" fill-opacity="0.07"/>
<path d="M389.043 597.976L52.0145 456.373L51.25 510.731C51.6051 520.673 52.0145 541.559 52.0145 541.559C52.0145 541.559 330.245 667.416 389.043 693.974V597.976Z" fill="#D9D9D9" fill-opacity="0.07"/>
<path d="M162.762 398.839C160.955 397.232 160.838 395.02 161.005 394.114C160.001 394.114 155.608 401.437 155.231 403.799C154.855 406.162 157.616 409.469 159.499 410.886C161.382 412.304 166.026 414.075 166.653 416.083C167.155 417.69 164.938 419.587 163.766 420.335C164.059 420.532 165.975 420.312 171.297 417.855C177.949 414.784 177.322 412.776 177.824 410.886C178.326 408.996 175.69 406.28 172.803 404.626C169.916 402.973 165.021 400.846 162.762 398.839Z" fill="#D9D9D9" fill-opacity="0.07"/>
<path d="M475.317 512.196L472.932 498.727C467.385 499.11 455.378 499.875 451.728 499.875H433.896L433.205 514.965C435.374 515.226 441.775 515.747 450.018 515.747C458.262 515.747 470.319 513.38 475.317 512.196Z" fill="#D9D9D9" fill-opacity="0.07"/>
<path d="M413.995 512.906L417.061 496.632L409.58 494.439C408.067 498.517 404.87 507.297 404.184 509.79C405.557 510.621 411.297 512.214 413.995 512.906Z" fill="#D9D9D9" fill-opacity="0.07"/>
<path d="M324.413 514.398L329.883 494.439L326.457 493.607L155.069 425.417L153.769 424.092L151.603 426.131C149.13 430.684 144.118 440.075 143.858 441.216C143.598 442.358 144.905 443.187 145.591 443.459C200.62 465.547 311.541 510.089 314.998 511.546C318.454 513.002 322.715 514.054 324.413 514.398Z" fill="#D9D9D9" fill-opacity="0.07"/>
<path d="M225.275 3.21199V-4.98242L397.167 26.3179V35.8056L396.247 35.9898L225.275 3.21199Z" fill="#D9D9D9" fill-opacity="0.07"/>
<path d="M397.058 569.092C400.07 561.37 401.803 561.686 404.184 559.609L63.3266 423.126C61.2429 425.306 58.889 427.777 57.6102 431.376C56.3314 434.975 54.5562 439.343 53.3807 443.459L391.409 582.864C391.842 580.542 394.045 576.814 397.058 569.092Z" fill="#D9D9D9" fill-opacity="0.07"/>
<path d="M687.321 330.799H686.875V331.383L687.437 331.23L687.321 330.799ZM572.713 358.938L572.819 359.371V359.371L572.713 358.938ZM696.978 328.179L697.095 328.609V328.609L696.978 328.179ZM562.984 364.283H562.538L562.538 364.283L562.984 364.283ZM566.028 360.576L565.922 360.143V360.143L566.028 360.576ZM566.316 427.53L566.201 427.099L566.316 427.53ZM563.053 428.426L562.607 428.426C562.607 428.566 562.672 428.697 562.784 428.781C562.895 428.866 563.039 428.893 563.174 428.855L563.053 428.426ZM697.362 392.493L697.246 392.063L697.362 392.493ZM700.319 391.673L700.444 392.101L700.765 392.008V391.673H700.319ZM684.065 314.675L684.168 315.109V315.109L684.065 314.675ZM578.832 339.624L578.729 339.19L578.832 339.624ZM578.832 339.624L578.935 340.058L684.168 315.109L684.065 314.675L683.962 314.241L578.729 339.19L578.832 339.624ZM697.362 392.493L697.246 392.063L566.201 427.099L566.316 427.53L566.431 427.961L697.477 392.924L697.362 392.493ZM563.053 428.426L563.499 428.425L563.43 364.282L562.984 364.283L562.538 364.283L562.607 428.426L563.053 428.426ZM700.319 330.545H699.873V391.673H700.319H700.765V330.545H700.319ZM687.321 317.063H686.875V330.799H687.321H687.767V317.063H687.321ZM687.321 330.799L687.437 331.23L697.095 328.609L696.978 328.179L696.861 327.748L687.204 330.369L687.321 330.799ZM566.028 360.576L566.134 361.01L572.819 359.371L572.713 358.938L572.606 358.505L565.922 360.143L566.028 360.576ZM575.756 355.231H576.202V343.338H575.756H575.31V355.231H575.756ZM572.713 358.938L572.819 359.371C574.794 358.887 576.202 357.197 576.202 355.231H575.756H575.31C575.31 356.753 574.216 358.11 572.606 358.505L572.713 358.938ZM700.319 330.545H700.765C700.765 328.577 698.782 327.227 696.861 327.748L696.978 328.179L697.095 328.609C698.519 328.223 699.873 329.236 699.873 330.545H700.319ZM562.984 364.283H563.43C563.43 362.761 564.525 361.404 566.134 361.01L566.028 360.576L565.922 360.143C563.946 360.628 562.538 362.317 562.538 364.283H562.984ZM566.316 427.53L566.201 427.099C565.364 427.323 564.547 427.547 563.939 427.716C563.635 427.8 563.383 427.87 563.208 427.919C563.12 427.944 563.051 427.963 563.004 427.976C562.981 427.983 562.963 427.988 562.95 427.991C562.944 427.993 562.94 427.994 562.937 427.995C562.935 427.995 562.934 427.996 562.933 427.996C562.933 427.996 562.932 427.996 562.932 427.996C562.932 427.996 562.932 427.996 562.932 427.996C562.932 427.996 562.932 427.996 562.932 427.996C562.932 427.996 562.932 427.996 563.053 428.426C563.174 428.855 563.174 428.855 563.174 428.855C563.174 428.855 563.174 428.855 563.174 428.855C563.174 428.855 563.174 428.855 563.174 428.855C563.174 428.855 563.175 428.855 563.175 428.855C563.176 428.854 563.177 428.854 563.178 428.854C563.181 428.853 563.186 428.852 563.192 428.85C563.204 428.847 563.222 428.842 563.245 428.835C563.292 428.822 563.36 428.803 563.448 428.778C563.623 428.729 563.874 428.659 564.177 428.575C564.783 428.408 565.597 428.184 566.431 427.961L566.316 427.53ZM697.362 392.493L697.477 392.924C698.354 392.69 699.095 392.484 699.618 392.337C699.879 392.264 700.085 392.205 700.226 392.164C700.297 392.144 700.351 392.128 700.388 392.118C700.406 392.112 700.42 392.108 700.43 392.105C700.434 392.104 700.438 392.103 700.44 392.102C700.442 392.102 700.443 392.102 700.443 392.102C700.443 392.101 700.444 392.101 700.444 392.101C700.444 392.101 700.444 392.101 700.444 392.101C700.444 392.101 700.444 392.101 700.444 392.101C700.444 392.101 700.444 392.101 700.319 391.673C700.194 391.245 700.194 391.245 700.194 391.245C700.194 391.245 700.194 391.245 700.194 391.245C700.194 391.245 700.194 391.245 700.194 391.245C700.194 391.245 700.194 391.245 700.193 391.245C700.193 391.245 700.192 391.246 700.191 391.246C700.189 391.247 700.185 391.248 700.181 391.249C700.171 391.251 700.158 391.255 700.14 391.261C700.104 391.271 700.05 391.287 699.98 391.307C699.84 391.347 699.635 391.405 699.376 391.478C698.857 391.625 698.119 391.829 697.246 392.063L697.362 392.493ZM684.065 314.675L684.168 315.109C685.575 314.776 686.875 315.782 686.875 317.063H687.321H687.767C687.767 315.137 685.861 313.791 683.962 314.241L684.065 314.675ZM578.832 339.624L578.729 339.19C576.737 339.662 575.31 341.359 575.31 343.338H575.756H576.202C576.202 341.807 577.311 340.443 578.935 340.058L578.832 339.624Z" fill="white"/>
<path d="M579.555 424.138V344.043C579.555 343.417 580.007 342.871 580.652 342.717L687.037 317.393V395.565" stroke="white" stroke-width="0.356838"/>
<path d="M563.195 428.259L573.598 432.97C576.242 434.167 579.219 434.407 582.02 433.647L712.023 398.389C712.677 398.211 712.739 397.308 712.115 397.043L700.02 391.902" stroke="white" stroke-width="0.892094"/>
<path d="M712.226 397.311V400.995C712.226 401.317 712.011 401.599 711.701 401.684L582.041 437.07C579.23 437.837 576.24 437.597 573.588 436.392L563.799 431.947C563.099 431.628 562.648 430.93 562.648 430.16V427.826" stroke="white" stroke-width="0.356838"/>
</g>
<path opacity="0.5" d="M591.031 348.152C591.031 383.861 562.083 412.808 526.375 412.808C490.666 412.808 461.719 383.861 461.719 348.152" stroke="white" stroke-width="0.702783"/>
<g filter="url(#filter0_d_4961_119149)">
<ellipse cx="526.375" cy="343.232" rx="64.6561" ry="64.656" fill="#1B1B2D"/>
<ellipse cx="526.375" cy="343.232" rx="64.6561" ry="64.656" fill="url(#paint2_linear_4961_119149)" fill-opacity="0.4"/>
</g>
<path d="M550.298 319.206C552.9 316.145 557.583 315.697 560.758 318.205C563.932 320.713 564.397 325.228 561.796 328.288L529.143 369.506C527.778 371.112 525.755 372.069 523.602 372.127C521.449 372.186 519.376 371.341 517.919 369.811L497.2 347.473C494.424 344.558 494.625 340.026 497.647 337.35C500.671 334.673 505.374 334.864 508.151 337.779L523.075 354.037L550.298 319.206Z" fill="#4FE2CE"/>
<ellipse cx="526.025" cy="342.88" rx="61.4935" ry="61.4935" stroke="#4FE2CE" stroke-width="8.4334"/>
<ellipse cx="526.379" cy="343.232" rx="56.9254" ry="56.9254" stroke="white" stroke-width="1.40557"/>
<defs>
<filter id="filter0_d_4961_119149" x="427.985" y="261.709" width="196.78" height="196.78" filterUnits="userSpaceOnUse" color-interpolation-filters="sRGB">
<feFlood flood-opacity="0" result="BackgroundImageFix"/>
<feColorMatrix in="SourceAlpha" type="matrix" values="0 0 0 0 0 0 0 0 0 0 0 0 0 0 0 0 0 0 127 0" result="hardAlpha"/>
<feOffset dy="16.8668"/>
<feGaussianBlur stdDeviation="16.8668"/>
<feComposite in2="hardAlpha" operator="out"/>
<feColorMatrix type="matrix" values="0 0 0 0 0.309804 0 0 0 0 0.886275 0 0 0 0 0.807843 0 0 0 0.5 0"/>
<feBlend mode="normal" in2="BackgroundImageFix" result="effect1_dropShadow_4961_119149"/>
<feBlend mode="normal" in="SourceGraphic" in2="effect1_dropShadow_4961_119149" result="shape"/>
</filter>
<radialGradient id="paint0_radial_4961_119149" cx="0" cy="0" r="1" gradientUnits="userSpaceOnUse" gradientTransform="translate(338.39 406.482) rotate(87.9774) scale(189.166 336.843)">
<stop offset="0.672471" stop-color="#737373"/>
<stop offset="1" stop-color="#D9D9D9" stop-opacity="0"/>
</radialGradient>
<linearGradient id="paint1_linear_4961_119149" x1="628.871" y1="605.155" x2="651.182" y2="654.626" gradientUnits="userSpaceOnUse">
<stop/>
<stop offset="1" stop-opacity="0"/>
</linearGradient>
<linearGradient id="paint2_linear_4961_119149" x1="591.031" y1="425.535" x2="476.602" y2="321.017" gradientUnits="userSpaceOnUse">
<stop stop-color="#4FE2CE"/>
<stop offset="1" stop-color="#4FE2CE" stop-opacity="0.2"/>
</linearGradient>
</defs>
</svg>
