<svg viewBox="0 0 25 25" fill="none" xmlns="http://www.w3.org/2000/svg">
<g opacity="0.1">
<path fill-rule="evenodd" clip-rule="evenodd" d="M18.2653 6.73796C18.6168 7.08943 18.6332 7.64281 18.3021 7.97396L7.97547 18.3006C7.64431 18.6317 7.09093 18.6153 6.73946 18.2638C6.38799 17.9123 6.37152 17.3589 6.70268 17.0278L17.0293 6.70117C17.3605 6.37002 17.9138 6.38649 18.2653 6.73796Z" fill="white"/>
<path fill-rule="evenodd" clip-rule="evenodd" d="M6.7386 6.73796C7.09008 6.38649 7.64345 6.37002 7.97461 6.70117L18.3012 17.0278C18.6324 17.3589 18.6159 17.9123 18.2644 18.2638C17.913 18.6153 17.3596 18.6317 17.0284 18.3006L6.70182 7.97396C6.37066 7.64281 6.38713 7.08943 6.7386 6.73796Z" fill="white"/>
</g>
</svg>
