<svg viewBox="0 0 48 48" fill="none" xmlns="http://www.w3.org/2000/svg">
<rect width="48" height="48" rx="24" fill="white"/>
<path d="M24 42C14.0589 42 6 33.9411 6 24C6 14.0589 14.0589 6 24 6" stroke="black" stroke-width="4"/>
<path opacity="0.15" d="M24 6C33.9411 6 42 14.0589 42 24C42 33.9411 33.9411 42 24 42" stroke="black" stroke-width="4"/>
<rect x="23" y="10" width="2" height="2" rx="1" fill="black"/>
<rect x="23" y="13" width="2" height="2" rx="1" fill="black"/>
<rect x="23" y="33" width="2" height="2" rx="1" fill="black"/>
<rect x="23" y="16" width="2" height="2" rx="1" fill="black"/>
<rect x="23" y="36" width="2" height="2" rx="1" fill="black"/>
<rect x="23" y="2" width="2" height="7" rx="1" fill="black"/>
<rect x="23" y="39" width="2" height="7" rx="1" fill="black"/>
<path d="M18.0896 28.256C17.1296 28.256 16.2922 28.016 15.5776 27.536C14.8736 27.056 14.3296 26.3733 13.9456 25.488C13.5616 24.6027 13.3696 23.552 13.3696 22.336C13.3696 21.12 13.5616 20.0693 13.9456 19.184C14.3296 18.288 14.8736 17.6 15.5776 17.12C16.2922 16.6293 17.1296 16.384 18.0896 16.384C19.0709 16.384 19.9136 16.6293 20.6176 17.12C21.3216 17.6 21.8656 18.2827 22.2496 19.168C22.6336 20.0533 22.8256 21.1093 22.8256 22.336C22.8256 23.552 22.6336 24.6027 22.2496 25.488C21.8656 26.3733 21.3216 27.056 20.6176 27.536C19.9136 28.016 19.0709 28.256 18.0896 28.256ZM18.0896 26.448C18.9216 26.448 19.5616 26.1013 20.0096 25.408C20.4576 24.704 20.6816 23.68 20.6816 22.336C20.6816 21.44 20.5802 20.6827 20.3776 20.064C20.1749 19.4453 19.8816 18.9813 19.4976 18.672C19.1242 18.352 18.6549 18.192 18.0896 18.192C17.5456 18.192 17.0816 18.352 16.6976 18.672C16.3136 18.9813 16.0202 19.4453 15.8176 20.064C15.6149 20.6827 15.5136 21.44 15.5136 22.336C15.5136 23.68 15.7376 24.704 16.1856 25.408C16.6336 26.1013 17.2682 26.448 18.0896 26.448ZM23.8974 28V25.76H26.2334V28H23.8974ZM32.0832 28.256C31.1979 28.256 30.4459 28.1173 29.8272 27.84C29.2085 27.5627 28.7285 27.1787 28.3872 26.688C28.0459 26.1867 27.8432 25.6053 27.7792 24.944L29.9072 24.832C29.9925 25.3653 30.2272 25.7653 30.6112 26.032C30.9952 26.2987 31.4859 26.432 32.0832 26.432C32.7765 26.432 33.3152 26.2453 33.6992 25.872C34.0939 25.488 34.2912 24.9493 34.2912 24.256C34.2912 23.8187 34.2005 23.4347 34.0192 23.104C33.8485 22.7733 33.5979 22.5173 33.2672 22.336C32.9365 22.1547 32.5365 22.064 32.0672 22.064C31.5872 22.064 31.1659 22.1707 30.8032 22.384C30.4512 22.5867 30.1952 22.8587 30.0352 23.2H27.9232L28.7072 16.64H35.6672V18.448H30.5152L30.0672 22.064L29.7952 21.824C29.9659 21.5253 30.1899 21.2747 30.4672 21.072C30.7445 20.8587 31.0645 20.6987 31.4272 20.592C31.8005 20.4853 32.2005 20.432 32.6272 20.432C33.3952 20.432 34.0619 20.5973 34.6272 20.928C35.2032 21.2587 35.6459 21.712 35.9552 22.288C36.2752 22.864 36.4352 23.52 36.4352 24.256C36.4352 25.056 36.2539 25.76 35.8912 26.368C35.5392 26.9653 35.0325 27.4293 34.3712 27.76C33.7205 28.0907 32.9579 28.256 32.0832 28.256Z" fill="black"/>
</svg>