<svg width="514" height="584" viewBox="0 0 514 584" fill="none" xmlns="http://www.w3.org/2000/svg">
<rect x="1" y="1" width="512" height="582" rx="25" fill="url(#paint0_linear_6557_161794)" fill-opacity="0.17"/>
<rect x="0.5" y="0.5" width="513" height="583" rx="25.5" stroke="white" stroke-opacity="0.1"/>
<path d="M202.985 230.695L190.285 226.016L188.28 224.68L183.601 221.338L180.259 217.327L178.922 213.316L179.59 209.974L182.264 205.295L188.28 201.285L196.969 196.606L207.664 193.264L225.043 189.922L238.411 187.916L253.785 187.248H273.838L293.222 189.253L303.917 191.927L315.948 195.269L326.643 200.616L332.659 205.964L334.664 210.643L333.996 215.99L327.311 222.006L315.28 228.022L291.885 234.706L263.143 237.38L238.411 236.711L218.359 234.706L202.985 230.695Z" fill="#D9D9D9" fill-opacity="0.1"/>
<path d="M195.629 221.338L190.281 225.348L191.618 226.017L205.655 231.364L218.355 234.038L235.734 236.711L253.113 237.38L272.497 236.711L291.213 234.706L305.25 232.032L323.297 224.68L325.971 222.674L319.287 219.332L311.934 216.659L301.239 213.317L288.539 209.974L277.844 208.638L268.487 207.301H261.802H251.108L240.413 207.969L227.713 208.638L214.344 211.98L205.655 215.322L195.629 221.338Z" fill="#D9D9D9" fill-opacity="0.25"/>
<path d="M255.623 184.585C278.566 184.358 299.356 187.466 314.418 192.664C321.95 195.264 328.033 198.38 332.235 201.849C336.439 205.319 338.725 209.11 338.764 213.064C338.803 217.018 336.592 220.853 332.458 224.405C328.325 227.957 322.305 231.193 314.825 233.941C299.869 239.435 279.145 242.954 256.202 243.181C233.259 243.408 212.468 240.3 197.406 235.102C189.874 232.503 183.793 229.386 179.59 225.918C175.386 222.448 173.099 218.658 173.06 214.703C173.021 210.749 175.233 206.914 179.367 203.361C183.5 199.81 189.519 196.574 196.999 193.826C211.955 188.331 232.68 184.812 255.623 184.585Z" stroke="white" stroke-width="0.668421"/>
<path d="M256.247 187.015C277.811 186.801 297.334 189.493 311.461 193.998C318.528 196.252 324.207 198.948 328.115 201.934C332.03 204.925 334.07 208.129 334.103 211.398C334.135 214.667 332.158 217.911 328.303 220.979C324.455 224.042 318.83 226.85 311.809 229.244C297.774 234.027 278.308 237.104 256.744 237.317C235.18 237.53 215.656 234.84 201.529 230.334C194.462 228.081 188.783 225.384 184.876 222.398C180.961 219.406 178.92 216.203 178.888 212.934C178.856 209.664 180.832 206.421 184.688 203.352C188.535 200.29 194.16 197.482 201.181 195.089C215.216 190.305 234.683 187.228 256.247 187.015Z" stroke="white" stroke-width="1.33684"/>
<path d="M328.418 245.917C333.488 245.867 338.071 246.501 341.38 247.556C343.035 248.084 344.354 248.711 345.252 249.398C346.155 250.088 346.588 250.799 346.594 251.491C346.601 252.184 346.183 252.902 345.294 253.61C344.409 254.314 343.103 254.968 341.458 255.529C338.172 256.649 333.602 257.373 328.532 257.423C323.462 257.473 318.878 256.84 315.57 255.785C313.914 255.257 312.597 254.629 311.698 253.942C310.795 253.252 310.362 252.542 310.355 251.85C310.348 251.157 310.767 250.438 311.656 249.73C312.541 249.026 313.846 248.372 315.491 247.812C318.778 246.691 323.348 245.967 328.418 245.917Z" stroke="white" stroke-width="0.668421"/>
<path d="M313.273 254.089C314.387 252.752 320.091 250.078 328.647 250.078C337.203 250.078 343.352 252.306 346.026 253.42" stroke="white" stroke-width="0.668421"/>
<path d="M184.444 181.886C187.914 181.852 191.046 182.285 193.302 183.005C194.432 183.365 195.324 183.792 195.927 184.253C196.535 184.717 196.802 185.177 196.807 185.606C196.811 186.035 196.552 186.501 195.954 186.977C195.36 187.45 194.477 187.894 193.354 188.276C191.113 189.04 187.99 189.535 184.52 189.57C181.05 189.604 177.917 189.171 175.661 188.451C174.531 188.091 173.639 187.665 173.036 187.204C172.429 186.739 172.161 186.279 172.156 185.85C172.152 185.421 172.411 184.955 173.009 184.479C173.603 184.006 174.486 183.563 175.609 183.18C177.85 182.416 180.974 181.921 184.444 181.886Z" stroke="white" stroke-width="0.668421"/>
<path d="M325.471 222.823C315.914 217.179 289.396 207.301 259.671 207.301C222.071 207.301 209.381 210.123 189.641 225.645" stroke="white" stroke-width="0.668421"/>
<path d="M246.982 190.229C248.874 190.229 250.408 191.763 250.408 193.657C250.408 195.551 248.874 197.086 246.982 197.086C245.091 197.086 243.557 195.551 243.557 193.657C243.557 191.764 245.091 190.229 246.982 190.229Z" stroke="white" stroke-width="0.668421"/>
<path d="M226.774 192.111C228.366 192.111 229.73 193.603 229.73 195.54C229.73 197.477 228.366 198.969 226.774 198.969C225.183 198.969 223.818 197.477 223.818 195.54C223.818 193.603 225.183 192.111 226.774 192.111Z" stroke="white" stroke-width="0.668421"/>
<path d="M266.721 189.289C268.612 189.289 270.146 190.824 270.146 192.718C270.146 194.612 268.612 196.146 266.721 196.146C264.829 196.146 263.295 194.612 263.295 192.718C263.295 190.824 264.829 189.289 266.721 189.289Z" stroke="white" stroke-width="0.668421"/>
<path d="M287.872 192.111C289.464 192.111 290.828 193.603 290.828 195.54C290.828 197.477 289.464 198.969 287.872 198.969C286.28 198.969 284.916 197.477 284.916 195.54C284.916 193.603 286.28 192.111 287.872 192.111Z" stroke="white" stroke-width="0.668421"/>
<path d="M303.383 194.934C304.033 194.934 304.647 195.285 305.109 195.902C305.572 196.52 305.868 197.389 305.868 198.362C305.868 199.336 305.572 200.205 305.109 200.823C304.647 201.441 304.033 201.791 303.383 201.791C302.733 201.791 302.119 201.441 301.656 200.823C301.193 200.205 300.896 199.336 300.896 198.362C300.897 197.389 301.193 196.52 301.656 195.902C302.119 195.285 302.733 194.934 303.383 194.934Z" stroke="white" stroke-width="0.668421"/>
<path d="M209.383 195.873C210.033 195.873 210.647 196.224 211.109 196.842C211.572 197.459 211.868 198.328 211.868 199.302C211.868 200.276 211.572 201.145 211.109 201.763C210.647 202.38 210.033 202.73 209.383 202.73C208.733 202.73 208.119 202.38 207.656 201.763C207.193 201.145 206.896 200.276 206.896 199.302C206.897 198.328 207.193 197.46 207.656 196.842C208.119 196.224 208.733 195.873 209.383 195.873Z" stroke="white" stroke-width="0.668421"/>
<path d="M318.893 200.576C319.385 200.576 319.881 200.897 320.271 201.521C320.659 202.141 320.909 203.019 320.909 204.005C320.909 204.991 320.659 205.869 320.271 206.489C319.881 207.114 319.385 207.434 318.893 207.434C318.401 207.433 317.905 207.114 317.515 206.489C317.127 205.869 316.877 204.991 316.877 204.005C316.877 203.019 317.128 202.141 317.515 201.521C317.905 200.897 318.401 200.576 318.893 200.576Z" stroke="white" stroke-width="0.668421"/>
<path d="M194.811 202.459C195.303 202.459 195.799 202.78 196.189 203.404C196.577 204.024 196.827 204.901 196.827 205.888C196.827 206.874 196.577 207.752 196.189 208.372C195.799 208.997 195.303 209.316 194.811 209.316C194.319 209.316 193.823 208.996 193.433 208.372C193.045 207.752 192.795 206.874 192.795 205.888C192.795 204.901 193.046 204.024 193.433 203.404C193.823 202.78 194.319 202.459 194.811 202.459Z" stroke="white" stroke-width="0.668421"/>
<path d="M329.232 208.104C329.724 208.104 330.221 208.424 330.611 209.049C330.998 209.669 331.249 210.546 331.249 211.532C331.249 212.519 330.998 213.397 330.611 214.017C330.221 214.641 329.724 214.961 329.232 214.961C328.741 214.961 328.245 214.641 327.854 214.017C327.467 213.397 327.217 212.519 327.217 211.532C327.217 210.546 327.467 209.669 327.854 209.049C328.245 208.424 328.741 208.104 329.232 208.104Z" stroke="white" stroke-width="0.668421"/>
<path d="M183.529 210.926C184.021 210.926 184.518 211.246 184.908 211.871C185.295 212.491 185.546 213.368 185.546 214.354C185.546 215.341 185.295 216.219 184.908 216.839C184.518 217.464 184.021 217.783 183.529 217.783C183.037 217.783 182.541 217.463 182.151 216.839C181.764 216.219 181.514 215.341 181.514 214.354C181.514 213.368 181.764 212.491 182.151 211.871C182.541 211.247 183.037 210.926 183.529 210.926Z" stroke="white" stroke-width="0.668421"/>
<path d="M216.432 275.505C216.432 275.505 146.813 244.452 99.4021 219.531C92.6654 215.99 99.333 206.632 107.334 205.963C111.564 205.336 120.74 202.22 123.372 196.952C126.004 191.684 135.122 188.799 139.352 188.015C163.009 182.684 210.98 171.928 213.612 171.552C216.902 171.081 217.372 171.081 223.482 172.022C228.37 172.775 231.159 172.649 231.942 172.492L254.972 167.319C256.853 166.849 257.334 167.195 257.334 167.195C257.334 167.195 259.046 169.044 259.672 169.2C306.516 185.977 400.861 219.718 403.493 220.471C406.125 221.223 409.289 220.784 410.543 220.471L418.063 218.59L421.353 217.649C421.353 217.649 429.813 224.705 429.813 230.82C429.813 235.712 421.979 239.757 418.063 241.168C395.033 248.537 346.34 263.84 335.812 266.098C322.652 268.92 302.442 268.45 294.922 267.979C287.402 267.509 275.652 268.92 271.422 270.331C267.192 271.742 253.562 277.857 244.162 278.798C236.642 279.55 222.542 276.916 216.432 275.505Z" stroke="white" stroke-width="1.33684"/>
<path d="M429.824 230.818V246.34C429.824 249.633 428.508 253.584 425.124 256.218C421.74 258.852 369.821 273.935 344.284 281.148C338.801 282.559 326.236 285.381 319.844 285.381C311.854 285.381 297.284 284.44 290.234 285.851C283.184 287.263 268.614 292.437 263.914 295.259C259.214 298.081 244.234 300.005 235.714 299.022C223.487 297.611 142.654 255.905 100.354 235.051C95.6377 232.331 96.581 226.114 96.581 213.885" stroke="white" stroke-width="0.915815"/>
<path d="M173 187C173.782 186.333 177.788 185 183.796 185C189.804 185 194.122 186.111 196 186.667" stroke="white" stroke-width="0.668421"/>
<path d="M429.9 235.051V250.573C429.9 253.866 428.584 257.817 425.2 260.451C421.816 263.085 369.897 278.168 344.36 285.38C338.876 286.792 326.312 289.614 319.92 289.614C311.93 289.614 297.36 288.673 290.31 290.084C283.26 291.495 268.69 296.669 263.99 299.492C257.85 303.254 245.664 314.826 246.04 331.006V346.332" stroke="url(#paint1_linear_6557_161794)" stroke-width="0.668421"/>
<path d="M217.997 292.857V347M100.664 235.27V342.824" stroke="url(#paint2_linear_6557_161794)" stroke-width="0.668421"/>
<path d="M407.492 220.937V126.021" stroke="url(#paint3_linear_6557_161794)" stroke-width="0.668421"/>
<path d="M411.333 220L482 200.242" stroke="url(#paint4_linear_6557_161794)" stroke-width="0.668421"/>
<path d="M399.492 218.263V123.348" stroke="url(#paint5_linear_6557_161794)" stroke-width="0.668421"/>
<path d="M256.664 166.526L256.664 113.053" stroke="url(#paint6_linear_6557_161794)" stroke-width="0.668421"/>
<path d="M444.381 270.328L323.121 312.191C313.564 315.013 294.733 325.926 295.861 346.998" stroke="url(#paint7_linear_6557_161794)" stroke-width="0.668421"/>
<path d="M122.903 197.893L94.2323 205.419C90.0023 206.516 81.6363 210.781 82.0123 219.059C82.3883 227.338 82.1689 310.625 82.0123 319.718" stroke="url(#paint8_linear_6557_161794)" stroke-width="0.668421"/>
<path d="M244.417 155.863C256.458 170.329 262.569 187.665 261.955 205.13L272.938 195.94C273.699 195.304 274.83 195.406 275.465 196.168C276.099 196.93 275.997 198.065 275.236 198.701L260.388 211.125L259.5 211.948L256.384 208.263L246.618 196.112C245.999 195.342 246.11 194.216 246.868 193.582C247.635 192.94 248.775 193.043 249.415 193.812L258.384 204.587C258.854 188.201 253.079 171.882 241.663 158.167C217.492 129.128 174.734 124.824 145.359 148.156C144.582 148.773 143.449 148.676 142.814 147.914C142.18 147.151 142.285 146.012 143.061 145.394C173.958 120.789 218.978 125.3 244.417 155.863Z" fill="#4FE2CE"/>
<path d="M43.6509 427V398.6H54.2509C57.5043 398.6 60.0376 399.387 61.8509 400.96C63.6643 402.507 64.5709 404.667 64.5709 407.44C64.5709 409.28 64.1576 410.88 63.3309 412.24C62.5043 413.573 61.3176 414.6 59.7709 415.32C58.2509 416.013 56.4109 416.36 54.2509 416.36H47.9709V427H43.6509ZM47.9709 412.44H54.1309C56.0776 412.44 57.5576 412.027 58.5709 411.2C59.5843 410.347 60.0909 409.093 60.0909 407.44C60.0909 405.813 59.5843 404.6 58.5709 403.8C57.5576 402.973 56.0776 402.56 54.1309 402.56H47.9709V412.44ZM73.14 427C71.7533 427 70.6333 426.64 69.78 425.92C68.9267 425.2 68.5 424.053 68.5 422.48V398.6H72.74V422.08C72.74 422.56 72.86 422.92 73.1 423.16C73.3667 423.4 73.74 423.52 74.22 423.52H75.9V427H73.14ZM84.71 427.48C82.4967 427.48 80.7233 426.973 79.39 425.96C78.0833 424.947 77.43 423.52 77.43 421.68C77.43 419.84 77.9767 418.413 79.07 417.4C80.19 416.36 81.91 415.613 84.23 415.16L91.55 413.76C91.55 412.107 91.1633 410.88 90.39 410.08C89.6167 409.253 88.47 408.84 86.95 408.84C85.59 408.84 84.5233 409.147 83.75 409.76C82.9767 410.347 82.4433 411.227 82.15 412.4L77.79 412.12C78.19 409.987 79.1767 408.307 80.75 407.08C82.35 405.853 84.4167 405.24 86.95 405.24C89.83 405.24 92.0167 406.013 93.51 407.56C95.03 409.08 95.79 411.227 95.79 414V422.28C95.79 422.787 95.87 423.147 96.03 423.36C96.2167 423.547 96.51 423.64 96.91 423.64H97.67V427C97.5367 427.027 97.3233 427.053 97.03 427.08C96.7367 427.107 96.43 427.12 96.11 427.12C95.2033 427.12 94.4167 426.973 93.75 426.68C93.11 426.387 92.63 425.907 92.31 425.24C91.99 424.547 91.83 423.627 91.83 422.48L92.27 422.68C92.0567 423.613 91.59 424.44 90.87 425.16C90.1767 425.88 89.2833 426.453 88.19 426.88C87.1233 427.28 85.9633 427.48 84.71 427.48ZM85.39 424.12C86.67 424.12 87.7633 423.88 88.67 423.4C89.5767 422.893 90.2833 422.2 90.79 421.32C91.2967 420.44 91.55 419.44 91.55 418.32V416.96L85.31 418.16C84.03 418.4 83.1233 418.787 82.59 419.32C82.0833 419.827 81.83 420.48 81.83 421.28C81.83 422.187 82.1367 422.893 82.75 423.4C83.39 423.88 84.27 424.12 85.39 424.12ZM108.854 427.48C106.827 427.48 105.054 427.027 103.534 426.12C102.014 425.213 100.84 423.92 100.014 422.24C99.1871 420.56 98.7738 418.6 98.7738 416.36C98.7738 414.12 99.1871 412.173 100.014 410.52C100.84 408.84 102.014 407.547 103.534 406.64C105.054 405.707 106.827 405.24 108.854 405.24C110.587 405.24 112.12 405.547 113.454 406.16C114.814 406.747 115.907 407.613 116.734 408.76C117.587 409.907 118.134 411.307 118.374 412.96L113.934 413.2C113.72 411.813 113.16 410.76 112.254 410.04C111.347 409.293 110.214 408.92 108.854 408.92C107.067 408.92 105.667 409.587 104.654 410.92C103.667 412.227 103.174 414.04 103.174 416.36C103.174 418.68 103.667 420.507 104.654 421.84C105.667 423.147 107.067 423.8 108.854 423.8C110.214 423.8 111.347 423.427 112.254 422.68C113.16 421.907 113.72 420.747 113.934 419.2L118.374 419.44C118.134 421.067 117.587 422.48 116.734 423.68C115.907 424.88 114.814 425.813 113.454 426.48C112.12 427.147 110.587 427.48 108.854 427.48ZM130.002 427.48C127.922 427.48 126.122 427.027 124.602 426.12C123.109 425.213 121.949 423.92 121.122 422.24C120.322 420.56 119.922 418.6 119.922 416.36C119.922 414.12 120.322 412.173 121.122 410.52C121.949 408.84 123.109 407.547 124.602 406.64C126.096 405.707 127.856 405.24 129.882 405.24C131.802 405.24 133.496 405.693 134.962 406.6C136.429 407.48 137.562 408.76 138.362 410.44C139.189 412.12 139.602 414.147 139.602 416.52V417.6H124.322C124.429 419.68 124.976 421.24 125.962 422.28C126.976 423.32 128.336 423.84 130.042 423.84C131.296 423.84 132.336 423.547 133.162 422.96C133.989 422.373 134.562 421.587 134.882 420.6L139.282 420.88C138.722 422.853 137.616 424.453 135.962 425.68C134.336 426.88 132.349 427.48 130.002 427.48ZM124.322 414.4H135.122C134.989 412.507 134.442 411.107 133.482 410.2C132.549 409.293 131.349 408.84 129.882 408.84C128.362 408.84 127.109 409.32 126.122 410.28C125.162 411.213 124.562 412.587 124.322 414.4ZM157.976 427.48C155.762 427.48 153.989 426.973 152.656 425.96C151.349 424.947 150.696 423.52 150.696 421.68C150.696 419.84 151.242 418.413 152.336 417.4C153.456 416.36 155.176 415.613 157.496 415.16L164.816 413.76C164.816 412.107 164.429 410.88 163.656 410.08C162.882 409.253 161.736 408.84 160.216 408.84C158.856 408.84 157.789 409.147 157.016 409.76C156.242 410.347 155.709 411.227 155.416 412.4L151.056 412.12C151.456 409.987 152.442 408.307 154.016 407.08C155.616 405.853 157.682 405.24 160.216 405.24C163.096 405.24 165.282 406.013 166.776 407.56C168.296 409.08 169.056 411.227 169.056 414V422.28C169.056 422.787 169.136 423.147 169.296 423.36C169.482 423.547 169.776 423.64 170.176 423.64H170.936V427C170.802 427.027 170.589 427.053 170.296 427.08C170.002 427.107 169.696 427.12 169.376 427.12C168.469 427.12 167.682 426.973 167.016 426.68C166.376 426.387 165.896 425.907 165.576 425.24C165.256 424.547 165.096 423.627 165.096 422.48L165.536 422.68C165.322 423.613 164.856 424.44 164.136 425.16C163.442 425.88 162.549 426.453 161.456 426.88C160.389 427.28 159.229 427.48 157.976 427.48ZM158.656 424.12C159.936 424.12 161.029 423.88 161.936 423.4C162.842 422.893 163.549 422.2 164.056 421.32C164.562 420.44 164.816 419.44 164.816 418.32V416.96L158.576 418.16C157.296 418.4 156.389 418.787 155.856 419.32C155.349 419.827 155.096 420.48 155.096 421.28C155.096 422.187 155.402 422.893 156.016 423.4C156.656 423.88 157.536 424.12 158.656 424.12ZM190.559 427.48C188.559 427.48 186.866 427.173 185.479 426.56C184.119 425.947 183.066 425.107 182.319 424.04C181.573 422.947 181.146 421.693 181.039 420.28L185.399 420.08C185.613 421.253 186.119 422.187 186.919 422.88C187.719 423.573 188.933 423.92 190.559 423.92C191.893 423.92 192.946 423.707 193.719 423.28C194.493 422.853 194.879 422.173 194.879 421.24C194.879 420.733 194.746 420.307 194.479 419.96C194.239 419.587 193.759 419.28 193.039 419.04C192.319 418.773 191.253 418.52 189.839 418.28C187.733 417.88 186.079 417.413 184.879 416.88C183.679 416.347 182.826 415.667 182.319 414.84C181.813 414.013 181.559 413.013 181.559 411.84C181.559 409.893 182.279 408.307 183.719 407.08C185.186 405.853 187.293 405.24 190.039 405.24C191.879 405.24 193.426 405.56 194.679 406.2C195.933 406.813 196.906 407.653 197.599 408.72C198.319 409.76 198.773 410.933 198.959 412.24L194.599 412.48C194.466 411.733 194.199 411.093 193.799 410.56C193.426 410 192.919 409.573 192.279 409.28C191.639 408.96 190.879 408.8 189.999 408.8C188.639 408.8 187.626 409.067 186.959 409.6C186.293 410.133 185.959 410.827 185.959 411.68C185.959 412.32 186.106 412.84 186.399 413.24C186.719 413.64 187.226 413.973 187.919 414.24C188.613 414.48 189.533 414.693 190.679 414.88C192.893 415.253 194.626 415.72 195.879 416.28C197.133 416.813 198.013 417.48 198.519 418.28C199.026 419.08 199.279 420.053 199.279 421.2C199.279 422.533 198.906 423.667 198.159 424.6C197.413 425.533 196.386 426.253 195.079 426.76C193.773 427.24 192.266 427.48 190.559 427.48ZM209.57 427.48C207.437 427.48 205.73 426.773 204.45 425.36C203.197 423.92 202.57 421.933 202.57 419.4V405.72H206.81V418.32C206.81 420.24 207.144 421.653 207.81 422.56C208.477 423.467 209.49 423.92 210.85 423.92C212.397 423.92 213.597 423.427 214.45 422.44C215.33 421.427 215.77 420.013 215.77 418.2V405.72H220.01V427H216.05L215.97 421.44L216.57 421.68C216.197 423.547 215.41 424.987 214.21 426C213.01 426.987 211.464 427.48 209.57 427.48ZM232.113 427C230.086 427 228.593 426.533 227.633 425.6C226.673 424.667 226.193 423.213 226.193 421.24V400.72H230.433V420.92C230.433 421.907 230.646 422.587 231.073 422.96C231.5 423.333 232.153 423.52 233.033 423.52H236.073V427H232.113ZM222.953 409.2V405.72H236.073V409.2H222.953ZM246.203 427.48C244.07 427.48 242.363 426.773 241.083 425.36C239.83 423.92 239.203 421.933 239.203 419.4V405.72H243.443V418.32C243.443 420.24 243.776 421.653 244.443 422.56C245.11 423.467 246.123 423.92 247.483 423.92C249.03 423.92 250.23 423.427 251.083 422.44C251.963 421.427 252.403 420.013 252.403 418.2V405.72H256.643V427H252.683L252.603 421.44L253.203 421.68C252.83 423.547 252.043 424.987 250.843 426C249.643 426.987 248.096 427.48 246.203 427.48ZM261.641 427V405.72H265.521L265.681 411.36L265.321 411.24C265.614 409.32 266.201 407.92 267.081 407.04C267.987 406.16 269.201 405.72 270.721 405.72H272.761V409.52H270.721C269.654 409.52 268.761 409.693 268.041 410.04C267.321 410.387 266.774 410.92 266.401 411.64C266.054 412.36 265.881 413.293 265.881 414.44V427H261.641ZM283.541 427.48C281.461 427.48 279.661 427.027 278.141 426.12C276.648 425.213 275.488 423.92 274.661 422.24C273.861 420.56 273.461 418.6 273.461 416.36C273.461 414.12 273.861 412.173 274.661 410.52C275.488 408.84 276.648 407.547 278.141 406.64C279.635 405.707 281.395 405.24 283.421 405.24C285.341 405.24 287.035 405.693 288.501 406.6C289.968 407.48 291.101 408.76 291.901 410.44C292.728 412.12 293.141 414.147 293.141 416.52V417.6H277.861C277.968 419.68 278.515 421.24 279.501 422.28C280.515 423.32 281.875 423.84 283.581 423.84C284.835 423.84 285.875 423.547 286.701 422.96C287.528 422.373 288.101 421.587 288.421 420.6L292.821 420.88C292.261 422.853 291.155 424.453 289.501 425.68C287.875 426.88 285.888 427.48 283.541 427.48ZM277.861 414.4H288.661C288.528 412.507 287.981 411.107 287.021 410.2C286.088 409.293 284.888 408.84 283.421 408.84C281.901 408.84 280.648 409.32 279.661 410.28C278.701 411.213 278.101 412.587 277.861 414.4ZM305.555 427V405.72H309.435L309.595 411.4L309.075 411.12C309.315 409.733 309.768 408.613 310.435 407.76C311.101 406.907 311.915 406.28 312.875 405.88C313.835 405.453 314.875 405.24 315.995 405.24C317.595 405.24 318.915 405.6 319.955 406.32C321.021 407.013 321.821 407.973 322.355 409.2C322.915 410.4 323.195 411.773 323.195 413.32V427H318.955V414.6C318.955 413.347 318.821 412.293 318.555 411.44C318.288 410.587 317.848 409.933 317.235 409.48C316.621 409.027 315.821 408.8 314.835 408.8C313.341 408.8 312.128 409.293 311.195 410.28C310.261 411.267 309.795 412.707 309.795 414.6V427H305.555ZM336.479 427.48C334.399 427.48 332.599 427.027 331.079 426.12C329.585 425.213 328.425 423.92 327.599 422.24C326.799 420.56 326.399 418.6 326.399 416.36C326.399 414.12 326.799 412.173 327.599 410.52C328.425 408.84 329.585 407.547 331.079 406.64C332.572 405.707 334.332 405.24 336.359 405.24C338.279 405.24 339.972 405.693 341.439 406.6C342.905 407.48 344.039 408.76 344.839 410.44C345.665 412.12 346.079 414.147 346.079 416.52V417.6H330.799C330.905 419.68 331.452 421.24 332.439 422.28C333.452 423.32 334.812 423.84 336.519 423.84C337.772 423.84 338.812 423.547 339.639 422.96C340.465 422.373 341.039 421.587 341.359 420.6L345.759 420.88C345.199 422.853 344.092 424.453 342.439 425.68C340.812 426.88 338.825 427.48 336.479 427.48ZM330.799 414.4H341.599C341.465 412.507 340.919 411.107 339.959 410.2C339.025 409.293 337.825 408.84 336.359 408.84C334.839 408.84 333.585 409.32 332.599 410.28C331.639 411.213 331.039 412.587 330.799 414.4ZM358.135 427.48C356.055 427.48 354.255 427.027 352.735 426.12C351.242 425.213 350.082 423.92 349.255 422.24C348.455 420.56 348.055 418.6 348.055 416.36C348.055 414.12 348.455 412.173 349.255 410.52C350.082 408.84 351.242 407.547 352.735 406.64C354.228 405.707 355.988 405.24 358.015 405.24C359.935 405.24 361.628 405.693 363.095 406.6C364.562 407.48 365.695 408.76 366.495 410.44C367.322 412.12 367.735 414.147 367.735 416.52V417.6H352.455C352.562 419.68 353.108 421.24 354.095 422.28C355.108 423.32 356.468 423.84 358.175 423.84C359.428 423.84 360.468 423.547 361.295 422.96C362.122 422.373 362.695 421.587 363.015 420.6L367.415 420.88C366.855 422.853 365.748 424.453 364.095 425.68C362.468 426.88 360.482 427.48 358.135 427.48ZM352.455 414.4H363.255C363.122 412.507 362.575 411.107 361.615 410.2C360.682 409.293 359.482 408.84 358.015 408.84C356.495 408.84 355.242 409.32 354.255 410.28C353.295 411.213 352.695 412.587 352.455 414.4ZM378.591 427.48C376.778 427.48 375.191 427.027 373.831 426.12C372.498 425.213 371.471 423.933 370.751 422.28C370.058 420.6 369.711 418.627 369.711 416.36C369.711 414.093 370.071 412.133 370.791 410.48C371.511 408.8 372.538 407.507 373.871 406.6C375.205 405.693 376.778 405.24 378.591 405.24C380.058 405.24 381.365 405.547 382.511 406.16C383.658 406.773 384.525 407.627 385.111 408.72V398.6H389.351V427H385.391L385.271 423.8C384.685 424.947 383.791 425.853 382.591 426.52C381.418 427.16 380.085 427.48 378.591 427.48ZM379.711 423.8C380.858 423.8 381.831 423.507 382.631 422.92C383.431 422.333 384.045 421.48 384.471 420.36C384.898 419.24 385.111 417.907 385.111 416.36C385.111 414.76 384.898 413.413 384.471 412.32C384.045 411.2 383.431 410.36 382.631 409.8C381.831 409.213 380.858 408.92 379.711 408.92C378.005 408.92 376.645 409.587 375.631 410.92C374.618 412.227 374.111 414.04 374.111 416.36C374.111 418.653 374.618 420.467 375.631 421.8C376.645 423.133 378.005 423.8 379.711 423.8ZM398.695 427C397.308 427 396.188 426.64 395.335 425.92C394.481 425.2 394.055 424.053 394.055 422.48V398.6H398.295V422.08C398.295 422.56 398.415 422.92 398.655 423.16C398.921 423.4 399.295 423.52 399.775 423.52H401.455V427H398.695ZM412.83 427.48C410.75 427.48 408.95 427.027 407.43 426.12C405.937 425.213 404.777 423.92 403.95 422.24C403.15 420.56 402.75 418.6 402.75 416.36C402.75 414.12 403.15 412.173 403.95 410.52C404.777 408.84 405.937 407.547 407.43 406.64C408.924 405.707 410.684 405.24 412.71 405.24C414.63 405.24 416.324 405.693 417.79 406.6C419.257 407.48 420.39 408.76 421.19 410.44C422.017 412.12 422.43 414.147 422.43 416.52V417.6H407.15C407.257 419.68 407.804 421.24 408.79 422.28C409.804 423.32 411.164 423.84 412.87 423.84C414.124 423.84 415.164 423.547 415.99 422.96C416.817 422.373 417.39 421.587 417.71 420.6L422.11 420.88C421.55 422.853 420.444 424.453 418.79 425.68C417.164 426.88 415.177 427.48 412.83 427.48ZM407.15 414.4H417.95C417.817 412.507 417.27 411.107 416.31 410.2C415.377 409.293 414.177 408.84 412.71 408.84C411.19 408.84 409.937 409.32 408.95 410.28C407.99 411.213 407.39 412.587 407.15 414.4ZM434.844 427V405.72H439.084V427H434.844ZM434.764 402.64V398.4H439.164V402.64H434.764ZM444.43 427V405.72H448.31L448.47 411.4L447.95 411.12C448.19 409.733 448.643 408.613 449.31 407.76C449.976 406.907 450.79 406.28 451.75 405.88C452.71 405.453 453.75 405.24 454.87 405.24C456.47 405.24 457.79 405.6 458.83 406.32C459.896 407.013 460.696 407.973 461.23 409.2C461.79 410.4 462.07 411.773 462.07 413.32V427H457.83V414.6C457.83 413.347 457.696 412.293 457.43 411.44C457.163 410.587 456.723 409.933 456.11 409.48C455.496 409.027 454.696 408.8 453.71 408.8C452.216 408.8 451.003 409.293 450.07 410.28C449.136 411.267 448.67 412.707 448.67 414.6V427H444.43ZM146.883 479C144.856 479 143.363 478.533 142.403 477.6C141.443 476.667 140.963 475.213 140.963 473.24V452.72H145.203V472.92C145.203 473.907 145.416 474.587 145.843 474.96C146.269 475.333 146.923 475.52 147.803 475.52H150.843V479H146.883ZM137.723 461.2V457.72H150.843V461.2H137.723ZM153.895 479V450.6H158.135V462.52L157.615 462.44C157.855 461.24 158.295 460.267 158.935 459.52C159.575 458.747 160.361 458.173 161.295 457.8C162.228 457.427 163.255 457.24 164.375 457.24C165.921 457.24 167.228 457.587 168.295 458.28C169.361 458.947 170.161 459.893 170.695 461.12C171.255 462.347 171.535 463.747 171.535 465.32V479H167.295V466.44C167.295 464.52 166.961 463.107 166.295 462.2C165.655 461.267 164.641 460.8 163.255 460.8C161.708 460.8 160.468 461.293 159.535 462.28C158.601 463.24 158.135 464.653 158.135 466.52V479H153.895ZM184.819 479.48C182.739 479.48 180.939 479.027 179.419 478.12C177.925 477.213 176.765 475.92 175.939 474.24C175.139 472.56 174.739 470.6 174.739 468.36C174.739 466.12 175.139 464.173 175.939 462.52C176.765 460.84 177.925 459.547 179.419 458.64C180.912 457.707 182.672 457.24 184.699 457.24C186.619 457.24 188.312 457.693 189.779 458.6C191.245 459.48 192.379 460.76 193.179 462.44C194.005 464.12 194.419 466.147 194.419 468.52V469.6H179.139C179.245 471.68 179.792 473.24 180.779 474.28C181.792 475.32 183.152 475.84 184.859 475.84C186.112 475.84 187.152 475.547 187.979 474.96C188.805 474.373 189.379 473.587 189.699 472.6L194.099 472.88C193.539 474.853 192.432 476.453 190.779 477.68C189.152 478.88 187.165 479.48 184.819 479.48ZM179.139 466.4H189.939C189.805 464.507 189.259 463.107 188.299 462.2C187.365 461.293 186.165 460.84 184.699 460.84C183.179 460.84 181.925 461.32 180.939 462.28C179.979 463.213 179.379 464.587 179.139 466.4ZM207.272 479V450.6H211.592V464.28L209.512 462.76H226.792L224.712 464.28V450.6H229.032V479H224.712V465.16L226.792 466.68H209.512L211.592 465.16V479H207.272ZM240.034 479.48C237.821 479.48 236.048 478.973 234.714 477.96C233.408 476.947 232.754 475.52 232.754 473.68C232.754 471.84 233.301 470.413 234.394 469.4C235.514 468.36 237.234 467.613 239.554 467.16L246.874 465.76C246.874 464.107 246.488 462.88 245.714 462.08C244.941 461.253 243.794 460.84 242.274 460.84C240.914 460.84 239.848 461.147 239.074 461.76C238.301 462.347 237.768 463.227 237.474 464.4L233.114 464.12C233.514 461.987 234.501 460.307 236.074 459.08C237.674 457.853 239.741 457.24 242.274 457.24C245.154 457.24 247.341 458.013 248.834 459.56C250.354 461.08 251.114 463.227 251.114 466V474.28C251.114 474.787 251.194 475.147 251.354 475.36C251.541 475.547 251.834 475.64 252.234 475.64H252.994V479C252.861 479.027 252.648 479.053 252.354 479.08C252.061 479.107 251.754 479.12 251.434 479.12C250.528 479.12 249.741 478.973 249.074 478.68C248.434 478.387 247.954 477.907 247.634 477.24C247.314 476.547 247.154 475.627 247.154 474.48L247.594 474.68C247.381 475.613 246.914 476.44 246.194 477.16C245.501 477.88 244.608 478.453 243.514 478.88C242.448 479.28 241.288 479.48 240.034 479.48ZM240.714 476.12C241.994 476.12 243.088 475.88 243.994 475.4C244.901 474.893 245.608 474.2 246.114 473.32C246.621 472.44 246.874 471.44 246.874 470.32V468.96L240.634 470.16C239.354 470.4 238.448 470.787 237.914 471.32C237.408 471.827 237.154 472.48 237.154 473.28C237.154 474.187 237.461 474.893 238.074 475.4C238.714 475.88 239.594 476.12 240.714 476.12ZM255.798 485V481.52H258.398C259.118 481.52 259.651 481.413 259.998 481.2C260.344 480.987 260.611 480.627 260.798 480.12L261.478 478.36H260.158L252.478 457.72H256.958L262.798 474.44L268.358 457.72H272.878L264.398 481.48C263.971 482.707 263.331 483.6 262.478 484.16C261.651 484.72 260.491 485 258.998 485H255.798ZM285.801 479.64C283.534 479.64 281.561 479.227 279.881 478.4C278.228 477.573 276.921 476.427 275.961 474.96C275.001 473.493 274.441 471.787 274.281 469.84L278.721 469.56C278.908 470.893 279.294 472.027 279.881 472.96C280.468 473.867 281.254 474.56 282.241 475.04C283.254 475.493 284.468 475.72 285.881 475.72C287.108 475.72 288.148 475.573 289.001 475.28C289.881 474.96 290.548 474.493 291.001 473.88C291.454 473.267 291.681 472.52 291.681 471.64C291.681 470.84 291.481 470.133 291.081 469.52C290.708 468.88 289.974 468.307 288.881 467.8C287.814 467.267 286.241 466.747 284.161 466.24C281.894 465.68 280.081 465.067 278.721 464.4C277.361 463.733 276.374 462.907 275.761 461.92C275.174 460.907 274.881 459.667 274.881 458.2C274.881 456.573 275.268 455.147 276.041 453.92C276.841 452.667 277.974 451.693 279.441 451C280.908 450.307 282.668 449.96 284.721 449.96C286.881 449.96 288.721 450.36 290.241 451.16C291.788 451.96 293.001 453.053 293.881 454.44C294.788 455.827 295.348 457.413 295.561 459.2L291.121 459.44C290.988 458.347 290.654 457.387 290.121 456.56C289.588 455.707 288.868 455.053 287.961 454.6C287.054 454.12 285.948 453.88 284.641 453.88C282.988 453.88 281.681 454.267 280.721 455.04C279.788 455.787 279.321 456.787 279.321 458.04C279.321 458.84 279.508 459.52 279.881 460.08C280.281 460.613 280.974 461.08 281.961 461.48C282.974 461.88 284.401 462.307 286.241 462.76C288.694 463.32 290.641 464.013 292.081 464.84C293.548 465.64 294.588 466.587 295.201 467.68C295.814 468.773 296.121 470.013 296.121 471.4C296.121 473.08 295.681 474.547 294.801 475.8C293.948 477.027 292.748 477.973 291.201 478.64C289.654 479.307 287.854 479.64 285.801 479.64ZM307.515 479C305.489 479 303.995 478.533 303.035 477.6C302.075 476.667 301.595 475.213 301.595 473.24V452.72H305.835V472.92C305.835 473.907 306.049 474.587 306.475 474.96C306.902 475.333 307.555 475.52 308.435 475.52H311.475V479H307.515ZM298.355 461.2V457.72H311.475V461.2H298.355ZM320.37 479.48C318.157 479.48 316.383 478.973 315.05 477.96C313.743 476.947 313.09 475.52 313.09 473.68C313.09 471.84 313.637 470.413 314.73 469.4C315.85 468.36 317.57 467.613 319.89 467.16L327.21 465.76C327.21 464.107 326.823 462.88 326.05 462.08C325.277 461.253 324.13 460.84 322.61 460.84C321.25 460.84 320.183 461.147 319.41 461.76C318.637 462.347 318.103 463.227 317.81 464.4L313.45 464.12C313.85 461.987 314.837 460.307 316.41 459.08C318.01 457.853 320.077 457.24 322.61 457.24C325.49 457.24 327.677 458.013 329.17 459.56C330.69 461.08 331.45 463.227 331.45 466V474.28C331.45 474.787 331.53 475.147 331.69 475.36C331.877 475.547 332.17 475.64 332.57 475.64H333.33V479C333.197 479.027 332.983 479.053 332.69 479.08C332.397 479.107 332.09 479.12 331.77 479.12C330.863 479.12 330.077 478.973 329.41 478.68C328.77 478.387 328.29 477.907 327.97 477.24C327.65 476.547 327.49 475.627 327.49 474.48L327.93 474.68C327.717 475.613 327.25 476.44 326.53 477.16C325.837 477.88 324.943 478.453 323.85 478.88C322.783 479.28 321.623 479.48 320.37 479.48ZM321.05 476.12C322.33 476.12 323.423 475.88 324.33 475.4C325.237 474.893 325.943 474.2 326.45 473.32C326.957 472.44 327.21 471.44 327.21 470.32V468.96L320.97 470.16C319.69 470.4 318.783 470.787 318.25 471.32C317.743 471.827 317.49 472.48 317.49 473.28C317.49 474.187 317.797 474.893 318.41 475.4C319.05 475.88 319.93 476.12 321.05 476.12ZM344.514 479.48C342.487 479.48 340.714 479.027 339.194 478.12C337.674 477.213 336.501 475.92 335.674 474.24C334.847 472.56 334.434 470.6 334.434 468.36C334.434 466.12 334.847 464.173 335.674 462.52C336.501 460.84 337.674 459.547 339.194 458.64C340.714 457.707 342.487 457.24 344.514 457.24C346.247 457.24 347.781 457.547 349.114 458.16C350.474 458.747 351.567 459.613 352.394 460.76C353.247 461.907 353.794 463.307 354.034 464.96L349.594 465.2C349.381 463.813 348.821 462.76 347.914 462.04C347.007 461.293 345.874 460.92 344.514 460.92C342.727 460.92 341.327 461.587 340.314 462.92C339.327 464.227 338.834 466.04 338.834 468.36C338.834 470.68 339.327 472.507 340.314 473.84C341.327 475.147 342.727 475.8 344.514 475.8C345.874 475.8 347.007 475.427 347.914 474.68C348.821 473.907 349.381 472.747 349.594 471.2L354.034 471.44C353.794 473.067 353.247 474.48 352.394 475.68C351.567 476.88 350.474 477.813 349.114 478.48C347.781 479.147 346.247 479.48 344.514 479.48ZM356.902 479V450.6H361.142V468.24L370.702 457.72H376.062L367.742 466.68L376.382 479H371.502L364.902 469.32L361.142 473.32V479H356.902Z" fill="white"/>
<defs>
<linearGradient id="paint0_linear_6557_161794" x1="485.418" y1="583" x2="-105.837" y2="145.326" gradientUnits="userSpaceOnUse">
<stop stop-color="white"/>
<stop offset="1" stop-color="white" stop-opacity="0.5"/>
</linearGradient>
<linearGradient id="paint1_linear_6557_161794" x1="279.331" y1="340.317" x2="273.97" y2="290.857" gradientUnits="userSpaceOnUse">
<stop stop-color="white" stop-opacity="0"/>
<stop offset="1" stop-color="white"/>
</linearGradient>
<linearGradient id="paint2_linear_6557_161794" x1="159.331" y1="342.321" x2="160.671" y2="285.506" gradientUnits="userSpaceOnUse">
<stop stop-color="white" stop-opacity="0"/>
<stop offset="1" stop-color="white"/>
</linearGradient>
<linearGradient id="paint3_linear_6557_161794" x1="407.992" y1="126.021" x2="407.992" y2="220.937" gradientUnits="userSpaceOnUse">
<stop stop-color="white" stop-opacity="0"/>
<stop offset="1" stop-color="white"/>
</linearGradient>
<linearGradient id="paint4_linear_6557_161794" x1="482.134" y1="200.724" x2="422.554" y2="216.521" gradientUnits="userSpaceOnUse">
<stop stop-color="white" stop-opacity="0"/>
<stop offset="1" stop-color="white"/>
</linearGradient>
<linearGradient id="paint5_linear_6557_161794" x1="399.992" y1="123.348" x2="399.992" y2="218.263" gradientUnits="userSpaceOnUse">
<stop stop-color="white" stop-opacity="0"/>
<stop offset="1" stop-color="white"/>
</linearGradient>
<linearGradient id="paint6_linear_6557_161794" x1="257.164" y1="113.053" x2="257.164" y2="166.526" gradientUnits="userSpaceOnUse">
<stop stop-color="white" stop-opacity="0"/>
<stop offset="1" stop-color="white"/>
</linearGradient>
<linearGradient id="paint7_linear_6557_161794" x1="370.097" y1="270.328" x2="370.097" y2="346.998" gradientUnits="userSpaceOnUse">
<stop stop-color="white" stop-opacity="0"/>
<stop offset="0.451923" stop-color="white"/>
<stop offset="1" stop-color="white" stop-opacity="0"/>
</linearGradient>
<linearGradient id="paint8_linear_6557_161794" x1="84.6667" y1="314.916" x2="81.986" y2="209.974" gradientUnits="userSpaceOnUse">
<stop stop-color="white" stop-opacity="0"/>
<stop offset="1" stop-color="white"/>
</linearGradient>
</defs>
</svg>
