<svg width="849" height="577" viewBox="0 0 849 577" fill="none" xmlns="http://www.w3.org/2000/svg">
<mask id="mask0_4794_67886" style="mask-type:alpha" maskUnits="userSpaceOnUse" x="-1" y="0" width="850" height="577">
<ellipse cx="424.002" cy="288.267" rx="424.369" ry="288.267" fill="url(#paint0_radial_4794_67886)"/>
</mask>
<g mask="url(#mask0_4794_67886)">
<ellipse cx="558.891" cy="319.209" rx="39.0286" ry="14.2873" fill="#713ADA" fill-opacity="0.4"/>
<ellipse cx="265.828" cy="208.397" rx="32.0592" ry="10.2799" fill="#713ADA" fill-opacity="0.4"/>
<ellipse cx="558.891" cy="319.209" rx="39.0286" ry="14.2873" stroke="white" stroke-width="2.19283"/>
<ellipse cx="265.828" cy="207.873" rx="32.0592" ry="9.9314" stroke="white" stroke-width="2.19283"/>
<path d="M588.155 328.223C591.895 326.204 594.076 323.776 594.076 321.164C594.076 314.144 578.323 308.453 558.891 308.453C539.46 308.453 523.707 314.144 523.707 321.164C523.707 323.776 525.888 326.204 529.627 328.223" stroke="white" stroke-width="0.877132" stroke-linecap="round"/>
<path d="M289.83 214.063C292.897 212.692 294.685 211.043 294.685 209.27C294.685 204.504 281.766 200.641 265.828 200.641C249.891 200.641 236.971 204.504 236.971 209.27C236.971 211.043 238.759 212.692 241.827 214.063" stroke="white" stroke-width="0.877132" stroke-linecap="round"/>
<path d="M647.751 288.545L648.282 287.585L647.751 288.545ZM426.821 186.617L427.181 185.581L426.864 185.471L426.54 185.557L426.821 186.617ZM655.592 266.068L655.906 267.119C656.362 266.982 656.678 266.568 656.688 266.092C656.698 265.617 656.401 265.189 655.952 265.033L655.592 266.068ZM411.346 334.679L411.774 333.67V333.67L411.346 334.679ZM207.089 248.018L206.661 249.027L207.089 248.018ZM207.323 244.73L207.043 243.67L207.043 243.67L207.323 244.73ZM435.533 331.457L435.861 332.503L435.874 332.499L435.533 331.457ZM423.355 335.268L423.027 334.221V334.221L423.355 335.268ZM219.656 241.465L219.936 242.525L219.955 242.521L219.973 242.515L219.656 241.465ZM366.362 202.666L366.588 203.739L366.616 203.733L366.643 203.726L366.362 202.666ZM225.057 220.363L224.616 221.367L224.626 221.371L225.057 220.363ZM304.508 197.746L304.893 196.719L304.889 196.718L304.508 197.746ZM307.819 198.988L308.271 197.989L308.238 197.974L308.204 197.961L307.819 198.988ZM601.651 336.459L601.244 335.441L601.651 336.459ZM557.846 343.603V342.506C540.546 342.506 525.016 339.729 514.177 335.332L513.765 336.348L513.352 337.364C524.521 341.895 540.347 344.699 557.846 344.699V343.603ZM647.751 288.545L647.221 289.504C651.026 291.607 654.299 293.904 656.723 296.293C659.156 298.692 660.655 301.107 661.069 303.442C661.473 305.717 660.875 308.072 658.779 310.482C656.652 312.928 652.989 315.415 647.326 317.801L647.751 318.811L648.177 319.822C653.991 317.372 657.997 314.724 660.434 311.921C662.902 309.083 663.764 306.075 663.228 303.059C662.703 300.101 660.863 297.297 658.262 294.732C655.652 292.158 652.196 289.748 648.282 287.585L647.751 288.545ZM426.821 186.617L426.462 187.653L655.232 267.104L655.592 266.068L655.952 265.033L427.181 185.581L426.821 186.617ZM411.346 334.679L411.774 333.67L207.517 247.009L207.089 248.018L206.661 249.027L410.918 335.688L411.346 334.679ZM207.089 248.018L207.517 247.009C206.951 246.768 207.009 245.947 207.604 245.79L207.323 244.73L207.043 243.67C204.429 244.362 204.171 247.971 206.661 249.027L207.089 248.018ZM470.032 326.179V327.276C488.619 327.276 502.439 332.582 513.676 337.465L514.113 336.459L514.55 335.454C503.219 330.53 489.069 325.083 470.032 325.083V326.179ZM435.533 331.457L435.874 332.499C446.034 329.177 458.638 327.276 470.032 327.276V326.179V325.083C458.427 325.083 445.592 327.015 435.192 330.415L435.533 331.457ZM423.355 335.268L423.682 336.314L435.86 332.503L435.533 331.457L435.206 330.41L423.027 334.221L423.355 335.268ZM207.323 244.73L207.604 245.79L219.936 242.525L219.656 241.465L219.375 240.406L207.043 243.67L207.323 244.73ZM366.362 202.666L366.643 203.726L427.103 187.677L426.821 186.617L426.54 185.557L366.08 201.606L366.362 202.666ZM411.346 334.679L410.918 335.688C414.963 337.405 419.488 337.627 423.682 336.314L423.355 335.268L423.027 334.221C419.329 335.378 415.341 335.183 411.774 333.67L411.346 334.679ZM647.751 288.545L648.282 287.585C643.676 285.04 641.704 281.589 641.704 278.602H640.608H639.511C639.511 282.611 642.138 286.696 647.221 289.504L647.751 288.545ZM640.608 278.602H641.704C641.704 276.447 642.551 274.423 644.717 272.511C646.923 270.563 650.497 268.738 655.906 267.119L655.592 266.068L655.277 265.018C649.732 266.678 645.813 268.618 643.266 270.867C640.679 273.151 639.511 275.754 639.511 278.602H640.608ZM214.255 209.616H215.351C215.351 207.659 216.52 205.626 219.02 203.622C221.511 201.627 225.181 199.781 229.814 198.211C239.069 195.074 251.925 193.115 266.177 193.115V192.018V190.922C251.752 190.922 238.647 192.902 229.11 196.134C224.347 197.749 220.414 199.695 217.649 201.911C214.895 204.118 213.158 206.714 213.158 209.616H214.255ZM225.057 220.363L225.498 219.359C222.179 217.902 219.608 216.292 217.882 214.607C216.159 212.926 215.351 211.248 215.351 209.616H214.255H213.158C213.158 212.031 214.365 214.24 216.35 216.177C218.332 218.111 221.162 219.85 224.616 221.367L225.057 220.363ZM266.177 192.018V193.115C281.268 193.115 294.789 195.312 304.127 198.774L304.508 197.746L304.889 196.718C295.24 193.14 281.445 190.922 266.177 190.922V192.018ZM343.016 204.912V203.815C328.655 203.815 316.019 201.493 308.271 197.989L307.819 198.988L307.367 199.987C315.503 203.667 328.482 206.008 343.016 206.008V204.912ZM366.362 202.666L366.136 201.593C359.468 202.998 351.537 203.815 343.016 203.815V204.912V206.008C351.67 206.008 359.754 205.179 366.588 203.739L366.362 202.666ZM225.057 220.363L224.626 221.371C227.605 222.646 229.914 224.091 231.461 225.599C233.008 227.106 233.718 228.597 233.718 230.002H234.814H235.911C235.911 227.808 234.796 225.787 232.992 224.028C231.187 222.27 228.617 220.694 225.489 219.355L225.057 220.363ZM234.814 230.002H233.718C233.718 231.775 232.577 233.653 230.07 235.509C227.583 237.351 223.924 239.031 219.339 240.416L219.656 241.465L219.973 242.515C224.687 241.091 228.608 239.32 231.375 237.272C234.122 235.238 235.911 232.789 235.911 230.002H234.814ZM307.819 198.988L308.204 197.961L304.893 196.719L304.508 197.746L304.123 198.773L307.434 200.014L307.819 198.988ZM601.651 336.459L601.244 335.441C590.417 339.775 575.001 342.506 557.846 342.506V343.603V344.699C575.2 344.699 590.907 341.941 602.059 337.477L601.651 336.459ZM647.751 318.811L647.326 317.801C635.87 322.627 628.864 325.231 622.473 327.528C616.076 329.827 610.267 331.829 601.244 335.441L601.651 336.459L602.059 337.477C611.037 333.883 616.801 331.897 623.215 329.591C629.635 327.284 636.678 324.666 648.177 319.822L647.751 318.811Z" fill="white"/>
<path d="M509.845 357.032C521.81 361.64 538.161 363.126 557.08 363.126C576.632 363.126 594.498 359.872 607.346 354.243C625.713 347.968 664.698 334.467 671.415 323.972C678.132 313.477 675.379 299.557 653.019 285.306M510.224 357.147C497.954 352.086 490.836 347.968 470.38 347.968C454.246 347.968 442.748 353.664 427.344 358.24C419.329 361.527 409.398 363.126 403.01 359.839L194.784 270.758C193.871 270.367 193.464 269.301 193.896 268.407C195.678 264.72 200.044 255.688 202.469 250.696C203.462 248.651 204.826 246.814 206.488 245.263L206.588 245.169M215.997 205.262C213.383 207.527 211.467 210.663 208.33 217.981C205.543 224.486 211.641 229.926 218.087 232.791C222.966 234.959 221.746 240.457 216.694 242.2" stroke="white" stroke-width="2.19283"/>
<g filter="url(#filter0_d_4794_67886)">
<ellipse cx="423.336" cy="257.704" rx="131.722" ry="41.2937" stroke="#9DD6D0" stroke-width="2.19283" shape-rendering="crispEdges"/>
</g>
<ellipse cx="423.336" cy="260.666" rx="117.086" ry="32.7562" stroke="#CEFFF9" stroke-width="2.19283"/>
<path d="M535.2 270.425C534.136 268.307 532.276 266.257 529.704 264.299C514.116 252.434 472.377 243.941 423.336 243.941C374.295 243.941 332.557 252.434 316.969 264.299C314.4 266.254 312.542 268.301 311.478 270.416" stroke="#AAFFF4" stroke-width="2.19283"/>
<path d="M550.113 315.07C550.97 315.085 551.853 315.233 552.544 315.54L559.452 318.61L566.996 315.787C567.732 315.512 568.634 315.395 569.493 315.41C570.35 315.425 571.233 315.573 571.924 315.88C572.553 316.16 573.216 316.679 573.133 317.47C573.093 317.844 572.885 318.146 572.637 318.368C572.388 318.59 572.064 318.767 571.696 318.904L565.406 321.258L571.09 323.784C571.719 324.064 572.382 324.583 572.299 325.374C572.259 325.748 572.052 326.05 571.804 326.272C571.555 326.495 571.231 326.671 570.863 326.809C570.128 327.084 569.226 327.201 568.366 327.186C567.509 327.17 566.627 327.023 565.936 326.716L559.027 323.645L551.483 326.469C550.748 326.744 549.847 326.861 548.987 326.846C548.13 326.831 547.247 326.683 546.556 326.376C545.927 326.096 545.263 325.577 545.347 324.786C545.386 324.412 545.594 324.11 545.843 323.888C546.091 323.666 546.415 323.489 546.783 323.352L553.072 320.997L547.39 318.471C546.761 318.191 546.098 317.672 546.181 316.882C546.22 316.507 546.428 316.206 546.677 315.983C546.925 315.761 547.249 315.585 547.617 315.447C548.353 315.172 549.254 315.055 550.113 315.07Z" stroke="white" stroke-width="1.3157"/>
<path d="M260.23 203.777C260.939 203.789 261.661 203.901 262.221 204.13L268.092 206.529L274.502 204.324C275.1 204.118 275.84 204.03 276.55 204.041C277.258 204.052 277.981 204.164 278.541 204.393C278.82 204.507 279.061 204.651 279.234 204.833C279.412 205.02 279.536 205.271 279.503 205.561C279.471 205.839 279.304 206.059 279.109 206.219C278.913 206.38 278.656 206.51 278.357 206.612L272.894 208.491L277.839 210.513C278.118 210.627 278.359 210.771 278.532 210.953C278.71 211.141 278.834 211.391 278.801 211.681C278.769 211.959 278.602 212.179 278.407 212.339C278.211 212.5 277.954 212.63 277.655 212.732C277.057 212.938 276.317 213.027 275.606 213.016C274.898 213.004 274.176 212.892 273.616 212.663L267.744 210.263L261.335 212.469C260.737 212.675 259.997 212.763 259.287 212.752C258.579 212.741 257.856 212.629 257.297 212.4C257.018 212.286 256.776 212.142 256.603 211.96C256.425 211.773 256.301 211.522 256.334 211.232C256.366 210.954 256.533 210.734 256.728 210.574C256.924 210.413 257.182 210.283 257.48 210.181L262.943 208.301L257.999 206.28C257.72 206.166 257.478 206.022 257.305 205.84C257.127 205.652 257.003 205.402 257.036 205.112C257.068 204.834 257.235 204.614 257.43 204.454C257.626 204.293 257.884 204.163 258.183 204.061C258.781 203.855 259.52 203.766 260.23 203.777Z" stroke="white" stroke-width="0.877132"/>
<path d="M420.549 187.835L428.215 185.781V-89.5469" stroke="white" stroke-width="2.19283"/>
<path d="M425.095 196.378L234.41 248.098C232.49 248.619 232.314 251.274 234.148 252.044L408.165 325.098C411.44 326.473 415.091 326.668 418.494 325.65L622.483 264.635C624.434 264.051 624.485 261.306 622.556 260.652L434.037 196.657C431.15 195.678 428.037 195.58 425.095 196.378Z" stroke="white" stroke-width="0.877132"/>
<path d="M650.438 584.813L644.025 578.971L648.585 561.159C650.01 555.222 653.401 542.493 655.567 539.073C658.275 534.798 664.544 532.518 668.962 530.666C672.496 529.184 821.287 471.341 895.24 442.605L965.489 468.824L648.585 598.493L650.438 596.07L651.435 592.366L650.438 584.813Z" fill="url(#paint1_linear_4794_67886)" fill-opacity="0.5"/>
<g filter="url(#filter1_d_4794_67886)">
<path d="M418.11 222.162C418.11 223.99 416.627 225.472 414.799 225.472C412.971 225.472 411.489 223.99 411.489 222.162C411.489 220.334 412.971 218.852 414.799 218.852C416.627 218.852 418.11 220.334 418.11 222.162Z" stroke="#4FE2CE" stroke-width="0.877132" shape-rendering="crispEdges"/>
<path d="M403.125 222.859C403.125 224.687 401.643 226.169 399.815 226.169C397.987 226.169 396.504 224.687 396.504 222.859C396.504 221.031 397.987 219.549 399.815 219.549C401.643 219.549 403.125 221.031 403.125 222.859Z" stroke="#4FE2CE" stroke-width="0.877132" shape-rendering="crispEdges"/>
<path d="M388.49 223.904C388.49 225.733 387.007 227.215 385.179 227.215C383.351 227.215 381.869 225.733 381.869 223.904C381.869 222.076 383.351 220.594 385.179 220.594C387.007 220.594 388.49 222.076 388.49 223.904Z" stroke="#4FE2CE" stroke-width="0.877132" shape-rendering="crispEdges"/>
<path d="M374.202 225.298C374.202 227.127 372.876 228.609 371.24 228.609C369.604 228.609 368.278 227.127 368.278 225.298C368.278 223.47 369.604 221.988 371.24 221.988C372.876 221.988 374.202 223.47 374.202 225.298Z" stroke="#4FE2CE" stroke-width="0.877132" shape-rendering="crispEdges"/>
<path d="M360.96 227.389C360.96 229.217 359.634 230.7 357.998 230.7C356.363 230.7 355.036 229.217 355.036 227.389C355.036 225.561 356.363 224.079 357.998 224.079C359.634 224.079 360.96 225.561 360.96 227.389Z" stroke="#4FE2CE" stroke-width="0.877132" shape-rendering="crispEdges"/>
<path d="M348.067 230.525C348.067 232.354 346.819 233.836 345.279 233.836C343.74 233.836 342.492 232.354 342.492 230.525C342.492 228.697 343.74 227.215 345.279 227.215C346.819 227.215 348.067 228.697 348.067 230.525Z" stroke="#4FE2CE" stroke-width="0.877132" shape-rendering="crispEdges"/>
<path d="M336.217 233.542C336.294 235.369 335.11 236.903 333.572 236.969C332.034 237.034 330.724 235.606 330.646 233.78C330.568 231.953 331.752 230.419 333.29 230.354C334.829 230.288 336.139 231.716 336.217 233.542Z" stroke="#4FE2CE" stroke-width="0.877132" shape-rendering="crispEdges"/>
<path d="M325.762 237.023C325.855 238.849 324.839 240.384 323.494 240.452C322.148 240.521 320.982 239.096 320.89 237.27C320.797 235.444 321.812 233.908 323.158 233.84C324.503 233.772 325.669 235.197 325.762 237.023Z" stroke="#4FE2CE" stroke-width="0.877132" shape-rendering="crispEdges"/>
<path d="M316.284 241.016C316.639 242.972 316.006 244.725 314.87 244.932C313.734 245.138 312.525 243.719 312.17 241.763C311.815 239.807 312.448 238.054 313.584 237.848C314.721 237.642 315.929 239.06 316.284 241.016Z" stroke="#4FE2CE" stroke-width="0.877132" shape-rendering="crispEdges"/>
<path d="M308.49 246.315C309.108 248.555 308.856 250.579 307.928 250.835C307.001 251.09 305.748 249.481 305.131 247.24C304.513 245 304.765 242.976 305.693 242.72C306.62 242.465 307.873 244.074 308.49 246.315Z" stroke="#4FE2CE" stroke-width="0.877132" shape-rendering="crispEdges"/>
<path d="M302.812 251.868C304.185 253.743 304.752 255.663 304.078 256.156C303.405 256.649 301.746 255.529 300.373 253.653C299 251.778 298.433 249.858 299.107 249.365C299.78 248.872 301.439 249.992 302.812 251.868Z" stroke="#4FE2CE" stroke-width="0.877132" shape-rendering="crispEdges"/>
<path d="M433.442 222.162C433.442 223.99 431.96 225.472 430.132 225.472C428.303 225.472 426.821 223.99 426.821 222.162C426.821 220.334 428.303 218.852 430.132 218.852C431.96 218.852 433.442 220.334 433.442 222.162Z" stroke="#4FE2CE" stroke-width="0.877132" shape-rendering="crispEdges"/>
<path d="M448.078 222.859C448.078 224.687 446.596 226.169 444.768 226.169C442.939 226.169 441.457 224.687 441.457 222.859C441.457 221.031 442.939 219.549 444.768 219.549C446.596 219.549 448.078 221.031 448.078 222.859Z" stroke="#4FE2CE" stroke-width="0.877132" shape-rendering="crispEdges"/>
<path d="M462.017 223.904C462.017 225.733 460.535 227.215 458.706 227.215C456.878 227.215 455.396 225.733 455.396 223.904C455.396 222.076 456.878 220.594 458.706 220.594C460.535 220.594 462.017 222.076 462.017 223.904Z" stroke="#4FE2CE" stroke-width="0.877132" shape-rendering="crispEdges"/>
<path d="M474.562 224.95C474.562 226.778 473.236 228.26 471.6 228.26C469.964 228.26 468.638 226.778 468.638 224.95C468.638 223.121 469.964 221.639 471.6 221.639C473.236 221.639 474.562 223.121 474.562 224.95Z" stroke="#4FE2CE" stroke-width="0.877132" shape-rendering="crispEdges"/>
<path d="M486.758 227.041C486.758 228.869 485.432 230.351 483.796 230.351C482.16 230.351 480.834 228.869 480.834 227.041C480.834 225.212 482.16 223.73 483.796 223.73C485.432 223.73 486.758 225.212 486.758 227.041Z" stroke="#4FE2CE" stroke-width="0.877132" shape-rendering="crispEdges"/>
<path d="M498.258 229.131C498.258 230.96 497.088 232.442 495.644 232.442C494.201 232.442 493.031 230.96 493.031 229.131C493.031 227.303 494.201 225.821 495.644 225.821C497.088 225.821 498.258 227.303 498.258 229.131Z" stroke="#4FE2CE" stroke-width="0.877132" shape-rendering="crispEdges"/>
<path d="M508.363 231.571C508.363 233.399 507.193 234.881 505.75 234.881C504.306 234.881 503.136 233.399 503.136 231.571C503.136 229.742 504.306 228.26 505.75 228.26C507.193 228.26 508.363 229.742 508.363 231.571Z" stroke="#4FE2CE" stroke-width="0.877132" shape-rendering="crispEdges"/>
<path d="M518.81 234.91C518.668 236.732 517.387 238.12 515.948 238.008C514.509 237.896 513.457 236.328 513.598 234.505C513.74 232.682 515.021 231.295 516.46 231.407C517.899 231.518 518.951 233.087 518.81 234.91Z" stroke="#4FE2CE" stroke-width="0.877132" shape-rendering="crispEdges"/>
<path d="M527.553 238.374C527.328 240.189 526.14 241.535 524.898 241.382C523.657 241.228 522.832 239.633 523.057 237.818C523.281 236.004 524.469 234.657 525.711 234.811C526.952 234.964 527.777 236.56 527.553 238.374Z" stroke="#4FE2CE" stroke-width="0.877132" shape-rendering="crispEdges"/>
<path d="M534.676 242.431C534.168 244.187 533.006 245.394 532.081 245.126C531.157 244.858 530.821 243.217 531.33 241.461C531.838 239.705 533 238.499 533.925 238.766C534.849 239.034 535.185 240.675 534.676 242.431Z" stroke="#4FE2CE" stroke-width="0.877132" shape-rendering="crispEdges"/>
<path d="M540.773 246.76C540.063 248.579 538.76 249.77 537.864 249.42C536.968 249.07 536.817 247.312 537.527 245.493C538.238 243.674 539.54 242.483 540.436 242.833C541.333 243.183 541.483 244.941 540.773 246.76Z" stroke="#4FE2CE" stroke-width="0.877132" shape-rendering="crispEdges"/>
<path d="M545.57 252.324C544.301 253.954 542.712 254.839 542.022 254.301C541.331 253.763 541.8 252.006 543.068 250.377C544.337 248.747 545.926 247.862 546.616 248.4C547.307 248.938 546.839 250.695 545.57 252.324Z" stroke="#4FE2CE" stroke-width="0.877132" shape-rendering="crispEdges"/>
<path d="M548.192 258.978C546.277 260.235 544.386 260.738 543.967 260.101C543.549 259.463 544.762 257.928 546.677 256.671C548.592 255.414 550.483 254.912 550.901 255.549C551.319 256.186 550.106 257.722 548.192 258.978Z" stroke="#4FE2CE" stroke-width="0.877132" shape-rendering="crispEdges"/>
</g>
<path d="M653.684 285.727C649.154 282.417 650.734 279.589 657.692 277.19L708.428 262.279M963.749 189.012L875.233 215.129" stroke="white" stroke-width="2.19283"/>
<path d="M944.243 100.723L855.6 124.747M659.251 177.284L698.009 166.658" stroke="white" stroke-width="2.19283"/>
<path d="M944.243 95.4219L845.641 121.911M659.251 171.983L711.335 157.991" stroke="white" stroke-width="0.877132"/>
<path d="M894.816 442.569L951.414 466.09C958.135 468.883 965.681 468.937 972.441 466.24L1030.02 443.271L1040.82 438.609C1066.84 427.374 1083.69 401.745 1083.69 373.403V262.067C1083.69 233.841 1070.45 221.267 1052.15 226.169C1041.87 228.924 546.732 393.229 539.9 395.469C509.737 405.359 487.803 435.412 487.803 470.952V607.135C487.803 633.363 513.553 651.844 538.402 643.45L539.9 642.945L646.954 598.208C649.547 597.124 651.236 594.588 651.236 591.777V586.599C651.236 584.389 650.006 582.362 648.045 581.343L642.524 578.472" stroke="white" stroke-width="5.70136"/>
<path d="M500 530.904H503.659C503.659 519.289 503.659 502.086 503.659 487.868C503.659 473.651 497.909 422.879 555.929 403.539C601.039 388.502 1041.87 239.932 1048.32 237.667C1054.76 235.402 1061.39 234.879 1063.3 236.273" stroke="white" stroke-width="0.877132"/>
<path d="M652.978 266.682L655.797 265.927C657.32 265.519 658.379 264.138 658.379 262.561V-25.7722C658.379 -42.2922 647.795 -56.9539 632.116 -62.1548L476.89 -113.642C470.933 -115.618 466.728 -120.955 466.201 -127.21L457.195 -234.569C456.868 -238.463 459.604 -241.948 463.464 -242.557L495.782 -247.649C498.806 -248.123 501.786 -246.568 503.127 -243.815L523.735 -199.765C525.775 -195.576 530.342 -193.243 534.932 -194.045L903.095 -258.338C904.906 -258.654 906.651 -257.51 907.082 -255.722L938.203 -126.69C941.558 -112.778 943.254 -98.5167 943.254 -84.2051V166.527C943.254 175.427 948.887 183.351 957.293 186.275L1066.96 224.95" stroke="white" stroke-width="2.6314"/>
<path d="M221.224 200.64C168.501 214.342 125.964 225.486 124.175 226.055C100.757 233.497 83.5781 257.954 83.5781 286.977L83.6858 374.42C83.7266 407.553 102.434 437.835 132.044 452.701L509.583 642.242M251.889 192.681C333.786 171.451 425.339 147.938 428.215 147.938" stroke="white" stroke-width="2.6314"/>
<path d="M499.303 533.332V471.714C499.303 439.7 519.058 412.627 546.223 403.719C552.377 401.701 1044.33 235.637 1051.8 233.834C1064.52 230.768 1074.98 235.046 1074.98 261.181V317.106L499.303 533.332ZM499.303 533.332V581.58M649.668 584.569L537.574 630.487C519.232 638.001 499.129 624.512 499.129 604.69V581.58M1071.39 318.803V368.901C1071.39 395.84 1055.07 420.093 1030.11 430.237L967.878 455.535C963.602 457.273 958.811 457.243 954.557 455.452L910.672 436.98" stroke="white" stroke-width="2.6314"/>
<path d="M500.174 554.254L507.454 557.744C510.925 559.408 514.929 559.563 518.518 558.172L607.503 523.681M1055.64 324.438V345.578C1055.64 349.943 1052.92 353.849 1048.83 355.373L990.994 376.931M607.503 523.681L611.043 522.309C611.245 522.231 611.447 522.159 611.65 522.094M607.503 523.681L611.65 522.094M990.994 376.931L990.655 377.061M990.994 376.931C990.881 376.974 990.768 377.017 990.655 377.061M611.65 522.094L990.655 377.061M611.65 522.094C618.323 519.954 625.275 524.926 625.275 532.057V576.053C625.275 580.975 630.238 584.346 634.813 582.532L639.451 580.694C642.68 579.414 645.062 576.613 645.808 573.221L651.45 547.569C652.949 540.75 657.754 535.129 664.257 532.587L933.799 427.206C938.995 425.174 944.871 427.581 947.148 432.674L955.996 452.457C957.444 455.695 961.187 457.217 964.484 455.907L967.005 454.906C969.65 453.855 971.495 451.425 971.797 448.595L977.61 394.17C978.432 386.472 983.468 379.883 990.655 377.061" stroke="white" stroke-width="3.94709"/>
<path d="M628.934 582.654L545.301 548.504" stroke="white" stroke-width="3.94709"/>
<path d="M487.804 468.18L83.7524 287.324" stroke="white" stroke-width="3.94709"/>
<path d="M592.693 498.498V503.779C592.693 504.759 593.678 505.433 594.592 505.078L625.431 493.094C625.967 492.886 626.32 492.37 626.32 491.795V485.605M696.885 459.992V465.273C696.885 466.253 697.871 466.927 698.784 466.572L729.624 454.588C730.16 454.38 730.513 453.864 730.513 453.289V447.099M794.806 423.751V429.032C794.806 430.012 795.791 430.686 796.704 430.331L827.544 418.347C828.08 418.139 828.433 417.623 828.433 417.048V410.858M885.059 389.253V394.534C885.059 395.514 886.044 396.188 886.958 395.833L917.798 383.848C918.334 383.64 918.687 383.124 918.687 382.549V376.359M971.48 355.8V361.08C971.48 362.061 972.465 362.735 973.379 362.38L1004.22 350.395C1004.75 350.187 1005.11 349.671 1005.11 349.096V342.906" stroke="white" stroke-width="2.6314"/>
<path d="M423.056 216.852C495.649 216.852 554.497 235.046 554.498 257.49C554.498 279.934 495.649 298.129 423.056 298.129C350.463 298.129 291.615 279.934 291.615 257.49C291.615 235.046 350.463 216.852 423.056 216.852ZM423.056 243.521C368.08 243.521 322.22 254.86 311.675 269.927C325.97 283.299 370.427 293.05 423.056 293.05C475.684 293.05 520.141 283.299 534.436 269.927C523.891 254.861 478.032 243.522 423.056 243.521Z" fill="#4FE2CE" fill-opacity="0.25"/>
<path d="M423.057 243.52C478.033 243.52 523.892 254.859 534.437 269.925C520.141 283.297 475.685 293.048 423.057 293.048C370.428 293.048 325.971 283.297 311.676 269.925C322.221 254.858 368.081 243.52 423.057 243.52Z" fill="#4FE2CE" fill-opacity="0.4"/>
<path d="M417.648 -118.22L359.824 -133.125C359.363 -125.975 358.442 -111.004 358.442 -108.314C358.442 -104.951 359.824 -100.744 364.707 -99.7158C369.59 -98.6878 393.747 -93.291 401.2 -89.95C407.162 -87.2773 414.649 -86.9518 417.648 -87.1231V-118.22Z" fill="#D9D9D9" fill-opacity="0.07"/>
<path d="M458.557 -240.589L250.622 -282.18C249.696 -281.033 247.817 -278.463 247.701 -277.368C247.557 -275.998 235.334 -183.36 235.334 -182.929C235.334 -182.497 235.58 -177.936 236.197 -176.21C236.69 -174.829 239.138 -172.754 240.3 -171.89L468.277 -116.924H470.973C469.53 -119.289 466.588 -124.615 466.361 -126.999C466.077 -129.979 457.209 -232.359 456.925 -235.622C456.698 -238.233 457.918 -240.021 458.557 -240.589Z" fill="#D9D9D9" fill-opacity="0.07"/>
<path d="M655.685 -39.875L468.277 -96.2694L428.356 -88.34L427.683 167.819V186.528L654.166 265.595C654.79 265.595 656.213 265.463 656.918 264.934L657.028 264.852C657.853 264.236 658.458 263.783 658.458 262.623V182.499C658.092 120.132 657.578 -7.22314 658.458 -17.7009C659.339 -28.1787 656.976 -36.8494 655.685 -39.875Z" fill="#D9D9D9" fill-opacity="0.07"/>
<path d="M487.72 468.151L83.725 287.781L82.8086 357.02C83.2343 369.684 83.725 396.288 83.725 396.288C83.725 396.288 417.239 556.602 487.72 590.43V468.151Z" fill="#D9D9D9" fill-opacity="0.07"/>
<path d="M216.478 214.495C214.311 212.448 214.171 209.63 214.372 208.476C213.168 208.476 207.902 217.805 207.451 220.814C206.999 223.823 210.309 228.035 212.566 229.841C214.823 231.646 220.39 233.903 221.142 236.461C221.744 238.507 219.086 240.924 217.682 241.877C218.033 242.128 220.33 241.847 226.709 238.717C234.683 234.806 233.93 232.248 234.532 229.841C235.134 227.433 231.975 223.973 228.514 221.867C225.054 219.76 219.186 217.052 216.478 214.495Z" fill="#D9D9D9" fill-opacity="0.07"/>
<path d="M591.137 358.887L588.277 341.73C581.628 342.218 567.235 343.192 562.861 343.192H541.485L540.657 362.414C543.257 362.746 550.929 363.409 560.811 363.409C570.692 363.409 585.145 360.394 591.137 358.887Z" fill="#D9D9D9" fill-opacity="0.07"/>
<path d="M517.63 359.791L521.306 339.062L512.338 336.269C510.524 341.463 506.692 352.646 505.869 355.822C507.516 356.88 514.396 358.909 517.63 359.791Z" fill="#D9D9D9" fill-opacity="0.07"/>
<path d="M410.248 361.691L416.806 336.269L412.699 335.208L207.256 248.35L205.698 246.662L203.101 249.259C200.137 255.058 194.13 267.02 193.818 268.474C193.506 269.928 195.073 270.984 195.895 271.33C261.858 299.467 394.819 356.203 398.962 358.058C403.106 359.913 408.213 361.253 410.248 361.691Z" fill="#D9D9D9" fill-opacity="0.07"/>
<path d="M291.412 -289.445V-299.883L497.459 -260.013V-247.928L496.355 -247.693L291.412 -289.445Z" fill="#D9D9D9" fill-opacity="0.07"/>
<path d="M497.327 431.359C500.938 421.523 503.016 421.925 505.869 419.28L97.2848 245.431C94.7871 248.209 91.9655 251.355 90.4326 255.939C88.8997 260.524 86.7717 266.088 85.3626 271.33L490.556 448.901C491.075 445.944 493.716 441.195 497.327 431.359Z" fill="#D9D9D9" fill-opacity="0.07"/>
<path d="M845.261 127.83H844.164V129.287L845.565 128.884L845.261 127.83ZM707.88 163.672L708.157 164.733V164.733L707.88 163.672ZM856.837 124.492L857.141 125.546V125.546L856.837 124.492ZM696.219 170.48H695.123L695.123 170.482L696.219 170.48ZM699.868 165.759L699.592 164.698H699.592L699.868 165.759ZM700.213 251.044L699.913 249.989L700.213 251.044ZM696.301 252.184L695.205 252.185C695.205 252.532 695.369 252.857 695.647 253.064C695.925 253.271 696.284 253.334 696.616 253.235L696.301 252.184ZM857.297 206.415L856.997 205.36L857.297 206.415ZM860.842 205.37L861.167 206.417L861.938 206.177V205.37H860.842ZM841.358 107.292L841.626 108.355L841.358 107.292ZM715.216 139.071L714.948 138.007L715.216 139.071ZM715.216 139.071L715.484 140.134L841.626 108.355L841.358 107.292L841.091 106.229L714.948 138.007L715.216 139.071ZM857.297 206.415L856.997 205.36L699.913 249.989L700.213 251.044L700.512 252.098L857.596 207.469L857.297 206.415ZM696.301 252.184L697.398 252.183L697.316 170.479L696.219 170.48L695.123 170.482L695.205 252.185L696.301 252.184ZM860.842 127.506H859.746V205.37H860.842H861.938V127.506H860.842ZM845.261 110.333H844.164V127.83H845.261H846.357V110.333H845.261ZM845.261 127.83L845.565 128.884L857.141 125.546L856.837 124.492L856.533 123.439L844.957 126.777L845.261 127.83ZM699.868 165.759L700.144 166.82L708.157 164.733L707.88 163.672L707.604 162.611L699.592 164.698L699.868 165.759ZM711.529 158.951H712.625V143.801H711.529H710.433V158.951H711.529ZM707.88 163.672L708.157 164.733C710.789 164.048 712.625 161.671 712.625 158.951H711.529H710.433C710.433 160.673 709.27 162.177 707.604 162.611L707.88 163.672ZM860.842 127.506H861.938C861.938 124.689 859.239 122.658 856.533 123.439L856.837 124.492L857.141 125.546C858.445 125.17 859.746 126.148 859.746 127.506H860.842ZM696.219 170.48H697.316C697.316 168.759 698.478 167.254 700.144 166.82L699.868 165.759L699.592 164.698C696.96 165.384 695.123 167.761 695.123 170.48H696.219ZM700.213 251.044L699.913 249.989C698.907 250.275 697.926 250.561 697.197 250.775C696.832 250.883 696.53 250.972 696.319 251.035C696.213 251.066 696.13 251.091 696.074 251.108C696.046 251.116 696.024 251.123 696.009 251.127C696.002 251.129 695.996 251.131 695.993 251.132C695.991 251.133 695.989 251.133 695.988 251.133C695.988 251.134 695.988 251.134 695.987 251.134C695.987 251.134 695.987 251.134 695.987 251.134C695.987 251.134 695.987 251.134 695.987 251.134C695.987 251.134 695.987 251.134 696.301 252.184C696.616 253.235 696.616 253.235 696.616 253.235C696.616 253.235 696.616 253.235 696.616 253.235C696.616 253.235 696.616 253.234 696.616 253.234C696.616 253.234 696.617 253.234 696.617 253.234C696.618 253.234 696.619 253.234 696.621 253.233C696.625 253.232 696.63 253.23 696.637 253.228C696.652 253.224 696.673 253.218 696.701 253.209C696.756 253.193 696.838 253.168 696.943 253.137C697.153 253.075 697.453 252.986 697.815 252.879C698.541 252.666 699.515 252.382 700.512 252.098L700.213 251.044ZM857.297 206.415L857.596 207.469C858.651 207.17 859.542 206.907 860.17 206.719C860.484 206.625 860.733 206.55 860.903 206.498C860.988 206.472 861.054 206.452 861.098 206.438C861.12 206.431 861.137 206.426 861.149 206.422C861.155 206.421 861.159 206.419 861.162 206.418C861.164 206.418 861.165 206.417 861.166 206.417C861.166 206.417 861.166 206.417 861.166 206.417C861.167 206.417 861.167 206.417 861.167 206.417C861.167 206.417 861.167 206.417 861.167 206.417C861.167 206.417 861.167 206.417 860.842 205.37C860.517 204.322 860.517 204.322 860.517 204.322C860.517 204.322 860.517 204.322 860.517 204.322C860.517 204.322 860.517 204.322 860.517 204.322C860.517 204.322 860.517 204.323 860.516 204.323C860.516 204.323 860.515 204.323 860.514 204.324C860.511 204.324 860.507 204.326 860.502 204.327C860.491 204.331 860.475 204.336 860.453 204.342C860.41 204.355 860.346 204.375 860.263 204.4C860.096 204.451 859.852 204.525 859.542 204.618C858.922 204.804 858.04 205.064 856.997 205.36L857.297 206.415ZM841.358 107.292L841.626 108.355C842.915 108.031 844.164 109.005 844.164 110.333H845.261H846.357C846.357 107.576 843.764 105.555 841.091 106.229L841.358 107.292ZM715.216 139.071L714.948 138.007C712.293 138.676 710.433 141.064 710.433 143.801H711.529H712.625C712.625 142.068 713.803 140.557 715.484 140.134L715.216 139.071Z" fill="white"/>
<path d="M716.086 246.72V144.697C716.086 143.899 716.628 143.204 717.401 143.008L844.925 110.75V210.324" stroke="white" stroke-width="0.877132"/>
<path d="M696.479 251.97L703.294 255.25C710.093 258.522 717.858 259.175 725.108 257.086L872.679 214.556C874.247 214.104 874.402 211.943 872.915 211.272L860.49 205.66" stroke="white" stroke-width="2.19283"/>
<path d="M875.117 212.551V216.62C875.117 217.401 874.601 218.088 873.851 218.305L725.15 261.43C717.875 263.54 710.077 262.885 703.255 259.593L698.546 257.32C696.878 256.515 695.818 254.827 695.818 252.975V251.42" stroke="white" stroke-width="0.877132"/>
</g>
<path d="M343.553 77.4966C381.538 95.445 410.221 124.78 425.412 160.708L438.994 131.771C439.935 129.767 442.32 128.909 444.322 129.855C446.324 130.801 447.184 133.193 446.243 135.197L427.882 174.316L426.861 176.816L417.084 172.29L385.885 156.887C383.907 155.911 383.073 153.528 384.01 151.532C384.959 149.512 387.363 148.647 389.381 149.6L417.674 162.969C403.206 129.361 376.16 101.767 340.148 84.7512C263.902 48.7231 173.311 80.2515 135.815 155.116C134.823 157.095 132.438 157.966 130.436 157.02C128.434 156.074 127.575 153.669 128.564 151.689C167.945 72.8138 263.308 39.579 343.553 77.4966Z" fill="#4FE2CE"/>
<g filter="url(#filter2_d_4794_67886)">
<path fill-rule="evenodd" clip-rule="evenodd" d="M472.549 272.916C470.803 271.581 465.866 267.609 461.363 264.566C456.871 261.525 452.992 259.646 447.539 257.896C445.197 257.144 439.613 255.867 437.08 255.501C433.632 255.013 428.609 254.563 424.97 254.431C422.424 254.333 418.24 254.312 416.291 254.378C410.612 254.586 403.339 255.315 399.328 256.07C383.985 258.986 370.101 265.746 364.856 279.28C364.491 280.207 364.251 280.469 364.016 280.152C363.916 280.009 364.172 278.457 364.856 277C371.718 262.404 387.468 256.203 403.023 254.191C413.527 252.832 422.844 252.712 433.151 253.815C437.855 254.321 440.295 254.734 444.596 255.76C448.798 256.763 451.506 257.445 455.696 259.183C460.468 261.158 464.411 263.186 468.212 265.518C472.014 267.849 473.693 269.009 475.806 270.861C477.92 272.713 474.295 274.251 472.549 272.916Z" fill="url(#paint2_linear_4794_67886)" fill-opacity="0.8"/>
<path d="M402.994 253.967C413.515 252.606 422.851 252.485 433.176 253.59C437.887 254.097 440.338 254.512 444.648 255.54C448.853 256.544 451.576 257.229 455.783 258.975H455.782C460.565 260.954 464.518 262.987 468.33 265.325C472.136 267.659 473.829 268.826 475.956 270.69C476.517 271.182 476.747 271.7 476.657 272.191C476.57 272.672 476.191 273.043 475.729 273.284C475.263 273.528 474.673 273.66 474.086 273.645C473.498 273.629 472.894 273.465 472.411 273.096C470.658 271.755 465.732 267.792 461.236 264.753C456.763 261.725 452.903 259.856 447.471 258.111C445.286 257.41 440.253 256.246 437.555 255.804L437.048 255.726C434.038 255.299 429.822 254.902 426.383 254.721L424.962 254.657C422.738 254.572 419.26 254.545 417.124 254.584L416.299 254.604C410.982 254.799 404.268 255.452 400.156 256.152L399.37 256.293C384.051 259.204 370.269 265.94 365.067 279.362L365.066 279.363C364.974 279.598 364.887 279.797 364.805 279.956C364.724 280.113 364.64 280.245 364.551 280.339C364.464 280.43 364.337 280.519 364.175 280.505C364.017 280.491 363.907 280.385 363.834 280.287L363.83 280.282C363.795 280.232 363.783 280.177 363.778 280.148C363.772 280.113 363.769 280.076 363.769 280.04C363.767 279.968 363.773 279.878 363.784 279.779C363.806 279.58 363.852 279.318 363.922 279.018C364.062 278.417 364.301 277.649 364.651 276.904C371.563 262.202 387.415 255.982 402.994 253.967Z" stroke="black" stroke-opacity="0.13" stroke-width="0.452742"/>
<ellipse cx="1.12467" cy="1.48393" rx="1.12467" ry="1.48393" transform="matrix(0.624534 0.780998 -0.851308 0.524666 475.148 270.477)" fill="#616161"/>
<path d="M474.083 271.656C474.622 271.101 475.581 271.419 476.089 271.776C478.752 273.765 480.419 275.496 483.431 278.737C483.91 279.252 483.761 280.013 483.117 280.474C482.473 280.935 481.624 280.972 481.099 280.407C478.028 277.102 476.493 275.112 474.084 273.313C473.452 272.84 473.545 272.211 474.083 271.656Z" fill="#B4B4B4"/>
<ellipse cx="0.992002" cy="1.30888" rx="0.992002" ry="1.30888" transform="matrix(0.624534 0.780998 -0.851308 0.524666 482.761 278.148)" fill="url(#paint3_linear_4794_67886)"/>
<path d="M480.989 278.336C481.907 278.915 482.585 280.025 482.385 280.129C482.186 280.233 482.382 279.892 480.806 278.638L480.989 278.336Z" fill="url(#paint4_linear_4794_67886)"/>
<path d="M480.111 278.529C481.102 279.006 481.929 280.036 481.745 280.16C481.562 280.284 481.71 279.925 479.972 278.849L480.111 278.529Z" fill="url(#paint5_linear_4794_67886)"/>
<path d="M480.813 278.76C481.739 279.328 482.433 280.431 482.236 280.537C482.038 280.643 482.229 280.3 480.635 279.064L480.813 278.76Z" fill="url(#paint6_linear_4794_67886)"/>
<path d="M480.746 276.956C482.169 277.678 483.332 279.2 483.06 279.376C482.789 279.551 483.017 279.033 480.531 277.416L480.746 276.956Z" fill="url(#paint7_linear_4794_67886)"/>
<path d="M480.287 277.325C481.94 278.164 483.29 279.932 482.975 280.136C482.659 280.34 482.925 279.738 480.037 277.86L480.287 277.325Z" fill="url(#paint8_linear_4794_67886)"/>
<path d="M480.276 278.142C481.282 278.652 482.104 279.728 481.912 279.852C481.72 279.976 481.882 279.61 480.124 278.467L480.276 278.142Z" fill="url(#paint9_linear_4794_67886)"/>
<path opacity="0.5" d="M480.711 279.613C480.016 278.511 475.008 273.345 474.321 273.016C473.634 272.687 474.471 271.755 474.886 271.997C475.576 272.399 479.211 275.429 481.72 278.599C480.834 278.993 480.937 279.971 480.711 279.613Z" fill="black" fill-opacity="0.4"/>
<path d="M480.468 279.339C479.967 278.42 474.75 273.266 474.355 273.1C473.961 272.935 474.108 272.45 474.49 272.73C474.873 273.009 478.267 275.784 480.775 278.954C481.033 279.28 480.67 279.709 480.468 279.339Z" fill="black" fill-opacity="0.5"/>
<path opacity="0.5" d="M481.93 277.898C480.304 275.761 476.132 272.134 475.733 271.977C475.335 271.819 475.756 271.75 476.146 272.022C476.536 272.294 479.813 274.78 482.404 277.898C482.671 278.219 482.19 278.24 481.93 277.898Z" fill="black" fill-opacity="0.4"/>
<path d="M442.948 255.766C443.49 255.872 444.032 255.989 444.569 256.114C454.253 258.444 464.802 263.577 472.636 269.118C473.057 269.426 473.501 269.76 473.91 270.082C474.009 270.16 474.067 270.269 474.072 270.386C474.078 270.502 474.029 270.618 473.937 270.705C473.846 270.792 473.719 270.843 473.586 270.847C473.453 270.852 473.324 270.809 473.228 270.729C472.842 270.405 472.419 270.066 472.016 269.754C464.481 264.088 454.136 258.734 444.556 256.156C444.024 256.018 443.486 255.887 442.948 255.766Z" fill="white"/>
<path d="M452.644 259.465C452.991 259.608 453.337 259.756 453.679 259.906C459.827 262.653 467.261 267.316 472.295 271.403C472.532 271.612 472.402 272.071 472.627 272.284C472.682 272.336 472.705 272.393 472.691 272.445C472.677 272.496 472.627 272.537 472.552 272.559C472.478 272.58 472.385 272.579 472.295 272.557C472.205 272.535 472.125 272.494 472.073 272.442C471.863 272.232 471.629 272.01 471.406 271.802C467.2 267.997 459.705 262.757 453.663 259.922C453.327 259.767 452.986 259.614 452.644 259.465Z" fill="black" fill-opacity="0.4"/>
<path d="M384.32 259.441C380.668 261.062 377.485 263.472 374.381 265.787C374.22 265.908 374.061 266.03 373.905 266.152C370.739 269.033 367.633 272.627 365.685 275.85C365.519 276.24 365.366 276.644 365.254 277.047C365.333 276.638 365.457 276.224 365.595 275.823C367.662 272.28 370.146 269.008 373.571 265.825C373.73 265.7 373.891 265.575 374.056 265.453C377.194 263.126 380.502 260.788 384.281 259.366C385.319 258.989 385.385 258.984 384.32 259.441Z" fill="white"/>
</g>
<defs>
<filter id="filter0_d_4794_67886" x="284.18" y="208.974" width="278.313" height="97.458" filterUnits="userSpaceOnUse" color-interpolation-filters="sRGB">
<feFlood flood-opacity="0" result="BackgroundImageFix"/>
<feColorMatrix in="SourceAlpha" type="matrix" values="0 0 0 0 0 0 0 0 0 0 0 0 0 0 0 0 0 0 127 0" result="hardAlpha"/>
<feOffset/>
<feGaussianBlur stdDeviation="3.16919"/>
<feComposite in2="hardAlpha" operator="out"/>
<feColorMatrix type="matrix" values="0 0 0 0 0.307879 0 0 0 0 0.8864 0 0 0 0 0.808345 0 0 0 1 0"/>
<feBlend mode="normal" in2="BackgroundImageFix" result="effect1_dropShadow_4794_67886"/>
<feBlend mode="normal" in="SourceGraphic" in2="effect1_dropShadow_4794_67886" result="shape"/>
</filter>
<filter id="filter1_d_4794_67886" x="293.857" y="213.887" width="262.092" height="51.4572" filterUnits="userSpaceOnUse" color-interpolation-filters="sRGB">
<feFlood flood-opacity="0" result="BackgroundImageFix"/>
<feColorMatrix in="SourceAlpha" type="matrix" values="0 0 0 0 0 0 0 0 0 0 0 0 0 0 0 0 0 0 127 0" result="hardAlpha"/>
<feOffset/>
<feGaussianBlur stdDeviation="2.26371"/>
<feComposite in2="hardAlpha" operator="out"/>
<feColorMatrix type="matrix" values="0 0 0 0 0.307879 0 0 0 0 0.8864 0 0 0 0 0.808345 0 0 0 1 0"/>
<feBlend mode="normal" in2="BackgroundImageFix" result="effect1_dropShadow_4794_67886"/>
<feBlend mode="normal" in="SourceGraphic" in2="effect1_dropShadow_4794_67886" result="shape"/>
</filter>
<filter id="filter2_d_4794_67886" x="359.542" y="252.617" width="128.458" height="36.4531" filterUnits="userSpaceOnUse" color-interpolation-filters="sRGB">
<feFlood flood-opacity="0" result="BackgroundImageFix"/>
<feColorMatrix in="SourceAlpha" type="matrix" values="0 0 0 0 0 0 0 0 0 0 0 0 0 0 0 0 0 0 127 0" result="hardAlpha"/>
<feOffset dy="4"/>
<feGaussianBlur stdDeviation="2"/>
<feComposite in2="hardAlpha" operator="out"/>
<feColorMatrix type="matrix" values="0 0 0 0 0 0 0 0 0 0 0 0 0 0 0 0 0 0 0.33 0"/>
<feBlend mode="normal" in2="BackgroundImageFix" result="effect1_dropShadow_4794_67886"/>
<feBlend mode="normal" in="SourceGraphic" in2="effect1_dropShadow_4794_67886" result="shape"/>
</filter>
<radialGradient id="paint0_radial_4794_67886" cx="0" cy="0" r="1" gradientUnits="userSpaceOnUse" gradientTransform="translate(424.002 288.267) rotate(90) scale(226.235 358.904)">
<stop stop-color="#151522"/>
<stop offset="0.167553" stop-color="#151522"/>
<stop offset="1" stop-color="#161420" stop-opacity="0"/>
</radialGradient>
<linearGradient id="paint1_linear_4794_67886" x1="775.203" y1="477.297" x2="804.757" y2="538.965" gradientUnits="userSpaceOnUse">
<stop/>
<stop offset="1" stop-opacity="0"/>
</linearGradient>
<linearGradient id="paint2_linear_4794_67886" x1="461.635" y1="283.385" x2="435.123" y2="226.565" gradientUnits="userSpaceOnUse">
<stop stop-color="white"/>
<stop offset="1" stop-color="white" stop-opacity="0.5"/>
</linearGradient>
<linearGradient id="paint3_linear_4794_67886" x1="0.315821" y1="1.24284" x2="2.43625" y2="1.2608" gradientUnits="userSpaceOnUse">
<stop stop-color="#353736"/>
<stop offset="1" stop-color="#A6A6A6"/>
</linearGradient>
<linearGradient id="paint4_linear_4794_67886" x1="482.322" y1="279.992" x2="482.031" y2="279.399" gradientUnits="userSpaceOnUse">
<stop stop-color="#DCDCDC"/>
<stop offset="1" stop-color="#DCDCDC" stop-opacity="0"/>
</linearGradient>
<linearGradient id="paint5_linear_4794_67886" x1="481.664" y1="280.031" x2="481.302" y2="279.468" gradientUnits="userSpaceOnUse">
<stop stop-color="#DCDCDC"/>
<stop offset="1" stop-color="#DCDCDC" stop-opacity="0"/>
</linearGradient>
<linearGradient id="paint6_linear_4794_67886" x1="482.171" y1="280.401" x2="481.872" y2="279.81" gradientUnits="userSpaceOnUse">
<stop stop-color="#DCDCDC"/>
<stop offset="1" stop-color="#DCDCDC" stop-opacity="0"/>
</linearGradient>
<linearGradient id="paint7_linear_4794_67886" x1="482.874" y1="279.088" x2="482.572" y2="278.482" gradientUnits="userSpaceOnUse">
<stop stop-color="#DCDCDC"/>
<stop offset="1" stop-color="#DCDCDC" stop-opacity="0"/>
</linearGradient>
<linearGradient id="paint8_linear_4794_67886" x1="482.557" y1="279.57" x2="481.955" y2="278.65" gradientUnits="userSpaceOnUse">
<stop stop-color="#DCDCDC"/>
<stop offset="1" stop-color="#DCDCDC" stop-opacity="0"/>
</linearGradient>
<linearGradient id="paint9_linear_4794_67886" x1="481.679" y1="279.539" x2="481.336" y2="279.138" gradientUnits="userSpaceOnUse">
<stop stop-color="#DCDCDC"/>
<stop offset="1" stop-color="#DCDCDC" stop-opacity="0"/>
</linearGradient>
</defs>
</svg>
