<svg width="1005" height="601" viewBox="0 0 1005 601" fill="none" xmlns="http://www.w3.org/2000/svg">
<path d="M344.89 325.264L314.886 314.212L310.149 311.054L299.095 303.159L291.199 293.685L288.041 284.212L289.62 276.317L295.937 265.264L310.149 255.791L330.678 244.738L355.944 236.843L397.002 228.949L428.585 224.212L464.905 222.633H512.28L558.075 227.37L583.341 233.685L611.766 241.58L637.032 254.212L651.244 266.843L655.982 277.896L654.403 290.528L638.611 304.738L610.187 318.949L554.917 334.738L487.013 341.054L428.585 339.475L381.211 334.738L344.89 325.264Z" fill="#D9D9D9" fill-opacity="0.1"/>
<path d="M327.51 303.16L314.877 312.634L318.035 314.212L351.197 326.844L381.201 333.16L422.259 339.476L463.317 341.055L509.112 339.476L553.328 334.739L586.49 328.423L629.127 311.055L635.443 306.318L619.652 298.423L602.281 292.107L577.015 284.212L547.011 276.318L521.745 273.16L499.637 270.002H483.845H458.579L433.313 271.581L403.309 273.16L371.726 281.055L351.197 288.949L327.51 303.16Z" fill="#D9D9D9" fill-opacity="0.25"/>
<path d="M469.242 215.888C523.483 215.352 572.652 222.698 608.297 234.997C626.12 241.148 640.545 248.531 650.53 256.772C660.517 265.015 666.028 274.083 666.122 283.61C666.216 293.138 660.886 302.313 651.064 310.752C641.243 319.189 626.967 326.856 609.268 333.358C573.873 346.36 524.859 354.677 470.618 355.213C416.376 355.75 367.207 348.404 331.562 336.104C313.738 329.954 299.314 322.571 289.328 314.33C279.341 306.087 273.83 297.019 273.736 287.491C273.642 277.964 278.973 268.788 288.795 260.35C298.616 251.913 312.892 244.246 330.59 237.744C365.985 224.742 415 216.425 469.242 215.888Z" stroke="white" stroke-width="0.668421"/>
<path d="M470.712 221.173C521.727 220.668 567.952 227.033 601.442 237.712C618.19 243.053 631.716 249.461 641.062 256.601C650.416 263.747 655.486 271.548 655.566 279.674C655.646 287.799 650.731 295.698 641.52 303.028C632.318 310.351 618.921 317.026 602.281 322.697C569.009 334.036 522.919 341.314 471.904 341.818C420.89 342.323 374.664 335.959 341.175 325.279C324.426 319.939 310.9 313.53 301.555 306.39C292.201 299.244 287.13 291.444 287.05 283.319C286.969 275.193 291.885 267.294 301.096 259.964C310.299 252.64 323.696 245.965 340.335 240.294C373.607 228.955 419.698 221.677 470.712 221.173Z" stroke="white" stroke-width="1.33684"/>
<path d="M641.222 360.766C653.235 360.647 664.114 362.147 671.987 364.657C675.925 365.913 679.093 367.416 681.274 369.082C683.459 370.752 684.606 372.546 684.624 374.383C684.642 376.221 683.531 378.036 681.379 379.749C679.232 381.458 676.095 383.024 672.182 384.357C664.36 387.023 653.513 388.737 641.499 388.855C629.486 388.974 618.608 387.476 610.735 384.965C606.796 383.709 603.628 382.206 601.447 380.539C599.262 378.87 598.115 377.077 598.097 375.239C598.079 373.402 599.19 371.585 601.342 369.873C603.49 368.164 606.627 366.599 610.54 365.265C618.362 362.599 629.208 360.885 641.222 360.766Z" stroke="white" stroke-width="0.668421"/>
<path d="M605.445 380.524C608.077 377.367 621.553 371.051 641.766 371.051C661.979 371.051 676.507 376.314 682.823 378.946" stroke="white" stroke-width="0.668421"/>
<path d="M301.08 209.513C309.313 209.431 316.764 210.46 322.151 212.178C324.847 213.037 327.007 214.063 328.49 215.196C329.977 216.332 330.735 217.536 330.747 218.75C330.759 219.964 330.025 221.183 328.561 222.348C327.1 223.51 324.961 224.579 322.283 225.491C316.93 227.316 309.501 228.491 301.268 228.572C293.035 228.654 285.584 227.626 280.197 225.908C277.502 225.048 275.341 224.022 273.858 222.889C272.371 221.753 271.613 220.549 271.601 219.335C271.589 218.121 272.323 216.902 273.788 215.737C275.248 214.575 277.388 213.506 280.065 212.594C285.418 210.77 292.847 209.594 301.08 209.513Z" stroke="white" stroke-width="0.668421"/>
<path d="M634.262 306.669C611.684 293.335 549.036 270.002 478.809 270.002C389.979 270.001 359.999 276.669 313.363 313.336" stroke="white" stroke-width="0.668421"/>
<path d="M448.834 229.219C453.555 229.219 457.383 233.049 457.383 237.773C457.383 242.498 453.555 246.328 448.834 246.328C444.113 246.328 440.285 242.498 440.285 237.773C440.285 233.049 444.113 229.219 448.834 229.219Z" stroke="white" stroke-width="0.668421"/>
<path d="M401.093 233.666C405.16 233.666 408.531 237.453 408.531 242.221C408.531 246.989 405.16 250.775 401.093 250.775C397.025 250.775 393.654 246.989 393.654 242.221C393.654 237.453 397.026 233.666 401.093 233.666Z" stroke="white" stroke-width="0.668421"/>
<path d="M495.465 227C500.186 227 504.014 230.83 504.014 235.555C504.014 240.28 500.186 244.109 495.465 244.109C490.744 244.109 486.916 240.279 486.916 235.555C486.916 230.83 490.744 227 495.465 227Z" stroke="white" stroke-width="0.668421"/>
<path d="M545.435 233.666C549.502 233.666 552.873 237.453 552.873 242.221C552.873 246.989 549.502 250.775 545.435 250.775C541.367 250.775 537.996 246.989 537.996 242.221C537.996 237.453 541.367 233.666 545.435 233.666Z" stroke="white" stroke-width="0.668421"/>
<path d="M582.078 240.334C583.789 240.334 585.363 241.259 586.521 242.804C587.68 244.349 588.406 246.499 588.406 248.889C588.406 251.278 587.68 253.428 586.521 254.974C585.363 256.519 583.789 257.443 582.078 257.443C580.367 257.443 578.793 256.519 577.635 254.974C576.477 253.428 575.75 251.278 575.75 248.889C575.75 246.499 576.477 244.349 577.635 242.804C578.793 241.259 580.367 240.334 582.078 240.334Z" stroke="white" stroke-width="0.668421"/>
<path d="M360.004 242.553C361.715 242.553 363.289 243.477 364.447 245.022C365.605 246.568 366.332 248.718 366.332 251.107C366.332 253.497 365.606 255.647 364.447 257.192C363.289 258.738 361.715 259.662 360.004 259.662C358.293 259.662 356.719 258.738 355.561 257.192C354.402 255.647 353.676 253.497 353.676 251.107C353.676 248.718 354.402 246.568 355.561 245.022C356.719 243.477 358.293 242.553 360.004 242.553Z" stroke="white" stroke-width="0.668421"/>
<path d="M618.722 253.662C620.098 253.662 621.395 254.556 622.364 256.108C623.331 257.656 623.939 259.815 623.939 262.217C623.939 264.619 623.331 266.778 622.364 268.325C621.395 269.878 620.098 270.771 618.722 270.771C617.346 270.771 616.049 269.877 615.079 268.325C614.113 266.778 613.504 264.619 613.504 262.217C613.504 259.815 614.113 257.656 615.079 256.108C616.049 254.556 617.346 253.662 618.722 253.662Z" stroke="white" stroke-width="0.668421"/>
<path d="M325.579 258.109C326.955 258.109 328.252 259.003 329.222 260.556C330.188 262.103 330.797 264.262 330.797 266.664C330.797 269.066 330.188 271.225 329.222 272.772C328.252 274.325 326.955 275.219 325.579 275.219C324.203 275.219 322.906 274.325 321.937 272.772C320.97 271.225 320.361 269.066 320.361 266.664C320.361 264.262 320.97 262.103 321.937 260.556C322.906 259.003 324.203 258.109 325.579 258.109Z" stroke="white" stroke-width="0.668421"/>
<path d="M643.149 271.443C644.526 271.443 645.822 272.337 646.792 273.89C647.759 275.437 648.367 277.596 648.367 279.998C648.367 282.4 647.759 284.559 646.792 286.106C645.822 287.659 644.526 288.553 643.149 288.553C641.773 288.553 640.476 287.659 639.507 286.106C638.54 284.559 637.932 282.4 637.932 279.998C637.932 277.596 638.54 275.437 639.507 273.89C640.476 272.337 641.773 271.443 643.149 271.443Z" stroke="white" stroke-width="0.668421"/>
<path d="M298.927 278.109C300.303 278.109 301.6 279.003 302.569 280.556C303.536 282.103 304.144 284.262 304.145 286.664C304.145 289.066 303.536 291.225 302.569 292.772C301.6 294.325 300.303 295.219 298.927 295.219C297.551 295.219 296.254 294.325 295.284 292.772C294.318 291.225 293.709 289.066 293.709 286.664C293.709 284.262 294.318 282.103 295.284 280.556C296.254 279.003 297.551 278.109 298.927 278.109Z" stroke="white" stroke-width="0.668421"/>
<path d="M376.658 431.115C376.658 431.115 212.183 357.762 100.175 298.893C84.2592 290.528 100.011 268.422 118.913 266.843C128.907 265.362 150.586 258.001 156.804 245.556C163.022 233.112 184.563 226.297 194.557 224.445C250.446 211.852 363.778 186.445 369.996 185.556C377.769 184.445 378.879 184.445 393.314 186.667C404.862 188.445 411.45 188.149 413.301 187.778L467.709 175.557C472.152 174.447 473.289 175.265 473.289 175.265C473.289 175.265 477.333 179.631 478.813 180.001C589.481 219.631 812.37 299.335 818.589 301.113C824.807 302.891 832.283 301.853 835.244 301.113L853.01 296.67L860.783 294.448C860.783 294.448 880.77 311.115 880.77 325.559C880.77 337.115 862.263 346.67 853.01 350.004C798.602 367.411 683.567 403.559 658.694 408.893C627.604 415.56 579.857 414.448 562.091 413.337C544.325 412.226 516.566 415.56 506.573 418.893C496.579 422.226 464.378 436.671 442.171 438.893C424.405 440.671 391.093 434.448 376.658 431.115Z" stroke="white" stroke-width="1.33684"/>
<path d="M880.798 325.555V362.221C880.798 369.999 877.689 379.332 869.694 385.555C861.699 391.777 739.04 427.407 678.709 444.444C665.755 447.777 636.071 454.444 620.97 454.444C602.093 454.444 567.672 452.221 551.016 455.555C534.36 458.888 499.939 471.11 488.835 477.777C477.731 484.444 442.341 488.989 422.212 486.666C393.325 483.332 202.358 384.814 102.424 335.555C91.2816 329.129 93.5103 314.444 93.5103 285.555" stroke="white" stroke-width="0.915815"/>
<path d="M274.051 222.047C275.899 220.472 285.362 217.322 299.556 217.322C313.75 217.322 323.953 219.947 328.388 221.259" stroke="white" stroke-width="0.668421"/>
<path d="M880.976 335.553V372.219C880.976 379.997 877.867 389.331 869.872 395.553C861.877 401.775 739.218 437.405 678.887 454.442C665.933 457.775 636.249 464.442 621.148 464.442C602.271 464.442 567.85 462.219 551.194 465.553C534.538 468.886 500.117 481.108 489.013 487.775C474.507 496.664 445.718 523.997 446.606 562.219V598.423" stroke="url(#paint0_linear_4794_62024)" stroke-width="0.668421"/>
<path d="M380.356 472.105V600M103.156 336.07V590.135" stroke="url(#paint1_linear_4794_62024)" stroke-width="0.668421"/>
<path d="M828.037 302.214V78.0039" stroke="url(#paint2_linear_4794_62024)" stroke-width="0.668421"/>
<path d="M837.112 300L1004.06 253.328" stroke="url(#paint3_linear_4794_62024)" stroke-width="0.668421"/>
<path d="M809.139 295.898V71.6875" stroke="url(#paint4_linear_4794_62024)" stroke-width="0.668421"/>
<path d="M471.707 173.685L471.707 47.3691" stroke="url(#paint5_linear_4794_62024)" stroke-width="0.668421"/>
<path d="M915.189 418.885L628.712 517.774C606.134 524.44 561.645 550.218 564.31 599.996" stroke="url(#paint6_linear_4794_62024)" stroke-width="0.668421"/>
<path d="M155.696 247.777L87.9613 265.555C77.9679 268.148 58.2032 278.222 59.0915 297.777C59.9798 317.333 59.4616 514.074 59.0915 535.555" stroke="url(#paint7_linear_4794_62024)" stroke-width="0.668421"/>
<path d="M442.772 148.493C471.219 182.666 485.658 223.617 484.206 264.874L510.154 243.165C511.952 241.661 514.624 241.902 516.123 243.703C517.622 245.504 517.381 248.183 515.584 249.687L480.503 279.036L478.407 280.979L471.044 272.273L447.973 243.57C446.51 241.751 446.773 239.092 448.563 237.595C450.375 236.079 453.069 236.322 454.58 238.137L475.769 263.591C476.881 224.883 463.236 186.334 436.266 153.936C379.163 85.3396 278.146 75.1749 208.749 130.289C206.914 131.746 204.235 131.517 202.736 129.716C201.237 127.915 201.485 125.224 203.318 123.764C276.315 65.6428 382.674 76.2994 442.772 148.493Z" fill="#4FE2CE"/>
<defs>
<linearGradient id="paint0_linear_4794_62024" x1="525.256" y1="584.212" x2="512.593" y2="467.377" gradientUnits="userSpaceOnUse">
<stop stop-color="white" stop-opacity="0"/>
<stop offset="1" stop-color="white"/>
</linearGradient>
<linearGradient id="paint1_linear_4794_62024" x1="241.756" y1="588.949" x2="244.922" y2="454.738" gradientUnits="userSpaceOnUse">
<stop stop-color="white" stop-opacity="0"/>
<stop offset="1" stop-color="white"/>
</linearGradient>
<linearGradient id="paint2_linear_4794_62024" x1="828.537" y1="78.0039" x2="828.537" y2="302.214" gradientUnits="userSpaceOnUse">
<stop stop-color="white" stop-opacity="0"/>
<stop offset="1" stop-color="white"/>
</linearGradient>
<linearGradient id="paint3_linear_4794_62024" x1="1004.2" y1="253.81" x2="862.896" y2="288.801" gradientUnits="userSpaceOnUse">
<stop stop-color="white" stop-opacity="0"/>
<stop offset="1" stop-color="white"/>
</linearGradient>
<linearGradient id="paint4_linear_4794_62024" x1="809.639" y1="71.6875" x2="809.639" y2="295.898" gradientUnits="userSpaceOnUse">
<stop stop-color="white" stop-opacity="0"/>
<stop offset="1" stop-color="white"/>
</linearGradient>
<linearGradient id="paint5_linear_4794_62024" x1="472.207" y1="47.3691" x2="472.207" y2="173.685" gradientUnits="userSpaceOnUse">
<stop stop-color="white" stop-opacity="0"/>
<stop offset="1" stop-color="white"/>
</linearGradient>
<linearGradient id="paint6_linear_4794_62024" x1="739.692" y1="418.885" x2="739.692" y2="599.996" gradientUnits="userSpaceOnUse">
<stop stop-color="white" stop-opacity="0"/>
<stop offset="0.451923" stop-color="white"/>
<stop offset="1" stop-color="white" stop-opacity="0"/>
</linearGradient>
<linearGradient id="paint7_linear_4794_62024" x1="65.3625" y1="524.21" x2="59.0309" y2="276.316" gradientUnits="userSpaceOnUse">
<stop stop-color="white" stop-opacity="0"/>
<stop offset="1" stop-color="white"/>
</linearGradient>
</defs>
</svg>
