<svg width="348" height="285" viewBox="98 130 348 285" fill="none" xmlns="http://www.w3.org/2000/svg">
<mask id="mask0_4245_157663" style="mask-type:alpha" maskUnits="userSpaceOnUse" x="142" y="110" width="256" height="298">
<ellipse cx="270.19" cy="259.031" rx="120.939" ry="153.466" transform="rotate(24.7084 270.19 259.031)" fill="url(#paint0_radial_4245_157663)"/>
</mask>
<g mask="url(#mask0_4245_157663)">
<ellipse cx="263.941" cy="284.978" rx="6.23429" ry="2.2822" stroke="white" stroke-width="0.517938"/>
<ellipse cx="217.129" cy="267.188" rx="5.12102" ry="1.5864" stroke="white" stroke-width="0.517938"/>
<path d="M268.615 286.416C269.212 286.093 269.561 285.705 269.561 285.288C269.561 284.167 267.044 283.258 263.941 283.258C260.837 283.258 258.32 284.167 258.32 285.288C258.32 285.705 258.669 286.093 259.266 286.416" stroke="white" stroke-width="0.207175" stroke-linecap="round"/>
<path d="M220.963 268.183C221.453 267.964 221.739 267.701 221.739 267.418C221.739 266.656 219.675 266.039 217.129 266.039C214.583 266.039 212.52 266.656 212.52 267.418C212.52 267.701 212.805 267.964 213.295 268.183" stroke="white" stroke-width="0.207175" stroke-linecap="round"/>
<path d="M278.134 280.078L278.259 279.852L278.134 280.078ZM242.843 263.797L242.928 263.552L242.853 263.526L242.777 263.547L242.843 263.797ZM279.386 276.488L279.46 276.736C279.568 276.704 279.643 276.606 279.645 276.494C279.647 276.381 279.577 276.28 279.471 276.243L279.386 276.488ZM240.371 287.448L240.472 287.209V287.209L240.371 287.448ZM207.744 273.605L207.643 273.843L207.744 273.605ZM207.781 273.08L207.715 272.829L207.715 272.829L207.781 273.08ZM244.235 286.933L244.312 287.18L244.315 287.179L244.235 286.933ZM242.289 287.542L242.212 287.295V287.295L242.289 287.542ZM209.751 272.558L209.818 272.809L209.826 272.806L209.751 272.558ZM233.186 266.36L233.239 266.614L233.252 266.611L233.186 266.36ZM210.614 269.187L210.51 269.424L210.512 269.425L210.614 269.187ZM223.305 265.575L223.396 265.332L223.395 265.332L223.305 265.575ZM223.834 265.773L223.941 265.537L223.933 265.533L223.925 265.53L223.834 265.773ZM270.77 287.732L270.674 287.492L270.77 287.732ZM263.772 288.873V288.614C261.017 288.614 258.547 288.172 256.828 287.474L256.731 287.714L256.634 287.954C258.43 288.683 260.97 289.132 263.772 289.132V288.873ZM278.134 280.078L278.008 280.305C278.612 280.639 279.128 281.001 279.508 281.376C279.89 281.753 280.116 282.124 280.178 282.473C280.238 282.808 280.152 283.159 279.832 283.528C279.504 283.905 278.932 284.296 278.033 284.674L278.134 284.913L278.234 285.152C279.169 284.758 279.822 284.329 280.223 283.867C280.631 283.398 280.779 282.892 280.688 282.382C280.6 281.886 280.293 281.423 279.871 281.007C279.447 280.589 278.888 280.2 278.259 279.852L278.134 280.078ZM242.843 263.797L242.758 264.042L279.301 276.733L279.386 276.488L279.471 276.243L242.928 263.552L242.843 263.797ZM240.371 287.448L240.472 287.209L207.845 273.366L207.744 273.605L207.643 273.843L240.27 287.686L240.371 287.448ZM207.744 273.605L207.845 273.366C207.84 273.364 207.838 273.362 207.837 273.362C207.836 273.361 207.836 273.361 207.835 273.36C207.834 273.358 207.833 273.354 207.833 273.347C207.834 273.341 207.836 273.337 207.837 273.335C207.838 273.334 207.838 273.334 207.839 273.333C207.84 273.333 207.842 273.331 207.848 273.33L207.781 273.08L207.715 272.829C207.22 272.96 207.172 273.643 207.643 273.843L207.744 273.605ZM249.745 286.09V286.349C252.697 286.349 254.892 287.191 256.684 287.97L256.787 287.732L256.89 287.495C255.076 286.707 252.804 285.831 249.745 285.831V286.09ZM244.235 286.933L244.315 287.179C245.929 286.652 247.933 286.349 249.745 286.349V286.09V285.831C247.884 285.831 245.824 286.141 244.154 286.687L244.235 286.933ZM242.289 287.542L242.367 287.789L244.312 287.18L244.235 286.933L244.157 286.686L242.212 287.295L242.289 287.542ZM207.781 273.08L207.848 273.33L209.818 272.808L209.751 272.558L209.685 272.308L207.715 272.829L207.781 273.08ZM233.186 266.36L233.252 266.611L242.91 264.047L242.843 263.797L242.777 263.547L233.119 266.11L233.186 266.36ZM240.371 287.448L240.27 287.686C240.935 287.968 241.678 288.005 242.367 287.789L242.289 287.542L242.212 287.295C241.64 287.474 241.024 287.443 240.472 287.209L240.371 287.448ZM278.134 280.078L278.259 279.852C277.542 279.455 277.251 278.928 277.251 278.49H276.993H276.734C276.734 279.17 277.178 279.846 278.008 280.305L278.134 280.078ZM276.993 278.49H277.251C277.251 278.173 277.375 277.871 277.704 277.58C278.044 277.28 278.601 276.993 279.46 276.736L279.386 276.488L279.312 276.24C278.421 276.507 277.782 276.821 277.362 277.192C276.932 277.571 276.734 278.009 276.734 278.49H276.993ZM208.888 267.471H209.147C209.147 267.194 209.312 266.891 209.702 266.579C210.089 266.268 210.666 265.977 211.401 265.728C212.868 265.231 214.912 264.919 217.182 264.919V264.66V264.401C214.872 264.401 212.769 264.718 211.235 265.238C210.469 265.497 209.83 265.812 209.378 266.174C208.929 266.535 208.63 266.971 208.63 267.471H208.888ZM210.614 269.187L210.718 268.95C210.193 268.72 209.792 268.467 209.526 268.208C209.261 267.949 209.147 267.701 209.147 267.471H208.888H208.63C208.63 267.886 208.838 268.259 209.165 268.579C209.491 268.897 209.953 269.18 210.51 269.424L210.614 269.187ZM217.182 264.66V264.919C219.586 264.919 221.735 265.269 223.215 265.817L223.305 265.575L223.395 265.332C221.842 264.756 219.628 264.401 217.182 264.401V264.66ZM229.456 266.719V266.46C227.169 266.46 225.164 266.09 223.941 265.537L223.834 265.773L223.727 266.009C225.042 266.603 227.128 266.978 229.456 266.978V266.719ZM233.186 266.36L233.132 266.107C232.073 266.33 230.812 266.46 229.456 266.46V266.719V266.978C230.844 266.978 232.141 266.845 233.239 266.614L233.186 266.36ZM210.614 269.187L210.512 269.425C210.982 269.627 211.341 269.852 211.578 270.084C211.816 270.315 211.914 270.533 211.914 270.727H212.173H212.432C212.432 270.346 212.238 270.003 211.94 269.713C211.642 269.422 211.221 269.166 210.716 268.949L210.614 269.187ZM212.173 270.727H211.914C211.914 270.971 211.756 271.25 211.365 271.539C210.978 271.826 210.404 272.09 209.676 272.31L209.751 272.558L209.826 272.806C210.584 272.577 211.22 272.291 211.673 271.956C212.121 271.624 212.432 271.211 212.432 270.727H212.173ZM223.834 265.773L223.925 265.53L223.396 265.332L223.305 265.575L223.214 265.817L223.743 266.015L223.834 265.773ZM270.77 287.732L270.674 287.492C268.956 288.179 266.505 288.614 263.772 288.614V288.873V289.132C266.552 289.132 269.072 288.691 270.866 287.973L270.77 287.732ZM278.134 284.913L278.033 284.674C276.205 285.445 275.087 285.86 274.067 286.227C273.046 286.594 272.117 286.914 270.674 287.492L270.77 287.732L270.866 287.973C272.298 287.399 273.217 287.082 274.243 286.714C275.269 286.345 276.396 285.926 278.234 285.152L278.134 284.913Z" fill="white"/>
<path d="M256.105 291.017C258.017 291.753 260.629 291.99 263.651 291.99C266.774 291.99 269.628 291.47 271.68 290.571C274.614 289.569 280.841 287.412 281.914 285.736C282.987 284.059 282.547 281.836 278.976 279.559M256.166 291.035C254.206 290.227 253.069 289.569 249.801 289.569C247.224 289.569 245.388 290.479 242.927 291.21C241.647 291.735 240.06 291.99 239.04 291.465L205.779 277.236C205.633 277.173 205.568 277.003 205.637 276.86C205.922 276.271 206.619 274.828 207.006 274.031C207.165 273.704 207.383 273.411 207.648 273.163L207.664 273.148M209.167 266.773C208.75 267.135 208.444 267.636 207.943 268.805C207.497 269.844 208.471 270.713 209.501 271.171C210.281 271.517 210.086 272.395 209.279 272.674" stroke="white" stroke-width="0.517938"/>
<ellipse cx="242.287" cy="275.151" rx="21.0407" ry="6.5961" stroke="white" stroke-width="0.517938"/>
<ellipse cx="242.289" cy="275.623" rx="18.7029" ry="5.23235" stroke="white" stroke-width="0.517938"/>
<path d="M260.155 277.184C259.985 276.845 259.687 276.518 259.277 276.205C256.787 274.31 250.12 272.953 242.286 272.953C234.452 272.953 227.785 274.31 225.295 276.205C224.885 276.517 224.588 276.844 224.418 277.182" stroke="white" stroke-width="0.517938"/>
<path d="M262.537 284.267C262.678 284.269 262.827 284.293 262.945 284.346L264.028 284.828L265.216 284.385C265.341 284.338 265.491 284.319 265.633 284.321C265.774 284.324 265.923 284.348 266.041 284.4C266.145 284.447 266.28 284.544 266.264 284.705C266.256 284.781 266.214 284.84 266.168 284.881C266.122 284.922 266.064 284.953 266.002 284.977L265.111 285.309L265.907 285.663C266.011 285.709 266.147 285.806 266.13 285.968C266.122 286.044 266.08 286.103 266.034 286.144C265.988 286.184 265.931 286.216 265.868 286.239C265.743 286.286 265.593 286.305 265.451 286.303C265.31 286.3 265.161 286.276 265.043 286.224L263.959 285.74L262.772 286.185C262.648 286.231 262.497 286.251 262.355 286.248C262.214 286.246 262.066 286.222 261.947 286.169C261.843 286.123 261.708 286.025 261.725 285.863C261.733 285.788 261.775 285.729 261.82 285.688C261.866 285.648 261.924 285.616 261.986 285.593L262.876 285.26L262.081 284.906C261.977 284.86 261.841 284.762 261.858 284.601C261.867 284.525 261.908 284.467 261.954 284.426C262 284.385 262.058 284.353 262.12 284.33C262.245 284.283 262.395 284.264 262.537 284.267Z" stroke="white" stroke-width="0.310763"/>
<path d="M216.233 266.506C216.349 266.508 216.469 266.526 216.563 266.564L217.489 266.943L218.502 266.595C218.602 266.56 218.724 266.546 218.84 266.548C218.955 266.55 219.075 266.568 219.17 266.606C219.217 266.626 219.261 266.652 219.293 266.686C219.326 266.721 219.351 266.77 219.345 266.828C219.338 266.884 219.305 266.926 219.27 266.955C219.234 266.984 219.19 267.007 219.14 267.024L218.351 267.295L219.059 267.584C219.106 267.603 219.149 267.629 219.181 267.663C219.214 267.698 219.239 267.747 219.232 267.806C219.226 267.862 219.192 267.904 219.157 267.933C219.122 267.962 219.077 267.985 219.027 268.002C218.927 268.036 218.805 268.051 218.688 268.049C218.573 268.047 218.453 268.029 218.358 267.99L217.432 267.61L216.42 267.96C216.32 267.994 216.198 268.009 216.082 268.007C215.967 268.005 215.846 267.987 215.752 267.948C215.705 267.929 215.661 267.903 215.629 267.869C215.596 267.834 215.57 267.785 215.577 267.727C215.584 267.67 215.617 267.628 215.652 267.6C215.688 267.571 215.732 267.547 215.782 267.53L216.57 267.259L215.863 266.971C215.816 266.951 215.773 266.925 215.741 266.892C215.708 266.857 215.683 266.808 215.689 266.749C215.696 266.693 215.729 266.651 215.764 266.622C215.799 266.593 215.845 266.57 215.895 266.553C215.995 266.518 216.117 266.504 216.233 266.506Z" stroke="white" stroke-width="0.207175"/>
<path d="M241.844 263.988L243.068 263.66V219.68" stroke="white" stroke-width="0.517938"/>
<path d="M242.569 265.359L212.11 273.62C211.803 273.704 211.775 274.128 212.068 274.251L239.865 285.92C240.388 286.14 240.971 286.171 241.515 286.008L274.099 276.262C274.411 276.169 274.419 275.73 274.111 275.626L243.997 265.403C243.536 265.247 243.039 265.231 242.569 265.359Z" stroke="white" stroke-width="0.207175"/>
<path d="M278.563 327.403L277.539 326.47L278.267 323.625C278.495 322.676 279.037 320.643 279.383 320.097C279.815 319.414 280.817 319.05 281.522 318.754C282.087 318.517 305.854 309.278 317.667 304.688L328.889 308.876L278.267 329.588L278.563 329.201L278.723 328.61L278.563 327.403Z" fill="url(#paint1_linear_4245_157663)" fill-opacity="0.5"/>
<path d="M241.453 269.474C241.453 269.766 241.216 270.003 240.924 270.003C240.632 270.003 240.395 269.766 240.395 269.474C240.395 269.182 240.632 268.945 240.924 268.945C241.216 268.945 241.453 269.182 241.453 269.474Z" stroke="white" stroke-width="0.207175"/>
<path d="M239.059 269.585C239.059 269.877 238.823 270.114 238.53 270.114C238.238 270.114 238.002 269.877 238.002 269.585C238.002 269.293 238.238 269.057 238.53 269.057C238.823 269.057 239.059 269.293 239.059 269.585Z" stroke="white" stroke-width="0.207175"/>
<path d="M236.721 269.752C236.721 270.044 236.485 270.281 236.193 270.281C235.901 270.281 235.664 270.044 235.664 269.752C235.664 269.46 235.901 269.224 236.193 269.224C236.485 269.224 236.721 269.46 236.721 269.752Z" stroke="white" stroke-width="0.207175"/>
<path d="M234.439 269.975C234.439 270.267 234.227 270.504 233.966 270.504C233.705 270.504 233.493 270.267 233.493 269.975C233.493 269.683 233.705 269.446 233.966 269.446C234.227 269.446 234.439 269.683 234.439 269.975Z" stroke="white" stroke-width="0.207175"/>
<path d="M232.324 270.309C232.324 270.601 232.112 270.838 231.851 270.838C231.59 270.838 231.378 270.601 231.378 270.309C231.378 270.017 231.59 269.78 231.851 269.78C232.112 269.78 232.324 270.017 232.324 270.309Z" stroke="white" stroke-width="0.207175"/>
<path d="M230.264 270.81C230.264 271.102 230.065 271.339 229.819 271.339C229.573 271.339 229.374 271.102 229.374 270.81C229.374 270.518 229.573 270.281 229.819 270.281C230.065 270.281 230.264 270.518 230.264 270.81Z" stroke="white" stroke-width="0.207175"/>
<path d="M228.372 271.292C228.384 271.584 228.195 271.829 227.949 271.839C227.703 271.85 227.494 271.622 227.482 271.33C227.469 271.038 227.658 270.793 227.904 270.783C228.15 270.772 228.359 271 228.372 271.292Z" stroke="white" stroke-width="0.207175"/>
<path d="M226.702 271.848C226.716 272.14 226.554 272.385 226.339 272.396C226.124 272.407 225.938 272.179 225.923 271.887C225.908 271.596 226.071 271.35 226.286 271.34C226.5 271.329 226.687 271.556 226.702 271.848Z" stroke="white" stroke-width="0.207175"/>
<path d="M225.188 272.486C225.244 272.798 225.143 273.078 224.962 273.111C224.78 273.144 224.587 272.918 224.53 272.605C224.474 272.293 224.575 272.013 224.756 271.98C224.938 271.947 225.131 272.173 225.188 272.486Z" stroke="white" stroke-width="0.207175"/>
<path d="M223.943 273.332C224.041 273.69 224.001 274.013 223.853 274.054C223.705 274.095 223.505 273.838 223.406 273.48C223.307 273.122 223.348 272.799 223.496 272.758C223.644 272.717 223.844 272.974 223.943 273.332Z" stroke="white" stroke-width="0.207175"/>
<path d="M223.036 274.219C223.255 274.519 223.345 274.825 223.238 274.904C223.13 274.983 222.865 274.804 222.646 274.504C222.427 274.205 222.336 273.898 222.444 273.819C222.551 273.741 222.816 273.92 223.036 274.219Z" stroke="white" stroke-width="0.207175"/>
<path d="M243.902 269.474C243.902 269.766 243.665 270.003 243.373 270.003C243.081 270.003 242.844 269.766 242.844 269.474C242.844 269.182 243.081 268.945 243.373 268.945C243.665 268.945 243.902 269.182 243.902 269.474Z" stroke="white" stroke-width="0.207175"/>
<path d="M246.24 269.585C246.24 269.877 246.003 270.114 245.711 270.114C245.419 270.114 245.182 269.877 245.182 269.585C245.182 269.293 245.419 269.057 245.711 269.057C246.003 269.057 246.24 269.293 246.24 269.585Z" stroke="white" stroke-width="0.207175"/>
<path d="M248.466 269.752C248.466 270.044 248.23 270.281 247.938 270.281C247.646 270.281 247.409 270.044 247.409 269.752C247.409 269.46 247.646 269.224 247.938 269.224C248.23 269.224 248.466 269.46 248.466 269.752Z" stroke="white" stroke-width="0.207175"/>
<path d="M250.47 269.919C250.47 270.211 250.258 270.448 249.997 270.448C249.736 270.448 249.524 270.211 249.524 269.919C249.524 269.627 249.736 269.391 249.997 269.391C250.258 269.391 250.47 269.627 250.47 269.919Z" stroke="white" stroke-width="0.207175"/>
<path d="M252.418 270.253C252.418 270.545 252.207 270.782 251.945 270.782C251.684 270.782 251.472 270.545 251.472 270.253C251.472 269.961 251.684 269.725 251.945 269.725C252.207 269.725 252.418 269.961 252.418 270.253Z" stroke="white" stroke-width="0.207175"/>
<path d="M254.255 270.587C254.255 270.879 254.068 271.116 253.838 271.116C253.607 271.116 253.42 270.879 253.42 270.587C253.42 270.295 253.607 270.059 253.838 270.059C254.068 270.059 254.255 270.295 254.255 270.587Z" stroke="white" stroke-width="0.207175"/>
<path d="M255.87 270.977C255.87 271.269 255.683 271.506 255.452 271.506C255.222 271.506 255.035 271.269 255.035 270.977C255.035 270.685 255.222 270.448 255.452 270.448C255.683 270.448 255.87 270.685 255.87 270.977Z" stroke="white" stroke-width="0.207175"/>
<path d="M257.538 271.51C257.516 271.802 257.311 272.023 257.081 272.005C256.851 271.987 256.683 271.737 256.706 271.446C256.728 271.155 256.933 270.933 257.163 270.951C257.393 270.969 257.561 271.219 257.538 271.51Z" stroke="white" stroke-width="0.207175"/>
<path d="M258.935 272.064C258.899 272.354 258.709 272.569 258.511 272.544C258.313 272.52 258.181 272.265 258.217 271.975C258.252 271.685 258.442 271.47 258.641 271.495C258.839 271.519 258.971 271.774 258.935 272.064Z" stroke="white" stroke-width="0.207175"/>
<path d="M260.073 272.712C259.991 272.992 259.806 273.185 259.658 273.142C259.511 273.099 259.457 272.837 259.538 272.557C259.619 272.276 259.805 272.084 259.953 272.126C260.1 272.169 260.154 272.431 260.073 272.712Z" stroke="white" stroke-width="0.207175"/>
<path d="M261.047 273.403C260.933 273.694 260.725 273.884 260.582 273.828C260.439 273.772 260.415 273.491 260.528 273.201C260.642 272.91 260.85 272.72 260.993 272.776C261.136 272.832 261.16 273.113 261.047 273.403Z" stroke="white" stroke-width="0.207175"/>
<path d="M261.813 274.292C261.61 274.552 261.356 274.694 261.246 274.608C261.136 274.522 261.211 274.241 261.413 273.981C261.616 273.721 261.87 273.579 261.98 273.665C262.09 273.751 262.015 274.032 261.813 274.292Z" stroke="white" stroke-width="0.207175"/>
<path d="M262.232 275.355C261.926 275.556 261.624 275.636 261.557 275.534C261.49 275.433 261.684 275.187 261.99 274.986C262.296 274.786 262.598 274.705 262.664 274.807C262.731 274.909 262.537 275.154 262.232 275.355Z" stroke="white" stroke-width="0.207175"/>
<path d="M279.08 279.629C278.357 279.1 278.609 278.648 279.721 278.265L287.825 275.883M328.609 264.18L314.47 268.352" stroke="white" stroke-width="0.517938"/>
<path d="M325.496 250.078L311.337 253.916M279.973 262.308L286.164 260.61" stroke="white" stroke-width="0.517938"/>
<path d="M325.496 249.227L309.746 253.458M279.973 261.456L288.292 259.221" stroke="white" stroke-width="0.207175"/>
<path d="M317.601 304.678L326.641 308.435C327.715 308.881 328.92 308.89 330 308.459L339.198 304.79L340.922 304.045C345.079 302.251 347.77 298.157 347.77 293.629V275.845C347.77 271.336 345.655 269.328 342.733 270.111C341.091 270.551 261.999 296.796 260.908 297.154C256.09 298.734 252.586 303.535 252.586 309.212V330.965C252.586 335.154 256.699 338.107 260.668 336.766L260.908 336.685L278.008 329.539C278.422 329.366 278.692 328.961 278.692 328.512V327.685C278.692 327.331 278.496 327.008 278.182 326.845L277.3 326.386" stroke="white" stroke-width="1.34664"/>
<path d="M254.535 318.788H255.12C255.12 316.932 255.12 314.184 255.12 311.913C255.12 309.642 254.201 301.532 263.469 298.443C270.675 296.041 341.092 272.309 342.121 271.947C343.151 271.585 344.209 271.502 344.515 271.724" stroke="white" stroke-width="0.207175"/>
<path d="M278.968 276.584L279.418 276.464C279.661 276.398 279.831 276.178 279.831 275.926V229.869C279.831 227.23 278.14 224.888 275.635 224.057L250.84 215.833C249.889 215.517 249.217 214.664 249.133 213.665L247.738 197.044C247.661 196.125 248.307 195.301 249.219 195.158L253.858 194.427C254.341 194.351 254.817 194.599 255.031 195.039L258.323 202.076C258.649 202.745 259.378 203.117 260.112 202.989L318.921 192.719C319.21 192.669 319.489 192.852 319.557 193.137L324.529 213.748C325.065 215.971 325.335 218.249 325.335 220.535V260.586C325.335 262.007 326.235 263.273 327.578 263.74L345.096 269.918" stroke="white" stroke-width="0.621525"/>
<path d="M214.734 188.898L247.91 195.522" stroke="white" stroke-width="0.621525"/>
<path d="M241.145 215.006L232.608 212.807C232.28 212.723 231.961 212.97 231.961 213.309V216.244C231.961 217.187 232.598 218.011 233.51 218.249L239.321 219.763C240.522 220.076 241.778 220.115 242.996 219.878L251.861 218.151L241.145 215.006Z" stroke="white" stroke-width="0.621525"/>
<path d="M249.94 215.424L214.669 207.009C213.232 206.666 212.282 205.298 212.464 203.831L214.073 190.859C214.233 189.57 215.231 188.544 216.516 188.349L221.134 187.648L254.303 194.446" stroke="white" stroke-width="0.621525"/>
<path d="M210.003 266.036C201.581 268.224 194.786 270.005 194.5 270.095C190.76 271.284 188.016 275.191 188.016 279.827L188.028 289.663C188.037 297.489 192.456 304.641 199.45 308.153L256.064 336.576M214.901 264.764C227.983 261.373 242.607 257.617 243.067 257.617" stroke="white" stroke-width="0.621525"/>
<path d="M254.422 319.181V309.338C254.422 304.224 257.578 299.9 261.917 298.477C262.9 298.155 341.482 271.628 342.677 271.34C344.708 270.85 346.378 271.534 346.378 275.708V284.642L254.422 319.181ZM254.422 319.181V326.888M278.441 327.365L260.536 334.7C257.606 335.9 254.395 333.745 254.395 330.579V326.888M345.806 284.913V292.915C345.806 297.218 343.198 301.092 339.212 302.713L329.271 306.754C328.588 307.031 327.822 307.027 327.143 306.741L320.133 303.79" stroke="white" stroke-width="0.621525"/>
<path d="M254.562 322.522L255.725 323.08C256.28 323.346 256.919 323.371 257.493 323.148L271.707 317.639M343.29 285.812V289.189C343.29 289.887 342.857 290.511 342.203 290.754L332.964 294.198M271.707 317.639L272.272 317.42C272.304 317.407 272.337 317.396 272.369 317.385M271.707 317.639L272.369 317.385M332.964 294.198L332.91 294.218M332.964 294.198C332.946 294.204 332.928 294.211 332.91 294.218M272.369 317.385L332.91 294.218M272.369 317.385C273.435 317.044 274.546 317.838 274.546 318.977V326.005C274.546 326.791 275.338 327.329 276.069 327.04L276.81 326.746C277.326 326.541 277.706 326.094 277.826 325.552L278.727 321.455C278.966 320.365 279.734 319.468 280.772 319.062L323.828 302.228C324.658 301.904 325.597 302.288 325.96 303.102L327.374 306.262C327.605 306.779 328.203 307.022 328.73 306.813L329.132 306.653C329.555 306.485 329.849 306.097 329.898 305.645L330.826 296.951C330.958 295.722 331.762 294.669 332.91 294.218" stroke="white" stroke-width="0.932288"/>
<path d="M275.129 327.057L261.77 321.602" stroke="white" stroke-width="0.932288"/>
<path d="M252.585 308.772L188.043 279.883" stroke="white" stroke-width="0.932288"/>
<path d="M279.249 227.589L249.219 218.711" stroke="white" stroke-width="0.932288"/>
<path d="M231.905 213.14L213.258 206.711" stroke="white" stroke-width="0.621525"/>
<path d="M269.34 313.611V314.455C269.34 314.612 269.497 314.719 269.643 314.663L274.569 312.748C274.655 312.715 274.711 312.633 274.711 312.541V311.552M285.983 307.461V308.304C285.983 308.461 286.141 308.568 286.286 308.512L291.213 306.597C291.298 306.564 291.355 306.482 291.355 306.39V305.401M301.625 301.672V302.515C301.625 302.672 301.782 302.779 301.928 302.723L306.854 300.808C306.94 300.775 306.996 300.693 306.996 300.601V299.612M316.041 296.161V297.005C316.041 297.161 316.199 297.269 316.345 297.212L321.271 295.298C321.356 295.265 321.413 295.182 321.413 295.09V294.101M329.846 290.817V291.661C329.846 291.817 330.003 291.925 330.149 291.868L335.075 289.954C335.161 289.921 335.217 289.838 335.217 289.747V288.758" stroke="white" stroke-width="0.621525"/>
<path d="M242.24 272.883C251.02 272.883 258.345 274.694 260.031 277.1C257.748 279.236 250.647 280.794 242.24 280.794C233.833 280.794 226.732 279.236 224.449 277.1C226.135 274.693 233.46 272.883 242.24 272.883Z" fill="white" fill-opacity="0.2"/>
<path d="M254.18 192.516L319.971 183.068M319.971 183.068V191.399C319.971 191.93 319.746 192.436 319.351 192.791M319.971 183.068L309.236 181.689M221.18 186.081L279.468 178.435C280.326 178.323 281.194 178.318 282.052 178.421L291.733 179.585M244.253 190.489L309.236 181.689M309.236 181.689L291.733 179.585M231.119 187.988L291.733 179.585" stroke="white" stroke-width="0.621525"/>
<path d="M221.164 187.65V186.298C221.164 186.168 221.283 186.07 221.411 186.095L254.122 192.456V194.369" stroke="white" stroke-width="0.621525"/>
<path d="M241.38 215.104L232.144 212.723C232.07 213.865 231.923 216.257 231.923 216.686C231.923 217.224 232.144 217.896 232.924 218.06C233.704 218.224 237.563 219.086 238.753 219.62C239.706 220.047 240.902 220.099 241.38 220.071V215.104Z" fill="#D9D9D9" fill-opacity="0.07"/>
<path d="M247.915 195.557L214.7 188.914C214.553 189.097 214.252 189.507 214.234 189.682C214.211 189.901 212.258 204.699 212.258 204.768C212.258 204.837 212.298 205.565 212.396 205.841C212.475 206.062 212.866 206.393 213.052 206.531L249.468 215.311H249.898C249.668 214.933 249.198 214.083 249.162 213.702C249.116 213.226 247.7 196.872 247.654 196.351C247.618 195.934 247.813 195.648 247.915 195.557Z" fill="#D9D9D9" fill-opacity="0.07"/>
<path d="M279.404 227.619L249.468 218.61L243.091 219.877L242.983 260.795V263.783L279.161 276.413C279.261 276.413 279.488 276.392 279.601 276.308L279.618 276.295C279.75 276.196 279.847 276.124 279.847 275.939V263.14C279.788 253.177 279.706 232.834 279.847 231.161C279.987 229.487 279.61 228.102 279.404 227.619Z" fill="#D9D9D9" fill-opacity="0.07"/>
<path d="M252.574 308.769L188.041 279.957L187.895 291.017C187.963 293.04 188.041 297.29 188.041 297.29C188.041 297.29 241.315 322.898 252.574 328.301V308.769Z" fill="#D9D9D9" fill-opacity="0.07"/>
<path d="M209.246 268.251C208.9 267.924 208.878 267.474 208.91 267.289C208.718 267.289 207.877 268.779 207.804 269.26C207.732 269.741 208.261 270.414 208.622 270.702C208.982 270.99 209.871 271.351 209.991 271.759C210.088 272.086 209.663 272.472 209.439 272.625C209.495 272.665 209.862 272.62 210.881 272.12C212.154 271.495 212.034 271.087 212.13 270.702C212.226 270.317 211.722 269.765 211.169 269.428C210.616 269.092 209.679 268.659 209.246 268.251Z" fill="#D9D9D9" fill-opacity="0.07"/>
<path d="M269.093 291.315L268.636 288.575C267.574 288.653 265.275 288.808 264.576 288.808H261.162L261.029 291.879C261.445 291.932 262.67 292.038 264.249 292.038C265.827 292.038 268.136 291.556 269.093 291.315Z" fill="#D9D9D9" fill-opacity="0.07"/>
<path d="M257.351 291.46L257.938 288.149L256.506 287.702C256.216 288.532 255.604 290.318 255.473 290.826C255.736 290.995 256.835 291.319 257.351 291.46Z" fill="#D9D9D9" fill-opacity="0.07"/>
<path d="M240.199 291.763L241.246 287.702L240.59 287.533L207.773 273.659L207.524 273.389L207.11 273.804C206.636 274.73 205.677 276.641 205.627 276.873C205.577 277.105 205.827 277.274 205.959 277.329C216.495 281.824 237.734 290.887 238.396 291.183C239.058 291.479 239.873 291.693 240.199 291.763Z" fill="#D9D9D9" fill-opacity="0.07"/>
<path d="M221.216 187.753V186.086L254.129 192.455V194.385L253.953 194.422L221.216 187.753Z" fill="#D9D9D9" fill-opacity="0.07"/>
<path d="M254.108 302.892C254.685 301.321 255.017 301.385 255.473 300.962L190.207 273.192C189.808 273.636 189.357 274.139 189.112 274.871C188.867 275.603 188.528 276.492 188.303 277.329L253.027 305.694C253.109 305.222 253.531 304.463 254.108 302.892Z" fill="#D9D9D9" fill-opacity="0.07"/>
<path d="M309.682 254.406H309.423V254.75L309.754 254.654L309.682 254.406ZM287.738 260.131L287.803 260.381V260.381L287.738 260.131ZM311.531 253.872L311.603 254.121V254.121L311.531 253.872ZM285.875 261.218H285.616L285.616 261.219L285.875 261.218ZM286.458 260.464L286.393 260.214H286.393L286.458 260.464ZM286.513 274.087L286.442 273.838L286.513 274.087ZM285.888 274.269L285.629 274.27C285.629 274.351 285.668 274.428 285.734 274.477C285.799 274.526 285.884 274.541 285.962 274.517L285.888 274.269ZM311.605 266.958L311.534 266.709L311.605 266.958ZM312.171 266.791L312.248 267.039L312.43 266.982V266.791H312.171ZM309.059 251.125L309.122 251.376L309.059 251.125ZM288.909 256.201L288.846 255.95V255.95L288.909 256.201ZM288.909 256.201L288.973 256.452L309.122 251.376L309.059 251.125L308.996 250.874L288.846 255.95L288.909 256.201ZM311.605 266.958L311.534 266.709L286.442 273.838L286.513 274.087L286.584 274.336L311.676 267.207L311.605 266.958ZM285.888 274.269L286.147 274.269L286.134 261.218L285.875 261.218L285.616 261.219L285.629 274.27L285.888 274.269ZM312.171 254.354H311.912V266.791H312.171H312.43V254.354H312.171ZM309.682 251.611H309.423V254.406H309.682H309.941V251.611H309.682ZM309.682 254.406L309.754 254.654L311.603 254.121L311.531 253.872L311.46 253.623L309.611 254.157L309.682 254.406ZM286.458 260.464L286.523 260.715L287.803 260.381L287.738 260.131L287.672 259.88L286.393 260.214L286.458 260.464ZM288.321 259.377H288.579V256.957H288.321H288.062V259.377H288.321ZM287.738 260.131L287.803 260.381C288.26 260.262 288.579 259.849 288.579 259.377H288.321H288.062C288.062 259.614 287.902 259.82 287.672 259.88L287.738 260.131ZM312.171 254.354H312.43C312.43 253.848 311.946 253.483 311.46 253.623L311.531 253.872L311.603 254.121C311.758 254.077 311.912 254.193 311.912 254.354H312.171ZM285.875 261.218H286.134C286.134 260.981 286.294 260.775 286.523 260.715L286.458 260.464L286.393 260.214C285.935 260.333 285.616 260.746 285.616 261.218H285.875ZM286.513 274.087L286.442 273.838C286.281 273.884 286.124 273.93 286.007 273.964C285.949 273.981 285.901 273.995 285.867 274.005C285.85 274.01 285.837 274.014 285.828 274.017C285.823 274.018 285.82 274.019 285.817 274.02C285.816 274.021 285.815 274.021 285.815 274.021C285.814 274.021 285.814 274.021 285.814 274.021C285.814 274.021 285.814 274.021 285.814 274.021C285.814 274.021 285.814 274.021 285.814 274.021C285.814 274.021 285.814 274.021 285.814 274.021C285.814 274.021 285.814 274.021 285.888 274.269C285.962 274.517 285.962 274.517 285.962 274.517C285.962 274.517 285.962 274.517 285.962 274.517C285.962 274.517 285.962 274.517 285.962 274.517C285.962 274.517 285.963 274.517 285.963 274.517C285.963 274.517 285.963 274.517 285.963 274.517C285.964 274.517 285.965 274.517 285.966 274.516C285.968 274.516 285.971 274.515 285.976 274.513C285.985 274.511 285.998 274.507 286.015 274.502C286.048 274.492 286.096 274.478 286.154 274.461C286.269 274.427 286.425 274.381 286.584 274.336L286.513 274.087ZM311.605 266.958L311.676 267.207C311.845 267.159 311.987 267.117 312.088 267.087C312.138 267.072 312.178 267.06 312.205 267.052C312.219 267.048 312.23 267.044 312.237 267.042C312.24 267.041 312.243 267.04 312.245 267.04C312.246 267.039 312.247 267.039 312.247 267.039C312.247 267.039 312.248 267.039 312.248 267.039C312.248 267.039 312.248 267.039 312.248 267.039C312.248 267.039 312.248 267.039 312.248 267.039C312.248 267.039 312.248 267.039 312.248 267.039C312.248 267.039 312.248 267.039 312.171 266.791C312.094 266.544 312.094 266.544 312.094 266.544C312.094 266.544 312.094 266.544 312.094 266.544C312.094 266.544 312.094 266.544 312.094 266.544C312.094 266.544 312.094 266.544 312.094 266.544C312.094 266.544 312.094 266.544 312.094 266.544C312.094 266.544 312.093 266.545 312.092 266.545C312.09 266.545 312.088 266.546 312.084 266.547C312.078 266.549 312.068 266.552 312.054 266.556C312.028 266.564 311.989 266.576 311.939 266.591C311.841 266.621 311.7 266.662 311.534 266.709L311.605 266.958ZM309.059 251.125L309.122 251.376C309.275 251.337 309.423 251.453 309.423 251.611H309.682H309.941C309.941 251.116 309.476 250.753 308.996 250.874L309.059 251.125ZM288.909 256.201L288.846 255.95C288.385 256.066 288.062 256.481 288.062 256.957H288.321H288.579C288.579 256.718 288.742 256.51 288.973 256.452L288.909 256.201Z" fill="white"/>
<path d="M289.051 273.399V257.102C289.051 256.975 289.137 256.864 289.261 256.832L309.631 251.68V267.585" stroke="white" stroke-width="0.207175"/>
<path d="M285.918 274.233L286.199 274.369C287.805 275.142 289.639 275.296 291.352 274.802L313.713 268.358C314.083 268.251 314.12 267.741 313.769 267.582L312.116 266.836" stroke="white" stroke-width="0.517938"/>
<path d="M314.453 267.938V268.487C314.453 268.671 314.331 268.833 314.154 268.885L291.136 275.56C289.563 276.016 287.877 275.875 286.402 275.163C286.042 274.989 285.812 274.624 285.812 274.224V274.146" stroke="white" stroke-width="0.207175"/>
</g>
<path d="M328.66 193.155C326.035 193.383 323.288 192.489 322.242 192.014L322.36 108.508L334.317 100.828V192.014C333.525 192.299 331.284 192.927 328.66 193.155Z" fill="url(#paint2_linear_4245_157663)" fill-opacity="0.07"/>
<path d="M344.129 199.878C344.19 199.334 343.89 197.75 343.733 197.026L344.828 195.572L345.923 195.308C346.15 195.673 346.63 196.501 346.735 196.894C346.841 197.287 346.905 199.198 346.924 200.104C345.967 200.256 344.069 200.422 344.129 199.878Z" fill="url(#paint3_linear_4245_157663)" fill-opacity="0.07"/>
<path d="M324.524 215.765L336.686 213.257C338.533 212.931 340.056 211.147 340.089 209.272L340.316 196.269C340.349 194.394 338.878 193.138 337.031 193.464L320.84 196.318M322.232 191.063L320.293 191.299M338.136 193.394L334.141 192.599M343.16 198.203H340.375M340.375 202.395H343.16M343.036 196.873L345.067 195.256C345.35 195.03 345.74 194.9 345.974 195.176C346.556 195.861 346.975 197.787 346.975 200.055C346.975 202.456 346.505 204.474 345.87 205.042C345.67 205.221 345.381 205.135 345.147 205.007L342.981 203.826M342.227 198.368C342.406 197.47 342.704 196.883 343.041 196.883C343.59 196.883 344.035 198.44 344.035 200.361C344.035 202.282 343.59 203.839 343.041 203.839C342.704 203.839 342.406 203.252 342.227 202.354M334.385 17.9609L334.383 191.952C334.481 192.601 331.844 193.128 328.493 193.128C325.142 193.128 322.346 192.601 322.248 191.952L322.248 17.9609H334.385Z" stroke="url(#paint4_linear_4245_157663)" stroke-width="1.06577"/>
<path d="M325.393 248.233C386.073 256.877 429.33 279.36 429.33 305.735C429.33 339.584 358.082 367.024 270.192 367.024C182.303 367.024 111.055 339.584 111.055 305.735C111.055 275.438 168.134 250.276 243.136 245.328" stroke="url(#paint5_linear_4245_157663)" stroke-linecap="round" stroke-dasharray="6 6"/>
<path d="M18.8233 258.851L0.61669 272.03M37.3396 258.758L8.53994 279.605M55.8558 258.664L16.4632 287.179M74.372 258.571L24.3864 294.754M92.8882 258.478L32.3097 302.329M115.515 253.705L40.2329 309.903M143.848 245.785L48.1562 317.478M162.364 245.692L56.0794 325.053M180.88 245.599L64.0027 332.627M199.397 245.505L71.9259 340.202M217.913 245.412L79.8492 347.776M236.429 245.319L207.553 266.692M87.7724 355.351L188.002 281.164M96.3577 362.446L188.575 294.284M110.239 365.708L193.835 303.954M203.394 310.536L128.756 365.615M214.818 315.828L147.272 365.521M165.788 365.428L225.57 321.266M347.195 244.999L325.406 261.096M184.304 365.335L236.526 326.756M366.043 244.666L336.191 266.718M202.821 365.242L247.486 332.246M384.559 244.573L347.409 272.016M221.337 365.148L259.028 337.305M402.744 244.719L348.201 285.012M239.853 365.055L319.95 305.883M415.158 250.961L258.369 364.962M429.959 252.359L276.885 364.868M444.365 256.945L295.402 364.775M457.254 260.926L313.918 364.682M465.177 268.5L332.434 364.589M473.1 276.075L350.95 364.495M481.024 283.649L369.466 364.402M488.947 291.224L387.983 364.309M496.87 298.799L406.499 364.215M503.803 305.426L422.701 364.134M510.736 312.054L438.902 364.052M517.669 318.682L455.104 363.971M524.602 325.31L471.306 363.889M531.534 331.938L487.507 363.807M538.467 338.565L503.709 363.726M545.4 345.193L519.911 363.644M552.333 351.821L536.112 363.563M559.266 358.449L552.314 363.481M235.554 259.559L243.113 253.971" stroke="url(#paint6_radial_4245_157663)" stroke-linecap="round" stroke-linejoin="round" stroke-dasharray="2.61 6.43"/>
<g filter="url(#filter0_d_4245_157663)">
<path fill-rule="evenodd" clip-rule="evenodd" d="M251.649 277.473C251.344 277.239 250.48 276.544 249.692 276.012C248.906 275.48 248.227 275.151 247.273 274.844C246.863 274.713 245.885 274.489 245.442 274.425C244.839 274.34 243.96 274.261 243.323 274.238C242.877 274.221 242.145 274.217 241.804 274.229C240.81 274.265 239.537 274.393 238.836 274.525C236.151 275.035 233.721 276.218 232.803 278.587C232.739 278.749 232.697 278.795 232.656 278.739C232.639 278.714 232.683 278.443 232.803 278.188C234.004 275.633 236.76 274.548 239.482 274.196C241.32 273.958 242.951 273.937 244.755 274.13C245.578 274.219 246.005 274.291 246.758 274.471C247.493 274.646 247.967 274.766 248.7 275.07C249.535 275.415 250.225 275.77 250.89 276.178C251.556 276.586 251.849 276.789 252.219 277.113C252.589 277.437 251.955 277.707 251.649 277.473Z" fill="url(#paint7_linear_4245_157663)" fill-opacity="0.8"/>
<path d="M239.478 274.157C241.319 273.919 242.952 273.898 244.759 274.091C245.583 274.18 246.012 274.253 246.767 274.433C247.502 274.608 247.979 274.728 248.715 275.033C249.552 275.38 250.244 275.735 250.911 276.145C251.577 276.553 251.873 276.758 252.245 277.084C252.343 277.17 252.384 277.261 252.368 277.347C252.353 277.43 252.287 277.495 252.206 277.537C252.124 277.58 252.021 277.603 251.918 277.601C251.815 277.598 251.709 277.569 251.625 277.505C251.318 277.27 250.457 276.577 249.67 276.045C248.887 275.515 248.211 275.187 247.261 274.882C246.955 274.784 246.33 274.634 245.851 274.538L245.437 274.465C244.834 274.38 243.957 274.3 243.321 274.277C242.877 274.26 242.146 274.257 241.806 274.269C240.813 274.305 239.542 274.432 238.843 274.563C236.162 275.073 233.75 276.252 232.84 278.601V278.602C232.824 278.643 232.808 278.677 232.794 278.705C232.78 278.732 232.765 278.755 232.75 278.771C232.735 278.788 232.712 278.803 232.684 278.801C232.67 278.8 232.658 278.794 232.648 278.787L232.623 278.762C232.617 278.753 232.615 278.743 232.614 278.738C232.613 278.732 232.612 278.726 232.612 278.72C232.612 278.707 232.613 278.691 232.615 278.674C232.619 278.639 232.627 278.593 232.64 278.541C232.664 278.436 232.706 278.301 232.768 278.171C233.977 275.598 236.751 274.51 239.478 274.157Z" stroke="black" stroke-opacity="0.13" stroke-width="0.0792298"/>
<ellipse cx="0.196817" cy="0.259688" rx="0.196817" ry="0.259688" transform="matrix(0.624534 0.780998 -0.851308 0.524666 252.102 277.047)" fill="#616161"/>
<path d="M251.917 277.256C252.011 277.159 252.179 277.214 252.268 277.277C252.734 277.625 253.025 277.928 253.553 278.495C253.636 278.585 253.61 278.718 253.498 278.799C253.385 278.88 253.236 278.886 253.144 278.787C252.607 278.209 252.338 277.861 251.917 277.546C251.806 277.463 251.823 277.353 251.917 277.256Z" fill="#B4B4B4"/>
<ellipse cx="0.1736" cy="0.229054" rx="0.1736" ry="0.229054" transform="matrix(0.624534 0.780998 -0.851308 0.524666 253.434 278.391)" fill="url(#paint8_linear_4245_157663)"/>
<path d="M253.126 278.423C253.287 278.525 253.405 278.719 253.371 278.737C253.336 278.755 253.37 278.696 253.094 278.476L253.126 278.423Z" fill="url(#paint9_linear_4245_157663)"/>
<path d="M252.97 278.459C253.143 278.543 253.288 278.723 253.256 278.745C253.224 278.766 253.25 278.703 252.946 278.515L252.97 278.459Z" fill="url(#paint10_linear_4245_157663)"/>
<path d="M253.095 278.493C253.257 278.593 253.379 278.786 253.344 278.804C253.309 278.823 253.343 278.763 253.064 278.546L253.095 278.493Z" fill="url(#paint11_linear_4245_157663)"/>
<path d="M253.085 278.178C253.334 278.304 253.537 278.571 253.49 278.602C253.442 278.632 253.482 278.542 253.047 278.259L253.085 278.178Z" fill="url(#paint12_linear_4245_157663)"/>
<path d="M253.001 278.248C253.291 278.395 253.527 278.704 253.472 278.74C253.417 278.776 253.463 278.67 252.958 278.342L253.001 278.248Z" fill="url(#paint13_linear_4245_157663)"/>
<path d="M253.002 278.389C253.178 278.479 253.322 278.667 253.288 278.689C253.255 278.71 253.283 278.646 252.975 278.446L253.002 278.389Z" fill="url(#paint14_linear_4245_157663)"/>
<path opacity="0.5" d="M253.078 278.644C252.956 278.452 252.08 277.548 251.96 277.49C251.84 277.432 251.986 277.269 252.059 277.312C252.179 277.382 252.816 277.912 253.255 278.467C253.1 278.536 253.118 278.707 253.078 278.644Z" fill="black" fill-opacity="0.4"/>
<path d="M253.032 278.593C252.945 278.433 252.032 277.531 251.963 277.502C251.894 277.473 251.919 277.388 251.986 277.437C252.053 277.486 252.647 277.971 253.086 278.526C253.131 278.583 253.068 278.658 253.032 278.593Z" fill="black" fill-opacity="0.5"/>
<path opacity="0.5" d="M253.289 278.341C253.004 277.967 252.274 277.333 252.204 277.305C252.134 277.278 252.208 277.266 252.276 277.313C252.344 277.361 252.918 277.796 253.371 278.341C253.418 278.398 253.334 278.401 253.289 278.341Z" fill="black" fill-opacity="0.4"/>
<path d="M246.469 274.469C246.564 274.487 246.658 274.508 246.752 274.53C248.447 274.937 250.293 275.836 251.664 276.805C251.738 276.859 251.815 276.918 251.887 276.974C251.904 276.988 251.915 277.007 251.915 277.027C251.916 277.048 251.908 277.068 251.892 277.083C251.876 277.098 251.854 277.107 251.83 277.108C251.807 277.109 251.785 277.101 251.768 277.087C251.7 277.031 251.626 276.971 251.556 276.917C250.237 275.925 248.427 274.988 246.75 274.537C246.657 274.513 246.563 274.49 246.469 274.469Z" fill="white"/>
<path d="M248.164 275.117C248.225 275.142 248.285 275.168 248.345 275.194C249.421 275.675 250.722 276.491 251.603 277.206C251.645 277.243 251.622 277.323 251.661 277.361C251.671 277.37 251.675 277.38 251.672 277.389C251.67 277.398 251.661 277.405 251.648 277.409C251.635 277.412 251.619 277.412 251.603 277.408C251.587 277.405 251.573 277.397 251.564 277.388C251.527 277.352 251.487 277.313 251.447 277.276C250.712 276.61 249.4 275.693 248.343 275.197C248.284 275.17 248.224 275.143 248.164 275.117Z" fill="black" fill-opacity="0.4"/>
<path d="M236.208 275.116C235.569 275.4 235.012 275.822 234.468 276.227C234.44 276.248 234.412 276.269 234.385 276.291C233.831 276.795 233.287 277.424 232.946 277.988C232.917 278.056 232.891 278.127 232.871 278.197C232.885 278.126 232.907 278.053 232.931 277.983C233.292 277.363 233.727 276.79 234.327 276.233C234.354 276.211 234.383 276.19 234.411 276.168C234.961 275.761 235.539 275.352 236.201 275.103C236.382 275.037 236.394 275.036 236.208 275.116Z" fill="white"/>
</g>
<defs>
<filter id="filter0_d_4245_157663" x="231.874" y="273.922" width="22.4781" height="6.37656" filterUnits="userSpaceOnUse" color-interpolation-filters="sRGB">
<feFlood flood-opacity="0" result="BackgroundImageFix"/>
<feColorMatrix in="SourceAlpha" type="matrix" values="0 0 0 0 0 0 0 0 0 0 0 0 0 0 0 0 0 0 127 0" result="hardAlpha"/>
<feOffset dy="0.7"/>
<feGaussianBlur stdDeviation="0.35"/>
<feComposite in2="hardAlpha" operator="out"/>
<feColorMatrix type="matrix" values="0 0 0 0 0 0 0 0 0 0 0 0 0 0 0 0 0 0 0.33 0"/>
<feBlend mode="normal" in2="BackgroundImageFix" result="effect1_dropShadow_4245_157663"/>
<feBlend mode="normal" in="SourceGraphic" in2="effect1_dropShadow_4245_157663" result="shape"/>
</filter>
<radialGradient id="paint0_radial_4245_157663" cx="0" cy="0" r="1" gradientUnits="userSpaceOnUse" gradientTransform="translate(270.19 259.031) rotate(90) scale(120.442 102.282)">
<stop stop-color="#151522"/>
<stop offset="0.167553" stop-color="#151522"/>
<stop offset="1" stop-color="#161420" stop-opacity="0"/>
</radialGradient>
<linearGradient id="paint1_linear_4245_157663" x1="298.493" y1="310.229" x2="303.214" y2="320.08" gradientUnits="userSpaceOnUse">
<stop/>
<stop offset="1" stop-opacity="0"/>
</linearGradient>
<linearGradient id="paint2_linear_4245_157663" x1="334.583" y1="163.077" x2="334.583" y2="114.414" gradientUnits="userSpaceOnUse">
<stop stop-color="#D9D9D9"/>
<stop offset="0.4375" stop-color="#D9D9D9" stop-opacity="0"/>
</linearGradient>
<linearGradient id="paint3_linear_4245_157663" x1="334.583" y1="163.077" x2="334.583" y2="114.414" gradientUnits="userSpaceOnUse">
<stop stop-color="#D9D9D9"/>
<stop offset="0.4375" stop-color="#D9D9D9" stop-opacity="0"/>
</linearGradient>
<linearGradient id="paint4_linear_4245_157663" x1="333.634" y1="268.568" x2="333.634" y2="91.3266" gradientUnits="userSpaceOnUse">
<stop stop-color="white" stop-opacity="0.8"/>
<stop offset="0.653846" stop-color="white" stop-opacity="0"/>
</linearGradient>
<linearGradient id="paint5_linear_4245_157663" x1="260.879" y1="362.856" x2="260.879" y2="259.854" gradientUnits="userSpaceOnUse">
<stop stop-color="white"/>
<stop offset="1" stop-color="white" stop-opacity="0.4"/>
</linearGradient>
<radialGradient id="paint6_radial_4245_157663" cx="0" cy="0" r="1" gradientUnits="userSpaceOnUse" gradientTransform="translate(269.262 302.414) scale(155.418 60.0839)">
<stop stop-color="white" stop-opacity="0"/>
<stop offset="0.408122" stop-color="#DEDEDE" stop-opacity="0.1"/>
<stop offset="0.747946" stop-color="#B2B2B2" stop-opacity="0.75"/>
<stop offset="1" stop-color="#999999" stop-opacity="0"/>
</radialGradient>
<linearGradient id="paint7_linear_4245_157663" x1="249.739" y1="279.305" x2="245.1" y2="269.362" gradientUnits="userSpaceOnUse">
<stop stop-color="white"/>
<stop offset="1" stop-color="white" stop-opacity="0.5"/>
</linearGradient>
<linearGradient id="paint8_linear_4245_157663" x1="0.0552687" y1="0.217496" x2="0.426343" y2="0.22064" gradientUnits="userSpaceOnUse">
<stop stop-color="#353736"/>
<stop offset="1" stop-color="#A6A6A6"/>
</linearGradient>
<linearGradient id="paint9_linear_4245_157663" x1="253.36" y1="278.713" x2="253.309" y2="278.609" gradientUnits="userSpaceOnUse">
<stop stop-color="#DCDCDC"/>
<stop offset="1" stop-color="#DCDCDC" stop-opacity="0"/>
</linearGradient>
<linearGradient id="paint10_linear_4245_157663" x1="253.242" y1="278.722" x2="253.178" y2="278.623" gradientUnits="userSpaceOnUse">
<stop stop-color="#DCDCDC"/>
<stop offset="1" stop-color="#DCDCDC" stop-opacity="0"/>
</linearGradient>
<linearGradient id="paint11_linear_4245_157663" x1="253.333" y1="278.78" x2="253.28" y2="278.677" gradientUnits="userSpaceOnUse">
<stop stop-color="#DCDCDC"/>
<stop offset="1" stop-color="#DCDCDC" stop-opacity="0"/>
</linearGradient>
<linearGradient id="paint12_linear_4245_157663" x1="253.457" y1="278.551" x2="253.404" y2="278.445" gradientUnits="userSpaceOnUse">
<stop stop-color="#DCDCDC"/>
<stop offset="1" stop-color="#DCDCDC" stop-opacity="0"/>
</linearGradient>
<linearGradient id="paint13_linear_4245_157663" x1="253.399" y1="278.641" x2="253.293" y2="278.48" gradientUnits="userSpaceOnUse">
<stop stop-color="#DCDCDC"/>
<stop offset="1" stop-color="#DCDCDC" stop-opacity="0"/>
</linearGradient>
<linearGradient id="paint14_linear_4245_157663" x1="253.247" y1="278.634" x2="253.188" y2="278.564" gradientUnits="userSpaceOnUse">
<stop stop-color="#DCDCDC"/>
<stop offset="1" stop-color="#DCDCDC" stop-opacity="0"/>
</linearGradient>
</defs>
</svg>
