<svg width="575" height="572" viewBox="0 0 575 572" fill="none" xmlns="http://www.w3.org/2000/svg">
<ellipse cx="272.711" cy="382.898" rx="22.3435" ry="8.17931" fill="#713ADA" fill-opacity="0.4"/>
<ellipse cx="104.932" cy="319.459" rx="18.3536" ry="5.88511" fill="#713ADA" fill-opacity="0.4"/>
<ellipse cx="272.711" cy="382.898" rx="22.3435" ry="8.17931" stroke="white" stroke-width="0.997477"/>
<ellipse cx="104.932" cy="319.158" rx="18.3536" ry="5.68562" stroke="white" stroke-width="0.997477"/>
<path d="M289.466 388.058C291.607 386.902 292.856 385.512 292.856 384.017C292.856 379.998 283.837 376.74 272.713 376.74C261.588 376.74 252.57 379.998 252.57 384.017C252.57 385.512 253.819 386.902 255.96 388.058" stroke="white" stroke-width="0.398991" stroke-linecap="round"/>
<path d="M118.675 322.702C120.431 321.917 121.455 320.973 121.455 319.958C121.455 317.229 114.059 315.018 104.935 315.018C95.8105 315.018 88.4141 317.229 88.4141 319.958C88.4141 320.973 89.438 321.917 91.194 322.702" stroke="white" stroke-width="0.398991" stroke-linecap="round"/>
<path d="M323.578 365.342L323.819 364.906L323.578 365.342ZM197.098 306.99L197.261 306.519L197.13 306.473L196.995 306.502L197.098 306.99ZM328.066 352.475L328.209 352.953C328.417 352.891 328.56 352.702 328.565 352.486C328.57 352.27 328.434 352.075 328.23 352.004L328.066 352.475ZM188.238 391.754L188.433 391.295V391.295L188.238 391.754ZM71.3033 342.141L71.1085 342.6L71.3033 342.141ZM71.4376 340.259L71.31 339.777L71.31 339.777L71.4376 340.259ZM202.085 389.909L202.234 390.385L202.24 390.383L202.085 389.909ZM195.113 392.091L194.964 391.615V391.615L195.113 392.091ZM78.4977 338.39L78.6254 338.872L78.6337 338.87L78.6419 338.868L78.4977 338.39ZM81.5899 326.309L81.3895 326.766L81.3936 326.767L81.5899 326.309ZM161.687 304.174L161.862 303.707L161.861 303.706L161.687 304.174ZM163.583 304.884L163.788 304.43L163.773 304.423L163.758 304.418L163.583 304.884ZM297.186 392.773L297.001 392.31L297.186 392.773ZM98.8205 309.452L98.9558 309.932L98.8205 309.452ZM272.108 396.863V396.364C262.192 396.364 253.284 394.772 247.059 392.247L246.872 392.709L246.684 393.171C253.059 395.757 262.101 397.361 272.108 397.361V396.863ZM323.578 365.342L323.337 365.779C325.521 366.986 327.406 368.308 328.804 369.687C330.207 371.07 331.085 372.475 331.329 373.848C331.568 375.195 331.21 376.581 329.988 377.986C328.752 379.407 326.635 380.84 323.384 382.21L323.578 382.67L323.771 383.129C327.091 381.731 329.364 380.224 330.741 378.641C332.132 377.041 332.61 375.357 332.311 373.674C332.017 372.018 330.984 370.435 329.505 368.976C328.021 367.514 326.054 366.141 323.819 364.906L323.578 365.342ZM197.098 306.99L196.934 307.461L327.903 352.946L328.066 352.475L328.23 352.004L197.261 306.519L197.098 306.99ZM188.238 391.754L188.433 391.295L71.4981 341.682L71.3033 342.141L71.1085 342.6L188.043 392.213L188.238 391.754ZM71.3033 342.141L71.4981 341.682C71.0607 341.497 71.106 340.863 71.5652 340.741L71.4376 340.259L71.31 339.777C69.9321 340.142 69.7964 342.044 71.1085 342.6L71.3033 342.141ZM221.835 386.888V387.387C232.503 387.387 240.434 390.433 246.873 393.23L247.071 392.773L247.27 392.316C240.789 389.5 232.708 386.389 221.835 386.389V386.888ZM202.085 389.909L202.24 390.383C208.071 388.477 215.3 387.387 221.835 387.387V386.888V386.389C215.204 386.389 207.87 387.493 201.93 389.435L202.085 389.909ZM195.113 392.091L195.262 392.567L202.234 390.385L202.085 389.909L201.936 389.433L194.964 391.615L195.113 392.091ZM71.4376 340.259L71.5652 340.741L78.6254 338.872L78.4977 338.39L78.3701 337.908L71.31 339.777L71.4376 340.259ZM188.238 391.754L188.043 392.213C190.331 393.184 192.89 393.309 195.262 392.567L195.113 392.091L194.964 391.615C192.818 392.286 190.503 392.173 188.433 391.295L188.238 391.754ZM323.578 365.342L323.819 364.906C321.154 363.434 319.987 361.421 319.987 359.651H319.488H318.989C318.989 361.885 320.455 364.187 323.337 365.779L323.578 365.342ZM319.488 359.651H319.987C319.987 358.376 320.491 357.183 321.756 356.067C323.039 354.934 325.105 353.882 328.209 352.953L328.066 352.475L327.923 351.997C324.757 352.945 322.534 354.049 321.095 355.319C319.639 356.605 318.989 358.061 318.989 359.651H319.488ZM81.5899 326.309L81.7904 325.852C79.8858 325.016 78.3657 324.054 77.3296 323.041C76.2912 322.025 75.7788 321 75.7788 320.025H75.2801H74.7814C74.7814 321.366 75.4851 322.632 76.6322 323.754C77.7817 324.878 79.4165 325.9 81.3895 326.766L81.5899 326.309ZM139.743 300.895V301.393C148.393 301.393 156.15 302.652 161.514 304.641L161.687 304.174L161.861 303.706C156.355 301.665 148.473 300.396 139.743 300.396V300.895ZM183.733 308.276V307.777C175.501 307.777 168.247 306.447 163.788 304.43L163.583 304.884L163.377 305.339C168.012 307.435 175.422 308.775 183.733 308.775V308.276ZM197.098 306.99L196.995 306.502C193.168 307.308 188.618 307.777 183.733 307.777V308.276V308.775C188.679 308.775 193.298 308.3 197.201 307.478L197.098 306.99ZM81.5899 326.309L81.3936 326.767C83.1083 327.502 84.4455 328.337 85.3462 329.214C86.247 330.092 86.6771 330.977 86.6771 331.827H87.1758H87.6745C87.6745 330.618 87.0602 329.492 86.0424 328.5C85.0245 327.508 83.5687 326.614 81.7862 325.85L81.5899 326.309ZM87.1758 331.827H86.6771C86.6771 332.902 85.9859 334.011 84.5365 335.084C83.096 336.15 80.9863 337.118 78.3536 337.913L78.4977 338.39L78.6419 338.868C81.3331 338.055 83.5624 337.046 85.13 335.886C86.6886 334.732 87.6745 333.363 87.6745 331.827H87.1758ZM163.583 304.884L163.758 304.418L161.862 303.707L161.687 304.174L161.512 304.64L163.407 305.351L163.583 304.884ZM297.186 392.773L297.001 392.31C290.783 394.799 281.941 396.364 272.108 396.364V396.863V397.361C282.031 397.361 291.006 395.784 297.371 393.236L297.186 392.773ZM323.578 382.67L323.384 382.21C316.823 384.974 312.81 386.465 309.15 387.781C305.487 389.098 302.164 390.243 297.001 392.31L297.186 392.773L297.371 393.236C302.514 391.178 305.816 390.039 309.487 388.72C313.161 387.399 317.191 385.902 323.771 383.129L323.578 382.67ZM75.2801 320.025H75.7788C75.7788 319.23 76.2992 318.405 77.4705 317.532C78.6312 316.667 80.3337 315.829 82.4696 314.994C86.7384 313.326 92.5928 311.724 98.9558 309.932L98.8205 309.452L98.6853 308.972C92.3489 310.757 86.4331 312.374 82.1065 314.065C79.9447 314.91 78.1432 315.786 76.8744 316.732C75.6161 317.67 74.7814 318.754 74.7814 320.025H75.2801ZM98.8205 309.452L98.9558 309.932C106.288 307.867 114.308 305.73 121.592 304.11C128.887 302.488 135.403 301.393 139.743 301.393V300.895V300.396C135.283 300.396 128.673 301.514 121.375 303.137C114.065 304.762 106.024 306.905 98.6853 308.972L98.8205 309.452Z" fill="white"/>
<path d="M244.633 404.549C251.482 407.187 260.843 408.038 271.674 408.038C282.868 408.038 293.096 406.175 300.451 402.952C310.966 399.36 333.285 391.631 337.13 385.623C340.975 379.614 339.399 371.645 326.598 363.487M244.85 404.615C237.825 401.717 233.75 399.36 222.039 399.36C212.803 399.36 206.221 402.621 197.402 405.241C192.813 407.122 187.128 408.038 183.471 406.156L64.2636 355.158C63.7406 354.934 63.508 354.324 63.7555 353.812C64.7754 351.701 67.2751 346.531 68.663 343.673C69.2316 342.502 70.0125 341.45 70.964 340.562L71.0212 340.509M76.4076 317.662C74.9114 318.959 73.8141 320.754 72.0187 324.944C70.4227 328.668 73.9139 331.782 77.6046 333.422C80.3975 334.664 79.6993 337.811 76.8066 338.809" stroke="white" stroke-width="0.997477"/>
<ellipse cx="195.105" cy="347.687" rx="75.4092" ry="23.6402" stroke="white" stroke-width="0.997477"/>
<ellipse cx="195.109" cy="349.383" rx="67.0304" ry="18.7526" stroke="white" stroke-width="0.997477"/>
<path d="M259.149 354.968C258.54 353.755 257.475 352.582 256.003 351.461C247.078 344.668 223.184 339.807 195.108 339.807C167.033 339.807 143.138 344.668 134.214 351.461C132.744 352.58 131.68 353.752 131.07 354.963" stroke="white" stroke-width="0.997477"/>
<path d="M267.683 380.604C268.167 380.612 268.661 380.696 269.044 380.866L273.027 382.637L277.377 381.01C277.787 380.857 278.292 380.79 278.777 380.799C279.261 380.807 279.755 380.89 280.139 381.061C280.493 381.218 280.828 381.494 280.786 381.892C280.766 382.081 280.66 382.238 280.527 382.356C280.394 382.475 280.218 382.572 280.014 382.648L276.234 384.062L279.662 385.586C280.017 385.744 280.35 386.019 280.309 386.417C280.289 386.606 280.183 386.763 280.05 386.882C279.917 387.001 279.741 387.097 279.536 387.174C279.127 387.327 278.62 387.393 278.135 387.385C277.651 387.376 277.157 387.293 276.773 387.123L272.79 385.352L268.441 386.979C268.032 387.133 267.526 387.199 267.041 387.19C266.557 387.182 266.062 387.099 265.679 386.929C265.324 386.771 264.99 386.495 265.032 386.097C265.052 385.907 265.158 385.752 265.291 385.633C265.424 385.514 265.6 385.417 265.805 385.34L269.583 383.926L266.156 382.402C265.801 382.245 265.468 381.969 265.51 381.571C265.53 381.382 265.636 381.225 265.769 381.106C265.901 380.988 266.078 380.891 266.282 380.814C266.692 380.661 267.198 380.595 267.683 380.604Z" stroke="white" stroke-width="0.598486"/>
<path d="M101.731 316.865C102.133 316.872 102.54 316.936 102.853 317.063L106.231 318.444L109.92 317.176C110.255 317.061 110.672 317.01 111.074 317.017C111.476 317.023 111.883 317.086 112.195 317.214C112.351 317.278 112.483 317.357 112.575 317.454C112.67 317.554 112.732 317.683 112.715 317.829C112.699 317.971 112.613 318.085 112.508 318.172C112.402 318.259 112.26 318.331 112.093 318.389L108.835 319.509L111.794 320.718C111.95 320.781 112.081 320.861 112.173 320.958C112.267 321.057 112.329 321.187 112.312 321.333C112.296 321.474 112.211 321.589 112.105 321.676C112 321.763 111.858 321.834 111.691 321.892C111.356 322.007 110.939 322.058 110.536 322.052C110.134 322.045 109.728 321.981 109.415 321.854L106.035 320.472L102.349 321.741C102.013 321.857 101.596 321.907 101.193 321.9C100.792 321.894 100.385 321.831 100.072 321.703C99.9165 321.639 99.7856 321.56 99.6934 321.463C99.5989 321.363 99.536 321.234 99.5527 321.088C99.569 320.946 99.6546 320.832 99.7598 320.745C99.8657 320.658 100.007 320.586 100.175 320.528L103.432 319.407L100.475 318.199C100.319 318.136 100.187 318.056 100.095 317.959C100 317.86 99.9383 317.73 99.9551 317.584C99.9714 317.442 100.057 317.328 100.162 317.241C100.268 317.154 100.41 317.083 100.577 317.025C100.912 316.91 101.329 316.859 101.731 316.865Z" stroke="white" stroke-width="0.398991"/>
<path d="M193.508 307.689L197.897 306.513V148.891" stroke="white" stroke-width="0.997477"/>
<path d="M196.111 312.58L86.9463 342.188C85.847 342.486 85.7461 344.006 86.7963 344.447L186.419 386.27C188.294 387.057 190.384 387.169 192.332 386.586L309.114 351.655C310.231 351.321 310.259 349.75 309.155 349.375L201.23 312.739C199.578 312.178 197.795 312.123 196.111 312.58Z" stroke="white" stroke-width="0.398991"/>
<path d="M325.116 534.953L321.445 531.609L324.056 521.412C324.872 518.013 326.813 510.725 328.053 508.767C329.603 506.32 333.192 505.015 335.721 503.954C337.744 503.106 422.925 469.992 465.263 453.541L505.48 468.551L324.056 542.785L325.116 541.398L325.687 539.277L325.116 534.953Z" fill="url(#paint0_linear_4961_119024)" fill-opacity="0.5"/>
<path d="M192.11 327.339C192.11 328.385 191.262 329.234 190.215 329.234C189.169 329.234 188.32 328.385 188.32 327.339C188.32 326.292 189.169 325.443 190.215 325.443C191.262 325.443 192.11 326.292 192.11 327.339Z" stroke="white" stroke-width="0.398991"/>
<path d="M183.532 327.738C183.532 328.784 182.684 329.633 181.637 329.633C180.59 329.633 179.742 328.784 179.742 327.738C179.742 326.691 180.59 325.842 181.637 325.842C182.684 325.842 183.532 326.691 183.532 327.738Z" stroke="white" stroke-width="0.398991"/>
<path d="M175.153 328.336C175.153 329.383 174.305 330.231 173.258 330.231C172.211 330.231 171.363 329.383 171.363 328.336C171.363 327.289 172.211 326.441 173.258 326.441C174.305 326.441 175.153 327.289 175.153 328.336Z" stroke="white" stroke-width="0.398991"/>
<path d="M166.974 329.134C166.974 330.181 166.215 331.029 165.278 331.029C164.342 331.029 163.583 330.181 163.583 329.134C163.583 328.087 164.342 327.239 165.278 327.239C166.215 327.239 166.974 328.087 166.974 329.134Z" stroke="white" stroke-width="0.398991"/>
<path d="M159.393 330.331C159.393 331.378 158.634 332.226 157.697 332.226C156.761 332.226 156.002 331.378 156.002 330.331C156.002 329.284 156.761 328.436 157.697 328.436C158.634 328.436 159.393 329.284 159.393 330.331Z" stroke="white" stroke-width="0.398991"/>
<path d="M152.012 332.126C152.012 333.173 151.297 334.022 150.416 334.022C149.534 334.022 148.82 333.173 148.82 332.126C148.82 331.08 149.534 330.231 150.416 330.231C151.297 330.231 152.012 331.08 152.012 332.126Z" stroke="white" stroke-width="0.398991"/>
<path d="M145.228 333.854C145.272 334.9 144.594 335.778 143.714 335.815C142.833 335.853 142.083 335.035 142.039 333.99C141.994 332.944 142.672 332.066 143.552 332.028C144.433 331.991 145.183 332.808 145.228 333.854Z" stroke="white" stroke-width="0.398991"/>
<path d="M139.242 335.846C139.295 336.891 138.714 337.771 137.944 337.81C137.174 337.849 136.506 337.033 136.453 335.988C136.4 334.942 136.981 334.063 137.752 334.024C138.522 333.985 139.189 334.801 139.242 335.846Z" stroke="white" stroke-width="0.398991"/>
<path d="M133.817 338.133C134.02 339.252 133.657 340.256 133.007 340.374C132.357 340.492 131.664 339.68 131.461 338.56C131.258 337.44 131.62 336.437 132.271 336.319C132.921 336.201 133.613 337.013 133.817 338.133Z" stroke="white" stroke-width="0.398991"/>
<path d="M129.355 341.166C129.708 342.448 129.564 343.607 129.033 343.753C128.502 343.9 127.785 342.978 127.431 341.696C127.078 340.413 127.222 339.254 127.753 339.108C128.284 338.962 129.001 339.883 129.355 341.166Z" stroke="white" stroke-width="0.398991"/>
<path d="M126.104 344.345C126.89 345.419 127.214 346.518 126.829 346.8C126.443 347.082 125.494 346.441 124.708 345.367C123.922 344.293 123.597 343.194 123.983 342.912C124.368 342.63 125.318 343.271 126.104 344.345Z" stroke="white" stroke-width="0.398991"/>
<path d="M200.888 327.339C200.888 328.385 200.04 329.234 198.993 329.234C197.946 329.234 197.098 328.385 197.098 327.339C197.098 326.292 197.946 325.443 198.993 325.443C200.04 325.443 200.888 326.292 200.888 327.339Z" stroke="white" stroke-width="0.398991"/>
<path d="M209.267 327.738C209.267 328.784 208.419 329.633 207.372 329.633C206.325 329.633 205.477 328.784 205.477 327.738C205.477 326.691 206.325 325.842 207.372 325.842C208.419 325.842 209.267 326.691 209.267 327.738Z" stroke="white" stroke-width="0.398991"/>
<path d="M217.247 328.336C217.247 329.383 216.398 330.231 215.352 330.231C214.305 330.231 213.456 329.383 213.456 328.336C213.456 327.289 214.305 326.441 215.352 326.441C216.398 326.441 217.247 327.289 217.247 328.336Z" stroke="white" stroke-width="0.398991"/>
<path d="M224.429 328.935C224.429 329.981 223.669 330.83 222.733 330.83C221.796 330.83 221.037 329.981 221.037 328.935C221.037 327.888 221.796 327.039 222.733 327.039C223.669 327.039 224.429 327.888 224.429 328.935Z" stroke="white" stroke-width="0.398991"/>
<path d="M231.411 330.131C231.411 331.178 230.652 332.027 229.715 332.027C228.779 332.027 228.02 331.178 228.02 330.131C228.02 329.085 228.779 328.236 229.715 328.236C230.652 328.236 231.411 329.085 231.411 330.131Z" stroke="white" stroke-width="0.398991"/>
<path d="M237.994 331.328C237.994 332.375 237.324 333.224 236.498 333.224C235.672 333.224 235.002 332.375 235.002 331.328C235.002 330.282 235.672 329.433 236.498 329.433C237.324 329.433 237.994 330.282 237.994 331.328Z" stroke="white" stroke-width="0.398991"/>
<path d="M243.78 332.725C243.78 333.772 243.11 334.62 242.284 334.62C241.457 334.62 240.787 333.772 240.787 332.725C240.787 331.678 241.457 330.83 242.284 330.83C243.11 330.83 243.78 331.678 243.78 332.725Z" stroke="white" stroke-width="0.398991"/>
<path d="M249.76 334.636C249.679 335.68 248.946 336.474 248.122 336.41C247.298 336.346 246.696 335.448 246.777 334.405C246.858 333.361 247.591 332.567 248.415 332.631C249.239 332.695 249.841 333.593 249.76 334.636Z" stroke="white" stroke-width="0.398991"/>
<path d="M254.765 336.62C254.637 337.659 253.957 338.429 253.246 338.342C252.535 338.254 252.063 337.34 252.192 336.302C252.32 335.263 253 334.492 253.711 334.58C254.422 334.668 254.894 335.581 254.765 336.62Z" stroke="white" stroke-width="0.398991"/>
<path d="M258.844 338.942C258.552 339.948 257.887 340.638 257.358 340.485C256.829 340.332 256.636 339.392 256.928 338.387C257.219 337.382 257.884 336.691 258.413 336.844C258.942 336.998 259.135 337.937 258.844 338.942Z" stroke="white" stroke-width="0.398991"/>
<path d="M262.334 341.421C261.927 342.462 261.182 343.144 260.668 342.943C260.155 342.743 260.069 341.736 260.476 340.695C260.882 339.654 261.628 338.972 262.141 339.172C262.654 339.373 262.741 340.379 262.334 341.421Z" stroke="white" stroke-width="0.398991"/>
<path d="M265.08 344.606C264.354 345.539 263.444 346.046 263.049 345.738C262.653 345.43 262.922 344.424 263.648 343.491C264.374 342.558 265.284 342.052 265.679 342.359C266.075 342.667 265.806 343.673 265.08 344.606Z" stroke="white" stroke-width="0.398991"/>
<path d="M266.581 348.416C265.485 349.135 264.402 349.423 264.163 349.058C263.923 348.693 264.618 347.814 265.714 347.095C266.81 346.375 267.893 346.088 268.132 346.452C268.372 346.817 267.677 347.696 266.581 348.416Z" stroke="white" stroke-width="0.398991"/>
<path d="M326.98 363.73C324.386 361.835 325.291 360.216 329.274 358.842L358.32 350.306M504.489 308.361L453.814 323.313" stroke="white" stroke-width="0.997477"/>
<path d="M493.319 257.814L442.572 271.568M330.164 301.645L352.353 295.562" stroke="white" stroke-width="0.997477"/>
<path d="M493.319 254.783L436.871 269.948M330.164 298.614L359.982 290.603" stroke="white" stroke-width="0.398991"/>
<path d="M465.026 453.519L497.428 466.984C501.275 468.583 505.596 468.614 509.466 467.07L542.43 453.921L548.611 451.252C563.507 444.82 573.153 430.147 573.153 413.922V350.184C573.153 334.025 565.572 326.826 555.098 329.632C549.213 331.209 265.752 425.272 261.84 426.555C244.573 432.216 232.016 449.422 232.016 469.768V547.731C232.016 562.746 246.757 573.327 260.983 568.521L261.84 568.232L323.127 542.62C324.612 542 325.579 540.548 325.579 538.939V535.974C325.579 534.709 324.875 533.549 323.752 532.965L320.592 531.322" stroke="white" stroke-width="2.59344"/>
<path d="M238.992 504.092H241.087C241.087 497.442 241.087 487.594 241.087 479.454C241.087 471.315 237.795 442.249 271.011 431.177C296.836 422.568 549.207 337.513 552.898 336.217C556.589 334.92 560.379 334.621 561.476 335.419" stroke="white" stroke-width="0.398991"/>
<path d="M326.572 352.825L328.185 352.393C329.058 352.159 329.664 351.369 329.664 350.466V185.398C329.664 175.941 323.605 167.547 314.628 164.569L225.764 135.094C222.353 133.963 219.946 130.907 219.644 127.326L214.42 65.0519C214.271 63.2805 215.516 61.6949 217.272 61.4182L236.579 58.3762C238.31 58.1048 240.016 58.9951 240.784 60.5708L252.581 85.789C253.75 88.1871 256.364 89.5227 258.992 89.0638L469.761 52.2566C470.798 52.0755 471.797 52.731 472.044 53.754L489.86 127.624C491.781 135.588 492.751 143.753 492.751 151.946V295.487C492.751 300.582 495.977 305.119 500.789 306.793L563.572 328.934" stroke="white" stroke-width="1.19697"/>
<path d="M96.3594 38.5684L215.259 62.3083" stroke="white" stroke-width="1.19697"/>
<path d="M191.018 132.133L159.348 123.975C158.717 123.813 158.102 124.289 158.102 124.941V139.224C158.102 141.04 159.328 142.627 161.085 143.085L187.505 149.97C189.818 150.573 192.236 150.648 194.582 150.191L229.421 143.404L191.018 132.133Z" stroke="white" stroke-width="1.19697"/>
<path d="M222.535 133.628L91.9404 102.47C89.1722 101.81 87.3431 99.1735 87.6934 96.3492L94.4372 41.9714C94.7453 39.4873 96.6683 37.5114 99.1432 37.1361L119.297 34.0801L238.173 58.4438" stroke="white" stroke-width="1.19697"/>
<path d="M84.8626 313.641C54.6794 321.485 24.867 329.242 23.8428 329.567C10.4362 333.828 0.601562 347.829 0.601562 364.444L0.671039 420.859C0.6896 435.931 9.19906 449.706 22.6683 456.468L244.485 567.83M130.248 301.771C177.133 289.617 196.256 284.846 197.902 284.846" stroke="white" stroke-width="1.19697"/>
<path d="M238.592 505.481V470.206C238.592 451.878 249.901 436.379 265.453 431.28C268.976 430.124 550.611 335.054 554.892 334.022C562.173 332.267 568.158 334.716 568.158 349.678V381.694L238.592 505.481ZM238.592 505.481V533.103M324.674 534.814L260.502 561.102C250.001 565.403 238.492 557.681 238.492 546.333V533.103M566.106 382.666V411.346C566.106 426.769 556.762 440.653 542.475 446.46L506.846 460.943C504.398 461.938 501.655 461.921 499.22 460.896L474.096 450.321" stroke="white" stroke-width="1.19697"/>
<path d="M239.094 517.458L243.261 519.456C245.248 520.409 247.541 520.497 249.595 519.701L300.538 499.956M557.089 385.891V397.993C557.089 400.492 555.536 402.728 553.195 403.601L520.083 415.943M300.538 499.956L302.565 499.17C302.68 499.125 302.796 499.084 302.912 499.047M300.538 499.956L302.912 499.047M520.083 415.943L519.889 416.017M520.083 415.943C520.018 415.967 519.953 415.992 519.889 416.017M302.912 499.047L519.889 416.017M302.912 499.047C306.733 497.822 310.713 500.668 310.713 504.75V529.938C310.713 532.755 313.554 534.685 316.173 533.647L318.828 532.594C320.677 531.862 322.041 530.258 322.468 528.316L325.697 513.631C326.556 509.727 329.306 506.509 333.029 505.054L487.339 444.724C490.314 443.561 493.677 444.939 494.982 447.855L500.047 459.18C500.876 461.034 503.019 461.905 504.906 461.156L506.349 460.582C507.863 459.981 508.92 458.59 509.093 456.97L512.42 425.812C512.891 421.405 515.774 417.633 519.889 416.017" stroke="white" stroke-width="1.79546"/>
<path d="M312.809 533.717L264.93 514.166" stroke="white" stroke-width="1.79546"/>
<path d="M232.01 468.183L0.695312 364.645" stroke="white" stroke-width="1.79546"/>
<path d="M327.573 177.218L219.945 145.398" stroke="white" stroke-width="1.79546"/>
<path d="M157.901 125.45L91.0703 102.408" stroke="white" stroke-width="1.19697"/>
<path d="M292.062 485.538V488.561C292.062 489.122 292.626 489.508 293.15 489.305L310.805 482.444C311.112 482.324 311.314 482.029 311.314 481.7V478.156M351.712 463.493V466.517C351.712 467.078 352.276 467.464 352.799 467.26L370.454 460.399C370.761 460.28 370.963 459.985 370.963 459.656V456.112M407.77 442.746V445.769C407.77 446.33 408.334 446.716 408.857 446.513L426.512 439.652C426.819 439.533 427.021 439.237 427.021 438.908V435.364M459.439 422.996V426.019C459.439 426.58 460.003 426.966 460.526 426.763L478.181 419.902C478.488 419.783 478.69 419.487 478.69 419.158V415.614M508.914 403.844V406.867C508.914 407.429 509.478 407.814 510.001 407.611L527.656 400.75C527.963 400.631 528.165 400.336 528.165 400.007V396.463" stroke="white" stroke-width="1.19697"/>
<path fill-rule="evenodd" clip-rule="evenodd" d="M194.942 339.564C226.411 339.565 252.663 346.054 258.704 354.678C250.521 362.334 225.072 367.919 194.942 367.919C164.813 367.919 139.363 362.335 131.18 354.679C137.22 346.055 163.472 339.564 194.942 339.564Z" fill="#713ADA" fill-opacity="0.1"/>
<path d="M237.731 51.5144L473.527 17.6541M473.527 17.6541V47.8347C473.527 49.5317 472.806 51.149 471.544 52.284L471.303 52.5015M473.527 17.6541L435.053 12.7096M119.461 28.4522L330.506 0.76753C332.157 0.550966 333.828 0.541936 335.482 0.740652L372.322 5.16905M202.156 44.248L435.053 12.7096M435.053 12.7096L372.322 5.16905M155.082 35.2856L372.322 5.16905" stroke="white" stroke-width="1.19697"/>
<path d="M119.398 34.0921V28.8298C119.398 28.5788 119.627 28.3902 119.874 28.4381L237.517 51.314V58.1723" stroke="white" stroke-width="1.19697"/>
<path d="M191.848 132.475L158.745 123.942C158.481 128.035 157.953 136.606 157.953 138.146C157.953 140.071 158.745 142.48 161.54 143.068C164.335 143.657 178.165 146.746 182.432 148.659C185.845 150.189 190.132 150.375 191.848 150.277V132.475Z" fill="#D9D9D9" fill-opacity="0.07"/>
<path d="M215.268 62.4199L96.2274 38.609C95.6976 39.2661 94.6216 40.7369 94.5556 41.3643C94.473 42.1486 87.4752 95.1826 87.4752 95.4296C87.4752 95.6767 87.6164 98.2881 87.9693 99.2762C88.2516 100.067 89.6531 101.254 90.3186 101.749L220.833 133.216H222.376C221.55 131.862 219.866 128.813 219.736 127.449C219.573 125.743 214.496 67.1314 214.334 65.263C214.204 63.7682 214.902 62.7448 215.268 62.4199Z" fill="#D9D9D9" fill-opacity="0.07"/>
<path d="M328.122 177.326L220.833 145.041L197.978 149.581L197.593 296.229V306.94L327.252 352.204C327.609 352.204 328.424 352.129 328.827 351.826L328.891 351.779C329.363 351.426 329.71 351.167 329.71 350.503V304.633C329.5 268.928 329.205 196.019 329.71 190.021C330.214 184.022 328.861 179.058 328.122 177.326Z" fill="#D9D9D9" fill-opacity="0.07"/>
<path d="M231.964 468.165L0.680892 364.906L0.15625 404.544C0.399941 411.794 0.680892 427.025 0.680892 427.025C0.680892 427.025 191.614 518.803 231.964 538.169V468.165Z" fill="#D9D9D9" fill-opacity="0.07"/>
<path d="M76.6805 322.95C75.4402 321.779 75.3598 320.165 75.4747 319.505C74.7856 319.505 71.771 324.845 71.5126 326.568C71.2542 328.29 73.1491 330.702 74.4411 331.736C75.7331 332.769 78.92 334.061 79.3506 335.525C79.6951 336.697 78.1735 338.081 77.3696 338.626C77.5705 338.77 78.8855 338.609 82.5375 336.817C87.1025 334.578 86.6719 333.114 87.0164 331.736C87.3609 330.357 85.5521 328.376 83.5711 327.171C81.5901 325.965 78.2309 324.414 76.6805 322.95Z" fill="#D9D9D9" fill-opacity="0.07"/>
<path d="M291.169 405.613L289.532 395.791C285.725 396.07 277.485 396.628 274.981 396.628H262.744L262.269 407.632C263.758 407.822 268.15 408.202 273.807 408.202C279.464 408.202 287.739 406.476 291.169 405.613Z" fill="#D9D9D9" fill-opacity="0.07"/>
<path d="M249.087 406.131L251.191 394.263L246.057 392.664C245.019 395.638 242.825 402.04 242.354 403.858C243.296 404.464 247.235 405.626 249.087 406.131Z" fill="#D9D9D9" fill-opacity="0.07"/>
<path d="M187.612 407.219L191.366 392.664L189.015 392.057L71.401 342.332L70.509 341.366L69.0225 342.852C67.3253 346.172 63.8864 353.02 63.708 353.853C63.5296 354.685 64.4265 355.29 64.8972 355.488C102.66 371.596 178.779 404.077 181.151 405.139C183.523 406.201 186.447 406.968 187.612 407.219Z" fill="#D9D9D9" fill-opacity="0.07"/>
<path d="M119.58 34.4502V28.4746L237.539 51.2995V58.2182L236.907 58.3525L119.58 34.4502Z" fill="#D9D9D9" fill-opacity="0.07"/>
<path d="M237.464 447.103C239.531 441.472 240.72 441.702 242.354 440.187L8.4437 340.661C7.0138 342.251 5.39848 344.052 4.5209 346.677C3.64333 349.301 2.42508 352.487 1.6184 355.488L233.587 457.145C233.884 455.453 235.397 452.734 237.464 447.103Z" fill="#D9D9D9" fill-opacity="0.07"/>
<path d="M436.653 273.335H436.154V273.998L436.791 273.814L436.653 273.335ZM358.004 293.854L358.13 294.336V294.336L358.004 293.854ZM443.28 271.424L443.418 271.903V271.903L443.28 271.424ZM351.328 297.752H350.829L350.829 297.752L351.328 297.752ZM353.417 295.049L353.291 294.566V294.566L353.417 295.049ZM353.614 343.873L353.478 343.393V343.393L353.614 343.873ZM351.375 344.526L350.876 344.527C350.877 344.684 350.951 344.832 351.078 344.926C351.204 345.02 351.367 345.049 351.518 345.004L351.375 344.526ZM443.543 318.323L443.407 317.844L443.543 318.323ZM445.573 317.725L445.721 318.202L446.072 318.093V317.725H445.573ZM434.419 261.577L434.541 262.06L434.419 261.577ZM362.203 279.77L362.082 279.286L362.203 279.77ZM362.203 279.77L362.325 280.253L434.541 262.06L434.419 261.577L434.297 261.093L362.082 279.286L362.203 279.77ZM443.543 318.323L443.407 317.844L353.478 343.393L353.614 343.873L353.751 344.353L443.68 318.803L443.543 318.323ZM351.375 344.526L351.874 344.526L351.827 297.751L351.328 297.752L350.829 297.752L350.876 344.527L351.375 344.526ZM445.573 273.149H445.074V317.725H445.573H446.072V273.149H445.573ZM436.653 263.318H436.154V273.335H436.653H437.152V263.318H436.653ZM436.653 273.335L436.791 273.814L443.418 271.903L443.28 271.424L443.142 270.944L436.515 272.856L436.653 273.335ZM353.417 295.049L353.543 295.531L358.13 294.336L358.004 293.854L357.878 293.371L353.291 294.566L353.417 295.049ZM360.093 291.151H360.592V282.478H360.093H359.594V291.151H360.093ZM358.004 293.854L358.13 294.336C359.58 293.959 360.592 292.649 360.592 291.151H360.093H359.594C359.594 292.195 358.889 293.108 357.878 293.371L358.004 293.854ZM445.573 273.149H446.072C446.072 271.622 444.609 270.522 443.142 270.944L443.28 271.424L443.418 271.903C444.247 271.664 445.074 272.286 445.074 273.149H445.573ZM351.328 297.752H351.827C351.827 296.707 352.532 295.795 353.543 295.531L353.417 295.049L353.291 294.566C351.841 294.944 350.829 296.253 350.829 297.752H351.328ZM353.614 343.873L353.478 343.393C352.903 343.557 352.341 343.721 351.924 343.843C351.715 343.905 351.542 343.956 351.422 343.992C351.361 344.01 351.314 344.024 351.282 344.033C351.266 344.038 351.253 344.042 351.245 344.044C351.241 344.046 351.238 344.047 351.235 344.047C351.234 344.048 351.233 344.048 351.233 344.048C351.233 344.048 351.232 344.048 351.232 344.048C351.232 344.048 351.232 344.048 351.232 344.048C351.232 344.048 351.232 344.048 351.232 344.048C351.232 344.048 351.232 344.048 351.375 344.526C351.518 345.004 351.518 345.004 351.518 345.004C351.518 345.004 351.518 345.004 351.518 345.004C351.518 345.004 351.518 345.004 351.518 345.004C351.518 345.004 351.519 345.004 351.519 345.004C351.519 345.003 351.52 345.003 351.521 345.003C351.523 345.002 351.526 345.001 351.531 345C351.539 344.998 351.551 344.994 351.567 344.989C351.599 344.98 351.646 344.966 351.706 344.948C351.826 344.912 351.998 344.861 352.206 344.8C352.621 344.678 353.179 344.515 353.751 344.353L353.614 343.873ZM443.543 318.323L443.68 318.803C444.283 318.632 444.792 318.482 445.151 318.374C445.331 318.32 445.473 318.277 445.57 318.248C445.619 318.233 445.656 318.221 445.682 318.214C445.694 318.21 445.704 318.207 445.711 318.205C445.714 318.204 445.716 318.203 445.718 318.202C445.719 318.202 445.719 318.202 445.72 318.202C445.72 318.202 445.72 318.202 445.72 318.202C445.72 318.202 445.721 318.202 445.721 318.202C445.721 318.202 445.721 318.202 445.721 318.202C445.721 318.202 445.721 318.202 445.573 317.725C445.425 317.249 445.425 317.249 445.425 317.249C445.425 317.249 445.425 317.249 445.425 317.249C445.425 317.249 445.425 317.249 445.425 317.249C445.425 317.249 445.425 317.249 445.425 317.249C445.424 317.249 445.424 317.249 445.423 317.25C445.421 317.25 445.419 317.251 445.416 317.252C445.41 317.254 445.401 317.256 445.388 317.26C445.364 317.268 445.327 317.279 445.279 317.294C445.183 317.323 445.043 317.365 444.865 317.419C444.51 317.525 444.005 317.674 443.407 317.844L443.543 318.323ZM434.419 261.577L434.541 262.06C435.36 261.854 436.154 262.473 436.154 263.318H436.653H437.152C437.152 261.824 435.746 260.728 434.297 261.093L434.419 261.577ZM362.203 279.77L362.082 279.286C360.619 279.655 359.594 280.97 359.594 282.478H360.093H360.592C360.592 281.427 361.306 280.51 362.325 280.253L362.203 279.77Z" fill="white"/>
<path d="M362.703 341.398V282.991C362.703 282.534 363.013 282.136 363.456 282.024L436.462 263.557V320.562" stroke="white" stroke-width="0.398991"/>
<path d="M351.477 344.403L356.62 346.878C359.712 348.366 363.245 348.663 366.542 347.713L452.888 322.828C453.601 322.623 453.672 321.64 452.996 321.334L445.371 317.891" stroke="white" stroke-width="0.997477"/>
<path d="M453.748 321.836V324.321C453.748 324.676 453.513 324.988 453.172 325.087L366.565 350.204C363.256 351.164 359.708 350.866 356.605 349.369L352.342 347.311C351.584 346.945 351.102 346.177 351.102 345.335V344.088" stroke="white" stroke-width="0.398991"/>
<defs>
<linearGradient id="paint0_linear_4961_119024" x1="396.543" y1="473.401" x2="413.463" y2="508.706" gradientUnits="userSpaceOnUse">
<stop/>
<stop offset="1" stop-opacity="0"/>
</linearGradient>
</defs>
</svg>
