<svg width="24" height="24" viewBox="0 0 24 24" fill="none" xmlns="http://www.w3.org/2000/svg">
<path d="M7.63483 7.36517C7.28336 7.01369 6.71287 7.01369 6.3614 7.36517L2.3614 11.3652C2.00992 11.7166 2.00992 12.2871 2.3614 12.6386C2.71287 12.9901 3.28336 12.9901 3.63483 12.6386L7.63483 8.6386C7.98631 8.28713 7.98631 7.71664 7.63483 7.36517Z" fill="white"/>
<path d="M3.63483 11.3652C3.28336 11.0137 2.71287 11.0137 2.3614 11.3652C2.00992 11.7166 2.00992 12.2871 2.3614 12.6386L6.3614 16.6386C6.71287 16.9901 7.28336 16.9901 7.63483 16.6386C7.98631 16.2871 7.98631 15.7166 7.63483 15.3652L3.63483 11.3652Z" fill="white"/>
<path d="M3.49805 11.1016C3.00099 11.1016 2.59766 11.5049 2.59766 12.002C2.59766 12.499 3.00099 12.9023 3.49805 12.9023H13.998C14.4951 12.9023 14.8984 12.499 14.8984 12.002C14.8984 11.5049 14.4951 11.1016 13.998 11.1016H3.49805Z" fill="white"/>
<path d="M19.1016 17.002V7.00195C19.1016 5.28987 17.714 3.90234 16.002 3.90234H12.002C11.5049 3.90234 11.1016 3.49901 11.1016 3.00195C11.1016 2.5049 11.5049 2.10156 12.002 2.10156H16.002C18.7081 2.10156 20.9023 4.29576 20.9023 7.00195V17.002C20.9023 19.7081 18.7081 21.9023 16.002 21.9023H12.002C11.5049 21.9023 11.1016 21.499 11.1016 21.002C11.1016 20.5049 11.5049 20.1016 12.002 20.1016H16.002C17.714 20.1016 19.1016 18.714 19.1016 17.002Z" fill="white"/>
</svg>
