<svg viewBox="0 0 22 22" fill="none" xmlns="http://www.w3.org/2000/svg">
<path d="M11.1211 0.917969C13.324 0.924534 15.4683 1.63054 17.2441 2.93457C19.2262 4.35692 20.5505 6.28262 20.958 8.78125C21.3133 10.7862 20.9088 12.8521 19.8242 14.5752C18.3302 16.9995 16.1549 18.4325 13.4746 19.0693C12.0532 19.3997 10.5802 19.4441 9.1416 19.1992C8.95337 19.1683 8.76009 19.1981 8.58984 19.2842C7.09579 19.9911 5.57141 20.6106 3.95215 20.9248C3.10348 21.127 2.21997 21.1363 1.36719 20.9521C1.03225 20.8672 0.975301 20.7568 1.21289 20.4873C1.45048 20.2178 1.71971 19.9737 1.99121 19.7275C2.54724 19.2117 3.10827 18.689 3.47754 17.999C3.63019 17.7147 3.73619 17.4046 3.86133 17.1055C3.9018 17.0118 3.91248 16.9075 3.8916 16.8076C3.87066 16.7078 3.81877 16.6164 3.74414 16.5469C3.33072 16.1159 2.94054 15.6629 2.5752 15.1904C1.35466 13.5508 0.775464 11.5214 0.947266 9.48438C1.1112 7.34193 2.06776 5.33711 3.62988 3.8623C5.23632 2.29044 7.31743 1.29408 9.54883 1.02832C10.0602 0.956161 10.597 0.954042 11.1211 0.917969ZM10.8418 13.2568C10.5643 13.2569 10.3266 13.3306 10.1289 13.4775C9.93495 13.6246 9.83792 13.8804 9.83789 14.2441C9.83789 14.5925 9.93494 14.8442 10.1289 14.999C10.3266 15.1538 10.5642 15.2314 10.8418 15.2314C11.1119 15.2314 11.3441 15.1539 11.5381 14.999C11.7359 14.8442 11.835 14.5925 11.835 14.2441C11.8349 13.8804 11.7359 13.6246 11.5381 13.4775C11.3441 13.3305 11.1118 13.2568 10.8418 13.2568ZM11.1787 6.46387C10.65 6.46387 10.1628 6.53151 9.71777 6.66699C9.27283 6.7986 8.85979 6.97272 8.47949 7.18945L9.10156 8.46094C9.43238 8.29067 9.75773 8.15333 10.0771 8.04883C10.4003 7.94436 10.7258 7.89165 11.0527 7.8916C11.3798 7.8916 11.6348 7.95826 11.8174 8.08984C11.9999 8.22142 12.0917 8.41256 12.0918 8.66406C12.0918 8.83434 12.0577 8.98759 11.9893 9.12305C11.9246 9.25466 11.8193 9.38795 11.6748 9.52344C11.5341 9.6589 11.3461 9.81213 11.1104 9.98242C10.8479 10.176 10.6363 10.366 10.4766 10.5518C10.317 10.7335 10.2011 10.9269 10.1289 11.1318C10.0566 11.3331 10.0205 11.5659 10.0205 11.8291V12.2588H11.5322V11.9102C11.5322 11.7476 11.5539 11.6103 11.5957 11.498C11.6413 11.3819 11.725 11.2655 11.8467 11.1494C11.9684 11.0333 12.143 10.8899 12.3711 10.7197C12.6754 10.4952 12.9283 10.2823 13.1299 10.0811C13.3353 9.87589 13.488 9.65508 13.5869 9.41895C13.6895 9.17901 13.7402 8.89631 13.7402 8.57129C13.7402 7.95972 13.5162 7.45634 13.0674 7.06152C12.6223 6.66284 11.9927 6.46387 11.1787 6.46387Z" fill="white"/>
</svg>
