<svg width="788" height="657" viewBox="0 0 788 657" fill="none" xmlns="http://www.w3.org/2000/svg">
<path d="M454.901 507.343L402.866 524.773L270.416 372.868C268.183 370.307 264.665 369.277 261.403 370.23L136.023 406.86L93.7278 355.85C93.0443 355.166 91.831 353.338 92.4462 351.492C93.2152 349.185 95.5226 347.391 99.1112 346.109C102.7 344.827 262.139 300.482 263.164 300.225C264.19 299.969 267.264 299.456 268.803 300.225C269.401 300.396 270.957 301.148 272.392 302.789C274.186 304.839 454.388 499.14 457.208 502.216C459.464 504.677 456.61 506.659 454.901 507.343Z" fill="#D9D9D9" fill-opacity="0.07"/>
<path d="M325.453 350.98L437.091 318.664C440.302 317.735 443.761 318.723 445.996 321.209L576.916 466.843C581.326 465.326 616.085 453.826 628.73 449.644C630.868 448.938 631.562 446.28 630.014 444.646C597.457 410.283 468.997 275.965 447.463 253.451C445.512 251.412 442.696 250.704 439.974 251.448L279.519 295.275C277.669 295.78 277.009 298.064 278.304 299.478L325.453 350.98Z" fill="#D9D9D9" fill-opacity="0.07"/>
<path d="M499.247 300.483L579.417 276.966C589.21 274.093 599.786 276.95 606.801 284.363L730.972 415.576L776.013 400.074C780.667 398.472 782.038 392.551 778.563 389.066L609.26 219.302C602.101 212.124 591.639 209.341 581.86 212.014L453.656 247.06C451.785 247.571 451.138 249.894 452.474 251.299L499.247 300.483Z" fill="#D2B2FF" fill-opacity="0.4"/>
<path d="M610.496 212.824C606.726 208.876 598.73 206.152 589.476 206.152C585.798 206.152 582.318 206.582 579.223 207.349L99.1598 341.239C90.5702 343.688 84.7566 348.395 84.7566 353.8C84.7566 355.703 85.4778 357.52 86.7876 359.183L251.117 557.887C255.987 564.164 268.038 568.607 282.133 568.607C289.07 568.607 295.511 567.531 300.845 565.69L774.549 406.202C781.859 403.447 786.597 399.027 786.597 394.044C786.597 391.753 785.595 389.581 783.803 387.636L610.496 212.824Z" stroke="white" stroke-width="1.538"/>
<path d="M786.34 396.095L776.861 464.513C776.393 474.914 769.68 483.998 759.876 487.5L293.245 653.439C276.528 659.41 257.866 653.948 247.006 639.905L97.8756 448.486C94.3335 443.906 92.2056 438.391 91.7532 432.618L84.7566 354.312" stroke="white" stroke-width="1.538"/>
<path d="M304.434 557.328C312.842 554.662 373.729 534.344 403.122 524.517L266.497 368.411L135.51 406.861C171.739 450.694 246.451 541.128 255.474 552.201C266.753 566.043 293.924 560.66 304.434 557.328Z" fill="#D9D9D9" fill-opacity="0.07"/>
<path d="M471.084 502.041L577.172 466.843L445.744 321.199C443.506 318.719 440.048 317.736 436.84 318.669L325.71 350.98L463.553 500.101C465.465 502.17 468.41 502.928 471.084 502.041Z" fill="#D9D9D9" fill-opacity="0.07"/>
<path d="M325.71 351.237L437.273 318.525C439.003 318.017 440.803 318.037 442.466 318.525M577.172 466.587L446.738 321.217C445.569 319.914 444.082 318.998 442.466 318.525M443.623 251.779L442.466 318.525" stroke="white" stroke-width="1.02533"/>
<path d="M135.767 406.348L260.916 369.791C262.646 369.284 264.445 369.303 266.109 369.791M403.122 524.261L270.381 372.483C269.211 371.18 267.724 370.265 266.109 369.791M267.522 300.226L266.109 369.791" stroke="white" stroke-width="1.02533"/>
<path d="M499.503 300.738C523.428 293.646 573.122 278.95 580.505 276.899C583.917 275.951 587.434 275.704 590.758 276.016M730.716 415.832C690.301 372.768 608.496 285.666 604.6 281.769C601.53 278.7 596.424 276.547 590.758 276.016M594.859 212.047L590.758 276.016" stroke="white" stroke-width="1.02533"/>
<path d="M295.719 567.582L291.361 653.966" stroke="white" stroke-width="1.02533"/>
<path d="M250.348 557.328L249.066 642.174" stroke="white" stroke-width="1.02533"/>
<path d="M774.549 406.348L764.039 485.811" stroke="white" stroke-width="1.02533"/>
<path d="M382.458 359.785L375.838 352.169L379.222 351.135C381.614 350.404 383.407 350.724 384.647 352.151C385.402 353.02 385.24 353.802 384.214 354.265C385.717 353.955 387.087 354.364 387.964 355.373C389.176 356.767 388.615 357.902 386.386 358.584L382.458 359.785ZM383.021 358.295L385.495 357.539C386.705 357.169 387.071 356.542 386.418 355.791C385.756 355.029 384.672 354.831 383.462 355.201L380.989 355.957L383.021 358.295ZM380.131 354.971L382.102 354.368C383.393 353.973 383.791 353.363 383.176 352.655C382.532 351.915 381.513 351.751 380.181 352.159L378.211 352.761L380.131 354.971Z" fill="white"/>
<path d="M386.414 351.38L387.732 350.977L388.706 352.037C388.33 351.229 388.575 350.719 389.499 350.437L390.192 350.225L391.003 351.158L390.297 351.374C389.169 351.719 389.095 352.366 389.915 353.31L392.796 356.624L391.356 357.064L386.414 351.38Z" fill="white"/>
<path d="M399.165 354.84C397.086 355.475 394.72 354.732 393.144 352.92C391.569 351.107 391.921 349.533 394 348.898C396.066 348.266 398.432 349.009 400.007 350.822C401.583 352.634 401.231 354.208 399.165 354.84ZM394.639 352.463C395.721 353.707 397.084 354.227 398.307 353.853C399.531 353.479 399.594 352.523 398.512 351.279C397.431 350.034 396.081 349.51 394.858 349.884C393.635 350.258 393.558 351.219 394.639 352.463Z" fill="white"/>
<path d="M397.11 345.666L398.55 345.226L402.671 349.966L403.422 346.18L405.284 345.611L404.527 348.856L410.348 351.258L408.677 351.769L404.187 349.87L403.865 351.339L405.17 352.841L403.73 353.281L397.11 345.666Z" fill="white"/>
<path d="M408.066 348.358C406.5 346.556 406.829 344.975 408.922 344.336C410.648 343.808 412.895 344.275 414.716 346.271L415.046 346.631L409.868 348.214C410.886 349.247 412.12 349.657 413.248 349.312C413.955 349.096 414.318 348.564 414.128 347.93L415.711 347.554C416.232 348.767 415.555 349.829 414.087 350.277C411.994 350.917 409.633 350.16 408.066 348.358ZM409.159 347.358L412.787 346.249C411.683 345.216 410.577 345.051 409.761 345.301C408.715 345.621 408.511 346.375 409.159 347.358Z" fill="white"/>
<path d="M413.551 343.083L414.869 342.68L415.74 343.622C415.445 342.749 416.008 342.169 416.986 341.87C418.603 341.376 420.225 342.034 421.307 343.278L424.486 346.935L423.045 347.376L420.174 344.072C419.297 343.064 418.428 342.638 417.422 342.945C416.375 343.265 416.185 344.016 417.061 345.024L419.933 348.327L418.492 348.768L413.551 343.083Z" fill="white"/>
<path d="M177.178 419.696C178.37 421.736 177.848 423.452 175.306 424.229C172.152 425.193 168.617 423.777 166.476 421.226C164.336 418.675 164.516 416.092 167.67 415.128C170.043 414.403 172.613 415.081 174.611 416.751L172.927 417.358C171.618 416.279 170.082 415.916 168.673 416.347C166.392 417.045 166.658 418.874 168.191 420.702C169.714 422.517 172.006 423.712 174.272 423.019C175.757 422.565 176.145 421.537 175.356 420.161L177.178 419.696Z" fill="white"/>
<path d="M184.638 421.314C182.295 422.031 179.652 421.174 177.913 419.101C176.174 417.028 176.593 415.236 178.936 414.519C181.263 413.808 183.906 414.664 185.645 416.737C187.385 418.81 186.965 420.603 184.638 421.314ZM179.597 418.586C180.791 420.009 182.313 420.607 183.691 420.186C185.069 419.765 185.155 418.675 183.961 417.252C182.767 415.829 181.261 415.227 179.883 415.648C178.505 416.069 178.404 417.164 179.597 418.586Z" fill="white"/>
<path d="M184.328 413.056L185.813 412.602L186.775 413.679C186.458 412.682 187.098 412.024 188.201 411.687C190.023 411.13 191.832 411.887 193.026 413.31L196.535 417.492L194.912 417.988L191.742 414.211C190.775 413.058 189.806 412.568 188.673 412.914C187.494 413.275 187.268 414.13 188.236 415.283L191.406 419.06L189.783 419.556L184.328 413.056Z" fill="white"/>
<path d="M192.334 408.759L193.957 408.263L195.192 409.734L197.336 409.079L198.221 410.134L196.077 410.789L199.082 414.371C199.525 414.898 200.073 415.07 200.7 414.878L201.879 414.517L202.775 415.584L201.427 415.996C199.866 416.474 198.478 416.081 197.459 414.867L194.454 411.286L193.214 411.665L192.329 410.61L193.569 410.231L192.334 408.759Z" fill="white"/>
<path d="M200.002 410.714C199.222 409.304 199.85 408.125 201.718 407.554C203.923 406.88 205.956 407.492 207.448 409.27L209.475 411.686C209.753 412.018 210.04 412.084 210.362 411.986L210.683 411.887L211.537 412.905L211.032 413.06C210.307 413.297 209.23 413.503 208.381 412.607C208.539 413.344 208.078 414.148 206.73 414.56C205.092 415.061 203.219 414.755 202.252 413.602C201.161 412.302 202.052 411.552 203.683 410.699L205.701 409.619C204.811 408.581 203.782 408.249 202.603 408.609C201.654 408.899 201.355 409.484 201.758 410.285L200.002 410.714ZM203.916 413.063C204.317 413.541 205.167 413.774 206.239 413.447C207.438 413.064 207.811 412.087 206.638 410.689L206.566 410.603L205.041 411.378C204.057 411.879 203.226 412.241 203.916 413.063Z" fill="white"/>
<path d="M207.31 406.03L208.795 405.575L209.721 406.633C209.471 405.739 209.927 405.044 211.015 404.712C212.178 404.356 213.432 404.589 214.505 405.34C214.141 404.357 214.582 403.621 215.807 403.247C217.445 402.746 219.166 403.329 220.494 404.912L224.003 409.094L222.38 409.59L219.211 405.813C218.243 404.66 217.213 404.189 216.294 404.47C215.131 404.825 215.033 405.672 215.98 406.8L219.15 410.578L217.619 411.046L214.449 407.269C213.502 406.14 212.436 405.649 211.532 405.925C210.384 406.276 210.271 407.128 211.218 408.256L214.388 412.034L212.765 412.53L207.31 406.03Z" fill="white"/>
<path d="M220.538 401.985L222.161 401.489L227.616 407.99L225.993 408.486L220.538 401.985ZM219.705 401.038L218.665 399.799L220.365 399.28L221.405 400.518L219.705 401.038Z" fill="white"/>
<path d="M223.943 400.945L225.428 400.49L226.39 401.568C226.072 400.571 226.713 399.913 227.815 399.576C229.637 399.019 231.446 399.776 232.64 401.198L236.15 405.381L234.527 405.877L231.357 402.099C230.389 400.946 229.42 400.457 228.287 400.803C227.108 401.163 226.883 402.018 227.85 403.171L231.02 406.949L229.397 407.445L223.943 400.945Z" fill="white"/>
<path d="M233.805 400.38C233.025 398.969 233.653 397.791 235.521 397.22C237.726 396.546 239.759 397.157 241.251 398.936L243.278 401.352C243.556 401.683 243.843 401.749 244.164 401.651L244.486 401.553L245.34 402.571L244.835 402.725C244.11 402.962 243.033 403.168 242.184 402.272C242.342 403.01 241.881 403.813 240.533 404.225C238.895 404.726 237.022 404.42 236.055 403.267C234.964 401.967 235.854 401.217 237.486 400.364L239.504 399.285C238.614 398.247 237.585 397.914 236.406 398.275C235.457 398.565 235.158 399.149 235.561 399.951L233.805 400.38ZM237.719 402.728C238.12 403.206 238.97 403.44 240.042 403.112C241.241 402.73 241.614 401.753 240.441 400.355L240.369 400.269L238.844 401.043C237.86 401.544 237.029 401.906 237.719 402.728Z" fill="white"/>
<path d="M240.123 394.148L241.746 393.652L242.981 395.124L245.124 394.469L246.009 395.523L243.866 396.179L246.871 399.76C247.313 400.288 247.861 400.459 248.489 400.267L249.668 399.907L250.563 400.974L249.216 401.386C247.654 401.863 246.267 401.471 245.248 400.257L242.243 396.675L241.002 397.054L240.117 395.999L241.358 395.62L240.123 394.148Z" fill="white"/>
<path d="M248.534 397.51C246.805 395.45 247.199 393.649 249.557 392.928C251.502 392.334 254.015 392.876 256.027 395.158L256.392 395.57L250.558 397.354C251.684 398.535 253.062 399.008 254.333 398.619C255.129 398.376 255.545 397.771 255.342 397.047L257.123 396.626C257.688 398.01 256.913 399.218 255.259 399.723C252.901 400.444 250.263 399.571 248.534 397.51ZM249.776 396.376L253.864 395.126C252.641 393.943 251.402 393.751 250.484 394.032C249.305 394.393 249.064 395.252 249.776 396.376Z" fill="white"/>
<path d="M260.066 387.126L267.373 395.835L265.857 396.298L265.029 395.38C265.125 396.183 264.526 396.89 263.408 397.232C261.295 397.878 258.877 396.968 257.128 394.883C255.378 392.798 255.594 391.083 257.707 390.437C258.763 390.114 260.042 390.216 261.026 390.701L258.443 387.623L260.066 387.126ZM258.812 394.368C259.985 395.766 261.584 396.387 262.885 395.989C264.217 395.582 264.318 394.442 263.145 393.043C261.951 391.621 260.358 390.983 259.026 391.39C257.709 391.792 257.618 392.945 258.812 394.368Z" fill="white"/>
<path d="M580.245 277.084C590.01 274.294 600.516 277.183 607.482 284.572L730.973 415.576L642.987 444.416C640.363 445.276 637.478 444.555 635.568 442.561L499.247 300.227L580.245 277.084ZM520.876 311.633L527.764 319.02L529.234 318.57L522.345 311.184L520.876 311.633ZM533.649 312.661C532.523 311.455 530.869 310.824 529.25 311.319C528.271 311.619 527.719 312.188 528.04 313.039L527.136 312.126L525.816 312.529L530.958 318.043L532.4 317.603L529.412 314.398C528.5 313.421 528.672 312.686 529.719 312.365C530.726 312.057 531.616 312.467 532.528 313.445L535.515 316.65L536.957 316.209L533.649 312.661ZM541.321 310.196C539.976 309.016 537.893 308.676 536.287 309.167C534.193 309.808 533.904 311.354 535.533 313.102C537.163 314.849 539.567 315.571 541.662 314.931C543.322 314.423 543.922 313.211 542.937 311.854L541.368 312.254C541.936 313.069 541.627 313.712 540.77 313.974C539.545 314.348 538.155 313.85 537.03 312.644C535.905 311.437 535.956 310.498 537.18 310.124C537.996 309.874 539.082 310.065 539.882 310.716L541.321 310.196ZM549.865 308.72C548.226 306.961 545.817 306.254 543.749 306.886C541.668 307.522 541.356 309.062 542.995 310.82C544.635 312.578 547.043 313.286 549.124 312.649C551.192 312.017 551.505 310.478 549.865 308.72ZM544.642 307.843C545.866 307.468 547.243 307.971 548.368 309.178C549.494 310.384 549.456 311.318 548.232 311.692C547.007 312.067 545.617 311.569 544.491 310.362C543.366 309.156 543.418 308.217 544.642 307.843ZM560.365 304.493C559.114 303.151 557.545 302.668 556.089 303.113C555.001 303.446 554.631 304.081 554.993 304.919C554.001 304.286 552.865 304.099 551.831 304.415C550.865 304.71 550.48 305.31 550.738 306.073L549.866 305.177L548.547 305.58L553.689 311.094L555.13 310.653L552.143 307.448C551.25 306.491 551.321 305.761 552.341 305.449C553.144 305.204 554.12 305.614 555.013 306.571L558.001 309.775L559.362 309.359L556.373 306.155C555.481 305.198 555.538 304.472 556.572 304.156C557.388 303.907 558.332 304.3 559.243 305.277L562.232 308.482L563.674 308.041L560.365 304.493ZM569.297 302.778C567.852 301.228 565.616 300.2 563.508 300.845C562.474 301.161 562.024 301.728 562.201 302.462L561.394 301.652L560.047 302.063L566.644 309.139L568.086 308.697L565.913 306.367C566.865 306.825 567.904 306.908 568.883 306.608C570.992 305.964 570.743 304.328 569.297 302.778ZM564.051 301.896C565.398 301.484 566.856 302.242 567.787 303.24C568.728 304.249 569.02 305.35 567.66 305.766C566.327 306.173 564.859 305.405 563.938 304.417C563.016 303.429 562.718 302.303 564.051 301.896ZM576.049 300.02C574.642 298.511 572.791 298.008 570.832 298.606C569.173 299.114 568.65 300.129 569.403 301.329L570.967 300.944C570.576 300.262 570.823 299.759 571.666 299.501C572.714 299.181 573.652 299.456 574.49 300.336L572.713 301.279C571.277 302.026 570.503 302.677 571.531 303.78C572.443 304.758 574.139 305.002 575.595 304.557C576.792 304.191 577.177 303.498 577.009 302.868C577.804 303.627 578.766 303.44 579.409 303.23L579.859 303.093L579.053 302.229L578.768 302.316C578.482 302.404 578.222 302.35 577.96 302.069L576.049 300.02ZM575.371 301.243C576.477 302.429 576.176 303.269 575.112 303.608C574.16 303.899 573.386 303.707 573.008 303.302C572.359 302.605 573.093 302.286 573.96 301.848L575.303 301.17L575.371 301.243ZM574.861 295.931L576.025 297.179L574.923 297.516L575.757 298.41L576.859 298.074L579.692 301.111C580.652 302.141 581.915 302.464 583.302 302.04L584.499 301.674L583.656 300.769L582.608 301.089C582.05 301.259 581.551 301.118 581.134 300.671L578.301 297.633L580.205 297.051L579.371 296.156L577.467 296.738L576.302 295.489L574.861 295.931ZM580.585 295.784L585.728 301.299L587.169 300.857L582.028 295.344L580.585 295.784ZM581.652 293.052L588.539 300.438L589.886 300.027L589.19 299.224C590.122 299.661 591.295 299.757 592.288 299.453C594.165 298.879 594.297 297.408 592.648 295.64C590.998 293.871 588.791 293.116 586.913 293.689C585.975 293.976 585.442 294.567 585.529 295.223L583.093 292.611L581.652 293.052ZM587.4 294.718C588.57 294.36 590.026 294.891 591.152 296.098C592.257 297.284 592.194 298.266 591.038 298.619C589.855 298.981 588.408 298.46 587.302 297.274C586.177 296.068 586.216 295.08 587.4 294.718ZM589.684 290.597L595.428 296.755C596.127 297.504 597.226 297.784 598.192 297.488L599.089 297.214L598.245 296.309L597.66 296.487C597.348 296.583 597.054 296.512 596.822 296.263L591.126 290.155L589.684 290.597ZM603.883 292.151C601.991 290.216 599.711 289.777 597.984 290.305C595.889 290.945 595.599 292.491 597.229 294.239C598.859 295.987 601.263 296.71 603.358 296.069C604.827 295.62 605.481 294.577 604.923 293.397L603.335 293.776C603.544 294.394 603.192 294.917 602.485 295.133C601.356 295.478 600.099 295.087 599.043 294.086L604.227 292.501L603.883 292.151ZM578.822 293.931L579.802 294.981L581.312 294.52L580.332 293.469L578.822 293.931ZM598.857 291.241C599.673 290.992 600.794 291.144 601.937 292.145L598.304 293.255C597.624 292.3 597.809 291.561 598.857 291.241Z" fill="#D2B2FF"/>
<path d="M517.308 8.15351C515.639 4.17409 509.788 1.18231 501.725 0.759751C498.519 0.591767 495.311 0.847981 492.301 1.44605L19.22 108.635C10.7336 110.604 3.74157 114.877 1.52938 120.089C0.750197 121.924 0.634855 123.71 1.0956 125.372L69.9038 320.781C75.38 335.481 87.8377 338.602 103.076 334.28L581.093 202.118C588.59 199.795 591.128 197.308 593.167 192.503C594.105 190.294 593.932 186.082 593.167 184.124L517.308 8.15351Z" stroke="url(#paint0_linear_2196_65503)" stroke-width="1.538"/>
<path d="M493.928 174.915C531.621 198.931 557.975 233.723 569.21 273.671L587.409 244.945C588.67 242.955 591.302 242.368 593.288 243.634C595.275 244.899 595.863 247.538 594.603 249.528L569.999 288.363L568.587 290.865L558.874 284.782L528.002 264.359C526.046 263.064 525.484 260.438 526.739 258.457C528.01 256.451 530.663 255.859 532.666 257.135L560.741 275.023C549.96 237.621 525.1 204.885 489.366 182.117C413.705 133.909 313.884 155.085 264.311 229.09C263 231.047 260.366 231.647 258.379 230.382C256.393 229.116 255.807 226.463 257.115 224.505C309.214 146.519 414.3 124.179 493.928 174.915Z" fill="#4FE2CE"/>
<defs>
<linearGradient id="paint0_linear_2196_65503" x1="306.118" y1="278.291" x2="287.988" y2="177.487" gradientUnits="userSpaceOnUse">
<stop stop-color="white"/>
<stop offset="1" stop-color="#999999" stop-opacity="0"/>
</linearGradient>
</defs>
</svg>
