<svg viewBox="0 0 130 130" fill="none" xmlns="http://www.w3.org/2000/svg">
<rect width="130" height="130" rx="10" fill="url(#paint0_linear_1361_32672)" fill-opacity="0.15"/>
<rect x="0.5" y="0.5" width="129" height="129" rx="9.5" stroke="white" stroke-opacity="0.1"/>
<path d="M76.6654 65L79.1654 70L82.4987 71.6667L87.4987 68.3333L88.332 65H98.332L99.1654 74.1667L97.4987 77.5L92.4987 80.8333V85L99.1654 88.3333V98.3333H64.9987L64.1654 87.5L58.332 82.5L60.832 78.3333L64.9987 76.6667V65H76.6654ZM84.1654 91.6683C84.1654 88.3338 79.1654 88.3338 79.1654 91.6683C79.1662 94.9994 84.1646 94.9994 84.1654 91.6683ZM81.6654 73.3333C79.6658 73.3333 79.1656 74.9272 79.1654 75.8675L79.665 84.1341C79.6652 85.0741 80.2838 85.8333 81.6654 85.8333C83.1651 85.8333 83.6655 85.0725 83.6657 84.1325L84.1654 75.8675C84.1651 74.9272 83.6649 73.3333 81.6654 73.3333Z" fill="white"/>
<path d="M98.7464 78.1252C99.4388 78.1252 99.9996 77.5658 99.9996 76.8752V65C99.9996 45.7 84.2592 30 64.9095 30C18.3651 31.9187 18.3619 98.0816 64.9095 100H98.7468C99.4392 100 100 99.4406 100 98.75V86.8748C100 86.1842 99.4392 85.6248 98.7468 85.6248C92.1079 85.4498 92.1231 78.2939 98.7464 78.1252ZM97.4618 63.75H86.8409C86.1485 63.75 85.5877 64.3094 85.5877 65C85.4185 71.6125 78.2407 71.6187 78.0684 65C78.0684 64.3094 77.5076 63.75 76.8152 63.75H66.163V54.2876C69.7159 53.7907 72.4291 51.2158 72.4291 48.1251C72.4291 45.0345 69.7159 42.4595 66.163 41.9626V32.5314C83.1346 33.1752 96.8169 46.822 97.4618 63.75ZM63.6566 32.5316V43.1252C63.6566 43.8158 64.2174 44.3752 64.9098 44.3752C71.5393 44.544 71.5456 51.7034 64.9098 51.8752C64.2174 51.8752 63.6566 52.4346 63.6566 53.1252V63.75H54.1698C53.6717 60.2062 51.0901 57.5 47.9915 57.5C44.8929 57.5 42.3113 60.2062 41.8131 63.75H32.3576C33.003 46.822 46.685 33.1748 63.6566 32.5316ZM32.3578 66.25H42.9787C43.6711 66.25 44.2319 65.6906 44.2319 65C44.4011 58.3875 51.5789 58.3813 51.7512 65C51.7512 65.6906 52.312 66.25 53.0044 66.25H63.6566V75.7124C60.1037 76.2093 57.3905 78.7842 57.3905 81.8749C57.3905 84.9655 60.1037 87.5405 63.6566 88.0374V97.4686C46.685 96.8248 33.0026 83.178 32.3578 66.25ZM97.4939 88.0372V97.4996H66.1638V86.8748C66.1638 86.1842 65.603 85.6248 64.9106 85.6248C62.1473 85.6248 59.8977 83.9435 59.8977 81.8748C59.8977 79.8061 62.1473 78.1248 64.9106 78.1248C65.603 78.1248 66.1638 77.5654 66.1638 76.8748V66.25H75.6506C76.9289 74.5316 86.7351 74.5156 88.0103 66.25H97.4971V75.7124C89.1942 76.9906 89.2102 86.7684 97.4971 88.0404L97.4939 88.0372Z" fill="white"/>
<path d="M95.4173 65.0006C95.4173 48.202 81.7993 34.584 65.0006 34.584C48.202 34.584 34.584 48.202 34.584 65.0006C34.584 81.7993 48.202 95.4173 65.0006 95.4173C68.5577 95.4173 71.9696 94.8073 75.139 93.6872L75.9723 96.0439C72.5389 97.2574 68.8455 97.9173 65.0006 97.9173C46.8213 97.9173 32.084 83.18 32.084 65.0006C32.084 46.8213 46.8213 32.084 65.0006 32.084C83.18 32.084 97.9173 46.8213 97.9173 65.0006C97.9173 67.1428 97.7131 69.2385 97.3216 71.2686L96.0928 71.0325L94.8656 70.7949C95.2271 68.9201 95.4173 66.9832 95.4173 65.0006Z" fill="white"/>
<defs>
<linearGradient id="paint0_linear_1361_32672" x1="122.027" y1="112.359" x2="8.23781" y2="-3.37192" gradientUnits="userSpaceOnUse">
<stop stop-color="white"/>
<stop offset="1" stop-color="white" stop-opacity="0.5"/>
</linearGradient>
</defs>
</svg>
