<svg width="32" height="32" viewBox="0 0 32 32" fill="none" xmlns="http://www.w3.org/2000/svg">
<path d="M26.8008 16.0013C26.8008 13.0186 25.5937 10.3203 23.638 8.36458C21.6823 6.40885 18.984 5.20182 16.0013 5.20182C13.0186 5.20182 10.3203 6.40885 8.36458 8.36458C6.40885 10.3203 5.20182 13.0186 5.20182 16.0013C5.20182 18.984 6.40885 21.6823 8.36458 23.638C10.3203 25.5937 13.0186 26.8008 16.0013 26.8008C18.984 26.8008 21.6823 25.5937 23.638 23.638C25.5937 21.6823 26.8008 18.984 26.8008 16.0013ZM29.2018 16.0013C29.2018 19.646 27.722 22.9472 25.3346 25.3346C22.9472 27.722 19.646 29.2018 16.0013 29.2018C12.3566 29.2018 9.05538 27.722 6.66797 25.3346C4.28055 22.9472 2.80078 19.646 2.80078 16.0013C2.80078 12.3566 4.28055 9.05538 6.66797 6.66797C9.05538 4.28055 12.3566 2.80078 16.0013 2.80078C19.646 2.80078 22.9472 4.28055 25.3346 6.66797C27.722 9.05538 29.2018 12.3566 29.2018 16.0013Z" fill="white"/>
<path d="M14.8008 21.9987V16.6654C14.8008 16.0026 15.3386 15.4648 16.0013 15.4648C16.664 15.4648 17.2018 16.0026 17.2018 16.6654V21.9987C17.2018 22.6614 16.664 23.1992 16.0013 23.1992C15.3386 23.1992 14.8008 22.6614 14.8008 21.9987Z" fill="white"/>
<circle cx="15.9987" cy="10.9987" r="1.66667" fill="white"/>
</svg>
