<svg width="1801" height="616" viewBox="0 0 1801 616" fill="none" xmlns="http://www.w3.org/2000/svg">
<rect x="1018.82" y="56.5" width="259" height="57" rx="11.5" fill="url(#paint0_linear_3046_83408)" fill-opacity="0.1"/>
<rect x="1018.82" y="56.5" width="259" height="57" rx="11.5" stroke="url(#paint1_linear_3046_83408)"/>
<rect x="1238.31" y="73" width="24" height="24" rx="2" stroke="white"/>
<path d="M1257.16 81.9892C1257.36 82.2052 1257.36 82.5535 1257.15 82.767L1249.28 90.8412C1249.08 91.0463 1248.76 91.0536 1248.55 90.858L1243.49 86.1052C1243.27 85.9016 1243.25 85.5538 1243.45 85.3284L1245.11 83.4242C1245.3 83.1989 1245.64 83.1813 1245.85 83.385L1248.69 86.0466C1248.76 86.1118 1248.87 86.1093 1248.93 86.041L1254.67 80.1588C1254.88 79.9453 1255.21 79.9474 1255.42 80.1634L1257.16 81.9892Z" stroke="white"/>
<path d="M1040.78 93.5L1046.33 85.0169L1040.83 76.5814H1043.26L1047.66 83.3965L1052.03 76.5814H1054.41L1048.9 84.9692L1054.5 93.5H1052.07L1047.62 86.5896L1043.16 93.5H1040.78ZM1057.23 93.5L1062.78 85.0169L1057.28 76.5814H1059.71L1064.12 83.3965L1068.48 76.5814H1070.86L1065.35 84.9692L1070.95 93.5H1068.52L1064.07 86.5896L1059.61 93.5H1057.23ZM1073.68 93.5L1079.23 85.0169L1073.73 76.5814H1076.16L1080.57 83.3965L1084.93 76.5814H1087.31L1081.81 84.9692L1087.41 93.5H1084.97L1080.52 86.5896L1076.06 93.5H1073.68ZM1090.13 93.5L1095.68 85.0169L1090.18 76.5814H1092.61L1097.02 83.3965L1101.38 76.5814H1103.76L1098.26 84.9692L1103.86 93.5H1101.43L1096.97 86.5896L1092.51 93.5H1090.13Z" fill="white"/>
<g opacity="0.5">
<rect x="1018.82" y="124.5" width="259" height="57" rx="11.5" fill="url(#paint2_linear_3046_83408)" fill-opacity="0.1"/>
<rect x="1018.82" y="124.5" width="259" height="57" rx="11.5" stroke="url(#paint3_linear_3046_83408)"/>
<rect x="1238.31" y="141" width="24" height="24" rx="2" stroke="white"/>
<path d="M1257.16 149.989C1257.36 150.205 1257.36 150.553 1257.15 150.767L1249.28 158.841C1249.08 159.046 1248.76 159.054 1248.55 158.858L1243.49 154.105C1243.27 153.902 1243.25 153.554 1243.45 153.328L1245.11 151.424C1245.3 151.199 1245.64 151.181 1245.85 151.385L1248.69 154.047C1248.76 154.112 1248.87 154.109 1248.93 154.041L1254.67 148.159C1254.88 147.945 1255.21 147.947 1255.42 148.163L1257.16 149.989Z" stroke="white"/>
<path d="M1040.78 161.5L1046.33 153.017L1040.83 144.581H1043.26L1047.66 151.396L1052.03 144.581H1054.41L1048.9 152.969L1054.5 161.5H1052.07L1047.62 154.59L1043.16 161.5H1040.78ZM1057.23 161.5L1062.78 153.017L1057.28 144.581H1059.71L1064.12 151.396L1068.48 144.581H1070.86L1065.35 152.969L1070.95 161.5H1068.52L1064.07 154.59L1059.61 161.5H1057.23ZM1073.68 161.5L1079.23 153.017L1073.73 144.581H1076.16L1080.57 151.396L1084.93 144.581H1087.31L1081.81 152.969L1087.41 161.5H1084.97L1080.52 154.59L1076.06 161.5H1073.68ZM1090.13 161.5L1095.68 153.017L1090.18 144.581H1092.61L1097.02 151.396L1101.38 144.581H1103.76L1098.26 152.969L1103.86 161.5H1101.43L1096.97 154.59L1092.51 161.5H1090.13Z" fill="white"/>
</g>
<g opacity="0.1">
<rect x="1018.82" y="192.5" width="259" height="57" rx="11.5" fill="url(#paint4_linear_3046_83408)" fill-opacity="0.1"/>
<rect x="1018.82" y="192.5" width="259" height="57" rx="11.5" stroke="url(#paint5_linear_3046_83408)"/>
<rect x="1238.31" y="209" width="24" height="24" rx="2" stroke="white"/>
<path d="M1257.16 217.989C1257.36 218.205 1257.36 218.553 1257.15 218.767L1249.28 226.841C1249.08 227.046 1248.76 227.054 1248.55 226.858L1243.49 222.105C1243.27 221.902 1243.25 221.554 1243.45 221.328L1245.11 219.424C1245.3 219.199 1245.64 219.181 1245.85 219.385L1248.69 222.047C1248.76 222.112 1248.87 222.109 1248.93 222.041L1254.67 216.159C1254.88 215.945 1255.21 215.947 1255.42 216.163L1257.16 217.989Z" stroke="white"/>
<path d="M1040.78 229.5L1046.33 221.017L1040.83 212.581H1043.26L1047.66 219.396L1052.03 212.581H1054.41L1048.9 220.969L1054.5 229.5H1052.07L1047.62 222.59L1043.16 229.5H1040.78ZM1057.23 229.5L1062.78 221.017L1057.28 212.581H1059.71L1064.12 219.396L1068.48 212.581H1070.86L1065.35 220.969L1070.95 229.5H1068.52L1064.07 222.59L1059.61 229.5H1057.23ZM1073.68 229.5L1079.23 221.017L1073.73 212.581H1076.16L1080.57 219.396L1084.93 212.581H1087.31L1081.81 220.969L1087.41 229.5H1084.97L1080.52 222.59L1076.06 229.5H1073.68ZM1090.13 229.5L1095.68 221.017L1090.18 212.581H1092.61L1097.02 219.396L1101.38 212.581H1103.76L1098.26 220.969L1103.86 229.5H1101.43L1096.97 222.59L1092.51 229.5H1090.13Z" fill="white"/>
</g>
<mask id="mask0_3046_83408" style="mask-type:alpha" maskUnits="userSpaceOnUse" x="0" y="333" width="1801" height="283">
<rect y="333" width="1800.84" height="282.742" fill="url(#paint6_linear_3046_83408)"/>
</mask>
<g mask="url(#mask0_3046_83408)">
<path d="M25.2003 522.827C10.4663 549.006 -20.0108 560.73 -47.6852 552.833C-47.8555 552.784 -47.9359 552.589 -47.849 552.435C-47.7878 552.326 -47.6603 552.272 -47.5394 552.303C-20.9222 559.148 7.9831 547.082 21.5662 521.44C34.4581 497.104 29.5406 468.125 11.3821 449.699C10.5224 448.826 10.4438 447.437 11.2402 446.507C12.0843 445.52 13.5817 445.427 14.5053 446.34C34.411 466.008 39.5874 497.264 25.2003 522.827Z" fill="url(#paint7_linear_3046_83408)" fill-opacity="0.8"/>
<path d="M14.983 445.857C13.767 444.655 11.8136 444.792 10.724 446.065C9.68794 447.276 9.80193 449.064 10.8981 450.176C28.8509 468.394 33.7168 497.051 20.9657 521.122C7.53141 546.483 -21.0536 558.412 -47.37 551.645C-47.7861 551.538 -48.2276 551.722 -48.4413 552.101C-48.7438 552.639 -48.4639 553.317 -47.8717 553.486C-19.9021 561.468 10.901 549.619 25.7928 523.16C40.3337 497.323 35.1008 465.735 14.983 445.857Z" stroke="black" stroke-opacity="0.13" stroke-width="1.35912"/>
<path d="M13.1626 448.36C-2.09592 434.003 9.26283 421.568 22.2498 418.617C35.2368 415.667 45.3069 406.6 42.7622 396.208" stroke="url(#paint8_linear_3046_83408)" stroke-width="2.23353" stroke-linecap="round"/>
<path d="M24.2328 464.835C17.4733 455.123 14.9809 452.356 12.5757 449.962C10.1705 447.568 12.7182 445.571 14.5323 447.176C15.7708 448.271 14.7755 448.179 15.1301 449.686C15.3349 450.557 15.8742 451.302 16.3832 452.038C18.4143 454.973 21.8654 460.579 24.2328 464.835Z" fill="url(#paint9_linear_3046_83408)"/>
<path d="M24.445 521.987C9.65176 548.272 -18.5126 560.188 -46.1111 552.971C-18.6982 558.954 9.79013 547.272 23.4082 521.564C36.46 496.925 31.6332 466.991 12.3977 449.144C11.9084 448.69 11.8755 447.92 12.3381 447.438C12.7861 446.972 13.5282 446.955 13.9887 447.409C33.0641 466.212 39.0262 496.08 24.445 521.987Z" fill="url(#paint10_linear_3046_83408)"/>
<path d="M244.2 522.827C229.466 549.006 198.989 560.73 171.315 552.833C171.145 552.784 171.064 552.589 171.151 552.435C171.212 552.326 171.34 552.272 171.461 552.303C198.078 559.148 226.983 547.082 240.566 521.44C253.458 497.104 248.541 468.125 230.382 449.699C229.522 448.826 229.444 447.437 230.24 446.507C231.084 445.52 232.582 445.427 233.505 446.34C253.411 466.008 258.587 497.264 244.2 522.827Z" fill="url(#paint11_linear_3046_83408)" fill-opacity="0.8"/>
<path d="M233.983 445.857C232.767 444.655 230.814 444.792 229.724 446.065C228.688 447.276 228.802 449.064 229.898 450.176C247.851 468.394 252.717 497.051 239.966 521.122C226.531 546.483 197.946 558.412 171.63 551.645C171.214 551.538 170.772 551.722 170.559 552.101C170.256 552.639 170.536 553.317 171.128 553.486C199.098 561.468 229.901 549.619 244.793 523.16C259.334 497.323 254.101 465.735 233.983 445.857Z" stroke="black" stroke-opacity="0.13" stroke-width="1.35912"/>
<path d="M232.163 448.36C216.904 434.003 228.263 421.568 241.25 418.617C254.237 415.667 264.307 406.6 261.762 396.208" stroke="url(#paint12_linear_3046_83408)" stroke-width="2.23353" stroke-linecap="round"/>
<path d="M243.233 464.835C236.473 455.123 233.981 452.356 231.576 449.962C229.171 447.568 231.718 445.571 233.532 447.176C234.771 448.271 233.775 448.179 234.13 449.686C234.335 450.557 234.874 451.302 235.383 452.038C237.414 454.973 240.865 460.579 243.233 464.835Z" fill="url(#paint13_linear_3046_83408)"/>
<path d="M243.445 521.987C228.652 548.272 200.487 560.188 172.889 552.971C200.302 558.954 228.79 547.272 242.408 521.564C255.46 496.925 250.633 466.991 231.398 449.144C230.908 448.69 230.876 447.92 231.338 447.438C231.786 446.972 232.528 446.955 232.989 447.409C252.064 466.212 258.026 496.08 243.445 521.987Z" fill="url(#paint14_linear_3046_83408)"/>
<path d="M463.2 522.827C448.466 549.006 417.989 560.73 390.315 552.833C390.145 552.784 390.064 552.589 390.151 552.435C390.212 552.326 390.34 552.272 390.461 552.303C417.078 559.148 445.983 547.082 459.566 521.44C472.458 497.104 467.541 468.125 449.382 449.699C448.522 448.826 448.444 447.437 449.24 446.507C450.084 445.52 451.582 445.427 452.505 446.34C472.411 466.008 477.587 497.264 463.2 522.827Z" fill="url(#paint15_linear_3046_83408)" fill-opacity="0.8"/>
<path d="M452.983 445.857C451.767 444.655 449.814 444.792 448.724 446.065C447.688 447.276 447.802 449.064 448.898 450.176C466.851 468.394 471.717 497.051 458.966 521.122C445.531 546.483 416.946 558.412 390.63 551.645C390.214 551.538 389.772 551.722 389.559 552.101C389.256 552.639 389.536 553.317 390.128 553.486C418.098 561.468 448.901 549.619 463.793 523.16C478.334 497.323 473.101 465.735 452.983 445.857Z" stroke="black" stroke-opacity="0.13" stroke-width="1.35912"/>
<path d="M451.163 448.36C435.904 434.003 447.263 421.568 460.25 418.617C473.237 415.667 483.307 406.6 480.762 396.208" stroke="url(#paint16_linear_3046_83408)" stroke-width="2.23353" stroke-linecap="round"/>
<path d="M462.233 464.835C455.473 455.123 452.981 452.356 450.576 449.962C448.171 447.568 450.718 445.571 452.532 447.176C453.771 448.271 452.775 448.179 453.13 449.686C453.335 450.557 453.874 451.302 454.383 452.038C456.414 454.973 459.865 460.579 462.233 464.835Z" fill="url(#paint17_linear_3046_83408)"/>
<path d="M462.445 521.987C447.652 548.272 419.487 560.188 391.889 552.971C419.302 558.954 447.79 547.272 461.408 521.564C474.46 496.925 469.633 466.991 450.398 449.144C449.908 448.69 449.876 447.92 450.338 447.438C450.786 446.972 451.528 446.955 451.989 447.409C471.064 466.212 477.026 496.08 462.445 521.987Z" fill="url(#paint18_linear_3046_83408)"/>
<path d="M682.2 522.827C667.466 549.006 636.989 560.73 609.315 552.833C609.145 552.784 609.064 552.589 609.151 552.435C609.212 552.326 609.34 552.272 609.461 552.303C636.078 559.148 664.983 547.082 678.566 521.44C691.458 497.104 686.541 468.125 668.382 449.699C667.522 448.826 667.444 447.437 668.24 446.507C669.084 445.52 670.582 445.427 671.505 446.34C691.411 466.008 696.587 497.264 682.2 522.827Z" fill="url(#paint19_linear_3046_83408)" fill-opacity="0.8"/>
<path d="M671.983 445.857C670.767 444.655 668.814 444.792 667.724 446.065C666.688 447.276 666.802 449.064 667.898 450.176C685.851 468.394 690.717 497.051 677.966 521.122C664.531 546.483 635.946 558.412 609.63 551.645C609.214 551.538 608.772 551.722 608.559 552.101C608.256 552.639 608.536 553.317 609.128 553.486C637.098 561.468 667.901 549.619 682.793 523.16C697.334 497.323 692.101 465.735 671.983 445.857Z" stroke="black" stroke-opacity="0.13" stroke-width="1.35912"/>
<path d="M670.163 448.36C654.904 434.003 666.263 421.568 679.25 418.617C692.237 415.667 702.307 406.6 699.762 396.208" stroke="url(#paint20_linear_3046_83408)" stroke-width="2.23353" stroke-linecap="round"/>
<path d="M681.233 464.835C674.473 455.123 671.981 452.356 669.576 449.962C667.171 447.568 669.718 445.571 671.532 447.176C672.771 448.271 671.775 448.179 672.13 449.686C672.335 450.557 672.874 451.302 673.383 452.038C675.414 454.973 678.865 460.579 681.233 464.835Z" fill="url(#paint21_linear_3046_83408)"/>
<path d="M681.445 521.987C666.652 548.272 638.487 560.188 610.889 552.971C638.302 558.954 666.79 547.272 680.408 521.564C693.46 496.925 688.633 466.991 669.398 449.144C668.908 448.69 668.876 447.92 669.338 447.438C669.786 446.972 670.528 446.955 670.989 447.409C690.064 466.212 696.026 496.08 681.445 521.987Z" fill="url(#paint22_linear_3046_83408)"/>
<mask id="mask1_3046_83408" style="mask-type:alpha" maskUnits="userSpaceOnUse" x="863" y="360" width="53" height="164">
<rect x="863.085" y="360.082" width="52.3022" height="163.299" fill="url(#paint23_linear_3046_83408)"/>
</mask>
<g mask="url(#mask1_3046_83408)">
<path d="M874.734 340.862C874.637 340.085 875.188 339.376 875.965 339.279C876.742 339.181 877.451 339.732 877.548 340.509L899.803 518.012C898.624 517.902 898.015 517.914 896.988 518.365L874.734 340.862Z" fill="url(#paint24_linear_3046_83408)" fill-opacity="0.8"/>
<path d="M875.907 338.816C876.939 338.686 877.882 339.418 878.012 340.451L900.339 518.531L899.759 518.477C899.173 518.423 898.766 518.402 898.388 518.442C898.018 518.482 897.657 518.581 897.177 518.792L896.603 519.044L874.271 340.92C874.141 339.887 874.874 338.945 875.907 338.816Z" stroke="black" stroke-opacity="0.13" stroke-width="0.933793"/>
<path d="M881.405 381.324L882.432 383.783L899.269 517.615C898.973 517.599 898.516 517.649 898.3 517.743L881.405 381.324Z" fill="url(#paint25_linear_3046_83408)"/>
</g>
<path d="M900.418 519.301C900.328 518.539 896.673 518.964 896.762 519.726C896.867 520.62 897.712 527.276 897.938 529.712C898.004 530.428 898.309 530.867 898.316 531.126C898.867 550.644 884.504 567.518 865.563 569.748C852.416 571.296 840.022 565.436 832.191 555.334C829.571 551.954 830.394 550.85 828.097 544.639C826.735 540.955 822.431 533.723 820.862 532.698C819.939 534.566 821.725 543.584 822.619 546.219C824.016 550.335 826.415 552.925 828.957 556.289C837.296 567.324 851.104 573.769 865.833 572.034C886.772 569.569 902.06 551.459 901.387 530.765C901.379 530.505 901.626 529.706 901.558 528.99C901.33 526.554 900.523 520.193 900.418 519.301Z" fill="url(#paint26_linear_3046_83408)" fill-opacity="0.8"/>
<path d="M898.469 518.478C898.951 518.422 899.459 518.414 899.868 518.478C900.07 518.509 900.281 518.563 900.457 518.66C900.633 518.757 900.845 518.941 900.881 519.246C900.985 520.128 901.794 526.503 902.023 528.946C902.062 529.365 902.009 529.792 901.955 530.123C901.929 530.281 901.898 530.451 901.88 530.557C901.87 530.616 901.862 530.662 901.858 530.699C901.854 530.733 901.854 530.748 901.854 530.75C902.535 551.684 887.07 570.004 865.887 572.498C850.987 574.253 837.02 567.732 828.584 556.57C826.072 553.246 823.605 550.576 822.177 546.369C821.717 545.015 821.042 542.072 820.597 539.244C820.375 537.827 820.207 536.423 820.155 535.25C820.128 534.663 820.131 534.125 820.171 533.666C820.21 533.219 820.289 532.804 820.444 532.492L820.676 532.02L821.117 532.307C821.366 532.47 821.637 532.732 821.916 533.044C822.199 533.362 822.512 533.755 822.84 534.202C823.496 535.096 824.231 536.224 824.957 537.43C826.406 539.837 827.839 542.595 828.535 544.476C829.692 547.606 830.07 549.472 830.472 550.923C830.867 552.348 831.292 553.412 832.56 555.047C840.3 565.032 852.538 570.811 865.509 569.284C884.202 567.083 898.394 550.423 897.85 531.139C897.85 531.15 897.85 531.13 897.822 531.048C897.793 530.963 897.761 530.888 897.71 530.752C897.619 530.503 897.512 530.171 897.473 529.755C897.248 527.327 896.406 520.688 896.299 519.781C896.263 519.476 896.427 519.247 896.576 519.112C896.725 518.977 896.918 518.876 897.107 518.799C897.49 518.642 897.987 518.534 898.469 518.478Z" stroke="black" stroke-opacity="0.13" stroke-width="0.933793"/>
<path d="M899.803 519.776C899.714 519.014 898.16 519.014 898.249 519.776C898.355 520.669 899.2 527.325 899.425 529.761C899.491 530.478 899.796 530.916 899.803 531.176C900.354 550.694 884.6 568.077 865.659 570.307C852.512 571.855 839.73 565.834 831.898 555.731C829.278 552.352 829.591 551.199 827.295 544.987C825.932 541.303 823.11 535.273 821.54 534.248C829.116 550.368 825.434 549.812 829.597 555.321C837.937 566.356 850.93 572.808 865.659 571.074C886.599 568.609 901.446 551.934 900.773 531.24C900.764 530.98 901.011 530.182 900.944 529.465C900.716 527.029 899.908 520.668 899.803 519.776Z" fill="url(#paint27_linear_3046_83408)"/>
<path d="M899.732 530.973L899.531 530.37C899.464 530.169 899.276 530.033 899.064 530.033C898.698 530.033 898.46 530.42 898.569 530.769C898.618 530.925 898.652 531.073 898.652 531.184C898.652 531.568 899.291 531.568 898.652 537.322C898.268 540.775 896.733 545.89 895.966 548.448C896.478 547.169 898.421 542.079 899.035 539.624C899.705 536.944 899.796 533.278 899.802 531.406C899.803 531.258 899.779 531.113 899.732 530.973Z" fill="url(#paint28_linear_3046_83408)"/>
<path d="M825.575 544.19C826.568 546.531 826.864 549.262 827.448 551.454C827.596 552.012 827.834 552.542 828.125 553.041C829.929 556.127 831.215 557.388 832.282 558.81C832.061 558.693 829.98 557.657 826.144 552.286C822.307 546.915 827.579 554.204 825.554 546.523C824.668 543.164 822.708 537.098 821.552 534.69C822.256 535.874 824.587 541.86 825.575 544.19Z" fill="url(#paint29_linear_3046_83408)"/>
<mask id="mask2_3046_83408" style="mask-type:alpha" maskUnits="userSpaceOnUse" x="1051" y="360" width="54" height="164">
<rect x="1051.93" y="360.082" width="52.3022" height="163.299" fill="url(#paint30_linear_3046_83408)"/>
</mask>
<g mask="url(#mask2_3046_83408)">
<path d="M1063.57 340.862C1063.48 340.085 1064.03 339.376 1064.81 339.279C1065.58 339.181 1066.29 339.732 1066.39 340.509L1088.64 518.012C1087.46 517.902 1086.86 517.914 1085.83 518.365L1063.57 340.862Z" fill="url(#paint31_linear_3046_83408)" fill-opacity="0.8"/>
<path d="M1064.75 338.816C1065.78 338.686 1066.72 339.418 1066.85 340.451L1089.18 518.531L1088.6 518.477C1088.01 518.423 1087.61 518.402 1087.23 518.442C1086.86 518.482 1086.5 518.581 1086.02 518.792L1085.44 519.044L1063.11 340.92C1062.98 339.887 1063.71 338.945 1064.75 338.816Z" stroke="black" stroke-opacity="0.13" stroke-width="0.933793"/>
<path d="M1070.25 381.324L1071.27 383.783L1088.11 517.615C1087.81 517.599 1087.36 517.649 1087.14 517.743L1070.25 381.324Z" fill="url(#paint32_linear_3046_83408)"/>
</g>
<path d="M1089.26 519.301C1089.17 518.539 1085.51 518.964 1085.6 519.726C1085.71 520.62 1086.55 527.276 1086.78 529.712C1086.84 530.428 1087.15 530.867 1087.16 531.126C1087.71 550.644 1073.34 567.518 1054.4 569.748C1041.26 571.296 1028.86 565.436 1021.03 555.334C1018.41 551.954 1019.23 550.85 1016.94 544.639C1015.58 540.955 1011.27 533.723 1009.7 532.698C1008.78 534.566 1010.57 543.584 1011.46 546.219C1012.86 550.335 1015.26 552.925 1017.8 556.289C1026.14 567.324 1039.94 573.769 1054.67 572.034C1075.61 569.569 1090.9 551.459 1090.23 530.765C1090.22 530.505 1090.47 529.706 1090.4 528.99C1090.17 526.554 1089.36 520.193 1089.26 519.301Z" fill="url(#paint33_linear_3046_83408)" fill-opacity="0.8"/>
<path d="M1087.31 518.478C1087.79 518.422 1088.3 518.414 1088.71 518.478C1088.91 518.509 1089.12 518.563 1089.3 518.66C1089.47 518.757 1089.69 518.941 1089.72 519.246C1089.83 520.128 1090.63 526.503 1090.86 528.946C1090.9 529.365 1090.85 529.792 1090.8 530.123C1090.77 530.281 1090.74 530.451 1090.72 530.557C1090.71 530.616 1090.7 530.662 1090.7 530.699C1090.69 530.733 1090.69 530.748 1090.69 530.75C1091.38 551.684 1075.91 570.004 1054.73 572.498C1039.83 574.253 1025.86 567.732 1017.42 556.57C1014.91 553.246 1012.45 550.576 1011.02 546.369C1010.56 545.015 1009.88 542.072 1009.44 539.244C1009.22 537.827 1009.05 536.423 1009 535.25C1008.97 534.663 1008.97 534.125 1009.01 533.666C1009.05 533.219 1009.13 532.804 1009.28 532.492L1009.52 532.02L1009.96 532.307C1010.21 532.47 1010.48 532.732 1010.76 533.044C1011.04 533.362 1011.35 533.755 1011.68 534.202C1012.34 535.096 1013.07 536.224 1013.8 537.43C1015.25 539.837 1016.68 542.595 1017.38 544.476C1018.53 547.606 1018.91 549.472 1019.31 550.923C1019.71 552.348 1020.13 553.412 1021.4 555.047C1029.14 565.032 1041.38 570.811 1054.35 569.284C1073.04 567.083 1087.23 550.423 1086.69 531.139C1086.69 531.15 1086.69 531.13 1086.66 531.048C1086.63 530.963 1086.6 530.888 1086.55 530.752C1086.46 530.503 1086.35 530.171 1086.31 529.755C1086.09 527.327 1085.25 520.688 1085.14 519.781C1085.1 519.476 1085.27 519.247 1085.42 519.112C1085.57 518.977 1085.76 518.876 1085.95 518.799C1086.33 518.642 1086.83 518.534 1087.31 518.478Z" stroke="black" stroke-opacity="0.13" stroke-width="0.933793"/>
<path d="M1088.64 519.776C1088.55 519.014 1087 519.014 1087.09 519.776C1087.2 520.669 1088.04 527.325 1088.27 529.761C1088.33 530.478 1088.64 530.916 1088.64 531.176C1089.19 550.694 1073.44 568.077 1054.5 570.307C1041.35 571.855 1028.57 565.834 1020.74 555.731C1018.12 552.352 1018.43 551.199 1016.14 544.987C1014.77 541.303 1011.95 535.273 1010.38 534.248C1017.96 550.368 1014.27 549.812 1018.44 555.321C1026.78 566.356 1039.77 572.808 1054.5 571.074C1075.44 568.609 1090.29 551.934 1089.61 531.24C1089.6 530.98 1089.85 530.182 1089.78 529.465C1089.56 527.029 1088.75 520.668 1088.64 519.776Z" fill="url(#paint34_linear_3046_83408)"/>
<path d="M1088.57 530.973L1088.37 530.37C1088.3 530.169 1088.12 530.033 1087.9 530.033C1087.54 530.033 1087.3 530.42 1087.41 530.769C1087.46 530.925 1087.49 531.073 1087.49 531.184C1087.49 531.568 1088.13 531.568 1087.49 537.322C1087.11 540.775 1085.57 545.89 1084.81 548.448C1085.32 547.169 1087.26 542.079 1087.88 539.624C1088.55 536.944 1088.64 533.278 1088.64 531.406C1088.64 531.258 1088.62 531.113 1088.57 530.973Z" fill="url(#paint35_linear_3046_83408)"/>
<path d="M1014.42 544.19C1015.41 546.531 1015.7 549.262 1016.29 551.454C1016.44 552.012 1016.67 552.542 1016.97 553.041C1018.77 556.127 1020.06 557.388 1021.12 558.81C1020.9 558.693 1018.82 557.657 1014.98 552.286C1011.15 546.915 1016.42 554.204 1014.39 546.523C1013.51 543.164 1011.55 537.098 1010.39 534.69C1011.1 535.874 1013.43 541.86 1014.42 544.19Z" fill="url(#paint36_linear_3046_83408)"/>
<path d="M1253.81 385.906C1253.81 384.847 1254.67 383.988 1255.73 383.988C1256.79 383.988 1257.64 384.847 1257.64 385.906V562.006C1257.64 563.532 1257.52 565.055 1257.27 566.561L1256.17 573.128C1256.14 573.346 1255.95 573.506 1255.73 573.506C1255.5 573.506 1255.32 573.346 1255.28 573.128L1254.19 566.561C1253.93 565.055 1253.81 563.532 1253.81 562.006V385.906Z" fill="url(#paint37_linear_3046_83408)" fill-opacity="0.8"/>
<path d="M1255.73 383.521C1257.04 383.521 1258.11 384.589 1258.11 385.906V562.006C1258.11 563.558 1257.98 565.107 1257.73 566.638L1256.63 573.204C1256.56 573.648 1256.18 573.973 1255.73 573.973C1255.28 573.973 1254.89 573.648 1254.82 573.204L1253.72 566.638C1253.47 565.107 1253.34 563.558 1253.34 562.006V385.906C1253.34 384.589 1254.41 383.522 1255.73 383.521Z" stroke="black" stroke-opacity="0.13" stroke-width="0.933793"/>
<path d="M1255.33 386.362C1255.33 385.833 1255.76 385.402 1256.29 385.402C1256.82 385.402 1257.24 385.832 1257.24 386.361L1256.86 564.179L1256.03 572.86C1256.02 572.941 1255.95 573.003 1255.87 573.003C1255.78 573.003 1255.71 572.928 1255.72 572.839L1256.02 564.179L1255.33 386.362Z" fill="url(#paint38_linear_3046_83408)"/>
<path d="M1239.5 533.542C1235.44 553.777 1218.02 567.914 1198.26 568.635C1198.13 568.64 1198.04 568.529 1198.06 568.41C1198.08 568.326 1198.15 568.264 1198.24 568.258C1217.08 567.074 1233.41 553.048 1236.83 533.408C1240.08 514.768 1230.71 496.879 1214.93 488.699C1214.19 488.312 1213.84 487.421 1214.16 486.643C1214.5 485.82 1215.46 485.441 1216.26 485.841C1233.44 494.461 1243.47 513.783 1239.5 533.542Z" fill="url(#paint39_linear_3046_83408)" fill-opacity="0.8"/>
<path d="M1216.47 485.423C1215.42 484.897 1214.17 485.401 1213.73 486.464C1213.31 487.475 1213.76 488.62 1214.72 489.114C1230.32 497.202 1239.59 514.891 1236.37 533.328C1232.98 552.753 1216.84 566.621 1198.21 567.792C1197.92 567.811 1197.67 568.024 1197.61 568.318C1197.52 568.733 1197.85 569.117 1198.27 569.102C1218.24 568.373 1235.85 554.086 1239.96 533.634C1243.97 513.664 1233.84 494.136 1216.47 485.423Z" stroke="black" stroke-opacity="0.13" stroke-width="0.933793"/>
<path d="M1238.83 533.159C1234.75 553.476 1218.88 567.247 1199.32 568.396C1218.5 566.479 1234.63 552.793 1238.06 533.103C1241.35 514.231 1231.84 495.698 1215.48 488.125C1215.06 487.933 1214.88 487.437 1215.08 487.024C1215.27 486.624 1215.75 486.455 1216.15 486.654C1232.61 494.886 1242.85 513.133 1238.83 533.159Z" fill="url(#paint40_linear_3046_83408)"/>
<path d="M1256.02 387.056C1256.02 386.672 1256.02 385.215 1256.02 382.452C1256.02 371.327 1248.36 365.572 1238.41 365.572C1230.36 365.572 1220.02 370.56 1223.47 381.685C1226.92 392.811 1243.38 387.44 1243.38 400.867C1243.38 413.144 1220.79 408.156 1220.79 423.118C1220.79 438.464 1242.9 431.567 1243.38 445.753C1243.77 456.878 1226.53 461.482 1215.43 466.086C1205.88 470.044 1202.79 481.311 1215.81 487.45" stroke="url(#paint41_linear_3046_83408)" stroke-width="1.53456"/>
<path d="M1415.79 385.906C1415.79 384.847 1416.65 383.988 1417.71 383.988C1418.77 383.988 1419.63 384.847 1419.63 385.906V562.006C1419.63 563.532 1419.5 565.055 1419.25 566.561L1418.16 573.128C1418.12 573.346 1417.93 573.506 1417.71 573.506C1417.49 573.506 1417.3 573.346 1417.27 573.128L1416.17 566.561C1415.92 565.055 1415.79 563.532 1415.79 562.006V385.906Z" fill="url(#paint42_linear_3046_83408)" fill-opacity="0.8"/>
<path d="M1417.71 383.521C1419.03 383.521 1420.1 384.589 1420.1 385.906V562.006C1420.1 563.558 1419.97 565.107 1419.71 566.638L1418.62 573.204C1418.55 573.648 1418.16 573.973 1417.71 573.973C1417.26 573.973 1416.88 573.648 1416.8 573.204L1415.71 566.638C1415.45 565.107 1415.33 563.558 1415.33 562.006V385.906C1415.33 384.589 1416.39 383.522 1417.71 383.521Z" stroke="black" stroke-opacity="0.13" stroke-width="0.933793"/>
<path d="M1417.32 386.362C1417.31 385.833 1417.74 385.402 1418.27 385.402C1418.8 385.402 1419.23 385.832 1419.23 386.361L1418.85 564.179L1418.02 572.86C1418.01 572.941 1417.94 573.003 1417.86 573.003C1417.77 573.003 1417.7 572.928 1417.7 572.839L1418 564.179L1417.32 386.362Z" fill="url(#paint43_linear_3046_83408)"/>
<path d="M1401.49 533.542C1397.42 553.777 1380 567.914 1360.24 568.635C1360.12 568.64 1360.03 568.529 1360.05 568.41C1360.07 568.326 1360.14 568.264 1360.22 568.258C1379.07 567.074 1395.39 553.048 1398.82 533.408C1402.07 514.768 1392.7 496.879 1376.92 488.699C1376.17 488.312 1375.82 487.421 1376.15 486.643C1376.49 485.82 1377.45 485.441 1378.24 485.841C1395.43 494.461 1405.45 513.783 1401.49 533.542Z" fill="url(#paint44_linear_3046_83408)" fill-opacity="0.8"/>
<path d="M1378.45 485.423C1377.4 484.897 1376.16 485.401 1375.72 486.464C1375.3 487.475 1375.75 488.62 1376.7 489.114C1392.3 497.202 1401.57 514.891 1398.36 533.328C1394.97 552.753 1378.83 566.621 1360.2 567.792C1359.9 567.811 1359.65 568.024 1359.59 568.318C1359.51 568.733 1359.84 569.117 1360.26 569.102C1380.23 568.373 1397.84 554.086 1401.94 533.634C1405.95 513.664 1395.82 494.136 1378.45 485.423Z" stroke="black" stroke-opacity="0.13" stroke-width="0.933793"/>
<path d="M1400.82 533.159C1396.74 553.476 1380.87 567.247 1361.3 568.396C1380.48 566.479 1396.61 552.793 1400.05 533.103C1403.34 514.231 1393.83 495.698 1377.47 488.125C1377.05 487.933 1376.86 487.437 1377.06 487.024C1377.26 486.624 1377.74 486.455 1378.14 486.654C1394.6 494.886 1404.84 513.133 1400.82 533.159Z" fill="url(#paint45_linear_3046_83408)"/>
<path d="M1418.01 387.056C1418.01 386.672 1418.01 385.215 1418.01 382.452C1418.01 371.327 1410.35 365.572 1400.39 365.572C1392.35 365.572 1382.01 370.56 1385.46 381.685C1388.9 392.811 1405.37 387.44 1405.37 400.867C1405.37 413.144 1382.78 408.156 1382.78 423.118C1382.78 438.464 1404.88 431.567 1405.37 445.753C1405.75 456.878 1388.52 461.482 1377.41 466.086C1367.87 470.044 1364.78 481.311 1377.8 487.45" stroke="url(#paint46_linear_3046_83408)" stroke-width="1.53456"/>
<path d="M1577.78 385.906C1577.78 384.847 1578.64 383.988 1579.7 383.988C1580.76 383.988 1581.62 384.847 1581.62 385.906V562.006C1581.62 563.532 1581.49 565.055 1581.24 566.561L1580.14 573.128C1580.11 573.346 1579.92 573.506 1579.7 573.506C1579.48 573.506 1579.29 573.346 1579.25 573.128L1578.16 566.561C1577.91 565.055 1577.78 563.532 1577.78 562.006V385.906Z" fill="url(#paint47_linear_3046_83408)" fill-opacity="0.8"/>
<path d="M1579.7 383.521C1581.02 383.521 1582.08 384.589 1582.08 385.906V562.006C1582.08 563.558 1581.96 565.107 1581.7 566.638L1580.61 573.204C1580.53 573.648 1580.15 573.973 1579.7 573.973C1579.25 573.973 1578.86 573.648 1578.79 573.204L1577.7 566.638C1577.44 565.107 1577.31 563.558 1577.31 562.006V385.906C1577.31 384.589 1578.38 383.522 1579.7 383.521Z" stroke="black" stroke-opacity="0.13" stroke-width="0.933793"/>
<path d="M1579.3 386.362C1579.3 385.833 1579.73 385.402 1580.26 385.402C1580.79 385.402 1581.22 385.832 1581.21 386.361L1580.83 564.179L1580 572.86C1579.99 572.941 1579.93 573.003 1579.85 573.003C1579.76 573.003 1579.68 572.928 1579.69 572.839L1579.99 564.179L1579.3 386.362Z" fill="url(#paint48_linear_3046_83408)"/>
<path d="M1563.47 533.542C1559.41 553.777 1541.99 567.914 1522.23 568.635C1522.11 568.64 1522.01 568.529 1522.04 568.41C1522.05 568.326 1522.12 568.264 1522.21 568.258C1541.06 567.074 1557.38 553.048 1560.8 533.408C1564.05 514.768 1554.68 496.879 1538.9 488.699C1538.16 488.312 1537.81 487.421 1538.13 486.643C1538.47 485.82 1539.43 485.441 1540.23 485.841C1557.42 494.461 1567.44 513.783 1563.47 533.542Z" fill="url(#paint49_linear_3046_83408)" fill-opacity="0.8"/>
<path d="M1540.44 485.423C1539.39 484.897 1538.14 485.401 1537.7 486.464C1537.28 487.475 1537.74 488.62 1538.69 489.114C1554.29 497.202 1563.56 514.891 1560.34 533.328C1556.96 552.753 1540.81 566.621 1522.18 567.792C1521.89 567.811 1521.64 568.024 1521.58 568.318C1521.49 568.733 1521.82 569.117 1522.24 569.102C1542.21 568.373 1559.82 554.086 1563.93 533.634C1567.94 513.664 1557.81 494.136 1540.44 485.423Z" stroke="black" stroke-opacity="0.13" stroke-width="0.933793"/>
<path d="M1562.8 533.159C1558.72 553.476 1542.85 567.247 1523.29 568.396C1542.47 566.479 1558.6 552.793 1562.03 533.103C1565.33 514.231 1555.81 495.698 1539.45 488.125C1539.04 487.933 1538.85 487.437 1539.05 487.024C1539.24 486.624 1539.72 486.455 1540.12 486.654C1556.58 494.886 1566.82 513.133 1562.8 533.159Z" fill="url(#paint50_linear_3046_83408)"/>
<path d="M1579.99 387.056C1579.99 386.672 1579.99 385.215 1579.99 382.452C1579.99 371.327 1572.33 365.572 1562.38 365.572C1554.34 365.572 1544 370.56 1547.44 381.685C1550.89 392.811 1567.36 387.44 1567.36 400.867C1567.36 413.144 1544.76 408.156 1544.76 423.118C1544.76 438.464 1566.87 431.567 1567.36 445.753C1567.74 456.878 1550.51 461.482 1539.4 466.086C1529.85 470.044 1526.76 481.311 1539.78 487.45" stroke="url(#paint51_linear_3046_83408)" stroke-width="1.53456"/>
<path d="M1739.77 385.906C1739.77 384.847 1740.62 383.988 1741.68 383.988C1742.74 383.988 1743.6 384.847 1743.6 385.906V562.006C1743.6 563.532 1743.48 565.055 1743.23 566.561L1742.13 573.128C1742.09 573.346 1741.91 573.506 1741.68 573.506C1741.46 573.506 1741.27 573.346 1741.24 573.128L1740.14 566.561C1739.89 565.055 1739.77 563.532 1739.77 562.006V385.906Z" fill="url(#paint52_linear_3046_83408)" fill-opacity="0.8"/>
<path d="M1741.68 383.521C1743 383.521 1744.07 384.589 1744.07 385.906V562.006C1744.07 563.558 1743.94 565.107 1743.69 566.638L1742.59 573.204C1742.52 573.648 1742.13 573.973 1741.68 573.973C1741.23 573.973 1740.85 573.648 1740.78 573.204L1739.68 566.638C1739.43 565.107 1739.3 563.558 1739.3 562.006V385.906C1739.3 384.589 1740.37 383.522 1741.68 383.521Z" stroke="black" stroke-opacity="0.13" stroke-width="0.933793"/>
<path d="M1741.29 386.362C1741.29 385.833 1741.71 385.402 1742.24 385.402C1742.77 385.402 1743.2 385.832 1743.2 386.361L1742.82 564.179L1741.99 572.86C1741.98 572.941 1741.91 573.003 1741.83 573.003C1741.74 573.003 1741.67 572.928 1741.67 572.839L1741.97 564.179L1741.29 386.362Z" fill="url(#paint53_linear_3046_83408)"/>
<path d="M1725.46 533.542C1721.39 553.777 1703.97 567.914 1684.21 568.635C1684.09 568.64 1684 568.529 1684.02 568.41C1684.04 568.326 1684.11 568.264 1684.2 568.258C1703.04 567.074 1719.36 553.048 1722.79 533.408C1726.04 514.768 1716.67 496.879 1700.89 488.699C1700.14 488.312 1699.8 487.421 1700.12 486.643C1700.46 485.82 1701.42 485.441 1702.22 485.841C1719.4 494.461 1729.43 513.783 1725.46 533.542Z" fill="url(#paint54_linear_3046_83408)" fill-opacity="0.8"/>
<path d="M1702.43 485.423C1701.38 484.897 1700.13 485.401 1699.69 486.464C1699.27 487.475 1699.72 488.62 1700.68 489.114C1716.28 497.202 1725.55 514.891 1722.33 533.328C1718.94 552.753 1702.8 566.621 1684.17 567.792C1683.87 567.811 1683.62 568.024 1683.56 568.318C1683.48 568.733 1683.81 569.117 1684.23 569.102C1704.2 568.373 1721.81 554.086 1725.92 533.634C1729.93 513.664 1719.79 494.136 1702.43 485.423Z" stroke="black" stroke-opacity="0.13" stroke-width="0.933793"/>
<path d="M1724.79 533.159C1720.71 553.476 1704.84 567.247 1685.27 568.396C1704.46 566.479 1720.59 552.793 1724.02 533.103C1727.31 514.231 1717.8 495.698 1701.44 488.125C1701.02 487.933 1700.84 487.437 1701.04 487.024C1701.23 486.624 1701.71 486.455 1702.11 486.654C1718.57 494.886 1728.81 513.133 1724.79 533.159Z" fill="url(#paint55_linear_3046_83408)"/>
<path d="M1741.98 387.056C1741.98 386.672 1741.98 385.215 1741.98 382.452C1741.98 371.327 1734.32 365.572 1724.36 365.572C1716.32 365.572 1705.98 370.56 1709.43 381.685C1712.88 392.811 1729.34 387.44 1729.34 400.867C1729.34 413.144 1706.75 408.156 1706.75 423.118C1706.75 438.464 1728.85 431.567 1729.34 445.753C1729.73 456.878 1712.49 461.482 1701.39 466.086C1691.84 470.044 1688.75 481.311 1701.77 487.45" stroke="url(#paint56_linear_3046_83408)" stroke-width="1.53456"/>
</g>
<path d="M782.951 121.255C786.936 74.7587 822.14 40.8828 874.283 40.8828C923.768 40.8828 959.305 71.1054 959.305 112.62C959.305 148.821 930.411 169.744 898.195 188.343C885.243 195.649 844.06 220.226 842.732 239.489H959.969V282H781.29C781.29 212.919 820.148 181.368 868.305 154.135C892.217 139.522 907.494 127.233 907.494 111.956C907.494 95.35 893.878 83.3938 874.283 83.3938C853.027 83.3938 839.078 98.0069 834.761 124.244L782.951 121.255Z" stroke="url(#paint57_linear_3046_83408)" stroke-width="2"/>
<path d="M782.951 121.255C786.936 74.7587 822.14 40.8828 874.283 40.8828C923.768 40.8828 959.305 71.1054 959.305 112.62C959.305 148.821 930.411 169.744 898.195 188.343C885.243 195.649 844.06 220.226 842.732 239.489H959.969V282H781.29C781.29 212.919 820.148 181.368 868.305 154.135C892.217 139.522 907.494 127.233 907.494 111.956C907.494 95.35 893.878 83.3938 874.283 83.3938C853.027 83.3938 839.078 98.0069 834.761 124.244L782.951 121.255Z" fill="#D9D9D9" fill-opacity="0.1"/>
<path opacity="0.5" d="M782.549 121.604L789.146 140.906L847.704 143.898C848.861 124.114 858.992 103.6 878.756 103.6C897.165 103.6 905.148 119.986 899.702 129.498M958.954 101.32C959.381 104.429 961.069 126.241 961.069 129.498C961.069 165.699 930.411 189.744 898.195 208.343C889.443 213.28 859.85 230.51 859.85 239.841M780.834 282.377L788.707 300.981L954.276 302L959.969 280.744" stroke="url(#paint58_linear_3046_83408)"/>
<rect opacity="0.5" x="767.324" y="345.32" width="191.955" height="257.68" rx="12" fill="#D9D9D9" fill-opacity="0.1" stroke="url(#paint59_linear_3046_83408)"/>
<defs>
<linearGradient id="paint0_linear_3046_83408" x1="1131.28" y1="43" x2="1188.78" y2="126.5" gradientUnits="userSpaceOnUse">
<stop stop-color="#D9D9D9"/>
<stop offset="1" stop-color="#D9D9D9" stop-opacity="0.5"/>
</linearGradient>
<linearGradient id="paint1_linear_3046_83408" x1="1075.28" y1="19.5" x2="1161.78" y2="114" gradientUnits="userSpaceOnUse">
<stop stop-color="white"/>
<stop offset="1" stop-color="white" stop-opacity="0.2"/>
</linearGradient>
<linearGradient id="paint2_linear_3046_83408" x1="1131.28" y1="111" x2="1188.78" y2="194.5" gradientUnits="userSpaceOnUse">
<stop stop-color="#D9D9D9"/>
<stop offset="1" stop-color="#D9D9D9" stop-opacity="0.5"/>
</linearGradient>
<linearGradient id="paint3_linear_3046_83408" x1="1075.28" y1="87.5" x2="1161.78" y2="182" gradientUnits="userSpaceOnUse">
<stop stop-color="white"/>
<stop offset="1" stop-color="white" stop-opacity="0.2"/>
</linearGradient>
<linearGradient id="paint4_linear_3046_83408" x1="1131.28" y1="179" x2="1188.78" y2="262.5" gradientUnits="userSpaceOnUse">
<stop stop-color="#D9D9D9"/>
<stop offset="1" stop-color="#D9D9D9" stop-opacity="0.5"/>
</linearGradient>
<linearGradient id="paint5_linear_3046_83408" x1="1075.28" y1="155.5" x2="1161.78" y2="250" gradientUnits="userSpaceOnUse">
<stop stop-color="white"/>
<stop offset="1" stop-color="white" stop-opacity="0.2"/>
</linearGradient>
<linearGradient id="paint6_linear_3046_83408" x1="0" y1="474.371" x2="1800.84" y2="474.371" gradientUnits="userSpaceOnUse">
<stop stop-color="#D9D9D9" stop-opacity="0"/>
<stop offset="0.35814" stop-color="#A7A7A7"/>
<stop offset="1" stop-color="#737373" stop-opacity="0"/>
</linearGradient>
<linearGradient id="paint7_linear_3046_83408" x1="-49.9845" y1="567.861" x2="11.5738" y2="587.332" gradientUnits="userSpaceOnUse">
<stop stop-color="white"/>
<stop offset="1" stop-color="white" stop-opacity="0.5"/>
</linearGradient>
<linearGradient id="paint8_linear_3046_83408" x1="-0.571754" y1="446.449" x2="13.9987" y2="418.251" gradientUnits="userSpaceOnUse">
<stop stop-color="white"/>
<stop offset="1" stop-color="white" stop-opacity="0.2"/>
</linearGradient>
<linearGradient id="paint9_linear_3046_83408" x1="14.5261" y1="452.534" x2="6.56399" y2="420.183" gradientUnits="userSpaceOnUse">
<stop stop-opacity="0.4"/>
<stop offset="1" stop-color="#666666" stop-opacity="0"/>
</linearGradient>
<linearGradient id="paint10_linear_3046_83408" x1="20.4877" y1="460.135" x2="-13.1168" y2="471.129" gradientUnits="userSpaceOnUse">
<stop stop-color="white"/>
<stop offset="1" stop-color="white" stop-opacity="0.5"/>
</linearGradient>
<linearGradient id="paint11_linear_3046_83408" x1="169.015" y1="567.861" x2="230.574" y2="587.332" gradientUnits="userSpaceOnUse">
<stop stop-color="white"/>
<stop offset="1" stop-color="white" stop-opacity="0.5"/>
</linearGradient>
<linearGradient id="paint12_linear_3046_83408" x1="218.428" y1="446.449" x2="232.999" y2="418.251" gradientUnits="userSpaceOnUse">
<stop stop-color="white"/>
<stop offset="1" stop-color="white" stop-opacity="0.2"/>
</linearGradient>
<linearGradient id="paint13_linear_3046_83408" x1="233.526" y1="452.534" x2="225.564" y2="420.183" gradientUnits="userSpaceOnUse">
<stop stop-opacity="0.4"/>
<stop offset="1" stop-color="#666666" stop-opacity="0"/>
</linearGradient>
<linearGradient id="paint14_linear_3046_83408" x1="239.488" y1="460.135" x2="205.883" y2="471.129" gradientUnits="userSpaceOnUse">
<stop stop-color="white"/>
<stop offset="1" stop-color="white" stop-opacity="0.5"/>
</linearGradient>
<linearGradient id="paint15_linear_3046_83408" x1="388.015" y1="567.861" x2="449.574" y2="587.332" gradientUnits="userSpaceOnUse">
<stop stop-color="white"/>
<stop offset="1" stop-color="white" stop-opacity="0.5"/>
</linearGradient>
<linearGradient id="paint16_linear_3046_83408" x1="437.428" y1="446.449" x2="451.999" y2="418.251" gradientUnits="userSpaceOnUse">
<stop stop-color="white"/>
<stop offset="1" stop-color="white" stop-opacity="0.2"/>
</linearGradient>
<linearGradient id="paint17_linear_3046_83408" x1="452.526" y1="452.534" x2="444.564" y2="420.183" gradientUnits="userSpaceOnUse">
<stop stop-opacity="0.4"/>
<stop offset="1" stop-color="#666666" stop-opacity="0"/>
</linearGradient>
<linearGradient id="paint18_linear_3046_83408" x1="458.488" y1="460.135" x2="424.883" y2="471.129" gradientUnits="userSpaceOnUse">
<stop stop-color="white"/>
<stop offset="1" stop-color="white" stop-opacity="0.5"/>
</linearGradient>
<linearGradient id="paint19_linear_3046_83408" x1="607.015" y1="567.861" x2="668.574" y2="587.332" gradientUnits="userSpaceOnUse">
<stop stop-color="white"/>
<stop offset="1" stop-color="white" stop-opacity="0.5"/>
</linearGradient>
<linearGradient id="paint20_linear_3046_83408" x1="656.428" y1="446.449" x2="670.999" y2="418.251" gradientUnits="userSpaceOnUse">
<stop stop-color="white"/>
<stop offset="1" stop-color="white" stop-opacity="0.2"/>
</linearGradient>
<linearGradient id="paint21_linear_3046_83408" x1="671.526" y1="452.534" x2="663.564" y2="420.183" gradientUnits="userSpaceOnUse">
<stop stop-opacity="0.4"/>
<stop offset="1" stop-color="#666666" stop-opacity="0"/>
</linearGradient>
<linearGradient id="paint22_linear_3046_83408" x1="677.488" y1="460.135" x2="643.883" y2="471.129" gradientUnits="userSpaceOnUse">
<stop stop-color="white"/>
<stop offset="1" stop-color="white" stop-opacity="0.5"/>
</linearGradient>
<linearGradient id="paint23_linear_3046_83408" x1="898.589" y1="522" x2="880.69" y2="374.123" gradientUnits="userSpaceOnUse">
<stop stop-color="#D9D9D9"/>
<stop offset="1" stop-color="#D9D9D9" stop-opacity="0"/>
</linearGradient>
<linearGradient id="paint24_linear_3046_83408" x1="903.267" y1="548.649" x2="899.553" y2="549.086" gradientUnits="userSpaceOnUse">
<stop stop-color="white"/>
<stop offset="1" stop-color="white" stop-opacity="0.5"/>
</linearGradient>
<linearGradient id="paint25_linear_3046_83408" x1="897.188" y1="501.931" x2="883.919" y2="397.628" gradientUnits="userSpaceOnUse">
<stop stop-color="white"/>
<stop offset="1" stop-color="white" stop-opacity="0"/>
</linearGradient>
<linearGradient id="paint26_linear_3046_83408" x1="896.122" y1="574.087" x2="828.863" y2="528.694" gradientUnits="userSpaceOnUse">
<stop stop-color="white"/>
<stop offset="1" stop-color="white" stop-opacity="0.5"/>
</linearGradient>
<linearGradient id="paint27_linear_3046_83408" x1="877.571" y1="524.725" x2="883.657" y2="542.549" gradientUnits="userSpaceOnUse">
<stop stop-color="white"/>
<stop offset="1" stop-color="white" stop-opacity="0.5"/>
</linearGradient>
<linearGradient id="paint28_linear_3046_83408" x1="898.268" y1="530.033" x2="898.268" y2="546.53" gradientUnits="userSpaceOnUse">
<stop stop-opacity="0.4"/>
<stop offset="1" stop-color="#666666" stop-opacity="0"/>
</linearGradient>
<linearGradient id="paint29_linear_3046_83408" x1="827.295" y1="553.821" x2="821.924" y2="531.57" gradientUnits="userSpaceOnUse">
<stop stop-opacity="0.4"/>
<stop offset="1" stop-color="#666666" stop-opacity="0"/>
</linearGradient>
<linearGradient id="paint30_linear_3046_83408" x1="1087.43" y1="522" x2="1069.53" y2="374.123" gradientUnits="userSpaceOnUse">
<stop stop-color="#D9D9D9"/>
<stop offset="1" stop-color="#D9D9D9" stop-opacity="0"/>
</linearGradient>
<linearGradient id="paint31_linear_3046_83408" x1="1092.11" y1="548.649" x2="1088.39" y2="549.086" gradientUnits="userSpaceOnUse">
<stop stop-color="white"/>
<stop offset="1" stop-color="white" stop-opacity="0.5"/>
</linearGradient>
<linearGradient id="paint32_linear_3046_83408" x1="1086.03" y1="501.931" x2="1072.76" y2="397.628" gradientUnits="userSpaceOnUse">
<stop stop-color="white"/>
<stop offset="1" stop-color="white" stop-opacity="0"/>
</linearGradient>
<linearGradient id="paint33_linear_3046_83408" x1="1084.96" y1="574.087" x2="1017.7" y2="528.694" gradientUnits="userSpaceOnUse">
<stop stop-color="white"/>
<stop offset="1" stop-color="white" stop-opacity="0.5"/>
</linearGradient>
<linearGradient id="paint34_linear_3046_83408" x1="1066.41" y1="524.725" x2="1072.5" y2="542.549" gradientUnits="userSpaceOnUse">
<stop stop-color="white"/>
<stop offset="1" stop-color="white" stop-opacity="0.5"/>
</linearGradient>
<linearGradient id="paint35_linear_3046_83408" x1="1087.11" y1="530.033" x2="1087.11" y2="546.53" gradientUnits="userSpaceOnUse">
<stop stop-opacity="0.4"/>
<stop offset="1" stop-color="#666666" stop-opacity="0"/>
</linearGradient>
<linearGradient id="paint36_linear_3046_83408" x1="1016.14" y1="553.821" x2="1010.76" y2="531.57" gradientUnits="userSpaceOnUse">
<stop stop-opacity="0.4"/>
<stop offset="1" stop-color="#666666" stop-opacity="0"/>
</linearGradient>
<linearGradient id="paint37_linear_3046_83408" x1="1257.14" y1="595.129" x2="1252.08" y2="595.076" gradientUnits="userSpaceOnUse">
<stop stop-color="white"/>
<stop offset="1" stop-color="white" stop-opacity="0.5"/>
</linearGradient>
<linearGradient id="paint38_linear_3046_83408" x1="1256.42" y1="396.755" x2="1258.11" y2="396.794" gradientUnits="userSpaceOnUse">
<stop stop-color="white"/>
<stop offset="1" stop-color="white" stop-opacity="0.5"/>
</linearGradient>
<linearGradient id="paint39_linear_3046_83408" x1="1199.95" y1="578.943" x2="1244.3" y2="578.583" gradientUnits="userSpaceOnUse">
<stop stop-color="white"/>
<stop offset="1" stop-color="white" stop-opacity="0.5"/>
</linearGradient>
<linearGradient id="paint40_linear_3046_83408" x1="1223.1" y1="493.588" x2="1203.48" y2="507.912" gradientUnits="userSpaceOnUse">
<stop stop-color="white"/>
<stop offset="1" stop-color="white" stop-opacity="0.5"/>
</linearGradient>
<linearGradient id="paint41_linear_3046_83408" x1="1218.36" y1="289.423" x2="1253.23" y2="292.793" gradientUnits="userSpaceOnUse">
<stop stop-color="white"/>
<stop offset="1" stop-color="white" stop-opacity="0.2"/>
</linearGradient>
<linearGradient id="paint42_linear_3046_83408" x1="1419.12" y1="595.129" x2="1414.07" y2="595.076" gradientUnits="userSpaceOnUse">
<stop stop-color="white"/>
<stop offset="1" stop-color="white" stop-opacity="0.5"/>
</linearGradient>
<linearGradient id="paint43_linear_3046_83408" x1="1418.41" y1="396.755" x2="1420.1" y2="396.794" gradientUnits="userSpaceOnUse">
<stop stop-color="white"/>
<stop offset="1" stop-color="white" stop-opacity="0.5"/>
</linearGradient>
<linearGradient id="paint44_linear_3046_83408" x1="1361.93" y1="578.943" x2="1406.29" y2="578.583" gradientUnits="userSpaceOnUse">
<stop stop-color="white"/>
<stop offset="1" stop-color="white" stop-opacity="0.5"/>
</linearGradient>
<linearGradient id="paint45_linear_3046_83408" x1="1385.09" y1="493.588" x2="1365.47" y2="507.912" gradientUnits="userSpaceOnUse">
<stop stop-color="white"/>
<stop offset="1" stop-color="white" stop-opacity="0.5"/>
</linearGradient>
<linearGradient id="paint46_linear_3046_83408" x1="1380.34" y1="289.423" x2="1415.21" y2="292.793" gradientUnits="userSpaceOnUse">
<stop stop-color="white"/>
<stop offset="1" stop-color="white" stop-opacity="0.2"/>
</linearGradient>
<linearGradient id="paint47_linear_3046_83408" x1="1581.11" y1="595.129" x2="1576.05" y2="595.076" gradientUnits="userSpaceOnUse">
<stop stop-color="white"/>
<stop offset="1" stop-color="white" stop-opacity="0.5"/>
</linearGradient>
<linearGradient id="paint48_linear_3046_83408" x1="1580.39" y1="396.755" x2="1582.08" y2="396.794" gradientUnits="userSpaceOnUse">
<stop stop-color="white"/>
<stop offset="1" stop-color="white" stop-opacity="0.5"/>
</linearGradient>
<linearGradient id="paint49_linear_3046_83408" x1="1523.92" y1="578.943" x2="1568.28" y2="578.583" gradientUnits="userSpaceOnUse">
<stop stop-color="white"/>
<stop offset="1" stop-color="white" stop-opacity="0.5"/>
</linearGradient>
<linearGradient id="paint50_linear_3046_83408" x1="1547.07" y1="493.588" x2="1527.45" y2="507.912" gradientUnits="userSpaceOnUse">
<stop stop-color="white"/>
<stop offset="1" stop-color="white" stop-opacity="0.5"/>
</linearGradient>
<linearGradient id="paint51_linear_3046_83408" x1="1542.33" y1="289.423" x2="1577.2" y2="292.793" gradientUnits="userSpaceOnUse">
<stop stop-color="white"/>
<stop offset="1" stop-color="white" stop-opacity="0.2"/>
</linearGradient>
<linearGradient id="paint52_linear_3046_83408" x1="1743.1" y1="595.129" x2="1738.04" y2="595.076" gradientUnits="userSpaceOnUse">
<stop stop-color="white"/>
<stop offset="1" stop-color="white" stop-opacity="0.5"/>
</linearGradient>
<linearGradient id="paint53_linear_3046_83408" x1="1742.38" y1="396.755" x2="1744.07" y2="396.794" gradientUnits="userSpaceOnUse">
<stop stop-color="white"/>
<stop offset="1" stop-color="white" stop-opacity="0.5"/>
</linearGradient>
<linearGradient id="paint54_linear_3046_83408" x1="1685.9" y1="578.943" x2="1730.26" y2="578.583" gradientUnits="userSpaceOnUse">
<stop stop-color="white"/>
<stop offset="1" stop-color="white" stop-opacity="0.5"/>
</linearGradient>
<linearGradient id="paint55_linear_3046_83408" x1="1709.06" y1="493.588" x2="1689.44" y2="507.912" gradientUnits="userSpaceOnUse">
<stop stop-color="white"/>
<stop offset="1" stop-color="white" stop-opacity="0.5"/>
</linearGradient>
<linearGradient id="paint56_linear_3046_83408" x1="1704.32" y1="289.423" x2="1739.19" y2="292.793" gradientUnits="userSpaceOnUse">
<stop stop-color="white"/>
<stop offset="1" stop-color="white" stop-opacity="0.2"/>
</linearGradient>
<linearGradient id="paint57_linear_3046_83408" x1="870.517" y1="2.59842e-06" x2="870.517" y2="332" gradientUnits="userSpaceOnUse">
<stop stop-color="white"/>
<stop offset="1" stop-color="white" stop-opacity="0.5"/>
</linearGradient>
<linearGradient id="paint58_linear_3046_83408" x1="890.254" y1="13.6465" x2="890.254" y2="353.128" gradientUnits="userSpaceOnUse">
<stop stop-color="white"/>
<stop offset="1" stop-color="white" stop-opacity="0.5"/>
</linearGradient>
<linearGradient id="paint59_linear_3046_83408" x1="883.859" y1="232.744" x2="883.859" y2="668.651" gradientUnits="userSpaceOnUse">
<stop stop-color="white"/>
<stop offset="1" stop-color="white" stop-opacity="0.5"/>
</linearGradient>
</defs>
</svg>
