<svg width="886" height="875" viewBox="0 0 886 875" fill="none" xmlns="http://www.w3.org/2000/svg">
<path d="M0 42.5C0 26.1328 0 17.9493 3.684 11.9375C5.74539 8.57365 8.57365 5.74539 11.9375 3.684C17.9493 0 26.1328 0 42.5 0H842.5C858.867 0 867.051 0 873.062 3.684C876.426 5.74539 879.255 8.57365 881.316 11.9375C885 17.9493 885 26.1328 885 42.5V832.5C885 848.867 885 857.051 881.316 863.062C879.255 866.426 876.426 869.255 873.062 871.316C867.051 875 858.867 875 842.5 875H42.5C26.1329 875 17.9493 875 11.9375 871.316C8.57365 869.255 5.74539 866.426 3.684 863.062C0 857.051 0 848.867 0 832.5V42.5Z" fill="white" fill-opacity="0.07"/>
<path d="M42.5 1H842.5C850.703 1 856.785 1.0011 861.57 1.45605C866.34 1.90961 869.718 2.80764 872.54 4.53711C875.769 6.51599 878.484 9.23084 880.463 12.46C882.192 15.2822 883.09 18.6599 883.544 23.4297C883.999 28.2146 884 34.2971 884 42.5V832.5C884 840.703 883.999 846.785 883.544 851.57C883.09 856.34 882.192 859.718 880.463 862.54C878.484 865.769 875.769 868.484 872.54 870.463C869.718 872.192 866.34 873.09 861.57 873.544C856.785 873.999 850.703 874 842.5 874H42.5C34.2971 874 28.2146 873.999 23.4297 873.544C18.6599 873.09 15.2822 872.192 12.46 870.463C9.23084 868.484 6.51599 865.769 4.53711 862.54C2.80764 859.718 1.90961 856.34 1.45605 851.57C1.0011 846.785 1 840.703 1 832.5V42.5C1 34.2971 1.0011 28.2146 1.45605 23.4297C1.90961 18.6599 2.80763 15.2822 4.53711 12.46C6.51598 9.23083 9.23083 6.51598 12.46 4.53711C15.2822 2.80763 18.6599 1.90961 23.4297 1.45605C28.2146 1.0011 34.2971 1 42.5 1Z" stroke="white" stroke-opacity="0.2" stroke-width="2"/>
<mask id="mask0_7228_283340" style="mask-type:alpha" maskUnits="userSpaceOnUse" x="35" y="108" width="635" height="608">
<path fill-rule="evenodd" clip-rule="evenodd" d="M262.695 109.739C278.197 102.24 460.695 121.239 490.695 124.239C520.695 127.239 570.195 165.239 574.695 171.239C579.195 177.24 616.695 297.738 616.695 308.239C616.695 318.739 666.195 462.739 669.195 472.739C669.698 474.416 669.271 479.782 668.196 487.631L596.998 474.02C596.867 470.212 596.368 461.496 595.423 457.085C594.241 451.571 589.515 451.177 585.577 451.965C581.638 452.753 359.115 527.977 336.663 535.461C314.213 542.944 311.062 562.637 311.062 568.151V635.5C331.003 652.5 365.715 664.531 366.503 666.5C366.947 667.613 342.854 693.589 328.792 715.51C256.981 706.943 153.851 689.301 148.695 687.239C141.195 684.239 36.6951 611.239 35.1951 602.739C33.6951 594.239 41.1951 428.239 45.6951 416.239C50.1966 404.236 168.195 156.739 170.695 149.239C196.195 138.572 250.295 115.739 262.695 109.739Z" fill="url(#paint0_linear_7228_283340)"/>
</mask>
<g mask="url(#mask0_7228_283340)">
<ellipse cx="339.602" cy="492.681" rx="19.3829" ry="7.09553" fill="#713ADA" fill-opacity="0.4"/>
<ellipse cx="194.054" cy="437.648" rx="15.9217" ry="5.10532" fill="#713ADA" fill-opacity="0.4"/>
<ellipse cx="339.602" cy="492.681" rx="19.3829" ry="7.09553" stroke="white" stroke-width="0.865308"/>
<ellipse cx="194.054" cy="437.387" rx="15.9217" ry="4.93226" stroke="white" stroke-width="0.865308"/>
<path d="M354.132 497.158C355.989 496.156 357.072 494.95 357.072 493.653C357.072 490.166 349.249 487.34 339.599 487.34C329.948 487.34 322.125 490.166 322.125 493.653C322.125 494.95 323.208 496.156 325.065 497.158" stroke="white" stroke-width="0.346123" stroke-linecap="round"/>
<path d="M205.978 440.461C207.501 439.78 208.39 438.961 208.39 438.081C208.39 435.714 201.973 433.795 194.058 433.795C186.143 433.795 179.727 435.714 179.727 438.081C179.727 438.961 180.615 439.78 182.138 440.461" stroke="white" stroke-width="0.346123" stroke-linecap="round"/>
<path d="M383.734 477.451L383.943 477.073L383.734 477.451ZM274.013 426.831L274.155 426.422L274.041 426.383L273.924 426.407L274.013 426.831ZM387.628 466.289L387.752 466.703C387.932 466.65 388.057 466.486 388.061 466.298C388.065 466.111 387.947 465.942 387.77 465.88L387.628 466.289ZM266.328 500.363L266.496 499.965V499.965L266.328 500.363ZM164.887 457.324L164.718 457.723L164.887 457.324ZM165.003 455.691L164.893 455.273L164.893 455.273L165.003 455.691ZM278.34 498.763L278.469 499.176L278.474 499.174L278.34 498.763ZM272.291 500.656L272.162 500.243V500.243L272.291 500.656ZM171.128 454.07L171.239 454.489L171.246 454.487L171.253 454.484L171.128 454.07ZM173.81 443.59L173.637 443.986L173.64 443.988L173.81 443.59ZM243.295 424.387L243.447 423.982L243.445 423.982L243.295 424.387ZM244.939 425.004L245.117 424.61L245.104 424.604L245.091 424.599L244.939 425.004ZM360.839 501.247L360.679 500.846L360.839 501.247ZM188.758 428.966L188.875 429.383L188.758 428.966ZM339.084 504.795V504.362C330.482 504.362 322.755 502.982 317.355 500.791L317.192 501.192L317.029 501.593C322.559 503.836 330.404 505.228 339.084 505.228V504.795ZM383.734 477.451L383.525 477.83C385.42 478.877 387.055 480.024 388.268 481.22C389.485 482.42 390.247 483.639 390.458 484.83C390.666 485.998 390.355 487.201 389.295 488.42C388.223 489.653 386.386 490.896 383.566 492.084L383.734 492.483L383.902 492.881C386.782 491.668 388.754 490.361 389.948 488.987C391.155 487.6 391.57 486.139 391.31 484.679C391.055 483.242 390.159 481.869 388.876 480.604C387.589 479.335 385.882 478.144 383.943 477.073L383.734 477.451ZM274.013 426.831L273.871 427.24L387.486 466.698L387.628 466.289L387.77 465.88L274.155 426.422L274.013 426.831ZM266.328 500.363L266.496 499.965L165.056 456.926L164.887 457.324L164.718 457.723L266.159 500.761L266.328 500.363ZM164.887 457.324L165.056 456.926C164.676 456.765 164.716 456.215 165.114 456.11L165.003 455.691L164.893 455.273C163.697 455.59 163.58 457.24 164.718 457.723L164.887 457.324ZM295.473 496.142V496.575C304.727 496.575 311.607 499.217 317.193 501.644L317.365 501.247L317.537 500.851C311.915 498.408 304.905 495.709 295.473 495.709V496.142ZM278.34 498.763L278.474 499.174C283.532 497.52 289.803 496.575 295.473 496.575V496.142V495.709C289.72 495.709 283.358 496.667 278.205 498.352L278.34 498.763ZM272.291 500.656L272.421 501.068L278.469 499.176L278.34 498.763L278.21 498.35L272.162 500.243L272.291 500.656ZM165.003 455.691L165.114 456.11L171.239 454.489L171.128 454.07L171.017 453.652L164.893 455.273L165.003 455.691ZM266.328 500.363L266.159 500.761C268.143 501.604 270.363 501.712 272.421 501.068L272.291 500.656L272.162 500.243C270.3 500.825 268.292 500.727 266.496 499.965L266.328 500.363ZM383.734 477.451L383.943 477.073C381.632 475.795 380.619 474.049 380.619 472.514H380.186H379.754C379.754 474.452 381.025 476.449 383.525 477.83L383.734 477.451ZM380.186 472.514H380.619C380.619 471.408 381.056 470.373 382.153 469.405C383.266 468.422 385.059 467.51 387.752 466.703L387.628 466.289L387.504 465.874C384.757 466.697 382.828 467.654 381.581 468.756C380.317 469.871 379.754 471.135 379.754 472.514H380.186ZM173.81 443.59L173.984 443.194C172.332 442.469 171.013 441.634 170.115 440.755C169.214 439.874 168.769 438.985 168.769 438.139H168.337H167.904C167.904 439.302 168.515 440.4 169.51 441.374C170.507 442.349 171.925 443.235 173.637 443.986L173.81 443.59ZM224.258 421.543V421.976C231.762 421.976 238.491 423.068 243.144 424.793L243.295 424.387L243.445 423.982C238.669 422.211 231.832 421.11 224.258 421.11V421.543ZM262.419 427.946V427.514C255.278 427.514 248.985 426.359 245.117 424.61L244.939 425.004L244.76 425.398C248.781 427.217 255.21 428.379 262.419 428.379V427.946ZM274.013 426.831L273.924 426.407C270.604 427.107 266.657 427.514 262.419 427.514V427.946V428.379C266.71 428.379 270.717 427.967 274.102 427.254L274.013 426.831ZM173.81 443.59L173.64 443.988C175.128 444.625 176.288 445.349 177.069 446.11C177.85 446.872 178.223 447.639 178.223 448.377H178.656H179.089C179.089 447.328 178.556 446.351 177.673 445.491C176.79 444.63 175.527 443.854 173.981 443.192L173.81 443.59ZM178.656 448.377H178.223C178.223 449.309 177.624 450.271 176.367 451.202C175.117 452.127 173.287 452.966 171.003 453.656L171.128 454.07L171.253 454.484C173.588 453.779 175.522 452.904 176.881 451.898C178.234 450.897 179.089 449.709 179.089 448.377H178.656ZM244.939 425.004L245.091 424.599L243.447 423.982L243.295 424.387L243.143 424.793L244.787 425.409L244.939 425.004ZM360.839 501.247L360.679 500.846C355.285 503.005 347.614 504.362 339.084 504.362V504.795V505.228C347.693 505.228 355.478 503.859 361 501.649L360.839 501.247ZM383.734 492.483L383.566 492.084C377.875 494.482 374.393 495.775 371.218 496.917C368.04 498.059 365.158 499.053 360.679 500.846L360.839 501.247L361 501.649C365.461 499.863 368.326 498.876 371.511 497.731C374.698 496.586 378.194 495.286 383.902 492.881L383.734 492.483ZM168.337 438.139H168.769C168.769 437.449 169.221 436.733 170.237 435.976C171.244 435.225 172.721 434.498 174.574 433.774C178.277 432.327 183.355 430.938 188.875 429.383L188.758 428.966L188.641 428.55C183.144 430.098 178.012 431.502 174.259 432.968C172.383 433.701 170.82 434.462 169.72 435.282C168.628 436.096 167.904 437.036 167.904 438.139H168.337ZM188.758 428.966L188.875 429.383C195.236 427.591 202.193 425.738 208.512 424.333C214.841 422.925 220.493 421.976 224.258 421.976V421.543V421.11C220.389 421.11 214.655 422.08 208.324 423.488C201.983 424.898 195.007 426.757 188.641 428.55L188.758 428.966Z" fill="white"/>
<path d="M315.246 511.464C321.189 513.752 329.309 514.491 338.705 514.491C348.415 514.491 357.288 512.874 363.669 510.079C372.79 506.962 392.152 500.258 395.487 495.045C398.823 489.833 397.456 482.92 386.351 475.843M315.435 511.521C309.341 509.008 305.806 506.962 295.647 506.962C287.634 506.962 281.924 509.791 274.274 512.064C270.293 513.696 265.361 514.491 262.189 512.858L158.777 468.617C158.323 468.423 158.121 467.894 158.336 467.45C159.221 465.619 161.389 461.133 162.593 458.654C163.087 457.639 163.764 456.726 164.589 455.956L164.639 455.909M169.312 436.09C168.014 437.215 167.062 438.772 165.504 442.407C164.12 445.637 167.148 448.339 170.35 449.762C172.773 450.839 172.167 453.569 169.658 454.434" stroke="white" stroke-width="0.865308"/>
<ellipse cx="272.284" cy="462.135" rx="65.4173" ry="20.5078" stroke="white" stroke-width="0.865308"/>
<ellipse cx="272.282" cy="463.608" rx="58.1487" ry="16.2678" stroke="white" stroke-width="0.865308"/>
<path d="M327.834 468.452C327.306 467.399 326.382 466.381 325.105 465.409C317.363 459.516 296.635 455.299 272.279 455.299C247.924 455.299 227.195 459.516 219.454 465.409C218.178 466.38 217.255 467.397 216.727 468.447" stroke="white" stroke-width="0.865308"/>
<path d="M335.238 490.692C335.658 490.7 336.087 490.772 336.419 490.92L339.874 492.455L343.647 491.044C344.003 490.911 344.441 490.854 344.862 490.861C345.282 490.869 345.711 490.941 346.044 491.089C346.352 491.226 346.641 491.464 346.604 491.81C346.587 491.974 346.496 492.11 346.381 492.213C346.266 492.316 346.112 492.399 345.935 492.466L342.656 493.692L345.63 495.015C345.938 495.152 346.227 495.39 346.19 495.735C346.173 495.9 346.082 496.036 345.967 496.139C345.851 496.242 345.698 496.325 345.521 496.392C345.165 496.525 344.727 496.583 344.306 496.575C343.886 496.568 343.457 496.495 343.124 496.348L339.668 494.812L335.896 496.224C335.54 496.356 335.101 496.414 334.681 496.406C334.261 496.399 333.832 496.326 333.5 496.179C333.192 496.042 332.902 495.803 332.938 495.458C332.956 495.294 333.048 495.158 333.163 495.055C333.278 494.952 333.431 494.867 333.608 494.801L336.886 493.573L333.914 492.253C333.606 492.116 333.316 491.877 333.353 491.532C333.37 491.368 333.462 491.232 333.577 491.129C333.692 491.026 333.845 490.941 334.022 490.875C334.378 490.742 334.817 490.685 335.238 490.692Z" stroke="white" stroke-width="0.519185"/>
<path d="M191.273 435.397C191.622 435.403 191.975 435.459 192.246 435.569L195.178 436.768L198.377 435.667C198.668 435.567 199.03 435.523 199.379 435.528C199.727 435.534 200.08 435.59 200.351 435.7C200.486 435.755 200.6 435.824 200.68 435.908C200.762 435.994 200.816 436.106 200.802 436.233C200.788 436.356 200.713 436.456 200.622 436.531C200.53 436.607 200.407 436.669 200.262 436.719L197.437 437.69L200.002 438.739C200.137 438.794 200.251 438.863 200.331 438.947C200.413 439.034 200.468 439.146 200.453 439.273C200.439 439.396 200.365 439.495 200.273 439.57C200.182 439.646 200.058 439.708 199.913 439.758C199.622 439.858 199.26 439.902 198.911 439.896C198.563 439.891 198.21 439.835 197.939 439.725L195.008 438.526L191.809 439.627C191.518 439.727 191.156 439.771 190.807 439.766C190.458 439.76 190.105 439.705 189.834 439.594C189.699 439.538 189.585 439.47 189.505 439.386C189.423 439.299 189.369 439.188 189.384 439.061C189.398 438.938 189.472 438.838 189.563 438.763C189.655 438.687 189.778 438.625 189.923 438.575L192.748 437.603L190.183 436.555C190.047 436.499 189.934 436.431 189.854 436.347C189.772 436.26 189.718 436.148 189.732 436.021C189.747 435.899 189.821 435.799 189.912 435.724C190.004 435.648 190.126 435.586 190.271 435.536C190.562 435.436 190.924 435.392 191.273 435.397Z" stroke="white" stroke-width="0.346123"/>
<path d="M270.898 427.437L274.706 426.417V289.68" stroke="white" stroke-width="0.865308"/>
<path d="M273.154 431.68L178.454 457.365C177.501 457.624 177.413 458.942 178.324 459.325L264.746 495.606C266.373 496.289 268.186 496.386 269.876 495.88L371.184 465.578C372.153 465.288 372.178 463.925 371.22 463.6L277.595 431.818C276.162 431.332 274.616 431.283 273.154 431.68Z" stroke="white" stroke-width="0.346123"/>
<path d="M385.067 624.588L381.883 621.686L384.147 612.84C384.855 609.892 386.539 603.57 387.615 601.872C388.96 599.749 392.073 598.616 394.267 597.696C396.022 596.96 469.917 568.234 506.644 553.963L541.532 566.984L384.147 631.382L385.067 630.179L385.563 628.339L385.067 624.588Z" fill="url(#paint1_linear_7228_283340)" fill-opacity="0.5"/>
<path d="M269.687 444.484C269.687 445.392 268.951 446.128 268.043 446.128C267.135 446.128 266.399 445.392 266.399 444.484C266.399 443.576 267.135 442.84 268.043 442.84C268.951 442.84 269.687 443.576 269.687 444.484Z" stroke="white" stroke-width="0.346123"/>
<path d="M262.245 444.83C262.245 445.738 261.509 446.474 260.601 446.474C259.693 446.474 258.957 445.738 258.957 444.83C258.957 443.922 259.693 443.186 260.601 443.186C261.509 443.186 262.245 443.922 262.245 444.83Z" stroke="white" stroke-width="0.346123"/>
<path d="M254.977 445.349C254.977 446.257 254.24 446.993 253.332 446.993C252.424 446.993 251.688 446.257 251.688 445.349C251.688 444.441 252.424 443.705 253.332 443.705C254.24 443.705 254.977 444.441 254.977 445.349Z" stroke="white" stroke-width="0.346123"/>
<path d="M247.881 446.041C247.881 446.949 247.222 447.686 246.41 447.686C245.598 447.686 244.939 446.949 244.939 446.041C244.939 445.133 245.598 444.397 246.41 444.397C247.222 444.397 247.881 445.133 247.881 446.041Z" stroke="white" stroke-width="0.346123"/>
<path d="M241.305 447.08C241.305 447.988 240.646 448.724 239.834 448.724C239.021 448.724 238.363 447.988 238.363 447.08C238.363 446.172 239.021 445.436 239.834 445.436C240.646 445.436 241.305 446.172 241.305 447.08Z" stroke="white" stroke-width="0.346123"/>
<path d="M234.901 448.637C234.901 449.545 234.282 450.281 233.517 450.281C232.752 450.281 232.132 449.545 232.132 448.637C232.132 447.729 232.752 446.993 233.517 446.993C234.282 446.993 234.901 447.729 234.901 448.637Z" stroke="white" stroke-width="0.346123"/>
<path d="M229.016 450.136C229.055 451.043 228.467 451.805 227.703 451.837C226.939 451.87 226.288 451.161 226.25 450.254C226.211 449.346 226.799 448.585 227.563 448.552C228.327 448.52 228.977 449.229 229.016 450.136Z" stroke="white" stroke-width="0.346123"/>
<path d="M223.824 451.864C223.87 452.771 223.366 453.534 222.697 453.568C222.029 453.601 221.45 452.894 221.404 451.987C221.358 451.08 221.862 450.318 222.531 450.284C223.199 450.25 223.778 450.957 223.824 451.864Z" stroke="white" stroke-width="0.346123"/>
<path d="M219.117 453.848C219.293 454.819 218.979 455.69 218.415 455.792C217.85 455.894 217.25 455.19 217.074 454.219C216.897 453.247 217.212 452.377 217.776 452.274C218.34 452.172 218.941 452.876 219.117 453.848Z" stroke="white" stroke-width="0.346123"/>
<path d="M215.246 456.479C215.553 457.592 215.428 458.597 214.967 458.724C214.507 458.851 213.884 458.051 213.578 456.939C213.271 455.826 213.396 454.821 213.857 454.694C214.318 454.567 214.94 455.366 215.246 456.479Z" stroke="white" stroke-width="0.346123"/>
<path d="M212.426 459.237C213.108 460.168 213.39 461.122 213.055 461.367C212.721 461.611 211.897 461.055 211.215 460.123C210.533 459.192 210.252 458.239 210.586 457.994C210.921 457.749 211.745 458.305 212.426 459.237Z" stroke="white" stroke-width="0.346123"/>
<path d="M277.302 444.484C277.302 445.392 276.565 446.128 275.657 446.128C274.749 446.128 274.013 445.392 274.013 444.484C274.013 443.576 274.749 442.84 275.657 442.84C276.565 442.84 277.302 443.576 277.302 444.484Z" stroke="white" stroke-width="0.346123"/>
<path d="M284.57 444.83C284.57 445.738 283.834 446.474 282.926 446.474C282.018 446.474 281.282 445.738 281.282 444.83C281.282 443.922 282.018 443.186 282.926 443.186C283.834 443.186 284.57 443.922 284.57 444.83Z" stroke="white" stroke-width="0.346123"/>
<path d="M291.493 445.349C291.493 446.257 290.756 446.993 289.848 446.993C288.94 446.993 288.204 446.257 288.204 445.349C288.204 444.441 288.94 443.705 289.848 443.705C290.756 443.705 291.493 444.441 291.493 445.349Z" stroke="white" stroke-width="0.346123"/>
<path d="M297.723 445.868C297.723 446.776 297.064 447.513 296.252 447.513C295.439 447.513 294.781 446.776 294.781 445.868C294.781 444.96 295.439 444.224 296.252 444.224C297.064 444.224 297.723 444.96 297.723 445.868Z" stroke="white" stroke-width="0.346123"/>
<path d="M303.78 446.907C303.78 447.815 303.121 448.551 302.309 448.551C301.496 448.551 300.838 447.815 300.838 446.907C300.838 445.999 301.496 445.263 302.309 445.263C303.121 445.263 303.78 445.999 303.78 446.907Z" stroke="white" stroke-width="0.346123"/>
<path d="M309.491 447.945C309.491 448.853 308.91 449.589 308.193 449.589C307.476 449.589 306.895 448.853 306.895 447.945C306.895 447.037 307.476 446.301 308.193 446.301C308.91 446.301 309.491 447.037 309.491 447.945Z" stroke="white" stroke-width="0.346123"/>
<path d="M314.51 449.157C314.51 450.065 313.929 450.801 313.212 450.801C312.495 450.801 311.914 450.065 311.914 449.157C311.914 448.249 312.495 447.513 313.212 447.513C313.929 447.513 314.51 448.249 314.51 449.157Z" stroke="white" stroke-width="0.346123"/>
<path d="M319.698 450.815C319.627 451.72 318.991 452.409 318.276 452.353C317.562 452.298 317.039 451.519 317.11 450.614C317.18 449.709 317.816 449.02 318.531 449.075C319.246 449.131 319.768 449.909 319.698 450.815Z" stroke="white" stroke-width="0.346123"/>
<path d="M324.04 452.535C323.928 453.436 323.338 454.105 322.722 454.029C322.105 453.953 321.696 453.16 321.807 452.259C321.918 451.358 322.509 450.689 323.125 450.766C323.742 450.842 324.151 451.634 324.04 452.535Z" stroke="white" stroke-width="0.346123"/>
<path d="M327.578 454.55C327.325 455.422 326.748 456.021 326.289 455.888C325.83 455.755 325.663 454.941 325.916 454.068C326.168 453.196 326.745 452.597 327.204 452.73C327.663 452.863 327.83 453.678 327.578 454.55Z" stroke="white" stroke-width="0.346123"/>
<path d="M330.606 456.7C330.253 457.604 329.606 458.195 329.161 458.021C328.716 457.847 328.641 456.974 328.993 456.071C329.346 455.167 329.993 454.576 330.438 454.75C330.883 454.924 330.958 455.797 330.606 456.7Z" stroke="white" stroke-width="0.346123"/>
<path d="M332.988 459.463C332.358 460.273 331.569 460.712 331.226 460.445C330.883 460.178 331.115 459.306 331.745 458.496C332.376 457.687 333.164 457.247 333.508 457.515C333.851 457.782 333.618 458.654 332.988 459.463Z" stroke="white" stroke-width="0.346123"/>
<path d="M334.29 462.768C333.339 463.392 332.4 463.642 332.192 463.325C331.984 463.009 332.587 462.247 333.538 461.622C334.489 460.998 335.428 460.749 335.635 461.065C335.843 461.381 335.241 462.144 334.29 462.768Z" stroke="white" stroke-width="0.346123"/>
<path d="M386.676 476.054C384.427 474.41 385.211 473.005 388.667 471.814L413.864 464.409M540.665 428.021L496.705 440.992" stroke="white" stroke-width="0.865308"/>
<path d="M530.982 384.172L486.959 396.103M389.445 422.195L408.694 416.918" stroke="white" stroke-width="0.865308"/>
<path d="M530.982 381.541L482.013 394.696M389.445 419.564L415.312 412.615" stroke="white" stroke-width="0.346123"/>
<path d="M506.433 553.945L534.541 565.626C537.879 567.013 541.627 567.04 544.984 565.701L573.581 554.294L578.942 551.978C591.864 546.398 600.232 533.67 600.232 519.595V464.302C600.232 450.284 593.656 444.039 584.57 446.474C579.465 447.842 333.563 529.441 330.17 530.554C315.19 535.465 304.297 550.391 304.297 568.041V635.674C304.297 648.699 317.085 657.878 329.426 653.709L330.17 653.458L383.336 631.24C384.624 630.702 385.463 629.442 385.463 628.046V625.475C385.463 624.377 384.852 623.371 383.878 622.864L381.136 621.439" stroke="white" stroke-width="2.2498"/>
<path d="M310.352 597.817H312.169C312.169 592.048 312.169 583.505 312.169 576.444C312.169 569.383 309.313 544.168 338.128 534.563C360.531 527.095 579.462 453.31 582.664 452.185C585.866 451.061 589.154 450.801 590.106 451.493" stroke="white" stroke-width="0.346123"/>
<path d="M186.617 193.977L289.762 214.571" stroke="white" stroke-width="1.03837"/>
<path d="M268.735 275.142L241.261 268.066C240.713 267.925 240.18 268.338 240.18 268.904V281.294C240.18 282.869 241.244 284.246 242.768 284.643L265.687 290.616C267.693 291.139 269.791 291.204 271.826 290.808L302.049 284.92L268.735 275.142Z" stroke="white" stroke-width="1.03837"/>
<path d="M176.643 432.601C150.459 439.406 124.597 446.134 123.709 446.417C112.078 450.113 103.547 462.259 103.547 476.673L103.607 525.613C103.623 538.687 111.005 550.637 122.69 556.503L315.115 653.109M216.015 422.304C256.687 411.76 273.276 407.621 274.705 407.621" stroke="white" stroke-width="1.03837"/>
<path d="M310.008 599.022V568.42C310.008 552.521 319.819 539.076 333.31 534.652C336.367 533.65 580.684 451.177 584.398 450.281C590.714 448.758 595.906 450.883 595.906 463.863V491.637L310.008 599.022ZM310.008 599.022V622.983M384.684 624.468L329.015 647.272C319.906 651.004 309.922 644.304 309.922 634.461V622.983M594.126 492.48V517.36C594.126 530.739 586.02 542.783 573.626 547.821L542.718 560.385C540.594 561.248 538.215 561.234 536.102 560.344L514.308 551.17" stroke="white" stroke-width="1.03837"/>
<path d="M310.438 609.411L314.053 611.145C315.777 611.971 317.765 612.048 319.548 611.357L363.74 594.228M586.298 495.277V505.776C586.298 507.944 584.951 509.884 582.919 510.641L554.195 521.348M363.74 594.228L365.498 593.547C365.599 593.508 365.699 593.473 365.8 593.44M363.74 594.228L365.8 593.44M554.195 521.348L554.026 521.412M554.195 521.348C554.138 521.369 554.082 521.39 554.026 521.412M365.8 593.44L554.026 521.412M365.8 593.44C369.114 592.377 372.567 594.846 372.567 598.388V620.238C372.567 622.682 375.031 624.356 377.303 623.456L379.607 622.542C381.21 621.907 382.394 620.516 382.764 618.831L385.566 606.092C386.311 602.705 388.697 599.914 391.926 598.651L525.789 546.315C528.37 545.307 531.288 546.502 532.419 549.031L536.813 558.856C537.533 560.464 539.392 561.22 541.029 560.569L542.281 560.072C543.594 559.55 544.511 558.344 544.661 556.938L547.548 529.909C547.956 526.086 550.457 522.814 554.026 521.412" stroke="white" stroke-width="1.55755"/>
<path d="M374.386 623.515L332.852 606.555" stroke="white" stroke-width="1.55755"/>
<path d="M304.298 566.665L103.633 476.846" stroke="white" stroke-width="1.55755"/>
<path d="M387.195 314.254L293.828 286.65" stroke="white" stroke-width="1.55755"/>
<path d="M240.007 269.344L182.031 249.355" stroke="white" stroke-width="1.03837"/>
<path d="M356.391 581.721V584.344C356.391 584.831 356.88 585.165 357.334 584.989L372.65 579.037C372.916 578.934 373.091 578.678 373.091 578.392V575.318M408.136 562.598V565.221C408.136 565.707 408.625 566.042 409.079 565.866L424.395 559.914C424.661 559.811 424.836 559.554 424.836 559.269V556.195M456.766 544.6V547.222C456.766 547.709 457.256 548.044 457.709 547.867L473.025 541.916C473.291 541.812 473.467 541.556 473.467 541.27V538.196M501.589 527.466V530.089C501.589 530.576 502.079 530.911 502.532 530.734L517.848 524.782C518.114 524.679 518.29 524.423 518.29 524.137V521.063M544.509 510.852V513.475C544.509 513.962 544.998 514.297 545.452 514.12L560.768 508.169C561.034 508.065 561.209 507.809 561.209 507.523V504.449" stroke="white" stroke-width="1.03837"/>
<path fill-rule="evenodd" clip-rule="evenodd" d="M272.143 455.09C299.441 455.09 322.214 460.719 327.455 468.2C320.356 474.842 298.28 479.687 272.143 479.688C246.004 479.688 223.926 474.842 216.828 468.2C222.069 460.719 244.843 455.09 272.143 455.09Z" fill="#713ADA" fill-opacity="0.1"/>
<path d="M269.456 275.438L240.739 268.036C240.51 271.587 240.052 279.022 240.052 280.358C240.052 282.028 240.739 284.117 243.164 284.628C245.589 285.139 257.586 287.819 261.288 289.478C264.249 290.805 267.967 290.967 269.456 290.882V275.438Z" fill="#D9D9D9" fill-opacity="0.07"/>
<path d="M289.773 214.666L186.505 194.01C186.046 194.58 185.112 195.856 185.055 196.4C184.984 197.081 178.913 243.088 178.913 243.302C178.913 243.516 179.035 245.782 179.342 246.639C179.586 247.324 180.802 248.355 181.38 248.784L294.6 276.082H295.939C295.223 274.907 293.761 272.262 293.649 271.078C293.508 269.598 289.103 218.753 288.962 217.132C288.85 215.836 289.456 214.948 289.773 214.666Z" fill="#D9D9D9" fill-opacity="0.07"/>
<path d="M387.673 314.347L294.6 286.34L274.774 290.278L274.44 417.494V426.786L386.919 466.053C387.229 466.053 387.935 465.988 388.285 465.725L388.34 465.684C388.75 465.378 389.051 465.153 389.051 464.577V424.785C388.868 393.811 388.613 330.563 389.051 325.359C389.488 320.156 388.314 315.85 387.673 314.347Z" fill="#D9D9D9" fill-opacity="0.07"/>
<path d="M304.256 566.649L103.619 477.072L103.164 511.458C103.375 517.747 103.619 530.96 103.619 530.96C103.619 530.96 269.253 610.577 304.256 627.377V566.649Z" fill="#D9D9D9" fill-opacity="0.07"/>
<path d="M169.549 440.675C168.473 439.659 168.403 438.259 168.503 437.686C167.905 437.686 165.29 442.319 165.065 443.813C164.841 445.308 166.485 447.4 167.606 448.297C168.727 449.193 171.491 450.314 171.865 451.584C172.164 452.6 170.844 453.801 170.146 454.274C170.321 454.399 171.461 454.259 174.63 452.705C178.59 450.762 178.216 449.492 178.515 448.297C178.814 447.101 177.245 445.382 175.526 444.336C173.808 443.29 170.894 441.945 169.549 440.675Z" fill="#D9D9D9" fill-opacity="0.07"/>
<path d="M355.616 512.385L354.196 503.865C350.894 504.107 343.746 504.591 341.574 504.591H330.958L330.546 514.137C331.838 514.301 335.648 514.631 340.556 514.631C345.463 514.631 352.641 513.134 355.616 512.385Z" fill="#D9D9D9" fill-opacity="0.07"/>
<path d="M319.111 512.834L320.936 502.539L316.482 501.152C315.582 503.732 313.678 509.286 313.27 510.863C314.087 511.389 317.504 512.396 319.111 512.834Z" fill="#D9D9D9" fill-opacity="0.07"/>
<path d="M265.781 513.778L269.038 501.152L266.998 500.626L164.969 457.489L164.195 456.651L162.905 457.94C161.433 460.82 158.45 466.761 158.295 467.483C158.14 468.205 158.918 468.73 159.327 468.902C192.086 482.875 258.119 511.052 260.176 511.974C262.234 512.895 264.77 513.56 265.781 513.778Z" fill="#D9D9D9" fill-opacity="0.07"/>
<path d="M309.027 548.377C310.821 543.492 311.853 543.692 313.27 542.378L110.353 456.039C109.113 457.419 107.712 458.981 106.95 461.258C106.189 463.535 105.132 466.298 104.432 468.902L305.665 557.089C305.923 555.621 307.234 553.262 309.027 548.377Z" fill="#D9D9D9" fill-opacity="0.07"/>
<path d="M481.824 397.635H481.391V398.21L481.943 398.05L481.824 397.635ZM413.596 415.435L413.705 415.854V415.854L413.596 415.435ZM487.573 395.977L487.692 396.393V396.393L487.573 395.977ZM407.805 418.816H407.372L407.372 418.817L407.805 418.816ZM409.617 416.472L409.508 416.053H409.508L409.617 416.472ZM409.788 458.827L409.67 458.41L409.788 458.827ZM407.845 459.393L407.413 459.393C407.413 459.53 407.478 459.659 407.587 459.74C407.697 459.822 407.839 459.847 407.97 459.807L407.845 459.393ZM487.801 436.662L487.683 436.246L487.801 436.662ZM489.562 436.143L489.69 436.556L489.994 436.462V436.143H489.562ZM479.886 387.435L479.991 387.854V387.854L479.886 387.435ZM417.239 403.217L417.133 402.797L417.239 403.217ZM417.239 403.217L417.345 403.637L479.991 387.854L479.886 387.435L479.78 387.015L417.133 402.797L417.239 403.217ZM487.801 436.662L487.683 436.246L409.67 458.41L409.788 458.827L409.906 459.243L487.919 437.078L487.801 436.662ZM407.845 459.393L408.278 459.392L408.237 418.816L407.805 418.816L407.372 418.817L407.413 459.393L407.845 459.393ZM489.562 397.473H489.129V436.143H489.562H489.994V397.473H489.562ZM481.824 388.945H481.391V397.635H481.824H482.256V388.945H481.824ZM481.824 397.635L481.943 398.05L487.692 396.393L487.573 395.977L487.453 395.561L481.704 397.219L481.824 397.635ZM409.617 416.472L409.726 416.89L413.705 415.854L413.596 415.435L413.487 415.016L409.508 416.053L409.617 416.472ZM415.408 413.09H415.841V405.566H415.408H414.975V413.09H415.408ZM413.596 415.435L413.705 415.854C414.963 415.526 415.841 414.39 415.841 413.09H415.408H414.975C414.975 413.996 414.364 414.788 413.487 415.016L413.596 415.435ZM489.562 397.473H489.994C489.994 396.149 488.725 395.194 487.453 395.561L487.573 395.977L487.692 396.393C488.412 396.185 489.129 396.725 489.129 397.473H489.562ZM407.805 418.816H408.237C408.237 417.91 408.849 417.119 409.726 416.89L409.617 416.472L409.508 416.053C408.25 416.381 407.372 417.516 407.372 418.816H407.805ZM409.788 458.827L409.67 458.41C409.171 458.552 408.684 458.694 408.322 458.801C408.141 458.854 407.991 458.898 407.886 458.929C407.834 458.945 407.792 458.957 407.764 458.966C407.75 458.97 407.74 458.973 407.732 458.975C407.729 458.976 407.726 458.977 407.724 458.978C407.723 458.978 407.723 458.978 407.722 458.978C407.722 458.978 407.722 458.978 407.722 458.978C407.722 458.978 407.721 458.978 407.721 458.978C407.721 458.978 407.721 458.978 407.721 458.978C407.721 458.978 407.721 458.978 407.845 459.393C407.97 459.807 407.97 459.807 407.97 459.807C407.97 459.807 407.97 459.807 407.97 459.807C407.97 459.807 407.97 459.807 407.97 459.807C407.97 459.807 407.97 459.807 407.97 459.807C407.971 459.807 407.971 459.807 407.972 459.807C407.974 459.806 407.977 459.805 407.98 459.804C407.987 459.802 407.998 459.799 408.012 459.795C408.04 459.787 408.08 459.774 408.132 459.759C408.236 459.728 408.386 459.684 408.566 459.631C408.926 459.525 409.411 459.384 409.906 459.243L409.788 458.827ZM487.801 436.662L487.919 437.078C488.442 436.93 488.885 436.799 489.196 436.706C489.352 436.66 489.475 436.622 489.559 436.597C489.602 436.584 489.634 436.574 489.656 436.567C489.667 436.564 489.675 436.561 489.681 436.559C489.684 436.558 489.686 436.558 489.688 436.557C489.688 436.557 489.689 436.557 489.689 436.557C489.689 436.557 489.69 436.557 489.69 436.557C489.69 436.557 489.69 436.557 489.69 436.557C489.69 436.557 489.69 436.557 489.69 436.557C489.69 436.557 489.69 436.556 489.562 436.143C489.434 435.73 489.434 435.73 489.434 435.73C489.434 435.73 489.434 435.73 489.434 435.73C489.434 435.73 489.433 435.73 489.433 435.73C489.433 435.73 489.433 435.73 489.433 435.73C489.433 435.73 489.432 435.73 489.432 435.731C489.43 435.731 489.428 435.732 489.426 435.732C489.42 435.734 489.412 435.737 489.402 435.74C489.38 435.746 489.348 435.756 489.307 435.769C489.224 435.794 489.102 435.831 488.948 435.877C488.64 435.97 488.201 436.099 487.683 436.246L487.801 436.662ZM479.886 387.435L479.991 387.854C480.702 387.675 481.391 388.212 481.391 388.945H481.824H482.256C482.256 387.649 481.037 386.698 479.78 387.015L479.886 387.435ZM417.239 403.217L417.133 402.797C415.865 403.117 414.975 404.258 414.975 405.566H415.408H415.841C415.841 404.655 416.46 403.859 417.345 403.637L417.239 403.217Z" fill="white"/>
<path d="M417.672 456.682V406.014C417.672 405.617 417.941 405.272 418.325 405.175L481.657 389.154V438.606" stroke="white" stroke-width="0.346123"/>
<path d="M407.93 459.286L412.391 461.433C415.074 462.724 418.138 462.982 420.999 462.158L495.904 440.57C496.523 440.392 496.584 439.539 495.997 439.274L489.383 436.287" stroke="white" stroke-width="0.865308"/>
<path d="M496.647 439.711V441.866C496.647 442.175 496.443 442.446 496.148 442.531L421.016 464.32C418.145 465.153 415.068 464.895 412.376 463.595L408.678 461.81C408.02 461.493 407.602 460.827 407.602 460.096V459.015" stroke="white" stroke-width="0.346123"/>
<path d="M296.075 276.441L182.784 249.412C180.383 248.839 178.796 246.552 179.1 244.102L184.95 196.929C185.217 194.774 186.885 193.06 189.032 192.735L206.515 190.083M301.959 209.38L213.871 191.57M386.326 466.596L387.726 466.221C388.483 466.018 389.009 465.333 389.009 464.549V321.352C389.009 313.148 383.753 305.866 375.965 303.284L298.876 277.714C295.917 276.732 293.828 274.081 293.567 270.975L289.035 216.952C288.906 215.416 289.986 214.04 291.509 213.8L308.258 211.161C331.273 207.553 355.814 204.489 379.587 201.161C381.157 200.941 382.725 201.157 384.136 201.746M591.924 445.87L537.459 426.663C533.285 425.211 530.487 421.275 530.487 416.855V292.333C530.487 285.225 529.645 278.143 527.978 271.233C521.058 242.538 516.901 214.226 510.543 186.535C510.285 185.41 508.14 182.8 504.095 183.42L497.971 184.293M497.971 184.293L436.693 193.028C434.641 193.32 432.96 194.804 432.416 196.804L429.292 208.279C428.579 210.899 426.4 212.86 423.72 213.295L402.315 216.762C399.773 217.174 397.22 216.406 395.339 214.742M497.971 184.293L489.17 182.8M497.971 184.293L506.604 185.757M395.339 214.742C394.875 214.331 394.451 213.865 394.079 213.349L387.829 204.675C386.875 203.351 385.588 202.351 384.136 201.746M395.339 214.742L418.96 211.225C421.641 210.791 423.82 208.83 424.533 206.21L427.657 194.735C428.201 192.735 429.882 191.251 431.934 190.958L489.17 182.8M395.339 214.742L395.326 214.744M384.136 201.746C382.428 200.89 380.485 200.143 379.404 199.688C377.986 199.091 376.408 198.87 374.828 199.092C351.055 202.42 326.513 205.484 303.498 209.092L301.44 209.416M384.136 201.746C384.704 202.03 385.245 202.327 385.721 202.63M490.163 182.658L489.17 182.8M489.17 182.8L405.055 168.531C401.358 167.904 397.589 167.827 393.869 168.301L339.149 175.207C337.092 175.464 335.386 176.919 334.807 178.909L331.638 189.796C330.88 192.404 328.667 194.326 325.98 194.714L306.302 198.004C304.02 198.333 301.745 197.717 299.965 196.366M399.998 169.056V202.717M399.998 202.717L423.448 208.255M399.998 202.717L388.922 205.14M282.228 438.481L283.595 438.141C284.333 437.956 284.856 437.299 284.869 436.538M206.515 190.083C228.91 186.971 256.41 183.395 280.038 180.428C281.839 180.201 283.627 180.551 285.172 181.373L288.713 183.154M506.604 183.334L405.055 166.108C401.358 165.481 397.589 165.404 393.869 165.878L335.86 173.131C333.804 173.387 332.097 174.842 331.518 176.832L328.35 187.72C327.592 190.327 325.379 192.25 322.691 192.637L302.149 195.928L299.965 196.366M299.965 196.366L299.796 196.4M299.965 196.366C299.266 195.835 298.643 195.191 298.126 194.447L292.369 186.155C291.625 185.083 290.666 184.215 289.575 183.588M288.713 183.154L289.575 183.588M288.713 183.154C289.008 183.282 289.296 183.427 289.575 183.588M288.713 183.154C287.316 182.547 285.759 182.308 284.192 182.504C260.563 185.472 236.265 188.442 213.871 191.554M289.575 183.588L289.931 183.767M285.517 440.558L286.883 440.217C287.621 440.033 288.144 439.376 288.158 438.614" stroke="white" stroke-width="1.03837"/>
</g>
<mask id="mask1_7228_283340" style="mask-type:alpha" maskUnits="userSpaceOnUse" x="311" y="451" width="472" height="315">
<path d="M318.94 738.685C453.637 748.531 723.819 767.593 726.969 765.073L747.45 757.195L782.503 620.135L776.201 523.641L677.344 489.376L596.999 474.016C596.867 470.209 596.368 461.492 595.423 457.081C594.242 451.567 589.515 451.173 585.577 451.961C581.638 452.749 359.112 527.974 336.663 535.457C314.213 542.941 311.062 562.633 311.062 568.147V635.496C311.062 647.311 316.183 677.244 316.97 679.213C317.6 680.788 318.546 719.517 318.94 738.685Z" fill="url(#paint2_linear_7228_283340)"/>
</mask>
<g mask="url(#mask1_7228_283340)">
<path d="M498.322 612.526L402.336 573.318" stroke="white" stroke-width="1.32142" stroke-linejoin="round"/>
<path d="M547.828 455.77L553.631 457.93M760.909 523.998L648.309 487.993" stroke="white" stroke-width="1.32142" stroke-linejoin="round"/>
<path d="M638.811 488.704L558.249 461.854L554.781 463.142M554.781 463.142L635.34 489.818M554.781 463.142L555.348 493.162" stroke="white" stroke-width="1.32142"/>
<path d="M265.905 592.737L481.804 690.014M270.429 564.201L365.633 603.636M477.82 650.105L373.55 606.776" stroke="white" stroke-width="1.32142" stroke-linejoin="round"/>
<path d="M549.044 456.265C544.729 454.338 539.49 454.291 533.875 456.552L290.837 524.848C276.515 530.612 265.168 549.198 265.492 566.36L266.136 600.403C266.337 611.087 270.931 618.934 277.888 621.77L484.618 723.497" stroke="white" stroke-width="1.32142"/>
<path d="M323.412 522.35C330.886 515.923 323.694 518.765 323.694 518.765L295.685 527.377C282.539 532.668 271.899 548.762 270.491 564.642" stroke="white" stroke-width="1.32142"/>
<path d="M355.68 511.086L539.767 458.709C545.383 456.449 550.622 456.496 554.936 458.423C555.868 458.878 557.494 460.111 558.315 462.036" stroke="white" stroke-width="1.32142"/>
<path d="M542.659 704.143L502.263 685.613M683.725 625L708.959 634.477M478.011 646.291C477.708 630.256 487.346 616.509 500.868 611.79C503.931 610.721 735.551 526.346 745.71 523.449C755.869 520.552 764.109 522.302 764.356 535.393L764.885 563.404L478.594 677.154L478.011 646.291Z" stroke="white" stroke-width="1.32142"/>
<path d="M374.012 640.362L373.436 609.863C373.136 594.016 382.664 580.431 396.031 575.768C399.058 574.712 635.75 494.15 645.793 491.287C651.082 489.779 655.845 489.546 659.205 491.552" stroke="white" stroke-width="1.32142"/>
<path d="M764.785 562.89L765.362 593.447C765.617 606.94 762.153 611.996 749.75 617.313L712.453 633.238C710.327 634.149 707.927 634.18 705.78 633.323L683.624 624.486M478.493 676.64L478.95 700.806M547.699 703.106L498.581 724.94C489.466 728.877 479.269 722.311 479.081 712.383L478.863 700.807" stroke="white" stroke-width="1.32142"/>
<path d="M372.102 640.943L372.465 660.19C372.653 670.118 382.85 676.684 391.965 672.747L417.621 661.343" stroke="white" stroke-width="1.32142"/>
<path d="M473.97 686.68L474.171 697.319M474.084 697.321L474.303 708.896C474.432 715.749 479.248 720.798 484.62 723.597" stroke="white" stroke-width="1.32142"/>
<path d="M478.845 676.782L479.295 684.298C479.489 687.552 481.599 690.243 484.853 690.039C486.324 689.947 487.698 689.727 488.45 689.419L532.693 671.302M755.264 567.265L755.465 577.853C755.506 580.04 754.184 582.022 752.15 582.824L723.384 594.169M532.693 671.302L534.453 670.581C534.554 670.54 534.654 670.502 534.755 670.468M532.693 671.302L534.755 670.468M723.384 594.169L723.216 594.238M723.384 594.169C723.328 594.192 723.272 594.214 723.216 594.238M534.755 670.468L723.216 594.238M534.755 670.468C538.077 669.333 541.607 671.757 541.674 675.329L541.116 701.225C541.162 703.69 543.68 705.331 545.954 704.38L548.26 703.415C549.865 702.743 551.032 701.318 551.374 699.612L554.931 682.851C555.618 679.421 557.971 676.56 561.204 675.225L695.212 619.892C697.796 618.825 700.762 619.975 701.951 622.504L706.569 632.329C707.325 633.938 709.215 634.664 710.854 633.977L712.107 633.452C713.422 632.9 714.323 631.666 714.447 630.245L716.844 602.93C717.182 599.067 719.643 595.719 723.216 594.238" stroke="white" stroke-width="1.98213"/>
<path d="M525.043 658.83L525.093 661.475C525.102 661.966 525.602 662.294 526.056 662.108L541.39 655.813C541.656 655.704 541.828 655.442 541.822 655.154L541.764 652.054M576.866 638.557L576.916 641.202C576.925 641.693 577.425 642.022 577.879 641.835L593.212 635.541C593.479 635.431 593.651 635.169 593.645 634.881L593.587 631.781M625.568 619.479L625.618 622.124C625.627 622.615 626.127 622.943 626.581 622.756L641.915 616.462C642.181 616.352 642.353 616.091 642.348 615.803L642.289 612.702M670.447 601.345L670.497 603.99C670.506 604.481 671.006 604.809 671.46 604.623L686.794 598.328C687.06 598.219 687.232 597.957 687.227 597.669L687.168 594.569M713.416 583.771L713.466 586.416C713.475 586.907 713.975 587.236 714.429 587.049L729.763 580.755C730.029 580.645 730.201 580.383 730.196 580.095L730.137 576.995" stroke="white" stroke-width="1.32142"/>
<path d="M754.426 521.975C751.011 521.429 744.158 523.741 739.996 525.216C666.347 551.576 514.838 605.09 498.063 611.763C477.093 620.103 478.466 641.903 478.596 648.797C478.726 655.691 478.455 678.307 479.249 683.356C479.853 687.2 480.663 688.499 481.042 688.71L481.097 688.733C481.08 688.728 481.062 688.72 481.042 688.71L372.362 640.935C372.479 647.131 371.282 657.717 372.784 663.276C374.887 671.059 377.127 669.8 380.029 672.481C349.804 657.599 287.053 625.406 276.835 620.57C264.062 614.526 266.284 602.786 266.2 598.335C266.116 593.884 265.587 579.751 265.503 561.42C265.418 543.088 282.213 526.359 294.106 522.816C306 519.274 524.855 458.829 534.061 456.298C543.267 453.767 545.562 455.121 548.019 455.773C548.264 455.838 550.434 456.523 554.151 457.707C555.572 458.159 557.248 459.872 558.244 461.774C573.566 466.667 606.714 478.559 638.108 488.638C643.145 487.236 643.781 486.437 648.132 487.834C698.755 504.089 750.403 520.689 754.426 521.975Z" fill="#D9D9D9" fill-opacity="0.1"/>
<path d="M320.583 544.841C322.796 534.72 336.041 525.643 354.964 520.176" stroke="white" stroke-width="1.32142"/>
<path d="M356.018 510.983C334.004 516.978 319.156 527.762 319.378 539.548C319.701 556.593 351.421 569.278 390.229 567.882C393.583 567.761 396.88 567.539 400.106 567.223C407.048 566.543 413.752 564.736 420.356 562.49C485.541 540.318 630.242 491.225 638.068 488.994C643.956 487.315 649.192 487.215 652.566 490.028M365.813 603.961C366.897 589.689 375.966 577.78 388.306 573.474C389.252 573.144 388.922 571.61 387.922 571.671C345.529 574.253 314.491 558.082 314.14 539.528C314.015 532.913 317.96 526.573 324.936 521.012" stroke="white" stroke-width="1.32142"/>
<path d="M314.13 539.019C314.214 543.47 314.865 548.793 315.594 551.999C315.934 553.493 316.428 554.945 317.083 556.345C324.828 572.894 351.724 580.66 383.265 575.634" stroke="white" stroke-width="1.32142"/>
<path d="M354.717 520.271C354.717 520.271 474.766 486.475 496.537 480.606C506.169 478.01 517.745 480.135 527.66 483.313L589.445 505.185" stroke="white" stroke-width="1.32142"/>
</g>
<path d="M638.536 400.402C635.997 401.487 634.817 404.425 635.902 406.964L653.578 448.347C654.663 450.886 657.601 452.066 660.14 450.981C662.68 449.896 663.859 446.958 662.774 444.419L647.062 407.634L683.847 391.922C686.386 390.837 687.566 387.899 686.481 385.36C685.396 382.82 682.458 381.641 679.919 382.726L638.536 400.402ZM782.5 462L784.363 457.36L642.363 400.36L640.5 405L638.637 409.64L780.637 466.64L782.5 462Z" fill="#4FE2CE"/>
<defs>
<linearGradient id="paint0_linear_7228_283340" x1="540" y1="548.444" x2="252.632" y2="70.0217" gradientUnits="userSpaceOnUse">
<stop offset="0.526522" stop-color="#D9D9D9"/>
<stop offset="1" stop-color="#737373" stop-opacity="0"/>
</linearGradient>
<linearGradient id="paint1_linear_7228_283340" x1="447.03" y1="571.192" x2="461.708" y2="601.818" gradientUnits="userSpaceOnUse">
<stop/>
<stop offset="1" stop-opacity="0"/>
</linearGradient>
<linearGradient id="paint2_linear_7228_283340" x1="465.503" y1="527.496" x2="439.003" y2="482.496" gradientUnits="userSpaceOnUse">
<stop stop-color="#D9D9D9"/>
<stop offset="1" stop-color="#737373" stop-opacity="0"/>
</linearGradient>
</defs>
</svg>
