<svg width="47" height="51" viewBox="0 0 47 51" fill="none" xmlns="http://www.w3.org/2000/svg">
<path d="M16.6083 4.65221C19.0318 -1.55074 27.9682 -1.55074 30.3917 4.65221V4.65221C31.6405 7.84851 34.9961 9.75108 38.4392 9.21499V9.21499C45.1212 8.1746 49.5894 15.7747 45.3309 20.9372V20.9372C43.1366 23.5974 43.1366 27.4026 45.3309 30.0628V30.0628C49.5894 35.2253 45.1212 42.8254 38.4392 41.785V41.785C34.9961 41.2489 31.6405 43.1515 30.3917 46.3478V46.3478C27.9682 52.5507 19.0318 52.5507 16.6083 46.3478V46.3478C15.3595 43.1515 12.0039 41.2489 8.56075 41.785V41.785C1.8788 42.8254 -2.58938 35.2253 1.66907 30.0628V30.0628C3.86341 27.4026 3.86341 23.5974 1.66907 20.9372V20.9372C-2.58938 15.7747 1.8788 8.1746 8.56075 9.21499V9.21499C12.0039 9.75108 15.3595 7.84852 16.6083 4.65221V4.65221Z" fill="white"/>
</svg>
