<svg width="638" height="450" viewBox="0 0 638 450" fill="none" xmlns="http://www.w3.org/2000/svg">
<mask id="mask0_7495_151771" style="mask-type:alpha" maskUnits="userSpaceOnUse" x="0" y="0" width="638" height="450">
<ellipse cx="319" cy="225" rx="319" ry="225" fill="url(#paint0_radial_7495_151771)"/>
</mask>
<g mask="url(#mask0_7495_151771)">
<path fill-rule="evenodd" clip-rule="evenodd" d="M428.704 -28.1094C447.498 -28.1107 563.968 -11.8138 619.854 -3.66504L660.433 42.0391C680.011 87.743 717.672 189.355 711.692 230.17C704.217 281.188 693.538 428.93 672.18 436.37C650.822 443.81 337.934 466.131 287.744 465.068C237.553 464.005 49.6074 467.194 13.2993 457.628C-23.0083 448.062 -105.234 340.712 -104.167 322.642C-103.1 304.573 -104.167 189.78 -104.167 165.334C-104.167 140.887 -45.4336 59.0452 -29.4155 42.0391C-13.3971 25.0329 38.9287 -5.79047 46.4038 -10.042C52.3841 -13.4432 98.0171 -17.8369 120.086 -19.6084C215.127 -22.4417 409.908 -28.1081 428.704 -28.1094ZM369.767 140.814C366.683 143.007 365.14 146.077 364.479 149.366C363.818 152.656 359.412 155.068 357.429 157.48C355.446 159.893 342.007 172.172 336.279 176.558C330.551 180.943 298.384 192.346 293.096 194.101C287.807 195.855 244.187 203.091 234.493 204.846C224.799 206.6 201.006 215.59 197.259 216.906C193.514 218.222 147.468 233.791 144.824 234.449C142.709 234.975 127.933 236.277 120.809 236.861C127.345 241.101 141.739 251.027 147.027 256.816C153.636 264.053 161.347 278.087 173.685 297.165C183.555 312.427 186.316 331.008 186.463 338.391C200.196 332.689 228.676 320.936 232.73 319.532C237.797 317.778 258.948 316.243 266.218 316.023C273.49 315.804 317.772 303.963 329.889 299.797C342.007 295.63 386.07 279.184 415.372 275.236C438.813 272.079 461.565 272.459 470.01 273.044C467.366 270.266 460.669 263.571 455.029 259.01C447.979 253.308 419.558 221.731 411.626 209.013C403.695 196.294 388.714 171.514 384.749 161.646C380.783 151.779 374.614 144.104 369.767 140.814Z" fill="#D9D9D9" fill-opacity="0.07"/>
<path d="M265.878 149.64C265.878 149.64 265.878 149.64 265.878 149.64C272.886 149.235 279.927 149.301 286.925 149.781C298.817 150.664 310.846 152.516 321.698 157.32C324.207 158.43 326.342 160.415 326.865 162.98C327.422 165.527 326.4 168.25 324.667 170.288C321.139 174.463 315.18 176.011 309.777 175.177C270.274 170.792 230.7 166.477 190.579 168.743C188.8 168.948 186.882 169.228 185.129 169.679C160.179 178.881 145.65 204.56 119.38 205.261C86.8907 206.07 55.5056 193.79 22.9074 190.228C19.5218 190.134 16.1362 190.086 12.752 190.08C5.72066 190.077 -1.31702 190.2 -8.32422 190.639C-1.30864 190.4 5.72408 190.467 12.7436 190.65C16.122 190.743 19.4996 190.875 22.8746 191.05C55.065 195.337 86.1355 208.23 119.504 207.81C147.2 207.238 163.136 180.59 185.878 172.582C187.398 172.19 189.219 171.918 190.919 171.724C230.206 169.497 270.208 173.464 309.503 177.199C315.433 178.015 322.065 176.236 326.012 171.397C327.945 169.035 329.153 165.788 328.405 162.631C327.683 159.443 325.023 157.183 322.264 156.035C311.04 151.35 298.916 149.797 286.957 149.212C279.925 148.91 272.872 149.036 265.878 149.64Z" fill="white"/>
<path d="M101.626 247.828C103.903 249.81 113.581 253.775 123.544 271.908C133.507 290.042 141.193 298.542 145.748 306.475C149.391 312.822 157.134 324.797 160.55 329.991M-17.5607 306.475C25.8192 287.327 26.3336 272.992 46.4019 263.409C52.2601 260.612 65.5973 255.755 74.3419 271.908C83.3222 288.497 83.7723 300.98 110.45 319.225" stroke="white" stroke-width="3" stroke-linecap="round"/>
<path d="M28.8418 413.397C75.3086 391.462 171.747 345.846 185.767 338.869C187.809 337.853 189.857 336.866 191.896 335.91M471.852 274.919C463.279 271.409 457.228 271.905 449.16 271.905C441.091 271.905 400.75 276.421 393.186 278.428C385.621 280.436 359.399 288.465 347.801 293.484C336.203 298.503 275.186 313.057 264.596 315.566C254.006 318.076 240.391 316.569 230.81 320.082C222.345 323.186 207.359 328.662 191.896 335.91M471.852 274.919C480.425 278.428 517.741 270.401 525.809 265.883C533.877 261.366 592.877 234.265 606.492 223.724C620.108 213.184 656.415 190.6 666.501 184.075C674.569 178.855 685.999 173.534 690.706 171.525M471.852 274.919C467.818 273.746 457.631 275.818 449.16 293.484C438.57 315.566 431.006 329.039 418.399 338.869C408.314 346.733 388.983 354.388 380.579 357.232M191.896 335.91C202.682 343.185 229.801 358.637 251.989 362.251C279.724 366.768 322.587 376.305 330.656 378.312C337.11 379.918 368.644 393.704 383.604 400.396M462.271 301.519C472.356 306.7 498.477 317.666 522.279 320.082C552.031 323.102 569.681 326.615 578.253 327.117C586.826 327.619 600.441 327.031 609.518 338.869C616.78 348.339 621.621 358.403 623.133 362.251" stroke="white" stroke-width="3" stroke-linecap="round"/>
<path d="M369.453 140.555C382.796 148.897 383.809 161.602 390.667 174.048C399.239 189.606 416.384 219.218 427.982 231.766C439.581 244.314 455.717 259.372 461.264 264.893C465.702 269.309 470.173 272.087 471.854 272.923C473.871 271.083 478.51 263.186 480.931 246.322C483.957 225.241 493.033 195.127 498.076 187.096C502.11 180.672 509.17 175.721 512.196 174.048M388.205 137.254C389.45 141.126 395.021 148.777 407.346 148.406C422.751 147.941 439.091 156.768 441.892 176.748C444.693 196.728 450.675 213.456 461.264 225.072" stroke="white" stroke-width="3" stroke-linecap="round"/>
<path d="M-79.3184 284.461C-54.9456 278.939 1.16229 264.885 30.6121 252.841C67.4245 237.785 83.4927 240.78 100.706 238.789C161.064 231.805 176.621 225.883 216.689 209.682C232.826 203.157 285.534 195.888 292.33 194.12C309.605 189.628 328.313 182.224 340.235 174.042C352.158 165.859 356.372 159.485 362.423 152.458C368.475 145.431 358.389 145.429 376.039 136.395C393.688 127.36 413.859 105.274 439.577 97.7455C465.295 90.2168 497.064 84.1922 559.089 58.5945C608.71 38.1164 636.579 26.3037 644.311 22.957" stroke="white" stroke-width="3" stroke-linecap="round"/>
<path d="M116.812 236.867C128.46 236.867 142.454 250.823 150.119 260.863C159.7 273.413 169.786 291.482 175.837 301.018C181.888 310.554 186.856 332.311 186.856 338.337" stroke="white" stroke-width="3" stroke-linecap="round"/>
<path d="M320.452 376.598C339.82 381.235 365.563 392.947 375.859 397.34C400.769 407.862 403.362 384.077 388.573 378.449C373.785 372.821 362.259 366.976 350.95 364.379C339.641 361.781 300.06 351.175 293.319 340.784C286.577 330.394 340.294 326.931 355.299 320.004C370.305 313.078 392.053 303.12 394.663 311.562C397.273 320.004 379.439 331.26 369.218 340.784C358.997 350.309 375.859 357.235 388.573 354.421C401.287 351.608 424.24 337.065 432.739 324.983C441.239 312.901 451.584 288.275 455.375 281.426C459.166 274.577 467.221 273.13 461.061 273.13C454.901 273.13 442.301 272.398 432.739 273.13C423.178 273.862 397.19 277.034 381.99 281.426C366.789 285.818 344.479 294.358 332.711 298.506C320.943 302.655 267.006 315.832 254.993 317.052C242.98 318.273 228.024 321.446 219.934 324.13C211.843 326.815 202.527 330.231 194.191 337.065C205.959 347.558 238.566 360.736 247.392 362.932C256.218 365.129 301.084 371.961 320.452 376.598Z" fill="#D9D9D9" fill-opacity="0.15"/>
<path d="M628.784 232.364C649.421 222.827 687.748 194.155 704.332 181.011C720.671 168.453 730.129 181.011 721.837 202.101C713.546 223.191 659.187 273.13 657.345 287.384C655.502 301.638 671.165 340.784 682.221 362.932C693.276 385.08 666.558 397.34 662.873 378.449C659.187 359.557 628.784 311.562 619.57 303.89C610.357 296.218 542.179 305.724 530.202 303.89C518.225 302.056 496.113 298.506 503.484 287.384C510.854 276.261 537.573 273.13 555.999 266.292C574.426 259.455 602.987 244.285 628.784 232.364Z" fill="#D9D9D9" fill-opacity="0.15"/>
<path d="M370.708 139.548L385.316 130.995C385.39 131.188 385.471 131.403 385.559 131.639C386.339 130.628 387.028 129.646 387.471 128.687C389.626 124.019 432.078 100.875 441.733 97.3863C451.388 93.898 478.766 88.0494 507.319 80.1112C535.871 72.173 534.926 94.1576 523.883 100.875C512.84 107.591 489.527 125.91 478.766 139.548C468.006 153.186 467.595 185.752 471.892 208.346C476.188 230.939 467.595 232.364 461.061 223.611C454.526 214.859 450.324 206.461 446.782 196.959C443.24 187.456 439.584 169.044 436.998 163.501C434.412 157.958 425.462 151.227 419.494 149.384C413.527 147.541 399.803 147.267 394.663 144.892C390.969 143.184 389.897 141.171 388.848 141.055C389.706 143.654 390.608 146.506 391.449 149.384C394.325 159.22 407.658 169.514 417.488 181.011C427.318 192.508 435.157 221.348 446.782 232.364C458.406 243.38 479.196 251.164 478.766 256.51C478.423 260.786 474.04 269.372 471.892 273.13L467.595 270.408C461.437 264.564 446.972 250.779 438.379 242.398C427.637 231.92 418.615 219.518 407.658 203.054C396.702 186.589 380.375 153.447 378.656 149.384C377.281 146.134 372.784 141.473 370.708 139.548Z" fill="#D9D9D9" fill-opacity="0.15"/>
<path d="M2.47642 190.736C-23.8342 190.736 -73.1485 203.054 -111.574 223.611L-120.748 281.426C-108.478 283.412 -80.2116 286.192 -65.3058 281.426C-46.6736 275.468 7.85979 262.221 31.0365 253.175C54.2131 244.129 73.5652 240.152 83.3098 239.959C93.0543 239.766 149.282 232.442 171.165 226.659C193.047 220.877 219.934 208.156 231.196 205.843C242.458 203.53 291.227 192.737 312.142 187.34C333.056 181.943 349.516 166.257 354.163 161.512C357.882 157.716 363.588 146.87 365.976 141.922C359.844 141.449 346.727 140.503 343.319 140.503C339.059 140.503 312.335 124.12 296.843 121.036C281.351 117.952 276.123 137.033 294.713 140.503C313.303 143.972 323.954 157.85 327.053 161.512C330.151 165.174 324.535 170.571 319.694 174.04C314.853 177.51 296.843 173.848 286.386 174.04C275.929 174.233 233.713 169.993 206.215 169.414C178.717 168.836 180.847 175.197 150.831 195.049C120.816 214.902 102.428 203.054 83.3098 203.054C64.1912 203.054 36.6188 190.736 2.47642 190.736Z" fill="#D9D9D9" fill-opacity="0.15"/>
<path d="M101.227 247.941C91.0515 242.707 90.1075 256.51 95.9684 266.292C101.203 273.884 101.227 270.408 112.037 276.424C122.848 282.44 131.752 302.059 136.839 311.562C141.927 321.065 139.065 334.341 147.332 342.569C155.599 350.798 163.548 337.065 160.687 329.277C157.825 321.489 150.831 314.086 147.332 309.971C143.833 305.857 128.89 281.426 123.484 273.13C118.079 264.833 111.402 253.175 101.227 247.941Z" fill="#D9D9D9" fill-opacity="0.15"/>
<path d="M128.503 241.581C122.98 238.603 116.306 245.476 121.369 250.744C128.503 258.168 135.712 258.95 141.622 263.801C150.831 271.361 155.891 279.607 160.687 294.268C164.346 305.454 164.49 314.655 168.089 325.421C171.687 336.188 184.199 331.838 183.509 324.13C182.818 316.423 177.985 307.554 174.763 300.223C171.541 292.893 154.51 267.925 149.447 260.594C144.384 253.264 134.027 244.559 128.503 241.581Z" fill="#D9D9D9" fill-opacity="0.15"/>
<path d="M99.4669 311.562C115.624 322.901 112.037 324.13 114.403 329.277C112.441 331.593 112.037 331.73 105.584 329.277C99.1301 326.823 81.4251 309.971 69.0463 296.953C56.6675 283.936 36.9013 289.203 27.5174 296.953C18.1334 304.704 -4.22827 315.435 -14.8102 318.217C-25.3921 320.999 -24.3938 309.971 -17.805 307.088C-11.2163 304.206 -1.03374 298.146 7.15225 294.268C15.3382 290.389 29.3143 273.13 46.0856 263.801C62.8569 254.473 73.0678 269.584 76.194 276.424C79.3203 283.264 83.3098 300.223 99.4669 311.562Z" fill="#D9D9D9" fill-opacity="0.15"/>
<path d="M400.742 221.506C398.138 222.016 395.491 222.534 392.893 223.044C369.281 227.669 345.798 232.677 322.4 238.062C315.454 239.655 308.581 241.265 301.668 242.872C285.067 246.757 268.934 252.408 253.651 259.812C251.254 260.989 248.858 262.221 246.561 263.554C246.561 263.554 246.561 263.554 246.561 263.554C248.979 262.458 251.471 261.462 253.954 260.509C269.774 254.531 286.01 249.896 302.461 246.504C309.438 245.076 316.341 243.555 323.295 241.96C346.717 236.57 369.963 230.508 393.073 223.783C395.614 223.039 398.202 222.275 400.742 221.506Z" fill="white"/>
<path d="M375.594 225.109L379.823 233.202M367.787 226.568L372.016 234.66M358.518 228.51L362.746 236.603M348.046 231.303L352.275 239.396M337.727 234.056L341.956 242.149M326.973 236.603L331.202 244.696M316.083 239.396L320.312 247.489M304.044 241.299L308.272 249.392M292.004 244.696L296.233 252.789M279.645 247.489L283.874 255.582M268.098 250.526L272.327 258.619M256.705 254.573L260.934 262.666" stroke="white" stroke-width="2" stroke-linecap="round"/>
</g>
<defs>
<radialGradient id="paint0_radial_7495_151771" cx="0" cy="0" r="1" gradientTransform="matrix(24.4172 212.457 -271.467 30.9081 319 225)" gradientUnits="userSpaceOnUse">
<stop stop-color="#D9D9D9"/>
<stop offset="1" stop-color="#737373" stop-opacity="0"/>
</radialGradient>
</defs>
</svg>
