<svg width="140" height="140" viewBox="0 0 140 140" fill="none" xmlns="http://www.w3.org/2000/svg">
<path d="M32.4296 71.5618C37.7047 77.8126 52.1236 83.7063 67.5975 71.5618C70.8212 72.4547 78.6753 74.4193 84.3022 75.1337C90.9254 75.9746 94.4303 72.8563 95.5508 70.2527M66.1855 52.9785C64.6855 58.4785 85.1688 60.7641 88.6855 61.4785C93.0815 62.3715 96.8139 66.4785 95.7318 69.7758C95.6805 69.9321 95.6202 70.0914 95.5508 70.2527M21 39.4146L30.545 41.2323C33.512 41.7973 36.5735 41.6067 39.4475 40.6779L57.9191 34.7085M73.7518 29.5918C74.3219 29.2174 75.0568 29.2054 75.6388 29.561L98.1283 43.3046C100.358 44.667 101.801 47.0275 102.219 49.6064C103.319 56.3896 105.721 67.5743 106.282 71.5618C107.161 77.8126 108.041 80.4916 103.645 82.2775C99.2486 84.0635 96.1103 77.8126 95.7318 74.2407C95.429 71.3832 95.4849 70.3914 95.5508 70.2527" stroke="white" stroke-width="4"/>
<path d="M81.686 74.5092L91.0242 90.6834C91.5796 91.6455 92.8127 91.9705 93.7703 91.4073L103.926 85.4335C104.878 84.8735 105.196 83.6477 104.636 82.6956L103.615 80.9606M92.7676 63.2802L70.9495 25.4902C69.8386 23.566 67.3725 22.9159 65.4574 24.0424L58.7355 27.9962C56.8422 29.1099 56.2011 31.5418 57.2994 33.444L71.4643 57.9785" stroke="white" stroke-width="1.5"/>
<path d="M96.8201 89.2171L99.7577 94.1811C100.546 95.5133 101.177 96.9325 101.638 98.4102L103.031 102.876C104.91 108.897 110.47 113.01 116.777 113.043L119.106 113.056L102.99 85.6577" stroke="white" stroke-width="4"/>
<path d="M108.186 113.479H39.6855" stroke="white" stroke-width="1.5" stroke-dasharray="5 5"/>
</svg>
