<svg width="597" height="450" viewBox="0 0 597 450" fill="none" xmlns="http://www.w3.org/2000/svg">
<path d="M295.25 205C295.25 177.386 317.636 155 345.25 155H471.877C499.491 155 521.877 177.386 521.877 205V225.133C521.877 252.747 499.491 275.133 471.877 275.133H415.433C410.943 275.133 406.544 276.392 402.734 278.768L367.198 300.926C360.537 305.08 351.907 300.29 351.907 292.441V284.576C351.907 279.36 347.679 275.133 342.464 275.133C316.388 275.133 295.25 253.994 295.25 227.919V205Z" fill="#D9D9D9" fill-opacity="0.1" stroke="white" stroke-width="2"/>
<path d="M498.25 164C526.969 164 550.25 187.281 550.25 216V237.671C550.25 264.892 528.183 286.959 500.962 286.959C496.012 286.959 492 290.971 492 295.921V303.875C492 309.84 485.017 313.072 480.47 309.212L471.247 301.383C462.211 293.711 450.743 289.5 438.889 289.5H423.25" stroke="white"/>
<path d="M263.77 197.498C263.128 200.692 262.405 203.47 261.907 205.532C265.471 207.136 265.745 212.215 265.745 214.087C265.745 215.958 263.826 229.057 263.004 234.938C262.346 239.643 256.333 241.175 253.409 241.353C251.033 249.106 245.733 266.802 243.54 275.57C247.378 287.333 261.359 294.016 268.212 294.818C275.066 295.62 291.514 298.56 304.398 303.372C317.282 308.184 319.749 321.015 319.749 327.431C319.749 341.419 310.849 353.94 297.416 358.848L271.1 368.463C232.65 382.511 190.283 382.511 151.833 368.463L125.517 358.848C112.084 353.94 103.184 341.419 103.184 327.431C103.184 321.015 105.651 308.184 118.535 303.372C131.419 298.56 147.867 295.62 154.721 294.818C161.574 294.016 175.555 287.333 179.393 275.57C177.2 266.802 171.9 249.106 169.524 241.353C166.6 241.175 160.587 239.643 159.929 234.938C159.107 229.057 157.188 215.958 157.188 214.087C157.188 212.215 157.462 207.136 161.026 205.532C160.455 203.167 159.587 199.86 158.886 196.064C194.973 178.133 244.453 184.583 263.77 197.498Z" fill="url(#paint0_linear_7495_151793)" fill-opacity="0.1"/>
<path d="M261.57 196.066L260.474 204.821C264.037 206.425 264.311 211.504 264.311 213.375C264.311 215.246 262.392 228.345 261.57 234.226C260.912 238.931 254.9 240.464 251.975 240.642C249.6 248.394 244.3 266.091 242.107 274.859C245.944 286.621 259.925 293.304 266.779 294.106C273.632 294.908 290.08 297.849 302.964 302.66C315.849 307.472 318.316 320.304 318.316 326.719C318.316 340.708 309.415 353.228 295.982 358.136L269.667 367.751C231.216 381.8 188.85 381.8 150.399 367.751L124.083 358.136C110.65 353.228 101.75 340.708 101.75 326.719C101.75 320.304 104.217 307.472 117.102 302.66C129.986 297.849 146.434 294.908 153.287 294.106C160.141 293.304 174.121 286.621 177.959 274.859C175.766 266.091 170.466 248.394 168.09 240.642C165.166 240.464 159.154 238.931 158.496 234.226C157.673 228.345 155.754 215.246 155.754 213.375C155.754 211.504 156.029 206.425 159.592 204.821V196.066" stroke="url(#paint1_linear_7495_151793)" stroke-width="2"/>
<path d="M155.056 146.138C154.427 164.126 154.985 177.758 157.368 196.745C157.487 197.691 158.82 197.998 159.44 197.274C165.77 189.881 181.016 184.587 212.185 184.587C250.908 184.587 265.329 197.5 265.307 199.653L265.868 144.129C265.963 134.761 260.442 126.083 251.616 122.942C240.711 119.062 226.118 115 211.525 115C194.893 115 176.755 121.532 165.3 127.768C158.651 131.387 155.32 138.573 155.056 146.138Z" fill="url(#paint2_linear_7495_151793)" fill-opacity="0.1" stroke="url(#paint3_linear_7495_151793)" stroke-width="2"/>
<circle cx="372.75" cy="216.5" r="7.5" fill="#D9D9D9" fill-opacity="0.1" stroke="white" stroke-width="2"/>
<circle cx="407.75" cy="216.5" r="7.5" fill="#D9D9D9" fill-opacity="0.1" stroke="white" stroke-width="2"/>
<circle cx="442.75" cy="216.5" r="7.5" fill="#D9D9D9" fill-opacity="0.1" stroke="white" stroke-width="2"/>
<defs>
<linearGradient id="paint0_linear_7495_151793" x1="239.434" y1="208.255" x2="133.81" y2="269.591" gradientUnits="userSpaceOnUse">
<stop stop-color="#D9D9D9"/>
<stop offset="1" stop-color="#D9D9D9" stop-opacity="0.5"/>
</linearGradient>
<linearGradient id="paint1_linear_7495_151793" x1="258.796" y1="185.305" x2="133.653" y2="216.851" gradientUnits="userSpaceOnUse">
<stop stop-color="white"/>
<stop offset="1" stop-color="#999999" stop-opacity="0.2"/>
</linearGradient>
<linearGradient id="paint2_linear_7495_151793" x1="222.813" y1="140.323" x2="182.156" y2="174.677" gradientUnits="userSpaceOnUse">
<stop stop-color="#D9D9D9"/>
<stop offset="1" stop-color="#D9D9D9" stop-opacity="0.5"/>
</linearGradient>
<linearGradient id="paint3_linear_7495_151793" x1="233.074" y1="132.782" x2="175.194" y2="154.012" gradientUnits="userSpaceOnUse">
<stop stop-color="white"/>
<stop offset="1" stop-color="#999999" stop-opacity="0.2"/>
</linearGradient>
</defs>
</svg>
