<svg width="654" height="500" viewBox="0 0 654 500" fill="none" xmlns="http://www.w3.org/2000/svg">
<path d="M213.963 660.102V106.775C213.963 102.491 213.887 94.4682 214.588 92.2873L214.599 92.251C215.377 89.8289 218.62 79.7231 230.71 74.9958C242.86 70.2445 264.825 63.6239 290.373 61.1314C340.132 58.4478 368.537 58.0144 421.002 61.1314C446.55 63.6239 468.515 70.2445 480.665 74.9958C492.755 79.7231 495.998 89.8289 496.776 92.251L496.787 92.2873C497.488 94.4682 497.412 102.491 497.412 106.775V660.102" stroke="url(#paint0_linear_7228_296892)" stroke-width="1.80497"/>
<path d="M476.532 160.678L476.536 475.047L476.536 538.295C476.536 541.929 473.629 544.897 469.995 544.972L241.817 549.695C238.075 549.773 235 546.761 235 543.018V509.879L235 160.68C235 156.992 237.99 154.002 241.678 154.002L469.853 154C473.542 154 476.532 156.99 476.532 160.678Z" fill="url(#paint1_linear_7228_296892)" stroke="url(#paint2_linear_7228_296892)" stroke-width="1.64358"/>
<rect width="140.328" height="137.899" transform="matrix(1 0 0.0174524 0.999848 286.324 214.789)" stroke="white" stroke-width="2"/>
<path d="M308.929 215.43L287.511 252.994" stroke="white" stroke-linejoin="round"/>
<path d="M295.248 215.855L312.665 260.545M312.665 260.545L348.235 351.812M312.665 260.545L326.963 215.855M312.665 260.545L289.473 333.03M332.394 215.855L337.253 228.323M337.253 228.323L348.378 256.867M337.253 228.323L288.31 278.818L308.854 300.605M337.253 228.323L349.338 215.855L356.842 234.8M348.378 256.867L350.186 261.506M348.378 256.867L356.842 234.8M348.378 256.867L344.555 266.833M350.186 261.506L360.506 287.988M350.186 261.506L344.555 266.833M350.186 261.506L362.723 249.646M360.506 287.988L368.783 309.225M360.506 287.988L346.12 306.902M360.506 287.988L371.951 272.942M368.783 309.225L376.442 328.877M368.783 309.225L387.066 311.099M368.783 309.225L346.12 306.902M376.442 328.877L383.163 346.121M376.442 328.877L388.454 314.603M376.442 328.877L366.028 341.252M383.163 346.121L385.381 351.812M383.163 346.121L403.193 351.812L388.454 314.603M383.163 346.121L366.028 341.252M364.109 215.855L356.842 234.8M356.842 234.8L362.723 249.646M344.555 266.833L329.826 305.231M344.555 266.833L308.854 300.605M329.826 305.231L325.023 317.752M329.826 305.231L346.12 306.902M329.826 305.231L311.44 303.347M325.023 317.752L320.925 328.436M325.023 317.752L332.132 325.29M325.023 317.752L311.44 303.347M320.925 328.436L311.958 351.812L328.173 330.496M320.925 328.436L328.173 330.496M320.925 328.436L289.018 319.37L306.493 302.839M328.173 330.496L332.132 325.29M328.173 330.496L340.286 333.938M332.132 325.29L346.12 306.902M332.132 325.29L340.286 333.938M371.951 272.942L390.641 248.372M371.951 272.942L362.723 249.646M371.951 272.942L387.066 311.099M390.641 248.372L400.04 236.015M390.641 248.372L402.321 298.126M390.641 248.372L385.812 227.804M400.04 236.015L403.047 232.062M400.04 236.015L389.864 223.971M400.04 236.015L406.577 243.751M403.047 232.062L415.374 215.855L415.248 254.013M403.047 232.062L398.217 216.069L389.864 223.971M403.047 232.062L406.577 243.751M415.248 254.013L415.187 272.262M415.248 254.013L406.577 243.751M415.248 254.013L427.369 268.36L417.537 280.044M415.187 272.262L415.152 282.878M415.187 272.262L406.577 243.751M415.187 272.262L417.537 280.044M415.152 282.878L415.049 313.968M415.152 282.878L417.537 280.044M415.152 282.878L402.321 298.126M415.049 313.968L414.924 351.812L405.817 313.022M415.049 313.968L428.189 315.315L417.537 280.044M415.049 313.968L405.817 313.022M405.817 313.022L402.321 298.126M405.817 313.022L391.058 311.509M402.321 298.126L391.058 311.509M385.812 227.804L383.008 215.855L389.864 223.971M385.812 227.804L362.723 249.646M385.812 227.804L389.864 223.971M391.058 311.509L388.454 314.603M391.058 311.509L387.066 311.099M388.454 314.603L387.066 311.099M366.028 341.252L357.141 351.812L340.286 333.938M366.028 341.252L340.286 333.938M311.44 303.347L308.854 300.605M311.44 303.347L306.493 302.839M308.854 300.605L306.493 302.839M306.493 302.839L288.697 301.015" stroke="white"/>
<path d="M274.974 102.765C278.323 102.084 279.647 97.7986 279.647 94.665C279.647 88.2781 274.273 87.4212 270.923 88.278C267.574 89.1348 265.705 94.8207 266.25 97.9363C266.795 101.052 270.378 103.7 274.974 102.765Z" stroke="white" stroke-width="1.06925"/>
<path d="M381.39 88.5688C364.773 88.5169 331.338 88.4442 330.528 88.5688C327.49 88.6166 324.063 89.8151 324.452 95.1895C324.764 99.489 328.632 100.564 330.528 100.564C346.08 100.642 378.304 101.448 382.324 100.564C386.219 99.707 387.258 98.2271 387.075 93.398C386.951 90.0955 383.233 88.8025 381.39 88.5688Z" fill="#2B2B2B" stroke="white" stroke-width="1.06925"/>
<path d="M445.462 101.633C448.427 100.768 449.297 96.8097 449.062 93.9881C448.582 88.2372 443.679 87.8693 440.727 88.8923C437.776 89.9153 436.52 95.1754 437.245 97.9398C437.97 100.704 441.395 102.82 445.462 101.633Z" stroke="white" stroke-width="1.06925"/>
<path d="M310.504 29.9307C345.329 28.4834 365.037 27.3957 401.644 29.9287C425.19 31.5581 439.252 33.8094 449.689 36.6143C460.124 39.4185 466.923 42.7771 475.84 46.5371C494.026 54.206 501.015 65.9961 505.764 72.9248C508.27 76.582 509.302 81.3052 509.754 86.0752C510.205 90.8352 510.09 95.8302 510.205 99.9697C510.392 106.71 510.283 138.981 510.205 154.311C510.572 157.147 510.752 163.997 508.497 169.281C505.856 175.47 505.999 180.887 505.999 187.621V566.009C505.999 578.939 495.516 589.421 482.586 589.421H229.144C216.394 589.211 206.124 578.811 206.124 566.012V187.624C206.124 180.89 206.267 175.473 203.626 169.285C201.371 164.001 201.55 157.15 201.917 154.313C201.839 138.983 201.731 106.713 201.918 99.9727C202.033 95.8331 201.918 90.8381 202.369 86.0781C202.822 81.308 203.853 76.585 206.359 72.9277C211.108 65.999 218.097 54.2089 236.283 46.54C245.23 42.7671 252.036 39.7266 262.483 37.0781C272.92 34.4325 286.971 32.1809 310.455 29.9336L310.479 29.9316L310.504 29.9307Z" stroke="url(#paint3_linear_7228_296892)" stroke-width="1.80497"/>
<path opacity="0.3" d="M275.512 205H438.002L438.538 363.783H277.048L275.512 205Z" fill="url(#paint4_linear_7228_296892)"/>
<path opacity="0.3" d="M285.105 212.898L429.296 212.996L430.398 355.1L286.029 354.407L285.105 212.898Z" stroke="#E4255B" stroke-width="2"/>
<path opacity="0.5" d="M225 183C225 232.706 184.706 273 135 273C85.2944 273 45 232.706 45 183" stroke="white"/>
<g filter="url(#filter0_d_7228_296892)">
<circle cx="135" cy="176" r="87" fill="#1B1B2D"/>
<circle cx="135" cy="176" r="87" fill="url(#paint5_linear_7228_296892)" fill-opacity="0.4"/>
</g>
<path d="M167.262 142.731C170.961 138.379 177.618 137.741 182.131 141.308C186.644 144.876 187.305 151.296 183.607 155.648L137.191 214.267C135.25 216.551 132.375 217.913 129.314 217.996C126.254 218.079 123.306 216.877 121.235 214.702L91.7826 182.932C87.8365 178.787 88.1221 172.342 92.4189 168.536C96.7168 164.729 103.402 165.001 107.35 169.146L128.564 192.268L167.262 142.731Z" fill="#4FE2CE"/>
<circle cx="135.5" cy="175.5" r="87.5" stroke="#4FE2CE" stroke-width="8"/>
<circle cx="135" cy="176" r="83" stroke="white" stroke-width="2"/>
<defs>
<filter id="filter0_d_7228_296892" x="0" y="65" width="270" height="270" filterUnits="userSpaceOnUse" color-interpolation-filters="sRGB">
<feFlood flood-opacity="0" result="BackgroundImageFix"/>
<feColorMatrix in="SourceAlpha" type="matrix" values="0 0 0 0 0 0 0 0 0 0 0 0 0 0 0 0 0 0 127 0" result="hardAlpha"/>
<feOffset dy="24"/>
<feGaussianBlur stdDeviation="24"/>
<feComposite in2="hardAlpha" operator="out"/>
<feColorMatrix type="matrix" values="0 0 0 0 0.309804 0 0 0 0 0.886275 0 0 0 0 0.807843 0 0 0 0.5 0"/>
<feBlend mode="normal" in2="BackgroundImageFix" result="effect1_dropShadow_7228_296892"/>
<feBlend mode="normal" in="SourceGraphic" in2="effect1_dropShadow_7228_296892" result="shape"/>
</filter>
<linearGradient id="paint0_linear_7228_296892" x1="355.961" y1="163.671" x2="355.961" y2="376.796" gradientUnits="userSpaceOnUse">
<stop stop-color="white"/>
<stop offset="1" stop-color="white" stop-opacity="0"/>
</linearGradient>
<linearGradient id="paint1_linear_7228_296892" x1="298.139" y1="210.383" x2="388.308" y2="456.882" gradientUnits="userSpaceOnUse">
<stop stop-color="#141421"/>
<stop offset="1" stop-color="#111128" stop-opacity="0"/>
</linearGradient>
<linearGradient id="paint2_linear_7228_296892" x1="355.768" y1="154" x2="328.622" y2="310.38" gradientUnits="userSpaceOnUse">
<stop stop-color="#1C1C2D"/>
<stop offset="1" stop-opacity="0"/>
</linearGradient>
<linearGradient id="paint3_linear_7228_296892" x1="346.276" y1="208.851" x2="354.07" y2="335.833" gradientUnits="userSpaceOnUse">
<stop stop-color="white"/>
<stop offset="1" stop-color="white" stop-opacity="0"/>
</linearGradient>
<linearGradient id="paint4_linear_7228_296892" x1="438.539" y1="385.591" x2="297.016" y2="254.947" gradientUnits="userSpaceOnUse">
<stop stop-color="#4FE2CE"/>
<stop offset="1" stop-color="#4FE2CE"/>
</linearGradient>
<linearGradient id="paint5_linear_7228_296892" x1="222" y1="286.745" x2="68.0267" y2="146.108" gradientUnits="userSpaceOnUse">
<stop stop-color="#4FE2CE"/>
<stop offset="1" stop-color="#4FE2CE" stop-opacity="0.2"/>
</linearGradient>
</defs>
</svg>
