<svg width="18" height="18" viewBox="0 0 18 18" fill="none" xmlns="http://www.w3.org/2000/svg">
<path fill-rule="evenodd" clip-rule="evenodd" d="M9.27307 0.822408C10.0009 1.22673 16.2135 4.64037 16.3458 4.77271C16.4433 4.86995 16.4978 4.99586 16.4978 5.13157H16.5V12.8676C16.5 13.0761 16.3713 13.2552 16.1866 13.337L9.26647 17.1816C9.09341 17.2775 8.88763 17.2691 8.72767 17.1781L1.77049 13.3133C1.59889 13.2181 1.50291 13.046 1.50291 12.8684H1.5V5.1316C1.5 4.92313 1.6287 4.74405 1.81339 4.66222L8.73428 0.818283C8.90733 0.722447 9.11312 0.73077 9.27307 0.822408ZM8.46449 15.8455V9.29517L2.57262 6.02286V12.5732L8.46449 15.8455ZM9.53628 9.29517V15.8455L15.4282 12.5732V6.02286L9.53628 9.29517ZM3.10403 5.13159L9.00037 8.40676L14.8967 5.13159L9.00037 1.85641L3.10403 5.13159Z" fill="white"/>
</svg>
