<svg width="167" height="79" viewBox="0 0 167 79" fill="none" xmlns="http://www.w3.org/2000/svg">
<g clip-path="url(#clip0_6162_144633)">
<path d="M167 7.9973L163.224 0.0078125L4 0L0 8H12.8639L167 7.9973Z" fill="#33333D"/>
<path d="M151.816 45.9154C149.088 57.116 139.055 64.9989 127.527 64.999L39.763 64.9998C28.2899 64.9999 18.2895 57.1908 15.5083 46.0599L4.00001 1.35857e-06L163 8.39233e-05L151.816 45.9154Z" fill="url(#paint0_linear_6162_144633)"/>
<path d="M90.344 42.448C89.0187 42.448 87.852 42.1493 86.844 41.552C85.8547 40.936 85.0893 40.096 84.548 39.032C84.0067 37.9493 83.7267 36.708 83.708 35.308L86.788 35.14C86.8067 36.6333 87.124 37.7627 87.74 38.528C88.356 39.2933 89.224 39.676 90.344 39.676C91.52 39.676 92.416 39.2747 93.032 38.472C93.6667 37.6693 93.984 36.512 93.984 35V22.12H97.008V35C97.008 36.512 96.728 37.828 96.168 38.948C95.6267 40.068 94.8613 40.936 93.872 41.552C92.8827 42.1493 91.7067 42.448 90.344 42.448ZM101.826 42V22.12H104.85V42H101.826ZM112.694 42V24.892H106.59V22.12H121.822V24.892H115.718V42H112.694Z" fill="white"/>
<path d="M57.5166 18.6411C57.8328 18.4661 58.2079 18.4815 58.5 18.6479L64.3486 21.8794C65.6402 22.5953 66.9034 23.2976 67.8564 23.8345C68.3329 24.1028 68.7325 24.33 69.0195 24.4966C69.1627 24.5797 69.2785 24.6485 69.3623 24.6997C69.4041 24.7253 69.4393 24.7476 69.4658 24.7651C69.487 24.7791 69.516 24.7988 69.5352 24.8179C69.6776 24.96 69.7708 25.1378 69.8027 25.3325H69.8193V37.5161C69.8193 37.9001 69.5843 38.2248 69.2539 38.3765L58.4902 44.3579C58.1733 44.5334 57.797 44.5181 57.5049 44.3521V44.3511L46.6836 38.3403C46.4174 38.1926 46.2506 37.9417 46.2051 37.6675H46.1855V25.4819C46.1857 25.098 46.4205 24.7722 46.751 24.6206L57.5166 18.6411ZM48.1543 36.9692L57.0195 41.8931V32.0474L48.1543 27.1226V36.9692ZM58.9873 32.0464V41.8921L67.8516 36.9692V27.1235L58.9873 32.0464ZM49.1406 25.4819L58.0029 30.4048L66.8652 25.4819L58.0029 20.5591L49.1406 25.4819Z" fill="white" stroke="white" stroke-width="0.3"/>
</g>
<defs>
<linearGradient id="paint0_linear_6162_144633" x1="75.1186" y1="5.46943" x2="75.1186" y2="-2.72314" gradientUnits="userSpaceOnUse">
<stop stop-color="#5C5C6B"/>
<stop offset="1" stop-color="#4E4E5D"/>
</linearGradient>
<clipPath id="clip0_6162_144633">
<rect width="167" height="78.9999" fill="white" transform="translate(167 79) rotate(-180)"/>
</clipPath>
</defs>
</svg>
