<svg width="52" height="52" viewBox="0 0 52 52" fill="none" xmlns="http://www.w3.org/2000/svg">
<rect width="52" height="52" rx="16" fill="#5C5C6B"/>
<path d="M25.5928 11.2588C25.9154 11.1332 26.2729 11.1665 26.5596 11.3301C27.2076 11.69 30.2896 13.3854 33.2432 15.0225C34.7194 15.8407 36.1628 16.6443 37.252 17.2578C37.7964 17.5645 38.2532 17.8233 38.5811 18.0137C38.7448 18.1087 38.8771 18.1877 38.9727 18.2461C39.0201 18.2751 39.0599 18.2996 39.0898 18.3193C39.1144 18.3356 39.1459 18.357 39.166 18.377H39.167C39.3311 18.5407 39.4359 18.7468 39.4688 18.9717H39.4844V32.874C39.4844 33.3044 39.221 33.669 38.8496 33.8389L38.8506 33.8398L26.5479 40.6748C26.1928 40.8715 25.7719 40.8538 25.4443 40.668V40.6689L13.0762 33.7979C12.7713 33.6288 12.5804 33.3399 12.5342 33.0254H12.5176V19.1211C12.5178 18.691 12.7812 18.3261 13.1523 18.1562L25.4561 11.3223L25.5928 11.2588ZM14.7246 32.2617L24.8994 37.9131V26.6113L14.7246 20.96V32.2617ZM27.1045 26.6113V37.9131L37.2793 32.2617V20.96L27.1045 26.6113ZM15.8291 19.1211L26.002 24.7715L36.1738 19.1211L26.002 13.4697L15.8291 19.1211Z" fill="white" stroke="white" stroke-width="0.3"/>
</svg>
