<svg width="31" height="184" viewBox="0 0 31 184" fill="none" xmlns="http://www.w3.org/2000/svg">
<g clip-path="url(#clip0_7029_408209)">
<path d="M8.67056 173.105C3.38272 170.643 0.00141943 165.339 0.00136446 159.506L8.27069e-05 23.4943C2.77379e-05 17.6613 3.38145 12.3572 8.66951 9.89545L30.9999 -0.500017L31 183.5L8.67056 173.105Z" fill="url(#paint0_linear_7029_408209)"/>
<path d="M20.724 88.828C20.724 89.4907 20.5747 90.074 20.276 90.578C19.968 91.0727 19.548 91.4553 19.016 91.726C18.4747 91.9967 17.854 92.1367 17.154 92.146L17.07 90.606C17.8167 90.5967 18.3813 90.438 18.764 90.13C19.1467 89.822 19.338 89.388 19.338 88.828C19.338 88.24 19.1373 87.792 18.736 87.484C18.3347 87.1667 17.756 87.008 17 87.008L10.56 87.008L10.56 85.496L17 85.496C17.756 85.496 18.414 85.636 18.974 85.916C19.534 86.1867 19.968 86.5693 20.276 87.064C20.5747 87.5587 20.724 88.1467 20.724 88.828ZM20.5 83.087L10.56 83.087L10.56 81.575L20.5 81.575L20.5 83.087ZM20.5 77.653L11.946 77.653L11.946 80.705L10.56 80.705L10.56 73.089L11.946 73.089L11.946 76.141L20.5 76.141L20.5 77.653Z" fill="white"/>
<path fill-rule="evenodd" clip-rule="evenodd" d="M15.7276 97.6853C16.3341 98.0223 21.5112 100.867 21.6215 100.977C21.7027 101.058 21.7482 101.163 21.7482 101.276H21.75V107.723C21.75 107.897 21.6427 108.046 21.4888 108.114L15.7221 111.318C15.5778 111.398 15.4064 111.391 15.2731 111.315L9.47541 108.094C9.33241 108.015 9.25242 107.872 9.25242 107.724H9.25V101.276C9.25 101.103 9.35725 100.953 9.51116 100.885L15.2786 97.6819C15.4228 97.602 15.5943 97.609 15.7276 97.6853ZM15.0537 110.205V104.746L10.1439 102.019V107.478L15.0537 110.205ZM15.9469 104.746V110.205L20.8568 107.478V102.019L15.9469 104.746ZM10.5867 101.276L15.5003 104.006L20.4139 101.276L15.5003 98.547L10.5867 101.276Z" fill="white"/>
</g>
<defs>
<linearGradient id="paint0_linear_7029_408209" x1="22" y1="83.9124" x2="34.2426" y2="83.9124" gradientUnits="userSpaceOnUse">
<stop stop-color="#5C5C6B"/>
<stop offset="1" stop-color="#393944"/>
</linearGradient>
<clipPath id="clip0_7029_408209">
<rect width="184" height="31" fill="white" transform="translate(0 184) rotate(-90)"/>
</clipPath>
</defs>
</svg>
