<svg width="15" height="15" viewBox="0 0 15 15" fill="none" xmlns="http://www.w3.org/2000/svg">
<path fill-rule="evenodd" clip-rule="evenodd" d="M7.72756 0.68534C8.33411 1.02228 13.5112 3.86698 13.6215 3.97726C13.7027 4.05829 13.7482 4.16322 13.7482 4.27631H13.75V10.723C13.75 10.8967 13.6427 11.046 13.4888 11.1142L7.72206 14.318C7.57784 14.3979 7.40635 14.3909 7.27306 14.3151L1.47541 11.0944C1.33241 11.0151 1.25242 10.8717 1.25242 10.7236H1.25V4.27633C1.25 4.10261 1.35725 3.95338 1.51116 3.88518L7.27856 0.681903C7.42278 0.602039 7.59426 0.608975 7.72756 0.68534ZM7.05375 13.2046V7.74598L2.14385 5.01905V10.4777L7.05375 13.2046ZM7.9469 7.74598V13.2046L12.8568 10.4777V5.01905L7.9469 7.74598ZM2.58669 4.27632L7.50031 7.00564L12.4139 4.27632L7.50031 1.54701L2.58669 4.27632Z" fill="white"/>
</svg>
