<svg width="115" height="137" viewBox="0 0 115 137" fill="none" xmlns="http://www.w3.org/2000/svg">
<path d="M49.3574 3.70498C53.3596 -1.23099 60.8904 -1.23099 64.8926 3.70499L112.018 61.827C114.995 65.4981 114.995 70.7519 112.018 74.423L64.8926 132.545C60.8904 137.481 53.3596 137.481 49.3574 132.545L2.2315 74.423C-0.745088 70.7519 -0.745084 65.4981 2.23151 61.827L49.3574 3.70498Z" fill="url(#paint0_linear_4889_18290)" fill-opacity="0.15"/>
<path d="M49.746 4.02035C53.548 -0.668823 60.702 -0.668823 64.504 4.02035L111.63 62.1419C114.457 65.6295 114.458 70.6206 111.63 74.1082L64.504 132.23C60.702 136.919 53.548 136.919 49.746 132.23L2.61977 74.1082C-0.207973 70.6206 -0.207291 65.6295 2.62046 62.1419L49.746 4.02035Z" stroke="white" stroke-opacity="0.1"/>
<defs>
<linearGradient id="paint0_linear_4889_18290" x1="63.0195" y1="132.023" x2="64.2031" y2="-7.90844" gradientUnits="userSpaceOnUse">
<stop stop-color="white"/>
<stop offset="1" stop-color="white" stop-opacity="0.5"/>
</linearGradient>
</defs>
</svg>
