<svg viewBox="0 0 32 32" fill="none" xmlns="http://www.w3.org/2000/svg">
<path d="M15.3758 26.3225C15.8084 25.896 15.849 25.222 15.4944 24.7491L15.3879 24.6255L8.06667 17.2013L26.8 17.2013C27.4627 17.2013 28 16.664 28 16.0013C28 15.3895 27.5422 14.8847 26.9505 14.8107L26.8 14.8013L8.06667 14.8013L15.3879 7.37712C15.8144 6.94451 15.8454 6.27003 15.4841 5.80223L15.3758 5.68011C14.9432 5.25359 14.2687 5.22257 13.8009 5.58388L13.6788 5.69214L4.34548 15.1588C3.92323 15.5871 3.88804 16.2534 4.23991 16.7214L4.34548 16.8438L13.6788 26.3105C14.1441 26.7824 14.9039 26.7878 15.3758 26.3225Z" fill="white"/>
</svg>
