<svg width="60" height="60" viewBox="0 0 60 60" fill="none" xmlns="http://www.w3.org/2000/svg">
<path d="M19.091 18.408C18.2123 17.5294 16.7861 17.5294 15.9074 18.408L5.9074 28.408C5.02872 29.2867 5.02872 30.7129 5.9074 31.5916C6.78608 32.4703 8.21231 32.4703 9.09099 31.5916L19.091 21.5916C19.9697 20.7129 19.9697 19.2867 19.091 18.408Z" fill="#FF7083"/>
<path d="M9.09099 28.408C8.21231 27.5294 6.78608 27.5294 5.9074 28.408C5.02872 29.2867 5.02872 30.7129 5.9074 31.5916L15.9074 41.5916C16.7861 42.4703 18.2123 42.4703 19.091 41.5916C19.9697 40.7129 19.9697 39.2867 19.091 38.408L9.09099 28.408Z" fill="#FF7083"/>
<path d="M8.74902 27.749C7.50638 27.749 6.49805 28.7574 6.49805 30C6.49805 31.2426 7.50638 32.251 8.74902 32.251H34.999C36.2417 32.251 37.25 31.2426 37.25 30C37.25 28.7574 36.2417 27.749 34.999 27.749H8.74902Z" fill="#FF7083"/>
<path d="M47.75 42.5V17.5C47.75 13.2198 44.2812 9.75098 40.001 9.75098H30.001C28.7583 9.75098 27.75 8.74264 27.75 7.5C27.75 6.25736 28.7583 5.24902 30.001 5.24902H40.001C46.7665 5.24902 52.252 10.7345 52.252 17.5V42.5C52.252 49.2655 46.7665 54.751 40.001 54.751H30.001C28.7583 54.751 27.75 53.7426 27.75 52.5C27.75 51.2574 28.7583 50.249 30.001 50.249H40.001C44.2812 50.249 47.75 46.7802 47.75 42.5Z" fill="#FF7083"/>
</svg>
