<svg width="32" height="32" viewBox="0 0 32 32" fill="none" xmlns="http://www.w3.org/2000/svg">
<path fill-rule="evenodd" clip-rule="evenodd" d="M13.7117 2.66797C7.61026 2.66797 2.66406 7.61416 2.66406 13.7156C2.66406 19.817 7.61026 24.7632 13.7117 24.7632C16.2681 24.7632 18.6217 23.8949 20.4937 22.4371L26.9896 28.933C27.5251 29.4685 28.3935 29.4685 28.929 28.933C29.4646 28.3974 29.4646 27.529 28.929 26.9935L22.4332 20.4976C23.891 18.6257 24.7593 16.272 24.7593 13.7156C24.7593 7.61416 19.8131 2.66797 13.7117 2.66797ZM13.7117 5.41083C9.1251 5.41083 5.40692 9.12899 5.40692 13.7156C5.40692 18.3022 9.1251 22.0203 13.7117 22.0203C18.2983 22.0203 22.0165 18.3022 22.0165 13.7156C22.0165 9.12899 18.2983 5.41083 13.7117 5.41083Z" fill="white"/>
</svg>
