<svg width="66" height="66" viewBox="0 0 66 66" fill="none" xmlns="http://www.w3.org/2000/svg">
    <g clip-path="url(#clip0_17239_110664)">
        <path
            d="M9.60081 51.1868C10.8888 49.953 12.1424 48.6839 13.3601 47.3808C14.3831 46.3413 14.9991 45.585 14.9991 45.585L22.6991 41.9083C19.6163 38.412 17.915 33.9112 17.9141 29.25C17.9141 18.6378 26.5491 10 37.1641 10C47.7791 10 56.4141 18.6378 56.4141 29.25C56.4141 39.8623 47.7791 48.5 37.1641 48.5C32.3158 48.5 27.8966 46.685 24.5058 43.7178L20.8291 51.4178C20.8291 51.4178 20.0728 52.0338 19.0333 53.0568C17.9691 54.055 16.5693 55.4053 15.2273 56.816L11.4928 60.644L9.83181 62.4205L3.99906 56.5878L5.77556 54.9268C6.81781 53.9038 8.20931 52.5453 9.60081 51.1868ZM37.1641 43C44.7458 43 50.9141 36.8318 50.9141 29.25C50.9141 21.6683 44.7458 15.5 37.1641 15.5C29.5823 15.5 23.4141 21.6683 23.4141 29.25C23.4141 36.8318 29.5823 43 37.1641 43Z"
            fill="white"
        />
    </g>
    <defs>
        <clipPath id="clip0_17239_110664">
            <rect width="66" height="66" fill="white" />
        </clipPath>
    </defs>
</svg>
