<svg width="66" height="66" viewBox="0 0 66 66" fill="none" xmlns="http://www.w3.org/2000/svg">
<path d="M46.0625 28.1875C46.0625 18.3154 38.0596 10.3125 28.1875 10.3125C18.3154 10.3125 10.3125 18.3154 10.3125 28.1875C10.3125 38.0596 18.3154 46.0625 28.1875 46.0625C38.0596 46.0625 46.0625 38.0596 46.0625 28.1875ZM50.1875 28.1875C50.1875 40.3378 40.3378 50.1875 28.1875 50.1875C16.0372 50.1875 6.1875 40.3378 6.1875 28.1875C6.1875 16.0372 16.0372 6.1875 28.1875 6.1875C40.3378 6.1875 50.1875 16.0372 50.1875 28.1875Z" fill="white"/>
<path d="M45.1387 41.25L55.8337 51.945C56.9076 53.0189 56.9076 54.7601 55.8337 55.8341C54.7597 56.908 53.0185 56.908 51.9446 55.8341L41.2496 45.1391L45.1387 41.25Z" fill="white"/>
<path d="M31.0125 29.7421C32.7066 28.6286 33.7139 26.7456 33.687 24.7376V24.672C33.687 21.6771 31.225 19.25 28.1872 19.25C25.1494 19.25 22.6875 21.6771 22.6875 24.672C22.6875 25.3617 23.257 25.9231 23.9565 25.9231C24.6577 25.9231 25.2256 25.3617 25.2256 24.672C25.2256 23.0596 26.5517 21.7522 28.1872 21.7522C29.8227 21.7522 31.1489 23.0596 31.1489 24.672C31.1632 25.823 30.5747 26.9021 29.5911 27.5245C27.8986 28.638 26.8913 30.5209 26.9182 32.5289V33.9129C26.9182 34.6042 27.4861 35.164 28.1873 35.164C28.8884 35.164 29.4563 34.6042 29.4563 33.9129V32.5946C29.4404 31.4436 30.029 30.3645 31.0125 29.7421Z" fill="white"/>
<path d="M28.6726 38.4044C29.147 38.212 29.4563 37.7554 29.4563 37.2487C29.4468 36.5621 28.8836 36.007 28.1872 35.9976C27.6733 35.9976 27.2117 36.3026 27.015 36.7701C26.8183 37.2377 26.9277 37.7757 27.2894 38.1338C27.6527 38.4919 28.1983 38.5983 28.6726 38.4044Z" fill="white"/>
</svg>
