<svg width="822" height="532" viewBox="0 0 822 532" fill="none" xmlns="http://www.w3.org/2000/svg">
<mask id="mask0_4956_90017" style="mask-type:alpha" maskUnits="userSpaceOnUse" x="0" y="90" width="621" height="442">
<path d="M401.959 529.885C266.414 542.208 80.5535 487.785 4.56624 459.033C5.21391 456.674 5.29942 433.578 0.460056 360.066C-5.58915 268.176 49.1417 152.377 98.3995 112.337C147.657 72.297 361.972 98.8018 420.736 100.242C479.499 101.682 521.282 129.671 519.943 136.019C518.605 142.367 517.419 160.99 517.572 164.546C517.725 168.102 540.885 178.758 539.993 173.833C539.101 168.908 539.636 147.873 540.271 143.389C540.779 139.803 542.459 139.672 543.236 140.056L598.601 217.435C601.163 225.961 604.595 242.574 597.833 240.818C589.38 238.622 579.829 232.367 576.865 230.611C573.901 228.854 580.488 257.288 582.903 258.386C585.318 259.484 591.466 261.563 596.516 262.88C600.555 263.934 614.308 281.132 620.68 289.6C620.166 303.975 615.443 347.205 600.656 405.12C582.172 477.513 571.391 514.48 401.959 529.885Z" fill="#D9D9D9"/>
</mask>
<g mask="url(#mask0_4956_90017)">
<rect opacity="0.3" x="71.625" y="132.5" width="516.544" height="314.794" rx="144.298" fill="url(#paint0_linear_4956_90017)"/>
<rect x="58.3828" y="119.164" width="537.274" height="335.961" rx="154" stroke="url(#paint1_linear_4956_90017)" stroke-width="2"/>
<rect x="69.5703" y="129.75" width="516.544" height="314.794" rx="144.298" stroke="url(#paint2_linear_4956_90017)"/>
<path d="M60.0078 323.375C65.9078 408.003 136.28 473.641 221.114 473.641H436.239C519.596 473.641 588.643 408.942 594.056 325.761" stroke="url(#paint3_linear_4956_90017)"/>
</g>
<path d="M700.268 83.7209C741.859 125.312 741.859 192.744 700.268 234.335C658.677 275.926 591.245 275.926 549.654 234.335C508.063 192.744 508.063 125.312 549.654 83.7209C591.245 42.1301 658.677 42.1301 700.268 83.7209ZM686.584 97.4087C652.551 63.3752 597.371 63.3752 563.338 97.4087C529.304 131.442 529.305 186.621 563.338 220.655C597.372 254.688 652.55 254.688 686.583 220.655C720.617 186.621 720.617 131.442 686.584 97.4087Z" fill="#D9D9D9" fill-opacity="0.1"/>
<path d="M686.584 97.4087L687.291 96.7016L687.291 96.7016L686.584 97.4087ZM563.338 97.4087L562.631 96.7016L562.631 96.7016L563.338 97.4087ZM563.338 220.655L562.631 221.362L562.631 221.362L563.338 220.655ZM686.583 220.655L687.291 221.362L687.291 221.362L686.583 220.655ZM700.268 83.7209L699.561 84.428C740.761 125.628 740.761 192.427 699.561 233.628L700.268 234.335L700.975 235.042C742.956 193.06 742.956 124.995 700.975 83.0138L700.268 83.7209ZM700.268 234.335L699.561 233.628C658.36 274.828 591.561 274.828 550.361 233.628L549.654 234.335L548.947 235.042C590.928 277.023 658.994 277.023 700.975 235.042L700.268 234.335ZM549.654 234.335L550.361 233.628C509.161 192.427 509.161 125.628 550.361 84.428L549.654 83.7209L548.947 83.0138C506.966 124.995 506.966 193.06 548.947 235.042L549.654 234.335ZM549.654 83.7209L550.361 84.428C591.561 43.2277 658.36 43.2277 699.561 84.428L700.268 83.7209L700.975 83.0138C658.994 41.0325 590.928 41.0325 548.947 83.0138L549.654 83.7209ZM686.584 97.4087L687.291 96.7016C652.867 62.2776 597.055 62.2776 562.631 96.7016L563.338 97.4087L564.045 98.1158C597.688 64.4728 652.234 64.4728 685.877 98.1158L686.584 97.4087ZM563.338 97.4087L562.631 96.7016C528.207 131.126 528.207 186.938 562.631 221.362L563.338 220.655L564.045 219.947C530.403 186.304 530.402 131.759 564.045 98.1158L563.338 97.4087ZM563.338 220.655L562.631 221.362C597.055 255.785 652.867 255.785 687.291 221.362L686.583 220.655L685.876 219.947C652.233 253.59 597.688 253.59 564.045 219.947L563.338 220.655ZM686.583 220.655L687.291 221.362C721.715 186.938 721.715 131.126 687.291 96.7016L686.584 97.4087L685.877 98.1158C719.52 131.759 719.519 186.304 685.876 219.947L686.583 220.655Z" fill="url(#paint4_linear_4956_90017)"/>
<path d="M550.531 29.7424V8.8219H555.244V12.3768H555.489C555.925 11.1782 556.647 10.2429 557.655 9.57101C558.662 8.89 559.866 8.5495 561.264 8.5495C562.68 8.5495 563.874 8.89454 564.846 9.58463C565.827 10.2656 566.517 11.1963 566.916 12.3768H567.134C567.597 11.2145 568.378 10.2883 569.477 9.59825C570.585 8.89908 571.897 8.5495 573.413 8.5495C575.338 8.5495 576.909 9.15786 578.126 10.3746C579.342 11.5913 579.951 13.3665 579.951 15.7001V29.7424H575.007V16.4628C575.007 15.1643 574.662 14.2155 573.971 13.6162C573.281 13.0078 572.437 12.7036 571.438 12.7036C570.249 12.7036 569.318 13.0759 568.646 13.8205C567.983 14.556 567.652 15.5139 567.652 16.6943V29.7424H562.817V16.2585C562.817 15.178 562.49 14.3154 561.836 13.6707C561.191 13.026 560.347 12.7036 559.303 12.7036C558.594 12.7036 557.95 12.8852 557.369 13.2484C556.787 13.6026 556.324 14.1065 555.979 14.7603C555.634 15.405 555.462 16.1586 555.462 17.0212V29.7424H550.531Z" stroke="url(#paint5_linear_4956_90017)"/>
<path d="M584.953 29.7424V8.8219H589.883V29.7424H584.953ZM587.432 5.85271C586.651 5.85271 585.979 5.59393 585.416 5.07636C584.853 4.54972 584.571 3.91865 584.571 3.18317C584.571 2.4386 584.853 1.80753 585.416 1.28997C585.979 0.763322 586.651 0.5 587.432 0.5C588.222 0.5 588.893 0.763322 589.447 1.28997C590.01 1.80753 590.292 2.4386 590.292 3.18317C590.292 3.91865 590.01 4.54972 589.447 5.07636C588.893 5.59393 588.222 5.85271 587.432 5.85271Z" stroke="url(#paint6_linear_4956_90017)"/>
<path d="M611.488 14.3517L606.994 14.842C606.866 14.388 606.644 13.9612 606.326 13.5617C606.017 13.1622 605.6 12.8398 605.073 12.5947C604.546 12.3495 603.902 12.2269 603.139 12.2269C602.113 12.2269 601.25 12.4494 600.551 12.8943C599.861 13.3392 599.521 13.9158 599.53 14.6241C599.521 15.2324 599.743 15.7273 600.197 16.1087C600.66 16.49 601.423 16.8033 602.485 17.0485L606.054 17.8112C608.033 18.238 609.504 18.9144 610.467 19.8406C611.438 20.7668 611.929 21.9789 611.938 23.4772C611.929 24.7938 611.543 25.956 610.78 26.9639C610.026 27.9627 608.978 28.7436 607.634 29.3066C606.29 29.8695 604.746 30.151 603.003 30.151C600.442 30.151 598.381 29.6153 596.819 28.5439C595.257 27.4633 594.327 25.9606 594.027 24.0356L598.835 23.5725C599.053 24.5168 599.516 25.2296 600.224 25.7109C600.933 26.1921 601.854 26.4327 602.989 26.4327C604.161 26.4327 605.1 26.1921 605.809 25.7109C606.526 25.2296 606.885 24.6349 606.885 23.9266C606.885 23.3273 606.653 22.8325 606.19 22.442C605.736 22.0516 605.028 21.7519 604.065 21.5431L600.497 20.794C598.49 20.3763 597.005 19.6726 596.043 18.6829C595.08 17.6841 594.604 16.4219 594.613 14.8965C594.604 13.6071 594.953 12.4903 595.662 11.5459C596.379 10.5925 597.373 9.85703 598.644 9.33947C599.925 8.81282 601.4 8.5495 603.071 8.5495C605.523 8.5495 607.452 9.0716 608.859 10.1158C610.276 11.16 611.152 12.572 611.488 14.3517Z" stroke="url(#paint7_linear_4956_90017)"/>
<path d="M632.538 14.3517L628.043 14.842C627.916 14.388 627.694 13.9612 627.376 13.5617C627.067 13.1622 626.65 12.8398 626.123 12.5947C625.596 12.3495 624.952 12.2269 624.189 12.2269C623.163 12.2269 622.3 12.4494 621.601 12.8943C620.911 13.3392 620.571 13.9158 620.58 14.6241C620.571 15.2324 620.793 15.7273 621.247 16.1087C621.71 16.49 622.473 16.8033 623.535 17.0485L627.104 17.8112C629.083 18.238 630.554 18.9144 631.517 19.8406C632.488 20.7668 632.978 21.9789 632.988 23.4772C632.978 24.7938 632.593 25.956 631.83 26.9639C631.076 27.9627 630.027 28.7436 628.684 29.3066C627.34 29.8695 625.796 30.151 624.053 30.151C621.492 30.151 619.431 29.6153 617.869 28.5439C616.307 27.4633 615.377 25.9606 615.077 24.0356L619.885 23.5725C620.103 24.5168 620.566 25.2296 621.274 25.7109C621.982 26.1921 622.904 26.4327 624.039 26.4327C625.21 26.4327 626.15 26.1921 626.858 25.7109C627.576 25.2296 627.934 24.6349 627.934 23.9266C627.934 23.3273 627.703 22.8325 627.24 22.442C626.786 22.0516 626.078 21.7519 625.115 21.5431L621.547 20.794C619.54 20.3763 618.055 19.6726 617.093 18.6829C616.13 17.6841 615.654 16.4219 615.663 14.8965C615.654 13.6071 616.003 12.4903 616.711 11.5459C617.429 10.5925 618.423 9.85703 619.694 9.33947C620.975 8.81282 622.45 8.5495 624.121 8.5495C626.572 8.5495 628.502 9.0716 629.909 10.1158C631.326 11.16 632.202 12.572 632.538 14.3517Z" stroke="url(#paint8_linear_4956_90017)"/>
<path d="M637.053 29.7424V8.8219H641.984V29.7424H637.053ZM639.532 5.85271C638.751 5.85271 638.079 5.59393 637.516 5.07636C636.953 4.54972 636.672 3.91865 636.672 3.18317C636.672 2.4386 636.953 1.80753 637.516 1.28997C638.079 0.763322 638.751 0.5 639.532 0.5C640.322 0.5 640.994 0.763322 641.548 1.28997C642.111 1.80753 642.392 2.4386 642.392 3.18317C642.392 3.91865 642.111 4.54972 641.548 5.07636C640.994 5.59393 640.322 5.85271 639.532 5.85271Z" stroke="url(#paint9_linear_4956_90017)"/>
<path d="M651.984 17.4843V29.7424H647.054V8.8219H651.766V12.3768H652.011C652.493 11.2054 653.26 10.2747 654.313 9.58463C655.376 8.89454 656.688 8.5495 658.249 8.5495C659.693 8.5495 660.951 8.85822 662.022 9.47567C663.103 10.0931 663.938 10.9875 664.528 12.1588C665.128 13.3302 665.423 14.7512 665.414 16.4219V29.7424H660.483V17.1847C660.483 15.7863 660.12 14.6922 659.394 13.9022C658.676 13.1122 657.682 12.7173 656.411 12.7173C655.548 12.7173 654.781 12.9079 654.109 13.2893C653.446 13.6616 652.924 14.2019 652.543 14.9101C652.17 15.6183 651.984 16.4764 651.984 17.4843Z" stroke="url(#paint10_linear_4956_90017)"/>
<path d="M679.524 38.0235C677.753 38.0235 676.233 37.7828 674.961 37.3016C673.69 36.8294 672.669 36.1938 671.897 35.3948C671.125 34.5957 670.589 33.7104 670.29 32.7389L674.73 31.6629C674.93 32.0715 675.22 32.4755 675.602 32.8751C675.983 33.2837 676.496 33.6196 677.141 33.8829C677.794 34.1553 678.616 34.2916 679.606 34.2916C681.004 34.2916 682.162 33.951 683.079 33.27C683.996 32.5981 684.455 31.4903 684.455 29.9467V25.9833H684.209C683.955 26.4918 683.583 27.0139 683.093 27.5496C682.611 28.0853 681.971 28.5348 681.172 28.898C680.382 29.2612 679.388 29.4428 678.189 29.4428C676.582 29.4428 675.125 29.066 673.817 28.3123C672.519 27.5496 671.484 26.4146 670.712 24.9073C669.949 23.3909 669.568 21.4932 669.568 19.2141C669.568 16.9168 669.949 14.9782 670.712 13.3983C671.484 11.8093 672.523 10.6061 673.831 9.78893C675.138 8.96264 676.596 8.5495 678.203 8.5495C679.429 8.5495 680.437 8.75834 681.227 9.17602C682.026 9.58463 682.661 10.0795 683.133 10.6606C683.606 11.2327 683.964 11.7729 684.209 12.2814H684.482V8.8219H689.344V30.0829C689.344 31.8717 688.917 33.3518 688.064 34.5231C687.21 35.6944 686.044 36.5707 684.564 37.1518C683.083 37.7329 681.404 38.0235 679.524 38.0235ZM679.565 25.5747C680.609 25.5747 681.499 25.3204 682.235 24.8119C682.97 24.3035 683.528 23.5725 683.91 22.6191C684.291 21.6657 684.482 20.5216 684.482 19.1868C684.482 17.8702 684.291 16.717 683.91 15.7273C683.538 14.7376 682.984 13.9703 682.248 13.4255C681.522 12.8716 680.627 12.5947 679.565 12.5947C678.466 12.5947 677.549 12.8807 676.814 13.4527C676.078 14.0248 675.524 14.8102 675.152 15.809C674.78 16.7988 674.594 17.9247 674.594 19.1868C674.594 20.4671 674.78 21.5885 675.152 22.551C675.533 23.5044 676.092 24.249 676.827 24.7847C677.572 25.3113 678.484 25.5747 679.565 25.5747Z" stroke="url(#paint11_linear_4956_90017)"/>
<rect x="689.344" y="255.938" width="46" height="140.542" rx="23" transform="rotate(-45 689.344 255.938)" fill="#D9D9D9" fill-opacity="0.1"/>
<rect x="689.344" y="255.938" width="46" height="140.542" rx="23" transform="rotate(-45 689.344 255.938)" stroke="url(#paint12_linear_4956_90017)" stroke-width="2"/>
<path d="M619.375 183.073C617.165 183.073 615.356 181.278 615.479 179.072C616.117 167.613 619.802 160.754 629.728 153.527C636.679 148.224 643.478 145.952 643.478 137.164C643.629 128.83 637.83 123.073 627.253 123.073C618.277 123.073 612.701 129.029 610.499 137.984C610.006 139.987 608.246 141.49 606.186 141.402L592.799 140.83C590.505 140.731 588.746 138.717 589.196 136.465C592.748 118.678 607.288 105.406 626.649 105.406C649.011 105.406 664.573 119.134 664.573 137.164C664.573 147.618 659.436 155.194 646.744 163.376C639.936 167.756 637.564 172.027 637.006 179.075C636.832 181.277 635.075 183.073 632.866 183.073H619.375ZM619.015 210.406C616.806 210.406 615.015 208.615 615.015 206.406V193.952C615.015 191.743 616.806 189.952 619.015 189.952H632.621C634.83 189.952 636.621 191.743 636.621 193.952V206.406C636.621 208.615 634.83 210.406 632.621 210.406H619.015Z" stroke="white" stroke-width="2"/>
<path d="M619.375 183.073C617.165 183.073 615.356 181.278 615.479 179.072C616.117 167.613 619.802 160.754 629.728 153.527C636.679 148.224 643.478 145.952 643.478 137.164C643.629 128.83 637.83 123.073 627.253 123.073C618.277 123.073 612.701 129.029 610.499 137.984C610.006 139.987 608.246 141.49 606.186 141.402L592.799 140.83C590.505 140.731 588.746 138.717 589.196 136.465C592.748 118.678 607.288 105.406 626.649 105.406C649.011 105.406 664.573 119.134 664.573 137.164C664.573 147.618 659.436 155.194 646.744 163.376C639.936 167.756 637.564 172.027 637.006 179.075C636.832 181.277 635.075 183.073 632.866 183.073H619.375ZM619.015 210.406C616.806 210.406 615.015 208.615 615.015 206.406V193.952C615.015 191.743 616.806 189.952 619.015 189.952H632.621C634.83 189.952 636.621 191.743 636.621 193.952V206.406C636.621 208.615 634.83 210.406 632.621 210.406H619.015Z" fill="#D9D9D9" fill-opacity="0.1"/>
<path d="M634.887 191.18C637.2 191.18 639.075 193.039 639.075 195.333V211.262C639.075 213.555 637.2 215.414 634.887 215.414H619.64C617.327 215.414 615.451 213.555 615.451 211.262V207.797M652.343 112.914C666.343 120.914 668.343 132.799 668.343 140.414C668.343 151.267 665.132 158.421 651.843 166.914C644.713 171.461 641.062 175.572 640.478 182.889C640.213 186.208 637.456 188.039 635.143 188.039H621.016C618.703 188.039 616.809 186.176 616.937 183.886C616.995 182.861 617.076 183.872 617.183 182.914M642.843 139.914C642.843 130.914 635.544 127.754 629.266 127.754C619.867 127.754 616.028 133.937 613.723 143.233C613.207 145.312 611.364 146.873 609.207 146.781L593.19 146.187C590.788 146.085 588.843 143.914 588.843 141.414C588.843 139.914 588.599 137.815 588.843 136.914" stroke="url(#paint13_linear_4956_90017)"/>
<defs>
<linearGradient id="paint0_linear_4956_90017" x1="588.169" y1="490.253" x2="329.897" y2="103.163" gradientUnits="userSpaceOnUse">
<stop stop-color="#E4255B"/>
<stop offset="1" stop-color="#E4255B" stop-opacity="0.2"/>
</linearGradient>
<linearGradient id="paint1_linear_4956_90017" x1="327.02" y1="119.164" x2="327.02" y2="455.125" gradientUnits="userSpaceOnUse">
<stop stop-color="white"/>
<stop offset="1" stop-color="white" stop-opacity="0.5"/>
</linearGradient>
<linearGradient id="paint2_linear_4956_90017" x1="327.842" y1="129.75" x2="327.842" y2="444.544" gradientUnits="userSpaceOnUse">
<stop stop-color="white"/>
<stop offset="1" stop-color="white" stop-opacity="0.5"/>
</linearGradient>
<linearGradient id="paint3_linear_4956_90017" x1="465.032" y1="165.816" x2="465.032" y2="491.949" gradientUnits="userSpaceOnUse">
<stop stop-color="white"/>
<stop offset="1" stop-color="white" stop-opacity="0.2"/>
</linearGradient>
<linearGradient id="paint4_linear_4956_90017" x1="528.427" y1="229.666" x2="719.781" y2="96.0625" gradientUnits="userSpaceOnUse">
<stop stop-color="white"/>
<stop offset="1" stop-color="white" stop-opacity="0.2"/>
</linearGradient>
<linearGradient id="paint5_linear_4956_90017" x1="532.556" y1="-24.9169" x2="655.23" y2="-35.1704" gradientUnits="userSpaceOnUse">
<stop stop-color="white"/>
<stop offset="1" stop-color="white" stop-opacity="0.2"/>
</linearGradient>
<linearGradient id="paint6_linear_4956_90017" x1="532.556" y1="-24.9169" x2="655.23" y2="-35.1704" gradientUnits="userSpaceOnUse">
<stop stop-color="white"/>
<stop offset="1" stop-color="white" stop-opacity="0.2"/>
</linearGradient>
<linearGradient id="paint7_linear_4956_90017" x1="532.556" y1="-24.9169" x2="655.23" y2="-35.1704" gradientUnits="userSpaceOnUse">
<stop stop-color="white"/>
<stop offset="1" stop-color="white" stop-opacity="0.2"/>
</linearGradient>
<linearGradient id="paint8_linear_4956_90017" x1="532.556" y1="-24.9169" x2="655.23" y2="-35.1704" gradientUnits="userSpaceOnUse">
<stop stop-color="white"/>
<stop offset="1" stop-color="white" stop-opacity="0.2"/>
</linearGradient>
<linearGradient id="paint9_linear_4956_90017" x1="532.556" y1="-24.9169" x2="655.23" y2="-35.1704" gradientUnits="userSpaceOnUse">
<stop stop-color="white"/>
<stop offset="1" stop-color="white" stop-opacity="0.2"/>
</linearGradient>
<linearGradient id="paint10_linear_4956_90017" x1="532.556" y1="-24.9169" x2="655.23" y2="-35.1704" gradientUnits="userSpaceOnUse">
<stop stop-color="white"/>
<stop offset="1" stop-color="white" stop-opacity="0.2"/>
</linearGradient>
<linearGradient id="paint11_linear_4956_90017" x1="532.556" y1="-24.9169" x2="655.23" y2="-35.1704" gradientUnits="userSpaceOnUse">
<stop stop-color="white"/>
<stop offset="1" stop-color="white" stop-opacity="0.2"/>
</linearGradient>
<linearGradient id="paint12_linear_4956_90017" x1="650.816" y1="255.833" x2="758.087" y2="339.944" gradientUnits="userSpaceOnUse">
<stop stop-color="white"/>
<stop offset="1" stop-color="white" stop-opacity="0.2"/>
</linearGradient>
<linearGradient id="paint13_linear_4956_90017" x1="649.11" y1="5.43888" x2="649.11" y2="227.903" gradientUnits="userSpaceOnUse">
<stop stop-color="white"/>
<stop offset="1" stop-color="white" stop-opacity="0.2"/>
</linearGradient>
</defs>
</svg>
