<svg viewBox="0 0 48 49" fill="none" xmlns="http://www.w3.org/2000/svg">
    <path
        d="M0 24.168C0 10.9131 10.7452 0.167969 24 0.167969C37.2548 0.167969 48 10.9131 48 24.168C48 37.4228 37.2548 48.168 24 48.168C10.7452 48.168 0 37.4228 0 24.168Z"
        fill="black"
        fill-opacity="0.3"
    />
    <path
        d="M26.6641 16.1693C26.6641 14.6965 25.4702 13.5026 23.9974 13.5026C22.5246 13.5026 21.3307 14.6965 21.3307 16.1693C21.3307 17.642 22.5246 18.8359 23.9974 18.8359V21.5026C21.0519 21.5026 18.6641 19.1148 18.6641 16.1693C18.6641 13.2238 21.0519 10.8359 23.9974 10.8359C26.9429 10.8359 29.3307 13.2238 29.3307 16.1693C29.3307 19.1148 26.9429 21.5026 23.9974 21.5026V18.8359C25.4702 18.8359 26.6641 17.642 26.6641 16.1693Z"
        fill="white"
    />
    <path
        d="M34.668 29.5013C34.668 28.0285 33.4741 26.8346 32.0013 26.8346C30.5285 26.8346 29.3346 28.0285 29.3346 29.5013C29.3346 30.9741 30.5285 32.168 32.0013 32.168V34.8346C29.0558 34.8346 26.668 32.4468 26.668 29.5013C26.668 26.5558 29.0558 24.168 32.0013 24.168C34.9468 24.168 37.3346 26.5558 37.3346 29.5013C37.3346 32.4468 34.9468 34.8346 32.0013 34.8346V32.168C33.4741 32.168 34.668 30.9741 34.668 29.5013Z"
        fill="white"
    />
    <path
        d="M18.668 29.5013C18.668 28.0285 17.4741 26.8346 16.0013 26.8346C14.5285 26.8346 13.3346 28.0285 13.3346 29.5013C13.3346 30.9741 14.5285 32.168 16.0013 32.168V34.8346C13.0558 34.8346 10.668 32.4468 10.668 29.5013C10.668 26.5558 13.0558 24.168 16.0013 24.168C18.9468 24.168 21.3346 26.5558 21.3346 29.5013C21.3346 32.4468 18.9468 34.8346 16.0013 34.8346V32.168C17.4741 32.168 18.668 30.9741 18.668 29.5013Z"
        fill="white"
    />
</svg>
