<svg width="348" height="285" viewBox="198 12 354 285" fill="none" xmlns="http://www.w3.org/2000/svg">
<g filter="url(#filter0_d_4245_157653)">
<path d="M224.545 25.5933L4.66931 197.027M243.98 25.4954L13.4725 205.443M263.415 25.3975L22.2756 213.859M282.85 25.2996L31.0787 222.275M302.286 25.2017L39.882 230.691M321.721 25.1038L48.6851 239.107M341.156 25.0058L57.4883 247.522M360.591 24.9079L66.2914 255.938M380.026 24.81L75.0946 264.354M399.462 24.7121L83.8977 272.77M418.897 24.6142L92.701 281.186M438.332 24.5163L264.059 161.67M101.504 289.602L251.623 171.457M457.767 24.4184L358.708 102.418M110.972 297.485L285.113 160.367M477.202 24.3205L373.752 105.796M125.755 301.112L315.127 151.967M496.637 24.2226L367.888 125.623M145.191 301.014L344.797 143.808M516.072 24.1247L380.906 130.579M164.626 300.916L374.075 135.959M535.507 24.0268L403.604 127.911M184.061 300.818L391.145 137.723M554.61 24.1949L424.918 126.336M203.496 300.721L404.733 142.233M574.378 23.831L438.201 131.08M222.931 300.623L329.669 216.558M593.813 23.7331L373.422 197.308M242.366 300.525L361.366 206.803M612.916 23.9012L460.665 143.808M261.802 300.427L392.735 197.308M632.683 23.5373L477.351 145.873M281.237 300.329L425.797 186.477M651.786 23.7054L470.226 166.696M300.672 300.231L457.65 176.6M671.221 23.6075L490.461 165.968M320.107 300.133L481.676 172.886M685.008 28.0325L514.504 162.279M339.542 300.035L494.521 178.012M693.811 36.4483L529.222 165.968M358.977 299.937L512.035 179.493M702.614 44.8641L378.413 299.839M711.417 53.2799L397.848 299.741M720.22 61.6958L417.283 299.644M729.023 70.1116L436.718 299.546M736.726 77.4754L453.724 299.46M744.429 84.8392L470.73 299.374M752.132 92.2031L487.735 299.289M558.233 256.368L504.741 299.203M565.936 263.732L521.747 299.117M573.639 271.096L538.753 299.032M581.342 278.46L555.758 298.946M589.044 285.824L572.764 298.86M596.747 293.188L589.77 298.775M339.573 132.714L320.763 147.528M338.652 118.209L304.147 145.379M364.664 128.162L350.056 139.667M424.918 141.542L338.362 209.712M442.205 158.347L410.221 183.537M445.749 155.335L456.394 147.093M472.878 149.454L461.631 158.347M455.673 162.947L447.853 169.106M440.588 174.827L431.635 181.878M498.161 175.167L510.567 165.423M524.174 170.188L518.637 174.566" stroke="url(#paint0_radial_4245_157653)" stroke-width="1.08456" stroke-linecap="round" stroke-linejoin="round" stroke-dasharray="1.08 4.34"/>
<mask id="mask0_4245_157653" style="mask-type:alpha" maskUnits="userSpaceOnUse" x="198" y="19" width="354" height="293">
<ellipse cx="374.584" cy="165.167" rx="176.513" ry="145.855" fill="url(#paint1_radial_4245_157653)"/>
</mask>
<g mask="url(#mask0_4245_157653)">
<path fill-rule="evenodd" clip-rule="evenodd" d="M371.211 98.0173C377.238 100.274 379.894 104.096 372.531 108.129C363.47 113.092 357.367 113.197 360.959 116.205C363.558 117.74 368.506 119.194 370.379 119.652C370.882 119.775 370.974 120.038 370.549 120.184L365.975 121.755C365.599 121.884 364.988 121.861 364.654 121.709C362.662 120.803 360.1 119.898 357.617 119.308C356.506 119.045 355.08 119.132 354.28 119.496C345.362 123.558 296.058 146.017 293.453 147.374C291.952 148.156 289.166 149.015 289.365 151.332C289.372 151.42 289.431 151.507 289.491 151.593C289.682 151.865 289.568 152.148 289.033 152.345C282.351 154.796 248.453 165.769 234.651 169.918C229.635 171.277 224.321 172.12 224.604 171.623C224.708 171.44 230.88 169.253 238.193 166.689L224.176 171.516C223.611 171.272 223.472 170.327 227.432 168.494C231.287 166.71 250.344 159.963 260.64 156.408C260.931 156.308 261.416 156.398 261.387 156.546L260.983 158.636C261.741 158.348 262.176 158.168 262.202 158.122C262.865 156.979 263.462 155.977 263.793 155.481C264.101 155.019 266.439 154.158 286.348 146.557C290.545 144.683 338.839 123.993 347.419 119.364C352.475 116.636 352.746 114.914 347.04 113.729C333.038 110.82 322.76 104.986 337.369 99.142C351.979 93.2978 365.184 95.7602 371.211 98.0173ZM433.509 121.61C439.459 123.894 445.675 128.795 429.014 133.862C412.354 138.928 396.757 134.951 389.348 129.742C386.328 127.619 381.587 127.646 373.883 129.37C360.81 132.296 301.589 149.002 296.386 150.507C293.352 151.384 291.819 151.596 291.437 151.133C290.387 149.856 293.638 148.116 295.448 147.642C297.098 147.211 339.552 135.752 373.528 127.027C374.62 126.746 374.923 126.204 374.183 125.779C372.638 124.892 369.623 123.469 367.807 122.88C367.408 122.75 367.379 122.527 367.753 122.398L372.317 120.822C372.742 120.676 373.458 120.724 373.768 120.913C374.924 121.618 378.443 123.395 383.121 124.58C391.238 126.011 391.778 123.797 405.787 120.711C417.171 118.202 427.559 119.326 433.509 121.61ZM367.535 99.1237C360.34 96.5763 350.906 96.2524 341.476 100.032C332.045 103.811 334.25 107.925 341.643 109.958C349.036 111.99 358.58 112.029 367.659 107.63C372.441 105.593 374.73 101.671 367.535 99.1237ZM430.324 122.902C423.625 120.182 412.756 120.851 406.963 122.504C394.501 125.621 394.212 129.091 399.488 131.862C404.765 134.633 415.974 135.605 426.748 132.335C437.521 129.065 437.023 125.623 430.324 122.902Z" fill="#D9D9D9" fill-opacity="0.07"/>
<path d="M260.94 158.857L261.387 156.545C261.416 156.398 260.93 156.308 260.64 156.408C250.344 159.963 231.287 166.71 227.432 168.494C223.472 170.326 223.611 171.272 224.175 171.516M383.122 124.58C378.443 123.395 374.924 121.617 373.768 120.913C373.458 120.724 372.741 120.676 372.317 120.822L367.754 122.398C367.379 122.527 367.408 122.75 367.808 122.88C369.624 123.469 372.637 124.892 374.183 125.779C374.923 126.204 374.62 126.747 373.528 127.027C339.552 135.752 297.099 147.211 295.449 147.642C293.639 148.116 290.386 149.856 291.437 151.133C291.818 151.596 293.352 151.384 296.385 150.507C301.586 149.003 360.811 132.295 373.883 129.37C381.588 127.646 386.328 127.618 389.348 129.741C396.757 134.951 412.354 138.929 429.015 133.862C445.675 128.795 439.459 123.894 433.509 121.61C427.559 119.326 417.171 118.202 405.787 120.711C391.778 123.798 391.238 126.011 383.122 124.58ZM406.96 122.503C412.753 120.85 423.622 120.181 430.321 122.901C437.02 125.622 437.517 129.064 426.744 132.334C415.97 135.604 404.762 134.632 399.485 131.861C394.209 129.09 394.498 125.62 406.96 122.503ZM263.793 155.481C264.101 155.019 266.438 154.158 286.348 146.557C290.545 144.683 338.84 123.993 347.419 119.364C352.476 116.636 352.747 114.914 347.041 113.729C333.039 110.82 322.759 104.986 337.369 99.142C351.979 93.2977 365.184 95.7602 371.211 98.0174C377.239 100.275 379.894 104.096 372.531 108.129C363.469 113.092 357.366 113.197 360.96 116.206C363.559 117.74 368.507 119.194 370.379 119.652C370.882 119.775 370.974 120.038 370.549 120.184L365.974 121.755C365.599 121.884 364.988 121.861 364.653 121.709C362.661 120.803 360.101 119.898 357.617 119.308C356.506 119.045 355.08 119.132 354.279 119.496C345.361 123.558 296.058 146.017 293.453 147.374C291.952 148.156 289.166 149.015 289.364 151.332C289.372 151.42 289.431 151.507 289.491 151.593C289.682 151.865 289.569 152.149 289.034 152.345C282.352 154.796 248.453 165.769 234.651 169.918C229.635 171.277 224.321 172.121 224.605 171.623C224.862 171.172 261.953 158.552 262.202 158.122C262.865 156.979 263.462 155.977 263.793 155.481ZM367.656 107.629C372.437 105.592 374.727 101.67 367.532 99.1224C360.337 96.575 350.903 96.2512 341.472 100.031C332.041 103.81 334.247 107.924 341.64 109.957C349.032 111.989 358.577 112.028 367.656 107.629Z" stroke="white" stroke-width="0.894255"/>
<path d="M266.881 155.377L265.808 157.541C265.491 158.573 284.091 151.79 284.388 150.774C285.09 148.371 291.588 147.174 313.404 136.175C310.315 137.565 287.099 147.599 283.786 148.903C281.135 149.947 271.411 153.654 266.881 155.377Z" fill="#D9D9D9" fill-opacity="0.15"/>
<path d="M294.634 149.641C295.043 148.622 296.431 148.156 297.074 148.05L354.107 132.798C337.453 137.494 302.243 147.436 294.634 149.641Z" fill="#D9D9D9" fill-opacity="0.15"/>
<path d="M358.209 116.164C356.281 115.255 357.161 114.111 357.842 113.652C356.303 114.423 354.71 115.962 358.983 117.584C362.4 118.881 364.642 120.2 365.336 120.697L368.09 119.749C365.755 119.227 360.619 117.3 358.209 116.164Z" fill="#D9D9D9" fill-opacity="0.15"/>
<path d="M370.335 122.456L372.869 121.583C374.568 122.545 378.988 124.14 381.71 124.977C384.432 125.814 386.993 126.047 390.507 125.519C394.022 124.992 399.877 122.907 404.312 122.131C398.948 123.477 396.096 125.301 391.876 126.276C387.657 127.252 383.288 126.913 379.676 126.041C376.786 125.344 372.244 123.36 370.335 122.456Z" fill="#D9D9D9" fill-opacity="0.15"/>
<path d="M390.117 199.17C370.207 206.77 368.367 206.993 368.06 207.455C367.729 207.952 367.131 208.953 366.469 210.097C366.22 210.527 329.128 223.147 328.872 223.597C328.588 224.095 333.902 223.252 338.918 221.893C352.719 217.743 386.619 206.771 393.3 204.319C393.92 204.092 393.974 203.748 393.645 203.44C391.683 201.6 395.721 200.78 397.281 200.089C400.165 198.81 454.085 177.822 463.838 174.027C464.714 173.686 466.158 173.638 467.215 173.931C469.577 174.585 471.094 175.174 472.9 176.13C473.203 176.29 473.809 176.33 474.211 176.212L479.109 174.774C479.564 174.641 479.526 174.377 479.048 174.241C477.27 173.734 473.478 172.533 471.196 170.936C468.222 167.846 474.346 167.909 484.428 163.221C492.62 159.411 490.752 155.538 485.19 153.129C479.628 150.719 466.931 147.91 451.12 153.323C435.309 158.736 444.386 164.818 457.788 168.093C463.25 169.428 462.624 171.132 457.007 173.708C447.476 178.077 394.699 197.42 390.117 199.17Z" stroke="white" stroke-width="0.894255"/>
<path d="M395.361 203.371C394.062 202.126 393.445 201.536 397.744 200.36C402.05 199.183 447.999 184.531 480.974 174.743C489.337 175.956 489.425 173.728 502.732 170.264C513.546 167.449 524.106 168.293 530.487 170.417C536.868 172.541 544.045 177.274 528.502 182.789C512.959 188.304 496.639 184.746 488.213 179.737C484.779 177.695 480.07 177.85 472.757 179.781C460.348 183.059 404.832 201.359 399.964 203.003C397.125 203.962 395.841 203.831 395.367 203.377L395.361 203.371Z" stroke="white" stroke-width="0.894255"/>
<path d="M365.208 210.831L365.655 208.52C365.683 208.372 365.198 208.282 364.908 208.382C354.611 211.937 335.555 218.684 331.7 220.468C327.739 222.3 327.878 223.246 328.443 223.49L365.208 210.831Z" stroke="white" stroke-width="0.894255"/>
<path fill-rule="evenodd" clip-rule="evenodd" d="M451.12 153.323C466.931 147.91 479.628 150.719 485.19 153.129C490.752 155.538 492.62 159.411 484.427 163.221C474.346 167.909 468.222 167.846 471.195 170.936C473.478 172.533 477.27 173.734 479.048 174.241C479.525 174.377 479.564 174.64 479.109 174.774L474.211 176.211C473.809 176.329 473.203 176.29 472.9 176.13C471.095 175.174 469.577 174.585 467.215 173.931C466.158 173.638 464.713 173.686 463.838 174.027C454.084 177.822 400.17 198.809 397.281 200.089C395.721 200.78 391.682 201.6 393.645 203.44C393.973 203.748 393.92 204.092 393.3 204.32C386.617 206.771 352.719 217.743 338.917 221.893C333.901 223.252 328.589 224.095 328.872 223.597C328.978 223.413 335.252 221.191 342.644 218.601L328.443 223.49C327.878 223.247 327.74 222.301 331.701 220.468C335.556 218.684 354.612 211.937 364.908 208.383C365.198 208.282 365.683 208.372 365.655 208.52L365.25 210.608C366.005 210.322 366.441 210.143 366.468 210.097C367.131 208.954 367.728 207.952 368.059 207.455C368.367 206.993 370.207 206.77 390.116 199.169C394.7 197.42 447.476 178.077 457.007 173.708C462.625 171.133 463.249 169.428 457.787 168.093C444.386 164.818 435.309 158.736 451.12 153.323ZM530.487 170.417C536.868 172.541 544.045 177.274 528.502 182.789C512.959 188.304 496.639 184.746 488.213 179.737C484.779 177.695 480.07 177.85 472.756 179.782C460.347 183.059 404.833 201.358 399.964 203.003C397.125 203.962 395.841 203.83 395.367 203.377L395.361 203.371C394.061 202.127 393.445 201.536 397.744 200.36C402.049 199.183 447.998 184.531 480.973 174.743C489.336 175.956 489.425 173.728 502.732 170.264C513.546 167.449 524.105 168.293 530.487 170.417ZM481.148 154.177C474.478 151.447 465.11 150.867 454.903 154.368C444.695 157.869 446.054 162.021 453.028 164.244C460.001 166.467 469.537 166.767 479.521 162.64C484.721 160.745 487.817 156.907 481.148 154.177ZM527.443 171.844C520.229 169.304 509.554 170.265 504.127 172.074C492.364 175.526 492.781 179.004 498.591 181.633C504.401 184.262 515.745 184.932 525.797 181.372C535.849 177.812 534.657 174.384 527.443 171.844Z" fill="#D9D9D9" fill-opacity="0.07"/>
<path d="M371.014 207.342L369.942 209.507C369.624 210.538 388.224 203.755 388.521 202.739C389.223 200.336 397.891 199.972 419.707 188.974C416.618 190.364 391.233 199.565 387.919 200.869C385.268 201.912 375.545 205.619 371.014 207.342Z" fill="#D9D9D9" fill-opacity="0.15"/>
<path d="M396.181 202.494C396.591 201.476 397.979 201.009 398.622 200.903L440.005 188.195C446.76 186.028 453.006 184.086 457.652 182.776L440.005 188.195C422.542 193.797 401.668 200.904 396.181 202.494Z" fill="#D9D9D9" fill-opacity="0.15"/>
<path d="M469.197 170.853C466.823 169.379 470.1 167.643 474.498 166.308C469.54 167.118 461.316 170.756 466.335 172.059C470.975 173.264 473.899 174.811 474.593 175.309L477.347 174.36C475.013 173.839 471.189 172.089 469.197 170.853Z" fill="#D9D9D9" fill-opacity="0.15"/>
<path d="M478.78 176.244L481.314 175.371C483.645 175.71 485.685 175.642 488.046 175.353C491.327 174.951 494.395 173.247 498.886 171.993C503.335 170.751 505.46 170.179 509.895 169.402C504.531 170.749 495.907 173.083 494.022 175.406C492.439 177.358 489.789 178.11 486.177 177.238C483.287 176.54 480.69 177.149 478.78 176.244Z" fill="#D9D9D9" fill-opacity="0.15"/>
<path d="M383.702 158.602C405.481 151.611 406.223 150.859 407.474 150.827C408.816 150.793 411.521 150.756 414.606 150.721C415.766 150.708 452.258 137.343 453.473 137.331C454.816 137.318 452.145 139.447 448.131 141.332C436.001 146.427 404.138 158.767 397.093 161.136C396.439 161.355 395.523 161.302 394.734 161.09C390.017 159.825 387.513 161.404 385.552 161.93C381.927 162.903 321.873 181.745 311.014 185.153C310.039 185.459 309.794 186.079 310.483 186.604C312.023 187.78 313.462 188.573 315.847 189.573C316.247 189.74 316.302 190.014 315.956 190.163L311.745 191.978C311.353 192.147 310.657 192.072 310.336 191.833C309.138 190.945 306.266 189.025 302.219 187.674C294.271 185.69 293.936 188.374 280.683 191.727C269.913 194.452 259.799 192.775 253.867 189.814C247.936 186.853 241.529 180.691 257.173 175.001C272.817 169.311 288.196 174.622 295.78 181.195C298.871 183.874 303.441 183.98 310.728 182.104C323.091 178.92 378.689 160.211 383.702 158.602Z" stroke="white" stroke-width="0.894255"/>
<path d="M394.411 161.823C391.217 160.98 389.702 160.579 386.234 162.193C382.761 163.808 340.157 180.584 311.51 192.785C314.039 196.701 308.126 196.244 297.854 201.276C289.506 205.365 290.879 210.157 295.986 213.412C301.093 216.667 313.053 220.85 328.945 215.3C344.837 209.749 336.743 201.841 324.154 197.053C319.023 195.101 319.819 193.082 325.538 190.323C335.242 185.641 388.3 165.505 393.057 163.749C395.832 162.724 395.589 162.135 394.425 161.827L394.411 161.823Z" stroke="white" stroke-width="0.894255"/>
<path d="M416.656 150.335L410.491 150.015C410.098 149.995 409.9 149.763 410.189 149.659C420.456 145.96 439.902 139.152 444.946 137.868C450.128 136.548 452.624 136.82 453.225 137.12L416.656 150.335Z" stroke="white" stroke-width="0.894255"/>
<path fill-rule="evenodd" clip-rule="evenodd" d="M257.173 175.001C241.529 180.691 247.936 186.853 253.867 189.814C259.799 192.775 269.913 194.452 280.683 191.727C293.935 188.374 294.271 185.69 302.219 187.674C306.266 189.025 309.139 190.945 310.337 191.833C310.658 192.072 311.353 192.147 311.744 191.978L315.956 190.163C316.301 190.014 316.247 189.74 315.847 189.573C313.461 188.573 312.023 187.78 310.483 186.604C309.794 186.079 310.039 185.459 311.014 185.153C321.874 181.744 381.923 162.905 385.552 161.93C387.513 161.404 390.017 159.825 394.734 161.09C395.523 161.302 396.44 161.355 397.094 161.136C404.14 158.767 436.002 146.427 448.132 141.332C452.145 139.447 454.816 137.318 453.473 137.331C452.976 137.336 446.573 139.577 439.099 142.225L453.225 137.12C452.625 136.82 450.128 136.549 444.946 137.868C439.902 139.152 420.456 145.96 410.189 149.659C409.9 149.763 410.098 149.995 410.491 150.015L416.062 150.303C415.24 150.569 414.729 150.719 414.607 150.721C411.521 150.755 408.816 150.793 407.474 150.827C406.224 150.858 405.481 151.611 383.702 158.601C378.688 160.211 323.091 178.92 310.728 182.104C303.442 183.98 298.871 183.873 295.78 181.195C288.196 174.622 272.817 169.311 257.173 175.001ZM295.985 213.412C301.092 216.667 313.053 220.85 328.945 215.3C344.837 209.749 336.742 201.841 324.153 197.053C319.023 195.101 319.819 193.082 325.539 190.323C335.243 185.641 388.299 165.506 393.057 163.749C395.832 162.724 395.589 162.134 394.425 161.827L394.41 161.823C391.218 160.98 389.702 160.579 386.235 162.192C382.761 163.808 340.157 180.584 311.51 192.785C314.039 196.701 308.126 196.244 297.854 201.276C289.507 205.365 290.879 210.157 295.985 213.412ZM256.978 188.285C250.288 184.769 249.518 180.555 259.635 176.883C269.752 173.211 280.645 174.727 285.967 178.263C291.29 181.798 291.302 186.023 279.544 189.458C274.095 191.304 263.668 191.8 256.978 188.285ZM300.018 212.403C293.875 208.692 297.299 204.251 302.538 202.287C312.652 197.926 321.838 198.881 328.331 202C334.823 205.118 335.671 210.214 325.411 213.805C315.151 217.396 306.16 216.113 300.018 212.403Z" fill="#D9D9D9" fill-opacity="0.07"/>
<path d="M406.936 152.09L412.761 152.104C415.522 152.195 396.017 158.796 393.299 158.699C386.871 158.471 385.197 162.169 354.254 169.235C358.192 168.198 384.662 159.175 388.39 158.021C391.373 157.097 401.997 153.682 406.936 152.09Z" fill="#D9D9D9" fill-opacity="0.15"/>
<path d="M392.021 161.985C389.288 161.937 387.938 162.438 387.605 162.695L350.529 177.913C344.23 180.376 338.571 182.668 334.718 184.402L350.529 177.913C366.809 171.545 387.358 164.024 392.021 161.985Z" fill="#D9D9D9" fill-opacity="0.15"/>
<path d="M302.165 186.783C298.452 185.42 293.581 186.463 289.683 188.083C292.237 186.102 302.555 183.325 305.598 185.804C308.412 188.095 312.273 189.714 313.535 190.128L310.795 191.118C309.604 189.984 305.278 187.927 302.165 186.783Z" fill="#D9D9D9" fill-opacity="0.15"/>
<path d="M315.671 192.161L313.151 193.072C313.857 194.164 313.511 195.038 312.55 196.004C311.216 197.345 306.447 198.304 302.756 199.983C299.098 201.647 297.408 202.446 294.987 204.207C298.996 202.168 305.888 198.926 312.201 198.621C317.506 198.365 319.717 197.377 317.701 195.608C316.088 194.193 317.913 193.196 315.671 192.161Z" fill="#D9D9D9" fill-opacity="0.15"/>
</g>
</g>
<defs>
<filter id="filter0_d_4245_157653" x="0" y="23.1641" width="756.801" height="286.32" filterUnits="userSpaceOnUse" color-interpolation-filters="sRGB">
<feFlood flood-opacity="0" result="BackgroundImageFix"/>
<feColorMatrix in="SourceAlpha" type="matrix" values="0 0 0 0 0 0 0 0 0 0 0 0 0 0 0 0 0 0 127 0" result="hardAlpha"/>
<feOffset dy="4"/>
<feGaussianBlur stdDeviation="2"/>
<feComposite in2="hardAlpha" operator="out"/>
<feColorMatrix type="matrix" values="0 0 0 0 0 0 0 0 0 0 0 0 0 0 0 0 0 0 0.25 0"/>
<feBlend mode="normal" in2="BackgroundImageFix" result="effect1_dropShadow_4245_157653"/>
<feBlend mode="normal" in="SourceGraphic" in2="effect1_dropShadow_4245_157653" result="shape"/>
</filter>
<radialGradient id="paint0_radial_4245_157653" cx="0" cy="0" r="1" gradientUnits="userSpaceOnUse" gradientTransform="translate(382.844 166.34) scale(151.985 59.6903)">
<stop offset="0.0957096" stop-color="white" stop-opacity="0"/>
<stop offset="0.613861" stop-color="#999999"/>
<stop offset="1" stop-color="#B2B2B2" stop-opacity="0"/>
</radialGradient>
<radialGradient id="paint1_radial_4245_157653" cx="0" cy="0" r="1" gradientUnits="userSpaceOnUse" gradientTransform="translate(389.677 152.408) rotate(90) scale(158.615 220.583)">
<stop stop-color="#D9D9D9"/>
<stop offset="1" stop-color="#737373" stop-opacity="0"/>
</radialGradient>
</defs>
</svg>
