<svg width="1481" height="710" viewBox="0 0 1481 710" fill="none" xmlns="http://www.w3.org/2000/svg">
<mask id="mask0_6162_137276" style="mask-type:alpha" maskUnits="userSpaceOnUse" x="673" y="0" width="686" height="656">
<path fill-rule="evenodd" clip-rule="evenodd" d="M919.602 1.8775C936.337 -6.21856 1133.35 14.2922 1165.74 17.5308C1198.12 20.7696 1251.56 61.7918 1256.42 68.2691C1261.27 74.7463 1301.76 204.83 1301.76 216.166C1301.76 227.502 1355.19 382.952 1358.43 393.749C1358.98 395.581 1358.5 401.495 1357.31 410.141L1280.16 395.392C1280.02 391.282 1279.48 381.873 1278.46 377.111C1277.19 371.159 1272.08 370.733 1267.83 371.584C1263.58 372.434 1023.36 453.642 999.121 461.72C974.886 469.799 971.485 491.058 971.485 497.01V569.715C993.011 588.068 1030.48 601.055 1031.33 603.181C1031.81 604.377 1006.01 632.204 990.803 655.809C913.288 646.555 802.095 627.533 796.535 625.309C788.437 622.07 675.629 543.266 674.007 534.088C672.388 524.913 680.485 345.714 685.342 332.755C690.2 319.801 817.586 52.6156 820.285 44.5191C847.813 33.004 906.216 8.35468 919.602 1.8775Z" fill="url(#paint0_linear_6162_137276)"/>
</mask>
<g mask="url(#mask0_6162_137276)">
<ellipse cx="1002.25" cy="417.371" rx="20.9245" ry="7.65986" fill="#713ADA" fill-opacity="0.4"/>
<ellipse cx="845.133" cy="357.959" rx="17.188" ry="5.51136" fill="#713ADA" fill-opacity="0.4"/>
<ellipse cx="1002.25" cy="417.371" rx="20.9245" ry="7.65986" stroke="white" stroke-width="0.934129"/>
<ellipse cx="845.133" cy="357.68" rx="17.188" ry="5.32454" stroke="white" stroke-width="0.934129"/>
<path d="M1017.94 422.203C1019.95 421.12 1021.12 419.819 1021.12 418.418C1021.12 414.655 1012.67 411.604 1002.25 411.604C991.836 411.604 983.391 414.655 983.391 418.418C983.391 419.819 984.56 421.12 986.565 422.203" stroke="white" stroke-width="0.373652" stroke-linecap="round"/>
<path d="M858.003 360.997C859.648 360.262 860.607 359.378 860.607 358.427C860.607 355.872 853.68 353.801 845.135 353.801C836.591 353.801 829.664 355.872 829.664 358.427C829.664 359.378 830.623 360.262 832.267 360.997" stroke="white" stroke-width="0.373652" stroke-linecap="round"/>
<path d="M1049.89 400.929L1050.12 400.52L1049.89 400.929ZM931.445 346.283L931.598 345.841L931.476 345.799L931.349 345.826L931.445 346.283ZM1054.1 388.879L1054.23 389.326C1054.42 389.268 1054.56 389.092 1054.56 388.889C1054.57 388.687 1054.44 388.504 1054.25 388.438L1054.1 388.879ZM923.148 425.663L923.331 425.233V425.233L923.148 425.663ZM813.64 379.202L813.457 379.631L813.64 379.202ZM813.765 377.439L813.646 376.987L813.646 376.987L813.765 377.439ZM936.116 423.936L936.255 424.382L936.261 424.38L936.116 423.936ZM929.587 425.979L929.447 425.533V425.533L929.587 425.979ZM820.377 375.689L820.497 376.14L820.505 376.138L820.512 376.136L820.377 375.689ZM823.273 364.375L823.085 364.802L823.089 364.804L823.273 364.375ZM898.284 343.645L898.448 343.208L898.446 343.207L898.284 343.645ZM900.058 344.311L900.251 343.885L900.237 343.879L900.223 343.873L900.058 344.311ZM1025.18 426.618L1025 426.184L1025.18 426.618ZM839.409 348.588L839.536 349.038L839.409 348.588ZM1001.69 430.448V429.981C992.406 429.981 984.063 428.49 978.234 426.125L978.058 426.558L977.883 426.991C983.852 429.413 992.321 430.915 1001.69 430.915V430.448ZM1049.89 400.929L1049.67 401.338C1051.71 402.468 1053.48 403.706 1054.79 404.997C1056.1 406.293 1056.92 407.609 1057.15 408.895C1057.38 410.156 1057.04 411.454 1055.9 412.77C1054.74 414.101 1052.76 415.443 1049.71 416.726L1049.89 417.156L1050.07 417.586C1053.18 416.277 1055.31 414.866 1056.6 413.383C1057.9 411.885 1058.35 410.308 1058.07 408.732C1057.8 407.181 1056.83 405.698 1055.44 404.332C1054.05 402.962 1052.21 401.677 1050.12 400.52L1049.89 400.929ZM931.445 346.283L931.292 346.724L1053.94 389.32L1054.1 388.879L1054.25 388.438L931.598 345.841L931.445 346.283ZM923.148 425.663L923.331 425.233L813.822 378.772L813.64 379.202L813.457 379.631L922.966 426.093L923.148 425.663ZM813.64 379.202L813.822 378.772C813.413 378.598 813.455 378.004 813.885 377.89L813.765 377.439L813.646 376.987C812.356 377.329 812.228 379.11 813.457 379.631L813.64 379.202ZM954.612 421.106V421.573C964.602 421.573 972.029 424.426 978.059 427.046L978.245 426.618L978.431 426.189C972.362 423.552 964.794 420.639 954.612 420.639V421.106ZM936.116 423.936L936.261 424.38C941.722 422.595 948.491 421.573 954.612 421.573V421.106V420.639C948.401 420.639 941.533 421.673 935.971 423.492L936.116 423.936ZM929.587 425.979L929.726 426.425L936.255 424.381L936.116 423.936L935.976 423.49L929.447 425.533L929.587 425.979ZM813.765 377.439L813.885 377.89L820.497 376.14L820.377 375.689L820.258 375.237L813.646 376.987L813.765 377.439ZM923.148 425.663L922.966 426.093C925.109 427.002 927.505 427.12 929.726 426.425L929.587 425.979L929.447 425.533C927.437 426.162 925.269 426.056 923.331 425.233L923.148 425.663ZM1049.89 400.929L1050.12 400.52C1047.62 399.142 1046.53 397.256 1046.53 395.599H1046.06H1045.6C1045.6 397.692 1046.97 399.847 1049.67 401.338L1049.89 400.929ZM1046.06 395.599H1046.53C1046.53 394.405 1047 393.288 1048.19 392.242C1049.39 391.182 1051.32 390.197 1054.23 389.326L1054.1 388.879L1053.96 388.431C1051 389.319 1048.91 390.353 1047.57 391.542C1046.2 392.746 1045.6 394.11 1045.6 395.599H1046.06ZM823.273 364.375L823.461 363.947C821.677 363.164 820.254 362.263 819.283 361.314C818.311 360.363 817.831 359.403 817.831 358.49H817.364H816.897C816.897 359.746 817.556 360.931 818.63 361.982C819.707 363.035 821.238 363.991 823.085 364.802L823.273 364.375ZM877.733 340.574V341.041C885.833 341.041 893.098 342.22 898.121 344.083L898.284 343.645L898.446 343.207C893.29 341.295 885.909 340.107 877.733 340.107V340.574ZM918.929 347.487V347.02C911.22 347.02 904.426 345.774 900.251 343.885L900.058 344.311L899.866 344.736C904.206 346.7 911.146 347.954 918.929 347.954V347.487ZM931.445 346.283L931.349 345.826C927.765 346.581 923.504 347.02 918.929 347.02V347.487V347.954C923.561 347.954 927.887 347.51 931.541 346.74L931.445 346.283ZM823.273 364.375L823.089 364.804C824.695 365.492 825.947 366.273 826.791 367.095C827.634 367.918 828.037 368.746 828.037 369.542H828.504H828.971C828.971 368.41 828.396 367.355 827.443 366.426C826.489 365.497 825.126 364.66 823.457 363.945L823.273 364.375ZM828.504 369.542H828.037C828.037 370.549 827.39 371.587 826.032 372.592C824.683 373.591 822.708 374.497 820.242 375.241L820.377 375.689L820.512 376.136C823.033 375.375 825.12 374.43 826.588 373.343C828.048 372.262 828.971 370.981 828.971 369.542H828.504ZM900.058 344.311L900.223 343.873L898.448 343.208L898.284 343.645L898.12 344.082L899.894 344.748L900.058 344.311ZM1025.18 426.618L1025 426.184C1019.18 428.515 1010.9 429.981 1001.69 429.981V430.448V430.915C1010.98 430.915 1019.39 429.437 1025.35 427.051L1025.18 426.618ZM1049.89 417.156L1049.71 416.726C1043.57 419.314 1039.81 420.711 1036.38 421.943C1032.95 423.176 1029.84 424.249 1025 426.184L1025.18 426.618L1025.35 427.051C1030.17 425.124 1033.26 424.058 1036.7 422.822C1040.14 421.585 1043.91 420.183 1050.07 417.586L1049.89 417.156ZM817.364 358.49H817.831C817.831 357.745 818.318 356.973 819.415 356.155C820.502 355.345 822.097 354.56 824.097 353.778C828.095 352.216 833.577 350.716 839.536 349.038L839.409 348.588L839.283 348.138C833.349 349.81 827.809 351.325 823.757 352.908C821.732 353.699 820.045 354.52 818.857 355.406C817.679 356.284 816.897 357.299 816.897 358.49H817.364ZM839.409 348.588L839.536 349.038C846.402 347.104 853.913 345.103 860.734 343.586C867.567 342.066 873.669 341.041 877.733 341.041V340.574V340.107C873.556 340.107 867.366 341.154 860.532 342.674C853.686 344.196 846.156 346.203 839.283 348.138L839.409 348.588Z" fill="white"/>
<path d="M975.96 437.646C982.374 440.116 991.14 440.914 1001.28 440.914C1011.77 440.914 1021.34 439.169 1028.23 436.151C1038.08 432.787 1058.98 425.549 1062.58 419.922C1066.18 414.295 1064.71 406.832 1052.72 399.192M976.163 437.708C969.585 434.995 965.768 432.787 954.801 432.787C946.151 432.787 939.987 435.841 931.728 438.294C927.431 440.056 922.106 440.914 918.682 439.151L807.045 391.392C806.556 391.182 806.338 390.611 806.569 390.131C807.525 388.155 809.866 383.312 811.165 380.636C811.698 379.54 812.429 378.555 813.32 377.723L813.374 377.673M818.418 356.277C817.017 357.492 815.989 359.173 814.308 363.096C812.813 366.584 816.083 369.5 819.539 371.037C822.155 372.199 821.501 375.147 818.792 376.081" stroke="white" stroke-width="0.934129"/>
<ellipse cx="929.581" cy="384.395" rx="70.6202" ry="22.1389" stroke="white" stroke-width="0.934129"/>
<ellipse cx="929.578" cy="385.984" rx="62.7735" ry="17.5616" stroke="white" stroke-width="0.934129"/>
<path d="M989.554 391.214C988.984 390.079 987.986 388.98 986.607 387.93C978.25 381.569 955.873 377.016 929.58 377.016C903.288 377.016 880.911 381.569 872.553 387.93C871.176 388.978 870.18 390.076 869.609 391.21" stroke="white" stroke-width="0.934129"/>
<path d="M997.549 415.223C998.002 415.231 998.465 415.308 998.824 415.468L1002.55 417.126L1006.63 415.603C1007.01 415.459 1007.48 415.396 1007.94 415.404C1008.39 415.412 1008.85 415.491 1009.21 415.65C1009.55 415.798 1009.86 416.056 1009.82 416.429C1009.8 416.606 1009.7 416.753 1009.58 416.864C1009.45 416.975 1009.29 417.066 1009.1 417.138L1005.56 418.462L1008.77 419.889C1009.1 420.036 1009.41 420.294 1009.37 420.667C1009.35 420.844 1009.26 420.99 1009.13 421.102C1009.01 421.213 1008.84 421.304 1008.65 421.376C1008.27 421.519 1007.79 421.581 1007.34 421.573C1006.88 421.565 1006.42 421.487 1006.06 421.327L1002.33 419.668L998.259 421.193C997.875 421.337 997.402 421.399 996.947 421.391C996.494 421.383 996.031 421.305 995.672 421.146C995.34 420.998 995.027 420.74 995.066 420.367C995.085 420.19 995.184 420.043 995.309 419.932C995.433 419.82 995.598 419.73 995.79 419.658L999.327 418.333L996.119 416.907C995.787 416.759 995.474 416.502 995.514 416.129C995.532 415.951 995.631 415.805 995.756 415.693C995.88 415.582 996.046 415.492 996.237 415.42C996.621 415.276 997.095 415.215 997.549 415.223Z" stroke="white" stroke-width="0.560478"/>
<path d="M842.129 355.53C842.505 355.536 842.886 355.596 843.179 355.716L846.343 357.009L849.797 355.821C850.111 355.713 850.502 355.666 850.879 355.672C851.255 355.678 851.636 355.738 851.929 355.857C852.075 355.917 852.198 355.991 852.284 356.082C852.372 356.175 852.431 356.296 852.415 356.433C852.4 356.565 852.319 356.673 852.221 356.754C852.122 356.835 851.989 356.902 851.833 356.956L848.782 358.006L851.552 359.138C851.698 359.197 851.821 359.271 851.907 359.362C851.996 359.455 852.054 359.577 852.038 359.714C852.023 359.847 851.943 359.954 851.845 360.035C851.746 360.117 851.613 360.183 851.456 360.237C851.142 360.345 850.752 360.393 850.375 360.387C849.999 360.381 849.618 360.321 849.325 360.201L846.16 358.908L842.707 360.097C842.393 360.205 842.002 360.252 841.625 360.246C841.249 360.24 840.868 360.18 840.575 360.061C840.429 360.001 840.306 359.927 840.22 359.836C840.131 359.743 840.073 359.622 840.089 359.484C840.104 359.352 840.184 359.245 840.282 359.164C840.381 359.083 840.514 359.015 840.671 358.961L843.722 357.911L840.952 356.779C840.806 356.72 840.683 356.646 840.597 356.555C840.508 356.462 840.45 356.34 840.466 356.203C840.481 356.071 840.561 355.964 840.659 355.883C840.758 355.801 840.891 355.734 841.048 355.68C841.362 355.572 841.752 355.524 842.129 355.53Z" stroke="white" stroke-width="0.373652"/>
<path d="M928.086 346.936L932.196 345.835V198.223" stroke="white" stroke-width="0.934129"/>
<path d="M930.521 351.517L828.289 379.246C827.259 379.525 827.165 380.948 828.148 381.361L921.444 420.528C923.2 421.265 925.157 421.369 926.982 420.824L1036.35 388.111C1037.39 387.799 1037.42 386.327 1036.39 385.976L935.315 351.667C933.767 351.141 932.098 351.089 930.521 351.517Z" stroke="white" stroke-width="0.373652"/>
<path d="M1051.34 559.769L1047.9 556.637L1050.34 547.088C1051.11 543.905 1052.93 537.08 1054.09 535.246C1055.54 532.955 1058.9 531.732 1061.27 530.739C1063.16 529.945 1142.93 498.934 1182.58 483.527L1220.25 497.584L1050.34 567.103L1051.34 565.805L1051.87 563.818L1051.34 559.769Z" fill="url(#paint1_linear_6162_137276)" fill-opacity="0.5"/>
<path d="M926.773 365.339C926.773 366.32 925.979 367.114 924.999 367.114C924.018 367.114 923.224 366.32 923.224 365.339C923.224 364.359 924.018 363.564 924.999 363.564C925.979 363.564 926.773 364.359 926.773 365.339Z" stroke="white" stroke-width="0.373652"/>
<path d="M918.74 365.713C918.74 366.693 917.945 367.488 916.965 367.488C915.985 367.488 915.19 366.693 915.19 365.713C915.19 364.733 915.985 363.938 916.965 363.938C917.945 363.938 918.74 364.733 918.74 365.713Z" stroke="white" stroke-width="0.373652"/>
<path d="M910.893 366.273C910.893 367.254 910.099 368.048 909.118 368.048C908.138 368.048 907.344 367.254 907.344 366.273C907.344 365.293 908.138 364.499 909.118 364.499C910.099 364.499 910.893 365.293 910.893 366.273Z" stroke="white" stroke-width="0.373652"/>
<path d="M903.233 367.021C903.233 368.001 902.522 368.796 901.645 368.796C900.768 368.796 900.057 368.001 900.057 367.021C900.057 366.041 900.768 365.246 901.645 365.246C902.522 365.246 903.233 366.041 903.233 367.021Z" stroke="white" stroke-width="0.373652"/>
<path d="M896.134 368.142C896.134 369.122 895.423 369.917 894.546 369.917C893.669 369.917 892.958 369.122 892.958 368.142C892.958 367.161 893.669 366.367 894.546 366.367C895.423 366.367 896.134 367.161 896.134 368.142Z" stroke="white" stroke-width="0.373652"/>
<path d="M889.221 369.823C889.221 370.803 888.552 371.598 887.727 371.598C886.901 371.598 886.232 370.803 886.232 369.823C886.232 368.843 886.901 368.048 887.727 368.048C888.552 368.048 889.221 368.843 889.221 369.823Z" stroke="white" stroke-width="0.373652"/>
<path d="M882.868 371.441C882.91 372.42 882.275 373.242 881.45 373.278C880.626 373.313 879.923 372.547 879.882 371.568C879.84 370.589 880.475 369.766 881.299 369.731C882.124 369.696 882.826 370.461 882.868 371.441Z" stroke="white" stroke-width="0.373652"/>
<path d="M877.263 373.307C877.313 374.285 876.768 375.109 876.047 375.145C875.325 375.182 874.7 374.418 874.651 373.439C874.601 372.46 875.146 371.637 875.867 371.6C876.588 371.564 877.213 372.328 877.263 373.307Z" stroke="white" stroke-width="0.373652"/>
<path d="M872.182 375.448C872.372 376.496 872.033 377.436 871.424 377.547C870.814 377.657 870.166 376.897 869.976 375.848C869.786 374.799 870.125 373.86 870.734 373.749C871.343 373.639 871.991 374.399 872.182 375.448Z" stroke="white" stroke-width="0.373652"/>
<path d="M868.003 378.288C868.334 379.49 868.199 380.575 867.702 380.712C867.205 380.849 866.533 379.986 866.202 378.785C865.871 377.583 866.006 376.498 866.503 376.361C867.001 376.224 867.672 377.087 868.003 378.288Z" stroke="white" stroke-width="0.373652"/>
<path d="M864.959 381.266C865.695 382.271 865.999 383.3 865.638 383.565C865.277 383.829 864.387 383.228 863.651 382.223C862.915 381.217 862.611 380.188 862.972 379.924C863.333 379.659 864.223 380.26 864.959 381.266Z" stroke="white" stroke-width="0.373652"/>
<path d="M934.994 365.339C934.994 366.32 934.199 367.114 933.219 367.114C932.239 367.114 931.444 366.32 931.444 365.339C931.444 364.359 932.239 363.564 933.219 363.564C934.199 363.564 934.994 364.359 934.994 365.339Z" stroke="white" stroke-width="0.373652"/>
<path d="M942.841 365.713C942.841 366.693 942.046 367.488 941.066 367.488C940.085 367.488 939.291 366.693 939.291 365.713C939.291 364.733 940.085 363.938 941.066 363.938C942.046 363.938 942.841 364.733 942.841 365.713Z" stroke="white" stroke-width="0.373652"/>
<path d="M950.314 366.273C950.314 367.254 949.519 368.048 948.539 368.048C947.558 368.048 946.764 367.254 946.764 366.273C946.764 365.293 947.558 364.499 948.539 364.499C949.519 364.499 950.314 365.293 950.314 366.273Z" stroke="white" stroke-width="0.373652"/>
<path d="M957.039 366.834C957.039 367.814 956.328 368.609 955.451 368.609C954.574 368.609 953.863 367.814 953.863 366.834C953.863 365.854 954.574 365.059 955.451 365.059C956.328 365.059 957.039 365.854 957.039 366.834Z" stroke="white" stroke-width="0.373652"/>
<path d="M963.578 367.955C963.578 368.935 962.867 369.73 961.99 369.73C961.113 369.73 960.402 368.935 960.402 367.955C960.402 366.975 961.113 366.18 961.99 366.18C962.867 366.18 963.578 366.975 963.578 367.955Z" stroke="white" stroke-width="0.373652"/>
<path d="M969.743 369.076C969.743 370.056 969.116 370.851 968.342 370.851C967.568 370.851 966.941 370.056 966.941 369.076C966.941 368.096 967.568 367.301 968.342 367.301C969.116 367.301 969.743 368.096 969.743 369.076Z" stroke="white" stroke-width="0.373652"/>
<path d="M975.161 370.384C975.161 371.364 974.534 372.158 973.76 372.158C972.986 372.158 972.359 371.364 972.359 370.384C972.359 369.403 972.986 368.609 973.76 368.609C974.534 368.609 975.161 369.403 975.161 370.384Z" stroke="white" stroke-width="0.373652"/>
<path d="M980.762 372.174C980.686 373.151 979.999 373.895 979.228 373.835C978.456 373.775 977.892 372.934 977.968 371.957C978.044 370.98 978.731 370.236 979.502 370.296C980.274 370.356 980.838 371.196 980.762 372.174Z" stroke="white" stroke-width="0.373652"/>
<path d="M985.449 374.031C985.329 375.004 984.692 375.726 984.026 375.643C983.361 375.561 982.919 374.706 983.039 373.733C983.159 372.76 983.796 372.038 984.462 372.121C985.128 372.203 985.57 373.058 985.449 374.031Z" stroke="white" stroke-width="0.373652"/>
<path d="M989.269 376.206C988.996 377.148 988.373 377.794 987.877 377.651C987.382 377.507 987.201 376.628 987.474 375.686C987.747 374.745 988.37 374.098 988.866 374.241C989.361 374.385 989.542 375.265 989.269 376.206Z" stroke="white" stroke-width="0.373652"/>
<path d="M992.537 378.527C992.156 379.502 991.458 380.141 990.978 379.953C990.497 379.766 990.416 378.823 990.797 377.848C991.178 376.872 991.876 376.234 992.357 376.422C992.837 376.609 992.918 377.552 992.537 378.527Z" stroke="white" stroke-width="0.373652"/>
<path d="M995.109 381.51C994.429 382.384 993.577 382.858 993.207 382.57C992.836 382.282 993.088 381.34 993.768 380.466C994.448 379.592 995.3 379.118 995.67 379.406C996.04 379.695 995.789 380.637 995.109 381.51Z" stroke="white" stroke-width="0.373652"/>
<path d="M996.515 385.078C995.488 385.752 994.474 386.021 994.25 385.679C994.026 385.338 994.676 384.515 995.703 383.841C996.729 383.167 997.743 382.898 997.967 383.239C998.192 383.581 997.541 384.404 996.515 385.078Z" stroke="white" stroke-width="0.373652"/>
<path d="M1053.07 399.419C1050.65 397.644 1051.49 396.128 1055.22 394.841L1082.42 386.847M1219.31 347.566L1171.85 361.569" stroke="white" stroke-width="0.934129"/>
<path d="M1208.86 300.23L1161.33 313.11M1056.06 341.277L1076.84 335.581" stroke="white" stroke-width="0.934129"/>
<path d="M1208.86 297.391L1155.99 311.592M1056.06 338.437L1083.99 330.936" stroke="white" stroke-width="0.373652"/>
<path d="M1182.35 483.508L1212.7 496.118C1216.3 497.616 1220.35 497.645 1223.97 496.199L1254.84 483.884L1260.63 481.385C1274.58 475.361 1283.61 461.621 1283.61 446.426V386.735C1283.61 371.602 1276.51 364.861 1266.71 367.489C1261.19 368.966 995.734 457.055 992.071 458.256C975.9 463.558 964.141 479.671 964.141 498.725V571.737C964.141 585.799 977.946 595.707 991.268 591.207L992.071 590.936L1049.47 566.951C1050.86 566.37 1051.76 565.01 1051.76 563.503V560.727C1051.76 559.542 1051.1 558.456 1050.05 557.909L1047.09 556.37" stroke="white" stroke-width="2.42874"/>
<path d="M970.68 530.868H972.641C972.641 524.64 972.641 515.417 972.641 507.795C972.641 500.172 969.559 472.952 1000.67 462.583C1024.85 454.521 1261.19 374.868 1264.65 373.654C1268.11 372.439 1271.66 372.159 1272.68 372.906" stroke="white" stroke-width="0.373652"/>
<path d="M1052.7 389.21L1054.21 388.805C1055.03 388.586 1055.59 387.846 1055.59 387V232.414C1055.59 223.557 1049.92 215.697 1041.51 212.908L958.292 185.305C955.098 184.245 952.844 181.384 952.561 178.03L947.669 119.711C947.53 118.052 948.695 116.567 950.339 116.308L968.42 113.459C993.266 109.564 1019.76 106.256 1045.42 102.663C1048.86 102.182 1052.29 103.639 1054.32 106.457L1061.07 115.821C1063.09 118.634 1066.54 120.06 1069.96 119.506L1093.07 115.762C1095.96 115.293 1098.31 113.176 1099.08 110.348L1102.45 97.9598C1103.04 95.8014 1104.86 94.199 1107.07 93.8833L1179.83 83.5114C1184.2 82.8427 1186.52 85.66 1186.79 86.8744C1193.66 116.768 1198.14 147.332 1205.62 178.309C1207.42 185.768 1208.32 193.414 1208.32 201.087V335.513C1208.32 340.285 1211.34 344.533 1215.85 346.101L1274.65 366.835" stroke="white" stroke-width="1.12096"/>
<path d="M837.102 94.9082L948.45 117.14" stroke="white" stroke-width="1.12096"/>
<path d="M925.748 182.53L896.089 174.89C895.498 174.738 894.922 175.185 894.922 175.795V189.171C894.922 190.871 896.07 192.357 897.716 192.786L922.458 199.234C924.624 199.799 926.889 199.869 929.085 199.441L961.712 193.086L925.748 182.53Z" stroke="white" stroke-width="1.12096"/>
<path d="M955.269 183.931L832.968 154.752C830.375 154.133 828.662 151.665 828.99 149.02L835.306 98.0952C835.594 95.7689 837.395 93.9185 839.713 93.5671L858.586 90.7051L968.72 113.311" stroke="white" stroke-width="1.12096"/>
<path d="M826.332 352.511C798.065 359.857 770.146 367.121 769.187 367.426C756.632 371.416 747.422 384.528 747.422 400.088L747.487 452.921C747.504 467.035 755.473 479.935 768.087 486.268L975.816 590.557M868.835 341.395C912.742 330.013 930.651 325.545 932.193 325.545" stroke="white" stroke-width="1.12096"/>
<path d="M970.304 532.169V499.134C970.304 481.97 980.896 467.455 995.46 462.679C998.759 461.597 1262.51 372.565 1266.52 371.598C1273.34 369.954 1278.94 372.248 1278.94 386.26V416.243L970.304 532.169ZM970.304 532.169V558.036M1050.92 559.639L990.823 584.257C980.989 588.285 970.211 581.053 970.211 570.426V558.036M1277.02 417.153V444.012C1277.02 458.455 1268.27 471.457 1254.89 476.896L1221.52 490.459C1219.23 491.391 1216.66 491.375 1214.38 490.415L1190.85 480.511" stroke="white" stroke-width="1.12096"/>
<path d="M970.773 543.384L974.676 545.255C976.537 546.147 978.684 546.23 980.608 545.484L1028.32 526.993M1268.57 420.172V431.506C1268.57 433.846 1267.12 435.94 1264.93 436.758L1233.92 448.315M1028.32 526.993L1030.21 526.257C1030.32 526.215 1030.43 526.177 1030.54 526.142M1028.32 526.993L1030.54 526.142M1233.92 448.315L1233.74 448.385M1233.92 448.315C1233.86 448.338 1233.8 448.361 1233.74 448.385M1030.54 526.142L1233.74 448.385M1030.54 526.142C1034.12 524.994 1037.84 527.66 1037.84 531.483V555.071C1037.84 557.709 1040.5 559.517 1042.96 558.545L1045.44 557.559C1047.18 556.873 1048.45 555.371 1048.85 553.552L1051.88 539.8C1052.68 536.144 1055.26 533.13 1058.74 531.767L1203.25 475.269C1206.04 474.18 1209.19 475.47 1210.41 478.201L1215.15 488.807C1215.93 490.543 1217.94 491.359 1219.7 490.657L1221.06 490.12C1222.47 489.557 1223.46 488.254 1223.63 486.737L1226.74 457.558C1227.18 453.431 1229.88 449.898 1233.74 448.385" stroke="white" stroke-width="1.68143"/>
<path d="M1039.81 558.61L994.969 540.301" stroke="white" stroke-width="1.68143"/>
<path d="M964.14 497.238L747.516 400.275" stroke="white" stroke-width="1.68143"/>
<path d="M1053.63 224.752L952.836 194.953" stroke="white" stroke-width="1.68143"/>
<path d="M894.735 176.272L832.148 154.693" stroke="white" stroke-width="1.12096"/>
<path d="M1020.38 513.492V516.323C1020.38 516.849 1020.9 517.21 1021.39 517.02L1037.93 510.595C1038.21 510.483 1038.4 510.206 1038.4 509.898V506.579M1076.24 492.848V495.679C1076.24 496.204 1076.76 496.566 1077.25 496.375L1093.79 489.95C1094.08 489.839 1094.26 489.562 1094.26 489.254V485.935M1128.73 473.418V476.249C1128.73 476.775 1129.26 477.136 1129.75 476.946L1146.29 470.52C1146.57 470.409 1146.76 470.132 1146.76 469.824V466.505M1177.12 454.922V457.753C1177.12 458.279 1177.65 458.64 1178.14 458.45L1194.67 452.025C1194.96 451.913 1195.15 451.636 1195.15 451.328V448.01M1223.45 436.987V439.818C1223.45 440.344 1223.98 440.705 1224.47 440.515L1241.01 434.089C1241.29 433.978 1241.48 433.701 1241.48 433.393V430.074" stroke="white" stroke-width="1.12096"/>
<path fill-rule="evenodd" clip-rule="evenodd" d="M929.425 376.789C958.895 376.789 983.479 382.867 989.137 390.942C981.473 398.112 957.641 403.343 929.425 403.343C901.208 403.343 877.374 398.112 869.711 390.942C875.368 382.866 899.954 376.789 929.425 376.789Z" fill="#713ADA" fill-opacity="0.1"/>
<path d="M926.526 182.85L895.525 174.859C895.277 178.692 894.783 186.719 894.783 188.161C894.783 189.964 895.525 192.219 898.142 192.771C900.76 193.322 913.712 196.215 917.708 198.006C920.904 199.439 924.918 199.614 926.526 199.522V182.85Z" fill="#D9D9D9" fill-opacity="0.07"/>
<path d="M948.458 117.244L836.978 94.9455C836.482 95.5608 835.474 96.9383 835.412 97.5258C835.335 98.2603 828.781 147.926 828.781 148.158C828.781 148.389 828.914 150.834 829.244 151.76C829.508 152.5 830.821 153.612 831.444 154.076L953.669 183.545H955.115C954.341 182.277 952.764 179.421 952.642 178.143C952.49 176.546 947.735 121.656 947.583 119.907C947.462 118.507 948.116 117.548 948.458 117.244Z" fill="#D9D9D9" fill-opacity="0.07"/>
<path d="M1054.14 224.853L953.669 194.618L932.267 198.87L931.906 336.204V346.235L1053.33 388.625C1053.67 388.625 1054.43 388.554 1054.81 388.271L1054.86 388.227C1055.31 387.896 1055.63 387.654 1055.63 387.032V344.075C1055.44 310.638 1055.16 242.359 1055.63 236.741C1056.1 231.124 1054.84 226.475 1054.14 224.853Z" fill="#D9D9D9" fill-opacity="0.07"/>
<path d="M964.094 497.222L747.499 400.52L747.008 437.641C747.236 444.431 747.499 458.694 747.499 458.694C747.499 458.694 926.307 544.644 964.094 562.78V497.222Z" fill="#D9D9D9" fill-opacity="0.07"/>
<path d="M818.672 361.229C817.511 360.132 817.435 358.621 817.543 358.002C816.898 358.002 814.074 363.003 813.832 364.617C813.59 366.23 815.365 368.488 816.575 369.456C817.785 370.424 820.769 371.634 821.173 373.005C821.495 374.102 820.07 375.398 819.317 375.909C819.506 376.044 820.737 375.893 824.157 374.215C828.432 372.118 828.029 370.747 828.352 369.456C828.674 368.166 826.98 366.31 825.125 365.181C823.27 364.052 820.124 362.6 818.672 361.229Z" fill="#D9D9D9" fill-opacity="0.07"/>
<path d="M1019.54 438.642L1018.01 429.444C1014.44 429.705 1006.72 430.228 1004.38 430.228H992.919L992.475 440.533C993.869 440.711 997.982 441.067 1003.28 441.067C1008.58 441.067 1016.33 439.45 1019.54 438.642Z" fill="#D9D9D9" fill-opacity="0.07"/>
<path d="M980.129 439.127L982.1 428.013L977.292 426.516C976.32 429.301 974.265 435.296 973.824 436.999C974.707 437.566 978.395 438.654 980.129 439.127Z" fill="#D9D9D9" fill-opacity="0.07"/>
<path d="M922.559 440.146L926.074 426.516L923.872 425.947L813.728 379.38L812.893 378.475L811.5 379.867C809.911 382.976 806.691 389.389 806.524 390.169C806.356 390.948 807.196 391.515 807.637 391.7C843.002 406.785 914.287 437.203 916.508 438.198C918.729 439.192 921.467 439.911 922.559 440.146Z" fill="#D9D9D9" fill-opacity="0.07"/>
<path d="M969.244 477.497C971.18 472.223 972.294 472.439 973.824 471.02L754.769 377.815C753.43 379.304 751.917 380.991 751.095 383.449C750.273 385.906 749.133 388.89 748.377 391.7L965.614 486.902C965.892 485.316 967.309 482.77 969.244 477.497Z" fill="#D9D9D9" fill-opacity="0.07"/>
<path d="M1155.79 314.764H1155.32V315.385L1155.92 315.213L1155.79 314.764ZM1082.13 333.98L1082.25 334.432V334.432L1082.13 333.98ZM1161.99 312.975L1162.12 313.423V313.423L1161.99 312.975ZM1075.88 337.63H1075.42L1075.42 337.631L1075.88 337.63ZM1077.84 335.099L1077.72 334.647V334.647L1077.84 335.099ZM1078.02 380.823L1077.9 380.374L1078.02 380.823ZM1075.93 381.434L1075.46 381.435C1075.46 381.582 1075.53 381.721 1075.65 381.809C1075.77 381.897 1075.92 381.924 1076.06 381.882L1075.93 381.434ZM1162.24 356.896L1162.11 356.447L1162.24 356.896ZM1164.14 356.336L1164.28 356.782L1164.61 356.68V356.336H1164.14ZM1153.7 303.753L1153.81 304.206V304.206L1153.7 303.753ZM1086.07 320.791L1085.95 320.338L1086.07 320.791ZM1086.07 320.791L1086.18 321.243L1153.81 304.206L1153.7 303.753L1153.58 303.3L1085.95 320.338L1086.07 320.791ZM1162.24 356.896L1162.11 356.447L1077.9 380.374L1078.02 380.823L1078.15 381.272L1162.37 357.345L1162.24 356.896ZM1075.93 381.434L1076.39 381.434L1076.35 337.63L1075.88 337.63L1075.42 337.631L1075.46 381.435L1075.93 381.434ZM1164.14 314.59H1163.68V356.336H1164.14H1164.61V314.59H1164.14ZM1155.79 305.383H1155.32V314.764H1155.79H1156.26V305.383H1155.79ZM1155.79 314.764L1155.92 315.213L1162.12 313.423L1161.99 312.975L1161.87 312.526L1155.66 314.315L1155.79 314.764ZM1077.84 335.099L1077.96 335.551L1082.25 334.432L1082.13 333.98L1082.02 333.528L1077.72 334.647L1077.84 335.099ZM1084.09 331.449H1084.56V323.327H1084.09H1083.62V331.449H1084.09ZM1082.13 333.98L1082.25 334.432C1083.61 334.078 1084.56 332.852 1084.56 331.449H1084.09H1083.62C1083.62 332.427 1082.96 333.282 1082.02 333.528L1082.13 333.98ZM1164.14 314.59H1164.61C1164.61 313.161 1163.24 312.13 1161.87 312.526L1161.99 312.975L1162.12 313.423C1162.9 313.199 1163.68 313.782 1163.68 314.59H1164.14ZM1075.88 337.63H1076.35C1076.35 336.652 1077.01 335.798 1077.96 335.551L1077.84 335.099L1077.72 334.647C1076.36 335.001 1075.42 336.227 1075.42 337.63H1075.88ZM1078.02 380.823L1077.9 380.374C1077.36 380.527 1076.83 380.68 1076.44 380.795C1076.25 380.852 1076.08 380.9 1075.97 380.934C1075.91 380.951 1075.87 380.964 1075.84 380.973C1075.82 380.977 1075.81 380.981 1075.8 380.983C1075.8 380.984 1075.8 380.985 1075.8 380.986C1075.79 380.986 1075.79 380.986 1075.79 380.987C1075.79 380.987 1075.79 380.987 1075.79 380.987C1075.79 380.987 1075.79 380.987 1075.79 380.987C1075.79 380.987 1075.79 380.987 1075.79 380.987C1075.79 380.987 1075.79 380.987 1075.93 381.434C1076.06 381.882 1076.06 381.882 1076.06 381.882C1076.06 381.882 1076.06 381.882 1076.06 381.882C1076.06 381.882 1076.06 381.882 1076.06 381.882C1076.06 381.882 1076.06 381.882 1076.06 381.882C1076.06 381.881 1076.06 381.881 1076.06 381.881C1076.07 381.88 1076.07 381.879 1076.07 381.878C1076.08 381.876 1076.09 381.873 1076.11 381.868C1076.14 381.859 1076.18 381.846 1076.24 381.829C1076.35 381.796 1076.51 381.748 1076.7 381.691C1077.09 381.577 1077.62 381.424 1078.15 381.272L1078.02 380.823ZM1162.24 356.896L1162.37 357.345C1162.93 357.185 1163.41 357.044 1163.75 356.943C1163.92 356.893 1164.05 356.853 1164.14 356.825C1164.19 356.811 1164.22 356.8 1164.24 356.793C1164.26 356.789 1164.27 356.786 1164.27 356.785C1164.27 356.784 1164.28 356.783 1164.28 356.782C1164.28 356.782 1164.28 356.782 1164.28 356.782C1164.28 356.782 1164.28 356.782 1164.28 356.782C1164.28 356.782 1164.28 356.782 1164.28 356.782C1164.28 356.782 1164.28 356.782 1164.28 356.782C1164.28 356.782 1164.28 356.782 1164.14 356.336C1164 355.889 1164 355.889 1164 355.889C1164 355.889 1164 355.889 1164 355.889C1164 355.889 1164 355.889 1164 355.889C1164 355.889 1164 355.89 1164 355.89C1164 355.89 1164 355.89 1164 355.89C1164 355.89 1164 355.891 1164 355.892C1163.99 355.894 1163.98 355.897 1163.97 355.9C1163.95 355.907 1163.91 355.918 1163.87 355.931C1163.78 355.959 1163.65 355.999 1163.48 356.048C1163.15 356.148 1162.67 356.287 1162.11 356.447L1162.24 356.896ZM1153.7 303.753L1153.81 304.206C1154.58 304.013 1155.32 304.593 1155.32 305.383H1155.79H1156.26C1156.26 303.984 1154.94 302.958 1153.58 303.3L1153.7 303.753ZM1086.07 320.791L1085.95 320.338C1084.58 320.683 1083.62 321.914 1083.62 323.327H1084.09H1084.56C1084.56 322.342 1085.23 321.484 1086.18 321.243L1086.07 320.791Z" fill="white"/>
<path d="M1086.53 378.507V323.809C1086.53 323.382 1086.82 323.009 1087.24 322.904L1155.61 305.609V358.994" stroke="white" stroke-width="0.373652"/>
<path d="M1076.02 381.321L1080.83 383.638C1083.73 385.032 1087.04 385.311 1090.12 384.42L1170.99 361.116C1171.65 360.924 1171.72 360.003 1171.09 359.717L1163.95 356.492" stroke="white" stroke-width="0.934129"/>
<path d="M1171.79 360.188V362.514C1171.79 362.847 1171.57 363.14 1171.25 363.232L1090.15 386.754C1087.05 387.653 1083.72 387.374 1080.82 385.972L1076.83 384.045C1076.12 383.702 1075.66 382.983 1075.66 382.194V381.027" stroke="white" stroke-width="0.373652"/>
<path d="M1061.64 70.9463V52.8242M1092.22 66.5559V53.4119M967.102 83.8373V65.7152M1148.23 75.8038V61.4182" stroke="white" stroke-width="0.373652" stroke-linejoin="round"/>
<path d="M1186.99 71.9736V88.2771M1181.95 73.188V83.7933M960.353 105.699V111.63M967.452 105.819V112.751M853.509 83.7436L853.509 91.3597M919.178 93.4586L1148.32 61.5113L1182.94 66.3556C1190.35 67.8392 1188.67 69.9815 1179.19 71.1404L967.995 101.519C965.807 101.787 962.646 101.726 960.936 101.384L854.041 81.1064C852.331 80.764 852.719 80.2696 854.908 80.0021L967.099 65.3788L1029.78 75.4299L911.892 92.0574M1062.18 52.9861C1071.66 51.8272 1085.35 52.0903 1092.76 53.5738L1139.91 60.297L1036.13 74.5892L973.638 64.4072L1062.18 52.9861ZM1178.77 63.1928C1193.72 64.6874 1195.48 71.4781 1184.56 72.8143L969.266 105.46C966.748 105.768 963.111 105.698 961.143 105.303L851.361 83.1831C849.393 82.7884 846.223 78.4191 855.844 77.3915L1061.4 50.0637C1072.31 48.7275 1084.33 49.0308 1092.86 50.7412L1178.77 63.1928Z" stroke="white" stroke-width="1.12096"/>
</g>
<mask id="mask1_6162_137276" style="mask-type:alpha" maskUnits="userSpaceOnUse" x="971" y="371" width="510" height="339">
<path d="M979.988 681.111C1125.4 691.74 1417.07 712.319 1420.47 709.598L1442.58 701.093L1480.42 553.132L1473.62 448.964L1366.9 411.974L1280.16 395.392C1280.02 391.282 1279.48 381.872 1278.46 377.11C1277.19 371.158 1272.08 370.733 1267.83 371.583C1263.58 372.433 1023.36 453.642 999.121 461.72C974.886 469.799 971.484 491.057 971.484 497.01V569.715C971.484 582.47 977.012 614.784 977.862 616.91C978.542 618.61 979.563 660.419 979.988 681.111Z" fill="url(#paint2_linear_6162_137276)"/>
</mask>
<g mask="url(#mask1_6162_137276)">
<path d="M1067.03 499.192L1172.6 545.617M1343.07 411.632L1467.21 454.989M1232.29 372.839L1238.68 375.412M1332.48 412.136L1243.69 379.904L1239.8 381.233M1239.8 381.233L1328.59 413.27M1239.8 381.233L1239.54 414.622M1151.94 631.276L914.742 516.753M1034.02 535.544L1148.69 586.795M920.618 485.165L1025.31 531.819M1233.63 373.419C1228.89 371.15 1223.06 370.943 1216.75 373.289L944.478 442.018C928.382 448.002 915.214 468.327 915.066 487.415L914.774 525.276C914.682 537.159 919.558 546.018 927.21 549.376L1154.08 668.575M920.678 485.66C922.713 468.049 935.02 450.474 949.795 444.981L981.195 436.235C981.195 436.235 989.277 433.289 980.776 440.213M1016.98 428.631L1223.23 375.854C1229.55 373.508 1235.37 373.715 1240.11 375.984C1241.13 376.518 1242.9 377.937 1243.76 380.1M1219.19 648.786L1174.82 626.992M1378.39 564.983L1406.17 576.265M1033.54 572.886L1033.8 538.965C1033.94 521.341 1044.94 506.522 1059.94 501.733C1063.34 500.649 1328.92 418.098 1340.17 415.212C1346.09 413.693 1351.4 413.574 1355.07 415.904M1148.65 616.316L1148.45 643.193M1224.83 647.784L1169.56 670.602C1159.31 674.708 1148.16 667.108 1148.25 656.066L1148.35 643.192M1470.37 498.339L1470.11 532.324C1469.99 547.331 1465.99 552.849 1452.04 558.393L1410.09 574.992C1407.7 575.942 1405.03 575.905 1402.67 574.889L1378.3 564.41M1031.4 573.473L1031.24 594.879C1031.15 605.921 1042.3 613.522 1052.55 609.415L1081.41 597.497M1143.33 627.337L1143.23 639.17M1143.14 639.169L1143.04 652.043C1142.98 659.664 1148.18 665.42 1154.08 668.69M1149.04 616.472L1149.36 626.062C1149.45 628.934 1151.23 631.378 1154.11 631.404C1156.17 631.422 1158.29 631.204 1159.35 630.805L1209.08 611.974M1459.65 502.909L1459.56 514.686C1459.54 517.118 1458.01 519.282 1455.73 520.113L1423.41 531.874M1209.08 611.974L1211.06 611.225C1211.17 611.182 1211.29 611.143 1211.4 611.108M1209.08 611.974L1211.4 611.108M1423.41 531.874L1423.22 531.945M1423.41 531.874C1423.34 531.897 1423.28 531.921 1423.22 531.945M1211.4 611.108L1423.22 531.945M1211.4 611.108C1215.13 609.944 1218.98 612.744 1218.95 616.716L1217.56 645.487C1217.54 648.228 1220.29 650.127 1222.85 649.137L1225.44 648.133C1227.24 647.433 1228.58 645.884 1229.01 643.997L1233.47 625.47C1234.33 621.678 1237.03 618.568 1240.67 617.179L1391.32 559.634C1394.22 558.525 1397.49 559.891 1398.73 562.738L1403.58 573.796C1404.37 575.606 1406.45 576.47 1408.29 575.754L1409.7 575.207C1411.18 574.633 1412.22 573.288 1412.4 571.713L1415.87 541.419C1416.37 537.135 1419.2 533.486 1423.22 531.945M1200.94 597.882L1200.91 600.824C1200.91 601.37 1201.46 601.75 1201.97 601.556L1219.2 595.012C1219.5 594.899 1219.7 594.613 1219.7 594.293L1219.73 590.844M1259.16 576.88L1259.14 579.822C1259.14 580.368 1259.68 580.747 1260.19 580.554L1277.43 574.01C1277.73 573.896 1277.93 573.611 1277.93 573.29L1277.96 569.842M1313.88 557.112L1313.86 560.054C1313.86 560.6 1314.4 560.98 1314.91 560.786L1332.15 554.243C1332.45 554.129 1332.65 553.843 1332.65 553.523L1332.68 550.075M1364.32 538.283L1364.3 541.224C1364.3 541.77 1364.84 542.15 1365.35 541.956L1382.59 535.413C1382.89 535.299 1383.09 535.013 1383.09 534.693L1383.12 531.245M1412.62 520.019L1412.6 522.96C1412.6 523.506 1413.14 523.886 1413.65 523.692L1430.89 517.149C1431.19 517.035 1431.39 516.749 1431.39 516.429L1431.42 512.981M976.963 465.121C979.723 453.936 994.719 444.238 1015.92 438.72M1017.36 428.538C992.705 434.55 975.875 446.099 975.774 459.207C975.628 478.165 1010.52 493.204 1053.72 492.8C1058.29 492.757 1062.77 492.543 1067.13 492.172C1073.26 491.65 1079.2 490.238 1085.07 488.414C1157.04 466.056 1322.78 414.712 1331.64 412.439C1338.24 410.747 1344.07 410.791 1347.73 414.018M1025.5 532.184C1027.13 516.351 1037.57 503.381 1051.41 498.96C1052.48 498.621 1052.16 496.905 1051.04 496.943C1003.83 498.56 969.79 479.665 969.95 459.03C970.006 451.673 974.581 444.742 982.503 438.767M969.954 458.458C969.915 463.408 970.482 469.344 971.198 472.93C971.531 474.601 972.037 476.23 972.725 477.806C980.848 496.43 1010.52 505.86 1045.75 501.206M1015.64 438.822C1015.64 438.822 1150.13 404.806 1174.52 398.926C1185.3 396.325 1198.11 399.03 1209.04 402.856L1277.1 428.997M1149.01 582.564C1149.15 564.73 1160.27 549.734 1175.45 544.888C1178.89 543.791 1438.94 456.85 1450.32 453.93C1461.7 451.01 1470.81 453.2 1470.7 467.759L1470.46 498.912L1148.75 616.889L1149.01 582.564Z" stroke="white" stroke-width="1.27207" stroke-dasharray="4.32 4.32"/>
</g>
<path d="M1346.56 532.502L1447.38 573.137M1447.38 573.137L1429.68 548.695M1447.38 573.137L1381.64 573.137" stroke="url(#paint3_linear_6162_137276)" stroke-width="10.7953" stroke-linecap="round" stroke-linejoin="round"/>
<path d="M665.365 587.074C662.931 585.768 659.9 586.682 658.595 589.116C657.289 591.549 658.203 594.58 660.636 595.885L663 591.48L665.365 587.074ZM835.119 617.177C836.757 614.953 836.283 611.823 834.059 610.185L797.829 583.495C795.606 581.857 792.476 582.332 790.838 584.555C789.2 586.779 789.675 589.909 791.898 591.546L824.103 615.271L800.378 647.476C798.74 649.699 799.215 652.829 801.438 654.467C803.661 656.105 806.791 655.63 808.429 653.407L835.119 617.177ZM663 591.48L660.636 595.885L672.005 601.986L674.369 597.58L676.733 593.174L665.365 587.074L663 591.48ZM798.918 619.09L799.668 624.033L831.843 619.154L831.094 614.211L830.344 609.267L798.168 614.146L798.918 619.09ZM674.369 597.58L672.005 601.986C711.057 622.942 755.849 630.677 799.668 624.033L798.918 619.09L798.168 614.146C756.487 620.466 713.881 613.108 676.733 593.174L674.369 597.58Z" fill="#4FE2CE"/>
<path d="M322.444 528.573L207.18 477.871" stroke="white" stroke-width="1.27207" stroke-linejoin="round"/>
<path d="M387.609 339.875L394.584 342.685M644.095 429.593L508.557 382.242" stroke="white" stroke-width="1.27207" stroke-linejoin="round"/>
<path d="M496.999 382.792L400.06 347.591L395.809 349.043M395.809 349.043L492.749 384.032M395.809 349.043L395.527 385.508" stroke="white" stroke-width="1.27207"/>
<path d="M40.9131 497.05L299.882 622.124M47.3278 462.551L161.636 513.504M296.335 573.545L171.146 517.571" stroke="white" stroke-width="1.27207" stroke-linejoin="round"/>
<path d="M389.073 340.51C383.897 338.031 377.538 337.805 370.648 340.367L73.381 415.429C55.8073 421.964 41.4305 444.162 41.2697 465.008L40.9506 506.359C40.8505 519.336 46.1743 529.012 54.5287 532.679L302.221 662.861" stroke="white" stroke-width="1.27207"/>
<path d="M113.01 413.448C122.291 405.887 113.467 409.104 113.467 409.104L79.1849 418.655C63.0538 424.654 49.6164 443.849 47.3945 463.083" stroke="white" stroke-width="1.27207"/>
<path d="M152.543 400.809L377.727 343.169C384.617 340.606 390.977 340.832 396.152 343.311C397.269 343.894 399.202 345.444 400.137 347.806" stroke="white" stroke-width="1.27207"/>
<path d="M373.308 641.24L324.864 617.439M547.127 549.716L577.456 562.037M296.691 568.917C296.841 549.439 308.987 533.062 325.556 527.77C329.309 526.571 613.234 431.619 625.661 428.43C638.089 425.241 648.035 427.633 647.913 443.533L647.65 477.557L296.402 606.404L296.691 568.917Z" stroke="white" stroke-width="1.27207"/>
<path d="M170.618 558.355L170.904 521.309C171.053 502.061 183.059 485.876 199.437 480.646C203.147 479.461 493.106 389.305 505.391 386.153C511.861 384.493 517.651 384.363 521.665 386.908" stroke="white" stroke-width="1.27207"/>
<path d="M647.542 476.93L647.256 514.047C647.129 530.436 642.761 536.462 627.53 542.517L581.735 560.646C579.125 561.683 576.211 561.642 573.631 560.533L547.019 549.088M296.294 605.777L296.068 635.13M379.458 640.145L319.122 665.065C307.927 669.55 295.76 661.249 295.853 649.19L295.962 635.13" stroke="white" stroke-width="1.27207"/>
<path d="M168.281 558.996L168.101 582.375C168.008 594.434 180.175 602.735 191.369 598.25L222.885 585.233" stroke="white" stroke-width="1.27207"/>
<path d="M290.481 617.823L290.381 630.746M290.275 630.745L290.167 644.806C290.103 653.129 295.786 659.415 302.218 662.986" stroke="white" stroke-width="1.27207"/>
<path d="M296.718 605.956L297.065 616.429C297.169 619.566 299.111 622.236 302.249 622.264C304.499 622.284 306.821 622.045 307.97 621.61L362.27 601.044M635.844 481.93L635.745 494.791C635.724 497.447 634.056 499.81 631.56 500.719L596.271 513.563M362.27 601.044L364.43 600.226C364.553 600.179 364.677 600.136 364.8 600.098M362.27 601.044L364.8 600.098M596.271 513.563L596.064 513.64M596.271 513.563C596.201 513.588 596.132 513.614 596.064 513.64M364.8 600.098L596.064 513.64M364.8 600.098C368.87 598.827 373.076 601.884 373.043 606.223L371.528 637.644C371.505 640.638 374.508 642.712 377.3 641.63L380.131 640.534C382.101 639.77 383.564 638.077 384.034 636.017L388.894 615.783C389.838 611.641 392.788 608.244 396.756 606.728L561.237 543.881C564.408 542.669 567.972 544.161 569.333 547.27L574.623 559.348C575.489 561.324 577.759 562.268 579.771 561.486L581.309 560.889C582.924 560.262 584.058 558.793 584.255 557.072L588.047 523.988C588.583 519.308 591.678 515.323 596.064 513.64" stroke="white" stroke-width="1.90811"/>
<path d="M353.379 585.655L353.354 588.867C353.35 589.464 353.946 589.878 354.503 589.667L373.322 582.52C373.649 582.396 373.866 582.084 373.869 581.734L373.898 577.968M416.949 562.717L416.925 565.93C416.92 566.526 417.516 566.941 418.074 566.729L436.892 559.583C437.219 559.459 437.437 559.146 437.439 558.797L437.468 555.031M476.693 541.128L476.668 544.341C476.664 544.937 477.26 545.352 477.817 545.14L496.636 537.994C496.963 537.87 497.18 537.558 497.183 537.208L497.212 533.442M531.764 520.563L531.74 523.776C531.735 524.373 532.331 524.787 532.889 524.575L551.707 517.429C552.034 517.305 552.252 516.993 552.254 516.643L552.283 512.877M584.499 500.617L584.474 503.829C584.469 504.426 585.066 504.84 585.623 504.629L604.442 497.482C604.769 497.358 604.986 497.046 604.989 496.696L605.018 492.93" stroke="white" stroke-width="1.27207"/>
<path d="M636.289 427.337C632.161 426.563 623.766 429.148 618.665 430.805C528.4 460.427 342.731 520.501 322.149 528.059C296.422 537.508 297.384 564.017 297.319 572.391C297.255 580.766 296.195 608.214 296.995 614.369C297.605 619.055 298.546 620.658 299 620.926L299.065 620.957C299.044 620.95 299.023 620.94 299 620.926L168.6 559.414C168.542 566.94 166.747 579.754 168.391 586.551C170.692 596.067 173.452 594.611 176.889 597.96C140.675 578.916 65.5324 537.804 53.2832 531.603C37.9717 523.852 41.0493 509.671 41.091 504.265C41.1327 498.859 40.9472 481.684 41.437 459.426C41.9267 437.167 62.8571 417.399 77.4105 413.483C91.964 409.567 359.618 343.256 370.877 340.481C382.135 337.705 384.878 339.423 387.84 340.294C388.135 340.381 390.748 341.283 395.222 342.84C396.932 343.435 398.912 345.569 400.06 347.91C418.503 354.345 458.362 369.854 496.15 383.104C502.311 381.565 503.109 380.616 508.346 382.453C569.279 403.823 631.447 425.645 636.289 427.337Z" fill="#D9D9D9" fill-opacity="0.1"/>
<path d="M108.843 440.652C111.857 428.436 128.23 417.844 151.381 411.818" stroke="white" stroke-width="1.27207"/>
<path d="M152.956 400.707C126.036 407.273 107.661 419.886 107.55 434.202C107.391 454.906 145.491 471.331 192.65 470.889C197.642 470.843 202.535 470.609 207.294 470.203C213.985 469.634 220.47 468.092 226.883 466.099C305.461 441.682 486.413 385.606 496.089 383.124C503.292 381.276 509.652 381.325 513.656 384.848M161.843 513.903C163.621 496.61 175.015 482.445 190.135 477.617C191.294 477.247 190.943 475.373 189.727 475.415C138.177 477.181 101.017 456.545 101.191 434.008C101.253 425.973 106.248 418.404 114.897 411.878" stroke="white" stroke-width="1.27207"/>
<path d="M101.195 433.383C101.153 438.79 101.772 445.273 102.553 449.189C102.917 451.014 103.47 452.793 104.22 454.514C113.089 474.854 145.49 485.153 183.946 480.07" stroke="white" stroke-width="1.27207"/>
<path d="M151.082 411.93C151.082 411.93 297.919 374.779 324.54 368.358C336.317 365.517 350.302 368.471 362.237 372.649L436.541 401.199" stroke="white" stroke-width="1.27207"/>
<g filter="url(#filter0_d_6162_137276)">
<path d="M514.771 382.422L514.35 383.417C514.372 383.426 514.395 383.435 514.418 383.443L514.771 382.422ZM642.695 426.683L643.393 425.86L643.239 425.729L643.048 425.663L642.695 426.683ZM395.116 340.357L395.615 339.399C395.584 339.383 395.552 339.368 395.519 339.355L395.116 340.357ZM400.647 345.301L399.644 345.699L399.824 346.154L400.284 346.318L400.647 345.301ZM498.578 380.263L498.215 381.28L498.391 381.343H498.578V380.263ZM39.2358 463.383L38.1562 463.375V463.383H39.2358ZM71.6757 413.414L71.412 412.367L71.3552 412.381L71.3002 412.402L71.6757 413.414ZM370.931 338.02L371.195 339.067L371.251 339.052L371.306 339.032L370.931 338.02ZM39.2358 507.293L40.3153 507.301V507.293H39.2358ZM52.9528 533.82L53.4551 532.864L53.4211 532.846L53.3859 532.831L52.9528 533.82ZM302.35 664.928L303.007 664.071L302.934 664.015L302.852 663.972L302.35 664.928ZM650.251 442.902L651.33 442.911V442.902H650.251ZM380.02 642.187L379.631 641.18L379.62 641.185L379.609 641.189L380.02 642.187ZM319.182 667.255L319.583 668.258L319.593 668.253L319.182 667.255ZM649.594 513.971L648.515 513.963V513.963L649.594 513.971ZM630.747 543.745L631.143 544.749L631.145 544.748L630.747 543.745ZM584.483 562.016L584.086 561.012L584.085 561.012L584.483 562.016ZM576.296 561.902L576.722 560.91L576.714 560.907L576.706 560.904L576.296 561.902ZM549.06 550.72L549.47 549.721L549.075 549.559L548.676 549.711L549.06 550.72ZM384.757 637.971L383.707 637.718L383.704 637.73L384.757 637.971ZM389.667 617.578L390.717 617.831L390.719 617.818L389.667 617.578ZM397.609 608.452L397.225 607.443V607.443L397.609 608.452ZM514.771 382.422L514.418 383.443L642.342 427.703L642.695 426.683L643.048 425.663L515.124 381.402L514.771 382.422ZM388.07 337.525L387.668 338.526L394.714 341.358L395.116 340.357L395.519 339.355L388.473 336.523L388.07 337.525ZM400.647 345.301L400.284 346.318L498.215 381.28L498.578 380.263L498.941 379.247L401.01 344.285L400.647 345.301ZM39.2358 463.383L40.3153 463.391C40.3947 453.121 43.9892 442.474 49.7646 433.577C55.5435 424.676 63.4453 417.619 72.0512 414.426L71.6757 413.414L71.3002 412.402C62.1525 415.796 53.9157 423.218 47.9536 432.402C41.9881 441.591 38.2393 452.635 38.1563 463.375L39.2358 463.383ZM71.6757 413.414L71.9395 414.461L371.195 339.067L370.931 338.02L370.667 336.973L71.412 412.367L71.6757 413.414ZM39.2358 507.293H40.3153V463.383H39.2358H38.1562V507.293H39.2358ZM370.931 338.02L371.306 339.032C378.04 336.534 384.156 336.785 389.079 339.137L389.545 338.163L390.01 337.189C384.477 334.545 377.744 334.34 370.555 337.008L370.931 338.02ZM52.9528 533.82L53.3859 532.831C45.4746 529.366 40.2162 520.115 40.3153 507.301L39.2358 507.293L38.1563 507.285C38.0531 520.628 43.5512 530.881 52.5198 534.809L52.9528 533.82ZM52.9528 533.82L52.4505 534.775L301.848 665.883L302.35 664.928L302.852 663.972L53.4551 532.864L52.9528 533.82ZM395.116 340.357L394.618 341.314C395.151 341.592 396.238 342.2 397.293 343.012C398.378 343.847 399.283 344.789 399.644 345.699L400.647 345.301L401.651 344.903C401.068 343.432 399.772 342.195 398.61 341.301C397.417 340.383 396.21 339.709 395.615 339.399L395.116 340.357ZM650.251 442.902L649.171 442.894L648.906 477.186L649.986 477.194L651.065 477.202L651.33 442.911L650.251 442.902ZM380.02 642.187L379.609 641.189L318.771 666.257L319.182 667.255L319.593 668.253L380.431 643.186L380.02 642.187ZM649.884 476.563L648.804 476.554L648.515 513.963L649.594 513.971L650.674 513.979L650.963 476.571L649.884 476.563ZM630.747 543.745L630.35 542.74L584.086 561.012L584.483 562.016L584.879 563.02L631.143 544.749L630.747 543.745ZM576.296 561.902L576.706 560.904L549.47 549.721L549.06 550.72L548.65 551.718L575.886 562.901L576.296 561.902ZM584.483 562.016L584.085 561.012C581.714 561.952 579.066 561.916 576.722 560.91L576.296 561.902L575.87 562.894C578.739 564.125 581.979 564.17 584.881 563.019L584.483 562.016ZM649.594 513.971L648.515 513.963C648.451 522.188 647.582 527.855 644.967 532.208C642.371 536.53 637.946 539.728 630.349 542.741L630.747 543.745L631.145 544.748C638.933 541.659 643.869 538.229 646.818 533.32C649.748 528.441 650.61 522.272 650.674 513.979L649.594 513.971ZM384.757 637.971L385.806 638.223L390.717 617.831L389.667 617.578L388.617 617.325L383.707 637.718L384.757 637.971ZM389.667 617.578L390.719 617.818C391.593 613.997 394.321 610.861 397.994 609.461L397.609 608.452L397.225 607.443C392.88 609.1 389.649 612.811 388.615 617.337L389.667 617.578ZM380.02 642.187L380.409 643.194C381.466 642.786 382.64 642.203 383.63 641.413C384.617 640.626 385.498 639.572 385.809 638.211L384.757 637.971L383.704 637.73C383.541 638.446 383.049 639.115 382.284 639.725C381.522 640.332 380.565 640.82 379.631 641.18L380.02 642.187ZM498.578 380.263V381.343C502.688 381.343 505.139 381.25 507.356 381.465C509.507 381.675 511.423 382.178 514.35 383.417L514.771 382.422L515.191 381.428C512.12 380.128 509.988 379.552 507.566 379.316C505.21 379.087 502.564 379.184 498.578 379.184V380.263ZM642.695 426.683L641.997 427.507C642.401 427.849 642.825 428.164 643.236 428.464C643.654 428.771 644.057 429.061 644.462 429.379C645.26 430.007 646.024 430.713 646.701 431.688C648.047 433.626 649.171 436.805 649.171 442.902H650.251H651.33C651.33 436.559 650.163 432.888 648.474 430.456C647.633 429.246 646.694 428.388 645.797 427.682C645.354 427.334 644.911 427.015 644.51 426.722C644.102 426.423 643.733 426.147 643.393 425.86L642.695 426.683ZM397.609 608.452L397.994 609.461L549.445 551.728L549.06 550.72L548.676 549.711L397.225 607.443L397.609 608.452ZM319.182 667.255L318.781 666.253C313.159 668.5 307.282 667.352 303.007 664.071L302.35 664.928L301.693 665.784C306.531 669.497 313.206 670.806 319.583 668.258L319.182 667.255Z" fill="#4FE2CE"/>
</g>
<path d="M571.5 359.785L577.228 394.558L612 400.285L577.228 406.013L571.5 440.785L565.772 406.013L531 400.285L565.772 394.558L571.5 359.785Z" fill="#4FE2CE"/>
<path d="M609 344.785L611.687 361.098L628 363.785L611.687 366.472L609 382.785L606.313 366.472L590 363.785L606.313 361.098L609 344.785Z" fill="#4FE2CE"/>
<path d="M14 402.785L15.9799 414.805L28 416.785L15.9799 418.765L14 430.785L12.0201 418.765L0 416.785L12.0201 414.805L14 402.785Z" fill="#4FE2CE"/>
<path d="M48 412.785L51.2527 432.532L71 435.785L51.2527 439.038L48 458.785L44.7473 439.038L25 435.785L44.7473 432.532L48 412.785Z" fill="#4FE2CE"/>
<defs>
<filter id="filter0_d_6162_137276" x="33.8381" y="330.785" width="621.808" height="343.111" filterUnits="userSpaceOnUse" color-interpolation-filters="sRGB">
<feFlood flood-opacity="0" result="BackgroundImageFix"/>
<feColorMatrix in="SourceAlpha" type="matrix" values="0 0 0 0 0 0 0 0 0 0 0 0 0 0 0 0 0 0 127 0" result="hardAlpha"/>
<feOffset/>
<feGaussianBlur stdDeviation="2.15907"/>
<feComposite in2="hardAlpha" operator="out"/>
<feColorMatrix type="matrix" values="0 0 0 0 0.309804 0 0 0 0 0.886275 0 0 0 0 0.807843 0 0 0 1 0"/>
<feBlend mode="normal" in2="BackgroundImageFix" result="effect1_dropShadow_6162_137276"/>
<feBlend mode="normal" in="SourceGraphic" in2="effect1_dropShadow_6162_137276" result="shape"/>
</filter>
<linearGradient id="paint0_linear_6162_137276" x1="1107.98" y1="455.825" x2="1107.45" y2="163.272" gradientUnits="userSpaceOnUse">
<stop offset="0.439219" stop-color="#D9D9D9"/>
<stop offset="1" stop-color="#737373" stop-opacity="0"/>
</linearGradient>
<linearGradient id="paint1_linear_6162_137276" x1="1118.23" y1="502.127" x2="1134.07" y2="535.189" gradientUnits="userSpaceOnUse">
<stop/>
<stop offset="1" stop-opacity="0"/>
</linearGradient>
<linearGradient id="paint2_linear_6162_137276" x1="1138.21" y1="453.126" x2="1109.6" y2="404.547" gradientUnits="userSpaceOnUse">
<stop stop-color="#D9D9D9"/>
<stop offset="1" stop-color="#737373" stop-opacity="0"/>
</linearGradient>
<linearGradient id="paint3_linear_6162_137276" x1="1307.23" y1="539.339" x2="1483.83" y2="581.599" gradientUnits="userSpaceOnUse">
<stop stop-color="#C8C7CA"/>
<stop offset="1" stop-color="#636364"/>
</linearGradient>
</defs>
</svg>
