<svg viewBox="0 0 71 71" fill="none" xmlns="http://www.w3.org/2000/svg">
<path d="M19.1719 8.6123C19.4708 8.61242 19.7545 8.74661 19.9443 8.97754L36.1924 28.7383L52.4414 8.97754C52.6314 8.74652 52.9148 8.6123 53.2139 8.6123H62.9004C63.7419 8.6123 64.2077 9.58853 63.6777 10.2422L42.4756 36.3799L63.6553 62.1387C64.1917 62.7911 63.7274 63.7742 62.8828 63.7744H52.6045C52.3032 63.7744 52.018 63.6383 51.8281 63.4043L36.1924 44.127L20.5566 63.4043C20.3668 63.6382 20.0816 63.7744 19.7803 63.7744H9.50293C8.65818 63.7744 8.19396 62.7912 8.73047 62.1387L29.9092 36.3809L8.70801 10.2422C8.17782 9.58854 8.64274 8.61232 9.48438 8.6123H19.1719Z" fill="#EB3850"/>
</svg>
