<svg viewBox="0 0 48 48" fill="none" xmlns="http://www.w3.org/2000/svg">
<path d="M12.8252 5.83008C13.1241 5.83008 13.4077 5.96352 13.5977 6.19434L24.5 19.4541L35.4023 6.19434C35.5923 5.96351 35.8759 5.83008 36.1748 5.83008H41.9014C42.743 5.83013 43.2079 6.80632 42.6777 7.45996L28.7529 24.626L42.6553 41.5352C43.1918 42.1877 42.7276 43.1699 41.8828 43.1699H35.7637C35.4623 43.1699 35.1772 43.0339 34.9873 42.7998L24.5 29.8701L14.0127 42.7998C13.8228 43.0339 13.5377 43.1699 13.2363 43.1699H7.11719C6.27243 43.1699 5.80822 42.1877 6.34473 41.5352L20.2461 24.626L6.32227 7.45996C5.7921 6.80633 6.25704 5.83014 7.09863 5.83008H12.8252Z" fill="#8D8B8D"/>
</svg>
