<svg width="60" height="60" viewBox="0 0 60 60" fill="none" xmlns="http://www.w3.org/2000/svg">
<path fill-rule="evenodd" clip-rule="evenodd" d="M25.7143 5C14.2741 5 5 14.2741 5 25.7143C5 37.1545 14.2741 46.4286 25.7143 46.4286C30.5076 46.4286 34.9206 44.8005 38.4306 42.0672L50.6103 54.2468C51.6145 55.2511 53.2426 55.2511 54.2468 54.2468C55.2511 53.2426 55.2511 51.6145 54.2468 50.6103L42.0672 38.4306C44.8005 34.9207 46.4286 30.5076 46.4286 25.7143C46.4286 14.2741 37.1545 5 25.7143 5ZM25.7143 10.1429C17.1144 10.1429 10.1429 17.1144 10.1429 25.7143C10.1429 34.3141 17.1144 41.2857 25.7143 41.2857C34.3142 41.2857 41.2858 34.3141 41.2858 25.7143C41.2858 17.1144 34.3142 10.1429 25.7143 10.1429Z" fill="white"/>
</svg>
