<svg width="866" height="640" viewBox="0 0 866 640" fill="none" xmlns="http://www.w3.org/2000/svg">
<path d="M128.308 79.4872C178.982 76.146 229.878 92.3536 272.969 126.039L266.522 134.242C225.669 102.307 177.756 86.9849 130.204 89.8107L162.653 117.863C164.777 119.699 165.082 122.876 163.347 125.083C161.513 127.417 158.11 127.78 155.825 125.886L119.706 95.9474L108.724 87.2232L111.035 84.5728L145.794 43.0894C147.594 40.9412 150.778 40.6058 152.986 42.3317C155.311 44.1489 155.649 47.5321 153.731 49.7743L128.308 79.4872Z" fill="#4FE2CE"/>
<path d="M517.102 190.086V199.781M649.469 221.947L646.859 292.281" stroke="white"/>
<path d="M681.368 360.316L655.255 457.964C655.435 461.299 652.09 464.568 646.04 466.297L363.756 559.778C355.113 562.248 344.222 560.638 339.431 556.183L337.052 553.97C333.824 550.968 326.633 549.77 320.608 551.231C314.582 552.692 307.391 551.494 304.163 548.492L299.58 544.23C295.211 540.167 286.483 537.884 277.542 538.466L273.507 538.729C264.566 539.311 255.838 537.028 251.469 532.965L208.697 493.188C206.862 491.481 205.951 489.605 205.934 487.736L176.391 396.274" stroke="white" stroke-width="2"/>
<path d="M360.675 560.588L354.619 456.569M304.282 548.754L291.403 469.313M254.255 535.554L231.195 445.432" stroke="white"/>
<path d="M97.832 317.247L234.466 440.374C252.637 456.749 286.568 464.392 309.707 457.323L399.909 429.764C406.124 427.617 419.01 418.134 420.829 397.378C420.829 322.552 357.096 273.168 278.546 233.526C277.092 232.792 275.677 232.038 274.305 231.264L107.617 275.891C84.2247 282.471 79.8338 301.028 97.832 317.247Z" fill="#D9D9D9" fill-opacity="0.1"/>
<path d="M458.524 181.719C461.951 161.629 463.219 140.783 456.895 121.41C447.79 93.5147 432.174 76.4046 405.598 56.4017C399.971 52.1664 390.061 50.5212 382.329 58.2569L252.737 180.868C236.892 195.757 249.936 218.986 279.158 233.734C357.709 273.376 421.441 322.759 421.441 397.586L458.524 181.719Z" fill="url(#paint0_linear_4961_118984)" fill-opacity="0.2"/>
<path d="M416.164 415.046L678.725 338.997C688.713 336.143 692.322 329.656 686.786 324.508L684.037 321.952C680.306 318.483 682.432 314.117 688.899 311.967C695.366 309.818 697.493 305.452 693.762 301.983L688.466 297.058C683.417 292.363 684.423 286.557 691.004 282.397L693.975 280.519C700.556 276.359 701.562 270.553 696.513 265.858L647.086 219.895C642.038 215.2 631.952 212.562 621.62 213.235L616.956 213.538C606.625 214.211 596.539 211.574 591.49 206.879L586.194 201.954C582.464 198.485 574.154 197.101 567.191 198.789C560.228 200.476 551.918 199.092 548.188 195.624L545.439 193.067C539.902 187.919 527.317 186.059 517.329 188.913L453.912 207.281" stroke="white" stroke-width="2"/>
<path d="M458.003 183.676L549.135 157.523C572.314 150.871 605.63 158.569 623.55 174.717L761.038 298.613C778.957 314.761 774.693 333.243 751.515 339.895L309.867 466.639C286.688 473.291 253.372 465.593 235.453 449.446L97.9647 325.549C88.7413 317.238 85.395 308.308 87.48 300.691" stroke="white" stroke-width="2"/>
<path d="M400.245 429.802L310.043 457.361C286.904 464.43 252.973 456.787 234.802 440.412L98.168 317.285C80.1697 301.066 84.5606 282.508 107.953 275.929L274.575 231.265M400.245 429.802L412.524 355.541M400.245 429.802C406.46 427.655 419.346 418.172 421.165 397.416M421.125 399.206C421.125 324.38 357.432 273.206 278.882 233.564C249.659 218.817 236.615 195.587 252.461 180.698L382.053 58.0872C389.784 50.3514 399.695 51.9967 405.322 56.232C431.897 76.2349 447.514 93.3449 456.619 121.24C462.942 140.613 461.674 161.459 458.248 181.549L421.125 399.206Z" stroke="white" stroke-width="2"/>
<path d="M545.304 193.645C539.768 188.496 527.183 186.636 517.195 189.49L453.777 207.858L457.87 184.252L549.003 158.099C572.181 151.447 605.498 159.145 623.417 175.293L760.905 299.189C778.824 315.337 774.56 333.82 751.382 340.471L309.734 467.216C286.555 473.867 253.239 466.169 235.32 450.022L97.8319 326.125C88.6085 317.814 85.2622 308.884 87.3472 301.267C88.1888 307.059 94.8233 314.746 98.0354 317.866L234.669 440.992C252.841 457.367 286.772 465.011 309.911 457.941L400.112 430.383C404.175 428.979 411.088 424.441 415.897 415.669L678.591 339.575C688.579 336.721 692.188 330.234 686.651 325.086L683.902 322.529C680.172 319.06 682.298 314.694 688.765 312.545C695.232 310.395 697.358 306.03 693.628 302.56L688.332 297.636C683.283 292.941 684.288 287.134 690.87 282.974L693.84 281.096C700.422 276.937 701.427 271.13 696.379 266.435L646.952 220.472C641.903 215.777 631.817 213.14 621.486 213.813L616.822 214.116C606.49 214.788 596.404 212.151 591.356 207.456L586.06 202.531C582.329 199.062 574.02 197.678 567.056 199.366C560.093 201.054 551.783 199.67 548.053 196.201L545.304 193.645Z" fill="url(#paint1_linear_4961_118984)" fill-opacity="0.2"/>
<path d="M421.683 398.714L550.3 364.251M536.854 367.855L665.471 333.392C683.23 328.634 685.888 315.606 671.41 304.294L664.052 298.546C660.352 295.655 654.752 293.492 648.898 292.694L622.62 289.112C619.108 288.633 615.748 287.336 613.527 285.601L557.652 241.947C555.299 240.108 554.517 238.006 555.561 236.327L562.772 224.733C564.165 222.493 563.122 219.691 559.984 217.239L554.528 212.976C545.802 206.158 532.322 201.215 518.571 199.788L517.006 199.626C509.498 198.847 503.654 201.113 503.318 204.933L502.571 213.413C502.286 216.651 499.314 219.269 494.387 220.619L450.001 232.781" stroke="white" stroke-width="2"/>
<path d="M537.017 362.462L431.2 392.617C428.554 393.331 424.992 392.944 422.117 391.783M537.017 362.462L538.186 362.146M537.017 362.462L649.205 332.595C652.83 331.63 653.382 328.979 650.437 326.678C647.011 324.001 647.34 320.905 651.199 319.523L659.467 316.561C663.61 315.077 663.964 311.753 660.285 308.879L645.686 297.473C643.368 295.662 639.814 294.334 636.15 293.91L619.898 292.028C616.234 291.604 612.68 290.275 610.362 288.465L550.186 241.45C547.739 239.539 547.001 237.347 548.23 235.643L549.993 233.196C551.416 231.221 550.561 228.682 547.725 226.466L534.693 216.284C529.311 212.079 519.586 210.107 512.972 211.879C508.897 212.971 506.603 215.21 506.769 217.932L506.835 219.027C506.956 221.002 505.305 222.63 502.364 223.435L449.003 238.041M537.017 362.462L535.844 362.774M423.003 387.516C425.209 388.613 428.206 389.037 430.362 388.456L640.568 331.328C643.215 330.623 643.607 328.678 641.442 326.986C637.299 323.749 637.702 320.013 642.372 318.375L652.76 314.73C655.265 313.852 655.481 311.848 653.259 310.111L641.312 300.778C639.108 299.056 635.731 297.793 632.262 297.395L616.185 295.547C612.716 295.148 609.339 293.885 607.135 292.163L543.191 242.205C541.2 240.65 540.382 238.887 540.953 237.385L543.088 231.773C543.617 230.383 542.859 228.75 541.015 227.309L529.291 218.149C526.253 215.775 520.783 214.657 517.074 215.651C514.789 216.263 513.507 217.523 513.61 219.057L513.79 221.737C513.915 223.604 512.368 225.14 509.602 225.896L448.003 242.518" stroke="white"/>
<path d="M536.183 281.199C537.971 280.686 540.717 281.32 542.315 282.614M536.183 281.199L535 251.281M536.183 281.199L436.5 309.783M542.315 282.614L567.999 303.412M542.315 282.614L541.5 252.782M469.928 331.29L441.572 308.328L440.166 288.282" stroke="white"/>
<path d="M593.748 296.067L431 342.734M496.284 324.014L441.664 279.783M426.5 368.946C432.257 370.822 438.549 371.322 443.29 369.962L618.94 319.595C620.729 319.082 620.883 317.617 619.284 316.323L540.317 252.376C538.718 251.082 535.972 250.448 534.184 250.961L442 277.394M620 316.782C621.667 318.282 624.2 321.582 621 322.782C617.8 323.982 502 356.948 444.5 373.282C440.251 374.42 432.127 374.315 425.5 372.323" stroke="white" stroke-width="2"/>
<defs>
<linearGradient id="paint0_linear_4961_118984" x1="315.667" y1="129.762" x2="441.281" y2="242.085" gradientUnits="userSpaceOnUse">
<stop stop-color="#D9D9D9"/>
<stop offset="1" stop-color="#737373" stop-opacity="0"/>
</linearGradient>
<linearGradient id="paint1_linear_4961_118984" x1="647.051" y1="260.85" x2="208.631" y2="287.206" gradientUnits="userSpaceOnUse">
<stop stop-color="#D9D9D9"/>
<stop offset="1" stop-color="#737373" stop-opacity="0"/>
</linearGradient>
</defs>
</svg>
