<svg width="167" height="79" viewBox="0 0 167 79" fill="none" xmlns="http://www.w3.org/2000/svg">
<g clip-path="url(#clip0_6162_153696)">
<path d="M167 7.9973L163.224 0.0078125L4 0L0 8H12.8639L167 7.9973Z" fill="#5B1D9A"/>
<path d="M151.816 45.9154C149.088 57.116 139.055 64.9989 127.527 64.999L39.763 64.9998C28.2899 64.9999 18.2895 57.1908 15.5083 46.0599L4.00001 1.35857e-06L163 8.39233e-05L151.816 45.9154Z" fill="url(#paint0_linear_6162_153696)"/>
<path d="M76.5 42.448C74.5773 42.448 72.9253 42.0373 71.544 41.216C70.1627 40.376 69.0987 39.1813 68.352 37.632C67.6053 36.0827 67.232 34.2347 67.232 32.088C67.232 29.9413 67.6053 28.0933 68.352 26.544C69.0987 24.976 70.1627 23.772 71.544 22.932C72.9253 22.092 74.5773 21.672 76.5 21.672C78.4413 21.672 80.1027 22.092 81.484 22.932C82.884 23.772 83.948 24.976 84.676 26.544C85.4227 28.0933 85.796 29.9413 85.796 32.088C85.796 34.2347 85.4227 36.0827 84.676 37.632C83.948 39.1813 82.884 40.376 81.484 41.216C80.1027 42.0373 78.4413 42.448 76.5 42.448ZM76.5 39.676C77.788 39.676 78.8893 39.3773 79.804 38.78C80.7373 38.1827 81.4467 37.324 81.932 36.204C82.4173 35.0653 82.66 33.6933 82.66 32.088C82.66 30.4827 82.4173 29.1107 81.932 27.972C81.4467 26.8333 80.7373 25.9653 79.804 25.368C78.8893 24.752 77.788 24.444 76.5 24.444C75.2307 24.444 74.1387 24.752 73.224 25.368C72.3093 25.9653 71.6 26.8333 71.096 27.972C70.6107 29.1107 70.368 30.4827 70.368 32.088C70.368 33.6933 70.6107 35.0653 71.096 36.204C71.6 37.324 72.3093 38.1827 73.224 38.78C74.1387 39.3773 75.2307 39.676 76.5 39.676ZM89.1273 46.2V27.104H91.9273L92.0113 30.296L91.6753 30.128C92.0487 29.0267 92.6647 28.196 93.5233 27.636C94.382 27.0573 95.3713 26.768 96.4913 26.768C97.9473 26.768 99.142 27.132 100.075 27.86C101.027 28.5693 101.727 29.512 102.175 30.688C102.642 31.864 102.875 33.152 102.875 34.552C102.875 35.952 102.642 37.24 102.175 38.416C101.727 39.592 101.027 40.544 100.075 41.272C99.142 41.9813 97.9473 42.336 96.4913 42.336C95.7447 42.336 95.0447 42.2053 94.3913 41.944C93.738 41.6827 93.178 41.3187 92.7113 40.852C92.2633 40.3667 91.946 39.7973 91.7593 39.144L92.0953 38.808V46.2H89.1273ZM95.9593 39.76C97.154 39.76 98.0873 39.3027 98.7593 38.388C99.45 37.4733 99.7953 36.1947 99.7953 34.552C99.7953 32.9093 99.45 31.6307 98.7593 30.716C98.0873 29.8013 97.154 29.344 95.9593 29.344C95.1753 29.344 94.494 29.54 93.9153 29.932C93.3367 30.3053 92.8887 30.884 92.5713 31.668C92.254 32.452 92.0953 33.4133 92.0953 34.552C92.0953 35.6907 92.2447 36.652 92.5433 37.436C92.8607 38.22 93.3087 38.808 93.8873 39.2C94.4847 39.5733 95.1753 39.76 95.9593 39.76ZM112.021 42.336C110.565 42.336 109.305 42.0187 108.241 41.384C107.196 40.7493 106.384 39.844 105.805 38.668C105.245 37.492 104.965 36.12 104.965 34.552C104.965 32.984 105.245 31.6213 105.805 30.464C106.384 29.288 107.196 28.3827 108.241 27.748C109.286 27.0947 110.518 26.768 111.937 26.768C113.281 26.768 114.466 27.0853 115.493 27.72C116.52 28.336 117.313 29.232 117.873 30.408C118.452 31.584 118.741 33.0027 118.741 34.664V35.42H108.045C108.12 36.876 108.502 37.968 109.193 38.696C109.902 39.424 110.854 39.788 112.049 39.788C112.926 39.788 113.654 39.5827 114.233 39.172C114.812 38.7613 115.213 38.2107 115.437 37.52L118.517 37.716C118.125 39.0973 117.35 40.2173 116.193 41.076C115.054 41.916 113.664 42.336 112.021 42.336ZM108.045 33.18H115.605C115.512 31.8547 115.129 30.8747 114.457 30.24C113.804 29.6053 112.964 29.288 111.937 29.288C110.873 29.288 109.996 29.624 109.305 30.296C108.633 30.9493 108.213 31.9107 108.045 33.18ZM121.748 42V27.104H124.464L124.576 31.08L124.212 30.884C124.38 29.9133 124.698 29.1293 125.164 28.532C125.631 27.9347 126.2 27.496 126.872 27.216C127.544 26.9173 128.272 26.768 129.056 26.768C130.176 26.768 131.1 27.02 131.828 27.524C132.575 28.0093 133.135 28.6813 133.508 29.54C133.9 30.38 134.096 31.3413 134.096 32.424V42H131.128V33.32C131.128 32.4427 131.035 31.7053 130.848 31.108C130.662 30.5107 130.354 30.0533 129.924 29.736C129.495 29.4187 128.935 29.26 128.244 29.26C127.199 29.26 126.35 29.6053 125.696 30.296C125.043 30.9867 124.716 31.9947 124.716 33.32V42H121.748Z" fill="white"/>
<path d="M39.8252 21.4648C38.5535 21.4648 37.668 21.4654 36.9795 21.5225C36.3051 21.5784 35.9191 21.6835 35.6279 21.834C35.0004 22.1584 34.4877 22.6781 34.165 23.3203C34.014 23.621 33.9109 24.0175 33.8555 24.7051C33.799 25.4056 33.7969 26.3054 33.7969 27.5938V36.4102C33.7969 37.6985 33.799 38.5983 33.8555 39.2988C33.9109 39.9864 34.014 40.3829 34.165 40.6836C34.4877 41.3258 35.0004 41.8455 35.6279 42.1699C35.9191 42.3204 36.3051 42.4255 36.9795 42.4814C37.668 42.5385 38.5535 42.5391 39.8252 42.5391H44.6826C45.9539 42.5391 46.839 42.5385 47.5273 42.4814C48.2017 42.4255 48.5867 42.3204 48.8779 42.1699C49.5058 41.8455 50.0191 41.3259 50.3418 40.6836C50.4928 40.3829 50.5969 39.9863 50.6523 39.2988C50.7088 38.5984 50.709 37.6987 50.709 36.4102V28.7539C50.709 28.2244 50.7019 28.1423 50.6865 28.0771C50.6665 27.9927 50.6339 27.9118 50.5898 27.8389C50.5564 27.7835 50.5052 27.7214 50.1357 27.3467L44.9033 22.04C44.5333 21.6647 44.4735 21.6148 44.4209 21.582C44.3508 21.5384 44.2742 21.5065 44.1953 21.4873C44.1374 21.4732 44.0625 21.4648 43.5391 21.4648H39.8252ZM45.3379 28.8906C45.7644 28.4358 46.4782 28.412 46.9336 28.8379C47.3889 29.2645 47.413 29.98 46.9863 30.4355L41.5215 36.2686C41.2933 36.5122 40.9683 36.6432 40.6348 36.625C40.3014 36.6067 39.9932 36.4415 39.793 36.1748H39.792L37.3633 32.9336C36.9891 32.4343 37.0904 31.7259 37.5898 31.3516C38.0892 30.9774 38.7967 31.0792 39.1709 31.5781L40.792 33.7402L45.3379 28.8906ZM52.9697 36.4102C52.9697 37.6616 52.9707 38.6673 52.9053 39.4795C52.8388 40.3048 52.6977 41.0296 52.3613 41.6992C51.8263 42.7639 50.9705 43.6333 49.915 44.1787C49.2496 44.5224 48.5297 44.6657 47.7129 44.7334C46.9097 44.7999 45.9158 44.7988 44.6826 44.7988H39.8252C38.5917 44.7988 37.5973 44.7999 36.7939 44.7334C35.9769 44.6657 35.2565 44.5227 34.5908 44.1787C33.5353 43.6332 32.6796 42.7641 32.1445 41.6992C31.8081 41.0295 31.668 40.3047 31.6016 39.4795C31.5362 38.6673 31.5371 37.6616 31.5371 36.4102V27.5938C31.5371 26.3423 31.5362 25.3366 31.6016 24.5244C31.668 23.6992 31.8081 22.9744 32.1445 22.3047C32.6796 21.2398 33.5353 20.3707 34.5908 19.8252C35.2565 19.4812 35.9769 19.3382 36.7939 19.2705C37.5973 19.204 38.5917 19.2051 39.8252 19.2051H43.8477C44.1495 19.2074 44.4416 19.2207 44.7305 19.291C45.0427 19.3671 45.3405 19.4927 45.6133 19.6621C45.9471 19.8696 46.2187 20.155 46.5127 20.4531L51.7461 25.7607C52.0406 26.0595 52.3211 26.3335 52.5244 26.6699C52.6903 26.9445 52.8128 27.2435 52.8867 27.5557C52.9549 27.8437 52.9674 28.1352 52.9697 28.4404V36.4102Z" fill="white" stroke="white" stroke-width="0.3" stroke-linecap="round" stroke-linejoin="round"/>
</g>
<defs>
<linearGradient id="paint0_linear_6162_153696" x1="75.1186" y1="5.46943" x2="75.1186" y2="-2.72314" gradientUnits="userSpaceOnUse">
<stop stop-color="#9C42F5"/>
<stop offset="1" stop-color="#603190"/>
</linearGradient>
<clipPath id="clip0_6162_153696">
<rect width="167" height="78.9999" fill="white" transform="translate(167 79) rotate(-180)"/>
</clipPath>
</defs>
</svg>
