<svg width="12" height="14" viewBox="0 0 12 14" fill="none" xmlns="http://www.w3.org/2000/svg">
<path d="M6.51367 7.811e-07C6.67428 0.00123148 6.82298 0.00809364 6.96826 0.0434578C7.12723 0.0821656 7.27901 0.146079 7.41797 0.232423C7.58689 0.337408 7.72485 0.482346 7.88477 0.644532L10.6885 3.48779C10.8486 3.6502 10.9908 3.78964 11.0938 3.95996C11.1783 4.09997 11.2406 4.25244 11.2783 4.41162C11.3127 4.55674 11.3196 4.70532 11.3208 4.86768V9.13623C11.3208 9.80812 11.3213 10.3432 11.2866 10.7744C11.2514 11.2116 11.1771 11.5879 11.0034 11.9336C10.7243 12.489 10.2783 12.9422 9.72803 13.2266C9.38477 13.4039 9.0112 13.4793 8.57861 13.5151C8.15232 13.5505 7.62363 13.5498 6.96143 13.5498H4.35938C3.69719 13.5498 3.16848 13.5504 2.74219 13.5151C2.3095 13.4793 1.9356 13.404 1.59229 13.2266C1.04202 12.9422 0.595977 12.4891 0.316895 11.9336C0.143243 11.5879 0.0693998 11.2116 0.0341802 10.7744C-0.000547323 10.3432 4.34934e-07 9.80813 5.19944e-07 9.13623V4.41358C4.34312e-07 3.74168 -0.000547338 3.20659 0.0341802 2.77539C0.0693998 2.3382 0.143243 1.96186 0.316895 1.61621C0.595977 1.06073 1.04202 0.607608 1.59229 0.323243C1.9356 0.14583 2.3095 0.0705224 2.74219 0.0346688C3.16848 -0.000638589 3.69719 7.80755e-07 4.35938 7.811e-07H6.51367ZM4.35938 1.04981C3.6795 1.04981 3.20153 1.05015 2.82861 1.08106C2.46207 1.11143 2.24354 1.16885 2.07422 1.25635C1.72276 1.43803 1.43577 1.72881 1.25537 2.08789C1.16786 2.26212 1.11114 2.48616 1.08106 2.85938C1.0505 3.23866 1.04981 3.72453 1.04981 4.41358V9.13623C1.04981 9.82528 1.0505 10.3111 1.08106 10.6904C1.11114 11.0636 1.16786 11.2877 1.25537 11.4619C1.43577 11.821 1.72276 12.1118 2.07422 12.2935C2.24354 12.381 2.46207 12.4384 2.82861 12.4688C3.20153 12.4997 3.6795 12.5 4.35938 12.5H6.96143C7.64123 12.5 8.11929 12.4997 8.49219 12.4688C8.85862 12.4384 9.0768 12.3809 9.24609 12.2935C9.59766 12.1118 9.88499 11.8211 10.0654 11.4619C10.1529 11.2877 10.2097 11.0636 10.2397 10.6904C10.2703 10.3111 10.2705 9.82528 10.2705 9.13623V5.03467C10.2705 4.75562 10.2673 4.70013 10.2563 4.65381C10.2437 4.60044 10.2228 4.5493 10.1948 4.50293C10.1708 4.46317 10.1351 4.42209 9.94043 4.22461L7.13721 1.38184C6.94194 1.18379 6.90212 1.14835 6.86377 1.12451C6.81898 1.09667 6.7703 1.07628 6.71973 1.06397C6.67699 1.05358 6.62535 1.04981 6.34912 1.04981H4.35938ZM7.37109 5.16309C7.56927 4.9516 7.90121 4.94065 8.11279 5.13867C8.32437 5.3369 8.33541 5.66927 8.13721 5.88086L5.20947 9.00586C5.10336 9.11912 4.95234 9.17989 4.79736 9.17139C4.64246 9.16287 4.49933 9.08603 4.40625 8.96192L3.10498 7.22559C2.9311 6.99358 2.97797 6.66462 3.20996 6.49072C3.44197 6.31682 3.77092 6.36418 3.94482 6.59619L4.87061 7.83106L7.37109 5.16309Z" fill="white"/>
</svg>
