<svg width="18" height="18" viewBox="0 0 18 18" fill="none" xmlns="http://www.w3.org/2000/svg">
<path d="M10.1836 0.871095C10.3763 0.872572 10.5548 0.880806 10.7291 0.923243C10.9199 0.969692 11.102 1.04639 11.2688 1.15C11.4715 1.27598 11.637 1.44991 11.8289 1.64453L15.1934 5.05645C15.3855 5.25134 15.5562 5.41866 15.6797 5.62305C15.7812 5.79106 15.8559 5.97402 15.9012 6.16504C15.9424 6.33918 15.9507 6.51748 15.9521 6.71231V11.8346C15.9521 12.6408 15.9528 13.283 15.9111 13.8004C15.8689 14.325 15.7797 14.7766 15.5713 15.1914C15.2364 15.8579 14.7011 16.4018 14.0408 16.743C13.6289 16.9558 13.1806 17.0462 12.6615 17.0893C12.15 17.1316 11.5155 17.1309 10.7209 17.1309H7.59844C6.80382 17.1309 6.16936 17.1316 5.65781 17.0893C5.13859 17.0462 4.68991 16.9559 4.27793 16.743C3.61761 16.4017 3.08236 15.858 2.74746 15.1914C2.53908 14.7766 2.45047 14.325 2.4082 13.8004C2.36653 13.2829 2.36719 12.6408 2.36719 11.8346V6.16738C2.36719 5.3611 2.36653 4.719 2.4082 4.20156C2.45047 3.67694 2.53908 3.22533 2.74746 2.81055C3.08236 2.14397 3.61761 1.60022 4.27793 1.25899C4.68991 1.04609 5.13859 0.955721 5.65781 0.912696C6.16936 0.870327 6.80382 0.871095 7.59844 0.871095H10.1836ZM7.59844 2.13086C6.78259 2.13086 6.20903 2.13128 5.76152 2.16836C5.32167 2.20481 5.05944 2.27371 4.85625 2.37871C4.43449 2.59673 4.09011 2.94566 3.87363 3.37656C3.76862 3.58564 3.70055 3.85448 3.66445 4.30234C3.62779 4.75749 3.62695 5.34053 3.62695 6.16738V11.8346C3.62695 12.6614 3.62779 13.2445 3.66445 13.6996C3.70055 14.1475 3.76862 14.4163 3.87363 14.6254C4.09011 15.0563 4.43449 15.4052 4.85625 15.6232C5.05944 15.7282 5.32167 15.7971 5.76152 15.8336C6.20903 15.8707 6.78259 15.8711 7.59844 15.8711H10.7209C11.5367 15.8711 12.1103 15.8707 12.5578 15.8336C12.9975 15.7971 13.2593 15.7282 13.4625 15.6232C13.8844 15.4052 14.2292 15.0564 14.4457 14.6254C14.5507 14.4163 14.6188 14.1474 14.6549 13.6996C14.6915 13.2445 14.6918 12.6614 14.6918 11.8346V6.9127C14.6918 6.57784 14.6879 6.51125 14.6748 6.45567C14.6596 6.39162 14.6346 6.33025 14.601 6.27461C14.5721 6.2269 14.5294 6.1776 14.2957 5.94063L10.9318 2.5293C10.6975 2.29165 10.6497 2.24912 10.6037 2.22051C10.55 2.1871 10.4915 2.16263 10.4309 2.14785C10.3796 2.13538 10.3176 2.13086 9.98613 2.13086H7.59844ZM11.2125 7.0668C11.4503 6.81302 11.8486 6.79987 12.1025 7.0375C12.3564 7.27538 12.3697 7.67422 12.1318 7.92813L8.61856 11.6781C8.49121 11.814 8.30999 11.887 8.12402 11.8768C7.93814 11.8665 7.76638 11.7743 7.65469 11.6254L6.09316 9.5418C5.88451 9.26339 5.94075 8.86864 6.21914 8.65996C6.49755 8.45128 6.8923 8.50811 7.10098 8.78652L8.21191 10.2684L11.2125 7.0668Z" fill="#D2B2FF"/>
</svg>
