<svg width="52" height="52" viewBox="0 0 52 52" fill="none" xmlns="http://www.w3.org/2000/svg">
<rect width="52" height="52" rx="16" fill="#9C42F5"/>
<path d="M23.5107 13.9404C22.0579 13.9404 21.0457 13.9416 20.2578 14.0068C19.4855 14.0708 19.0415 14.1905 18.7051 14.3643C17.9838 14.7371 17.3942 15.3343 17.0234 16.0723C16.8491 16.4195 16.7304 16.876 16.667 17.6631C16.6024 18.4648 16.6006 19.4946 16.6006 20.9668V31.041C16.6006 32.5132 16.6024 33.543 16.667 34.3447C16.7304 35.1318 16.8491 35.5883 17.0234 35.9355C17.3942 36.6735 17.9838 37.2707 18.7051 37.6436C19.0415 37.8173 19.4855 37.937 20.2578 38.001C21.0457 38.0663 22.0579 38.0674 23.5107 38.0674H29.0615C30.5143 38.0674 31.5276 38.0663 32.3154 38.001C33.0874 37.937 33.5308 37.8174 33.8672 37.6436C34.5888 37.2706 35.179 36.6737 35.5498 35.9355L35.6123 35.7998C35.7527 35.4691 35.8507 35.0334 35.9062 34.3447C35.9708 33.5431 35.9717 32.5134 35.9717 31.041V22.291C35.9717 21.6882 35.9636 21.5911 35.9453 21.5137C35.9219 21.4148 35.8827 21.3198 35.8311 21.2344V21.2334C35.7912 21.1678 35.7292 21.0935 35.3105 20.6689L29.3301 14.6045C28.9073 14.1757 28.8373 14.1162 28.7744 14.0771C28.6923 14.0261 28.6031 13.9893 28.5107 13.9668C28.4414 13.9499 28.3533 13.9404 27.7559 13.9404H23.5107ZM29.8262 22.4629C30.3055 21.9513 31.1092 21.9243 31.6211 22.4033V22.4043C32.1324 22.8838 32.1591 23.6874 31.6797 24.1992L25.4336 30.8662C25.1771 31.1398 24.8122 31.287 24.4375 31.2666C24.0627 31.246 23.7163 31.0597 23.4912 30.7598L20.7148 27.0557C20.2943 26.4945 20.4075 25.6981 20.9688 25.2773C21.5301 24.8566 22.3265 24.9712 22.7471 25.5322H22.7461L24.6143 28.0234L29.8262 22.4629ZM38.5117 31.041C38.5117 32.4717 38.5131 33.6206 38.4385 34.5479C38.3626 35.4896 38.2019 36.3145 37.8193 37.0762C37.2099 38.289 36.2353 39.2791 35.0332 39.9004C34.2761 40.2915 33.4567 40.455 32.5244 40.5322C31.6074 40.6082 30.4717 40.6074 29.0615 40.6074H23.5107C22.1008 40.6074 20.9658 40.6082 20.0488 40.5322C19.1163 40.455 18.2963 40.2917 17.5391 39.9004C16.3368 39.2791 15.3624 38.2892 14.7529 37.0762C14.3703 36.3144 14.2106 35.4895 14.1348 34.5479C14.0601 33.6206 14.0605 32.4718 14.0605 31.041V20.9668C14.0605 19.536 14.0601 18.3872 14.1348 17.46C14.2106 16.5183 14.3703 15.6934 14.7529 14.9316C15.3624 13.7186 16.3368 12.7287 17.5391 12.1074C18.2963 11.7161 19.1163 11.5529 20.0488 11.4756C20.9658 11.3997 22.1008 11.4004 23.5107 11.4004H28.1084C28.453 11.403 28.7848 11.4183 29.1123 11.498C29.4669 11.5844 29.8055 11.7265 30.1152 11.9189C30.4941 12.1544 30.8021 12.4789 31.1387 12.8203L37.1201 18.8857C37.4573 19.2277 37.7751 19.5392 38.0059 19.9209C38.1944 20.2329 38.333 20.573 38.417 20.9277C38.4943 21.2544 38.5091 21.5852 38.5117 21.9336V31.041Z" fill="white" stroke="white" stroke-width="0.3" stroke-linecap="round" stroke-linejoin="round"/>
</svg>
