<svg width="31" height="184" viewBox="0 0 31 184" fill="none" xmlns="http://www.w3.org/2000/svg">
<g clip-path="url(#clip0_7029_407604)">
<path d="M8.67056 173.105C3.38272 170.643 0.00141943 165.339 0.00136446 159.506L8.27069e-05 23.4943C2.77379e-05 17.6613 3.38145 12.3572 8.66951 9.89545L30.9999 -0.500017L31 183.5L8.67056 173.105Z" fill="url(#paint0_linear_7029_407604)"/>
<path d="M20.724 94.75C20.724 95.7113 20.5187 96.5373 20.108 97.228C19.688 97.9187 19.0907 98.4507 18.316 98.824C17.5413 99.1973 16.6173 99.384 15.544 99.384C14.4707 99.384 13.5467 99.1973 12.772 98.824C11.988 98.4507 11.386 97.9187 10.966 97.228C10.546 96.5373 10.336 95.7113 10.336 94.75C10.336 93.7793 10.546 92.9487 10.966 92.258C11.386 91.558 11.988 91.026 12.772 90.662C13.5467 90.2887 14.4707 90.102 15.544 90.102C16.6173 90.102 17.5413 90.2887 18.316 90.662C19.0907 91.026 19.688 91.558 20.108 92.258C20.5187 92.9487 20.724 93.7793 20.724 94.75ZM19.338 94.75C19.338 94.106 19.1887 93.5553 18.89 93.098C18.5913 92.6313 18.162 92.2767 17.602 92.034C17.0327 91.7913 16.3467 91.67 15.544 91.67C14.7413 91.67 14.0553 91.7913 13.486 92.034C12.9167 92.2767 12.4827 92.6313 12.184 93.098C11.876 93.5553 11.722 94.106 11.722 94.75C11.722 95.3847 11.876 95.9307 12.184 96.388C12.4827 96.8453 12.9167 97.2 13.486 97.452C14.0553 97.6947 14.7413 97.816 15.544 97.816C16.3467 97.816 17.0327 97.6947 17.602 97.452C18.162 97.2 18.5913 96.8453 18.89 96.388C19.1887 95.9307 19.338 95.3847 19.338 94.75ZM22.6 88.4363L13.052 88.4363L13.052 87.0363L14.648 86.9943L14.564 87.1623C14.0133 86.9757 13.598 86.6677 13.318 86.2383C13.0287 85.809 12.884 85.3143 12.884 84.7543C12.884 84.0263 13.066 83.429 13.43 82.9623C13.7847 82.4863 14.256 82.1363 14.844 81.9123C15.432 81.679 16.076 81.5623 16.776 81.5623C17.476 81.5623 18.12 81.679 18.708 81.9123C19.296 82.1363 19.772 82.4863 20.136 82.9623C20.4907 83.429 20.668 84.0263 20.668 84.7543C20.668 85.1277 20.6027 85.4777 20.472 85.8043C20.3413 86.131 20.1593 86.411 19.926 86.6443C19.6833 86.8683 19.3987 87.027 19.072 87.1203L18.904 86.9523L22.6 86.9523L22.6 88.4363ZM19.38 85.0203C19.38 84.423 19.1513 83.9563 18.694 83.6203C18.2367 83.275 17.5973 83.1023 16.776 83.1023C15.9547 83.1023 15.3153 83.275 14.858 83.6203C14.4007 83.9563 14.172 84.423 14.172 85.0203C14.172 85.4123 14.27 85.753 14.466 86.0423C14.6527 86.3317 14.942 86.5557 15.334 86.7143C15.726 86.873 16.2067 86.9523 16.776 86.9523C17.3453 86.9523 17.826 86.8777 18.218 86.7283C18.61 86.5697 18.904 86.3457 19.1 86.0563C19.2867 85.7577 19.38 85.4123 19.38 85.0203ZM20.668 76.9895C20.668 77.7175 20.5093 78.3475 20.192 78.8795C19.8747 79.4021 19.422 79.8081 18.834 80.0975C18.246 80.3775 17.56 80.5175 16.776 80.5175C15.992 80.5175 15.3107 80.3775 14.732 80.0975C14.144 79.8081 13.6913 79.4021 13.374 78.8795C13.0473 78.3568 12.884 77.7408 12.884 77.0315C12.884 76.3595 13.0427 75.7668 13.36 75.2535C13.668 74.7401 14.116 74.3435 14.704 74.0635C15.292 73.7741 16.0013 73.6295 16.832 73.6295L17.21 73.6295L17.21 78.9775C17.938 78.9401 18.484 78.7488 18.848 78.4035C19.212 78.0488 19.394 77.5728 19.394 76.9755C19.394 76.5368 19.2913 76.1728 19.086 75.8835C18.8807 75.5941 18.6053 75.3935 18.26 75.2815L18.358 73.7415C19.0487 73.9375 19.6087 74.3248 20.038 74.9035C20.458 75.4728 20.668 76.1681 20.668 76.9895ZM16.09 78.9775L16.09 75.1975C15.4273 75.2441 14.9373 75.4355 14.62 75.7715C14.3027 76.0981 14.144 76.5181 14.144 77.0315C14.144 77.5635 14.312 78.0021 14.648 78.3475C14.9747 78.6835 15.4553 78.8935 16.09 78.9775ZM20.5 72.1258L13.052 72.1258L13.052 70.7678L15.04 70.7118L14.942 70.8938C14.4567 70.8098 14.0647 70.6511 13.766 70.4178C13.4673 70.1844 13.248 69.8998 13.108 69.5638C12.9587 69.2278 12.884 68.8638 12.884 68.4718C12.884 67.9118 13.01 67.4498 13.262 67.0858C13.5047 66.7124 13.8407 66.4324 14.27 66.2458C14.69 66.0498 15.1707 65.9518 15.712 65.9518L20.5 65.9518L20.5 67.4358L16.16 67.4358C15.7213 67.4358 15.3527 67.4824 15.054 67.5758C14.7553 67.6691 14.5267 67.8231 14.368 68.0378C14.2093 68.2524 14.13 68.5324 14.13 68.8778C14.13 69.4004 14.3027 69.8251 14.648 70.1518C14.9933 70.4784 15.4973 70.6418 16.16 70.6418L20.5 70.6418L20.5 72.1258Z" fill="white"/>
<path d="M16.4902 104.727C16.6508 104.728 16.7995 104.735 16.9448 104.77C17.1038 104.809 17.2556 104.873 17.3945 104.959C17.5635 105.064 17.7014 105.209 17.8613 105.371L20.665 108.214C20.8252 108.377 20.9674 108.516 21.0703 108.687C21.1549 108.827 21.2172 108.979 21.2549 109.138C21.2892 109.283 21.2962 109.432 21.2974 109.594V113.863C21.2974 114.535 21.2979 115.07 21.2632 115.501C21.228 115.938 21.1536 116.315 20.98 116.66C20.7009 117.216 20.2548 117.669 19.7046 117.953C19.3613 118.13 18.9878 118.206 18.5552 118.242C18.1289 118.277 17.6002 118.276 16.938 118.276H14.3359C13.6738 118.276 13.145 118.277 12.7188 118.242C12.2861 118.206 11.9122 118.131 11.5688 117.953C11.0186 117.669 10.5725 117.216 10.2935 116.66C10.1198 116.315 10.046 115.938 10.0107 115.501C9.97602 115.07 9.97656 114.535 9.97656 113.863V109.14C9.97656 108.468 9.97602 107.933 10.0107 107.502C10.046 107.065 10.1198 106.688 10.2935 106.343C10.5725 105.787 11.0186 105.334 11.5688 105.05C11.9122 104.872 12.2861 104.797 12.7188 104.761C13.145 104.726 13.6738 104.727 14.3359 104.727H16.4902ZM14.3359 105.776C13.6561 105.776 13.1781 105.777 12.8052 105.808C12.4386 105.838 12.2201 105.895 12.0508 105.983C11.6993 106.165 11.4123 106.455 11.2319 106.814C11.1444 106.989 11.0877 107.213 11.0576 107.586C11.0271 107.965 11.0264 108.451 11.0264 109.14V113.863C11.0264 114.552 11.0271 115.038 11.0576 115.417C11.0877 115.79 11.1444 116.014 11.2319 116.188C11.4123 116.548 11.6993 116.838 12.0508 117.02C12.2201 117.108 12.4386 117.165 12.8052 117.195C13.1781 117.226 13.6561 117.227 14.3359 117.227H16.938C17.6178 117.227 18.0959 117.226 18.4688 117.195C18.8352 117.165 19.0534 117.107 19.2227 117.02C19.5742 116.838 19.8616 116.548 20.042 116.188C20.1295 116.014 20.1862 115.79 20.2163 115.417C20.2469 115.038 20.2471 114.552 20.2471 113.863V109.761C20.2471 109.482 20.2438 109.427 20.2329 109.38C20.2203 109.327 20.1994 109.276 20.1714 109.229C20.1473 109.19 20.1117 109.149 19.917 108.951L17.1138 106.108C16.9185 105.91 16.8787 105.875 16.8403 105.851C16.7955 105.823 16.7469 105.803 16.6963 105.791C16.6535 105.78 16.6019 105.776 16.3257 105.776H14.3359ZM17.3477 109.89C17.5458 109.678 17.8778 109.667 18.0894 109.865C18.3009 110.063 18.312 110.396 18.1138 110.607L15.186 113.732C15.0799 113.846 14.9289 113.906 14.7739 113.898C14.619 113.889 14.4759 113.813 14.3828 113.688L13.0815 111.952C12.9077 111.72 12.9545 111.391 13.1865 111.217C13.4185 111.043 13.7475 111.091 13.9214 111.323L14.8472 112.558L17.3477 109.89Z" fill="white"/>
</g>
<defs>
<linearGradient id="paint0_linear_7029_407604" x1="17.2884" y1="129.382" x2="33.9807" y2="129.382" gradientUnits="userSpaceOnUse">
<stop stop-color="#9C42F5"/>
<stop offset="1" stop-color="#603190"/>
</linearGradient>
<clipPath id="clip0_7029_407604">
<rect width="184" height="31" fill="white" transform="translate(0 184) rotate(-90)"/>
</clipPath>
</defs>
</svg>
