<svg width="130" height="130" viewBox="0 0 130 130" fill="none" xmlns="http://www.w3.org/2000/svg">
<path d="M108.331 10.832C117.305 10.832 124.581 18.1074 124.581 27.082V109.483C124.581 111.838 122.67 113.749 120.315 113.749H9.68022L9.24381 113.728C7.09272 113.509 5.41406 111.691 5.41406 109.483V27.082C5.41406 18.1074 12.6894 10.832 21.6641 10.832H108.331ZM21.6641 13.5404C14.4185 13.5404 8.50299 19.2309 8.14091 26.3864L8.1224 27.082V106.774C8.1224 107.634 8.82044 108.332 9.68022 108.332H13.5391V33.4588C13.5391 27.8744 13.5385 25.0813 14.7954 23.0301C15.4987 21.8823 16.4644 20.9167 17.6121 20.2133C19.1505 19.2707 21.1061 19.0345 24.3433 18.9755L28.0408 18.957H101.954C107.538 18.957 110.331 18.9565 112.383 20.2133C113.53 20.9167 114.496 21.8823 115.199 23.0301C116.456 25.0813 116.456 27.8744 116.456 33.4588V108.332H120.315C121.174 108.332 121.872 107.634 121.872 106.774V27.082C121.872 19.6032 115.81 13.5404 108.331 13.5404H21.6641ZM28.0408 24.3737C25.1436 24.3737 23.3499 24.3788 22.0132 24.5059C20.7622 24.625 20.4753 24.8109 20.4421 24.8313C20.0232 25.088 19.67 25.4412 19.4133 25.8601C19.3929 25.8933 19.207 26.1801 19.088 27.4312C18.9609 28.7678 18.9557 30.5616 18.9557 33.4588V108.332H62.2891V24.3737H28.0408ZM67.7057 108.332H111.039V33.4588C111.039 30.5616 111.034 28.7678 110.907 27.4312C110.788 26.1801 110.602 25.8933 110.581 25.8601C110.325 25.4412 109.972 25.088 109.553 24.8313C109.52 24.8109 109.233 24.625 107.982 24.5059C106.645 24.3788 104.851 24.3737 101.954 24.3737H67.7057V108.332ZM50.1016 75.832C50.8494 75.832 51.4557 76.4383 51.4557 77.1862V88.0195C51.4557 88.7674 50.8494 89.3737 50.1016 89.3737C49.3537 89.3737 48.7474 88.7674 48.7474 88.0195V77.1862C48.7474 76.4383 49.3537 75.832 50.1016 75.832ZM79.8932 75.832C80.6411 75.832 81.2474 76.4383 81.2474 77.1862V88.0195C81.2474 88.7674 80.6411 89.3737 79.8932 89.3737C79.1453 89.3737 78.5391 88.7674 78.5391 88.0195V77.1862C78.5391 76.4383 79.1453 75.832 79.8932 75.832ZM48.7474 37.9154C51.7389 37.9154 54.1641 40.3405 54.1641 43.332V56.8737C54.1641 59.6786 52.032 61.9843 49.3002 62.2613L48.7474 62.2904H35.2057L34.653 62.2613C32.1029 62.0027 30.0767 59.9765 29.8182 57.4265L29.7891 56.8737V43.332C29.7891 40.3405 32.2142 37.9154 35.2057 37.9154H48.7474ZM94.7891 37.9154C97.7806 37.9154 100.206 40.3405 100.206 43.332V56.8737C100.206 59.6786 98.0737 61.9843 95.3418 62.2613L94.7891 62.2904H81.2474L80.6946 62.2613C78.1446 62.0027 76.1183 59.9765 75.8598 57.4265L75.8307 56.8737V43.332C75.8307 40.3405 78.2559 37.9154 81.2474 37.9154H94.7891ZM35.2057 41.3272C34.0986 41.3272 33.2009 42.2249 33.2009 43.332V56.8737C33.2009 57.9808 34.0986 58.8785 35.2057 58.8785H48.7474C49.8545 58.8785 50.7522 57.9808 50.7522 56.8737V43.332C50.7522 42.2249 49.8545 41.3272 48.7474 41.3272H35.2057ZM81.2474 41.3272C80.1403 41.3272 79.2426 42.2249 79.2426 43.332V56.8737C79.2426 57.9808 80.1403 58.8785 81.2474 58.8785H94.7891C95.8962 58.8785 96.7939 57.9808 96.7939 56.8737V43.332C96.7939 42.2249 95.8962 41.3272 94.7891 41.3272H81.2474Z" fill="white"/>
</svg>
