<svg width="1039" height="490" viewBox="0 0 1039 490" fill="none" xmlns="http://www.w3.org/2000/svg">
<path d="M533.452 339.191L481.416 356.622L348.967 204.716C346.734 202.155 343.215 201.126 339.954 202.078L214.574 238.709L172.279 187.698C171.595 187.015 170.382 185.186 170.997 183.341C171.766 181.034 174.073 179.239 177.662 177.958C181.251 176.676 340.69 132.33 341.715 132.074C342.741 131.818 345.815 131.305 347.354 132.074C347.952 132.245 349.507 132.997 350.943 134.637C352.737 136.688 532.939 330.989 535.759 334.065C538.015 336.525 535.161 338.508 533.452 339.191Z" fill="#D2B2FF" fill-opacity="0.4"/>
<path d="M404.001 182.829L515.638 150.513C518.849 149.583 522.308 150.572 524.543 153.058L655.463 298.691C659.873 297.175 694.632 285.675 707.277 281.493C709.415 280.786 710.109 278.129 708.561 276.495C676.004 242.132 547.544 107.814 526.01 85.2999C524.059 83.2608 521.244 82.553 518.521 83.2965L358.066 127.123C356.216 127.629 355.556 129.912 356.851 131.327L404.001 182.829Z" fill="#D9D9D9" fill-opacity="0.07"/>
<path d="M577.799 132.332L657.969 108.815C667.762 105.943 678.338 108.799 685.352 116.212L809.524 247.425L854.564 231.923C859.219 230.321 860.59 224.4 857.114 220.915L687.811 51.1512C680.652 43.9727 670.191 41.1902 660.411 43.8634L532.208 78.9087C530.337 79.42 529.69 81.7427 531.026 83.1478L577.799 132.332Z" fill="#D9D9D9" fill-opacity="0.07"/>
<path d="M689.044 44.6722C685.274 40.724 677.278 38 668.025 38C664.346 38 660.866 38.4305 657.771 39.1972L177.708 173.088C169.118 175.536 163.305 180.243 163.305 185.648C163.305 187.551 164.026 189.369 165.336 191.031L329.665 389.735C334.535 396.012 346.586 400.455 360.681 400.455C367.618 400.455 374.059 399.379 379.393 397.538L853.097 238.051C860.407 235.295 865.145 230.875 865.145 225.892C865.145 223.601 864.143 221.43 862.351 219.484L689.044 44.6722Z" stroke="white" stroke-width="1.538"/>
<path d="M864.888 227.942L855.409 296.361C854.941 306.762 848.228 315.846 838.424 319.348L371.793 485.286C355.076 491.257 336.414 485.795 325.554 471.753L176.424 280.333C172.882 275.753 170.754 270.239 170.301 264.466L163.305 186.16" stroke="white" stroke-width="1.538"/>
<path d="M549.632 333.89L655.721 298.691L524.292 153.047C522.054 150.567 518.596 149.584 515.389 150.517L404.258 182.828L542.101 331.949C544.013 334.018 546.958 334.777 549.632 333.89Z" fill="#D9D9D9" fill-opacity="0.07"/>
<path d="M721.536 276.264L809.522 247.424L686.031 116.421C679.065 109.031 668.559 106.142 658.795 108.932L577.797 132.075L714.117 274.409C716.027 276.403 718.912 277.125 721.536 276.264Z" fill="#D9D9D9" fill-opacity="0.07"/>
<path d="M404.258 183.087L515.821 150.374C517.551 149.867 519.351 149.887 521.014 150.374M655.721 298.436L525.286 153.067C524.117 151.763 522.63 150.848 521.014 150.374M522.171 83.6289L521.014 150.374" stroke="white" stroke-width="1.02533"/>
<path d="M214.312 238.196L339.461 201.639C341.191 201.132 342.991 201.152 344.654 201.639M481.668 356.109L348.926 204.332C347.757 203.028 346.27 202.113 344.654 201.639M346.068 132.074L344.654 201.639" stroke="white" stroke-width="1.02533"/>
<path d="M578.055 132.585C601.979 125.493 651.674 110.797 659.056 108.746C662.468 107.798 665.985 107.551 669.309 107.863M809.267 247.679C768.852 204.615 687.048 117.513 683.151 113.616C680.082 110.547 674.976 108.394 669.309 107.863M673.411 43.8945L669.309 107.863" stroke="white" stroke-width="1.02533"/>
<path d="M374.264 399.43L369.906 485.814" stroke="white" stroke-width="1.02533"/>
<path d="M328.899 389.176L327.617 474.022" stroke="white" stroke-width="1.02533"/>
<path d="M853.096 238.195L842.586 317.659" stroke="white" stroke-width="1.02533"/>
<path d="M461.003 191.635L454.383 184.02L457.767 182.985C460.159 182.254 461.951 182.574 463.191 184.001C463.947 184.87 463.784 185.652 462.759 186.115C464.261 185.805 465.632 186.214 466.508 187.223C467.72 188.617 467.159 189.752 464.93 190.434L461.003 191.635ZM461.566 190.146L464.039 189.389C465.249 189.02 465.615 188.392 464.962 187.641C464.3 186.879 463.216 186.681 462.007 187.051L459.533 187.807L461.566 190.146ZM458.676 186.821L460.646 186.218C461.937 185.823 462.336 185.213 461.72 184.505C461.077 183.765 460.057 183.601 458.726 184.009L456.755 184.611L458.676 186.821Z" fill="white"/>
<path d="M464.959 183.23L466.277 182.827L467.25 183.887C466.874 183.079 467.12 182.569 468.044 182.287L468.737 182.075L469.548 183.008L468.841 183.224C467.713 183.569 467.639 184.216 468.46 185.16L471.341 188.474L469.9 188.914L464.959 183.23Z" fill="white"/>
<path d="M477.71 186.69C475.63 187.325 473.264 186.583 471.689 184.77C470.113 182.957 470.465 181.383 472.544 180.748C474.61 180.116 476.976 180.859 478.552 182.672C480.128 184.484 479.775 186.058 477.71 186.69ZM473.184 184.313C474.265 185.557 475.629 186.077 476.852 185.703C478.075 185.329 478.138 184.373 477.057 183.129C475.975 181.885 474.625 181.361 473.402 181.734C472.179 182.108 472.102 183.069 473.184 184.313Z" fill="white"/>
<path d="M475.654 177.516L477.095 177.076L481.216 181.816L481.967 178.03L483.829 177.461L483.072 180.706L488.893 183.108L487.221 183.619L482.732 181.72L482.409 183.189L483.715 184.691L482.274 185.131L475.654 177.516Z" fill="white"/>
<path d="M486.611 180.208C485.044 178.406 485.374 176.825 487.467 176.186C489.193 175.658 491.439 176.125 493.26 178.121L493.591 178.481L488.413 180.064C489.431 181.097 490.665 181.507 491.793 181.162C492.499 180.946 492.863 180.414 492.673 179.78L494.256 179.405C494.776 180.617 494.1 181.679 492.632 182.128C490.539 182.767 488.177 182.01 486.611 180.208ZM487.703 179.209L491.332 178.099C490.227 177.066 489.121 176.902 488.306 177.151C487.259 177.471 487.055 178.226 487.703 179.209Z" fill="white"/>
<path d="M492.095 174.933L493.414 174.53L494.284 175.472C493.989 174.599 494.552 174.019 495.531 173.72C497.148 173.226 498.769 173.884 499.851 175.128L503.03 178.785L501.59 179.226L498.718 175.922C497.842 174.914 496.972 174.488 495.966 174.795C494.92 175.115 494.729 175.866 495.606 176.874L498.477 180.177L497.037 180.618L492.095 174.933Z" fill="white"/>
<path d="M481.674 356.364C452.281 366.19 391.395 386.51 382.986 389.176C372.477 392.508 345.305 397.891 334.026 384.049C325.003 372.975 250.291 282.541 214.062 238.708L345.049 200.258L481.674 356.364ZM253.163 248.598C251.165 246.928 248.595 246.249 246.222 246.975C243.068 247.939 242.888 250.522 245.028 253.073C247.169 255.624 250.704 257.04 253.858 256.076C256.4 255.299 256.922 253.583 255.73 251.543L253.908 252.008C254.698 253.384 254.309 254.412 252.824 254.866C250.558 255.559 248.266 254.364 246.743 252.549C245.21 250.721 244.944 248.892 247.226 248.194C248.634 247.764 250.17 248.126 251.479 249.205L253.163 248.598ZM264.197 248.584C262.458 246.511 259.816 245.655 257.488 246.366C255.146 247.082 254.726 248.875 256.465 250.948C258.204 253.021 260.847 253.877 263.189 253.161C265.517 252.45 265.937 250.657 264.197 248.584ZM258.435 247.495C259.813 247.074 261.32 247.677 262.514 249.1C263.707 250.522 263.621 251.612 262.243 252.033C260.865 252.454 259.343 251.856 258.149 250.434C256.956 249.011 257.057 247.917 258.435 247.495ZM271.577 245.156C270.383 243.734 268.575 242.977 266.753 243.534C265.651 243.871 265.01 244.529 265.327 245.526L264.365 244.449L262.88 244.903L268.335 251.403L269.958 250.907L266.788 247.13C265.821 245.977 266.046 245.122 267.225 244.762C268.358 244.415 269.327 244.905 270.294 246.058L273.464 249.835L275.087 249.339L271.577 245.156ZM270.886 240.605L272.121 242.078L270.881 242.457L271.766 243.512L273.006 243.133L276.012 246.714C277.031 247.928 278.418 248.321 279.979 247.844L281.327 247.432L280.432 246.364L279.253 246.725C278.625 246.917 278.077 246.745 277.635 246.218L274.629 242.637L276.772 241.98L275.888 240.926L273.744 241.581L272.509 240.109L270.886 240.605ZM286 241.117C284.508 239.339 282.474 238.727 280.27 239.401C278.402 239.973 277.774 241.151 278.554 242.562L280.311 242.132C279.908 241.331 280.206 240.746 281.155 240.456C282.334 240.096 283.364 240.428 284.254 241.466L282.235 242.546C280.604 243.399 279.713 244.149 280.804 245.449C281.771 246.602 283.644 246.908 285.282 246.407C286.63 245.995 287.091 245.191 286.934 244.453C287.782 245.35 288.859 245.144 289.584 244.907L290.089 244.752L289.235 243.734L288.913 243.833C288.592 243.931 288.305 243.864 288.027 243.533L286 241.117ZM285.189 242.536C286.363 243.934 285.99 244.912 284.791 245.294C283.719 245.622 282.869 245.388 282.468 244.909C281.778 244.088 282.61 243.726 283.594 243.225L285.118 242.45L285.189 242.536ZM299.046 236.759C297.718 235.177 295.998 234.593 294.359 235.094C293.134 235.468 292.693 236.204 293.057 237.188C291.984 236.437 290.73 236.203 289.566 236.559C288.479 236.891 288.023 237.586 288.273 238.48L287.348 237.423L285.862 237.877L291.317 244.377L292.939 243.881L289.771 240.104C288.824 238.975 288.937 238.124 290.085 237.772C290.988 237.497 292.054 237.987 293.001 239.115L296.171 242.894L297.702 242.425L294.532 238.647C293.585 237.519 293.683 236.672 294.847 236.316C295.765 236.036 296.795 236.507 297.763 237.659L300.933 241.438L302.556 240.941L299.046 236.759ZM299.091 233.832L304.545 240.333L306.168 239.837L300.714 233.336L299.091 233.832ZM311.192 233.045C309.999 231.622 308.189 230.866 306.367 231.423C305.265 231.76 304.624 232.418 304.941 233.415L303.979 232.338L302.494 232.791L307.949 239.292L309.572 238.796L306.402 235.019C305.435 233.866 305.66 233.01 306.839 232.649C307.972 232.303 308.942 232.793 309.909 233.946L313.078 237.724L314.701 237.228L311.192 233.045ZM319.803 230.782C318.311 229.004 316.278 228.393 314.073 229.066C312.205 229.638 311.578 230.816 312.357 232.227L314.113 231.798C313.71 230.996 314.009 230.411 314.958 230.121C316.137 229.761 317.167 230.094 318.057 231.132L316.038 232.211C314.407 233.064 313.516 233.814 314.606 235.114C315.574 236.267 317.447 236.573 319.085 236.072C320.432 235.66 320.894 234.857 320.736 234.119C321.585 235.015 322.662 234.809 323.387 234.572L323.893 234.418L323.038 233.399L322.717 233.498C322.395 233.596 322.108 233.53 321.83 233.199L319.803 230.782ZM318.993 232.201C320.166 233.599 319.793 234.577 318.594 234.959C317.522 235.287 316.672 235.053 316.271 234.575C315.581 233.753 316.413 233.391 317.396 232.89L318.921 232.115L318.993 232.201ZM318.675 225.995L319.909 227.467L318.669 227.847L319.555 228.901L320.795 228.522L323.8 232.104C324.819 233.318 326.207 233.71 327.769 233.232L329.115 232.821L328.22 231.754L327.041 232.114C326.413 232.306 325.865 232.135 325.423 231.607L322.418 228.025L324.562 227.37L323.676 226.315L321.532 226.971L320.298 225.499L318.675 225.995ZM297.218 231.646L298.257 232.885L299.957 232.365L298.917 231.127L297.218 231.646ZM334.578 227.005C332.567 224.723 330.054 224.181 328.109 224.775C325.752 225.496 325.358 227.297 327.087 229.357C328.816 231.418 331.454 232.291 333.812 231.57C335.465 231.065 336.241 229.856 335.676 228.473L333.894 228.895C334.097 229.618 333.681 230.223 332.885 230.467C331.614 230.855 330.236 230.382 329.11 229.201L334.943 227.417L334.578 227.005ZM336.995 219.47L339.578 222.548C338.594 222.063 337.315 221.961 336.259 222.284C334.146 222.93 333.93 224.645 335.68 226.729C337.429 228.814 339.847 229.725 341.96 229.079C343.077 228.737 343.677 228.03 343.581 227.228L344.409 228.146L345.925 227.682L338.618 218.974L336.995 219.47ZM329.036 225.879C329.955 225.598 331.193 225.79 332.416 226.973L328.328 228.223C327.616 227.099 327.857 226.239 329.036 225.879ZM337.578 223.236C338.91 222.829 340.504 223.468 341.697 224.891C342.87 226.289 342.769 227.429 341.438 227.836C340.136 228.234 338.538 227.613 337.364 226.215C336.17 224.792 336.261 223.639 337.578 223.236Z" fill="#D2B2FF"/>
<path d="M599.422 143.48L600.891 143.031L607.779 150.418L606.31 150.867L599.422 143.48Z" fill="white"/>
<path d="M604.362 144.377L605.681 143.973L606.586 144.887C606.264 144.036 606.817 143.466 607.796 143.166C609.415 142.671 611.069 143.302 612.195 144.509L615.503 148.057L614.061 148.497L611.073 145.293C610.161 144.315 609.272 143.905 608.265 144.213C607.218 144.533 607.046 145.268 607.958 146.246L610.946 149.45L609.504 149.891L604.362 144.377Z" fill="white"/>
<path d="M618.428 142.563C617.628 141.912 616.542 141.722 615.726 141.972C614.502 142.346 614.45 143.285 615.576 144.491C616.701 145.698 618.091 146.196 619.316 145.821C620.173 145.559 620.482 144.916 619.914 144.101L621.482 143.702C622.468 145.058 621.868 146.271 620.208 146.778C618.113 147.419 615.709 146.697 614.079 144.949C612.449 143.201 612.739 141.655 614.834 141.015C616.439 140.524 618.521 140.863 619.866 142.043L618.428 142.563Z" fill="white"/>
<path d="M627.67 144.497C625.589 145.134 623.18 144.426 621.541 142.668C619.901 140.909 620.214 139.37 622.295 138.734C624.363 138.101 626.771 138.809 628.411 140.567C630.05 142.326 629.738 143.865 627.67 144.497ZM623.037 142.21C624.163 143.417 625.553 143.914 626.777 143.54C628.002 143.166 628.04 142.232 626.914 141.025C625.789 139.818 624.412 139.316 623.188 139.691C621.964 140.065 621.912 141.003 623.037 142.21Z" fill="white"/>
<path d="M627.093 137.427L628.412 137.024L629.283 137.921C629.026 137.157 629.411 136.558 630.377 136.263C631.411 135.947 632.547 136.134 633.539 136.767C633.177 135.928 633.547 135.294 634.635 134.961C636.091 134.516 637.66 134.999 638.911 136.341L642.22 139.889L640.778 140.329L637.79 137.125C636.878 136.147 635.934 135.754 635.118 136.003C634.084 136.319 634.027 137.045 634.919 138.003L637.907 141.207L636.547 141.623L633.559 138.418C632.666 137.461 631.689 137.051 630.887 137.297C629.867 137.609 629.796 138.339 630.688 139.296L633.676 142.5L632.234 142.941L627.093 137.427Z" fill="white"/>
<path d="M645.19 140.986L638.593 133.911L639.94 133.5L640.747 134.309C640.569 133.575 641.02 133.009 642.054 132.693C644.163 132.048 646.398 133.076 647.843 134.626C649.289 136.176 649.538 137.812 647.429 138.456C646.45 138.756 645.41 138.672 644.459 138.215L646.632 140.545L645.19 140.986ZM642.483 136.265C643.405 137.253 644.873 138.021 646.206 137.614C647.566 137.198 647.274 136.097 646.333 135.088C645.402 134.089 643.944 133.332 642.597 133.743C641.264 134.151 641.562 135.276 642.483 136.265Z" fill="white"/>
<path d="M647.949 133.177C647.196 131.976 647.718 130.961 649.378 130.454C651.337 129.855 653.188 130.358 654.594 131.867L656.506 133.916C656.768 134.197 657.028 134.251 657.314 134.164L657.599 134.077L658.405 134.94L657.956 135.078C657.312 135.288 656.35 135.475 655.555 134.715C655.723 135.346 655.338 136.038 654.141 136.404C652.685 136.849 650.989 136.606 650.077 135.628C649.049 134.525 649.823 133.874 651.259 133.127L653.036 132.183C652.198 131.303 651.26 131.028 650.212 131.348C649.369 131.606 649.122 132.11 649.513 132.792L647.949 133.177ZM651.554 135.149C651.933 135.555 652.706 135.747 653.658 135.456C654.723 135.117 655.023 134.276 653.917 133.09L653.849 133.017L652.506 133.695C651.639 134.134 650.904 134.452 651.554 135.149Z" fill="white"/>
<path d="M653.406 127.778L654.848 127.337L656.012 128.586L657.917 128.003L658.751 128.898L656.847 129.48L659.68 132.518C660.097 132.966 660.596 133.107 661.154 132.937L662.201 132.616L663.045 133.521L661.848 133.887C660.461 134.312 659.198 133.989 658.238 132.959L655.405 129.921L654.303 130.258L653.469 129.363L654.57 129.026L653.406 127.778Z" fill="white"/>
<path d="M659.131 127.632L660.573 127.191L665.715 132.705L664.273 133.146L659.131 127.632ZM658.348 126.829L657.368 125.778L658.878 125.316L659.858 126.367L658.348 126.829Z" fill="white"/>
<path d="M660.197 124.9L661.639 124.459L664.074 127.07C663.988 126.415 664.521 125.824 665.459 125.537C667.337 124.963 669.545 125.719 671.194 127.487C672.843 129.256 672.711 130.727 670.834 131.301C669.841 131.604 668.668 131.508 667.736 131.071L668.432 131.875L667.085 132.286L660.197 124.9ZM665.848 129.122C666.954 130.308 668.4 130.828 669.584 130.466C670.74 130.113 670.803 129.131 669.697 127.945C668.572 126.738 667.116 126.207 665.946 126.565C664.762 126.927 664.722 127.915 665.848 129.122Z" fill="white"/>
<path d="M668.23 122.444L669.672 122.003L675.367 128.11C675.6 128.36 675.893 128.43 676.206 128.335L676.791 128.156L677.635 129.061L676.737 129.335C675.771 129.631 674.672 129.352 673.974 128.603L668.23 122.444Z" fill="white"/>
<path d="M675.775 126.087C674.145 124.339 674.434 122.793 676.529 122.153C678.257 121.624 680.537 122.064 682.429 123.999L682.772 124.348L677.589 125.933C678.645 126.934 679.901 127.325 681.031 126.98C681.738 126.764 682.09 126.242 681.881 125.624L683.469 125.245C684.027 126.425 683.373 127.467 681.904 127.916C679.809 128.557 677.405 127.835 675.775 126.087ZM676.85 125.103L680.482 123.992C679.339 122.991 678.218 122.839 677.402 123.089C676.355 123.409 676.169 124.148 676.85 125.103Z" fill="white"/>
<path d="M595.859 -159.997C594.19 -163.976 588.339 -166.968 580.276 -167.391C577.071 -167.559 573.862 -167.302 570.852 -166.704L97.7713 -59.5158C89.2848 -57.5466 82.2928 -53.2732 80.0807 -48.0616C79.3015 -46.226 79.1861 -44.4409 79.6469 -42.7781L148.455 152.631C153.931 167.33 166.389 170.452 181.627 166.13L659.644 33.9677C667.141 31.6445 669.679 29.158 671.718 24.353C672.656 22.144 672.484 17.932 671.718 15.9739L595.859 -159.997Z" stroke="url(#paint0_linear_4245_156047)" stroke-width="1.538"/>
<path d="M236.466 88.0055C274.615 111.289 301.636 145.566 313.64 185.289L331.281 156.217C332.503 154.203 335.124 153.566 337.134 154.793C339.144 156.02 339.784 158.647 338.562 160.661L314.713 199.964L313.35 202.493L303.52 196.598L272.26 176.775C270.279 175.518 269.667 172.904 270.883 170.898C272.115 168.868 274.757 168.225 276.784 169.462L305.199 186.805C293.697 149.618 268.21 117.369 232.043 95.2941C155.466 48.5559 56.0719 71.6557 7.93689 146.604C6.66416 148.586 4.042 149.237 2.03152 148.01C0.0210399 146.783 -0.615889 144.142 0.654363 142.158C51.237 63.1809 155.873 38.8161 236.466 88.0055Z" fill="#4FE2CE"/>
<defs>
<linearGradient id="paint0_linear_4245_156047" x1="384.67" y1="110.141" x2="366.539" y2="9.33639" gradientUnits="userSpaceOnUse">
<stop stop-color="white"/>
<stop offset="1" stop-color="#999999" stop-opacity="0"/>
</linearGradient>
</defs>
</svg>
