<svg width="805" height="532" viewBox="0 0 805 532" fill="none" xmlns="http://www.w3.org/2000/svg">
<path d="M454.897 381.984L402.862 399.415L270.412 247.509C268.179 244.948 264.661 243.919 261.399 244.871L136.019 281.502L93.7239 230.491C93.0404 229.808 91.8271 227.979 92.4423 226.134C93.2113 223.827 95.5187 222.032 99.1073 220.751C102.696 219.469 262.135 175.123 263.16 174.867C264.186 174.611 267.26 174.098 268.799 174.867C269.398 175.038 270.953 175.79 272.388 177.43C274.182 179.481 454.385 373.782 457.204 376.858C459.46 379.318 456.606 381.301 454.897 381.984Z" fill="#D9D9D9" fill-opacity="0.07"/>
<path d="M325.446 225.622L437.083 193.306C440.294 192.376 443.753 193.365 445.988 195.851L576.909 341.484C581.318 339.968 616.078 328.468 628.723 324.286C630.86 323.579 631.554 320.922 630.006 319.288C597.45 284.925 468.989 150.607 447.455 128.093C445.505 126.054 442.689 125.346 439.967 126.089L279.512 169.916C277.662 170.422 277.001 172.705 278.296 174.12L325.446 225.622Z" fill="#D2B2FF" fill-opacity="0.4"/>
<path d="M499.244 175.125L579.414 151.608C589.207 148.736 599.783 151.592 606.798 159.005L730.969 290.218L776.01 274.716C780.664 273.114 782.035 267.193 778.56 263.708L609.257 93.9442C602.098 86.7657 591.636 83.9831 581.857 86.6564L453.653 121.702C451.783 122.213 451.135 124.536 452.471 125.941L499.244 175.125Z" fill="#D9D9D9" fill-opacity="0.07"/>
<path d="M610.489 87.4652C606.719 83.5169 598.724 80.793 589.47 80.793C585.791 80.793 582.311 81.2235 579.217 81.9902L99.1532 215.881C90.5636 218.329 84.75 223.036 84.75 228.441C84.75 230.344 85.4712 232.161 86.781 233.824L251.11 432.528C255.981 438.805 268.032 443.248 282.126 443.248C289.063 443.248 295.505 442.172 300.839 440.331L774.542 280.844C781.852 278.088 786.59 273.668 786.59 268.685C786.59 266.394 785.589 264.223 783.796 262.277L610.489 87.4652Z" stroke="white" stroke-width="1.538"/>
<path d="M786.334 270.735L776.854 339.154C776.386 349.555 769.674 358.639 759.869 362.141L293.238 528.079C276.521 534.05 257.86 528.588 247 514.546L97.8691 323.126C94.3269 318.546 92.199 313.031 91.7466 307.259L84.75 228.953" stroke="white" stroke-width="1.538"/>
<path d="M304.431 431.968C312.839 429.302 373.727 408.984 403.12 399.158L266.494 243.051L135.508 281.501C171.736 325.334 246.449 415.768 255.472 426.842C266.75 440.684 293.922 435.301 304.431 431.968Z" fill="#D9D9D9" fill-opacity="0.07"/>
<path d="M642.981 319.057L730.967 290.217L607.476 159.213C600.51 151.824 590.005 148.935 580.24 151.725L499.242 174.868L635.562 317.202C637.472 319.196 640.357 319.918 642.981 319.057Z" fill="#D9D9D9" fill-opacity="0.07"/>
<path d="M325.703 225.879L437.266 193.167C438.996 192.66 440.796 192.68 442.459 193.167M577.166 341.229L446.731 195.86C445.562 194.556 444.075 193.641 442.459 193.167M443.616 126.422L442.459 193.167" stroke="white" stroke-width="1.02533"/>
<path d="M135.758 280.989L260.907 244.432C262.637 243.925 264.436 243.945 266.1 244.432M403.113 398.902L270.372 247.125C269.202 245.821 267.715 244.906 266.1 244.432M267.513 174.867L266.1 244.432" stroke="white" stroke-width="1.02533"/>
<path d="M499.5 175.378C523.424 168.286 573.119 153.59 580.501 151.539C583.913 150.591 587.43 150.344 590.755 150.656M730.712 290.472C690.297 247.408 608.493 160.306 604.597 156.409C601.527 153.34 596.421 151.187 590.755 150.656M594.856 86.6875L590.755 150.656" stroke="white" stroke-width="1.02533"/>
<path d="M295.709 442.223L291.352 528.607" stroke="white" stroke-width="1.02533"/>
<path d="M250.344 431.969L249.062 516.815" stroke="white" stroke-width="1.02533"/>
<path d="M774.541 280.988L764.031 360.452" stroke="white" stroke-width="1.02533"/>
<path fill-rule="evenodd" clip-rule="evenodd" d="M436.834 193.312C440.041 192.379 443.5 193.362 445.737 195.842L577.166 341.485L471.077 376.685C468.404 377.572 465.458 376.813 463.546 374.744L325.703 225.623L436.834 193.312ZM384.641 226.794C383.401 225.368 381.608 225.047 379.216 225.778L375.832 226.813L382.451 234.428L386.379 233.227C388.608 232.545 389.169 231.41 387.957 230.016C387.081 229.008 385.71 228.598 384.208 228.908C385.233 228.445 385.396 227.663 384.641 226.794ZM383.456 229.844C384.665 229.474 385.749 229.672 386.411 230.434C387.064 231.184 386.698 231.813 385.488 232.183L383.015 232.939L380.982 230.601L383.456 229.844ZM389.492 225.08C388.568 225.363 388.324 225.872 388.699 226.68L387.726 225.62L386.407 226.023L391.349 231.707L392.79 231.267L389.908 227.953C389.088 227.009 389.162 226.362 390.29 226.017L390.997 225.801L390.186 224.868L389.492 225.08ZM400.001 225.465C398.425 223.652 396.059 222.91 393.993 223.541C391.914 224.177 391.562 225.75 393.138 227.563C394.713 229.375 397.079 230.118 399.158 229.482C401.224 228.851 401.576 227.277 400.001 225.465ZM380.175 226.802C381.506 226.395 382.526 226.558 383.169 227.298C383.784 228.006 383.386 228.616 382.095 229.011L380.125 229.613L378.204 227.404L380.175 226.802ZM394.852 224.527C396.075 224.154 397.424 224.678 398.506 225.922C399.587 227.166 399.524 228.122 398.301 228.496C397.078 228.87 395.714 228.35 394.633 227.106C393.551 225.861 393.628 224.901 394.852 224.527ZM397.104 220.31L403.723 227.924L405.163 227.483L403.858 225.982L404.181 224.513L408.67 226.412L410.342 225.9L404.521 223.499L405.277 220.254L403.416 220.823L402.665 224.609L398.544 219.869L397.104 220.31ZM414.709 220.914C412.888 218.918 410.641 218.451 408.915 218.979C406.822 219.619 406.493 221.199 408.06 223.001C409.626 224.803 411.988 225.561 414.081 224.921C415.549 224.472 416.225 223.409 415.705 222.197L414.121 222.573C414.311 223.207 413.948 223.739 413.241 223.955C412.113 224.3 410.879 223.89 409.861 222.857L415.039 221.274L414.709 220.914ZM421.3 217.921C420.218 216.677 418.597 216.018 416.979 216.513C416.001 216.812 415.438 217.392 415.733 218.266L414.862 217.323L413.544 217.727L418.485 223.411L419.927 222.971L417.055 219.667C416.178 218.659 416.369 217.908 417.415 217.588C418.421 217.28 419.291 217.708 420.167 218.716L423.039 222.019L424.479 221.578L421.3 217.921ZM409.755 219.944C410.57 219.695 411.677 219.859 412.781 220.893L409.152 222.002C408.504 221.019 408.708 220.264 409.755 219.944Z" fill="#D2B2FF"/>
<path d="M177.171 294.337C178.363 296.377 177.841 298.093 175.299 298.87C172.145 299.834 168.61 298.419 166.469 295.867C164.328 293.316 164.509 290.734 167.663 289.769C170.036 289.044 172.606 289.722 174.604 291.392L172.92 291.999C171.611 290.92 170.075 290.558 168.666 290.988C166.385 291.686 166.651 293.516 168.184 295.343C169.707 297.158 171.999 298.353 174.265 297.66C175.75 297.206 176.138 296.178 175.349 294.802L177.171 294.337Z" fill="white"/>
<path d="M184.631 295.955C182.288 296.672 179.645 295.815 177.906 293.742C176.167 291.67 176.586 289.877 178.929 289.161C181.256 288.449 183.899 289.306 185.638 291.378C187.378 293.451 186.958 295.244 184.631 295.955ZM179.59 293.227C180.784 294.65 182.306 295.248 183.684 294.827C185.062 294.406 185.148 293.316 183.954 291.893C182.76 290.471 181.254 289.868 179.876 290.289C178.498 290.71 178.396 291.805 179.59 293.227Z" fill="white"/>
<path d="M184.321 287.697L185.806 287.243L186.768 288.321C186.451 287.323 187.091 286.665 188.194 286.328C190.016 285.771 191.825 286.528 193.018 287.951L196.528 292.133L194.905 292.629L191.735 288.852C190.768 287.699 189.799 287.209 188.666 287.555C187.487 287.916 187.261 288.771 188.229 289.924L191.399 293.701L189.776 294.198L184.321 287.697Z" fill="white"/>
<path d="M192.327 283.4L193.95 282.904L195.185 284.376L197.328 283.72L198.214 284.775L196.07 285.43L199.075 289.012C199.518 289.539 200.066 289.711 200.693 289.519L201.872 289.158L202.768 290.225L201.42 290.637C199.859 291.115 198.471 290.722 197.452 289.508L194.447 285.927L193.207 286.306L192.322 285.251L193.562 284.872L192.327 283.4Z" fill="white"/>
<path d="M199.995 285.355C199.215 283.945 199.843 282.767 201.711 282.195C203.916 281.521 205.949 282.133 207.441 283.911L209.468 286.328C209.746 286.659 210.033 286.725 210.354 286.627L210.676 286.529L211.53 287.547L211.025 287.701C210.3 287.938 209.223 288.144 208.374 287.248C208.532 287.986 208.071 288.789 206.723 289.201C205.085 289.702 203.212 289.396 202.245 288.243C201.154 286.943 202.044 286.193 203.676 285.34L205.694 284.26C204.804 283.222 203.775 282.89 202.596 283.25C201.647 283.541 201.348 284.125 201.751 284.926L199.995 285.355ZM203.909 287.704C204.31 288.182 205.16 288.415 206.232 288.088C207.431 287.706 207.804 286.729 206.631 285.33L206.559 285.244L205.034 286.019C204.05 286.52 203.219 286.882 203.909 287.704Z" fill="white"/>
<path d="M207.303 280.671L208.788 280.217L209.714 281.274C209.464 280.38 209.92 279.686 211.008 279.353C212.171 278.997 213.425 279.231 214.498 279.981C214.134 278.998 214.575 278.262 215.8 277.888C217.438 277.387 219.159 277.971 220.487 279.553L223.996 283.735L222.373 284.231L219.204 280.454C218.236 279.301 217.206 278.83 216.287 279.111C215.124 279.466 215.026 280.313 215.973 281.441L219.143 285.219L217.612 285.687L214.442 281.91C213.495 280.781 212.429 280.29 211.525 280.567C210.377 280.918 210.264 281.769 211.211 282.897L214.381 286.675L212.758 287.171L207.303 280.671Z" fill="white"/>
<path d="M220.531 276.626L222.154 276.13L227.609 282.631L225.986 283.127L220.531 276.626ZM219.698 275.679L218.658 274.44L220.358 273.921L221.397 275.16L219.698 275.679Z" fill="white"/>
<path d="M223.935 275.586L225.421 275.132L226.383 276.209C226.065 275.212 226.706 274.554 227.808 274.217C229.63 273.66 231.439 274.417 232.633 275.839L236.142 280.022L234.519 280.518L231.35 276.74C230.382 275.587 229.413 275.098 228.28 275.444C227.101 275.805 226.876 276.659 227.843 277.812L231.013 281.59L229.39 282.086L223.935 275.586Z" fill="white"/>
<path d="M233.798 275.021C233.018 273.61 233.646 272.432 235.514 271.861C237.719 271.187 239.752 271.798 241.244 273.577L243.271 275.993C243.549 276.324 243.836 276.391 244.157 276.292L244.479 276.194L245.333 277.212L244.828 277.366C244.103 277.603 243.026 277.81 242.177 276.913C242.335 277.651 241.874 278.455 240.526 278.866C238.888 279.367 237.015 279.061 236.048 277.909C234.957 276.608 235.847 275.858 237.479 275.005L239.497 273.926C238.607 272.888 237.578 272.555 236.399 272.916C235.449 273.206 235.151 273.79 235.554 274.592L233.798 275.021ZM237.711 277.369C238.113 277.847 238.963 278.081 240.035 277.753C241.234 277.371 241.607 276.394 240.434 274.996L240.362 274.91L238.837 275.684C237.853 276.185 237.022 276.547 237.711 277.369Z" fill="white"/>
<path d="M240.115 268.79L241.738 268.293L242.973 269.765L245.117 269.11L246.002 270.165L243.859 270.82L246.864 274.401C247.306 274.929 247.854 275.1 248.482 274.908L249.661 274.548L250.556 275.615L249.209 276.027C247.647 276.504 246.26 276.112 245.241 274.898L242.236 271.316L240.995 271.695L240.11 270.641L241.35 270.261L240.115 268.79Z" fill="white"/>
<path d="M248.527 272.151C246.798 270.091 247.192 268.29 249.55 267.569C251.495 266.975 254.008 267.517 256.019 269.799L256.385 270.211L250.551 271.995C251.677 273.176 253.055 273.649 254.326 273.261C255.122 273.017 255.538 272.412 255.334 271.688L257.116 271.267C257.681 272.651 256.906 273.859 255.252 274.364C252.894 275.085 250.256 274.212 248.527 272.151ZM249.769 271.017L253.857 269.767C252.634 268.584 251.395 268.392 250.477 268.673C249.298 269.034 249.057 269.893 249.769 271.017Z" fill="white"/>
<path d="M260.059 261.768L267.366 270.476L265.85 270.939L265.022 270.021C265.118 270.824 264.519 271.531 263.401 271.873C261.288 272.519 258.87 271.609 257.12 269.524C255.371 267.439 255.586 265.724 257.699 265.078C258.756 264.755 260.035 264.857 261.019 265.342L258.436 262.264L260.059 261.768ZM258.805 269.009C259.978 270.407 261.576 271.028 262.878 270.63C264.21 270.223 264.311 269.083 263.138 267.684C261.944 266.262 260.351 265.624 259.019 266.031C257.702 266.434 257.611 267.586 258.805 269.009Z" fill="white"/>
<path d="M520.867 186.273L522.336 185.824L529.225 193.211L527.755 193.66L520.867 186.273Z" fill="white"/>
<path d="M525.807 187.17L527.127 186.766L528.031 187.68C527.71 186.829 528.262 186.259 529.241 185.959C530.86 185.464 532.515 186.095 533.64 187.302L536.948 190.85L535.506 191.29L532.518 188.086C531.606 187.108 530.717 186.698 529.71 187.006C528.663 187.326 528.491 188.061 529.403 189.038L532.391 192.243L530.949 192.684L525.807 187.17Z" fill="white"/>
<path d="M539.873 185.356C539.073 184.705 537.988 184.515 537.171 184.765C535.947 185.139 535.896 186.078 537.021 187.284C538.146 188.491 539.537 188.989 540.761 188.614C541.618 188.352 541.928 187.709 541.359 186.894L542.928 186.495C543.913 187.851 543.313 189.064 541.654 189.571C539.559 190.212 537.154 189.49 535.524 187.742C533.895 185.994 534.184 184.448 536.279 183.808C537.884 183.317 539.966 183.656 541.311 184.836L539.873 185.356Z" fill="white"/>
<path d="M549.115 187.29C547.034 187.927 544.626 187.219 542.986 185.461C541.347 183.702 541.659 182.163 543.741 181.526C545.808 180.894 548.217 181.602 549.856 183.36C551.496 185.118 551.183 186.658 549.115 187.29ZM544.483 185.003C545.608 186.21 546.998 186.707 548.223 186.333C549.447 185.959 549.485 185.025 548.36 183.818C547.234 182.611 545.858 182.109 544.633 182.484C543.409 182.858 543.357 183.796 544.483 185.003Z" fill="white"/>
<path d="M548.538 180.22L549.857 179.817L550.729 180.714C550.471 179.95 550.857 179.351 551.822 179.056C552.856 178.74 553.993 178.927 554.985 179.56C554.622 178.721 554.992 178.087 556.08 177.754C557.536 177.309 559.105 177.792 560.357 179.134L563.665 182.681L562.223 183.122L559.235 179.918C558.323 178.94 557.379 178.547 556.563 178.796C555.529 179.112 555.472 179.838 556.364 180.796L559.353 184L557.992 184.416L555.004 181.211C554.111 180.254 553.135 179.844 552.332 180.09C551.312 180.402 551.241 181.132 552.134 182.089L555.122 185.293L553.68 185.734L548.538 180.22Z" fill="white"/>
<path d="M566.635 183.779L560.038 176.704L561.385 176.292L562.192 177.102C562.014 176.367 562.466 175.802 563.5 175.486C565.608 174.841 567.843 175.869 569.289 177.419C570.734 178.969 570.983 180.605 568.874 181.249C567.895 181.549 566.856 181.465 565.904 181.008L568.077 183.338L566.635 183.779ZM563.929 179.058C564.85 180.046 566.318 180.814 567.651 180.406C569.012 179.991 568.72 178.89 567.779 177.881C566.847 176.882 565.389 176.125 564.042 176.536C562.709 176.944 563.007 178.069 563.929 179.058Z" fill="white"/>
<path d="M569.394 175.97C568.642 174.769 569.164 173.754 570.823 173.246C572.782 172.648 574.633 173.151 576.04 174.66L577.951 176.709C578.213 176.99 578.473 177.044 578.759 176.957L579.045 176.87L579.85 177.733L579.401 177.871C578.758 178.081 577.796 178.268 577 177.508C577.168 178.139 576.783 178.831 575.586 179.197C574.13 179.642 572.435 179.399 571.523 178.421C570.494 177.318 571.268 176.667 572.705 175.92L574.481 174.976C573.643 174.096 572.705 173.821 571.658 174.141C570.814 174.399 570.567 174.903 570.959 175.585L569.394 175.97ZM573 177.942C573.378 178.348 574.151 178.54 575.103 178.249C576.168 177.91 576.468 177.069 575.362 175.883L575.294 175.81L573.951 176.488C573.084 176.927 572.35 177.245 573 177.942Z" fill="white"/>
<path d="M574.852 170.571L576.294 170.13L577.458 171.379L579.362 170.796L580.197 171.691L578.292 172.273L581.125 175.311C581.542 175.759 582.041 175.9 582.599 175.73L583.647 175.409L584.491 176.314L583.293 176.68C581.906 177.105 580.643 176.782 579.683 175.752L576.85 172.714L575.748 173.051L574.914 172.156L576.016 171.819L574.852 170.571Z" fill="white"/>
<path d="M580.577 170.425L582.019 169.984L587.161 175.498L585.719 175.939L580.577 170.425ZM579.793 169.622L578.813 168.571L580.323 168.109L581.303 169.16L579.793 169.622Z" fill="white"/>
<path d="M581.642 167.693L583.084 167.252L585.52 169.863C585.433 169.208 585.966 168.617 586.905 168.33C588.782 167.756 590.99 168.511 592.639 170.28C594.288 172.049 594.157 173.52 592.279 174.094C591.286 174.397 590.113 174.301 589.181 173.864L589.877 174.668L588.531 175.079L581.642 167.693ZM587.293 171.915C588.399 173.101 589.846 173.621 591.029 173.259C592.185 172.906 592.249 171.924 591.143 170.738C590.017 169.531 588.561 169 587.391 169.358C586.207 169.72 586.168 170.708 587.293 171.915Z" fill="white"/>
<path d="M589.675 165.237L591.117 164.796L596.812 170.903C597.045 171.152 597.338 171.223 597.651 171.128L598.236 170.949L599.08 171.854L598.183 172.128C597.217 172.424 596.117 172.145 595.419 171.396L589.675 165.237Z" fill="white"/>
<path d="M597.22 168.88C595.59 167.132 595.879 165.586 597.974 164.946C599.702 164.417 601.982 164.857 603.874 166.792L604.218 167.141L599.035 168.726C600.09 169.727 601.347 170.118 602.476 169.773C603.183 169.557 603.536 169.034 603.326 168.417L604.914 168.038C605.472 169.218 604.818 170.26 603.349 170.709C601.254 171.35 598.85 170.628 597.22 168.88ZM598.295 167.896L601.928 166.785C600.784 165.784 599.664 165.632 598.847 165.882C597.8 166.202 597.615 166.941 598.295 167.896Z" fill="white"/>
<path d="M517.304 -117.204C515.636 -121.183 509.784 -124.175 501.721 -124.598C498.516 -124.766 495.308 -124.509 492.297 -123.911L19.2166 -16.7228C10.7302 -14.7537 3.73815 -10.4802 1.52596 -5.26865C0.746779 -3.43301 0.631437 -1.64791 1.09218 0.0148735L69.9003 195.424C75.3766 210.123 87.8343 213.244 103.073 208.923L581.09 76.7607C588.586 74.4375 591.124 71.9509 593.164 67.1459C594.101 64.937 593.929 60.725 593.164 58.7668L517.304 -117.204Z" stroke="url(#paint0_linear_4245_155986)" stroke-width="1.538"/>
<path d="M374.457 73.2631C415.8 97.2793 444.708 132.071 457.031 172.019L476.893 143.437C478.331 141.367 481.262 140.716 483.441 141.982C485.62 143.247 486.221 145.951 484.783 148.02L457.896 186.711L456.348 189.213L445.693 183.13L411.684 162.618C409.62 161.373 409.069 158.785 410.447 156.804C411.84 154.798 414.681 154.167 416.792 155.394L447.741 173.372C435.916 135.969 408.648 103.234 369.452 80.465C286.516 32.2876 177.112 53.4063 122.701 127.297C121.204 129.33 118.27 129.996 116.091 128.73C113.912 127.464 113.314 124.746 114.808 122.711C171.989 44.8397 287.168 22.5575 374.457 73.2631Z" fill="#4FE2CE"/>
<defs>
<linearGradient id="paint0_linear_4245_155986" x1="306.115" y1="152.934" x2="287.985" y2="52.1294" gradientUnits="userSpaceOnUse">
<stop stop-color="white"/>
<stop offset="1" stop-color="#999999" stop-opacity="0"/>
</linearGradient>
</defs>
</svg>
