<svg width="788" height="511" viewBox="0 0 788 511" fill="none" xmlns="http://www.w3.org/2000/svg">
<path d="M454.897 361.691L402.862 379.122L270.412 227.216C268.179 224.655 264.661 223.626 261.399 224.578L136.019 261.209L93.7239 210.198C93.0404 209.515 91.8271 207.686 92.4423 205.841C93.2113 203.534 95.5187 201.739 99.1073 200.458C102.696 199.176 262.135 154.83 263.16 154.574C264.186 154.318 267.26 153.805 268.799 154.574C269.398 154.745 270.953 155.497 272.388 157.137C274.182 159.188 454.385 353.489 457.204 356.565C459.46 359.025 456.606 361.008 454.897 361.691Z" fill="#D9D9D9" fill-opacity="0.07"/>
<path d="M325.446 205.329L437.083 173.013C440.294 172.083 443.753 173.072 445.988 175.558L576.909 321.191C581.318 319.675 616.078 308.175 628.723 303.993C630.86 303.286 631.554 300.629 630.006 298.995C597.45 264.632 468.989 130.314 447.455 107.8C445.505 105.761 442.689 105.053 439.967 105.796L279.512 149.623C277.662 150.129 277.001 152.412 278.296 153.827L325.446 205.329Z" fill="#D9D9D9" fill-opacity="0.07"/>
<path d="M499.244 154.832L579.414 131.315C589.207 128.443 599.783 131.299 606.798 138.712L730.969 269.925L776.01 254.423C780.664 252.821 782.035 246.9 778.56 243.415L609.257 73.6512C602.098 66.4727 591.636 63.6902 581.857 66.3634L453.653 101.409C451.783 101.92 451.135 104.243 452.471 105.648L499.244 154.832Z" fill="#D2B2FF" fill-opacity="0.4"/>
<path d="M610.489 67.1722C606.719 63.224 598.724 60.5 589.47 60.5C585.791 60.5 582.311 60.9305 579.217 61.6972L99.1532 195.588C90.5636 198.036 84.75 202.743 84.75 208.148C84.75 210.051 85.4712 211.869 86.781 213.531L251.11 412.235C255.981 418.512 268.032 422.955 282.126 422.955C289.063 422.955 295.505 421.879 300.839 420.038L774.542 260.551C781.852 257.795 786.59 253.375 786.59 248.392C786.59 246.101 785.589 243.93 783.796 241.984L610.489 67.1722Z" stroke="white" stroke-width="1.538"/>
<path d="M786.334 250.442L776.854 318.861C776.386 329.262 769.674 338.346 759.869 341.848L293.238 507.786C276.521 513.757 257.86 508.295 247 494.253L97.8691 302.833C94.3269 298.253 92.199 292.739 91.7466 286.966L84.75 208.66" stroke="white" stroke-width="1.538"/>
<path d="M304.431 411.675C312.839 409.009 373.727 388.691 403.12 378.865L266.494 222.758L135.508 261.208C171.736 305.041 246.449 395.475 255.472 406.549C266.75 420.391 293.922 415.008 304.431 411.675Z" fill="#D9D9D9" fill-opacity="0.07"/>
<path d="M471.077 356.39L577.166 321.191L445.737 175.547C443.5 173.067 440.041 172.084 436.834 173.017L325.703 205.328L463.546 354.449C465.458 356.518 468.403 357.277 471.077 356.39Z" fill="#D9D9D9" fill-opacity="0.07"/>
<path d="M325.703 205.587L437.266 172.874C438.996 172.367 440.796 172.387 442.459 172.874M577.166 320.936L446.731 175.567C445.562 174.263 444.075 173.348 442.459 172.874M443.616 106.129L442.459 172.874" stroke="white" stroke-width="1.02533"/>
<path d="M135.758 260.696L260.907 224.139C262.637 223.632 264.436 223.652 266.1 224.139M403.113 378.609L270.372 226.832C269.202 225.528 267.715 224.613 266.1 224.139M267.513 154.574L266.1 224.139" stroke="white" stroke-width="1.02533"/>
<path d="M499.5 155.085C523.424 147.993 573.119 133.297 580.501 131.246C583.913 130.298 587.43 130.051 590.755 130.363M730.712 270.179C690.297 227.115 608.493 140.013 604.597 136.116C601.527 133.047 596.421 130.894 590.755 130.363M594.856 66.3945L590.755 130.363" stroke="white" stroke-width="1.02533"/>
<path d="M295.709 421.93L291.352 508.314" stroke="white" stroke-width="1.02533"/>
<path d="M250.344 411.676L249.062 496.522" stroke="white" stroke-width="1.02533"/>
<path d="M774.541 260.695L764.031 340.159" stroke="white" stroke-width="1.02533"/>
<path d="M382.448 214.135L375.828 206.52L379.212 205.485C381.604 204.754 383.397 205.074 384.637 206.501C385.392 207.37 385.23 208.152 384.204 208.615C385.706 208.305 387.077 208.714 387.953 209.723C389.166 211.117 388.604 212.252 386.376 212.934L382.448 214.135ZM383.011 212.646L385.485 211.889C386.694 211.52 387.06 210.892 386.408 210.141C385.746 209.379 384.662 209.181 383.452 209.551L380.979 210.307L383.011 212.646ZM380.121 209.321L382.092 208.718C383.383 208.323 383.781 207.713 383.166 207.005C382.522 206.265 381.503 206.101 380.171 206.509L378.2 207.111L380.121 209.321Z" fill="white"/>
<path d="M386.404 205.73L387.722 205.327L388.695 206.387C388.32 205.579 388.565 205.069 389.489 204.787L390.182 204.575L390.993 205.508L390.287 205.724C389.159 206.069 389.085 206.716 389.905 207.66L392.786 210.974L391.345 211.414L386.404 205.73Z" fill="white"/>
<path d="M399.155 209.19C397.076 209.825 394.71 209.083 393.134 207.27C391.558 205.457 391.91 203.883 393.99 203.248C396.055 202.616 398.421 203.359 399.997 205.172C401.573 206.984 401.221 208.558 399.155 209.19ZM394.629 206.813C395.71 208.057 397.074 208.577 398.297 208.203C399.52 207.829 399.584 206.873 398.502 205.629C397.421 204.385 396.071 203.861 394.847 204.234C393.624 204.608 393.547 205.569 394.629 206.813Z" fill="white"/>
<path d="M397.1 200.016L398.54 199.576L402.661 204.316L403.412 200.53L405.274 199.961L404.517 203.206L410.338 205.608L408.666 206.119L404.177 204.22L403.855 205.689L405.16 207.191L403.719 207.631L397.1 200.016Z" fill="white"/>
<path d="M408.056 202.708C406.49 200.906 406.819 199.325 408.912 198.686C410.638 198.158 412.885 198.625 414.705 200.621L415.036 200.981L409.858 202.564C410.876 203.597 412.11 204.007 413.238 203.662C413.945 203.446 414.308 202.914 414.118 202.28L415.701 201.905C416.221 203.117 415.545 204.179 414.077 204.628C411.984 205.267 409.622 204.51 408.056 202.708ZM409.149 201.709L412.777 200.599C411.672 199.566 410.566 199.402 409.751 199.651C408.704 199.971 408.5 200.726 409.149 201.709Z" fill="white"/>
<path d="M413.541 197.433L414.859 197.03L415.73 197.972C415.435 197.099 415.997 196.519 416.976 196.22C418.593 195.726 420.215 196.384 421.296 197.628L424.476 201.285L423.035 201.726L420.163 198.422C419.287 197.414 418.417 196.988 417.412 197.295C416.365 197.615 416.175 198.366 417.051 199.374L419.923 202.677L418.482 203.118L413.541 197.433Z" fill="white"/>
<path d="M177.171 274.044C178.363 276.084 177.841 277.8 175.299 278.577C172.145 279.541 168.61 278.126 166.469 275.574C164.328 273.023 164.509 270.441 167.663 269.476C170.036 268.751 172.606 269.429 174.604 271.099L172.92 271.706C171.611 270.627 170.075 270.265 168.666 270.695C166.385 271.393 166.651 273.223 168.184 275.05C169.707 276.865 171.999 278.06 174.265 277.368C175.75 276.913 176.138 275.886 175.349 274.509L177.171 274.044Z" fill="white"/>
<path d="M184.631 275.663C182.288 276.379 179.645 275.522 177.906 273.449C176.167 271.377 176.586 269.584 178.929 268.868C181.256 268.156 183.899 269.013 185.638 271.085C187.378 273.158 186.958 274.951 184.631 275.663ZM179.59 272.934C180.784 274.357 182.306 274.955 183.684 274.534C185.062 274.113 185.148 273.023 183.954 271.6C182.76 270.178 181.254 269.575 179.876 269.996C178.498 270.417 178.396 271.512 179.59 272.934Z" fill="white"/>
<path d="M184.321 267.404L185.806 266.95L186.768 268.028C186.451 267.03 187.091 266.372 188.194 266.035C190.016 265.478 191.825 266.235 193.018 267.658L196.528 271.84L194.905 272.336L191.735 268.559C190.768 267.406 189.799 266.916 188.666 267.262C187.487 267.623 187.261 268.478 188.229 269.631L191.399 273.408L189.776 273.905L184.321 267.404Z" fill="white"/>
<path d="M192.327 263.107L193.95 262.611L195.185 264.083L197.328 263.427L198.214 264.482L196.07 265.137L199.075 268.719C199.518 269.246 200.066 269.418 200.693 269.226L201.872 268.865L202.768 269.933L201.42 270.344C199.859 270.822 198.471 270.429 197.452 269.215L194.447 265.634L193.207 266.013L192.322 264.958L193.562 264.579L192.327 263.107Z" fill="white"/>
<path d="M199.995 265.063C199.215 263.652 199.843 262.474 201.711 261.903C203.916 261.228 205.949 261.84 207.441 263.618L209.468 266.035C209.746 266.366 210.033 266.432 210.354 266.334L210.676 266.236L211.53 267.254L211.025 267.408C210.3 267.645 209.223 267.851 208.374 266.955C208.532 267.693 208.071 268.496 206.723 268.908C205.085 269.409 203.212 269.103 202.245 267.95C201.154 266.65 202.044 265.9 203.676 265.047L205.694 263.967C204.804 262.929 203.775 262.597 202.596 262.957C201.647 263.248 201.348 263.832 201.751 264.633L199.995 265.063ZM203.909 267.411C204.31 267.889 205.16 268.122 206.232 267.795C207.431 267.413 207.804 266.436 206.631 265.037L206.559 264.951L205.034 265.726C204.05 266.227 203.219 266.589 203.909 267.411Z" fill="white"/>
<path d="M207.303 260.378L208.788 259.924L209.714 260.981C209.464 260.087 209.92 259.393 211.008 259.06C212.171 258.704 213.425 258.938 214.498 259.688C214.134 258.705 214.575 257.97 215.8 257.595C217.438 257.094 219.159 257.678 220.487 259.26L223.996 263.442L222.373 263.938L219.204 260.161C218.236 259.008 217.206 258.537 216.287 258.818C215.124 259.173 215.026 260.02 215.973 261.149L219.143 264.926L217.612 265.394L214.442 261.617C213.495 260.488 212.429 259.997 211.525 260.274C210.377 260.625 210.264 261.476 211.211 262.604L214.381 266.382L212.758 266.878L207.303 260.378Z" fill="white"/>
<path d="M220.531 256.333L222.154 255.837L227.609 262.338L225.986 262.834L220.531 256.333ZM219.698 255.386L218.658 254.147L220.358 253.628L221.397 254.867L219.698 255.386Z" fill="white"/>
<path d="M223.935 255.293L225.421 254.839L226.383 255.916C226.065 254.919 226.706 254.261 227.808 253.924C229.63 253.367 231.439 254.124 232.633 255.546L236.142 259.729L234.519 260.225L231.35 256.447C230.382 255.294 229.413 254.805 228.28 255.151C227.101 255.512 226.876 256.366 227.843 257.519L231.013 261.297L229.39 261.793L223.935 255.293Z" fill="white"/>
<path d="M233.798 254.728C233.018 253.317 233.646 252.139 235.514 251.568C237.719 250.894 239.752 251.505 241.244 253.284L243.271 255.7C243.549 256.031 243.836 256.098 244.157 255.999L244.479 255.901L245.333 256.919L244.828 257.073C244.103 257.31 243.026 257.517 242.177 256.62C242.335 257.358 241.874 258.162 240.526 258.574C238.888 259.074 237.015 258.769 236.048 257.616C234.957 256.315 235.847 255.565 237.479 254.712L239.497 253.633C238.607 252.595 237.578 252.262 236.399 252.623C235.449 252.913 235.151 253.497 235.554 254.299L233.798 254.728ZM237.711 257.076C238.113 257.554 238.963 257.788 240.035 257.46C241.234 257.078 241.607 256.101 240.434 254.703L240.362 254.617L238.837 255.391C237.853 255.892 237.022 256.254 237.711 257.076Z" fill="white"/>
<path d="M240.115 248.497L241.738 248L242.973 249.472L245.117 248.817L246.002 249.872L243.859 250.527L246.864 254.108C247.306 254.636 247.854 254.807 248.482 254.615L249.661 254.255L250.556 255.322L249.209 255.734C247.647 256.212 246.26 255.819 245.241 254.605L242.236 251.023L240.995 251.402L240.11 250.348L241.35 249.968L240.115 248.497Z" fill="white"/>
<path d="M248.527 251.858C246.798 249.798 247.192 247.997 249.55 247.277C251.495 246.682 254.008 247.224 256.019 249.506L256.385 249.918L250.551 251.702C251.677 252.883 253.055 253.356 254.326 252.968C255.122 252.724 255.538 252.119 255.334 251.395L257.116 250.974C257.681 252.358 256.906 253.566 255.252 254.071C252.894 254.792 250.256 253.919 248.527 251.858ZM249.769 250.724L253.857 249.474C252.634 248.291 251.395 248.1 250.477 248.38C249.298 248.741 249.057 249.6 249.769 250.724Z" fill="white"/>
<path d="M260.059 241.475L267.366 250.183L265.85 250.646L265.022 249.728C265.118 250.531 264.519 251.238 263.401 251.58C261.288 252.226 258.87 251.316 257.12 249.231C255.371 247.146 255.586 245.431 257.699 244.785C258.756 244.462 260.035 244.564 261.019 245.049L258.436 241.971L260.059 241.475ZM258.805 248.716C259.978 250.114 261.576 250.735 262.878 250.337C264.21 249.93 264.311 248.79 263.138 247.391C261.944 245.969 260.351 245.331 259.019 245.738C257.702 246.141 257.611 247.293 258.805 248.716Z" fill="white"/>
<path fill-rule="evenodd" clip-rule="evenodd" d="M580.24 131.433C590.005 128.643 600.511 131.531 607.477 138.92L730.968 269.924L642.981 298.765C640.357 299.625 637.473 298.903 635.562 296.909L499.242 154.575L580.24 131.433ZM520.871 165.982L527.759 173.369L529.229 172.919L522.34 165.533L520.871 165.982ZM533.644 167.01C532.518 165.803 530.864 165.173 529.245 165.667C528.266 165.967 527.714 166.537 528.035 167.388L527.131 166.474L525.811 166.878L530.953 172.392L532.395 171.951L529.407 168.747C528.495 167.769 528.667 167.035 529.714 166.714C530.721 166.407 531.611 166.816 532.522 167.794L535.51 170.998L536.952 170.558L533.644 167.01ZM541.315 164.544C539.97 163.365 537.887 163.025 536.282 163.516C534.188 164.157 533.899 165.702 535.528 167.45C537.158 169.197 539.562 169.92 541.657 169.28C543.317 168.772 543.917 167.559 542.932 166.203L541.363 166.602C541.932 167.418 541.622 168.061 540.765 168.323C539.54 168.697 538.15 168.199 537.024 166.993C535.899 165.786 535.951 164.847 537.175 164.473C537.991 164.224 539.077 164.413 539.877 165.064L541.315 164.544ZM549.86 163.069C548.221 161.311 545.812 160.603 543.744 161.235C541.663 161.871 541.351 163.41 542.99 165.168C544.63 166.927 547.038 167.635 549.119 166.998C551.187 166.366 551.499 164.827 549.86 163.069ZM544.637 162.192C545.861 161.818 547.238 162.319 548.363 163.526C549.489 164.733 549.451 165.667 548.227 166.041C547.002 166.416 545.612 165.918 544.486 164.711C543.361 163.505 543.413 162.566 544.637 162.192ZM560.36 158.842C559.109 157.5 557.54 157.017 556.084 157.462C554.996 157.795 554.626 158.43 554.988 159.268C553.996 158.635 552.86 158.448 551.826 158.764C550.86 159.059 550.475 159.659 550.732 160.422L549.861 159.525L548.542 159.928L553.684 165.443L555.125 165.001L552.138 161.797C551.245 160.84 551.316 160.11 552.336 159.798C553.139 159.553 554.115 159.962 555.008 160.919L557.996 164.124L559.356 163.708L556.368 160.503C555.476 159.546 555.533 158.82 556.566 158.504C557.383 158.255 558.326 158.648 559.238 159.626L562.227 162.831L563.669 162.39L560.36 158.842ZM569.292 157.127C567.846 155.577 565.611 154.549 563.503 155.194C562.469 155.51 562.018 156.076 562.196 156.81L561.389 156L560.042 156.413L566.639 163.487L568.081 163.046L565.908 160.715C566.86 161.173 567.899 161.257 568.878 160.957C570.987 160.313 570.738 158.678 569.292 157.127ZM564.046 156.245C565.393 155.833 566.851 156.591 567.782 157.589C568.723 158.598 569.015 159.699 567.655 160.115C566.322 160.522 564.854 159.754 563.933 158.766C563.011 157.778 562.713 156.652 564.046 156.245ZM576.044 154.368C574.637 152.859 572.786 152.356 570.827 152.955C569.167 153.462 568.645 154.478 569.397 155.678L570.962 155.293C570.57 154.611 570.818 154.107 571.661 153.849C572.709 153.529 573.647 153.804 574.485 154.684L572.708 155.628C571.272 156.375 570.498 157.027 571.526 158.129C572.438 159.107 574.134 159.351 575.59 158.906C576.787 158.54 577.172 157.847 577.004 157.216C577.799 157.976 578.761 157.789 579.404 157.579L579.854 157.442L579.048 156.578L578.763 156.665C578.477 156.753 578.217 156.698 577.955 156.417L576.044 154.368ZM575.366 155.591C576.472 156.777 576.171 157.618 575.106 157.956C574.154 158.247 573.381 158.057 573.003 157.651C572.353 156.954 573.088 156.636 573.955 156.197L575.298 155.518L575.366 155.591ZM574.855 150.279L576.02 151.528L574.918 151.865L575.752 152.759L576.854 152.422L579.687 155.46C580.647 156.49 581.909 156.813 583.297 156.389L584.494 156.023L583.65 155.118L582.603 155.438C582.045 155.608 581.546 155.466 581.129 155.019L578.296 151.982L580.2 151.399L579.366 150.504L577.462 151.086L576.297 149.838L574.855 150.279ZM580.58 150.133L585.723 155.647L587.164 155.206L582.022 149.692L580.58 150.133ZM581.646 147.401L588.534 154.788L589.881 154.375L589.185 153.573C590.117 154.01 591.29 154.106 592.283 153.802C594.16 153.228 594.292 151.757 592.643 149.989C590.993 148.22 588.786 147.465 586.908 148.039C585.97 148.326 585.437 148.916 585.523 149.572L583.088 146.96L581.646 147.401ZM587.395 149.066C588.564 148.708 590.021 149.239 591.146 150.446C592.252 151.632 592.189 152.614 591.033 152.967C589.85 153.329 588.403 152.809 587.297 151.623C586.172 150.416 586.211 149.428 587.395 149.066ZM589.679 144.945L595.423 151.104C596.121 151.853 597.221 152.132 598.187 151.836L599.084 151.562L598.24 150.657L597.655 150.835C597.342 150.931 597.049 150.86 596.816 150.611L591.121 144.504L589.679 144.945ZM603.878 146.5C601.986 144.565 599.706 144.126 597.979 144.654C595.884 145.294 595.594 146.84 597.224 148.588C598.853 150.336 601.258 151.058 603.353 150.417C604.822 149.968 605.476 148.926 604.918 147.747L603.33 148.124C603.539 148.742 603.187 149.265 602.479 149.481C601.35 149.826 600.094 149.435 599.038 148.434L604.222 146.85L603.878 146.5ZM578.816 148.279L579.797 149.33L581.307 148.869L580.327 147.818L578.816 148.279ZM598.852 145.59C599.668 145.341 600.789 145.493 601.932 146.494L598.299 147.604C597.618 146.649 597.804 145.911 598.852 145.59Z" fill="#D2B2FF"/>
<path d="M517.304 -137.497C515.636 -141.476 509.784 -144.468 501.721 -144.891C498.516 -145.059 495.308 -144.802 492.297 -144.204L19.2166 -37.0158C10.7302 -35.0466 3.73815 -30.7732 1.52596 -25.5616C0.746779 -23.726 0.631437 -21.9409 1.09218 -20.2781L69.9003 175.131C75.3766 189.83 87.8343 192.952 103.073 188.63L581.09 56.4677C588.586 54.1445 591.124 51.658 593.164 46.853C594.101 44.644 593.929 40.432 593.164 38.4739L517.304 -137.497Z" stroke="url(#paint0_linear_4245_156074)" stroke-width="1.538"/>
<path d="M493.919 29.2631C531.611 53.2793 557.966 88.071 569.201 128.019L587.4 99.2926C588.66 97.303 591.292 96.716 593.279 97.9817C595.265 99.2474 595.854 101.886 594.593 103.876L569.99 142.711L568.578 145.213L558.864 139.13L527.993 118.707C526.036 117.412 525.474 114.786 526.73 112.805C528 110.799 530.654 110.207 532.656 111.483L560.731 129.372C549.95 91.969 525.09 59.2336 489.356 36.465C413.696 -11.7431 313.874 9.4333 264.301 83.4382C262.99 85.395 260.356 85.9956 258.37 84.7299C256.383 83.4642 255.798 80.8112 257.106 78.8528C309.204 0.866777 414.291 -21.4733 493.919 29.2631Z" fill="#4FE2CE"/>
<defs>
<linearGradient id="paint0_linear_4245_156074" x1="306.115" y1="132.641" x2="287.985" y2="31.8364" gradientUnits="userSpaceOnUse">
<stop stop-color="white"/>
<stop offset="1" stop-color="#999999" stop-opacity="0"/>
</linearGradient>
</defs>
</svg>
