<svg width="889" height="739" viewBox="0 0 889 739" fill="none" xmlns="http://www.w3.org/2000/svg">
<mask id="mask0_4961_119130" style="mask-type:alpha" maskUnits="userSpaceOnUse" x="0" y="-145" width="922" height="890">
<rect y="-144.852" width="921.561" height="889.467" fill="url(#paint0_radial_4961_119130)"/>
</mask>
<g mask="url(#mask0_4961_119130)">
<ellipse cx="448.881" cy="481.316" rx="32.5916" ry="11.2276" fill="#713ADA" fill-opacity="0.4"/>
<ellipse cx="204.154" cy="394.235" rx="26.7717" ry="8.07842" fill="#713ADA" fill-opacity="0.4"/>
<ellipse cx="448.881" cy="481.316" rx="32.5916" ry="11.2276" stroke="white" stroke-width="0.892982"/>
<ellipse cx="204.154" cy="393.822" rx="26.7717" ry="7.80457" stroke="white" stroke-width="0.892982"/>
<path d="M473.319 488.4C476.442 486.813 478.263 484.905 478.263 482.852C478.263 477.335 465.108 472.863 448.881 472.863C432.654 472.863 419.5 477.335 419.5 482.852C419.5 484.905 421.321 486.813 424.444 488.4" stroke="white" stroke-width="0.357193" stroke-linecap="round"/>
<path d="M224.195 398.686C226.757 397.609 228.25 396.314 228.25 394.92C228.25 391.175 217.461 388.139 204.153 388.139C190.844 388.139 180.055 391.175 180.055 394.92C180.055 396.314 181.548 397.609 184.11 398.686" stroke="white" stroke-width="0.357193" stroke-linecap="round"/>
<path d="M523.089 457.219L523.295 456.823V456.823L523.089 457.219ZM338.597 377.119L338.736 376.695L338.625 376.659L338.51 376.681L338.597 377.119ZM529.636 439.556L529.758 439.986C529.947 439.932 530.079 439.762 530.083 439.565C530.087 439.368 529.962 439.192 529.775 439.131L529.636 439.556ZM325.674 493.473L325.84 493.059V493.059L325.674 493.473ZM155.106 425.371L154.94 425.786L155.106 425.371ZM155.302 422.787L155.194 422.354L155.194 422.354L155.302 422.787ZM345.872 490.941L345.998 491.369L346.003 491.368L345.872 490.941ZM335.702 493.936L335.576 493.508V493.508L335.702 493.936ZM165.6 420.222L165.708 420.655L165.715 420.653L165.722 420.651L165.6 420.222ZM170.11 403.638L169.94 404.051L169.943 404.052L170.11 403.638ZM286.945 373.253L287.094 372.832L287.092 372.831L286.945 373.253ZM289.71 374.229L289.885 373.818L289.872 373.813L289.859 373.808L289.71 374.229ZM484.592 494.872L484.435 494.455L484.592 494.872ZM195.244 380.498L195.358 380.93L195.244 380.498ZM448.012 500.486V500.04C433.52 500.04 420.485 497.851 411.36 494.368L411.201 494.785L411.042 495.202C420.295 498.735 433.444 500.933 448.012 500.933V500.486ZM523.089 457.219L522.883 457.615C526.085 459.28 528.857 461.108 530.92 463.022C532.988 464.941 534.306 466.912 534.673 468.858C535.035 470.775 534.488 472.744 532.661 474.721C530.82 476.713 527.688 478.7 522.924 480.589L523.089 481.004L523.254 481.419C528.074 479.507 531.346 477.459 533.317 475.327C535.301 473.179 535.974 470.933 535.551 468.692C535.133 466.48 533.663 464.349 531.527 462.367C529.387 460.381 526.54 458.51 523.295 456.823L523.089 457.219ZM338.597 377.119L338.459 377.544L529.498 439.98L529.636 439.556L529.775 439.131L338.736 376.695L338.597 377.119ZM325.674 493.473L325.84 493.059L155.271 424.956L155.106 425.371L154.94 425.786L325.509 493.888L325.674 493.473ZM155.106 425.371L155.271 424.956C154.412 424.613 154.475 423.453 155.409 423.22L155.302 422.787L155.194 422.354C153.448 422.789 153.247 425.11 154.94 425.786L155.106 425.371ZM374.681 486.794V487.24C390.304 487.24 401.919 491.44 411.323 495.286L411.492 494.872L411.661 494.459C402.219 490.598 390.477 486.347 374.681 486.347V486.794ZM345.872 490.941L346.003 491.368C354.542 488.741 365.118 487.24 374.681 487.24V486.794V486.347C365.038 486.347 354.372 487.859 345.741 490.514L345.872 490.941ZM335.702 493.936L335.828 494.364L345.998 491.369L345.872 490.941L345.746 490.513L335.576 493.508L335.702 493.936ZM155.302 422.787L155.409 423.22L165.708 420.655L165.6 420.222L165.492 419.788L155.194 422.354L155.302 422.787ZM325.674 493.473L325.509 493.888C328.781 495.194 332.438 495.363 335.828 494.364L335.702 493.936L335.576 493.508C332.377 494.45 328.925 494.29 325.84 493.059L325.674 493.473ZM523.089 457.219L523.295 456.823C519.341 454.766 517.57 451.932 517.57 449.406H517.124H516.677C516.677 452.377 518.747 455.464 522.883 457.615L523.089 457.219ZM517.124 449.406H517.57C517.57 447.591 518.337 445.893 520.235 444.316C522.15 442.725 525.209 441.267 529.758 439.986L529.636 439.556L529.515 439.126C524.916 440.422 521.719 441.923 519.664 443.629C517.593 445.35 516.677 447.288 516.677 449.406H517.124ZM170.11 403.638L170.281 403.225C167.482 402.069 165.232 400.732 163.69 399.313C162.144 397.89 161.353 396.428 161.353 395.012H160.906H160.46C160.46 396.776 161.443 398.459 163.085 399.97C164.731 401.485 167.083 402.871 169.94 404.051L170.11 403.638ZM254.936 368.752V369.199C267.578 369.199 278.931 370.93 286.798 373.675L286.945 373.253L287.092 372.831C279.104 370.044 267.646 368.306 254.936 368.306V368.752ZM319.102 378.884V378.438C307.07 378.438 296.441 376.609 289.885 373.818L289.71 374.229L289.535 374.64C296.243 377.495 307.005 379.331 319.102 379.331V378.884ZM338.597 377.119L338.51 376.681C332.905 377.793 326.247 378.438 319.102 378.438V378.884V379.331C326.298 379.331 333.015 378.681 338.684 377.557L338.597 377.119ZM170.11 403.638L169.943 404.052C172.465 405.068 174.449 406.23 175.795 407.465C177.143 408.701 177.812 409.97 177.812 411.213H178.258H178.705C178.705 409.628 177.85 408.138 176.399 406.807C174.946 405.475 172.857 404.263 170.277 403.224L170.11 403.638ZM178.258 411.213H177.812C177.812 412.786 176.736 414.37 174.586 415.867C172.449 417.356 169.336 418.696 165.478 419.792L165.6 420.222L165.722 420.651C169.629 419.541 172.846 418.167 175.096 416.6C177.334 415.041 178.705 413.223 178.705 411.213H178.258ZM289.71 374.229L289.859 373.808L287.094 372.832L286.945 373.253L286.797 373.674L289.561 374.65L289.71 374.229ZM484.592 494.872L484.435 494.455C475.322 497.888 462.383 500.04 448.012 500.04V500.486V500.933C462.459 500.933 475.51 498.771 484.75 495.29L484.592 494.872ZM523.089 481.004L522.924 480.589C513.349 484.385 507.49 486.434 502.147 488.241C496.801 490.05 491.96 491.62 484.435 494.455L484.592 494.872L484.75 495.29C492.257 492.462 497.08 490.898 502.433 489.087C507.787 487.276 513.661 485.222 523.254 481.419L523.089 481.004ZM160.906 395.012H161.353C161.353 393.819 162.185 392.626 163.923 391.406C165.647 390.197 168.159 389.036 171.283 387.888C177.527 385.591 186.085 383.388 195.358 380.93L195.244 380.498L195.13 380.067C185.879 382.519 177.268 384.735 170.975 387.05C167.829 388.206 165.23 389.399 163.41 390.675C161.605 391.942 160.46 393.368 160.46 395.012H160.906ZM195.244 380.498L195.358 380.93C206.055 378.095 217.761 375.16 228.393 372.935C239.035 370.708 248.569 369.199 254.936 369.199V368.752V368.306C248.468 368.306 238.855 369.833 228.21 372.061C217.555 374.291 205.833 377.23 195.13 380.067L195.244 380.498Z" fill="white"/>
<path d="M407.921 511.038C417.913 514.659 431.567 515.827 447.366 515.827C463.693 515.827 478.612 513.27 489.341 508.846C504.679 503.915 537.234 493.306 542.843 485.058C548.452 476.811 546.153 465.872 527.481 454.672M408.237 511.128C397.992 507.151 392.047 503.915 374.965 503.915C361.492 503.915 351.891 508.391 339.027 511.987C332.334 514.57 324.04 515.827 318.706 513.244L144.823 443.24C144.061 442.932 143.721 442.095 144.082 441.392C145.57 438.495 149.216 431.397 151.241 427.474C152.07 425.867 153.209 424.423 154.597 423.204L154.68 423.131M162.537 391.77C160.355 393.55 158.754 396.014 156.135 401.765C153.808 406.877 158.9 411.152 164.283 413.403C168.357 415.107 167.339 419.428 163.119 420.797" stroke="white" stroke-width="0.892982"/>
<ellipse cx="335.684" cy="432.982" rx="109.997" ry="32.4506" stroke="white" stroke-width="0.892982"/>
<ellipse cx="335.681" cy="435.31" rx="97.7748" ry="25.7414" stroke="white" stroke-width="0.892982"/>
<path d="M429.097 442.978C428.209 441.313 426.655 439.703 424.508 438.164C411.49 428.84 376.636 422.166 335.683 422.166C294.731 422.166 259.876 428.84 246.859 438.164C244.714 439.7 243.162 441.309 242.273 442.971" stroke="white" stroke-width="0.892982"/>
<path d="M441.549 478.312C442.239 478.323 442.934 478.435 443.464 478.656L449.343 481.115L455.756 478.857C456.326 478.656 457.04 478.567 457.731 478.578C458.422 478.59 459.117 478.702 459.647 478.924C459.912 479.035 460.128 479.169 460.277 479.33C460.43 479.494 460.522 479.698 460.497 479.924C460.472 480.143 460.342 480.328 460.169 480.474C459.995 480.62 459.759 480.743 459.474 480.844L453.619 482.905L458.951 485.136C459.216 485.246 459.432 485.381 459.581 485.542C459.733 485.706 459.826 485.91 459.801 486.136C459.776 486.355 459.646 486.54 459.473 486.686C459.299 486.832 459.062 486.955 458.777 487.056C458.207 487.257 457.493 487.345 456.802 487.334C456.111 487.323 455.416 487.211 454.886 486.989L449.007 484.528L442.594 486.788C442.023 486.989 441.309 487.079 440.618 487.067C439.928 487.056 439.233 486.943 438.703 486.722C438.438 486.611 438.222 486.476 438.072 486.315C437.92 486.151 437.828 485.947 437.854 485.722C437.878 485.502 438.008 485.317 438.181 485.172C438.355 485.026 438.591 484.902 438.876 484.802L444.729 482.739L439.399 480.51C439.135 480.399 438.918 480.264 438.769 480.104C438.616 479.939 438.525 479.735 438.55 479.51C438.574 479.291 438.704 479.106 438.877 478.96C439.051 478.814 439.287 478.69 439.572 478.59C440.143 478.389 440.857 478.3 441.549 478.312Z" stroke="white" stroke-width="0.535789"/>
<path d="M199.475 390.77C200.051 390.778 200.628 390.864 201.065 391.032L206.035 392.944L211.46 391.189C211.932 391.037 212.526 390.968 213.103 390.977C213.679 390.985 214.256 391.071 214.693 391.239C214.912 391.323 215.088 391.425 215.208 391.544C215.33 391.665 215.406 391.817 215.385 391.987C215.365 392.152 215.26 392.29 215.12 392.397C214.979 392.506 214.787 392.599 214.551 392.676L209.547 394.295L214.107 396.049C214.326 396.133 214.501 396.234 214.621 396.354C214.743 396.474 214.82 396.626 214.799 396.797C214.779 396.962 214.673 397.098 214.533 397.206C214.392 397.315 214.2 397.408 213.964 397.484C213.492 397.637 212.898 397.706 212.321 397.697C211.745 397.689 211.168 397.603 210.73 397.435L205.759 395.521L200.336 397.277C199.864 397.43 199.27 397.499 198.693 397.49C198.117 397.481 197.539 397.396 197.102 397.228C196.883 397.144 196.708 397.042 196.588 396.923C196.466 396.802 196.39 396.65 196.411 396.479C196.431 396.315 196.536 396.177 196.676 396.069C196.817 395.961 197.009 395.867 197.245 395.791L202.248 394.171L197.688 392.418C197.47 392.334 197.294 392.232 197.174 392.113C197.052 391.992 196.976 391.84 196.997 391.67C197.017 391.505 197.123 391.368 197.262 391.261C197.402 391.152 197.595 391.059 197.831 390.982C198.303 390.829 198.898 390.761 199.475 390.77Z" stroke="white" stroke-width="0.357193"/>
<path d="M333.359 378.076L339.761 376.462V160.096" stroke="white" stroke-width="0.892982"/>
<path d="M337.149 384.789L177.914 425.433C176.311 425.842 176.163 427.929 177.695 428.534L323.011 485.943C325.746 487.024 328.795 487.177 331.637 486.377L501.982 438.428C503.611 437.97 503.653 435.813 502.042 435.298L344.616 385.009C342.206 384.239 339.606 384.162 337.149 384.789Z" stroke="white" stroke-width="0.357193"/>
<path d="M525.331 690.041L519.977 685.45L523.784 671.452C524.974 666.787 527.806 656.783 529.615 654.096C531.876 650.736 537.111 648.945 540.8 647.489C543.751 646.324 668.002 600.869 729.758 578.287L788.421 598.891L523.784 700.791L525.331 698.887L526.164 695.976L525.331 690.041Z" fill="url(#paint1_linear_4961_119130)" fill-opacity="0.5"/>
<path d="M331.315 405.051C331.315 406.488 330.078 407.652 328.551 407.652C327.024 407.652 325.786 406.488 325.786 405.051C325.786 403.614 327.024 402.449 328.551 402.449C330.078 402.449 331.315 403.614 331.315 405.051Z" stroke="white" stroke-width="0.357193"/>
<path d="M318.803 405.598C318.803 407.035 317.565 408.2 316.038 408.2C314.511 408.2 313.274 407.035 313.274 405.598C313.274 404.162 314.511 402.997 316.038 402.997C317.565 402.997 318.803 404.162 318.803 405.598Z" stroke="white" stroke-width="0.357193"/>
<path d="M306.581 406.42C306.581 407.857 305.343 409.021 303.816 409.021C302.289 409.021 301.052 407.857 301.052 406.42C301.052 404.983 302.289 403.818 303.816 403.818C305.343 403.818 306.581 404.983 306.581 406.42Z" stroke="white" stroke-width="0.357193"/>
<path d="M294.65 407.515C294.65 408.952 293.542 410.117 292.176 410.117C290.81 410.117 289.703 408.952 289.703 407.515C289.703 406.079 290.81 404.914 292.176 404.914C293.542 404.914 294.65 406.079 294.65 407.515Z" stroke="white" stroke-width="0.357193"/>
<path d="M283.592 409.158C283.592 410.595 282.485 411.76 281.119 411.76C279.752 411.76 278.645 410.595 278.645 409.158C278.645 407.722 279.752 406.557 281.119 406.557C282.485 406.557 283.592 407.722 283.592 409.158Z" stroke="white" stroke-width="0.357193"/>
<path d="M272.825 411.623C272.825 413.06 271.783 414.225 270.497 414.225C269.211 414.225 268.169 413.06 268.169 411.623C268.169 410.186 269.211 409.021 270.497 409.021C271.783 409.021 272.825 410.186 272.825 411.623Z" stroke="white" stroke-width="0.357193"/>
<path d="M262.929 413.994C262.994 415.43 262.005 416.635 260.721 416.686C259.436 416.738 258.342 415.616 258.277 414.18C258.212 412.745 259.201 411.54 260.486 411.488C261.77 411.437 262.864 412.559 262.929 413.994Z" stroke="white" stroke-width="0.357193"/>
<path d="M254.199 416.729C254.276 418.164 253.428 419.371 252.305 419.424C251.181 419.478 250.207 418.358 250.13 416.923C250.053 415.488 250.901 414.282 252.024 414.228C253.148 414.174 254.121 415.294 254.199 416.729Z" stroke="white" stroke-width="0.357193"/>
<path d="M246.284 419.867C246.581 421.405 246.052 422.782 245.103 422.944C244.155 423.106 243.145 421.991 242.849 420.454C242.552 418.917 243.081 417.54 244.03 417.378C244.979 417.216 245.988 418.33 246.284 419.867Z" stroke="white" stroke-width="0.357193"/>
<path d="M239.776 424.031C240.291 425.792 240.081 427.382 239.307 427.583C238.532 427.784 237.486 426.519 236.97 424.759C236.455 422.998 236.665 421.407 237.439 421.206C238.214 421.006 239.26 422.27 239.776 424.031Z" stroke="white" stroke-width="0.357193"/>
<path d="M235.034 428.395C236.181 429.869 236.654 431.378 236.091 431.765C235.529 432.153 234.144 431.272 232.997 429.798C231.851 428.324 231.378 426.815 231.94 426.428C232.502 426.041 233.888 426.921 235.034 428.395Z" stroke="white" stroke-width="0.357193"/>
<path d="M344.119 405.051C344.119 406.488 342.882 407.652 341.355 407.652C339.828 407.652 338.59 406.488 338.59 405.051C338.59 403.614 339.828 402.449 341.355 402.449C342.882 402.449 344.119 403.614 344.119 405.051Z" stroke="white" stroke-width="0.357193"/>
<path d="M356.341 405.598C356.341 407.035 355.103 408.2 353.577 408.2C352.05 408.2 350.812 407.035 350.812 405.598C350.812 404.162 352.05 402.997 353.577 402.997C355.103 402.997 356.341 404.162 356.341 405.598Z" stroke="white" stroke-width="0.357193"/>
<path d="M367.981 406.42C367.981 407.857 366.743 409.021 365.217 409.021C363.69 409.021 362.452 407.857 362.452 406.42C362.452 404.983 363.69 403.818 365.217 403.818C366.743 403.818 367.981 404.983 367.981 406.42Z" stroke="white" stroke-width="0.357193"/>
<path d="M378.457 407.241C378.457 408.678 377.349 409.843 375.983 409.843C374.617 409.843 373.51 408.678 373.51 407.241C373.51 405.805 374.617 404.64 375.983 404.64C377.349 404.64 378.457 405.805 378.457 407.241Z" stroke="white" stroke-width="0.357193"/>
<path d="M388.642 408.885C388.642 410.321 387.534 411.486 386.168 411.486C384.802 411.486 383.695 410.321 383.695 408.885C383.695 407.448 384.802 406.283 386.168 406.283C387.534 406.283 388.642 407.448 388.642 408.885Z" stroke="white" stroke-width="0.357193"/>
<path d="M398.245 410.528C398.245 411.964 397.267 413.129 396.062 413.129C394.857 413.129 393.88 411.964 393.88 410.528C393.88 409.091 394.857 407.926 396.062 407.926C397.267 407.926 398.245 409.091 398.245 410.528Z" stroke="white" stroke-width="0.357193"/>
<path d="M406.684 412.445C406.684 413.881 405.706 415.046 404.501 415.046C403.296 415.046 402.319 413.881 402.319 412.445C402.319 411.008 403.296 409.843 404.501 409.843C405.706 409.843 406.684 411.008 406.684 412.445Z" stroke="white" stroke-width="0.357193"/>
<path d="M415.407 415.068C415.289 416.501 414.219 417.591 413.017 417.503C411.815 417.415 410.937 416.183 411.055 414.751C411.173 413.318 412.243 412.228 413.445 412.316C414.647 412.403 415.525 413.636 415.407 415.068Z" stroke="white" stroke-width="0.357193"/>
<path d="M422.708 417.791C422.521 419.217 421.528 420.275 420.491 420.154C419.455 420.034 418.766 418.78 418.953 417.354C419.141 415.928 420.133 414.87 421.17 414.991C422.207 415.111 422.895 416.365 422.708 417.791Z" stroke="white" stroke-width="0.357193"/>
<path d="M428.657 420.979C428.232 422.359 427.262 423.307 426.49 423.097C425.718 422.886 425.437 421.597 425.862 420.217C426.287 418.837 427.257 417.889 428.029 418.099C428.801 418.31 429.082 419.599 428.657 420.979Z" stroke="white" stroke-width="0.357193"/>
<path d="M433.748 424.381C433.155 425.811 432.067 426.746 431.318 426.471C430.57 426.196 430.444 424.815 431.037 423.385C431.631 421.956 432.718 421.02 433.467 421.295C434.215 421.57 434.341 422.952 433.748 424.381Z" stroke="white" stroke-width="0.357193"/>
<path d="M437.753 428.754C436.694 430.034 435.367 430.73 434.791 430.307C434.214 429.884 434.605 428.504 435.665 427.223C436.724 425.943 438.051 425.247 438.628 425.67C439.204 426.092 438.813 427.473 437.753 428.754Z" stroke="white" stroke-width="0.357193"/>
<path d="M439.943 433.983C438.344 434.97 436.765 435.365 436.415 434.865C436.066 434.364 437.079 433.157 438.678 432.17C440.277 431.182 441.856 430.787 442.206 431.288C442.555 431.789 441.542 432.995 439.943 433.983Z" stroke="white" stroke-width="0.357193"/>
<path d="M528.042 455.004C524.259 452.402 525.579 450.18 531.389 448.295L573.757 436.577M786.967 379L713.051 399.524" stroke="white" stroke-width="0.892982"/>
<path d="M770.676 309.617L696.653 328.496M532.688 369.783L565.053 361.433" stroke="white" stroke-width="0.892982"/>
<path d="M770.676 305.453L688.336 326.269M532.688 365.619L576.182 354.623" stroke="white" stroke-width="0.357193"/>
<path d="M729.4 578.256L776.662 596.74C782.275 598.935 788.577 598.978 794.222 596.859L842.306 578.808L851.321 575.145C873.049 566.315 887.12 546.175 887.12 523.903V436.41C887.12 414.228 876.062 404.347 860.784 408.199C852.2 410.364 438.725 539.483 433.02 541.244C407.832 549.015 389.516 572.632 389.516 600.562V707.58C389.516 728.192 411.019 742.715 431.769 736.119L433.02 735.721L522.417 700.565C524.583 699.713 525.993 697.72 525.993 695.512V691.442C525.993 689.705 524.966 688.113 523.328 687.312L518.718 685.056" stroke="white" stroke-width="2.32175"/>
<path d="M399.703 647.677H402.759C402.759 638.549 402.759 625.03 402.759 613.857C402.759 602.684 397.957 562.785 446.408 547.587C484.078 535.771 852.203 419.017 857.586 417.237C862.97 415.457 868.498 415.046 870.099 416.141" stroke="white" stroke-width="0.357193"/>
<path d="M527.453 440.038L529.807 439.444C531.079 439.124 531.964 438.039 531.964 436.799V210.213C531.964 197.231 523.125 185.709 510.031 181.622L380.408 141.161C375.433 139.608 371.921 135.413 371.482 130.498L363.731 43.5541C363.588 41.9523 364.719 40.517 366.31 40.2812L396.183 35.8517C398.709 35.4791 401.197 36.7012 402.317 38.8642L419.526 73.4808C421.23 76.7727 425.043 78.606 428.876 77.9761L736.318 27.4514C737.83 27.2028 739.288 28.1025 739.648 29.5069L765.635 130.907C768.437 141.84 769.853 153.047 769.853 164.294V361.331C769.853 368.325 774.558 374.552 781.577 376.85L873.157 407.242" stroke="white" stroke-width="1.07158"/>
<path d="M191.641 8.66016L365.075 41.2477" stroke="white" stroke-width="1.07158"/>
<path d="M329.718 137.093L282.806 125.723C282.244 125.586 281.703 126.012 281.703 126.59V148.258C281.703 149.903 282.827 151.335 284.424 151.727L326.747 162.106C328.705 162.587 330.743 162.647 332.726 162.283L385.734 152.566L329.718 137.093Z" stroke="white" stroke-width="1.07158"/>
<path d="M375.696 139.147L182.569 95.7849C180.044 95.218 178.368 92.8181 178.707 90.2523L189.108 11.3254C189.401 9.10167 191.139 7.34509 193.359 7.02823L225.105 2.49805L398.505 35.9417" stroke="white" stroke-width="1.07158"/>
<path d="M174.869 386.247C130.842 397.015 87.356 407.662 85.862 408.109C66.3064 413.958 51.9609 433.177 51.9609 455.985L52.0769 544.569C52.0949 558.369 60.0604 570.923 72.5376 576.818L407.704 735.169M241.071 369.954C309.461 353.27 337.354 346.721 339.756 346.721" stroke="white" stroke-width="1.07158"/>
<path d="M399.122 649.584V601.162C399.122 576.004 415.619 554.729 438.304 547.729C443.442 546.143 854.253 415.641 860.497 414.225C871.118 411.815 879.848 415.177 879.848 435.715V479.664L399.122 649.584ZM399.122 649.584V687.5M524.687 689.849L431.081 725.934C415.764 731.838 398.977 721.238 398.977 705.661V687.5M876.855 480.997V520.367C876.855 541.536 863.225 560.596 842.385 568.567L790.414 588.448C786.843 589.813 782.843 589.79 779.29 588.383L742.643 573.866" stroke="white" stroke-width="1.07158"/>
<path d="M399.852 666.024L405.931 668.767C408.829 670.075 412.173 670.197 415.17 669.103L489.478 641.999M863.7 485.424V502.037C863.7 505.467 861.435 508.537 858.019 509.735L809.72 526.676M489.478 641.999L492.434 640.921C492.603 640.86 492.772 640.803 492.942 640.752M489.478 641.999L492.942 640.752M809.72 526.676L809.437 526.778M809.72 526.676C809.625 526.709 809.531 526.743 809.437 526.778M492.942 640.752L809.437 526.778M492.942 640.752C498.514 639.07 504.319 642.977 504.319 648.581V683.156C504.319 687.023 508.463 689.672 512.284 688.247L516.157 686.802C518.853 685.796 520.843 683.596 521.466 680.93L526.177 660.771C527.429 655.413 531.441 650.996 536.872 648.998L761.958 566.184C766.297 564.588 771.203 566.479 773.106 570.481L780.494 586.028C781.703 588.573 784.829 589.768 787.582 588.739L789.687 587.952C791.896 587.126 793.437 585.217 793.689 582.993L798.543 540.223C799.23 534.174 803.435 528.996 809.437 526.778" stroke="white" stroke-width="1.60737"/>
<path d="M507.37 688.343L437.531 661.506" stroke="white" stroke-width="1.60737"/>
<path d="M389.52 598.385L52.1094 456.26" stroke="white" stroke-width="1.60737"/>
<path d="M528.907 198.983L371.914 155.305" stroke="white" stroke-width="1.60737"/>
<path d="M281.414 127.92L183.93 96.291" stroke="white" stroke-width="1.07158"/>
<path d="M477.109 622.209V626.359C477.109 627.129 477.932 627.659 478.695 627.38L504.448 617.962C504.896 617.798 505.191 617.393 505.191 616.941V612.077M564.117 591.949V596.099C564.117 596.87 564.94 597.399 565.703 597.12L591.456 587.702C591.904 587.539 592.198 587.133 592.198 586.681V581.817M645.887 563.469V567.619C645.887 568.39 646.71 568.919 647.473 568.64L673.226 559.222C673.674 559.059 673.969 558.653 673.969 558.201V553.337M721.255 536.359V540.509C721.255 541.279 722.078 541.809 722.841 541.53L748.594 532.112C749.042 531.948 749.337 531.543 749.337 531.091V526.227M793.423 510.07V514.22C793.423 514.99 794.245 515.52 795.008 515.241L820.761 505.823C821.209 505.659 821.504 505.254 821.504 504.802V499.938" stroke="white" stroke-width="1.07158"/>
<path d="M335.448 421.834C381.356 421.834 419.651 430.744 428.458 442.584C416.521 453.093 379.397 460.756 335.448 460.756C291.499 460.756 254.374 453.093 242.438 442.584C251.244 430.744 289.54 421.834 335.448 421.834Z" fill="#713ADA" fill-opacity="0.1"/>
<path d="M397.86 26.4295L741.806 -20.0501M741.806 -20.0501V22.5541C741.806 24.1296 741.113 25.6253 739.91 26.6433L738.562 27.7844M741.806 -20.0501L685.687 -26.8374M225.344 -5.22775L534.717 -43.4189C536.11 -43.5909 537.518 -43.598 538.913 -43.4403L594.183 -37.1882M345.968 16.455L685.687 -26.8374M685.687 -26.8374L594.183 -37.1882M277.303 4.15237L594.183 -37.1882" stroke="white" stroke-width="1.07158"/>
<path d="M225.25 2.51301V-4.94651C225.25 -5.16953 225.452 -5.33802 225.671 -5.29787L397.546 26.1533V35.5675" stroke="white" stroke-width="1.07158"/>
<path d="M330.934 137.564L282.647 125.851C282.262 131.469 281.493 143.235 281.493 145.349C281.493 147.992 282.647 151.298 286.725 152.106C290.802 152.913 310.975 157.155 317.199 159.78C322.178 161.88 328.43 162.136 330.934 162.002V137.564Z" fill="#D9D9D9" fill-opacity="0.07"/>
<path d="M365.096 41.4009L191.456 8.71607C190.683 9.61796 189.113 11.637 189.017 12.4982C188.897 13.5747 178.689 86.3739 178.689 86.713C178.689 87.0521 178.895 90.6367 179.41 91.9931C179.822 93.0782 181.866 94.7084 182.837 95.3879L373.213 138.582H375.464C374.259 136.724 371.803 132.538 371.613 130.665C371.376 128.323 363.97 47.8683 363.733 45.3036C363.543 43.2518 364.563 41.8469 365.096 41.4009Z" fill="#D9D9D9" fill-opacity="0.07"/>
<path d="M529.711 199.131L373.213 154.814L339.876 161.045L339.314 362.347V377.05L528.443 439.184C528.964 439.184 530.153 439.081 530.741 438.665L530.833 438.601C531.522 438.116 532.028 437.76 532.028 436.849V373.884C531.721 324.872 531.292 224.791 532.028 216.557C532.763 208.323 530.79 201.509 529.711 199.131Z" fill="#D9D9D9" fill-opacity="0.07"/>
<path d="M389.449 598.363L52.0856 456.619L51.3203 511.031C51.6758 520.982 52.0856 541.889 52.0856 541.889C52.0856 541.889 330.593 667.872 389.449 694.456V598.363Z" fill="#D9D9D9" fill-opacity="0.07"/>
<path d="M162.943 399.027C161.134 397.419 161.017 395.204 161.185 394.298C160.179 394.298 155.782 401.628 155.405 403.993C155.028 406.358 157.792 409.668 159.677 411.087C161.561 412.506 166.21 414.279 166.838 416.289C167.341 417.897 165.121 419.797 163.949 420.546C164.242 420.743 166.16 420.522 171.487 418.063C178.146 414.989 177.517 412.979 178.02 411.087C178.523 409.195 175.884 406.476 172.994 404.821C170.105 403.165 165.205 401.037 162.943 399.027Z" fill="#D9D9D9" fill-opacity="0.07"/>
<path d="M475.809 512.498L473.421 499.015C467.869 499.398 455.85 500.164 452.197 500.164H434.347L433.655 515.269C435.827 515.53 442.233 516.052 450.485 516.052C458.737 516.052 470.806 513.682 475.809 512.498Z" fill="#D9D9D9" fill-opacity="0.07"/>
<path d="M414.426 513.208L417.496 496.918L410.007 494.723C408.492 498.805 405.292 507.594 404.605 510.089C405.98 510.921 411.725 512.515 414.426 513.208Z" fill="#D9D9D9" fill-opacity="0.07"/>
<path d="M324.755 514.702L330.231 494.723L326.801 493.89L155.242 425.632L153.941 424.306L151.773 426.347C149.297 430.904 144.281 440.304 144.021 441.447C143.761 442.59 145.069 443.42 145.756 443.692C200.839 465.802 311.871 510.389 315.331 511.846C318.791 513.304 323.055 514.357 324.755 514.702Z" fill="#D9D9D9" fill-opacity="0.07"/>
<path d="M225.519 3.00725V-5.19531L397.582 26.1362V35.6333L396.66 35.8176L225.519 3.00725Z" fill="#D9D9D9" fill-opacity="0.07"/>
<path d="M397.472 569.45C400.487 561.72 402.222 562.036 404.605 559.957L63.4089 423.339C61.3232 425.521 58.967 427.994 57.6869 431.597C56.4068 435.199 54.6298 439.572 53.4531 443.692L391.818 583.235C392.251 580.912 394.457 577.179 397.472 569.45Z" fill="#D9D9D9" fill-opacity="0.07"/>
<path d="M688.022 330.921H687.576V331.505L688.139 331.352L688.022 330.921ZM573.3 359.087L573.407 359.521V359.521L573.3 359.087ZM697.689 328.298L697.806 328.729L697.689 328.298ZM563.562 364.438H563.116L563.116 364.438L563.562 364.438ZM566.609 360.728L566.503 360.294H566.503L566.609 360.728ZM566.897 427.748L566.782 427.317L566.897 427.748ZM563.631 428.644L563.185 428.645C563.185 428.785 563.25 428.916 563.362 429C563.473 429.085 563.618 429.112 563.752 429.074L563.631 428.644ZM698.073 392.676L697.958 392.245L698.073 392.676ZM701.034 391.855L701.159 392.284L701.48 392.19V391.855H701.034ZM684.764 314.781L684.867 315.215L684.764 314.781ZM579.426 339.754L579.323 339.32L579.426 339.754ZM579.426 339.754L579.529 340.189L684.867 315.215L684.764 314.781L684.661 314.347L579.323 339.32L579.426 339.754ZM698.073 392.676L697.958 392.245L566.782 427.317L566.897 427.748L567.013 428.18L698.189 393.108L698.073 392.676ZM563.631 428.644L564.078 428.644L564.009 364.437L563.562 364.438L563.116 364.438L563.185 428.645L563.631 428.644ZM701.034 330.666H700.587V391.855H701.034H701.48V330.666H701.034ZM688.022 317.171H687.576V330.921H688.022H688.469V317.171H688.022ZM688.022 330.921L688.139 331.352L697.806 328.729L697.689 328.298L697.572 327.867L687.905 330.49L688.022 330.921ZM566.609 360.728L566.716 361.161L573.407 359.521L573.3 359.087L573.194 358.654L566.503 360.294L566.609 360.728ZM576.347 355.377H576.794V343.472H576.347H575.901V355.377H576.347ZM573.3 359.087L573.407 359.521C575.384 359.036 576.794 357.345 576.794 355.377H576.347H575.901C575.901 356.9 574.805 358.259 573.194 358.654L573.3 359.087ZM701.034 330.666H701.48C701.48 328.696 699.495 327.345 697.572 327.867L697.689 328.298L697.806 328.729C699.232 328.342 700.587 329.356 700.587 330.666H701.034ZM563.562 364.438H564.009C564.009 362.915 565.104 361.556 566.716 361.161L566.609 360.728L566.503 360.294C564.526 360.779 563.116 362.47 563.116 364.438H563.562ZM566.897 427.748L566.782 427.317C565.944 427.541 565.126 427.765 564.518 427.934C564.214 428.018 563.962 428.088 563.786 428.137C563.698 428.162 563.629 428.181 563.582 428.194C563.559 428.201 563.541 428.206 563.528 428.209C563.522 428.211 563.518 428.212 563.515 428.213C563.513 428.214 563.512 428.214 563.511 428.214C563.511 428.214 563.511 428.214 563.51 428.215C563.51 428.215 563.51 428.215 563.51 428.215C563.51 428.215 563.51 428.215 563.51 428.215C563.51 428.215 563.51 428.215 563.631 428.644C563.752 429.074 563.752 429.074 563.752 429.074C563.752 429.074 563.752 429.074 563.752 429.074C563.752 429.074 563.752 429.074 563.752 429.074C563.753 429.074 563.753 429.074 563.753 429.074C563.754 429.074 563.755 429.073 563.757 429.073C563.76 429.072 563.764 429.071 563.77 429.069C563.782 429.066 563.8 429.061 563.824 429.054C563.87 429.041 563.939 429.022 564.026 428.997C564.202 428.948 564.453 428.878 564.756 428.794C565.363 428.626 566.178 428.403 567.013 428.18L566.897 427.748ZM698.073 392.676L698.189 393.108C699.067 392.873 699.809 392.667 700.332 392.52C700.593 392.446 700.799 392.387 700.941 392.347C701.012 392.326 701.066 392.311 701.103 392.3C701.121 392.295 701.135 392.291 701.145 392.288C701.149 392.287 701.153 392.286 701.155 392.285C701.156 392.285 701.157 392.284 701.158 392.284C701.158 392.284 701.159 392.284 701.159 392.284C701.159 392.284 701.159 392.284 701.159 392.284C701.159 392.284 701.159 392.284 701.159 392.284C701.159 392.284 701.159 392.284 701.034 391.855C700.909 391.427 700.909 391.427 700.909 391.427C700.909 391.427 700.909 391.427 700.909 391.427C700.909 391.427 700.909 391.427 700.909 391.427C700.908 391.427 700.908 391.427 700.908 391.427C700.907 391.427 700.907 391.427 700.905 391.428C700.903 391.428 700.9 391.429 700.895 391.431C700.886 391.433 700.872 391.437 700.854 391.442C700.818 391.453 700.764 391.468 700.694 391.488C700.554 391.529 700.349 391.587 700.089 391.66C699.57 391.807 698.832 392.011 697.958 392.245L698.073 392.676ZM684.764 314.781L684.867 315.215C686.275 314.882 687.576 315.888 687.576 317.171H688.022H688.469C688.469 315.243 686.561 313.896 684.661 314.347L684.764 314.781ZM579.426 339.754L579.323 339.32C577.328 339.793 575.901 341.491 575.901 343.472H576.347H576.794C576.794 341.939 577.903 340.574 579.529 340.189L579.426 339.754Z" fill="white"/>
<path d="M580.148 424.35V344.175C580.148 343.548 580.601 343.002 581.247 342.848L687.738 317.498V395.748" stroke="white" stroke-width="0.357193"/>
<path d="M563.773 428.475L574.187 433.191C576.833 434.389 579.813 434.628 582.617 433.868L712.749 398.575C713.403 398.397 713.465 397.493 712.841 397.228L700.734 392.082" stroke="white" stroke-width="0.892982"/>
<path d="M712.953 397.498V401.186C712.953 401.508 712.738 401.791 712.427 401.875L582.638 437.297C579.825 438.065 576.832 437.825 574.177 436.619L564.379 432.169C563.677 431.85 563.227 431.151 563.227 430.38V428.043" stroke="white" stroke-width="0.357193"/>
</g>
<path d="M193.629 331.615C180.689 298.339 155.22 270.731 120.93 253.289L117.617 259.834C150.126 276.37 174.143 302.341 186.484 333.475L160.941 320.484C159.12 319.557 156.896 320.284 155.974 322.107C155.062 323.908 155.761 326.11 157.544 327.056L185.693 341.987L194.521 346.391L195.523 344.131L213.385 308.839C214.3 307.03 213.577 304.818 211.77 303.899C209.963 302.98 207.756 303.701 206.841 305.51L193.629 331.615Z" fill="#4FE2CE"/>
<path d="M461.567 425.111C474.507 391.835 499.975 364.227 534.266 346.785L537.578 353.33C505.069 369.866 481.052 395.837 468.712 426.972L494.254 413.98C496.075 413.053 498.299 413.78 499.222 415.603C500.133 417.404 499.434 419.606 497.651 420.552L469.502 435.483L460.674 439.887L459.672 437.627L441.811 402.335C440.895 400.526 441.618 398.314 443.425 397.395C445.232 396.476 447.439 397.197 448.355 399.006L461.567 425.111Z" fill="#4FE2CE"/>
<defs>
<radialGradient id="paint0_radial_4961_119130" cx="0" cy="0" r="1" gradientUnits="userSpaceOnUse" gradientTransform="translate(338.727 398.94) rotate(87.9774) scale(189.355 337.178)">
<stop offset="0.672471" stop-color="#737373"/>
<stop offset="1" stop-color="#D9D9D9" stop-opacity="0"/>
</radialGradient>
<linearGradient id="paint1_linear_4961_119130" x1="629.519" y1="605.549" x2="651.852" y2="655.069" gradientUnits="userSpaceOnUse">
<stop/>
<stop offset="1" stop-opacity="0"/>
</linearGradient>
</defs>
</svg>
