<svg width="1270" height="732" viewBox="0 0 1270 732" fill="none" xmlns="http://www.w3.org/2000/svg">
<mask id="mask0_7228_296787" style="mask-type:alpha" maskUnits="userSpaceOnUse" x="378" y="203" width="537" height="502">
<rect x="378.984" y="203" width="536" height="502" fill="url(#paint0_radial_7228_296787)"/>
</mask>
<g mask="url(#mask0_7228_296787)">
<path d="M553.214 476.433L554.229 478.525C556.476 483.16 564.467 486.426 574.405 486.772L671.694 490.16C681.632 490.506 691.514 487.863 696.648 483.485L698.965 481.51C704.099 477.132 713.982 474.489 723.92 474.835L734.344 475.198C741.687 475.454 748.662 472.885 750.297 469.324C751.931 465.763 758.906 463.195 766.249 463.451L771.66 463.639C782.558 464.019 792.773 460.012 794.478 454.69L828.324 286.505C829.825 281.819 823.26 277.748 813.661 277.414L808.894 277.248C802.426 277.023 797.85 274.388 798.429 271.222C799.008 268.056 794.431 265.421 787.963 265.195L778.781 264.875C770.027 264.571 762.988 261.694 761.008 257.613L760.114 255.771C758.134 251.689 751.095 248.813 742.341 248.508L656.643 245.523C647.889 245.218 639.184 247.546 634.662 251.401L632.622 253.141C628.1 256.996 619.395 259.324 610.641 259.019L601.458 258.699C594.99 258.474 588.846 260.736 587.407 263.872C585.967 267.008 579.823 269.27 573.355 269.044L568.589 268.878C558.989 268.544 549.991 272.072 548.49 276.759L476.795 443.626C475.091 448.948 482.544 453.569 493.441 453.949L498.852 454.137C506.195 454.393 511.39 457.385 510.733 460.98C510.076 464.575 515.271 467.568 522.614 467.823L533.038 468.187C542.976 468.533 550.966 471.799 553.214 476.433Z" stroke="white" stroke-width="2"/>
<path d="M828.532 284.889L845.362 383.389C845.405 383.507 845.444 383.626 845.478 383.746C845.996 385.561 845.32 387.406 845.128 389.235L823.887 590.976C823.695 592.805 823.413 594.68 822.297 596.083C818.548 600.798 808.631 604.072 798.149 603.707L792.114 603.496C783.924 603.211 776.144 606.076 774.322 610.047C772.499 614.019 764.719 616.883 756.529 616.598L744.903 616.193C733.819 615.807 722.797 618.756 717.071 623.638L714.487 625.842C708.761 630.724 697.738 633.672 686.655 633.286L578.147 629.507C567.063 629.121 558.151 625.478 555.644 620.309L554.512 617.976C552.005 612.807 543.093 609.164 532.01 608.778L520.383 608.373C512.194 608.088 506.399 604.751 507.133 600.741C507.866 596.732 502.072 593.394 493.882 593.109L487.847 592.899C478.135 592.561 470.876 589.201 469.321 584.836C468.52 582.589 469.344 580.211 469.466 577.891L476.516 444.403" stroke="white" stroke-width="2"/>
<path d="M799.847 342.924L800.108 350.401C800.104 350.961 800.005 351.534 799.802 352.114C797.836 357.74 786.931 361.976 775.445 361.576L550.144 353.729C540.113 353.38 532.957 349.61 532.614 344.913L532.157 337.215M736.951 263.325L737.189 270.159C737.211 270.879 737.097 271.616 736.835 272.365L730.045 292.739C727.751 299.303 715.029 304.245 701.629 303.778L660.266 302.36C648.697 301.957 640.088 297.654 639.514 292.262L639.29 285.841M623.669 284.666L623.88 290.692C623.886 291.17 623.805 291.659 623.632 292.155C622.034 296.726 612.818 300.074 603.486 299.749L575.756 298.783C567.332 298.49 561.254 295.227 561.355 291.232L561.178 286.158M808.242 290.213L808.452 296.238C808.458 296.716 808.377 297.205 808.204 297.701C806.607 302.273 797.39 305.62 788.058 305.295L760.329 304.33C751.904 304.036 745.826 300.773 745.928 296.778L745.751 291.704M571.143 426.01L571.353 432.035C571.359 432.513 571.278 433.002 571.105 433.498C569.507 438.069 560.291 441.417 550.959 441.092L523.23 440.126C514.805 439.833 508.727 436.57 508.829 432.575L508.651 427.501M756.169 431.718L756.379 437.743C756.385 438.221 756.304 438.71 756.131 439.206C754.533 443.777 745.317 447.125 735.985 446.8L708.256 445.834C699.831 445.541 693.753 442.278 693.855 438.283L693.677 433.209M675.347 432.988L675.585 439.822C675.607 440.542 675.493 441.279 675.231 442.028L668.441 462.402C666.147 468.966 653.425 473.908 640.025 473.441L598.662 472.023C587.093 471.62 578.484 467.317 577.91 461.925L577.686 455.504" stroke="white"/>
<path d="M523.307 434.416C513.975 434.091 507.705 430.122 509.302 425.551C510.9 420.979 519.76 417.537 529.093 417.862L556.822 418.828C566.154 419.153 572.424 423.122 570.827 427.693C569.229 432.265 560.369 435.707 551.037 435.382L523.307 434.416Z" stroke="white" stroke-width="2"/>
<path d="M598.153 464.948C584.753 464.481 575.749 458.782 578.043 452.218L585.164 431.845C587.458 425.281 600.18 420.338 613.58 420.805L654.308 422.223C667.708 422.69 676.711 428.389 674.417 434.953L667.297 455.327C665.003 461.891 652.281 466.833 638.88 466.367L598.153 464.948Z" stroke="white" stroke-width="2"/>
<path d="M660.052 296.207C646.651 295.74 637.648 290.041 639.942 283.477L647.062 263.103C649.356 256.539 662.079 251.597 675.479 252.064L716.206 253.482C729.606 253.949 738.61 259.648 736.316 266.212L729.196 286.586C726.902 293.149 714.179 298.092 700.779 297.625L660.052 296.207Z" stroke="white" stroke-width="2"/>
<path d="M575.564 293.264C566.232 292.939 559.961 288.97 561.559 284.399C563.156 279.828 572.017 276.385 581.349 276.71L609.078 277.676C618.411 278.001 624.681 281.97 623.083 286.542C621.486 291.113 612.625 294.555 603.293 294.23L575.564 293.264Z" stroke="white" stroke-width="2"/>
<path d="M549.907 346.942C538.421 346.542 530.704 341.657 532.67 336.031C534.637 330.404 545.542 326.168 557.028 326.568L782.328 334.415C793.814 334.815 801.531 339.7 799.565 345.326C797.599 350.952 786.694 355.189 775.208 354.789L549.907 346.942Z" stroke="white" stroke-width="2"/>
<path d="M760.137 299.693C750.805 299.368 744.535 295.399 746.132 290.827C747.73 286.256 756.59 282.814 765.922 283.139L793.652 284.105C802.984 284.43 809.254 288.399 807.657 292.97C806.059 297.541 797.199 300.984 787.866 300.659L760.137 299.693Z" stroke="white" stroke-width="2"/>
<path d="M707.881 440.845C698.548 440.52 692.278 436.55 693.876 431.979C695.473 427.408 704.334 423.966 713.666 424.291L741.395 425.257C750.727 425.582 756.998 429.551 755.4 434.122C753.802 438.693 744.942 442.135 735.61 441.81L707.881 440.845Z" stroke="white" stroke-width="2"/>
<path d="M523.307 434.416C513.975 434.091 507.705 430.122 509.302 425.551C510.9 420.979 519.76 417.537 529.093 417.862L556.822 418.828C566.154 419.153 572.424 423.122 570.827 427.693C569.229 432.265 560.369 435.707 551.037 435.382L523.307 434.416Z" fill="#D9D9D9" fill-opacity="0.1"/>
<path d="M598.153 464.948C584.753 464.481 575.749 458.782 578.043 452.218L585.164 431.845C587.458 425.281 600.18 420.338 613.58 420.805L654.308 422.223C667.708 422.69 676.711 428.389 674.417 434.953L667.297 455.327C665.003 461.891 652.281 466.833 638.88 466.367L598.153 464.948Z" fill="#D9D9D9" fill-opacity="0.1"/>
<path d="M660.052 296.207C646.651 295.74 637.648 290.041 639.942 283.477L647.062 263.103C649.356 256.539 662.079 251.597 675.479 252.064L716.206 253.482C729.606 253.949 738.61 259.648 736.316 266.212L729.196 286.586C726.902 293.149 714.179 298.092 700.779 297.625L660.052 296.207Z" fill="#D9D9D9" fill-opacity="0.1"/>
<path d="M575.564 293.264C566.232 292.939 559.961 288.97 561.559 284.399C563.156 279.828 572.017 276.385 581.349 276.71L609.078 277.676C618.411 278.001 624.681 281.97 623.083 286.542C621.486 291.113 612.625 294.555 603.293 294.23L575.564 293.264Z" fill="#D9D9D9" fill-opacity="0.1"/>
<path d="M549.907 346.942C538.421 346.542 530.704 341.657 532.67 336.031C534.637 330.404 545.542 326.168 557.028 326.568L782.328 334.415C793.814 334.815 801.531 339.7 799.565 345.326C797.599 350.952 786.694 355.189 775.208 354.789L549.907 346.942Z" fill="#D9D9D9" fill-opacity="0.1"/>
<path d="M760.137 299.693C750.805 299.368 744.535 295.399 746.132 290.827C747.73 286.256 756.59 282.814 765.922 283.139L793.652 284.105C802.984 284.43 809.254 288.399 807.656 292.97C806.059 297.541 797.199 300.984 787.866 300.659L760.137 299.693Z" fill="#D9D9D9" fill-opacity="0.1"/>
<path d="M707.881 440.845C698.548 440.52 692.278 436.55 693.876 431.979C695.473 427.408 704.333 423.966 713.666 424.291L741.395 425.257C750.727 425.582 756.998 429.551 755.4 434.122C753.802 438.693 744.942 442.135 735.61 441.81L707.881 440.845Z" fill="#D9D9D9" fill-opacity="0.1"/>
<path d="M837.327 335.719C866.031 339.212 872.486 351.263 869.662 377.754L849.249 619.944C846.939 647.343 820.555 670.415 792.712 669.382L471.741 657.473C443.204 656.414 426.3 630.583 436.034 602.91L473.086 508.875" stroke="white" stroke-width="2"/>
<path opacity="0.1" d="M554.692 618.298L555.823 620.631C558.331 625.8 567.242 629.443 578.326 629.829L686.834 633.608C697.918 633.994 708.94 631.046 714.666 626.163L717.25 623.96C722.976 619.078 733.999 616.129 745.083 616.515L756.709 616.92C764.899 617.205 772.679 614.341 774.501 610.369C776.324 606.398 784.104 603.533 792.294 603.818L798.329 604.029C809.397 604.414 819.834 600.743 823.046 595.601C823.651 594.634 823.839 593.464 823.961 592.304L845.413 388.551C845.535 387.391 845.892 386.259 845.828 385.082C845.803 384.615 845.706 384.157 845.541 383.711L837.507 336.039C866.211 339.532 872.665 351.583 869.841 378.074L849.428 620.264C847.119 647.664 820.734 670.735 792.892 669.702L471.921 657.794C443.384 656.735 426.48 630.904 436.214 603.231L473.265 509.195L469.578 579.491C469.5 580.963 469.07 582.408 469.215 583.89C469.699 588.858 477.392 592.851 488.026 593.221L494.062 593.431C502.251 593.716 508.045 597.054 507.312 601.063C506.579 605.073 512.373 608.41 520.563 608.695L532.189 609.1C543.273 609.486 552.185 613.129 554.692 618.298Z" fill="#D9D9D9"/>
<path d="M533.009 384.471L533.501 383.274L536.871 385.926L542.149 383.997L541.65 385.214L537.617 386.657L540.226 388.678L539.73 389.885L536.335 387.2L531.102 389.113L531.602 387.897L535.582 386.459L533.009 384.471Z" fill="white"/>
<path d="M535.862 377.529L536.354 376.332L539.724 378.984L545.002 377.055L544.502 378.272L540.47 379.715L543.079 381.736L542.583 382.943L539.188 380.258L533.954 382.171L534.454 380.955L538.434 379.517L535.862 377.529Z" fill="white"/>
<path d="M538.715 370.587L539.207 369.39L542.577 372.042L547.855 370.113L547.355 371.329L543.322 372.773L545.931 374.794L545.435 376.001L542.041 373.316L536.807 375.229L537.307 374.013L541.287 372.575L538.715 370.587Z" fill="white"/>
<path d="M541.453 363.923L541.945 362.726L545.315 365.378L550.593 363.449L550.094 364.665L546.061 366.108L548.67 368.13L548.174 369.337L544.779 366.652L539.546 368.565L540.046 367.348L544.026 365.911L541.453 363.923Z" fill="white"/>
<path d="M530.744 394.218L524.322 394.229L529.64 401.971L517.96 409.712L534.355 409.735L538.463 407.049H526.149L533.809 401.972L533.808 401.97L533.81 401.969L530.323 396.893H532.581M537.333 396.893H542.636L540.737 394.206L535.441 394.212M528.526 406.985L536.091 401.971L529.2 391.942H533.931L540.819 401.969L540.817 401.97L540.818 401.972L533.253 406.986M524.467 409.676L520.962 412H525.688L529.183 409.684" stroke="white" stroke-width="1.00129"/>
<path d="M568.422 369.054L564.761 368.99L565.086 368.111L567.621 368.155L568.034 367.036L565.589 366.993L565.908 366.128L568.354 366.171L568.773 365.038L566.179 364.993L566.504 364.114L570.225 364.179L568.422 369.054Z" fill="white"/>
<path d="M560.933 368.923L559.644 368.901L562.326 366.508L561.431 364.026L562.728 364.048L563.267 365.737L565.048 364.089L566.345 364.111L563.638 366.531L564.528 368.986L563.231 368.963L562.679 367.309L560.933 368.923Z" fill="white"/>
<path d="M557.283 368.86C556.023 368.838 555.483 368.22 555.848 367.232C556.214 366.243 557.203 365.645 558.463 365.667L559.441 365.684L560.063 364.002L561.19 364.021L559.388 368.896L557.283 368.86ZM559.117 366.563L558.205 366.547C557.612 366.537 557.18 366.778 557.004 367.252C556.829 367.725 557.081 367.972 557.674 367.982L558.586 367.998L559.117 366.563Z" fill="white"/>
<path d="M565.45 376.305L565.84 376.312L564.838 379.022L564.448 379.015L565.45 376.305ZM564.715 375.601C564.405 375.305 564.619 374.726 565.142 374.444L566.385 373.775L566.775 373.782C566.739 373.882 566.659 373.975 566.557 374.042L566.512 374.068L565.269 374.737C565.007 374.878 564.9 375.168 565.055 375.316L565.791 376.02L565.816 376.048C565.86 376.107 565.873 376.186 565.853 376.27L565.84 376.312L565.45 376.305L564.715 375.601ZM567.387 371.065L567.777 371.072L566.775 373.782L566.385 373.775L567.387 371.065ZM563.096 370.99L562.094 373.7L562.827 374.404C563.136 374.701 562.922 375.279 562.4 375.561L561.159 376.23L560.157 378.94L564.838 379.022L564.823 379.059C564.741 379.229 564.545 379.361 564.355 379.376L564.315 379.377L560.024 379.302C559.808 379.298 559.693 379.133 559.767 378.934L560.769 376.223C560.811 376.11 560.908 376.004 561.032 375.937L562.273 375.267C562.517 375.135 562.626 374.873 562.512 374.719L562.486 374.689L561.753 373.985C561.689 373.924 561.667 373.834 561.691 373.736L561.704 373.694L562.706 370.983C562.78 370.784 563.014 370.625 563.23 370.629L567.521 370.704C567.723 370.707 567.836 370.852 567.789 371.035L567.777 371.072L563.096 370.99Z" fill="white"/>
<path d="M562.295 373.158L563.096 370.99L567.387 371.065L566.586 373.233L562.295 373.158Z" fill="white"/>
<mask id="mask1_7228_296787" style="mask-type:alpha" maskUnits="userSpaceOnUse" x="545" y="299" width="62" height="30">
<path d="M555.637 326.526C551.809 326.019 547.093 327.372 545.213 328.112C547.821 323.989 553.452 314.856 555.106 311.304C557.174 306.864 554.907 305.596 557.621 301.473C560.335 297.35 563.655 301.473 565.878 301.473C568.101 301.473 587.528 303.059 590.046 302.424C592.061 301.917 601.939 303.481 606.626 304.327L595.707 328.112H585.227C576.335 328.112 560.423 327.16 555.637 326.526Z" fill="#D9D9D9"/>
</mask>
<g mask="url(#mask1_7228_296787)">
<rect width="38.6913" height="30.6426" transform="matrix(1.00061 0.0348506 -0.375128 0.912869 560.109 304.328)" stroke="white" stroke-width="2.00259"/>
<path d="M566.289 304.677L557.067 312.086" stroke="white" stroke-width="1.00129" stroke-linejoin="round"/>
<path d="M562.479 304.632L563.343 313.858M563.343 313.858L565.108 332.701M563.343 313.858L571.229 304.937M563.343 313.858L550.553 328.329M572.727 304.989L572.968 307.563M572.968 307.563L573.52 313.456M572.968 307.563L555.013 317.329L558.759 321.942M572.968 307.563L577.402 305.152L577.801 309.064M573.52 313.456L573.61 314.414M573.52 313.456L577.801 309.064M573.52 313.456L571.587 315.439M573.61 314.414L574.122 319.881M573.61 314.414L571.587 315.439M573.61 314.414L578.115 312.13M574.122 319.881L574.533 324.266M574.122 319.881L568.485 323.577M574.122 319.881L578.606 316.941M574.533 324.266L574.913 328.323M574.533 324.266L579.411 324.821M574.533 324.266L568.485 323.577M574.913 328.323L575.246 331.883M574.913 328.323L579.485 325.545M574.913 328.323L570.948 330.731M575.246 331.883L575.356 333.058M575.246 331.883L580.27 333.229L579.485 325.545M575.246 331.883L570.948 330.731M581.477 305.294L577.801 309.064M577.801 309.064L578.115 312.13M571.587 315.439L564.137 323.082M571.587 315.439L558.759 321.942M564.137 323.082L561.708 325.574M564.137 323.082L568.485 323.577M564.137 323.082L559.231 322.523M561.708 325.574L559.635 327.7M561.708 325.574L563.004 327.17M561.708 325.574L559.231 322.523M559.635 327.7L555.1 332.353L561.453 328.187M559.635 327.7L561.453 328.187M559.635 327.7L551.632 325.556L557.911 322.373M561.453 328.187L563.004 327.17M561.453 328.187L564.491 329.001M563.004 327.17L568.485 323.577M563.004 327.17L564.491 329.001M578.606 316.941L585.929 312.14M578.606 316.941L578.115 312.13M578.606 316.941L579.411 324.821M585.929 312.14L589.612 309.725M585.929 312.14L584.764 322.338M585.929 312.14L586.411 307.924M589.612 309.725L590.79 308.953M589.612 309.725L587.867 307.186M589.612 309.725L590.733 311.356M590.79 308.953L595.62 305.786L592.221 313.52M590.79 308.953L590.868 305.665L587.867 307.186M590.79 308.953L590.733 311.356M592.221 313.52L590.595 317.219M592.221 313.52L590.733 311.356M592.221 313.52L594.3 316.545L590.557 318.819M590.595 317.219L589.649 319.37M590.595 317.219L590.733 311.356M590.595 317.219L590.557 318.819M589.649 319.37L586.879 325.672M589.649 319.37L590.557 318.819M589.649 319.37L584.764 322.338M586.879 325.672L583.507 333.342L584.415 325.391M586.879 325.672L590.385 326.071L590.557 318.819M586.879 325.672L584.415 325.391M584.415 325.391L584.764 322.338M584.415 325.391L580.477 324.943M584.764 322.338L580.477 324.943M586.411 307.924L586.691 305.475L587.867 307.186M586.411 307.924L578.115 312.13M586.411 307.924L587.867 307.186M580.477 324.943L579.485 325.545M580.477 324.943L579.411 324.821M579.485 325.545L579.411 324.821M570.948 330.731L567.565 332.787L564.491 329.001M570.948 330.731L564.491 329.001M559.231 322.523L558.759 321.942M559.231 322.523L557.911 322.373M558.759 321.942L557.911 322.373M557.911 322.373L553.162 321.832" stroke="white" stroke-width="1.00129"/>
</g>
<g opacity="0.1">
<path d="M675.688 490.517C684.966 488.542 691.79 488.366 700.432 480.651L718.085 622.406C706.099 632.02 698.812 633.403 685.434 633.188L675.688 490.517Z" fill="#D9D9D9"/>
<path d="M723.109 475.259C732.296 474.625 743.533 478.114 751.151 468.917L773.874 610.355C762.336 619.61 755.33 616.604 742.451 616.397L723.109 475.259Z" fill="#D9D9D9"/>
<path d="M772.58 464.16C781.512 462.258 786.191 463.025 794.511 455.598L823.179 594.499C814.981 605.281 805.235 603.268 792.356 603.061L772.58 464.16Z" fill="#D9D9D9"/>
</g>
<g opacity="0.1">
<path d="M579.658 486.992C568.543 486.992 563.189 487.694 554.008 479.979L554.052 617.648C557.493 625.259 568.738 629.913 582.101 629.699L579.658 486.992Z" fill="#D9D9D9"/>
<path d="M530.088 467.964C520.856 467.33 514.867 468.598 510.55 463.207L506.508 602.109C510.223 608.451 517.527 608.451 524.831 608.451L530.088 467.964Z" fill="#D9D9D9"/>
<path d="M493.726 454.328C484.661 452.426 484.865 455.096 476.027 447.668L468.721 584.032C471.801 590.375 479.194 592.912 489.991 592.912L493.726 454.328Z" fill="#D9D9D9"/>
</g>
</g>
<mask id="mask2_7228_296787" style="mask-type:alpha" maskUnits="userSpaceOnUse" x="0" y="364" width="1270" height="429">
<path d="M168.373 394.042L502.984 384.853L475.984 446.999L471.984 511.999L435.632 602.406C425.32 628.051 443.505 656.176 471.123 657.296L807.517 670.939C828.996 671.81 847.322 655.549 849.014 634.119L869.484 374.788L1262.34 363.999L1269.12 757.01L-0.00129179 792.887L168.373 394.042Z" fill="url(#paint1_linear_7228_296787)"/>
</mask>
<g mask="url(#mask2_7228_296787)">
<path d="M310.723 396.481L20.9954 542.625M353.579 395.456L33.4761 557.864M396.436 394.432L45.9568 573.102M439.291 393.408L58.4374 588.341M482.147 392.383L70.9181 603.579M525.003 391.359L83.3987 618.818M567.859 390.335L95.8797 634.057M610.715 389.31L108.36 649.296M653.571 388.286L120.841 664.534M696.427 387.262L133.322 679.773M739.283 386.237L145.802 695.011M782.139 385.213L158.283 710.25M824.995 384.189L172.662 724.472M867.851 383.164L202.229 730.563M910.707 382.14L245.085 729.538M953.564 381.116L287.941 728.514M996.42 380.092L805.376 479.8L779.341 493.388L753.306 506.976L330.797 727.49M1038.33 379.575L845.06 480.441L761.752 523.918L373.653 726.466M1082.13 378.043L769.488 541.216L741.265 555.947L714.145 570.101L416.509 725.441M1124.99 377.019L775.568 559.386L723.931 586.336L459.365 724.417M1166.9 376.502L781.18 577.805L730.292 604.363L502.221 723.393M1210.7 374.97L917.261 528.121L776.297 601.692L545.077 722.368M1252.61 374.454L749.979 636.773L587.933 721.344M1295.46 373.429L925.605 566.457L630.789 720.32M1322.18 381.045L768.663 669.738L673.646 719.295M1287.18 421.189L933.482 605.317L716.502 718.271M1299.66 436.428L799.103 696.589L759.358 717.247M1312.14 451.667L937.86 645.848L802.214 716.222M1324.62 466.905L845.07 715.198M1337.1 482.144L887.926 714.174M1348.02 495.478L925.425 713.277M1358.95 508.812L962.924 712.381M1369.87 522.145L1000.42 711.485M1380.79 535.479L1037.92 710.589M1391.71 548.813L1075.42 709.692M1402.63 562.146L1112.92 708.796M1413.55 575.48L1150.42 707.9M1424.47 588.814L1187.92 707.003M1435.39 602.148L1225.42 706.107M291.346 384.137L1.61813 530.281M290.909 358.789L1.18129 504.933" stroke="url(#paint2_radial_7228_296787)" stroke-width="2.79646" stroke-linecap="round" stroke-linejoin="round" stroke-dasharray="2.8 11.19"/>
</g>
<mask id="mask3_7228_296787" style="mask-type:alpha" maskUnits="userSpaceOnUse" x="471" y="33" width="730" height="246">
<rect x="471.984" y="33" width="729" height="246" fill="url(#paint3_linear_7228_296787)"/>
</mask>
<g mask="url(#mask3_7228_296787)">
<path d="M517.404 131.539C517.042 142.397 514.512 159.75 519.933 180.38C525.354 201.009 542.702 203.542 554.629 203.542C563.299 203.542 624.906 203.43 657.62 203.531C659.751 203.538 661.832 202.91 663.605 201.727C665.366 200.551 667.436 199.923 669.554 199.923H774.369" stroke="url(#paint4_linear_7228_296787)"/>
<path d="M523.359 127.373C505.55 193.827 545.954 196.667 555.351 196.667H1015.79C1023.38 196.667 1026.66 192.751 1026.66 183.945C1026.66 152.924 1024.27 120.226 1020.1 91.642C1017.55 74.1447 998.228 75.786 984.856 75.786C971.484 75.786 589.468 75.4239 581.879 75.7858C574.289 76.1477 538.521 70.7993 523.359 127.373Z" stroke="white"/>
<path d="M630.526 235.754C641.368 235.754 658.716 226.344 671.727 226.344C782.92 226.344 894.115 224.896 1005.31 224.896C1014.71 224.896 1017.6 222.001 1022.3 219.106C1027 216.211 1033.86 196.305 1032.42 184C1030.97 171.694 1028.64 117.12 1024.28 92.8327C1020.11 69.6082 996.088 71.4424 992.112 71.4424C988.137 71.4424 916.405 71.8043 881.709 71.4424C847.013 71.0805 592.147 72.8905 576.967 72.8905C541.537 72.8905 526.34 95.8103 517.15 136.226C509.688 169.044 517.909 197.391 521.74 216.572C523.692 226.344 531.137 235.754 545.955 235.754H630.526Z" stroke="white" stroke-width="2"/>
<path d="M572.606 86.2323C573.055 82.7402 576.028 80.125 579.549 80.125H970.502C973.897 80.125 976.802 82.5601 977.395 85.9021L995.026 185.272C995.678 188.948 992.851 192.32 989.118 192.32H565.786C562.168 192.32 559.373 189.143 559.835 185.555L572.606 86.2323Z" fill="#1C192D"/>
<path d="M571.588 86.2974C572.007 82.7764 574.993 80.125 578.539 80.125H981.763C985.436 80.125 988.484 82.9638 988.745 86.6275L995.818 185.894C996.066 189.367 993.315 192.32 989.833 192.32H565.722C562.127 192.32 559.339 189.181 559.764 185.611L571.588 86.2974Z" stroke="white" stroke-width="2"/>
<path d="M556.796 208.97H572.867C573.971 208.97 574.867 209.865 574.867 210.97V217.104C574.867 218.208 573.971 219.104 572.867 219.104H556.796M556.796 208.97V219.104M556.796 208.97C549.568 208.97 533.666 210.056 527.16 201.008M556.796 219.104C550.652 219.345 532.943 219.828 529.329 211.865" stroke="url(#paint5_linear_7228_296787)"/>
<rect x="600.168" y="211.145" width="49.1523" height="9.40992" rx="4.70496" stroke="white" stroke-width="2"/>
<rect x="686.547" y="208.246" width="49.1523" height="9.40992" rx="4.70496" stroke="white" stroke-width="2"/>
<path d="M649.68 215.849V213.678C649.68 211.079 647.576 208.973 644.981 208.973H604.503C601.908 208.973 599.805 211.079 599.805 213.678V215.487" stroke="white"/>
<path d="M736.059 212.951V210.779C736.059 208.181 733.955 206.074 731.36 206.074H690.882C688.287 206.074 686.184 208.181 686.184 210.779V212.589" stroke="white"/>
<ellipse cx="541.872" cy="170.968" rx="5.78263" ry="3.25728" stroke="white" stroke-width="2"/>
<ellipse cx="553.885" cy="103.643" rx="2.5299" ry="1.44768" stroke="white" stroke-width="2"/>
<ellipse cx="555.077" cy="96.6625" rx="2.5299" ry="1.44768" stroke="white" stroke-width="2"/>
<path d="M535.503 122.722C535.626 122.137 536.195 121.672 536.79 121.672C537.398 121.672 537.806 122.158 537.7 122.757L534.241 142.369C534.105 143.143 533.357 143.77 532.572 143.77C531.768 143.77 531.24 143.115 531.405 142.324L535.503 122.722Z" fill="white"/>
<rect width="5.78263" height="23.8868" rx="2.89131" transform="matrix(1 0 -0.156463 0.987684 546.566 120.227)" stroke="white" stroke-width="2"/>
</g>
<mask id="mask4_7228_296787" style="mask-type:alpha" maskUnits="userSpaceOnUse" x="386" y="189" width="374" height="373">
<path d="M531.984 235.5C525.484 231 525.984 204 515.984 189L428.984 233L386.984 300C400.651 370.333 428.184 512.6 428.984 519C429.784 525.4 548.651 550.333 607.984 562L759.984 532L628.484 233C624.651 232.833 614.584 235.1 590.984 235.5C561.484 236 538.484 240 531.984 235.5Z" fill="#D9D9D9"/>
</mask>
<g mask="url(#mask4_7228_296787)">
<path d="M560.484 156L551.984 305L550.627 325.367C550.55 326.521 551.465 327.5 552.622 327.5H588.658C589.462 327.5 590.188 327.019 590.5 326.278L599.22 305.626C599.391 305.22 599.424 304.769 599.312 304.342L560.484 156Z" fill="url(#paint6_linear_7228_296787)" stroke="url(#paint7_linear_7228_296787)" stroke-width="2"/>
</g>
<rect x="1.5379" y="1.67832" width="99.6305" height="74.6305" transform="matrix(1 0 -0.0871557 0.996195 624.131 96.0064)" stroke="white" stroke-width="3.36947"/>
<path d="M640.534 96.3594L622.48 117.529" stroke="white" stroke-width="0.374385"/>
<path d="M630.47 96.6016L640.478 121.787M640.478 121.787L660.916 173.222M640.478 121.787L653.748 96.6016M640.478 121.787L618.952 162.637M657.734 96.6016L660.526 103.628M660.526 103.628L666.919 119.714M660.526 103.628L621.466 132.085L635.192 144.364M660.526 103.628L670.171 96.6016L674.502 107.278M666.919 119.714L667.958 122.329M666.919 119.714L674.502 107.278M666.919 119.714L663.494 125.331M667.958 122.329L673.888 137.253M667.958 122.329L663.494 125.331M667.958 122.329L677.897 115.645M673.888 137.253L678.644 149.222M673.888 137.253L662.153 147.912M673.888 137.253L683.223 128.774M678.644 149.222L683.045 160.297M678.644 149.222L691.947 150.278M678.644 149.222L662.153 147.912M683.045 160.297L686.906 170.015M683.045 160.297L692.748 152.253M683.045 160.297L674.632 167.271M686.906 170.015L688.181 173.222M686.906 170.015L701.255 173.222L692.748 152.253M686.906 170.015L674.632 167.271M681.013 96.6016L674.502 107.278M674.502 107.278L677.897 115.645M663.494 125.331L650.298 146.971M663.494 125.331L635.192 144.364M650.298 146.971L645.995 154.027M650.298 146.971L662.153 147.912M650.298 146.971L636.919 145.909M645.995 154.027L642.323 160.048M645.995 154.027L650.744 158.275M645.995 154.027L636.919 145.909M642.323 160.048L634.289 173.222L647.515 161.209M642.323 160.048L647.515 161.209M642.323 160.048L619.466 154.939L633.32 145.623M647.515 161.209L650.744 158.275M647.515 161.209L656.192 163.149M650.744 158.275L662.153 147.912M650.744 158.275L656.192 163.149M683.223 128.774L698.467 114.927M683.223 128.774L677.897 115.645M683.223 128.774L691.947 150.278M698.467 114.927L706.134 107.963M698.467 114.927L703.95 142.966M698.467 114.927L696.201 103.335M706.134 107.963L708.587 105.735M706.134 107.963L699.413 101.175M706.134 107.963L710.452 112.323M708.587 105.735L718.642 96.6016L716.178 118.106M708.587 105.735L706.035 96.7218L699.413 101.175M708.587 105.735L710.452 112.323M716.178 118.106L715 128.391M716.178 118.106L710.452 112.323M716.178 118.106L724.184 126.191L716.242 132.776M715 128.391L714.315 134.373M715 128.391L710.452 112.323M715 128.391L716.242 132.776M714.315 134.373L712.308 151.895M714.315 134.373L716.242 132.776M714.315 134.373L703.95 142.966M712.308 151.895L709.865 173.222L705.591 151.361M712.308 151.895L721.869 152.654L716.242 132.776M712.308 151.895L705.591 151.361M705.591 151.361L703.95 142.966M705.591 151.361L694.852 150.509M703.95 142.966L694.852 150.509M696.201 103.335L694.885 96.6016L699.413 101.175M696.201 103.335L677.897 115.645M696.201 103.335L699.413 101.175M694.852 150.509L692.748 152.253M694.852 150.509L691.947 150.278M692.748 152.253L691.947 150.278M674.632 167.271L667.454 173.222L656.192 163.149M674.632 167.271L656.192 163.149M636.919 145.909L635.192 144.364M636.919 145.909L633.32 145.623M635.192 144.364L633.32 145.623M633.32 145.623L620.371 144.595" stroke="white" stroke-width="0.748771"/>
<path d="M621.234 91.5013C619.678 91.5013 618.381 92.6907 618.245 94.2407L611.405 172.675C611.179 175.27 613.224 177.501 615.828 177.501L688.003 177.502L696.3 91.5032L621.234 91.5013Z" fill="url(#paint8_linear_7228_296787)" stroke="url(#paint9_linear_7228_296787)" stroke-width="1.71766"/>
<path d="M695.984 90L687.984 180.5" stroke="#4FE2CE" stroke-width="2"/>
<defs>
<radialGradient id="paint0_radial_7228_296787" cx="0" cy="0" r="1" gradientUnits="userSpaceOnUse" gradientTransform="translate(646.984 470.5) rotate(90) scale(234.5 396.012)">
<stop offset="0.658582" stop-color="#D9D9D9"/>
<stop offset="1" stop-color="#D9D9D9" stop-opacity="0"/>
</radialGradient>
<linearGradient id="paint1_linear_7228_296787" x1="814.761" y1="375.999" x2="814.761" y2="655.475" gradientUnits="userSpaceOnUse">
<stop stop-color="#D9D9D9" stop-opacity="0"/>
<stop offset="1" stop-color="#737373"/>
</linearGradient>
<radialGradient id="paint2_radial_7228_296787" cx="0" cy="0" r="1" gradientTransform="matrix(417.656 -19.6885 5.65146 202.442 677.843 488.687)" gradientUnits="userSpaceOnUse">
<stop offset="0.00610134" stop-color="white" stop-opacity="0"/>
<stop offset="0.408122" stop-color="#DEDEDE" stop-opacity="0.1"/>
<stop offset="0.747946" stop-color="#B2B2B2" stop-opacity="0.75"/>
<stop offset="1" stop-color="#999999" stop-opacity="0"/>
</radialGradient>
<linearGradient id="paint3_linear_7228_296787" x1="751.484" y1="173.5" x2="768.984" y2="27.5" gradientUnits="userSpaceOnUse">
<stop stop-color="#D9D9D9"/>
<stop offset="1" stop-color="#D9D9D9" stop-opacity="0"/>
</linearGradient>
<linearGradient id="paint4_linear_7228_296787" x1="691.605" y1="164.455" x2="774.369" y2="164.455" gradientUnits="userSpaceOnUse">
<stop stop-color="white"/>
<stop offset="1" stop-color="#999999" stop-opacity="0"/>
</linearGradient>
<linearGradient id="paint5_linear_7228_296787" x1="561.856" y1="211.142" x2="530.051" y2="209.337" gradientUnits="userSpaceOnUse">
<stop stop-color="white"/>
<stop offset="1" stop-color="#999999" stop-opacity="0"/>
</linearGradient>
<linearGradient id="paint6_linear_7228_296787" x1="546.984" y1="233" x2="551.557" y2="345.923" gradientUnits="userSpaceOnUse">
<stop stop-color="#1DA593"/>
<stop offset="1" stop-color="#1DA593" stop-opacity="0"/>
</linearGradient>
<linearGradient id="paint7_linear_7228_296787" x1="509.281" y1="353" x2="751.537" y2="431.385" gradientUnits="userSpaceOnUse">
<stop stop-color="#4FE2CE"/>
<stop offset="1" stop-color="#4FE2CE" stop-opacity="0"/>
</linearGradient>
<linearGradient id="paint8_linear_7228_296787" x1="678.446" y1="322.162" x2="687.26" y2="27.3682" gradientUnits="userSpaceOnUse">
<stop stop-color="#1DA593"/>
<stop offset="1" stop-color="#1DA593" stop-opacity="0"/>
</linearGradient>
<linearGradient id="paint9_linear_7228_296787" x1="434.533" y1="230.098" x2="636.758" y2="18.9575" gradientUnits="userSpaceOnUse">
<stop stop-color="#4FE2CE"/>
<stop offset="1" stop-color="#4FE2CE" stop-opacity="0"/>
</linearGradient>
</defs>
</svg>
