<svg width="80" height="80" viewBox="0 0 80 80" fill="none" xmlns="http://www.w3.org/2000/svg">
<path d="M51.6654 40L54.1654 45L57.4987 46.6667L62.4987 43.3333L63.332 40H73.332L74.1654 49.1667L72.4987 52.5L67.4987 55.8333V60L74.1654 63.3333V73.3333H39.9987L39.1654 62.5L33.332 57.5L35.832 53.3333L39.9987 51.6667V40H51.6654ZM59.1654 66.6683C59.1654 63.3338 54.1654 63.3338 54.1654 66.6683C54.1662 69.9994 59.1646 69.9994 59.1654 66.6683ZM56.6654 48.3333C54.6658 48.3333 54.1656 49.9272 54.1654 50.8675L54.665 59.1341C54.6652 60.0741 55.2838 60.8333 56.6654 60.8333C58.1651 60.8333 58.6655 60.0725 58.6657 59.1325L59.1654 50.8675C59.1651 49.9272 58.6649 48.3333 56.6654 48.3333Z" fill="white"/>
<path d="M73.7464 53.1252C74.4388 53.1252 74.9996 52.5658 74.9996 51.8752V40C74.9996 20.7 59.2592 5 39.9095 5C-6.63488 6.91872 -6.63809 73.0816 39.9095 75H73.7468C74.4392 75 75 74.4406 75 73.75V61.8748C75 61.1842 74.4392 60.6248 73.7468 60.6248C67.1079 60.4498 67.1231 53.2939 73.7464 53.1252ZM72.4618 38.75H61.8409C61.1485 38.75 60.5877 39.3094 60.5877 40C60.4185 46.6125 53.2407 46.6187 53.0684 40C53.0684 39.3094 52.5076 38.75 51.8152 38.75H41.163V29.2876C44.7159 28.7907 47.4291 26.2158 47.4291 23.1251C47.4291 20.0345 44.7159 17.4595 41.163 16.9626V7.53144C58.1346 8.17519 71.8169 21.822 72.4618 38.75ZM38.6566 7.5316V18.1252C38.6566 18.8158 39.2174 19.3752 39.9098 19.3752C46.5393 19.544 46.5456 26.7034 39.9098 26.8752C39.2174 26.8752 38.6566 27.4346 38.6566 28.1252V38.75H29.1698C28.6716 35.2062 26.0901 32.5 22.9915 32.5C19.8929 32.5 17.3113 35.2062 16.8131 38.75H7.35761C8.00302 21.822 21.685 8.1748 38.6566 7.5316ZM7.35777 41.25H17.9787C18.6711 41.25 19.2319 40.6906 19.2319 40C19.4011 33.3875 26.5789 33.3813 26.7512 40C26.7512 40.6906 27.312 41.25 28.0044 41.25H38.6566V50.7124C35.1037 51.2093 32.3905 53.7842 32.3905 56.8749C32.3905 59.9655 35.1037 62.5405 38.6566 63.0374V72.4686C21.685 71.8248 8.00263 58.178 7.35777 41.25ZM72.4939 63.0372V72.4996H41.1638V61.8748C41.1638 61.1842 40.603 60.6248 39.9106 60.6248C37.1473 60.6248 34.8977 58.9435 34.8977 56.8748C34.8977 54.8061 37.1473 53.1248 39.9106 53.1248C40.603 53.1248 41.1638 52.5654 41.1638 51.8748V41.25H50.6506C51.9289 49.5316 61.735 49.5156 63.0103 41.25H72.4971V50.7124C64.1942 51.9906 64.2102 61.7684 72.4971 63.0404L72.4939 63.0372Z" fill="white"/>
<path d="M70.0013 39.5807C70.0013 22.7821 56.3833 9.16406 39.5846 9.16406C22.786 9.16406 9.16797 22.7821 9.16797 39.5807C9.16797 56.3794 22.786 69.9974 39.5846 69.9974C43.1417 69.9974 46.5535 69.3874 49.723 68.2673L50.5563 70.624C47.1229 71.8375 43.4295 72.4974 39.5846 72.4974C21.4053 72.4974 6.66797 57.7601 6.66797 39.5807C6.66797 21.4014 21.4053 6.66406 39.5846 6.66406C57.764 6.66406 72.5013 21.4014 72.5013 39.5807C72.5013 41.7229 72.2971 43.8186 71.9056 45.8486L70.6768 45.6126L69.4495 45.375C69.8111 43.5002 70.0013 41.5632 70.0013 39.5807Z" fill="white"/>
</svg>
