<svg viewBox="0 0 80 80" fill="none" xmlns="http://www.w3.org/2000/svg">
<path d="M32.8867 0C51.0474 0 65.7714 15.092 65.7715 33.708C65.7715 52.322 51.0474 67.4141 32.8867 67.4141C28.0433 67.414 23.4446 66.3389 19.3037 64.4131L4.90918 70.1953L8.41602 56.2227C3.1831 50.2531 0 42.3614 0 33.708C3.91785e-05 15.092 14.7241 0.000131486 32.8867 0ZM33.043 47.7754C32.1088 47.7756 31.2698 48.3567 30.9121 49.2471C30.5544 50.1377 30.7535 51.1626 31.4111 51.8447C32.0716 52.5268 33.0634 52.7296 33.9258 52.3604C34.7881 51.994 35.3505 51.1242 35.3506 50.1592C35.3333 48.8515 34.3091 47.7933 33.043 47.7754ZM33.043 15.875C27.5199 15.8752 23.0439 20.4987 23.0439 26.2031C23.0442 27.5166 24.0797 28.5859 25.3516 28.5859C26.6261 28.5857 27.658 27.5165 27.6582 26.2031C27.6582 23.132 30.0695 20.6409 33.043 20.6406C36.0166 20.6406 38.4277 23.1319 38.4277 26.2031C38.4536 28.3954 37.3838 30.4502 35.5957 31.6357C32.5183 33.7567 30.6873 37.3441 30.7363 41.1689V43.8047C30.7363 45.1212 31.7683 46.1882 33.043 46.1885C34.3178 46.1885 35.3506 45.1214 35.3506 43.8047V41.2939C35.3217 39.1015 36.3924 37.046 38.1807 35.8604C41.2607 33.7395 43.0919 30.1528 43.043 26.3281V26.2031C43.043 20.4985 38.5662 15.875 33.043 15.875Z" fill="white"/>
<path fill-rule="evenodd" clip-rule="evenodd" d="M36.2285 71.723C40.8351 75.4754 46.6655 77.7179 53.0068 77.7179C56.9809 77.7179 60.7552 76.8353 64.1545 75.2537L75.9698 80.0006L73.0917 68.5303C77.3872 63.6313 79.9996 57.155 79.9996 50.0515C79.9996 41.2629 75.9986 33.4351 69.7665 28.3672C70.0035 30.1114 70.1291 31.8915 70.1291 33.7033C70.1291 53.6285 55.2298 69.9894 36.2285 71.723Z" fill="white" fill-opacity="0.5"/>
</svg>
