<svg width="60" height="60" viewBox="0 0 60 60" fill="none" xmlns="http://www.w3.org/2000/svg">
<path d="M30 0C22.0446 0 14.4118 3.1615 8.78622 8.78622C3.16121 14.4112 0 22.0438 0 30C0 37.9562 3.1615 45.5882 8.78622 51.2138C14.4112 56.8388 22.0438 60 30 60C37.9562 60 45.5882 56.8385 51.2138 51.2138C56.8388 45.5888 60 37.9562 60 30C59.9913 22.0468 56.8298 14.4199 51.2049 8.79508C45.5799 3.17007 37.9532 0.00886154 30 0ZM30 55.3846C23.2673 55.3846 16.8118 52.7106 12.0487 47.9513C7.28913 43.1888 4.61538 36.7333 4.61538 30C4.61538 23.2667 7.28943 16.8118 12.0487 12.0487C16.8112 7.28913 23.2667 4.61538 30 4.61538C36.7333 4.61538 43.1882 7.28943 47.9513 12.0487C52.7109 16.8112 55.3846 23.2667 55.3846 30C55.376 36.7298 52.6991 43.183 47.9394 47.9394C43.1827 52.6991 36.7296 55.3758 30 55.3846ZM40.001 22.3067C40.05 26.0105 38.2183 29.4837 35.1376 31.5375C33.3491 32.6856 32.2789 34.6759 32.3078 36.799V39.2308C32.3078 40.5058 31.2751 41.5385 30.0001 41.5385C28.725 41.5385 27.6924 40.5058 27.6924 39.2308V36.6779C27.6433 32.9741 29.4751 29.5009 32.5529 27.4471C34.3414 26.2991 35.4116 24.3087 35.3856 22.1856C35.3856 19.2116 32.9741 16.8 30 16.8C27.0259 16.8 24.6144 19.2115 24.6144 22.1856C24.6144 23.4577 23.5817 24.4933 22.3067 24.4933C21.0346 24.4933 19.999 23.4577 19.999 22.1856C19.999 16.6615 24.4759 12.1846 30 12.1846C35.5241 12.1846 40.001 16.6615 40.001 22.1856V22.3067ZM32.3077 45.3836C32.3077 46.3182 31.7452 47.1605 30.8827 47.5153C30.0202 47.873 29.0279 47.6769 28.3673 47.0163C27.7096 46.3557 27.5106 45.3634 27.8683 44.501C28.226 43.6385 29.0654 43.076 30 43.076C31.2663 43.0933 32.2904 44.1173 32.3077 45.3836Z" fill="white"/>
</svg>
