<svg viewBox="0 0 24 25" fill="none" xmlns="http://www.w3.org/2000/svg">
<path fill-rule="evenodd" clip-rule="evenodd" d="M17.7653 6.73796C18.1168 7.08943 18.1332 7.64281 17.8021 7.97396L7.47547 18.3006C7.14431 18.6317 6.59093 18.6153 6.23946 18.2638C5.88799 17.9123 5.87152 17.3589 6.20268 17.0278L16.5293 6.70117C16.8605 6.37002 17.4138 6.38649 17.7653 6.73796Z" fill="#FF7083"/>
<path fill-rule="evenodd" clip-rule="evenodd" d="M6.2386 6.73796C6.59008 6.38649 7.14345 6.37002 7.47461 6.70117L17.8012 17.0278C18.1324 17.3589 18.1159 17.9123 17.7644 18.2638C17.413 18.6153 16.8596 18.6317 16.5284 18.3006L6.20182 7.97396C5.87066 7.64281 5.88713 7.08943 6.2386 6.73796Z" fill="#FF7083"/>
</svg>
