<svg width="860" height="593" viewBox="0 0 860 593" fill="none" xmlns="http://www.w3.org/2000/svg">
<path d="M473.837 457.579L426.905 473.3L307.447 336.295C305.433 333.985 302.26 333.056 299.318 333.915L186.236 366.953L148.089 320.946C147.473 320.329 146.379 318.68 146.934 317.016C147.627 314.935 149.708 313.317 152.945 312.161C156.181 311.005 299.982 271.009 300.907 270.777C301.832 270.546 304.604 270.084 305.993 270.777C306.532 270.932 307.935 271.61 309.229 273.089C310.848 274.939 473.375 450.181 475.918 452.956C477.952 455.175 475.378 456.963 473.837 457.579Z" fill="#D2B2FF" fill-opacity="0.4"/>
<path d="M357.09 316.553L457.777 287.407C460.673 286.569 463.793 287.46 465.809 289.702L583.888 421.051C587.865 419.684 619.215 409.312 630.62 405.54C632.548 404.903 633.174 402.506 631.777 401.032C602.414 370.04 486.554 248.896 467.132 228.591C465.373 226.751 462.833 226.113 460.378 226.784L315.661 266.312C313.993 266.768 313.397 268.827 314.565 270.103L357.09 316.553Z" fill="#D9D9D9" fill-opacity="0.07"/>
<path d="M513.835 271.008L586.142 249.798C594.974 247.208 604.513 249.784 610.839 256.47L722.832 374.813L763.454 360.831C767.652 359.386 768.889 354.046 765.754 350.903L613.057 197.791C606.6 191.316 597.165 188.807 588.345 191.218L472.716 222.825C471.029 223.287 470.445 225.381 471.65 226.649L513.835 271.008Z" fill="#D9D9D9" fill-opacity="0.07"/>
<path d="M614.172 191.948C610.772 188.387 603.561 185.931 595.214 185.931C591.896 185.931 588.758 186.319 585.967 187.01L152.99 307.768C145.243 309.977 140 314.222 140 319.096C140 320.813 140.65 322.452 141.832 323.951L290.043 503.166C294.436 508.827 305.304 512.834 318.017 512.834C324.273 512.834 330.083 511.864 334.894 510.203L762.134 366.359C768.727 363.874 773 359.888 773 355.393C773 353.327 772.097 351.369 770.48 349.614L614.172 191.948Z" stroke="white" stroke-width="1.38714"/>
<path d="M772.769 357.243L764.219 418.95C763.797 428.331 757.743 436.524 748.9 439.683L328.039 589.345C312.961 594.73 296.13 589.804 286.336 577.139L151.832 404.495C148.638 400.364 146.718 395.39 146.31 390.184L140 319.559" stroke="white" stroke-width="1.38714"/>
<g filter="url(#filter0_d_7228_250216)">
<mask id="path-6-outside-1_7228_250216" maskUnits="userSpaceOnUse" x="259.863" y="355.622" width="101.491" height="109.366" fill="black">
<rect fill="white" x="259.863" y="355.622" width="101.491" height="109.366"/>
<path fill-rule="evenodd" clip-rule="evenodd" d="M279.352 375.457C280.379 374.618 281.976 374.521 282.734 375.251C283.508 375.989 283.712 377.375 283.417 379.954C283.162 382.144 282.9 383.114 281.548 386.723C279.71 391.604 278.178 396.876 277.339 401.15C276.013 407.89 275.866 412.668 276.851 418.14C277.275 420.49 278.977 425.373 280.033 427.289C281.485 429.884 283.947 433.3 285.991 435.503C287.415 437.052 289.94 439.403 291.219 440.392C294.962 443.253 300.378 446.267 303.836 447.438C307.415 448.634 312.511 449.595 316.285 449.791C320.245 450.004 325.095 449.497 329.146 448.454C331.288 447.912 336.093 446.155 338.274 445.141C341.575 443.587 346.2 440.979 349.268 438.925C350.781 437.899 353.534 435.929 355.932 434.128C357.394 433.036 357.891 432.804 357.612 433.376C357.48 433.632 354.775 436.001 352.939 437.476C345.555 443.391 339.139 446.986 331.346 449.586C324.551 451.844 319.864 452.461 313.673 451.919C308.352 451.455 303.581 450.169 299.066 448.014C290.837 444.085 284.989 439.084 280.174 431.825C277.981 428.508 277.043 426.577 275.791 422.757C274.569 419.024 274.208 416.929 273.976 412.175C273.705 406.768 273.879 404.274 275.277 392.504C276.408 383.011 276.694 381.214 277.48 378.849C278.081 377.009 278.604 376.072 279.352 375.457ZM281.324 377.172C280.985 377.022 280.479 377.284 280.013 377.857C279.429 378.581 278.569 380.449 278.175 381.865C277.467 384.398 277.511 386.281 278.291 386.627C279.664 387.236 281.406 384.199 281.728 380.664C281.936 378.488 281.798 377.383 281.324 377.172Z"/>
</mask>
<path fill-rule="evenodd" clip-rule="evenodd" d="M279.352 375.457C280.379 374.618 281.976 374.521 282.734 375.251C283.508 375.989 283.712 377.375 283.417 379.954C283.162 382.144 282.9 383.114 281.548 386.723C279.71 391.604 278.178 396.876 277.339 401.15C276.013 407.89 275.866 412.668 276.851 418.14C277.275 420.49 278.977 425.373 280.033 427.289C281.485 429.884 283.947 433.3 285.991 435.503C287.415 437.052 289.94 439.403 291.219 440.392C294.962 443.253 300.378 446.267 303.836 447.438C307.415 448.634 312.511 449.595 316.285 449.791C320.245 450.004 325.095 449.497 329.146 448.454C331.288 447.912 336.093 446.155 338.274 445.141C341.575 443.587 346.2 440.979 349.268 438.925C350.781 437.899 353.534 435.929 355.932 434.128C357.394 433.036 357.891 432.804 357.612 433.376C357.48 433.632 354.775 436.001 352.939 437.476C345.555 443.391 339.139 446.986 331.346 449.586C324.551 451.844 319.864 452.461 313.673 451.919C308.352 451.455 303.581 450.169 299.066 448.014C290.837 444.085 284.989 439.084 280.174 431.825C277.981 428.508 277.043 426.577 275.791 422.757C274.569 419.024 274.208 416.929 273.976 412.175C273.705 406.768 273.879 404.274 275.277 392.504C276.408 383.011 276.694 381.214 277.48 378.849C278.081 377.009 278.604 376.072 279.352 375.457ZM281.324 377.172C280.985 377.022 280.479 377.284 280.013 377.857C279.429 378.581 278.569 380.449 278.175 381.865C277.467 384.398 277.511 386.281 278.291 386.627C279.664 387.236 281.406 384.199 281.728 380.664C281.936 378.488 281.798 377.383 281.324 377.172Z" fill="url(#paint0_linear_7228_250216)" fill-opacity="0.8"/>
<path d="M279.352 375.457L279.059 375.099L279.058 375.1L279.352 375.457ZM282.734 375.251L282.413 375.584L282.415 375.585L282.734 375.251ZM283.417 379.954L283.876 380.008L283.876 380.007L283.417 379.954ZM281.548 386.723L281.981 386.886L281.981 386.885L281.548 386.723ZM277.339 401.15L277.793 401.239L277.793 401.239L277.339 401.15ZM276.851 418.14L276.396 418.222L276.396 418.222L276.851 418.14ZM280.033 427.289L279.629 427.512L279.63 427.515L280.033 427.289ZM285.991 435.503L286.332 435.19L286.33 435.188L285.991 435.503ZM291.219 440.392L290.936 440.757L290.938 440.759L291.219 440.392ZM303.836 447.438L303.688 447.876L303.69 447.876L303.836 447.438ZM316.285 449.791L316.31 449.329L316.309 449.329L316.285 449.791ZM329.146 448.454L329.032 448.006L329.03 448.007L329.146 448.454ZM338.274 445.141L338.469 445.56L338.471 445.559L338.274 445.141ZM349.268 438.925L349.525 439.309L349.527 439.308L349.268 438.925ZM355.932 434.128L355.655 433.757L355.654 433.758L355.932 434.128ZM357.612 433.376L358.023 433.587L358.027 433.579L357.612 433.376ZM352.939 437.476L353.228 437.837L353.228 437.837L352.939 437.476ZM331.346 449.586L331.492 450.025L331.493 450.025L331.346 449.586ZM313.673 451.919L313.713 451.458L313.713 451.458L313.673 451.919ZM299.066 448.014L298.867 448.431L298.867 448.431L299.066 448.014ZM280.174 431.825L279.788 432.08L279.788 432.081L280.174 431.825ZM275.791 422.757L275.351 422.901L275.351 422.901L275.791 422.757ZM273.976 412.175L274.438 412.153L274.438 412.152L273.976 412.175ZM275.277 392.504L274.817 392.449L274.817 392.449L275.277 392.504ZM277.48 378.849L277.919 378.995L277.92 378.992L277.48 378.849ZM281.324 377.172L281.512 376.75L281.512 376.75L281.324 377.172ZM280.013 377.857L279.654 377.565L279.653 377.567L280.013 377.857ZM278.175 381.865L278.62 381.99L278.621 381.989L278.175 381.865ZM278.291 386.627L278.104 387.05L278.104 387.05L278.291 386.627ZM281.728 380.664L281.268 380.621L281.268 380.622L281.728 380.664ZM279.352 375.457L279.644 375.815C280.077 375.462 280.639 375.26 281.172 375.227C281.712 375.194 282.157 375.337 282.413 375.584L282.734 375.251L283.055 374.918C282.553 374.435 281.82 374.261 281.116 374.304C280.404 374.347 279.653 374.614 279.059 375.099L279.352 375.457ZM282.734 375.251L282.415 375.585C282.704 375.861 282.918 376.282 283.019 376.979C283.121 377.681 283.104 378.626 282.957 379.901L283.417 379.954L283.876 380.007C284.026 378.703 284.054 377.665 283.934 376.845C283.814 376.019 283.538 375.379 283.053 374.916L282.734 375.251ZM283.417 379.954L282.958 379.9C282.709 382.036 282.461 382.966 281.115 386.561L281.548 386.723L281.981 386.885C283.338 383.261 283.615 382.251 283.876 380.008L283.417 379.954ZM281.548 386.723L281.115 386.56C279.27 391.461 277.73 396.758 276.886 401.061L277.339 401.15L277.793 401.239C278.626 396.994 280.15 391.747 281.981 386.886L281.548 386.723ZM277.339 401.15L276.886 401.06C275.551 407.844 275.399 412.681 276.396 418.222L276.851 418.14L277.306 418.058C276.334 412.655 276.475 407.937 277.793 401.239L277.339 401.15ZM276.851 418.14L276.396 418.222C276.615 419.433 277.156 421.268 277.768 423.029C278.381 424.788 279.08 426.519 279.629 427.512L280.033 427.289L280.438 427.066C279.93 426.144 279.25 424.474 278.642 422.725C278.034 420.978 277.512 419.197 277.306 418.058L276.851 418.14ZM280.033 427.289L279.63 427.515C281.098 430.141 283.583 433.586 285.652 435.817L285.991 435.503L286.33 435.188C284.312 433.013 281.871 429.628 280.437 427.063L280.033 427.289ZM285.991 435.503L285.651 435.816C287.088 437.38 289.632 439.749 290.936 440.757L291.219 440.392L291.502 440.026C290.247 439.056 287.741 436.724 286.332 435.19L285.991 435.503ZM291.219 440.392L290.938 440.759C294.711 443.643 300.171 446.686 303.688 447.876L303.836 447.438L303.985 447C300.585 445.849 295.213 442.863 291.499 440.024L291.219 440.392ZM303.836 447.438L303.69 447.876C307.308 449.086 312.446 450.055 316.261 450.253L316.285 449.791L316.309 449.329C312.577 449.135 307.521 448.183 303.983 446.999L303.836 447.438ZM316.285 449.791L316.26 450.253C320.27 450.468 325.167 449.956 329.261 448.902L329.146 448.454L329.03 448.007C325.023 449.038 320.22 449.54 316.31 449.329L316.285 449.791ZM329.146 448.454L329.259 448.903C331.434 448.352 336.266 446.585 338.469 445.56L338.274 445.141L338.079 444.722C335.92 445.726 331.142 447.472 329.032 448.006L329.146 448.454ZM338.274 445.141L338.471 445.559C341.793 443.996 346.438 441.376 349.525 439.309L349.268 438.925L349.01 438.541C345.962 440.581 341.358 443.179 338.077 444.722L338.274 445.141ZM349.268 438.925L349.527 439.308C351.048 438.276 353.807 436.302 356.209 434.498L355.932 434.128L355.654 433.758C353.26 435.556 350.514 437.521 349.008 438.542L349.268 438.925ZM355.932 434.128L356.208 434.499C356.949 433.945 357.398 433.648 357.615 433.549C357.669 433.525 357.672 433.53 357.643 433.534C357.624 433.536 357.432 433.554 357.298 433.37C357.241 433.291 357.227 433.214 357.224 433.171C357.222 433.129 357.228 433.102 357.228 433.099C357.23 433.093 357.225 433.115 357.196 433.173L357.612 433.376L358.027 433.579C358.068 433.494 358.109 433.398 358.131 433.3C358.147 433.227 358.185 433.018 358.047 432.827C357.884 432.602 357.635 432.604 357.534 432.616C357.422 432.629 357.317 432.669 357.234 432.707C356.908 432.854 356.376 433.219 355.655 433.757L355.932 434.128ZM357.612 433.376L357.2 433.165C357.22 433.126 357.236 433.113 357.208 433.146C357.189 433.167 357.16 433.199 357.118 433.242C357.035 433.327 356.917 433.441 356.769 433.579C356.473 433.856 356.069 434.218 355.61 434.621C354.691 435.427 353.561 436.383 352.649 437.116L352.939 437.476L353.228 437.837C354.153 437.094 355.293 436.129 356.219 435.317C356.682 434.911 357.094 434.541 357.4 434.255C357.553 434.112 357.682 433.988 357.779 433.888C357.827 433.839 357.871 433.792 357.907 433.751C357.935 433.719 357.987 433.658 358.023 433.587L357.612 433.376ZM352.939 437.476L352.65 437.115C345.302 443.001 338.934 446.567 331.2 449.148L331.346 449.586L331.493 450.025C339.344 447.405 345.807 443.781 353.228 437.837L352.939 437.476ZM331.346 449.586L331.201 449.147C324.456 451.389 319.833 451.994 313.713 451.458L313.673 451.919L313.632 452.379C319.896 452.928 324.646 452.3 331.492 450.025L331.346 449.586ZM313.673 451.919L313.713 451.458C308.444 450.999 303.727 449.727 299.265 447.597L299.066 448.014L298.867 448.431C303.434 450.611 308.259 451.911 313.632 452.379L313.673 451.919ZM299.066 448.014L299.265 447.597C291.108 443.702 285.326 438.755 280.559 431.57L280.174 431.825L279.788 432.081C284.653 439.413 290.566 444.468 298.867 448.431L299.066 448.014ZM280.174 431.825L280.559 431.57C278.389 428.287 277.47 426.393 276.23 422.613L275.791 422.757L275.351 422.901C276.617 426.76 277.572 428.728 279.788 432.08L280.174 431.825ZM275.791 422.757L276.23 422.613C275.024 418.926 274.668 416.873 274.438 412.153L273.976 412.175L273.514 412.198C273.748 416.985 274.114 419.121 275.351 422.901L275.791 422.757ZM273.976 412.175L274.438 412.152C274.169 406.787 274.339 404.326 275.736 392.558L275.277 392.504L274.817 392.449C273.42 404.221 273.241 406.749 273.515 412.198L273.976 412.175ZM275.277 392.504L275.736 392.559C276.869 383.049 277.15 381.306 277.919 378.995L277.48 378.849L277.042 378.703C276.237 381.123 275.947 382.973 274.817 392.449L275.277 392.504ZM277.48 378.849L277.92 378.992C278.515 377.169 279.004 376.341 279.645 375.814L279.352 375.457L279.058 375.1C278.203 375.802 277.647 376.848 277.041 378.705L277.48 378.849ZM281.324 377.172L281.512 376.75C281.163 376.595 280.796 376.68 280.503 376.833C280.203 376.989 279.914 377.246 279.654 377.565L280.013 377.857L280.372 378.149C280.578 377.894 280.775 377.734 280.93 377.653C281.006 377.614 281.062 377.598 281.097 377.594C281.114 377.592 281.125 377.593 281.13 377.594C281.133 377.594 281.135 377.594 281.135 377.595C281.136 377.595 281.137 377.595 281.137 377.595L281.324 377.172ZM280.013 377.857L279.653 377.567C279.324 377.975 278.944 378.666 278.603 379.408C278.258 380.16 277.934 381.004 277.73 381.741L278.175 381.865L278.621 381.989C278.809 381.31 279.113 380.512 279.443 379.794C279.777 379.068 280.118 378.463 280.373 378.147L280.013 377.857ZM278.175 381.865L277.73 381.74C277.369 383.032 277.191 384.184 277.213 385.077C277.224 385.523 277.284 385.928 277.413 386.261C277.543 386.594 277.759 386.897 278.104 387.05L278.291 386.627L278.479 386.205C278.434 386.185 278.352 386.123 278.276 385.926C278.199 385.729 278.147 385.44 278.137 385.055C278.119 384.286 278.273 383.231 278.62 381.99L278.175 381.865ZM278.291 386.627L278.104 387.05C278.642 387.289 279.181 387.142 279.628 386.828C280.066 386.519 280.464 386.023 280.805 385.43C281.49 384.238 282.022 382.529 282.189 380.706L281.728 380.664L281.268 380.622C281.112 382.334 280.612 383.911 280.003 384.969C279.697 385.501 279.381 385.871 279.096 386.071C278.82 386.266 278.627 386.271 278.479 386.205L278.291 386.627ZM281.728 380.664L282.189 380.708C282.293 379.611 282.315 378.751 282.241 378.127C282.204 377.816 282.141 377.537 282.037 377.309C281.932 377.079 281.768 376.864 281.512 376.75L281.324 377.172L281.136 377.595C281.117 377.586 281.148 377.588 281.196 377.693C281.244 377.799 281.292 377.972 281.323 378.235C281.384 378.76 281.371 379.542 281.268 380.621L281.728 380.664Z" fill="black" fill-opacity="0.13" mask="url(#path-6-outside-1_7228_250216)"/>
</g>
<path d="M488.435 452.798L584.118 421.051L465.581 289.693C463.563 287.457 460.444 286.57 457.551 287.411L357.32 316.553L481.643 451.048C483.368 452.913 486.024 453.598 488.435 452.798Z" fill="#D9D9D9" fill-opacity="0.07"/>
<path d="M643.476 400.824L722.832 374.813L611.454 256.659C605.171 249.994 595.696 247.389 586.889 249.905L513.836 270.777L636.785 399.15C638.508 400.949 641.109 401.6 643.476 400.824Z" fill="#D9D9D9" fill-opacity="0.07"/>
<path d="M357.32 316.785L457.941 287.282C459.501 286.824 461.124 286.842 462.625 287.282M584.118 420.821L466.478 289.71C465.423 288.534 464.082 287.709 462.625 287.282M463.668 227.083L462.625 287.282" stroke="white" stroke-width="0.924763"/>
<path d="M186.008 366.49L298.882 333.519C300.442 333.062 302.065 333.079 303.565 333.519M427.14 472.838L307.418 335.947C306.363 334.772 305.022 333.946 303.565 333.519M304.84 270.777L303.565 333.519" stroke="white" stroke-width="0.924763"/>
<path d="M514.07 271.239C535.648 264.843 580.468 251.588 587.127 249.739C590.204 248.884 593.376 248.661 596.374 248.942M722.604 375.045C686.153 336.204 612.373 257.645 608.858 254.131C606.09 251.363 601.485 249.421 596.374 248.942M600.073 191.248L596.374 248.942" stroke="white" stroke-width="0.924763"/>
<path d="M330.266 511.909L326.336 589.82" stroke="white" stroke-width="0.924763"/>
<path d="M289.351 502.662L288.195 579.186" stroke="white" stroke-width="0.924763"/>
<path d="M762.135 366.49L752.656 438.159" stroke="white" stroke-width="0.924763"/>
<path d="M408.502 324.495L402.531 317.627L405.583 316.694C407.741 316.034 409.358 316.324 410.476 317.61C411.157 318.394 411.011 319.1 410.086 319.517C411.441 319.238 412.677 319.607 413.467 320.516C414.56 321.773 414.054 322.798 412.044 323.412L408.502 324.495ZM409.01 323.152L411.241 322.47C412.332 322.137 412.662 321.57 412.073 320.893C411.476 320.206 410.498 320.028 409.407 320.361L407.177 321.043L409.01 323.152ZM406.403 320.153L408.18 319.61C409.345 319.254 409.704 318.703 409.149 318.065C408.569 317.397 407.649 317.25 406.448 317.617L404.671 318.161L406.403 320.153Z" fill="white"/>
<path d="M412.07 316.915L413.259 316.551L414.136 317.507C413.797 316.778 414.019 316.319 414.852 316.064L415.477 315.873L416.209 316.715L415.572 316.909C414.554 317.22 414.487 317.804 415.227 318.655L417.826 321.644L416.527 322.042L412.07 316.915Z" fill="white"/>
<path d="M423.57 320.035C421.695 320.609 419.561 319.939 418.14 318.304C416.719 316.669 417.036 315.249 418.911 314.676C420.775 314.106 422.909 314.776 424.33 316.411C425.751 318.046 425.433 319.466 423.57 320.035ZM419.488 317.892C420.463 319.014 421.693 319.483 422.796 319.145C423.9 318.808 423.957 317.946 422.981 316.824C422.006 315.701 420.788 315.229 419.685 315.566C418.582 315.903 418.513 316.769 419.488 317.892Z" fill="white"/>
<path d="M421.716 311.761L423.016 311.364L426.732 315.64L427.41 312.225L429.089 311.711L428.406 314.638L433.656 316.805L432.148 317.266L428.099 315.553L427.809 316.878L428.986 318.232L427.687 318.63L421.716 311.761Z" fill="white"/>
<path d="M431.598 314.189C430.185 312.564 430.482 311.139 432.37 310.561C433.927 310.085 435.953 310.507 437.595 312.307L437.893 312.632L433.223 314.06C434.142 314.991 435.254 315.361 436.272 315.05C436.909 314.855 437.237 314.375 437.065 313.803L438.493 313.465C438.963 314.558 438.352 315.516 437.029 315.921C435.141 316.498 433.011 315.814 431.598 314.189ZM432.583 313.288L435.856 312.287C434.86 311.355 433.862 311.207 433.127 311.432C432.183 311.721 431.999 312.401 432.583 313.288Z" fill="white"/>
<path d="M436.545 309.432L437.734 309.068L438.519 309.918C438.253 309.13 438.761 308.608 439.643 308.338C441.102 307.892 442.564 308.485 443.54 309.608L446.407 312.906L445.108 313.304L442.518 310.324C441.727 309.415 440.943 309.03 440.036 309.307C439.092 309.596 438.92 310.273 439.711 311.182L442.301 314.162L441.002 314.559L436.545 309.432Z" fill="white"/>
<path d="M225.794 374.878C227.037 374.498 228.395 375.042 229.472 376.325C230.549 377.608 230.471 378.591 229.228 378.971C227.985 379.351 226.613 378.812 225.536 377.529C224.459 376.245 224.551 375.258 225.794 374.878Z" fill="#D2B2FF"/>
<path d="M249.924 370.406C250.982 371.667 250.646 372.548 249.564 372.893C248.598 373.188 247.831 372.978 247.469 372.546C246.847 371.805 247.597 371.479 248.484 371.027L249.859 370.328L249.924 370.406Z" fill="#D2B2FF"/>
<path d="M280.412 361.085C281.47 362.346 281.133 363.227 280.052 363.572C279.085 363.867 278.319 363.657 277.957 363.226C277.335 362.484 278.084 362.158 278.972 361.706L280.347 361.008L280.412 361.085Z" fill="#D2B2FF"/>
<path d="M289.47 355.383C290.298 355.129 291.415 355.302 292.518 356.369L288.831 357.496C288.189 356.483 288.406 355.708 289.47 355.383Z" fill="#D2B2FF"/>
<path d="M297.173 352.999C298.375 352.632 299.812 353.208 300.889 354.491C301.947 355.752 301.856 356.78 300.654 357.148C299.481 357.507 298.039 356.947 296.981 355.686C295.904 354.402 295.986 353.363 297.173 352.999Z" fill="#D2B2FF"/>
<path fill-rule="evenodd" clip-rule="evenodd" d="M427.136 473.07C400.627 481.932 345.711 500.258 338.128 502.662C328.649 505.667 304.143 510.522 293.971 498.038C285.833 488.051 218.448 406.487 185.773 366.953L303.912 332.274L427.136 473.07ZM221.039 375.873C219.237 374.367 216.919 373.755 214.778 374.409C211.934 375.279 211.771 377.608 213.702 379.909C215.633 382.21 218.821 383.487 221.666 382.618C223.958 381.917 224.429 380.369 223.354 378.529L221.71 378.948C222.423 380.19 222.073 381.117 220.733 381.527C218.69 382.151 216.622 381.074 215.248 379.436C213.865 377.788 213.626 376.138 215.684 375.509C216.954 375.12 218.339 375.448 219.52 376.421L221.039 375.873ZM230.991 375.861C229.422 373.991 227.039 373.219 224.94 373.86C222.827 374.506 222.448 376.123 224.017 377.993C225.586 379.862 227.969 380.635 230.082 379.989C232.181 379.347 232.56 377.73 230.991 375.861ZM237.647 372.769C236.571 371.486 234.939 370.803 233.296 371.306C232.302 371.61 231.724 372.203 232.01 373.103L231.142 372.131L229.803 372.54L234.722 378.403L236.186 377.956L233.327 374.549C232.455 373.509 232.658 372.738 233.721 372.413C234.743 372.1 235.617 372.542 236.49 373.582L239.349 376.989L240.813 376.542L237.647 372.769ZM237.023 368.665L238.137 369.992L237.019 370.334L237.817 371.286L238.936 370.944L241.646 374.174C242.565 375.269 243.817 375.623 245.225 375.192L246.44 374.821L245.633 373.858L244.569 374.184C244.003 374.357 243.509 374.202 243.11 373.726L240.399 370.496L242.333 369.905L241.535 368.954L239.601 369.545L238.487 368.217L237.023 368.665ZM250.655 369.126C249.309 367.522 247.475 366.971 245.487 367.578C243.802 368.093 243.236 369.156 243.94 370.429L245.524 370.042C245.16 369.319 245.429 368.792 246.285 368.53C247.349 368.205 248.277 368.505 249.08 369.441L247.259 370.415C245.788 371.184 244.985 371.861 245.968 373.033C246.841 374.073 248.53 374.349 250.008 373.897C251.223 373.525 251.638 372.801 251.497 372.135C252.262 372.944 253.234 372.758 253.888 372.544L254.343 372.405L253.573 371.487L253.283 371.575C252.993 371.664 252.734 371.604 252.484 371.305L250.655 369.126ZM262.421 365.195C261.224 363.768 259.672 363.242 258.194 363.693C257.09 364.031 256.692 364.695 257.019 365.582C256.052 364.904 254.921 364.694 253.872 365.015C252.891 365.315 252.48 365.941 252.705 366.748L251.87 365.794L250.531 366.203L255.45 372.066L256.914 371.619L254.055 368.211C253.201 367.194 253.303 366.426 254.339 366.11C255.153 365.86 256.115 366.303 256.969 367.321L259.828 370.728L261.209 370.306L258.35 366.898C257.496 365.881 257.584 365.117 258.634 364.796C259.462 364.543 260.391 364.968 261.264 366.007L264.123 369.415L265.587 368.967L262.421 365.195ZM262.461 362.556L267.381 368.419L268.845 367.971L263.925 362.108L262.461 362.556ZM273.376 361.846C272.299 360.563 270.668 359.88 269.025 360.382C268.03 360.686 267.453 361.28 267.739 362.179L266.871 361.208L265.531 361.617L270.451 367.48L271.915 367.032L269.056 363.625C268.184 362.585 268.387 361.814 269.45 361.489C270.472 361.177 271.346 361.619 272.218 362.658L275.078 366.066L276.542 365.618L273.376 361.846ZM281.142 359.805C279.796 358.201 277.963 357.65 275.974 358.258C274.29 358.773 273.724 359.835 274.427 361.108L276.011 360.721C275.647 359.998 275.916 359.471 276.773 359.209C277.836 358.884 278.765 359.184 279.567 360.12L277.747 361.093C276.275 361.863 275.472 362.54 276.456 363.712C277.328 364.752 279.018 365.028 280.495 364.576C281.71 364.205 282.126 363.48 281.984 362.814C282.749 363.623 283.721 363.437 284.375 363.223L284.83 363.084L284.06 362.166L283.77 362.254C283.48 362.343 283.222 362.283 282.971 361.984L281.142 359.805ZM280.125 355.487L281.238 356.815L280.12 357.157L280.918 358.108L282.037 357.766L284.747 360.997C285.666 362.092 286.918 362.446 288.326 362.015L289.541 361.643L288.734 360.681L287.671 361.006C287.105 361.179 286.61 361.024 286.211 360.549L283.501 357.319L285.434 356.728L284.636 355.776L282.702 356.367L281.588 355.04L280.125 355.487ZM260.772 360.584L261.71 361.701L263.243 361.233L262.305 360.115L260.772 360.584ZM294.469 356.398C292.655 354.34 290.388 353.851 288.634 354.387C286.508 355.037 286.152 356.661 287.711 358.52C289.271 360.378 291.65 361.166 293.776 360.515C295.268 360.059 295.967 358.97 295.458 357.722L293.851 358.102C294.034 358.755 293.659 359.301 292.941 359.52C291.795 359.871 290.552 359.444 289.536 358.379L294.798 356.77L294.469 356.398ZM296.648 349.602L298.978 352.379C298.09 351.941 296.937 351.849 295.984 352.14C294.078 352.723 293.884 354.269 295.462 356.15C297.04 358.03 299.221 358.851 301.126 358.268C302.134 357.96 302.675 357.322 302.588 356.598L303.335 357.426L304.702 357.009L298.112 349.154L296.648 349.602Z" fill="#D2B2FF"/>
<path d="M533.344 281.065L534.669 280.66L540.881 287.322L539.556 287.728L533.344 281.065Z" fill="white"/>
<path d="M537.799 281.874L538.989 281.51L539.805 282.334C539.515 281.566 540.013 281.052 540.897 280.782C542.357 280.336 543.849 280.905 544.864 281.993L547.848 285.193L546.547 285.59L543.852 282.7C543.03 281.818 542.227 281.448 541.32 281.726C540.375 282.015 540.22 282.677 541.042 283.559L543.737 286.449L542.437 286.847L537.799 281.874Z" fill="white"/>
<path d="M550.485 280.238C549.764 279.651 548.785 279.48 548.049 279.705C546.945 280.042 546.898 280.889 547.913 281.977C548.928 283.066 550.182 283.514 551.286 283.177C552.059 282.94 552.339 282.361 551.826 281.625L553.24 281.265C554.129 282.488 553.588 283.582 552.091 284.04C550.202 284.618 548.033 283.966 546.563 282.39C545.093 280.813 545.354 279.419 547.244 278.842C548.692 278.399 550.57 278.705 551.783 279.769L550.485 280.238Z" fill="white"/>
<path d="M558.821 281.982C556.944 282.556 554.772 281.918 553.293 280.332C551.814 278.747 552.096 277.358 553.974 276.784C555.839 276.214 558.011 276.852 559.489 278.438C560.968 280.024 560.686 281.412 558.821 281.982ZM554.643 279.92C555.658 281.008 556.912 281.457 558.016 281.119C559.12 280.782 559.155 279.939 558.14 278.851C557.125 277.762 555.883 277.31 554.779 277.647C553.674 277.985 553.628 278.831 554.643 279.92Z" fill="white"/>
<path d="M558.3 275.606L559.49 275.242L560.276 276.051C560.044 275.362 560.392 274.822 561.263 274.556C562.195 274.27 563.22 274.44 564.115 275.01C563.788 274.254 564.121 273.682 565.103 273.381C566.416 272.98 567.831 273.416 568.96 274.626L571.944 277.826L570.643 278.223L567.948 275.333C567.126 274.451 566.274 274.097 565.538 274.322C564.606 274.607 564.554 275.262 565.359 276.125L568.054 279.015L566.827 279.39L564.132 276.5C563.327 275.637 562.446 275.267 561.722 275.488C560.802 275.77 560.738 276.428 561.543 277.291L564.238 280.182L562.938 280.579L558.3 275.606Z" fill="white"/>
<path d="M574.623 278.816L568.673 272.435L569.887 272.063L570.615 272.793C570.455 272.131 570.862 271.621 571.795 271.336C573.696 270.754 575.712 271.681 577.016 273.08C578.32 274.478 578.544 275.953 576.642 276.534C575.759 276.804 574.821 276.729 573.963 276.316L575.923 278.418L574.623 278.816ZM572.182 274.558C573.013 275.449 574.337 276.142 575.539 275.774C576.766 275.399 576.503 274.406 575.654 273.496C574.814 272.595 573.499 271.912 572.284 272.283C571.082 272.651 571.35 273.666 572.182 274.558Z" fill="white"/>
<path d="M577.111 271.772C576.432 270.689 576.903 269.774 578.4 269.316C580.167 268.776 581.836 269.23 583.105 270.591L584.829 272.439C585.065 272.693 585.3 272.742 585.557 272.663L585.815 272.584L586.541 273.363L586.136 273.487C585.556 273.676 584.688 273.845 583.971 273.16C584.123 273.728 583.775 274.353 582.695 274.683C581.382 275.085 579.853 274.865 579.031 273.983C578.103 272.988 578.801 272.401 580.097 271.728L581.699 270.876C580.943 270.082 580.097 269.834 579.152 270.123C578.392 270.356 578.169 270.81 578.522 271.425L577.111 271.772ZM580.363 273.552C580.704 273.918 581.401 274.09 582.26 273.828C583.221 273.522 583.491 272.764 582.494 271.694L582.432 271.629L581.221 272.24C580.439 272.636 579.776 272.923 580.363 273.552Z" fill="white"/>
<path d="M582.033 266.903L583.334 266.506L584.384 267.632L586.101 267.106L586.854 267.913L585.136 268.438L587.691 271.178C588.067 271.582 588.518 271.71 589.021 271.556L589.965 271.267L590.727 272.083L589.647 272.413C588.395 272.796 587.257 272.505 586.391 271.576L583.836 268.836L582.842 269.14L582.089 268.333L583.083 268.029L582.033 266.903Z" fill="white"/>
<path d="M587.197 266.771L588.497 266.374L593.135 271.347L591.834 271.745L587.197 266.771ZM586.49 266.047L585.606 265.099L586.968 264.683L587.852 265.631L586.49 266.047Z" fill="white"/>
<path d="M588.158 264.307L589.458 263.909L591.655 266.265C591.577 265.674 592.057 265.141 592.904 264.882C594.597 264.364 596.588 265.046 598.076 266.641C599.564 268.236 599.445 269.563 597.751 270.08C596.856 270.354 595.798 270.268 594.957 269.873L595.585 270.598L594.37 270.969L588.158 264.307ZM593.254 268.115C594.252 269.185 595.556 269.654 596.624 269.328C597.667 269.009 597.724 268.123 596.726 267.053C595.711 265.965 594.398 265.486 593.343 265.809C592.275 266.135 592.239 267.027 593.254 268.115Z" fill="white"/>
<path d="M595.403 262.092L596.704 261.694L601.84 267.202C602.05 267.428 602.314 267.491 602.597 267.405L603.124 267.244L603.885 268.06L603.076 268.308C602.204 268.574 601.213 268.323 600.583 267.647L595.403 262.092Z" fill="white"/>
<path d="M602.207 265.378C600.737 263.801 600.998 262.407 602.888 261.83C604.446 261.353 606.503 261.749 608.209 263.495L608.519 263.81L603.844 265.239C604.796 266.142 605.93 266.495 606.948 266.183C607.586 265.988 607.904 265.517 607.715 264.96L609.147 264.619C609.65 265.683 609.06 266.623 607.735 267.028C605.846 267.606 603.677 266.954 602.207 265.378ZM603.177 264.49L606.453 263.489C605.422 262.586 604.412 262.449 603.675 262.674C602.731 262.963 602.563 263.629 603.177 264.49Z" fill="white"/>
<path d="M530.126 7.35329C528.621 3.76419 523.344 1.06586 516.072 0.684745C513.181 0.533238 510.287 0.764321 507.572 1.30373L80.8935 97.9787C73.2395 99.7547 66.9333 103.609 64.9381 108.309C64.2354 109.965 64.1313 111.575 64.5469 113.075L126.606 289.317C131.545 302.575 142.781 305.39 156.525 301.492L587.655 182.293C594.417 180.198 596.706 177.955 598.545 173.621C599.391 171.629 599.235 167.83 598.545 166.064L530.126 7.35329Z" stroke="url(#paint1_linear_7228_250216)" stroke-width="1.38714"/>
<path d="M186.793 152.515C146.239 133.732 102.726 130.308 63.0287 142.397L77.3998 111.577C78.3952 109.443 77.4695 106.91 75.3323 105.92C73.195 104.93 70.6555 105.858 69.6601 107.993L50.2317 149.658L48.8863 152.197L59.2481 157.095L93.0986 172.072C95.2438 173.021 97.7582 172.078 98.7495 169.952C99.753 167.8 98.8198 165.247 96.6652 164.249L66.4582 150.258C103.768 139.16 144.742 142.434 183.19 160.241C264.596 197.945 300.612 293.421 265.039 375.083C264.099 377.242 265.014 379.785 267.151 380.774C269.289 381.764 271.838 380.826 272.782 378.668C310.345 292.732 272.469 192.195 186.793 152.515Z" fill="#E4255B"/>
<g filter="url(#filter1_d_7228_250216)">
<path d="M495.266 340.74C507.476 348.442 514.164 362.694 510.683 375.768C510.326 374.715 509.786 375.385 508.75 375.395C511.677 363.009 505.419 349.804 494.215 342.551C493.684 342.208 493.46 341.563 493.717 341.066C493.991 340.54 494.699 340.382 495.266 340.74Z" fill="url(#paint2_linear_7228_250216)" fill-opacity="0.8"/>
<path d="M495.604 340.201C494.668 339.611 493.522 339.881 493.086 340.722C492.669 341.525 493.039 342.548 493.869 343.086C504.812 350.17 510.93 363.073 508.069 375.182L507.86 376.066L508.835 376.057C509.17 376.054 509.455 375.997 509.676 375.945C509.834 375.908 509.932 375.883 510.008 375.865C510.012 375.878 510.018 375.891 510.023 375.905L510.786 378.154L511.36 375.996C514.917 362.635 508.082 348.071 495.604 340.201Z" stroke="black" stroke-opacity="0.13" stroke-width="1.35912" stroke-linejoin="round"/>
<path d="M493.993 368.411C490.428 381.801 477.354 389.615 462.991 388.021C462.902 388.012 462.837 387.926 462.858 387.847C462.873 387.792 462.927 387.757 462.99 387.762C476.704 388.943 488.976 381.088 492.06 368.038C492.103 367.856 492.144 367.673 492.183 367.49L492.728 367.8L493.806 367.232L494.171 367.704C494.115 367.94 494.056 368.176 493.993 368.411Z" fill="url(#paint3_linear_7228_250216)" fill-opacity="0.8"/>
<path d="M493.417 366.644L492.674 367.036L492.49 366.932L491.676 366.467L491.5 367.289C491.462 367.468 491.421 367.647 491.379 367.826C488.364 380.583 476.37 388.256 462.975 387.103C462.6 387.07 462.272 387.279 462.181 387.619C462.053 388.1 462.449 388.619 462.987 388.679C477.666 390.308 491.027 382.323 494.67 368.64C494.734 368.399 494.794 368.158 494.851 367.917L494.922 367.619L494.716 367.352L494.351 366.88L493.951 366.363L493.417 366.644Z" stroke="black" stroke-opacity="0.13" stroke-width="1.35912"/>
<path d="M494.891 341.789C485.627 336.222 489.416 329.53 495.262 327.159C501.108 324.787 504.73 319.772 502.11 315.096" stroke="url(#paint4_linear_7228_250216)" stroke-width="2.23353" stroke-linecap="round"/>
<path d="M502.422 348.666C497.868 344.629 496.298 343.522 494.821 342.583C493.343 341.645 494.299 340.515 495.387 341.129C495.764 341.342 495.823 341.455 495.838 341.604C495.928 342.475 496.774 343.115 497.466 343.754C498.87 345.048 500.918 347.07 502.422 348.666Z" fill="url(#paint5_linear_7228_250216)"/>
<path d="M494.625 342.213C506.117 349.022 512.445 362.417 509.76 374.82C509.76 374.82 510.267 374.632 510.356 374.835C513.524 361.776 506.677 348.529 495.157 341.28C494.875 341.102 494.52 341.166 494.367 341.419C494.21 341.68 494.329 342.038 494.625 342.213Z" fill="url(#paint6_linear_7228_250216)"/>
<path d="M493.523 368.076C489.945 381.52 478.008 389.248 463.772 387.967C477.753 388.684 489.877 381.041 492.968 367.957C493.087 368.123 493.313 368.185 493.481 368.098L493.523 368.076Z" fill="url(#paint7_linear_7228_250216)"/>
</g>
<path d="M330.246 419.813C329.12 420.215 326.628 420.938 323.333 419.813C322.127 418.846 324.056 418.447 323.333 417.321C322.609 416.196 324.297 414.91 327.352 413.706C330.406 412.503 329.522 411.453 330.246 409.446C330.969 407.439 333.622 407.354 334.667 409.042C335.712 410.73 337.56 408.961 342.544 407.354C347.527 405.746 349.698 409.044 346.804 409.446C343.91 409.848 344.473 412.179 343.267 413.706C342.062 415.233 345.598 417.404 346.804 420.78C348.01 424.156 339.731 424.796 338.043 422.063C336.355 419.33 331.371 419.41 330.246 419.813Z" fill="url(#paint8_linear_7228_250216)" fill-opacity="0.1"/>
<path d="M320.675 449.204C319.55 448.481 322.142 447.275 321.675 445.204C320.55 443.034 317.063 442.722 319.877 441.677C322.69 440.632 327.352 442.239 328.879 443.606C330.406 444.972 334.667 444.731 336.998 444.731C339.329 444.731 339.811 441.194 341.82 439.265C343.83 437.336 345.92 439.828 344.473 441.194C343.026 442.561 342.544 444.731 344.071 445.133C345.598 445.535 347.769 444.008 351.948 444.731C356.128 445.454 350.984 450.599 349.537 449.072C348.09 447.544 345.036 448.268 344.071 449.795C343.107 451.322 344.393 453.171 345.92 455.824C347.447 458.476 343.75 456.547 341.82 455.824C339.891 455.1 339.65 457.994 336.435 459.441C333.22 460.888 332.577 457.029 335.47 454.136C338.364 451.242 335.47 450.599 333.541 449.795C331.612 448.991 330.246 447.866 328.477 446.66C326.709 445.454 325.3 448.589 324.175 449.795C323.05 451.001 321.8 449.928 320.675 449.204Z" fill="url(#paint9_linear_7228_250216)" fill-opacity="0.1"/>
<g filter="url(#filter2_d_7228_250216)">
<path fill-rule="evenodd" clip-rule="evenodd" d="M323.8 443.419C323.923 443.171 324.223 443.069 324.47 443.192C324.717 443.315 324.818 443.615 324.696 443.862C324.538 444.18 324.59 444.504 324.646 445.085C324.698 445.626 324.726 446.317 324.226 447.012C324.065 447.236 323.753 447.288 323.529 447.127C323.305 446.965 323.253 446.652 323.414 446.428C323.692 446.043 323.698 445.671 323.651 445.181C323.607 444.731 323.484 444.055 323.8 443.419ZM333.35 411.989C333.538 411.787 333.854 411.775 334.057 411.963C334.259 412.15 334.271 412.466 334.083 412.669C333.544 413.25 332.802 413.442 332.29 413.584C332.011 413.661 331.807 413.72 331.649 413.798C331.502 413.869 331.448 413.932 331.422 413.988C331.308 414.239 331.012 414.351 330.761 414.237C330.51 414.123 330.398 413.827 330.512 413.576C330.667 413.233 330.941 413.03 331.209 412.899C331.467 412.773 331.768 412.691 332.024 412.62C332.583 412.465 333.034 412.329 333.35 411.989Z" fill="white"/>
</g>
<g filter="url(#filter3_d_7228_250216)">
<path d="M308.28 405.506C315.563 401.434 318.825 393.01 316.628 385.361C316.614 385.314 316.56 385.291 316.517 385.315C316.487 385.332 316.472 385.368 316.481 385.401C318.385 392.758 315.028 400.747 307.894 404.502C301.124 408.065 293.062 406.706 287.936 401.687C287.693 401.449 287.306 401.427 287.048 401.647C286.773 401.881 286.748 402.296 287.003 402.552C292.475 408.052 301.169 409.482 308.28 405.506Z" fill="url(#paint10_linear_7228_250216)" fill-opacity="0.8"/>
<path d="M286.582 402.967C286.073 402.456 286.136 401.644 286.661 401.198C287.164 400.77 287.898 400.823 288.351 401.266C293.294 406.105 301.076 407.421 307.615 403.979C314.505 400.353 317.742 392.641 315.906 385.547C315.831 385.257 315.958 384.949 316.225 384.8C316.602 384.589 317.08 384.786 317.199 385.2C319.47 393.107 316.099 401.813 308.572 406.022C301.223 410.131 292.238 408.653 286.582 402.967Z" stroke="black" stroke-opacity="0.13" stroke-width="1.18478"/>
<path d="M287.558 402.179C283.564 397.962 280.105 401.101 279.284 404.691C278.463 408.28 275.941 411.064 273.049 410.36" stroke="url(#paint11_linear_7228_250216)" stroke-width="1.94701" stroke-linecap="round"/>
<path d="M292.142 405.239C289.439 403.371 288.67 402.682 288.004 402.017C287.338 401.352 286.782 402.057 287.229 402.558C287.733 403.124 288.583 403.082 289.221 403.493C290.07 404.039 291.22 404.73 292.142 405.239Z" fill="url(#paint12_linear_7228_250216)"/>
<path d="M308.046 405.298C315.359 401.209 318.674 393.424 316.666 385.796C318.331 393.373 315.081 401.247 307.929 405.011C301.074 408.618 292.746 407.284 287.781 401.968C287.655 401.833 287.441 401.823 287.307 401.951C287.177 402.075 287.173 402.281 287.299 402.409C292.531 407.68 300.839 409.328 308.046 405.298Z" fill="url(#paint13_linear_7228_250216)"/>
</g>
<g filter="url(#filter4_d_7228_250216)">
<path d="M342.198 440.465C339.927 448.494 343.577 456.757 350.539 460.613C350.582 460.636 350.637 460.614 350.65 460.566C350.659 460.533 350.645 460.498 350.615 460.48C344.067 456.624 340.791 448.601 343.181 440.902C345.448 433.595 352.11 428.856 359.283 428.78C359.624 428.776 359.912 428.519 359.94 428.18C359.969 427.821 359.693 427.509 359.332 427.508C351.573 427.488 344.414 432.625 342.198 440.465Z" fill="url(#paint14_linear_7228_250216)" fill-opacity="0.8"/>
<path d="M359.336 426.917C360.056 426.919 360.586 427.537 360.531 428.225C360.478 428.883 359.921 429.364 359.287 429.371C352.37 429.445 345.938 434.017 343.747 441.075C341.439 448.511 344.604 456.252 350.918 459.97C351.177 460.122 351.304 460.43 351.221 460.724C351.103 461.14 350.627 461.339 350.25 461.13C343.053 457.145 339.28 448.605 341.626 440.307C343.917 432.205 351.316 426.897 359.336 426.917Z" stroke="black" stroke-opacity="0.13" stroke-width="1.18478"/>
<path d="M359.205 428.168C365.011 428.326 365.238 423.659 363.28 420.541C361.322 417.422 361.137 413.67 363.679 412.123" stroke="url(#paint15_linear_7228_250216)" stroke-width="1.94701" stroke-linecap="round"/>
<path d="M353.798 429.245C357.03 428.656 358.061 428.599 359.002 428.598C359.943 428.597 359.838 427.706 359.168 427.667C358.411 427.623 357.84 428.254 357.099 428.415C356.112 428.629 354.81 428.954 353.798 429.245Z" fill="url(#paint16_linear_7228_250216)"/>
<path d="M342.516 440.447C340.236 448.509 343.397 456.357 350.21 460.332C343.676 456.151 340.406 448.285 342.802 440.566C345.098 433.168 351.93 428.223 359.2 428.471C359.385 428.477 359.543 428.333 359.547 428.148C359.552 427.968 359.409 427.82 359.229 427.819C351.803 427.79 344.762 432.501 342.516 440.447Z" fill="url(#paint17_linear_7228_250216)"/>
</g>
<circle cx="340.672" cy="411.204" r="0.5" fill="white" fill-opacity="0.5"/>
<circle cx="338.672" cy="449.204" r="0.5" fill="url(#paint18_radial_7228_250216)" fill-opacity="0.5"/>
<circle cx="348.672" cy="446.204" r="0.5" fill="white" fill-opacity="0.5"/>
<path d="M697.456 201.244C716.585 208.606 726.121 230.088 718.756 249.226C712.848 264.578 701.312 278.956 690.161 290.599C676.346 305.025 654.015 320.471 653.966 320.505L649.774 318.891C649.746 318.772 643.546 292.379 642.966 272.436C642.498 256.322 643.577 237.92 649.485 222.567C656.85 203.429 678.328 193.883 697.456 201.244ZM692.18 214.954C680.069 210.294 666.471 216.338 661.808 228.456C658.073 238.161 653.686 260.081 655.309 274.408C655.79 277.464 658.56 278.208 661.431 278.114C665.602 277.977 669.882 279.39 672.976 282.191C675.111 284.124 677.629 285.447 679.681 283.788C689.577 275.935 701.925 255.054 705.666 245.334C710.329 233.217 704.291 219.615 692.18 214.954Z" fill="url(#paint19_linear_7228_250216)"/>
<path d="M697.456 201.244L697.714 200.574L697.714 200.574L697.456 201.244ZM718.756 249.226L719.426 249.483V249.483L718.756 249.226ZM690.161 290.599L690.68 291.096V291.096L690.161 290.599ZM653.966 320.505L653.708 321.175L654.063 321.311L654.375 321.095L653.966 320.505ZM649.774 318.891L649.075 319.056L649.162 319.425L649.516 319.562L649.774 318.891ZM642.966 272.436L642.248 272.457L642.248 272.457L642.966 272.436ZM649.485 222.567L648.814 222.31V222.31L649.485 222.567ZM692.18 214.954L692.438 214.284L692.438 214.284L692.18 214.954ZM661.808 228.456L661.137 228.198L661.137 228.198L661.808 228.456ZM655.309 274.408L654.595 274.489L654.597 274.505L654.6 274.52L655.309 274.408ZM661.431 278.114L661.407 277.396L661.407 277.396L661.431 278.114ZM672.976 282.191L672.494 282.723L672.494 282.723L672.976 282.191ZM679.681 283.788L679.234 283.225L679.229 283.229L679.681 283.788ZM705.666 245.334L706.336 245.592L706.336 245.592L705.666 245.334ZM697.456 201.244L697.198 201.915C715.956 209.134 725.308 230.2 718.086 248.968L718.756 249.226L719.426 249.483C726.934 229.976 717.213 208.078 697.714 200.574L697.456 201.244ZM718.756 249.226L718.086 248.968C712.229 264.186 700.772 278.481 689.643 290.102L690.161 290.599L690.68 291.096C701.851 279.431 713.466 264.97 719.426 249.483L718.756 249.226ZM690.161 290.599L689.643 290.102C675.884 304.468 653.613 319.876 653.558 319.914L653.966 320.505L654.375 321.095C654.418 321.065 676.807 305.581 690.68 291.096L690.161 290.599ZM653.966 320.505L654.224 319.834L650.032 318.221L649.774 318.891L649.516 319.562L653.708 321.175L653.966 320.505ZM649.774 318.891L650.473 318.727C650.443 318.601 644.261 292.275 643.684 272.416L642.966 272.436L642.248 272.457C642.83 292.483 649.048 318.943 649.075 319.056L649.774 318.891ZM642.966 272.436L643.684 272.416C643.216 256.331 644.298 238.044 650.155 222.825L649.485 222.567L648.814 222.31C642.855 237.797 641.779 256.313 642.248 272.457L642.966 272.436ZM649.485 222.567L650.155 222.825C657.378 204.057 678.44 194.696 697.198 201.915L697.456 201.244L697.714 200.574C678.215 193.07 656.322 202.802 648.814 222.31L649.485 222.567ZM692.18 214.954L692.438 214.284C679.956 209.481 665.943 215.711 661.137 228.198L661.808 228.456L662.478 228.713C666.999 216.966 680.182 211.107 691.922 215.625L692.18 214.954ZM661.808 228.456L661.137 228.198C659.246 233.112 657.205 241.071 655.84 249.585C654.475 258.097 653.773 267.232 654.595 274.489L655.309 274.408L656.023 274.327C655.222 267.257 655.902 258.269 657.258 249.813C658.614 241.359 660.634 233.505 662.478 228.713L661.808 228.456ZM655.309 274.408L654.6 274.52C654.878 276.288 655.843 277.43 657.152 278.085C658.418 278.718 659.967 278.881 661.454 278.832L661.431 278.114L661.407 277.396C660.023 277.442 658.752 277.279 657.795 276.8C656.881 276.343 656.221 275.585 656.019 274.297L655.309 274.408ZM661.431 278.114L661.454 278.832C665.458 278.7 669.551 280.059 672.494 282.723L672.976 282.191L673.458 281.658C670.213 278.72 665.746 277.254 661.407 277.396L661.431 278.114ZM672.976 282.191L672.494 282.723C673.592 283.717 674.846 284.61 676.143 285.021C677.476 285.443 678.882 285.357 680.132 284.346L679.681 283.788L679.229 283.229C678.428 283.877 677.549 283.959 676.576 283.651C675.567 283.332 674.495 282.597 673.458 281.658L672.976 282.191ZM679.681 283.788L680.127 284.35C685.172 280.347 690.785 273.081 695.585 265.651C700.392 258.21 704.442 250.514 706.336 245.592L705.666 245.334L704.996 245.076C703.149 249.874 699.154 257.479 694.378 264.871C689.595 272.275 684.086 279.375 679.234 283.225L679.681 283.788ZM705.666 245.334L706.336 245.592C711.142 233.105 704.92 219.088 692.438 214.284L692.18 214.954L691.922 215.625C703.663 220.143 709.516 233.329 704.996 245.076L705.666 245.334Z" fill="white"/>
<path d="M693.161 212.403C706.554 217.557 713.695 232.503 708.538 245.902C703.382 259.301 691.47 278.121 680.527 286.805C678.258 288.64 674.836 287.46 672.476 285.322C669.054 282.224 664.322 280.662 659.709 280.814C656.534 280.918 653.189 279.459 652.658 276.08C650.863 260.237 654.161 240.359 659.317 226.96C664.474 213.561 679.769 207.249 693.161 212.403Z" stroke="white" stroke-width="0.766104"/>
<path d="M653.846 320.933C654.138 320.185 650.11 318.606 649.816 319.358C649.667 319.736 649.844 320.161 650.206 320.346C650.34 320.415 650.44 320.471 650.436 320.483C649.848 322 647.332 328.533 646.777 329.844C646.597 330.269 646.636 330.609 646.562 330.758C640.95 341.954 627.719 347.131 616.345 342.646C608.451 339.532 603.229 332.461 601.872 324.377C601.418 321.672 602.218 321.298 602.805 317.092C603.154 314.597 602.918 309.205 602.342 308.15C601.254 308.925 599.526 314.562 599.232 316.323C598.772 319.072 599.341 321.263 599.756 323.935C601.117 332.701 606.959 340.531 615.804 344.019C628.377 348.978 642.507 343.383 648.406 331.485C648.48 331.336 648.862 330.96 649.041 330.534C649.597 329.218 652.071 322.792 652.638 321.331C652.642 321.318 652.766 321.347 652.922 321.389C653.303 321.492 653.701 321.3 653.846 320.933Z" fill="url(#paint20_linear_7228_250216)" fill-opacity="0.8"/>
<path d="M654.388 321.147C654.161 321.721 653.589 322.045 653.006 321.993C652.225 324.014 650.092 329.542 649.578 330.761C649.458 331.044 649.281 331.292 649.147 331.467C649.085 331.548 649.007 331.646 648.971 331.692C648.915 331.764 648.915 331.769 648.927 331.744C642.895 343.91 628.448 349.632 615.59 344.561C606.545 340.993 600.572 332.986 599.18 324.025C598.775 321.414 598.177 319.095 598.657 316.227C598.812 315.299 599.33 313.414 599.939 311.674C600.245 310.801 600.581 309.946 600.914 309.254C601.08 308.908 601.25 308.593 601.421 308.332C601.585 308.082 601.779 307.836 602.004 307.676L602.539 307.294L602.854 307.871C602.963 308.072 603.044 308.331 603.108 308.598C603.175 308.875 603.233 309.202 603.283 309.559C603.384 310.275 603.458 311.146 603.502 312.053C603.59 313.859 603.564 315.872 603.383 317.172C603.085 319.307 602.726 320.499 602.517 321.426C602.314 322.321 602.234 323.013 602.447 324.28C603.774 332.181 608.871 339.071 616.559 342.103C627.632 346.47 640.534 341.441 646.024 330.53C646.025 330.527 646.026 330.523 646.026 330.519C646.035 330.464 646.038 330.429 646.053 330.323C646.078 330.144 646.122 329.896 646.24 329.617C646.747 328.42 648.916 322.796 649.718 320.722C649.257 320.363 649.042 319.732 649.274 319.144C649.418 318.777 649.757 318.651 649.972 318.608C650.2 318.563 650.452 318.573 650.686 318.604C651.163 318.666 651.734 318.833 652.263 319.04C652.793 319.247 653.325 319.512 653.718 319.79C653.91 319.926 654.103 320.089 654.24 320.276C654.369 320.453 654.532 320.777 654.388 321.145L654.388 321.147Z" stroke="black" stroke-opacity="0.13" stroke-width="1.16545"/>
<path d="M651.958 321.918C652.138 321.461 651.261 320.989 651.08 321.447C650.868 321.984 648.266 328.757 647.654 330.202C647.474 330.627 647.513 330.967 647.438 331.116C641.827 342.312 627.655 347.355 616.282 342.869C608.387 339.755 602.995 332.476 601.638 324.391C601.183 321.687 601.71 321.13 602.298 316.924C602.646 314.429 602.882 310.165 602.307 309.11C601.694 320.517 599.783 319.085 600.463 323.461C601.824 332.227 607.204 339.814 616.049 343.302C628.622 348.262 642.067 343.343 647.966 331.446C648.04 331.297 648.422 330.92 648.601 330.495C649.212 329.049 651.746 322.455 651.958 321.918Z" fill="url(#paint21_linear_7228_250216)"/>
<path d="M651.826 320.206C650.846 319.829 650.467 319.786 650.188 319.779C650.047 319.775 649.957 319.638 650.008 319.506C650.055 319.313 650.784 319.358 651.924 319.774C653.024 320.175 653.685 320.696 653.624 320.854C653.572 320.989 653.406 321.033 653.29 320.946C653.051 320.764 652.696 320.541 651.826 320.206Z" fill="url(#paint22_linear_7228_250216)"/>
<path d="M647.467 330.953L647.536 330.551C647.559 330.417 647.494 330.283 647.375 330.219C647.168 330.108 646.916 330.254 646.872 330.485C646.852 330.588 646.826 330.681 646.792 330.744C646.676 330.961 647.037 331.155 644.93 334.213C643.666 336.047 641.247 338.472 640.037 339.685C640.714 339.117 643.356 336.831 644.448 335.63C645.64 334.319 646.803 332.274 647.375 331.219C647.42 331.135 647.451 331.046 647.467 330.953Z" fill="url(#paint23_linear_7228_250216)"/>
<ellipse cx="251.933" cy="410.191" rx="11.4272" ry="6.2843" transform="rotate(-5.01854 251.933 410.191)" fill="url(#paint24_radial_7228_250216)"/>
<g filter="url(#filter5_d_7228_250216)">
<circle cx="250.5" cy="398.431" r="11.5" fill="url(#paint25_radial_7228_250216)"/>
<circle cx="250.5" cy="398.431" r="11" stroke="#E4255B"/>
</g>
<defs>
<filter id="filter0_d_7228_250216" x="267.164" y="374.298" width="96.3017" height="90.0583" filterUnits="userSpaceOnUse" color-interpolation-filters="sRGB">
<feFlood flood-opacity="0" result="BackgroundImageFix"/>
<feColorMatrix in="SourceAlpha" type="matrix" values="0 0 0 0 0 0 0 0 0 0 0 0 0 0 0 0 0 0 127 0" result="hardAlpha"/>
<feOffset dx="-0.462381" dy="6.01096"/>
<feGaussianBlur stdDeviation="2.88988"/>
<feComposite in2="hardAlpha" operator="out"/>
<feColorMatrix type="matrix" values="0 0 0 0 0 0 0 0 0 0 0 0 0 0 0 0 0 0 0.25 0"/>
<feBlend mode="normal" in2="BackgroundImageFix" result="effect1_dropShadow_7228_250216"/>
<feBlend mode="normal" in="SourceGraphic" in2="effect1_dropShadow_7228_250216" result="shape"/>
</filter>
<filter id="filter1_d_7228_250216" x="435.672" y="308.823" width="101.602" height="94.3984" filterUnits="userSpaceOnUse" color-interpolation-filters="sRGB">
<feFlood flood-opacity="0" result="BackgroundImageFix"/>
<feColorMatrix in="SourceAlpha" type="matrix" values="0 0 0 0 0 0 0 0 0 0 0 0 0 0 0 0 0 0 127 0" result="hardAlpha"/>
<feOffset dy="4"/>
<feGaussianBlur stdDeviation="2"/>
<feComposite in2="hardAlpha" operator="out"/>
<feColorMatrix type="matrix" values="0 0 0 0 0 0 0 0 0 0 0 0 0 0 0 0 0 0 0.25 0"/>
<feBlend mode="normal" in2="BackgroundImageFix" result="effect1_dropShadow_7228_250216"/>
<feBlend mode="normal" in="SourceGraphic" in2="effect1_dropShadow_7228_250216" result="shape"/>
</filter>
<filter id="filter2_d_7228_250216" x="319.32" y="411.829" width="18.8984" height="43.3916" filterUnits="userSpaceOnUse" color-interpolation-filters="sRGB">
<feFlood flood-opacity="0" result="BackgroundImageFix"/>
<feColorMatrix in="SourceAlpha" type="matrix" values="0 0 0 0 0 0 0 0 0 0 0 0 0 0 0 0 0 0 127 0" result="hardAlpha"/>
<feOffset dy="4"/>
<feGaussianBlur stdDeviation="2"/>
<feComposite in2="hardAlpha" operator="out"/>
<feColorMatrix type="matrix" values="0 0 0 0 0 0 0 0 0 0 0 0 0 0 0 0 0 0 0.25 0"/>
<feBlend mode="normal" in2="BackgroundImageFix" result="effect1_dropShadow_7228_250216"/>
<feBlend mode="normal" in="SourceGraphic" in2="effect1_dropShadow_7228_250216" result="shape"/>
</filter>
<filter id="filter3_d_7228_250216" x="267.513" y="381.978" width="59.2785" height="40.9708" filterUnits="userSpaceOnUse" color-interpolation-filters="sRGB">
<feFlood flood-opacity="0" result="BackgroundImageFix"/>
<feColorMatrix in="SourceAlpha" type="matrix" values="0 0 0 0 0 0 0 0 0 0 0 0 0 0 0 0 0 0 127 0" result="hardAlpha"/>
<feOffset dy="3.48688"/>
<feGaussianBlur stdDeviation="1.74344"/>
<feComposite in2="hardAlpha" operator="out"/>
<feColorMatrix type="matrix" values="0 0 0 0 0 0 0 0 0 0 0 0 0 0 0 0 0 0 0.25 0"/>
<feBlend mode="normal" in2="BackgroundImageFix" result="effect1_dropShadow_7228_250216"/>
<feBlend mode="normal" in="SourceGraphic" in2="effect1_dropShadow_7228_250216" result="shape"/>
</filter>
<filter id="filter4_d_7228_250216" x="320.685" y="406.703" width="67.9972" height="67.9982" filterUnits="userSpaceOnUse" color-interpolation-filters="sRGB">
<feFlood flood-opacity="0" result="BackgroundImageFix"/>
<feColorMatrix in="SourceAlpha" type="matrix" values="0 0 0 0 0 0 0 0 0 0 0 0 0 0 0 0 0 0 127 0" result="hardAlpha"/>
<feOffset dy="3.48688"/>
<feGaussianBlur stdDeviation="1.74344"/>
<feComposite in2="hardAlpha" operator="out"/>
<feColorMatrix type="matrix" values="0 0 0 0 0 0 0 0 0 0 0 0 0 0 0 0 0 0 0.25 0"/>
<feBlend mode="normal" in2="BackgroundImageFix" result="effect1_dropShadow_7228_250216"/>
<feBlend mode="normal" in="SourceGraphic" in2="effect1_dropShadow_7228_250216" result="shape"/>
</filter>
<filter id="filter5_d_7228_250216" x="235" y="382.931" width="31" height="31" filterUnits="userSpaceOnUse" color-interpolation-filters="sRGB">
<feFlood flood-opacity="0" result="BackgroundImageFix"/>
<feColorMatrix in="SourceAlpha" type="matrix" values="0 0 0 0 0 0 0 0 0 0 0 0 0 0 0 0 0 0 127 0" result="hardAlpha"/>
<feOffset/>
<feGaussianBlur stdDeviation="2"/>
<feComposite in2="hardAlpha" operator="out"/>
<feColorMatrix type="matrix" values="0 0 0 0 0.894118 0 0 0 0 0.145098 0 0 0 0 0.356863 0 0 0 1 0"/>
<feBlend mode="normal" in2="BackgroundImageFix" result="effect1_dropShadow_7228_250216"/>
<feBlend mode="normal" in="SourceGraphic" in2="effect1_dropShadow_7228_250216" result="shape"/>
</filter>
<linearGradient id="paint0_linear_7228_250216" x1="302.353" y1="374.701" x2="309.349" y2="463.547" gradientUnits="userSpaceOnUse">
<stop stop-color="white"/>
<stop offset="1" stop-color="white" stop-opacity="0"/>
</linearGradient>
<linearGradient id="paint1_linear_7228_250216" x1="339.652" y1="250.995" x2="323.3" y2="160.077" gradientUnits="userSpaceOnUse">
<stop stop-color="white"/>
<stop offset="1" stop-color="#999999" stop-opacity="0"/>
</linearGradient>
<linearGradient id="paint2_linear_7228_250216" x1="480.595" y1="402.596" x2="512.919" y2="403.755" gradientUnits="userSpaceOnUse">
<stop stop-color="white"/>
<stop offset="1" stop-color="white" stop-opacity="0.5"/>
</linearGradient>
<linearGradient id="paint3_linear_7228_250216" x1="463.904" y1="395.238" x2="496.228" y2="396.397" gradientUnits="userSpaceOnUse">
<stop stop-color="white"/>
<stop offset="1" stop-color="white" stop-opacity="0.5"/>
</linearGradient>
<linearGradient id="paint4_linear_7228_250216" x1="488.032" y1="341.939" x2="492.262" y2="327.922" gradientUnits="userSpaceOnUse">
<stop stop-color="white"/>
<stop offset="1" stop-color="white" stop-opacity="0.2"/>
</linearGradient>
<linearGradient id="paint5_linear_7228_250216" x1="496.104" y1="343.64" x2="489.577" y2="328.382" gradientUnits="userSpaceOnUse">
<stop stop-opacity="0.4"/>
<stop offset="1" stop-color="#666666" stop-opacity="0"/>
</linearGradient>
<linearGradient id="paint6_linear_7228_250216" x1="499.991" y1="346.749" x2="486.203" y2="355.811" gradientUnits="userSpaceOnUse">
<stop stop-color="white"/>
<stop offset="1" stop-color="white" stop-opacity="0.5"/>
</linearGradient>
<linearGradient id="paint7_linear_7228_250216" x1="483.31" y1="339.391" x2="469.522" y2="348.453" gradientUnits="userSpaceOnUse">
<stop stop-color="white"/>
<stop offset="1" stop-color="white" stop-opacity="0.5"/>
</linearGradient>
<linearGradient id="paint8_linear_7228_250216" x1="336.224" y1="460.715" x2="326.714" y2="409.017" gradientUnits="userSpaceOnUse">
<stop stop-color="#D9D9D9"/>
<stop offset="1" stop-color="#D9D9D9" stop-opacity="0.5"/>
</linearGradient>
<linearGradient id="paint9_linear_7228_250216" x1="336.224" y1="460.715" x2="326.714" y2="409.017" gradientUnits="userSpaceOnUse">
<stop stop-color="#D9D9D9"/>
<stop offset="1" stop-color="#D9D9D9" stop-opacity="0.5"/>
</linearGradient>
<linearGradient id="paint10_linear_7228_250216" x1="320.809" y1="384.725" x2="326.162" y2="401.76" gradientUnits="userSpaceOnUse">
<stop stop-color="white"/>
<stop offset="1" stop-color="white" stop-opacity="0.5"/>
</linearGradient>
<linearGradient id="paint11_linear_7228_250216" x1="287.027" y1="398.383" x2="279.204" y2="402.452" gradientUnits="userSpaceOnUse">
<stop stop-color="white"/>
<stop offset="1" stop-color="white" stop-opacity="0.2"/>
</linearGradient>
<linearGradient id="paint12_linear_7228_250216" x1="288.719" y1="402.556" x2="279.726" y2="400.328" gradientUnits="userSpaceOnUse">
<stop stop-opacity="0.4"/>
<stop offset="1" stop-color="#666666" stop-opacity="0"/>
</linearGradient>
<linearGradient id="paint13_linear_7228_250216" x1="290.839" y1="404.204" x2="293.861" y2="394.904" gradientUnits="userSpaceOnUse">
<stop stop-color="white"/>
<stop offset="1" stop-color="white" stop-opacity="0.5"/>
</linearGradient>
<linearGradient id="paint14_linear_7228_250216" x1="348.033" y1="464.019" x2="332.202" y2="455.758" gradientUnits="userSpaceOnUse">
<stop stop-color="white"/>
<stop offset="1" stop-color="white" stop-opacity="0.5"/>
</linearGradient>
<linearGradient id="paint15_linear_7228_250216" x1="362.265" y1="430.476" x2="364.92" y2="422.067" gradientUnits="userSpaceOnUse">
<stop stop-color="white"/>
<stop offset="1" stop-color="white" stop-opacity="0.2"/>
</linearGradient>
<linearGradient id="paint16_linear_7228_250216" x1="358.115" y1="428.722" x2="366.05" y2="423.938" gradientUnits="userSpaceOnUse">
<stop stop-opacity="0.4"/>
<stop offset="1" stop-color="#666666" stop-opacity="0"/>
</linearGradient>
<linearGradient id="paint17_linear_7228_250216" x1="355.457" y1="429.052" x2="359.896" y2="437.766" gradientUnits="userSpaceOnUse">
<stop stop-color="white"/>
<stop offset="1" stop-color="white" stop-opacity="0.5"/>
</linearGradient>
<radialGradient id="paint18_radial_7228_250216" cx="0" cy="0" r="1" gradientUnits="userSpaceOnUse" gradientTransform="translate(338.672 448.704) rotate(90) scale(1 0.786487)">
<stop stop-color="white"/>
<stop offset="1" stop-color="#999999"/>
</radialGradient>
<linearGradient id="paint19_linear_7228_250216" x1="697.456" y1="201.244" x2="651.87" y2="319.698" gradientUnits="userSpaceOnUse">
<stop offset="0.0144231" stop-color="#454353"/>
<stop offset="0.980769" stop-color="#292738"/>
</linearGradient>
<linearGradient id="paint20_linear_7228_250216" x1="632.347" y1="354.217" x2="608.113" y2="308.176" gradientUnits="userSpaceOnUse">
<stop stop-color="white"/>
<stop offset="1" stop-color="white" stop-opacity="0.5"/>
</linearGradient>
<linearGradient id="paint21_linear_7228_250216" x1="636.852" y1="320.697" x2="634.882" y2="332.615" gradientUnits="userSpaceOnUse">
<stop stop-color="white"/>
<stop offset="1" stop-color="white" stop-opacity="0.5"/>
</linearGradient>
<linearGradient id="paint22_linear_7228_250216" x1="636.852" y1="320.697" x2="634.882" y2="332.615" gradientUnits="userSpaceOnUse">
<stop stop-color="white"/>
<stop offset="1" stop-color="white" stop-opacity="0.5"/>
</linearGradient>
<linearGradient id="paint23_linear_7228_250216" x1="646.925" y1="329.978" x2="641.918" y2="339.298" gradientUnits="userSpaceOnUse">
<stop stop-opacity="0.4"/>
<stop offset="1" stop-color="#666666" stop-opacity="0"/>
</linearGradient>
<radialGradient id="paint24_radial_7228_250216" cx="0" cy="0" r="1" gradientUnits="userSpaceOnUse" gradientTransform="translate(251.933 410.191) rotate(90) scale(6.2843 11.4272)">
<stop stop-color="#62547B"/>
<stop offset="1" stop-color="#62547B" stop-opacity="0"/>
</radialGradient>
<radialGradient id="paint25_radial_7228_250216" cx="0" cy="0" r="1" gradientUnits="userSpaceOnUse" gradientTransform="translate(252.5 391.431) rotate(104.036) scale(32.9848)">
<stop stop-color="#D2B2FF"/>
<stop offset="0.744587" stop-color="#332449"/>
<stop offset="1" stop-color="#D2B2FF"/>
</radialGradient>
</defs>
</svg>
