<svg width="860" height="593" viewBox="0 0 860 593" fill="none" xmlns="http://www.w3.org/2000/svg">
<path d="M473.839 457.579L426.907 473.3L307.449 336.295C305.435 333.985 302.262 333.056 299.32 333.915L186.238 366.953L148.091 320.946C147.475 320.329 146.381 318.68 146.935 317.016C147.629 314.935 149.71 313.317 152.947 312.161C156.183 311.005 299.984 271.009 300.909 270.777C301.834 270.546 304.606 270.084 305.995 270.777C306.534 270.932 307.937 271.61 309.231 273.089C310.85 274.939 473.377 450.181 475.92 452.956C477.954 455.175 475.38 456.963 473.839 457.579Z" fill="#D9D9D9" fill-opacity="0.07"/>
<path d="M357.088 316.553L457.775 287.407C460.671 286.569 463.791 287.46 465.807 289.702L583.886 421.051C587.863 419.684 619.213 409.312 630.618 405.54C632.546 404.903 633.172 402.506 631.775 401.032C602.412 370.04 486.552 248.896 467.13 228.591C465.371 226.751 462.831 226.113 460.376 226.784L315.659 266.312C313.991 266.768 313.395 268.827 314.563 270.103L357.088 316.553Z" fill="#D2B2FF" fill-opacity="0.4"/>
<path d="M513.835 271.008L586.142 249.798C594.974 247.208 604.513 249.784 610.839 256.47L722.832 374.813L763.454 360.831C767.652 359.386 768.889 354.046 765.754 350.903L613.057 197.791C606.6 191.316 597.165 188.807 588.345 191.218L472.716 222.825C471.029 223.287 470.445 225.381 471.65 226.649L513.835 271.008Z" fill="#D9D9D9" fill-opacity="0.07"/>
<path d="M614.172 191.948C610.772 188.387 603.561 185.931 595.214 185.931C591.896 185.931 588.758 186.319 585.967 187.01L152.99 307.768C145.243 309.977 140 314.222 140 319.096C140 320.813 140.65 322.452 141.832 323.951L290.043 503.166C294.436 508.827 305.304 512.834 318.017 512.834C324.273 512.834 330.083 511.864 334.894 510.203L762.134 366.359C768.727 363.874 773 359.888 773 355.393C773 353.327 772.097 351.369 770.48 349.614L614.172 191.948Z" stroke="white" stroke-width="1.38714"/>
<path d="M772.769 357.243L764.219 418.95C763.797 428.331 757.743 436.524 748.9 439.683L328.039 589.345C312.961 594.73 296.13 589.804 286.336 577.139L151.832 404.495C148.638 400.364 146.718 395.39 146.31 390.184L140 319.559" stroke="white" stroke-width="1.38714"/>
<path d="M338.13 502.662C345.713 500.258 400.629 481.932 427.139 473.07L303.914 332.274L185.776 366.953C218.451 406.487 285.835 488.051 293.973 498.038C304.145 510.522 328.651 505.667 338.13 502.662Z" fill="#D9D9D9" fill-opacity="0.07"/>
<g filter="url(#filter0_d_7410_143123)">
<mask id="path-7-outside-1_7410_143123" maskUnits="userSpaceOnUse" x="425.399" y="306.147" width="101.491" height="109.366" fill="black">
<rect fill="white" x="425.399" y="306.147" width="101.491" height="109.366"/>
<path fill-rule="evenodd" clip-rule="evenodd" d="M444.888 325.982C445.915 325.142 447.512 325.045 448.27 325.775C449.045 326.513 449.249 327.9 448.953 330.478C448.698 332.668 448.436 333.638 447.084 337.247C445.246 342.128 443.714 347.4 442.875 351.674C441.55 358.415 441.402 363.193 442.388 368.664C442.812 371.014 444.513 375.897 445.57 377.813C447.021 380.409 449.484 383.824 451.527 386.027C452.951 387.576 455.476 389.927 456.755 390.916C460.499 393.777 465.914 396.792 469.373 397.962C472.951 399.159 478.047 400.119 481.821 400.315C485.781 400.528 490.631 400.021 494.682 398.979C496.824 398.437 501.629 396.68 503.81 395.665C507.111 394.112 511.736 391.503 514.804 389.45C516.317 388.423 519.07 386.453 521.468 384.652C522.93 383.561 523.427 383.328 523.148 383.9C523.016 384.156 520.311 386.525 518.475 388.001C511.091 393.915 504.675 397.51 496.882 400.111C490.087 402.369 485.4 402.985 479.209 402.443C473.888 401.979 469.117 400.694 464.602 398.538C456.373 394.61 450.525 389.609 445.71 382.35C443.517 379.032 442.579 377.101 441.327 373.281C440.105 369.548 439.744 367.453 439.512 362.7C439.241 357.293 439.415 354.798 440.813 343.028C441.944 333.536 442.23 331.739 443.016 329.373C443.617 327.533 444.14 326.596 444.888 325.982ZM446.86 327.697C446.521 327.546 446.015 327.808 445.549 328.381C444.966 329.105 444.105 330.973 443.711 332.389C443.003 334.922 443.048 336.806 443.827 337.152C445.201 337.76 446.942 334.723 447.264 331.189C447.472 329.012 447.334 327.908 446.86 327.697Z"/>
</mask>
<path fill-rule="evenodd" clip-rule="evenodd" d="M444.888 325.982C445.915 325.142 447.512 325.045 448.27 325.775C449.045 326.513 449.249 327.9 448.953 330.478C448.698 332.668 448.436 333.638 447.084 337.247C445.246 342.128 443.714 347.4 442.875 351.674C441.55 358.415 441.402 363.193 442.388 368.664C442.812 371.014 444.513 375.897 445.57 377.813C447.021 380.409 449.484 383.824 451.527 386.027C452.951 387.576 455.476 389.927 456.755 390.916C460.499 393.777 465.914 396.792 469.373 397.962C472.951 399.159 478.047 400.119 481.821 400.315C485.781 400.528 490.631 400.021 494.682 398.979C496.824 398.437 501.629 396.68 503.81 395.665C507.111 394.112 511.736 391.503 514.804 389.45C516.317 388.423 519.07 386.453 521.468 384.652C522.93 383.561 523.427 383.328 523.148 383.9C523.016 384.156 520.311 386.525 518.475 388.001C511.091 393.915 504.675 397.51 496.882 400.111C490.087 402.369 485.4 402.985 479.209 402.443C473.888 401.979 469.117 400.694 464.602 398.538C456.373 394.61 450.525 389.609 445.71 382.35C443.517 379.032 442.579 377.101 441.327 373.281C440.105 369.548 439.744 367.453 439.512 362.7C439.241 357.293 439.415 354.798 440.813 343.028C441.944 333.536 442.23 331.739 443.016 329.373C443.617 327.533 444.14 326.596 444.888 325.982ZM446.86 327.697C446.521 327.546 446.015 327.808 445.549 328.381C444.966 329.105 444.105 330.973 443.711 332.389C443.003 334.922 443.048 336.806 443.827 337.152C445.201 337.76 446.942 334.723 447.264 331.189C447.472 329.012 447.334 327.908 446.86 327.697Z" fill="url(#paint0_linear_7410_143123)" fill-opacity="0.8"/>
<path d="M444.888 325.982L444.595 325.623L444.594 325.624L444.888 325.982ZM448.27 325.775L447.949 326.108L447.951 326.11L448.27 325.775ZM448.953 330.478L449.412 330.532L449.412 330.531L448.953 330.478ZM447.084 337.247L447.517 337.41L447.517 337.41L447.084 337.247ZM442.875 351.674L443.329 351.763L443.329 351.763L442.875 351.674ZM442.388 368.664L441.932 368.746L441.932 368.746L442.388 368.664ZM445.57 377.813L445.165 378.037L445.166 378.039L445.57 377.813ZM451.527 386.027L451.868 385.714L451.866 385.713L451.527 386.027ZM456.755 390.916L456.472 391.282L456.474 391.283L456.755 390.916ZM469.373 397.962L469.224 398.4L469.226 398.401L469.373 397.962ZM481.821 400.315L481.846 399.854L481.845 399.854L481.821 400.315ZM494.682 398.979L494.568 398.53L494.566 398.531L494.682 398.979ZM503.81 395.665L504.005 396.085L504.007 396.084L503.81 395.665ZM514.804 389.45L515.061 389.834L515.063 389.832L514.804 389.45ZM521.468 384.652L521.191 384.282L521.19 384.283L521.468 384.652ZM523.148 383.9L523.559 384.112L523.563 384.103L523.148 383.9ZM518.475 388.001L518.764 388.361L518.764 388.361L518.475 388.001ZM496.882 400.111L497.028 400.549L497.029 400.549L496.882 400.111ZM479.209 402.443L479.249 401.983L479.249 401.983L479.209 402.443ZM464.602 398.538L464.403 398.956L464.403 398.956L464.602 398.538ZM445.71 382.35L445.324 382.605L445.324 382.605L445.71 382.35ZM441.327 373.281L440.887 373.425L440.888 373.426L441.327 373.281ZM439.512 362.7L439.974 362.677L439.974 362.676L439.512 362.7ZM440.813 343.028L440.354 342.974L440.353 342.974L440.813 343.028ZM443.016 329.373L443.455 329.519L443.456 329.517L443.016 329.373ZM446.86 327.697L447.048 327.274L447.048 327.274L446.86 327.697ZM445.549 328.381L445.19 328.09L445.189 328.091L445.549 328.381ZM443.711 332.389L444.156 332.514L444.157 332.513L443.711 332.389ZM443.827 337.152L443.64 337.574L443.64 337.575L443.827 337.152ZM447.264 331.189L446.804 331.145L446.804 331.147L447.264 331.189ZM444.888 325.982L445.18 326.34C445.613 325.986 446.175 325.784 446.708 325.751C447.249 325.718 447.693 325.861 447.949 326.108L448.27 325.775L448.591 325.442C448.089 324.959 447.356 324.785 446.652 324.828C445.94 324.872 445.19 325.138 444.595 325.623L444.888 325.982ZM448.27 325.775L447.951 326.11C448.24 326.385 448.454 326.807 448.555 327.503C448.658 328.206 448.64 329.151 448.494 330.426L448.953 330.478L449.412 330.531C449.562 329.227 449.59 328.19 449.47 327.37C449.35 326.544 449.075 325.903 448.589 325.44L448.27 325.775ZM448.953 330.478L448.494 330.425C448.245 332.56 447.997 333.49 446.651 337.085L447.084 337.247L447.517 337.41C448.874 333.786 449.151 332.776 449.412 330.532L448.953 330.478ZM447.084 337.247L446.651 337.084C444.806 341.985 443.266 347.282 442.422 351.585L442.875 351.674L443.329 351.763C444.162 347.518 445.687 342.271 447.517 337.41L447.084 337.247ZM442.875 351.674L442.422 351.585C441.087 358.368 440.935 363.206 441.932 368.746L442.388 368.664L442.843 368.582C441.87 363.18 442.012 358.461 443.329 351.763L442.875 351.674ZM442.388 368.664L441.932 368.746C442.151 369.957 442.692 371.793 443.305 373.554C443.917 375.313 444.617 377.043 445.165 378.037L445.57 377.813L445.974 377.59C445.466 376.668 444.787 374.999 444.178 373.25C443.57 371.503 443.048 369.721 442.843 368.582L442.388 368.664ZM445.57 377.813L445.166 378.039C446.635 380.665 449.119 384.111 451.188 386.342L451.527 386.027L451.866 385.713C449.848 383.538 447.407 380.152 445.973 377.588L445.57 377.813ZM451.527 386.027L451.187 386.34C452.624 387.904 455.169 390.274 456.472 391.282L456.755 390.916L457.038 390.55C455.783 389.58 453.277 387.248 451.868 385.714L451.527 386.027ZM456.755 390.916L456.474 391.283C460.248 394.167 465.708 397.21 469.224 398.4L469.373 397.962L469.521 397.524C466.121 396.374 460.749 393.387 457.036 390.549L456.755 390.916ZM469.373 397.962L469.226 398.401C472.844 399.611 477.982 400.579 481.797 400.777L481.821 400.315L481.845 399.854C478.113 399.66 473.057 398.707 469.519 397.524L469.373 397.962ZM481.821 400.315L481.796 400.777C485.806 400.993 490.703 400.48 494.797 399.427L494.682 398.979L494.566 398.531C490.559 399.562 485.756 400.064 481.846 399.854L481.821 400.315ZM494.682 398.979L494.795 399.427C496.97 398.877 501.802 397.109 504.005 396.085L503.81 395.665L503.615 395.246C501.456 396.25 496.678 397.997 494.568 398.53L494.682 398.979ZM503.81 395.665L504.007 396.084C507.329 394.521 511.974 391.9 515.061 389.834L514.804 389.45L514.547 389.065C511.498 391.106 506.894 393.703 503.613 395.247L503.81 395.665ZM514.804 389.45L515.063 389.832C516.584 388.801 519.343 386.826 521.745 385.022L521.468 384.652L521.19 384.283C518.797 386.08 516.05 388.046 514.544 389.067L514.804 389.45ZM521.468 384.652L521.744 385.023C522.485 384.47 522.934 384.172 523.152 384.074C523.205 384.05 523.208 384.055 523.179 384.058C523.161 384.06 522.968 384.078 522.834 383.894C522.777 383.816 522.763 383.738 522.761 383.695C522.758 383.654 522.764 383.627 522.765 383.623C522.766 383.618 522.761 383.639 522.732 383.698L523.148 383.9L523.563 384.103C523.605 384.019 523.645 383.922 523.667 383.824C523.683 383.751 523.722 383.543 523.583 383.352C523.42 383.126 523.171 383.128 523.07 383.14C522.959 383.153 522.853 383.194 522.77 383.231C522.444 383.379 521.913 383.743 521.191 384.282L521.468 384.652ZM523.148 383.9L522.736 383.689C522.756 383.651 522.772 383.638 522.744 383.67C522.725 383.692 522.696 383.724 522.654 383.766C522.571 383.851 522.453 383.965 522.305 384.104C522.009 384.38 521.605 384.743 521.146 385.146C520.227 385.951 519.097 386.908 518.185 387.64L518.475 388.001L518.764 388.361C519.689 387.618 520.829 386.653 521.755 385.841C522.218 385.435 522.63 385.065 522.936 384.779C523.089 384.637 523.218 384.512 523.315 384.413C523.363 384.364 523.407 384.317 523.444 384.275C523.471 384.244 523.523 384.182 523.559 384.112L523.148 383.9ZM518.475 388.001L518.186 387.64C510.838 393.525 504.47 397.091 496.736 399.672L496.882 400.111L497.029 400.549C504.881 397.929 511.343 394.305 518.764 388.361L518.475 388.001ZM496.882 400.111L496.737 399.672C489.992 401.913 485.369 402.519 479.249 401.983L479.209 402.443L479.168 402.904C485.432 403.452 490.182 402.825 497.028 400.549L496.882 400.111ZM479.209 402.443L479.249 401.983C473.981 401.523 469.263 400.251 464.801 398.121L464.602 398.538L464.403 398.956C468.97 401.136 473.795 402.435 479.169 402.904L479.209 402.443ZM464.602 398.538L464.801 398.121C456.644 394.226 450.862 389.28 446.095 382.094L445.71 382.35L445.324 382.605C450.189 389.938 456.102 394.993 464.403 398.956L464.602 398.538ZM445.71 382.35L446.095 382.095C443.925 378.812 443.006 376.918 441.766 373.137L441.327 373.281L440.888 373.426C442.153 377.284 443.109 379.253 445.324 382.605L445.71 382.35ZM441.327 373.281L441.766 373.138C440.56 369.451 440.204 367.398 439.974 362.677L439.512 362.7L439.051 362.722C439.284 367.509 439.651 369.646 440.887 373.425L441.327 373.281ZM439.512 362.7L439.974 362.676C439.705 357.312 439.875 354.851 441.272 343.083L440.813 343.028L440.353 342.974C438.956 354.746 438.778 357.274 439.051 362.723L439.512 362.7ZM440.813 343.028L441.272 343.083C442.406 333.573 442.687 331.83 443.455 329.519L443.016 329.373L442.578 329.227C441.773 331.647 441.483 333.498 440.354 342.974L440.813 343.028ZM443.016 329.373L443.456 329.517C444.051 327.694 444.54 326.865 445.181 326.339L444.888 325.982L444.594 325.624C443.739 326.327 443.183 327.373 442.577 329.23L443.016 329.373ZM446.86 327.697L447.048 327.274C446.699 327.119 446.332 327.205 446.039 327.358C445.739 327.513 445.45 327.771 445.19 328.09L445.549 328.381L445.908 328.673C446.114 328.419 446.311 328.258 446.466 328.178C446.542 328.138 446.598 328.123 446.633 328.119C446.65 328.117 446.661 328.117 446.666 328.118C446.669 328.118 446.671 328.119 446.671 328.119C446.672 328.119 446.673 328.119 446.673 328.119L446.86 327.697ZM445.549 328.381L445.189 328.091C444.86 328.499 444.48 329.19 444.139 329.933C443.794 330.684 443.471 331.529 443.266 332.266L443.711 332.389L444.157 332.513C444.345 331.834 444.65 331.036 444.979 330.319C445.313 329.593 445.655 328.987 445.909 328.671L445.549 328.381ZM443.711 332.389L443.266 332.265C442.905 333.556 442.727 334.709 442.749 335.602C442.76 336.047 442.82 336.452 442.95 336.785C443.079 337.118 443.295 337.422 443.64 337.574L443.827 337.152L444.015 336.729C443.97 336.709 443.888 336.647 443.812 336.451C443.735 336.254 443.683 335.965 443.673 335.579C443.655 334.811 443.809 333.755 444.156 332.514L443.711 332.389ZM443.827 337.152L443.64 337.575C444.178 337.813 444.718 337.667 445.164 337.352C445.603 337.044 446 336.547 446.341 335.955C447.026 334.763 447.559 333.053 447.725 331.231L447.264 331.189L446.804 331.147C446.648 332.859 446.148 334.435 445.539 335.493C445.233 336.026 444.917 336.395 444.632 336.596C444.356 336.79 444.163 336.795 444.015 336.729L443.827 337.152ZM447.264 331.189L447.725 331.233C447.829 330.135 447.851 329.276 447.777 328.652C447.74 328.34 447.677 328.062 447.573 327.833C447.468 327.604 447.304 327.388 447.048 327.274L446.86 327.697L446.672 328.119C446.653 328.111 446.684 328.113 446.732 328.217C446.78 328.324 446.828 328.497 446.859 328.76C446.921 329.285 446.907 330.066 446.804 331.145L447.264 331.189Z" fill="black" fill-opacity="0.13" mask="url(#path-7-outside-1_7410_143123)"/>
</g>
<path d="M643.475 400.824L722.832 374.813L611.453 256.659C605.17 249.994 595.695 247.389 586.888 249.905L513.835 270.777L636.784 399.15C638.507 400.949 641.109 401.6 643.475 400.824Z" fill="#D9D9D9" fill-opacity="0.07"/>
<path d="M357.319 316.785L457.94 287.282C459.5 286.824 461.123 286.842 462.623 287.282M584.117 420.821L466.476 289.71C465.422 288.534 464.08 287.709 462.623 287.282M463.667 227.083L462.623 287.282" stroke="white" stroke-width="0.924763"/>
<path d="M186.007 366.49L298.881 333.519C300.441 333.062 302.064 333.079 303.564 333.519M427.139 472.838L307.417 335.947C306.362 334.772 305.021 333.946 303.564 333.519M304.839 270.777L303.564 333.519" stroke="white" stroke-width="0.924763"/>
<path d="M514.066 271.239C535.644 264.843 580.464 251.588 587.123 249.739C590.2 248.884 593.372 248.661 596.37 248.942M722.6 375.045C686.149 336.204 612.369 257.645 608.855 254.131C606.086 251.363 601.481 249.421 596.37 248.942M600.069 191.248L596.37 248.942" stroke="white" stroke-width="0.924763"/>
<path d="M330.27 511.909L326.34 589.82" stroke="white" stroke-width="0.924763"/>
<path d="M289.349 502.662L288.193 579.186" stroke="white" stroke-width="0.924763"/>
<path d="M762.134 366.49L752.655 438.159" stroke="white" stroke-width="0.924763"/>
<path fill-rule="evenodd" clip-rule="evenodd" d="M457.55 287.411C460.442 286.57 463.562 287.457 465.58 289.694L584.117 421.052L488.434 452.798C486.023 453.598 483.367 452.914 481.642 451.048L357.319 316.554L457.55 287.411ZM410.475 317.61C409.357 316.323 407.74 316.034 405.583 316.694L402.531 317.626L408.502 324.494L412.044 323.411C414.054 322.797 414.56 321.773 413.467 320.516C412.676 319.607 411.441 319.237 410.086 319.517C411.01 319.099 411.156 318.393 410.475 317.61ZM409.407 320.361C410.498 320.027 411.476 320.206 412.073 320.893C412.661 321.57 412.331 322.136 411.24 322.47L409.01 323.152L407.177 321.043L409.407 320.361ZM414.851 316.064C414.018 316.319 413.798 316.778 414.136 317.507L413.259 316.551L412.069 316.914L416.526 322.041L417.825 321.644L415.227 318.655C414.487 317.803 414.554 317.219 415.571 316.908L416.209 316.714L415.477 315.872L414.851 316.064ZM424.329 316.41C422.908 314.776 420.774 314.106 418.911 314.676C417.036 315.249 416.718 316.668 418.139 318.303C419.561 319.938 421.695 320.608 423.57 320.034C425.433 319.465 425.75 318.045 424.329 316.41ZM406.448 317.616C407.649 317.249 408.568 317.397 409.148 318.065C409.703 318.703 409.345 319.254 408.18 319.61L406.403 320.153L404.671 318.16L406.448 317.616ZM419.684 315.566C420.787 315.228 422.006 315.701 422.981 316.823C423.956 317.945 423.899 318.808 422.796 319.145C421.693 319.482 420.463 319.013 419.488 317.891C418.513 316.769 418.582 315.903 419.684 315.566ZM421.716 311.761L427.686 318.629L428.986 318.232L427.808 316.877L428.099 315.552L432.148 317.265L433.656 316.804L428.406 314.638L429.089 311.711L427.409 312.224L426.732 315.64L423.015 311.364L421.716 311.761ZM437.594 312.306C435.952 310.506 433.926 310.085 432.37 310.561C430.482 311.138 430.185 312.564 431.597 314.189C433.01 315.814 435.14 316.497 437.028 315.92C438.352 315.515 438.962 314.557 438.493 313.464L437.065 313.803C437.236 314.375 436.909 314.854 436.271 315.049C435.254 315.36 434.141 314.99 433.222 314.059L437.893 312.631L437.594 312.306ZM443.539 309.607C442.563 308.485 441.101 307.891 439.642 308.337C438.76 308.607 438.253 309.13 438.518 309.917L437.733 309.068L436.545 309.432L441.001 314.559L442.301 314.161L439.711 311.182C438.92 310.273 439.092 309.595 440.036 309.307C440.943 309.03 441.727 309.414 442.517 310.323L445.107 313.303L446.407 312.906L443.539 309.607ZM433.127 311.432C433.862 311.207 434.86 311.354 435.856 312.286L432.583 313.287C431.998 312.401 432.183 311.72 433.127 311.432Z" fill="#D2B2FF"/>
<path d="M223.357 378.529C224.432 380.368 223.961 381.916 221.668 382.617C218.823 383.487 215.635 382.21 213.704 379.909C211.774 377.608 211.936 375.279 214.781 374.409C216.921 373.755 219.239 374.367 221.041 375.873L219.523 376.421C218.341 375.447 216.956 375.12 215.686 375.508C213.628 376.138 213.868 377.788 215.251 379.436C216.625 381.073 218.692 382.151 220.735 381.526C222.075 381.117 222.425 380.19 221.713 378.948L223.357 378.529Z" fill="white"/>
<path d="M230.084 379.989C227.972 380.635 225.588 379.862 224.019 377.993C222.451 376.123 222.829 374.506 224.942 373.86C227.041 373.218 229.425 373.991 230.993 375.86C232.562 377.73 232.183 379.347 230.084 379.989ZM225.538 377.528C226.615 378.811 227.988 379.351 229.23 378.971C230.473 378.591 230.551 377.608 229.474 376.325C228.397 375.042 227.039 374.498 225.796 374.878C224.553 375.258 224.462 376.245 225.538 377.528Z" fill="white"/>
<path d="M229.805 372.54L231.145 372.131L232.012 373.102C231.726 372.203 232.304 371.609 233.298 371.305C234.941 370.803 236.573 371.486 237.649 372.769L240.815 376.541L239.351 376.989L236.492 373.582C235.619 372.542 234.746 372.1 233.724 372.412C232.66 372.738 232.457 373.509 233.33 374.548L236.188 377.956L234.725 378.403L229.805 372.54Z" fill="white"/>
<path d="M237.026 368.665L238.489 368.217L239.603 369.545L241.537 368.953L242.335 369.905L240.402 370.496L243.112 373.726C243.511 374.202 244.005 374.356 244.572 374.183L245.635 373.858L246.443 374.821L245.227 375.192C243.819 375.623 242.567 375.269 241.648 374.174L238.938 370.943L237.819 371.285L237.021 370.334L238.14 369.992L237.026 368.665Z" fill="white"/>
<path d="M243.942 370.428C243.238 369.156 243.804 368.093 245.489 367.578C247.478 366.97 249.311 367.522 250.657 369.126L252.486 371.305C252.736 371.604 252.995 371.664 253.285 371.575L253.575 371.486L254.345 372.404L253.89 372.544C253.236 372.757 252.264 372.943 251.499 372.135C251.641 372.8 251.225 373.525 250.01 373.897C248.532 374.348 246.843 374.073 245.971 373.033C244.987 371.86 245.79 371.184 247.261 370.414L249.082 369.44C248.279 368.504 247.351 368.204 246.287 368.53C245.431 368.791 245.162 369.318 245.526 370.041L243.942 370.428ZM247.471 372.546C247.833 372.978 248.6 373.188 249.567 372.892C250.648 372.548 250.985 371.667 249.926 370.406L249.862 370.328L248.487 371.026C247.599 371.478 246.849 371.805 247.471 372.546Z" fill="white"/>
<path d="M250.533 366.203L251.873 365.793L252.708 366.747C252.482 365.941 252.894 365.314 253.874 365.015C254.924 364.694 256.054 364.904 257.022 365.581C256.694 364.695 257.092 364.031 258.196 363.693C259.674 363.241 261.226 363.768 262.424 365.195L265.589 368.967L264.125 369.414L261.266 366.007C260.394 364.967 259.465 364.543 258.636 364.796C257.586 365.117 257.498 365.88 258.352 366.898L261.211 370.305L259.83 370.728L256.971 367.32C256.117 366.303 255.156 365.86 254.341 366.109C253.305 366.426 253.204 367.194 254.058 368.211L256.916 371.618L255.453 372.066L250.533 366.203Z" fill="white"/>
<path d="M262.464 362.555L263.927 362.108L268.847 367.971L267.383 368.418L262.464 362.555ZM261.712 361.701L260.774 360.584L262.307 360.115L263.245 361.232L261.712 361.701Z" fill="white"/>
<path d="M265.534 361.617L266.873 361.207L267.741 362.179C267.455 361.28 268.033 360.686 269.027 360.382C270.67 359.88 272.302 360.562 273.378 361.846L276.544 365.618L275.08 366.065L272.221 362.658C271.348 361.618 270.474 361.177 269.453 361.489C268.389 361.814 268.186 362.585 269.058 363.625L271.917 367.032L270.454 367.48L265.534 361.617Z" fill="white"/>
<path d="M274.429 361.107C273.726 359.835 274.292 358.772 275.977 358.257C277.965 357.649 279.799 358.201 281.145 359.805L282.973 361.984C283.224 362.283 283.482 362.343 283.772 362.254L284.062 362.165L284.833 363.084L284.377 363.223C283.724 363.437 282.752 363.622 281.986 362.814C282.128 363.479 281.713 364.204 280.497 364.576C279.02 365.028 277.331 364.752 276.458 363.712C275.474 362.539 276.278 361.863 277.749 361.093L279.569 360.12C278.767 359.184 277.838 358.884 276.775 359.209C275.919 359.47 275.649 359.998 276.013 360.72L274.429 361.107ZM277.959 363.225C278.321 363.657 279.087 363.867 280.054 363.572C281.136 363.227 281.472 362.346 280.414 361.085L280.349 361.007L278.974 361.706C278.087 362.158 277.337 362.484 277.959 363.225Z" fill="white"/>
<path d="M280.127 355.487L281.591 355.04L282.705 356.367L284.638 355.776L285.436 356.727L283.503 357.318L286.213 360.549C286.612 361.024 287.107 361.179 287.673 361.006L288.736 360.681L289.544 361.643L288.329 362.015C286.92 362.445 285.668 362.091 284.75 360.996L282.039 357.766L280.92 358.108L280.122 357.157L281.241 356.815L280.127 355.487Z" fill="white"/>
<path d="M287.714 358.519C286.154 356.661 286.51 355.037 288.636 354.387C290.39 353.851 292.657 354.339 294.471 356.398L294.8 356.77L289.539 358.378C290.555 359.444 291.797 359.87 292.943 359.52C293.661 359.3 294.037 358.755 293.853 358.102L295.46 357.722C295.97 358.97 295.27 360.059 293.779 360.515C291.652 361.165 289.273 360.378 287.714 358.519ZM288.833 357.496L292.52 356.369C291.417 355.302 290.3 355.129 289.472 355.382C288.408 355.707 288.191 356.483 288.833 357.496Z" fill="white"/>
<path d="M298.114 349.154L304.704 357.008L303.337 357.426L302.59 356.598C302.677 357.322 302.137 357.96 301.129 358.268C299.223 358.851 297.042 358.03 295.464 356.15C293.886 354.269 294.08 352.722 295.986 352.14C296.939 351.848 298.092 351.941 298.98 352.378L296.65 349.602L298.114 349.154ZM296.983 355.685C298.041 356.946 299.483 357.506 300.657 357.148C301.858 356.78 301.949 355.752 300.891 354.49C299.814 353.207 298.377 352.632 297.176 352.999C295.988 353.362 295.906 354.402 296.983 355.685Z" fill="white"/>
<path d="M533.343 281.065L534.668 280.66L540.88 287.322L539.555 287.728L533.343 281.065Z" fill="white"/>
<path d="M537.798 281.874L538.988 281.51L539.804 282.334C539.514 281.566 540.012 281.052 540.895 280.782C542.355 280.336 543.848 280.905 544.863 281.993L547.846 285.193L546.546 285.59L543.851 282.7C543.028 281.818 542.226 281.448 541.318 281.726C540.374 282.015 540.219 282.677 541.041 283.559L543.736 286.449L542.436 286.847L537.798 281.874Z" fill="white"/>
<path d="M550.484 280.238C549.763 279.651 548.784 279.48 548.048 279.705C546.943 280.042 546.897 280.889 547.912 281.977C548.927 283.066 550.181 283.514 551.285 283.177C552.058 282.94 552.337 282.361 551.825 281.625L553.239 281.265C554.128 282.488 553.587 283.582 552.09 284.04C550.201 284.618 548.032 283.966 546.562 282.39C545.092 280.813 545.353 279.419 547.243 278.842C548.69 278.399 550.568 278.705 551.781 279.769L550.484 280.238Z" fill="white"/>
<path d="M558.82 281.982C556.943 282.556 554.771 281.918 553.292 280.332C551.813 278.747 552.095 277.358 553.972 276.784C555.837 276.214 558.009 276.852 559.488 278.438C560.967 280.024 560.685 281.412 558.82 281.982ZM554.642 279.92C555.657 281.008 556.911 281.457 558.015 281.119C559.119 280.782 559.153 279.939 558.138 278.851C557.123 277.762 555.882 277.31 554.777 277.647C553.673 277.985 553.627 278.831 554.642 279.92Z" fill="white"/>
<path d="M558.299 275.606L559.489 275.242L560.275 276.051C560.043 275.362 560.39 274.822 561.261 274.556C562.194 274.27 563.219 274.44 564.113 275.01C563.787 274.254 564.12 273.682 565.102 273.381C566.415 272.98 567.83 273.416 568.959 274.626L571.942 277.826L570.642 278.223L567.947 275.333C567.124 274.451 566.273 274.097 565.537 274.322C564.605 274.607 564.553 275.262 565.358 276.125L568.053 279.015L566.826 279.39L564.131 276.5C563.326 275.637 562.445 275.267 561.721 275.488C560.801 275.77 560.737 276.428 561.542 277.291L564.237 280.182L562.937 280.579L558.299 275.606Z" fill="white"/>
<path d="M574.622 278.816L568.671 272.435L569.886 272.063L570.614 272.793C570.454 272.131 570.861 271.621 571.793 271.336C573.695 270.754 575.711 271.681 577.015 273.08C578.318 274.478 578.543 275.953 576.641 276.534C575.757 276.804 574.82 276.729 573.962 276.316L575.922 278.418L574.622 278.816ZM572.18 274.558C573.012 275.449 574.335 276.142 575.538 275.774C576.765 275.399 576.501 274.406 575.653 273.496C574.813 272.595 573.498 271.912 572.283 272.283C571.08 272.651 571.349 273.666 572.18 274.558Z" fill="white"/>
<path d="M577.11 271.772C576.431 270.689 576.902 269.774 578.399 269.316C580.165 268.776 581.835 269.23 583.104 270.591L584.827 272.439C585.064 272.693 585.298 272.742 585.556 272.663L585.814 272.584L586.54 273.363L586.135 273.487C585.555 273.676 584.687 273.845 583.97 273.16C584.121 273.728 583.774 274.353 582.694 274.683C581.381 275.085 579.852 274.865 579.029 273.983C578.102 272.988 578.8 272.401 580.096 271.728L581.698 270.876C580.942 270.082 580.096 269.834 579.151 270.123C578.39 270.356 578.167 270.81 578.521 271.425L577.11 271.772ZM580.362 273.552C580.703 273.918 581.4 274.09 582.259 273.828C583.219 273.522 583.49 272.764 582.493 271.694L582.431 271.629L581.22 272.24C580.438 272.636 579.775 272.923 580.362 273.552Z" fill="white"/>
<path d="M582.032 266.903L583.332 266.506L584.382 267.632L586.1 267.106L586.853 267.913L585.135 268.438L587.69 271.178C588.066 271.582 588.516 271.71 589.019 271.556L589.964 271.267L590.725 272.083L589.646 272.413C588.394 272.796 587.256 272.505 586.389 271.576L583.834 268.836L582.841 269.14L582.088 268.333L583.082 268.029L582.032 266.903Z" fill="white"/>
<path d="M587.196 266.771L588.496 266.374L593.134 271.347L591.833 271.745L587.196 266.771ZM586.488 266.047L585.605 265.099L586.967 264.683L587.85 265.631L586.488 266.047Z" fill="white"/>
<path d="M588.157 264.307L589.457 263.909L591.654 266.265C591.575 265.674 592.056 265.141 592.903 264.882C594.596 264.364 596.587 265.046 598.075 266.641C599.562 268.236 599.443 269.563 597.75 270.08C596.855 270.354 595.796 270.268 594.956 269.873L595.584 270.598L594.369 270.969L588.157 264.307ZM593.253 268.115C594.25 269.185 595.555 269.654 596.623 269.328C597.666 269.009 597.723 268.123 596.725 267.053C595.71 265.965 594.397 265.486 593.341 265.809C592.274 266.135 592.238 267.027 593.253 268.115Z" fill="white"/>
<path d="M595.402 262.092L596.702 261.694L601.839 267.202C602.049 267.428 602.313 267.491 602.595 267.405L603.123 267.244L603.884 268.06L603.074 268.308C602.203 268.574 601.212 268.323 600.582 267.647L595.402 262.092Z" fill="white"/>
<path d="M602.206 265.378C600.736 263.801 600.997 262.407 602.887 261.83C604.445 261.353 606.501 261.749 608.208 263.495L608.518 263.81L603.843 265.239C604.795 266.142 605.928 266.495 606.947 266.183C607.585 265.988 607.902 265.517 607.714 264.96L609.146 264.619C609.649 265.683 609.059 266.623 607.734 267.028C605.845 267.606 603.676 266.954 602.206 265.378ZM603.176 264.49L606.452 263.489C605.421 262.586 604.41 262.449 603.674 262.674C602.729 262.963 602.562 263.629 603.176 264.49Z" fill="white"/>
<path d="M530.124 7.35329C528.619 3.76419 523.342 1.06586 516.07 0.684745C513.179 0.533238 510.285 0.764321 507.57 1.30373L80.8916 97.9787C73.2376 99.7547 66.9314 103.609 64.9362 108.309C64.2334 109.965 64.1294 111.575 64.5449 113.075L126.604 289.317C131.543 302.575 142.779 305.39 156.523 301.492L587.653 182.293C594.415 180.198 596.704 177.955 598.543 173.621C599.389 171.629 599.233 167.83 598.543 166.064L530.124 7.35329Z" stroke="url(#paint1_linear_7410_143123)" stroke-width="1.38714"/>
<path d="M422.277 165.514C389.196 135.463 348.699 119.182 307.203 118.846L330.134 93.7343C331.722 91.995 331.596 89.3011 329.853 87.7173C328.11 86.1336 325.409 86.2597 323.821 87.999L292.82 121.947L290.777 123.967L299.2 131.74L327.022 156.156C328.785 157.703 331.467 157.555 333.048 155.823C334.65 154.069 334.523 151.353 332.765 149.757L308.125 127.373C347.046 127.941 385.166 143.319 416.529 171.81C467.884 218.463 482.999 289.969 460.214 351.107C459.343 353.445 460.588 356.063 462.979 356.792C465.099 357.438 467.368 356.355 468.143 354.283C492.217 289.937 476.341 214.627 422.277 165.514Z" fill="#E4255B"/>
<path d="M330.244 419.813C329.118 420.215 326.627 420.938 323.331 419.813C322.125 418.846 324.054 418.447 323.331 417.321C322.607 416.196 324.295 414.91 327.35 413.706C330.404 412.503 329.52 411.453 330.244 409.446C330.967 407.439 333.62 407.354 334.665 409.042C335.71 410.73 337.558 408.961 342.542 407.354C347.526 405.746 349.696 409.044 346.802 409.446C343.908 409.848 344.471 412.179 343.265 413.706C342.06 415.233 345.596 417.404 346.802 420.78C348.008 424.156 339.729 424.796 338.041 422.063C336.353 419.33 331.369 419.41 330.244 419.813Z" fill="url(#paint2_linear_7410_143123)" fill-opacity="0.1"/>
<path d="M320.673 449.204C319.548 448.481 322.14 447.275 321.673 445.204C320.548 443.034 317.061 442.722 319.875 441.677C322.688 440.632 327.35 442.239 328.877 443.606C330.404 444.972 334.665 444.731 336.996 444.731C339.327 444.731 339.809 441.194 341.819 439.265C343.828 437.336 345.918 439.828 344.471 441.194C343.024 442.561 342.542 444.731 344.069 445.133C345.596 445.535 347.767 444.008 351.946 444.731C356.126 445.454 350.982 450.599 349.535 449.072C348.088 447.544 345.034 448.268 344.069 449.795C343.105 451.322 344.391 453.171 345.918 455.824C347.445 458.476 343.748 456.547 341.819 455.824C339.889 455.1 339.648 457.994 336.433 459.441C333.218 460.888 332.575 457.029 335.468 454.136C338.362 451.242 335.468 450.599 333.539 449.795C331.61 448.991 330.244 447.866 328.475 446.66C326.707 445.454 325.298 448.589 324.173 449.795C323.048 451.001 321.798 449.928 320.673 449.204Z" fill="url(#paint3_linear_7410_143123)" fill-opacity="0.1"/>
<g filter="url(#filter1_d_7410_143123)">
<path fill-rule="evenodd" clip-rule="evenodd" d="M323.801 443.419C323.924 443.171 324.225 443.069 324.472 443.192C324.719 443.315 324.819 443.615 324.697 443.862C324.539 444.18 324.591 444.504 324.647 445.085C324.699 445.626 324.729 446.317 324.228 447.012C324.067 447.236 323.754 447.288 323.53 447.127C323.306 446.965 323.255 446.652 323.417 446.428C323.694 446.043 323.7 445.671 323.653 445.181C323.61 444.731 323.486 444.055 323.801 443.419ZM333.351 411.989C333.539 411.786 333.856 411.775 334.058 411.963C334.26 412.15 334.272 412.466 334.085 412.669C333.546 413.25 332.803 413.442 332.292 413.584C332.013 413.661 331.808 413.72 331.65 413.797C331.503 413.869 331.449 413.932 331.423 413.988C331.309 414.239 331.014 414.351 330.762 414.237C330.511 414.123 330.4 413.827 330.513 413.576C330.669 413.233 330.943 413.03 331.211 412.899C331.468 412.773 331.769 412.691 332.025 412.62C332.584 412.465 333.036 412.329 333.351 411.989Z" fill="white"/>
</g>
<g filter="url(#filter2_d_7410_143123)">
<path d="M308.277 405.506C315.56 401.434 318.822 393.01 316.625 385.361C316.611 385.314 316.557 385.291 316.514 385.315C316.484 385.332 316.469 385.368 316.477 385.401C318.382 392.758 315.025 400.747 307.891 404.502C301.121 408.065 293.059 406.706 287.933 401.687C287.689 401.449 287.303 401.427 287.045 401.647C286.77 401.881 286.745 402.296 287 402.552C292.472 408.052 301.166 409.482 308.277 405.506Z" fill="url(#paint4_linear_7410_143123)" fill-opacity="0.8"/>
<path d="M286.579 402.967C286.07 402.456 286.133 401.644 286.658 401.198C287.161 400.77 287.895 400.823 288.348 401.266C293.291 406.105 301.072 407.421 307.612 403.979C314.502 400.353 317.739 392.641 315.903 385.547C315.828 385.257 315.955 384.949 316.222 384.8C316.599 384.589 317.076 384.786 317.196 385.2C319.466 393.107 316.095 401.813 308.569 406.022C301.22 410.131 292.235 408.653 286.579 402.967Z" stroke="black" stroke-opacity="0.13" stroke-width="1.18478"/>
<path d="M287.559 402.179C283.565 397.962 280.106 401.101 279.285 404.691C278.464 408.28 275.942 411.064 273.05 410.36" stroke="url(#paint5_linear_7410_143123)" stroke-width="1.94701" stroke-linecap="round"/>
<path d="M292.143 405.239C289.441 403.371 288.671 402.682 288.005 402.017C287.339 401.352 286.783 402.057 287.23 402.558C287.734 403.124 288.584 403.082 289.222 403.493C290.071 404.039 291.221 404.73 292.143 405.239Z" fill="url(#paint6_linear_7410_143123)"/>
<path d="M308.043 405.298C315.356 401.209 318.671 393.424 316.663 385.796C318.327 393.373 315.078 401.247 307.925 405.011C301.071 408.618 292.743 407.284 287.778 401.968C287.651 401.833 287.437 401.823 287.303 401.951C287.173 402.075 287.169 402.281 287.296 402.409C292.527 407.68 300.836 409.328 308.043 405.298Z" fill="url(#paint7_linear_7410_143123)"/>
</g>
<g filter="url(#filter3_d_7410_143123)">
<path d="M342.2 440.465C339.929 448.494 343.579 456.757 350.541 460.613C350.584 460.636 350.639 460.614 350.652 460.566C350.661 460.533 350.647 460.498 350.617 460.48C344.069 456.624 340.793 448.601 343.183 440.902C345.45 433.595 352.112 428.856 359.285 428.78C359.626 428.776 359.914 428.519 359.942 428.18C359.971 427.821 359.695 427.509 359.334 427.508C351.575 427.488 344.416 432.625 342.2 440.465Z" fill="url(#paint8_linear_7410_143123)" fill-opacity="0.8"/>
<path d="M359.338 426.917C360.058 426.919 360.588 427.537 360.533 428.225C360.48 428.883 359.923 429.364 359.289 429.371C352.372 429.445 345.94 434.017 343.749 441.075C341.441 448.511 344.606 456.252 350.92 459.97C351.179 460.122 351.306 460.43 351.223 460.724C351.105 461.14 350.629 461.339 350.252 461.13C343.055 457.145 339.282 448.605 341.628 440.307C343.919 432.205 351.318 426.897 359.338 426.917Z" stroke="black" stroke-opacity="0.13" stroke-width="1.18478"/>
<path d="M359.202 428.168C365.008 428.326 365.234 423.659 363.277 420.541C361.319 417.422 361.134 413.67 363.676 412.123" stroke="url(#paint9_linear_7410_143123)" stroke-width="1.94701" stroke-linecap="round"/>
<path d="M353.797 429.245C357.029 428.656 358.06 428.599 359.001 428.598C359.942 428.597 359.837 427.706 359.167 427.667C358.41 427.623 357.838 428.254 357.097 428.415C356.111 428.629 354.809 428.954 353.797 429.245Z" fill="url(#paint10_linear_7410_143123)"/>
<path d="M342.512 440.447C340.233 448.509 343.393 456.357 350.207 460.332C343.672 456.151 340.402 448.285 342.798 440.566C345.094 433.168 351.926 428.223 359.196 428.471C359.382 428.477 359.54 428.333 359.544 428.148C359.548 427.968 359.406 427.82 359.225 427.819C351.799 427.79 344.759 432.501 342.512 440.447Z" fill="url(#paint11_linear_7410_143123)"/>
</g>
<circle cx="340.672" cy="411.204" r="0.5" fill="white" fill-opacity="0.5"/>
<circle cx="338.672" cy="449.204" r="0.5" fill="url(#paint12_radial_7410_143123)" fill-opacity="0.5"/>
<circle cx="348.672" cy="446.204" r="0.5" fill="white" fill-opacity="0.5"/>
<path d="M697.455 201.244C716.584 208.606 726.12 230.088 718.755 249.226C712.847 264.578 701.311 278.956 690.16 290.599C676.345 305.025 654.014 320.471 653.965 320.505L649.773 318.891C649.745 318.772 643.545 292.379 642.965 272.436C642.497 256.322 643.576 237.92 649.484 222.567C656.849 203.429 678.327 193.883 697.455 201.244ZM692.179 214.954C680.068 210.294 666.47 216.338 661.807 228.456C658.072 238.161 653.685 260.081 655.308 274.408C655.789 277.464 658.559 278.208 661.43 278.114C665.601 277.977 669.881 279.39 672.975 282.191C675.11 284.124 677.628 285.447 679.68 283.788C689.576 275.935 701.924 255.054 705.665 245.334C710.328 233.217 704.29 219.615 692.179 214.954Z" fill="url(#paint13_linear_7410_143123)"/>
<path d="M697.455 201.244L697.713 200.574L697.713 200.574L697.455 201.244ZM718.755 249.226L719.425 249.483V249.483L718.755 249.226ZM690.16 290.599L690.679 291.096V291.096L690.16 290.599ZM653.965 320.505L653.707 321.175L654.062 321.311L654.374 321.095L653.965 320.505ZM649.773 318.891L649.074 319.056L649.161 319.425L649.515 319.562L649.773 318.891ZM642.965 272.436L642.247 272.457L642.247 272.457L642.965 272.436ZM649.484 222.567L648.814 222.31V222.31L649.484 222.567ZM692.179 214.954L692.437 214.284L692.437 214.284L692.179 214.954ZM661.807 228.456L661.136 228.198L661.136 228.198L661.807 228.456ZM655.308 274.408L654.594 274.489L654.596 274.505L654.599 274.52L655.308 274.408ZM661.43 278.114L661.406 277.396L661.406 277.396L661.43 278.114ZM672.975 282.191L672.493 282.723L672.493 282.723L672.975 282.191ZM679.68 283.788L679.233 283.225L679.228 283.229L679.68 283.788ZM705.665 245.334L706.335 245.592L706.335 245.592L705.665 245.334ZM697.455 201.244L697.197 201.915C715.955 209.134 725.307 230.2 718.085 248.968L718.755 249.226L719.425 249.483C726.933 229.976 717.212 208.078 697.713 200.574L697.455 201.244ZM718.755 249.226L718.085 248.968C712.228 264.186 700.771 278.481 689.642 290.102L690.16 290.599L690.679 291.096C701.85 279.431 713.465 264.97 719.425 249.483L718.755 249.226ZM690.16 290.599L689.642 290.102C675.883 304.468 653.612 319.876 653.557 319.914L653.965 320.505L654.374 321.095C654.417 321.065 676.806 305.581 690.679 291.096L690.16 290.599ZM653.965 320.505L654.223 319.834L650.031 318.221L649.773 318.891L649.515 319.562L653.707 321.175L653.965 320.505ZM649.773 318.891L650.472 318.727C650.442 318.601 644.26 292.275 643.683 272.416L642.965 272.436L642.247 272.457C642.829 292.483 649.047 318.943 649.074 319.056L649.773 318.891ZM642.965 272.436L643.683 272.416C643.216 256.331 644.298 238.044 650.154 222.825L649.484 222.567L648.814 222.31C642.854 237.797 641.778 256.313 642.247 272.457L642.965 272.436ZM649.484 222.567L650.154 222.825C657.377 204.057 678.439 194.696 697.197 201.915L697.455 201.244L697.713 200.574C678.214 193.07 656.321 202.802 648.814 222.31L649.484 222.567ZM692.179 214.954L692.437 214.284C679.955 209.481 665.942 215.711 661.136 228.198L661.807 228.456L662.477 228.713C666.998 216.966 680.181 211.107 691.921 215.625L692.179 214.954ZM661.807 228.456L661.136 228.198C659.245 233.112 657.204 241.071 655.839 249.585C654.474 258.097 653.772 267.232 654.594 274.489L655.308 274.408L656.022 274.327C655.221 267.257 655.901 258.269 657.257 249.813C658.613 241.359 660.633 233.505 662.477 228.713L661.807 228.456ZM655.308 274.408L654.599 274.52C654.877 276.288 655.842 277.43 657.151 278.085C658.417 278.718 659.966 278.881 661.453 278.832L661.43 278.114L661.406 277.396C660.022 277.442 658.751 277.279 657.794 276.8C656.88 276.343 656.22 275.585 656.018 274.297L655.308 274.408ZM661.43 278.114L661.453 278.832C665.457 278.7 669.55 280.059 672.493 282.723L672.975 282.191L673.457 281.658C670.212 278.72 665.745 277.254 661.406 277.396L661.43 278.114ZM672.975 282.191L672.493 282.723C673.591 283.717 674.845 284.61 676.142 285.021C677.475 285.443 678.881 285.357 680.131 284.346L679.68 283.788L679.228 283.229C678.427 283.877 677.548 283.959 676.575 283.651C675.566 283.332 674.494 282.597 673.457 281.658L672.975 282.191ZM679.68 283.788L680.126 284.35C685.171 280.347 690.784 273.081 695.584 265.651C700.391 258.21 704.441 250.514 706.335 245.592L705.665 245.334L704.995 245.076C703.148 249.874 699.153 257.479 694.377 264.871C689.594 272.275 684.085 279.375 679.233 283.225L679.68 283.788ZM705.665 245.334L706.335 245.592C711.141 233.105 704.919 219.088 692.437 214.284L692.179 214.954L691.921 215.625C703.662 220.143 709.515 233.329 704.995 245.076L705.665 245.334Z" fill="white"/>
<path d="M693.16 212.403C706.553 217.557 713.694 232.503 708.538 245.902C703.381 259.301 691.469 278.121 680.526 286.805C678.257 288.64 674.836 287.46 672.475 285.322C669.054 282.224 664.321 280.662 659.708 280.814C656.534 280.918 653.189 279.459 652.657 276.08C650.862 260.237 654.16 240.359 659.317 226.96C664.473 213.561 679.768 207.249 693.16 212.403Z" stroke="white" stroke-width="0.766104"/>
<path d="M653.847 320.933C654.14 320.185 650.112 318.606 649.817 319.358C649.668 319.736 649.845 320.161 650.207 320.346C650.342 320.415 650.442 320.471 650.437 320.483C649.85 322 647.334 328.533 646.779 329.844C646.599 330.269 646.638 330.609 646.563 330.758C640.952 341.954 627.72 347.131 616.347 342.646C608.452 339.532 603.231 332.461 601.873 324.377C601.419 321.672 602.219 321.298 602.807 317.092C603.155 314.597 602.919 309.205 602.344 308.15C601.256 308.925 599.528 314.562 599.234 316.323C598.774 319.072 599.342 321.263 599.757 323.935C601.119 332.701 606.961 340.531 615.805 344.019C628.379 348.978 642.508 343.383 648.407 331.485C648.481 331.336 648.863 330.96 649.043 330.534C649.598 329.218 652.073 322.792 652.639 321.331C652.644 321.318 652.767 321.347 652.924 321.389C653.304 321.492 653.703 321.3 653.847 320.933Z" fill="url(#paint14_linear_7410_143123)" fill-opacity="0.8"/>
<path d="M654.389 321.147C654.163 321.721 653.59 322.045 653.008 321.993C652.226 324.014 650.093 329.542 649.579 330.761C649.46 331.044 649.282 331.292 649.148 331.467C649.086 331.548 649.009 331.646 648.973 331.692C648.917 331.764 648.917 331.769 648.929 331.744C642.896 343.91 628.449 349.632 615.591 344.561C606.547 340.993 600.573 332.986 599.182 324.025C598.776 321.414 598.179 319.095 598.659 316.227C598.814 315.299 599.331 313.414 599.941 311.674C600.247 310.801 600.583 309.946 600.915 309.254C601.081 308.908 601.252 308.593 601.423 308.332C601.586 308.082 601.78 307.836 602.006 307.676L602.541 307.294L602.856 307.871C602.965 308.072 603.045 308.331 603.11 308.598C603.176 308.875 603.234 309.202 603.285 309.559C603.385 310.275 603.459 311.146 603.503 312.053C603.591 313.859 603.566 315.872 603.384 317.172C603.086 319.307 602.728 320.499 602.518 321.426C602.316 322.321 602.236 323.013 602.448 324.28C603.775 332.181 608.872 339.071 616.56 342.103C627.633 346.47 640.536 341.441 646.026 330.53C646.026 330.527 646.027 330.523 646.028 330.519C646.037 330.464 646.04 330.429 646.055 330.323C646.08 330.144 646.124 329.896 646.242 329.617C646.749 328.42 648.918 322.796 649.719 320.722C649.258 320.363 649.043 319.732 649.275 319.144C649.42 318.777 649.759 318.651 649.974 318.608C650.201 318.563 650.453 318.573 650.687 318.604C651.165 318.666 651.735 318.833 652.265 319.04C652.795 319.247 653.326 319.512 653.719 319.79C653.912 319.926 654.105 320.089 654.241 320.276C654.37 320.453 654.534 320.777 654.39 321.145L654.389 321.147Z" stroke="black" stroke-opacity="0.13" stroke-width="1.16545"/>
<path d="M651.955 321.918C652.136 321.461 651.258 320.989 651.078 321.447C650.866 321.984 648.263 328.757 647.651 330.202C647.471 330.627 647.51 330.967 647.436 331.116C641.824 342.312 627.653 347.355 616.279 342.869C608.384 339.755 602.993 332.476 601.635 324.391C601.181 321.687 601.708 321.13 602.295 316.924C602.644 314.429 602.88 310.165 602.304 309.11C601.691 320.517 599.781 319.085 600.46 323.461C601.821 332.227 607.202 339.814 616.046 343.302C628.62 348.262 642.065 343.343 647.964 331.446C648.038 331.297 648.42 330.92 648.599 330.495C649.209 329.049 651.744 322.455 651.955 321.918Z" fill="url(#paint15_linear_7410_143123)"/>
<path d="M651.823 320.206C650.843 319.829 650.464 319.786 650.186 319.779C650.045 319.775 649.955 319.638 650.005 319.506C650.052 319.313 650.782 319.358 651.922 319.774C653.021 320.175 653.682 320.696 653.621 320.854C653.569 320.989 653.404 321.033 653.288 320.946C653.048 320.764 652.693 320.541 651.823 320.206Z" fill="url(#paint16_linear_7410_143123)"/>
<path d="M647.468 330.953L647.537 330.551C647.56 330.417 647.495 330.283 647.376 330.219C647.169 330.108 646.917 330.254 646.873 330.485C646.853 330.588 646.827 330.681 646.793 330.744C646.677 330.961 647.038 331.155 644.931 334.213C643.666 336.047 641.248 338.472 640.038 339.685C640.715 339.117 643.357 336.831 644.449 335.63C645.641 334.319 646.804 332.274 647.376 331.219C647.421 331.135 647.452 331.046 647.468 330.953Z" fill="url(#paint17_linear_7410_143123)"/>
<ellipse cx="450.933" cy="384.191" rx="11.4272" ry="6.2843" transform="rotate(-5.01854 450.933 384.191)" fill="url(#paint18_radial_7410_143123)"/>
<g filter="url(#filter4_d_7410_143123)">
<circle cx="449.5" cy="371.431" r="11.5" fill="url(#paint19_radial_7410_143123)"/>
<circle cx="449.5" cy="371.431" r="11" stroke="#E4255B"/>
</g>
<defs>
<filter id="filter0_d_7410_143123" x="432.7" y="324.822" width="96.3017" height="90.0583" filterUnits="userSpaceOnUse" color-interpolation-filters="sRGB">
<feFlood flood-opacity="0" result="BackgroundImageFix"/>
<feColorMatrix in="SourceAlpha" type="matrix" values="0 0 0 0 0 0 0 0 0 0 0 0 0 0 0 0 0 0 127 0" result="hardAlpha"/>
<feOffset dx="-0.462381" dy="6.01096"/>
<feGaussianBlur stdDeviation="2.88988"/>
<feComposite in2="hardAlpha" operator="out"/>
<feColorMatrix type="matrix" values="0 0 0 0 0 0 0 0 0 0 0 0 0 0 0 0 0 0 0.25 0"/>
<feBlend mode="normal" in2="BackgroundImageFix" result="effect1_dropShadow_7410_143123"/>
<feBlend mode="normal" in="SourceGraphic" in2="effect1_dropShadow_7410_143123" result="shape"/>
</filter>
<filter id="filter1_d_7410_143123" x="319.322" y="411.829" width="18.8955" height="43.3916" filterUnits="userSpaceOnUse" color-interpolation-filters="sRGB">
<feFlood flood-opacity="0" result="BackgroundImageFix"/>
<feColorMatrix in="SourceAlpha" type="matrix" values="0 0 0 0 0 0 0 0 0 0 0 0 0 0 0 0 0 0 127 0" result="hardAlpha"/>
<feOffset dy="4"/>
<feGaussianBlur stdDeviation="2"/>
<feComposite in2="hardAlpha" operator="out"/>
<feColorMatrix type="matrix" values="0 0 0 0 0 0 0 0 0 0 0 0 0 0 0 0 0 0 0.25 0"/>
<feBlend mode="normal" in2="BackgroundImageFix" result="effect1_dropShadow_7410_143123"/>
<feBlend mode="normal" in="SourceGraphic" in2="effect1_dropShadow_7410_143123" result="shape"/>
</filter>
<filter id="filter2_d_7410_143123" x="267.513" y="381.978" width="59.277" height="40.9708" filterUnits="userSpaceOnUse" color-interpolation-filters="sRGB">
<feFlood flood-opacity="0" result="BackgroundImageFix"/>
<feColorMatrix in="SourceAlpha" type="matrix" values="0 0 0 0 0 0 0 0 0 0 0 0 0 0 0 0 0 0 127 0" result="hardAlpha"/>
<feOffset dy="3.48688"/>
<feGaussianBlur stdDeviation="1.74344"/>
<feComposite in2="hardAlpha" operator="out"/>
<feColorMatrix type="matrix" values="0 0 0 0 0 0 0 0 0 0 0 0 0 0 0 0 0 0 0.25 0"/>
<feBlend mode="normal" in2="BackgroundImageFix" result="effect1_dropShadow_7410_143123"/>
<feBlend mode="normal" in="SourceGraphic" in2="effect1_dropShadow_7410_143123" result="shape"/>
</filter>
<filter id="filter3_d_7410_143123" x="320.685" y="406.703" width="67.9972" height="67.9982" filterUnits="userSpaceOnUse" color-interpolation-filters="sRGB">
<feFlood flood-opacity="0" result="BackgroundImageFix"/>
<feColorMatrix in="SourceAlpha" type="matrix" values="0 0 0 0 0 0 0 0 0 0 0 0 0 0 0 0 0 0 127 0" result="hardAlpha"/>
<feOffset dy="3.48688"/>
<feGaussianBlur stdDeviation="1.74344"/>
<feComposite in2="hardAlpha" operator="out"/>
<feColorMatrix type="matrix" values="0 0 0 0 0 0 0 0 0 0 0 0 0 0 0 0 0 0 0.25 0"/>
<feBlend mode="normal" in2="BackgroundImageFix" result="effect1_dropShadow_7410_143123"/>
<feBlend mode="normal" in="SourceGraphic" in2="effect1_dropShadow_7410_143123" result="shape"/>
</filter>
<filter id="filter4_d_7410_143123" x="434" y="355.931" width="31" height="31" filterUnits="userSpaceOnUse" color-interpolation-filters="sRGB">
<feFlood flood-opacity="0" result="BackgroundImageFix"/>
<feColorMatrix in="SourceAlpha" type="matrix" values="0 0 0 0 0 0 0 0 0 0 0 0 0 0 0 0 0 0 127 0" result="hardAlpha"/>
<feOffset/>
<feGaussianBlur stdDeviation="2"/>
<feComposite in2="hardAlpha" operator="out"/>
<feColorMatrix type="matrix" values="0 0 0 0 0.894118 0 0 0 0 0.145098 0 0 0 0 0.356863 0 0 0 1 0"/>
<feBlend mode="normal" in2="BackgroundImageFix" result="effect1_dropShadow_7410_143123"/>
<feBlend mode="normal" in="SourceGraphic" in2="effect1_dropShadow_7410_143123" result="shape"/>
</filter>
<linearGradient id="paint0_linear_7410_143123" x1="467.889" y1="325.225" x2="474.885" y2="414.071" gradientUnits="userSpaceOnUse">
<stop stop-color="white"/>
<stop offset="1" stop-color="white" stop-opacity="0"/>
</linearGradient>
<linearGradient id="paint1_linear_7410_143123" x1="339.65" y1="250.995" x2="323.298" y2="160.077" gradientUnits="userSpaceOnUse">
<stop stop-color="white"/>
<stop offset="1" stop-color="#999999" stop-opacity="0"/>
</linearGradient>
<linearGradient id="paint2_linear_7410_143123" x1="336.222" y1="460.715" x2="326.712" y2="409.017" gradientUnits="userSpaceOnUse">
<stop stop-color="#D9D9D9"/>
<stop offset="1" stop-color="#D9D9D9" stop-opacity="0.5"/>
</linearGradient>
<linearGradient id="paint3_linear_7410_143123" x1="336.222" y1="460.715" x2="326.712" y2="409.017" gradientUnits="userSpaceOnUse">
<stop stop-color="#D9D9D9"/>
<stop offset="1" stop-color="#D9D9D9" stop-opacity="0.5"/>
</linearGradient>
<linearGradient id="paint4_linear_7410_143123" x1="320.806" y1="384.725" x2="326.159" y2="401.76" gradientUnits="userSpaceOnUse">
<stop stop-color="white"/>
<stop offset="1" stop-color="white" stop-opacity="0.5"/>
</linearGradient>
<linearGradient id="paint5_linear_7410_143123" x1="287.028" y1="398.383" x2="279.205" y2="402.452" gradientUnits="userSpaceOnUse">
<stop stop-color="white"/>
<stop offset="1" stop-color="white" stop-opacity="0.2"/>
</linearGradient>
<linearGradient id="paint6_linear_7410_143123" x1="288.721" y1="402.556" x2="279.727" y2="400.328" gradientUnits="userSpaceOnUse">
<stop stop-opacity="0.4"/>
<stop offset="1" stop-color="#666666" stop-opacity="0"/>
</linearGradient>
<linearGradient id="paint7_linear_7410_143123" x1="290.835" y1="404.204" x2="293.858" y2="394.904" gradientUnits="userSpaceOnUse">
<stop stop-color="white"/>
<stop offset="1" stop-color="white" stop-opacity="0.5"/>
</linearGradient>
<linearGradient id="paint8_linear_7410_143123" x1="348.035" y1="464.019" x2="332.204" y2="455.758" gradientUnits="userSpaceOnUse">
<stop stop-color="white"/>
<stop offset="1" stop-color="white" stop-opacity="0.5"/>
</linearGradient>
<linearGradient id="paint9_linear_7410_143123" x1="362.262" y1="430.476" x2="364.916" y2="422.067" gradientUnits="userSpaceOnUse">
<stop stop-color="white"/>
<stop offset="1" stop-color="white" stop-opacity="0.2"/>
</linearGradient>
<linearGradient id="paint10_linear_7410_143123" x1="358.114" y1="428.722" x2="366.049" y2="423.938" gradientUnits="userSpaceOnUse">
<stop stop-opacity="0.4"/>
<stop offset="1" stop-color="#666666" stop-opacity="0"/>
</linearGradient>
<linearGradient id="paint11_linear_7410_143123" x1="355.453" y1="429.052" x2="359.892" y2="437.766" gradientUnits="userSpaceOnUse">
<stop stop-color="white"/>
<stop offset="1" stop-color="white" stop-opacity="0.5"/>
</linearGradient>
<radialGradient id="paint12_radial_7410_143123" cx="0" cy="0" r="1" gradientUnits="userSpaceOnUse" gradientTransform="translate(338.672 448.704) rotate(90) scale(1 0.786487)">
<stop stop-color="white"/>
<stop offset="1" stop-color="#999999"/>
</radialGradient>
<linearGradient id="paint13_linear_7410_143123" x1="697.455" y1="201.244" x2="651.87" y2="319.698" gradientUnits="userSpaceOnUse">
<stop offset="0.0144231" stop-color="#454353"/>
<stop offset="0.980769" stop-color="#292738"/>
</linearGradient>
<linearGradient id="paint14_linear_7410_143123" x1="632.348" y1="354.217" x2="608.115" y2="308.176" gradientUnits="userSpaceOnUse">
<stop stop-color="white"/>
<stop offset="1" stop-color="white" stop-opacity="0.5"/>
</linearGradient>
<linearGradient id="paint15_linear_7410_143123" x1="636.849" y1="320.697" x2="634.88" y2="332.615" gradientUnits="userSpaceOnUse">
<stop stop-color="white"/>
<stop offset="1" stop-color="white" stop-opacity="0.5"/>
</linearGradient>
<linearGradient id="paint16_linear_7410_143123" x1="636.849" y1="320.697" x2="634.88" y2="332.615" gradientUnits="userSpaceOnUse">
<stop stop-color="white"/>
<stop offset="1" stop-color="white" stop-opacity="0.5"/>
</linearGradient>
<linearGradient id="paint17_linear_7410_143123" x1="646.926" y1="329.978" x2="641.919" y2="339.298" gradientUnits="userSpaceOnUse">
<stop stop-opacity="0.4"/>
<stop offset="1" stop-color="#666666" stop-opacity="0"/>
</linearGradient>
<radialGradient id="paint18_radial_7410_143123" cx="0" cy="0" r="1" gradientUnits="userSpaceOnUse" gradientTransform="translate(450.933 384.191) rotate(90) scale(6.2843 11.4272)">
<stop stop-color="#62547B"/>
<stop offset="1" stop-color="#62547B" stop-opacity="0"/>
</radialGradient>
<radialGradient id="paint19_radial_7410_143123" cx="0" cy="0" r="1" gradientUnits="userSpaceOnUse" gradientTransform="translate(451.5 364.431) rotate(104.036) scale(32.9848)">
<stop stop-color="#D2B2FF"/>
<stop offset="0.744587" stop-color="#332449"/>
<stop offset="1" stop-color="#D2B2FF"/>
</radialGradient>
</defs>
</svg>
