<svg width="869" height="593" viewBox="0 0 869 593" fill="none" xmlns="http://www.w3.org/2000/svg">
<path d="M473.839 457.579L426.907 473.3L307.449 336.295C305.435 333.985 302.262 333.056 299.32 333.915L186.238 366.953L148.091 320.946C147.475 320.329 146.381 318.68 146.935 317.016C147.629 314.935 149.71 313.317 152.947 312.161C156.183 311.005 299.984 271.009 300.909 270.777C301.834 270.546 304.606 270.084 305.995 270.777C306.534 270.932 307.937 271.61 309.231 273.089C310.85 274.939 473.377 450.181 475.92 452.956C477.954 455.175 475.38 456.963 473.839 457.579Z" fill="#D9D9D9" fill-opacity="0.07"/>
<path d="M357.088 316.553L457.775 287.407C460.671 286.569 463.791 287.46 465.807 289.702L583.886 421.051C587.863 419.684 619.213 409.312 630.618 405.54C632.546 404.903 633.172 402.506 631.775 401.032C602.412 370.04 486.552 248.896 467.13 228.591C465.371 226.751 462.831 226.113 460.376 226.784L315.659 266.312C313.991 266.768 313.395 268.827 314.563 270.103L357.088 316.553Z" fill="#D9D9D9" fill-opacity="0.07"/>
<path d="M513.835 271.008L586.142 249.798C594.974 247.208 604.513 249.784 610.839 256.47L722.832 374.813L763.454 360.831C767.652 359.386 768.889 354.046 765.754 350.903L613.057 197.791C606.6 191.316 597.165 188.807 588.345 191.218L472.716 222.825C471.029 223.287 470.445 225.381 471.65 226.649L513.835 271.008Z" fill="#D2B2FF" fill-opacity="0.4"/>
<path d="M614.172 191.948C610.772 188.387 603.561 185.931 595.214 185.931C591.896 185.931 588.758 186.319 585.967 187.01L152.99 307.768C145.243 309.977 140 314.222 140 319.096C140 320.813 140.65 322.452 141.832 323.951L290.043 503.166C294.436 508.827 305.304 512.834 318.017 512.834C324.273 512.834 330.083 511.864 334.894 510.203L762.134 366.359C768.727 363.874 773 359.888 773 355.393C773 353.327 772.097 351.369 770.48 349.614L614.172 191.948Z" stroke="white" stroke-width="1.38714"/>
<path d="M772.769 357.243L764.219 418.95C763.797 428.331 757.743 436.524 748.9 439.683L328.039 589.345C312.961 594.73 296.13 589.804 286.336 577.139L151.832 404.495C148.638 400.364 146.718 395.39 146.31 390.184L140 319.559" stroke="white" stroke-width="1.38714"/>
<path d="M338.13 502.662C345.713 500.258 400.629 481.932 427.139 473.07L303.914 332.274L185.776 366.953C218.451 406.487 285.835 488.051 293.973 498.038C304.145 510.522 328.651 505.667 338.13 502.662Z" fill="#D9D9D9" fill-opacity="0.07"/>
<path d="M488.434 452.798L584.117 421.051L465.58 289.693C463.561 287.457 460.442 286.57 457.55 287.411L357.319 316.553L481.642 451.048C483.366 452.913 486.023 453.598 488.434 452.798Z" fill="#D9D9D9" fill-opacity="0.07"/>
<path d="M357.319 316.785L457.94 287.282C459.5 286.824 461.123 286.842 462.623 287.282M584.117 420.821L466.476 289.71C465.422 288.534 464.08 287.709 462.623 287.282M463.667 227.083L462.623 287.282" stroke="white" stroke-width="0.924763"/>
<path d="M186.007 366.49L298.881 333.519C300.441 333.062 302.064 333.079 303.564 333.519M427.139 472.838L307.417 335.947C306.362 334.772 305.021 333.946 303.564 333.519M304.839 270.777L303.564 333.519" stroke="white" stroke-width="0.924763"/>
<path d="M514.066 271.239C535.644 264.843 580.464 251.588 587.123 249.739C590.2 248.884 593.372 248.661 596.37 248.942M722.6 375.045C686.149 336.204 612.369 257.645 608.855 254.131C606.086 251.363 601.481 249.421 596.37 248.942M600.069 191.248L596.37 248.942" stroke="white" stroke-width="0.924763"/>
<path d="M330.27 511.909L326.34 589.82" stroke="white" stroke-width="0.924763"/>
<path d="M289.349 502.662L288.193 579.186" stroke="white" stroke-width="0.924763"/>
<path d="M762.134 366.49L752.655 438.159" stroke="white" stroke-width="0.924763"/>
<g filter="url(#filter0_d_7410_143138)">
<mask id="path-14-outside-1_7410_143138" maskUnits="userSpaceOnUse" x="577.114" y="269.207" width="101.491" height="109.366" fill="black">
<rect fill="white" x="577.114" y="269.207" width="101.491" height="109.366"/>
<path fill-rule="evenodd" clip-rule="evenodd" d="M596.603 289.042C597.631 288.203 599.228 288.105 599.986 288.835C600.76 289.574 600.964 290.96 600.669 293.539C600.413 295.728 600.151 296.698 598.799 300.307C596.962 305.187 595.429 310.46 594.591 314.734C593.265 321.475 593.118 326.253 594.103 331.724C594.527 334.075 596.228 338.957 597.285 340.873C598.736 343.468 601.199 346.884 603.243 349.087C604.667 350.636 607.192 352.987 608.47 353.976C612.214 356.837 617.63 359.852 621.088 361.022C624.666 362.219 629.763 363.18 633.537 363.376C637.497 363.589 642.347 363.081 646.397 362.039C648.54 361.497 653.344 359.74 655.525 358.726C658.826 357.172 663.451 354.563 666.519 352.509C668.033 351.482 670.786 349.513 673.184 347.713C674.646 346.621 675.143 346.388 674.864 346.961C674.732 347.216 672.027 349.585 670.19 351.06C662.806 356.975 656.391 360.571 648.598 363.171C641.803 365.429 637.116 366.046 630.924 365.503C625.604 365.04 620.832 363.754 616.318 361.599C608.089 357.67 602.241 352.668 597.425 345.409C595.233 342.092 594.294 340.161 593.042 336.342C591.82 332.609 591.46 330.513 591.228 325.76C590.957 320.353 591.131 317.858 592.528 306.089C593.66 296.596 593.945 294.799 594.732 292.433C595.333 290.593 595.855 289.656 596.603 289.042ZM598.575 290.756C598.236 290.606 597.73 290.869 597.264 291.442C596.68 292.166 595.82 294.034 595.427 295.45C594.718 297.982 594.762 299.866 595.542 300.212C596.915 300.822 598.657 297.784 598.979 294.249C599.187 292.072 599.049 290.967 598.575 290.756Z"/>
</mask>
<path fill-rule="evenodd" clip-rule="evenodd" d="M596.603 289.042C597.631 288.203 599.228 288.105 599.986 288.835C600.76 289.574 600.964 290.96 600.669 293.539C600.413 295.728 600.151 296.698 598.799 300.307C596.962 305.187 595.429 310.46 594.591 314.734C593.265 321.475 593.118 326.253 594.103 331.724C594.527 334.075 596.228 338.957 597.285 340.873C598.736 343.468 601.199 346.884 603.243 349.087C604.667 350.636 607.192 352.987 608.47 353.976C612.214 356.837 617.63 359.852 621.088 361.022C624.666 362.219 629.763 363.18 633.537 363.376C637.497 363.589 642.347 363.081 646.397 362.039C648.54 361.497 653.344 359.74 655.525 358.726C658.826 357.172 663.451 354.563 666.519 352.509C668.033 351.482 670.786 349.513 673.184 347.713C674.646 346.621 675.143 346.388 674.864 346.961C674.732 347.216 672.027 349.585 670.19 351.06C662.806 356.975 656.391 360.571 648.598 363.171C641.803 365.429 637.116 366.046 630.924 365.503C625.604 365.04 620.832 363.754 616.318 361.599C608.089 357.67 602.241 352.668 597.425 345.409C595.233 342.092 594.294 340.161 593.042 336.342C591.82 332.609 591.46 330.513 591.228 325.76C590.957 320.353 591.131 317.858 592.528 306.089C593.66 296.596 593.945 294.799 594.732 292.433C595.333 290.593 595.855 289.656 596.603 289.042ZM598.575 290.756C598.236 290.606 597.73 290.869 597.264 291.442C596.68 292.166 595.82 294.034 595.427 295.45C594.718 297.982 594.762 299.866 595.542 300.212C596.915 300.822 598.657 297.784 598.979 294.249C599.187 292.072 599.049 290.967 598.575 290.756Z" fill="url(#paint0_linear_7410_143138)" fill-opacity="0.8"/>
<path d="M596.603 289.042L596.311 288.684L596.31 288.684L596.603 289.042ZM599.986 288.835L599.665 289.168L599.667 289.17L599.986 288.835ZM600.669 293.539L601.128 293.592L601.128 293.591L600.669 293.539ZM598.799 300.307L599.232 300.47L599.232 300.469L598.799 300.307ZM594.591 314.734L595.045 314.823L595.045 314.823L594.591 314.734ZM594.103 331.724L593.648 331.806L593.648 331.807L594.103 331.724ZM597.285 340.873L596.88 341.096L596.881 341.098L597.285 340.873ZM603.243 349.087L603.583 348.775L603.582 348.773L603.243 349.087ZM608.47 353.976L608.188 354.342L608.19 354.344L608.47 353.976ZM621.088 361.022L620.94 361.46L620.942 361.461L621.088 361.022ZM633.537 363.376L633.562 362.914L633.561 362.914L633.537 363.376ZM646.397 362.039L646.284 361.591L646.282 361.591L646.397 362.039ZM655.525 358.726L655.72 359.145L655.722 359.144L655.525 358.726ZM666.519 352.509L666.776 352.893L666.779 352.892L666.519 352.509ZM673.184 347.713L672.907 347.342L672.906 347.343L673.184 347.713ZM674.864 346.961L675.275 347.172L675.279 347.164L674.864 346.961ZM670.19 351.06L670.479 351.421L670.48 351.42L670.19 351.06ZM648.598 363.171L648.744 363.61L648.745 363.609L648.598 363.171ZM630.924 365.503L630.965 365.043L630.965 365.043L630.924 365.503ZM616.318 361.599L616.119 362.016L616.119 362.016L616.318 361.599ZM597.425 345.409L597.039 345.664L597.04 345.665L597.425 345.409ZM593.042 336.342L592.602 336.486L592.602 336.486L593.042 336.342ZM591.228 325.76L591.69 325.737L591.69 325.737L591.228 325.76ZM592.528 306.089L592.069 306.034L592.069 306.034L592.528 306.089ZM594.732 292.433L595.171 292.579L595.172 292.577L594.732 292.433ZM598.575 290.756L598.762 290.334L598.762 290.333L598.575 290.756ZM597.264 291.442L596.905 291.15L596.904 291.152L597.264 291.442ZM595.427 295.45L595.872 295.574L595.872 295.573L595.427 295.45ZM595.542 300.212L595.355 300.635L595.355 300.635L595.542 300.212ZM598.979 294.249L598.519 294.206L598.519 294.207L598.979 294.249ZM596.603 289.042L596.896 289.4C597.329 289.046 597.891 288.844 598.424 288.812C598.964 288.779 599.409 288.922 599.665 289.168L599.986 288.835L600.306 288.502C599.805 288.019 599.071 287.846 598.367 287.889C597.656 287.932 596.905 288.198 596.311 288.684L596.603 289.042ZM599.986 288.835L599.667 289.17C599.956 289.445 600.169 289.867 600.271 290.563C600.373 291.266 600.355 292.211 600.209 293.486L600.669 293.539L601.128 293.591C601.278 292.287 601.305 291.25 601.186 290.43C601.066 289.604 600.79 288.963 600.305 288.501L599.986 288.835ZM600.669 293.539L600.209 293.485C599.961 295.621 599.713 296.55 598.366 300.145L598.799 300.307L599.232 300.469C600.589 296.846 600.866 295.836 601.128 293.592L600.669 293.539ZM598.799 300.307L598.367 300.144C596.521 305.045 594.981 310.342 594.137 314.645L594.591 314.734L595.045 314.823C595.877 310.578 597.402 305.33 599.232 300.47L598.799 300.307ZM594.591 314.734L594.137 314.645C592.803 321.429 592.651 326.266 593.648 331.806L594.103 331.724L594.558 331.642C593.586 326.24 593.727 321.522 595.045 314.823L594.591 314.734ZM594.103 331.724L593.648 331.807C593.867 333.018 594.407 334.853 595.02 336.613C595.632 338.372 596.332 340.102 596.88 341.096L597.285 340.873L597.69 340.649C597.181 339.727 596.502 338.058 595.893 336.309C595.286 334.562 594.764 332.781 594.558 331.642L594.103 331.724ZM597.285 340.873L596.881 341.098C598.35 343.725 600.834 347.171 602.904 349.402L603.243 349.087L603.582 348.773C601.564 346.598 599.123 343.211 597.688 340.647L597.285 340.873ZM603.243 349.087L602.903 349.4C604.34 350.964 606.884 353.334 608.188 354.342L608.47 353.976L608.753 353.61C607.499 352.64 604.993 350.308 603.583 348.775L603.243 349.087ZM608.47 353.976L608.19 354.344C611.963 357.227 617.423 360.27 620.94 361.46L621.088 361.022L621.236 360.584C617.837 359.434 612.465 356.447 608.751 353.609L608.47 353.976ZM621.088 361.022L620.942 361.461C624.56 362.671 629.698 363.639 633.513 363.837L633.537 363.376L633.561 362.914C629.829 362.72 624.773 361.767 621.235 360.584L621.088 361.022ZM633.537 363.376L633.512 363.837C637.522 364.053 642.419 363.54 646.513 362.487L646.397 362.039L646.282 361.591C642.274 362.623 637.471 363.124 633.562 362.914L633.537 363.376ZM646.397 362.039L646.511 362.487C648.685 361.937 653.517 360.17 655.72 359.145L655.525 358.726L655.33 358.307C653.171 359.311 648.394 361.057 646.284 361.591L646.397 362.039ZM655.525 358.726L655.722 359.144C659.044 357.581 663.689 354.96 666.776 352.893L666.519 352.509L666.262 352.125C663.214 354.165 658.609 356.764 655.328 358.307L655.525 358.726ZM666.519 352.509L666.779 352.892C668.3 351.86 671.059 349.886 673.461 348.082L673.184 347.713L672.906 347.343C670.512 349.14 667.765 351.105 666.26 352.126L666.519 352.509ZM673.184 347.713L673.46 348.083C674.201 347.53 674.65 347.233 674.867 347.134C674.921 347.11 674.924 347.115 674.895 347.119C674.876 347.121 674.684 347.139 674.55 346.955C674.493 346.876 674.479 346.799 674.476 346.756C674.473 346.714 674.479 346.687 674.48 346.684C674.481 346.678 674.477 346.699 674.448 346.758L674.864 346.961L675.279 347.164C675.32 347.079 675.361 346.983 675.383 346.884C675.399 346.812 675.437 346.603 675.299 346.412C675.135 346.186 674.887 346.188 674.786 346.2C674.674 346.213 674.569 346.254 674.486 346.291C674.159 346.439 673.628 346.804 672.907 347.342L673.184 347.713ZM674.864 346.961L674.452 346.75C674.472 346.711 674.488 346.698 674.46 346.73C674.441 346.752 674.412 346.784 674.37 346.826C674.287 346.911 674.169 347.025 674.021 347.164C673.725 347.44 673.321 347.803 672.861 348.205C671.943 349.01 670.812 349.967 669.901 350.699L670.19 351.06L670.48 351.42C671.404 350.678 672.545 349.713 673.471 348.901C673.934 348.495 674.346 348.125 674.652 347.84C674.804 347.697 674.934 347.572 675.031 347.473C675.079 347.424 675.123 347.377 675.159 347.335C675.186 347.304 675.239 347.242 675.275 347.172L674.864 346.961ZM670.19 351.06L669.901 350.699C662.553 356.585 656.186 360.152 648.452 362.732L648.598 363.171L648.745 363.609C656.596 360.989 663.059 357.365 670.479 351.421L670.19 351.06ZM648.598 363.171L648.452 362.732C641.708 364.973 637.085 365.579 630.965 365.043L630.924 365.503L630.884 365.964C637.147 366.512 641.898 365.885 648.744 363.61L648.598 363.171ZM630.924 365.503L630.965 365.043C625.696 364.583 620.979 363.311 616.517 361.181L616.318 361.599L616.119 362.016C620.686 364.196 625.511 365.496 630.884 365.964L630.924 365.503ZM616.318 361.599L616.517 361.181C608.359 357.287 602.577 352.339 597.81 345.153L597.425 345.409L597.04 345.665C601.904 352.997 607.818 358.053 616.119 362.016L616.318 361.599ZM597.425 345.409L597.811 345.154C595.641 341.871 594.721 339.978 593.481 336.198L593.042 336.342L592.602 336.486C593.868 340.345 594.824 342.312 597.039 345.664L597.425 345.409ZM593.042 336.342L593.481 336.198C592.275 332.511 591.92 330.458 591.69 325.737L591.228 325.76L590.766 325.782C590.999 330.569 591.365 332.706 592.602 336.486L593.042 336.342ZM591.228 325.76L591.69 325.737C591.421 320.372 591.59 317.911 592.987 306.143L592.528 306.089L592.069 306.034C590.672 317.806 590.493 320.334 590.766 325.783L591.228 325.76ZM592.528 306.089L592.987 306.143C594.121 296.634 594.402 294.89 595.171 292.579L594.732 292.433L594.293 292.288C593.489 294.707 593.199 296.558 592.069 306.034L592.528 306.089ZM594.732 292.433L595.172 292.577C595.767 290.754 596.256 289.925 596.897 289.399L596.603 289.042L596.31 288.684C595.455 289.387 594.899 290.433 594.293 292.29L594.732 292.433ZM598.575 290.756L598.762 290.333C598.413 290.179 598.046 290.265 597.753 290.418C597.454 290.574 597.164 290.831 596.905 291.15L597.264 291.442L597.623 291.733C597.829 291.479 598.026 291.319 598.181 291.238C598.257 291.198 598.313 291.183 598.348 291.179C598.365 291.177 598.376 291.177 598.381 291.178C598.384 291.178 598.386 291.179 598.386 291.179C598.387 291.179 598.387 291.179 598.387 291.179C598.388 291.179 598.388 291.179 598.388 291.179L598.575 290.756ZM597.264 291.442L596.904 291.152C596.575 291.56 596.195 292.251 595.854 292.993C595.509 293.745 595.186 294.589 594.981 295.326L595.427 295.45L595.872 295.573C596.061 294.894 596.365 294.097 596.694 293.379C597.028 292.653 597.369 292.048 597.624 291.732L597.264 291.442ZM595.427 295.45L594.982 295.325C594.62 296.616 594.443 297.769 594.464 298.662C594.475 299.107 594.535 299.513 594.664 299.845C594.794 300.179 595.01 300.482 595.355 300.635L595.542 300.212L595.73 299.79C595.685 299.77 595.603 299.708 595.527 299.511C595.45 299.314 595.398 299.025 595.389 298.64C595.37 297.871 595.525 296.816 595.872 295.574L595.427 295.45ZM595.542 300.212L595.355 300.635C595.893 300.874 596.432 300.727 596.879 300.413C597.317 300.105 597.714 299.608 598.055 299.015C598.741 297.824 599.273 296.114 599.44 294.291L598.979 294.249L598.519 294.207C598.363 295.919 597.863 297.496 597.254 298.554C596.948 299.087 596.632 299.456 596.347 299.657C596.071 299.851 595.878 299.856 595.73 299.79L595.542 300.212ZM598.979 294.249L599.439 294.293C599.544 293.195 599.566 292.335 599.492 291.711C599.455 291.4 599.392 291.121 599.288 290.893C599.183 290.663 599.018 290.447 598.762 290.334L598.575 290.756L598.387 291.179C598.368 291.171 598.399 291.172 598.447 291.277C598.495 291.383 598.543 291.556 598.574 291.819C598.635 292.345 598.622 293.126 598.519 294.206L598.979 294.249Z" fill="black" fill-opacity="0.13" mask="url(#path-14-outside-1_7410_143138)"/>
</g>
<path d="M408.501 324.494L402.531 317.626L405.583 316.693C407.74 316.033 409.357 316.323 410.476 317.609C411.157 318.393 411.01 319.099 410.085 319.516C411.44 319.237 412.677 319.606 413.467 320.515C414.56 321.772 414.054 322.797 412.044 323.411L408.501 324.494ZM409.01 323.151L411.24 322.469C412.331 322.136 412.661 321.569 412.073 320.892C411.476 320.205 410.498 320.027 409.407 320.36L407.176 321.042L409.01 323.151ZM406.403 320.152L408.18 319.609C409.345 319.253 409.704 318.702 409.149 318.064C408.569 317.396 407.649 317.249 406.448 317.616L404.67 318.16L406.403 320.152Z" fill="white"/>
<path d="M412.069 316.914L413.258 316.55L414.136 317.506C413.797 316.777 414.018 316.318 414.852 316.063L415.477 315.872L416.209 316.714L415.571 316.908C414.554 317.219 414.487 317.803 415.227 318.654L417.826 321.644L416.526 322.041L412.069 316.914Z" fill="white"/>
<path d="M423.57 320.034C421.694 320.608 419.561 319.938 418.139 318.303C416.718 316.668 417.036 315.248 418.911 314.675C420.774 314.105 422.908 314.775 424.329 316.41C425.751 318.045 425.433 319.465 423.57 320.034ZM419.488 317.891C420.463 319.013 421.693 319.482 422.796 319.144C423.899 318.807 423.957 317.945 422.981 316.823C422.006 315.7 420.788 315.228 419.685 315.565C418.582 315.902 418.512 316.768 419.488 317.891Z" fill="white"/>
<path d="M421.716 311.761L423.015 311.363L426.732 315.639L427.409 312.224L429.089 311.71L428.406 314.637L433.656 316.804L432.148 317.265L428.099 315.552L427.809 316.877L428.986 318.231L427.686 318.629L421.716 311.761Z" fill="white"/>
<path d="M431.598 314.188C430.185 312.563 430.482 311.138 432.37 310.56C433.926 310.085 435.953 310.506 437.595 312.306L437.893 312.631L433.223 314.059C434.141 314.99 435.254 315.36 436.272 315.049C436.909 314.854 437.237 314.374 437.065 313.802L438.493 313.464C438.962 314.557 438.352 315.515 437.028 315.92C435.141 316.497 433.011 315.813 431.598 314.188ZM432.583 313.287L435.856 312.286C434.86 311.354 433.862 311.206 433.127 311.431C432.183 311.72 431.999 312.4 432.583 313.287Z" fill="white"/>
<path d="M436.545 309.431L437.734 309.067L438.519 309.917C438.253 309.129 438.76 308.607 439.643 308.337C441.101 307.891 442.564 308.485 443.539 309.607L446.407 312.905L445.108 313.303L442.518 310.323C441.727 309.414 440.943 309.029 440.036 309.306C439.092 309.595 438.92 310.272 439.711 311.181L442.301 314.161L441.001 314.558L436.545 309.431Z" fill="white"/>
<path d="M223.357 378.529C224.432 380.368 223.961 381.916 221.668 382.617C218.823 383.487 215.635 382.21 213.704 379.909C211.774 377.608 211.936 375.279 214.781 374.409C216.921 373.755 219.239 374.367 221.041 375.873L219.523 376.421C218.341 375.447 216.956 375.12 215.686 375.508C213.628 376.138 213.868 377.788 215.251 379.436C216.625 381.073 218.692 382.151 220.735 381.526C222.075 381.117 222.425 380.19 221.713 378.948L223.357 378.529Z" fill="white"/>
<path d="M230.084 379.989C227.972 380.635 225.588 379.862 224.019 377.993C222.451 376.123 222.829 374.506 224.942 373.86C227.041 373.218 229.425 373.991 230.993 375.86C232.562 377.73 232.183 379.347 230.084 379.989ZM225.538 377.528C226.615 378.811 227.988 379.351 229.23 378.971C230.473 378.591 230.551 377.608 229.474 376.325C228.397 375.042 227.039 374.498 225.796 374.878C224.553 375.258 224.462 376.245 225.538 377.528Z" fill="white"/>
<path d="M229.805 372.54L231.145 372.131L232.012 373.102C231.726 372.203 232.304 371.609 233.298 371.305C234.941 370.803 236.573 371.486 237.649 372.769L240.815 376.541L239.351 376.989L236.492 373.582C235.619 372.542 234.746 372.1 233.724 372.412C232.66 372.738 232.457 373.509 233.33 374.548L236.188 377.956L234.725 378.403L229.805 372.54Z" fill="white"/>
<path d="M237.026 368.665L238.489 368.217L239.603 369.545L241.537 368.953L242.335 369.905L240.402 370.496L243.112 373.726C243.511 374.202 244.005 374.356 244.572 374.183L245.635 373.858L246.443 374.821L245.227 375.192C243.819 375.623 242.567 375.269 241.648 374.174L238.938 370.943L237.819 371.285L237.021 370.334L238.14 369.992L237.026 368.665Z" fill="white"/>
<path d="M243.942 370.428C243.238 369.156 243.804 368.093 245.489 367.578C247.478 366.97 249.311 367.522 250.657 369.126L252.486 371.305C252.736 371.604 252.995 371.664 253.285 371.575L253.575 371.486L254.345 372.404L253.89 372.544C253.236 372.757 252.264 372.943 251.499 372.135C251.641 372.8 251.225 373.525 250.01 373.897C248.532 374.348 246.843 374.073 245.971 373.033C244.987 371.86 245.79 371.184 247.261 370.414L249.082 369.44C248.279 368.504 247.351 368.204 246.287 368.53C245.431 368.791 245.162 369.318 245.526 370.041L243.942 370.428ZM247.471 372.546C247.833 372.978 248.6 373.188 249.567 372.892C250.648 372.548 250.985 371.667 249.926 370.406L249.862 370.328L248.487 371.026C247.599 371.478 246.849 371.805 247.471 372.546Z" fill="white"/>
<path d="M250.533 366.203L251.873 365.793L252.708 366.747C252.482 365.941 252.894 365.314 253.874 365.015C254.924 364.694 256.054 364.904 257.022 365.581C256.694 364.695 257.092 364.031 258.196 363.693C259.674 363.241 261.226 363.768 262.424 365.195L265.589 368.967L264.125 369.414L261.266 366.007C260.394 364.967 259.465 364.543 258.636 364.796C257.586 365.117 257.498 365.88 258.352 366.898L261.211 370.305L259.83 370.728L256.971 367.32C256.117 366.303 255.156 365.86 254.341 366.109C253.305 366.426 253.204 367.194 254.058 368.211L256.916 371.618L255.453 372.066L250.533 366.203Z" fill="white"/>
<path d="M262.464 362.555L263.927 362.108L268.847 367.971L267.383 368.418L262.464 362.555ZM261.712 361.701L260.774 360.584L262.307 360.115L263.245 361.232L261.712 361.701Z" fill="white"/>
<path d="M265.534 361.617L266.873 361.207L267.741 362.179C267.455 361.28 268.033 360.686 269.027 360.382C270.67 359.88 272.302 360.562 273.378 361.846L276.544 365.618L275.08 366.065L272.221 362.658C271.348 361.618 270.474 361.177 269.453 361.489C268.389 361.814 268.186 362.585 269.058 363.625L271.917 367.032L270.454 367.48L265.534 361.617Z" fill="white"/>
<path d="M274.429 361.107C273.726 359.835 274.292 358.772 275.977 358.257C277.965 357.649 279.799 358.201 281.145 359.805L282.973 361.984C283.224 362.283 283.482 362.343 283.772 362.254L284.062 362.165L284.833 363.084L284.377 363.223C283.724 363.437 282.752 363.622 281.986 362.814C282.128 363.479 281.713 364.204 280.497 364.576C279.02 365.028 277.331 364.752 276.458 363.712C275.474 362.539 276.278 361.863 277.749 361.093L279.569 360.12C278.767 359.184 277.838 358.884 276.775 359.209C275.919 359.47 275.649 359.998 276.013 360.72L274.429 361.107ZM277.959 363.225C278.321 363.657 279.087 363.867 280.054 363.572C281.136 363.227 281.472 362.346 280.414 361.085L280.349 361.007L278.974 361.706C278.087 362.158 277.337 362.484 277.959 363.225Z" fill="white"/>
<path d="M280.127 355.487L281.591 355.04L282.705 356.367L284.638 355.776L285.436 356.727L283.503 357.318L286.213 360.549C286.612 361.024 287.107 361.179 287.673 361.006L288.736 360.681L289.544 361.643L288.329 362.015C286.92 362.445 285.668 362.091 284.75 360.996L282.039 357.766L280.92 358.108L280.122 357.157L281.241 356.815L280.127 355.487Z" fill="white"/>
<path d="M287.714 358.519C286.154 356.661 286.51 355.037 288.636 354.387C290.39 353.851 292.657 354.339 294.471 356.398L294.8 356.77L289.539 358.378C290.555 359.444 291.797 359.87 292.943 359.52C293.661 359.3 294.037 358.755 293.853 358.102L295.46 357.722C295.97 358.97 295.27 360.059 293.779 360.515C291.652 361.165 289.273 360.378 287.714 358.519ZM288.833 357.496L292.52 356.369C291.417 355.302 290.3 355.129 289.472 355.382C288.408 355.707 288.191 356.483 288.833 357.496Z" fill="white"/>
<path d="M298.114 349.154L304.704 357.008L303.337 357.426L302.59 356.598C302.677 357.322 302.137 357.96 301.129 358.268C299.223 358.851 297.042 358.03 295.464 356.15C293.886 354.269 294.08 352.722 295.986 352.14C296.939 351.848 298.092 351.941 298.98 352.378L296.65 349.602L298.114 349.154ZM296.983 355.685C298.041 356.946 299.483 357.506 300.657 357.148C301.858 356.78 301.949 355.752 300.891 354.49C299.814 353.207 298.377 352.632 297.176 352.999C295.988 353.362 295.906 354.402 296.983 355.685Z" fill="white"/>
<path fill-rule="evenodd" clip-rule="evenodd" d="M586.888 249.905C595.695 247.389 605.171 249.994 611.453 256.659L722.831 374.814L643.476 400.825C641.109 401.601 638.507 400.95 636.784 399.152L513.835 270.779L586.888 249.905ZM533.342 281.066L539.555 287.729L540.88 287.323L534.667 280.661L533.342 281.066ZM544.863 281.993C543.848 280.905 542.356 280.336 540.896 280.782C540.012 281.053 539.514 281.567 539.804 282.334L538.989 281.511L537.798 281.874L542.436 286.848L543.737 286.45L541.041 283.56C540.219 282.678 540.374 282.016 541.319 281.727C542.226 281.449 543.028 281.819 543.851 282.701L546.546 285.591L547.846 285.194L544.863 281.993ZM551.781 279.77C550.568 278.706 548.69 278.399 547.242 278.842C545.353 279.42 545.092 280.814 546.562 282.391C548.032 283.967 550.201 284.618 552.09 284.04C553.587 283.583 554.128 282.489 553.24 281.266L551.824 281.625C552.337 282.361 552.058 282.941 551.285 283.177C550.181 283.515 548.926 283.066 547.911 281.978C546.897 280.89 546.943 280.043 548.047 279.705C548.783 279.48 549.763 279.651 550.485 280.239L551.781 279.77ZM559.489 278.439C558.01 276.853 555.837 276.214 553.972 276.784C552.095 277.358 551.814 278.748 553.292 280.333C554.771 281.919 556.942 282.556 558.82 281.983C560.684 281.412 560.967 280.024 559.489 278.439ZM554.778 277.648C555.882 277.31 557.123 277.763 558.138 278.851C559.153 279.939 559.119 280.783 558.015 281.12C556.911 281.458 555.657 281.009 554.642 279.92C553.627 278.832 553.673 277.985 554.778 277.648ZM568.958 274.627C567.83 273.417 566.415 272.981 565.102 273.382C564.12 273.682 563.787 274.255 564.114 275.011C563.219 274.44 562.193 274.271 561.261 274.556C560.39 274.822 560.042 275.363 560.275 276.052L559.49 275.242L558.299 275.607L562.937 280.58L564.238 280.182L561.542 277.292C560.737 276.429 560.801 275.77 561.721 275.489C562.445 275.267 563.326 275.637 564.131 276.5L566.826 279.391L568.053 279.016L565.358 276.125C564.553 275.262 564.605 274.608 565.537 274.322C566.273 274.098 567.124 274.452 567.947 275.334L570.642 278.224L571.943 277.826L568.958 274.627ZM577.015 273.08C575.711 271.682 573.695 270.755 571.793 271.336C570.861 271.621 570.454 272.132 570.615 272.794L569.886 272.064L568.671 272.436L574.621 278.817L575.922 278.418L573.962 276.317C574.82 276.73 575.757 276.804 576.641 276.534C578.542 275.953 578.318 274.478 577.015 273.08ZM572.282 272.284C573.497 271.913 574.813 272.596 575.653 273.496C576.501 274.406 576.764 275.4 575.537 275.775C574.335 276.142 573.011 275.449 572.18 274.558C571.349 273.667 571.081 272.652 572.282 272.284ZM583.104 270.592C581.835 269.231 580.165 268.777 578.399 269.317C576.902 269.774 576.431 270.69 577.11 271.773L578.521 271.426C578.168 270.811 578.39 270.357 579.151 270.124C580.095 269.835 580.942 270.083 581.698 270.876L580.095 271.729C578.8 272.402 578.102 272.989 579.03 273.984C579.852 274.865 581.381 275.085 582.694 274.684C583.773 274.354 584.122 273.729 583.97 273.16C584.688 273.845 585.555 273.677 586.135 273.488L586.54 273.364L585.814 272.585L585.556 272.663C585.298 272.742 585.064 272.693 584.827 272.44L583.104 270.592ZM582.492 271.695C583.49 272.764 583.219 273.523 582.259 273.828C581.4 274.091 580.703 273.918 580.362 273.552C579.775 272.923 580.438 272.636 581.22 272.24L582.431 271.629L582.492 271.695ZM582.031 266.904L583.082 268.03L582.088 268.333L582.84 269.141L583.834 268.837L586.389 271.576C587.255 272.505 588.394 272.797 589.646 272.414L590.726 272.084L589.964 271.268L589.02 271.557C588.517 271.711 588.066 271.582 587.69 271.179L585.135 268.439L586.853 267.914L586.1 267.107L584.382 267.632L583.332 266.506L582.031 266.904ZM587.196 266.772L591.833 271.745L593.134 271.348L588.496 266.374L587.196 266.772ZM588.156 264.308L594.369 270.97L595.584 270.599L594.955 269.874C595.796 270.268 596.855 270.355 597.75 270.081C599.443 269.564 599.562 268.237 598.074 266.642C596.587 265.047 594.596 264.365 592.903 264.883C592.056 265.142 591.576 265.674 591.654 266.265L589.457 263.91L588.156 264.308ZM593.341 265.81C594.396 265.487 595.71 265.966 596.725 267.054C597.722 268.124 597.665 269.009 596.622 269.328C595.555 269.655 594.251 269.185 593.253 268.115C592.238 267.027 592.274 266.136 593.341 265.81ZM595.402 262.093L600.581 267.648C601.211 268.323 602.203 268.575 603.074 268.309L603.884 268.061L603.123 267.244L602.595 267.405C602.313 267.492 602.048 267.428 601.838 267.203L596.702 261.696L595.402 262.093ZM608.207 263.495C606.501 261.75 604.445 261.354 602.887 261.83C600.997 262.408 600.736 263.802 602.206 265.378C603.676 266.954 605.844 267.606 607.734 267.029C609.059 266.623 609.649 265.683 609.146 264.619L607.714 264.961C607.902 265.518 607.584 265.989 606.947 266.184C605.928 266.495 604.795 266.142 603.843 265.239L608.518 263.811L608.207 263.495ZM585.605 265.1L586.489 266.048L587.85 265.631L586.967 264.684L585.605 265.1ZM603.674 262.675C604.41 262.45 605.421 262.587 606.452 263.489L603.176 264.491C602.562 263.63 602.729 262.964 603.674 262.675Z" fill="#D2B2FF"/>
<path d="M530.124 7.35329C528.619 3.76419 523.342 1.06586 516.07 0.684745C513.179 0.533238 510.285 0.764321 507.57 1.30373L80.8916 97.9787C73.2376 99.7547 66.9314 103.609 64.9362 108.309C64.2334 109.965 64.1294 111.575 64.5449 113.075L126.604 289.317C131.543 302.575 142.779 305.39 156.523 301.492L587.653 182.293C594.415 180.198 596.704 177.955 598.543 173.621C599.389 171.629 599.233 167.83 598.543 166.064L530.124 7.35329Z" stroke="url(#paint1_linear_7410_143138)" stroke-width="1.38714"/>
<path d="M731.411 123.015C773.749 108.697 817.377 109.966 855.547 126.249L844.569 94.0641C843.809 91.8348 845.001 89.4159 847.232 88.6613C849.463 87.9067 851.889 89.1022 852.649 91.3315L867.49 134.843L868.555 137.511L857.727 141.268L822.463 152.523C820.229 153.236 817.83 152.028 817.073 149.808C816.306 147.561 817.508 145.122 819.758 144.362L851.293 133.697C815.391 118.655 774.302 117.51 734.163 131.084C649.179 159.826 603.116 250.881 629.712 335.892C630.416 338.14 629.233 340.569 627.001 341.323C624.77 342.078 622.336 340.872 621.63 338.625C593.514 249.151 641.969 153.264 731.411 123.015Z" fill="#E4255B"/>
<g filter="url(#filter1_d_7410_143138)">
<path d="M495.27 340.74C507.48 348.442 514.167 362.694 510.687 375.768C510.33 374.715 509.789 375.385 508.754 375.395C511.68 363.009 505.423 349.804 494.219 342.551C493.688 342.208 493.463 341.563 493.721 341.066C493.994 340.54 494.702 340.382 495.27 340.74Z" fill="url(#paint2_linear_7410_143138)" fill-opacity="0.8"/>
<path d="M495.607 340.201C494.672 339.611 493.526 339.881 493.089 340.722C492.673 341.525 493.042 342.548 493.873 343.086C504.816 350.17 510.934 363.073 508.073 375.182L507.864 376.066L508.838 376.057C509.173 376.054 509.458 375.997 509.68 375.945C509.838 375.908 509.936 375.883 510.011 375.865C510.016 375.878 510.021 375.891 510.026 375.905L510.789 378.154L511.364 375.996C514.921 362.635 508.085 348.071 495.607 340.201Z" stroke="black" stroke-opacity="0.13" stroke-width="1.35912" stroke-linejoin="round"/>
<path d="M493.999 368.411C490.435 381.801 477.361 389.615 462.997 388.021C462.909 388.012 462.844 387.926 462.865 387.847C462.88 387.792 462.934 387.757 462.996 387.762C476.71 388.943 488.983 381.088 492.066 368.038C492.109 367.856 492.15 367.673 492.19 367.49L492.734 367.8L493.812 367.232L494.177 367.704C494.121 367.94 494.062 368.176 493.999 368.411Z" fill="url(#paint3_linear_7410_143138)" fill-opacity="0.8"/>
<path d="M493.424 366.644L492.68 367.036L492.496 366.932L491.682 366.467L491.507 367.289C491.468 367.468 491.427 367.647 491.385 367.826C488.371 380.583 476.376 388.256 462.981 387.103C462.607 387.07 462.278 387.279 462.188 387.619C462.06 388.1 462.456 388.619 462.994 388.679C477.672 390.308 491.033 382.323 494.676 368.64C494.74 368.399 494.8 368.158 494.858 367.917L494.929 367.619L494.722 367.352L494.357 366.88L493.957 366.363L493.424 366.644Z" stroke="black" stroke-opacity="0.13" stroke-width="1.35912"/>
<path d="M494.894 341.789C485.631 336.222 489.42 329.53 495.266 327.159C501.112 324.787 504.734 319.772 502.114 315.096" stroke="url(#paint4_linear_7410_143138)" stroke-width="2.23353" stroke-linecap="round"/>
<path d="M502.429 348.666C497.875 344.629 496.305 343.522 494.828 342.583C493.35 341.645 494.306 340.515 495.394 341.129C495.771 341.342 495.83 341.455 495.845 341.604C495.935 342.475 496.781 343.115 497.473 343.754C498.877 345.048 500.925 347.07 502.429 348.666Z" fill="url(#paint5_linear_7410_143138)"/>
<path d="M494.632 342.213C506.124 349.022 512.452 362.417 509.767 374.82C509.767 374.82 510.274 374.632 510.363 374.835C513.531 361.776 506.684 348.529 495.164 341.28C494.882 341.102 494.527 341.166 494.374 341.419C494.216 341.68 494.336 342.038 494.632 342.213Z" fill="url(#paint6_linear_7410_143138)"/>
<path d="M493.523 368.076C489.945 381.52 478.008 389.248 463.772 387.967C477.753 388.684 489.877 381.041 492.968 367.957C493.087 368.123 493.313 368.185 493.481 368.098L493.523 368.076Z" fill="url(#paint7_linear_7410_143138)"/>
</g>
<path d="M330.244 419.813C329.118 420.215 326.627 420.938 323.331 419.813C322.125 418.846 324.054 418.447 323.331 417.321C322.607 416.196 324.295 414.91 327.35 413.706C330.404 412.503 329.52 411.453 330.244 409.446C330.967 407.439 333.62 407.354 334.665 409.042C335.71 410.73 337.558 408.961 342.542 407.354C347.526 405.746 349.696 409.044 346.802 409.446C343.908 409.848 344.471 412.179 343.265 413.706C342.06 415.233 345.596 417.404 346.802 420.78C348.008 424.156 339.729 424.796 338.041 422.063C336.353 419.33 331.369 419.41 330.244 419.813Z" fill="url(#paint8_linear_7410_143138)" fill-opacity="0.1"/>
<path d="M320.673 449.204C319.548 448.481 322.14 447.275 321.673 445.204C320.548 443.034 317.061 442.722 319.875 441.677C322.688 440.632 327.35 442.239 328.877 443.606C330.404 444.972 334.665 444.731 336.996 444.731C339.327 444.731 339.809 441.194 341.819 439.265C343.828 437.336 345.918 439.828 344.471 441.194C343.024 442.561 342.542 444.731 344.069 445.133C345.596 445.535 347.767 444.008 351.946 444.731C356.126 445.454 350.982 450.599 349.535 449.072C348.088 447.544 345.034 448.268 344.069 449.795C343.105 451.322 344.391 453.171 345.918 455.824C347.445 458.476 343.748 456.547 341.819 455.824C339.889 455.1 339.648 457.994 336.433 459.441C333.218 460.888 332.575 457.029 335.468 454.136C338.362 451.242 335.468 450.599 333.539 449.795C331.61 448.991 330.244 447.866 328.475 446.66C326.707 445.454 325.298 448.589 324.173 449.795C323.048 451.001 321.798 449.928 320.673 449.204Z" fill="url(#paint9_linear_7410_143138)" fill-opacity="0.1"/>
<g filter="url(#filter2_d_7410_143138)">
<path fill-rule="evenodd" clip-rule="evenodd" d="M323.801 443.419C323.924 443.171 324.225 443.069 324.472 443.192C324.719 443.315 324.819 443.615 324.697 443.862C324.539 444.18 324.591 444.504 324.647 445.085C324.699 445.626 324.729 446.317 324.228 447.012C324.067 447.236 323.754 447.288 323.53 447.127C323.306 446.965 323.255 446.652 323.417 446.428C323.694 446.043 323.7 445.671 323.653 445.181C323.61 444.731 323.486 444.055 323.801 443.419ZM333.351 411.989C333.539 411.786 333.856 411.775 334.058 411.963C334.26 412.15 334.272 412.466 334.085 412.669C333.546 413.25 332.803 413.442 332.292 413.584C332.013 413.661 331.808 413.72 331.65 413.797C331.503 413.869 331.449 413.932 331.423 413.988C331.309 414.239 331.014 414.351 330.762 414.237C330.511 414.123 330.4 413.827 330.513 413.576C330.669 413.233 330.943 413.03 331.211 412.899C331.468 412.773 331.769 412.691 332.025 412.62C332.584 412.465 333.036 412.329 333.351 411.989Z" fill="white"/>
</g>
<g filter="url(#filter3_d_7410_143138)">
<path d="M308.277 405.506C315.56 401.434 318.822 393.01 316.625 385.361C316.611 385.314 316.557 385.291 316.514 385.315C316.484 385.332 316.469 385.368 316.477 385.401C318.382 392.758 315.025 400.747 307.891 404.502C301.121 408.065 293.059 406.706 287.933 401.687C287.689 401.449 287.303 401.427 287.045 401.647C286.77 401.881 286.745 402.296 287 402.552C292.472 408.052 301.166 409.482 308.277 405.506Z" fill="url(#paint10_linear_7410_143138)" fill-opacity="0.8"/>
<path d="M286.579 402.967C286.07 402.456 286.133 401.644 286.658 401.198C287.161 400.77 287.895 400.823 288.348 401.266C293.291 406.105 301.072 407.421 307.612 403.979C314.502 400.353 317.739 392.641 315.903 385.547C315.828 385.257 315.955 384.949 316.222 384.8C316.599 384.589 317.076 384.786 317.196 385.2C319.466 393.107 316.095 401.813 308.569 406.022C301.22 410.131 292.235 408.653 286.579 402.967Z" stroke="black" stroke-opacity="0.13" stroke-width="1.18478"/>
<path d="M287.559 402.179C283.565 397.962 280.106 401.101 279.285 404.691C278.464 408.28 275.942 411.064 273.05 410.36" stroke="url(#paint11_linear_7410_143138)" stroke-width="1.94701" stroke-linecap="round"/>
<path d="M292.143 405.239C289.441 403.371 288.671 402.682 288.005 402.017C287.339 401.352 286.783 402.057 287.23 402.558C287.734 403.124 288.584 403.082 289.222 403.493C290.071 404.039 291.221 404.73 292.143 405.239Z" fill="url(#paint12_linear_7410_143138)"/>
<path d="M308.043 405.298C315.356 401.209 318.671 393.424 316.663 385.796C318.327 393.373 315.078 401.247 307.925 405.011C301.071 408.618 292.743 407.284 287.778 401.968C287.651 401.833 287.437 401.823 287.303 401.951C287.173 402.075 287.169 402.281 287.296 402.409C292.527 407.68 300.836 409.328 308.043 405.298Z" fill="url(#paint13_linear_7410_143138)"/>
</g>
<g filter="url(#filter4_d_7410_143138)">
<path d="M342.2 440.465C339.929 448.494 343.579 456.757 350.541 460.613C350.584 460.636 350.639 460.614 350.652 460.566C350.661 460.533 350.647 460.498 350.617 460.48C344.069 456.624 340.793 448.601 343.183 440.902C345.45 433.595 352.112 428.856 359.285 428.78C359.626 428.776 359.914 428.519 359.942 428.18C359.971 427.821 359.695 427.509 359.334 427.508C351.575 427.488 344.416 432.625 342.2 440.465Z" fill="url(#paint14_linear_7410_143138)" fill-opacity="0.8"/>
<path d="M359.338 426.917C360.058 426.919 360.588 427.537 360.533 428.225C360.48 428.883 359.923 429.364 359.289 429.371C352.372 429.445 345.94 434.017 343.749 441.075C341.441 448.511 344.606 456.252 350.92 459.97C351.179 460.122 351.306 460.43 351.223 460.724C351.105 461.14 350.629 461.339 350.252 461.13C343.055 457.145 339.282 448.605 341.628 440.307C343.919 432.205 351.318 426.897 359.338 426.917Z" stroke="black" stroke-opacity="0.13" stroke-width="1.18478"/>
<path d="M359.202 428.168C365.008 428.326 365.234 423.659 363.277 420.541C361.319 417.422 361.134 413.67 363.676 412.123" stroke="url(#paint15_linear_7410_143138)" stroke-width="1.94701" stroke-linecap="round"/>
<path d="M353.797 429.245C357.029 428.656 358.06 428.599 359.001 428.598C359.942 428.597 359.837 427.706 359.167 427.667C358.41 427.623 357.838 428.254 357.097 428.415C356.111 428.629 354.809 428.954 353.797 429.245Z" fill="url(#paint16_linear_7410_143138)"/>
<path d="M342.512 440.447C340.233 448.509 343.393 456.357 350.207 460.332C343.672 456.151 340.402 448.285 342.798 440.566C345.094 433.168 351.926 428.223 359.196 428.471C359.382 428.477 359.54 428.333 359.544 428.148C359.548 427.968 359.406 427.82 359.225 427.819C351.799 427.79 344.759 432.501 342.512 440.447Z" fill="url(#paint17_linear_7410_143138)"/>
</g>
<circle cx="340.672" cy="411.204" r="0.5" fill="white" fill-opacity="0.5"/>
<circle cx="338.672" cy="449.204" r="0.5" fill="url(#paint18_radial_7410_143138)" fill-opacity="0.5"/>
<circle cx="348.672" cy="446.204" r="0.5" fill="white" fill-opacity="0.5"/>
<path d="M697.455 201.244C716.584 208.606 726.12 230.088 718.755 249.226C712.847 264.578 701.311 278.956 690.16 290.599C676.345 305.025 654.014 320.471 653.965 320.505L649.773 318.891C649.745 318.772 643.545 292.379 642.965 272.436C642.497 256.322 643.576 237.92 649.484 222.567C656.849 203.429 678.327 193.883 697.455 201.244ZM692.179 214.954C680.068 210.294 666.47 216.338 661.807 228.456C658.072 238.161 653.685 260.081 655.308 274.408C655.789 277.464 658.559 278.208 661.43 278.114C665.601 277.977 669.881 279.39 672.975 282.191C675.11 284.124 677.628 285.447 679.68 283.788C689.576 275.935 701.924 255.054 705.665 245.334C710.328 233.217 704.29 219.615 692.179 214.954Z" fill="url(#paint19_linear_7410_143138)"/>
<path d="M697.455 201.244L697.713 200.574L697.713 200.574L697.455 201.244ZM718.755 249.226L719.425 249.483V249.483L718.755 249.226ZM690.16 290.599L690.679 291.096V291.096L690.16 290.599ZM653.965 320.505L653.707 321.175L654.062 321.311L654.374 321.095L653.965 320.505ZM649.773 318.891L649.074 319.056L649.161 319.425L649.515 319.562L649.773 318.891ZM642.965 272.436L642.247 272.457L642.247 272.457L642.965 272.436ZM649.484 222.567L648.814 222.31V222.31L649.484 222.567ZM692.179 214.954L692.437 214.284L692.437 214.284L692.179 214.954ZM661.807 228.456L661.136 228.198L661.136 228.198L661.807 228.456ZM655.308 274.408L654.594 274.489L654.596 274.505L654.599 274.52L655.308 274.408ZM661.43 278.114L661.406 277.396L661.406 277.396L661.43 278.114ZM672.975 282.191L672.493 282.723L672.493 282.723L672.975 282.191ZM679.68 283.788L679.233 283.225L679.228 283.229L679.68 283.788ZM705.665 245.334L706.335 245.592L706.335 245.592L705.665 245.334ZM697.455 201.244L697.197 201.915C715.955 209.134 725.307 230.2 718.085 248.968L718.755 249.226L719.425 249.483C726.933 229.976 717.212 208.078 697.713 200.574L697.455 201.244ZM718.755 249.226L718.085 248.968C712.228 264.186 700.771 278.481 689.642 290.102L690.16 290.599L690.679 291.096C701.85 279.431 713.465 264.97 719.425 249.483L718.755 249.226ZM690.16 290.599L689.642 290.102C675.883 304.468 653.612 319.876 653.557 319.914L653.965 320.505L654.374 321.095C654.417 321.065 676.806 305.581 690.679 291.096L690.16 290.599ZM653.965 320.505L654.223 319.834L650.031 318.221L649.773 318.891L649.515 319.562L653.707 321.175L653.965 320.505ZM649.773 318.891L650.472 318.727C650.442 318.601 644.26 292.275 643.683 272.416L642.965 272.436L642.247 272.457C642.829 292.483 649.047 318.943 649.074 319.056L649.773 318.891ZM642.965 272.436L643.683 272.416C643.216 256.331 644.298 238.044 650.154 222.825L649.484 222.567L648.814 222.31C642.854 237.797 641.778 256.313 642.247 272.457L642.965 272.436ZM649.484 222.567L650.154 222.825C657.377 204.057 678.439 194.696 697.197 201.915L697.455 201.244L697.713 200.574C678.214 193.07 656.321 202.802 648.814 222.31L649.484 222.567ZM692.179 214.954L692.437 214.284C679.955 209.481 665.942 215.711 661.136 228.198L661.807 228.456L662.477 228.713C666.998 216.966 680.181 211.107 691.921 215.625L692.179 214.954ZM661.807 228.456L661.136 228.198C659.245 233.112 657.204 241.071 655.839 249.585C654.474 258.097 653.772 267.232 654.594 274.489L655.308 274.408L656.022 274.327C655.221 267.257 655.901 258.269 657.257 249.813C658.613 241.359 660.633 233.505 662.477 228.713L661.807 228.456ZM655.308 274.408L654.599 274.52C654.877 276.288 655.842 277.43 657.151 278.085C658.417 278.718 659.966 278.881 661.453 278.832L661.43 278.114L661.406 277.396C660.022 277.442 658.751 277.279 657.794 276.8C656.88 276.343 656.22 275.585 656.018 274.297L655.308 274.408ZM661.43 278.114L661.453 278.832C665.457 278.7 669.55 280.059 672.493 282.723L672.975 282.191L673.457 281.658C670.212 278.72 665.745 277.254 661.406 277.396L661.43 278.114ZM672.975 282.191L672.493 282.723C673.591 283.717 674.845 284.61 676.142 285.021C677.475 285.443 678.881 285.357 680.131 284.346L679.68 283.788L679.228 283.229C678.427 283.877 677.548 283.959 676.575 283.651C675.566 283.332 674.494 282.597 673.457 281.658L672.975 282.191ZM679.68 283.788L680.126 284.35C685.171 280.347 690.784 273.081 695.584 265.651C700.391 258.21 704.441 250.514 706.335 245.592L705.665 245.334L704.995 245.076C703.148 249.874 699.153 257.479 694.377 264.871C689.594 272.275 684.085 279.375 679.233 283.225L679.68 283.788ZM705.665 245.334L706.335 245.592C711.141 233.105 704.919 219.088 692.437 214.284L692.179 214.954L691.921 215.625C703.662 220.143 709.515 233.329 704.995 245.076L705.665 245.334Z" fill="white"/>
<path d="M693.16 212.403C706.553 217.557 713.694 232.503 708.538 245.902C703.381 259.301 691.469 278.121 680.526 286.805C678.257 288.64 674.836 287.46 672.475 285.322C669.054 282.224 664.321 280.662 659.708 280.814C656.534 280.918 653.189 279.459 652.657 276.08C650.862 260.237 654.16 240.359 659.317 226.96C664.473 213.561 679.768 207.249 693.16 212.403Z" stroke="white" stroke-width="0.766104"/>
<path d="M653.847 320.933C654.14 320.185 650.112 318.606 649.817 319.358C649.668 319.736 649.845 320.161 650.207 320.346C650.342 320.415 650.442 320.471 650.437 320.483C649.85 322 647.334 328.533 646.779 329.844C646.599 330.269 646.638 330.609 646.563 330.758C640.952 341.954 627.72 347.131 616.347 342.646C608.452 339.532 603.231 332.461 601.873 324.377C601.419 321.672 602.219 321.298 602.807 317.092C603.155 314.597 602.919 309.205 602.344 308.15C601.256 308.925 599.528 314.562 599.234 316.323C598.774 319.072 599.342 321.263 599.757 323.935C601.119 332.701 606.961 340.531 615.805 344.019C628.379 348.978 642.508 343.383 648.407 331.485C648.481 331.336 648.863 330.96 649.043 330.534C649.598 329.218 652.073 322.792 652.639 321.331C652.644 321.318 652.767 321.347 652.924 321.389C653.304 321.492 653.703 321.3 653.847 320.933Z" fill="url(#paint20_linear_7410_143138)" fill-opacity="0.8"/>
<path d="M654.389 321.147C654.163 321.721 653.59 322.045 653.008 321.993C652.226 324.014 650.093 329.542 649.579 330.761C649.46 331.044 649.282 331.292 649.148 331.467C649.086 331.548 649.009 331.646 648.973 331.692C648.917 331.764 648.917 331.769 648.929 331.744C642.896 343.91 628.449 349.632 615.591 344.561C606.547 340.993 600.573 332.986 599.182 324.025C598.776 321.414 598.179 319.095 598.659 316.227C598.814 315.299 599.331 313.414 599.941 311.674C600.247 310.801 600.583 309.946 600.915 309.254C601.081 308.908 601.252 308.593 601.423 308.332C601.586 308.082 601.78 307.836 602.006 307.676L602.541 307.294L602.856 307.871C602.965 308.072 603.045 308.331 603.11 308.598C603.176 308.875 603.234 309.202 603.285 309.559C603.385 310.275 603.459 311.146 603.503 312.053C603.591 313.859 603.566 315.872 603.384 317.172C603.086 319.307 602.728 320.499 602.518 321.426C602.316 322.321 602.236 323.013 602.448 324.28C603.775 332.181 608.872 339.071 616.56 342.103C627.633 346.47 640.536 341.441 646.026 330.53C646.026 330.527 646.027 330.523 646.028 330.519C646.037 330.464 646.04 330.429 646.055 330.323C646.08 330.144 646.124 329.896 646.242 329.617C646.749 328.42 648.918 322.796 649.719 320.722C649.258 320.363 649.043 319.732 649.275 319.144C649.42 318.777 649.759 318.651 649.974 318.608C650.201 318.563 650.453 318.573 650.687 318.604C651.165 318.666 651.735 318.833 652.265 319.04C652.795 319.247 653.326 319.512 653.719 319.79C653.912 319.926 654.105 320.089 654.241 320.276C654.37 320.453 654.534 320.777 654.39 321.145L654.389 321.147Z" stroke="black" stroke-opacity="0.13" stroke-width="1.16545"/>
<path d="M651.955 321.918C652.136 321.461 651.258 320.989 651.078 321.447C650.866 321.984 648.263 328.757 647.651 330.202C647.471 330.627 647.51 330.967 647.436 331.116C641.824 342.312 627.653 347.355 616.279 342.869C608.384 339.755 602.993 332.476 601.635 324.391C601.181 321.687 601.708 321.13 602.295 316.924C602.644 314.429 602.88 310.165 602.304 309.11C601.691 320.517 599.781 319.085 600.46 323.461C601.821 332.227 607.202 339.814 616.046 343.302C628.62 348.262 642.065 343.343 647.964 331.446C648.038 331.297 648.42 330.92 648.599 330.495C649.209 329.049 651.744 322.455 651.955 321.918Z" fill="url(#paint21_linear_7410_143138)"/>
<path d="M651.823 320.206C650.843 319.829 650.464 319.786 650.186 319.779C650.045 319.775 649.955 319.638 650.005 319.506C650.052 319.313 650.782 319.358 651.922 319.774C653.021 320.175 653.682 320.696 653.621 320.854C653.569 320.989 653.404 321.033 653.288 320.946C653.048 320.764 652.693 320.541 651.823 320.206Z" fill="url(#paint22_linear_7410_143138)"/>
<path d="M647.468 330.953L647.537 330.551C647.56 330.417 647.495 330.283 647.376 330.219C647.169 330.108 646.917 330.254 646.873 330.485C646.853 330.588 646.827 330.681 646.793 330.744C646.677 330.961 647.038 331.155 644.931 334.213C643.666 336.047 641.248 338.472 640.038 339.685C640.715 339.117 643.357 336.831 644.449 335.63C645.641 334.319 646.804 332.274 647.376 331.219C647.421 331.135 647.452 331.046 647.468 330.953Z" fill="url(#paint23_linear_7410_143138)"/>
<ellipse cx="633.933" cy="377.191" rx="11.4272" ry="6.2843" transform="rotate(-5.01854 633.933 377.191)" fill="url(#paint24_radial_7410_143138)"/>
<g filter="url(#filter5_d_7410_143138)">
<circle cx="632.5" cy="364.431" r="11.5" fill="url(#paint25_radial_7410_143138)"/>
<circle cx="632.5" cy="364.431" r="11" stroke="#E4255B"/>
</g>
<defs>
<filter id="filter0_d_7410_143138" x="584.416" y="287.882" width="96.3015" height="90.0593" filterUnits="userSpaceOnUse" color-interpolation-filters="sRGB">
<feFlood flood-opacity="0" result="BackgroundImageFix"/>
<feColorMatrix in="SourceAlpha" type="matrix" values="0 0 0 0 0 0 0 0 0 0 0 0 0 0 0 0 0 0 127 0" result="hardAlpha"/>
<feOffset dx="-0.462381" dy="6.01096"/>
<feGaussianBlur stdDeviation="2.88988"/>
<feComposite in2="hardAlpha" operator="out"/>
<feColorMatrix type="matrix" values="0 0 0 0 0 0 0 0 0 0 0 0 0 0 0 0 0 0 0.25 0"/>
<feBlend mode="normal" in2="BackgroundImageFix" result="effect1_dropShadow_7410_143138"/>
<feBlend mode="normal" in="SourceGraphic" in2="effect1_dropShadow_7410_143138" result="shape"/>
</filter>
<filter id="filter1_d_7410_143138" x="435.676" y="308.823" width="101.601" height="94.3984" filterUnits="userSpaceOnUse" color-interpolation-filters="sRGB">
<feFlood flood-opacity="0" result="BackgroundImageFix"/>
<feColorMatrix in="SourceAlpha" type="matrix" values="0 0 0 0 0 0 0 0 0 0 0 0 0 0 0 0 0 0 127 0" result="hardAlpha"/>
<feOffset dy="4"/>
<feGaussianBlur stdDeviation="2"/>
<feComposite in2="hardAlpha" operator="out"/>
<feColorMatrix type="matrix" values="0 0 0 0 0 0 0 0 0 0 0 0 0 0 0 0 0 0 0.25 0"/>
<feBlend mode="normal" in2="BackgroundImageFix" result="effect1_dropShadow_7410_143138"/>
<feBlend mode="normal" in="SourceGraphic" in2="effect1_dropShadow_7410_143138" result="shape"/>
</filter>
<filter id="filter2_d_7410_143138" x="319.322" y="411.829" width="18.8955" height="43.3916" filterUnits="userSpaceOnUse" color-interpolation-filters="sRGB">
<feFlood flood-opacity="0" result="BackgroundImageFix"/>
<feColorMatrix in="SourceAlpha" type="matrix" values="0 0 0 0 0 0 0 0 0 0 0 0 0 0 0 0 0 0 127 0" result="hardAlpha"/>
<feOffset dy="4"/>
<feGaussianBlur stdDeviation="2"/>
<feComposite in2="hardAlpha" operator="out"/>
<feColorMatrix type="matrix" values="0 0 0 0 0 0 0 0 0 0 0 0 0 0 0 0 0 0 0.25 0"/>
<feBlend mode="normal" in2="BackgroundImageFix" result="effect1_dropShadow_7410_143138"/>
<feBlend mode="normal" in="SourceGraphic" in2="effect1_dropShadow_7410_143138" result="shape"/>
</filter>
<filter id="filter3_d_7410_143138" x="267.513" y="381.978" width="59.277" height="40.9708" filterUnits="userSpaceOnUse" color-interpolation-filters="sRGB">
<feFlood flood-opacity="0" result="BackgroundImageFix"/>
<feColorMatrix in="SourceAlpha" type="matrix" values="0 0 0 0 0 0 0 0 0 0 0 0 0 0 0 0 0 0 127 0" result="hardAlpha"/>
<feOffset dy="3.48688"/>
<feGaussianBlur stdDeviation="1.74344"/>
<feComposite in2="hardAlpha" operator="out"/>
<feColorMatrix type="matrix" values="0 0 0 0 0 0 0 0 0 0 0 0 0 0 0 0 0 0 0.25 0"/>
<feBlend mode="normal" in2="BackgroundImageFix" result="effect1_dropShadow_7410_143138"/>
<feBlend mode="normal" in="SourceGraphic" in2="effect1_dropShadow_7410_143138" result="shape"/>
</filter>
<filter id="filter4_d_7410_143138" x="320.685" y="406.703" width="67.9972" height="67.9982" filterUnits="userSpaceOnUse" color-interpolation-filters="sRGB">
<feFlood flood-opacity="0" result="BackgroundImageFix"/>
<feColorMatrix in="SourceAlpha" type="matrix" values="0 0 0 0 0 0 0 0 0 0 0 0 0 0 0 0 0 0 127 0" result="hardAlpha"/>
<feOffset dy="3.48688"/>
<feGaussianBlur stdDeviation="1.74344"/>
<feComposite in2="hardAlpha" operator="out"/>
<feColorMatrix type="matrix" values="0 0 0 0 0 0 0 0 0 0 0 0 0 0 0 0 0 0 0.25 0"/>
<feBlend mode="normal" in2="BackgroundImageFix" result="effect1_dropShadow_7410_143138"/>
<feBlend mode="normal" in="SourceGraphic" in2="effect1_dropShadow_7410_143138" result="shape"/>
</filter>
<filter id="filter5_d_7410_143138" x="617" y="348.931" width="31" height="31" filterUnits="userSpaceOnUse" color-interpolation-filters="sRGB">
<feFlood flood-opacity="0" result="BackgroundImageFix"/>
<feColorMatrix in="SourceAlpha" type="matrix" values="0 0 0 0 0 0 0 0 0 0 0 0 0 0 0 0 0 0 127 0" result="hardAlpha"/>
<feOffset/>
<feGaussianBlur stdDeviation="2"/>
<feComposite in2="hardAlpha" operator="out"/>
<feColorMatrix type="matrix" values="0 0 0 0 0.894118 0 0 0 0 0.145098 0 0 0 0 0.356863 0 0 0 1 0"/>
<feBlend mode="normal" in2="BackgroundImageFix" result="effect1_dropShadow_7410_143138"/>
<feBlend mode="normal" in="SourceGraphic" in2="effect1_dropShadow_7410_143138" result="shape"/>
</filter>
<linearGradient id="paint0_linear_7410_143138" x1="619.604" y1="288.286" x2="626.601" y2="377.131" gradientUnits="userSpaceOnUse">
<stop stop-color="white"/>
<stop offset="1" stop-color="white" stop-opacity="0"/>
</linearGradient>
<linearGradient id="paint1_linear_7410_143138" x1="339.65" y1="250.995" x2="323.298" y2="160.077" gradientUnits="userSpaceOnUse">
<stop stop-color="white"/>
<stop offset="1" stop-color="#999999" stop-opacity="0"/>
</linearGradient>
<linearGradient id="paint2_linear_7410_143138" x1="480.599" y1="402.596" x2="512.922" y2="403.755" gradientUnits="userSpaceOnUse">
<stop stop-color="white"/>
<stop offset="1" stop-color="white" stop-opacity="0.5"/>
</linearGradient>
<linearGradient id="paint3_linear_7410_143138" x1="463.911" y1="395.238" x2="496.234" y2="396.397" gradientUnits="userSpaceOnUse">
<stop stop-color="white"/>
<stop offset="1" stop-color="white" stop-opacity="0.5"/>
</linearGradient>
<linearGradient id="paint4_linear_7410_143138" x1="488.036" y1="341.939" x2="492.266" y2="327.922" gradientUnits="userSpaceOnUse">
<stop stop-color="white"/>
<stop offset="1" stop-color="white" stop-opacity="0.2"/>
</linearGradient>
<linearGradient id="paint5_linear_7410_143138" x1="496.111" y1="343.64" x2="489.584" y2="328.382" gradientUnits="userSpaceOnUse">
<stop stop-opacity="0.4"/>
<stop offset="1" stop-color="#666666" stop-opacity="0"/>
</linearGradient>
<linearGradient id="paint6_linear_7410_143138" x1="499.998" y1="346.749" x2="486.21" y2="355.811" gradientUnits="userSpaceOnUse">
<stop stop-color="white"/>
<stop offset="1" stop-color="white" stop-opacity="0.5"/>
</linearGradient>
<linearGradient id="paint7_linear_7410_143138" x1="483.31" y1="339.391" x2="469.522" y2="348.453" gradientUnits="userSpaceOnUse">
<stop stop-color="white"/>
<stop offset="1" stop-color="white" stop-opacity="0.5"/>
</linearGradient>
<linearGradient id="paint8_linear_7410_143138" x1="336.222" y1="460.715" x2="326.712" y2="409.017" gradientUnits="userSpaceOnUse">
<stop stop-color="#D9D9D9"/>
<stop offset="1" stop-color="#D9D9D9" stop-opacity="0.5"/>
</linearGradient>
<linearGradient id="paint9_linear_7410_143138" x1="336.222" y1="460.715" x2="326.712" y2="409.017" gradientUnits="userSpaceOnUse">
<stop stop-color="#D9D9D9"/>
<stop offset="1" stop-color="#D9D9D9" stop-opacity="0.5"/>
</linearGradient>
<linearGradient id="paint10_linear_7410_143138" x1="320.806" y1="384.725" x2="326.159" y2="401.76" gradientUnits="userSpaceOnUse">
<stop stop-color="white"/>
<stop offset="1" stop-color="white" stop-opacity="0.5"/>
</linearGradient>
<linearGradient id="paint11_linear_7410_143138" x1="287.028" y1="398.383" x2="279.205" y2="402.452" gradientUnits="userSpaceOnUse">
<stop stop-color="white"/>
<stop offset="1" stop-color="white" stop-opacity="0.2"/>
</linearGradient>
<linearGradient id="paint12_linear_7410_143138" x1="288.721" y1="402.556" x2="279.727" y2="400.328" gradientUnits="userSpaceOnUse">
<stop stop-opacity="0.4"/>
<stop offset="1" stop-color="#666666" stop-opacity="0"/>
</linearGradient>
<linearGradient id="paint13_linear_7410_143138" x1="290.835" y1="404.204" x2="293.858" y2="394.904" gradientUnits="userSpaceOnUse">
<stop stop-color="white"/>
<stop offset="1" stop-color="white" stop-opacity="0.5"/>
</linearGradient>
<linearGradient id="paint14_linear_7410_143138" x1="348.035" y1="464.019" x2="332.204" y2="455.758" gradientUnits="userSpaceOnUse">
<stop stop-color="white"/>
<stop offset="1" stop-color="white" stop-opacity="0.5"/>
</linearGradient>
<linearGradient id="paint15_linear_7410_143138" x1="362.262" y1="430.476" x2="364.916" y2="422.067" gradientUnits="userSpaceOnUse">
<stop stop-color="white"/>
<stop offset="1" stop-color="white" stop-opacity="0.2"/>
</linearGradient>
<linearGradient id="paint16_linear_7410_143138" x1="358.114" y1="428.722" x2="366.049" y2="423.938" gradientUnits="userSpaceOnUse">
<stop stop-opacity="0.4"/>
<stop offset="1" stop-color="#666666" stop-opacity="0"/>
</linearGradient>
<linearGradient id="paint17_linear_7410_143138" x1="355.453" y1="429.052" x2="359.892" y2="437.766" gradientUnits="userSpaceOnUse">
<stop stop-color="white"/>
<stop offset="1" stop-color="white" stop-opacity="0.5"/>
</linearGradient>
<radialGradient id="paint18_radial_7410_143138" cx="0" cy="0" r="1" gradientUnits="userSpaceOnUse" gradientTransform="translate(338.672 448.704) rotate(90) scale(1 0.786487)">
<stop stop-color="white"/>
<stop offset="1" stop-color="#999999"/>
</radialGradient>
<linearGradient id="paint19_linear_7410_143138" x1="697.455" y1="201.244" x2="651.87" y2="319.698" gradientUnits="userSpaceOnUse">
<stop offset="0.0144231" stop-color="#454353"/>
<stop offset="0.980769" stop-color="#292738"/>
</linearGradient>
<linearGradient id="paint20_linear_7410_143138" x1="632.348" y1="354.217" x2="608.115" y2="308.176" gradientUnits="userSpaceOnUse">
<stop stop-color="white"/>
<stop offset="1" stop-color="white" stop-opacity="0.5"/>
</linearGradient>
<linearGradient id="paint21_linear_7410_143138" x1="636.849" y1="320.697" x2="634.88" y2="332.615" gradientUnits="userSpaceOnUse">
<stop stop-color="white"/>
<stop offset="1" stop-color="white" stop-opacity="0.5"/>
</linearGradient>
<linearGradient id="paint22_linear_7410_143138" x1="636.849" y1="320.697" x2="634.88" y2="332.615" gradientUnits="userSpaceOnUse">
<stop stop-color="white"/>
<stop offset="1" stop-color="white" stop-opacity="0.5"/>
</linearGradient>
<linearGradient id="paint23_linear_7410_143138" x1="646.926" y1="329.978" x2="641.919" y2="339.298" gradientUnits="userSpaceOnUse">
<stop stop-opacity="0.4"/>
<stop offset="1" stop-color="#666666" stop-opacity="0"/>
</linearGradient>
<radialGradient id="paint24_radial_7410_143138" cx="0" cy="0" r="1" gradientUnits="userSpaceOnUse" gradientTransform="translate(633.933 377.191) rotate(90) scale(6.2843 11.4272)">
<stop stop-color="#62547B"/>
<stop offset="1" stop-color="#62547B" stop-opacity="0"/>
</radialGradient>
<radialGradient id="paint25_radial_7410_143138" cx="0" cy="0" r="1" gradientUnits="userSpaceOnUse" gradientTransform="translate(634.5 357.431) rotate(104.036) scale(32.9848)">
<stop stop-color="#D2B2FF"/>
<stop offset="0.744587" stop-color="#332449"/>
<stop offset="1" stop-color="#D2B2FF"/>
</radialGradient>
</defs>
</svg>
