<svg width="808" height="580" viewBox="0 0 808 580" fill="none" xmlns="http://www.w3.org/2000/svg">
<mask id="mask0_4961_119622" style="mask-type:alpha" maskUnits="userSpaceOnUse" x="-42" y="97" width="761" height="442">
<path d="M339.628 451.481L358.397 491.7L256.509 538.62C201.692 526.852 89.287 500.993 78.2045 491.7C64.3512 480.084 -24.1306 375.509 -38.4307 314.29C-52.7308 253.07 -8.93672 213.74 4.02275 197.205C16.9822 180.671 131.83 140.005 164.452 132.408C197.074 124.811 363.76 97.998 366.441 97.998C369.122 97.998 533.573 138.217 538.042 140.005C541.617 141.435 659.593 205.547 718.134 237.424C706.023 277.098 682.126 353.927 677.298 364.108L679.547 365.283C687.434 365.207 706.306 364.878 683.724 367.466L679.547 365.283C677.445 365.304 676.123 365.306 676.574 365.231C676.715 365.208 676.96 364.822 677.298 364.108L653.784 351.825C654.528 350.782 630.239 341.84 623.396 338.419C609.096 331.268 593.008 329.034 592.114 323.225C591.221 317.415 588.986 312.053 576.474 315.181C563.961 318.309 338.288 405.003 333.372 407.238C328.456 409.472 318.625 419.303 316.391 425.113C311.255 438.466 313.262 442.541 316.391 448.797C319.966 455.948 334.117 454.461 339.628 451.481Z" fill="url(#paint0_linear_4961_119622)"/>
</mask>
<g mask="url(#mask0_4961_119622)">
<path fill-rule="evenodd" clip-rule="evenodd" d="M299.474 375.099V395.731L71.3516 299.13V280.219L299.474 375.099ZM146.139 232.402C148.431 231.793 154.348 231.112 159.678 233.261C165.007 235.41 225.725 260.59 255.418 272.911H257.46L374.798 321.266L363.193 325.886L353.2 321.91L329.453 330.291L338.264 333.622L308.93 344.475C305.885 346.087 299.732 351.783 299.474 361.668L71.3516 267.217C71.3874 264.781 72.0179 259.416 74.2529 257.439C77.0467 254.967 83.7083 252.925 85.8574 252.173C87.5767 251.571 126.761 238.741 146.139 232.402ZM475.804 287.633L469.142 290.105L460.33 286.666L435.079 294.617L444.428 297.519L418.854 306.974L408.323 303.535L383.609 311.38L392.635 315.356L381.138 319.761L263.692 270.763L358.572 240.354L475.804 287.633ZM405.422 155.358C414.233 152.886 420.681 154.605 423.797 155.358C426.295 155.961 492.316 179.464 525.017 191.14C524.443 191.032 522.61 190.795 519.859 190.709C517.109 190.623 514.845 191.461 514.057 191.891L627.097 230.898C629.138 230.146 634.533 228.898 639.776 229.93C644.995 230.956 649.511 234.623 651.143 236.353C650.71 235.904 649.083 234.764 645.794 233.583C642.442 232.38 637.091 233.082 634.834 233.583L574.338 253.784L453.346 210.589L450.66 213.705L450.426 213.99L560.047 252.711L535.117 261.092L544.251 263.993L521.578 271.837L511.263 269.473L488.269 276.888L496.649 280.326L490.417 282.797L372.598 236.671L372.004 238.097L319.138 215.102C319.747 214.672 321.266 213.512 322.469 212.309C323.672 211.105 325.692 208.01 326.552 206.613L384.576 230.898L373.079 235.518L372.945 235.838L413.436 223.075L413.374 223.054L333.858 190.709C333.214 191.39 332.956 190.903 337.082 183.511C342.24 174.27 349.977 171.476 352.126 170.079C354.28 168.681 396.611 157.829 405.422 155.358Z" fill="#D9D9D9" fill-opacity="0.1"/>
<path d="M308.715 344.905L82.3125 253.678" stroke="white" stroke-width="0.429811" stroke-linejoin="round"/>
<path d="M421.211 154.605L526.407 191.546" stroke="white" stroke-width="1.28943" stroke-linejoin="round"/>
<path d="M513.305 191.893L627.527 231.005" stroke="white" stroke-width="1.28943" stroke-linejoin="round"/>
<path d="M299.577 362.098L70.7031 267.002" stroke="white" stroke-width="0.429811" stroke-linejoin="round"/>
<path d="M626.773 231.097C629.352 229.913 631.394 229.262 631.394 229.262C637.519 227.542 651.917 233.904 652.777 238.834" stroke="white" stroke-width="1.28943"/>
<path d="M170.852 371.554V310.735C170.852 300.635 178.588 298.553 187.722 295.047C190.404 294.018 218.353 285.02 256.814 272.738C257.888 273.235 259.608 273.88 260.897 274.31C262.724 273.665 263.476 271.838 263.476 270.612C291.965 261.52 325.457 250.869 358.464 240.399C360.613 241.214 363.407 242.611 365.448 243.148C368.027 242.289 371.466 240.677 371.573 236.243C398.475 227.716 424.559 219.468 446.79 212.462C448.402 212.954 450.014 213.814 450.658 213.706C451.597 213.411 453.022 212.095 453.13 210.465C485.364 200.315 508.241 193.179 511.477 192.322C518.022 190.589 523.829 189.775 527.917 192.323C530.496 193.931 532.215 196.084 532.86 198.556" stroke="white" stroke-width="1.28943"/>
<path d="M645.04 284.947V320.53C645.04 337.144 640.659 343.286 625.269 349.542L312.366 470.948C301.054 475.582 288.656 467.263 288.656 455.039V410.882" stroke="white" stroke-width="1.28943"/>
<path d="M170.852 371.016V398.26C170.852 410.484 183.249 418.803 194.561 414.169L203.41 410.388" stroke="white" stroke-width="1.28943"/>
<path d="M284.103 448.705L190.404 404.323C186.298 402.33 183.312 398.146 183.312 393.022V380.795" stroke="white" stroke-width="1.28943"/>
<path d="M296.782 469.55C290.442 467.401 283.888 460.746 283.888 452.309V425.172L171.062 375.637" stroke="white" stroke-width="1.28943"/>
<path d="M181.164 413.997L85.7464 367.255C77.2495 363.603 71.4552 353.868 71.4552 340.714L71.1335 323.832L71.1328 272.154C71.1335 267.104 71.1349 256.443 78.9768 254.43L146.557 232.215C151.301 230.765 155.813 231.148 159.351 233.158M204.697 251.816L310.69 220.202C316.63 218.386 322.145 213.476 325.257 207.233L336.318 185.042C339.948 177.758 346.382 172.03 353.313 169.911L404 155.531C413.182 153.07 418.742 153.424 423.04 155.251" stroke="white" stroke-width="1.28943"/>
<path d="M157.312 232.295L255.954 273.019M349.868 171.584L453.345 210.482" stroke="white" stroke-width="1.28943"/>
<path d="M256.594 272.805L375.222 321.585M452.588 210.268L575.406 253.464M446.57 212.524L569.066 255.72M263.041 270.656L381.454 319.547M371.891 236.543L490.303 282.425M358.459 240.569L476.576 287.096" stroke="white" stroke-width="1.28943"/>
<path d="M335.487 405.266L573.478 314.27C585.55 309.654 595.327 316.39 595.327 329.32C595.327 342.238 585.569 356.466 573.509 361.132L335.519 453.209C323.132 458.002 313.07 451.117 313.07 437.848C313.071 424.592 323.112 409.997 335.487 405.266Z" stroke="white" stroke-width="1.28943"/>
<path d="M299.382 415.323V365.633C299.382 351.771 303.232 345.983 313.763 342.53C314.399 342.322 323.71 339.153 338.799 334.013M299.382 415.323L339.337 398.905V389.667M299.382 415.323L288.727 410.989M363.621 325.559C372.864 322.41 383.062 318.937 393.923 315.238M417.992 307.04C426.731 304.065 435.726 301.002 444.855 297.894M469.462 289.997V349.405M469.462 289.997L460.114 286.285M469.462 289.997C471.723 289.228 473.979 288.448 476.232 287.663C476.339 292.254 481.429 294.257 484.076 293.328C489.233 292.039 490.434 286.881 490.434 282.69C492.72 281.894 495.006 281.104 497.292 280.326M497.292 280.326L488.051 276.964L511.476 269.149M497.292 280.326V331.474M521.362 271.864C529.215 269.194 536.907 266.579 544.357 264.049M568.963 255.694C607.127 242.745 634.519 233.496 636.229 233.045C642.139 231.488 652.454 233.906 653.455 241.108V278.408C653.455 280.602 652.068 282.555 649.996 283.278L569.286 311.433M363.621 389.667V325.779L353.521 321.847M363.621 389.667L394.245 378.018V369.425M363.621 389.667L353.521 384.448M418.529 368.78V306.76L408.644 303.321M418.529 368.78L445.178 358.643V351.138M418.529 368.78L408.644 364.032M469.462 349.405L497.292 338.819V331.474M469.462 349.405L460.114 345.658M521.577 329.581V271.73L511.476 269.149M521.577 329.581L545.001 320.671V314.389M521.577 329.581L511.332 326.316M569.286 311.433V256.257L559.937 252.981M569.286 311.433L559.937 308.801M353.521 321.847L329.021 330.021L339.337 334.16V389.667M353.521 321.847V384.448M408.644 303.321L384.037 311.666L394.245 315.571V369.425M408.644 303.321V364.032M460.114 286.285L435.077 294.638L445.178 297.734V351.138M460.114 286.285V345.658M511.476 269.149L511.332 326.316M559.937 252.981L535.223 261.226L545.001 263.993V314.389M559.937 252.981V308.801M353.521 384.448L339.337 389.667M408.644 364.032L394.245 369.425M460.114 345.658L445.178 351.138M511.332 326.316L497.292 331.474M559.937 308.801L545.001 314.389" stroke="white" stroke-width="1.28943"/>
</g>
<mask id="mask1_4961_119622" style="mask-type:alpha" maskUnits="userSpaceOnUse" x="314" y="312" width="444" height="268">
<path d="M339.627 489.909C412.021 518.956 558.061 577.497 563.066 579.285L684.17 515.829L757.904 376.403C724.686 352.42 637.694 320.994 605.966 320.992C595.093 320.992 586.303 311.605 578.259 312.946C570.216 314.286 353.48 397.852 334.264 406.343C315.048 414.834 312.814 436.731 315.048 446.115C316.836 453.623 332.179 478.439 339.627 489.909Z" fill="url(#paint1_linear_4961_119622)"/>
</mask>
<g mask="url(#mask1_4961_119622)">
<path d="M684.851 385.825L684.851 402.068C685.289 405.35 682.738 408.576 677.167 410.878L466.765 497.862C456.228 502.217 438.877 501.618 428.011 496.523L333.197 448.951C327.75 446.398 324.967 443.199 324.873 440.096L324.873 427.063" stroke="white" stroke-width="1.31582"/>
<path d="M658.777 383.862L577.257 352.078C566.391 346.969 549.041 346.367 538.506 350.733L350.449 425.932" stroke="white" stroke-width="0.438607"/>
<path d="M331.327 417.133C320.459 412.036 320.192 404.372 330.732 400.014L538.071 318.247C548.611 313.89 565.965 314.49 576.834 319.587L675.272 360.193C686.141 365.29 686.408 372.954 675.868 377.312L466.707 463.783C456.167 468.141 438.813 467.541 427.944 462.444L331.327 417.133Z" stroke="white" stroke-width="1.31582"/>
<path d="M331.105 417.138C320.236 412.041 319.969 404.377 330.509 400.02L539.39 318.003C549.93 313.646 567.284 314.246 578.153 319.343L675.05 360.198C685.918 365.296 686.185 372.96 675.646 377.317L466.484 463.789C455.945 468.146 438.59 467.546 427.721 462.449L331.105 417.138Z" fill="#D9D9D9" fill-opacity="0.1"/>
<path d="M678.956 362.123C689.825 367.232 693.773 381.931 683.236 386.298L619.547 412.765C618.207 413.322 617.768 415.04 617.922 416.519C617.926 416.559 617.929 416.598 617.933 416.638C618.261 420.393 615.776 424.577 612.382 425.983L544.319 454.192C540.925 455.599 537.907 453.696 537.579 449.941C537.464 448.634 536.05 447.383 534.865 447.872L465.638 476.482C455.101 480.849 437.748 480.247 426.879 475.137L325.601 427.522C314.733 422.412 317.926 405.633 328.463 401.266" stroke="white" stroke-width="1.31582"/>
<path d="M537.31 445.508C538.005 442.642 540.057 439.972 542.633 438.904L610.661 410.693C612.712 409.843 614.625 410.202 615.89 411.448M541.054 447.087C541.723 444.341 543.695 441.785 546.17 440.762L611.537 413.744C613.508 412.929 615.346 413.273 616.561 414.466" stroke="white" stroke-width="0.438607"/>
</g>
<path d="M782.041 126.109C758.94 87.8491 724.793 60.6636 685.127 48.4696L714.284 30.968C716.303 29.7558 716.953 27.1385 715.736 25.1222C714.518 23.1059 711.894 22.454 709.875 23.6663L670.458 47.3268L667.923 48.6781L673.77 58.5353L693.444 89.8901C694.691 91.8771 697.302 92.5022 699.314 91.295C701.35 90.0729 702.005 87.4344 700.778 85.4017L683.571 56.904C720.703 68.5832 752.83 94.2244 774.731 130.497C821.102 207.297 797.527 306.579 722.349 354.355C720.361 355.618 719.697 358.237 720.915 360.253C722.132 362.27 724.77 362.919 726.76 361.658C805.978 311.454 830.844 206.937 782.041 126.109Z" fill="#4FE2CE"/>
<path d="M499.379 63.0396C497.051 90.3861 480.465 103.889 458.308 103.889C430.938 103.889 413.734 83.1666 413.734 55.6665M509.523 95.626L511.178 101.804H529.825L530.989 95.626M620.142 37.0289C620.142 45.178 616.871 51.5028 611.509 55.479M599.289 78.605C598.637 70.5244 594.336 67.9177 583.518 67.9177H567.348M545.344 95.626L547.537 101.804H564.545L566.872 95.626M597.483 38.7233C598.873 31.6236 594.336 25.9507 584.04 25.9507H566.184M491.233 15.332C491.233 15.332 499.379 29.7418 499.379 40.933L472.942 41.9816C470.597 30.382 463.428 23.8654 453.262 23.8654C447.003 23.8654 442.033 25.8853 438.285 29.4004M621.565 95.626L621.054 101.804H601.113L600.619 96.2079" stroke="url(#paint2_linear_4961_119622)"/>
<path d="M498.581 62.2562C494.801 84.6734 480.465 97.7066 458.308 97.7066C430.938 97.7066 413.734 76.9838 413.734 49.4836C413.734 21.9835 430.938 1 458.308 1C479.552 1 494.149 13.5119 498.19 34.8864L477.597 35.7987C475.251 24.1992 468.083 17.6825 457.917 17.6825C441.625 17.6825 434.066 31.3674 434.066 49.4836C434.066 67.4695 441.756 81.0241 457.917 81.0241C468.735 81.0241 475.773 73.9861 477.858 61.4742L498.581 62.2562ZM510.015 3.08531H529.825V95.6213H510.015V3.08531ZM586.907 3.08531C606.066 3.08531 620.142 12.9906 620.142 30.8461C620.142 42.576 613.364 50.5263 603.329 53.1329C613.234 54.3059 617.926 58.9979 618.708 69.0335L621.054 95.6213H601.113L599.289 72.4221C598.637 64.3415 594.336 61.7349 583.518 61.7349H566.184V95.6213H546.374V3.08531H586.907ZM566.184 45.1827H584.04C594.206 45.1827 599.81 40.621 599.81 32.5404C599.81 24.3295 594.336 19.7679 584.04 19.7679H566.184V45.1827Z" stroke="white" stroke-width="2"/>
<defs>
<linearGradient id="paint0_linear_4961_119622" x1="357.734" y1="268.998" x2="322.234" y2="108.498" gradientUnits="userSpaceOnUse">
<stop stop-color="#D9D9D9"/>
<stop offset="1" stop-color="#737373" stop-opacity="0"/>
</linearGradient>
<linearGradient id="paint1_linear_4961_119622" x1="544.732" y1="380.002" x2="525.732" y2="328.002" gradientUnits="userSpaceOnUse">
<stop stop-color="#990000"/>
<stop offset="1" stop-color="#330000" stop-opacity="0"/>
</linearGradient>
<linearGradient id="paint2_linear_4961_119622" x1="499.379" y1="146.828" x2="499.379" y2="24.6415" gradientUnits="userSpaceOnUse">
<stop stop-color="white"/>
<stop offset="1" stop-color="#999999" stop-opacity="0"/>
</linearGradient>
</defs>
</svg>
