<svg width="1415" height="539" viewBox="0 0 1415 539" fill="none" xmlns="http://www.w3.org/2000/svg">
<rect x="491.078" y="7.34375" width="173.311" height="173.449" rx="24" fill="url(#paint0_linear_4245_154379)" fill-opacity="0.1"/>
<rect x="491.078" y="7.34375" width="173.311" height="173.449" rx="24" stroke="url(#paint1_linear_4245_154379)" stroke-width="2"/>
<rect x="502.414" y="18.6953" width="150.64" height="150.761" rx="16" stroke="url(#paint2_linear_4245_154379)"/>
<path d="M490.984 157.297L493.69 173.282C495.726 185.308 506.143 194.109 518.34 194.109H637.411C649.839 194.109 660.379 184.981 662.155 172.68L664.375 157.297" stroke="white" stroke-opacity="0.2"/>
<path d="M629.625 72.8543C631.12 74.3685 631.105 76.8089 629.592 78.3051L572.372 134.89C570.919 136.327 568.598 136.378 567.082 135.007L530.261 101.7C528.683 100.272 528.56 97.8351 529.986 96.2558L542.037 82.9112C543.463 81.3318 545.899 81.2087 547.477 82.6362L568.096 101.289C568.602 101.745 569.375 101.728 569.86 101.249L611.547 60.0267C613.06 58.5305 615.498 58.5452 616.993 60.0594L629.625 72.8543Z" fill="#D9D9D9" fill-opacity="0.1"/>
<path d="M629.625 72.8543C631.12 74.3685 631.105 76.8089 629.592 78.3051L572.372 134.89C570.919 136.327 568.598 136.378 567.082 135.007L530.261 101.7C528.683 100.272 528.56 97.8351 529.986 96.2558L542.037 82.9112C543.463 81.3318 545.899 81.2087 547.477 82.6362L568.096 101.289C568.602 101.745 569.375 101.728 569.86 101.249L611.547 60.0267C613.06 58.5305 615.498 58.5452 616.993 60.0594L629.625 72.8543Z" stroke="white" stroke-width="3"/>
<path d="M632.326 74.7969V80.1316C632.326 83.0703 631.151 85.8868 629.061 87.9532L574.485 141.923C571.844 144.535 567.622 144.629 564.867 142.137L531.019 111.519C528.714 109.433 527.398 106.47 527.398 103.361V98.5659" stroke="url(#paint3_linear_4245_154379)"/>
<rect x="825.078" y="7.34375" width="173.311" height="173.449" rx="24" fill="url(#paint4_linear_4245_154379)" fill-opacity="0.1"/>
<rect x="825.078" y="7.34375" width="173.311" height="173.449" rx="24" stroke="url(#paint5_linear_4245_154379)" stroke-width="2"/>
<rect x="836.414" y="18.6953" width="150.64" height="150.761" rx="16" stroke="url(#paint6_linear_4245_154379)"/>
<path d="M954.675 66.7469C956.179 68.2522 956.179 70.6927 954.675 72.1979L933.253 93.6363C931.749 95.1416 931.749 97.5821 933.253 99.0873L953.391 119.241C954.895 120.746 954.895 123.187 953.391 124.692L940.681 137.411C939.177 138.917 936.739 138.917 935.235 137.411L915.097 117.258C913.593 115.753 911.155 115.753 909.651 117.258L889.513 137.411C888.009 138.917 885.571 138.917 884.067 137.411L871.357 124.692C869.853 123.187 869.853 120.746 871.357 119.241L891.495 99.0873C892.999 97.5821 892.999 95.1416 891.495 93.6363L870.073 72.1979C868.569 70.6927 868.569 68.2522 870.073 66.7469L882.783 54.0274C884.287 52.5221 886.725 52.5221 888.229 54.0274L909.651 75.4658C911.155 76.9711 913.593 76.9711 915.097 75.4658L936.519 54.0274C938.023 52.5221 940.461 52.5221 941.965 54.0274L954.675 66.7469Z" fill="#D9D9D9" fill-opacity="0.1"/>
<path d="M824.984 157.297L827.69 173.282C829.726 185.308 840.143 194.109 852.34 194.109H971.411C983.839 194.109 994.379 184.981 996.155 172.68L998.375 157.297" stroke="white" stroke-opacity="0.2"/>
<path d="M954.675 66.7469C956.179 68.2522 956.179 70.6927 954.675 72.1979L933.253 93.6363C931.749 95.1416 931.749 97.5821 933.253 99.0873L953.391 119.241C954.895 120.746 954.895 123.187 953.391 124.692L940.681 137.411C939.177 138.917 936.739 138.917 935.235 137.411L915.097 117.258C913.593 115.753 911.155 115.753 909.651 117.258L889.513 137.411C888.009 138.917 885.571 138.917 884.067 137.411L871.357 124.692C869.853 123.187 869.853 120.746 871.357 119.241L891.495 99.0873C892.999 97.5821 892.999 95.1416 891.495 93.6363L870.073 72.1979C868.569 70.6927 868.569 68.2522 870.073 66.7469L882.783 54.0274C884.287 52.5221 886.725 52.5221 888.229 54.0274L909.651 75.4658C911.155 76.9711 913.593 76.9711 915.097 75.4658L936.519 54.0274C938.023 52.5221 940.461 52.5221 941.965 54.0274L954.675 66.7469Z" stroke="white" stroke-width="3"/>
<path d="M956.116 121.703V129.304C956.116 130.364 955.695 131.381 954.945 132.131L942.204 144.882C939.86 147.228 936.059 147.228 933.715 144.882L913.083 124.233C912.692 123.842 912.059 123.842 911.668 124.233L891.036 144.882C888.692 147.228 884.891 147.228 882.547 144.882L869.806 132.131C869.056 131.381 868.635 130.364 868.635 129.304V121.703M867.352 69.2422V75.9663C867.352 77.5658 867.99 79.099 869.126 80.2256L889.581 100.521M957.399 69.2422V75.9985C957.399 77.5789 956.776 79.0955 955.664 80.2189L935.574 100.521" stroke="url(#paint7_linear_4245_154379)"/>
<mask id="mask0_4245_154379" style="mask-type:alpha" maskUnits="userSpaceOnUse" x="0" y="127" width="1415" height="399">
<rect y="127.516" width="1414.59" height="398.11" fill="url(#paint8_linear_4245_154379)"/>
</mask>
<g mask="url(#mask0_4245_154379)">
<path d="M189.365 143.021L-202.188 285.961M246.808 142.731L-185.818 301.611M304.25 142.442L-169.449 317.26M361.692 142.153L-153.079 332.91M419.135 141.863L-136.709 348.559M476.577 141.574L-120.339 364.209M534.019 141.284L-103.969 379.859M591.461 140.995L-87.5993 395.508M648.904 140.706L-71.2295 411.158M706.346 140.416L-54.8596 426.807M763.788 140.127L-38.4898 442.457M821.23 139.838L-22.12 458.106M878.673 139.548L-3.18317 472.76M936.115 139.259L36.29 479.444M993.558 138.97L93.7324 479.154M1051 138.68L151.175 478.865M1108.44 138.391L850.18 236.029L814.984 249.335L779.789 262.641L208.617 478.576M1164.6 138.599L903.333 237.37M266.06 478.286L790.714 279.945M1223.33 137.812L943.06 243.769M323.502 477.997L725.862 325.882M1280.77 137.523L965.379 256.758M380.944 477.707L738.6 342.494M1336.93 137.731L984.561 270.942M438.387 477.418L746.706 360.861M1395.66 136.944L998.967 286.914M495.829 477.129L759.064 377.611M1451.82 137.153L1005.08 306.039M553.272 476.839L772.334 394.025M1509.26 136.863L1009.26 325.882M610.714 476.55L785.326 410.539M1544.88 145.041L1012.93 346.006M668.156 476.261L796.606 427.734M1497.06 185.084L1018.92 365.372M725.599 475.971L816.621 441.65M1513.43 200.733L1022.37 385.587M783.041 475.682L836.769 455.456M1529.8 216.383L1023.85 406.493M840.484 475.392L855.534 469.737M1546.17 232.033L897.926 475.103M1562.54 247.682L955.368 474.814M1576.86 261.375L1005.63 474.561M1591.18 275.069L1055.89 474.307M1605.51 288.762L1106.15 474.054M1619.83 302.456L1156.42 473.801M1634.16 316.149L1206.68 473.548M1648.48 329.842L1256.94 473.295M1662.8 343.536L1307.2 473.041M1677.13 357.229L1357.47 472.788M1691.45 370.922L1407.73 472.535M163.688 130.182L-227.865 273.123M163.688 104.506L-227.865 247.446M800.679 297.597L762.525 312.022M808.405 316.104L779.789 326.922M815.499 334.854L790.714 344.224M818.807 355.025L808.405 358.958" stroke="url(#paint9_radial_4245_154379)" stroke-width="2.79646" stroke-linecap="round" stroke-linejoin="round" stroke-dasharray="2.8 11.19"/>
</g>
<path d="M1061.01 499.126C1061.69 502.692 1045.05 510.491 1036.65 513.945L977.81 537.916L936.572 539C935.084 537.916 931.338 534.951 928.252 531.77C924.393 527.794 915.229 511.045 910.767 504.177C906.306 497.309 895.333 490.2 883.034 483.573C870.734 476.945 852.768 467.908 847.704 463.932C842.639 459.956 830.219 449.593 819.729 443.087C809.238 436.58 795.613 425.735 790.789 418.506C785.966 411.276 777.043 399.468 769.085 390.551C762.718 383.418 758.152 375.61 756.665 372.597C754.897 371.352 750.805 368.235 748.586 365.729C745.813 362.596 741.11 348.137 739.904 345.607C738.699 343.076 732.308 332.593 728.329 328.978C724.349 325.364 720.37 318.736 718.803 315.604C717.235 312.471 717.597 307.048 719.406 304.398C721.214 301.747 726.761 298.975 736.408 298.975C746.054 298.975 750.636 303.434 761.368 310.181C772.1 316.929 782.952 330.545 786.328 336.208C789.029 340.739 789.946 345.245 790.066 346.932C791.835 347.735 796.24 349.944 799.713 352.354C804.054 355.367 814.062 365.127 821.779 372.597C821.899 365.488 816.112 336.69 812.735 325.846C809.359 315.001 795.372 289.697 788.981 278.973C783.868 270.394 773.506 249.369 768.964 239.929C766.915 237.52 761.995 231.74 758.715 227.884C754.615 223.064 735.443 188.964 729.896 178.722C724.35 168.48 719.406 154.26 720.732 146.068C722.059 137.876 730.741 135.224 736.408 136.188C742.075 137.152 749.189 143.296 750.636 146.068C752.083 148.839 783.917 190.528 793.684 202.216C801.497 211.566 819.528 237.681 827.567 249.57C828.974 246.72 832.462 240.44 835.163 238.123C838.54 235.226 844.086 235.352 852.165 236.075C860.244 236.797 864.464 241.02 872.905 244.63C874.955 235.713 883.275 234.383 888.701 234.262C894.127 234.142 904.015 237.037 908.597 239.929C912.262 242.242 918.726 246.355 921.499 248.122C921.821 247.963 922.657 247.187 923.428 245.356C924.393 243.066 931.99 240.899 936.089 241.02C940.189 241.14 943.565 244.268 958.758 252.341C973.952 260.415 989.024 274.273 996.741 282.587C1004.46 290.901 1004.82 306.568 1007.35 316.81C1009.88 327.052 1016.28 354.409 1018.81 363.928C1021.34 373.447 1022.3 393.454 1024.35 412.131C1026.4 430.807 1029.9 434.418 1031.35 439.117C1032.79 443.817 1047.75 464.304 1050.64 469.123C1053.53 473.943 1060.17 494.668 1061.01 499.126Z" fill="url(#paint10_linear_4245_154379)" fill-opacity="0.1"/>
<path d="M1049.82 467.651L1048.95 468.148V468.148L1049.82 467.651ZM909.181 239.845L908.627 240.677V240.677L909.181 239.845ZM864.229 240.49L863.675 241.322V241.322L864.229 240.49ZM826.342 248.189L825.476 248.691V248.691L826.342 248.189ZM720.384 153.858L721.378 153.754L720.384 153.858ZM769.189 239.203L770.127 238.858L769.968 238.428L769.54 238.267L769.189 239.203ZM810.93 362.411L811.612 361.68V361.68L810.93 362.411ZM772.399 319.417L773.019 318.632V318.632L772.399 319.417ZM746.713 361.77L745.784 362.141V362.141L746.713 361.77ZM756.345 372.037L757.303 371.749L757.185 371.356L756.824 371.159L756.345 372.037ZM762.767 382.946L762.06 383.653V383.653L762.767 382.946ZM751.85 153.214L752.708 152.7L752.702 152.69L751.85 153.214ZM749.924 158.99L750.478 159.822V159.822L749.924 158.99ZM743.502 140.38L744.209 139.673V139.673L743.502 140.38ZM730.016 304.658L730.656 303.889L730.016 304.658ZM788.649 225.475C788.155 225.722 787.954 226.322 788.201 226.816C788.448 227.31 789.049 227.511 789.543 227.264L789.096 226.369L788.649 225.475ZM799.952 223.333C800.401 223.012 800.505 222.388 800.184 221.938C799.864 221.489 799.239 221.384 798.79 221.705L799.371 222.519L799.952 223.333ZM826.744 283.042C826.484 283.529 826.667 284.135 827.154 284.395C827.641 284.656 828.247 284.473 828.507 283.986L827.626 283.514L826.744 283.042ZM837.844 280.662C838.396 280.693 838.868 280.271 838.899 279.72C838.93 279.169 838.509 278.696 837.957 278.665L837.901 279.664L837.844 280.662ZM783.058 218.895C782.818 219.392 783.026 219.99 783.524 220.23C784.021 220.47 784.619 220.262 784.859 219.765L783.959 219.33L783.058 218.895ZM794.035 216.46C794.576 216.569 795.104 216.219 795.213 215.678C795.323 215.136 794.973 214.609 794.432 214.499L794.233 215.479L794.035 216.46ZM1061.38 501.02L1062.36 500.83C1061.07 494.164 1056.93 478.079 1050.68 467.155L1049.82 467.651L1048.95 468.148C1055.03 478.785 1059.12 494.614 1060.39 501.21L1061.38 501.02ZM1049.82 467.651L1050.68 467.155C1048.73 463.746 1046.26 460.103 1043.66 456.279C1041.05 452.445 1038.29 448.417 1035.74 444.193C1030.63 435.737 1026.4 426.598 1025.77 416.892L1024.77 416.956L1023.77 417.021C1024.43 427.207 1028.86 436.678 1034.03 445.227C1036.61 449.506 1039.4 453.58 1042.01 457.405C1044.62 461.243 1047.04 464.819 1048.95 468.148L1049.82 467.651ZM1024.77 416.956L1025.77 416.892C1025.13 406.928 1024 394.396 1022.63 383.225C1021.27 372.101 1019.66 362.199 1018.01 357.583L1017.07 357.919L1016.12 358.256C1017.68 362.624 1019.28 372.293 1020.65 383.468C1022.01 394.598 1023.13 407.092 1023.77 417.021L1024.77 416.956ZM1017.07 357.919L1018.01 357.583C1016.43 353.168 1013.39 340.092 1010.58 327.066C1007.77 314.071 1005.2 301.258 1004.57 297.434L1003.58 297.599L1002.59 297.763C1003.24 301.64 1005.81 314.495 1008.62 327.489C1011.43 340.453 1014.49 353.687 1016.12 358.256L1017.07 357.919ZM1003.58 297.599L1004.57 297.434C1003.89 293.393 1001.57 288.125 998.068 282.923C994.562 277.708 989.824 272.479 984.249 268.547L983.673 269.364L983.096 270.181C988.438 273.949 993.012 278.988 996.409 284.039C999.815 289.105 1001.98 294.104 1002.59 297.763L1003.58 297.599ZM983.673 269.364L984.249 268.547C973.314 260.833 955.312 249.269 952.079 247.33L951.564 248.187L951.05 249.045C954.238 250.956 972.198 262.493 983.096 270.181L983.673 269.364ZM951.564 248.187L952.079 247.33C951.3 246.863 950.33 246.203 949.164 245.437C948.014 244.681 946.706 243.843 945.309 243.063C942.544 241.519 939.307 240.129 936.152 240.129V241.129V242.129C938.777 242.129 941.641 243.305 944.334 244.809C945.667 245.553 946.927 246.36 948.065 247.108C949.187 247.845 950.224 248.55 951.05 249.045L951.564 248.187ZM936.152 241.129V240.129C933.21 240.129 929.855 240.452 927.036 241.562C924.197 242.68 921.787 244.651 921.048 247.97L922.025 248.187L923.001 248.404C923.547 245.948 925.311 244.39 927.769 243.423C930.249 242.447 933.315 242.129 936.152 242.129V241.129ZM955.417 271.931L955.99 271.111C942.512 261.704 914.371 242.101 909.736 239.013L909.181 239.845L908.627 240.677C913.238 243.75 941.352 263.334 954.845 272.751L955.417 271.931ZM909.181 239.845L909.736 239.013C906.713 236.999 902.738 235.52 898.743 234.542C894.74 233.563 890.646 233.07 887.347 233.07V234.07V235.07C890.47 235.07 894.404 235.539 898.267 236.485C902.139 237.433 905.87 238.841 908.627 240.677L909.181 239.845ZM887.347 234.07V233.07C883.939 233.07 879.886 234.251 876.824 236.377C873.756 238.506 871.497 241.737 872.236 245.8L873.22 245.621L874.204 245.442C873.658 242.445 875.252 239.901 877.964 238.02C880.681 236.134 884.334 235.07 887.347 235.07V234.07ZM911.75 271.292L912.569 270.718C911.92 269.791 910.731 268.681 909.235 267.473C907.717 266.247 905.807 264.86 903.644 263.379C899.316 260.415 893.932 257.043 888.556 253.783C883.179 250.522 877.799 247.367 873.478 244.836C869.136 242.293 865.908 240.407 864.784 239.658L864.229 240.49L863.675 241.322C864.863 242.113 868.169 244.044 872.468 246.562C876.788 249.093 882.157 252.241 887.519 255.493C892.884 258.747 898.232 262.096 902.514 265.029C904.655 266.495 906.518 267.85 907.979 269.029C909.462 270.227 910.456 271.187 910.931 271.865L911.75 271.292ZM864.229 240.49L864.784 239.658C861.751 237.637 857.281 235.995 852.703 235.097C848.131 234.199 843.304 234.014 839.564 235.033L839.827 235.998L840.09 236.963C843.414 236.057 847.899 236.192 852.317 237.059C856.73 237.925 860.928 239.492 863.675 241.322L864.229 240.49ZM839.827 235.998L839.564 235.033C832.109 237.065 827.268 243.2 827.268 250.113H828.268H829.268C829.268 244.191 833.417 238.781 840.09 236.963L839.827 235.998ZM855.239 281.558L855.935 280.84C852.31 277.324 846.515 271.437 840.924 265.216C835.317 258.977 829.975 252.467 827.207 247.688L826.342 248.189L825.476 248.691C828.359 253.666 833.827 260.311 839.436 266.553C845.062 272.813 850.89 278.733 854.543 282.276L855.239 281.558ZM826.342 248.189L827.207 247.688C820.1 235.421 797.579 205.849 791.796 198.786L791.022 199.42L790.249 200.053C796.025 207.108 818.456 236.573 825.476 248.691L826.342 248.189ZM791.022 199.42L791.796 198.786C786.027 191.74 766.779 166.736 762.272 160.945L761.483 161.559L760.693 162.173C765.176 167.932 784.459 192.982 790.249 200.053L791.022 199.42ZM761.483 161.559L762.272 160.945C761.179 159.541 759.846 157.465 758.233 155.022C756.635 152.602 754.791 149.866 752.717 147.225C748.604 141.986 743.441 136.92 737.297 135.556L737.08 136.532L736.863 137.508C742.279 138.711 747.069 143.271 751.144 148.46C753.164 151.033 754.971 153.711 756.564 156.124C758.142 158.514 759.538 160.689 760.693 162.173L761.483 161.559ZM737.08 136.532L737.297 135.556C731.262 134.216 726.37 135.53 723.181 138.982C720.028 142.395 718.729 147.697 719.389 153.963L720.384 153.858L721.378 153.754C720.754 147.827 722.024 143.183 724.65 140.339C727.241 137.535 731.339 136.282 736.863 137.508L737.08 136.532ZM720.384 153.858L719.389 153.963C719.728 157.177 721.311 161.712 723.479 166.728C725.662 171.776 728.485 177.417 731.38 182.882C737.148 193.767 743.309 204.147 745.193 207.597L746.071 207.118L746.948 206.639C744.979 203.031 738.939 192.877 733.148 181.945C730.263 176.502 727.468 170.913 725.315 165.934C723.149 160.925 721.682 156.636 721.378 153.754L720.384 153.858ZM746.071 207.118L745.193 207.597C747.135 211.156 751.647 218.723 756.319 225.645C758.655 229.106 761.043 232.425 763.18 235.008C764.248 236.299 765.267 237.422 766.195 238.291C767.101 239.14 768.002 239.827 768.838 240.14L769.189 239.203L769.54 238.267C769.09 238.099 768.427 237.642 767.562 236.832C766.719 236.042 765.761 234.989 764.721 233.733C762.644 231.222 760.297 227.964 757.977 224.527C753.338 217.653 748.859 210.139 746.948 206.639L746.071 207.118ZM769.189 239.203L768.25 239.549C772.776 251.823 780.516 266.643 787.601 278.228L788.454 277.706L789.307 277.184C782.263 265.667 774.592 250.969 770.127 238.858L769.189 239.203ZM788.454 277.706L787.601 278.228C791.114 283.973 796.398 293.573 801.287 303.263C806.184 312.97 810.645 322.691 812.545 328.702L813.498 328.401L814.452 328.099C812.498 321.918 807.969 312.067 803.073 302.362C798.169 292.641 792.857 282.99 789.307 277.184L788.454 277.706ZM813.498 328.401L812.545 328.702C816.376 340.827 820.211 360.637 820.848 372.092L821.846 372.037L822.845 371.981C822.197 360.336 818.326 340.36 814.452 328.099L813.498 328.401ZM831.479 386.154L832.283 385.56C828.635 380.627 819.386 368.931 811.612 361.68L810.93 362.411L810.247 363.143C817.885 370.265 827.045 381.842 830.675 386.749L831.479 386.154ZM810.93 362.411L811.612 361.68C806.807 357.199 802.268 352.985 798.199 349.976C796.162 348.47 794.21 347.24 792.37 346.427C790.535 345.615 788.744 345.188 787.059 345.375L787.169 346.369L787.28 347.362C788.484 347.229 789.904 347.523 791.561 348.256C793.213 348.986 795.033 350.123 797.01 351.584C800.968 354.511 805.419 358.639 810.247 363.143L810.93 362.411ZM791.022 346.369L791.96 346.021C789.793 340.174 782.99 326.498 773.019 318.632L772.399 319.417L771.78 320.202C781.331 327.737 787.971 341.013 790.085 346.716L791.022 346.369ZM772.399 319.417L773.019 318.632C769.988 316.241 767.238 313.851 764.571 311.568C761.913 309.293 759.336 307.122 756.69 305.211C751.38 301.374 745.753 298.549 738.455 297.886L738.365 298.882L738.274 299.878C745.104 300.499 750.393 303.128 755.519 306.832C758.091 308.69 760.611 310.811 763.271 313.088C765.922 315.357 768.71 317.78 771.78 320.202L772.399 319.417ZM738.365 298.882L738.455 297.886C731.246 297.231 726.384 298.369 723.041 300.167C719.691 301.97 717.971 304.381 716.958 306.068L717.815 306.583L718.673 307.097C719.586 305.576 721.076 303.495 723.988 301.929C726.906 300.359 731.355 299.25 738.274 299.878L738.365 298.882ZM717.815 306.583L716.958 306.068C716.281 307.195 716.259 308.83 716.559 310.545C716.869 312.318 717.565 314.409 718.594 316.629C720.652 321.071 724.098 326.152 728.694 330.417L729.374 329.684L730.054 328.951C725.66 324.874 722.364 320.009 720.408 315.788C719.43 313.676 718.801 311.756 718.529 310.201C718.247 308.587 718.386 307.575 718.673 307.097L717.815 306.583ZM729.374 329.684L728.694 330.417C733.042 334.452 736.669 340.723 739.546 346.873C742.42 353.016 744.479 358.88 745.784 362.141L746.713 361.77L747.641 361.398C746.378 358.242 744.263 352.235 741.357 346.025C738.455 339.822 734.696 333.259 730.054 328.951L729.374 329.684ZM746.713 361.77L745.784 362.141C746.884 364.888 748.811 367.25 750.728 369.072C752.648 370.896 754.613 372.231 755.867 372.915L756.345 372.037L756.824 371.159C755.723 370.559 753.9 369.327 752.106 367.622C750.309 365.915 748.596 363.784 747.641 361.398L746.713 361.77ZM756.345 372.037L755.388 372.324C756.057 374.554 758.305 379.901 762.06 383.653L762.767 382.946L763.474 382.238C760.037 378.804 757.918 373.798 757.303 371.749L756.345 372.037ZM762.767 382.946L762.06 383.653C764.286 385.878 768.764 390.671 773.166 395.79C777.589 400.932 781.854 406.312 783.723 409.735L784.601 409.256L785.478 408.777C783.494 405.141 779.09 399.611 774.683 394.486C770.255 389.338 765.743 384.506 763.474 382.238L762.767 382.946ZM784.601 409.256L783.723 409.735C787.602 416.842 795.414 429.226 808.489 437.065L809.003 436.208L809.517 435.35C796.906 427.788 789.305 415.788 785.478 408.777L784.601 409.256ZM809.003 436.208L808.489 437.065C814.882 440.898 823.047 446.337 830.258 451.461C837.492 456.602 843.684 461.369 846.184 463.867L846.891 463.159L847.598 462.452C844.96 459.816 838.63 454.957 831.416 449.831C824.178 444.687 815.968 439.217 809.517 435.35L809.003 436.208ZM846.891 463.159L846.184 463.867C848.867 466.547 854.126 469.817 859.654 472.859C865.219 475.922 871.182 478.82 875.37 480.752L875.789 479.844L876.207 478.936C872.047 477.017 866.13 474.14 860.618 471.107C855.068 468.053 850.052 464.905 847.598 462.452L846.891 463.159ZM875.789 479.844L875.37 480.752C879.504 482.658 886.842 486.484 894.018 491.264C901.225 496.065 908.128 501.74 911.539 507.317L912.392 506.795L913.245 506.274C909.592 500.3 902.368 494.424 895.126 489.6C887.853 484.754 880.421 480.879 876.207 478.936L875.789 479.844ZM912.392 506.795L911.539 507.317C915.072 513.094 919.254 519.846 923.119 525.639C925.051 528.535 926.91 531.201 928.573 533.389C930.224 535.562 931.723 537.32 932.933 538.357L933.584 537.597L934.234 536.838C933.197 535.949 931.806 534.339 930.166 532.179C928.537 530.037 926.704 527.408 924.783 524.529C920.942 518.771 916.776 512.048 913.245 506.274L912.392 506.795ZM755.703 371.395L756.695 371.519C756.898 369.897 757.517 367.199 758.706 364.48C759.9 361.752 761.625 359.104 763.982 357.455L763.409 356.635L762.836 355.816C760.056 357.761 758.142 360.781 756.874 363.678C755.602 366.585 754.936 369.47 754.711 371.271L755.703 371.395ZM751.85 153.214L750.993 153.729C751.206 154.084 751.43 154.775 751.297 155.568C751.171 156.32 750.706 157.267 749.369 158.158L749.924 158.99L750.478 159.822C752.224 158.659 753.043 157.253 753.27 155.898C753.49 154.584 753.137 153.415 752.708 152.7L751.85 153.214ZM749.924 158.99L749.369 158.158C747.448 159.437 745.623 160.761 744.142 161.774C742.596 162.831 741.425 163.547 740.617 163.816L740.933 164.765L741.249 165.714C742.368 165.341 743.766 164.453 745.271 163.425C746.839 162.352 748.546 161.109 750.478 159.822L749.924 158.99ZM740.933 164.765L740.617 163.816C739.814 164.084 738.553 164.228 737.297 163.949C736.066 163.676 734.881 163.009 734.085 161.684L733.227 162.198L732.37 162.713C733.501 164.596 735.205 165.533 736.864 165.902C738.497 166.265 740.126 166.088 741.249 165.714L740.933 164.765ZM733.227 162.198L734.085 161.684C733.12 160.077 731.685 157.686 730.41 155.378C729.111 153.025 728.059 150.896 727.776 149.763L726.806 150.006L725.836 150.249C726.194 151.682 727.39 154.046 728.659 156.345C729.954 158.689 731.408 161.111 732.37 162.713L733.227 162.198ZM726.806 150.006L727.776 149.763C727.489 148.615 727.335 146.677 727.707 144.74C728.08 142.805 728.947 141.011 730.571 139.929L730.017 139.097L729.462 138.265C727.233 139.75 726.174 142.126 725.743 144.362C725.313 146.597 725.481 148.83 725.836 150.249L726.806 150.006ZM730.017 139.097L730.571 139.929C732.263 138.802 734.587 138.344 736.904 138.568C739.222 138.792 741.392 139.685 742.795 141.088L743.502 140.38L744.209 139.673C742.401 137.867 739.755 136.835 737.096 136.577C734.436 136.32 731.623 136.825 729.462 138.265L730.017 139.097ZM743.502 140.38L742.795 141.088C743.981 142.273 745.581 144.681 747.144 147.238C747.914 148.499 748.659 149.769 749.321 150.902C749.98 152.028 750.563 153.031 750.999 153.739L751.85 153.214L752.702 152.69C752.281 152.007 751.714 151.032 751.048 149.892C750.385 148.759 749.632 147.475 748.85 146.196C747.309 143.673 745.592 141.055 744.209 139.673L743.502 140.38ZM721.026 302.732L721.268 303.703C722.005 303.519 723.356 303.366 724.879 303.564C726.395 303.761 728.019 304.296 729.377 305.426L730.016 304.658L730.656 303.889C728.931 302.452 726.916 301.811 725.136 301.58C723.363 301.35 721.76 301.518 720.784 301.762L721.026 302.732ZM730.016 304.658L729.377 305.426C731.213 306.955 734.204 310.406 736.938 313.861C738.294 315.575 739.568 317.266 740.581 318.684C741.608 320.124 742.326 321.227 742.608 321.789L743.502 321.342L744.396 320.895C744.035 320.173 743.228 318.951 742.209 317.522C741.174 316.073 739.88 314.355 738.507 312.62C735.782 309.177 732.673 305.569 730.656 303.889L730.016 304.658ZM743.502 321.342L742.608 321.789C743.201 322.975 743.615 324.404 743.547 325.701C743.481 326.95 742.977 328.063 741.703 328.827L742.218 329.684L742.732 330.542C744.669 329.381 745.449 327.605 745.544 325.806C745.636 324.055 745.087 322.276 744.396 320.895L743.502 321.342ZM742.218 329.684L741.703 328.827C740.863 329.33 740.103 329.879 739.429 330.347C738.737 330.828 738.136 331.225 737.538 331.507C736.952 331.782 736.396 331.933 735.806 331.933C735.216 331.933 734.525 331.782 733.674 331.356L733.227 332.251L732.78 333.146C733.856 333.683 734.851 333.933 735.806 333.933C736.761 333.933 737.609 333.683 738.389 333.316C739.155 332.956 739.878 332.471 740.571 331.989C741.282 331.495 741.966 331.001 742.732 330.542L742.218 329.684ZM752.492 362.411L753.485 362.535C753.675 361.014 754.406 359.223 755.441 357.464C756.47 355.716 757.756 354.073 758.979 352.851L758.272 352.144L757.565 351.437C756.219 352.782 754.829 354.561 753.718 356.449C752.613 358.327 751.738 360.386 751.5 362.287L752.492 362.411ZM789.096 226.369L789.543 227.264C789.723 227.174 790.1 227.076 790.815 226.927C791.473 226.79 792.328 226.623 793.281 226.374C795.201 225.874 797.573 225.031 799.952 223.333L799.371 222.519L798.79 221.705C796.673 223.216 794.55 223.977 792.777 224.439C791.884 224.672 791.093 224.826 790.407 224.969C789.777 225.101 789.111 225.244 788.649 225.475L789.096 226.369ZM827.626 283.514L828.507 283.986C829.198 282.696 830.519 281.802 832.242 281.258C833.96 280.714 835.972 280.556 837.844 280.662L837.901 279.664L837.957 278.665C835.919 278.55 833.651 278.714 831.639 279.351C829.631 279.985 827.77 281.127 826.744 283.042L827.626 283.514ZM783.959 219.33L784.859 219.765C785.506 218.424 786.816 217.402 788.51 216.809C790.2 216.217 792.189 216.086 794.035 216.46L794.233 215.479L794.432 214.499C792.245 214.057 789.891 214.207 787.849 214.922C785.81 215.635 783.998 216.947 783.058 218.895L783.959 219.33Z" fill="url(#paint11_linear_4245_154379)"/>
<path d="M742.737 102.039C741.725 102.039 740.896 101.219 740.952 100.212C741.245 94.9815 742.933 91.8508 747.478 88.552C750.662 86.1313 753.775 85.0938 753.775 81.0824C753.845 77.2785 751.189 74.6503 746.345 74.6503C742.234 74.6503 739.68 77.3691 738.672 81.4567C738.446 82.3709 737.64 83.0574 736.696 83.0172L730.566 82.7557C729.515 82.7109 728.709 81.7914 728.915 80.7632C730.542 72.6442 737.201 66.5859 746.068 66.5859C756.309 66.5859 763.437 72.8521 763.437 81.0824C763.437 85.8546 761.084 89.3128 755.271 93.0476C752.153 95.0469 751.067 96.9963 750.811 100.214C750.732 101.219 749.927 102.039 748.915 102.039H742.737ZM742.572 114.516C741.56 114.516 740.74 113.698 740.74 112.69V107.005C740.74 105.996 741.56 105.179 742.572 105.179H748.803C749.815 105.179 750.635 105.996 750.635 107.005V112.69C750.635 113.698 749.815 114.516 748.803 114.516H742.572Z" fill="#D9D9D9" fill-opacity="0.1"/>
<path d="M742.737 102.039C741.725 102.039 740.896 101.219 740.952 100.212C741.245 94.9815 742.933 91.8508 747.478 88.552C750.662 86.1313 753.775 85.0938 753.775 81.0824C753.845 77.2785 751.189 74.6503 746.345 74.6503C742.234 74.6503 739.68 77.3691 738.672 81.4567C738.446 82.3709 737.64 83.0574 736.696 83.0172L730.566 82.7557C729.515 82.7109 728.709 81.7914 728.915 80.7632C730.542 72.6442 737.201 66.5859 746.068 66.5859C756.309 66.5859 763.437 72.8521 763.437 81.0824C763.437 85.8546 761.084 89.3128 755.271 93.0476C752.153 95.0469 751.067 96.9963 750.811 100.214C750.732 101.219 749.927 102.039 748.915 102.039H742.737ZM742.572 114.516C741.56 114.516 740.74 113.698 740.74 112.69V107.005C740.74 105.996 741.56 105.179 742.572 105.179H748.803C749.815 105.179 750.635 105.996 750.635 107.005V112.69C750.635 113.698 749.815 114.516 748.803 114.516H742.572Z" stroke="url(#paint12_linear_4245_154379)" stroke-width="2"/>
<defs>
<linearGradient id="paint0_linear_4245_154379" x1="577.734" y1="7.34375" x2="577.734" y2="180.793" gradientUnits="userSpaceOnUse">
<stop stop-color="white" stop-opacity="0.5"/>
<stop offset="1" stop-color="white" stop-opacity="0.05"/>
</linearGradient>
<linearGradient id="paint1_linear_4245_154379" x1="577.734" y1="7.34375" x2="577.734" y2="180.793" gradientUnits="userSpaceOnUse">
<stop stop-color="white"/>
<stop offset="1" stop-color="white" stop-opacity="0.5"/>
</linearGradient>
<linearGradient id="paint2_linear_4245_154379" x1="577.734" y1="18.6953" x2="577.734" y2="169.456" gradientUnits="userSpaceOnUse">
<stop stop-color="white"/>
<stop offset="1" stop-color="white" stop-opacity="0.5"/>
</linearGradient>
<linearGradient id="paint3_linear_4245_154379" x1="576.528" y1="17.5059" x2="579.868" y2="128.353" gradientUnits="userSpaceOnUse">
<stop stop-color="white"/>
<stop offset="1" stop-color="white" stop-opacity="0.2"/>
</linearGradient>
<linearGradient id="paint4_linear_4245_154379" x1="911.734" y1="7.34375" x2="911.734" y2="180.793" gradientUnits="userSpaceOnUse">
<stop stop-color="white" stop-opacity="0.5"/>
<stop offset="1" stop-color="white" stop-opacity="0.05"/>
</linearGradient>
<linearGradient id="paint5_linear_4245_154379" x1="911.734" y1="7.34375" x2="911.734" y2="180.793" gradientUnits="userSpaceOnUse">
<stop stop-color="white"/>
<stop offset="1" stop-color="white" stop-opacity="0.5"/>
</linearGradient>
<linearGradient id="paint6_linear_4245_154379" x1="911.734" y1="18.6953" x2="911.734" y2="169.456" gradientUnits="userSpaceOnUse">
<stop stop-color="white"/>
<stop offset="1" stop-color="white" stop-opacity="0.5"/>
</linearGradient>
<linearGradient id="paint7_linear_4245_154379" x1="909.514" y1="-10.6036" x2="915.469" y2="126.444" gradientUnits="userSpaceOnUse">
<stop stop-color="white"/>
<stop offset="1" stop-color="white" stop-opacity="0.2"/>
</linearGradient>
<linearGradient id="paint8_linear_4245_154379" x1="675.02" y1="158.272" x2="675.02" y2="400.213" gradientUnits="userSpaceOnUse">
<stop stop-color="#D9D9D9" stop-opacity="0"/>
<stop offset="1" stop-color="#737373"/>
</linearGradient>
<radialGradient id="paint9_radial_4245_154379" cx="0" cy="0" r="1" gradientUnits="userSpaceOnUse" gradientTransform="translate(686.086 182.58) scale(569.894 272.959)">
<stop offset="0.00610134" stop-color="white" stop-opacity="0"/>
<stop offset="0.408122" stop-color="#DEDEDE" stop-opacity="0.1"/>
<stop offset="0.747946" stop-color="#B2B2B2" stop-opacity="0.75"/>
<stop offset="1" stop-color="#999999" stop-opacity="0"/>
</radialGradient>
<linearGradient id="paint10_linear_4245_154379" x1="905.836" y1="300.226" x2="975.593" y2="520.637" gradientUnits="userSpaceOnUse">
<stop stop-color="#D9D9D9"/>
<stop offset="1" stop-color="#D9D9D9" stop-opacity="0"/>
</linearGradient>
<linearGradient id="paint11_linear_4245_154379" x1="871.728" y1="285.377" x2="924.173" y2="514.456" gradientUnits="userSpaceOnUse">
<stop stop-color="white"/>
<stop offset="1" stop-color="white" stop-opacity="0"/>
</linearGradient>
<linearGradient id="paint12_linear_4245_154379" x1="746.16" y1="66.5859" x2="746.16" y2="114.516" gradientUnits="userSpaceOnUse">
<stop stop-color="white"/>
<stop offset="1" stop-color="white" stop-opacity="0.5"/>
</linearGradient>
</defs>
</svg>
