<svg width="28" height="28" viewBox="0 0 28 28" fill="none" xmlns="http://www.w3.org/2000/svg">
<path d="M14.5462 4.97026C14.1676 5.34346 14.1321 5.93319 14.4424 6.34696L14.5356 6.45515L20.9417 12.9513L4.55 12.9513C3.9701 12.9513 3.5 13.4214 3.5 14.0013C3.5 14.5366 3.90056 14.9783 4.41829 15.0431L4.55 15.0513H20.9417L14.5356 21.5475C14.1624 21.926 14.1353 22.5162 14.4514 22.9255L14.5462 23.0323C14.9247 23.4056 15.5149 23.4327 15.9242 23.1165L16.031 23.0218L24.1977 14.7385C24.5672 14.3637 24.598 13.7807 24.2901 13.3712L24.1977 13.2641L16.031 4.98079C15.6239 4.56784 14.9591 4.56313 14.5462 4.97026Z" fill="black"/>
</svg>
