<svg width="24" height="25" viewBox="0 0 24 25" fill="none" xmlns="http://www.w3.org/2000/svg">
<path d="M12.4681 4.75911C12.1437 5.079 12.1132 5.58447 12.3792 5.93913L12.4591 6.03187L17.95 11.6L3.9 11.6C3.40294 11.6 3 12.0029 3 12.5C3 12.9588 3.34334 13.3375 3.78711 13.393L3.9 13.4H17.95L12.4591 18.9681C12.1392 19.2926 12.116 19.7984 12.3869 20.1493L12.4681 20.2409C12.7926 20.5608 13.2985 20.584 13.6493 20.3131L13.7409 20.2319L20.7409 13.1319C21.0576 12.8107 21.084 12.3109 20.8201 11.9599L20.7409 11.8681L13.7409 4.76813C13.3919 4.41418 12.8221 4.41014 12.4681 4.75911Z" fill="white"/>
</svg>
