<svg width="1226" height="635" viewBox="0 0 1226 635" fill="none" xmlns="http://www.w3.org/2000/svg">
<rect x="435" y="4" width="490" height="600" fill="url(#paint0_radial_6162_156271)" fill-opacity="0.1"/>
<path d="M925 4L925 620" stroke="url(#paint1_linear_6162_156271)"/>
<path d="M953 0L953 620" stroke="url(#paint2_linear_6162_156271)"/>
<path opacity="0.4" d="M1157 37L1157 525" stroke="url(#paint3_linear_6162_156271)"/>
<path d="M848.935 51.6673C856.965 52.0405 863.501 58.8889 863.501 66.9307V279.967C863.501 288.042 856.913 294.216 848.849 293.698L710.807 284.821C702.878 284.311 696.5 277.513 696.499 269.572V58.9998C696.499 51.0253 702.93 44.8842 710.894 45.2542L848.935 51.6673Z" fill="url(#paint4_linear_6162_156271)" fill-opacity="0.1" stroke="url(#paint5_linear_6162_156271)"/>
<path opacity="0.1" d="M353 27L353 367" stroke="url(#paint6_linear_6162_156271)"/>
<rect x="1.82512" y="1.92327" width="118.811" height="127.528" transform="matrix(0.99863 0.052336 0 1 718.003 64.9045)" stroke="white" stroke-width="3.65525"/>
<path d="M737.69 66.641L718.453 101.373" stroke="white" stroke-width="0.406139"/>
<path d="M725.763 66.4218L740.262 109.701M740.262 109.701L769.873 198.089M740.262 109.701L753.403 67.8703M740.262 109.701L718.947 177.55M758.135 68.1184L762.181 80.1928M762.181 80.1928L771.442 107.836M762.181 80.1928L718.758 125.96L736.331 147.61M762.181 80.1928L772.902 68.8923L779.154 87.2448M771.442 107.836L772.947 112.329M771.442 107.836L779.154 87.2448M771.442 107.836L767.959 117.135M772.947 112.329L781.539 137.975M772.947 112.329L767.959 117.135M772.947 112.329L784.054 101.627M781.539 137.975L788.429 158.542M781.539 137.975L768.713 155.298M781.539 137.975L791.742 124.195M788.429 158.542L794.805 177.574M788.429 158.542L804.334 161.159M788.429 158.542L768.713 155.298M794.805 177.574L800.4 194.273M794.805 177.574L805.491 164.553M794.805 177.574L785.541 188.862M800.4 194.273L802.246 199.785M800.4 194.273L817.77 200.599L805.491 164.553M800.4 194.273L785.541 188.862M785.776 69.5669L779.154 87.2448M779.154 87.2448L784.054 101.627M767.959 117.135L754.538 152.966M767.959 117.135L736.331 147.61M754.538 152.966L750.162 164.649M754.538 152.966L768.713 155.298M754.538 152.966L738.543 150.334M750.162 164.649L746.427 174.619M750.162 164.649L756.243 172.141M750.162 164.649L738.543 150.334M746.427 174.619L738.257 196.432L752.713 176.908M746.427 174.619L752.713 176.908M746.427 174.619L718.758 164.543L734.239 149.626M752.713 176.908L756.243 172.141M752.713 176.908L763.218 180.733M756.243 172.141L768.713 155.298M756.243 172.141L763.218 180.733M791.742 124.195L808.404 101.69M791.742 124.195L784.054 101.627M791.742 124.195L804.334 161.159M808.404 101.69L816.784 90.3722M808.404 101.69L817.826 149.522M808.404 101.69L804.509 81.9168M816.784 90.3722L819.464 86.7519M816.784 90.3722L808.098 78.458M816.784 90.3722L822.363 98.0257M819.464 86.7519L830.454 71.9085L829.764 108.177M819.464 86.7519L815.498 71.3277L808.098 78.458M819.464 86.7519L822.363 98.0257M829.764 108.177L829.433 125.523M829.764 108.177L822.363 98.0257M829.764 108.177L840.109 122.37L831.363 133.027M829.433 125.523L829.241 135.613M829.433 125.523L822.363 98.0257M829.433 125.523L831.363 133.027M829.241 135.613L828.678 165.164M829.241 135.613L831.363 133.027M829.241 135.613L817.826 149.522M828.678 165.164L827.993 201.135L820.647 163.843M828.678 165.164L840.109 167.045L831.363 133.027M828.678 165.164L820.647 163.843M820.647 163.843L817.826 149.522M820.647 163.843L807.807 161.73M817.826 149.522L807.807 161.73M804.509 81.9168L802.246 70.4301L808.098 78.458M804.509 81.9168L784.054 101.627M804.509 81.9168L808.098 78.458M807.807 161.73L805.491 164.553M807.807 161.73L804.334 161.159M805.491 164.553L804.334 161.159M785.541 188.862L777.635 198.496L763.218 180.733M785.541 188.862L763.218 180.733M738.543 150.334L736.331 147.61M738.543 150.334L734.239 149.626M736.331 147.61L734.239 149.626M734.239 149.626L718.758 147.079" stroke="white" stroke-width="0.812277"/>
<g clip-path="url(#clip0_6162_156271)">
<path d="M543.269 198.277C551.158 201.029 574.238 210.501 601.379 226.073C635.885 245.871 636.764 278.541 636.77 282.833C636.771 284.416 636.3 287.178 635.589 290.468C634.874 293.776 633.904 297.669 632.883 301.539C630.841 309.281 628.589 316.955 627.758 319.732L615.634 360.224L615.569 360.304C614.221 361.946 612.106 364.792 610.159 367.975C608.207 371.168 606.451 374.656 605.784 377.591C605.092 380.632 590.019 431.12 571.476 492.947C552.926 554.794 530.89 628.029 516.256 676.601L497.369 739.682L496.371 739.528L498.344 615.175L498.345 615.109L498.362 615.046L598.025 256.164L542.736 199.112L543.269 198.277Z" fill="url(#paint7_linear_6162_156271)" stroke="url(#paint8_linear_6162_156271)" stroke-width="1.01911"/>
<path d="M595.315 341.806C593.614 347.489 590.096 352.538 585.686 356.434C584.729 357.279 583.693 358.774 582.641 360.73C581.599 362.668 580.579 364.987 579.631 367.412C577.735 372.26 576.151 377.474 575.274 380.788L491.753 659.736C480.174 698.408 439.437 720.371 400.766 708.792L217.427 653.898C205.62 650.363 198.916 637.926 202.45 626.12L305.895 280.633C307.736 274.484 309.347 269.577 308.627 263.205C308.012 257.765 310.049 251.561 311.16 249.071C315.279 235.053 324.002 205.556 326.016 199.452C327.253 195.704 328.514 191.112 330.227 186.889C331.944 182.657 334.177 178.627 337.465 175.973C343.695 170.945 353.3 162.09 372.001 160.06C381.202 159.061 388.247 158.145 398.51 158.583C408.763 159.021 422.207 160.807 444.264 165.175C468.815 170.038 521.233 189.254 544.33 198.235L544.346 198.242L544.361 198.248C565.304 207.351 585.586 219.039 594.803 228.332C600.52 234.097 604.196 238.724 606.922 243.203C609.647 247.681 611.403 251.982 613.302 257.055C614.874 261.259 615.205 266.191 615.002 270.603C614.798 275.022 614.056 278.996 613.425 281.324L595.315 341.806Z" fill="url(#paint9_linear_6162_156271)" stroke="url(#paint10_linear_6162_156271)" stroke-width="1.72032"/>
<path d="M595.233 281.637L490.319 632.031L443.579 788.134L183.883 714.173L335.153 208.957C336.324 205.045 338.448 197.699 339.683 195.899L339.704 195.869C341.076 193.87 346.8 185.53 359.131 184.519C371.524 183.503 393.389 183.462 417.397 188.171C441.405 192.88 477.305 203.939 499.558 211.144C517.36 216.908 537.776 226.281 545.758 230.247C558.734 237.206 586.11 253.147 591.809 261.238C597.507 269.33 596.466 278.209 595.233 281.637Z" fill="url(#paint11_linear_6162_156271)" stroke="url(#paint12_linear_6162_156271)" stroke-width="1.72032"/>
<path d="M559.547 333.556L473.563 620.728L456.31 678.352C455.302 681.719 451.754 683.632 448.386 682.624L240.047 620.243C236.68 619.235 234.767 615.688 235.775 612.32L244.873 581.935L340.3 263.225C341.323 259.808 344.954 257.899 348.349 258.992L555.401 325.672C558.698 326.734 560.541 330.238 559.547 333.556Z" fill="url(#paint13_linear_6162_156271)" stroke="url(#paint14_linear_6162_156271)" stroke-width="1.5665"/>
<path d="M592.31 349.88C595.462 349.533 600.017 348.468 607.208 352.404C611.774 354.903 613.873 358.865 614.815 360.206" stroke="#63606F" stroke-width="1.01911"/>
<path d="M392.061 221.646C395.305 221.94 397.686 218.389 398.543 215.527C400.289 209.696 395.616 207.444 392.323 207.311C389.031 207.178 385.77 211.858 385.416 214.852C385.062 217.846 387.61 221.243 392.061 221.646Z" stroke="white" stroke-width="1.01911"/>
<path d="M592.64 397.064L578.65 443.788C578.65 443.788 577.843 446.401 577.081 447.735C575.885 449.831 572.772 453.481 568.124 452.028C563.476 450.574 563.567 445.161 564.194 442.637L568.133 429.48C571.869 416.056 579.734 388.457 581.314 385.458C583.289 381.71 588.628 380.441 592.505 383.54C595.607 386.018 593.888 393.589 592.64 397.064Z" fill="#3C3645" stroke="#88848E" stroke-width="1.01911"/>
<path d="M588.907 382.024C586.746 383.373 585.222 383.242 582.493 391.191C579.765 399.14 570.269 432.421 566.672 444.557C566.217 445.882 565.22 449.547 567.584 451.795" stroke="#88848E" stroke-width="1.01911"/>
<path d="M489.347 237.012C474.19 232.422 443.681 223.215 442.908 223.107C440.121 222.32 436.664 222.478 435.551 227.491C434.66 231.502 437.898 233.541 439.628 234.059C453.807 238.382 483.008 247.928 486.921 248.219C490.711 248.502 492.065 247.435 493.219 242.976C494.008 239.926 490.966 237.729 489.347 237.012Z" fill="#2B2B2B" stroke="white" stroke-width="1.01911"/>
<path d="M546.753 271.473C549.696 271.494 551.573 268.118 552.13 265.477C553.264 260.095 548.887 258.418 545.913 258.546C542.939 258.673 540.354 263.132 540.26 265.854C540.166 268.577 542.715 271.445 546.753 271.473Z" stroke="white" stroke-width="1.01911"/>
<mask id="mask0_6162_156271" style="mask-type:alpha" maskUnits="userSpaceOnUse" x="280" y="324" width="235" height="213">
<rect x="280.977" y="324.992" width="234" height="212" fill="url(#paint15_linear_6162_156271)"/>
</mask>
<g mask="url(#mask0_6162_156271)">
<rect x="1.17676" y="2.32642" width="126.523" height="127.528" transform="matrix(0.947386 0.320093 -0.30351 0.952828 358.745 349.733)" stroke="white" stroke-width="3.65525"/>
<path d="M377.649 357.289L347.402 384.789" stroke="white" stroke-width="0.406139"/>
<path d="M365.493 353.613L367.21 399.067M367.21 399.067L370.715 491.896M367.21 399.067L393.367 363.031M367.21 399.067L324.784 457.517M398.139 364.643L398.618 377.324M398.618 377.324L399.715 406.357M398.618 377.324L340.248 408.306L351.678 434.045M398.618 377.324L413.031 369.675L413.865 388.979M399.715 406.357L399.893 411.075M399.715 406.357L413.865 388.979M399.715 406.357L393.324 414.204M399.893 411.075L400.91 438.01M399.893 411.075L393.324 414.204M399.893 411.075L414.518 404.107M400.91 438.01L401.726 459.61M400.91 438.01L382.514 450.786M400.91 438.01L415.544 427.846M401.726 459.61L402.48 479.598M401.726 459.61L417.224 466.729M401.726 459.61L382.514 450.786M402.48 479.598L403.143 497.137M402.48 479.598L417.378 470.299M402.48 479.598L389.564 487.661M403.143 497.137L403.361 502.926M403.143 497.137L419.016 508.215L417.378 470.299M403.143 497.137L389.564 487.661M426.013 374.061L413.865 388.979M413.865 388.979L414.518 404.107M393.324 414.204L368.702 444.442M393.324 414.204L351.678 434.045M368.702 444.442L360.674 454.302M368.702 444.442L382.514 450.786M368.702 444.442L353.116 437.284M360.674 454.302L353.822 462.716M360.674 454.302L364.629 463.208M360.674 454.302L353.116 437.284M353.822 462.716L338.833 481.124L359.566 466.724M353.822 462.716L359.566 466.724M353.822 462.716L328.537 445.069L348.923 435.358M359.566 466.724L364.629 463.208M359.566 466.724L369.165 473.424M364.629 463.208L382.514 450.786M364.629 463.208L369.165 473.424M415.544 427.846L439.442 411.249M415.544 427.846L414.518 404.107M415.544 427.846L417.224 466.729M439.442 411.249L451.461 402.901M439.442 411.249L434.576 459.564M439.442 411.249L441.453 391.275M451.461 402.901L455.305 400.231M451.461 402.901L446.18 389.024M451.461 402.901L454.853 411.816M455.305 400.231L471.068 389.284L459.352 423.641M455.305 400.231L455.924 384.381L446.18 389.024M455.305 400.231L454.853 411.816M459.352 423.641L453.749 440.072M459.352 423.641L454.853 411.816M459.352 423.641L465.642 440.172L453.448 447.784M453.749 440.072L450.49 449.63M453.749 440.072L454.853 411.816M453.749 440.072L453.448 447.784M450.49 449.63L440.945 477.624M450.49 449.63L453.448 447.784M450.49 449.63L434.576 459.564M440.945 477.624L429.325 511.698L433.119 474.029M440.945 477.624L452.083 482.74L453.448 447.784M440.945 477.624L433.119 474.029M433.119 474.029L434.576 459.564M433.119 474.029L420.608 468.283M434.576 459.564L420.608 468.283M441.453 391.275L442.622 379.673L446.18 389.024M441.453 391.275L414.518 404.107M441.453 391.275L446.18 389.024M420.608 468.283L417.378 470.299M420.608 468.283L417.224 466.729M417.378 470.299L417.224 466.729M389.564 487.661L378.543 494.54L369.165 473.424M389.564 487.661L369.165 473.424M353.116 437.284L351.678 434.045M353.116 437.284L348.923 435.358M351.678 434.045L348.923 435.358M348.923 435.358L333.838 428.429" stroke="white" stroke-width="0.812277"/>
</g>
<path opacity="0.5" d="M349.554 338.76C350.902 334.496 355.484 332.166 359.725 333.587L491.394 377.73C495.556 379.125 497.816 383.612 496.46 387.787L453.12 521.173C451.751 525.385 447.22 527.684 443.013 526.3L312.153 483.278C307.989 481.909 305.702 477.445 307.024 473.266L349.554 338.76Z" fill="url(#paint16_linear_6162_156271)" stroke="url(#paint17_linear_6162_156271)" stroke-width="1.88267"/>
</g>
<g clip-path="url(#clip1_6162_156271)">
<path opacity="0.5" d="M935 262C935 311.706 894.706 352 845 352C795.294 352 755 311.706 755 262" stroke="white"/>
<g filter="url(#filter0_d_6162_156271)">
<circle cx="845" cy="255" r="87" fill="#1B1B2D"/>
<circle cx="845" cy="255" r="87" fill="url(#paint18_linear_6162_156271)" fill-opacity="0.4"/>
</g>
<circle cx="845.5" cy="254.5" r="87.5" stroke="#E4255B" stroke-width="8"/>
<path d="M834.856 219C834.856 217.343 836.199 216 837.856 216H853.387C855.044 216 856.387 217.343 856.387 219V227.678C856.387 239.173 854.428 251.647 853.233 263.172C853.073 264.713 851.78 265.892 850.231 265.892H841.123C839.587 265.892 838.3 264.733 838.127 263.207C836.818 251.672 834.856 239.184 834.856 227.678V219ZM837 298.403C835.343 298.403 834 297.06 834 295.403V280.3C834 278.643 835.343 277.3 837 277.3H853.815C855.472 277.3 856.815 278.643 856.815 280.3V295.403C856.815 297.06 855.472 298.403 853.815 298.403H837Z" fill="#E4255B"/>
<circle cx="845" cy="255" r="83" stroke="white" stroke-width="2"/>
</g>
<defs>
<filter id="filter0_d_6162_156271" x="710" y="144" width="270" height="270" filterUnits="userSpaceOnUse" color-interpolation-filters="sRGB">
<feFlood flood-opacity="0" result="BackgroundImageFix"/>
<feColorMatrix in="SourceAlpha" type="matrix" values="0 0 0 0 0 0 0 0 0 0 0 0 0 0 0 0 0 0 127 0" result="hardAlpha"/>
<feOffset dy="24"/>
<feGaussianBlur stdDeviation="24"/>
<feComposite in2="hardAlpha" operator="out"/>
<feColorMatrix type="matrix" values="0 0 0 0 0.894118 0 0 0 0 0.145098 0 0 0 0 0.356863 0 0 0 0.5 0"/>
<feBlend mode="normal" in2="BackgroundImageFix" result="effect1_dropShadow_6162_156271"/>
<feBlend mode="normal" in="SourceGraphic" in2="effect1_dropShadow_6162_156271" result="shape"/>
</filter>
<radialGradient id="paint0_radial_6162_156271" cx="0" cy="0" r="1" gradientTransform="matrix(-361 -4.55801 5.27909 -287.155 825 291.155)" gradientUnits="userSpaceOnUse">
<stop offset="0.344819" stop-color="#D9D9D9"/>
<stop offset="1" stop-color="#D9D9D9" stop-opacity="0"/>
</radialGradient>
<linearGradient id="paint1_linear_6162_156271" x1="925.5" y1="27.7823" x2="925.5" y2="529.939" gradientUnits="userSpaceOnUse">
<stop stop-color="white" stop-opacity="0"/>
<stop offset="0.485577" stop-color="white"/>
<stop offset="1" stop-color="white" stop-opacity="0"/>
</linearGradient>
<linearGradient id="paint2_linear_6162_156271" x1="953.5" y1="23.9367" x2="953.5" y2="529.354" gradientUnits="userSpaceOnUse">
<stop stop-color="white" stop-opacity="0"/>
<stop offset="0.485577" stop-color="white"/>
<stop offset="1" stop-color="white" stop-opacity="0"/>
</linearGradient>
<linearGradient id="paint3_linear_6162_156271" x1="1157.5" y1="55.8405" x2="1157.5" y2="453.653" gradientUnits="userSpaceOnUse">
<stop stop-color="white" stop-opacity="0"/>
<stop offset="0.485577" stop-color="white"/>
<stop offset="1" stop-color="white" stop-opacity="0"/>
</linearGradient>
<linearGradient id="paint4_linear_6162_156271" x1="880" y1="109" x2="645.452" y2="176.708" gradientUnits="userSpaceOnUse">
<stop stop-color="#D9D9D9"/>
<stop offset="1" stop-color="#D9D9D9" stop-opacity="0.1"/>
</linearGradient>
<linearGradient id="paint5_linear_6162_156271" x1="852.5" y1="130.5" x2="670.633" y2="127.969" gradientUnits="userSpaceOnUse">
<stop stop-color="white"/>
<stop offset="1" stop-color="white" stop-opacity="0.1"/>
</linearGradient>
<linearGradient id="paint6_linear_6162_156271" x1="353.5" y1="40.1266" x2="353.5" y2="317.291" gradientUnits="userSpaceOnUse">
<stop stop-color="white" stop-opacity="0"/>
<stop offset="0.485577" stop-color="white"/>
<stop offset="1" stop-color="white" stop-opacity="0"/>
</linearGradient>
<linearGradient id="paint7_linear_6162_156271" x1="541.037" y1="421.39" x2="498.042" y2="547.094" gradientUnits="userSpaceOnUse">
<stop stop-color="#36353D"/>
<stop offset="1" stop-color="#36353D" stop-opacity="0"/>
</linearGradient>
<linearGradient id="paint8_linear_6162_156271" x1="559.169" y1="394.816" x2="500.638" y2="558.568" gradientUnits="userSpaceOnUse">
<stop stop-color="#8E8B9B"/>
<stop offset="1" stop-color="#8E8B9B" stop-opacity="0"/>
</linearGradient>
<linearGradient id="paint9_linear_6162_156271" x1="468.873" y1="302.693" x2="398.209" y2="521.605" gradientUnits="userSpaceOnUse">
<stop stop-color="#1E1E1E"/>
<stop offset="0.605085" stop-color="#605C72" stop-opacity="0.3"/>
<stop offset="0.789295" stop-color="#605C72" stop-opacity="0.05"/>
<stop offset="0.938169" stop-color="#605C72" stop-opacity="0"/>
</linearGradient>
<linearGradient id="paint10_linear_6162_156271" x1="445.925" y1="343.685" x2="384.73" y2="513.839" gradientUnits="userSpaceOnUse">
<stop stop-color="white"/>
<stop offset="1" stop-color="white" stop-opacity="0"/>
</linearGradient>
<linearGradient id="paint11_linear_6162_156271" x1="436.078" y1="208.75" x2="391.752" y2="555.933" gradientUnits="userSpaceOnUse">
<stop stop-color="#2B2B2B"/>
<stop offset="1" stop-color="#605C72" stop-opacity="0"/>
</linearGradient>
<linearGradient id="paint12_linear_6162_156271" x1="448.749" y1="299.582" x2="390.484" y2="494.176" gradientUnits="userSpaceOnUse">
<stop stop-color="white"/>
<stop offset="1" stop-color="white" stop-opacity="0"/>
</linearGradient>
<linearGradient id="paint13_linear_6162_156271" x1="444.317" y1="358.07" x2="383.992" y2="540.289" gradientUnits="userSpaceOnUse">
<stop stop-color="#141421"/>
<stop offset="1" stop-color="#111128" stop-opacity="0"/>
</linearGradient>
<linearGradient id="paint14_linear_6162_156271" x1="452.431" y1="290.016" x2="390.326" y2="497.028" gradientUnits="userSpaceOnUse">
<stop stop-color="#1C1C2D"/>
<stop offset="1" stop-opacity="0"/>
</linearGradient>
<linearGradient id="paint15_linear_6162_156271" x1="374.977" y1="378.492" x2="329.977" y2="536.992" gradientUnits="userSpaceOnUse">
<stop stop-color="#D9D9D9"/>
<stop offset="0.995699" stop-color="#737373" stop-opacity="0"/>
</linearGradient>
<linearGradient id="paint16_linear_6162_156271" x1="480.639" y1="565.808" x2="257.775" y2="398.305" gradientUnits="userSpaceOnUse">
<stop stop-color="#E4255B"/>
<stop offset="1" stop-color="#E4255B" stop-opacity="0"/>
</linearGradient>
<linearGradient id="paint17_linear_6162_156271" x1="306.547" y1="672.646" x2="409.353" y2="366.964" gradientUnits="userSpaceOnUse">
<stop stop-color="#E4255B"/>
<stop offset="1" stop-color="#E4255B" stop-opacity="0"/>
</linearGradient>
<linearGradient id="paint18_linear_6162_156271" x1="932" y1="365.745" x2="778.027" y2="225.108" gradientUnits="userSpaceOnUse">
<stop stop-color="#E4255B"/>
<stop offset="1" stop-color="#E4255B" stop-opacity="0.2"/>
</linearGradient>
<clipPath id="clip0_6162_156271">
<rect width="438.216" height="574.258" fill="white" transform="translate(298.367 92.707) rotate(16.6686)"/>
</clipPath>
<clipPath id="clip1_6162_156271">
<rect width="240" height="240" fill="white" transform="translate(725 148)"/>
</clipPath>
</defs>
</svg>
