<svg width="1529" height="595" viewBox="0 0 1529 595" fill="none" xmlns="http://www.w3.org/2000/svg">
<mask id="mask0_7228_282459" style="mask-type:alpha" maskUnits="userSpaceOnUse" x="671" y="96" width="707" height="643">
<ellipse cx="1024.71" cy="417.168" rx="359.515" ry="313.237" transform="rotate(-23.3759 1024.71 417.168)" fill="url(#paint0_radial_7228_282459)"/>
</mask>
<g mask="url(#mask0_7228_282459)">
<rect width="580.498" height="250.598" rx="8.11031" transform="matrix(0.956305 0.292372 -0.258819 0.965926 707.602 125.984)" fill="#D9D9D9" fill-opacity="0.07"/>
<path fill-rule="evenodd" clip-rule="evenodd" d="M1161.94 264.889C1135.63 282.989 1114.55 299.545 1097.74 308.507C1076.77 319.692 1009.51 343.39 1064.04 335.531C1117.86 327.776 1125.88 325.757 1156.45 318.073L1157.68 317.764C1189.26 309.823 1228.63 298.927 1214.38 314.836C1200.13 330.744 1131.02 372.54 1162.34 365.585C1193.66 358.629 1211.27 358.146 1220.7 350.897C1230.13 343.648 1220.5 357.235 1248.13 345.419C1248.62 345.209 1249.11 344.991 1249.59 344.768L1207.64 501.321C1201.98 495.563 1174.7 494.669 1168.55 485.874C1160.98 475.025 1178.92 456.512 1212.23 427.233C1245.54 397.954 1204.32 412.017 1196.08 422.295C1187.83 432.573 1165.41 445.449 1136.19 463.18C1106.97 480.912 1106.25 466.826 1112.92 451.266C1119.58 435.706 1127.56 430.146 1131 417.331C1134.43 404.515 1106.01 415.557 1062.35 440.605C1028 460.311 1032.92 462.645 1017.4 482.589L912.7 450.579C925.965 444.687 939.691 439.904 955.534 429.28C976.837 414.995 958.047 408.717 954.355 407.588C950.663 406.459 928.048 403.278 892.234 426.992C881.746 433.938 872.107 436.11 863.713 435.602L845.887 430.152C836.114 424.566 830.346 416.47 830.192 414.424C829.864 410.058 838.569 407.386 861.386 400.496C884.203 393.607 889.283 387.693 936.5 371.732C983.718 355.77 936.318 333.28 931.305 337.08C926.292 340.881 910.398 349.887 904.329 357.63C898.26 365.374 881.509 371.985 855.593 377.394C829.678 382.803 821.902 370.827 792.949 387.572C782.225 393.774 772.306 399.785 763.89 405.083L650.498 370.415C646.214 369.106 643.682 364.537 644.841 360.21L650.057 340.743C662.155 341.564 684.069 331.087 700.987 333.859C727.294 338.169 758.415 345.017 771.671 338.404C784.927 331.791 839.991 314.495 864.323 311.269C888.655 308.042 925.398 273.412 1000.44 261.691C1051.43 253.726 1071.19 245.32 1078.8 239.47L1161.94 264.889ZM1199.97 529.931C1198.81 534.258 1194.4 536.703 1190.12 535.394L1176.41 531.204C1189.39 522.137 1200.84 513.236 1205.79 508.238L1199.97 529.931ZM821.547 160.821C807.105 169.371 795 178.343 795.076 180.241C795.207 183.481 759.927 190.293 744.23 200.427C728.532 210.561 683.22 243.635 681.307 245.184C678.73 248.69 675.525 253.306 672.054 258.651L705.502 133.818C706.662 129.492 711.074 127.046 715.358 128.356L821.547 160.821ZM1020.29 221.583C1006.33 223.726 991.404 225.595 985.288 225.062C973.09 223.999 890.869 215.927 856.632 252.389C822.396 288.851 800.511 273.628 771.303 268.964C742.095 264.3 749.49 236.698 766.639 224.876C783.787 213.053 832.645 218.924 849.795 203.369C858.18 195.764 873.643 187.549 887.736 181.057L1020.29 221.583Z" fill="#D9D9D9" fill-opacity="0.07"/>
<rect width="580.498" height="250.598" rx="8.11031" transform="matrix(0.956305 0.292372 -0.258819 0.965926 707.602 125.984)" stroke="white" stroke-width="0.954154"/>
<rect width="455.692" height="214.661" rx="24.3309" transform="matrix(0.956305 0.292372 -0.258819 0.965926 794.492 171.678)" stroke="white" stroke-width="0.954154"/>
<path d="M1193.39 532.625L1193.87 532.495M1184.36 530.159L1195.28 527.244M1179.67 526.648L1196.9 522.062M1181.04 521.532L1198.02 517.01M1182.41 516.423L1199.64 511.828M1183.78 511.306L1200.77 506.776M1185.15 506.18L1202.38 501.592M1186.34 501.73L1203.57 497.143M1187.53 497.281L1204.76 492.693M1188.73 492.831L1205.96 488.243M1189.92 488.382L1207.15 483.794M1191.11 483.932L1208.34 479.344M1192.3 479.482L1209.53 474.895M1193.5 475.033L1210.73 470.445M1194.69 470.583L1211.92 465.995M1195.88 466.133L1213.11 461.546M1197.07 461.684L1214.3 457.096M1198.26 457.234L1215.5 452.647M1199.46 452.785L1216.69 448.197M1200.65 448.335L1217.88 443.747M1201.84 443.885L1219.07 439.298M1203.03 439.436L1220.26 434.848M1204.23 434.986L1221.46 430.398M1205.42 430.536L1222.65 425.949M1206.61 426.087L1223.84 421.499M1207.8 421.637L1225.03 417.05M1209 417.188L1226.23 412.6M1210.19 412.738L1227.42 408.15M1211.38 408.288L1228.61 403.701M1212.57 403.839L1229.8 399.251M1213.76 399.389L1230.99 394.801M1214.96 394.939L1232.19 390.352M1216.15 390.49L1233.38 385.902M1217.34 386.04L1234.57 381.453M1218.53 381.591L1235.76 377.003M1219.73 377.141L1236.96 372.553M1220.92 372.691L1238.15 368.104M1222.11 368.242L1239.34 363.654M1223.3 363.792L1240.53 359.204M1224.49 359.342L1241.73 354.755M1225.69 354.893L1242.92 350.305M1226.88 350.443L1244.11 345.856M1228.07 345.994L1245.3 341.406M1229.26 341.544L1246.49 336.956M1230.46 337.094L1247.69 332.507M1231.65 332.645L1248.88 328.057M1232.84 328.195L1250.07 323.608M1234.03 323.746L1251.26 319.158M1235.23 319.296L1252.46 314.708M1236.42 314.846L1253.65 310.259M1237.61 310.397L1254.84 305.809M1238.8 305.947L1256.03 301.359M1239.99 301.497L1254.69 297.576M1241.19 297.048L1249.44 294.846M1242.38 292.598L1242.62 292.53" stroke="white" stroke-width="1.43123" stroke-linecap="round" stroke-linejoin="round" stroke-dasharray="0.48 4.29"/>
<path d="M713.109 384.794L731.272 379.948M721.703 387.904L730.198 385.637M705.116 382.35L732.107 375.148M704.151 377.433L732.665 370.264M704.756 372.927L733.56 365.242M705.482 367.697L734.609 359.925M706.297 362.971L735.385 355.209M707.184 357.982L736.335 350.204M707.826 353.059L736.865 345.311M708.711 348.076L737.839 340.3M709.598 343.084L738.482 335.378M710.243 338.154L739.368 330.389M710.883 333.241L740.253 325.405M711.773 328.238L741.139 320.414M712.655 323.264L741.782 315.492M713.303 318.321L742.668 310.503M714.186 313.345L743.553 305.516M714.826 308.431L744.196 300.594M715.955 303.377L745.082 295.606M716.599 298.452L745.725 290.682M717.242 293.528L746.592 285.701M718.118 288.533L747.254 280.77M719.063 283.548L748.139 275.786M719.654 278.64L748.782 270.864M720.54 273.649L750.639 265.617M721.186 268.717L752.738 260.305M722.072 263.725L754.818 254.998M723.441 258.616L756.694 249.746M725.539 253.311L758.793 244.436M727.64 247.994L760.892 239.124M729.615 242.71L762.825 233.857M731.588 237.465L764.848 228.567M733.692 232.134L766.947 223.255M735.797 226.801L769.041 217.945M737.656 221.548L770.904 212.696M739.746 216.271L773.002 207.386M741.845 210.958L775.102 202.074M743.948 205.636L777.048 196.804M745.806 200.383L779.058 191.515M747.84 195.091L781.051 186.233M750.004 189.763L783.015 180.955M752.104 184.447L785.113 175.646M758.217 168.362L791.33 159.528M753.96 179.204L787.212 170.336M760.075 163.11L788.717 155.468M756.059 173.895L789.069 165.089M762.173 157.806L780.431 152.934M764.27 152.503L772.147 150.402" stroke="url(#paint1_linear_7228_282459)" stroke-width="1.43123" stroke-linecap="round" stroke-linejoin="round" stroke-dasharray="0.48 4.29"/>
<g clip-path="url(#clip0_7228_282459)">
<path fill-rule="evenodd" clip-rule="evenodd" d="M1131.84 319.953L1134.54 320.781L1133.77 323.673L1136.48 324.501L1135.7 327.393L1132.99 326.566L1131.44 332.35L1134.15 333.178L1132.6 338.962L1135.31 339.79L1134.54 342.683L1131.83 341.855L1131.05 344.747L1133.76 345.575L1134.54 342.683L1137.24 343.511L1138.02 340.618L1135.31 339.79L1136.86 334.006L1139.57 334.834L1138.79 337.726L1141.5 338.554L1142.28 335.662L1144.98 336.49L1142.66 345.166L1139.95 344.338L1139.18 347.231L1136.47 346.403L1135.69 349.295L1138.4 350.123L1137.63 353.015L1132.21 351.359L1132.99 348.467L1130.28 347.639L1129.5 350.531L1126.79 349.704L1126.02 352.596L1128.73 353.424L1127.18 359.208L1124.47 358.38L1123.69 361.273L1126.4 362.1L1125.63 364.993L1128.34 365.821L1127.56 368.713L1124.85 367.885L1123.3 373.67L1120.59 372.842L1118.27 381.518L1123.69 383.174L1125.24 377.39L1127.94 378.218L1127.17 381.11L1129.88 381.938L1130.65 379.046L1133.36 379.873L1132.58 382.766L1135.29 383.594L1134.52 386.486L1139.93 388.142L1140.71 385.249L1143.42 386.077L1144.19 383.185L1146.9 384.013L1145.35 389.798L1148.06 390.625L1148.83 387.733L1151.54 388.561L1150.77 391.453L1164.31 395.593L1165.08 392.701L1167.79 393.529L1167.01 396.421L1169.72 397.249L1170.5 394.357L1167.79 393.529L1168.56 390.636L1165.86 389.808L1166.63 386.916L1163.92 386.088L1164.7 383.196L1167.41 384.024L1168.96 378.239L1171.66 379.067L1169.34 387.744L1174.75 389.4L1173.98 392.292L1176.69 393.12L1175.91 396.012L1173.2 395.184L1172.43 398.077L1175.14 398.905L1174.36 401.797L1114.79 383.583L1131.84 319.953ZM1137.25 321.609L1139.96 322.437L1139.18 325.329L1136.48 324.501L1137.25 321.609ZM1142.67 323.265L1145.38 324.093L1143.83 329.877L1141.12 329.049L1142.67 323.265ZM1148.08 324.921L1150.79 325.749L1150.02 328.641L1152.72 329.469L1153.5 326.576L1156.21 327.404L1154.66 333.189L1151.95 332.361L1151.17 335.253L1148.47 334.425L1149.24 331.533L1146.53 330.705L1148.08 324.921ZM1158.92 328.232L1161.62 329.06L1160.07 334.845L1162.78 335.673L1164.33 329.888L1167.04 330.716L1165.49 336.501L1176.32 339.812L1175.55 342.704L1180.96 344.36L1181.74 341.468L1179.03 340.64L1180.58 334.856L1183.29 335.684L1182.51 338.576L1185.22 339.404L1181.35 353.865L1178.64 353.037L1180.19 347.253L1177.48 346.425L1176.7 349.317L1174 348.489L1173.22 351.381L1178.64 353.037L1177.86 355.929L1175.15 355.101L1174.38 357.994L1171.67 357.166L1172.45 354.273L1169.74 353.446L1168.96 356.338L1171.67 357.166L1170.9 360.058L1176.31 361.714L1177.86 355.929L1180.57 356.757L1181.35 353.865L1184.05 354.693L1183.28 357.585L1185.99 358.413L1185.21 361.305L1179.8 359.649L1179.02 362.542L1184.44 364.198L1183.66 367.09L1180.95 366.262L1180.18 369.154L1182.89 369.982L1182.11 372.874L1179.4 372.046L1178.63 374.939L1175.92 374.111L1176.7 371.218L1171.28 369.563L1172.06 366.67L1177.47 368.326L1178.25 365.434L1172.83 363.778L1172.06 366.67L1169.35 365.842L1170.12 362.95L1167.41 362.122L1166.64 365.015L1163.93 364.187L1165.48 358.402L1162.77 357.574L1163.55 354.682L1166.26 355.51L1167.81 349.725L1170.51 350.553L1172.84 341.877L1167.42 340.221L1166.65 343.113L1163.94 342.285L1164.71 339.393L1162.01 338.565L1160.46 344.349L1155.04 342.694L1155.82 339.801L1153.11 338.973L1152.33 341.866L1149.63 341.038L1151.17 335.253L1156.59 336.909L1158.92 328.232ZM1169.75 331.544L1172.46 332.372L1171.68 335.264L1168.97 334.436L1169.75 331.544ZM1175.16 333.2L1177.87 334.028L1177.1 336.92L1174.39 336.092L1175.16 333.2ZM1186 336.511L1188.7 337.339L1187.93 340.232L1185.22 339.404L1186 336.511ZM1187.93 340.232L1190.64 341.06L1189.86 343.952L1187.15 343.124L1187.93 340.232ZM1138.41 328.221L1141.12 329.049L1140.34 331.942L1137.63 331.114L1138.41 328.221ZM1143.83 329.877L1146.53 330.705L1145.76 333.597L1143.05 332.769L1143.83 329.877ZM1186.38 346.016L1189.09 346.844L1188.31 349.736L1185.6 348.908L1186.38 346.016ZM1166.65 343.113L1169.36 343.941L1168.58 346.833L1165.87 346.005L1166.65 343.113ZM1146.92 340.21L1149.63 341.038L1148.85 343.93L1146.14 343.102L1146.92 340.21ZM1152.33 341.866L1155.04 342.694L1154.27 345.586L1151.56 344.758L1152.33 341.866ZM1160.46 344.349L1163.16 345.177L1162.39 348.07L1165.1 348.897L1163.55 354.682L1160.84 353.854L1161.62 350.962L1158.91 350.134L1160.46 344.349ZM1184.83 351.801L1187.54 352.629L1186.76 355.521L1184.05 354.693L1184.83 351.801ZM1148.85 343.93L1151.56 344.758L1150.01 350.542L1147.3 349.714L1148.85 343.93ZM1154.27 345.586L1156.97 346.414L1156.2 349.306L1158.91 350.134L1158.13 353.026L1152.72 351.37L1154.27 345.586ZM1142.66 345.166L1145.37 345.994L1144.59 348.887L1147.3 349.714L1144.98 358.391L1142.27 357.563L1141.49 360.456L1138.78 359.628L1139.56 356.735L1136.85 355.907L1137.63 353.015L1140.33 353.843L1142.66 345.166ZM1158.13 353.026L1160.84 353.854L1158.52 362.531L1153.1 360.875L1151.55 366.659L1146.13 365.004L1146.91 362.111L1144.2 361.283L1144.98 358.391L1147.68 359.219L1149.23 353.435L1157.36 355.918L1158.13 353.026ZM1129.5 350.531L1132.21 351.359L1131.44 354.252L1128.73 353.424L1129.5 350.531ZM1131.44 354.252L1136.85 355.907L1136.08 358.8L1133.37 357.972L1132.59 360.864L1140.72 363.348L1139.17 369.132L1136.46 368.304L1137.23 365.412L1134.53 364.584L1133.75 367.476L1128.34 365.821L1129.11 362.928L1126.4 362.1L1127.18 359.208L1129.89 360.036L1131.44 354.252ZM1166.64 365.015L1169.35 365.842L1168.57 368.735L1165.86 367.907L1166.64 365.015ZM1141.49 360.456L1144.2 361.283L1143.43 364.176L1140.72 363.348L1141.49 360.456ZM1157.74 365.423L1160.45 366.251L1159.67 369.143L1165.09 370.799L1164.31 373.691L1158.9 372.035L1158.12 374.928L1152.71 373.272L1153.48 370.38L1150.77 369.552L1151.55 366.659L1156.97 368.315L1157.74 365.423ZM1170.51 372.455L1173.21 373.283L1172.44 376.175L1169.73 375.347L1170.51 372.455ZM1178.63 374.939L1181.34 375.767L1180.56 378.659L1177.85 377.831L1178.63 374.939ZM1142.65 367.068L1145.36 367.896L1144.58 370.788L1147.29 371.616L1146.52 374.508L1141.1 372.853L1140.33 375.745L1134.91 374.089L1134.13 376.981L1131.43 376.153L1130.65 379.046L1127.94 378.218L1129.49 372.433L1126.79 371.605L1127.56 368.713L1138.39 372.025L1139.17 369.132L1141.88 369.96L1142.65 367.068ZM1164.31 373.691L1169.73 375.347L1168.96 378.239L1163.54 376.584L1164.31 373.691ZM1172.44 376.175L1177.85 377.831L1177.08 380.723L1171.66 379.067L1172.44 376.175ZM1160.83 375.756L1163.54 376.584L1162.76 379.476L1160.06 378.648L1160.83 375.756ZM1177.08 380.723L1179.79 381.551L1179.01 384.443L1176.3 383.615L1177.08 380.723ZM1146.52 374.508L1149.22 375.336L1148.45 378.229L1153.87 379.884L1152.32 385.669L1149.61 384.841L1150.38 381.949L1144.97 380.293L1146.52 374.508ZM1154.64 376.992L1157.35 377.82L1156.57 380.712L1153.87 379.884L1154.64 376.992ZM1162.76 379.476L1165.47 380.304L1164.7 383.196L1161.99 382.368L1162.76 379.476ZM1156.57 380.712L1161.99 382.368L1161.21 385.26L1155.8 383.605L1156.57 380.712ZM1175.53 386.508L1178.24 387.336L1177.46 390.228L1174.75 389.4L1175.53 386.508ZM1134.13 376.981L1144.97 380.293L1144.19 383.185L1138.78 381.529L1138 384.422L1135.29 383.594L1136.07 380.701L1133.36 379.873L1134.13 376.981ZM1157.73 387.325L1160.44 388.153L1159.66 391.045L1156.96 390.217L1157.73 387.325ZM1163.15 388.981L1165.86 389.808L1165.08 392.701L1162.37 391.873L1163.15 388.981Z" fill="white"/>
</g>
<path d="M1082.53 419.125L1084.23 419.644L1079.41 424.604L1081.08 431.585L1079.35 431.057L1078.12 425.72L1074.44 429.555L1072.73 429.032L1077.6 424.034L1075.95 417.112L1077.67 417.639L1078.91 422.906L1082.53 419.125Z" fill="white"/>
<path d="M1092.38 422.135L1094.08 422.654L1089.25 427.614L1090.92 434.595L1089.2 434.067L1087.97 428.73L1084.28 432.565L1082.57 432.042L1087.45 427.044L1085.79 420.122L1087.52 420.649L1088.75 425.916L1092.38 422.135Z" fill="white"/>
<path d="M1102.22 425.145L1103.92 425.664L1099.1 430.624L1100.77 437.605L1099.04 437.077L1097.81 431.74L1094.13 435.575L1092.42 435.052L1097.29 430.054L1095.64 423.132L1097.36 423.659L1098.6 428.925L1102.22 425.145Z" fill="white"/>
<path d="M1111.67 428.034L1113.37 428.553L1108.55 433.513L1110.22 440.494L1108.49 439.967L1107.26 434.629L1103.58 438.464L1101.87 437.941L1106.74 432.943L1105.09 426.021L1106.82 426.549L1108.05 431.815L1111.67 428.034Z" fill="white"/>
<path d="M1083.24 441.109L1084.94 441.628L1080.12 446.588L1081.79 453.569L1080.06 453.042L1078.83 447.704L1075.15 451.54L1073.44 451.016L1078.31 446.019L1076.66 439.096L1078.39 439.624L1079.62 444.89L1083.24 441.109Z" fill="white"/>
<path d="M1093.09 444.119L1094.79 444.638L1089.96 449.598L1091.63 456.579L1089.91 456.052L1088.68 450.714L1084.99 454.549L1083.28 454.026L1088.16 449.028L1086.51 442.106L1088.23 442.634L1089.46 447.9L1093.09 444.119Z" fill="white"/>
<path d="M1107.1 448.403L1108.8 448.922L1103.97 453.882L1105.64 460.863L1103.92 460.335L1102.69 454.998L1099 458.833L1097.29 458.31L1102.17 453.312L1100.52 446.39L1102.24 446.917L1103.47 452.184L1107.1 448.403Z" fill="white"/>
<path d="M1116.55 451.292L1118.25 451.811L1113.43 456.771L1115.09 463.752L1113.37 463.225L1112.14 457.887L1108.46 461.723L1106.74 461.199L1111.62 456.202L1109.97 449.279L1111.69 449.807L1112.92 455.073L1116.55 451.292Z" fill="white"/>
<path d="M1130.85 455.663L1132.54 456.182L1127.72 461.142L1129.39 468.123L1127.66 467.595L1126.44 462.258L1122.75 466.093L1121.04 465.57L1125.92 460.572L1124.26 453.65L1125.99 454.178L1127.22 459.444L1130.85 455.663Z" fill="white"/>
<path d="M1140.3 458.552L1142 459.071L1137.17 464.031L1138.84 471.012L1137.12 470.485L1135.89 465.147L1132.2 468.983L1130.49 468.46L1135.37 463.462L1133.71 456.54L1135.44 457.067L1136.67 462.333L1140.3 458.552Z" fill="white"/>
<path d="M1096.11 456.844C1095.89 457.653 1095.1 458.121 1094.34 457.89C1093.59 457.658 1093.15 456.815 1093.36 456.006C1093.58 455.197 1094.37 454.729 1095.13 454.961C1095.88 455.192 1096.32 456.036 1096.11 456.844Z" fill="white"/>
<path d="M1119.85 464.105C1119.64 464.913 1118.85 465.381 1118.09 465.15C1117.33 464.918 1116.89 464.075 1117.11 463.266C1117.33 462.458 1118.12 461.99 1118.87 462.221C1119.63 462.453 1120.07 463.296 1119.85 464.105Z" fill="white"/>
<path d="M1051.18 417.837L1052.81 411.75L1053.54 411.971L1052.1 417.337L1055.08 418.248L1054.88 418.968L1051.18 417.837Z" fill="white"/>
<path d="M1057.68 419.97C1055.98 419.452 1055.28 417.93 1055.81 415.967C1056.34 413.987 1057.69 413.091 1059.38 413.609C1061.08 414.13 1061.78 415.652 1061.25 417.632C1060.73 419.595 1059.38 420.491 1057.68 419.97ZM1056.56 416.198C1056.16 417.715 1056.64 418.876 1057.87 419.25C1059.1 419.627 1060.09 418.919 1060.5 417.401C1060.91 415.866 1060.42 414.706 1059.19 414.329C1057.96 413.955 1056.97 414.663 1056.56 416.198Z" fill="white"/>
<path d="M1066.52 415.939L1066.32 416.659L1064.47 416.092L1063.03 421.459L1062.31 421.239L1063.75 415.872L1061.89 415.305L1062.09 414.585L1066.52 415.939Z" fill="white"/>
<path d="M1067.76 414.605C1068.49 414.829 1068.92 415.616 1068.72 416.364L1067.03 422.681C1066.83 423.429 1066.07 423.854 1065.34 423.63L1049.88 418.904C1049.15 418.681 1048.72 417.893 1048.92 417.146L1050.61 410.828C1050.81 410.081 1051.57 409.656 1052.3 409.88L1067.76 414.605ZM1049.36 417.281C1049.23 417.779 1049.52 418.304 1050 418.453L1065.46 423.179C1065.95 423.328 1066.45 423.045 1066.59 422.546L1068.28 416.229C1068.41 415.731 1068.13 415.206 1067.64 415.056L1052.18 410.331C1051.69 410.182 1051.19 410.465 1051.06 410.963L1049.36 417.281Z" fill="white"/>
<path d="M1062.94 439.142L1062.39 438.975L1063.57 434.598L1064.11 434.765L1062.94 439.142ZM1064.03 440.673C1064.48 441.318 1064.23 442.253 1063.53 442.542L1061.85 443.228L1061.3 443.061C1061.34 442.9 1061.45 442.766 1061.58 442.69L1061.64 442.661L1063.32 441.975C1063.68 441.831 1063.8 441.363 1063.57 441.04L1062.49 439.509L1062.45 439.45C1062.38 439.328 1062.36 439.184 1062.38 439.044L1062.39 438.975L1062.94 439.142L1064.03 440.673ZM1060.67 447.605L1060.13 447.438L1061.3 443.061L1061.85 443.228L1060.67 447.605ZM1066.67 449.439L1067.84 445.061L1066.76 443.53C1066.31 442.886 1066.56 441.953 1067.26 441.663L1068.94 440.976L1070.11 436.599L1063.57 434.598L1063.59 434.539C1063.69 434.272 1063.95 434.116 1064.21 434.167L1064.27 434.181L1070.27 436.015C1070.57 436.107 1070.74 436.443 1070.66 436.765L1069.48 441.143C1069.43 441.326 1069.31 441.474 1069.14 441.543L1067.46 442.23C1067.13 442.366 1067 442.784 1067.17 443.101L1067.21 443.164L1068.3 444.695C1068.39 444.828 1068.43 444.996 1068.4 445.159L1068.39 445.228L1067.22 449.605C1067.13 449.928 1066.82 450.114 1066.51 450.022L1060.52 448.188C1060.23 448.102 1060.06 447.802 1060.11 447.499L1060.13 447.438L1066.67 449.439Z" fill="white"/>
<path d="M1067.61 445.937L1066.67 449.439L1060.67 447.605L1061.61 444.103L1067.61 445.937Z" fill="white"/>
<g opacity="0.5">
<path d="M822.702 230.498C823.13 228.9 824.689 227.976 826.185 228.433L1005.33 283.203C1006.82 283.661 1007.69 285.326 1007.26 286.923C1006.83 288.521 1005.27 289.445 1003.78 288.988L824.635 234.218C823.139 233.761 822.274 232.095 822.702 230.498Z" fill="#D9D9D9"/>
<path d="M819.423 242.734C819.818 241.26 821.257 240.407 822.638 240.829L970.536 286.046C971.917 286.468 972.715 288.005 972.32 289.48C971.925 290.954 970.486 291.807 969.105 291.385L821.207 246.168C819.827 245.746 819.028 244.209 819.423 242.734Z" fill="#D9D9D9"/>
<path d="M816.144 254.971C816.572 253.373 818.131 252.449 819.627 252.906L1043.77 321.432C1045.26 321.89 1046.13 323.555 1045.7 325.153C1045.27 326.75 1043.71 327.674 1042.22 327.217L818.077 258.691C816.582 258.234 815.716 256.568 816.144 254.971Z" fill="#D9D9D9"/>
<path d="M812.865 267.207C813.26 265.733 814.7 264.879 816.08 265.302L993.558 319.562C994.939 319.984 995.738 321.521 995.342 322.996C994.947 324.47 993.508 325.324 992.127 324.901L814.65 270.641C813.269 270.219 812.47 268.682 812.865 267.207Z" fill="#D9D9D9"/>
<path d="M809.587 279.444C810.015 277.846 811.574 276.922 813.07 277.379L986.381 330.366C987.877 330.823 988.742 332.489 988.314 334.086C987.886 335.683 986.327 336.608 984.831 336.15L811.52 283.164C810.024 282.706 809.159 281.041 809.587 279.444Z" fill="#D9D9D9"/>
<path d="M806.308 291.68C806.703 290.206 808.142 289.352 809.523 289.774L993.25 345.945C994.63 346.367 995.429 347.905 995.034 349.379C994.639 350.854 993.2 351.707 991.819 351.285L808.092 295.114C806.712 294.692 805.913 293.154 806.308 291.68Z" fill="#D9D9D9"/>
<path d="M803.029 303.916C803.457 302.319 805.016 301.395 806.512 301.852L1044.4 374.581C1045.89 375.039 1046.76 376.704 1046.33 378.302C1045.9 379.899 1044.34 380.823 1042.85 380.366L804.962 307.637C803.467 307.179 802.601 305.514 803.029 303.916Z" fill="#D9D9D9"/>
<path d="M791.226 347.968C791.654 346.37 793.213 345.446 794.709 345.903L892.196 375.708C893.692 376.166 894.557 377.831 894.129 379.429C893.701 381.026 892.142 381.95 890.646 381.493L793.159 351.688C791.663 351.231 790.798 349.565 791.226 347.968Z" fill="#D9D9D9"/>
<path d="M788.245 359.092C788.673 357.494 790.232 356.57 791.728 357.027L855.053 376.388C856.549 376.845 857.414 378.511 856.986 380.108C856.558 381.705 854.999 382.63 853.503 382.172L790.178 362.812C788.682 362.355 787.817 360.689 788.245 359.092Z" fill="#D9D9D9"/>
</g>
</g>
<mask id="mask1_7228_282459" style="mask-type:alpha" maskUnits="userSpaceOnUse" x="1151" y="82" width="317" height="291">
<path d="M1157.61 216.331V82.5977L1289.89 84.5288L1404.31 86.9428L1467.08 216.331L1382.59 349.099L1237.27 372.756L1260.92 276.68L1167.75 266.542C1123.13 221.927 1189.38 261.724 1157.61 216.331Z" fill="url(#paint2_linear_7228_282459)"/>
</mask>
<g mask="url(#mask1_7228_282459)">
<mask id="path-15-outside-1_7228_282459" maskUnits="userSpaceOnUse" x="1201.2" y="200.914" width="176" height="53" fill="black">
<rect fill="white" x="1201.2" y="200.914" width="176" height="53"/>
<path d="M1225.41 251.97C1211.16 251.97 1202.64 242.598 1202.64 227.55C1202.64 212.37 1211.16 202.998 1225.41 202.998C1239.67 202.998 1248.25 212.37 1248.25 227.55C1248.25 242.598 1239.67 251.97 1225.41 251.97ZM1213 227.55C1213 237.582 1217.62 243.522 1225.41 243.522C1233.33 243.522 1237.89 237.582 1237.89 227.55C1237.89 217.452 1233.33 211.446 1225.41 211.446C1217.62 211.446 1213 217.452 1213 227.55ZM1272.15 204.054C1283.37 204.054 1290.17 209.862 1290.17 219.366C1290.17 228.87 1283.37 234.744 1272.15 234.744H1263.44V250.914H1253.4V204.054H1272.15ZM1263.44 226.296H1271.55C1276.83 226.296 1279.87 223.92 1279.87 219.366C1279.87 214.812 1276.83 212.502 1271.55 212.502H1263.44V226.296ZM1296.19 204.054H1328.79V212.502H1306.22V223.26H1328V231.576H1306.22V242.466H1329.32V250.914H1296.19V204.054ZM1335.36 204.054H1346.38L1364.93 236.13V204.054H1374.96V250.914H1363.54L1345.39 219.894V250.914H1335.36V204.054Z"/>
</mask>
<path d="M1225.41 251.97V250.687C1218.58 250.687 1213.25 248.449 1209.62 244.531C1205.98 240.602 1203.93 234.838 1203.93 227.55H1202.64H1201.36C1201.36 235.31 1203.56 241.756 1207.74 246.275C1211.93 250.805 1217.99 253.253 1225.41 253.253V251.97ZM1202.64 227.55H1203.93C1203.93 220.193 1205.99 214.397 1209.62 210.451C1213.25 206.519 1218.58 204.281 1225.41 204.281V202.998V201.715C1217.99 201.715 1211.93 204.163 1207.74 208.712C1203.56 213.247 1201.36 219.727 1201.36 227.55H1202.64ZM1225.41 202.998V204.281C1232.25 204.281 1237.59 206.519 1241.24 210.453C1244.89 214.399 1246.97 220.196 1246.97 227.55H1248.25H1249.53C1249.53 219.724 1247.32 213.245 1243.12 208.71C1238.91 204.163 1232.83 201.715 1225.41 201.715V202.998ZM1248.25 227.55H1246.97C1246.97 234.836 1244.89 240.599 1241.24 244.53C1237.59 248.448 1232.25 250.687 1225.41 250.687V251.97V253.253C1232.83 253.253 1238.91 250.806 1243.12 246.277C1247.32 241.759 1249.53 235.313 1249.53 227.55H1248.25ZM1213 227.55H1211.72C1211.72 232.743 1212.91 237.048 1215.27 240.085C1217.67 243.164 1221.16 244.805 1225.41 244.805V243.522V242.239C1221.88 242.239 1219.17 240.91 1217.3 238.511C1215.4 236.07 1214.29 232.389 1214.29 227.55H1213ZM1225.41 243.522V244.805C1229.73 244.805 1233.24 243.168 1235.63 240.085C1237.99 237.046 1239.17 232.739 1239.17 227.55H1237.89H1236.6C1236.6 232.393 1235.5 236.072 1233.61 238.511C1231.75 240.906 1229.02 242.239 1225.41 242.239V243.522ZM1237.89 227.55H1239.17C1239.17 222.33 1238 217.992 1235.64 214.928C1233.24 211.82 1229.73 210.163 1225.41 210.163V211.446V212.729C1229.01 212.729 1231.74 214.075 1233.6 216.494C1235.5 218.958 1236.6 222.672 1236.6 227.55H1237.89ZM1225.41 211.446V210.163C1221.15 210.163 1217.66 211.825 1215.27 214.928C1212.91 217.989 1211.72 222.326 1211.72 227.55H1213H1214.29C1214.29 222.676 1215.4 218.961 1217.3 216.494C1219.17 214.07 1221.88 212.729 1225.41 212.729V211.446ZM1263.44 234.744V233.461H1262.15V234.744H1263.44ZM1263.44 250.914V252.197H1264.72V250.914H1263.44ZM1253.4 250.914H1252.12V252.197H1253.4V250.914ZM1253.4 204.054V202.771H1252.12V204.054H1253.4ZM1263.44 226.296H1262.15V227.579H1263.44V226.296ZM1263.44 212.502V211.219H1262.15V212.502H1263.44ZM1272.15 204.054V205.337C1277.55 205.337 1281.73 206.735 1284.53 209.123C1287.31 211.49 1288.88 214.942 1288.88 219.366H1290.17H1291.45C1291.45 214.286 1289.62 210.083 1286.2 207.169C1282.8 204.277 1277.97 202.771 1272.15 202.771V204.054ZM1290.17 219.366H1288.88C1288.88 223.791 1287.31 227.261 1284.53 229.645C1281.72 232.048 1277.55 233.461 1272.15 233.461V234.744V236.027C1277.97 236.027 1282.8 234.503 1286.2 231.594C1289.62 228.664 1291.45 224.445 1291.45 219.366H1290.17ZM1272.15 234.744V233.461H1263.44V234.744V236.027H1272.15V234.744ZM1263.44 234.744H1262.15V250.914H1263.44H1264.72V234.744H1263.44ZM1263.44 250.914V249.631H1253.4V250.914V252.197H1263.44V250.914ZM1253.4 250.914H1254.69V204.054H1253.4H1252.12V250.914H1253.4ZM1253.4 204.054V205.337H1272.15V204.054V202.771H1253.4V204.054ZM1263.44 226.296V227.579H1271.55V226.296V225.013H1263.44V226.296ZM1271.55 226.296V227.579C1274.36 227.579 1276.77 226.95 1278.51 225.531C1280.28 224.078 1281.15 221.949 1281.15 219.366H1279.87H1278.59C1278.59 221.337 1277.94 222.673 1276.88 223.547C1275.77 224.454 1274.03 225.013 1271.55 225.013V226.296ZM1279.87 219.366H1281.15C1281.15 216.782 1280.28 214.665 1278.5 213.228C1276.77 211.828 1274.35 211.219 1271.55 211.219V212.502V213.785C1274.03 213.785 1275.78 214.331 1276.89 215.224C1277.95 216.081 1278.59 217.396 1278.59 219.366H1279.87ZM1271.55 212.502V211.219H1263.44V212.502V213.785H1271.55V212.502ZM1263.44 212.502H1262.15V226.296H1263.44H1264.72V212.502H1263.44ZM1296.19 204.054V202.771H1294.9V204.054H1296.19ZM1328.79 204.054H1330.07V202.771H1328.79V204.054ZM1328.79 212.502V213.785H1330.07V212.502H1328.79ZM1306.22 212.502V211.219H1304.94V212.502H1306.22ZM1306.22 223.26H1304.94V224.543H1306.22V223.26ZM1328 223.26H1329.28V221.977H1328V223.26ZM1328 231.576V232.859H1329.28V231.576H1328ZM1306.22 231.576V230.293H1304.94V231.576H1306.22ZM1306.22 242.466H1304.94V243.749H1306.22V242.466ZM1329.32 242.466H1330.6V241.183H1329.32V242.466ZM1329.32 250.914V252.197H1330.6V250.914H1329.32ZM1296.19 250.914H1294.9V252.197H1296.19V250.914ZM1296.19 204.054V205.337H1328.79V204.054V202.771H1296.19V204.054ZM1328.79 204.054H1327.51V212.502H1328.79H1330.07V204.054H1328.79ZM1328.79 212.502V211.219H1306.22V212.502V213.785H1328.79V212.502ZM1306.22 212.502H1304.94V223.26H1306.22H1307.5V212.502H1306.22ZM1306.22 223.26V224.543H1328V223.26V221.977H1306.22V223.26ZM1328 223.26H1326.72V231.576H1328H1329.28V223.26H1328ZM1328 231.576V230.293H1306.22V231.576V232.859H1328V231.576ZM1306.22 231.576H1304.94V242.466H1306.22H1307.5V231.576H1306.22ZM1306.22 242.466V243.749H1329.32V242.466V241.183H1306.22V242.466ZM1329.32 242.466H1328.04V250.914H1329.32H1330.6V242.466H1329.32ZM1329.32 250.914V249.631H1296.19V250.914V252.197H1329.32V250.914ZM1296.19 250.914H1297.47V204.054H1296.19H1294.9V250.914H1296.19ZM1335.36 204.054V202.771H1334.08V204.054H1335.36ZM1346.38 204.054L1347.49 203.412L1347.12 202.771H1346.38V204.054ZM1364.93 236.13L1363.82 236.772L1366.21 240.912V236.13H1364.93ZM1364.93 204.054V202.771H1363.64V204.054H1364.93ZM1374.96 204.054H1376.24V202.771H1374.96V204.054ZM1374.96 250.914V252.197H1376.24V250.914H1374.96ZM1363.54 250.914L1362.43 251.562L1362.81 252.197H1363.54V250.914ZM1345.39 219.894L1346.5 219.246L1344.11 215.161V219.894H1345.39ZM1345.39 250.914V252.197H1346.67V250.914H1345.39ZM1335.36 250.914H1334.08V252.197H1335.36V250.914ZM1335.36 204.054V205.337H1346.38V204.054V202.771H1335.36V204.054ZM1346.38 204.054L1345.27 204.696L1363.82 236.772L1364.93 236.13L1366.04 235.488L1347.49 203.412L1346.38 204.054ZM1364.93 236.13H1366.21V204.054H1364.93H1363.64V236.13H1364.93ZM1364.93 204.054V205.337H1374.96V204.054V202.771H1364.93V204.054ZM1374.96 204.054H1373.68V250.914H1374.96H1376.24V204.054H1374.96ZM1374.96 250.914V249.631H1363.54V250.914V252.197H1374.96V250.914ZM1363.54 250.914L1364.65 250.266L1346.5 219.246L1345.39 219.894L1344.28 220.542L1362.43 251.562L1363.54 250.914ZM1345.39 219.894H1344.11V250.914H1345.39H1346.67V219.894H1345.39ZM1345.39 250.914V249.631H1335.36V250.914V252.197H1345.39V250.914ZM1335.36 250.914H1336.64V204.054H1335.36H1334.08V250.914H1335.36Z" fill="white" mask="url(#path-15-outside-1_7228_282459)"/>
<circle cx="1291.82" cy="225.503" r="115.87" stroke="white"/>
<circle cx="1291.82" cy="225.504" r="121.664" stroke="white" stroke-width="2"/>
</g>
<mask id="mask2_7228_282459" style="mask-type:alpha" maskUnits="userSpaceOnUse" x="-116" y="132" width="999" height="464">
<rect width="998.913" height="462.263" transform="matrix(-1 0 0 1 882.914 132.807)" fill="url(#paint3_linear_7228_282459)"/>
</mask>
<g mask="url(#mask2_7228_282459)">
<path d="M813.12 308.5C813.752 327.454 817.54 368.521 808.069 404.534C798.597 440.547 768.287 444.969 747.45 444.969C732.302 444.969 624.662 444.772 567.508 444.95C563.784 444.961 560.15 443.866 557.052 441.799C553.975 439.747 550.359 438.651 546.659 438.651H363.53" stroke="url(#paint4_linear_7228_282459)"/>
<path d="M805.54 320.505C809.33 440.547 762.603 432.965 746.185 432.965H-58.2793C-71.5397 432.965 -78.4856 426.016 -75.9598 410.853C-73.434 395.689 -54.4906 341.354 -43.756 315.45C-33.0214 289.547 -29.2327 278.174 -13.4466 251.638C2.3396 225.103 24.4402 221.943 47.8038 221.943C71.1673 221.943 738.608 221.311 751.868 221.943C765.128 222.575 802.237 215.88 805.54 320.505Z" stroke="white"/>
<path d="M614.849 501.199C595.905 501.199 565.596 484.772 542.864 484.772C348.593 484.772 154.317 482.245 -39.9617 482.245C-56.3793 482.245 -61.4309 477.191 -69.6397 472.136C-77.8485 467.082 -89.8459 432.333 -87.3202 410.852C-84.7944 389.37 -42.4875 285.755 -23.5441 250.374C-4.60071 214.993 32.0233 214.361 38.9691 214.361C45.915 214.361 115.374 214.993 175.993 214.361C236.612 213.729 719.035 216.888 745.556 216.888C771.476 216.888 789.126 224.47 797.336 240.265C802.433 250.07 812.489 286.387 815.015 327.454C817.541 368.521 811.607 434.228 804.914 467.714C801.505 484.772 788.496 501.199 762.607 501.199H614.849Z" stroke="white" stroke-width="2"/>
<path d="M737.438 236.435C737.389 232.605 734.27 229.525 730.439 229.525H57.0126C54.1285 229.525 51.5395 231.294 50.4913 233.981L-20.9842 417.204C-22.5189 421.138 -19.6173 425.384 -15.3945 425.384H733.797C737.141 425.384 739.84 422.65 739.797 419.307L737.438 236.435Z" fill="#1C192D"/>
<path d="M737.438 236.435C737.389 232.605 734.27 229.525 730.439 229.525H57.0127C54.1285 229.525 51.5395 231.294 50.4913 233.981L-20.9842 417.204C-22.5189 421.138 -19.6173 425.384 -15.3945 425.384H733.797C737.141 425.384 739.84 422.65 739.797 419.307L737.438 236.435Z" stroke="white" stroke-width="2"/>
<path d="M743.659 454.447H714.087C712.982 454.447 712.087 455.342 712.087 456.447V470.137C712.087 471.242 712.982 472.137 714.087 472.137H743.659M743.659 454.447V472.137M743.659 454.447C756.288 454.447 784.071 456.342 795.438 440.547M743.659 472.137C754.393 472.558 785.334 473.401 791.649 459.501" stroke="url(#paint5_linear_7228_282459)"/>
<rect width="85.8767" height="16.4269" rx="6.5" transform="matrix(-1 0 0 1 667.891 458.236)" stroke="white"/>
<rect width="85.8767" height="16.4269" rx="6.5" transform="matrix(-1 0 0 1 516.969 453.182)" stroke="white" stroke-width="2"/>
<path d="M430.462 461.397V457.606C430.462 453.07 434.137 449.393 438.671 449.393H509.393C513.926 449.393 517.602 453.07 517.602 457.606V460.765" stroke="white"/>
<ellipse cx="10.1031" cy="5.68622" rx="10.1031" ry="5.68622" transform="matrix(-1 0 0 1 777.758 382.42)" stroke="white" stroke-width="2"/>
<ellipse cx="4.42013" cy="2.52721" rx="4.42013" ry="2.52721" transform="matrix(-1 0 0 1 770.18 282.596)" stroke="white" stroke-width="2"/>
<ellipse cx="4.42013" cy="2.52721" rx="4.42013" ry="2.52721" transform="matrix(-1 0 0 1 770.18 272.486)" stroke="white" stroke-width="2"/>
<path d="M790.446 304.677C790.412 303.639 789.561 302.814 788.522 302.814C787.459 302.814 786.597 303.676 786.597 304.739V339.501C786.597 340.874 787.709 341.986 789.082 341.986C790.486 341.986 791.611 340.824 791.566 339.421L790.446 304.677Z" fill="white"/>
<rect width="10.1031" height="41.6989" rx="5.05157" transform="matrix(-1 0 0 1 771.445 300.287)" stroke="white" stroke-width="2"/>
<rect width="105" height="16" rx="6.5" transform="matrix(-1 0 0 1 417 452.953)" stroke="white" stroke-width="2"/>
<path d="M369 455.953H361L361.993 457.609C363.229 459.667 363.229 462.239 361.993 464.297L361 465.953H369L368.007 464.297C366.771 462.239 366.771 459.667 368.007 457.609L369 455.953Z" stroke="white" stroke-width="2"/>
<path d="M311.996 461.204V457.44C311.996 452.936 315.645 449.285 320.147 449.285L409.365 449.285C413.867 449.285 417.516 452.936 417.516 457.44V460.577" stroke="white"/>
</g>
<mask id="mask3_7228_282459" style="mask-type:alpha" maskUnits="userSpaceOnUse" x="814" y="285" width="403" height="163">
<path d="M836.493 439.244L1185.33 447.79C1193.74 431.863 1210.81 398.534 1211.74 392.629C1212.91 385.249 1219.9 330.865 1214.46 309.888C1209.02 288.912 1179.89 284.25 1162.41 285.416C1144.93 286.581 813.571 318.355 814.738 324.959C815.904 331.563 815.515 374.76 814.738 381.753C814.116 387.346 828.982 422.411 836.493 439.244Z" fill="#D9D9D9"/>
</mask>
<g mask="url(#mask3_7228_282459)">
<path d="M1177.69 396.812L1188.21 328.852L1124.53 324.025L683.018 352.96L1177.69 396.812Z" fill="url(#paint6_linear_7228_282459)" stroke="url(#paint7_linear_7228_282459)" stroke-width="1.84737"/>
</g>
<mask id="mask4_7228_282459" style="mask-type:alpha" maskUnits="userSpaceOnUse" x="492" y="248" width="159" height="150">
<rect x="650.742" y="252.537" width="144.802" height="154.792" transform="rotate(91.399 650.742 252.537)" fill="url(#paint8_linear_7228_282459)"/>
</mask>
<g mask="url(#mask4_7228_282459)">
<g clip-path="url(#clip1_7228_282459)">
<path fill-rule="evenodd" clip-rule="evenodd" d="M639.523 261.045V267.571H632.997V274.097H626.471V267.571H613.419V274.097H600.367V280.623H593.841V274.097H587.315V287.149H580.789V280.623H574.263V300.201H587.315V293.675H593.841V287.149H600.367V280.623H613.419V287.149H606.893V293.675H613.419V300.201H600.367V306.727H593.841V313.253H600.367V306.727H613.419V313.253H619.945V319.779H626.471V313.253H619.945V306.727H626.471V300.201H639.523V306.727H632.997V313.253H639.523V319.779H632.997V326.306H639.523V332.832H626.471V326.306H613.419V339.358H606.893V345.884H600.367V352.41H580.789V345.884H567.737V339.358H574.263V332.832H593.841V339.358H587.315V345.884H593.841V339.358H600.367V332.832H606.893V326.306H600.367V319.779H587.315V306.727H580.789V313.253H574.263V332.832H567.737V326.306H561.211V313.253H567.737V306.727H561.211V300.201L548.159 300.201V293.675L554.685 293.675V287.149H561.211V280.623H567.737V267.571H561.211V280.623H554.685V267.571H548.159V274.097H522.054V267.571H515.528V280.623H535.106V287.149H548.159V293.675H541.632V300.201H548.159V306.727H541.632V313.253H548.159V319.779H541.632V326.306L535.106 326.306V332.832H522.054V326.306H528.58V319.779H535.106V306.727H528.58V313.253H522.054V326.306H515.528V332.832H522.054V345.884H528.58V352.41H535.106V345.884L548.159 345.884V352.41H561.211V345.884H567.737V352.41H580.789V358.936H567.737V371.988H561.211V378.514H554.685V371.988H548.159V378.514H554.685V391.566H548.159V385.04H541.632V391.566H535.106V378.514L541.632 378.514V358.936L535.106 358.936V365.462H528.58V358.936H522.054V352.41H515.528V358.936H522.054V365.462H515.528V378.514H522.054V385.04H515.528V391.566H509.002V261.045L639.523 261.045ZM639.523 274.097V280.623H632.997V274.097H639.523ZM639.523 287.149V293.675H626.471V287.149H639.523ZM639.523 339.358V345.884H632.997V339.358H639.523ZM639.523 352.41V358.936H632.997V365.462H619.945V358.936H626.471V352.41H613.419V365.462H600.367V358.936H606.893V345.884H632.997V352.41H639.523ZM639.523 365.462V371.988H632.997V365.462H639.523ZM639.523 378.514V385.04H632.997V391.566H626.471V378.514H619.945V391.566H613.419V385.04H606.893V391.566H600.367V385.04H593.841V391.566H587.315V385.04H580.789V378.514H587.315V371.988H593.841V378.514H600.367V371.988H613.419V365.462H619.945V371.988H632.997V378.514H639.523ZM626.471 280.623V287.149H619.945V280.623H626.471ZM626.471 293.675V300.201H619.945V293.675H626.471ZM626.471 332.832V339.358H619.945V332.832H626.471ZM600.367 326.306V332.832H593.841V326.306H600.367ZM587.315 319.779V326.306H580.789V319.779H587.315ZM587.315 358.936V365.462H580.789V358.936H587.315ZM580.789 267.571H574.263V274.097H580.789V267.571ZM580.789 365.462V371.988H574.263V365.462H580.789ZM580.789 385.04V391.566H574.263V385.04H580.789ZM567.737 332.832V339.358H561.211V332.832H567.737ZM567.737 385.04V391.566H561.211V385.04H567.737ZM561.211 306.727V313.253H554.685V306.727H561.211ZM561.211 326.306V332.832H554.685V326.306H561.211ZM561.211 339.358V345.884H554.685V339.358H561.211ZM554.685 332.832V339.358H548.159V332.832H554.685ZM548.159 326.306V332.832H541.632V326.306H548.159ZM541.632 332.832V339.358L535.106 339.358V332.832L541.632 332.832ZM535.106 371.988V378.514H522.054V365.462H528.58V371.988H535.106ZM528.58 287.149H522.054V293.675H515.528V306.727H522.054V300.201H528.58V287.149ZM528.58 385.04V391.566H522.054V385.04H528.58Z" fill="white"/>
</g>
</g>
<path d="M601.406 236.029L600.446 420.435" stroke="url(#paint9_linear_7228_282459)" stroke-width="2.31536"/>
<path d="M639.636 253.35C645.058 253.429 649.435 257.805 649.515 263.228L651.398 390.845C651.481 396.495 646.883 401.097 641.233 401.019L601.163 400.461L601.163 252.791L639.636 253.35Z" fill="url(#paint10_linear_7228_282459)" stroke="url(#paint11_linear_7228_282459)" stroke-width="2.31536"/>
<defs>
<radialGradient id="paint0_radial_7228_282459" cx="0" cy="0" r="1" gradientTransform="matrix(56.2273 235.782 -254.707 70.0187 1092.48 354.367)" gradientUnits="userSpaceOnUse">
<stop offset="0.392236" stop-color="#D9D9D9"/>
<stop offset="1" stop-color="#737373" stop-opacity="0"/>
</radialGradient>
<linearGradient id="paint1_linear_7228_282459" x1="725.094" y1="262.478" x2="748.644" y2="268.789" gradientUnits="userSpaceOnUse">
<stop stop-color="white"/>
<stop offset="1" stop-color="white" stop-opacity="0.3"/>
</linearGradient>
<linearGradient id="paint2_linear_7228_282459" x1="1330.45" y1="97.0814" x2="1174.99" y2="340.409" gradientUnits="userSpaceOnUse">
<stop stop-color="#D9D9D9"/>
<stop offset="1" stop-color="#737373" stop-opacity="0"/>
</linearGradient>
<linearGradient id="paint3_linear_7228_282459" x1="141.413" y1="133.693" x2="499.913" y2="256.693" gradientUnits="userSpaceOnUse">
<stop stop-color="#D9D9D9"/>
<stop offset="1" stop-color="#D9D9D9" stop-opacity="0"/>
</linearGradient>
<linearGradient id="paint4_linear_7228_282459" x1="508.131" y1="376.735" x2="363.53" y2="376.735" gradientUnits="userSpaceOnUse">
<stop stop-color="white"/>
<stop offset="1" stop-color="#999999" stop-opacity="0"/>
</linearGradient>
<linearGradient id="paint5_linear_7228_282459" x1="734.819" y1="458.237" x2="790.386" y2="455.082" gradientUnits="userSpaceOnUse">
<stop stop-color="white"/>
<stop offset="1" stop-color="#999999" stop-opacity="0"/>
</linearGradient>
<linearGradient id="paint6_linear_7228_282459" x1="826.78" y1="329.697" x2="1215.07" y2="411.13" gradientUnits="userSpaceOnUse">
<stop stop-color="#1DA593"/>
<stop offset="1" stop-color="#1DA593" stop-opacity="0"/>
</linearGradient>
<linearGradient id="paint7_linear_7228_282459" x1="742.226" y1="390.47" x2="1170.99" y2="501.921" gradientUnits="userSpaceOnUse">
<stop stop-color="#4FE2CE"/>
<stop offset="1" stop-color="#4FE2CE" stop-opacity="0"/>
</linearGradient>
<linearGradient id="paint8_linear_7228_282459" x1="717.386" y1="279.339" x2="684.169" y2="402.381" gradientUnits="userSpaceOnUse">
<stop stop-color="#D9D9D9"/>
<stop offset="1" stop-color="#737373" stop-opacity="0.1"/>
</linearGradient>
<linearGradient id="paint9_linear_7228_282459" x1="605.626" y1="242.267" x2="547.32" y2="396.529" gradientUnits="userSpaceOnUse">
<stop stop-color="#4FE2CE" stop-opacity="0.194709"/>
<stop offset="0.191376" stop-color="#4FE2CE"/>
<stop offset="0.85185" stop-color="#4FE2CE"/>
<stop offset="1" stop-color="#4FE2CE" stop-opacity="0"/>
</linearGradient>
<linearGradient id="paint10_linear_7228_282459" x1="593.203" y1="307.808" x2="655.134" y2="309.637" gradientUnits="userSpaceOnUse">
<stop stop-color="#1DA593"/>
<stop offset="1" stop-color="#1DA593" stop-opacity="0"/>
</linearGradient>
<linearGradient id="paint11_linear_7228_282459" x1="546" y1="311.812" x2="645.431" y2="314.101" gradientUnits="userSpaceOnUse">
<stop stop-color="#4FE2CE"/>
<stop offset="1" stop-color="#4FE2CE" stop-opacity="0"/>
</linearGradient>
<clipPath id="clip0_7228_282459">
<rect width="62.298" height="65.8742" fill="white" transform="matrix(0.956305 0.292372 -0.258819 0.965926 1131.84 319.953)"/>
</clipPath>
<clipPath id="clip1_7228_282459">
<rect width="130.521" height="130.521" fill="white" transform="matrix(0 1 -1 0 639.523 261.045)"/>
</clipPath>
</defs>
</svg>
