<svg width="654" height="500" viewBox="0 0 654 500" fill="none" xmlns="http://www.w3.org/2000/svg">
<path d="M198.963 660.102V106.775C198.963 102.491 198.887 94.4682 199.588 92.2873L199.599 92.251C200.377 89.8289 203.62 79.7231 215.71 74.9958C227.86 70.2445 249.825 63.6239 275.373 61.1314C325.132 58.4478 353.537 58.0144 406.002 61.1314C431.55 63.6239 453.515 70.2445 465.665 74.9958C477.755 79.7231 480.998 89.8289 481.776 92.251L481.787 92.2873C482.488 94.4682 482.412 102.491 482.412 106.775V660.102" stroke="url(#paint0_linear_6557_289953)" stroke-width="1.80497"/>
<path d="M461.532 160.678L461.536 475.047L461.536 538.295C461.536 541.929 458.629 544.897 454.995 544.972L226.817 549.695C223.075 549.773 220 546.761 220 543.018V509.879L220 160.68C220 156.992 222.99 154.002 226.678 154.002L454.853 154C458.542 154 461.532 156.99 461.532 160.678Z" fill="url(#paint1_linear_6557_289953)" stroke="url(#paint2_linear_6557_289953)" stroke-width="1.64358"/>
<rect width="140.328" height="137.899" transform="matrix(1 0 0.0174524 0.999848 271.324 214.789)" stroke="white" stroke-width="2"/>
<path d="M293.929 215.43L272.511 252.994" stroke="white" stroke-linejoin="round"/>
<path d="M280.248 215.855L297.665 260.545M297.665 260.545L333.235 351.812M297.665 260.545L311.963 215.855M297.665 260.545L274.473 333.03M317.394 215.855L322.253 228.323M322.253 228.323L333.378 256.867M322.253 228.323L273.31 278.818L293.854 300.605M322.253 228.323L334.338 215.855L341.842 234.8M333.378 256.867L335.186 261.506M333.378 256.867L341.842 234.8M333.378 256.867L329.555 266.833M335.186 261.506L345.506 287.988M335.186 261.506L329.555 266.833M335.186 261.506L347.723 249.646M345.506 287.988L353.783 309.225M345.506 287.988L331.12 306.902M345.506 287.988L356.951 272.942M353.783 309.225L361.442 328.877M353.783 309.225L372.066 311.099M353.783 309.225L331.12 306.902M361.442 328.877L368.163 346.121M361.442 328.877L373.454 314.603M361.442 328.877L351.028 341.252M368.163 346.121L370.381 351.812M368.163 346.121L388.193 351.812L373.454 314.603M368.163 346.121L351.028 341.252M349.109 215.855L341.842 234.8M341.842 234.8L347.723 249.646M329.555 266.833L314.826 305.231M329.555 266.833L293.854 300.605M314.826 305.231L310.023 317.752M314.826 305.231L331.12 306.902M314.826 305.231L296.44 303.347M310.023 317.752L305.925 328.436M310.023 317.752L317.132 325.29M310.023 317.752L296.44 303.347M305.925 328.436L296.958 351.812L313.173 330.496M305.925 328.436L313.173 330.496M305.925 328.436L274.018 319.37L291.493 302.839M313.173 330.496L317.132 325.29M313.173 330.496L325.286 333.938M317.132 325.29L331.12 306.902M317.132 325.29L325.286 333.938M356.951 272.942L375.641 248.372M356.951 272.942L347.723 249.646M356.951 272.942L372.066 311.099M375.641 248.372L385.04 236.015M375.641 248.372L387.321 298.126M375.641 248.372L370.812 227.804M385.04 236.015L388.047 232.062M385.04 236.015L374.864 223.971M385.04 236.015L391.577 243.751M388.047 232.062L400.374 215.855L400.248 254.013M388.047 232.062L383.217 216.069L374.864 223.971M388.047 232.062L391.577 243.751M400.248 254.013L400.187 272.262M400.248 254.013L391.577 243.751M400.248 254.013L412.369 268.36L402.537 280.044M400.187 272.262L400.152 282.878M400.187 272.262L391.577 243.751M400.187 272.262L402.537 280.044M400.152 282.878L400.049 313.968M400.152 282.878L402.537 280.044M400.152 282.878L387.321 298.126M400.049 313.968L399.924 351.812L390.817 313.022M400.049 313.968L413.189 315.315L402.537 280.044M400.049 313.968L390.817 313.022M390.817 313.022L387.321 298.126M390.817 313.022L376.058 311.509M387.321 298.126L376.058 311.509M370.812 227.804L368.008 215.855L374.864 223.971M370.812 227.804L347.723 249.646M370.812 227.804L374.864 223.971M376.058 311.509L373.454 314.603M376.058 311.509L372.066 311.099M373.454 314.603L372.066 311.099M351.028 341.252L342.141 351.812L325.286 333.938M351.028 341.252L325.286 333.938M296.44 303.347L293.854 300.605M296.44 303.347L291.493 302.839M293.854 300.605L291.493 302.839M291.493 302.839L273.697 301.015" stroke="white"/>
<path d="M259.974 102.765C263.323 102.084 264.647 97.7986 264.647 94.665C264.647 88.2781 259.273 87.4212 255.923 88.278C252.574 89.1348 250.705 94.8207 251.25 97.9363C251.795 101.052 255.378 103.7 259.974 102.765Z" stroke="white" stroke-width="1.06925"/>
<path d="M366.39 88.5688C349.773 88.5169 316.338 88.4442 315.528 88.5688C312.49 88.6166 309.063 89.8151 309.452 95.1895C309.764 99.489 313.632 100.564 315.528 100.564C331.08 100.642 363.304 101.448 367.324 100.564C371.219 99.707 372.258 98.2271 372.075 93.398C371.951 90.0955 368.233 88.8025 366.39 88.5688Z" fill="#2B2B2B" stroke="white" stroke-width="1.06925"/>
<path d="M430.462 101.633C433.427 100.768 434.297 96.8097 434.062 93.9881C433.582 88.2372 428.679 87.8693 425.727 88.8923C422.776 89.9153 421.52 95.1754 422.245 97.9398C422.97 100.704 426.395 102.82 430.462 101.633Z" stroke="white" stroke-width="1.06925"/>
<path d="M295.504 29.9307C330.329 28.4834 350.037 27.3957 386.644 29.9287C410.19 31.5581 424.252 33.8094 434.689 36.6143C445.124 39.4185 451.923 42.7771 460.84 46.5371C479.026 54.206 486.015 65.9961 490.764 72.9248C493.27 76.582 494.302 81.3052 494.754 86.0752C495.205 90.8352 495.09 95.8302 495.205 99.9697C495.392 106.71 495.283 138.981 495.205 154.311C495.572 157.147 495.752 163.997 493.497 169.281C490.856 175.47 490.999 180.887 490.999 187.621V566.009C490.999 578.939 480.516 589.421 467.586 589.421H214.144C201.394 589.211 191.124 578.811 191.124 566.012V187.624C191.124 180.89 191.267 175.473 188.626 169.285C186.371 164.001 186.55 157.15 186.917 154.313C186.839 138.983 186.731 106.713 186.918 99.9727C187.033 95.8331 186.918 90.8381 187.369 86.0781C187.822 81.308 188.853 76.585 191.359 72.9277C196.108 65.999 203.097 54.2089 221.283 46.54C230.23 42.7671 237.036 39.7266 247.483 37.0781C257.92 34.4325 271.971 32.1809 295.455 29.9336L295.479 29.9316L295.504 29.9307Z" stroke="url(#paint3_linear_6557_289953)" stroke-width="1.80497"/>
<path opacity="0.3" d="M260.512 205H423.002L423.538 363.783H262.048L260.512 205Z" fill="url(#paint4_linear_6557_289953)"/>
<path opacity="0.3" d="M270.105 212.898L414.296 212.996L415.398 355.1L271.029 354.407L270.105 212.898Z" stroke="#E4255B" stroke-width="2"/>
<g clip-path="url(#clip0_6557_289953)">
<path opacity="0.5" d="M212 178C212 227.706 171.706 268 122 268C72.2944 268 32 227.706 32 178" stroke="white"/>
<g filter="url(#filter0_d_6557_289953)">
<circle cx="122" cy="171" r="87" fill="#1B1B2D"/>
<circle cx="122" cy="171" r="87" fill="url(#paint5_linear_6557_289953)" fill-opacity="0.4"/>
</g>
<circle cx="122.5" cy="170.5" r="87.5" stroke="#E4255B" stroke-width="8"/>
<path d="M111.856 135C111.856 133.343 113.199 132 114.856 132H130.387C132.044 132 133.387 133.343 133.387 135V143.678C133.387 155.173 131.428 167.647 130.233 179.172C130.073 180.713 128.78 181.892 127.231 181.892H118.123C116.587 181.892 115.3 180.733 115.127 179.207C113.818 167.672 111.856 155.184 111.856 143.678V135ZM114 214.403C112.343 214.403 111 213.06 111 211.403V196.3C111 194.643 112.343 193.3 114 193.3H130.815C132.472 193.3 133.815 194.643 133.815 196.3V211.403C133.815 213.06 132.472 214.403 130.815 214.403H114Z" fill="#E4255B"/>
<circle cx="122" cy="171" r="83" stroke="white" stroke-width="2"/>
</g>
<defs>
<filter id="filter0_d_6557_289953" x="-13" y="60" width="270" height="270" filterUnits="userSpaceOnUse" color-interpolation-filters="sRGB">
<feFlood flood-opacity="0" result="BackgroundImageFix"/>
<feColorMatrix in="SourceAlpha" type="matrix" values="0 0 0 0 0 0 0 0 0 0 0 0 0 0 0 0 0 0 127 0" result="hardAlpha"/>
<feOffset dy="24"/>
<feGaussianBlur stdDeviation="24"/>
<feComposite in2="hardAlpha" operator="out"/>
<feColorMatrix type="matrix" values="0 0 0 0 0.894118 0 0 0 0 0.145098 0 0 0 0 0.356863 0 0 0 0.5 0"/>
<feBlend mode="normal" in2="BackgroundImageFix" result="effect1_dropShadow_6557_289953"/>
<feBlend mode="normal" in="SourceGraphic" in2="effect1_dropShadow_6557_289953" result="shape"/>
</filter>
<linearGradient id="paint0_linear_6557_289953" x1="340.961" y1="163.671" x2="340.961" y2="376.796" gradientUnits="userSpaceOnUse">
<stop stop-color="white"/>
<stop offset="1" stop-color="white" stop-opacity="0"/>
</linearGradient>
<linearGradient id="paint1_linear_6557_289953" x1="283.139" y1="210.383" x2="373.308" y2="456.882" gradientUnits="userSpaceOnUse">
<stop stop-color="#141421"/>
<stop offset="1" stop-color="#111128" stop-opacity="0"/>
</linearGradient>
<linearGradient id="paint2_linear_6557_289953" x1="340.768" y1="154" x2="313.622" y2="310.38" gradientUnits="userSpaceOnUse">
<stop stop-color="#1C1C2D"/>
<stop offset="1" stop-opacity="0"/>
</linearGradient>
<linearGradient id="paint3_linear_6557_289953" x1="331.276" y1="208.851" x2="339.07" y2="335.833" gradientUnits="userSpaceOnUse">
<stop stop-color="white"/>
<stop offset="1" stop-color="white" stop-opacity="0"/>
</linearGradient>
<linearGradient id="paint4_linear_6557_289953" x1="423.539" y1="385.591" x2="282.016" y2="254.947" gradientUnits="userSpaceOnUse">
<stop stop-color="#E4255B"/>
<stop offset="1" stop-color="#E4255B" stop-opacity="0.2"/>
</linearGradient>
<linearGradient id="paint5_linear_6557_289953" x1="209" y1="281.745" x2="55.0267" y2="141.108" gradientUnits="userSpaceOnUse">
<stop stop-color="#E4255B"/>
<stop offset="1" stop-color="#E4255B" stop-opacity="0.2"/>
</linearGradient>
<clipPath id="clip0_6557_289953">
<rect width="240" height="240" fill="white" transform="translate(2 64)"/>
</clipPath>
</defs>
</svg>
