<svg width="228" height="270" viewBox="0 0 228 270" fill="none" xmlns="http://www.w3.org/2000/svg">
<path d="M185.503 270C201.87 270 210.054 270 216.065 266.316C219.429 264.255 222.258 261.426 224.319 258.062C228.003 252.051 228.003 243.867 228.003 227.5V42.5C228.003 26.1328 228.003 17.9492 224.319 11.9375C222.258 8.57361 219.429 5.745 216.065 3.68359C210.054 -0.00012207 201.87 0 185.503 0H0C16.3664 0 24.5499 -6.10352e-05 30.5615 3.68359C33.9254 5.74496 36.754 8.57364 38.8154 11.9375C42.4994 17.9492 42.5 26.1328 42.5 42.5V227.5C42.5 243.867 42.4994 252.051 38.8154 258.062C36.754 261.426 33.9254 264.255 30.5615 266.316C24.5499 270 16.3664 270 0 270H185.503Z" fill="white" fill-opacity="0.08"/>
</svg>
