<svg width="1462" height="751" viewBox="0 0 1462 751" fill="none" xmlns="http://www.w3.org/2000/svg">
<mask id="mask0_4245_154686" style="mask-type:alpha" maskUnits="userSpaceOnUse" x="496" y="-45" width="886" height="659">
<rect x="496.609" y="-44.0078" width="885.253" height="657.016" fill="url(#paint0_linear_4245_154686)"/>
</mask>
<g mask="url(#mask0_4245_154686)">
<mask id="mask1_4245_154686" style="mask-type:alpha" maskUnits="userSpaceOnUse" x="847" y="230" width="535" height="390">
<path d="M1268.6 243.653C1269.84 230.552 1295.06 241.266 1309.64 230.562L1381.86 376.586L1238.87 619.25L1042.92 540.809L847.742 448.466C850.366 428.179 868.519 390.332 920.147 401.246C984.682 414.887 1194.32 427.87 1215.43 427.258C1236.53 426.646 1233.17 417.469 1235.62 410.433C1238.06 403.398 1265.73 274.163 1268.6 243.653Z" fill="url(#paint1_linear_4245_154686)"/>
</mask>
<g mask="url(#mask1_4245_154686)">
<path d="M1162.58 529.974L1150.07 509.422M1153.79 524.996L1147.94 515.384M1170.52 534.997L1151.93 504.456M1173.94 531.543L1154.06 499.665M1175.83 527.041L1155.99 494.45M1178.01 521.795L1157.95 488.837M1179.84 516.911L1159.81 483.998M1181.76 511.733L1161.68 478.748M1183.84 506.832L1163.84 473.975M1185.76 501.66L1165.7 468.698M1187.67 496.479L1167.78 463.797M1189.76 491.569L1169.7 458.619M1191.84 486.678L1171.61 453.447M1193.76 481.484L1173.53 448.267M1195.67 476.322L1175.61 443.366M1197.76 471.398L1177.53 438.188M1199.67 466.235L1179.44 433.012M1201.75 461.343L1181.52 428.11M1203.5 455.89L1183.44 422.934M1205.58 450.986L1185.52 418.031M1207.67 446.082L1187.45 412.877M1209.6 440.908L1189.52 407.95M1211.46 435.68L1191.44 402.778M1213.58 430.839L1193.52 397.877M1215.5 425.659L1194.77 391.602M1217.58 420.746L1195.85 385.051M1219.5 415.566L1196.94 378.523M1221.08 409.849L1198.17 372.226M1222.16 403.307L1199.25 365.678M1223.24 396.75L1200.33 359.127M1224.41 390.335L1201.53 352.766M1225.56 383.958L1202.66 346.304M1226.64 377.387L1203.74 339.754M1227.73 370.813L1204.82 333.211M1228.98 364.531L1206.07 326.928M1230.05 358.02L1207.15 320.38M1231.13 351.468L1208.23 313.83M1232.21 344.906L1209.41 307.454M1233.46 338.624L1210.55 301.004M1234.58 332.151L1211.71 294.575M1235.62 325.528L1212.88 288.177M1236.7 318.974L1213.96 281.63M1240.17 299.358L1217.37 261.892M1237.94 312.703L1215.04 275.082M1241.42 293.076L1221.69 260.669M1239.02 306.155L1216.29 268.807M1242.5 286.535L1229.92 265.876M1243.58 279.995L1238.15 271.083" stroke="white" stroke-width="1.34918" stroke-linecap="round" stroke-linejoin="round" stroke-dasharray="0.45 4.05"/>
<path d="M947.445 424.962C848.528 399.708 724.712 385.64 658.582 380.7C648.645 379.958 642.524 372.216 644.535 362.747L697.808 111.815C698.97 106.339 705.213 102.159 710.714 103.234C797.109 120.104 954.339 154.856 1040.91 172.091C1120.59 187.954 1232.66 256.611 1284.81 297.583C1296.11 306.467 1299.53 321.308 1295.02 336.599L1227.29 566.136C1224.79 574.603 1213.28 579.072 1207.21 573.959C1151.05 526.608 1046.9 450.352 947.445 424.962Z" fill="#D9D9D9" fill-opacity="0.07"/>
<g opacity="0.7">
<path d="M1189.16 519.097C1187.48 523.55 1188.51 528.827 1191.45 530.882L1205.67 540.83C1208.61 542.886 1212.35 540.942 1214.03 536.489C1215.71 532.036 1214.68 526.759 1211.75 524.704L1197.52 514.756C1194.58 512.7 1190.84 514.644 1189.16 519.097Z" stroke="white"/>
<path d="M1251.69 307.803C1250.01 312.256 1251.04 317.532 1253.98 319.588L1268.2 329.536C1271.14 331.591 1274.88 329.648 1276.56 325.194C1278.24 320.741 1277.21 315.465 1274.27 313.409L1260.05 303.462C1257.11 301.406 1253.37 303.35 1251.69 307.803Z" stroke="white"/>
<path d="M1244.18 353.552C1242.5 358.005 1243.52 363.281 1246.46 365.337L1257.98 373.394C1260.92 375.45 1264.66 373.506 1266.34 369.053C1268.02 364.6 1266.99 359.323 1264.06 357.268L1252.53 349.211C1249.6 347.155 1245.85 349.099 1244.18 353.552Z" stroke="white"/>
<path d="M1238.23 396.914C1236.55 401.367 1237.57 406.643 1240.51 408.699L1246.17 412.658C1249.11 414.713 1252.85 412.769 1254.53 408.316C1256.21 403.863 1255.19 398.587 1252.25 396.531L1246.59 392.572C1243.65 390.517 1239.9 392.461 1238.23 396.914Z" stroke="white"/>
<path d="M1226.98 437.09C1225.3 441.543 1226.32 446.819 1229.26 448.875L1234.92 452.834C1237.86 454.889 1241.61 452.946 1243.28 448.493C1244.96 444.039 1243.94 438.763 1241 436.708L1235.34 432.749C1232.4 430.693 1228.66 432.637 1226.98 437.09Z" stroke="white"/>
<path d="M1209.72 476.066C1208.04 480.519 1209.07 485.795 1212.01 487.851L1220.76 493.971C1223.7 496.026 1227.44 494.082 1229.12 489.629C1230.79 485.176 1229.77 479.9 1226.83 477.844L1218.08 471.725C1215.14 469.669 1211.4 471.613 1209.72 476.066Z" stroke="white"/>
</g>
<path d="M947.445 424.962C848.528 399.708 724.712 385.64 658.582 380.7C648.645 379.958 642.524 372.216 644.535 362.747L697.808 111.815C698.97 106.339 705.213 102.159 710.714 103.234C797.109 120.104 954.339 154.856 1040.91 172.091C1120.59 187.954 1232.66 256.611 1284.81 297.583C1296.11 306.467 1299.53 321.308 1295.02 336.599L1227.29 566.136C1224.79 574.603 1213.28 579.072 1207.21 573.959C1151.05 526.608 1046.9 450.352 947.445 424.962Z" stroke="white" stroke-width="2"/>
<path d="M954.866 401.892C878.213 382.323 782.702 371.225 729.468 367.076C719.541 366.302 713.432 358.561 715.442 349.092L756.474 155.819C757.637 150.343 763.887 146.165 769.385 147.244C838.326 160.773 961.064 187.885 1028.97 201.405C1092.04 213.96 1153.51 243.889 1188.49 270.61C1196.99 277.106 1200.97 287.352 1200.17 298.606C1195.32 366.898 1178.48 406.702 1147.93 478.914L1147.78 479.273C1144.48 487.085 1133.77 490.642 1127.99 485.962C1088.03 453.615 1032.48 421.707 954.866 401.892Z" stroke="white"/>
<path d="M930.476 380.739C861.917 350.298 790.419 358.749 743.119 360.248C731.299 360.623 725.242 350.618 729.753 339.816C752.05 286.429 762.745 247 768.35 178.573C768.832 172.683 775.549 167.705 781.318 169.294C840.736 185.659 904.785 236.871 1003.47 238.379C1067.75 239.362 1129.81 256.537 1164.16 279.188C1173.17 285.133 1177.05 295.508 1176.41 306.741C1172.87 368.182 1164.13 391.124 1136.66 456.384C1133.35 464.247 1122.48 467.728 1116.83 462.861C1027.01 385.514 1007.38 414.887 930.476 380.739Z" stroke="white"/>
<path d="M729.385 182.228C713.132 193.566 682.909 203.324 669.829 206.786L652.913 286.451C658.449 287 672.18 288.042 682.815 287.819C696.109 287.54 728.805 283.715 764.807 269.982C800.81 256.25 842.135 268.447 877.249 267.398C912.363 266.349 960.669 231.503 997.935 217.486C1035.2 203.47 1077.99 189.547 1074.82 188.219C1071.66 186.892 1056.55 182.187 1048.56 179.859C1042.17 177.997 1018.86 181.676 1008 183.748C999.874 184.758 980.025 187.374 965.672 189.76C947.73 192.743 942.921 202.123 911.228 222.476C879.535 242.83 836.224 253.45 814.289 254.387C792.354 255.324 777.174 228.241 781.354 221.824C785.534 215.406 813.105 203.092 838.102 201.003C863.099 198.914 871.098 189.677 909.299 182.277C939.859 176.357 960.267 166.557 966.652 162.397L897.623 148.165C877.443 147.159 834.718 145.283 825.264 145.827C813.447 146.507 783.106 145.328 776.365 148.641C769.624 151.955 749.702 168.055 729.385 182.228Z" fill="#D9D9D9" fill-opacity="0.07"/>
<path d="M694.367 388.493C692.666 390.077 691.599 391.088 694.44 388.501L724.745 391.75C725.356 388.872 728.836 382.699 737.868 381.031C749.158 378.947 766.938 364.053 780.207 358.028C793.476 352.003 832.922 354.516 857.836 358.822C882.75 363.127 918.433 370.161 903.538 362.214C888.643 354.267 884.341 336.805 904.597 334.024C924.853 331.243 950.547 312.267 979.883 302.503C1009.22 292.739 1078.53 269.906 1100.96 261.617C1118.9 254.985 1152.15 238.213 1166.53 230.655L1121.41 207.678C1089.78 221.315 1007.8 240.437 963.957 258.521C920.115 276.605 868.338 323.662 834.325 333.144C820.066 337.318 773.572 344.449 767.863 346.346C760.727 348.716 736.95 349.461 711.021 373.294C701.694 381.868 696.762 386.386 694.44 388.501L694.367 388.493Z" fill="#D9D9D9" fill-opacity="0.07"/>
<path d="M931.626 416.027C927.108 414.442 896.231 408.455 881.358 405.659C887.51 394.08 921.695 396.138 931.344 391.313C940.993 386.489 959.608 397.988 972.409 401.071C982.649 403.538 1003.14 402.374 1012.11 401.483C1023.9 396.161 1049.99 382.904 1060 372.456C1072.51 359.395 1070.89 334.288 1099.84 309.254C1128.8 284.219 1161.58 305.476 1131.68 315.286C1101.77 325.096 1092.92 369.42 1092.62 372.134C1092.32 374.847 1115.71 372.153 1128.25 361.545C1140.8 350.936 1164.39 322.391 1166.64 322.261C1168.89 322.132 1178.1 320.703 1185.23 321.192C1192.36 321.68 1208.22 313.802 1214.48 310.52C1220.74 307.239 1271.7 293.616 1280.16 299.645C1288.61 305.675 1291.02 319.243 1291.49 327.529C1291.86 334.159 1284.73 355.855 1281.12 365.874C1262 364.284 1213.81 363.604 1186.62 365.169C1152.63 367.125 1151.7 388.595 1114.98 411.987C1078.26 435.38 1044.3 422.109 1033.31 416.688C1022.33 411.266 1011.49 421.979 1004.55 424.397C997.609 426.814 978.541 414.074 967.721 411.237C956.901 408.401 937.273 418.008 931.626 416.027Z" fill="#D9D9D9" fill-opacity="0.07"/>
<path d="M1117.16 505.135L1083.66 483.454C1090.5 485.66 1105.57 489.655 1111.15 487.985C1118.12 485.898 1112.17 486.67 1111.37 483.976C1110.57 481.281 1118.84 478.275 1126.78 476.554C1134.71 474.832 1138.05 456.933 1143.78 445.641C1149.52 434.35 1159.17 434.637 1150.42 454.956C1143.41 471.212 1146.86 470.479 1149.46 468.081C1158.95 463.53 1179.14 454.4 1183.95 454.291C1189.97 454.156 1208.85 452.648 1219.12 451.003C1227.33 449.687 1253.03 435.671 1263.27 428.828L1250.96 470.854L1215.72 474.386C1207.49 475.844 1189.25 479.325 1182.08 481.592C1173.13 484.426 1152.31 498.905 1141.16 507.135C1132.25 513.719 1121.45 505.029 1117.16 505.135Z" fill="#D9D9D9" fill-opacity="0.07"/>
</g>
<path d="M545.636 37.9882C546.745 32.775 551.682 28.8734 557.046 29.0706C601.477 30.704 792.923 39.1515 922.655 67.2126C1050.68 94.9035 1238.79 103.495 1286.43 105.286C1292.51 105.515 1296.5 110.756 1295.14 116.659C1288.98 143.371 1273.31 213.5 1265.72 267.45C1257.91 322.88 1240.3 393.983 1234.04 418.413C1232.76 423.398 1228.03 427.001 1222.88 426.822C1179.16 425.301 984.171 417.06 855.755 387.584C729.326 358.565 538.373 350.128 490.771 348.422C484.78 348.208 480.786 343.083 482.024 337.262L545.636 37.9882Z" fill="#D9D9D9" fill-opacity="0.07"/>
<path d="M1194.88 100.065C1161.35 127.766 1134.46 152.284 1112.5 166.958C1084.14 185.912 992.019 231.403 1067.79 208.789C1142.57 186.471 1153.64 182.06 1195.8 165.264L1197.49 164.588C1241.06 147.231 1295.26 124.343 1276.79 147.662C1258.31 170.98 1165.32 239.646 1208.61 223.589C1240.18 211.877 1261.85 206.194 1276.13 199.587C1271.36 222.398 1266.94 246.042 1264.24 266.369C1263.35 273.047 1262.29 280.078 1261.12 287.317C1250.3 302.144 1220.24 323.455 1181.24 352.332C1141.94 381.438 1139.58 363.908 1147.45 342.798C1155.31 321.688 1165.98 312.838 1169.57 295.932C1173.17 279.026 1134.34 299.541 1075.47 341.215C1025.49 376.593 1037.73 375.873 1011.15 411.809C961.298 406.399 909.864 399.177 864.912 389.59C883.426 378.712 902.685 369.463 924.494 351.937C953.023 329.01 926.056 325.511 920.767 324.955C915.477 324.399 883.438 325.686 835.451 363.849C826.406 371.043 817.666 375.669 809.432 378.407C791.386 375.25 772.722 372.412 753.875 369.858C749.757 366.709 747.395 363.829 747.187 362.55C746.31 357.14 758.27 351.749 789.63 337.762C820.989 323.775 827.552 315.158 892.285 284.071C957.017 252.984 888.353 235.796 881.682 241.743C875.011 247.689 853.568 262.719 845.791 273.867C838.014 285.015 815.14 297.235 779.291 310.086C743.442 322.936 731.385 309.704 692.357 337.509C681.564 345.199 671.39 352.649 662.223 359.519C584.725 352.309 516.594 349.363 490.76 348.426C484.77 348.208 480.785 343.085 482.023 337.264L487.383 312.045C504.442 310.24 534.179 291.968 558.176 291.499C595.504 290.769 639.828 292.104 657.798 280.698C675.767 269.292 751.384 234.695 785.22 224.957C819.056 215.218 867.303 163.121 971.485 130.862C1030.03 112.734 1058.57 99.2186 1072.42 89.9215C1115.94 94.4427 1158.58 97.7276 1194.88 100.065ZM1255.28 320.027C1251.35 340.58 1246.98 361.08 1243.09 378.56C1236.84 377.641 1231.6 376.102 1228.83 373.288C1220.12 364.433 1230.95 346.892 1255.28 320.027ZM718.519 40.4286C695.822 56.1584 675.194 73.8158 675.52 76.4903C676.01 80.5312 627.157 97.3328 606.099 113.733C585.04 130.134 524.618 182.278 522.082 184.671C518.807 189.668 514.761 196.2 510.411 203.707L545.612 38.1C546.73 32.8407 551.743 28.9229 557.146 29.1795C580.588 30.2941 644.495 33.6718 718.519 40.4286ZM814.353 50.7462C852.642 55.596 890.302 61.3909 923.626 68.2713C942.875 72.2458 963.548 75.8134 984.935 79.0141C969.01 83.7234 953.794 87.7529 946.722 88.3747C929.503 89.8887 813.354 98.9536 768.798 152.768C724.242 206.582 692.076 192.566 650.643 193.529C609.21 194.492 616.95 158.08 639.883 139.218C662.817 120.357 731.937 116.321 754.516 92.7687C767.265 79.4707 793.18 62.9443 814.353 50.7462Z" fill="#D9D9D9" fill-opacity="0.07"/>
<path d="M545.628 38.0428C546.741 32.8067 551.695 28.8967 557.078 29.1248C602.284 31.0405 799.461 40.8053 935.341 70.1321C1067.77 98.7139 1240.36 103.291 1286.69 104.014C1292.99 104.113 1297.14 109.58 1295.61 115.663C1288.69 143.141 1271.51 214.094 1265.17 265.627C1258.6 319.062 1240.37 393.376 1234.01 418.452C1232.75 423.43 1228.06 427.017 1222.91 426.859C1178.72 425.504 979.742 417.876 855.758 387.584C733.752 357.774 539.12 349.912 490.84 348.378C484.828 348.187 480.796 343.052 482.037 337.213L545.628 38.0428Z" stroke="white" stroke-width="2"/>
<path d="M660.869 92.8787C664.197 77.2224 679.154 65.542 695.218 66.4367C743.562 69.1293 844.727 76.7655 929.249 96.3442C1015.6 116.346 1155.77 123.665 1221.27 126.091C1240.13 126.789 1252.62 143.537 1248.12 161.8C1241.2 189.916 1232.14 230.277 1228.06 263.934C1223.54 301.248 1212.9 346.802 1205.83 374.775C1202.06 389.667 1187.61 400.277 1172.24 399.467C1117.33 396.569 989.653 387.872 901.896 366.471C818.28 346.08 700.464 340.632 642.937 339.176C624.595 338.712 611.93 323.119 615.713 305.32L660.869 92.8787Z" stroke="white" stroke-width="1.20017"/>
<path d="M1224.69 418.925L1225.32 418.635M1212.46 418.222L1226.67 411.683M1205.89 415.063L1228.31 404.764M1207.21 408.291L1229.31 398.135M1208.52 401.527L1230.94 391.215M1209.84 394.753L1231.94 384.587M1211.16 387.968L1233.57 377.665M1212.3 382.077L1234.72 371.774M1213.45 376.186L1235.86 365.884M1214.6 370.296L1237.01 359.993M1215.74 364.405L1238.15 354.103M1216.89 358.515L1239.3 348.212M1218.03 352.624L1240.45 342.321M1219.18 346.734L1241.59 336.431M1220.32 340.843L1242.74 330.54M1221.47 334.953L1243.88 324.65M1222.61 329.062L1245.03 318.759M1223.76 323.171L1246.17 312.869M1224.9 317.281L1247.32 306.978M1226.05 311.39L1248.46 301.088M1227.19 305.5L1249.61 295.197M1228.34 299.609L1250.75 289.306M1229.48 293.719L1251.9 283.416M1230.63 287.828L1253.04 277.525M1231.77 281.938L1254.19 271.635M1232.92 276.047L1255.33 265.744M1234.06 270.156L1256.48 259.854M1235.21 264.266L1257.62 253.963M1236.35 258.375L1258.77 248.073M1237.5 252.485L1259.91 242.182M1238.64 246.594L1261.06 236.291M1239.79 240.704L1262.2 230.401M1240.94 234.813L1263.35 224.51M1242.08 228.922L1264.49 218.62M1243.23 223.032L1265.64 212.729M1244.37 217.141L1266.79 206.839M1245.52 211.251L1267.93 200.948M1246.66 205.36L1269.08 195.058M1247.81 199.47L1270.22 189.167M1248.95 193.579L1271.37 183.276M1250.1 187.689L1272.51 177.386M1251.24 181.798L1273.66 171.495M1252.39 175.908L1274.8 165.605M1253.53 170.017L1275.95 159.714M1254.68 164.126L1277.09 153.824M1255.82 158.236L1278.24 147.933M1256.97 152.345L1279.38 142.043M1258.11 146.455L1280.53 136.152M1259.26 140.564L1281.67 130.262M1260.4 134.674L1282.82 124.371M1261.55 128.783L1283.96 118.48M1262.69 122.893L1285.11 112.59M1263.84 117.002L1282.96 108.204M1264.99 111.111L1275.72 106.171M1266.13 105.221L1266.45 105.072" stroke="white" stroke-width="1.80025" stroke-linecap="round" stroke-linejoin="round" stroke-dasharray="0.6 5.4"/>
<path d="M574.692 352.11L598.504 341.65M586.371 353.939L597.509 349.047M563.863 350.972L599.25 335.428M562.203 345.036L599.62 329.166M562.665 339.238L600.428 322.65M563.232 332.501L601.418 315.726M563.957 326.375L602.091 309.623M564.756 319.903L602.973 303.115M565.236 313.572L603.305 296.849M566.033 307.108L604.22 290.327M566.832 300.631L604.7 283.997M567.315 294.29L605.499 277.525M567.792 287.973L606.296 271.059M568.595 281.482L607.095 264.584M569.389 275.028L607.575 258.254M569.875 268.671L608.374 251.782M570.67 262.216L609.172 245.312M571.148 255.897L609.652 238.982M572.265 249.284L610.45 232.511M572.746 242.951L610.931 226.179M573.226 236.617L611.704 219.72M574.011 230.14L612.21 213.374M574.889 223.658L613.007 206.909M575.3 217.358L613.487 200.578M576.099 210.884L615.559 193.548M576.582 204.54L617.948 186.378M577.382 198.065L620.313 179.219M578.814 191.325L622.409 172.178M581.202 184.164L624.798 165.01M583.593 176.986L627.188 157.84M585.82 169.881L629.359 150.766M588.046 162.826L631.648 143.641M590.441 155.63L634.038 136.471M592.836 148.432L636.42 129.305M594.909 141.394L638.499 122.271M597.289 134.27L640.888 115.103M599.679 127.098L643.278 107.933M602.071 119.914L645.466 100.852M604.144 112.876L647.738 93.7323M606.448 105.747L649.989 86.6249M608.922 98.5403L652.2 79.5297M611.313 91.3653L654.588 72.364M618.224 69.7117L661.635 50.6436M613.383 84.3404L656.978 65.1961M620.297 62.6743L657.846 46.1798M615.772 77.1731L659.049 58.1659M622.684 55.5147L646.62 45M625.071 48.3567L635.398 43.8204" stroke="url(#paint2_linear_4245_154686)" stroke-width="1.80025" stroke-linecap="round" stroke-linejoin="round" stroke-dasharray="0.6 5.4"/>
<g clip-path="url(#clip0_4245_154686)">
<path fill-rule="evenodd" clip-rule="evenodd" d="M1127.23 169.781L1130.9 170.167L1130.08 173.982L1133.75 174.368L1132.94 178.183L1129.27 177.797L1127.65 185.428L1131.32 185.814L1129.7 193.444L1133.37 193.83L1132.56 197.645L1128.89 197.26L1128.08 201.075L1131.74 201.461L1132.56 197.645L1136.22 198.031L1137.04 194.215L1133.37 193.83L1134.99 186.199L1138.66 186.585L1137.85 190.4L1141.51 190.786L1142.33 186.97L1145.99 187.356L1143.56 198.802L1139.89 198.416L1139.08 202.232L1135.41 201.846L1134.6 205.661L1138.27 206.047L1137.46 209.862L1130.12 209.091L1130.93 205.276L1127.27 204.89L1126.45 208.706L1122.79 208.32L1121.97 212.135L1125.64 212.521L1124.02 220.152L1120.35 219.766L1119.54 223.581L1123.21 223.967L1122.4 227.782L1126.07 228.168L1125.26 231.983L1121.59 231.597L1119.97 239.228L1116.3 238.842L1113.86 250.288L1121.2 251.06L1122.82 243.429L1126.49 243.815L1125.68 247.63L1129.35 248.015L1130.16 244.2L1133.83 244.586L1133.02 248.401L1136.69 248.787L1135.88 252.602L1143.21 253.373L1144.02 249.558L1147.69 249.943L1148.5 246.128L1152.17 246.514L1150.55 254.144L1154.22 254.53L1155.03 250.715L1158.7 251.1L1157.89 254.915L1176.23 256.843L1177.04 253.028L1180.71 253.414L1179.9 257.229L1183.57 257.615L1184.38 253.799L1180.71 253.414L1181.52 249.598L1177.85 249.213L1178.66 245.397L1175 245.012L1175.81 241.197L1179.47 241.582L1181.1 233.951L1184.77 234.337L1182.33 245.783L1189.67 246.554L1188.86 250.369L1192.53 250.755L1191.72 254.57L1188.05 254.185L1187.24 258L1190.91 258.386L1190.09 262.201L1109.39 253.718L1127.23 169.781ZM1134.56 170.552L1138.23 170.938L1137.42 174.753L1133.75 174.368L1134.56 170.552ZM1141.9 171.324L1145.57 171.709L1143.95 179.34L1140.28 178.954L1141.9 171.324ZM1149.24 172.095L1152.91 172.48L1152.1 176.296L1155.76 176.681L1156.58 172.866L1160.24 173.252L1158.62 180.882L1154.95 180.497L1154.14 184.312L1150.47 183.926L1151.28 180.111L1147.62 179.725L1149.24 172.095ZM1163.91 173.637L1167.58 174.023L1165.96 181.653L1169.63 182.039L1171.25 174.408L1174.92 174.794L1173.3 182.424L1187.97 183.967L1187.16 187.782L1194.5 188.553L1195.31 184.738L1191.64 184.352L1193.26 176.722L1196.93 177.107L1196.12 180.923L1199.79 181.308L1195.73 200.385L1192.06 199.999L1193.69 192.369L1190.02 191.983L1189.21 195.798L1185.54 195.413L1184.73 199.228L1192.06 199.999L1191.25 203.815L1187.58 203.429L1186.77 207.244L1183.1 206.859L1183.92 203.043L1180.25 202.658L1179.44 206.473L1183.1 206.859L1182.29 210.674L1189.63 211.445L1191.25 203.815L1194.92 204.2L1195.73 200.385L1199.4 200.77L1198.59 204.586L1202.26 204.971L1201.45 208.787L1194.11 208.015L1193.3 211.831L1200.64 212.602L1199.83 216.417L1196.16 216.032L1195.35 219.847L1199.01 220.233L1198.2 224.048L1194.54 223.662L1193.72 227.478L1190.06 227.092L1190.87 223.277L1183.53 222.506L1184.34 218.69L1191.68 219.461L1192.49 215.646L1185.15 214.875L1184.34 218.69L1180.67 218.305L1181.48 214.489L1177.81 214.104L1177 217.919L1173.33 217.533L1174.96 209.903L1171.29 209.517L1172.1 205.702L1175.77 206.088L1177.39 198.457L1181.06 198.842L1183.49 187.397L1176.15 186.625L1175.34 190.441L1171.67 190.055L1172.49 186.24L1168.82 185.854L1167.19 193.485L1159.86 192.714L1160.67 188.898L1157 188.513L1156.19 192.328L1152.52 191.942L1154.14 184.312L1161.48 185.083L1163.91 173.637ZM1178.59 175.179L1182.26 175.565L1181.44 179.38L1177.78 178.995L1178.59 175.179ZM1185.92 175.951L1189.59 176.336L1188.78 180.151L1185.11 179.766L1185.92 175.951ZM1200.6 177.493L1204.27 177.879L1203.46 181.694L1199.79 181.308L1200.6 177.493ZM1203.46 181.694L1207.12 182.079L1206.31 185.895L1202.65 185.509L1203.46 181.694ZM1136.61 178.569L1140.28 178.954L1139.47 182.77L1135.8 182.384L1136.61 178.569ZM1143.95 179.34L1147.62 179.725L1146.81 183.541L1143.14 183.155L1143.95 179.34ZM1201.83 189.324L1205.5 189.71L1204.69 193.525L1201.02 193.14L1201.83 189.324ZM1175.34 190.441L1179.01 190.826L1178.2 194.642L1174.53 194.256L1175.34 190.441ZM1148.85 191.557L1152.52 191.942L1151.71 195.758L1148.04 195.372L1148.85 191.557ZM1156.19 192.328L1159.86 192.714L1159.05 196.529L1155.38 196.143L1156.19 192.328ZM1167.19 193.485L1170.86 193.87L1170.05 197.686L1173.72 198.071L1172.1 205.702L1168.43 205.316L1169.24 201.501L1165.57 201.115L1167.19 193.485ZM1200.21 196.955L1203.88 197.341L1203.07 201.156L1199.4 200.77L1200.21 196.955ZM1151.71 195.758L1155.38 196.143L1153.76 203.774L1150.09 203.388L1151.71 195.758ZM1159.05 196.529L1162.72 196.915L1161.9 200.73L1165.57 201.115L1164.76 204.931L1157.42 204.16L1159.05 196.529ZM1143.56 198.802L1147.23 199.188L1146.42 203.003L1150.09 203.388L1147.65 214.834L1143.99 214.449L1143.18 218.264L1139.51 217.879L1140.32 214.063L1136.65 213.678L1137.46 209.862L1141.13 210.248L1143.56 198.802ZM1164.76 204.931L1168.43 205.316L1166 216.762L1158.66 215.991L1157.04 223.622L1149.7 222.851L1150.51 219.035L1146.84 218.65L1147.65 214.834L1151.32 215.22L1152.95 207.589L1163.95 208.746L1164.76 204.931ZM1126.45 208.706L1130.12 209.091L1129.31 212.906L1125.64 212.521L1126.45 208.706ZM1129.31 212.906L1136.65 213.678L1135.84 217.493L1132.17 217.107L1131.36 220.923L1142.36 222.079L1140.74 229.71L1137.07 229.324L1137.88 225.509L1134.22 225.124L1133.4 228.939L1126.07 228.168L1126.88 224.352L1123.21 223.967L1124.02 220.152L1127.69 220.537L1129.31 212.906ZM1177 217.919L1180.67 218.305L1179.86 222.12L1176.19 221.734L1177 217.919ZM1143.18 218.264L1146.84 218.65L1146.03 222.465L1142.36 222.079L1143.18 218.264ZM1165.19 220.578L1168.86 220.963L1168.04 224.779L1175.38 225.55L1174.57 229.365L1167.23 228.594L1166.42 232.409L1159.09 231.638L1159.9 227.823L1156.23 227.437L1157.04 223.622L1164.38 224.393L1165.19 220.578ZM1182.72 226.321L1186.39 226.706L1185.58 230.522L1181.91 230.136L1182.72 226.321ZM1193.72 227.478L1197.39 227.863L1196.58 231.679L1192.91 231.293L1193.72 227.478ZM1145.22 226.28L1148.89 226.666L1148.08 230.481L1151.75 230.867L1150.94 234.682L1143.6 233.911L1142.79 237.726L1135.45 236.955L1134.64 240.77L1130.97 240.385L1130.16 244.2L1126.49 243.815L1128.11 236.184L1124.45 235.798L1125.26 231.983L1139.93 233.525L1140.74 229.71L1144.41 230.096L1145.22 226.28ZM1174.57 229.365L1181.91 230.136L1181.1 233.951L1173.76 233.18L1174.57 229.365ZM1185.58 230.522L1192.91 231.293L1192.1 235.108L1184.77 234.337L1185.58 230.522ZM1170.09 232.795L1173.76 233.18L1172.95 236.996L1169.28 236.61L1170.09 232.795ZM1192.1 235.108L1195.77 235.494L1194.96 239.309L1191.29 238.924L1192.1 235.108ZM1150.94 234.682L1154.61 235.068L1153.79 238.883L1161.13 239.654L1159.51 247.285L1155.84 246.899L1156.65 243.084L1149.32 242.313L1150.94 234.682ZM1161.94 235.839L1165.61 236.224L1164.8 240.04L1161.13 239.654L1161.94 235.839ZM1172.95 236.996L1176.62 237.381L1175.81 241.197L1172.14 240.811L1172.95 236.996ZM1164.8 240.04L1172.14 240.811L1171.33 244.626L1163.99 243.855L1164.8 240.04ZM1190.48 242.739L1194.15 243.124L1193.34 246.94L1189.67 246.554L1190.48 242.739ZM1134.64 240.77L1149.32 242.313L1148.5 246.128L1141.17 245.357L1140.36 249.172L1136.69 248.787L1137.5 244.971L1133.83 244.586L1134.64 240.77ZM1166.85 248.056L1170.52 248.442L1169.7 252.257L1166.04 251.871L1166.85 248.056ZM1174.18 248.827L1177.85 249.213L1177.04 253.028L1173.37 252.642L1174.18 248.827Z" fill="white"/>
</g>
<path d="M1069.16 306.082L1071.46 306.324L1065.42 313.709L1068.17 322.065L1065.83 321.819L1063.79 315.419L1059.18 321.12L1056.86 320.876L1062.97 313.43L1060.24 305.145L1062.58 305.39L1064.62 311.7L1069.16 306.082Z" fill="white"/>
<path d="M1082.5 307.484L1084.8 307.725L1078.75 315.111L1081.51 323.467L1079.17 323.221L1077.13 316.821L1072.51 322.521L1070.2 322.278L1076.31 314.832L1073.58 306.546L1075.91 306.792L1077.96 313.102L1082.5 307.484Z" fill="white"/>
<path d="M1095.83 308.886L1098.13 309.127L1092.09 316.513L1094.85 324.869L1092.51 324.623L1090.47 318.223L1085.85 323.923L1083.53 323.68L1089.65 316.233L1086.91 307.948L1089.25 308.194L1091.29 314.503L1095.83 308.886Z" fill="white"/>
<path d="M1108.64 310.231L1110.94 310.473L1104.89 317.859L1107.65 326.214L1105.31 325.969L1103.27 319.568L1098.66 325.269L1096.34 325.025L1102.45 317.579L1099.72 309.294L1102.06 309.54L1104.1 315.849L1108.64 310.231Z" fill="white"/>
<path d="M1071.78 333.496L1074.08 333.738L1068.04 341.123L1070.8 349.479L1068.46 349.233L1066.42 342.833L1061.8 348.534L1059.48 348.29L1065.6 340.844L1062.87 332.559L1065.2 332.804L1067.25 339.114L1071.78 333.496Z" fill="white"/>
<path d="M1085.12 334.898L1087.42 335.14L1081.38 342.525L1084.13 350.881L1081.8 350.635L1079.75 344.235L1075.14 349.936L1072.82 349.692L1078.93 342.246L1076.2 333.96L1078.54 334.206L1080.58 340.516L1085.12 334.898Z" fill="white"/>
<path d="M1104.1 336.893L1106.4 337.135L1100.36 344.52L1103.11 352.876L1100.78 352.63L1098.73 346.23L1094.12 351.931L1091.8 351.687L1097.92 344.241L1095.18 335.955L1097.52 336.201L1099.56 342.511L1104.1 336.893Z" fill="white"/>
<path d="M1116.91 338.239L1119.21 338.48L1113.16 345.866L1115.92 354.222L1113.58 353.976L1111.54 347.576L1106.92 353.276L1104.61 353.033L1110.72 345.586L1107.99 337.301L1110.32 337.547L1112.37 343.856L1116.91 338.239Z" fill="white"/>
<path d="M1136.27 340.274L1138.57 340.516L1132.53 347.901L1135.28 356.257L1132.95 356.011L1130.91 349.611L1126.29 355.312L1123.97 355.068L1130.09 347.622L1127.35 339.337L1129.69 339.582L1131.73 345.892L1136.27 340.274Z" fill="white"/>
<path d="M1149.08 341.62L1151.38 341.862L1145.33 349.247L1148.09 357.603L1145.75 357.357L1143.71 350.957L1139.09 356.658L1136.78 356.414L1142.89 348.968L1140.16 340.682L1142.5 340.928L1144.54 347.238L1149.08 341.62Z" fill="white"/>
<path d="M1090.11 350.135C1089.88 351.202 1088.87 351.979 1087.84 351.871C1086.82 351.763 1086.17 350.811 1086.39 349.744C1086.62 348.677 1087.64 347.9 1088.66 348.008C1089.69 348.116 1090.34 349.068 1090.11 350.135Z" fill="white"/>
<path d="M1122.28 353.516C1122.05 354.583 1121.04 355.36 1120.01 355.253C1118.99 355.145 1118.34 354.192 1118.57 353.126C1118.79 352.059 1119.81 351.281 1120.83 351.389C1121.86 351.497 1122.51 352.449 1122.28 353.516Z" fill="white"/>
<path d="M1027.32 312.035L1029.03 304.005L1030 304.108L1028.5 311.188L1032.53 311.612L1032.33 312.562L1027.32 312.035Z" fill="white"/>
<path d="M1036.13 313.146C1033.83 312.904 1032.78 311.164 1033.33 308.574C1033.89 305.961 1035.61 304.513 1037.91 304.754C1040.22 304.996 1041.27 306.737 1040.71 309.349C1040.16 311.939 1038.43 313.388 1036.13 313.146ZM1034.36 308.681C1033.93 310.683 1034.67 312.021 1036.33 312.196C1038 312.371 1039.26 311.244 1039.69 309.242C1040.12 307.217 1039.38 305.879 1037.71 305.704C1036.05 305.529 1034.79 306.657 1034.36 308.681Z" fill="white"/>
<path d="M1047.59 305.956L1047.39 306.906L1044.88 306.642L1043.37 313.722L1042.39 313.619L1043.9 306.539L1041.39 306.275L1041.59 305.325L1047.59 305.956Z" fill="white"/>
<path d="M1049.14 303.983C1050.13 304.087 1050.77 304.971 1050.56 305.958L1048.78 314.291C1048.57 315.277 1047.6 315.992 1046.61 315.888L1025.67 313.687C1024.68 313.583 1024.05 312.699 1024.26 311.713L1026.03 303.379C1026.24 302.393 1027.21 301.678 1028.2 301.782L1049.14 303.983ZM1024.85 311.776C1024.71 312.433 1025.14 313.023 1025.8 313.092L1046.74 315.293C1047.4 315.362 1048.05 314.886 1048.19 314.228L1049.96 305.895C1050.1 305.237 1049.67 304.648 1049.01 304.578L1028.07 302.378C1027.41 302.308 1026.76 302.785 1026.62 303.442L1024.85 311.776Z" fill="white"/>
<path d="M1044.6 335.925L1043.86 335.847L1045.08 330.073L1045.82 330.151L1044.6 335.925ZM1046.16 337.584C1046.82 338.283 1046.55 339.516 1045.63 340.049L1043.45 341.314L1042.71 341.237C1042.76 341.025 1042.88 340.832 1043.06 340.703L1043.14 340.652L1045.32 339.387C1045.78 339.12 1045.91 338.503 1045.59 338.154L1044.02 336.494L1043.97 336.429C1043.87 336.292 1043.83 336.118 1043.84 335.937L1043.86 335.847L1044.6 335.925L1046.16 337.584ZM1042.22 347.089L1041.48 347.011L1042.71 341.237L1043.45 341.314L1042.22 347.089ZM1050.35 347.943L1051.58 342.168L1050.02 340.509C1049.36 339.81 1049.62 338.579 1050.54 338.046L1052.72 336.779L1053.95 331.005L1045.08 330.073L1045.11 329.995C1045.22 329.636 1045.56 329.377 1045.91 329.377L1045.99 329.381L1054.11 330.235C1054.52 330.278 1054.78 330.657 1054.69 331.082L1053.46 336.857C1053.41 337.099 1053.25 337.316 1053.03 337.441L1050.85 338.708C1050.42 338.958 1050.28 339.514 1050.54 339.871L1050.59 339.94L1052.15 341.599C1052.29 341.744 1052.35 341.945 1052.33 342.155L1052.32 342.246L1051.09 348.02C1051 348.446 1050.59 348.755 1050.19 348.713L1042.06 347.859C1041.68 347.818 1041.43 347.482 1041.47 347.09L1041.48 347.011L1050.35 347.943Z" fill="white"/>
<path d="M1051.33 343.323L1050.35 347.943L1042.22 347.089L1043.21 342.469L1051.33 343.323Z" fill="white"/>
<g opacity="0.9">
<path d="M716 129.329C716.25 127.214 718.17 125.703 720.288 125.954L973.973 155.96C976.091 156.211 977.605 158.128 977.355 160.243C977.105 162.358 975.185 163.869 973.067 163.618L719.382 133.612C717.264 133.361 715.75 131.444 716 129.329Z" fill="#D9D9D9"/>
<path d="M714.084 145.528C714.315 143.576 716.087 142.181 718.042 142.413L927.48 167.186C929.435 167.417 930.833 169.187 930.602 171.139C930.371 173.091 928.599 174.486 926.644 174.255L717.206 149.482C715.251 149.25 713.853 147.48 714.084 145.528Z" fill="#D9D9D9"/>
<path d="M712.168 161.728C712.418 159.613 714.338 158.102 716.456 158.353L1033.86 195.896C1035.98 196.147 1037.49 198.064 1037.24 200.179C1036.99 202.293 1035.07 203.804 1032.95 203.554L715.55 166.011C713.432 165.76 711.918 163.843 712.168 161.728Z" fill="#D9D9D9"/>
<path d="M710.252 177.927C710.483 175.975 712.255 174.58 714.21 174.812L965.535 204.539C967.49 204.771 968.888 206.541 968.657 208.493C968.426 210.445 966.654 211.84 964.699 211.608L713.374 181.881C711.419 181.649 710.021 179.879 710.252 177.927Z" fill="#D9D9D9"/>
<path d="M708.336 194.127C708.586 192.012 710.505 190.501 712.623 190.752L958.049 219.781C960.167 220.032 961.681 221.949 961.431 224.064C961.181 226.179 959.261 227.69 957.143 227.439L711.718 198.409C709.6 198.159 708.086 196.242 708.336 194.127Z" fill="#D9D9D9"/>
<path d="M706.42 210.326C706.65 208.374 708.422 206.979 710.377 207.211L970.552 237.985C972.507 238.216 973.905 239.986 973.674 241.938C973.443 243.89 971.671 245.285 969.716 245.054L709.541 214.28C707.586 214.048 706.189 212.278 706.42 210.326Z" fill="#D9D9D9"/>
<path d="M704.503 226.526C704.754 224.411 706.673 222.9 708.791 223.151L1045.66 262.997C1047.78 263.247 1049.29 265.165 1049.04 267.279C1048.79 269.394 1046.87 270.905 1044.76 270.655L707.885 230.808C705.767 230.558 704.253 228.641 704.503 226.526Z" fill="#D9D9D9"/>
<path d="M697.605 284.844C697.855 282.729 699.775 281.218 701.893 281.469L839.945 297.798C842.063 298.049 843.577 299.966 843.327 302.081C843.077 304.195 841.157 305.706 839.039 305.456L700.987 289.127C698.869 288.876 697.355 286.959 697.605 284.844Z" fill="#D9D9D9"/>
<path d="M695.863 299.571C696.114 297.456 698.033 295.945 700.151 296.195L789.826 306.803C791.944 307.053 793.458 308.97 793.208 311.085C792.958 313.2 791.038 314.711 788.92 314.461L699.245 303.853C697.127 303.603 695.613 301.686 695.863 299.571Z" fill="#D9D9D9"/>
</g>
</g>
<path d="M1189.91 263.628L1207.75 178.91L1129.51 170.398L715.561 255.164L1189.91 263.628Z" fill="url(#paint3_linear_4245_154686)" stroke="url(#paint4_linear_4245_154686)" stroke-width="1.84737"/>
<g clip-path="url(#clip1_4245_154686)">
<path d="M741.619 232.126C746.354 241.246 759.005 269.197 770.143 306.031C784.303 352.862 757.52 382.83 753.902 386.674C752.568 388.092 749.815 390.166 746.403 392.509C742.971 394.865 738.818 397.528 734.638 400.129C726.277 405.331 717.788 410.296 714.701 412.078L669.682 438.07L669.557 438.086C666.965 438.417 662.671 439.179 658.243 440.384C653.802 441.592 649.288 443.23 646.214 445.292C643.029 447.428 586.936 479.875 518.17 519.534C449.381 559.206 367.863 606.124 313.781 637.225L243.648 677.716L242.885 676.735L349.596 567.157L349.652 567.1L349.721 567.059L741.748 330.121L740.436 232.423L741.619 232.126Z" fill="url(#paint5_linear_4245_154686)" stroke="url(#paint6_linear_4245_154686)" stroke-width="1.25333"/>
<path d="M667.051 404.441C660.733 408.089 653.326 409.638 646.092 409.401C644.523 409.349 642.334 409.813 639.742 410.675C637.175 411.529 634.306 412.742 631.411 414.111C625.624 416.849 619.806 420.175 616.224 422.4L306.095 601.454C263.101 626.276 208.124 611.546 183.301 568.552L65.6179 364.718C58.0398 351.592 62.5376 334.808 75.6633 327.23L459.769 105.467C466.605 101.52 472.188 98.4899 476.922 92.1818C480.962 86.7979 488.018 82.967 491.114 81.6752C506.628 72.6127 539.326 53.5877 546.28 49.8265C550.549 47.517 555.553 44.4724 560.65 42.1408C565.757 39.8045 571.156 38.0829 576.337 38.484C586.154 39.2439 602.218 39.4288 620.661 53.3952C629.735 60.2665 636.811 65.3926 645.622 74.4457C654.424 83.4891 664.943 96.4332 680.988 118.955C698.289 143.241 727.617 201.648 741.328 230.301L742.605 232.979L742.614 232.997L742.622 233.017C753.674 258.834 761.954 286.407 762.357 302.499C762.606 312.481 761.99 319.722 760.649 326.029C759.307 332.334 757.248 337.664 754.665 343.805C752.524 348.893 748.658 353.584 744.753 357.359C740.841 361.141 736.823 364.068 734.294 365.619L667.051 404.441Z" fill="url(#paint7_linear_4245_154686)" stroke="url(#paint8_linear_4245_154686)" stroke-width="2.1157"/>
<path d="M717.759 350.55L328.197 575.464L154.645 675.664L-15.2551 390.335L546.435 66.0432C550.784 63.5326 558.883 58.7535 561.508 58.1861L561.551 58.1767C564.466 57.5463 576.625 54.9161 588.509 64.4177C600.453 73.9675 620.047 92.3841 637.55 116.857C655.053 141.33 677.836 181.521 691.662 206.746C702.723 226.927 713.076 252.541 716.87 262.825C722.605 280.001 733.642 317.365 731.911 329.413C730.18 341.461 721.755 348.525 717.759 350.55Z" fill="url(#paint9_linear_4245_154686)" stroke="url(#paint10_linear_4245_154686)" stroke-width="2.1157"/>
<path d="M642.013 366.879L322.741 551.211L258.676 588.199C254.932 590.361 250.145 589.078 247.983 585.334L114.253 353.706C112.091 349.962 113.374 345.174 117.118 343.013L150.9 323.509L505.236 118.933C509.034 116.74 513.894 118.096 516.008 121.939L644.958 356.327C647.012 360.059 645.703 364.749 642.013 366.879Z" fill="url(#paint11_linear_4245_154686)" stroke="url(#paint12_linear_4245_154686)" stroke-width="1.92653"/>
<path d="M657.544 409.13C660.657 411.479 665.63 414.371 668.742 423.96C670.717 430.049 669.251 435.365 668.961 437.36" stroke="#63606F" stroke-width="1.25333"/>
<path d="M586.632 125.417C589.287 128.417 594.413 127.25 597.594 125.413C604.077 121.67 601.797 115.712 598.965 112.815C596.132 109.917 589.265 111.352 586.422 113.731C583.578 116.111 582.99 121.3 586.632 125.417Z" stroke="white" stroke-width="1.25333"/>
<path d="M618.023 451.612L566.076 481.604C566.076 481.604 563.148 483.259 561.341 483.811C558.502 484.676 552.637 485.315 549.706 480.091C546.774 474.868 551.424 470.103 554.115 468.374L568.743 459.929C583.413 451.072 613.741 433.021 617.685 431.672C622.615 429.985 628.462 433.356 629.315 439.4C629.998 444.235 622.072 449.556 618.023 451.612Z" fill="#3C3645" stroke="#88848E" stroke-width="1.25333"/>
<path d="M627.376 435.011C624.304 434.394 623.051 432.991 613.902 437.799C604.753 442.608 568.171 464.365 554.711 472.186C553.186 472.988 549.201 475.424 549.419 479.431" stroke="#88848E" stroke-width="1.25333"/>
<path d="M660.693 221.267C651.007 204.369 631.485 170.386 630.884 169.637C629.055 166.581 625.83 163.805 620.602 167.35C616.42 170.186 617.596 174.743 618.707 176.667C627.743 192.499 645.81 225.683 649.064 229.246C652.216 232.697 654.327 232.885 659.123 229.87C662.402 227.808 661.536 223.276 660.693 221.267Z" fill="#2B2B2B" stroke="white" stroke-width="1.25333"/>
<path d="M682.971 300.542C685.587 303.044 690.115 301.608 692.841 299.716C698.398 295.858 695.898 290.665 693.129 288.268C690.361 285.872 684.285 287.68 681.904 290.036C679.523 292.392 679.383 297.108 682.971 300.542Z" stroke="white" stroke-width="1.25333"/>
<mask id="mask2_4245_154686" style="mask-type:alpha" maskUnits="userSpaceOnUse" x="277" y="189" width="265" height="260">
<rect x="452.367" y="189.758" width="186.382" height="199.24" transform="rotate(61.399 452.367 189.758)" fill="url(#paint13_linear_4245_154686)"/>
</mask>
<g mask="url(#mask2_4245_154686)">
<g clip-path="url(#clip2_4245_154686)">
<path fill-rule="evenodd" clip-rule="evenodd" d="M447.336 207.016L451.408 214.362L444.062 218.435L448.134 225.782L440.787 229.854L436.715 222.507L422.021 230.652L426.094 237.999L411.4 246.144L415.472 253.49L408.126 257.563L404.053 250.216L396.706 254.288L404.851 268.982L397.504 273.054L393.432 265.708L386.085 269.78L398.302 291.82L412.996 283.676L408.923 276.329L416.27 272.256L412.198 264.91L419.545 260.837L415.472 253.49L430.166 245.346L434.238 252.692L426.892 256.765L430.964 264.112L438.311 260.039L442.383 267.386L427.69 275.531L431.762 282.878L424.415 286.95L428.488 294.297L435.834 290.224L431.762 282.878L446.456 274.733L450.528 282.08L457.875 278.007L461.947 285.354L469.294 281.282L465.222 273.935L457.875 278.007L453.802 270.66L461.149 266.588L457.077 259.241L471.77 251.096L475.843 258.443L468.496 262.516L472.568 269.862L479.915 265.79L483.988 273.137L476.641 277.209L480.713 284.556L488.06 280.484L492.132 287.83L477.439 295.975L473.366 288.628L458.673 296.773L466.818 311.467L459.471 315.539L463.543 322.886L456.196 326.958L460.269 334.305L438.228 346.523L434.156 339.176L419.462 347.321L415.39 339.974L422.737 335.901L418.664 328.554L440.705 316.337L444.777 323.684L437.43 327.756L441.503 335.103L448.85 331.031L444.777 323.684L452.124 319.612L448.052 312.265L455.398 308.192L451.326 300.846L443.979 304.918L439.907 297.571L425.213 305.716L417.068 291.022L409.721 295.095L413.794 302.442L406.447 306.514L418.664 328.554L411.317 332.627L407.245 325.28L399.898 329.352L391.753 314.659L399.1 310.586L395.028 303.24L387.681 307.312L383.609 299.965L368.915 308.11L364.843 300.763L372.189 296.691L368.117 289.344L375.464 285.272L371.391 277.925L378.738 273.852L370.593 259.159L363.247 263.231L371.391 277.925L364.045 281.997L355.9 267.304L348.553 271.376L352.625 278.723L323.238 295.012L319.166 287.666L311.819 291.738L319.964 306.432L342.004 294.214L346.077 301.561L360.77 293.416L364.843 300.763L357.496 304.836L361.568 312.182L368.915 308.11L372.987 315.457L365.641 319.529L369.713 326.876L377.06 322.804L381.132 330.15L373.785 334.223L377.858 341.57L370.511 345.642L374.583 352.989L359.89 361.134L355.817 353.787L363.164 349.714L359.092 342.368L366.439 338.295L358.294 323.602L350.947 327.674L355.019 335.021L347.673 339.093L355.817 353.787L348.471 357.859L352.543 365.206L359.89 361.134L368.035 375.827L375.381 371.755L379.454 379.102L386.801 375.029L382.728 367.683L397.422 359.538L401.494 366.885L416.188 358.74L412.115 351.393L419.462 347.321L423.535 354.667L438.228 346.523L442.301 353.869L427.607 362.014L435.752 376.708L428.405 380.78L432.477 388.127L425.131 392.199L421.058 384.853L413.711 388.925L417.784 396.272L425.131 392.199L433.275 406.893L425.929 410.965L421.856 403.619L414.509 407.691L418.582 415.038L411.235 419.11L403.09 404.417L410.437 400.344L398.22 378.304L390.873 382.376L394.945 389.723L387.599 393.795L383.526 386.449L376.179 390.521L372.107 383.174L364.76 387.247L368.833 394.593L376.179 390.521L380.252 397.868L372.905 401.94L381.05 416.634L388.397 412.561L392.469 419.908L385.122 423.981L389.195 431.327L381.848 435.4L300.4 288.464L447.336 207.016ZM455.481 221.709L459.553 229.056L452.206 233.128L448.134 225.782L455.481 221.709ZM463.626 236.403L467.698 243.75L453.004 251.894L448.932 244.548L463.626 236.403ZM496.205 295.177L500.277 302.524L492.93 306.596L488.858 299.25L496.205 295.177ZM504.35 309.871L508.422 317.218L501.075 321.29L505.148 328.637L490.454 336.782L486.382 329.435L493.728 325.363L489.656 318.016L474.962 326.161L483.107 340.854L468.414 348.999L464.341 341.652L471.688 337.58L463.543 322.886L492.93 306.596L497.003 313.943L504.35 309.871ZM512.494 324.565L516.567 331.911L509.22 335.984L505.148 328.637L512.494 324.565ZM520.639 339.258L524.712 346.605L517.365 350.677L521.437 358.024L514.09 362.097L505.946 347.403L498.599 351.475L506.744 366.169L499.397 370.241L495.324 362.895L487.978 366.967L492.05 374.314L484.703 378.386L480.631 371.039L473.284 375.112L477.356 382.459L470.01 386.531L465.937 379.184L458.59 383.257L454.518 375.91L461.865 371.837L457.792 364.491L465.139 360.418L469.212 367.765L476.558 363.693L472.486 356.346L487.18 348.201L483.107 340.854L490.454 336.782L494.526 344.129L509.22 335.984L513.292 343.331L520.639 339.258ZM444.86 237.201L448.932 244.548L441.585 248.62L437.513 241.273L444.86 237.201ZM453.004 251.894L457.077 259.241L449.73 263.314L445.658 255.967L453.004 251.894ZM477.439 295.975L481.511 303.322L474.164 307.394L470.092 300.048L477.439 295.975ZM443.979 304.918L448.052 312.265L440.705 316.337L436.632 308.99L443.979 304.918ZM425.213 305.716L429.286 313.063L421.939 317.135L417.866 309.788L425.213 305.716ZM449.648 349.797L453.72 357.144L446.373 361.216L442.301 353.869L449.648 349.797ZM385.287 251.014L377.94 255.086L382.013 262.433L389.359 258.361L385.287 251.014ZM446.373 361.216L450.446 368.563L443.099 372.635L439.026 365.289L446.373 361.216ZM458.59 383.257L462.663 390.603L455.316 394.676L451.243 387.329L458.59 383.257ZM411.317 332.627L415.39 339.974L408.043 344.046L403.971 336.699L411.317 332.627ZM443.897 391.401L447.969 398.748L440.622 402.821L436.55 395.474L443.897 391.401ZM387.681 307.312L391.753 314.659L384.407 318.731L380.334 311.384L387.681 307.312ZM399.898 329.352L403.971 336.699L396.624 340.772L392.551 333.425L399.898 329.352ZM408.043 344.046L412.115 351.393L404.769 355.465L400.696 348.118L408.043 344.046ZM396.624 340.772L400.696 348.118L393.349 352.191L389.277 344.844L396.624 340.772ZM385.205 337.497L389.277 344.844L381.93 348.916L377.858 341.57L385.205 337.497ZM381.93 348.916L386.003 356.263L378.656 360.336L374.583 352.989L381.93 348.916ZM399.018 397.07L403.09 404.417L388.397 412.561L380.252 397.868L387.599 393.795L391.671 401.142L399.018 397.07ZM338.73 305.634L331.383 309.706L335.455 317.053L328.109 321.125L336.253 335.819L343.6 331.746L339.528 324.4L346.875 320.327L338.73 305.634ZM399.816 415.836L403.888 423.183L396.541 427.255L392.469 419.908L399.816 415.836Z" fill="white"/>
</g>
</g>
<path d="M391.727 200.5L504.73 409.297" stroke="url(#paint14_linear_4245_154686)" stroke-width="2.31536"/>
<path d="M445.857 195.339C450.751 192.646 456.901 194.471 459.534 199.397L539.702 349.409C542.29 354.251 540.503 360.273 535.693 362.92L491.925 387.004L402.304 219.305L445.857 195.339Z" fill="url(#paint15_linear_4245_154686)" stroke="url(#paint16_linear_4245_154686)" stroke-width="2.31536"/>
</g>
<defs>
<linearGradient id="paint0_linear_4245_154686" x1="630.874" y1="193.887" x2="1130.87" y2="232.596" gradientUnits="userSpaceOnUse">
<stop stop-color="#737373" stop-opacity="0"/>
<stop offset="1" stop-color="#D9D9D9"/>
</linearGradient>
<linearGradient id="paint1_linear_4245_154686" x1="1375.16" y1="501.771" x2="945.017" y2="402.475" gradientUnits="userSpaceOnUse">
<stop stop-color="#D9D9D9"/>
<stop offset="1" stop-color="#737373" stop-opacity="0"/>
</linearGradient>
<linearGradient id="paint2_linear_4245_154686" x1="581.31" y1="195.771" x2="612.225" y2="202.343" gradientUnits="userSpaceOnUse">
<stop stop-color="white"/>
<stop offset="1" stop-color="white" stop-opacity="0.3"/>
</linearGradient>
<linearGradient id="paint3_linear_4245_154686" x1="707.319" y1="210.138" x2="1150.59" y2="291.439" gradientUnits="userSpaceOnUse">
<stop stop-color="#1DA593"/>
<stop offset="1" stop-color="#1DA593" stop-opacity="0"/>
</linearGradient>
<linearGradient id="paint4_linear_4245_154686" x1="794.194" y1="278.098" x2="1017.52" y2="351.865" gradientUnits="userSpaceOnUse">
<stop stop-color="#4FE2CE"/>
<stop offset="1" stop-color="#4FE2CE" stop-opacity="0"/>
</linearGradient>
<linearGradient id="paint5_linear_4245_154686" x1="551.33" y1="429.833" x2="406.781" y2="505.999" gradientUnits="userSpaceOnUse">
<stop stop-color="#36353D"/>
<stop offset="1" stop-color="#36353D" stop-opacity="0"/>
</linearGradient>
<linearGradient id="paint6_linear_4245_154686" x1="589.977" y1="421.363" x2="399.421" y2="518.455" gradientUnits="userSpaceOnUse">
<stop stop-color="#8E8B9B"/>
<stop offset="1" stop-color="#8E8B9B" stop-opacity="0"/>
</linearGradient>
<linearGradient id="paint7_linear_4245_154686" x1="586.948" y1="262.744" x2="338.987" y2="398.941" gradientUnits="userSpaceOnUse">
<stop stop-color="#1E1E1E"/>
<stop offset="0.605085" stop-color="#605C72" stop-opacity="0.3"/>
<stop offset="0.789295" stop-color="#605C72" stop-opacity="0.05"/>
<stop offset="0.938169" stop-color="#605C72" stop-opacity="0"/>
</linearGradient>
<linearGradient id="paint8_linear_4245_154686" x1="531.825" y1="280.048" x2="333.483" y2="380.618" gradientUnits="userSpaceOnUse">
<stop stop-color="white"/>
<stop offset="1" stop-color="white" stop-opacity="0"/>
</linearGradient>
<linearGradient id="paint9_linear_4245_154686" x1="560.543" y1="247.297" x2="209.459" y2="286.95" gradientUnits="userSpaceOnUse">
<stop stop-color="#2B2B2B"/>
<stop offset="1" stop-color="#605C72" stop-opacity="0"/>
</linearGradient>
<linearGradient id="paint10_linear_4245_154686" x1="571.573" y1="242.982" x2="355.227" y2="367.889" gradientUnits="userSpaceOnUse">
<stop stop-color="white"/>
<stop offset="1" stop-color="white" stop-opacity="0"/>
</linearGradient>
<linearGradient id="paint11_linear_4245_154686" x1="473.325" y1="318.029" x2="230.635" y2="454.931" gradientUnits="userSpaceOnUse">
<stop stop-color="#141421"/>
<stop offset="1" stop-color="#111128" stop-opacity="0"/>
</linearGradient>
<linearGradient id="paint12_linear_4245_154686" x1="582.935" y1="237.531" x2="352.674" y2="370.306" gradientUnits="userSpaceOnUse">
<stop stop-color="#1C1C2D"/>
<stop offset="1" stop-opacity="0"/>
</linearGradient>
<linearGradient id="paint13_linear_4245_154686" x1="538.148" y1="224.256" x2="495.393" y2="382.628" gradientUnits="userSpaceOnUse">
<stop stop-color="#D9D9D9"/>
<stop offset="1" stop-color="#737373" stop-opacity="0.1"/>
</linearGradient>
<linearGradient id="paint14_linear_4245_154686" x1="397.815" y1="206.27" x2="430.954" y2="415.935" gradientUnits="userSpaceOnUse">
<stop stop-color="#4FE2CE" stop-opacity="0.194709"/>
<stop offset="0.191376" stop-color="#4FE2CE"/>
<stop offset="0.85185" stop-color="#4FE2CE"/>
<stop offset="1" stop-color="#4FE2CE" stop-opacity="0"/>
</linearGradient>
<linearGradient id="paint15_linear_4245_154686" x1="423.961" y1="288.473" x2="494.378" y2="251.039" gradientUnits="userSpaceOnUse">
<stop stop-color="#1DA593"/>
<stop offset="1" stop-color="#1DA593" stop-opacity="0"/>
</linearGradient>
<linearGradient id="paint16_linear_4245_154686" x1="373.73" y1="323.04" x2="486.373" y2="262.216" gradientUnits="userSpaceOnUse">
<stop stop-color="#4FE2CE"/>
<stop offset="1" stop-color="#4FE2CE" stop-opacity="0"/>
</linearGradient>
<clipPath id="clip0_4245_154686">
<rect width="81.1535" height="85.8121" fill="white" transform="matrix(0.994522 0.104528 -0.207912 0.978148 1127.23 169.781)"/>
</clipPath>
<clipPath id="clip1_4245_154686">
<rect width="538.931" height="706.24" fill="white" transform="translate(611.625 -69) rotate(60)"/>
</clipPath>
<clipPath id="clip2_4245_154686">
<rect width="168" height="168" fill="white" transform="translate(447.336 207.016) rotate(61)"/>
</clipPath>
</defs>
</svg>
