<svg width="86" height="86" viewBox="0 0 86 86" fill="none" xmlns="http://www.w3.org/2000/svg">
<path d="M60.9141 3.58203L65.8411 3.58203C74.9941 3.58203 82.4141 11.002 82.4141 20.1549L82.4141 25.082C82.4141 26.0715 81.6119 26.8737 80.6224 26.8737C79.6329 26.8737 78.8307 26.0715 78.8307 25.082L78.8307 20.1549C78.8307 12.981 73.0151 7.16536 65.8411 7.16536L60.9141 7.16536C59.9246 7.16536 59.1224 6.36321 59.1224 5.3737C59.1224 4.38419 59.9246 3.58203 60.9141 3.58203Z" fill="white"/>
<path d="M82.4141 60.918L82.4141 65.8451C82.4141 74.998 74.9941 82.418 65.8411 82.418L60.9141 82.418C59.9246 82.418 59.1224 81.6158 59.1224 80.6263C59.1224 79.6368 59.9246 78.8346 60.9141 78.8346L65.8411 78.8346C73.0151 78.8346 78.8307 73.019 78.8307 65.8451L78.8307 60.918C78.8307 59.9285 79.6329 59.1263 80.6224 59.1263C81.6119 59.1263 82.4141 59.9285 82.4141 60.918Z" fill="white"/>
<path d="M3.58594 25.082V20.1549C3.58594 11.002 11.0059 3.58203 20.1589 3.58203H25.0859C26.0754 3.58203 26.8776 4.38419 26.8776 5.3737C26.8776 6.36321 26.0754 7.16536 25.0859 7.16536H20.1589C12.9849 7.16536 7.16927 12.981 7.16927 20.1549V25.082C7.16927 26.0715 6.36711 26.8737 5.3776 26.8737C4.38809 26.8737 3.58594 26.0715 3.58594 25.082Z" fill="white"/>
<path d="M25.0859 82.418L20.1589 82.418C11.0059 82.418 3.58594 74.998 3.58594 65.8451L3.58594 60.918C3.58594 59.9285 4.38809 59.1263 5.3776 59.1263C6.36711 59.1263 7.16927 59.9285 7.16927 60.918L7.16927 65.8451C7.16927 73.019 12.9849 78.8346 20.1589 78.8346L25.0859 78.8346C26.0754 78.8346 26.8776 79.6368 26.8776 80.6263C26.8776 81.6158 26.0754 82.418 25.0859 82.418Z" fill="white"/>
<path d="M65.9939 29.862V40.5373H60.9174V29.862C60.9174 26.8753 59.1257 25.0836 56.1398 25.0836H29.862C26.8757 25.0836 25.0841 26.8753 25.0841 29.862V40.5373H20.0078V29.862C20.0078 24.4197 24.4197 20.0078 29.862 20.0078H56.1398L56.6466 20.0206C61.8534 20.2844 65.9939 24.5897 65.9939 29.862Z" fill="white"/>
<path d="M20.0061 55.3168L20.0061 52.1068C20.0061 50.705 21.1425 49.5686 22.5443 49.5686C23.9462 49.5686 25.0826 50.705 25.0826 52.1068L25.0826 55.3168C25.0826 59.1247 26.8743 60.9164 30.0803 60.9164L56.3581 60.9164C60.0201 60.9164 60.9159 59.1247 60.9159 55.3168L60.9159 52.1067C60.9159 50.7049 62.0523 49.5686 63.4541 49.5686C64.8558 49.5686 65.9922 50.7049 65.9922 52.1067L65.9922 55.3168C65.9922 60.7591 61.8004 65.9922 56.3581 65.9922L30.0803 65.9922L29.5735 65.9794C24.3667 65.7156 20.0061 60.5892 20.0061 55.3168Z" fill="white"/>
<rect x="10.75" y="39.418" width="64.5" height="5.375" rx="2.6875" fill="white"/>
</svg>
