<svg width="79" height="79" viewBox="0 0 79 79" fill="none" xmlns="http://www.w3.org/2000/svg">
<path d="M57.3281 -9.39795e-07L62.2552 -7.24425e-07C71.4082 -3.24336e-07 78.8281 7.41995 78.8281 16.5729L78.8281 21.5C78.8281 22.4895 78.026 23.2917 77.0365 23.2917C76.0469 23.2917 75.2448 22.4895 75.2448 21.5L75.2448 16.5729C75.2448 9.39897 69.4292 3.58333 62.2552 3.58333L57.3281 3.58333C56.3386 3.58333 55.5365 2.78118 55.5365 1.79167C55.5365 0.802155 56.3386 -9.83048e-07 57.3281 -9.39795e-07Z" fill="black"/>
<path d="M78.8281 57.3359L78.8281 62.263C78.8281 71.416 71.4082 78.8359 62.2552 78.8359L57.3281 78.8359C56.3386 78.8359 55.5365 78.0338 55.5365 77.0443C55.5365 76.0548 56.3386 75.2526 57.3281 75.2526L62.2552 75.2526C69.4292 75.2526 75.2448 69.437 75.2448 62.263L75.2448 57.3359C75.2448 56.3464 76.047 55.5443 77.0365 55.5443C78.026 55.5443 78.8281 56.3464 78.8281 57.3359Z" fill="black"/>
<path d="M0 21.5V16.5729C0 7.41995 7.41995 0 16.5729 0H21.5C22.4895 0 23.2917 0.802156 23.2917 1.79167C23.2917 2.78118 22.4895 3.58333 21.5 3.58333H16.5729C9.39897 3.58333 3.58333 9.39897 3.58333 16.5729V21.5C3.58333 22.4895 2.78118 23.2917 1.79167 23.2917C0.802156 23.2917 0 22.4895 0 21.5Z" fill="black"/>
<path d="M21.5 78.8359L16.5729 78.8359C7.41995 78.8359 -3.24336e-07 71.416 -7.24425e-07 62.263L-9.39795e-07 57.3359C-9.83048e-07 56.3464 0.802155 55.5443 1.79167 55.5443C2.78118 55.5443 3.58333 56.3464 3.58333 57.3359L3.58333 62.263C3.58333 69.437 9.39897 75.2526 16.5729 75.2526L21.5 75.2526C22.4895 75.2526 23.2917 76.0548 23.2917 77.0443C23.2917 78.0338 22.4895 78.8359 21.5 78.8359Z" fill="black"/>
<path d="M62.408 26.2799V36.9553H57.3315V26.2799C57.3315 23.2933 55.5398 21.5016 52.5538 21.5016H26.276C23.2898 21.5016 21.4981 23.2933 21.4981 26.2799V36.9553H16.4219V26.2799C16.4219 20.8376 20.8337 16.4258 26.276 16.4258H52.5538L53.0606 16.4386C58.2674 16.7024 62.408 21.0076 62.408 26.2799Z" fill="black"/>
<path d="M16.4201 51.7348L16.4201 48.5248C16.4201 47.123 17.5566 45.9865 18.9584 45.9865C20.3603 45.9865 21.4967 47.123 21.4967 48.5248L21.4967 51.7348C21.4967 55.5427 23.2883 57.3344 26.4943 57.3344L52.7721 57.3344C56.4342 57.3344 57.33 55.5427 57.33 51.7348L57.33 48.5247C57.33 47.1229 58.4664 45.9865 59.8681 45.9865C61.2699 45.9865 62.4063 47.1229 62.4063 48.5247L62.4062 51.7348C62.4062 57.1771 58.2144 62.4102 52.7721 62.4102L26.4943 62.4102L25.9875 62.3973C20.7807 62.1335 16.4201 57.0071 16.4201 51.7348Z" fill="black"/>
<rect x="7.16406" y="35.8359" width="64.5" height="5.375" rx="2.6875" fill="black"/>
</svg>
