<svg width="1045" height="450" viewBox="0 100 1045 400" fill="none" xmlns="http://www.w3.org/2000/svg">
<mask id="mask0_8252_95061" style="mask-type:alpha" maskUnits="userSpaceOnUse" x="-1" y="144" width="1046" height="407">
<path d="M1044.5 551H-0.5V144H476.352C476.116 146.123 475.996 148.267 475.996 150.424C475.996 194.255 462.204 208.451 449.233 221.798C447.956 223.193 447.114 224.927 446.808 226.791C446.681 227.563 446.62 234.904 446.68 235.676C446.68 249.645 486.065 264.969 534.649 264.969C583.234 264.969 622.62 248.645 622.62 234.676C622.706 233.833 622.631 227.65 622.493 226.804C622.19 224.94 621.35 223.204 620.075 221.808C607.075 208.451 593.292 194.255 593.292 150.424C593.292 148.267 593.172 146.123 592.937 144H1044.5V551Z" fill="url(#paint0_linear_8252_95061)"/>
</mask>
<g mask="url(#mask0_8252_95061)">
<path d="M977.871 293.551C978.498 312.37 982.26 353.145 972.856 388.901C963.452 424.657 933.358 429.048 912.669 429.048C897.629 429.048 790.755 428.853 734.008 429.029C730.311 429.04 726.702 427.953 723.627 425.901C720.571 423.863 716.981 422.775 713.308 422.775L531.483 422.775" stroke="url(#paint1_linear_8252_95061)"/>
<path d="M970.346 305.471C974.109 424.658 927.715 417.131 911.414 417.131L112.678 417.13C99.5118 417.13 92.6153 410.231 95.1232 395.175C97.631 380.12 116.439 326.172 127.098 300.453C137.756 274.733 141.518 263.442 157.191 237.095C172.865 210.748 194.808 207.611 218.005 207.611C241.203 207.611 903.89 206.983 917.056 207.611C930.222 208.238 967.067 201.591 970.346 305.471Z" stroke="white"/>
<path d="M781.012 484.879C762.204 484.879 732.11 468.569 709.54 468.569C516.652 468.569 323.76 466.06 130.865 466.06C114.564 466.06 109.548 461.041 101.398 456.023C93.2475 451.005 81.3355 416.503 83.8433 395.174C86.3511 373.846 128.357 270.968 147.165 235.839C165.974 200.71 202.337 200.083 209.233 200.083C216.13 200.083 285.094 200.71 345.282 200.083C405.469 199.456 884.457 202.593 910.789 202.593C936.525 202.593 954.049 210.12 962.201 225.802C967.262 235.538 977.246 271.596 979.754 312.37C982.262 353.145 976.37 418.385 969.725 451.632C966.339 468.569 953.424 484.879 927.719 484.879L781.012 484.879Z" stroke="white" stroke-width="2"/>
<path d="M902.73 222.048C902.68 218.218 899.561 215.139 895.73 215.139L227.182 215.139C224.298 215.139 221.709 216.908 220.661 219.595L149.729 401.422C148.195 405.356 151.096 409.603 155.319 409.603L899.071 409.603C902.414 409.603 905.113 406.869 905.07 403.525L902.73 222.048Z" fill="#1C192D"/>
<path d="M902.73 222.048C902.68 218.218 899.561 215.139 895.73 215.139L227.182 215.139C224.298 215.139 221.709 216.908 220.661 219.595L149.729 401.422C148.195 405.356 151.096 409.603 155.319 409.603L899.071 409.603C902.414 409.603 905.113 406.869 905.07 403.525L902.73 222.048Z" stroke="white" stroke-width="2"/>
<path d="M908.91 438.459L879.563 438.459C878.458 438.459 877.563 439.354 877.563 440.459L877.563 454.023C877.563 455.128 878.458 456.023 879.563 456.023L908.91 456.023M908.91 438.459L908.91 456.023M908.91 438.459C921.449 438.459 949.035 440.341 960.32 424.658M908.91 456.023C919.569 456.442 950.289 457.278 956.559 443.477" stroke="url(#paint2_linear_8252_95061)"/>
<rect width="85.2653" height="16.3099" rx="6.5" transform="matrix(-1 -8.74228e-08 -8.74228e-08 1 833.672 440.223)" stroke="white"/>
<path d="M770.539 456.109L770.539 457.609C770.539 458.99 771.658 460.109 773.039 460.109L809.039 460.109C810.42 460.109 811.539 458.99 811.539 457.609L811.539 456.109" stroke="white"/>
<rect width="85.2653" height="16.3099" rx="6.5" transform="matrix(-1 -8.74228e-08 -8.74228e-08 1 683.836 437.203)" stroke="white" stroke-width="2"/>
<path d="M597.942 445.358L597.942 441.594C597.942 437.091 601.591 433.439 606.092 433.439L676.311 433.439C680.812 433.439 684.461 437.091 684.461 441.594L684.461 444.731" stroke="white"/>
<ellipse cx="10.0312" cy="5.64573" rx="10.0312" ry="5.64573" transform="matrix(-1 -8.74228e-08 -8.74228e-08 1 942.766 366.945)" stroke="white" stroke-width="2"/>
<ellipse cx="4.38865" cy="2.50921" rx="4.38865" ry="2.50921" transform="matrix(-1 -8.74228e-08 -8.74228e-08 1 935.242 267.832)" stroke="white" stroke-width="2"/>
<ellipse cx="4.38865" cy="2.50921" rx="4.38865" ry="2.50921" transform="matrix(-1 -8.74228e-08 -8.74228e-08 1 935.242 257.795)" stroke="white" stroke-width="2"/>
<path d="M955.36 289.756C955.327 288.725 954.482 287.906 953.45 287.906C952.395 287.906 951.539 288.762 951.539 289.817L951.539 324.332C951.539 325.694 952.644 326.799 954.006 326.799C955.4 326.799 956.517 325.645 956.473 324.252L955.36 289.756Z" fill="white"/>
<rect width="10.0312" height="41.402" rx="5.0156" transform="matrix(-1 -8.74228e-08 -8.74228e-08 1 936.492 285.396)" stroke="white" stroke-width="2"/>
<path d="M577.367 443.609C577.367 440.02 574.457 437.109 570.867 437.109L478.867 437.109C475.277 437.109 472.367 440.02 472.367 443.609L472.367 446.609C472.367 450.199 475.277 453.109 478.867 453.109L570.867 453.109C574.457 453.109 577.367 450.199 577.367 446.609L577.367 443.609Z" stroke="white" stroke-width="2"/>
<path d="M529.367 440.109L521.367 440.109L522.361 441.765C523.596 443.824 523.596 446.395 522.361 448.454L521.367 450.109L529.367 450.109L528.374 448.454C527.139 446.395 527.139 443.824 528.374 441.765L529.367 440.109Z" stroke="white" stroke-width="2"/>
<path d="M472.364 445.36L472.364 441.596C472.364 437.092 476.013 433.441 480.514 433.441L569.732 433.441C574.234 433.441 577.883 437.093 577.883 441.596L577.883 444.733" stroke="white"/>
</g>
<path d="M519.289 279.461C521.258 282.161 524.089 284.402 527.498 285.961C530.908 287.52 534.775 288.34 538.712 288.34C542.649 288.34 546.516 287.52 549.926 285.961C553.335 284.402 556.167 282.161 558.135 279.461M523.308 290.56C524.869 291.91 527.114 293.031 529.818 293.81C532.523 294.589 535.59 294.999 538.712 294.999C541.834 294.999 544.902 294.589 547.606 293.81C550.31 293.031 552.555 291.91 554.117 290.56" stroke="url(#paint3_linear_8252_95061)" stroke-width="3" stroke-linecap="round"/>
<path d="M623.621 149.604C623.621 127.906 615.63 109.038 603.643 93M442.709 149.604C442.709 127.906 450.7 109.038 462.687 93M635.83 129.626C635.83 116.437 630.946 104.968 623.621 95.2198M430.5 129.626C430.5 116.437 435.384 104.968 442.709 95.2198" stroke="url(#paint4_linear_8252_95061)" stroke-width="3" stroke-linecap="round"/>
<path d="M447.275 226.113C447.578 224.273 448.412 222.561 449.677 221.183C462.524 208.005 476.183 193.99 476.183 150.714C476.183 135.408 482.303 120.728 493.196 109.904C504.089 99.0806 518.864 93 534.269 93C549.674 93 564.448 99.0806 575.342 109.904C586.235 120.728 592.354 135.408 592.354 150.714C592.354 193.99 606.004 208.005 618.88 221.193C620.143 222.572 620.975 224.286 621.275 226.126C621.412 226.96 621.485 228.129 621.401 228.962C621.401 242.753 582.393 253.934 534.274 253.934C486.156 253.934 447.148 242.753 447.148 228.962C447.089 228.2 447.149 226.875 447.275 226.113Z" stroke="url(#paint5_linear_8252_95061)" stroke-width="3"/>
<path d="M456.161 213.926C454.993 215.142 454.223 216.654 453.943 218.278C453.827 218.95 453.771 220.12 453.826 220.792C453.826 232.967 489.84 242.837 534.266 242.837C578.691 242.837 614.705 232.967 614.705 220.792C614.784 220.057 614.716 219.025 614.59 218.289C614.312 216.664 613.544 215.151 612.378 213.934" stroke="url(#paint6_linear_8252_95061)" stroke-width="2"/>
<path d="M446.191 228.094C446.064 229.075 446.002 230.781 446.062 231.762C446.062 249.523 485.553 263.921 534.269 263.921C582.984 263.921 622.475 249.523 622.475 231.762C622.561 230.69 622.486 229.184 622.348 228.109" stroke="white" stroke-opacity="0.2"/>
<defs>
<linearGradient id="paint0_linear_8252_95061" x1="522" y1="209.5" x2="522" y2="396.5" gradientUnits="userSpaceOnUse">
<stop stop-color="#D9D9D9" stop-opacity="0.4"/>
<stop offset="1" stop-color="#D9D9D9"/>
</linearGradient>
<linearGradient id="paint1_linear_8252_95061" x1="675.054" y1="361.3" x2="531.483" y2="361.3" gradientUnits="userSpaceOnUse">
<stop stop-color="white"/>
<stop offset="1" stop-color="#999999" stop-opacity="0"/>
</linearGradient>
<linearGradient id="paint2_linear_8252_95061" x1="900.133" y1="442.223" x2="955.305" y2="439.09" gradientUnits="userSpaceOnUse">
<stop stop-color="white"/>
<stop offset="1" stop-color="#999999" stop-opacity="0"/>
</linearGradient>
<linearGradient id="paint3_linear_8252_95061" x1="518.764" y1="286.584" x2="518.764" y2="289.515" gradientUnits="userSpaceOnUse">
<stop stop-color="white"/>
<stop offset="1" stop-color="white" stop-opacity="0.5"/>
</linearGradient>
<linearGradient id="paint4_linear_8252_95061" x1="427.726" y1="118.948" x2="427.726" y2="129.626" gradientUnits="userSpaceOnUse">
<stop stop-color="white"/>
<stop offset="1" stop-color="white" stop-opacity="0.5"/>
</linearGradient>
<linearGradient id="paint5_linear_8252_95061" x1="534.274" y1="203.989" x2="534.274" y2="253.934" gradientUnits="userSpaceOnUse">
<stop stop-color="white"/>
<stop offset="1" stop-color="white" stop-opacity="0.5"/>
</linearGradient>
<linearGradient id="paint6_linear_8252_95061" x1="534.272" y1="213.926" x2="534.272" y2="242.837" gradientUnits="userSpaceOnUse">
<stop stop-color="white"/>
<stop offset="1" stop-color="white" stop-opacity="0.5"/>
</linearGradient>
</defs>
</svg>
