<svg width="1382" height="820" viewBox="0 0 1382 820" fill="none" xmlns="http://www.w3.org/2000/svg">
<mask id="mask0_5015_6030" style="mask-type:alpha" maskUnits="userSpaceOnUse" x="496" y="24" width="886" height="659">
<rect x="496.615" y="24.9922" width="885.253" height="657.016" fill="url(#paint0_linear_5015_6030)"/>
</mask>
<g mask="url(#mask0_5015_6030)">
<mask id="mask1_5015_6030" style="mask-type:alpha" maskUnits="userSpaceOnUse" x="847" y="299" width="535" height="390">
<path d="M1268.61 312.663C1269.84 299.562 1295.07 310.276 1309.65 299.572L1381.87 445.596L1238.87 688.26L1042.93 609.819L847.749 517.476C850.372 497.189 868.526 459.342 920.154 470.255C984.689 483.897 1194.33 496.88 1215.43 496.268C1236.54 495.656 1233.18 486.479 1235.62 479.443C1238.07 472.407 1265.74 343.173 1268.61 312.663Z" fill="url(#paint1_linear_5015_6030)"/>
</mask>
<g mask="url(#mask1_5015_6030)">
<path d="M1162.59 598.983L1150.08 578.432M1153.8 594.006L1147.95 584.394M1170.53 604.007L1151.94 573.466M1173.94 600.552L1154.07 568.674M1175.83 596.051L1156 563.459M1178.01 590.805L1157.95 557.847M1179.85 585.921L1159.81 553.008M1181.76 580.743L1161.69 547.758M1183.85 575.841L1163.85 542.984M1185.76 570.67L1165.7 537.708M1187.68 565.489L1167.78 532.807M1189.76 560.578L1169.7 527.629M1191.84 555.688L1171.61 522.456M1193.76 550.494L1173.53 517.277M1195.68 545.332L1175.61 512.375M1197.76 540.408L1177.53 507.197M1199.68 535.245L1179.45 502.021M1201.76 530.353L1181.53 497.12M1203.51 524.9L1183.44 491.944M1205.59 519.996L1185.53 487.041M1207.67 515.092L1187.46 481.887M1209.6 509.918L1189.53 476.96M1211.47 504.69L1191.44 471.788M1213.58 499.848L1193.52 466.887M1215.5 494.669L1194.77 460.611M1217.59 489.756L1195.85 454.061M1219.5 484.575L1196.94 447.533M1221.08 478.858L1198.18 441.236M1222.16 472.316L1199.26 434.687M1223.24 465.76L1200.34 428.137M1224.41 459.345L1201.53 421.776M1225.56 452.968L1202.67 415.314M1226.65 446.397L1203.75 408.763M1227.73 439.822L1204.83 402.22M1228.98 433.541L1206.07 395.938M1230.05 427.029L1207.15 389.39M1231.13 420.478L1208.23 382.839M1232.21 413.916L1209.42 376.463M1233.46 407.634L1210.56 370.014M1234.59 401.16L1211.71 363.585M1235.62 394.538L1212.89 357.186M1236.7 387.983L1213.97 350.64M1240.18 368.368L1217.37 330.902M1237.95 381.712L1215.05 344.092M1241.43 362.086L1221.7 329.678M1239.03 375.165L1216.29 337.816M1242.5 355.545L1229.93 334.886M1243.58 349.005L1238.16 340.092" stroke="white" stroke-width="1.34918" stroke-linecap="round" stroke-linejoin="round" stroke-dasharray="0.45 4.05"/>
<path d="M947.456 493.97C848.54 468.716 724.724 454.648 658.593 449.708C648.656 448.966 642.536 441.224 644.546 431.755L697.819 180.823C698.981 175.347 705.224 171.167 710.725 172.241C797.121 189.112 954.351 223.863 1040.92 241.099C1120.6 256.962 1232.67 325.619 1284.82 366.591C1296.13 375.475 1299.54 390.316 1295.03 405.606L1227.3 635.144C1224.81 643.611 1213.29 648.079 1207.22 642.967C1151.06 595.616 1046.91 519.36 947.456 493.97Z" fill="#D9D9D9" fill-opacity="0.07"/>
<g opacity="0.7">
<path d="M1189.17 588.105C1187.49 592.558 1188.52 597.834 1191.45 599.89L1205.68 609.838C1208.62 611.893 1212.36 609.95 1214.04 605.497C1215.72 601.043 1214.69 595.767 1211.75 593.712L1197.53 583.764C1194.59 581.708 1190.85 583.652 1189.17 588.105Z" stroke="white"/>
<path d="M1251.7 376.811C1250.02 381.264 1251.04 386.54 1253.98 388.596L1268.21 398.543C1271.15 400.599 1274.89 398.655 1276.57 394.202C1278.24 389.749 1277.22 384.473 1274.28 382.417L1260.06 372.469C1257.12 370.414 1253.38 372.358 1251.7 376.811Z" stroke="white"/>
<path d="M1244.18 422.56C1242.51 427.013 1243.53 432.289 1246.47 434.345L1257.99 442.402C1260.93 444.457 1264.67 442.514 1266.35 438.061C1268.03 433.608 1267 428.331 1264.06 426.276L1252.54 418.219C1249.6 416.163 1245.86 418.107 1244.18 422.56Z" stroke="white"/>
<path d="M1238.23 465.922C1236.56 470.375 1237.58 475.651 1240.52 477.707L1246.18 481.665C1249.12 483.721 1252.86 481.777 1254.54 477.324C1256.22 472.871 1255.19 467.595 1252.25 465.539L1246.59 461.58C1243.65 459.525 1239.91 461.468 1238.23 465.922Z" stroke="white"/>
<path d="M1226.99 506.098C1225.31 510.551 1226.33 515.827 1229.27 517.883L1234.93 521.842C1237.87 523.897 1241.61 521.954 1243.29 517.5C1244.97 513.047 1243.95 507.771 1241.01 505.715L1235.35 501.757C1232.41 499.701 1228.66 501.645 1226.99 506.098Z" stroke="white"/>
<path d="M1209.73 545.074C1208.05 549.527 1209.08 554.803 1212.01 556.859L1220.76 562.978C1223.7 565.034 1227.45 563.09 1229.12 558.637C1230.8 554.184 1229.78 548.908 1226.84 546.852L1218.09 540.733C1215.15 538.677 1211.41 540.621 1209.73 545.074Z" stroke="white"/>
</g>
<path d="M947.456 493.97C848.54 468.716 724.724 454.648 658.593 449.708C648.656 448.966 642.536 441.224 644.546 431.755L697.819 180.823C698.981 175.347 705.224 171.167 710.725 172.241C797.121 189.112 954.351 223.863 1040.92 241.099C1120.6 256.962 1232.67 325.619 1284.82 366.591C1296.13 375.475 1299.54 390.316 1295.03 405.606L1227.3 635.144C1224.81 643.611 1213.29 648.079 1207.22 642.967C1151.06 595.616 1046.91 519.36 947.456 493.97Z" stroke="white" stroke-width="2"/>
<path d="M954.873 470.898C878.221 451.328 782.71 440.231 729.475 436.082C719.548 435.308 713.44 427.567 715.45 418.098L756.482 224.824C757.644 219.349 763.894 215.171 769.393 216.25C838.333 229.779 961.072 256.891 1028.98 270.411C1092.05 282.966 1153.52 312.894 1188.49 339.616C1197 346.112 1200.97 356.358 1200.18 367.612C1195.32 435.903 1178.49 475.707 1147.94 547.919L1147.79 548.279C1144.48 556.09 1133.77 559.648 1127.99 554.968C1088.04 522.621 1032.49 490.712 954.873 470.898Z" stroke="white"/>
<path d="M930.488 449.745C861.929 419.304 790.431 427.755 743.131 429.254C731.311 429.629 725.254 419.624 729.766 408.822C752.062 355.435 762.757 316.006 768.362 247.579C768.845 241.689 775.561 236.71 781.331 238.299C840.748 254.665 904.798 305.877 1003.48 307.385C1067.76 308.368 1129.82 325.542 1164.17 348.194C1173.18 354.139 1177.07 364.514 1176.42 375.747C1172.88 437.188 1164.15 460.13 1136.67 525.39C1133.37 533.253 1122.49 536.734 1116.84 531.867C1027.02 454.52 1007.4 483.893 930.488 449.745Z" stroke="white"/>
<path d="M729.395 251.236C713.142 262.574 682.918 272.332 669.838 275.794L652.923 355.459C658.459 356.008 672.19 357.05 682.825 356.827C696.119 356.547 728.815 352.722 764.817 338.99C800.82 325.258 842.144 337.455 877.259 336.406C912.373 335.357 960.679 300.511 997.944 286.494C1035.21 272.478 1078 258.555 1074.83 257.227C1071.66 255.9 1056.56 251.194 1048.57 248.867C1042.17 247.005 1018.87 250.684 1008.01 252.756C999.884 253.766 980.035 256.382 965.682 258.768C947.74 261.751 942.931 271.13 911.238 291.484C879.545 311.838 836.234 322.458 814.299 323.395C792.364 324.332 777.184 297.248 781.364 290.831C785.544 284.414 813.115 272.1 838.112 270.011C863.109 267.922 871.108 258.685 909.308 251.285C939.868 245.365 960.277 235.565 966.662 231.405L897.633 217.173C877.453 216.167 834.728 214.291 825.274 214.835C813.457 215.515 783.116 214.335 776.375 217.649C769.633 220.963 749.712 237.063 729.395 251.236Z" fill="#D9D9D9" fill-opacity="0.07"/>
<path d="M694.377 457.501C692.676 459.084 691.609 460.096 694.45 457.508L724.755 460.757C725.366 457.879 728.846 451.707 737.878 450.039C749.168 447.954 766.948 433.061 780.217 427.036C793.485 421.011 832.932 423.524 857.846 427.829C882.76 432.135 918.442 439.169 903.548 431.222C888.653 423.275 884.351 405.812 904.607 403.032C924.862 400.251 950.557 381.275 979.893 371.511C1009.23 361.747 1078.54 338.914 1100.97 330.625C1118.91 323.993 1152.16 307.22 1166.54 299.663L1121.42 276.686C1089.79 290.323 1007.81 309.445 963.966 327.529C920.125 345.613 868.347 392.67 834.335 402.151C820.076 406.325 773.581 413.457 767.873 415.354C760.737 417.724 736.96 418.468 711.031 442.301C701.703 450.875 696.772 455.394 694.45 457.508L694.377 457.501Z" fill="#D9D9D9" fill-opacity="0.07"/>
<path d="M931.636 485.035C927.118 483.45 896.241 477.463 881.368 474.667C887.52 463.088 921.705 465.146 931.354 460.321C941.003 455.497 959.618 466.996 972.418 470.079C982.659 472.546 1003.15 471.381 1012.11 470.491C1023.91 465.169 1050 451.912 1060.01 441.464C1072.52 428.403 1070.9 403.296 1099.85 378.262C1128.81 353.227 1161.59 374.484 1131.69 384.294C1101.78 394.104 1092.93 438.428 1092.63 441.141C1092.33 443.855 1115.72 441.161 1128.26 430.552C1140.81 419.944 1164.4 391.399 1166.65 391.269C1168.9 391.14 1178.11 389.711 1185.24 390.199C1192.37 390.688 1208.23 382.81 1214.49 379.528C1220.75 376.247 1271.71 362.624 1280.17 368.653C1288.62 374.683 1291.03 388.25 1291.5 396.537C1291.87 403.167 1284.74 424.863 1281.13 434.882C1262.01 433.292 1213.82 432.612 1186.63 434.177C1152.64 436.132 1151.71 457.603 1114.99 480.995C1078.27 504.388 1044.31 491.117 1033.32 485.695C1022.34 480.274 1011.49 490.987 1004.56 493.405C997.619 495.822 978.551 483.082 967.731 480.245C956.911 477.409 937.283 487.016 931.636 485.035Z" fill="#D9D9D9" fill-opacity="0.07"/>
<path d="M1117.17 574.143L1083.67 552.462C1090.51 554.668 1105.58 558.663 1111.16 556.993C1118.12 554.905 1112.18 555.678 1111.38 552.983C1110.58 550.289 1118.85 547.283 1126.79 545.562C1134.72 543.84 1138.05 525.941 1143.79 514.649C1149.53 503.358 1159.18 503.645 1150.43 523.964C1143.42 540.219 1146.87 539.487 1149.47 537.089C1158.96 532.538 1179.15 523.407 1183.96 523.299C1189.98 523.163 1208.86 521.655 1219.13 520.01C1227.34 518.695 1253.04 504.679 1263.28 497.836L1250.96 539.862L1215.73 543.394C1207.5 544.851 1189.26 548.333 1182.09 550.6C1173.14 553.434 1152.32 567.913 1141.17 576.143C1132.26 582.727 1121.46 574.037 1117.17 574.143Z" fill="#D9D9D9" fill-opacity="0.07"/>
</g>
<path d="M545.641 106.99C546.749 101.777 551.687 97.8753 557.051 98.0725C601.481 99.706 792.928 108.153 922.66 136.215C1050.68 163.905 1238.8 172.497 1286.43 174.288C1292.52 174.517 1296.51 179.758 1295.15 185.661C1288.99 212.373 1273.32 282.502 1265.72 336.452C1257.92 391.882 1240.3 462.985 1234.04 487.415C1232.77 492.4 1228.04 496.003 1222.88 495.824C1179.16 494.303 984.175 486.062 855.759 456.586C729.331 427.567 538.377 419.13 490.776 417.424C484.784 417.21 480.791 412.085 482.028 406.263L545.641 106.99Z" fill="#D9D9D9" fill-opacity="0.07"/>
<path d="M1194.89 169.069C1161.35 196.77 1134.47 221.288 1112.51 235.962C1084.15 254.916 992.026 300.407 1067.8 277.793C1142.58 255.475 1153.65 251.064 1195.8 234.268L1197.5 233.592C1241.07 216.235 1295.27 193.347 1276.79 216.666C1258.32 239.984 1165.32 308.65 1208.61 292.593C1240.19 280.881 1261.85 275.198 1276.13 268.591C1271.36 291.402 1266.95 315.046 1264.24 335.373C1263.36 342.052 1262.3 349.084 1261.12 356.324C1250.31 371.151 1220.24 392.461 1181.25 421.336C1141.94 450.442 1139.59 432.912 1147.45 411.802C1155.32 390.692 1165.99 381.842 1169.58 364.936C1173.17 348.031 1134.34 368.545 1075.47 410.219C1025.49 445.597 1037.74 444.877 1011.15 480.813C961.304 475.403 909.87 468.182 864.918 458.595C883.432 447.717 902.691 438.468 924.501 420.941C953.029 398.015 926.063 394.515 920.774 393.959C915.485 393.403 883.445 394.69 835.456 432.854C826.412 440.047 817.672 444.673 809.438 447.411C791.392 444.255 772.728 441.416 753.882 438.862C749.763 435.713 747.401 432.833 747.193 431.554C746.316 426.144 758.276 420.753 789.636 406.766C820.995 392.779 827.558 384.162 892.29 353.075C957.023 321.988 888.358 304.8 881.687 310.747C875.016 316.693 853.573 331.723 845.797 342.871C838.02 354.019 815.146 366.239 779.297 379.09C743.448 391.94 731.391 378.708 692.363 406.514C681.57 414.204 671.396 421.653 662.228 428.524C584.73 421.314 516.599 418.367 490.765 417.43C484.775 417.212 480.79 412.089 482.028 406.268L487.388 381.049C504.446 379.244 534.184 360.972 558.182 360.503C595.51 359.773 639.834 361.108 657.804 349.702C675.773 338.296 751.391 303.699 785.227 293.961C819.063 284.222 867.31 232.125 971.492 199.866C1030.04 181.738 1058.58 168.223 1072.42 158.926C1115.95 163.447 1158.59 166.732 1194.89 169.069ZM1255.29 389.033C1251.35 409.585 1246.98 430.085 1243.1 447.564C1236.85 446.644 1231.6 445.106 1228.84 442.292C1220.12 433.437 1230.96 415.896 1255.29 389.033ZM718.525 109.433C695.828 125.162 675.2 142.82 675.526 145.494C676.018 149.535 627.164 166.337 606.106 182.737C585.047 199.138 524.624 251.282 522.088 253.675C518.812 258.673 514.766 265.208 510.415 272.717L545.617 107.104C546.735 101.844 551.749 97.9266 557.152 98.1835C580.594 99.2981 644.501 102.676 718.525 109.433ZM814.359 119.75C852.647 124.6 890.307 130.395 923.631 137.275C942.88 141.25 963.554 144.817 984.941 148.018C969.016 152.727 953.801 156.757 946.729 157.379C929.511 158.893 813.361 167.957 768.805 221.772C724.248 275.586 692.082 261.57 650.649 262.533C609.216 263.496 616.956 227.084 639.889 208.222C662.822 189.361 731.944 185.325 754.523 161.773C767.272 148.475 793.186 131.948 814.359 119.75Z" fill="#D9D9D9" fill-opacity="0.07"/>
<path d="M545.629 107.047C546.742 101.811 551.696 97.9006 557.08 98.1287C602.286 100.044 799.462 109.809 935.342 139.136C1067.77 167.718 1240.36 172.295 1286.69 173.018C1292.99 173.117 1297.14 178.584 1295.61 184.667C1288.69 212.145 1271.51 283.098 1265.17 334.631C1258.6 388.066 1240.37 462.38 1234.01 487.456C1232.75 492.433 1228.06 496.021 1222.91 495.863C1178.73 494.508 979.743 486.88 855.759 456.588C733.753 426.778 539.121 418.916 490.842 417.382C484.829 417.191 480.797 412.056 482.039 406.217L545.629 107.047Z" stroke="white" stroke-width="2"/>
<path d="M660.876 161.877C664.203 146.22 679.161 134.54 695.225 135.435C743.568 138.127 844.733 145.764 929.256 165.342C1015.6 185.344 1155.78 192.664 1221.27 195.089C1240.14 195.787 1252.63 212.535 1248.13 230.798C1241.2 258.914 1232.15 299.275 1228.07 332.932C1223.54 370.246 1212.91 415.8 1205.83 443.773C1202.07 458.665 1187.61 469.275 1172.25 468.465C1117.33 465.567 989.659 456.87 901.903 435.469C818.286 415.078 700.47 409.63 642.944 408.174C624.601 407.71 611.936 392.117 615.72 374.318L660.876 161.877Z" stroke="white" stroke-width="1.20017"/>
<path d="M1224.69 487.921L1225.32 487.631M1212.47 487.218L1226.68 480.679M1205.89 484.059L1228.31 473.76M1207.21 477.287L1229.31 467.131M1208.53 470.523L1230.94 460.211M1209.84 463.75L1231.94 453.583M1211.16 456.964L1233.58 446.661M1212.31 451.073L1234.72 440.77M1213.45 445.183L1235.87 434.88M1214.6 439.292L1237.01 428.989M1215.74 433.401L1238.16 423.099M1216.89 427.511L1239.3 417.208M1218.03 421.62L1240.45 411.318M1219.18 415.73L1241.59 405.427M1220.32 409.839L1242.74 399.536M1221.47 403.949L1243.88 393.646M1222.61 398.058L1245.03 387.755M1223.76 392.168L1246.17 381.865M1224.91 386.277L1247.32 375.974M1226.05 380.386L1248.46 370.084M1227.2 374.496L1249.61 364.193M1228.34 368.605L1250.76 358.303M1229.49 362.715L1251.9 352.412M1230.63 356.824L1253.05 346.521M1231.78 350.934L1254.19 340.631M1232.92 345.043L1255.34 334.74M1234.07 339.153L1256.48 328.85M1235.21 333.262L1257.63 322.959M1236.36 327.371L1258.77 317.069M1237.5 321.481L1259.92 311.178M1238.65 315.59L1261.06 305.287M1239.79 309.7L1262.21 299.397M1240.94 303.809L1263.35 293.506M1242.08 297.919L1264.5 287.616M1243.23 292.028L1265.64 281.725M1244.37 286.137L1266.79 275.835M1245.52 280.247L1267.93 269.944M1246.66 274.356L1269.08 264.054M1247.81 268.466L1270.22 258.163M1248.95 262.575L1271.37 252.273M1250.1 256.685L1272.51 246.382M1251.25 250.794L1273.66 240.491M1252.39 244.904L1274.8 234.601M1253.54 239.013L1275.95 228.71M1254.68 233.123L1277.1 222.82M1255.83 227.232L1278.24 216.929M1256.97 221.341L1279.39 211.039M1258.12 215.451L1280.53 205.148M1259.26 209.56L1281.68 199.258M1260.41 203.67L1282.82 193.367M1261.55 197.779L1283.97 187.476M1262.7 191.889L1285.11 181.586M1263.84 185.998L1282.96 177.2M1264.99 180.108L1275.72 175.167M1266.13 174.217L1266.45 174.068" stroke="white" stroke-width="1.80025" stroke-linecap="round" stroke-linejoin="round" stroke-dasharray="0.6 5.4"/>
<path d="M574.698 421.106L598.51 410.646M586.377 422.935L597.515 418.043M563.869 419.968L599.255 404.424M562.209 414.032L599.625 398.162M562.671 408.234L600.433 391.646M563.237 401.497L601.424 384.722M563.963 395.372L602.097 378.619M564.761 388.899L602.979 372.111M565.241 382.569L603.311 365.845M566.038 376.104L604.226 359.323M566.838 369.628L604.706 352.993M567.32 363.287L605.504 346.521M567.798 356.969L606.302 340.055M568.6 350.478L607.101 333.581M569.395 344.024L607.581 327.25M569.881 337.667L608.38 320.778M570.676 331.212L609.178 314.308M571.154 324.893L609.658 307.978M572.271 318.28L610.456 301.508M572.751 311.947L610.937 295.175M573.232 305.613L611.71 288.716M574.017 299.136L612.216 282.37M574.895 292.654L613.013 275.905M575.306 286.354L613.493 269.575M576.105 279.88L615.565 262.544M576.588 273.536L617.954 255.374M577.388 267.061L620.319 248.215M578.82 260.321L622.415 241.174M581.208 253.16L624.804 234.006M583.599 245.982L627.194 226.836M585.826 238.877L629.365 219.762M588.051 231.822L631.654 212.638M590.446 224.626L634.044 205.467M592.842 217.428L636.425 198.301M594.915 210.39L638.505 191.267M597.295 203.266L640.894 184.099M599.685 196.094L643.283 176.929M602.077 188.91L645.472 169.848M604.15 181.872L647.744 162.728M606.454 174.743L649.995 155.621M608.928 167.536L652.206 148.526M611.319 160.361L654.594 141.36M618.23 138.708L661.64 119.64M613.389 153.336L656.983 134.192M620.302 131.67L657.852 115.176M615.778 146.169L659.055 127.162M622.69 124.511L646.626 113.996M625.077 117.353L635.404 112.817" stroke="url(#paint2_linear_5015_6030)" stroke-width="1.80025" stroke-linecap="round" stroke-linejoin="round" stroke-dasharray="0.6 5.4"/>
<g clip-path="url(#clip0_5015_6030)">
<path fill-rule="evenodd" clip-rule="evenodd" d="M1127.23 238.785L1130.9 239.171L1130.09 242.986L1133.75 243.372L1132.94 247.187L1129.27 246.801L1127.65 254.432L1131.32 254.818L1129.7 262.448L1133.37 262.834L1132.56 266.649L1128.89 266.264L1128.08 270.079L1131.75 270.464L1132.56 266.649L1136.23 267.035L1137.04 263.219L1133.37 262.834L1134.99 255.203L1138.66 255.589L1137.85 259.404L1141.52 259.79L1142.33 255.974L1146 256.36L1143.56 267.806L1139.89 267.42L1139.08 271.236L1135.41 270.85L1134.6 274.665L1138.27 275.051L1137.46 278.866L1130.12 278.095L1130.93 274.28L1127.27 273.894L1126.46 277.709L1122.79 277.324L1121.98 281.139L1125.64 281.525L1124.02 289.155L1120.35 288.77L1119.54 292.585L1123.21 292.971L1122.4 296.786L1126.07 297.172L1125.26 300.987L1121.59 300.601L1119.97 308.232L1116.3 307.846L1113.87 319.292L1121.2 320.063L1122.82 312.433L1126.49 312.818L1125.68 316.634L1129.35 317.019L1130.16 313.204L1133.83 313.59L1133.02 317.405L1136.69 317.791L1135.88 321.606L1143.21 322.377L1144.03 318.562L1147.69 318.947L1148.51 315.132L1152.17 315.518L1150.55 323.148L1154.22 323.534L1155.03 319.718L1158.7 320.104L1157.89 323.919L1176.23 325.847L1177.04 322.032L1180.71 322.418L1179.9 326.233L1183.57 326.618L1184.38 322.803L1180.71 322.418L1181.52 318.602L1177.85 318.217L1178.66 314.401L1175 314.016L1175.81 310.2L1179.48 310.586L1181.1 302.955L1184.77 303.341L1182.33 314.787L1189.67 315.558L1188.86 319.373L1192.53 319.759L1191.72 323.574L1188.05 323.189L1187.24 327.004L1190.91 327.39L1190.1 331.205L1109.39 322.722L1127.23 238.785ZM1134.56 239.556L1138.23 239.942L1137.42 243.757L1133.75 243.372L1134.56 239.556ZM1141.9 240.327L1145.57 240.713L1143.95 248.344L1140.28 247.958L1141.9 240.327ZM1149.24 241.099L1152.91 241.484L1152.1 245.3L1155.77 245.685L1156.58 241.87L1160.24 242.255L1158.62 249.886L1154.95 249.5L1154.14 253.316L1150.47 252.93L1151.29 249.115L1147.62 248.729L1149.24 241.099ZM1163.91 242.641L1167.58 243.027L1165.96 250.657L1169.63 251.043L1171.25 243.412L1174.92 243.798L1173.3 251.428L1187.97 252.971L1187.16 256.786L1194.5 257.557L1195.31 253.742L1191.64 253.356L1193.26 245.726L1196.93 246.111L1196.12 249.927L1199.79 250.312L1195.73 269.389L1192.06 269.003L1193.69 261.373L1190.02 260.987L1189.21 264.802L1185.54 264.417L1184.73 268.232L1192.06 269.003L1191.25 272.818L1187.59 272.433L1186.77 276.248L1183.11 275.863L1183.92 272.047L1180.25 271.662L1179.44 275.477L1183.11 275.863L1182.29 279.678L1189.63 280.449L1191.25 272.818L1194.92 273.204L1195.73 269.389L1199.4 269.774L1198.59 273.59L1202.26 273.975L1201.45 277.791L1194.11 277.019L1193.3 280.835L1200.64 281.606L1199.83 285.421L1196.16 285.036L1195.35 288.851L1199.02 289.236L1198.2 293.052L1194.54 292.666L1193.73 296.482L1190.06 296.096L1190.87 292.281L1183.53 291.509L1184.34 287.694L1191.68 288.465L1192.49 284.65L1185.15 283.879L1184.34 287.694L1180.67 287.309L1181.48 283.493L1177.82 283.108L1177 286.923L1173.34 286.537L1174.96 278.907L1171.29 278.521L1172.1 274.706L1175.77 275.091L1177.39 267.461L1181.06 267.846L1183.49 256.4L1176.15 255.629L1175.34 259.445L1171.68 259.059L1172.49 255.244L1168.82 254.858L1167.2 262.489L1159.86 261.718L1160.67 257.902L1157 257.517L1156.19 261.332L1152.52 260.946L1154.14 253.316L1161.48 254.087L1163.91 242.641ZM1178.59 244.183L1182.26 244.569L1181.45 248.384L1177.78 247.999L1178.59 244.183ZM1185.92 244.955L1189.59 245.34L1188.78 249.155L1185.11 248.77L1185.92 244.955ZM1200.6 246.497L1204.27 246.882L1203.46 250.698L1199.79 250.312L1200.6 246.497ZM1203.46 250.698L1207.13 251.083L1206.31 254.899L1202.65 254.513L1203.46 250.698ZM1136.61 247.573L1140.28 247.958L1139.47 251.773L1135.8 251.388L1136.61 247.573ZM1143.95 248.344L1147.62 248.729L1146.81 252.545L1143.14 252.159L1143.95 248.344ZM1201.84 258.328L1205.5 258.714L1204.69 262.529L1201.02 262.144L1201.84 258.328ZM1175.34 259.445L1179.01 259.83L1178.2 263.645L1174.53 263.26L1175.34 259.445ZM1148.85 260.561L1152.52 260.946L1151.71 264.762L1148.04 264.376L1148.85 260.561ZM1156.19 261.332L1159.86 261.718L1159.05 265.533L1155.38 265.147L1156.19 261.332ZM1167.2 262.489L1170.86 262.874L1170.05 266.69L1173.72 267.075L1172.1 274.706L1168.43 274.32L1169.24 270.505L1165.57 270.119L1167.2 262.489ZM1200.21 265.959L1203.88 266.345L1203.07 270.16L1199.4 269.774L1200.21 265.959ZM1151.71 264.762L1155.38 265.147L1153.76 272.778L1150.09 272.392L1151.71 264.762ZM1159.05 265.533L1162.72 265.918L1161.91 269.734L1165.57 270.119L1164.76 273.935L1157.43 273.164L1159.05 265.533ZM1143.56 267.806L1147.23 268.191L1146.42 272.007L1150.09 272.392L1147.66 283.838L1143.99 283.453L1143.18 287.268L1139.51 286.882L1140.32 283.067L1136.65 282.682L1137.46 278.866L1141.13 279.252L1143.56 267.806ZM1164.76 273.935L1168.43 274.32L1166 285.766L1158.66 284.995L1157.04 292.626L1149.7 291.854L1150.51 288.039L1146.84 287.654L1147.66 283.838L1151.32 284.224L1152.95 276.593L1163.95 277.75L1164.76 273.935ZM1126.46 277.709L1130.12 278.095L1129.31 281.91L1125.64 281.525L1126.46 277.709ZM1129.31 281.91L1136.65 282.682L1135.84 286.497L1132.17 286.111L1131.36 289.927L1142.37 291.083L1140.74 298.714L1137.07 298.328L1137.89 294.513L1134.22 294.127L1133.41 297.943L1126.07 297.172L1126.88 293.356L1123.21 292.971L1124.02 289.155L1127.69 289.541L1129.31 281.91ZM1177 286.923L1180.67 287.309L1179.86 291.124L1176.19 290.738L1177 286.923ZM1143.18 287.268L1146.84 287.654L1146.03 291.469L1142.37 291.083L1143.18 287.268ZM1165.19 289.582L1168.86 289.967L1168.05 293.782L1175.38 294.554L1174.57 298.369L1167.23 297.598L1166.42 301.413L1159.09 300.642L1159.9 296.827L1156.23 296.441L1157.04 292.626L1164.38 293.397L1165.19 289.582ZM1182.72 295.325L1186.39 295.71L1185.58 299.526L1181.91 299.14L1182.72 295.325ZM1193.73 296.482L1197.39 296.867L1196.58 300.682L1192.91 300.297L1193.73 296.482ZM1145.22 295.284L1148.89 295.67L1148.08 299.485L1151.75 299.871L1150.94 303.686L1143.6 302.915L1142.79 306.73L1135.45 305.959L1134.64 309.774L1130.97 309.389L1130.16 313.204L1126.49 312.818L1128.12 305.188L1124.45 304.802L1125.26 300.987L1139.93 302.529L1140.74 298.714L1144.41 299.1L1145.22 295.284ZM1174.57 298.369L1181.91 299.14L1181.1 302.955L1173.76 302.184L1174.57 298.369ZM1185.58 299.526L1192.91 300.297L1192.1 304.112L1184.77 303.341L1185.58 299.526ZM1170.09 301.799L1173.76 302.184L1172.95 306L1169.28 305.614L1170.09 301.799ZM1192.1 304.112L1195.77 304.498L1194.96 308.313L1191.29 307.927L1192.1 304.112ZM1150.94 303.686L1154.61 304.072L1153.8 307.887L1161.13 308.658L1159.51 316.289L1155.84 315.903L1156.65 312.088L1149.32 311.317L1150.94 303.686ZM1161.94 304.843L1165.61 305.228L1164.8 309.044L1161.13 308.658L1161.94 304.843ZM1172.95 306L1176.62 306.385L1175.81 310.2L1172.14 309.815L1172.95 306ZM1164.8 309.044L1172.14 309.815L1171.33 313.63L1163.99 312.859L1164.8 309.044ZM1190.48 311.743L1194.15 312.128L1193.34 315.944L1189.67 315.558L1190.48 311.743ZM1134.64 309.774L1149.32 311.317L1148.51 315.132L1141.17 314.361L1140.36 318.176L1136.69 317.791L1137.5 313.975L1133.83 313.59L1134.64 309.774ZM1166.85 317.06L1170.52 317.445L1169.71 321.261L1166.04 320.875L1166.85 317.06ZM1174.19 317.831L1177.85 318.217L1177.04 322.032L1173.37 321.646L1174.19 317.831Z" fill="white"/>
</g>
<path d="M1069.17 375.086L1071.47 375.328L1065.42 382.713L1068.18 391.069L1065.84 390.823L1063.8 384.423L1059.18 390.124L1056.86 389.88L1062.98 382.434L1060.25 374.148L1062.58 374.394L1064.63 380.704L1069.17 375.086Z" fill="white"/>
<path d="M1082.5 376.488L1084.8 376.729L1078.76 384.115L1081.51 392.471L1079.18 392.225L1077.13 385.825L1072.52 391.525L1070.2 391.282L1076.32 383.835L1073.58 375.55L1075.92 375.796L1077.96 382.105L1082.5 376.488Z" fill="white"/>
<path d="M1095.84 377.889L1098.14 378.131L1092.1 385.517L1094.85 393.872L1092.51 393.627L1090.47 387.227L1085.86 392.927L1083.54 392.683L1089.65 385.237L1086.92 376.952L1089.26 377.198L1091.3 383.507L1095.84 377.889Z" fill="white"/>
<path d="M1108.64 379.235L1110.94 379.477L1104.9 386.863L1107.66 395.218L1105.32 394.972L1103.28 388.572L1098.66 394.273L1096.34 394.029L1102.46 386.583L1099.73 378.298L1102.06 378.543L1104.1 384.853L1108.64 379.235Z" fill="white"/>
<path d="M1071.79 402.494L1074.09 402.736L1068.05 410.121L1070.8 418.477L1068.46 418.231L1066.42 411.831L1061.81 417.532L1059.49 417.288L1065.6 409.842L1062.87 401.557L1065.21 401.802L1067.25 408.112L1071.79 402.494Z" fill="white"/>
<path d="M1085.13 403.896L1087.43 404.138L1081.38 411.523L1084.14 419.879L1081.8 419.633L1079.76 413.233L1075.14 418.934L1072.83 418.69L1078.94 411.244L1076.21 402.958L1078.55 403.204L1080.59 409.514L1085.13 403.896Z" fill="white"/>
<path d="M1104.11 405.891L1106.41 406.133L1100.37 413.518L1103.12 421.874L1100.78 421.628L1098.74 415.228L1094.13 420.929L1091.81 420.685L1097.92 413.239L1095.19 404.953L1097.53 405.199L1099.57 411.509L1104.11 405.891Z" fill="white"/>
<path d="M1116.91 407.237L1119.21 407.478L1113.17 414.864L1115.92 423.22L1113.59 422.974L1111.54 416.574L1106.93 422.274L1104.61 422.031L1110.72 414.584L1107.99 406.299L1110.33 406.545L1112.37 412.854L1116.91 407.237Z" fill="white"/>
<path d="M1136.28 409.272L1138.58 409.514L1132.54 416.9L1135.29 425.255L1132.95 425.009L1130.91 418.609L1126.3 424.31L1123.98 424.066L1130.09 416.62L1127.36 408.335L1129.7 408.58L1131.74 414.89L1136.28 409.272Z" fill="white"/>
<path d="M1149.08 410.618L1151.38 410.86L1145.34 418.245L1148.09 426.601L1145.76 426.355L1143.71 419.955L1139.1 425.656L1136.78 425.412L1142.89 417.966L1140.16 409.68L1142.5 409.926L1144.54 416.236L1149.08 410.618Z" fill="white"/>
<path d="M1090.12 419.133C1089.89 420.2 1088.87 420.977 1087.85 420.869C1086.82 420.761 1086.17 419.809 1086.4 418.742C1086.63 417.675 1087.64 416.898 1088.67 417.006C1089.69 417.114 1090.34 418.066 1090.12 419.133Z" fill="white"/>
<path d="M1122.29 422.514C1122.06 423.581 1121.04 424.358 1120.02 424.251C1118.99 424.143 1118.34 423.19 1118.57 422.124C1118.8 421.057 1119.81 420.279 1120.84 420.387C1121.86 420.495 1122.51 421.447 1122.29 422.514Z" fill="white"/>
<path d="M1027.32 381.033L1029.03 373.003L1030.01 373.106L1028.5 380.186L1032.54 380.61L1032.34 381.56L1027.32 381.033Z" fill="white"/>
<path d="M1036.13 382.144C1033.84 381.902 1032.79 380.162 1033.34 377.572C1033.89 374.959 1035.62 373.511 1037.92 373.752C1040.22 373.994 1041.27 375.735 1040.72 378.347C1040.17 380.937 1038.44 382.386 1036.13 382.144ZM1034.36 377.679C1033.94 379.681 1034.67 381.019 1036.33 381.194C1038 381.369 1039.27 380.242 1039.69 378.24C1040.12 376.215 1039.38 374.878 1037.71 374.702C1036.05 374.527 1034.79 375.655 1034.36 377.679Z" fill="white"/>
<path d="M1047.59 374.954L1047.39 375.904L1044.88 375.64L1043.38 382.72L1042.4 382.617L1043.9 375.537L1041.39 375.273L1041.59 374.323L1047.59 374.954Z" fill="white"/>
<path d="M1049.15 372.981C1050.14 373.085 1050.77 373.969 1050.56 374.956L1048.79 383.289C1048.58 384.275 1047.61 384.99 1046.62 384.886L1025.68 382.685C1024.68 382.581 1024.05 381.697 1024.26 380.711L1026.03 372.378C1026.24 371.391 1027.22 370.676 1028.21 370.78L1049.15 372.981ZM1024.86 380.774C1024.72 381.431 1025.14 382.021 1025.8 382.09L1046.74 384.291C1047.4 384.36 1048.05 383.884 1048.19 383.226L1049.96 374.893C1050.1 374.235 1049.68 373.646 1049.02 373.577L1028.08 371.376C1027.42 371.306 1026.77 371.783 1026.63 372.44L1024.86 380.774Z" fill="white"/>
<path d="M1044.6 404.925L1043.87 404.847L1045.09 399.073L1045.83 399.151L1044.6 404.925ZM1046.17 406.584C1046.83 407.283 1046.56 408.516 1045.64 409.049L1043.46 410.314L1042.72 410.237C1042.77 410.025 1042.89 409.832 1043.07 409.703L1043.15 409.652L1045.33 408.387C1045.79 408.12 1045.92 407.503 1045.59 407.154L1044.03 405.494L1043.98 405.429C1043.88 405.292 1043.83 405.118 1043.85 404.937L1043.87 404.847L1044.6 404.925L1046.17 406.584ZM1042.23 416.089L1041.49 416.011L1042.72 410.237L1043.46 410.314L1042.23 416.089ZM1050.36 416.943L1051.58 411.168L1050.03 409.509C1049.37 408.81 1049.63 407.579 1050.55 407.046L1052.73 405.779L1053.96 400.005L1045.09 399.073L1045.11 398.995C1045.23 398.636 1045.56 398.377 1045.92 398.377L1046 398.381L1054.12 399.235C1054.53 399.278 1054.79 399.657 1054.7 400.082L1053.47 405.857C1053.42 406.099 1053.26 406.316 1053.04 406.441L1050.86 407.708C1050.43 407.958 1050.29 408.514 1050.54 408.871L1050.6 408.94L1052.16 410.599C1052.29 410.744 1052.36 410.945 1052.34 411.155L1052.32 411.246L1051.1 417.02C1051.01 417.446 1050.6 417.755 1050.19 417.713L1042.07 416.859C1041.69 416.818 1041.44 416.482 1041.48 416.09L1041.49 416.011L1050.36 416.943Z" fill="white"/>
<path d="M1051.34 412.323L1050.36 416.943L1042.23 416.089L1043.21 411.469L1051.34 412.323Z" fill="white"/>
<g opacity="0.9">
<path d="M716.002 198.329C716.252 196.214 718.171 194.703 720.289 194.954L973.975 224.96C976.093 225.211 977.607 227.128 977.357 229.243C977.106 231.358 975.187 232.869 973.069 232.618L719.384 202.612C717.266 202.361 715.752 200.444 716.002 198.329Z" fill="#D9D9D9"/>
<path d="M714.086 214.528C714.316 212.576 716.088 211.181 718.043 211.413L927.481 236.186C929.436 236.417 930.834 238.187 930.603 240.139C930.372 242.091 928.6 243.486 926.645 243.255L717.207 218.482C715.252 218.25 713.855 216.48 714.086 214.528Z" fill="#D9D9D9"/>
<path d="M712.169 230.728C712.42 228.613 714.339 227.102 716.457 227.353L1033.86 264.896C1035.98 265.147 1037.49 267.064 1037.24 269.179C1036.99 271.293 1035.07 272.804 1032.95 272.554L715.551 235.011C713.433 234.76 711.919 232.843 712.169 230.728Z" fill="#D9D9D9"/>
<path d="M710.253 246.927C710.484 244.975 712.256 243.58 714.211 243.812L965.537 273.539C967.492 273.771 968.889 275.541 968.658 277.493C968.428 279.445 966.656 280.84 964.701 280.608L713.375 250.881C711.42 250.649 710.022 248.879 710.253 246.927Z" fill="#D9D9D9"/>
<path d="M708.337 263.127C708.587 261.012 710.507 259.501 712.625 259.752L958.051 288.781C960.169 289.032 961.683 290.949 961.433 293.064C961.182 295.179 959.263 296.69 957.145 296.439L711.719 267.409C709.601 267.159 708.087 265.242 708.337 263.127Z" fill="#D9D9D9"/>
<path d="M706.421 279.326C706.652 277.374 708.424 275.979 710.379 276.211L970.554 306.985C972.509 307.216 973.906 308.986 973.676 310.938C973.445 312.89 971.673 314.285 969.718 314.054L709.543 283.28C707.588 283.048 706.19 281.278 706.421 279.326Z" fill="#D9D9D9"/>
<path d="M704.505 295.526C704.755 293.411 706.675 291.9 708.793 292.151L1045.66 331.997C1047.78 332.247 1049.3 334.165 1049.05 336.279C1048.79 338.394 1046.88 339.905 1044.76 339.655L707.887 299.808C705.769 299.558 704.255 297.641 704.505 295.526Z" fill="#D9D9D9"/>
<path d="M697.607 353.844C697.857 351.729 699.777 350.218 701.894 350.469L839.947 366.798C842.064 367.049 843.579 368.966 843.328 371.081C843.078 373.195 841.159 374.706 839.041 374.456L700.989 358.127C698.871 357.876 697.357 355.959 697.607 353.844Z" fill="#D9D9D9"/>
<path d="M695.865 368.571C696.115 366.456 698.035 364.945 700.153 365.195L789.827 375.803C791.945 376.053 793.459 377.97 793.209 380.085C792.959 382.2 791.039 383.711 788.922 383.461L699.247 372.853C697.129 372.603 695.615 370.686 695.865 368.571Z" fill="#D9D9D9"/>
</g>
</g>
<path d="M1189.91 332.624L1207.74 247.907L1129.51 239.394L715.559 324.16L1189.91 332.624Z" fill="url(#paint3_linear_5015_6030)" stroke="url(#paint4_linear_5015_6030)" stroke-width="1.84737"/>
<g clip-path="url(#clip1_5015_6030)">
<path d="M741.613 301.12C746.348 310.24 759 338.191 770.137 375.025C784.298 421.856 757.514 451.824 753.896 455.668C752.562 457.086 749.81 459.16 746.397 461.503C742.966 463.859 738.813 466.522 734.633 469.123C726.272 474.325 717.783 479.29 714.695 481.073L669.676 507.064L669.551 507.08C666.96 507.411 662.665 508.173 658.237 509.378C653.797 510.586 649.283 512.224 646.209 514.286C643.024 516.422 586.931 548.869 518.164 588.528C449.376 628.2 367.857 675.118 313.775 706.219L243.642 746.71L242.88 745.73L349.591 636.152L349.647 636.094L349.715 636.053L741.743 399.116L740.431 301.417L741.613 301.12Z" fill="url(#paint5_linear_5015_6030)" stroke="url(#paint6_linear_5015_6030)" stroke-width="1.25333"/>
<path d="M667.046 473.437C660.728 477.085 653.321 478.634 646.087 478.397C644.518 478.345 642.329 478.809 639.737 479.671C637.169 480.526 634.3 481.739 631.406 483.107C625.618 485.845 619.801 489.171 616.219 491.396L306.09 670.45C263.096 695.272 208.119 680.542 183.296 637.548L65.6125 433.714C58.0345 420.588 62.5322 403.805 75.6579 396.226L459.764 174.463C466.6 170.516 472.183 167.486 476.917 161.178C480.957 155.794 488.013 151.963 491.109 150.671C506.623 141.609 539.321 122.584 546.274 118.823C550.544 116.513 555.548 113.468 560.645 111.137C565.752 108.801 571.151 107.079 576.332 107.48C586.149 108.24 602.212 108.425 620.656 122.391C629.729 129.263 636.805 134.389 645.617 143.442C654.419 152.485 664.938 165.429 680.983 187.951C698.284 212.237 727.612 270.645 741.322 299.297L742.599 301.975L742.609 301.993L742.616 302.013C753.669 327.83 761.949 355.403 762.351 371.495C762.601 381.477 761.985 388.718 760.643 395.025C759.302 401.33 757.242 406.66 754.659 412.801C752.519 417.889 748.652 422.58 744.748 426.355C740.836 430.137 736.818 433.064 734.288 434.615L667.046 473.437Z" fill="url(#paint7_linear_5015_6030)" stroke="url(#paint8_linear_5015_6030)" stroke-width="2.1157"/>
<path d="M717.752 419.545L328.19 644.458L154.638 744.658L-15.2624 459.329L546.428 135.037C550.777 132.527 558.876 127.748 561.5 127.18L561.544 127.171C564.458 126.54 576.618 123.91 588.502 133.412C600.446 142.962 620.04 161.378 637.543 185.851C655.046 210.324 677.828 250.515 691.654 275.74C702.715 295.921 713.069 321.535 716.863 331.819C722.598 348.995 733.635 386.359 731.904 398.407C730.172 410.455 721.748 417.519 717.752 419.545Z" fill="url(#paint9_linear_5015_6030)" stroke="url(#paint10_linear_5015_6030)" stroke-width="2.1157"/>
<path d="M642.005 435.875L322.732 620.207L258.668 657.195C254.924 659.357 250.136 658.074 247.974 654.33L114.244 422.702C112.083 418.958 113.365 414.171 117.109 412.009L150.891 392.505L505.227 187.929C509.026 185.736 513.885 187.092 515.999 190.935L644.949 425.323C647.003 429.055 645.694 433.745 642.005 435.875Z" fill="url(#paint11_linear_5015_6030)" stroke="url(#paint12_linear_5015_6030)" stroke-width="1.92653"/>
<path d="M657.539 478.126C660.653 480.475 665.626 483.367 668.737 492.956C670.713 499.045 669.246 504.362 668.957 506.356" stroke="#63606F" stroke-width="1.25333"/>
<path d="M586.625 194.411C589.28 197.412 594.406 196.244 597.587 194.407C604.071 190.664 601.791 184.706 598.958 181.809C596.125 178.911 589.258 180.346 586.415 182.725C583.572 185.105 582.983 190.294 586.625 194.411Z" stroke="white" stroke-width="1.25333"/>
<path d="M618.022 520.61L566.076 550.602C566.076 550.602 563.148 552.257 561.34 552.809C558.502 553.674 552.637 554.313 549.705 549.09C546.774 543.866 551.424 539.101 554.115 537.372L568.742 528.927C583.413 520.07 613.741 502.019 617.684 500.67C622.614 498.983 628.461 502.355 629.315 508.398C629.998 513.233 622.071 518.554 618.022 520.61Z" fill="#3C3645" stroke="#88848E" stroke-width="1.25333"/>
<path d="M627.371 504.005C624.299 503.388 623.045 501.985 613.897 506.793C604.748 511.602 568.166 533.36 554.706 541.18C553.181 541.982 549.196 544.419 549.413 548.425" stroke="#88848E" stroke-width="1.25333"/>
<path d="M660.685 290.265C650.999 273.367 631.477 239.384 630.876 238.635C629.047 235.579 625.822 232.803 620.594 236.348C616.413 239.184 617.589 243.741 618.699 245.665C627.735 261.498 645.802 294.681 649.056 298.244C652.208 301.695 654.32 301.883 659.115 298.868C662.394 296.806 661.528 292.274 660.685 290.265Z" fill="#2B2B2B" stroke="white" stroke-width="1.25333"/>
<path d="M682.963 369.54C685.578 372.043 690.107 370.606 692.833 368.714C698.39 364.856 695.889 359.663 693.121 357.267C690.353 354.87 684.277 356.678 681.896 359.034C679.514 361.39 679.374 366.106 682.963 369.54Z" stroke="white" stroke-width="1.25333"/>
<mask id="mask2_5015_6030" style="mask-type:alpha" maskUnits="userSpaceOnUse" x="277" y="258" width="265" height="260">
<rect x="452.359" y="258.76" width="186.382" height="199.24" transform="rotate(61.399 452.359 258.76)" fill="url(#paint13_linear_5015_6030)"/>
</mask>
<g mask="url(#mask2_5015_6030)">
<g clip-path="url(#clip2_5015_6030)">
<path fill-rule="evenodd" clip-rule="evenodd" d="M447.332 276.014L451.404 283.36L444.058 287.433L448.13 294.78L440.783 298.852L436.711 291.505L422.017 299.65L426.09 306.997L411.396 315.142L415.468 322.488L408.122 326.561L404.049 319.214L396.702 323.286L404.847 337.98L397.5 342.052L393.428 334.706L386.081 338.778L398.298 360.819L412.992 352.674L408.92 345.327L416.266 341.255L412.194 333.908L419.541 329.835L415.468 322.488L430.162 314.344L434.234 321.69L426.888 325.763L430.96 333.11L438.307 329.037L442.379 336.384L427.686 344.529L431.758 351.876L424.411 355.948L428.484 363.295L435.83 359.223L431.758 351.876L446.452 343.731L450.524 351.078L457.871 347.005L461.943 354.352L469.29 350.28L465.218 342.933L457.871 347.005L453.798 339.659L461.145 335.586L457.073 328.239L471.766 320.095L475.839 327.441L468.492 331.514L472.564 338.861L479.911 334.788L483.984 342.135L476.637 346.207L480.709 353.554L488.056 349.482L492.128 356.829L477.435 364.973L473.362 357.627L458.669 365.771L466.814 380.465L459.467 384.537L463.539 391.884L456.192 395.957L460.265 403.303L438.224 415.521L434.152 408.174L419.458 416.319L415.386 408.972L422.733 404.899L418.66 397.553L440.701 385.335L444.773 392.682L437.426 396.755L441.499 404.101L448.846 400.029L444.773 392.682L452.12 388.61L448.048 381.263L455.394 377.191L451.322 369.844L443.975 373.916L439.903 366.569L425.209 374.714L417.064 360.021L409.718 364.093L413.79 371.44L406.443 375.512L418.66 397.553L411.314 401.625L407.241 394.278L399.894 398.351L391.75 383.657L399.096 379.585L395.024 372.238L387.677 376.31L383.605 368.963L368.911 377.108L364.839 369.761L372.186 365.689L368.113 358.342L375.46 354.27L371.388 346.923L378.734 342.85L370.59 328.157L363.243 332.229L371.388 346.923L364.041 350.995L355.896 336.302L348.549 340.374L352.622 347.721L323.234 364.01L319.162 356.664L311.815 360.736L319.96 375.43L342 363.212L346.073 370.559L360.766 362.415L364.839 369.761L357.492 373.834L361.564 381.181L368.911 377.108L372.984 384.455L365.637 388.527L369.709 395.874L377.056 391.802L381.128 399.149L373.782 403.221L377.854 410.568L370.507 414.64L374.58 421.987L359.886 430.132L355.814 422.785L363.16 418.713L359.088 411.366L366.435 407.293L358.29 392.6L350.943 396.672L355.016 404.019L347.669 408.091L355.814 422.785L348.467 426.857L352.539 434.204L359.886 430.132L368.031 444.825L375.378 440.753L379.45 448.1L386.797 444.027L382.724 436.681L397.418 428.536L401.49 435.883L416.184 427.738L412.112 420.391L419.458 416.319L423.531 423.665L438.224 415.521L442.297 422.867L427.603 431.012L435.748 445.706L428.401 449.778L432.474 457.125L425.127 461.197L421.054 453.851L413.708 457.923L417.78 465.27L425.127 461.197L433.272 475.891L425.925 479.963L421.852 472.617L414.506 476.689L418.578 484.036L411.231 488.108L403.086 473.415L410.433 469.342L398.216 447.302L390.869 451.374L394.942 458.721L387.595 462.793L383.522 455.447L376.176 459.519L372.103 452.172L364.756 456.245L368.829 463.591L376.176 459.519L380.248 466.866L372.901 470.938L381.046 485.632L388.393 481.559L392.465 488.906L385.118 492.979L389.191 500.325L381.844 504.398L300.396 357.462L447.332 276.014ZM455.477 290.707L459.549 298.054L452.202 302.126L448.13 294.78L455.477 290.707ZM463.622 305.401L467.694 312.748L453 320.893L448.928 313.546L463.622 305.401ZM496.201 364.175L500.273 371.522L492.926 375.595L488.854 368.248L496.201 364.175ZM504.346 378.869L508.418 386.216L501.071 390.288L505.144 397.635L490.45 405.78L486.378 398.433L493.724 394.361L489.652 387.014L474.958 395.159L483.103 409.852L468.41 417.997L464.337 410.65L471.684 406.578L463.539 391.884L492.926 375.595L496.999 382.941L504.346 378.869ZM512.49 393.563L516.563 400.909L509.216 404.982L505.144 397.635L512.49 393.563ZM520.635 408.256L524.708 415.603L517.361 419.675L521.433 427.022L514.086 431.095L505.942 416.401L498.595 420.473L506.74 435.167L499.393 439.239L495.32 431.893L487.974 435.965L492.046 443.312L484.699 447.384L480.627 440.037L473.28 444.11L477.352 451.457L470.006 455.529L465.933 448.182L458.586 452.255L454.514 444.908L461.861 440.835L457.788 433.489L465.135 429.416L469.208 436.763L476.554 432.691L472.482 425.344L487.176 417.199L483.103 409.852L490.45 405.78L494.522 413.127L509.216 404.982L513.288 412.329L520.635 408.256ZM444.856 306.199L448.928 313.546L441.581 317.618L437.509 310.271L444.856 306.199ZM453 320.893L457.073 328.239L449.726 332.312L445.654 324.965L453 320.893ZM477.435 364.973L481.507 372.32L474.16 376.393L470.088 369.046L477.435 364.973ZM443.975 373.916L448.048 381.263L440.701 385.335L436.628 377.989L443.975 373.916ZM425.209 374.714L429.282 382.061L421.935 386.133L417.862 378.787L425.209 374.714ZM449.644 418.795L453.716 426.142L446.369 430.214L442.297 422.867L449.644 418.795ZM385.283 320.012L377.936 324.084L382.009 331.431L389.356 327.359L385.283 320.012ZM446.369 430.214L450.442 437.561L443.095 441.633L439.022 434.287L446.369 430.214ZM458.586 452.255L462.659 459.601L455.312 463.674L451.24 456.327L458.586 452.255ZM411.314 401.625L415.386 408.972L408.039 413.044L403.967 405.697L411.314 401.625ZM443.893 460.399L447.965 467.746L440.618 471.819L436.546 464.472L443.893 460.399ZM387.677 376.31L391.75 383.657L384.403 387.729L380.33 380.383L387.677 376.31ZM399.894 398.351L403.967 405.697L396.62 409.77L392.548 402.423L399.894 398.351ZM408.039 413.044L412.112 420.391L404.765 424.463L400.692 417.117L408.039 413.044ZM396.62 409.77L400.692 417.117L393.346 421.189L389.273 413.842L396.62 409.77ZM385.201 406.495L389.273 413.842L381.926 417.915L377.854 410.568L385.201 406.495ZM381.926 417.915L385.999 425.261L378.652 429.334L374.58 421.987L381.926 417.915ZM399.014 466.068L403.086 473.415L388.393 481.559L380.248 466.866L387.595 462.793L391.667 470.14L399.014 466.068ZM338.726 374.632L331.379 378.704L335.452 386.051L328.105 390.123L336.25 404.817L343.596 400.745L339.524 393.398L346.871 389.325L338.726 374.632ZM399.812 484.834L403.884 492.181L396.538 496.253L392.465 488.906L399.812 484.834Z" fill="white"/>
</g>
</g>
<path d="M391.721 269.5L504.725 478.297" stroke="url(#paint14_linear_5015_6030)" stroke-width="2.31536"/>
<path d="M445.856 264.335C450.75 261.642 456.9 263.467 459.533 268.394L539.701 418.405C542.289 423.247 540.502 429.269 535.692 431.916L491.924 456L402.303 288.301L445.856 264.335Z" fill="url(#paint15_linear_5015_6030)" stroke="url(#paint16_linear_5015_6030)" stroke-width="2.31536"/>
</g>
<defs>
<linearGradient id="paint0_linear_5015_6030" x1="630.88" y1="262.887" x2="1130.88" y2="301.596" gradientUnits="userSpaceOnUse">
<stop stop-color="#737373" stop-opacity="0"/>
<stop offset="1" stop-color="#D9D9D9"/>
</linearGradient>
<linearGradient id="paint1_linear_5015_6030" x1="1375.16" y1="570.781" x2="945.024" y2="471.485" gradientUnits="userSpaceOnUse">
<stop stop-color="#D9D9D9"/>
<stop offset="1" stop-color="#737373" stop-opacity="0"/>
</linearGradient>
<linearGradient id="paint2_linear_5015_6030" x1="581.315" y1="264.767" x2="612.23" y2="271.339" gradientUnits="userSpaceOnUse">
<stop stop-color="white"/>
<stop offset="1" stop-color="white" stop-opacity="0.3"/>
</linearGradient>
<linearGradient id="paint3_linear_5015_6030" x1="707.316" y1="279.134" x2="1150.59" y2="360.435" gradientUnits="userSpaceOnUse">
<stop stop-color="#1DA593"/>
<stop offset="1" stop-color="#1DA593" stop-opacity="0"/>
</linearGradient>
<linearGradient id="paint4_linear_5015_6030" x1="794.192" y1="347.094" x2="1017.51" y2="420.861" gradientUnits="userSpaceOnUse">
<stop stop-color="#4FE2CE"/>
<stop offset="1" stop-color="#4FE2CE" stop-opacity="0"/>
</linearGradient>
<linearGradient id="paint5_linear_5015_6030" x1="551.325" y1="498.827" x2="406.776" y2="574.994" gradientUnits="userSpaceOnUse">
<stop stop-color="#36353D"/>
<stop offset="1" stop-color="#36353D" stop-opacity="0"/>
</linearGradient>
<linearGradient id="paint6_linear_5015_6030" x1="589.972" y1="490.357" x2="399.415" y2="587.449" gradientUnits="userSpaceOnUse">
<stop stop-color="#8E8B9B"/>
<stop offset="1" stop-color="#8E8B9B" stop-opacity="0"/>
</linearGradient>
<linearGradient id="paint7_linear_5015_6030" x1="586.943" y1="331.74" x2="338.982" y2="467.937" gradientUnits="userSpaceOnUse">
<stop stop-color="#1E1E1E"/>
<stop offset="0.605085" stop-color="#605C72" stop-opacity="0.3"/>
<stop offset="0.789295" stop-color="#605C72" stop-opacity="0.05"/>
<stop offset="0.938169" stop-color="#605C72" stop-opacity="0"/>
</linearGradient>
<linearGradient id="paint8_linear_5015_6030" x1="531.819" y1="349.044" x2="333.478" y2="449.614" gradientUnits="userSpaceOnUse">
<stop stop-color="white"/>
<stop offset="1" stop-color="white" stop-opacity="0"/>
</linearGradient>
<linearGradient id="paint9_linear_5015_6030" x1="560.535" y1="316.292" x2="209.451" y2="355.944" gradientUnits="userSpaceOnUse">
<stop stop-color="#2B2B2B"/>
<stop offset="1" stop-color="#605C72" stop-opacity="0"/>
</linearGradient>
<linearGradient id="paint10_linear_5015_6030" x1="571.566" y1="311.976" x2="355.22" y2="436.883" gradientUnits="userSpaceOnUse">
<stop stop-color="white"/>
<stop offset="1" stop-color="white" stop-opacity="0"/>
</linearGradient>
<linearGradient id="paint11_linear_5015_6030" x1="473.317" y1="387.025" x2="230.626" y2="523.927" gradientUnits="userSpaceOnUse">
<stop stop-color="#141421"/>
<stop offset="1" stop-color="#111128" stop-opacity="0"/>
</linearGradient>
<linearGradient id="paint12_linear_5015_6030" x1="582.927" y1="306.527" x2="352.665" y2="439.302" gradientUnits="userSpaceOnUse">
<stop stop-color="#1C1C2D"/>
<stop offset="1" stop-opacity="0"/>
</linearGradient>
<linearGradient id="paint13_linear_5015_6030" x1="538.139" y1="293.258" x2="495.385" y2="451.63" gradientUnits="userSpaceOnUse">
<stop stop-color="#D9D9D9"/>
<stop offset="1" stop-color="#737373" stop-opacity="0.1"/>
</linearGradient>
<linearGradient id="paint14_linear_5015_6030" x1="397.81" y1="275.27" x2="430.948" y2="484.935" gradientUnits="userSpaceOnUse">
<stop stop-color="#4FE2CE" stop-opacity="0.194709"/>
<stop offset="0.191376" stop-color="#4FE2CE"/>
<stop offset="0.85185" stop-color="#4FE2CE"/>
<stop offset="1" stop-color="#4FE2CE" stop-opacity="0"/>
</linearGradient>
<linearGradient id="paint15_linear_5015_6030" x1="423.96" y1="357.469" x2="494.377" y2="320.035" gradientUnits="userSpaceOnUse">
<stop stop-color="#1DA593"/>
<stop offset="1" stop-color="#1DA593" stop-opacity="0"/>
</linearGradient>
<linearGradient id="paint16_linear_5015_6030" x1="373.729" y1="392.036" x2="486.372" y2="331.212" gradientUnits="userSpaceOnUse">
<stop stop-color="#4FE2CE"/>
<stop offset="1" stop-color="#4FE2CE" stop-opacity="0"/>
</linearGradient>
<clipPath id="clip0_5015_6030">
<rect width="81.1535" height="85.8121" fill="white" transform="matrix(0.994522 0.104528 -0.207912 0.978148 1127.23 238.785)"/>
</clipPath>
<clipPath id="clip1_5015_6030">
<rect width="538.931" height="706.24" fill="white" transform="translate(611.622) rotate(60)"/>
</clipPath>
<clipPath id="clip2_5015_6030">
<rect width="168" height="168" fill="white" transform="translate(447.332 276.014) rotate(61)"/>
</clipPath>
</defs>
</svg>
