<svg width="140" height="140" viewBox="0 0 140 140" fill="none" xmlns="http://www.w3.org/2000/svg">
<path d="M55.3273 115C55.9179 112.753 58.5107 102.414 58.5107 94.3232C58.5107 91.1768 56.7518 84.8855 54.98 82.638C53.2081 80.3905 51.4363 79.4915 50.5503 73.1986C49.6644 66.9057 49.8688 59.976 47.4496 57.4663C43.9817 53.8687 47.8926 49.3754 51.4363 52.5218C54.98 55.6683 56.7518 61.0606 56.7518 66.0051C56.7518 58.811 56.7518 43.6137 56.7518 34.2571C56.7518 32.1776 58.4376 30.4949 60.517 30.4949C62.5965 30.4949 64.2822 32.1807 64.2822 34.2601V53.4192V29.5437C64.2822 27.5866 65.8688 26 67.826 26C69.7831 26 71.3697 27.5866 71.3697 29.5437V53.4192V34.9376C71.3697 32.9805 72.9563 31.3939 74.9134 31.3939C76.8705 31.3939 78.4571 32.9805 78.4571 34.9376V53.4192V43.2566C78.4571 41.4218 79.9445 39.9343 81.7793 39.9343H81.9551C83.6928 39.9343 85.1016 41.3431 85.1016 43.0808" stroke="white" stroke-width="4" stroke-linecap="round" stroke-linejoin="round"/>
<path fill-rule="evenodd" clip-rule="evenodd" d="M95.8027 62.1368C96.2133 61.9213 96.4315 62.4649 96.5468 63.8517C96.7446 66.2303 98.8729 80.6019 99.9599 85.9962C100.601 89.1757 100.626 90.4301 102.809 89.7755C108.162 88.1694 114.612 89.5336 115.074 97.3175C115.536 105.101 110.679 106.81 107.689 106.81C104.7 106.81 101.457 104.865 100.483 100.193C99.2851 94.4452 100.684 92.8014 97.7685 91.6573C95.8396 91.2426 94.8584 91.532 94.0976 91.7091C93.5151 91.8444 93.6915 90.907 93.6923 90.3087L93.6933 89.1329C93.6937 88.9477 93.8548 88.8043 94.039 88.8204C94.8767 88.8937 95.4935 88.7124 96.4726 88.5128C96.9415 88.4169 97.2436 87.9694 97.1777 87.4942C95.1263 72.7152 93.3614 66.2781 93.2665 65.5528C93.1631 64.7596 94.6722 62.7306 95.8027 62.1368ZM93.6493 36.0938C93.9255 35.6835 94.6056 37.6405 94.8593 39.8702C95.2752 46.2861 95.7581 55.6843 95.6542 59.0909C95.6457 59.3635 95.4767 59.5849 95.2441 59.7198C95.1707 59.7624 95.0965 59.8068 95.0341 59.8644C93.3889 61.3856 92.3762 62.696 92.1933 63.6183C91.8759 65.219 88.0924 82.508 87.4091 87.5909C87.3478 88.0472 87.6273 88.4784 88.0732 88.589C89.0695 88.8361 89.2209 88.8892 90.3193 88.7931C90.5033 88.7771 90.6635 88.9204 90.664 89.1056L90.6669 91.3653C90.6672 91.5754 90.4638 91.7292 90.2597 91.6817C89.4989 91.5047 88.4021 91.203 86.7265 91.5675C83.797 92.6742 85.1746 94.336 83.9032 100.068C82.87 104.727 79.6022 106.63 76.6132 106.592C73.6242 106.554 68.7883 104.783 69.3495 97.006C69.911 89.2285 76.3778 87.9466 81.7109 89.6212C83.8842 90.3035 83.9262 89.0636 84.6073 85.8927C85.763 80.5125 88.5642 64.6875 88.8603 62.3204C89.3743 51.9705 89.4126 53.7274 89.6581 53.3341C89.9219 52.9109 91.5529 52.0744 92.1845 51.1251C92.4221 50.7626 93.3996 36.4666 93.6493 36.0938ZM110.792 92.8087C109.649 91.7891 108.189 91.3952 106.764 91.6231C105.296 91.8579 104.074 92.5273 103.3 93.714C102.52 94.9088 102.141 96.711 102.533 99.3116L102.535 99.3282L102.536 99.3438C102.644 100.549 103.189 101.921 104.105 102.972C105.014 104.013 106.265 104.716 107.807 104.671C109.43 104.623 110.759 104.088 111.654 103.039C112.553 101.986 113.086 100.332 112.94 97.9063C112.796 95.5074 111.934 93.8278 110.792 92.8087ZM77.7323 91.4181C76.3098 91.1719 74.8439 91.5459 73.6884 92.5509C72.5338 93.5552 71.6507 95.2242 71.4755 97.6212C71.2984 100.045 71.8116 101.706 72.6972 102.771C73.579 103.83 74.901 104.383 76.5234 104.451C78.0646 104.516 79.3243 103.83 80.246 102.8C81.1756 101.761 81.737 100.396 81.8603 99.1925L81.8632 99.1759L81.8652 99.1603C82.2909 96.5648 81.9332 94.7576 81.1689 93.5528C80.4095 92.3565 79.1962 91.6716 77.7323 91.4181ZM91.1474 49.4395L89.6581 51.1251C89.5631 51.2327 89.3865 51.1672 89.3866 51.0235C89.3933 45.9255 89.7925 41.4007 90.1073 39.1847C90.4307 36.9087 91.1163 36.3022 91.4189 36.2833L91.1474 49.4395Z" fill="white"/>
<path d="M34.4831 107C35.1142 104.75 37.7705 98.8984 36.6261 90.35C36.6261 87.2 35.4818 84.9516 33.5885 82.7016C31.6952 80.4516 29.8019 79.5516 28.8553 73.2516C27.9086 66.9516 28.127 60.0141 25.542 57.5016C21.8364 53.9 26.0153 49.4016 29.8019 52.5516C33.5885 55.7016 35.4818 61.1 35.4818 66.05V34.5421C35.4818 32.3067 37.2831 30.5 39.5051 30.5C41.727 30.5 43.5283 32.3121 43.5283 34.5475M43.5283 34.5475V48.95M43.5283 34.5475V29.8094C43.5283 27.7055 45.2236 26 47.3149 26C49.4062 26 51.1016 27.7055 51.1016 29.8094V35.2094V45.35" stroke="white" stroke-width="1.5" stroke-linecap="round"/>
</svg>
