<svg width="885" height="875" viewBox="50 0 885 875" fill="none" xmlns="http://www.w3.org/2000/svg">
<path d="M50 42.5C50 26.1328 50 17.9493 53.684 11.9375C55.7454 8.57365 58.5736 5.74539 61.9375 3.684C67.9493 0 76.1328 0 92.5 0H892.5C908.867 0 917.051 0 923.062 3.684C926.426 5.74539 929.255 8.57365 931.316 11.9375C935 17.9493 935 26.1328 935 42.5V832.5C935 848.867 935 857.051 931.316 863.062C929.255 866.426 926.426 869.255 923.062 871.316C917.051 875 908.867 875 892.5 875H92.5C76.1329 875 67.9493 875 61.9375 871.316C58.5736 869.255 55.7454 866.426 53.684 863.062C50 857.051 50 848.867 50 832.5V42.5Z" fill="white" fill-opacity="0.07"/>
<path d="M92.5 1H892.5C900.703 1 906.785 1.0011 911.57 1.45605C916.34 1.90961 919.718 2.80764 922.54 4.53711C925.769 6.51599 928.484 9.23084 930.463 12.46C932.192 15.2822 933.09 18.6599 933.544 23.4297C933.999 28.2146 934 34.2971 934 42.5V832.5C934 840.703 933.999 846.785 933.544 851.57C933.09 856.34 932.192 859.718 930.463 862.54C928.484 865.769 925.769 868.484 922.54 870.463C919.718 872.192 916.34 873.09 911.57 873.544C906.785 873.999 900.703 874 892.5 874H92.5C84.2971 874 78.2146 873.999 73.4297 873.544C68.6599 873.09 65.2822 872.192 62.46 870.463C59.2308 868.484 56.516 865.769 54.5371 862.54C52.8076 859.718 51.9096 856.34 51.4561 851.57C51.0011 846.785 51 840.703 51 832.5V42.5C51 34.2971 51.0011 28.2146 51.4561 23.4297C51.9096 18.6599 52.8076 15.2822 54.5371 12.46C56.516 9.23083 59.2308 6.51598 62.46 4.53711C65.2822 2.80763 68.6599 1.90961 73.4297 1.45605C78.2146 1.0011 84.2971 1 92.5 1Z" stroke="white" stroke-opacity="0.2" stroke-width="2"/>
<ellipse cx="20.9953" cy="7.68578" rx="20.9953" ry="7.68578" transform="matrix(-1 0 0 1 573.617 511.746)" stroke="white" stroke-width="1.09909"/>
<ellipse cx="17.2461" cy="5.34255" rx="17.2461" ry="5.34255" transform="matrix(-1 0 0 1 727.516 454.197)" stroke="white" stroke-width="1.09909"/>
<path d="M536.877 524.282C534.866 523.196 533.692 521.889 533.692 520.484C533.692 516.708 542.166 513.646 552.62 513.646C563.073 513.646 571.547 516.708 571.547 520.484C571.547 521.889 570.374 523.196 568.362 524.282" stroke="white" stroke-width="0.439638" stroke-linecap="round"/>
<path d="M697.362 462.869C695.712 462.131 694.75 461.245 694.75 460.291C694.75 457.727 701.7 455.648 710.273 455.648C718.847 455.648 725.797 457.727 725.797 460.291C725.797 461.245 724.835 462.131 723.185 462.869" stroke="white" stroke-width="0.439638" stroke-linecap="round"/>
<path d="M504.814 502.936L504.548 502.455L504.814 502.936ZM623.662 448.105L623.482 447.586L623.626 447.535L623.775 447.567L623.662 448.105ZM500.596 490.845L500.438 491.372C500.21 491.303 500.052 491.095 500.046 490.857C500.041 490.619 500.19 490.404 500.416 490.326L500.596 490.845ZM631.987 527.754L631.772 527.248V527.248L631.987 527.754ZM741.866 481.135L741.652 480.629L741.866 481.135ZM741.74 479.366L741.881 478.835L741.881 478.835L741.74 479.366ZM618.976 526.021L618.811 526.545L618.805 526.543L618.976 526.021ZM625.527 528.071L625.691 527.546V527.546L625.527 528.071ZM735.106 477.61L734.965 478.141L734.956 478.139L734.947 478.136L735.106 477.61ZM732.2 466.258L732.421 466.761L732.417 466.763L732.2 466.258ZM656.936 445.458L656.743 444.944L656.745 444.943L656.936 445.458ZM655.155 446.126L654.929 445.625L654.945 445.618L654.962 445.612L655.155 446.126ZM529.613 528.712L529.817 528.201L529.613 528.712ZM716.009 450.418L715.86 450.947L716.009 450.418ZM553.178 532.554V532.005C562.488 532.005 570.848 530.51 576.685 528.143L576.891 528.652L577.098 529.161C571.096 531.596 562.588 533.104 553.178 533.104V532.554ZM504.814 502.936L505.079 503.417C503.031 504.549 501.266 505.787 499.959 507.076C498.647 508.369 497.835 509.676 497.61 510.943C497.39 512.181 497.717 513.459 498.851 514.764C500.001 516.086 501.978 517.427 505.027 518.711L504.814 519.218L504.6 519.724C501.475 518.408 499.327 516.986 498.022 515.485C496.701 513.966 496.242 512.36 496.527 510.751C496.808 509.172 497.791 507.67 499.188 506.293C500.589 504.912 502.444 503.618 504.548 502.455L504.814 502.936ZM623.662 448.105L623.842 448.624L500.776 491.364L500.596 490.845L500.416 490.326L623.482 447.586L623.662 448.105ZM741.866 481.135L741.652 480.629C741.992 480.485 741.956 479.992 741.599 479.897L741.74 479.366L741.881 478.835C743.25 479.197 743.385 481.088 742.081 481.641L741.866 481.135ZM600.417 523.182V523.731C590.41 523.731 582.97 526.588 576.923 529.216L576.704 528.712L576.485 528.208C582.578 525.56 590.184 522.632 600.417 522.632V523.182ZM618.976 526.021L618.805 526.543C613.335 524.755 606.551 523.731 600.417 523.731V523.182V522.632C606.656 522.632 613.557 523.671 619.146 525.498L618.976 526.021ZM625.527 528.071L625.363 528.595L618.811 526.545L618.976 526.021L619.14 525.496L625.691 527.546L625.527 528.071ZM741.74 479.366L741.599 479.897L734.965 478.141L735.106 477.61L735.246 477.079L741.881 478.835L741.74 479.366ZM631.987 527.754L632.202 528.26C630.034 529.179 627.61 529.298 625.363 528.595L625.527 528.071L625.691 527.546C627.689 528.171 629.845 528.066 631.772 527.248L631.987 527.754ZM504.814 502.936L504.548 502.455C507.034 501.081 508.107 499.213 508.107 497.588H508.657H509.206C509.206 499.725 507.805 501.911 505.079 503.417L504.814 502.936ZM508.657 497.588H508.107C508.107 496.416 507.645 495.316 506.472 494.281C505.279 493.227 503.351 492.243 500.438 491.372L500.596 490.845L500.753 490.319C503.734 491.211 505.836 492.253 507.2 493.457C508.584 494.679 509.206 496.068 509.206 497.588H508.657ZM732.2 466.258L731.979 465.755C733.764 464.972 735.183 464.072 736.147 463.129C737.114 462.184 737.58 461.24 737.58 460.353H738.129H738.679C738.679 461.643 738.002 462.852 736.915 463.915C735.826 464.98 734.281 465.945 732.421 466.761L732.2 466.258ZM677.556 442.377V442.927C669.435 442.927 662.156 444.109 657.127 445.973L656.936 445.458L656.745 444.943C661.93 443.02 669.346 441.827 677.556 441.827V442.377ZM636.221 449.313V448.763C643.949 448.763 650.753 447.514 654.929 445.625L655.155 446.126L655.381 446.627C651.012 448.603 644.036 449.862 636.221 449.862V449.313ZM623.662 448.105L623.775 447.567C627.365 448.323 631.635 448.763 636.221 448.763V449.313V449.862C631.568 449.862 627.222 449.416 623.549 448.642L623.662 448.105ZM732.2 466.258L732.417 466.763C730.811 467.451 729.564 468.23 728.727 469.046C727.89 469.861 727.501 470.673 727.501 471.443H726.951H726.402C726.402 470.278 726.994 469.2 727.96 468.259C728.926 467.317 730.304 466.472 731.984 465.753L732.2 466.258ZM726.951 471.443H727.501C727.501 472.416 728.127 473.437 729.48 474.438C730.823 475.433 732.796 476.338 735.265 477.084L735.106 477.61L734.947 478.136C732.413 477.371 730.309 476.42 728.826 475.322C727.352 474.231 726.402 472.924 726.402 471.443H726.951ZM655.155 446.126L654.962 445.612L656.743 444.944L656.936 445.458L657.129 445.973L655.348 446.641L655.155 446.126ZM529.613 528.712L529.817 528.201C535.647 530.535 543.946 532.005 553.178 532.005V532.554V533.104C543.846 533.104 535.402 531.621 529.409 529.222L529.613 528.712ZM504.814 519.218L505.027 518.711C511.19 521.308 514.96 522.709 518.398 523.945C521.84 525.182 524.964 526.259 529.817 528.201L529.613 528.712L529.409 529.222C524.578 527.288 521.477 526.219 518.027 524.979C514.573 523.738 510.785 522.33 504.6 519.724L504.814 519.218ZM738.129 460.353H737.58C737.58 459.644 737.116 458.89 736.023 458.075C734.941 457.269 733.349 456.485 731.344 455.701C727.338 454.135 721.842 452.632 715.86 450.947L716.009 450.418L716.158 449.889C722.11 451.565 727.674 453.087 731.744 454.677C733.778 455.472 735.479 456.299 736.68 457.194C737.869 458.081 738.679 459.12 738.679 460.353H738.129ZM716.009 450.418L715.86 450.947C708.972 449.007 701.437 446.999 694.595 445.478C687.739 443.953 681.625 442.927 677.556 442.927V442.377V441.827C681.757 441.827 687.975 442.88 694.833 444.405C701.704 445.933 709.261 447.946 716.158 449.889L716.009 450.418ZM631.987 527.754L631.772 527.248L635.351 525.73L635.566 526.236L635.78 526.742L632.202 528.26L631.987 527.754ZM645.969 521.822L645.755 521.316L741.652 480.629L741.866 481.135L742.081 481.641L646.184 522.327L645.969 521.822Z" fill="white"/>
<path d="M579.004 539.777C572.568 542.256 563.772 543.055 553.594 543.055C543.077 543.055 533.466 541.305 526.554 538.277C516.674 534.901 495.702 527.639 492.088 521.993C488.475 516.347 489.956 508.859 501.985 501.192M578.801 539.839C585.401 537.116 589.23 534.901 600.235 534.901C608.008 534.901 613.781 537.359 620.855 539.641M737.079 458.133C738.485 459.351 739.516 461.038 741.203 464.975C742.703 468.474 739.422 471.401 735.954 472.942C733.33 474.108 733.986 477.066 736.704 478.003M742.14 479.601L742.194 479.651C743.088 480.486 743.822 481.474 744.356 482.574C744.947 483.791 745.753 485.455 746.547 487.095" stroke="white" stroke-width="1.09909"/>
<ellipse cx="70.8591" cy="22.2138" rx="70.8591" ry="22.2138" transform="matrix(-1 0 0 1 696.398 464.133)" stroke="white" stroke-width="1.09909"/>
<ellipse cx="62.9859" cy="17.6211" rx="62.9859" ry="17.6211" transform="matrix(-1 0 0 1 688.523 470.318)" stroke="white" stroke-width="1.09909"/>
<path d="M565.36 493.188C565.933 492.049 566.933 490.946 568.317 489.893C576.703 483.51 599.156 478.941 625.537 478.941C651.918 478.941 674.371 483.51 682.757 489.893C684.139 490.944 685.138 492.045 685.711 493.183" stroke="white" stroke-width="1.09909"/>
<path d="M557.342 517.228C556.883 517.236 556.411 517.315 556.043 517.479L552.318 519.134L548.25 517.611C547.858 517.465 547.376 517.402 546.916 517.41C546.457 517.418 545.986 517.498 545.618 517.661C545.282 517.811 544.939 518.083 544.981 518.491C545.002 518.685 545.109 518.842 545.24 518.959C545.371 519.076 545.542 519.17 545.738 519.243L549.179 520.529L546.066 521.913C545.73 522.063 545.387 522.336 545.43 522.744C545.45 522.938 545.558 523.095 545.688 523.212C545.819 523.329 545.991 523.423 546.188 523.496C546.58 523.643 547.061 523.705 547.521 523.697C547.98 523.689 548.451 523.61 548.819 523.446L552.545 521.79L556.612 523.312C557.004 523.459 557.486 523.522 557.946 523.514C558.405 523.506 558.877 523.427 559.245 523.264C559.582 523.114 559.924 522.841 559.881 522.433C559.86 522.239 559.753 522.082 559.622 521.965C559.491 521.848 559.32 521.755 559.124 521.682L555.686 520.394L558.796 519.011C559.133 518.861 559.476 518.589 559.433 518.181C559.412 517.987 559.305 517.83 559.174 517.713C559.043 517.596 558.872 517.502 558.676 517.429C558.284 517.282 557.802 517.22 557.342 517.228Z" stroke="white" stroke-width="0.659457"/>
<path d="M713.286 457.351C712.906 457.357 712.519 457.417 712.221 457.539L709.058 458.832L705.604 457.645C705.284 457.535 704.888 457.486 704.507 457.492C704.127 457.498 703.74 457.559 703.441 457.681C703.293 457.741 703.165 457.818 703.074 457.914C702.981 458.012 702.916 458.143 702.934 458.293C702.95 458.437 703.037 458.551 703.14 458.636C703.243 458.721 703.38 458.79 703.54 458.845L706.52 459.869L703.819 460.974C703.671 461.034 703.543 461.11 703.452 461.206C703.359 461.304 703.294 461.435 703.312 461.585C703.328 461.729 703.415 461.843 703.518 461.928C703.621 462.013 703.758 462.082 703.917 462.137C704.237 462.247 704.633 462.295 705.014 462.289C705.394 462.283 705.78 462.223 706.079 462.101L709.243 460.807L712.696 461.995C713.016 462.105 713.412 462.153 713.793 462.146C714.173 462.14 714.559 462.081 714.857 461.959C715.006 461.898 715.135 461.821 715.226 461.726C715.319 461.627 715.382 461.496 715.365 461.347C715.349 461.203 715.263 461.088 715.16 461.004C715.057 460.919 714.919 460.85 714.76 460.795L711.781 459.77L714.48 458.666C714.629 458.605 714.757 458.529 714.848 458.434C714.941 458.335 715.005 458.204 714.988 458.055C714.972 457.911 714.885 457.796 714.782 457.712C714.679 457.627 714.541 457.558 714.382 457.503C714.062 457.393 713.667 457.344 713.286 457.351Z" stroke="white" stroke-width="0.439638"/>
<path d="M627.039 448.76L622.915 447.655V299.543" stroke="white" stroke-width="1.09909"/>
<path d="M624.592 453.356L727.17 481.178C728.202 481.458 728.297 482.887 727.311 483.301L633.699 522.6C631.937 523.34 629.973 523.445 628.143 522.897L518.407 490.074C517.358 489.76 517.331 488.284 518.368 487.931L619.781 453.506C621.334 452.979 623.009 452.927 624.592 453.356Z" stroke="white" stroke-width="0.439638"/>
<path d="M628.354 467.224C628.354 468.208 629.151 469.005 630.135 469.005C631.118 469.005 631.916 468.208 631.916 467.224C631.916 466.241 631.118 465.443 630.135 465.443C629.151 465.443 628.354 466.241 628.354 467.224Z" stroke="white" stroke-width="0.439638"/>
<path d="M636.415 467.599C636.415 468.583 637.212 469.38 638.195 469.38C639.179 469.38 639.976 468.583 639.976 467.599C639.976 466.616 639.179 465.818 638.195 465.818C637.212 465.818 636.415 466.616 636.415 467.599Z" stroke="white" stroke-width="0.439638"/>
<path d="M644.288 468.162C644.288 469.145 645.085 469.942 646.069 469.942C647.052 469.942 647.849 469.145 647.849 468.162C647.849 467.178 647.052 466.381 646.069 466.381C645.085 466.381 644.288 467.178 644.288 468.162Z" stroke="white" stroke-width="0.439638"/>
<path d="M651.974 468.911C651.974 469.895 652.687 470.692 653.567 470.692C654.447 470.692 655.16 469.895 655.16 468.911C655.16 467.928 654.447 467.13 653.567 467.13C652.687 467.13 651.974 467.928 651.974 468.911Z" stroke="white" stroke-width="0.439638"/>
<path d="M659.097 470.036C659.097 471.02 659.81 471.817 660.69 471.817C661.57 471.817 662.284 471.02 662.284 470.036C662.284 469.053 661.57 468.255 660.69 468.255C659.81 468.255 659.097 469.053 659.097 470.036Z" stroke="white" stroke-width="0.439638"/>
<path d="M666.033 471.723C666.033 472.707 666.704 473.504 667.533 473.504C668.361 473.504 669.032 472.707 669.032 471.723C669.032 470.74 668.361 469.942 667.533 469.942C666.704 469.942 666.033 470.74 666.033 471.723Z" stroke="white" stroke-width="0.439638"/>
<path d="M672.408 473.346C672.366 474.329 673.003 475.154 673.83 475.189C674.658 475.225 675.363 474.457 675.404 473.474C675.446 472.491 674.809 471.666 673.982 471.631C673.154 471.596 672.45 472.364 672.408 473.346Z" stroke="white" stroke-width="0.439638"/>
<path d="M678.032 475.218C677.982 476.201 678.528 477.027 679.252 477.063C679.976 477.1 680.603 476.334 680.653 475.351C680.703 474.369 680.157 473.543 679.433 473.506C678.709 473.47 678.082 474.236 678.032 475.218Z" stroke="white" stroke-width="0.439638"/>
<path d="M683.13 477.367C682.939 478.419 683.28 479.362 683.891 479.473C684.502 479.584 685.153 478.821 685.344 477.769C685.535 476.716 685.194 475.773 684.583 475.663C683.972 475.552 683.321 476.315 683.13 477.367Z" stroke="white" stroke-width="0.439638"/>
<path d="M687.323 480.217C686.991 481.422 687.126 482.511 687.625 482.649C688.124 482.786 688.798 481.92 689.13 480.715C689.462 479.51 689.327 478.421 688.828 478.283C688.329 478.146 687.655 479.012 687.323 480.217Z" stroke="white" stroke-width="0.439638"/>
<path d="M690.378 483.204C689.639 484.213 689.334 485.246 689.696 485.511C690.059 485.777 690.951 485.174 691.69 484.165C692.428 483.156 692.733 482.123 692.371 481.858C692.009 481.593 691.116 482.195 690.378 483.204Z" stroke="white" stroke-width="0.439638"/>
<path d="M620.106 467.224C620.106 468.208 620.903 469.005 621.887 469.005C622.87 469.005 623.667 468.208 623.667 467.224C623.667 466.241 622.87 465.443 621.887 465.443C620.903 465.443 620.106 466.241 620.106 467.224Z" stroke="white" stroke-width="0.439638"/>
<path d="M612.232 467.599C612.232 468.583 613.03 469.38 614.013 469.38C614.997 469.38 615.794 468.583 615.794 467.599C615.794 466.616 614.997 465.818 614.013 465.818C613.03 465.818 612.232 466.616 612.232 467.599Z" stroke="white" stroke-width="0.439638"/>
<path d="M604.734 468.162C604.734 469.145 605.531 469.942 606.515 469.942C607.499 469.942 608.296 469.145 608.296 468.162C608.296 467.178 607.499 466.381 606.515 466.381C605.531 466.381 604.734 467.178 604.734 468.162Z" stroke="white" stroke-width="0.439638"/>
<path d="M597.986 468.724C597.986 469.707 598.699 470.505 599.579 470.505C600.459 470.505 601.172 469.707 601.172 468.724C601.172 467.74 600.459 466.943 599.579 466.943C598.699 466.943 597.986 467.74 597.986 468.724Z" stroke="white" stroke-width="0.439638"/>
<path d="M591.425 469.849C591.425 470.832 592.138 471.629 593.018 471.629C593.898 471.629 594.611 470.832 594.611 469.849C594.611 468.865 593.898 468.068 593.018 468.068C592.138 468.068 591.425 468.865 591.425 469.849Z" stroke="white" stroke-width="0.439638"/>
<path d="M585.239 470.973C585.239 471.957 585.868 472.754 586.644 472.754C587.421 472.754 588.05 471.957 588.05 470.973C588.05 469.99 587.421 469.193 586.644 469.193C585.868 469.193 585.239 469.99 585.239 470.973Z" stroke="white" stroke-width="0.439638"/>
<path d="M579.802 472.286C579.802 473.269 580.432 474.066 581.208 474.066C581.985 474.066 582.614 473.269 582.614 472.286C582.614 471.302 581.985 470.505 581.208 470.505C580.432 470.505 579.802 471.302 579.802 472.286Z" stroke="white" stroke-width="0.439638"/>
<path d="M574.183 474.082C574.259 475.062 574.948 475.808 575.722 475.748C576.496 475.688 577.062 474.845 576.986 473.864C576.91 472.884 576.221 472.137 575.447 472.197C574.672 472.257 574.107 473.101 574.183 474.082Z" stroke="white" stroke-width="0.439638"/>
<path d="M569.479 475.945C569.6 476.921 570.239 477.646 570.907 477.563C571.575 477.481 572.019 476.622 571.898 475.646C571.777 474.67 571.138 473.946 570.47 474.028C569.802 474.111 569.359 474.969 569.479 475.945Z" stroke="white" stroke-width="0.439638"/>
<path d="M565.647 478.128C565.921 479.073 566.546 479.722 567.043 479.577C567.54 479.433 567.721 478.551 567.448 477.606C567.174 476.661 566.549 476.012 566.052 476.157C565.554 476.301 565.373 477.183 565.647 478.128Z" stroke="white" stroke-width="0.439638"/>
<path d="M562.368 480.457C562.75 481.435 563.45 482.076 563.933 481.888C564.415 481.699 564.496 480.753 564.114 479.775C563.732 478.796 563.031 478.156 562.549 478.344C562.066 478.532 561.985 479.478 562.368 480.457Z" stroke="white" stroke-width="0.439638"/>
<path d="M559.787 483.45C560.47 484.326 561.324 484.803 561.696 484.513C562.067 484.224 561.815 483.279 561.133 482.402C560.45 481.526 559.596 481.049 559.224 481.339C558.853 481.628 559.105 482.573 559.787 483.45Z" stroke="white" stroke-width="0.439638"/>
<path d="M558.377 487.029C559.407 487.706 560.424 487.976 560.649 487.633C560.874 487.29 560.221 486.464 559.191 485.788C558.161 485.112 557.144 484.842 556.919 485.185C556.694 485.527 557.347 486.353 558.377 487.029Z" stroke="white" stroke-width="0.439638"/>
<path d="M270.306 453.076C270.306 437.892 277.43 431.127 287.271 433.765C289.375 434.328 329.225 447.469 378.001 463.602C385.57 466.106 402.727 504.298 410.618 506.91C485.549 531.711 560.774 559.78 562.834 560.456C579.06 565.776 590.859 581.943 590.859 601.062V674.32C590.859 688.43 577.007 698.372 563.64 693.856L562.834 693.584L552.524 689.276M271.401 557.673C272.382 561.68 274 565.474 276.167 568.921M403.776 628.378L425.053 637.004" stroke="white" stroke-width="1.75855"/>
<path d="M277.319 555.853C278.229 559.569 279.73 563.088 281.74 566.285M409.656 625.739L429.389 633.74M555.429 687.956L559.429 689.589L560.176 689.841C572.574 694.029 585.422 684.808 585.422 671.723V603.779C585.422 586.048 574.478 571.054 559.429 566.12C557.518 565.493 473.876 534.024 404.379 511.023C397.06 508.601 381.147 471.492 374.127 469.17C328.888 454.207 291.553 441.083 289.601 440.56C282.261 438.593 276.551 442.265 274.596 451.103" stroke="white" stroke-width="1.09909"/>
<path d="M499.289 488.197C491.178 485.416 483.023 482.663 474.94 479.988C467.344 477.473 450.829 438.837 443.543 436.427C396.593 420.898 363.647 411.318 361.622 410.775C358.459 409.927 355.587 410.089 353.166 411.224L278.182 434.139" stroke="white" stroke-width="1.75855"/>
<path d="M345.945 400.021C347.97 400.564 451.117 433.232 498.067 448.761L622.82 411.363" stroke="white" stroke-width="1.75855"/>
<path d="M502.008 491.176L500.492 490.77C499.672 490.55 499.102 489.808 499.102 488.959V333.85C499.102 324.963 504.796 317.076 513.231 314.278L596.734 286.581C599.938 285.518 602.201 282.647 602.484 279.282L607.35 221.275C607.514 219.323 606.143 217.576 604.208 217.271L586.571 214.493C561.954 210.633 535.725 207.349 510.277 203.796C506.229 203.231 502.198 204.945 499.809 208.261L494.183 216.068C491.798 219.377 487.749 221.055 483.722 220.403L462.327 216.937C458.923 216.385 456.155 213.894 455.249 210.567L452.252 199.557C451.561 197.017 449.426 195.132 446.82 194.76L374.443 184.443C370.061 183.772 367.738 186.599 367.459 187.818C360.571 217.812 356.069 248.479 348.573 279.562C346.768 287.046 345.855 294.718 345.855 302.416V413.987" stroke="white" stroke-width="1.31891"/>
<path d="M718.328 195.879L606.603 218.186" stroke="white" stroke-width="1.31891"/>
<path d="M629.382 283.797L658.939 276.184C659.635 276.005 660.312 276.53 660.312 277.248V289.96C660.312 291.961 658.961 293.71 657.025 294.214L633.253 300.409C630.705 301.073 628.04 301.157 625.456 300.653L593.296 294.388L629.382 283.797Z" stroke="white" stroke-width="1.31891"/>
<path d="M599.763 285.204L721.689 256.114C724.739 255.386 726.755 252.481 726.369 249.369L720.216 199.759C719.877 197.021 717.758 194.844 715.031 194.431L696.772 191.662L586.266 214.345" stroke="white" stroke-width="1.31891"/>
<path d="M729.136 454.355C757.498 461.725 785.511 469.014 786.474 469.32C799.071 473.324 808.312 486.48 808.312 502.093L808.302 510.528M686.489 443.201C642.433 431.78 624.464 427.297 622.917 427.297M579.145 693.206L699.681 632.692" stroke="white" stroke-width="1.31891"/>
<path d="M590.861 599.57L620.667 586.229M808.219 502.279L804.938 503.748" stroke="white" stroke-width="1.97837"/>
<path d="M501.07 326.163L602.203 296.264" stroke="white" stroke-width="1.97837"/>
<path d="M660.498 277.517L723.297 255.865" stroke="white" stroke-width="1.31891"/>
<path fill-rule="evenodd" clip-rule="evenodd" d="M625.693 478.715C596.123 478.715 571.456 484.813 565.779 492.916C573.469 500.11 597.382 505.358 625.693 505.358C654.006 505.358 677.921 500.11 685.609 492.916C679.933 484.813 655.264 478.715 625.693 478.715Z" fill="#713ADA" fill-opacity="0.1"/>
<path d="M493.039 169.634V153.65M462.349 165.323V154.24M414.963 177.645V161.149" stroke="white" stroke-width="0.439638" stroke-linejoin="round"/>
<path d="M367.255 172.865V189.224M372.316 174.083V184.725M594.662 206.704V212.656M587.538 206.825V213.781M701.867 184.675L701.867 192.317M472.201 185.998L586.994 202.511C589.19 202.779 592.361 202.718 594.076 202.375L639.372 193.761C640.105 193.622 640.079 192.564 639.341 192.46L525 176.333L472.201 185.998ZM472.201 185.998L463.346 184.725M463.346 184.725L375.086 172.029C365.571 170.866 363.884 168.717 371.319 167.228L410.493 161.712C413.147 161.338 415.841 161.334 418.497 161.7L518.627 175.489L463.346 184.725ZM701.334 182.029C703.049 181.685 702.66 181.189 700.464 180.921L587.893 166.248L492.493 153.813C482.978 152.65 469.237 152.914 461.803 154.403L426.289 159.467C425.784 159.539 425.786 160.268 426.291 160.338L648.863 190.934C650.985 191.225 653.14 191.171 655.244 190.772L701.334 182.029ZM375.503 164.054C360.506 165.554 358.742 172.368 369.692 173.709L585.718 206.464C588.245 206.774 591.895 206.704 593.869 206.307L704.023 184.112C705.997 183.716 709.178 179.332 699.524 178.301L493.275 150.881C482.325 149.54 470.261 149.845 461.705 151.561L375.503 164.054Z" stroke="white" stroke-width="1.31891"/>
<path d="M295.705 449.51L316.607 493.094M300.767 494.406L279.209 450.166M333.384 498.204L317.968 493.634C313.733 492.176 306.953 492.162 302.494 493.602L204.226 528.93M130.93 501.435L159.611 547.175C159.909 547.989 160.919 548.772 162.655 549.4L220.168 571.967C224.558 573.556 231.863 573.524 236.337 571.896L374.997 516.425C377.293 515.589 378.384 514.5 378.273 513.433L378.28 479.597M237.212 533.214L374.004 483.426C379.646 481.373 379.618 478.123 373.94 476.168L298.18 450.081C292.746 448.21 284.047 448.192 278.325 450.04L135.316 496.227C129.184 498.207 128.808 501.56 134.487 503.617L216.464 533.305C222.098 535.345 231.471 535.304 237.212 533.214Z" stroke="white" stroke-width="1.31891"/>
<path d="M384.191 533.304L405.093 576.888M389.253 578.201L367.695 533.961M424.87 583.453L406.454 577.429C402.219 575.971 395.439 575.957 390.98 577.397L294.961 616.765M226.914 591.229L255.595 636.969C255.894 637.782 256.904 638.566 258.639 639.194L316.152 661.76C320.542 663.35 327.847 663.318 332.321 661.69L463.483 600.22C465.779 599.384 466.87 598.295 466.759 597.228L466.767 563.392M333.197 623.008L462.49 567.221C468.132 565.167 468.104 561.918 462.426 559.963L386.666 533.876C381.232 532.005 372.533 531.987 366.811 533.835L231.301 586.02C225.169 588.001 224.792 591.353 230.472 593.41L312.449 623.098C318.082 625.138 327.455 625.098 333.197 623.008Z" stroke="white" stroke-width="1.31891"/>
<path d="M483.168 617.285L504.07 660.869M488.23 662.181L466.672 617.941M527.596 668.423L505.431 661.409C501.472 660.047 495.292 659.945 490.86 661.113C490.254 661.273 489.675 661.517 489.114 661.795L393.751 708.997M327.766 684.207L356.447 729.947C356.745 730.761 357.755 731.544 359.491 732.172L417.004 754.739C421.107 756.224 427.758 756.293 432.263 754.966C432.875 754.786 433.454 754.515 434.014 754.209L561.618 684.659C562.179 684.353 562.768 684.104 563.348 683.838C565.036 683.062 565.831 682.127 565.736 681.208L565.743 647.372M434.048 715.986L561.467 651.202C567.109 649.148 567.081 645.898 561.403 643.943L485.643 617.857C480.209 615.986 471.51 615.968 465.788 617.816L332.152 678.999C326.02 680.979 325.644 684.332 331.323 686.389L413.3 716.077C418.934 718.117 428.307 718.076 434.048 715.986Z" stroke="white" stroke-width="1.31891"/>
<path d="M774.942 538.459L775.163 519.338M759.102 539.771V529.742M857.517 566.934L776.303 538.999C772.068 537.542 765.288 537.527 760.829 538.967L661.059 581.199M620.195 543.052L620.758 598.164C621.056 598.978 622.066 599.761 623.802 600.389L733.803 647.325C738.193 648.915 745.498 648.883 749.972 647.255L814.267 621.004C831.892 613.808 848.314 603.96 862.963 591.802L879.918 577.731C882.171 575.583 882.646 574.862 882.535 573.795L882.543 545.582M783.19 484.087L790.084 486.461C795.062 488.175 799.151 491.802 801.447 496.54L810.428 515.075C812.841 520.054 817.229 523.796 822.528 525.391L878.203 542.154C883.88 544.109 883.351 546.345 879.918 549.519L862.858 562.782C848.234 574.151 832.002 583.282 814.693 589.876L750.847 614.197C745.106 616.286 735.733 616.327 730.1 614.287L668.254 586.259C664.491 584.554 661.356 581.712 659.289 578.134L648.268 559.053C645.937 555.017 642.255 551.934 637.873 550.346L623.753 545.233C618.074 543.176 618.45 539.823 624.582 537.843L639.41 531.678M755.352 483.475L659.093 523.495" stroke="white" stroke-width="1.31891"/>
<path d="M282.77 481.004L269.085 453.447C227.532 466.694 142.532 493.844 134.959 496.469C127.386 499.093 132.803 502.749 136.459 504.248C159.391 512.715 207.805 530.53 218.003 534.054C228.201 537.578 237.748 534.023 241.248 531.805L308.545 507.06L277.802 501.811L282.77 481.004Z" fill="url(#paint0_linear_7228_283272)" fill-opacity="0.1"/>
<path d="M381.278 562.359L367.594 534.803C326.041 548.05 240.267 581.105 232.693 583.729C225.12 586.354 230.538 590.009 234.193 591.509C257.125 599.976 305.54 617.79 315.737 621.315C325.935 624.839 335.483 621.283 338.982 619.065L406.279 593.758L376.311 583.167L381.278 562.359Z" fill="url(#paint1_linear_7228_283272)" fill-opacity="0.1"/>
<path d="M478.95 650.371L458.329 622.814C416.776 636.061 334.751 674.74 327.178 677.365C319.604 679.989 325.022 683.645 328.677 685.144C351.61 693.611 396.275 707.677 406.472 711.201C416.67 714.725 433.154 711.17 436.653 708.951L503.951 681.77L473.982 671.179L478.95 650.371Z" fill="url(#paint2_linear_7228_283272)" fill-opacity="0.1"/>
<path d="M378.279 512.591V480.91C377.685 481.473 376.329 482.728 375.654 483.253C374.811 483.909 240.31 532.742 235.904 533.68C232.38 534.429 229 534.867 227.75 534.992C228.125 547.739 229.118 573.233 230.093 573.233C231.312 573.233 235.904 572.015 237.966 571.359C240.029 570.703 372.655 517.652 375.654 516.059C378.054 514.784 378.404 513.215 378.279 512.591Z" fill="#D9D9D9" fill-opacity="0.1"/>
<path d="M466.764 595.821V564.141C466.17 564.703 464.814 565.959 464.14 566.484C463.296 567.14 332.544 623.471 328.139 624.408C324.615 625.158 321.234 625.596 319.984 625.721C320.359 638.468 321.353 663.962 322.328 663.962C323.546 663.962 328.139 662.744 330.201 662.087C332.263 661.431 461.14 600.882 464.14 599.289C466.539 598.014 466.889 596.446 466.764 595.821Z" fill="#D9D9D9" fill-opacity="0.1"/>
<path d="M565.742 680.552V648.871C565.148 649.433 563.792 650.689 563.117 651.214C562.274 651.87 436.396 715.887 431.99 716.825C428.466 717.574 425.086 718.012 423.836 718.137C424.211 730.884 425.204 756.378 426.179 756.378C427.398 756.378 431.99 755.16 434.052 754.504C436.114 753.848 560.118 685.613 563.117 684.019C565.517 682.745 565.867 681.176 565.742 680.552Z" fill="#D9D9D9" fill-opacity="0.1"/>
<path d="M882.546 572.763V545.77C881.953 546.332 880.597 547.588 879.922 548.113C879.554 548.399 861.15 568.025 833.62 581.949C798.111 599.908 751.276 613.195 748.795 613.723C745.271 614.473 741.89 614.91 740.641 615.035C741.016 627.782 742.009 648.59 742.984 648.59C744.202 648.59 748.795 647.372 750.857 646.716C752.092 646.323 800.559 630.672 837.088 610.63C861.534 597.217 878.719 576.87 879.922 576.231C882.321 574.957 882.671 573.388 882.546 572.763Z" fill="#D9D9D9" fill-opacity="0.1"/>
<path fill-rule="evenodd" clip-rule="evenodd" d="M590.903 599.554V665.333C605.32 658.414 640.192 641.657 677.88 623.545C650.56 612.023 623.611 600.663 622.727 600.319C621.377 599.795 620.602 598.664 620.383 598.164V586.392L590.903 599.554ZM581.14 573.264C582.675 574.687 583.793 574.471 585.735 579.762C587.678 585.052 589.098 587.608 589.377 589.198L620.383 575.61V556.565L581.14 573.264ZM535.271 540.775C538.493 541.586 546.268 543.208 551.584 543.208C556.899 543.208 561.027 542.851 562.426 542.673L561.98 532.333H550.481C548.128 532.333 540.386 531.808 536.809 531.546L535.271 540.775ZM572.836 530.11L574.812 541.262C576.552 540.787 580.253 539.696 581.14 539.127C580.697 537.419 578.636 531.403 577.66 528.608L572.836 530.11ZM631.261 528.038L629.051 528.608L630.696 534.985C631.78 534.535 633.003 534.03 634.349 533.469C635.724 532.896 637.228 532.267 638.848 531.591C635.222 529.969 634.86 527.808 635.887 526.082L631.261 528.038ZM741.777 481.312L644.457 522.458C648.571 522.037 653.878 522.162 658.624 523.314C687.042 511.407 726.224 494.952 746.392 486.524C745.537 484.802 744.646 483.04 744.013 481.802L742.615 480.404L741.777 481.312ZM805.15 503.898C806.119 505.793 807.187 507.846 808.328 509.935L808.23 502.524L805.15 503.898ZM787.37 485.514C788.46 485.867 789.543 486.187 790.595 486.438C796.874 487.938 798.375 492.343 800.249 494.687C800.505 495.007 800.847 495.575 801.268 496.34L807.35 493.675C806.592 490.855 805.447 487.862 804.622 485.396C803.797 482.929 802.279 481.236 800.936 479.742L787.37 485.514ZM500.547 326.264C499.852 327.892 498.581 332.556 499.055 338.191C499.528 343.828 499.252 412.338 499.055 445.889V488.991C499.055 489.615 499.381 489.858 499.824 490.189L499.884 490.234C500.263 490.519 501.029 490.59 501.364 490.59L623.199 448.056V437.991L622.838 300.191L601.362 295.926L500.547 326.264ZM737.949 459.863C738.057 460.484 737.982 462 736.816 463.101C735.359 464.476 732.203 465.933 730.342 467.066C728.48 468.199 726.781 470.061 727.104 471.355C727.428 472.65 727.023 474.027 731.312 476.131C734.744 477.814 735.98 477.965 736.169 477.83C735.414 477.317 733.984 476.018 734.308 474.917C734.712 473.541 737.707 472.327 738.921 471.355C740.135 470.384 741.915 468.119 741.673 466.5C741.43 464.881 738.597 459.863 737.949 459.863ZM628.598 284.118V300.847C630.211 300.939 634.239 300.763 637.446 299.325C641.456 297.528 654.45 294.625 657.077 294.072C659.704 293.519 660.448 291.256 660.448 289.447C660.448 288 659.952 279.946 659.704 276.1L628.598 284.118ZM606.591 218.29C606.934 218.595 607.591 219.557 607.469 220.962C607.316 222.722 602.545 277.793 602.393 279.396C602.27 280.678 600.688 283.542 599.912 284.814H601.362L724.001 255.246C724.626 254.781 725.944 253.666 726.209 252.923C726.54 251.995 726.673 249.543 726.673 249.309C726.673 249.076 720.097 199.242 720.02 198.505C719.957 197.915 718.947 196.533 718.449 195.916L606.591 218.29Z" fill="#D9D9D9" fill-opacity="0.07"/>
<path d="M768.032 488.408L765.02 488.597M780.506 490.965L783.76 495.334C784.123 495.884 784.316 496.465 784.314 497.065C784.298 500.559 777.655 503.397 769.476 503.405C761.297 503.412 754.68 500.586 754.695 497.092C754.697 496.626 754.818 496.171 755.044 495.734L756.682 492.421M782.337 493.861C782.323 496.861 776.469 499.298 769.259 499.305C762.05 499.312 756.217 496.885 756.23 493.885C756.244 490.885 762.099 488.448 769.308 488.441C776.517 488.434 782.35 490.861 782.337 493.861Z" stroke="white" stroke-width="1.31891"/>
<path d="M780.506 475.414L783.76 479.801C784.123 480.353 784.316 480.935 784.314 481.538C784.304 483.83 781.464 485.84 777.216 486.961M756.682 476.876L755.044 480.201C754.818 480.641 754.697 481.097 754.695 481.565C754.68 485.073 761.297 487.91 769.476 487.902C772.311 487.9 774.962 487.556 777.216 486.961M777.216 486.961V493.504C777.216 495.079 773.606 496.655 770.381 496.655C762.845 496.655 761.53 495.167 761.005 493.504V486.961M782.337 478.322C782.323 481.333 776.469 483.78 769.259 483.787C762.05 483.793 756.217 481.358 756.23 478.346C756.244 475.334 762.099 472.888 769.308 472.881C776.517 472.874 782.35 475.31 782.337 478.322Z" stroke="white" stroke-width="1.31891"/>
<path d="M661.022 524.523L664.502 529.221C664.891 529.812 665.097 530.436 665.094 531.081C665.084 533.535 662.047 535.688 657.502 536.889M635.539 526.089L633.787 529.65C633.545 530.121 633.416 530.609 633.414 531.111C633.397 534.867 640.476 537.905 649.224 537.897C652.257 537.894 655.092 537.525 657.502 536.889M657.502 536.889V543.895C657.502 545.582 653.642 547.269 650.192 547.269C642.131 547.269 640.725 545.676 640.163 543.895V536.889M662.98 527.637C662.966 530.862 656.703 533.482 648.992 533.489C641.281 533.496 635.042 530.888 635.056 527.663C635.07 524.438 641.333 521.818 649.044 521.811C656.755 521.803 662.994 524.412 662.98 527.637Z" stroke="white" stroke-width="1.31891"/>
<path d="M661.024 543.27L664.505 547.967C664.893 548.558 665.1 549.182 665.097 549.827C665.08 553.583 657.975 556.635 649.227 556.643C648.441 556.644 647.668 556.62 646.913 556.573M633.789 548.396L635.541 544.835M640.076 541.927C637.016 543.001 635.066 544.611 635.058 546.409C635.044 549.634 641.283 552.243 648.994 552.236C656.705 552.228 662.968 549.608 662.982 546.383C662.991 544.525 660.922 542.871 657.692 541.805" stroke="white" stroke-width="1.31891"/>
<path d="M754.602 496.844V525.231C754.602 527.092 755.77 528.777 757.585 529.194C760.233 529.802 763.533 530.167 765.662 529.18C769.504 527.399 779.346 516.433 784.126 498.156" stroke="white" stroke-width="1.31891"/>
<path d="M665.096 550.354C662.73 559.378 659.2 566.728 655.688 572.202" stroke="white" stroke-width="1.31891"/>
<path d="M112.961 583.429C110.426 584.526 109.261 587.47 110.358 590.004C111.455 592.538 114.398 593.704 116.932 592.607L114.947 588.018L112.961 583.429ZM191.704 558.651C192.72 556.083 191.463 553.178 188.895 552.162L147.054 535.598C144.487 534.581 141.582 535.839 140.565 538.406C139.549 540.974 140.806 543.879 143.374 544.896L180.565 559.619L165.842 596.811C164.825 599.378 166.083 602.284 168.65 603.3C171.218 604.317 174.123 603.059 175.14 600.492L191.704 558.651ZM114.947 588.018L116.932 592.607L189.041 561.399L187.055 556.811L185.069 552.222L112.961 583.429L114.947 588.018Z" fill="#4FE2CE"/>
<path d="M201.148 676.839C198.631 677.975 197.512 680.937 198.648 683.454C199.784 685.971 202.745 687.09 205.262 685.954L203.205 681.397L201.148 676.839ZM282.122 649.655C283.099 647.072 281.796 644.186 279.213 643.21L237.12 627.298C234.537 626.322 231.652 627.624 230.675 630.207C229.699 632.79 231.001 635.676 233.584 636.652L271 650.796L256.857 688.212C255.88 690.795 257.183 693.68 259.766 694.657C262.349 695.633 265.235 694.331 266.211 691.748L282.122 649.655ZM203.205 681.397L205.262 685.954L279.502 652.444L277.445 647.887L275.388 643.329L201.148 676.839L203.205 681.397Z" fill="#4FE2CE"/>
<path d="M312.946 771.671C310.524 772.999 309.638 776.038 310.965 778.459C312.293 780.881 315.332 781.767 317.753 780.44L315.349 776.056L312.946 771.671ZM383.73 742.6C384.503 739.949 382.981 737.173 380.33 736.399L337.132 723.794C334.481 723.021 331.705 724.542 330.931 727.193C330.158 729.844 331.68 732.62 334.331 733.394L372.729 744.598L361.525 782.997C360.751 785.648 362.273 788.424 364.924 789.197C367.575 789.971 370.351 788.449 371.124 785.798L383.73 742.6ZM315.349 776.056L317.753 780.44L381.333 745.584L378.93 741.199L376.526 736.815L312.946 771.671L315.349 776.056Z" fill="#4FE2CE"/>
<path d="M857.911 678.757C860.457 679.828 863.388 678.633 864.459 676.087C865.53 673.542 864.335 670.611 861.789 669.54L859.85 674.149L857.911 678.757ZM796.136 643.509C793.579 644.551 792.351 647.47 793.394 650.027L810.385 691.696C811.427 694.253 814.346 695.48 816.903 694.437C819.46 693.395 820.687 690.477 819.645 687.92L804.541 650.881L841.58 635.777C844.137 634.735 845.365 631.817 844.322 629.26C843.28 626.703 840.361 625.475 837.804 626.518L796.136 643.509ZM859.85 674.149L861.789 669.54L799.962 643.53L798.023 648.139L796.085 652.747L857.911 678.757L859.85 674.149Z" fill="#4FE2CE"/>
<path d="M576.273 63.1283C576.273 60.3669 574.035 58.1283 571.273 58.1283C568.512 58.1284 566.273 60.3669 566.273 63.1284L571.273 63.1283L576.273 63.1283ZM567.738 133.836C569.691 135.789 572.857 135.789 574.809 133.836L606.629 102.016C608.581 100.064 608.581 96.898 606.629 94.9454C604.676 92.9927 601.51 92.9928 599.558 94.9454L571.274 123.23L542.989 94.9455C541.037 92.9929 537.871 92.9929 535.918 94.9455C533.966 96.8982 533.966 100.064 535.918 102.017L567.738 133.836ZM571.273 63.1283L566.273 63.1284L566.274 130.301L571.274 130.301L576.274 130.301L576.273 63.1283L571.273 63.1283Z" fill="#4FE2CE"/>
<path d="M773.104 424.284C773.104 422.627 771.761 421.284 770.104 421.284C768.447 421.284 767.104 422.627 767.104 424.284L770.104 424.284L773.104 424.284ZM767.983 467.79C769.154 468.962 771.054 468.962 772.225 467.79L791.317 448.698C792.489 447.527 792.489 445.627 791.317 444.456C790.146 443.284 788.246 443.284 787.075 444.456L770.104 461.426L753.134 444.456C751.962 443.284 750.062 443.284 748.891 444.456C747.719 445.627 747.719 447.527 748.891 448.698L767.983 467.79ZM770.104 424.284L767.104 424.284L767.104 465.669L770.104 465.669L773.104 465.669L773.104 424.284L770.104 424.284Z" fill="#4FE2CE"/>
<path d="M652.009 466.496C652.009 464.839 650.666 463.496 649.009 463.496C647.352 463.496 646.009 464.839 646.009 466.496L649.009 466.496L652.009 466.496ZM646.887 513.84C648.059 515.012 649.959 515.012 651.13 513.84L670.222 494.748C671.394 493.577 671.394 491.677 670.222 490.506C669.05 489.334 667.151 489.334 665.979 490.506L649.009 507.476L632.038 490.506C630.867 489.334 628.967 489.334 627.796 490.506C626.624 491.677 626.624 493.577 627.796 494.748L646.887 513.84ZM649.009 466.496L646.009 466.496L646.009 511.719L649.009 511.719L652.009 511.719L652.009 466.496L649.009 466.496Z" fill="#4FE2CE"/>
<defs>
<linearGradient id="paint0_linear_7228_283272" x1="264.024" y1="462.726" x2="205.349" y2="523.369" gradientUnits="userSpaceOnUse">
<stop stop-color="#D9D9D9"/>
<stop offset="1" stop-color="#737373" stop-opacity="0"/>
</linearGradient>
<linearGradient id="paint1_linear_7228_283272" x1="361.758" y1="549.424" x2="303.084" y2="610.067" gradientUnits="userSpaceOnUse">
<stop stop-color="#D9D9D9"/>
<stop offset="1" stop-color="#737373" stop-opacity="0"/>
</linearGradient>
<linearGradient id="paint2_linear_7228_283272" x1="452.493" y1="637.436" x2="393.819" y2="698.079" gradientUnits="userSpaceOnUse">
<stop stop-color="#D9D9D9"/>
<stop offset="1" stop-color="#737373" stop-opacity="0"/>
</linearGradient>
</defs>
</svg>
