<svg width="530" height="196" viewBox="0 0 530 196" fill="none" xmlns="http://www.w3.org/2000/svg">
<path d="M151 51C151 23.3858 173.386 1 201 1H327.627C355.241 1 377.627 23.3858 377.627 51V71.1328C377.627 98.7471 355.241 121.133 327.627 121.133H271.183C266.693 121.133 262.294 122.392 258.484 124.768L222.948 146.926C216.287 151.08 207.657 146.29 207.657 138.441V130.576C207.657 125.36 203.429 121.133 198.214 121.133C172.138 121.133 151 99.9944 151 73.919V51Z" fill="#D9D9D9" fill-opacity="0.1" stroke="white" stroke-width="2"/>
<path d="M250 130.959H273.25H297.776C303.412 130.959 308.867 132.942 313.188 136.561L333.255 153.371C337.811 157.187 344.75 153.948 344.75 148.005V139.921C344.75 134.971 348.762 130.959 353.712 130.959C380.933 130.959 403 108.892 403 81.6705V60C403 31.2812 379.719 8 351 8" stroke="white"/>
<path d="M257.138 80.0876C255.464 80.0876 254.093 78.7274 254.186 77.056C254.67 68.3723 257.462 63.1752 264.984 57.6991C270.25 53.6806 275.403 51.9584 275.403 45.2992C275.517 38.9845 271.123 34.6216 263.108 34.6216C256.306 34.6216 252.081 39.135 250.412 45.9206C250.039 47.4382 248.705 48.5778 247.144 48.511L237 48.077C235.261 48.0026 233.928 46.4761 234.269 44.7693C236.961 31.2913 247.98 21.2344 262.65 21.2344C279.595 21.2344 291.388 31.6365 291.388 45.2992C291.388 53.2213 287.495 58.962 277.878 65.1619C272.718 68.481 270.921 71.7171 270.498 77.0578C270.366 78.7266 269.035 80.0876 267.361 80.0876H257.138ZM256.865 100.8C255.191 100.8 253.834 99.4429 253.834 97.7689V88.3312C253.834 86.6572 255.191 85.3002 256.865 85.3002H267.176C268.85 85.3002 270.207 86.6572 270.207 88.3312V97.7689C270.207 99.4429 268.85 100.8 267.176 100.8H256.865Z" stroke="white" stroke-width="2"/>
<path d="M268.892 86.2275C270.644 86.2275 272.065 87.6363 272.065 89.3741V101.445C272.065 103.182 270.644 104.591 268.892 104.591H257.338C255.585 104.591 254.164 103.182 254.164 101.445V98.8193M282.119 26.9199C292.728 32.9821 294.243 41.9883 294.243 47.7585C294.243 55.9824 291.81 61.4033 281.74 67.8394C276.338 71.2849 273.571 74.4003 273.128 79.9445C272.928 82.4594 270.838 83.8475 269.086 83.8475H258.381C256.628 83.8475 255.193 82.4355 255.29 80.7004C255.334 79.9236 255.395 80.6892 255.477 79.9636M274.921 47.3796C274.921 40.5597 269.39 38.1649 264.633 38.1649C257.511 38.1649 254.601 42.8503 252.854 49.8944C252.464 51.4698 251.067 52.6528 249.432 52.5835L237.296 52.1329C235.475 52.0557 234.001 50.4107 234.001 48.5163C234.001 47.3796 233.816 45.7893 234.001 45.1063" stroke="url(#paint0_linear_5009_6027)"/>
<mask id="mask0_5009_6027" style="mask-type:alpha" maskUnits="userSpaceOnUse" x="0" y="52" width="198" height="127">
<rect y="52" width="197.722" height="127" fill="url(#paint1_linear_5009_6027)"/>
</mask>
<g mask="url(#mask0_5009_6027)">
<path d="M37.6333 127.708V90.7956C37.6333 87.636 39.3824 84.7329 42.2138 83.3306C57.6619 75.68 84.9574 63.8535 99.1674 63.8535C113.374 63.8535 140.468 75.674 155.795 83.3248C158.613 84.7312 160.35 87.6264 160.35 90.7756V127.733C160.35 129.19 159.986 130.617 159.241 131.868C149.518 148.19 125.664 177.428 99.1674 177.428C72.6793 177.428 48.6152 148.209 38.7656 131.883C38.0049 130.622 37.6333 129.18 37.6333 127.708Z" fill="#D9D9D9" fill-opacity="0.1"/>
<path d="M159.976 84.6932C169.482 80.0404 187.041 73.7561 191.604 86.9935C195.772 99.0834 189.673 113.245 178.469 121.731C170.283 127.931 163.087 131.409 157.038 133.932" stroke="white"/>
<path d="M38.0643 84.6932C28.5587 80.0404 10.9994 73.7561 6.43642 86.9935C2.26895 99.0834 8.36761 113.245 19.5715 121.731C27.758 127.931 34.9534 131.409 41.0024 133.932" stroke="white"/>
<path d="M37.5024 123.787V93.7929C37.5024 87.675 40.8874 82.0443 46.4105 79.4127C62.2246 71.8775 86.0745 62.0371 99.0365 62.0371C111.992 62.0371 135.667 71.868 151.36 79.4018C156.856 82.0407 160.219 87.6566 160.219 93.7541V123.837C160.219 126.657 159.519 129.433 158.028 131.827C147.7 148.402 124.597 175.611 99.0365 175.611C73.4907 175.611 50.1994 148.434 39.7393 131.856C38.2177 129.445 37.5024 126.639 37.5024 123.787Z" stroke="white" stroke-width="2"/>
<ellipse cx="98.8607" cy="105.571" rx="61.3583" ry="14.6061" stroke="white"/>
<path d="M160.219 124.756C160.219 134.636 132.748 142.645 98.8607 142.645C64.9735 142.645 37.5024 134.636 37.5024 124.756" stroke="white"/>
<path d="M91.8814 68.4575C99.7521 65.9429 113.484 70.1287 120.852 72.4704C129.058 76.1478 128.388 85.3742 102.096 82.0165C80.0519 79.2012 55.3373 92.1408 60.399 104.289C65.4228 116.346 83.8434 110.996 100.589 110.326C117.335 109.656 106.283 128.914 93.2211 127.407C89.7276 127.004 71.7331 121.143 68.772 128.411C64.1503 139.756 79.1077 139.231 86.3553 148.841C94.0584 159.057 78.987 163.41 72.9585 159.057C66.9299 154.703 51.6912 138.459 45.9976 131.258C40.304 124.057 43.1506 122.55 43.1506 117.359C43.1506 112.168 42.8156 95.0868 43.1506 92.4075C43.4855 89.7281 45.9975 87.3837 48.6768 86.044C51.3562 84.7043 66.754 76.4855 91.8814 68.4575Z" fill="#D9D9D9" fill-opacity="0.12"/>
</g>
<path d="M490.968 68.4991C490.521 70.7251 490.017 72.6612 489.67 74.0985C492.154 75.2164 492.346 78.7564 492.346 80.0606C492.346 81.3648 491.008 90.4941 490.434 94.593C489.975 97.8722 485.783 98.9404 483.744 99.0646C482.088 104.468 478.392 116.802 476.863 122.913C479.539 131.111 489.287 135.768 494.066 136.327C498.844 136.886 510.313 138.936 519.296 142.289C528.28 145.643 530 154.586 530 159.058C530 168.807 523.794 177.533 514.428 180.954L496.08 187.655C469.27 197.447 439.73 197.447 412.92 187.655L394.572 180.954C385.206 177.533 379 168.807 379 159.058C379 154.586 380.72 145.643 389.704 142.289C398.687 138.936 410.156 136.886 414.934 136.327C419.713 135.768 429.461 131.111 432.137 122.913C430.608 116.802 426.912 104.468 425.256 99.0646C423.217 98.9404 419.025 97.8722 418.566 94.593C417.992 90.4941 416.654 81.3648 416.654 80.0606C416.654 78.7564 416.846 75.2164 419.33 74.0985C418.932 72.4499 418.327 70.1449 417.839 67.4991C443 55.0023 477.5 59.4975 490.968 68.4991Z" fill="url(#paint2_linear_5009_6027)" fill-opacity="0.1"/>
<path d="M489.434 67.5L488.67 73.6016C491.154 74.7194 491.346 78.2594 491.346 79.5636C491.346 80.8678 490.008 89.9972 489.434 94.0961C488.975 97.3752 484.783 98.4434 482.744 98.5676C481.088 103.971 477.392 116.305 475.863 122.416C478.539 130.614 488.287 135.271 493.066 135.83C497.844 136.389 509.313 138.439 518.296 141.792C527.28 145.146 529 154.089 529 158.561C529 168.31 522.794 177.036 513.428 180.457L495.08 187.159C468.27 196.95 438.73 196.95 411.92 187.159L393.572 180.457C384.206 177.036 378 168.31 378 158.561C378 154.089 379.72 145.146 388.704 141.792C397.687 138.439 409.156 136.389 413.934 135.83C418.713 135.271 428.461 130.614 431.137 122.416C429.608 116.305 425.912 103.971 424.256 98.5676C422.217 98.4434 418.025 97.3752 417.566 94.0961C416.992 89.9972 415.654 80.8678 415.654 79.5636C415.654 78.2594 415.846 74.7194 418.33 73.6016V67.5" stroke="url(#paint3_linear_5009_6027)" stroke-width="2"/>
<path d="M415.063 36.2723C414.822 46.8511 415.256 55.5842 416.67 67.0958C416.786 68.042 418.152 68.371 418.822 67.692C423.563 62.8823 434.193 59.5 455 59.5C482 59.5 492.055 68.5 492.04 70L492.383 36.0009C492.478 26.6316 486.982 17.8444 478.04 15.0446C471.137 12.883 462.838 11 454.54 11C444.383 11 433.421 14.492 425.49 18.279C418.657 21.5416 415.235 28.7023 415.063 36.2723Z" fill="url(#paint4_linear_5009_6027)" fill-opacity="0.1" stroke="url(#paint5_linear_5009_6027)" stroke-width="2"/>
<defs>
<linearGradient id="paint0_linear_5009_6027" x1="279.669" y1="-54.5213" x2="279.669" y2="114.055" gradientUnits="userSpaceOnUse">
<stop stop-color="white"/>
<stop offset="1" stop-color="white" stop-opacity="0.2"/>
</linearGradient>
<linearGradient id="paint1_linear_5009_6027" x1="74.0668" y1="97.3578" x2="178.008" y2="106.966" gradientUnits="userSpaceOnUse">
<stop stop-color="white"/>
<stop offset="1" stop-color="white" stop-opacity="0"/>
</linearGradient>
<linearGradient id="paint2_linear_5009_6027" x1="474" y1="75.9961" x2="400.369" y2="118.771" gradientUnits="userSpaceOnUse">
<stop stop-color="#D9D9D9"/>
<stop offset="1" stop-color="#D9D9D9" stop-opacity="0.5"/>
</linearGradient>
<linearGradient id="paint3_linear_5009_6027" x1="487.5" y1="60" x2="400.249" y2="82.003" gradientUnits="userSpaceOnUse">
<stop stop-color="white"/>
<stop offset="1" stop-color="#999999" stop-opacity="0.2"/>
</linearGradient>
<linearGradient id="paint4_linear_5009_6027" x1="462.411" y1="28.6494" x2="434.072" y2="52.6044" gradientUnits="userSpaceOnUse">
<stop stop-color="#D9D9D9"/>
<stop offset="1" stop-color="#D9D9D9" stop-opacity="0.5"/>
</linearGradient>
<linearGradient id="paint5_linear_5009_6027" x1="469.565" y1="23.3937" x2="429.212" y2="38.2003" gradientUnits="userSpaceOnUse">
<stop stop-color="white"/>
<stop offset="1" stop-color="#999999" stop-opacity="0.2"/>
</linearGradient>
</defs>
</svg>
