<svg width="885" height="875" viewBox="0 0 885 875" fill="none" xmlns="http://www.w3.org/2000/svg">
<path d="M0 42.5C0 26.1328 0 17.9493 3.684 11.9375C5.74539 8.57365 8.57365 5.74539 11.9375 3.684C17.9493 0 26.1328 0 42.5 0H842.5C858.867 0 867.051 0 873.062 3.684C876.426 5.74539 879.255 8.57365 881.316 11.9375C885 17.9493 885 26.1328 885 42.5V832.5C885 848.867 885 857.051 881.316 863.062C879.255 866.426 876.426 869.255 873.062 871.316C867.051 875 858.867 875 842.5 875H42.5C26.1329 875 17.9493 875 11.9375 871.316C8.57365 869.255 5.74539 866.426 3.684 863.062C0 857.051 0 848.867 0 832.5V42.5Z" fill="white" fill-opacity="0.07"/>
<path d="M42.5 1H842.5C850.703 1 856.785 1.0011 861.57 1.45605C866.34 1.90961 869.718 2.80764 872.54 4.53711C875.769 6.51599 878.484 9.23084 880.463 12.46C882.192 15.2822 883.09 18.6599 883.544 23.4297C883.999 28.2146 884 34.2971 884 42.5V832.5C884 840.703 883.999 846.785 883.544 851.57C883.09 856.34 882.192 859.718 880.463 862.54C878.484 865.769 875.769 868.484 872.54 870.463C869.718 872.192 866.34 873.09 861.57 873.544C856.785 873.999 850.703 874 842.5 874H42.5C34.2971 874 28.2146 873.999 23.4297 873.544C18.6599 873.09 15.2822 872.192 12.46 870.463C9.23084 868.484 6.51599 865.769 4.53711 862.54C2.80764 859.718 1.90961 856.34 1.45605 851.57C1.0011 846.785 1 840.703 1 832.5V42.5C1 34.2971 1.0011 28.2146 1.45605 23.4297C1.90961 18.6599 2.80763 15.2822 4.53711 12.46C6.51598 9.23083 9.23083 6.51598 12.46 4.53711C15.2822 2.80763 18.6599 1.90961 23.4297 1.45605C28.2146 1.0011 34.2971 1 42.5 1Z" stroke="white" stroke-opacity="0.15" stroke-width="2"/>
<mask id="mask0_6162_138569" style="mask-type:alpha" maskUnits="userSpaceOnUse" x="-34" y="285" width="760" height="441">
<path d="M346.894 638.843L365.663 679.062L263.775 725.981C208.957 714.214 96.5527 688.355 85.4701 679.062C71.6169 667.446 -16.865 562.871 -31.1651 501.651C-45.4652 440.431 -1.67109 401.101 11.2884 384.566C24.2478 368.032 139.096 327.366 171.718 319.769C204.34 312.172 371.025 285.359 373.707 285.359C376.388 285.359 540.839 325.578 545.308 327.366C548.883 328.796 666.859 392.908 725.4 424.785C713.289 464.459 689.391 541.288 684.563 551.47L686.813 552.645C694.7 552.568 713.572 552.239 690.99 554.827L686.813 552.645C684.711 552.665 683.389 552.668 683.84 552.593C683.981 552.569 684.225 552.183 684.563 551.47L661.049 539.186C661.794 538.143 637.505 529.201 630.662 525.78C616.361 518.63 600.274 516.395 599.38 510.586C598.486 504.777 596.252 499.414 583.739 502.542C571.227 505.67 345.553 592.365 340.638 594.599C335.722 596.833 325.891 606.665 323.656 612.474C318.52 625.828 320.528 629.902 323.656 636.159C327.231 643.309 341.382 641.822 346.894 638.843Z" fill="url(#paint0_linear_6162_138569)"/>
</mask>
<g mask="url(#mask0_6162_138569)">
<path fill-rule="evenodd" clip-rule="evenodd" d="M306.739 562.46V583.092L78.6172 486.491V467.58L306.739 562.46ZM153.404 419.763C155.697 419.154 161.614 418.473 166.943 420.622C172.273 422.771 232.991 447.951 262.684 460.273H264.726L382.063 508.627L370.459 513.247L360.466 509.272L336.719 517.653L345.529 520.984L316.195 531.836C313.151 533.448 306.997 539.144 306.739 549.03L78.6172 454.578C78.653 452.143 79.2835 446.777 81.5186 444.8C84.3123 442.329 90.9739 440.287 93.123 439.534C94.8423 438.933 134.027 426.103 153.404 419.763ZM483.069 474.994L476.407 477.466L467.596 474.028L442.345 481.979L451.693 484.88L426.119 494.335L415.589 490.897L390.875 498.741L399.9 502.717L388.403 507.122L270.958 458.124L365.838 427.715L483.069 474.994ZM412.688 342.719C421.499 340.248 427.946 341.967 431.062 342.719C433.56 343.323 499.582 366.825 532.282 378.501C531.709 378.394 529.875 378.156 527.125 378.071C524.374 377.985 522.11 378.822 521.322 379.252L634.362 418.259C636.404 417.507 641.798 416.26 647.042 417.291C652.26 418.318 656.776 421.984 658.408 423.714C657.976 423.266 656.349 422.125 653.06 420.945C649.707 419.741 644.356 420.443 642.1 420.945L581.604 441.146L460.611 397.95L457.926 401.067L457.691 401.352L567.312 440.072L542.383 448.453L551.517 451.355L528.844 459.198L518.528 456.834L495.534 464.249L503.915 467.688L497.683 470.158L379.863 424.032L379.27 425.458L326.403 402.463C327.012 402.033 328.531 400.873 329.734 399.67C330.938 398.467 332.958 395.372 333.817 393.975L391.842 418.259L380.345 422.879L380.211 423.199L420.701 410.437L420.64 410.415L341.124 378.071C340.479 378.751 340.222 378.265 344.348 370.872C349.505 361.631 357.243 358.838 359.392 357.441C361.546 356.043 403.877 345.19 412.688 342.719Z" fill="#D9D9D9" fill-opacity="0.1"/>
<path d="M315.981 532.266L89.5781 441.039" stroke="white" stroke-width="0.429811" stroke-linejoin="round"/>
<path d="M428.477 341.967L533.673 378.907" stroke="white" stroke-width="1.28943" stroke-linejoin="round"/>
<path d="M520.57 379.254L634.793 418.367" stroke="white" stroke-width="1.28943" stroke-linejoin="round"/>
<path d="M306.843 549.459L77.9688 454.363" stroke="white" stroke-width="0.429811" stroke-linejoin="round"/>
<path d="M634.039 418.458C636.618 417.274 638.66 416.623 638.66 416.623C644.784 414.904 659.183 421.265 660.043 426.195" stroke="white" stroke-width="1.28943"/>
<path d="M178.117 558.915V498.097C178.117 487.996 185.854 485.915 194.987 482.409C197.669 481.379 225.618 472.381 264.079 460.1C265.154 460.597 266.873 461.241 268.163 461.671C269.989 461.026 270.741 459.2 270.741 457.973C299.23 448.882 332.723 438.23 365.73 427.761C367.879 428.576 370.672 429.973 372.714 430.51C375.293 429.65 378.731 428.038 378.839 423.604C405.741 415.077 431.825 406.829 454.056 399.823C455.668 400.316 457.279 401.175 457.924 401.068C458.863 400.772 460.288 399.456 460.395 397.826C492.629 387.677 515.507 380.54 518.742 379.684C525.288 377.951 531.094 377.136 535.183 379.685C537.761 381.292 539.481 383.445 540.125 385.917" stroke="white" stroke-width="1.28943"/>
<path d="M652.306 472.309V507.891C652.306 524.505 647.925 530.648 632.534 536.904L319.631 658.309C308.32 662.943 295.922 654.624 295.922 642.4V598.243" stroke="white" stroke-width="1.28943"/>
<path d="M178.117 558.377V585.621C178.117 597.845 190.515 606.164 201.827 601.531L210.675 597.749" stroke="white" stroke-width="1.28943"/>
<path d="M291.369 636.066L197.67 591.685C193.564 589.691 190.578 585.507 190.578 580.383V568.156" stroke="white" stroke-width="1.28943"/>
<path d="M304.048 656.912C297.708 654.763 291.153 648.108 291.153 639.671V612.534L178.328 562.998" stroke="white" stroke-width="1.28943"/>
<path d="M188.43 601.359L93.012 554.616C84.5151 550.964 78.7208 541.23 78.7208 528.075L78.3991 511.194L78.3984 459.515C78.3991 454.465 78.4005 443.804 86.2424 441.791L153.822 419.576C158.567 418.126 163.078 418.509 166.617 420.52M211.962 439.177L317.955 407.563C323.896 405.747 329.41 400.837 332.522 394.594L343.583 372.403C347.214 365.12 353.648 359.391 360.578 357.272L411.266 342.892C420.448 340.432 426.008 340.786 430.306 342.612" stroke="white" stroke-width="1.28943"/>
<path d="M164.578 419.656L263.22 460.381M357.133 358.945L460.61 397.843" stroke="white" stroke-width="1.28943"/>
<path d="M263.859 460.166L382.487 508.946M459.853 397.629L582.672 440.825M453.836 399.885L576.332 443.081M270.307 458.017L388.719 506.908M379.156 423.904L497.569 469.787M365.725 427.931L483.841 474.458" stroke="white" stroke-width="1.28943"/>
<path d="M342.753 592.627L580.744 501.631C592.816 497.016 602.593 503.751 602.593 516.682C602.593 529.599 592.834 543.827 580.775 548.493L342.785 640.571C330.397 645.363 320.336 638.479 320.336 625.209C320.336 611.954 330.378 597.359 342.753 592.627Z" stroke="white" stroke-width="1.28943"/>
<path d="M306.647 602.684V552.994C306.647 539.133 310.498 533.345 321.028 529.892C321.664 529.683 330.976 526.514 346.065 521.375M306.647 602.684L346.602 586.266V577.028M306.647 602.684L295.992 598.35M370.887 512.92C380.13 509.772 390.328 506.298 401.188 502.599M425.258 494.402C433.997 491.426 442.992 488.363 452.121 485.255M476.728 477.358V536.767M476.728 477.358L467.379 473.646M476.728 477.358C478.989 476.589 481.245 475.809 483.497 475.025C483.605 479.615 488.694 481.619 491.341 480.689C496.499 479.4 497.699 474.242 497.699 470.052C499.986 469.255 502.272 468.465 504.558 467.688M504.558 467.688L495.317 464.325L518.742 456.51M504.558 467.688V518.835M528.627 459.225C536.48 456.555 544.173 453.941 551.622 451.41M576.229 443.055C614.392 430.106 641.785 420.857 643.494 420.407C649.404 418.85 659.72 421.267 660.721 428.469V465.769C660.721 467.963 659.333 469.917 657.262 470.639L576.551 498.794M370.887 577.028V513.14L360.786 509.208M370.887 577.028L401.511 565.379V556.786M370.887 577.028L360.786 571.809M425.795 556.141V494.121L415.909 490.682M425.795 556.141L452.443 546.004V538.499M425.795 556.141L415.909 551.393M476.728 536.767L504.558 526.18V518.835M476.728 536.767L467.379 533.019M528.842 516.942V459.091L518.742 456.51M528.842 516.942L552.267 508.032V501.75M528.842 516.942L518.598 513.677M576.551 498.794V443.618L567.203 440.343M576.551 498.794L567.203 496.163M360.786 509.208L336.287 517.382L346.602 521.521V577.028M360.786 509.208V571.809M415.909 490.682L391.303 499.027L401.511 502.932V556.786M415.909 490.682V551.393M467.379 473.646L442.343 481.999L452.443 485.095V538.499M467.379 473.646V533.019M518.742 456.51L518.598 513.677M567.203 440.343L542.489 448.588L552.267 451.355V501.75M567.203 440.343V496.163M360.786 571.809L346.602 577.028M415.909 551.393L401.511 556.786M467.379 533.019L452.443 538.499M518.598 513.677L504.558 518.835M567.203 496.163L552.267 501.75" stroke="white" stroke-width="1.28943"/>
</g>
<mask id="mask1_6162_138569" style="mask-type:alpha" maskUnits="userSpaceOnUse" x="321" y="500" width="445" height="267">
<path d="M346.892 677.271C419.287 706.318 565.326 764.859 570.331 766.646L691.435 703.19L765.17 563.764C731.952 539.781 644.96 508.356 613.231 508.354C602.358 508.353 593.569 498.966 585.525 500.307C577.481 501.647 360.745 585.214 341.53 593.704C322.314 602.195 320.08 624.092 322.314 633.477C324.101 640.984 339.444 665.801 346.892 677.271Z" fill="url(#paint1_linear_6162_138569)"/>
</mask>
<g mask="url(#mask1_6162_138569)">
<path d="M692.116 573.184L692.116 589.427C692.555 592.709 690.004 595.936 684.433 598.238L474.03 685.221C463.493 689.576 446.142 688.977 435.276 683.883L340.463 636.311C335.016 633.757 332.233 630.559 332.138 627.455L332.138 614.422" stroke="white" stroke-width="1.31582"/>
<path d="M666.043 571.223L584.523 539.439C573.656 534.33 556.307 533.728 545.772 538.095L357.715 613.294" stroke="white" stroke-width="0.438607"/>
<path d="M338.593 604.494C327.725 599.397 327.458 591.733 337.997 587.376L545.337 505.609C555.876 501.252 573.231 501.851 584.1 506.948L682.538 547.554C693.407 552.651 693.673 560.316 683.134 564.673L473.972 651.145C463.433 655.502 446.078 654.902 435.21 649.805L338.593 604.494Z" stroke="white" stroke-width="1.31582"/>
<path d="M338.37 604.5C327.502 599.403 327.235 591.738 337.774 587.381L546.656 505.365C557.195 501.007 574.55 501.607 585.418 506.704L682.315 547.56C693.184 552.657 693.451 560.321 682.911 564.678L473.75 651.15C463.21 655.507 445.856 654.908 434.987 649.81L338.37 604.5Z" fill="#D9D9D9" fill-opacity="0.1"/>
<path d="M686.222 549.484C697.09 554.594 701.039 569.292 690.502 573.659L626.812 600.127C625.473 600.683 625.034 602.401 625.187 603.88C625.191 603.92 625.195 603.96 625.199 604C625.527 607.754 623.042 611.938 619.648 613.345L551.585 641.553C548.191 642.96 545.173 641.057 544.844 637.303C544.73 635.995 543.315 634.744 542.131 635.233L472.904 663.843C462.366 668.21 445.013 667.608 434.145 662.499L332.867 614.883C321.998 609.773 325.192 592.994 335.729 588.627" stroke="white" stroke-width="1.31582"/>
<path d="M544.576 632.868C545.271 630.001 547.323 627.332 549.899 626.264L617.927 598.053C619.977 597.202 621.89 597.562 623.156 598.808M548.32 634.446C548.988 631.701 550.96 629.145 553.435 628.122L618.803 601.103C620.773 600.289 622.611 600.633 623.827 601.826" stroke="white" stroke-width="0.438607"/>
</g>
<path d="M789.306 313.47C766.205 275.21 732.059 248.025 692.393 235.831L721.549 218.329C723.569 217.117 724.219 214.5 723.002 212.484C721.784 210.467 719.16 209.815 717.141 211.028L677.724 234.688L675.188 236.039L681.036 245.897L700.71 277.251C701.956 279.238 704.568 279.864 706.579 278.656C708.615 277.434 709.271 274.796 708.043 272.763L690.837 244.265C727.969 255.945 760.095 281.586 781.996 317.858C828.368 394.658 804.792 493.94 729.615 541.716C727.627 542.979 726.963 545.598 728.18 547.615C729.398 549.631 732.036 550.281 734.025 549.02C813.244 498.816 838.109 394.298 789.306 313.47Z" fill="#4FE2CE"/>
<path d="M506.644 250.401C504.317 277.747 487.73 291.251 465.574 291.251C438.204 291.251 421 270.528 421 243.028M516.789 282.987L518.444 289.165H537.091L538.254 282.987M627.407 224.39C627.407 232.539 624.136 238.864 618.774 242.84M606.554 265.966C605.903 257.886 601.602 255.279 590.784 255.279H574.613M552.61 282.987L554.803 289.165H571.81L574.138 282.987M604.748 226.085C606.139 218.985 601.602 213.312 591.305 213.312H573.45M498.498 202.693C498.498 202.693 506.644 217.103 506.644 228.294L480.208 229.343C477.862 217.743 470.694 211.227 460.528 211.227C454.269 211.227 449.299 213.247 445.551 216.762M628.831 282.987L628.32 289.165H608.379L607.885 283.569" stroke="url(#paint2_linear_6162_138569)"/>
<path d="M505.846 249.618C502.067 272.035 487.73 285.068 465.574 285.068C438.204 285.068 421 264.345 421 236.845C421 209.345 438.204 188.361 465.574 188.361C486.818 188.361 501.415 200.873 505.455 222.248L484.863 223.16C482.517 211.56 475.349 205.044 465.183 205.044C448.891 205.044 441.332 218.729 441.332 236.845C441.332 254.831 449.021 268.385 465.183 268.385C476 268.385 483.038 261.347 485.124 248.836L505.846 249.618ZM517.28 190.447H537.091V282.983H517.28V190.447ZM594.173 190.447C613.331 190.447 627.407 200.352 627.407 218.207C627.407 229.937 620.63 237.888 610.595 240.494C620.5 241.667 625.192 246.359 625.974 256.395L628.32 282.983H608.379L606.554 259.783C605.903 251.703 601.602 249.096 590.784 249.096H573.45V282.983H553.639V190.447H594.173ZM573.45 232.544H591.305C601.471 232.544 607.076 227.982 607.076 219.902C607.076 211.691 601.602 207.129 591.305 207.129H573.45V232.544Z" stroke="white" stroke-width="2"/>
<defs>
<linearGradient id="paint0_linear_6162_138569" x1="365" y1="456.359" x2="329.5" y2="295.859" gradientUnits="userSpaceOnUse">
<stop stop-color="#D9D9D9"/>
<stop offset="1" stop-color="#737373" stop-opacity="0"/>
</linearGradient>
<linearGradient id="paint1_linear_6162_138569" x1="551.998" y1="567.363" x2="532.998" y2="515.363" gradientUnits="userSpaceOnUse">
<stop stop-color="#990000"/>
<stop offset="1" stop-color="#330000" stop-opacity="0"/>
</linearGradient>
<linearGradient id="paint2_linear_6162_138569" x1="506.644" y1="334.189" x2="506.644" y2="212.003" gradientUnits="userSpaceOnUse">
<stop stop-color="white"/>
<stop offset="1" stop-color="#999999" stop-opacity="0"/>
</linearGradient>
</defs>
</svg>
