<svg width="702" height="447" viewBox="0 0 702 447" fill="none" xmlns="http://www.w3.org/2000/svg">
<path d="M535.677 39.1125C543.384 53.2549 542.1 68.6829 544.669 84.1109C545.953 75.1112 557.514 76.3926 566.506 80.2496C575.498 84.1066 578.067 108.534 580.636 139.39C582.692 164.075 581.844 202.164 580.636 217.664C579.429 233.164 591.418 238.426 588.344 262.813C587.701 267.916 588.344 300.098 584.49 323.24C580.636 346.382 565.222 387.523 561.368 396.523C558.285 403.723 560.083 432.95 561.368 446.664L436.766 437.671C437.622 426.957 438.821 404.501 436.766 400.387C434.197 395.244 435.481 388.816 436.766 386.244C432.912 381.102 408.506 357.96 403.367 341.246C398.229 324.532 390.522 315.533 387.953 309.104C385.384 302.676 380.245 282.105 384.099 260.249C387.953 238.393 384.099 233.25 381.53 226.822C378.961 220.393 378.961 204.965 377.676 197.251C376.392 189.537 369.969 180.537 368.684 175.395C367.4 170.252 368.684 152.253 391.806 162.538C414.928 172.823 415.344 180.164 418.344 183.664C419.628 178.521 426.489 138.104 426.489 125.247C426.489 112.39 430.343 98.2479 432.912 80.2485C435.481 62.2491 443.189 35.2501 463.742 39.1071C465.686 39.472 467.285 40.1015 468.59 40.9532C468.162 38.3671 470.448 28.8877 472.733 19.7187C474.118 14.1635 481.725 4.7492 492.002 7.00732C503.554 9.54575 507.067 26.608 508.844 30.1641C512.697 19.8787 527.97 24.9701 535.677 39.1125Z" fill="url(#paint0_linear_4245_155280)" fill-opacity="0.1"/>
<path d="M521.547 175.393C528.398 177.536 542.87 183.107 545.953 188.25C548.522 166.394 548.522 161.251 548.522 145.823C548.522 130.395 547.238 99.5389 544.669 84.1109C542.1 68.6829 543.384 53.2549 535.677 39.1125C527.97 24.9701 511.27 21.1131 507.417 31.3985M477.872 168.856C485.151 169.285 500.994 170.399 506.132 171.428C506.132 161.142 511.27 143.143 511.27 134.143C511.27 125.144 509.986 116.144 509.986 107.144C509.986 98.1445 511.27 73.7168 509.986 66.0028C508.701 58.2888 509.986 31.2898 506.132 23.5757C504.355 20.0197 503.554 9.54575 492.002 7.00732C481.725 4.7492 474.118 14.1635 472.733 19.7187C470.448 28.8877 468.162 38.3671 468.59 40.9532M468.59 40.9532C468.643 41.274 468.738 41.4887 468.88 41.5836M468.59 40.9532C481.076 49.1046 466.554 77.6078 468.88 89.2482C471.449 102.105 468.88 130.39 468.88 138.104C468.88 145.818 468.88 163.817 466.311 171.428C464.256 177.516 446.614 180.89 438.05 181.816M468.59 40.9532C467.285 40.1015 465.686 39.472 463.742 39.1071C443.189 35.2501 435.481 62.2491 432.912 80.2485C430.343 98.2479 426.489 112.39 426.489 125.247C426.489 138.104 420.067 176.673 418.782 181.816M561.368 446.664C560.083 432.95 558.285 403.723 561.368 396.523C565.222 387.523 580.636 346.382 584.49 323.24C588.344 300.098 588.344 267.956 588.344 262.813V237.1C588.344 228.1 579.352 210.101 556.23 195.959M580.636 217.816C581.493 201.96 582.692 164.075 580.636 139.39C578.067 108.534 575.498 84.1066 566.506 80.2496C557.514 76.3926 547.238 77.6782 545.953 86.6779M472.734 190.816C480.869 205.815 500.48 237.357 513.839 243.528C530.539 251.242 570.36 251.242 576.783 257.671C583.206 264.099 588.344 262.813 588.344 267.956M436.766 437.671C437.622 426.957 438.821 404.501 436.766 400.387C434.197 395.244 435.481 388.816 436.766 386.244C432.912 381.102 408.506 357.96 403.367 341.246C398.229 324.532 390.522 315.533 387.953 309.104C385.384 302.676 380.245 282.105 384.099 260.249C387.953 238.393 384.099 233.25 381.53 226.822C378.961 220.393 378.961 204.965 377.676 197.251C376.392 189.537 369.969 180.537 368.684 175.395C367.4 170.252 368.684 152.253 391.806 162.538C414.928 172.823 423.92 192.115 425.205 197.251C426.489 202.387 425.205 207.53 421.351 207.53M409.79 303.955C416.641 292.384 430.857 266.156 432.912 253.814C434.828 242.31 435.315 233.666 434.374 226.815M425.205 204.958C429.059 208.815 430.343 212.672 432.912 220.386C433.566 222.349 434.053 224.477 434.374 226.815M434.374 226.815C436.884 225.958 443.703 225.529 450.896 230.672C459.888 237.1 471.449 255.099 484.295 261.528" stroke="url(#paint1_linear_4245_155280)" stroke-width="2"/>
<path d="M464.844 50.6604C469.844 52.1604 468.844 47.1604 467.344 45.6604C454.344 37.1613 444.844 51.6604 441.844 58.1604C435.382 72.1611 437.344 85.6611 434.344 101.161C431.877 113.905 428.844 146.16 428.844 156.66C430.844 140.661 435.412 120.456 436.844 116.161C439.844 107.161 438.344 80.1611 446.844 62.1604C452.198 50.821 459.844 49.1604 464.844 50.6604Z" fill="#D9D9D9" fill-opacity="0.15"/>
<path d="M421.844 200.161C422.644 203.761 418.177 205.994 415.844 206.661C418.844 195.661 402.844 182.661 398.844 179.161C394.844 175.661 384.344 173.661 380.344 174.661C376.344 175.661 373.344 172.661 373.344 169.161C373.344 165.661 378.344 163.161 381.844 163.661C385.344 164.161 391.344 164.661 403.844 174.661C416.344 184.661 420.844 195.661 421.844 200.161Z" fill="#D9D9D9" fill-opacity="0.15"/>
<path d="M488.561 11.5879C493.076 11.4853 496.462 15.3849 498.72 18.5661C502.825 23.1824 496.155 23.9053 494.615 21.3398C493.076 18.7743 492.973 17.5428 488.561 17.5428C484.148 17.5428 480.351 21.3398 479.427 23.9053C478.504 26.4708 476.759 34.4752 476.759 37.3485C476.759 40.2219 479.53 47.5079 477.58 51.6127C477.662 45.2913 474.536 40.2219 472.962 38.4773C473.715 34.5436 475.528 25.6088 476.759 21.3398C478.299 16.0035 484.045 11.6905 488.561 11.5879Z" fill="#D9D9D9" fill-opacity="0.15"/>
<mask id="mask0_4245_155280" style="mask-type:alpha" maskUnits="userSpaceOnUse" x="-113" y="-49" width="658" height="496">
<ellipse cx="215.813" cy="198.848" rx="328.657" ry="247.816" fill="url(#paint2_linear_4245_155280)"/>
</mask>
<g mask="url(#mask0_4245_155280)">
<path d="M63.646 142.813L80.9197 145.577M70.1458 141.231L78.2252 142.524M57.4615 144.045L83.1315 148.152M58.1465 146.666L85.1288 150.77M60.0679 149.082L87.4613 153.465M62.3177 151.886L90.0187 156.319M64.4897 154.422L92.1532 158.849M66.8045 157.099L94.5284 161.535M68.8872 159.738L96.5036 164.157M71.1986 162.412L98.9018 166.847M73.5147 165.09L100.984 169.486M75.6019 167.734L103.299 172.163M77.6794 170.368L105.611 174.837M80.0017 173.052L107.926 177.515M82.3084 175.722L110.009 180.154M84.4024 178.372L112.324 182.831M86.7096 181.041L114.637 185.507M88.7879 183.676L116.72 188.146M91.3334 186.39L119.034 190.822M93.4176 189.03L121.117 193.462M95.5016 191.671L123.413 196.135M97.8091 194.351L125.515 198.779M100.174 197.026L127.827 201.453M102.207 199.657L129.91 204.092M104.522 202.335L133.147 206.916M106.611 204.979L136.616 209.777M108.926 207.658L140.066 212.635M111.698 210.404L143.321 215.462M115.162 213.261L146.789 218.322M118.634 216.125L150.257 221.184M121.985 218.97L153.567 224.019M125.323 221.794L156.962 226.868M128.801 224.665L160.43 229.729M132.281 227.538L163.892 232.589M135.522 230.365L167.135 235.414M138.971 233.208L170.603 238.275M142.44 236.069L174.071 241.136M145.914 238.936L177.393 243.973M149.155 241.764L180.777 246.821M152.559 244.614L184.144 249.665M156.089 247.484L187.483 252.507M159.559 250.347L190.95 255.367M169.85 259.009L201.34 264.047M162.795 253.169L194.417 258.227M173.09 261.836L200.329 266.194M166.262 256.029L197.654 261.051M176.554 264.693L193.918 267.471M180.017 267.549L187.509 268.748" stroke="white" stroke-width="1.20555" stroke-linecap="round" stroke-linejoin="round" stroke-dasharray="0.4 3.62"/>
<path d="M364.079 3.06641L364.612 2.99588M355.581 7.22886L367.578 5.64194M351.814 10.6956L370.735 8.18529M354.704 13.2734L373.359 10.799M357.59 15.8481L376.516 13.3424M360.48 18.4265L379.14 15.9562M363.376 21.0095L382.298 18.5004M365.889 23.2518L384.811 20.7427M368.403 25.494L387.324 22.9849M370.916 27.7362L389.838 25.2272M373.429 29.9785L392.351 27.4694M375.943 32.2207L394.865 29.7116M378.456 34.463L397.378 31.9539M380.97 36.7052L399.892 34.1961M383.483 38.9474L402.405 36.4383M385.996 41.1897L404.918 38.6806M388.51 43.4319L407.432 40.9228M391.023 45.6741L409.945 43.165M393.537 47.9164L412.459 45.4073M396.05 50.1586L414.972 47.6495M398.563 52.4008L417.485 49.8917M401.077 54.6431L419.999 52.134M403.59 56.8853L422.512 54.3762M406.104 59.1275L425.026 56.6185M408.617 61.3698L427.539 58.8607M411.131 63.612L430.052 61.1029M413.644 65.8543L432.566 63.3452M416.157 68.0965L435.079 65.5874M418.671 70.3387L437.593 67.8297M421.184 72.581L440.106 70.0719M423.698 74.8232L442.62 72.3142M426.211 77.0655L445.133 74.5564M428.724 79.3077L447.646 76.7986M431.238 81.55L450.16 79.0409M433.751 83.7922L452.673 81.2831M436.265 86.0344L455.187 83.5253M438.778 88.2767L457.7 85.7676M441.292 90.5189L460.213 88.0098M443.805 92.7611L462.727 90.252M446.318 95.0034L465.24 92.4943M448.832 97.2456L467.754 94.7365M451.345 99.4878L470.267 96.9787M453.859 101.73L472.78 99.221M456.372 103.972L475.294 101.463M458.885 106.215L477.807 103.705M461.399 108.457L480.321 105.948M463.912 110.699L482.834 108.19M466.426 112.941L485.348 110.432M468.939 115.183L487.861 112.674M471.452 117.426L490.374 114.917M473.966 119.668L492.888 117.159M476.479 121.91L495.401 119.401M478.993 124.152L495.135 122.017M481.506 126.395L490.57 125.196M484.02 128.637L484.288 128.603" stroke="white" stroke-width="1.23546" stroke-linecap="round" stroke-linejoin="round" stroke-dasharray="0.41 3.71"/>
<path d="M458.605 151.959C451.485 155.98 442.245 161.54 431.608 168.296C257.516 273.097 261.095 258.771 157.974 277.211C149.17 278.785 132.319 292.892 135.679 301.182L186.269 426.006C188.65 431.882 196.947 432.089 199.671 426.364C222.371 378.662 266.174 297.595 311.865 257.121C350.616 222.796 398.064 189.601 431.608 168.296C440.166 163.144 449.154 157.704 458.605 151.959Z" fill="#D9D9D9" fill-opacity="0.07"/>
<path d="M315.03 254.827C360.842 214.246 416.262 177.097 448.518 157.835C450.785 156.481 452.566 154.579 453.761 152.385C443.869 155.443 418.27 177.361 403.852 186.515C303.91 249.974 246.891 299.032 148.047 281.633C142.832 290.354 127.315 244.96 125.453 248.7C121.109 257.429 121.52 267.77 125.21 276.795L185.514 424.293C188.187 430.831 197.454 431.057 200.541 424.704C224.015 376.398 269.839 294.857 315.03 254.827Z" fill="url(#paint3_linear_4245_155280)" fill-opacity="0.4"/>
<path d="M458.605 151.959C429.033 168.66 366.068 209.613 315.028 254.824C270.986 293.837 226.342 372.278 202.372 420.956C198.557 428.703 187.202 428.424 183.934 420.43L126.492 279.932C121.98 268.898 121.883 256.428 127.183 245.75C129.75 240.577 132.38 235.75 135.033 231.507M231.893 103.315C223.593 109.874 212.436 120.848 203.655 130.792" stroke="url(#paint4_linear_4245_155280)" stroke-width="0.89354"/>
<path opacity="0.6" d="M449.706 156.577C445.51 157.439 443.588 157.766 439.778 159.693C407.019 179.634 354.615 215.187 310.995 253.826C265.804 293.856 222.657 372.466 199.183 420.773C195.294 428.776 187.503 428.675 184.83 422.137" stroke="url(#paint5_linear_4245_155280)" stroke-width="0.44677"/>
<path d="M216.02 97.8135C268.687 69.7063 324.443 28.7705 354.925 4.31409C361.518 -0.975284 370.997 -0.851428 377.304 4.77504L500.351 114.54C504.361 118.117 503.813 124.535 499.226 127.334C453.66 155.143 372.976 201.815 329.098 228.502C288.849 252.982 206.735 270.872 160.438 276.594C147.798 278.157 135.448 273.214 126.54 264.11L24.7607 160.088C18.8922 154.09 22.7295 143.899 31.0831 143.104C82.6591 138.197 163.795 125.685 216.02 97.8135Z" fill="#D9D9D9" fill-opacity="0.07"/>
<path d="M59.2866 154.126C57.3128 151.796 53.2518 150.177 50.2161 150.51L35.5247 152.122C32.489 152.456 31.6281 154.615 33.6019 156.945C35.5757 159.276 39.6367 160.895 42.6724 160.561L57.3638 158.949C60.3995 158.616 61.2603 156.457 59.2866 154.126Z" stroke="white" stroke-width="0.89354"/>
<path d="M162.706 258.224C160.732 255.893 156.671 254.274 153.635 254.607L138.944 256.22C135.908 256.553 135.047 258.712 137.021 261.043C138.995 263.373 143.056 264.992 146.092 264.659L160.783 263.047C163.819 262.713 164.68 260.554 162.706 258.224Z" stroke="white" stroke-width="0.89354"/>
<path d="M136.868 237.97C134.894 235.639 130.833 234.02 127.797 234.354L115.898 235.66C112.862 235.993 112.001 238.152 113.975 240.482C115.949 242.813 120.01 244.432 123.046 244.099L134.945 242.793C137.981 242.459 138.841 240.3 136.868 237.97Z" stroke="white" stroke-width="0.89354"/>
<path d="M111.706 219.218C109.732 216.888 105.671 215.269 102.635 215.602L96.7888 216.244C93.7531 216.577 92.8922 218.736 94.866 221.067C96.8398 223.397 100.901 225.016 103.936 224.683L109.783 224.041C112.819 223.708 113.68 221.549 111.706 219.218Z" stroke="white" stroke-width="0.89354"/>
<path d="M91.6741 199.668C89.7003 197.338 85.6393 195.719 82.6036 196.052L76.757 196.694C73.7213 197.027 72.8604 199.186 74.8342 201.517C76.808 203.847 80.869 205.466 83.9047 205.133L89.7513 204.491C92.787 204.158 93.6479 201.999 91.6741 199.668Z" stroke="white" stroke-width="0.89354"/>
<path d="M75.8711 178.295C73.8973 175.965 69.8363 174.346 66.8006 174.679L57.763 175.671C54.7272 176.004 53.8664 178.163 55.8402 180.494C57.8139 182.824 61.8749 184.443 64.9107 184.11L73.9482 183.118C76.984 182.785 77.8448 180.626 75.8711 178.295Z" stroke="white" stroke-width="0.89354"/>
<path d="M216.02 97.8135C268.687 69.7063 324.443 28.7705 354.925 4.31409C361.518 -0.975284 370.997 -0.851428 377.304 4.77504L500.351 114.54C504.361 118.117 503.813 124.535 499.226 127.334C453.66 155.143 372.976 201.815 329.098 228.502C288.849 252.982 206.735 270.872 160.438 276.594C147.798 278.157 135.448 273.214 126.54 264.11L24.7607 160.088C18.8922 154.09 22.7295 143.899 31.0831 143.104C82.6591 138.197 163.795 125.685 216.02 97.8135Z" stroke="white" stroke-width="0.89354"/>
<path opacity="0.5" d="M24.7519 144.019C17.2661 147.172 17.421 155.504 22.2208 160.409L129.267 269.814C136.553 277.26 146.663 281.306 157.012 280.122C202.532 274.913 287.96 256.729 329.275 231.6C373.698 204.581 455.848 157.078 501.086 129.404C504.835 127.11 504.324 121.064 503.203 117.869" stroke="white" stroke-width="0.44677"/>
<path d="M226.774 109.3C267.196 87.7278 309.913 56.6246 334.526 37.0686C341.144 31.8107 350.618 31.94 356.925 37.5664L450.541 121.078C454.551 124.654 454.01 131.066 449.42 133.858C412.989 156.025 350.616 192.122 316.428 212.916C284.756 232.179 244.051 244.844 214.3 249.054C204.846 250.392 195.344 247.675 187.576 242.125C152.062 216.748 135.061 196.184 107.403 161.294C102.481 155.086 106.535 145.8 114.397 144.831C148.067 140.68 186.699 130.687 226.774 109.3Z" stroke="white" stroke-width="0.89354"/>
<path d="M249.187 107.651C291.893 93.2052 315.396 65.1099 333.082 45.9505C339.643 38.8429 350.555 39.8814 356.641 47.3996C377.862 73.6132 396.573 91.8278 431.751 117.359C436.416 120.745 436.166 127.717 430.93 130.126C396.956 145.758 343.585 152.723 304.656 189.187C279.263 212.972 245.788 230.389 218.984 236.143C209.65 238.146 200.127 235.306 192.289 229.854C160.638 207.839 149.697 195.759 125.572 165.525C120.603 159.298 124.798 150.006 132.732 149.276C206.994 142.443 199.513 124.453 249.187 107.651Z" stroke="white" stroke-width="0.89354"/>
<path d="M446.951 107.89C446.73 97.3158 453.067 81.8709 456.263 75.4701L415.601 39.1947C413.048 41.1538 406.907 46.132 402.764 50.3714C397.586 55.6706 386.72 69.8724 380.427 89.0556C374.134 108.239 350.252 119.847 336.76 133.96C323.268 148.073 324.608 179.927 317.976 199.71C311.344 219.492 302.435 241.401 304.5 240.657C306.565 239.912 315.442 235.76 320.041 233.504C323.721 231.7 330.899 221.222 334.028 216.208C336.695 212.655 343.117 203.924 347.466 197.426C352.902 189.303 349.247 183.931 349.863 163.967C350.478 144.002 361.564 123.121 369.824 114.2C378.085 105.279 400.324 109.432 402.466 113.455C404.609 117.478 400.861 132.838 392.056 143.385C383.25 153.932 385.538 160.497 374.589 178.182C365.829 192.329 363.463 203.954 363.375 207.998L399.606 186.321C408.319 178.809 426.613 162.811 430.09 158.914C434.436 154.042 447.337 142.624 448.073 138.756C448.809 134.887 447.226 121.107 446.951 107.89Z" fill="#D9D9D9" fill-opacity="0.07"/>
<path d="M338.14 17.3981C337.88 16.1435 337.706 15.3497 338.106 17.4237L323.986 28.0569C325.455 29.3674 327.734 33.0259 325.096 37.1766C321.799 42.3649 323.524 54.8595 321.779 62.2884C320.034 69.7172 302.678 84.1974 290.096 92.3305C277.514 100.464 258.978 111.789 269.701 108.927C280.424 106.066 292.557 110.887 286.07 119.838C279.584 128.79 280.559 145.897 274.582 160.998C268.605 176.098 254.341 211.688 250.264 223.539C247.002 233.019 243.628 252.258 242.349 260.693L274.177 251.616C278.77 234.177 300.337 195.018 307.189 171.151C314.041 147.284 306.822 109.527 314.847 92.704C318.093 85.5773 332.537 64.7515 333.702 61.8144C335.159 58.1431 344.274 48.5737 340.499 29.5661C339.141 22.7281 338.432 19.1184 338.106 17.4237L338.14 17.3981Z" fill="#D9D9D9" fill-opacity="0.07"/>
<path d="M220.063 95.9383C222.823 94.7629 238.804 84.9256 246.45 80.1539C250.874 86.87 235.905 99.4632 234.9 105.03C233.895 110.598 225.844 117.518 218.861 121.373C213.275 124.456 205.73 132.898 202.656 136.733C201.085 143.324 198.493 158.457 200.695 166.259C203.446 176.012 219.058 184.726 222.331 205.364C225.605 226.002 199.761 230.898 205.939 215.559C212.117 200.219 189.269 180.254 187.772 179.127C186.275 178 178.479 188.142 179.755 196.995C181.031 205.849 188.554 225.696 187.726 226.625C186.897 227.554 184.047 231.684 180.89 234.288C177.732 236.893 176.049 246.025 175.487 249.694C174.925 253.362 162.569 276.327 155.577 277.387C148.585 278.447 139.534 274.334 134.41 271.431C130.31 269.108 120.25 258.243 115.733 253.101C124.366 246.223 144.131 229.664 154.13 218.456C166.628 204.446 154.21 196.088 155.037 173.026C155.864 149.964 177.426 141.633 185.072 139.359C192.718 137.085 190.694 128.859 192.043 125.247C193.393 121.636 208.649 118.928 214.689 115.756C220.729 112.583 216.612 97.4075 220.063 95.9383Z" fill="#D9D9D9" fill-opacity="0.07"/>
<path d="M92.3798 135.265L118.767 130.245C114.703 132.097 106.263 136.5 105.016 139.3C103.458 142.801 111.674 144.117 113.601 144.807C115.528 145.497 113.992 149.851 111.828 153.593C109.663 157.335 118.987 165.303 123.408 171.749C127.83 178.195 123.778 181.86 115.191 170.873C108.321 162.084 107.373 163.703 107.757 165.611C106.652 171.016 103.975 182.305 102.104 184.228C99.7642 186.631 93.0734 194.569 89.9254 199.195C87.407 202.895 86.6972 216.92 86.6572 223.47L66.5706 203.008L77.3602 189.159C79.7996 185.401 85.0605 176.975 86.5896 173.331C88.501 168.777 88.2465 155.247 87.8234 147.828C87.485 141.892 90.72 136.979 92.3798 135.265Z" fill="#D9D9D9" fill-opacity="0.07"/>
</g>
<circle cx="351.116" cy="313.241" r="77.5225" fill="#16131D" stroke="#E4255B" stroke-width="12"/>
<path d="M340.559 275.039C340.559 273.382 341.902 272.039 343.559 272.039H359.09C360.747 272.039 362.09 273.382 362.09 275.039V283.717C362.09 295.212 360.131 307.686 358.936 319.211C358.776 320.752 357.483 321.931 355.934 321.931H346.826C345.29 321.931 344.003 320.772 343.83 319.246C342.521 307.711 340.559 295.223 340.559 283.717V275.039ZM342.703 354.442C341.046 354.442 339.703 353.099 339.703 351.442V336.339C339.703 334.682 341.046 333.339 342.703 333.339H359.518C361.175 333.339 362.518 334.682 362.518 336.339V351.442C362.518 353.099 361.175 354.442 359.518 354.442H342.703Z" fill="#E4255B"/>
<defs>
<linearGradient id="paint0_linear_4245_155280" x1="478.382" y1="226.664" x2="478.382" y2="424.664" gradientUnits="userSpaceOnUse">
<stop stop-color="#D9D9D9"/>
<stop offset="1" stop-color="#737373" stop-opacity="0"/>
</linearGradient>
<linearGradient id="paint1_linear_4245_155280" x1="478.344" y1="159.574" x2="478.344" y2="435.45" gradientUnits="userSpaceOnUse">
<stop stop-color="white"/>
<stop offset="1" stop-color="white" stop-opacity="0"/>
</linearGradient>
<linearGradient id="paint2_linear_4245_155280" x1="215.813" y1="97.8288" x2="363.274" y2="178.66" gradientUnits="userSpaceOnUse">
<stop stop-color="#D9D9D9"/>
<stop offset="1" stop-color="#737373" stop-opacity="0"/>
</linearGradient>
<linearGradient id="paint3_linear_4245_155280" x1="335.591" y1="145.497" x2="202.779" y2="343.494" gradientUnits="userSpaceOnUse">
<stop/>
<stop offset="1" stop-opacity="0"/>
</linearGradient>
<linearGradient id="paint4_linear_4245_155280" x1="279.957" y1="253.768" x2="181.678" y2="132.548" gradientUnits="userSpaceOnUse">
<stop stop-color="white"/>
<stop offset="1" stop-color="#999999" stop-opacity="0.2"/>
</linearGradient>
<linearGradient id="paint5_linear_4245_155280" x1="279.079" y1="251.221" x2="180.8" y2="130" gradientUnits="userSpaceOnUse">
<stop stop-color="white"/>
<stop offset="1" stop-color="#999999" stop-opacity="0.2"/>
</linearGradient>
</defs>
</svg>
