<svg width="885" height="875" viewBox="0 0 885 875" fill="none" xmlns="http://www.w3.org/2000/svg">
<g clip-path="url(#clip0_6162_137550)">
<path d="M0 42.5C0 26.1328 0 17.9493 3.684 11.9375C5.74539 8.57365 8.57365 5.74539 11.9375 3.684C17.9493 0 26.1328 0 42.5 0H842.5C858.867 0 867.051 0 873.062 3.684C876.426 5.74539 879.255 8.57365 881.316 11.9375C885 17.9493 885 26.1328 885 42.5V832.5C885 848.867 885 857.051 881.316 863.062C879.255 866.426 876.426 869.255 873.062 871.316C867.051 875 858.867 875 842.5 875H42.5C26.1329 875 17.9493 875 11.9375 871.316C8.57365 869.255 5.74539 866.426 3.684 863.062C0 857.051 0 848.867 0 832.5V42.5Z" fill="white" fill-opacity="0.07"/>
<path d="M301.811 577.592L290.708 529.991L301.492 505.521C303.691 500.533 303.421 494.803 300.763 490.044L293.572 477.164C288.691 468.424 294.407 457.55 304.375 456.616L305.132 456.545C311.045 455.991 315.814 451.466 316.678 445.59C317.318 441.236 320.136 437.51 324.151 435.708L354.468 422.105C355.953 421.439 357.336 420.567 358.578 419.516L363.206 415.601C346.057 418.267 301.728 420.401 274.706 395.601C247.684 370.801 229.706 370.101 240.319 353.601L198.555 377.117C193.088 380.196 189.706 385.983 189.706 392.257V410.625C189.706 416.411 185.016 421.101 179.23 421.101C171.515 421.101 166.447 429.158 169.788 436.113L170.793 438.205C172.933 442.66 172.106 447.973 168.714 451.567L162.315 458.346C159.335 461.503 158.641 466.183 160.576 470.069C161.75 472.427 161.673 475.166 161.361 477.782C161.293 478.356 161.258 478.935 161.258 479.515V549.519L172.841 565.97C177.616 572.753 177.016 581.947 171.399 588.052L163.586 596.544C162.267 597.978 162.255 600.18 163.559 601.629L172.684 611.763C174.242 613.493 173.879 616.206 171.922 617.466L166.933 620.679C164.779 622.066 164.601 625.148 166.581 626.774L171.639 630.928C173.622 632.556 173.439 635.644 171.279 637.027L162.081 642.916C159.823 644.362 159.748 647.634 161.938 649.182L167.188 652.892C169.445 654.488 169.281 657.888 166.88 659.258L157.906 664.377C155.625 665.678 155.335 668.853 157.343 670.546L170.205 681.387C172.214 683.081 171.923 686.258 169.639 687.558L160.585 692.713C159.5 693.331 159.029 694.647 159.501 695.803C161.838 701.525 166.201 711.236 169.896 716.246C175.117 723.325 208.109 729.306 240.319 727.963C272.529 726.621 272.895 714.415 286.56 716.246C293.246 717.142 299.117 711.569 303.358 705.253C307.632 698.885 305.067 690.619 298.952 685.991L295.991 683.75C293.335 681.74 293.327 677.752 295.974 675.732L303.212 670.206C306.078 668.017 305.783 663.614 302.651 661.828L299.172 659.844C296.154 658.122 295.744 653.934 298.372 651.66L299.64 650.564C302.257 648.301 301.865 644.134 298.873 642.398L298.204 642.011C295.488 640.435 294.86 636.784 296.895 634.392L297.845 633.275C299.899 630.859 299.236 627.169 296.47 625.619L290.279 622.15C288.132 620.948 287.169 618.371 288 616.055L301.811 577.592Z" fill="#D9D9D9" fill-opacity="0.1"/>
<path d="M541.989 345.85L543.438 345.716C544.046 345.66 544.594 345.33 544.928 344.82L545.124 344.521C545.289 344.269 545.558 344.105 545.858 344.074L546.96 343.96C547.874 343.866 548.792 344.089 549.561 344.592L554.828 348.039C555.596 348.542 556.168 349.294 556.448 350.169L556.785 351.225C556.877 351.512 556.834 351.824 556.669 352.077L556.474 352.375C556.14 352.886 556.057 353.52 556.248 354.099L556.706 355.481M545.951 344.592L556.41 351.437" stroke="white" stroke-linecap="round"/>
<path d="M671.989 434.85L673.438 434.716C674.046 434.66 674.594 434.33 674.928 433.82L675.124 433.521C675.289 433.269 675.558 433.105 675.858 433.074L676.96 432.96C677.874 432.866 678.792 433.089 679.561 433.592L684.828 437.039C685.596 437.542 686.168 438.294 686.448 439.169L686.785 440.225C686.877 440.512 686.834 440.824 686.669 441.077L686.474 441.375C686.14 441.886 686.057 442.52 686.248 443.099L686.706 444.481M675.951 433.592L686.41 440.437" stroke="white" stroke-linecap="round"/>
<ellipse cx="404.148" cy="306.642" rx="4.5375" ry="4.51827" transform="rotate(28.6795 404.148 306.642)" stroke="white" stroke-linecap="round" stroke-linejoin="round"/>
<path d="M738.397 462.639L737.402 462.54V462.54L738.397 462.639ZM751.541 461.464L751.617 460.467L751.541 461.464ZM764.25 464.623L765.246 464.723V464.723L764.25 464.623ZM737.713 469.461L738.708 469.56L737.713 469.461ZM750.857 468.286L750.934 467.289L750.857 468.286ZM763.567 471.444L764.562 471.544L763.567 471.444ZM738.702 470.41L738.27 471.312V471.312L738.702 470.41ZM762.763 472.109L763.118 473.043V473.043L762.763 472.109ZM757.237 481.949L756.241 481.85V481.85L757.237 481.949ZM742.294 480.803L743.289 480.903L743.294 480.854L743.294 480.804L742.294 480.803ZM757.614 478.183L758.609 478.283V478.283L757.614 478.183ZM742.298 476.981L743.298 476.982V476.971L743.297 476.961L742.298 476.981ZM740.897 472.37L739.954 472.701V472.701L740.897 472.37ZM760.247 473.654L759.47 473.024V473.024L760.247 473.654ZM402.343 293.038C402.64 292.573 402.504 291.955 402.038 291.657C401.573 291.36 400.955 291.496 400.657 291.962L401.5 292.5L402.343 293.038ZM395.244 302.291L394.402 301.753V301.753L395.244 302.291ZM398.068 315.958L398.629 315.13V315.13L398.068 315.958ZM407 322L407.919 322.394C408.108 321.953 407.958 321.44 407.56 321.172L407 322ZM405.5 325.5L404.581 325.106C404.4 325.529 404.53 326.021 404.898 326.299L405.5 325.5ZM426.902 341.634L426.3 342.432V342.432L426.902 341.634ZM425.819 343.309L425.337 344.185V344.185L425.819 343.309ZM402.5 330.5L402.981 329.624C402.513 329.366 401.926 329.522 401.647 329.978C401.368 330.433 401.497 331.028 401.939 331.327L402.5 330.5ZM461.887 363.548L462.731 364.083V364.083L461.887 363.548ZM455.603 373.469L454.758 372.934V372.934L455.603 373.469ZM456.528 377.607L457.065 376.762V376.762L456.528 377.607ZM686.375 523.65L686.912 522.806V522.806L686.375 523.65ZM690.998 524.688L691.122 525.68V525.68L690.998 524.688ZM694.341 524.27L694.217 523.278V523.278L694.341 524.27ZM697.774 522.236L698.585 522.821V522.821L697.774 522.236ZM466.039 362.627L466.579 361.785V361.785L466.039 362.627ZM463.453 356.035L462.953 355.169L463.453 356.035ZM739.5 481L740.275 480.368L740.184 480.257L740.066 480.175L739.5 481ZM419.624 261.614L419.058 262.438V262.438L419.624 261.614ZM416.045 260.267L416.163 259.274V259.274L416.045 260.267ZM400.68 258.438L400.562 259.431V259.431L400.68 258.438ZM394.961 261.094L394.126 260.544V260.544L394.961 261.094ZM391.283 266.674L392.118 267.224V267.224L391.283 266.674ZM548.5 392.5L547.913 393.31V393.31L548.5 392.5ZM651 472.5L651.635 471.728V471.728L651 472.5ZM690.188 506.76L689.521 507.504V507.504L690.188 506.76ZM738.898 505.775L739.595 506.492V506.492L738.898 505.775ZM743.93 500.885L743.233 500.168V500.168L743.93 500.885ZM744.713 487.397L743.937 488.029V488.029L744.713 487.397ZM395.793 288.824L395.239 289.656V289.656L395.793 288.824ZM771.07 550.088L770.07 550.107V550.107L771.07 550.088ZM735.593 550.737L736.593 550.719V550.719L735.593 550.737ZM771.062 549.679L772.062 549.661V549.661L771.062 549.679ZM735.587 550.396L734.587 550.415V550.415L735.587 550.396ZM761.008 572.936L761.508 572.07V572.07L761.008 572.936ZM766.225 589.643L765.359 589.143L766.225 589.643ZM751 571.487L750.75 570.519L750.687 570.535L750.627 570.559L751 571.487ZM760 594.676L760.21 595.654L760.265 595.642L760.319 595.624L760 594.676ZM739.963 505.66C739.529 505.32 738.9 505.396 738.559 505.83C738.219 506.265 738.295 506.893 738.729 507.234L739.346 506.447L739.963 505.66ZM740.552 507.393L741.169 506.606V506.606L740.552 507.393ZM743.202 519.971L742.32 519.5V519.5L743.202 519.971ZM739.104 527.646L739.986 528.117V528.117L739.104 527.646ZM730.998 530.12L730.529 531.003V531.003L730.998 530.12ZM723.887 526.345L724.356 525.462L723.776 525.154L723.262 525.564L723.887 526.345ZM722.453 527.493L723.077 528.274V528.274L722.453 527.493ZM719.038 527.725L718.525 528.583V528.583L719.038 527.725ZM702.153 517.621L702.667 516.763L702.058 516.399L701.513 516.853L702.153 517.621ZM700.316 519.152L699.676 518.383L698.682 519.211L699.734 519.965L700.316 519.152ZM710.407 526.379L710.99 525.566V525.566L710.407 526.379ZM709.505 527.782L709.007 528.649V528.649L709.505 527.782ZM698.978 520.58C698.499 520.305 697.887 520.47 697.612 520.949C697.337 521.428 697.502 522.039 697.981 522.314L698.479 521.447L698.978 520.58ZM710.234 527.832L710.608 528.76L710.608 528.76L710.234 527.832ZM739.456 542.925L739.396 543.923V543.923L739.456 542.925ZM758.53 544.072L758.47 545.07L758.56 545.076L758.648 545.065L758.53 544.072ZM765.519 543.242L765.637 544.235V544.235L765.519 543.242ZM769.046 539.173L768.046 539.197V539.197L769.046 539.173ZM767.815 488.383L768.814 488.359V488.359L767.815 488.383ZM741.456 482.504C740.904 482.504 740.456 482.952 740.456 483.504C740.456 484.056 740.904 484.504 741.456 484.504V483.504V482.504ZM751.183 497.223L752.181 497.156V497.156L751.183 497.223ZM744.055 526.484L743.2 525.966L743.2 525.966L744.055 526.484ZM743.143 527.989L743.998 528.507V528.507L743.143 527.989ZM744.367 532.227L743.92 533.122V533.122L744.367 532.227ZM748.285 534.186L748.732 533.292V533.292L748.285 534.186ZM754.993 539.625L754.21 540.247V540.247L754.993 539.625ZM730.39 533.236L729.993 534.154V534.154L730.39 533.236ZM726.639 531.614L727.036 530.696V530.696L726.639 531.614ZM723.541 528.991L724.38 528.448V528.448L723.541 528.991ZM723.555 527.172C723.255 526.708 722.636 526.575 722.172 526.875C721.708 527.175 721.575 527.794 721.875 528.258L722.715 527.715L723.555 527.172ZM734.596 536.769L733.923 537.509H733.923L734.596 536.769ZM731.492 533.948L732.165 533.208V533.208L731.492 533.948ZM737.129 540.996L736.159 541.24V541.24L737.129 540.996ZM771.5 550C771.5 549.448 771.052 549 770.5 549C769.948 549 769.5 549.448 769.5 550H770.5H771.5ZM774 555.5L773.859 556.49V556.49L774 555.5ZM872 570L871.809 570.982V570.982L872 570ZM987.756 597.97C988.292 598.105 988.835 597.78 988.97 597.244C989.105 596.708 988.78 596.165 988.244 596.03L988 597L987.756 597.97ZM771.916 599.133L770.916 599.151V599.151L771.916 599.133ZM754.253 603.59L754.235 602.59L754.253 603.59ZM736.439 599.781L735.439 599.799V599.8L736.439 599.781ZM770.105 596.017L770.369 596.982L770.389 596.976L770.408 596.97L770.105 596.017ZM768.312 593.753L767.536 593.123V593.123L768.312 593.753ZM856.5 611L856.781 610.04V610.04L856.5 611ZM376.92 259.195L376.46 260.082L376.63 260.171L376.821 260.19L376.92 259.195ZM388.469 260.347L388.568 259.352V259.352L388.469 260.347ZM384.558 279.07L385.554 278.979V278.979L384.558 279.07ZM389.415 262.561L390.203 263.176V263.176L389.415 262.561ZM336.189 366.138L335.689 365.272L336.189 366.138ZM349.739 380.118L350.605 379.618L349.739 380.118ZM355.072 398.843L354.572 397.977L355.072 398.843ZM379 323.5H378V323.696L378.074 323.877L379 323.5ZM402.74 353.387L403.606 352.887V352.887L402.74 353.387ZM388.946 340.632L388.155 341.244L388.532 341.731L389.136 341.614L388.946 340.632ZM380.101 326.203L379.175 326.58V326.58L380.101 326.203ZM386.85 337.92L386.059 338.532V338.532L386.85 337.92ZM379.616 367.279L380.116 368.145L379.616 367.279ZM362.91 338.342L363.41 339.208L362.91 338.342ZM383 364.594L383.73 365.277L383.742 365.264L383.754 365.251L383 364.594ZM366.007 337L366.296 337.957L366.305 337.954L366.007 337ZM385.339 312.686L385.839 313.552L385.339 312.686ZM362.596 306.399L363.462 305.899L362.596 306.399ZM393.067 302.349L394.039 302.587V302.587L393.067 302.349ZM360.622 301.138L361.603 300.947V300.947L360.622 301.138ZM738.397 462.639L739.392 462.739C739.364 463.016 739.187 463.103 739.269 463.047C739.336 463.001 739.495 462.921 739.791 462.83C740.373 462.651 741.263 462.498 742.425 462.394C744.734 462.187 747.932 462.191 751.464 462.461L751.541 461.464L751.617 460.467C748.01 460.191 744.696 460.183 742.247 460.402C741.031 460.51 739.981 460.679 739.203 460.918C738.819 461.036 738.443 461.189 738.137 461.398C737.846 461.598 737.459 461.964 737.402 462.54L738.397 462.639ZM751.541 461.464L751.464 462.461C754.996 462.732 758.146 463.216 760.377 463.771C761.5 464.05 762.343 464.336 762.877 464.599C763.149 464.733 763.283 464.833 763.333 464.882C763.392 464.939 763.227 464.81 763.255 464.523L764.25 464.623L765.246 464.723C765.304 464.137 764.988 463.702 764.73 463.45C764.464 463.191 764.117 462.98 763.761 462.804C763.039 462.449 762.035 462.122 760.859 461.83C758.49 461.241 755.224 460.744 751.617 460.467L751.541 461.464ZM738.397 462.639L737.402 462.54L736.717 469.373L737.712 469.473L738.707 469.573L739.392 462.739L738.397 462.639ZM764.25 464.623L763.255 464.523L762.571 471.357L763.566 471.456L764.561 471.556L765.246 464.723L764.25 464.623ZM737.713 469.461L738.708 469.56C738.68 469.837 738.504 469.925 738.585 469.869C738.652 469.823 738.811 469.742 739.107 469.651C739.69 469.472 740.58 469.319 741.742 469.215C744.05 469.009 747.249 469.012 750.781 469.283L750.857 468.286L750.934 467.289C747.326 467.012 744.012 467.004 741.564 467.223C740.347 467.332 739.297 467.5 738.52 467.739C738.135 467.857 737.759 468.01 737.454 468.219C737.163 468.419 736.776 468.785 736.718 469.361L737.713 469.461ZM750.857 468.286L750.781 469.283C754.313 469.554 757.462 470.038 759.693 470.592C760.817 470.871 761.66 471.157 762.194 471.42C762.465 471.554 762.6 471.654 762.65 471.703C762.708 471.76 762.543 471.631 762.572 471.344L763.567 471.444L764.562 471.544C764.621 470.958 764.304 470.523 764.046 470.272C763.78 470.012 763.434 469.801 763.077 469.626C762.355 469.27 761.352 468.943 760.175 468.651C757.806 468.062 754.541 467.565 750.934 467.289L750.857 468.286ZM738.702 470.41L739.134 469.508C738.994 469.441 738.883 469.38 738.797 469.325C738.709 469.27 738.659 469.229 738.634 469.205C738.607 469.18 738.628 469.192 738.655 469.247C738.687 469.31 738.722 469.42 738.708 469.56L737.713 469.461L736.718 469.361C736.658 469.964 736.994 470.407 737.259 470.658C737.535 470.919 737.896 471.133 738.27 471.312L738.702 470.41ZM763.567 471.444L762.572 471.344C762.583 471.233 762.622 471.146 762.657 471.091C762.689 471.04 762.715 471.02 762.709 471.026C762.703 471.03 762.678 471.049 762.625 471.078C762.572 471.106 762.501 471.138 762.407 471.174L762.763 472.109L763.118 473.043C763.417 472.929 763.722 472.78 763.974 472.575C764.226 472.369 764.513 472.031 764.562 471.544L763.567 471.444ZM757.237 481.949L756.241 481.85C756.264 481.626 756.365 481.464 756.447 481.372C756.523 481.287 756.592 481.248 756.608 481.239C756.636 481.223 756.607 481.243 756.471 481.274C756.212 481.333 755.776 481.386 755.147 481.415C753.904 481.471 752.071 481.429 749.754 481.251L749.678 482.248L749.601 483.245C751.961 483.426 753.883 483.474 755.238 483.413C755.909 483.382 756.483 483.323 756.914 483.225C757.124 483.177 757.361 483.107 757.572 482.991C757.739 482.899 758.174 482.621 758.232 482.049L757.237 481.949ZM749.678 482.248L749.754 481.251C747.437 481.073 745.624 480.836 744.412 480.591C743.799 480.467 743.382 480.349 743.141 480.253C743.014 480.202 742.995 480.18 743.027 480.205C743.044 480.219 743.111 480.274 743.174 480.378C743.243 480.493 743.312 480.676 743.289 480.903L742.294 480.803L741.299 480.703C741.24 481.289 741.629 481.649 741.784 481.772C741.975 481.924 742.201 482.031 742.398 482.11C742.807 482.273 743.362 482.419 744.016 482.552C745.339 482.819 747.242 483.064 749.601 483.245L749.678 482.248ZM757.237 481.949L758.232 482.049L758.609 478.283L757.614 478.183L756.619 478.083L756.241 481.85L757.237 481.949ZM742.294 480.803L743.294 480.804L743.298 476.982L742.298 476.981L741.298 476.98L741.294 480.802L742.294 480.803ZM742.298 476.981L743.297 476.961C743.277 475.942 742.976 474.937 742.666 474.1C742.509 473.676 742.341 473.275 742.195 472.926C742.045 472.566 741.925 472.278 741.841 472.038L740.897 472.37L739.954 472.701C740.061 473.007 740.207 473.356 740.35 473.697C740.498 474.05 740.65 474.415 740.791 474.795C741.076 475.565 741.284 476.32 741.298 477.001L742.298 476.981ZM757.614 478.183L758.609 478.283C758.672 477.659 759 476.965 759.494 476.234C759.987 475.503 760.548 474.87 761.024 474.283L760.247 473.654L759.47 473.024C759.063 473.526 758.395 474.288 757.836 475.114C757.278 475.941 756.731 476.967 756.619 478.083L757.614 478.183ZM762.763 472.109L762.407 471.174C761.451 471.538 760.26 472.049 759.47 473.024L760.247 473.654L761.024 474.283C761.442 473.767 762.158 473.409 763.118 473.043L762.763 472.109ZM738.702 470.41L738.27 471.312C739.219 471.766 739.782 472.213 739.954 472.701L740.897 472.37L741.841 472.038C741.374 470.709 740.09 469.966 739.134 469.508L738.702 470.41ZM401.5 292.5L400.657 291.962L394.402 301.753L395.244 302.291L396.087 302.83L402.343 293.038L401.5 292.5ZM398.068 315.958L397.508 316.786L406.44 322.828L407 322L407.56 321.172L398.629 315.13L398.068 315.958ZM407 322L406.081 321.606L404.581 325.106L405.5 325.5L406.419 325.894L407.919 322.394L407 322ZM405.5 325.5L404.898 326.299L426.3 342.432L426.902 341.634L427.504 340.835L406.102 324.701L405.5 325.5ZM425.819 343.309L426.3 342.432L402.981 329.624L402.5 330.5L402.019 331.376L425.337 344.185L425.819 343.309ZM402.5 330.5L401.939 331.327L457.939 369.327L458.5 368.5L459.062 367.673L403.062 329.673L402.5 330.5ZM426.902 341.634L426.3 342.432C426.313 342.442 426.32 342.449 426.322 342.452C426.325 342.455 426.324 342.454 426.322 342.451C426.32 342.447 426.317 342.442 426.315 342.436C426.313 342.43 426.312 342.424 426.311 342.419C426.31 342.409 426.312 342.405 426.311 342.409C426.31 342.411 426.309 342.415 426.307 342.419C426.305 342.423 426.303 342.428 426.3 342.432C426.297 342.437 426.294 342.441 426.291 342.445C426.288 342.448 426.285 342.45 426.283 342.451C426.28 342.454 426.282 342.451 426.292 342.448C426.297 342.447 426.303 342.445 426.31 342.445C426.316 342.444 426.322 342.444 426.326 342.445C426.33 342.445 426.33 342.446 426.327 342.445C426.324 342.444 426.314 342.44 426.3 342.432L425.819 343.309L425.337 344.185C427.513 345.38 429.485 342.329 427.504 340.835L426.902 341.634ZM395.244 302.291L394.402 301.753C391.192 306.778 392.569 313.445 397.508 316.786L398.068 315.958L398.629 315.13C394.588 312.396 393.461 306.941 396.087 302.83L395.244 302.291ZM461.887 363.548L461.042 363.013L454.758 372.934L455.603 373.469L456.448 374.004L462.731 364.083L461.887 363.548ZM456.528 377.607L455.992 378.451L685.839 524.494L686.375 523.65L686.912 522.806L457.065 376.762L456.528 377.607ZM690.998 524.688L691.122 525.68L694.465 525.262L694.341 524.27L694.217 523.278L690.874 523.696L690.998 524.688ZM697.774 522.236L698.585 522.821L703.811 515.585L703 515L702.189 514.415L696.963 521.65L697.774 522.236ZM687.5 504.5L688.039 503.658L466.579 361.785L466.039 362.627L465.5 363.469L686.961 505.342L687.5 504.5ZM694.341 524.27L694.465 525.262C696.117 525.056 697.61 524.172 698.585 522.821L697.774 522.236L696.963 521.65C696.313 522.551 695.319 523.14 694.217 523.278L694.341 524.27ZM686.375 523.65L685.839 524.494C687.409 525.491 689.277 525.911 691.122 525.68L690.998 524.688L690.874 523.696C689.49 523.868 688.089 523.554 686.912 522.806L686.375 523.65ZM455.603 373.469L454.758 372.934C453.577 374.799 454.129 377.267 455.992 378.451L456.528 377.607L457.065 376.762C456.133 376.171 455.857 374.937 456.448 374.004L455.603 373.469ZM461.887 363.548L462.731 364.083C463.325 363.146 464.566 362.871 465.5 363.469L466.039 362.627L466.579 361.785C464.712 360.589 462.228 361.139 461.042 363.013L461.887 363.548ZM465.269 350.422L464.769 349.556C458.381 353.244 449.99 350.831 446.063 344.029L445.197 344.529L444.331 345.029C448.765 352.709 458.347 355.572 465.769 351.288L465.269 350.422ZM445.197 344.529L446.063 344.029C442.135 337.226 444.241 328.753 450.629 325.065L450.129 324.199L449.629 323.333C442.208 327.618 439.896 337.348 444.331 345.029L445.197 344.529ZM450.129 324.199L450.629 325.065C457.018 321.377 465.408 323.79 469.336 330.592L470.202 330.092L471.068 329.592C466.634 321.912 457.051 319.048 449.629 323.333L450.129 324.199ZM470.202 330.092L469.336 330.592C473.263 337.394 471.157 345.867 464.769 349.556L465.269 350.422L465.769 351.288C473.191 347.003 475.502 337.272 471.068 329.592L470.202 330.092ZM463.453 356.035L462.953 355.169C456.079 359.138 446.973 356.45 442.661 348.981L441.795 349.481L440.929 349.981C445.732 358.3 456.02 361.481 463.953 356.901L463.453 356.035ZM441.795 349.481L442.661 348.981C440.494 345.227 439.858 341.371 440.784 337.646C441.713 333.909 444.242 330.189 448.614 326.788L448 325.999L447.386 325.21C442.758 328.81 439.906 332.885 438.843 337.164C437.776 341.456 438.538 345.84 440.929 349.981L441.795 349.481ZM471.5 342.999L470.512 342.847C469.551 349.072 466.625 353.049 462.953 355.169L463.453 356.035L463.953 356.901C468.222 354.437 471.449 349.89 472.488 343.152L471.5 342.999ZM739.5 481L740.066 480.175L420.189 260.789L419.624 261.614L419.058 262.438L738.934 481.825L739.5 481ZM416.045 260.267L416.163 259.274L400.798 257.445L400.68 258.438L400.562 259.431L415.927 261.26L416.045 260.267ZM394.961 261.094L394.126 260.544L390.448 266.124L391.283 266.674L392.118 267.224L395.796 261.644L394.961 261.094ZM548.5 392.5L547.913 393.31C587.887 422.291 627.868 454.775 650.365 473.272L651 472.5L651.635 471.728C629.132 453.225 589.113 420.709 549.087 391.69L548.5 392.5ZM651 472.5L650.365 473.272C660.638 481.719 675.928 495.312 689.521 507.504L690.188 506.76L690.856 506.015C677.27 493.829 661.947 480.207 651.635 471.728L651 472.5ZM738.898 505.775L739.595 506.492L744.627 501.602L743.93 500.885L743.233 500.168L738.202 505.058L738.898 505.775ZM744.713 487.397L745.488 486.766L740.275 480.368L739.5 481L738.725 481.632L743.937 488.029L744.713 487.397ZM472 339.842L471.441 340.671C502.695 361.761 532.384 382.051 547.913 393.31L548.5 392.5L549.087 391.69C533.526 380.409 503.809 360.1 472.559 339.014L472 339.842ZM395.793 288.824L395.239 289.656C410.538 299.826 429.456 312.449 448.943 325.531L449.5 324.701L450.057 323.87C430.568 310.787 411.647 298.162 396.347 287.991L395.793 288.824ZM391.283 266.674L390.448 266.124C385.29 273.949 387.435 284.469 395.239 289.656L395.793 288.824L396.347 287.991C389.459 283.412 387.567 274.129 392.118 267.224L391.283 266.674ZM743.93 500.885L744.627 501.602C748.716 497.628 749.09 491.187 745.488 486.766L744.713 487.397L743.937 488.029C746.885 491.646 746.579 496.916 743.233 500.168L743.93 500.885ZM400.68 258.438L400.798 257.445C398.167 257.132 395.584 258.331 394.126 260.544L394.961 261.094L395.796 261.644C396.837 260.064 398.682 259.207 400.562 259.431L400.68 258.438ZM690.188 506.76L689.521 507.504C703.912 520.413 725.732 519.965 739.595 506.492L738.898 505.775L738.202 505.058C725.091 517.798 704.464 518.221 690.856 506.015L690.188 506.76ZM419.624 261.614L420.189 260.789C418.99 259.966 417.608 259.446 416.163 259.274L416.045 260.267L415.927 261.26C417.05 261.394 418.125 261.798 419.058 262.438L419.624 261.614ZM771.07 550.088L770.07 550.107C770.066 549.88 770.203 549.823 770.072 549.935C769.951 550.038 769.713 550.184 769.311 550.353C768.515 550.686 767.302 551.015 765.729 551.31C762.599 551.895 758.228 552.307 753.368 552.396L753.386 553.396L753.404 554.395C758.341 554.305 762.827 553.887 766.097 553.276C767.724 552.971 769.097 552.611 770.084 552.197C770.572 551.993 771.024 551.752 771.369 551.457C771.703 551.172 772.081 550.709 772.07 550.07L771.07 550.088ZM753.386 553.396L753.368 552.396C748.508 552.485 744.125 552.233 740.975 551.762C739.392 551.526 738.168 551.241 737.361 550.937C736.953 550.783 736.709 550.645 736.585 550.547C736.45 550.44 736.589 550.492 736.593 550.719L735.593 550.737L734.594 550.755C734.605 551.394 735 551.843 735.344 552.116C735.7 552.397 736.16 552.622 736.656 552.808C737.657 553.185 739.043 553.496 740.68 553.74C743.969 554.232 748.468 554.486 753.404 554.395L753.386 553.396ZM771.07 550.088L772.07 550.07L772.062 549.661L771.062 549.679L770.063 549.697L770.07 550.107L771.07 550.088ZM735.587 550.396L734.587 550.415L734.594 550.755L735.593 550.737L736.593 550.719L736.587 550.378L735.587 550.396ZM735.587 550.396L736.587 550.378C736.574 549.655 737.149 549.059 737.872 549.046L737.853 548.046L737.835 547.046C736.008 547.079 734.554 548.588 734.587 550.415L735.587 550.396ZM771.062 549.679L772.062 549.661C772.03 547.872 770.553 546.448 768.764 546.481L768.782 547.48L768.8 548.48C769.485 548.468 770.05 549.013 770.063 549.698L771.062 549.679ZM742.997 594.918L743.497 594.052C738.051 590.908 736.099 584.379 738.9 579.528L738.034 579.028L737.168 578.528C733.739 584.467 736.231 592.167 742.497 595.784L742.997 594.918ZM738.034 579.028L738.9 579.528C741.701 574.676 748.332 573.102 753.777 576.246L754.277 575.38L754.777 574.514C748.511 570.897 740.597 572.589 737.168 578.528L738.034 579.028ZM754.277 575.38L753.777 576.246C759.223 579.391 761.175 585.919 758.374 590.771L759.24 591.271L760.106 591.771C763.535 585.832 761.043 578.132 754.777 574.514L754.277 575.38ZM759.24 591.271L758.374 590.771C755.573 595.622 748.943 597.196 743.497 594.052L742.997 594.918L742.497 595.784C748.763 599.402 756.677 597.71 760.106 591.771L759.24 591.271ZM761.008 572.936L760.508 573.802C766.254 577.12 768.32 584.014 765.359 589.143L766.225 589.643L767.091 590.143C770.68 583.927 768.074 575.861 761.508 572.07L761.008 572.936ZM751 571.487L751.25 572.455C754.182 571.697 757.525 572.08 760.508 573.802L761.008 572.936L761.508 572.07C758.074 570.088 754.193 569.629 750.75 570.519L751 571.487ZM743.5 574.499L743.873 575.427L751.373 572.415L751 571.487L750.627 570.559L743.127 573.571L743.5 574.499ZM766.225 589.643L765.359 589.143C764.074 591.369 762.044 592.933 759.681 593.728L760 594.676L760.319 595.624C763.109 594.685 765.545 592.822 767.091 590.143L766.225 589.643ZM751.5 596.499L751.71 597.477L760.21 595.654L760 594.676L759.79 593.698L751.29 595.521L751.5 596.499ZM739.346 506.447L738.729 507.234L739.935 508.18L740.552 507.393L741.169 506.606L739.963 505.66L739.346 506.447ZM743.202 519.971L742.32 519.5L738.222 527.175L739.104 527.646L739.986 528.117L744.084 520.442L743.202 519.971ZM730.998 530.12L731.467 529.237L724.356 525.462L723.887 526.345L723.418 527.229L730.529 531.003L730.998 530.12ZM723.887 526.345L723.262 525.564L721.828 526.712L722.453 527.493L723.077 528.274L724.512 527.126L723.887 526.345ZM719.038 527.725L719.552 526.866L702.667 516.763L702.153 517.621L701.64 518.479L718.525 528.583L719.038 527.725ZM702.153 517.621L701.513 516.853L699.676 518.383L700.316 519.152L700.957 519.92L702.793 518.389L702.153 517.621ZM700.316 519.152L699.734 519.965L709.825 527.192L710.407 526.379L710.99 525.566L700.899 518.339L700.316 519.152ZM709.505 527.782L710.003 526.915L698.978 520.58L698.479 521.447L697.981 522.314L709.007 528.649L709.505 527.782ZM710.234 527.832L709.859 526.905C709.906 526.886 709.959 526.89 710.003 526.915L709.505 527.782L709.007 528.649C709.495 528.93 710.086 528.971 710.608 528.76L710.234 527.832ZM722.453 527.493L721.828 526.712C721.176 527.234 720.268 527.295 719.552 526.866L719.038 527.725L718.525 528.583C719.958 529.44 721.773 529.317 723.077 528.274L722.453 527.493ZM710.407 526.379L709.825 527.192C709.719 527.116 709.739 526.954 709.859 526.905L710.234 527.832L710.608 528.76C711.95 528.218 712.166 526.409 710.99 525.566L710.407 526.379ZM739.104 527.646L738.222 527.175C736.924 529.607 733.902 530.529 731.467 529.237L730.998 530.12L730.529 531.003C733.938 532.813 738.169 531.522 739.986 528.117L739.104 527.646ZM740.552 507.393L739.935 508.18C743.371 510.875 744.376 515.647 742.32 519.5L743.202 519.971L744.084 520.442C746.597 515.733 745.369 509.9 741.169 506.606L740.552 507.393ZM739.456 542.925L739.396 543.923L758.47 545.07L758.53 544.072L758.59 543.074L739.516 541.927L739.456 542.925ZM758.53 544.072L758.648 545.065L765.637 544.235L765.519 543.242L765.401 542.249L758.412 543.079L758.53 544.072ZM769.046 539.173L770.046 539.149L768.814 488.359L767.815 488.383L766.815 488.407L768.046 539.197L769.046 539.173ZM762.816 483.504V482.504H750.263V483.504V484.504H762.816V483.504ZM750.263 483.504V482.504H741.456V483.504V484.504H750.263V483.504ZM750.263 483.504L749.265 483.571L750.185 497.29L751.183 497.223L752.181 497.156L751.261 483.437L750.263 483.504ZM744.055 526.484L743.2 525.966L742.288 527.471L743.143 527.989L743.998 528.507L744.91 527.003L744.055 526.484ZM744.367 532.227L743.92 533.122L747.837 535.08L748.285 534.186L748.732 533.292L744.814 531.333L744.367 532.227ZM754.993 539.625L754.21 540.247L757.748 544.695L758.53 544.072L759.313 543.45L755.775 539.002L754.993 539.625ZM730.39 533.236L730.787 532.318L727.036 530.696L726.639 531.614L726.242 532.532L729.993 534.154L730.39 533.236ZM723.541 528.991L724.38 528.448L723.555 527.172L722.715 527.715L721.875 528.258L722.701 529.534L723.541 528.991ZM734.596 536.769L735.268 536.029L732.165 533.208L731.492 533.948L730.82 534.688L733.923 537.509L734.596 536.769ZM737.129 540.996L738.099 540.752C737.641 538.933 736.656 537.29 735.268 536.029L734.596 536.769L733.923 537.509C735.019 538.506 735.797 539.804 736.159 541.24L737.129 540.996ZM726.639 531.614L727.036 530.696C725.948 530.226 725.024 529.443 724.38 528.448L723.541 528.991L722.701 529.534C723.559 530.861 724.792 531.904 726.242 532.532L726.639 531.614ZM730.39 533.236L729.993 534.154C730.296 534.285 730.575 534.465 730.82 534.688L731.492 533.948L732.165 533.208C731.758 532.837 731.292 532.537 730.787 532.318L730.39 533.236ZM748.285 534.186L747.837 535.08C750.313 536.318 752.488 538.081 754.21 540.247L754.993 539.625L755.775 539.002C753.871 536.608 751.468 534.659 748.732 533.292L748.285 534.186ZM751.183 497.223L750.185 497.29C750.859 507.339 748.42 517.352 743.2 525.966L744.055 526.484L744.91 527.003C750.344 518.037 752.882 507.616 752.181 497.156L751.183 497.223ZM767.815 488.383L768.814 488.359C768.735 485.103 766.073 482.504 762.816 482.504V483.504V484.504C764.987 484.504 766.762 486.236 766.815 488.407L767.815 488.383ZM743.143 527.989L742.288 527.471C741.077 529.469 741.829 532.077 743.92 533.122L744.367 532.227L744.814 531.333C743.769 530.81 743.393 529.507 743.998 528.507L743.143 527.989ZM765.519 543.242L765.637 544.235C768.198 543.931 770.108 541.728 770.046 539.149L769.046 539.173L768.046 539.197C768.084 540.745 766.938 542.066 765.401 542.249L765.519 543.242ZM739.456 542.925L739.516 541.927C738.838 541.886 738.264 541.411 738.099 540.752L737.129 540.996L736.159 541.24C736.538 542.745 737.848 543.83 739.396 543.923L739.456 542.925ZM770.5 550H769.5C769.5 550.94 769.692 552.369 770.295 553.65C770.904 554.946 772.008 556.226 773.859 556.49L774 555.5L774.141 554.51C773.192 554.374 772.546 553.737 772.105 552.8C771.658 551.848 771.5 550.726 771.5 550H770.5ZM774 555.5L773.859 556.49C777.41 556.997 833.341 563.488 871.809 570.982L872 570L872.191 569.018C833.659 561.512 777.59 555.003 774.141 554.51L774 555.5ZM872 570L871.809 570.982C902.578 576.976 961.919 591.469 987.756 597.97L988 597L988.244 596.03C962.414 589.531 903.022 575.024 872.191 569.018L872 570ZM771.916 599.133L770.916 599.151C770.915 599.126 770.931 599.18 770.807 599.326C770.677 599.48 770.44 599.677 770.053 599.9C769.278 600.345 768.088 600.787 766.529 601.181C763.426 601.964 759.08 602.502 754.235 602.59L754.253 603.59L754.271 604.59C759.223 604.499 763.728 603.95 767.018 603.12C768.655 602.707 770.047 602.211 771.049 601.634C771.551 601.346 772.001 601.012 772.334 600.618C772.672 600.219 772.926 599.71 772.915 599.115L771.916 599.133ZM754.253 603.59L754.235 602.59C749.389 602.679 745.026 602.3 741.897 601.631C740.324 601.295 739.119 600.897 738.329 600.48C737.934 600.272 737.689 600.083 737.554 599.934C737.424 599.792 737.439 599.738 737.439 599.763L736.439 599.781L735.439 599.8C735.45 600.395 735.723 600.894 736.076 601.281C736.423 601.662 736.885 601.98 737.396 602.249C738.419 602.789 739.828 603.234 741.479 603.587C744.797 604.296 749.32 604.68 754.271 604.59L754.253 603.59ZM771.916 599.133L772.915 599.115L772.848 595.444L771.849 595.463L770.849 595.481L770.916 599.151L771.916 599.133ZM771.111 552.5H772.111V549.469H771.111H770.111V552.5H771.111ZM771.849 595.463L771.546 594.51L769.802 595.064L770.105 596.017L770.408 596.97L772.152 596.416L771.849 595.463ZM768.312 593.753L769.089 594.383C770.179 593.04 771.651 592 773.5 592V591V590C770.824 590 768.838 591.519 767.536 593.123L768.312 593.753ZM856.5 611L856.219 611.96C888.674 621.447 919.139 632.933 953.636 646.431L954 645.5L954.365 644.569C919.861 631.067 889.326 619.553 856.781 610.04L856.5 611ZM770.105 596.017L769.842 595.052C769.426 595.166 769.14 595.011 769.026 594.872C768.969 594.804 768.951 594.74 768.951 594.688C768.951 594.639 768.966 594.535 769.089 594.383L768.312 593.753L767.536 593.123C766.735 594.11 766.796 595.31 767.481 596.143C768.13 596.931 769.244 597.288 770.369 596.982L770.105 596.017ZM735.555 550.45L734.555 550.468L735.439 599.799L736.439 599.781L737.439 599.763L736.554 550.432L735.555 550.45ZM773.5 591V592C774.209 592 776.021 592.261 778.817 592.781L779 591.798L779.183 590.815C776.445 590.305 774.433 590 773.5 590V591ZM779 591.798L778.817 592.781C792.865 595.396 829.079 604.026 856.219 611.96L856.5 611L856.781 610.04C829.591 602.093 793.311 593.445 779.183 590.815L779 591.798ZM771.849 595.463L772.746 595.904C773.353 594.671 775.446 592.309 778.861 592.788L779 591.798L779.139 590.808C774.554 590.164 771.778 593.343 770.952 595.021L771.849 595.463ZM406.258 373.85L405.822 372.951L354.88 397.637L355.316 398.537L355.752 399.437L406.695 374.75L406.258 373.85ZM342 261.5H343C343 261.344 343.131 260.947 343.992 260.396C344.807 259.876 346.052 259.37 347.679 258.93C350.92 258.054 355.453 257.5 360.5 257.5V256.5V255.5C355.329 255.5 350.612 256.065 347.158 256.999C345.437 257.464 343.973 258.035 342.915 258.711C341.904 259.357 341 260.276 341 261.5H342ZM360.5 256.5V257.5C367.596 257.5 373.594 258.594 376.46 260.082L376.92 259.195L377.381 258.307C374.079 256.593 367.685 255.5 360.5 255.5V256.5ZM376.92 259.195L376.821 260.19L388.37 261.342L388.469 260.347L388.568 259.352L377.02 258.2L376.92 259.195ZM384.558 279.07L383.562 279.161L383.783 281.58L384.779 281.489L385.775 281.398L385.554 278.979L384.558 279.07ZM387 311.5L386.253 310.836C385.275 311.936 384.326 312.885 383.426 313.785C382.534 314.677 381.676 315.534 380.926 316.414C379.4 318.206 378.281 320.14 378.005 322.9L379 323L379.995 323.1C380.219 320.86 381.1 319.294 382.449 317.711C383.137 316.903 383.935 316.104 384.84 315.199C385.737 314.302 386.725 313.314 387.747 312.164L387 311.5ZM389.415 262.561L388.627 261.945C384.81 266.83 382.999 272.987 383.562 279.161L384.558 279.07L385.554 278.979C385.037 273.312 386.699 267.66 390.203 263.176L389.415 262.561ZM388.469 260.347L388.37 261.342C388.663 261.371 388.809 261.713 388.627 261.945L389.415 262.561L390.203 263.176C391.355 261.703 390.429 259.538 388.568 259.352L388.469 260.347ZM344 250.5H345C345 250.694 344.889 250.741 344.999 250.643C345.106 250.548 345.321 250.41 345.692 250.251C346.425 249.936 347.548 249.629 349.012 249.363C351.922 248.833 355.985 248.5 360.5 248.5V247.5V246.5C355.903 246.5 351.715 246.838 348.654 247.395C347.132 247.672 345.838 248.011 344.902 248.414C344.437 248.613 344.004 248.852 343.671 249.148C343.342 249.44 343 249.892 343 250.5H344ZM360.5 247.5V248.5C365.015 248.5 369.078 248.833 371.988 249.363C373.452 249.629 374.575 249.936 375.308 250.251C375.679 250.41 375.894 250.548 376.001 250.643C376.111 250.741 376 250.694 376 250.5H377H378C378 249.892 377.658 249.44 377.329 249.148C376.996 248.852 376.563 248.613 376.098 248.414C375.162 248.011 373.868 247.672 372.346 247.395C369.285 246.838 365.097 246.5 360.5 246.5V247.5ZM377 250.5H376V259.5H377H378V250.5H377ZM344 250.5H343V258H344H345V250.5H344ZM336.189 366.138L336.689 367.004C336.764 366.961 337.126 366.858 338.042 367.372C338.89 367.848 339.947 368.713 341.142 369.946C343.522 372.401 346.295 376.152 348.873 380.618L349.739 380.118L350.605 379.618C347.97 375.053 345.102 371.158 342.578 368.554C341.322 367.257 340.11 366.239 339.02 365.627C337.996 365.053 336.75 364.66 335.689 365.272L336.189 366.138ZM349.739 380.118L348.873 380.618C351.452 385.084 353.313 389.361 354.25 392.65C354.72 394.302 354.941 395.649 354.929 396.622C354.916 397.671 354.646 397.934 354.572 397.977L355.072 398.843L355.572 399.709C356.632 399.096 356.914 397.82 356.929 396.647C356.944 395.397 356.668 393.838 356.174 392.102C355.18 388.614 353.241 384.183 350.605 379.618L349.739 380.118ZM336.548 374.199L337.495 373.878C336.794 371.811 336.41 370.083 336.342 368.818C336.308 368.184 336.358 367.722 336.451 367.411C336.543 367.107 336.651 367.026 336.689 367.004L336.189 366.138L335.689 365.272C335.076 365.626 334.723 366.215 334.536 366.835C334.352 367.448 334.304 368.164 334.345 368.925C334.426 370.449 334.873 372.374 335.601 374.52L336.548 374.199ZM355.072 398.843L354.572 397.977C354.531 398 354.396 398.057 354.054 397.968C353.708 397.877 353.245 397.658 352.672 397.267C351.529 396.488 350.129 395.155 348.6 393.353L347.837 394L347.075 394.647C348.659 396.513 350.191 397.997 351.545 398.919C352.22 399.38 352.897 399.733 353.549 399.903C354.205 400.074 354.927 400.081 355.572 399.709L355.072 398.843ZM342 323.5H343C343 323.344 343.131 322.947 343.992 322.396C344.807 321.876 346.052 321.37 347.679 320.93C350.92 320.054 355.453 319.5 360.5 319.5V318.5V317.5C355.329 317.5 350.612 318.065 347.158 318.999C345.437 319.464 343.973 320.035 342.915 320.711C341.904 321.357 341 322.276 341 323.5H342ZM360.5 318.5V319.5C365.547 319.5 370.08 320.054 373.321 320.93C374.948 321.37 376.193 321.876 377.008 322.396C377.869 322.947 378 323.344 378 323.5H379H380C380 322.276 379.096 321.357 378.085 320.711C377.027 320.035 375.563 319.464 373.842 318.999C370.388 318.065 365.671 317.5 360.5 317.5V318.5ZM342 323.5H343V261H342H341V323.5H342ZM342 323.5H341V342.97H342H343V323.5H342ZM342 342.97H341C341 351.024 338.979 358.95 335.122 366.021L336 366.5L336.878 366.979C340.895 359.614 343 351.359 343 342.97H342ZM402.74 353.387L401.874 353.887C404.521 358.472 406.179 362.998 406.744 366.583C407.028 368.379 407.028 369.885 406.78 371.026C406.532 372.165 406.064 372.831 405.495 373.159L405.995 374.025L406.495 374.891C407.72 374.184 408.415 372.918 408.734 371.451C409.054 369.985 409.026 368.21 408.72 366.271C408.108 362.387 406.344 357.629 403.606 352.887L402.74 353.387ZM388.946 340.632L389.136 341.614C389.446 341.554 390.084 341.648 391.077 342.156C392.029 342.642 393.161 343.432 394.387 344.511C396.836 346.666 399.569 349.894 401.874 353.887L402.74 353.387L403.606 352.887C401.199 348.718 398.331 345.318 395.709 343.01C394.399 341.858 393.129 340.958 391.987 340.375C390.888 339.813 389.743 339.459 388.756 339.65L388.946 340.632ZM379 323.5L378.074 323.877L379.175 326.58L380.101 326.203L381.027 325.825L379.926 323.123L379 323.5ZM386.85 337.92L386.059 338.532L388.155 341.244L388.946 340.632L389.738 340.02L387.641 337.309L386.85 337.92ZM380.101 326.203L379.175 326.58C380.918 330.857 383.234 334.878 386.059 338.532L386.85 337.92L387.641 337.309C384.927 333.798 382.702 329.935 381.027 325.825L380.101 326.203ZM385.346 361.377L384.846 360.511C378.986 363.894 371.073 361.471 367.238 354.828L366.372 355.328L365.506 355.828C369.803 363.271 378.88 366.265 385.846 362.243L385.346 361.377ZM366.372 355.328L367.238 354.828C363.403 348.184 365.26 340.12 371.12 336.737L370.62 335.871L370.12 335.005C363.154 339.027 361.209 348.384 365.506 355.828L366.372 355.328ZM370.62 335.871L371.12 336.737C376.979 333.354 384.892 335.778 388.727 342.421L389.593 341.921L390.459 341.421C386.162 333.978 377.085 330.984 370.12 335.005L370.62 335.871ZM389.593 341.921L388.727 342.421C392.563 349.064 390.705 357.128 384.846 360.511L385.346 361.377L385.846 362.243C392.811 358.222 394.757 348.864 390.459 341.421L389.593 341.921ZM379.616 367.279L379.116 366.412C372.181 370.417 362.977 367.686 358.607 360.117L357.741 360.617L356.875 361.117C361.732 369.53 372.116 372.764 380.116 368.145L379.616 367.279ZM357.741 360.617L358.607 360.117C354.237 352.549 356.474 343.212 363.41 339.208L362.91 338.342L362.41 337.476C354.409 342.095 352.018 352.704 356.875 361.117L357.741 360.617ZM383 364.594L382.27 363.91C381.367 364.876 380.313 365.722 379.116 366.412L379.616 367.279L380.116 368.145C381.486 367.354 382.694 366.384 383.73 365.277L383 364.594ZM390.5 356L389.747 355.342L382.247 363.936L383 364.594L383.754 365.251L391.254 356.657L390.5 356ZM362.91 338.342L363.41 339.208C364.34 338.671 365.307 338.256 366.296 337.957L366.007 337L365.717 336.043C364.583 336.386 363.474 336.862 362.41 337.476L362.91 338.342ZM374 334.5L373.702 333.545L365.708 336.045L366.007 337L366.305 337.954L374.299 335.454L374 334.5ZM384.216 306.313L383.716 305.447C377.369 309.112 369.1 306.783 365.271 300.151L364.404 300.651L363.538 301.151C367.888 308.685 377.359 311.427 384.716 307.179L384.216 306.313ZM364.404 300.651L365.271 300.151C361.441 293.519 363.56 285.193 369.906 281.529L369.406 280.663L368.906 279.797C361.549 284.045 359.189 293.617 363.538 301.151L364.404 300.651ZM369.406 280.663L369.906 281.529C376.253 277.865 384.523 280.193 388.352 286.825L389.218 286.325L390.084 285.825C385.734 278.291 376.264 275.549 368.906 279.797L369.406 280.663ZM389.218 286.325L388.352 286.825C392.181 293.457 390.062 301.783 383.716 305.447L384.216 306.313L384.716 307.179C392.073 302.932 394.433 293.359 390.084 285.825L389.218 286.325ZM385.339 312.686L384.839 311.82C377.413 316.107 367.837 313.476 363.462 305.899L362.596 306.399L361.73 306.899C366.643 315.407 377.431 318.406 385.839 313.552L385.339 312.686ZM390.386 288.799L389.541 289.335C392.17 293.482 393.021 298.34 392.096 302.111L393.067 302.349L394.039 302.587C395.112 298.209 394.104 292.798 391.231 288.264L390.386 288.799ZM393.067 302.349L392.096 302.111C391.123 306.081 388.619 309.637 384.839 311.82L385.339 312.686L385.839 313.552C390.115 311.083 392.942 307.06 394.039 302.587L393.067 302.349ZM362.596 306.399L363.462 305.899C362.547 304.314 361.934 302.641 361.603 300.947L360.622 301.138L359.64 301.33C360.013 303.238 360.703 305.12 361.73 306.899L362.596 306.399ZM360.622 301.138L361.603 300.947C360.793 296.791 361.683 292.504 364.01 289.08L363.182 288.518L362.355 287.956C359.728 291.823 358.728 296.653 359.64 301.33L360.622 301.138ZM281.5 401.365L281.941 402.262L340.941 373.253L340.5 372.356L340.059 371.458L281.059 400.467L281.5 401.365ZM351.845 392.131L351.404 391.234L308.059 412.546L308.5 413.443L308.941 414.34L352.286 393.029L351.845 392.131Z" fill="url(#paint0_linear_6162_137550)"/>
<path opacity="0.6" d="M254.992 407V402.5C254.992 398.634 246.262 395.5 235.492 395.5C224.723 395.5 215.992 398.634 215.992 402.5V461.75M254.992 449V461.75M254.992 405.499V407.97C254.992 410.932 258.099 412.867 260.757 411.56L281.492 401.365M254.992 450.5V448.465C254.992 443.129 258.026 438.256 262.815 435.902L308.492 413.443M242.992 460.5L272.149 462.275C274.232 462.402 275.867 464.109 275.905 466.195L276.922 521.669C276.961 523.811 275.306 525.603 273.168 525.735L242.992 527.585M242.992 460.5V458.26C242.992 455.042 240.453 452.396 237.237 452.265L225.778 451.797C221.803 451.635 218.492 454.814 218.492 458.792V521.584C218.492 525.609 221.878 528.805 225.896 528.573L242.992 527.585M242.992 460.5V527.585M219.992 526.5L205.492 527.585L188.396 528.573C184.378 528.805 180.992 525.609 180.992 521.584V460.792C180.992 456.814 184.303 453.635 188.278 453.797L199.737 454.265C202.953 454.396 205.492 457.042 205.492 460.26V462.5H218.492" stroke="white" stroke-width="2"/>
<path opacity="0.5" d="M263.5 526.5L222.964 535.291C222.43 535.407 221.901 535.072 221.778 534.538L221.573 533.651C220.945 530.928 218.521 529 215.727 529H196.106C195.102 529 194.166 529.501 193.609 530.336L193.508 530.488C192.851 531.474 192.5 532.632 192.5 533.817V534.764C192.5 535.735 192.77 536.688 193.279 537.516C194.042 538.756 195.373 539.536 196.828 539.595L218.313 540.472C218.769 540.491 219.225 540.447 219.669 540.342L276 527V525" stroke="white" stroke-width="2" stroke-linecap="round"/>
<path d="M763.374 555.665C763.189 555.46 762.873 555.444 762.668 555.628C762.462 555.813 762.446 556.129 762.63 556.334L763.002 556L763.374 555.665ZM764.688 557.873L765.06 557.539V557.539L764.688 557.873ZM771.689 561.322L771.642 561.82V561.82L771.689 561.322ZM819.502 568L819.422 568.493L819.502 568ZM949.002 597L949.131 596.517L949.002 597ZM998.365 610.981C998.63 611.057 998.907 610.903 998.983 610.637C999.059 610.372 998.905 610.095 998.64 610.019L998.502 610.5L998.365 610.981ZM743.1 463.838C743.128 463.563 742.928 463.318 742.653 463.29C742.378 463.263 742.133 463.463 742.105 463.738L742.603 463.788L743.1 463.838ZM751.461 463.74C751.489 463.465 751.289 463.22 751.014 463.193C750.739 463.165 750.494 463.365 750.466 463.64L750.964 463.69L751.461 463.74ZM760.122 465.144C760.15 464.869 759.949 464.624 759.674 464.596C759.4 464.569 759.155 464.769 759.127 465.044L759.625 465.094L760.122 465.144ZM755.958 464.305C755.986 464.03 755.786 463.785 755.511 463.757C755.236 463.73 754.991 463.93 754.963 464.205L755.461 464.255L755.958 464.305ZM747.332 463.643C747.359 463.368 747.159 463.123 746.884 463.095C746.609 463.068 746.364 463.268 746.337 463.543L746.834 463.593L747.332 463.643ZM740.679 471.883C740.651 472.158 740.852 472.403 741.126 472.431C741.401 472.458 741.646 472.258 741.674 471.983L741.176 471.933L740.679 471.883ZM759.606 473.335C759.579 473.61 759.779 473.855 760.054 473.883C760.329 473.91 760.574 473.71 760.601 473.435L760.104 473.385L759.606 473.335ZM769.069 547.394L769.569 547.385V547.385L769.069 547.394ZM737.5 547.971L737 547.98V547.98L737.5 547.971ZM763.502 546.999L763.949 547.223L763.986 547.15L763.997 547.07L763.502 546.999ZM743.002 547.394L742.518 547.518L742.531 547.57L742.555 547.618L743.002 547.394ZM382.468 316.001C382.192 316.02 381.984 316.259 382.003 316.534C382.022 316.81 382.261 317.018 382.537 316.999L382.502 316.5L382.468 316.001ZM397.037 315.999C397.312 315.98 397.52 315.741 397.501 315.466C397.482 315.19 397.243 314.982 396.968 315.001L397.002 315.5L397.037 315.999ZM379.649 324.646C379.453 324.842 379.453 325.158 379.649 325.354C379.844 325.549 380.16 325.549 380.356 325.354L380.002 325L379.649 324.646ZM382.502 322.5L382.467 322.001L382.28 322.015L382.149 322.146L382.502 322.5ZM392.502 321.786L392.467 321.287V321.287L392.502 321.786ZM403.538 321.499C403.813 321.479 404.021 321.24 404.001 320.964C403.981 320.689 403.742 320.482 403.467 320.501L403.502 321L403.538 321.499ZM403.215 329.909C403.441 330.068 403.753 330.013 403.911 329.787C404.07 329.561 404.015 329.249 403.789 329.091L403.502 329.5L403.215 329.909ZM711.256 526.069C711.018 525.929 710.711 526.008 710.571 526.246C710.431 526.484 710.511 526.791 710.749 526.931L711.002 526.5L711.256 526.069ZM715.436 529.108L715.183 529.539V529.539L715.436 529.108ZM723.767 529.424C724.001 529.278 724.072 528.969 723.926 528.735C723.78 528.501 723.471 528.43 723.237 528.576L723.502 529L723.767 529.424ZM337.83 371.28L338.08 371.713L337.83 371.28ZM347.361 381.462L347.794 381.212L347.361 381.462ZM351.414 394.807L351.164 394.374V394.374L351.414 394.807ZM763.002 556L762.63 556.334L764.317 558.208L764.688 557.873L765.06 557.539L763.374 555.665L763.002 556ZM771.689 561.322L771.642 561.82C778.924 562.514 794.197 564.394 819.422 568.493L819.502 568L819.582 567.506C794.345 563.405 779.049 561.521 771.736 560.825L771.689 561.322ZM819.502 568L819.422 568.493C859.398 574.99 913.379 587.985 948.873 597.483L949.002 597L949.131 596.517C913.625 587.015 859.607 574.01 819.582 567.506L819.502 568ZM949.002 597L948.873 597.483C977.272 605.083 993.702 609.649 998.365 610.981L998.502 610.5L998.64 610.019C993.969 608.685 977.532 604.117 949.131 596.517L949.002 597ZM764.688 557.873L764.317 558.208C766.206 560.307 768.848 561.554 771.642 561.82L771.689 561.322L771.736 560.825C769.174 560.581 766.77 559.439 765.06 557.539L764.688 557.873ZM736.764 523.767L736.326 523.527C735.518 525.003 733.702 525.544 732.277 524.764L732.037 525.203L731.797 525.641C733.723 526.695 736.14 525.95 737.203 524.007L736.764 523.767ZM732.037 525.203L732.277 524.764C730.851 523.984 730.327 522.163 731.134 520.687L730.696 520.447L730.257 520.207C729.194 522.151 729.87 524.588 731.797 525.641L732.037 525.203ZM730.696 520.447L731.134 520.687C731.942 519.211 733.758 518.67 735.183 519.45L735.423 519.011L735.663 518.573C733.737 517.519 731.32 518.264 730.257 520.207L730.696 520.447ZM735.423 519.011L735.183 519.45C736.609 520.23 737.133 522.051 736.326 523.527L736.764 523.767L737.203 524.007C738.266 522.063 737.59 519.626 735.663 518.573L735.423 519.011ZM742.603 463.788L742.105 463.738L741.896 465.829L742.393 465.878L742.891 465.928L743.1 463.838L742.603 463.788ZM750.964 463.69L750.466 463.64L750.257 465.731L750.754 465.781L751.252 465.83L751.461 463.74L750.964 463.69ZM759.625 465.094L759.127 465.044L758.917 467.134L759.415 467.184L759.912 467.234L760.122 465.144L759.625 465.094ZM755.461 464.255L754.963 464.205L754.754 466.295L755.251 466.345L755.749 466.395L755.958 464.305L755.461 464.255ZM746.834 463.593L746.337 463.543L746.127 465.633L746.625 465.683L747.122 465.733L747.332 463.643L746.834 463.593ZM741.176 471.933L741.674 471.983C741.657 472.147 741.557 472.23 741.537 472.246C741.514 472.263 741.511 472.259 741.554 472.243C741.638 472.213 741.789 472.178 742.022 472.146C742.482 472.083 743.16 472.042 744.018 472.029C745.726 472.003 748.086 472.086 750.689 472.286L750.727 471.788L750.766 471.289C748.142 471.088 745.75 471.003 744.002 471.029C743.131 471.043 742.405 471.084 741.886 471.156C741.63 471.191 741.398 471.237 741.218 471.301C741.13 471.333 741.025 471.379 740.931 471.45C740.841 471.519 740.701 471.659 740.679 471.883L741.176 471.933ZM750.727 471.788L750.689 472.286C753.292 472.486 755.632 472.763 757.31 473.049C758.151 473.193 758.811 473.336 759.25 473.468C759.473 473.535 759.614 473.592 759.688 473.633C759.726 473.654 759.719 473.656 759.697 473.632C759.675 473.608 759.589 473.503 759.606 473.335L760.104 473.385L760.601 473.435C760.624 473.207 760.512 473.04 760.431 472.953C760.35 472.865 760.252 472.802 760.171 472.757C760.004 472.665 759.783 472.584 759.538 472.51C759.04 472.36 758.333 472.209 757.478 472.063C755.761 471.771 753.389 471.49 750.766 471.289L750.727 471.788ZM769.069 547.394L768.569 547.403C768.567 547.261 768.669 547.264 768.485 547.384C768.331 547.483 768.072 547.599 767.691 547.721C766.935 547.963 765.815 548.196 764.4 548.402C761.577 548.814 757.657 549.109 753.312 549.189L753.321 549.689L753.33 550.189C757.703 550.109 761.668 549.811 764.544 549.392C765.979 549.183 767.162 548.941 767.996 548.674C768.409 548.541 768.765 548.393 769.028 548.224C769.259 548.074 769.577 547.803 769.569 547.385L769.069 547.394ZM753.321 549.689L753.312 549.189C748.967 549.268 745.039 549.116 742.203 548.808C740.781 548.654 739.653 548.462 738.889 548.248C738.504 548.139 738.241 548.033 738.084 547.94C737.895 547.827 737.997 547.82 737.999 547.962L737.5 547.971L737 547.98C737.007 548.399 737.335 548.658 737.572 548.799C737.84 548.959 738.202 549.093 738.619 549.21C739.462 549.447 740.653 549.646 742.095 549.802C744.985 550.116 748.957 550.269 753.33 550.189L753.321 549.689ZM763.619 545.979L763.573 546.477L763.602 546.48L763.648 545.982L763.694 545.484L763.665 545.481L763.619 545.979ZM763.648 545.982L763.601 546.48C765.248 546.632 766.571 546.832 767.473 547.062C767.929 547.178 768.248 547.294 768.444 547.401C768.542 547.454 768.585 547.493 768.598 547.507C768.608 547.519 768.571 547.482 768.569 547.403L769.069 547.394L769.569 547.385C769.565 547.155 769.46 546.97 769.341 546.838C769.224 546.709 769.075 546.607 768.923 546.523C768.619 546.357 768.205 546.216 767.72 546.093C766.743 545.844 765.36 545.638 763.694 545.484L763.648 545.982ZM737.5 547.971L737.999 547.962C738.002 548.109 737.893 548.097 738.111 547.964C738.289 547.855 738.584 547.731 739.011 547.602C739.856 547.346 741.103 547.103 742.666 546.892L742.599 546.397L742.532 545.901C740.95 546.115 739.642 546.366 738.721 546.645C738.265 546.783 737.874 546.936 737.589 547.111C737.343 547.261 736.992 547.539 737 547.98L737.5 547.971ZM764.002 543.5L763.507 543.429L763.153 545.911L763.648 545.982L764.143 546.052L764.497 543.571L764.002 543.5ZM763.648 545.982L763.153 545.911L763.007 546.928L763.502 546.999L763.997 547.07L764.143 546.052L763.648 545.982ZM763.502 546.999L763.055 546.775C763.105 546.676 763.173 546.645 763.149 546.659C763.138 546.665 763.104 546.682 763.035 546.705C762.899 546.751 762.692 546.801 762.41 546.852C761.851 546.952 761.064 547.044 760.116 547.125C758.225 547.285 755.736 547.397 753.243 547.446C750.749 547.495 748.261 547.482 746.369 547.395C745.422 547.351 744.635 547.289 744.077 547.21C743.795 547.169 743.589 547.127 743.455 547.086C743.387 547.066 743.355 547.051 743.346 547.046C743.325 547.034 743.397 547.066 743.449 547.17L743.002 547.394L742.555 547.618C742.639 547.784 742.78 547.875 742.862 547.921C742.956 547.973 743.062 548.012 743.164 548.043C743.371 548.106 743.635 548.157 743.936 548.2C744.541 548.286 745.365 548.349 746.323 548.394C748.244 548.482 750.756 548.495 753.262 548.446C755.769 548.396 758.28 548.284 760.201 548.121C761.159 548.04 761.982 547.945 762.587 547.836C762.887 547.782 763.15 547.722 763.355 547.653C763.457 547.619 763.561 547.577 763.652 547.523C763.732 547.477 763.868 547.385 763.949 547.223L763.502 546.999ZM743.002 547.394L743.487 547.269L742.486 543.375L742.002 543.499L741.518 543.624L742.518 547.518L743.002 547.394ZM457.502 372.5L457.235 372.923L695.235 523.423L695.502 523L695.769 522.577L457.769 372.077L457.502 372.5ZM703.374 514.598L703.133 515.036L724.761 526.939L725.002 526.501L725.243 526.063L703.615 514.16L703.374 514.598ZM460.002 357.779L459.722 358.193L466.639 362.862L466.919 362.448L467.199 362.033L460.282 357.364L460.002 357.779ZM407.657 322.446L407.378 322.861L439.311 344.415L439.59 344.001L439.87 343.586L407.937 322.032L407.657 322.446ZM382.502 316.5L382.537 316.999L397.037 315.999L397.002 315.5L396.968 315.001L382.468 316.001L382.502 316.5ZM380.002 325L380.356 325.354L382.856 322.854L382.502 322.5L382.149 322.146L379.649 324.646L380.002 325ZM382.502 322.5L382.538 322.999L392.538 322.284L392.502 321.786L392.467 321.287L382.467 322.001L382.502 322.5ZM392.502 321.786L392.538 322.284L403.538 321.499L403.502 321L403.467 320.501L392.467 321.287L392.502 321.786ZM403.502 329.5L403.789 329.091L392.789 321.376L392.502 321.786L392.215 322.195L403.215 329.909L403.502 329.5ZM711.002 526.5L710.749 526.931L715.183 529.539L715.436 529.108L715.69 528.677L711.256 526.069L711.002 526.5ZM715.436 529.108L715.183 529.539C717.842 531.104 721.151 531.059 723.767 529.424L723.502 529L723.237 528.576C720.937 530.014 718.028 530.053 715.69 528.677L715.436 529.108ZM337.83 371.28L338.08 371.713C338.135 371.682 338.235 371.653 338.422 371.691C338.614 371.729 338.864 371.831 339.171 372.017C339.786 372.389 340.543 373.043 341.391 373.949C343.083 375.757 345.066 378.487 346.928 381.712L347.361 381.462L347.794 381.212C345.905 377.941 343.879 375.144 342.121 373.266C341.245 372.33 340.417 371.602 339.689 371.161C339.325 370.941 338.964 370.779 338.618 370.71C338.268 370.64 337.904 370.66 337.58 370.847L337.83 371.28ZM347.361 381.462L346.928 381.712C348.79 384.938 350.164 388.02 350.883 390.389C351.244 391.577 351.432 392.559 351.446 393.278C351.454 393.637 351.417 393.904 351.354 394.09C351.293 394.271 351.218 394.343 351.164 394.374L351.414 394.807L351.664 395.241C351.987 395.054 352.187 394.748 352.301 394.41C352.414 394.076 352.455 393.682 352.446 393.257C352.429 392.407 352.212 391.325 351.84 390.099C351.092 387.637 349.683 384.484 347.794 381.212L347.361 381.462ZM351.414 394.807L351.164 394.374C351.077 394.424 350.864 394.464 350.419 394.257C349.991 394.058 349.457 393.679 348.839 393.117L348.502 393.487L348.166 393.857C348.817 394.449 349.438 394.904 349.998 395.164C350.54 395.416 351.148 395.538 351.664 395.241L351.414 394.807ZM337.428 374.006L337.92 373.918C337.796 373.227 337.769 372.683 337.823 372.294C337.879 371.895 338.003 371.758 338.08 371.713L337.83 371.28L337.58 370.847C337.112 371.118 336.906 371.629 336.833 372.156C336.758 372.694 336.803 373.355 336.935 374.094L337.428 374.006Z" fill="url(#paint1_linear_6162_137550)"/>
<path opacity="0.6" d="M218 513.001H195.5C193.291 513.001 191.5 511.21 191.5 509.001V471.501C191.5 469.292 193.291 467.501 195.5 467.501H218M222.5 539.501L220.71 538.606C219.343 537.922 218.444 536.548 218.354 535.022C218.156 531.658 215.369 529.001 212 529.001M238.195 467.764C236.887 468.519 235.194 468.035 234.414 466.683C233.633 465.331 234.06 463.623 235.368 462.868C236.676 462.113 238.369 462.597 239.15 463.949C239.93 465.301 239.503 467.009 238.195 467.764ZM238.195 504.764C236.887 505.519 235.194 505.035 234.414 503.683C233.633 502.331 234.06 500.623 235.368 499.868C236.676 499.113 238.369 499.597 239.15 500.949C239.93 502.301 239.503 504.009 238.195 504.764ZM263.195 519.764C261.887 520.519 260.194 520.035 259.413 518.683C258.633 517.331 259.06 515.623 260.368 514.868C261.676 514.113 263.369 514.597 264.15 515.949C264.93 517.301 264.503 519.009 263.195 519.764ZM257.512 469.735C256.628 470.246 255.483 469.919 254.955 469.005C254.428 468.09 254.717 466.936 255.601 466.425C256.485 465.915 257.63 466.242 258.157 467.156C258.685 468.07 258.396 469.225 257.512 469.735Z" stroke="white" stroke-linecap="round"/>
<path d="M361.5 291V257C355.089 256.183 354.623 256.832 348.5 258.5C348.833 271.167 349.5 336.5 349.5 342.5C349.5 350 349 352 347 357.5C345.337 362.073 340.833 365.5 339 367L346.5 375L362.5 366C361.667 365 359.4 362.2 357 359C354 355.001 355 351.001 356 347.001L356 347C356.8 343.8 361.667 339 364 337C363.5 326.834 362 305.4 360 301C358 296.6 360.167 292.5 361.5 291Z" fill="#D9D9D9" fill-opacity="0.1"/>
<path d="M257.162 426.713L347.5 382L343 375.5L262.103 415.504C257.451 417.805 252 414.42 252 409.229V402.396C252 402.142 251.905 401.894 251.723 401.717C251.015 401.033 250.401 400.73 249.539 400.593C248.977 400.504 248.5 400.974 248.5 401.543L248.5 421.336C248.5 425.785 253.174 428.687 257.162 426.713Z" fill="#D9D9D9" fill-opacity="0.1"/>
<path d="M220.992 398.5L231.992 395.5V451.5H220.992V398.5Z" fill="#D9D9D9" fill-opacity="0.1"/>
<path d="M407.5 368L356 393L353.5 387L406 360L407.5 368Z" fill="#D9D9D9" fill-opacity="0.1"/>
<path d="M746.5 490.001C746.1 488.001 741.667 483.167 739.5 481.001C633.667 408.5 421.8 263.4 421 263C420 262.5 418.5 260.5 416.5 260.5C414.5 260.5 407.5 259.5 404.5 259C401.5 258.5 398.5 258.5 397 259.5C395.5 260.5 394 262 391.5 265.5C389 269 388.5 273.5 388.5 278C388.5 281.6 393.5 287.167 396 289.5L448.5 324.001C452.333 322.167 461.4 320.001 467 326.001C472.6 332.001 473 338.167 472.5 340.501C497.5 357.501 552.9 395.501 574.5 411.501C601.5 431.501 669.5 487.501 676 493.501C682.5 499.501 693.5 510.501 703 514.501C712.5 518.501 728 513.001 730.5 512.001C733 511.001 742 502.501 745 500.001C748 497.501 747 492.501 746.5 490.001Z" fill="#D9D9D9" fill-opacity="0.1"/>
<path fill-rule="evenodd" clip-rule="evenodd" d="M750.984 596.501V603.501H741.984V595.501L750.984 596.501ZM750.984 573.502H741.984V553.502H750.984V573.502Z" fill="#D9D9D9" fill-opacity="0.1"/>
<path d="M163.508 601.5C161.271 601.744 173.881 613.958 185.008 620.5C198.917 628.678 215.569 620.478 221.548 618.159C227.526 615.84 251.196 606.076 256.808 605.344C261.298 604.758 275.76 593.87 282.429 588.5M290.726 611.202C290.807 613.277 290.116 618.355 286.7 622.065C282.429 626.703 282.795 629.266 265.348 628.29C247.901 627.313 238.873 629.51 230.21 632.562C223.28 635.003 202.921 638.217 193.608 639.519M165.508 659.292C165.671 656.484 177.688 656.524 185.008 657.5C194.159 658.721 199.952 661.245 211.787 659.292C223.622 657.339 235.945 649.405 243.265 648.063C249.121 646.989 267.667 647.615 276.207 648.063M301.219 648.063C300.446 649.609 298.632 653.165 297.558 655.02C296.216 657.339 283.161 659.292 269.985 659.292C256.808 659.292 226.428 672.84 221.548 675.769C216.667 678.698 186.41 682.848 180.797 680.285M167.986 689.795C168.027 689.267 168.816 687.867 171.647 686.5C175.185 684.791 179.211 686.632 190.07 691.88C200.928 697.129 228.502 699.692 238.385 695.786C248.267 691.88 269.985 688.585 276.207 688.585M290.726 530C290.726 532 276.508 547.5 268.508 553.5C260.508 559.5 236.229 556.5 224.008 559C214.231 561 197.309 573.167 190.07 579M171.647 440C171.647 445 174.218 455 177.508 462C180.797 469 182.408 479 188.008 484.5C193.608 490 212.885 494 221.548 494.5C230.21 495 239.022 498 243.265 499C246.659 499.8 255.174 503.333 259.008 505M162.008 550C165.508 553.5 178.007 556 181.508 557.5C185.008 559 190.708 559.5 193.608 557.5M190.07 411.5C190.07 416.5 190.408 418 192.008 423.5C193.608 429 195.008 428 196.508 434C198.008 440 198.008 439 200.008 442C202.008 445 211.008 449.5 213.508 451C215.508 452.2 225.476 454.5 230.21 455.5L238.385 458.5M301.219 458.5C295.008 458.5 282.508 458.5 280.508 458.5C278.908 458.5 271.841 453.5 268.508 451C262.841 450 251.208 447.4 250.008 445C248.808 442.6 245.013 438.667 243.265 437M321.008 437C315.777 436.667 303.454 435.6 296.008 434C286.7 432 278.031 426 274.008 423.5C269.985 421 261.508 417.5 257.508 413C254.308 409.4 250.174 405.833 248.508 404.5" stroke="white" stroke-width="0.755408"/>
<path d="M363 415.999L358.372 419.915C357.13 420.966 355.747 421.837 354.262 422.503L323.946 436.107C319.93 437.908 317.112 441.635 316.472 445.989C315.608 451.865 310.839 456.389 304.926 456.943L304.169 457.014C294.201 457.949 288.485 468.822 293.366 477.563L300.557 490.442C303.215 495.201 303.485 500.932 301.287 505.919L290.502 530.389L301.605 577.99L287.795 616.453C286.963 618.769 287.927 621.346 290.073 622.549L296.264 626.017C299.031 627.567 299.693 631.257 297.639 633.673L296.689 634.79C294.654 637.183 295.282 640.834 297.999 642.409L298.667 642.797C301.659 644.533 302.051 648.699 299.435 650.962L298.167 652.059C295.539 654.332 295.948 658.521 298.966 660.242L302.445 662.227C305.578 664.013 305.872 668.416 303.006 670.604L295.768 676.13C293.121 678.151 293.13 682.139 295.785 684.148L298.746 686.389C304.861 691.018 307.426 699.284 303.152 705.651C298.912 711.967 293.041 717.54 286.354 716.645C272.689 714.814 272.323 727.019 240.113 728.362C207.903 729.704 174.911 723.724 169.69 716.645C165.995 711.634 161.632 701.924 159.295 696.201C158.823 695.046 159.294 693.729 160.379 693.111L169.433 687.956C171.717 686.656 172.008 683.479 169.999 681.786L157.137 670.944C155.129 669.251 155.419 666.077 157.7 664.775L166.674 659.656C169.075 658.286 169.24 654.886 166.982 653.291L161.732 649.58C159.543 648.033 159.618 644.761 161.875 643.315L171.073 637.426C173.234 636.043 173.416 632.954 171.434 631.326L166.375 627.172C164.396 625.546 164.574 622.464 166.727 621.077L171.716 617.865C173.673 616.605 174.036 613.892 172.479 612.162L163.353 602.027C162.049 600.579 162.061 598.376 163.38 596.942L171.194 588.45C176.81 582.346 177.41 573.151 172.635 566.368L161.053 549.918V479.914C161.053 479.333 161.087 478.754 161.155 478.18C161.467 475.565 161.544 472.825 160.37 470.467C158.435 466.581 159.129 461.901 162.109 458.745L168.508 451.965C171.901 448.371 172.727 443.058 170.587 438.604L169.582 436.511C166.241 429.557 171.309 421.499 179.024 421.499C184.81 421.499 189.5 416.809 189.5 411.023V392.655C189.5 386.381 192.883 380.594 198.35 377.516L240.113 353.999M363 415.999C345.852 418.666 301.522 420.799 274.5 395.999C247.478 371.199 229.5 370.499 240.113 353.999M363 415.999C365.167 415.332 369.4 413.099 369 409.499C368.5 404.999 344 405.5 338 399M240.113 353.999C243.909 351.332 254.5 346.799 266.5 349.999C278.5 353.199 284.167 355.666 285.5 356.499C297.5 363.299 311.833 376.666 317.5 382.499" stroke="white" stroke-width="1.51082"/>
<path fill-rule="evenodd" clip-rule="evenodd" d="M171.809 683.911C173.151 684.888 176.836 687.207 180.837 688.672C185.84 690.503 185.596 693.066 188.89 695.629C192.185 698.192 212.682 700.877 223.296 701.487C233.824 702.092 251.313 696.695 262.788 693.153L263.071 693.065C272.246 690.234 285.683 691.886 291.254 693.065C286.984 694.286 274.905 693.066 268.195 698.314C261.485 703.563 256.116 708.322 240.133 708.322C224.15 708.322 203.043 702.342 190.476 707.468C180.423 711.569 166.847 703.075 161.316 698.314C160.706 697.216 159.682 694.628 160.462 693.065C161.438 691.113 164.123 690.136 167.539 688.672C170.955 687.207 171.809 684.888 171.809 683.911ZM299.916 647.051C302.454 646.855 301.951 648.109 301.381 648.76C301.015 649.207 300.137 650.298 299.551 651.079C298.819 652.056 298.331 652.787 296.745 653.886C295.159 654.984 297.476 657.182 298.331 658.28L295.281 657.182H281.372C275.637 657.182 269.903 658.28 260.142 660.721C250.382 663.162 245.257 666.214 237.327 670.729C229.396 675.245 227.444 674.269 222.32 676.588C218.22 678.443 213.21 677.361 211.217 676.588C217.236 674.716 230.884 670.12 237.327 666.702C245.379 662.43 245.38 659.135 247.454 657.182C249.528 655.229 267.951 651.933 283.446 649.248C298.94 646.563 296.745 647.295 299.916 647.051ZM254.896 646.318C262.704 644.366 272.303 644.772 276.125 645.22C271.652 645.911 262.388 647.393 261.119 647.783C259.532 648.272 244.769 655.229 239.889 660.111C235.009 664.993 223.906 664.016 218.415 662.43C212.925 660.843 199.87 662.186 188.89 662.43C177.91 662.674 174.005 665.847 166.685 669.265C160.829 671.999 157.168 668.696 156.07 666.702C155.948 666.173 155.899 665.018 156.68 664.627C157.656 664.139 164.488 660.722 165.953 660.111C167.124 659.623 168.474 657.955 169.002 657.182C167.864 657.304 166.661 657.352 170.955 656.571C176.323 655.595 191.574 656.571 203.165 657.182C214.755 657.792 225.614 657.182 229.031 656.571C232.447 655.961 245.136 648.759 254.896 646.318ZM288.205 617.758C290.279 622.884 294.914 623.739 296.745 625.325C298.575 626.912 299.795 627.279 299.551 628.865C299.307 630.452 299.185 633.259 298.331 634.113C297.477 634.968 298.33 638.141 283.812 635.09C269.293 632.038 258.312 630.696 250.381 632.893C242.451 635.09 224.638 642.535 211.217 641.437C197.797 640.338 194.502 645.464 189.622 647.295C184.741 649.125 171.686 646.44 169.002 646.44C166.318 646.44 158.999 647.05 160.706 645.22C162.415 643.389 170.71 638.264 171.809 636.677C172.907 635.09 163.269 632.649 174.493 634.235C185.717 635.822 193.648 633.137 202.067 631.794C210.485 630.451 228.665 631.55 238.181 628.133C247.698 624.715 250.504 621.419 261.485 623.006C272.465 624.593 279.541 624.959 281.372 623.738C282.836 622.762 286.537 619.345 288.205 617.758ZM282.104 543.671C286.862 536.592 291.498 534.273 292.718 536.958C293.694 539.107 298.575 559.822 300.893 569.912C301.625 571.458 302.869 575.112 301.991 577.357C300.893 580.165 285.276 581.385 279.541 586.39C273.807 591.394 262.338 602.745 254.408 605.431C246.477 608.116 226.59 612.265 215.61 615.438C204.629 618.612 183.889 618.49 181.448 617.758C179.008 617.026 176.811 617.392 174.005 613.73C171.199 610.069 170.344 609.824 169.002 607.261C167.661 604.697 168.272 595.666 181.448 599.815C194.624 603.965 211.339 603.6 221.1 597.497C230.86 591.394 249.283 583.095 251.236 581.63C253.188 580.165 251.113 571.011 254.408 562.711C257.702 554.411 277.346 550.75 282.104 543.671ZM172.501 446.5C175.668 456.167 182.701 476.6 185.501 481C189.002 486.5 199.502 490 209.001 492C218.501 494 236.001 498 242.501 499.5C249.001 501 254.501 501 257.001 503.5C259.502 506 268.501 514 270.501 516C272.502 518 289.501 526 270.501 525C251.501 524 243.501 516 224.001 516C204.501 516 201.001 516 199.501 520.5C198.001 524.999 185.501 498 183.501 511.5C181.501 525 181.501 531 183.501 533.5C185.502 536 198.501 545.5 185.501 543C172.502 540.5 170.001 544.5 166.001 533.5C162.001 522.5 161.002 507.5 162.001 503.5C163.001 499.5 162.002 486.5 164.001 481C166.001 475.5 162.002 473 162.001 467C162.001 461 163.501 459.5 166.001 455.5C168.001 452.3 171.168 448.167 172.501 446.5ZM234.501 371.5C233.668 372.833 231.501 376.5 229.501 380.5C227.002 385.5 229.501 384.5 234.501 396C239.501 407.5 229.501 403.5 227.501 403.5C225.501 403.5 219.501 393 216.501 393.5C213.501 394 212.001 396.5 208.001 403.5C204.002 410.5 212.001 422.5 212.001 431C212.002 439.5 223.502 441.5 243.501 447.5C263.501 453.5 262.501 458.5 272.001 467.5C281.501 476.5 280.501 479.5 282.001 485.5C283.201 490.3 275.835 487.5 272.001 485.5C267.002 480.667 256.602 470.3 255.001 467.5C253.001 464 242.502 459.5 240.001 458.5C237.501 457.5 222.501 453 212.001 450C201.502 447 201.001 444 198.001 438.5C195.601 434.1 190.668 418 188.501 410.5C189.001 404.5 190.201 390.9 191.001 384.5C192.001 376.5 203.001 375 205.001 373.5C206.601 372.3 222.001 364 229.501 360L234.501 371.5ZM251.501 399C255.002 401 275.001 413.5 282.001 417.5C289.001 421.5 301.001 426 303.001 427C304.602 427.8 316.335 427.333 322.001 427L332.501 431C331.001 432.167 327.401 434.9 325.001 436.5C322.001 438.5 304.001 435 299.501 434C295.001 433 285.501 434.5 274.501 427C263.502 419.5 258.501 414.5 255.001 412.5C251.501 410.5 253.501 406 248.501 403.5C244.501 401.5 248.835 399.667 251.501 399Z" fill="#D9D9D9" fill-opacity="0.1"/>
<path d="M567.712 227.576C568.636 230.178 567.275 233.037 564.673 233.961L522.265 249.015C519.663 249.939 516.805 248.578 515.881 245.976C514.957 243.373 516.318 240.515 518.92 239.591L556.615 226.209L543.234 188.514C542.31 185.912 543.671 183.053 546.273 182.13C548.875 181.206 551.734 182.566 552.658 185.169L567.712 227.576ZM198 315H193V213.854H198H203V315H198ZM340.981 123.562L343.13 119.048L565.149 224.734L563 229.249L560.851 233.763L338.832 128.077L340.981 123.562ZM198 213.854H193C193 136.685 273.453 85.8797 343.13 119.048L340.981 123.562L338.832 128.077C275.791 98.0678 203 144.035 203 213.854H198Z" fill="#4FE2CE"/>
<path d="M694.508 352.5L600.008 533" stroke="#4FE2CE" stroke-width="2" stroke-dasharray="8 8"/>
</g>
<path d="M42.5 1H842.5C850.703 1 856.785 1.0011 861.57 1.45605C866.34 1.90961 869.718 2.80764 872.54 4.53711C875.769 6.51599 878.484 9.23084 880.463 12.46C882.192 15.2822 883.09 18.6599 883.544 23.4297C883.999 28.2146 884 34.2971 884 42.5V832.5C884 840.703 883.999 846.785 883.544 851.57C883.09 856.34 882.192 859.718 880.463 862.54C878.484 865.769 875.769 868.484 872.54 870.463C869.718 872.192 866.34 873.09 861.57 873.544C856.785 873.999 850.703 874 842.5 874H42.5C34.2971 874 28.2146 873.999 23.4297 873.544C18.6599 873.09 15.2822 872.192 12.46 870.463C9.23084 868.484 6.51599 865.769 4.53711 862.54C2.80764 859.718 1.90961 856.34 1.45605 851.57C1.0011 846.785 1 840.703 1 832.5V42.5C1 34.2971 1.0011 28.2146 1.45605 23.4297C1.90961 18.6599 2.80763 15.2822 4.53711 12.46C6.51598 9.23083 9.23083 6.51598 12.46 4.53711C15.2822 2.80763 18.6599 1.90961 23.4297 1.45605C28.2146 1.0011 34.2971 1 42.5 1Z" stroke="white" stroke-opacity="0.15" stroke-width="2"/>
<defs>
<linearGradient id="paint0_linear_6162_137550" x1="623.5" y1="446.5" x2="928" y2="612" gradientUnits="userSpaceOnUse">
<stop stop-color="white"/>
<stop offset="1" stop-color="#999999" stop-opacity="0"/>
</linearGradient>
<linearGradient id="paint1_linear_6162_137550" x1="493.502" y1="375.5" x2="850.502" y2="632.5" gradientUnits="userSpaceOnUse">
<stop stop-color="white"/>
<stop offset="1" stop-color="#999999" stop-opacity="0"/>
</linearGradient>
<clipPath id="clip0_6162_137550">
<path d="M0 42.5C0 26.1328 0 17.9493 3.684 11.9375C5.74539 8.57365 8.57365 5.74539 11.9375 3.684C17.9493 0 26.1328 0 42.5 0H842.5C858.867 0 867.051 0 873.062 3.684C876.426 5.74539 879.255 8.57365 881.316 11.9375C885 17.9493 885 26.1328 885 42.5V832.5C885 848.867 885 857.051 881.316 863.062C879.255 866.426 876.426 869.255 873.062 871.316C867.051 875 858.867 875 842.5 875H42.5C26.1329 875 17.9493 875 11.9375 871.316C8.57365 869.255 5.74539 866.426 3.684 863.062C0 857.051 0 848.867 0 832.5V42.5Z" fill="white"/>
</clipPath>
</defs>
</svg>
