<svg width="566" height="457" viewBox="0 0 566 457" fill="none" xmlns="http://www.w3.org/2000/svg">
<path d="M474.036 49.3C481.744 63.4424 480.459 78.8704 483.028 94.2984C484.313 85.2987 495.874 86.5801 504.866 90.4371C513.858 94.2941 516.427 118.722 518.996 149.578C521.051 174.263 520.203 212.352 518.996 227.852C517.788 243.352 529.777 248.614 526.703 273.001C526.06 278.103 526.703 310.285 522.849 333.427C518.996 356.569 503.581 397.711 499.727 406.71C496.644 413.91 498.443 443.138 499.727 456.852L375.125 447.859C375.982 437.145 377.181 414.688 375.125 410.574C372.556 405.432 373.841 399.003 375.125 396.432C371.272 391.289 346.865 368.147 341.727 351.434C336.589 334.72 328.881 325.72 326.312 319.292C323.743 312.863 318.605 292.293 322.458 270.436C326.312 248.58 322.458 243.437 319.889 237.009C317.32 230.581 317.32 215.153 316.036 207.439C314.751 199.725 308.328 190.725 307.044 185.582C305.759 180.44 307.044 162.44 330.166 172.726C353.288 183.011 353.703 190.352 356.703 193.852C357.988 188.709 364.849 148.291 364.849 135.434C364.849 122.578 368.702 108.435 371.272 90.436C373.841 72.4366 381.548 45.4376 402.101 49.2946C404.045 49.6595 405.645 50.289 406.949 51.1407C406.522 48.5546 408.807 39.0752 411.093 29.9062C412.477 24.351 420.085 14.9367 430.361 17.1948C441.913 19.7332 445.427 36.7955 447.203 40.3516C451.057 30.0662 466.329 35.1576 474.036 49.3Z" fill="url(#paint0_linear_5512_107433)" fill-opacity="0.1"/>
<path d="M459.906 185.581C466.757 187.724 481.23 193.295 484.313 198.438C486.882 176.581 486.882 171.439 486.882 156.01C486.882 140.582 485.597 109.726 483.028 94.2984C480.459 78.8704 481.744 63.4424 474.036 49.3C466.329 35.1576 449.63 31.3006 445.776 41.586M416.231 179.044C423.51 179.472 439.353 180.587 444.491 181.615C444.491 171.33 449.629 153.33 449.629 144.331C449.629 135.331 448.345 126.331 448.345 117.332C448.345 108.332 449.629 83.9043 448.345 76.1903C447.06 68.4763 448.345 41.4773 444.491 33.7632C442.715 30.2072 441.913 19.7332 430.361 17.1948C420.085 14.9367 412.477 24.351 411.093 29.9062C408.807 39.0752 406.522 48.5546 406.949 51.1407M406.949 51.1407C407.002 51.4615 407.097 51.6762 407.239 51.7711M406.949 51.1407C419.435 59.2921 404.913 87.7953 407.239 99.4357C409.808 112.292 407.239 140.577 407.239 148.291C407.239 156.005 407.239 174.004 404.67 181.615C402.615 187.704 384.974 191.078 376.41 192.004M406.949 51.1407C405.645 50.289 404.045 49.6595 402.101 49.2946C381.548 45.4376 373.841 72.4366 371.272 90.436C368.702 108.435 364.849 122.578 364.849 135.434C364.849 148.291 358.426 186.861 357.141 192.004M499.727 456.852C498.443 443.138 496.644 413.91 499.727 406.71C503.581 397.711 518.996 356.569 522.849 333.427C526.703 310.285 526.703 278.144 526.703 273.001V247.288C526.703 238.288 517.711 220.289 494.589 206.146M518.996 228.004C519.852 212.147 521.051 174.263 518.996 149.578C516.427 118.722 513.858 94.2941 504.866 90.4371C495.874 86.5801 485.597 87.8657 484.313 96.8654M411.093 201.004C419.228 216.003 438.839 247.545 452.199 253.716C468.898 261.43 508.719 261.43 515.142 267.858C521.565 274.287 526.703 273.001 526.703 278.144M375.125 447.859C375.982 437.145 377.181 414.688 375.125 410.574C372.556 405.432 373.841 399.003 375.125 396.432C371.272 391.289 346.865 368.147 341.727 351.434C336.589 334.72 328.881 325.72 326.312 319.292C323.743 312.863 318.605 292.293 322.458 270.436C326.312 248.58 322.458 243.437 319.889 237.009C317.32 230.581 317.32 215.153 316.036 207.439C314.751 199.725 308.328 190.725 307.044 185.582C305.759 180.44 307.044 162.44 330.166 172.726C353.288 183.011 362.28 202.303 363.564 207.439C364.849 212.575 363.564 217.717 359.711 217.717M348.15 314.142C355.001 302.571 369.216 276.344 371.272 264.001C373.187 252.498 373.674 243.853 372.733 237.002M363.564 215.146C367.418 219.003 368.702 222.86 371.272 230.574C371.925 232.536 372.412 234.665 372.733 237.002M372.733 237.002C375.243 236.145 382.062 235.717 389.255 240.859C398.247 247.288 409.808 265.287 422.654 271.715" stroke="url(#paint1_linear_5512_107433)" stroke-width="2"/>
<path d="M403.203 60.8479C408.203 62.3479 407.203 57.3479 405.703 55.8479C392.703 47.3488 383.203 61.8479 380.203 68.3479C373.741 82.3486 375.703 95.8486 372.703 111.349C370.236 124.093 367.203 156.348 367.203 166.848C369.203 150.849 373.771 130.644 375.203 126.349C378.203 117.349 376.703 90.3486 385.203 72.3479C390.558 61.0085 398.203 59.3479 403.203 60.8479Z" fill="#D9D9D9" fill-opacity="0.15"/>
<path d="M360.203 210.349C361.003 213.949 356.536 216.182 354.203 216.849C357.203 205.849 341.203 192.849 337.203 189.349C333.203 185.849 322.703 183.849 318.703 184.849C314.703 185.849 311.703 182.849 311.703 179.349C311.703 175.849 316.703 173.349 320.203 173.849C323.703 174.349 329.703 174.849 342.203 184.849C354.703 194.849 359.203 205.849 360.203 210.349Z" fill="#D9D9D9" fill-opacity="0.15"/>
<path d="M426.92 21.7754C431.435 21.6728 434.822 25.5724 437.079 28.7536C441.184 33.3699 434.514 34.0928 432.975 31.5273C431.435 28.9618 431.333 27.7303 426.92 27.7303C422.507 27.7303 418.71 31.5273 417.787 34.0928C416.863 36.6583 415.119 44.6627 415.119 47.536C415.119 50.4094 417.889 57.6954 415.94 61.8002C416.022 55.4788 412.895 50.4094 411.322 48.6648C412.074 44.7311 413.887 35.7963 415.119 31.5273C416.658 26.191 422.405 21.878 426.92 21.7754Z" fill="#D9D9D9" fill-opacity="0.15"/>
<mask id="mask0_5512_107433" style="mask-type:alpha" maskUnits="userSpaceOnUse" x="0" y="0" width="383" height="246">
<rect width="382.842" height="245.906" fill="url(#paint2_linear_5512_107433)"/>
</mask>
<g mask="url(#mask0_5512_107433)">
<path d="M72.8672 146.588V75.1164C72.8672 68.9984 76.2539 63.3773 81.7364 60.6621C111.648 45.8486 164.499 22.9492 192.014 22.9492C219.521 22.9492 271.983 45.8369 301.66 60.6508C307.116 63.3741 310.479 68.98 310.479 75.0775V146.638C310.479 149.458 309.776 152.221 308.332 154.644C289.506 186.248 243.318 242.86 192.014 242.86C140.726 242.86 94.1311 186.284 75.0597 154.673C73.5866 152.232 72.8672 149.44 72.8672 146.588Z" fill="#D9D9D9" fill-opacity="0.1"/>
<path d="M309.751 63.3024C328.157 54.2934 362.157 42.1253 370.992 67.7564C379.061 91.1658 367.252 118.587 345.559 135.017C329.707 147.023 315.775 153.758 304.062 158.642" stroke="white"/>
<path d="M73.7016 63.3024C55.2961 54.2934 21.2966 42.1253 12.4615 67.7564C4.39215 91.1658 16.2008 118.587 37.8946 135.017C53.7457 147.023 67.678 153.758 79.3906 158.642" stroke="white"/>
<path d="M72.6172 143.071V71.5988C72.6172 65.4809 76.0039 59.8597 81.4864 57.1446C111.398 42.331 164.249 19.4316 191.764 19.4316C219.271 19.4316 271.733 42.3193 301.41 57.1332C306.866 59.8565 310.229 65.4624 310.229 71.56V143.12C310.229 145.94 309.526 148.703 308.082 151.126C289.256 182.73 243.068 239.342 191.764 239.342C140.476 239.342 93.8811 182.766 74.8097 151.156C73.3366 148.714 72.6172 145.922 72.6172 143.071Z" stroke="white" stroke-width="3"/>
<ellipse cx="191.423" cy="103.727" rx="118.806" ry="28.2813" stroke="white"/>
<path d="M310.229 140.873C310.229 160.003 257.038 175.51 191.423 175.51C125.808 175.51 72.6172 160.003 72.6172 140.873" stroke="white"/>
<path d="M177.906 31.8654C193.145 26.9964 219.734 35.1013 234.001 39.6356C249.889 46.7559 248.592 64.6207 197.685 58.1194C155.001 52.6681 107.147 77.7226 116.947 101.244C126.675 124.59 162.342 114.231 194.767 112.934C227.191 111.637 205.791 148.925 180.5 146.007C173.735 145.226 138.893 133.879 133.16 147.952C124.211 169.918 153.172 168.901 167.206 187.51C182.121 207.29 152.939 215.72 141.266 207.29C129.593 198.859 100.087 167.407 89.0623 153.464C78.0379 139.522 83.5497 136.604 83.5497 126.552C83.5497 116.5 82.9012 83.427 83.5497 78.239C84.1982 73.0511 89.0621 68.5117 94.2501 65.9177C99.438 63.3237 129.252 47.4098 177.906 31.8654Z" fill="#D9D9D9" fill-opacity="0.12"/>
</g>
<g clip-path="url(#clip0_5512_107433)">
<path opacity="0.5" d="M363.703 296.852C363.703 346.557 323.409 386.852 273.703 386.852C223.997 386.852 183.703 346.557 183.703 296.852" stroke="white"/>
<g filter="url(#filter0_d_5512_107433)">
<circle cx="273.703" cy="289.852" r="87" fill="#1B1B2D"/>
<circle cx="273.703" cy="289.852" r="87" fill="url(#paint3_linear_5512_107433)" fill-opacity="0.4"/>
</g>
<circle cx="274.203" cy="289.352" r="87.5" stroke="#E4255B" stroke-width="8"/>
<path d="M263.559 253.852C263.559 252.195 264.902 250.852 266.559 250.852H282.09C283.747 250.852 285.09 252.195 285.09 253.852V262.529C285.09 274.024 283.131 286.499 281.936 298.024C281.776 299.565 280.483 300.744 278.934 300.744H269.826C268.29 300.744 267.003 299.584 266.83 298.058C265.521 286.523 263.559 274.036 263.559 262.529V253.852ZM265.703 333.255C264.046 333.255 262.703 331.912 262.703 330.255V315.151C262.703 313.494 264.046 312.151 265.703 312.151H282.518C284.175 312.151 285.518 313.494 285.518 315.151V330.255C285.518 331.912 284.175 333.255 282.518 333.255H265.703Z" fill="#E4255B"/>
<circle cx="273.703" cy="289.852" r="83" stroke="white" stroke-width="2"/>
</g>
<defs>
<filter id="filter0_d_5512_107433" x="138.703" y="178.852" width="270" height="270" filterUnits="userSpaceOnUse" color-interpolation-filters="sRGB">
<feFlood flood-opacity="0" result="BackgroundImageFix"/>
<feColorMatrix in="SourceAlpha" type="matrix" values="0 0 0 0 0 0 0 0 0 0 0 0 0 0 0 0 0 0 127 0" result="hardAlpha"/>
<feOffset dy="24"/>
<feGaussianBlur stdDeviation="24"/>
<feComposite in2="hardAlpha" operator="out"/>
<feColorMatrix type="matrix" values="0 0 0 0 0.894118 0 0 0 0 0.145098 0 0 0 0 0.356863 0 0 0 0.5 0"/>
<feBlend mode="normal" in2="BackgroundImageFix" result="effect1_dropShadow_5512_107433"/>
<feBlend mode="normal" in="SourceGraphic" in2="effect1_dropShadow_5512_107433" result="shape"/>
</filter>
<linearGradient id="paint0_linear_5512_107433" x1="416.742" y1="236.852" x2="416.742" y2="434.852" gradientUnits="userSpaceOnUse">
<stop stop-color="#D9D9D9"/>
<stop offset="1" stop-color="#737373" stop-opacity="0"/>
</linearGradient>
<linearGradient id="paint1_linear_5512_107433" x1="416.703" y1="169.762" x2="416.703" y2="445.637" gradientUnits="userSpaceOnUse">
<stop stop-color="white"/>
<stop offset="1" stop-color="white" stop-opacity="0"/>
</linearGradient>
<linearGradient id="paint2_linear_5512_107433" x1="143.413" y1="87.825" x2="344.671" y2="106.429" gradientUnits="userSpaceOnUse">
<stop stop-color="white"/>
<stop offset="1" stop-color="white" stop-opacity="0"/>
</linearGradient>
<linearGradient id="paint3_linear_5512_107433" x1="360.703" y1="400.597" x2="206.73" y2="259.96" gradientUnits="userSpaceOnUse">
<stop stop-color="#E4255B"/>
<stop offset="1" stop-color="#E4255B" stop-opacity="0.2"/>
</linearGradient>
<clipPath id="clip0_5512_107433">
<rect width="240" height="240" fill="white" transform="translate(153.703 182.852)"/>
</clipPath>
</defs>
</svg>
