<svg width="885" height="875" viewBox="0 0 885 875" fill="none" xmlns="http://www.w3.org/2000/svg">
<g clip-path="url(#clip0_6162_138547)">
<path d="M0 42.5C0 26.1328 0 17.9493 3.684 11.9375C5.74539 8.57365 8.57365 5.74539 11.9375 3.684C17.9493 0 26.1328 0 42.5 0H842.5C858.867 0 867.051 0 873.062 3.684C876.426 5.74539 879.255 8.57365 881.316 11.9375C885 17.9493 885 26.1328 885 42.5V832.5C885 848.867 885 857.051 881.316 863.062C879.255 866.426 876.426 869.255 873.062 871.316C867.051 875 858.867 875 842.5 875H42.5C26.1329 875 17.9493 875 11.9375 871.316C8.57365 869.255 5.74539 866.426 3.684 863.062C0 857.051 0 848.867 0 832.5V42.5Z" fill="white" fill-opacity="0.07"/>
<path d="M536.602 262.086V271.781M668.969 293.947L666.359 364.281M210 369.5V437M206 403V434" stroke="white"/>
<path d="M700.868 432.316L674.755 529.964C674.935 533.299 671.59 536.568 665.54 538.297L383.256 631.778C374.613 634.248 363.722 632.638 358.931 628.183L356.552 625.97C353.324 622.968 346.133 621.77 340.108 623.231C334.082 624.692 326.891 623.494 323.663 620.492L319.08 616.23C314.711 612.167 305.983 609.884 297.042 610.466L293.007 610.729C284.066 611.311 275.338 609.028 270.969 604.965L228.197 565.188C226.362 563.481 225.451 561.605 225.434 559.736L195.891 468.274" stroke="white" stroke-width="2"/>
<path d="M380.175 632.588L374.119 528.569M323.782 620.754L310.903 541.313M273.755 607.554L250.695 517.432" stroke="white"/>
<path d="M275.219 479.972L270.529 480.276C260.139 480.95 249.996 478.306 244.919 473.6L195.211 423.523C190.134 418.817 191.145 412.996 197.764 408.826L200.751 406.943C207.37 402.773 208.381 396.952 203.304 392.246L197.978 387.309C194.226 383.831 196.365 379.455 202.868 377.3C209.372 375.145 211.51 370.768 207.759 367.291L204.994 364.728C199.426 359.567 203.055 353.064 213.1 350.203L535.588 261.342C545.633 258.481 558.29 260.346 563.857 265.507L566.622 268.069C570.373 271.547 578.73 272.934 585.733 271.242C592.736 269.55 601.093 270.938 604.844 274.415L610.17 279.352C615.247 284.059 625.391 286.703 635.781 286.028L640.471 285.724C650.861 285.05 661.004 287.694 666.081 292.4L715.789 338.477C720.866 343.183 719.855 349.004 713.236 353.174L710.249 355.057C703.63 359.227 702.619 365.048 707.696 369.754L713.022 374.691C716.774 378.169 714.636 382.545 708.132 384.7C701.628 386.855 699.49 391.231 703.241 394.709L706.006 397.272C711.574 402.433 707.945 408.936 697.9 411.797L375.411 504.658C365.367 507.519 352.711 505.655 347.143 500.493L344.378 497.931C340.627 494.453 332.27 493.066 325.267 494.758C318.264 496.45 309.908 495.062 306.156 491.585L300.83 486.648C295.753 481.941 285.61 479.297 275.219 479.972Z" stroke="white" stroke-width="2"/>
<path d="M119.082 398.788C99.3486 381.02 104.089 360.685 129.661 353.408L564.335 229.708C589.821 222.455 626.37 230.918 646.037 248.626L778.822 368.186C798.555 385.954 793.815 406.289 768.243 413.566L333.569 537.267C308.082 544.52 271.534 536.057 251.867 518.348L119.082 398.788Z" stroke="white" stroke-width="2"/>
<path d="M389.367 336.987L398.837 340.145C407.17 342.923 416.694 343.715 423.524 341.885L430.621 340.252C437.451 338.422 440.601 334.233 439.381 329.549L437.995 324.225C437.324 321.648 439.19 319.458 442.928 318.436L520.095 297.613C522.862 296.857 524.408 295.321 524.283 293.454L524.104 290.774C524.001 289.24 525.282 287.98 527.568 287.368C531.277 286.374 536.747 287.492 539.785 289.866L551.509 299.026C553.353 300.466 554.111 302.099 553.582 303.49L551.446 309.102C550.875 310.603 551.694 312.366 553.684 313.922L617.629 363.88C619.833 365.602 623.21 366.865 626.679 367.264L642.756 369.111C646.224 369.51 649.602 370.773 651.806 372.495L663.752 381.828C665.975 383.565 665.758 385.569 663.253 386.447L652.866 390.092C648.196 391.73 647.793 395.466 651.936 398.703C654.101 400.394 653.709 402.34 651.061 403.044L417.856 471.173C415.217 471.884 411.317 471.089 409.153 469.398C405.009 466.161 397.69 464.494 392.283 465.555L380.254 467.918C377.354 468.487 373.428 467.593 371.205 465.857L359.259 456.523C357.055 454.801 356.301 452.836 357.238 451.257L361.581 443.937C362.518 442.358 361.764 440.393 359.56 438.671L295.616 385.712C293.625 384.157 290.665 382.968 287.524 382.461L275.781 380.567C272.872 380.098 270.13 378.997 268.286 377.556L256.562 368.396C253.524 366.022 254.068 363.293 257.777 362.299C260.063 361.686 263.091 361.792 265.966 362.583L270.986 363.966C274.483 364.929 278.167 365.063 280.962 364.33L375.919 336.123C379.696 335.131 384.783 335.458 389.367 336.987Z" stroke="white"/>
<path d="M546.679 352.918C548.468 352.405 551.213 353.039 552.812 354.333M546.679 352.918L363.498 408.5M546.679 352.918L545.496 323M552.812 354.333L578.495 375.131M552.812 354.333L551.997 324.501M473.424 407.009L445.069 385.625L442.995 354.487" stroke="white"/>
<path d="M421.444 334.154C416.81 335.395 410.697 334.983 405.045 333.128L392.163 328.9C386.037 326.889 379.254 326.471 374.202 327.795L279.919 355.992C274.936 357.297 268.492 357.203 262.179 355.732L245.65 351.881C238.205 350.147 231.026 351.37 228.838 354.747L228.381 355.451C224.372 361.636 227.201 369.434 235.927 376.251L241.383 380.514C244.521 382.966 249.353 384.753 254.303 385.293L279.931 388.088C283.644 388.493 287.268 389.833 289.621 391.672L345.496 437.326C347.717 439.061 348.546 441.037 347.74 442.673L341.712 454.911C340.369 457.638 341.751 460.93 345.451 463.821L352.809 469.57C367.287 480.882 393.421 486.194 411.179 481.436L675.968 405.114C693.726 400.356 696.385 387.328 681.906 376.016L674.549 370.268C670.848 367.376 665.248 365.214 659.394 364.416L633.116 360.834C629.604 360.355 626.244 359.058 624.024 357.323L568.149 313.669C565.795 311.83 565.013 309.728 566.058 308.048L573.269 296.454C574.661 294.215 573.619 291.413 570.48 288.961L565.024 284.698C556.298 277.88 542.818 272.936 529.067 271.51L527.502 271.348C519.995 270.569 514.15 272.835 513.814 276.655L513.068 285.134C512.783 288.373 509.81 290.991 504.884 292.341L432.437 312.192C427.443 313.56 424.92 316.471 425.756 319.9L427.513 327.108C428.284 330.272 426.079 332.913 421.445 334.154M390.785 431.973L604.245 367.786M499.497 399.283L442.786 353.36M344.998 383.001C340.998 384.5 337.996 392.207 341.496 395.488C344.996 398.769 351.996 404.488 355.496 407.5C350.873 410.904 351.739 418.033 359.914 424.42C368.088 430.806 379.884 434.867 388.635 434.688L388.636 434.689C397.104 441.305 401.953 445.218 408.498 450.001C415.042 454.784 428.167 455.563 433.998 454.001C491.498 437.668 628.298 395.701 631.498 394.501C634.698 393.301 632.164 390.001 630.498 388.501M432.787 450.681L629.437 391.314C631.226 390.802 631.38 389.337 629.782 388.042L550.814 324.095C549.215 322.801 546.47 322.167 544.681 322.68L348.031 382.047C340.28 384.27 339.612 390.618 346.539 396.227L406.212 444.55C413.139 450.159 425.037 452.904 432.787 450.681Z" stroke="white" stroke-width="2"/>
<path fill-rule="evenodd" clip-rule="evenodd" d="M563.437 229.596C588.923 222.343 625.471 230.806 645.139 248.515L777.923 368.075C797.656 385.843 792.916 406.177 767.345 413.455L332.67 537.155C307.184 544.408 270.635 535.945 250.968 518.237L118.184 398.676C98.4503 380.908 103.19 360.574 128.762 353.296L563.437 229.596ZM562.959 265.395C557.391 260.234 544.734 258.369 534.69 261.23L212.201 350.091C202.157 352.952 198.528 359.456 204.096 364.617L206.86 367.179C210.612 370.656 208.473 375.033 201.97 377.188C195.466 379.343 193.328 383.719 197.079 387.197L202.405 392.134C207.483 396.841 206.472 402.661 199.853 406.832L196.865 408.714C190.246 412.884 189.235 418.705 194.313 423.412L244.021 473.488C249.098 478.194 259.241 480.838 269.631 480.164L274.32 479.86C284.711 479.185 294.854 481.83 299.932 486.537L305.258 491.473C309.01 494.951 317.366 496.338 324.368 494.646C331.371 492.954 339.728 494.341 343.48 497.819L346.244 500.382C351.812 505.543 364.468 507.407 374.513 504.546L697.001 411.685C707.046 408.824 710.675 402.322 705.107 397.161L702.343 394.597C698.591 391.12 700.73 386.743 707.233 384.588C713.737 382.434 715.875 378.057 712.124 374.58L706.798 369.643C701.721 364.937 702.731 359.115 709.35 354.945L712.337 353.063C718.956 348.893 719.967 343.071 714.89 338.365L665.183 292.289C660.105 287.582 649.962 284.938 639.572 285.613L634.882 285.916C624.492 286.591 614.349 283.947 609.272 279.241L603.945 274.303C600.311 270.934 592.355 269.527 585.494 270.981L584.174 271.28C577.314 272.733 569.358 271.326 565.724 267.957L562.959 265.395Z" fill="#D9D9D9" fill-opacity="0.1"/>
</g>
<path d="M42.5 1H842.5C850.703 1 856.785 1.0011 861.57 1.45605C866.34 1.90961 869.718 2.80764 872.54 4.53711C875.769 6.51599 878.484 9.23084 880.463 12.46C882.192 15.2822 883.09 18.6599 883.544 23.4297C883.999 28.2146 884 34.2971 884 42.5V832.5C884 840.703 883.999 846.785 883.544 851.57C883.09 856.34 882.192 859.718 880.463 862.54C878.484 865.769 875.769 868.484 872.54 870.463C869.718 872.192 866.34 873.09 861.57 873.544C856.785 873.999 850.703 874 842.5 874H42.5C34.2971 874 28.2146 873.999 23.4297 873.544C18.6599 873.09 15.2822 872.192 12.46 870.463C9.23084 868.484 6.51599 865.769 4.53711 862.54C2.80764 859.718 1.90961 856.34 1.45605 851.57C1.0011 846.785 1 840.703 1 832.5V42.5C1 34.2971 1.0011 28.2146 1.45605 23.4297C1.90961 18.6599 2.80763 15.2822 4.53711 12.46C6.51598 9.23083 9.23083 6.51598 12.46 4.53711C15.2822 2.80763 18.6599 1.90961 23.4297 1.45605C28.2146 1.0011 34.2971 1 42.5 1Z" stroke="white" stroke-opacity="0.15" stroke-width="2"/>
<defs>
<clipPath id="clip0_6162_138547">
<path d="M0 42.5C0 26.1328 0 17.9493 3.684 11.9375C5.74539 8.57365 8.57365 5.74539 11.9375 3.684C17.9493 0 26.1328 0 42.5 0H842.5C858.867 0 867.051 0 873.062 3.684C876.426 5.74539 879.255 8.57365 881.316 11.9375C885 17.9493 885 26.1328 885 42.5V832.5C885 848.867 885 857.051 881.316 863.062C879.255 866.426 876.426 869.255 873.062 871.316C867.051 875 858.867 875 842.5 875H42.5C26.1329 875 17.9493 875 11.9375 871.316C8.57365 869.255 5.74539 866.426 3.684 863.062C0 857.051 0 848.867 0 832.5V42.5Z" fill="white"/>
</clipPath>
</defs>
</svg>
