<svg width="885" height="875" viewBox="50 0 885 875" fill="none" xmlns="http://www.w3.org/2000/svg">
<path d="M50 42.5C50 26.1328 50 17.9493 53.684 11.9375C55.7454 8.57365 58.5736 5.74539 61.9375 3.684C67.9493 0 76.1328 0 92.5 0H892.5C908.867 0 917.051 0 923.062 3.684C926.426 5.74539 929.255 8.57365 931.316 11.9375C935 17.9493 935 26.1328 935 42.5V832.5C935 848.867 935 857.051 931.316 863.062C929.255 866.426 926.426 869.255 923.062 871.316C917.051 875 908.867 875 892.5 875H92.5C76.1329 875 67.9493 875 61.9375 871.316C58.5736 869.255 55.7454 866.426 53.684 863.062C50 857.051 50 848.867 50 832.5V42.5Z" fill="white" fill-opacity="0.07"/>
<path d="M92.5 1H892.5C900.703 1 906.785 1.0011 911.57 1.45605C916.34 1.90961 919.718 2.80764 922.54 4.53711C925.769 6.51599 928.484 9.23084 930.463 12.46C932.192 15.2822 933.09 18.6599 933.544 23.4297C933.999 28.2146 934 34.2971 934 42.5V832.5C934 840.703 933.999 846.785 933.544 851.57C933.09 856.34 932.192 859.718 930.463 862.54C928.484 865.769 925.769 868.484 922.54 870.463C919.718 872.192 916.34 873.09 911.57 873.544C906.785 873.999 900.703 874 892.5 874H92.5C84.2971 874 78.2146 873.999 73.4297 873.544C68.6599 873.09 65.2822 872.192 62.46 870.463C59.2308 868.484 56.516 865.769 54.5371 862.54C52.8076 859.718 51.9096 856.34 51.4561 851.57C51.0011 846.785 51 840.703 51 832.5V42.5C51 34.2971 51.0011 28.2146 51.4561 23.4297C51.9096 18.6599 52.8076 15.2822 54.5371 12.46C56.516 9.23083 59.2308 6.51598 62.46 4.53711C65.2822 2.80763 68.6599 1.90961 73.4297 1.45605C78.2146 1.0011 84.2971 1 92.5 1Z" stroke="white" stroke-opacity="0.2" stroke-width="2"/>
<path d="M500.624 340.877C497.864 340.947 495.569 338.766 495.5 336.005C495.43 333.245 497.611 330.95 500.372 330.881L500.498 335.879L500.624 340.877ZM665.742 390.464C666.203 393.187 664.37 395.768 661.647 396.229L617.278 403.739C614.555 404.199 611.975 402.366 611.514 399.643C611.053 396.92 612.886 394.34 615.609 393.879L655.048 387.203L648.373 347.764C647.912 345.042 649.746 342.461 652.468 342C655.191 341.539 657.772 343.373 658.233 346.095L665.742 390.464ZM500.498 335.879L500.372 330.881L513.27 330.555L513.396 335.553L513.522 340.552L500.624 340.877L500.498 335.879ZM634.283 372.45L637.179 368.374L663.708 387.223L660.812 391.299L657.917 395.375L631.387 376.526L634.283 372.45ZM513.396 335.553L513.27 330.555C557.575 329.436 601.05 342.705 637.179 368.374L634.283 372.45L631.387 376.526C597.021 352.109 555.666 339.487 513.522 340.552L513.396 335.553Z" fill="#4FE2CE"/>
<mask id="mask0_6557_274745" style="mask-type:alpha" maskUnits="userSpaceOnUse" x="340" y="85" width="351" height="820">
<path d="M346.597 324.466C348.218 284.845 388.232 136.778 398.081 101.771C449.976 91.2948 556.889 75.0001 569.388 93.6276C585.011 116.912 583.391 146.022 585.933 178.438C588.475 210.854 592.179 288.766 612.837 396.907C633.495 505.048 647.516 631.525 645.088 654.165C642.66 676.806 729.763 897.828 669.997 904.173C610.23 910.518 452.612 701.358 439.889 686.445C427.167 671.532 398.653 661.375 391.305 643.704C383.958 626.033 396.242 484.289 400.095 481.103C403.948 477.916 412.581 469.998 417.885 465.741C423.189 461.484 434.44 445.432 439.721 430.164C445.002 414.896 430.614 407.07 426.547 405.762C422.48 404.454 415.465 404.286 408.068 406.64C400.671 408.994 339.359 424.923 340.406 415.363C341.453 405.802 344.976 364.088 346.597 324.466Z" fill="#D9D9D9"/>
</mask>
<g mask="url(#mask0_6557_274745)">
<path d="M431.106 356.344L431.205 355.853C431.471 355.907 431.646 356.163 431.599 356.43C431.552 356.697 431.301 356.878 431.032 356.838L431.106 356.344ZM428.435 181.012L428.93 181.086L415.498 270.783L415.004 270.709L414.509 270.635L427.941 180.938L428.435 181.012ZM415.004 270.709L415.498 270.783C415.263 272.355 415.436 274.824 415.812 277.965C416.188 281.102 416.751 284.801 417.275 288.862C418.318 296.944 419.184 306.319 417.939 314.636L417.444 314.562L416.95 314.488C418.173 306.32 417.325 297.065 416.283 288.99C415.765 284.974 415.194 281.213 414.819 278.084C414.445 274.961 414.251 272.361 414.509 270.635L415.004 270.709ZM417.444 314.562L417.939 314.636L413.53 344.074L413.036 344L412.542 343.926L416.95 314.488L417.444 314.562ZM421.055 354.838L421.129 354.344L431.18 355.849L431.106 356.344L431.032 356.838L420.981 355.333L421.055 354.838ZM413.036 344L413.53 344.074C412.792 349.009 416.193 353.605 421.129 354.344L421.055 354.838L420.981 355.333C415.5 354.512 411.721 349.407 412.542 343.926L413.036 344ZM433.1 182.055L433.594 182.129L420.28 271.044L419.786 270.97L419.291 270.896L432.605 181.98L433.1 182.055ZM419.786 270.97L420.28 271.044C420.082 272.368 420.178 274.75 420.419 277.862C420.659 280.963 421.033 284.694 421.372 288.725C422.046 296.749 422.57 305.876 421.519 312.897L421.024 312.823L420.53 312.749C421.561 305.859 421.05 296.842 420.375 288.809C420.04 284.81 419.662 281.035 419.422 277.94C419.183 274.856 419.073 272.354 419.291 270.896L419.786 270.97ZM421.024 312.823L421.519 312.897L416.828 344.222L416.334 344.148L415.839 344.074L420.53 312.749L421.024 312.823ZM416.334 344.148L416.828 344.222C416.435 346.845 416.734 348.758 417.454 350.182C418.173 351.604 419.342 352.598 420.798 353.329C422.261 354.065 423.995 354.526 425.81 354.889C426.716 355.07 427.633 355.225 428.542 355.378C429.449 355.53 430.348 355.681 431.205 355.853L431.106 356.344L431.008 356.834C430.17 356.666 429.286 356.517 428.376 356.364C427.469 356.211 426.537 356.054 425.614 355.87C423.772 355.502 421.933 355.019 420.349 354.223C418.757 353.423 417.402 352.296 416.562 350.634C415.723 348.974 415.425 346.839 415.839 344.074L416.334 344.148Z" fill="white"/>
<path d="M485.693 188.551C485.485 189.299 484.05 189.57 481.46 189.182L433.634 182.02C428.611 181.268 421.148 178.326 416.964 175.448C415.04 174.126 414.144 173.047 414.226 172.34M485.693 188.551C485.889 187.849 485.003 186.727 482.977 185.333C480.739 183.794 477.563 182.237 474.324 181.005M485.693 188.551L472.883 274.099C472.177 278.814 468.752 280.943 465.204 280.412L419.916 273.631C414.893 272.879 407.43 269.936 403.246 267.059C400.784 265.593 400.664 262.579 400.911 261.256L414.226 172.34M414.226 172.34C414.322 171.51 415.767 171.194 418.481 171.6L425.217 172.609M480.259 141.365C480.158 141.714 479.426 141.831 478.098 141.632L441.46 136.145C438.886 135.76 435.048 134.334 432.888 132.96C431.895 132.328 431.43 131.817 431.467 131.487M480.259 141.365C480.355 141.038 479.894 140.507 478.848 139.842C476.688 138.468 472.851 137.041 470.277 136.656L433.639 131.17C432.248 130.961 431.51 131.1 431.467 131.487M480.259 141.365L474.324 181.005M431.467 131.487L425.253 172.987C425.135 173.605 424.961 174.935 426.11 175.841C428.266 177.542 429.226 178.03 435.057 178.903L470.394 184.194C472.213 184.467 473.951 183.494 474.28 181.293L474.324 181.005M470.592 278.922L464.21 289.337C456.092 302.583 450.723 317.327 448.422 332.691L445.739 350.613C444.624 358.054 437.69 363.182 430.249 362.068L417.451 360.152C410.01 359.038 404.882 352.103 405.996 344.662L408.479 328.084C410.909 311.852 409.861 295.289 405.404 279.493L401.143 264.39M437.447 258.807C436.64 264.201 440.358 269.229 445.752 270.037C451.146 270.844 456.174 267.126 456.982 261.732C457.79 256.338 454.071 251.31 448.677 250.502C443.283 249.694 438.255 253.412 437.447 258.807Z" stroke="white" stroke-width="2"/>
<path d="M417.594 360.518L410.483 408.008C406.561 434.194 398.98 517.401 423.13 562.726C423.829 564.038 424.554 565.318 425.308 566.564C452.077 610.862 516.998 722.674 707.998 839.174M430.005 362.721L423.125 408.665C419.517 432.763 412.694 506.771 432.078 551.665C433.662 555.335 435.422 558.811 437.373 562.049C463.189 604.893 531.498 720.174 716.197 830.416" stroke="url(#paint0_linear_6557_274745)" stroke-width="2"/>
<path d="M478.758 188.891L459.897 186.066L446.179 277.677L442.207 289.579C437.784 302.829 434.471 316.425 432.301 330.224L428.635 353.547C428.459 354.668 429.229 355.717 430.351 355.885L432.862 356.261C438.07 357.041 442.925 353.451 443.705 348.243L447.261 324.493C448.546 315.909 451.214 307.589 455.16 299.858L465.04 280.501L478.758 188.891Z" fill="#D9D9D9" fill-opacity="0.1"/>
<path d="M433.627 182.134L421.805 178.298L408.087 269.908L419.909 273.744L433.627 182.134Z" fill="#D9D9D9" fill-opacity="0.1"/>
<path d="M455.687 181.995L467.138 183.71L473.493 141.273L462.042 139.558L455.687 181.995ZM429.515 177.388L434.804 178.868L441.158 136.431L435.87 134.951L429.515 177.388Z" fill="#D9D9D9" fill-opacity="0.1"/>
</g>
<path d="M695.144 489.713C692.817 517.06 676.23 530.563 654.074 530.563C626.704 530.563 609.5 509.84 609.5 482.34M705.289 522.3L706.944 528.478H725.591L726.754 522.3M815.907 463.703C815.907 471.852 812.636 478.177 807.274 482.153M795.054 505.279C794.403 497.198 790.102 494.592 779.284 494.592H763.113M741.11 522.3L743.303 528.478H760.31L762.638 522.3M793.248 465.397C794.639 458.297 790.102 452.625 779.805 452.625H761.95M686.998 442.006C686.998 442.006 695.144 456.416 695.144 467.607L668.708 468.655C666.362 457.056 659.194 450.539 649.028 450.539C642.769 450.539 637.799 452.559 634.051 456.074M817.331 522.3L816.82 528.478H796.879L796.385 522.882" stroke="url(#paint1_linear_6557_274745)"/>
<path d="M694.346 488.93C690.567 511.347 676.23 524.38 654.074 524.38C626.704 524.38 609.5 503.658 609.5 476.157C609.5 448.657 626.704 427.674 654.074 427.674C675.318 427.674 689.915 440.186 693.955 461.56L673.363 462.473C671.017 450.873 663.849 444.356 653.683 444.356C637.391 444.356 629.832 458.041 629.832 476.157C629.832 494.143 637.521 507.698 653.683 507.698C664.5 507.698 671.538 500.66 673.624 488.148L694.346 488.93ZM705.78 429.759H725.591V522.295H705.78V429.759ZM782.673 429.759C801.831 429.759 815.907 439.664 815.907 457.52C815.907 469.25 809.13 477.2 799.095 479.807C809 480.98 813.692 485.672 814.474 495.707L816.82 522.295H796.879L795.054 499.096C794.403 491.015 790.102 488.409 779.284 488.409H761.95V522.295H742.139V429.759H782.673ZM761.95 471.856H779.805C789.971 471.856 795.576 467.295 795.576 459.214C795.576 451.003 790.102 446.442 779.805 446.442H761.95V471.856Z" stroke="white" stroke-width="2"/>
<mask id="mask1_6557_274745" style="mask-type:alpha" maskUnits="userSpaceOnUse" x="-32" y="280" width="689" height="651">
<path fill-rule="evenodd" clip-rule="evenodd" d="M340.872 288.199C371.337 286.751 388.581 270.414 441.614 290.919C494.648 311.424 518.315 272.255 565.684 342.084C613.053 411.914 636.836 406.779 634.116 507.522C631.396 608.264 714.777 624.824 578.208 731.929C441.64 839.035 432.506 846.977 333.236 875.223C233.965 903.468 208.519 884.154 149.608 897.967C90.6981 911.78 101.586 961.819 51.7189 902.62C1.85203 843.421 -38.9796 805.817 -30.2888 683.267C-21.5979 560.716 -33.9167 554.293 -16.2192 515.91C1.47824 477.526 27.9994 435.219 38.251 419.215C46.4523 406.41 61.9534 335.162 68.6788 301.138C268.19 296.659 310.406 289.647 340.872 288.199ZM407.09 491.284C407.858 503.928 410.312 531.677 413.983 541.513C418.572 553.809 426.252 567.96 428.987 572.836C431.175 576.736 437.715 570.419 440.712 566.772C438.16 562.222 432.485 551.646 430.202 545.748C427.349 538.375 421.31 516.637 420.693 503.652C420.199 493.264 418.887 486.719 418.292 484.745L407.09 491.284ZM413.568 385.357C412.989 390.724 411.74 401.662 411.378 402.48L409.57 406.57L423.555 405.906C424.078 402.878 425.201 396.317 425.506 394.3C425.886 391.779 426.149 386.761 426.6 385.738C426.962 384.92 427.29 382.702 427.409 381.695L413.568 385.357Z" fill="url(#paint2_linear_6557_274745)"/>
</mask>
<g mask="url(#mask1_6557_274745)">
<path d="M-15.5003 811.172C48.9997 766.672 156.154 680.152 170.864 666.89C189.251 650.313 215.319 631.491 222.974 585.669C230.63 539.847 234.163 485.528 232.88 474.358C231.598 463.188 250.437 437.87 263.145 426.642C275.853 415.414 300.207 390.262 308.196 380.89C316.185 371.519 334.959 357.903 357.603 373.898C380.247 389.893 407.144 390.982 415.598 394.66C424.052 398.338 446.64 400.345 448.409 420.664C449.226 430.044 445.029 447.68 444.289 459.646C443.55 471.612 448.38 497.732 446.601 503.102C445.56 506.247 441.05 510.757 434.584 512.128M434.584 512.128C430.009 513.099 424.454 512.498 418.456 508.731C406.874 501.459 402.071 485.562 401.117 478.522M434.584 512.128C443.138 521.994 443.609 542.575 434.636 549.842C423.42 558.927 421.354 567.523 412.835 575.547C404.315 583.57 381.197 580.215 384.368 566.514C385.97 559.59 388.036 554.844 389.727 551.939M434.584 512.128C427.304 522.642 411.931 544.768 408.678 549.162C405.74 553.131 395.998 555.306 389.727 551.939M401.117 478.522C410.026 470.712 417.54 466.119 424.663 457.252C439.293 439.04 445.282 426.565 437.955 413.882C430.627 401.198 410.299 400.975 385.199 418.3C376.401 424.372 367.186 433.467 358.233 442.75M401.117 478.522C399.455 479.979 397.746 481.547 395.981 483.276M389.727 551.939C390.713 550.245 391.571 549.177 392.135 548.668M389.727 551.939C387.32 550.646 385.424 548.537 384.621 545.398C382.5 537.113 382.91 527.832 386.475 519.142M395.981 483.276C387.772 491.317 378.372 502.831 367.126 522.707C364.549 527.261 361.843 531.424 359.053 535.224M395.981 483.276C395.237 484.024 394.032 486.236 395.16 489.101C396.569 492.683 399.813 498.945 391.68 509.929C389.547 512.811 387.847 515.843 386.554 518.952M386.475 519.142C386.501 519.079 386.527 519.015 386.554 518.952M386.475 519.142C386.506 519.073 386.532 519.009 386.554 518.952M386.475 519.142C385.027 522.408 373.499 539.187 373.814 553.544C374.135 568.206 369.966 603.422 357.12 627.83C344.203 652.373 327.916 678.242 308.081 689.162C288.246 700.082 265.836 714.351 248.996 742.772C235.525 765.51 154 863.172 97.9997 917.172M303.223 571.987C314.145 571.337 338.782 562.843 359.053 535.224M359.053 535.224C359.3 551.213 357.348 587.267 347.571 603.568C335.35 623.945 316.975 662.311 285.493 687.155M310.149 484.753C303.467 488.606 297.926 490.824 294.124 491.506M310.149 484.753C304.511 470.425 282.093 459.621 271.589 456.009M310.149 484.753C315.445 481.699 321.457 477.62 327.889 472.464M327.889 472.464C328.861 471.685 329.843 470.881 330.833 470.053C339.071 463.161 348.496 452.845 358.233 442.75M327.889 472.464C331.421 460.868 326.555 436.767 323.68 426.167M358.233 442.75C344.27 429.426 332.222 399.079 327.944 385.572" stroke="url(#paint3_linear_6557_274745)" stroke-width="2"/>
<path fill-rule="evenodd" clip-rule="evenodd" d="M255.079 441.445C264.141 432.004 272.511 439.615 266.612 452.41C260.714 465.204 275.648 474.005 278.097 483.399C280.545 492.794 266.775 497.954 258.758 518.858C250.742 539.762 242.531 609.23 241.983 618.767C241.436 628.304 254.49 650.208 249.495 660.958C245.496 669.56 85.132 834.606 56.5266 871.672C48.5127 861.041 30.1449 838.988 20.7844 835.829C11.424 832.67 2.53592 827.519 -0.737916 825.339C17.8692 809.604 159.56 687.659 168.847 680.809C180.453 672.249 225.524 630.561 228.667 601.88C231.808 573.199 242.469 492.103 241.138 485.156C239.807 478.212 246.017 450.886 255.079 441.445ZM408.93 413.608C415.423 413.3 415.018 425.833 405.623 428.282C396.229 430.731 384.837 433.275 385.122 439.268C390.377 444.524 383.861 444.334 391.709 451.469C399.556 458.604 392.326 464.454 393.42 466.404C394.513 468.355 386.166 471.754 383.36 465.381C380.554 459.007 388.64 460.625 377.129 460.671C364.905 456.247 348.375 477.055 343.095 481.811C338.87 485.616 322.878 495.286 315.41 499.646C308.473 501.144 299.138 500.62 317.29 486.542C339.98 468.945 358.436 457.055 363.146 450.824C367.855 444.594 370.091 438.981 379.248 431.538C388.405 424.095 402.438 413.917 408.93 413.608ZM325.877 372.505C333.844 371.625 332.632 367.178 351.586 376.288C370.54 385.398 393.655 397.815 406.213 398.72C404.881 402.287 399.172 408.565 389.207 409.539C379.242 410.514 357.599 418.55 349.419 404.423C341.239 390.296 331.179 389.272 332.44 384.206C333.701 379.141 329.421 373.338 328.184 378.902C326.947 384.467 324.449 384.586 321.453 384.728C318.456 384.871 312.131 388.676 319.169 389.342C326.209 390.009 323.782 402.138 320.143 409.819C316.503 417.5 299.449 437.833 287.487 438.902C275.524 439.972 263.561 441.041 268.223 433.811C272.885 426.582 300.047 397.76 305.756 391.481C311.464 385.203 317.91 373.384 325.877 372.505Z" fill="url(#paint4_linear_6557_274745)" fill-opacity="0.1"/>
</g>
<defs>
<linearGradient id="paint0_linear_6557_274745" x1="449.998" y1="533.174" x2="661.499" y2="826.674" gradientUnits="userSpaceOnUse">
<stop stop-color="white"/>
<stop offset="1" stop-color="#999999" stop-opacity="0"/>
</linearGradient>
<linearGradient id="paint1_linear_6557_274745" x1="695.144" y1="573.502" x2="695.144" y2="451.315" gradientUnits="userSpaceOnUse">
<stop stop-color="white"/>
<stop offset="1" stop-color="#999999" stop-opacity="0"/>
</linearGradient>
<linearGradient id="paint2_linear_6557_274745" x1="354.999" y1="509.674" x2="27.4999" y2="877.173" gradientUnits="userSpaceOnUse">
<stop stop-color="#CBCBCB"/>
<stop offset="1" stop-color="#656565" stop-opacity="0"/>
</linearGradient>
<linearGradient id="paint3_linear_6557_274745" x1="234.5" y1="454.672" x2="88.4997" y2="838.672" gradientUnits="userSpaceOnUse">
<stop stop-color="white"/>
<stop offset="1" stop-color="#999999" stop-opacity="0"/>
</linearGradient>
<linearGradient id="paint4_linear_6557_274745" x1="283.527" y1="464.672" x2="117.527" y2="815.672" gradientUnits="userSpaceOnUse">
<stop stop-color="#D9D9D9"/>
<stop offset="1" stop-color="#737373"/>
</linearGradient>
</defs>
</svg>
