<svg width="1920" height="600" viewBox="0 100 1920 600" fill="none" xmlns="http://www.w3.org/2000/svg">
<rect width="1920" height="800" transform="translate(17)" fill="black" fill-opacity="0.01"/>
<rect x="1319.5" y="340.5" width="259" height="138" rx="11.5" fill="url(#paint0_linear_6162_154705)" fill-opacity="0.1"/>
<rect x="1319.5" y="340.5" width="259" height="138" rx="11.5" stroke="url(#paint1_linear_6162_154705)"/>
<rect x="1538.99" y="357" width="24" height="24" rx="2" stroke="white"/>
<path d="M1557.84 365.989C1558.04 366.205 1558.04 366.553 1557.83 366.767L1549.96 374.841C1549.76 375.046 1549.44 375.054 1549.23 374.858L1544.17 370.105C1543.95 369.902 1543.93 369.554 1544.13 369.328L1545.79 367.424C1545.98 367.199 1546.32 367.181 1546.54 367.385L1549.37 370.047C1549.44 370.112 1549.55 370.109 1549.62 370.041L1555.35 364.159C1555.56 363.945 1555.9 363.947 1556.1 364.163L1557.84 365.989Z" stroke="white"/>
<path d="M1341.46 377.5L1347.01 369.017L1341.5 360.581H1343.93L1348.34 367.396L1352.7 360.581H1355.09L1349.58 368.969L1355.18 377.5H1352.75L1348.29 370.59L1343.84 377.5H1341.46ZM1357.91 377.5L1363.46 369.017L1357.95 360.581H1360.38L1364.79 367.396L1369.15 360.581H1371.54L1366.03 368.969L1371.63 377.5H1369.2L1364.75 370.59L1360.29 377.5H1357.91ZM1374.36 377.5L1379.91 369.017L1374.41 360.581H1376.84L1381.24 367.396L1385.6 360.581H1387.99L1382.48 368.969L1388.08 377.5H1385.65L1381.2 370.59L1376.74 377.5H1374.36ZM1390.81 377.5L1396.36 369.017L1390.86 360.581H1393.29L1397.7 367.396L1402.06 360.581H1404.44L1398.93 368.969L1404.53 377.5H1402.1L1397.65 370.59L1393.19 377.5H1390.81Z" fill="white"/>
<rect x="1327.5" y="392.5" width="241" height="78" rx="4.5" fill="url(#paint2_linear_6162_154705)" fill-opacity="0.1" stroke="url(#paint3_linear_6162_154705)"/>
<path d="M1328 419H1568" stroke="url(#paint4_linear_6162_154705)"/>
<path d="M1328 447H1568" stroke="url(#paint5_linear_6162_154705)"/>
<rect x="1338" y="399" width="114" height="6" rx="3" fill="url(#paint6_linear_6162_154705)"/>
<rect x="1338" y="426" width="80" height="6" rx="3" fill="url(#paint7_linear_6162_154705)"/>
<path d="M1550.5 402.5C1550.9 402.9 1555.33 407.333 1557.5 409.5M1550.5 409.5L1557.5 402.5" stroke="#5B5B5B"/>
<path d="M1550.5 429C1550.9 429.4 1555.33 433.833 1557.5 436M1550.5 436L1557.5 429" stroke="#5B5B5B"/>
<path d="M1550.5 454C1550.9 454.4 1555.33 458.833 1557.5 461M1550.5 461L1557.5 454" stroke="#5B5B5B"/>
<mask id="mask0_6162_154705" style="mask-type:alpha" maskUnits="userSpaceOnUse" x="1343" y="439" width="343" height="192">
<path d="M1685.5 445C1684.27 441.724 1626.38 440.796 1602.98 439.194C1597.1 438.791 1590.42 440.055 1585.51 443.326C1581.13 446.246 1578.5 451.162 1578.5 456.427V459.156C1578.5 470.668 1569.17 480 1557.66 480H1412.81C1396.81 480 1381.36 485.792 1369.3 496.306C1356.28 507.651 1348.19 523.625 1346.97 540.846C1345.68 559.127 1344.25 581.588 1343.5 600C1342 637 1394.5 618.5 1456.5 627.5C1518.5 636.5 1667.5 620 1668.5 616C1669.5 612 1687 449 1685.5 445Z" fill="#D9D9D9"/>
</mask>
<g mask="url(#mask0_6162_154705)">
<g opacity="0.4">
<rect x="1388.5" y="447.5" width="259" height="138" rx="11.5" fill="url(#paint8_linear_6162_154705)" fill-opacity="0.1"/>
<rect x="1388.5" y="447.5" width="259" height="138" rx="11.5" stroke="url(#paint9_linear_6162_154705)"/>
<rect x="1607.99" y="464" width="24" height="24" rx="2" stroke="white"/>
<path d="M1626.84 472.989C1627.04 473.205 1627.04 473.553 1626.83 473.767L1618.96 481.841C1618.76 482.046 1618.44 482.054 1618.23 481.858L1613.17 477.105C1612.95 476.902 1612.93 476.554 1613.13 476.328L1614.79 474.424C1614.98 474.199 1615.32 474.181 1615.54 474.385L1618.37 477.047C1618.44 477.112 1618.55 477.109 1618.62 477.041L1624.35 471.159C1624.56 470.945 1624.9 470.947 1625.1 471.163L1626.84 472.989Z" stroke="white"/>
<path d="M1410.46 484.5L1416.01 476.017L1410.5 467.581H1412.93L1417.34 474.396L1421.7 467.581H1424.09L1418.58 475.969L1424.18 484.5H1421.75L1417.29 477.59L1412.84 484.5H1410.46ZM1426.91 484.5L1432.46 476.017L1426.95 467.581H1429.38L1433.79 474.396L1438.15 467.581H1440.54L1435.03 475.969L1440.63 484.5H1438.2L1433.75 477.59L1429.29 484.5H1426.91ZM1443.36 484.5L1448.91 476.017L1443.41 467.581H1445.84L1450.24 474.396L1454.6 467.581H1456.99L1451.48 475.969L1457.08 484.5H1454.65L1450.2 477.59L1445.74 484.5H1443.36ZM1459.81 484.5L1465.36 476.017L1459.86 467.581H1462.29L1466.7 474.396L1471.06 467.581H1473.44L1467.93 475.969L1473.53 484.5H1471.1L1466.65 477.59L1462.19 484.5H1459.81Z" fill="white"/>
<rect x="1396.5" y="499.5" width="241" height="78" rx="4.5" fill="url(#paint10_linear_6162_154705)" fill-opacity="0.1" stroke="url(#paint11_linear_6162_154705)"/>
<path d="M1397 526H1637" stroke="url(#paint12_linear_6162_154705)"/>
<path d="M1397 554H1637" stroke="url(#paint13_linear_6162_154705)"/>
<rect x="1407" y="506" width="114" height="6" rx="3" fill="url(#paint14_linear_6162_154705)"/>
<rect x="1407" y="533" width="80" height="6" rx="3" fill="url(#paint15_linear_6162_154705)"/>
<path d="M1619.5 509.5C1619.9 509.9 1624.33 514.333 1626.5 516.5M1619.5 516.5L1626.5 509.5" stroke="#5B5B5B"/>
<path d="M1619.5 536C1619.9 536.4 1624.33 540.833 1626.5 543M1619.5 543L1626.5 536" stroke="#5B5B5B"/>
<path d="M1619.5 561C1619.9 561.4 1624.33 565.833 1626.5 568M1619.5 568L1626.5 561" stroke="#5B5B5B"/>
</g>
</g>
<mask id="mask1_6162_154705" style="mask-type:alpha" maskUnits="userSpaceOnUse" x="1347" y="189" width="423" height="232">
<path d="M1769.5 414.148C1768.2 417.621 1642.58 418.456 1606.52 420.251C1600.63 420.544 1593.95 419.093 1589.04 415.823C1584.66 412.903 1582.03 407.986 1582.03 402.721V386.048C1582.03 360.146 1561.03 339.148 1535.13 339.148H1416.35C1400.35 339.148 1384.89 333.356 1372.83 322.842C1359.81 311.497 1351.72 295.523 1350.5 278.302C1349.21 260.022 1347.78 237.56 1347.03 219.148C1345.53 182.148 1398.03 200.648 1460.03 191.648C1522.03 182.648 1751.5 199.148 1752.5 203.148C1753.5 207.148 1771 410.148 1769.5 414.148Z" fill="#D9D9D9"/>
</mask>
<g mask="url(#mask1_6162_154705)">
<g opacity="0.4">
<rect x="1473.5" y="242.5" width="259" height="138" rx="11.5" fill="url(#paint16_linear_6162_154705)" fill-opacity="0.1"/>
<rect x="1473.5" y="242.5" width="259" height="138" rx="11.5" stroke="url(#paint17_linear_6162_154705)"/>
<rect x="1692.99" y="259" width="24" height="24" rx="2" stroke="white"/>
<path d="M1711.84 267.989C1712.04 268.205 1712.04 268.553 1711.83 268.767L1703.96 276.841C1703.76 277.046 1703.44 277.054 1703.23 276.858L1698.17 272.105C1697.95 271.902 1697.93 271.554 1698.13 271.328L1699.79 269.424C1699.98 269.199 1700.32 269.181 1700.54 269.385L1703.37 272.047C1703.44 272.112 1703.55 272.109 1703.62 272.041L1709.35 266.159C1709.56 265.945 1709.9 265.947 1710.1 266.163L1711.84 267.989Z" stroke="white"/>
<path d="M1495.46 279.5L1501.01 271.017L1495.5 262.581H1497.93L1502.34 269.396L1506.7 262.581H1509.09L1503.58 270.969L1509.18 279.5H1506.75L1502.29 272.59L1497.84 279.5H1495.46ZM1511.91 279.5L1517.46 271.017L1511.95 262.581H1514.38L1518.79 269.396L1523.15 262.581H1525.54L1520.03 270.969L1525.63 279.5H1523.2L1518.75 272.59L1514.29 279.5H1511.91ZM1528.36 279.5L1533.91 271.017L1528.41 262.581H1530.84L1535.24 269.396L1539.6 262.581H1541.99L1536.48 270.969L1542.08 279.5H1539.65L1535.2 272.59L1530.74 279.5H1528.36ZM1544.81 279.5L1550.36 271.017L1544.86 262.581H1547.29L1551.7 269.396L1556.06 262.581H1558.44L1552.93 270.969L1558.53 279.5H1556.1L1551.65 272.59L1547.19 279.5H1544.81Z" fill="white"/>
<rect x="1481.5" y="294.5" width="241" height="78" rx="4.5" fill="url(#paint18_linear_6162_154705)" fill-opacity="0.1" stroke="url(#paint19_linear_6162_154705)"/>
<path d="M1482 321H1722" stroke="url(#paint20_linear_6162_154705)"/>
<path d="M1482 349H1722" stroke="url(#paint21_linear_6162_154705)"/>
<rect x="1492" y="301" width="114" height="6" rx="3" fill="url(#paint22_linear_6162_154705)"/>
<rect x="1492" y="328" width="80" height="6" rx="3" fill="url(#paint23_linear_6162_154705)"/>
<path d="M1704.5 304.5C1704.9 304.9 1709.33 309.333 1711.5 311.5M1704.5 311.5L1711.5 304.5" stroke="#5B5B5B"/>
<path d="M1704.5 331C1704.9 331.4 1709.33 335.833 1711.5 338M1704.5 338L1711.5 331" stroke="#5B5B5B"/>
<path d="M1704.5 356C1704.9 356.4 1709.33 360.833 1711.5 363M1704.5 363L1711.5 356" stroke="#5B5B5B"/>
</g>
</g>
<g filter="url(#filter0_d_6162_154705)">
<path d="M1331 339H1567C1574.18 339 1580 344.82 1580 352V467C1580 474.18 1574.18 480 1567 480H1331C1323.82 480 1318 474.18 1318 467V352C1318 344.82 1323.82 339 1331 339Z" stroke="url(#paint24_linear_6162_154705)" stroke-width="2" shape-rendering="crispEdges"/>
</g>
<path d="M1181.86 300.073C1179.23 300.926 1176.41 299.488 1175.56 296.862C1174.71 294.235 1176.14 291.415 1178.77 290.562L1180.32 295.317L1181.86 300.073ZM1354.26 300.597C1355.48 303.076 1354.46 306.072 1351.98 307.289L1311.58 327.12C1309.1 328.337 1306.11 327.314 1304.89 324.836C1303.67 322.357 1304.7 319.361 1307.18 318.144L1343.08 300.516L1325.45 264.61C1324.24 262.131 1325.26 259.135 1327.74 257.918C1330.22 256.701 1333.21 257.724 1334.43 260.203L1354.26 300.597ZM1180.32 295.317L1178.77 290.562L1191.04 286.577L1192.59 291.333L1194.13 296.089L1181.86 300.073L1180.32 295.317ZM1318.98 292.285L1320.59 287.553L1351.39 298.069L1349.77 302.801L1348.16 307.533L1317.36 297.017L1318.98 292.285ZM1192.59 291.333L1191.04 286.577C1233.2 272.89 1278.65 273.233 1320.59 287.553L1318.98 292.285L1317.36 297.017C1277.46 283.395 1234.23 283.069 1194.13 296.089L1192.59 291.333Z" fill="#4FE2CE"/>
<path d="M621.131 399.192C618.977 400.92 615.83 400.575 614.102 398.421C612.374 396.268 612.719 393.121 614.873 391.393L618.002 395.292L621.131 399.192ZM782.534 338.595C784.55 340.482 784.655 343.646 782.768 345.662L752.021 378.52C750.134 380.536 746.97 380.641 744.954 378.755C742.938 376.868 742.833 373.704 744.719 371.687L772.05 342.481L742.843 315.15C740.827 313.263 740.722 310.099 742.609 308.083C744.495 306.067 747.66 305.962 749.676 307.848L782.534 338.595ZM618.002 395.292L614.873 391.393L624.936 383.318L628.065 387.218L631.194 391.118L621.131 399.192L618.002 395.292ZM746.592 343.325L746.426 338.328L778.951 337.249L779.117 342.246L779.283 347.243L746.757 348.323L746.592 343.325ZM628.065 387.218L624.936 383.318C659.505 355.583 702.131 339.798 746.426 338.328L746.592 343.325L746.757 348.323C704.623 349.721 664.077 364.736 631.194 391.118L628.065 387.218Z" fill="#4FE2CE"/>
<rect x="234.875" y="188.426" width="318.14" height="470.068" fill="url(#paint25_radial_6162_154705)" fill-opacity="0.1"/>
<path d="M553.016 167L553.016 679.92" stroke="url(#paint26_linear_6162_154705)" stroke-width="0.649266"/>
<path d="M571.195 167L571.195 679.92" stroke="url(#paint27_linear_6162_154705)" stroke-width="0.649266"/>
<path d="M503.631 310.923C508.845 311.165 513.088 315.611 513.088 320.832V459.15C513.088 464.393 508.81 468.402 503.575 468.065L413.95 462.301C408.802 461.97 404.66 457.556 404.66 452.401V315.683C404.66 310.506 408.835 306.519 414.005 306.759L503.631 310.923Z" fill="url(#paint28_linear_6162_154705)" fill-opacity="0.1" stroke="url(#paint29_linear_6162_154705)" stroke-width="0.649266"/>
<path opacity="0.1" d="M181.641 183.883L181.641 515.658" stroke="url(#paint30_linear_6162_154705)" stroke-width="0.649266"/>
<rect x="1.18499" y="1.24872" width="77.1398" height="82.7993" transform="matrix(0.99863 0.052336 0 1 418.627 319.516)" stroke="white" stroke-width="2.37323"/>
<path d="M431.412 320.643L418.922 343.193" stroke="white" stroke-width="0.263692"/>
<path d="M423.665 320.5L433.079 348.6M433.079 348.6L452.305 405.987M433.079 348.6L441.611 321.441M433.079 348.6L419.24 392.652M444.684 321.602L447.31 329.441M447.31 329.441L453.323 347.389M447.31 329.441L419.117 359.156L430.527 373.213M447.31 329.441L454.271 322.104L458.331 334.02M453.323 347.389L454.3 350.306M453.323 347.389L458.331 334.02M453.323 347.389L451.062 353.427M454.3 350.306L459.879 366.957M454.3 350.306L451.062 353.427M454.3 350.306L461.512 343.357M459.879 366.957L464.352 380.311M459.879 366.957L451.551 378.204M459.879 366.957L466.503 358.01M464.352 380.311L468.492 392.667M464.352 380.311L474.679 382.01M464.352 380.311L451.551 378.204M468.492 392.667L472.124 403.51M468.492 392.667L475.43 384.213M468.492 392.667L462.477 399.997M472.124 403.51L473.323 407.088M472.124 403.51L483.402 407.617L475.43 384.213M472.124 403.51L462.477 399.997M462.63 322.542L458.331 334.02M458.331 334.02L461.512 343.357M451.062 353.427L442.348 376.69M451.062 353.427L430.527 373.213M442.348 376.69L439.507 384.276M442.348 376.69L451.551 378.204M442.348 376.69L431.963 374.982M439.507 384.276L437.082 390.749M439.507 384.276L443.455 389.14M439.507 384.276L431.963 374.982M437.082 390.749L431.778 404.911L441.163 392.235M437.082 390.749L441.163 392.235M437.082 390.749L419.117 384.207L429.168 374.522M441.163 392.235L443.455 389.14M441.163 392.235L447.983 394.719M443.455 389.14L451.551 378.204M443.455 389.14L447.983 394.719M466.503 358.01L477.321 343.399M466.503 358.01L461.512 343.357M466.503 358.01L474.679 382.01M477.321 343.399L482.762 336.05M477.321 343.399L483.439 374.454M477.321 343.399L474.792 330.56M482.762 336.05L484.502 333.7M482.762 336.05L477.123 328.315M482.762 336.05L486.384 341.019M484.502 333.7L491.638 324.062L491.189 347.611M484.502 333.7L481.927 323.685L477.123 328.315M484.502 333.7L486.384 341.019M491.189 347.611L490.975 358.872M491.189 347.611L486.384 341.019M491.189 347.611L497.907 356.825L492.228 363.745M490.975 358.872L490.85 365.423M490.975 358.872L486.384 341.019M490.975 358.872L492.228 363.745M490.85 365.423L490.485 384.61M490.85 365.423L492.228 363.745M490.85 365.423L483.439 374.454M490.485 384.61L490.04 407.965L485.27 383.752M490.485 384.61L497.907 385.831L492.228 363.745M490.485 384.61L485.27 383.752M485.27 383.752L483.439 374.454M485.27 383.752L476.934 382.381M483.439 374.454L476.934 382.381M474.792 330.56L473.323 323.103L477.123 328.315M474.792 330.56L461.512 343.357M474.792 330.56L477.123 328.315M476.934 382.381L475.43 384.213M476.934 382.381L474.679 382.01M475.43 384.213L474.679 382.01M462.477 399.997L457.344 406.251L447.983 394.719M462.477 399.997L447.983 394.719M431.963 374.982L430.527 373.213M431.963 374.982L429.168 374.522M430.527 373.213L429.168 374.522M429.168 374.522L419.117 372.868" stroke="white" stroke-width="0.527384"/>
<path d="M423.064 321.377L348.374 402.689L498.803 408.527L498.803 327.219L423.064 321.377Z" fill="url(#paint31_linear_6162_154705)" stroke="url(#paint32_linear_6162_154705)" stroke-width="0.975284"/>
<g clip-path="url(#clip0_6162_154705)">
<path d="M353.234 367.192C358.356 368.979 373.341 375.129 390.962 385.239C413.366 398.093 413.936 419.305 413.94 422.091C413.941 423.119 413.636 424.913 413.174 427.049C412.71 429.196 412.081 431.723 411.418 434.236C410.092 439.263 408.63 444.245 408.09 446.048L400.218 472.339L400.176 472.391C399.301 473.457 397.927 475.304 396.664 477.371C395.396 479.444 394.256 481.708 393.823 483.614C393.373 485.589 383.587 518.369 371.547 558.51C359.504 598.665 345.196 646.215 335.695 677.751L323.432 718.707L322.785 718.607L324.066 637.869L324.066 637.827L324.077 637.786L388.785 404.776L352.888 367.735L353.234 367.192Z" fill="url(#paint33_linear_6162_154705)" stroke="url(#paint34_linear_6162_154705)" stroke-width="0.661671"/>
<path d="M387.027 460.378C385.922 464.068 383.638 467.346 380.775 469.876C380.153 470.424 379.48 471.395 378.797 472.666C378.121 473.924 377.459 475.429 376.843 477.003C375.612 480.151 374.584 483.536 374.015 485.688L319.787 666.799C312.269 691.908 285.821 706.168 260.713 698.65L141.676 663.009C134.011 660.714 129.657 652.639 131.952 644.974L199.115 420.66C200.311 416.668 201.357 413.482 200.89 409.345C200.491 405.812 201.814 401.783 202.535 400.167C205.21 391.065 210.872 371.917 212.18 367.954C212.983 365.52 213.801 362.538 214.914 359.796C216.029 357.049 217.479 354.432 219.614 352.709C223.659 349.445 229.894 343.696 242.036 342.377C248.01 341.729 252.585 341.134 259.248 341.419C265.905 341.703 274.634 342.862 288.955 345.698C304.895 348.855 338.927 361.332 353.924 367.162L353.934 367.167L353.944 367.172C367.541 373.082 380.71 380.671 386.694 386.705C390.406 390.447 392.792 393.451 394.562 396.359C396.331 399.267 397.472 402.059 398.704 405.353C399.725 408.082 399.941 411.284 399.809 414.148C399.677 417.018 399.194 419.597 398.784 421.109L398.783 421.117L387.027 460.378Z" fill="url(#paint35_linear_6162_154705)" stroke="url(#paint36_linear_6162_154705)" stroke-width="1.11695"/>
<path d="M386.974 421.313L318.857 648.812L288.51 750.164L119.898 702.144L218.112 374.124C218.873 371.584 220.252 366.815 221.054 365.646L221.067 365.627C221.958 364.329 225.675 358.914 233.681 358.257C241.727 357.598 255.923 357.571 271.511 360.629C287.098 363.686 310.407 370.866 324.855 375.544C336.413 379.287 349.669 385.372 354.851 387.947C363.276 392.465 381.051 402.815 384.75 408.069C388.45 413.322 387.774 419.087 386.974 421.313Z" fill="url(#paint37_linear_6162_154705)" stroke="url(#paint38_linear_6162_154705)" stroke-width="1.11695"/>
<path d="M363.804 455.026L307.977 641.477L296.775 678.889C296.12 681.076 293.817 682.318 291.631 681.663L156.363 641.162C154.177 640.507 152.935 638.204 153.59 636.017L159.497 616.289L221.454 409.362C222.118 407.143 224.476 405.904 226.68 406.614L361.111 449.907C363.252 450.596 364.449 452.871 363.804 455.026Z" fill="url(#paint39_linear_6162_154705)" stroke="url(#paint40_linear_6162_154705)" stroke-width="1.01707"/>
<path d="M385.073 465.624C387.12 465.398 390.077 464.707 394.746 467.262C397.71 468.885 399.073 471.458 399.685 472.328" stroke="#63606F" stroke-width="0.661671"/>
<path d="M255.059 382.361C257.166 382.552 258.711 380.246 259.268 378.389C260.401 374.602 257.367 373.14 255.23 373.054C253.092 372.967 250.975 376.006 250.745 377.95C250.515 379.894 252.169 382.1 255.059 382.361Z" stroke="white" stroke-width="0.661671"/>
<path d="M385.294 496.254L376.21 526.59C376.21 526.59 375.686 528.287 375.192 529.153C374.415 530.514 372.394 532.884 369.376 531.94C366.358 530.996 366.417 527.482 366.824 525.843L369.382 517.301C371.807 508.585 376.914 490.666 377.94 488.719C379.222 486.285 382.689 485.462 385.206 487.473C387.22 489.082 386.103 493.998 385.294 496.254Z" fill="#3C3645" stroke="#88848E" stroke-width="0.661671"/>
<path d="M382.865 486.491C381.461 487.366 380.472 487.282 378.7 492.442C376.929 497.603 370.763 519.212 368.428 527.091C368.133 527.951 367.485 530.331 369.02 531.791" stroke="#88848E" stroke-width="0.661671"/>
<path d="M318.228 392.344C308.386 389.364 288.578 383.386 288.076 383.316C286.267 382.805 284.022 382.907 283.299 386.162C282.721 388.767 284.823 390.09 285.947 390.427C295.153 393.233 314.112 399.431 316.653 399.621C319.114 399.804 319.992 399.111 320.741 396.216C321.254 394.236 319.279 392.81 318.228 392.344Z" fill="#2B2B2B" stroke="white" stroke-width="0.661671"/>
<path d="M355.497 414.712C357.408 414.726 358.626 412.534 358.987 410.819C359.724 407.325 356.882 406.236 354.951 406.319C353.02 406.402 351.342 409.297 351.281 411.064C351.22 412.832 352.875 414.694 355.497 414.712Z" stroke="white" stroke-width="0.661671"/>
<mask id="mask2_6162_154705" style="mask-type:alpha" maskUnits="userSpaceOnUse" x="182" y="449" width="153" height="139">
<rect x="182.938" y="449.465" width="151.928" height="137.644" fill="url(#paint41_linear_6162_154705)"/>
</mask>
<g mask="url(#mask2_6162_154705)">
<rect x="0.764032" y="1.51047" width="82.1471" height="82.7993" transform="matrix(0.947386 0.320093 -0.30351 0.952828 233.428 465.53)" stroke="white" stroke-width="2.37323"/>
<path d="M245.705 470.435L226.066 488.29" stroke="white" stroke-width="0.263692"/>
<path d="M237.813 468.05L238.927 497.561M238.927 497.561L241.203 557.832M238.927 497.561L255.91 474.164M238.927 497.561L211.381 535.511M259.009 475.211L259.32 483.444M259.32 483.444L260.031 502.294M259.32 483.444L221.422 503.56L228.843 520.271M259.32 483.444L268.677 478.478L269.219 491.012M260.031 502.294L260.147 505.358M260.031 502.294L269.219 491.012M260.031 502.294L255.882 507.389M260.147 505.358L260.807 522.845M260.147 505.358L255.882 507.389M260.147 505.358L269.643 500.834M260.807 522.845L261.337 536.87M260.807 522.845L248.864 531.141M260.807 522.845L270.309 516.247M261.337 536.87L261.827 549.847M261.337 536.87L271.399 541.492M261.337 536.87L248.864 531.141M261.827 549.847L262.257 561.235M261.827 549.847L271.5 543.81M261.827 549.847L253.441 555.082M262.257 561.235L262.399 564.993M262.257 561.235L272.563 568.427L271.5 543.81M262.257 561.235L253.441 555.082M277.106 481.325L269.219 491.012M269.219 491.012L269.643 500.834M255.882 507.389L239.896 527.022M255.882 507.389L228.843 520.271M239.896 527.022L234.683 533.423M239.896 527.022L248.864 531.141M239.896 527.022L229.777 522.374M234.683 533.423L230.235 538.886M234.683 533.423L237.251 539.206M234.683 533.423L229.777 522.374M230.235 538.886L220.503 550.838L233.964 541.489M230.235 538.886L233.964 541.489M230.235 538.886L213.819 527.429L227.054 521.123M233.964 541.489L237.251 539.206M233.964 541.489L240.197 545.838M237.251 539.206L248.864 531.141M237.251 539.206L240.197 545.838M270.309 516.247L285.825 505.47M270.309 516.247L269.643 500.834M270.309 516.247L271.399 541.492M285.825 505.47L293.628 500.051M285.825 505.47L282.666 536.84M285.825 505.47L287.131 492.502M293.628 500.051L296.124 498.317M293.628 500.051L290.2 491.04M293.628 500.051L295.831 505.839M296.124 498.317L306.359 491.209L298.752 513.516M296.124 498.317L296.526 488.026L290.2 491.04M296.124 498.317L295.831 505.839M298.752 513.516L295.114 524.184M298.752 513.516L295.831 505.839M298.752 513.516L302.836 524.249L294.919 529.191M295.114 524.184L292.998 530.39M295.114 524.184L295.831 505.839M295.114 524.184L294.919 529.191M292.998 530.39L286.801 548.565M292.998 530.39L294.919 529.191M292.998 530.39L282.666 536.84M286.801 548.565L279.257 570.689L281.72 546.232M286.801 548.565L294.032 551.887L294.919 529.191M286.801 548.565L281.72 546.232M281.72 546.232L282.666 536.84M281.72 546.232L273.597 542.501M282.666 536.84L273.597 542.501M287.131 492.502L287.89 484.969L290.2 491.04M287.131 492.502L269.643 500.834M287.131 492.502L290.2 491.04M273.597 542.501L271.5 543.81M273.597 542.501L271.399 541.492M271.5 543.81L271.399 541.492M253.441 555.082L246.285 559.549L240.197 545.838M253.441 555.082L240.197 545.838M229.777 522.374L228.843 520.271M229.777 522.374L227.054 521.123M228.843 520.271L227.054 521.123M227.054 521.123L217.26 516.625" stroke="white" stroke-width="0.527384"/>
</g>
<path d="M207.414 481.809L326.451 521.051" stroke="url(#paint42_linear_6162_154705)" stroke-width="1.22235"/>
<path d="M226.334 460.21C227.238 457.403 230.261 455.876 233.057 456.814L318.188 485.378C320.936 486.3 322.431 489.26 321.543 492.018L313.461 517.124L218.292 485.192L226.334 460.21Z" fill="url(#paint43_linear_6162_154705)" stroke="url(#paint44_linear_6162_154705)" stroke-width="1.22235"/>
</g>
<rect x="1055.83" y="495.598" width="108.547" height="108.513" rx="24" fill="url(#paint45_linear_6162_154705)" fill-opacity="0.1"/>
<rect x="1055.83" y="495.598" width="108.547" height="108.513" rx="24" stroke="url(#paint46_linear_6162_154705)" stroke-width="2"/>
<rect x="1062.92" y="502.695" width="94.3484" height="94.3183" rx="16" stroke="url(#paint47_linear_6162_154705)"/>
<path d="M1055.77 589.406L1056.14 591.614C1058.18 603.638 1068.59 612.437 1080.79 612.437H1139.39C1151.81 612.437 1162.35 603.31 1164.13 591.012L1164.36 589.406" stroke="white" stroke-opacity="0.2"/>
<path d="M1142.6 536.577C1143.53 537.524 1143.53 539.051 1142.58 539.987L1106.74 575.387C1105.83 576.286 1104.38 576.318 1103.43 575.461L1080.37 554.623C1079.38 553.73 1079.3 552.205 1080.19 551.217L1087.74 542.868C1088.63 541.88 1090.16 541.803 1091.15 542.696L1104.06 554.366C1104.38 554.651 1104.86 554.641 1105.17 554.341L1131.28 528.552C1132.22 527.616 1133.75 527.625 1134.69 528.572L1142.6 536.577Z" fill="#D9D9D9" fill-opacity="0.1"/>
<path d="M1142.6 536.577C1143.53 537.524 1143.53 539.051 1142.58 539.987L1106.74 575.387C1105.83 576.286 1104.38 576.318 1103.43 575.461L1080.37 554.623C1079.38 553.73 1079.3 552.205 1080.19 551.217L1087.74 542.868C1088.63 541.88 1090.16 541.803 1091.15 542.696L1104.06 554.366C1104.38 554.651 1104.86 554.641 1105.17 554.341L1131.28 528.552C1132.22 527.616 1133.75 527.625 1134.69 528.572L1142.6 536.577Z" stroke="white" stroke-width="3"/>
<path d="M1144.3 537.797V539.411C1144.3 542.352 1143.12 545.171 1141.03 547.237L1109.83 578.057C1107.19 580.665 1102.97 580.759 1100.21 578.27L1082.2 561.997C1079.9 559.912 1078.58 556.946 1078.58 553.835V552.667" stroke="url(#paint48_linear_6162_154705)"/>
<mask id="mask3_6162_154705" style="mask-type:alpha" maskUnits="userSpaceOnUse" x="804" y="187" width="362" height="406">
<path d="M804 187H1166V495H1085C1068.43 495 1055 508.431 1055 525V593H804V187Z" fill="#D9D9D9"/>
</mask>
<g mask="url(#mask3_6162_154705)">
<path d="M838 204.5H1130C1136.35 204.5 1141.5 209.649 1141.5 216V568C1141.5 574.351 1136.35 579.5 1130 579.5H838C831.649 579.5 826.5 574.351 826.5 568V216C826.5 209.649 831.649 204.5 838 204.5Z" fill="url(#paint49_linear_6162_154705)" fill-opacity="0.1" stroke="url(#paint50_linear_6162_154705)"/>
<path d="M1050.15 325.066C1049.35 329.095 1048.45 332.599 1047.83 335.2C1052.28 337.223 1052.62 343.629 1052.62 345.99C1052.62 348.35 1050.22 364.872 1049.2 372.29C1048.38 378.224 1040.88 380.157 1037.23 380.382C1034.26 390.16 1027.65 412.482 1024.91 423.541C1029.7 438.377 1047.15 446.807 1055.7 447.819C1064.25 448.83 1084.77 452.539 1100.85 458.608C1116.92 464.678 1120 480.862 1120 488.955C1120 506.599 1108.89 522.391 1092.13 528.582L1059.3 540.71C1011.33 558.43 958.464 558.43 910.489 540.71L877.655 528.582C860.895 522.391 849.789 506.599 849.789 488.955C849.789 480.862 852.868 464.678 868.944 458.608C885.019 452.539 905.542 448.83 914.093 447.819C922.644 446.807 940.088 438.377 944.876 423.541C942.14 412.482 935.527 390.16 932.563 380.382C928.914 380.157 921.412 378.224 920.591 372.29C919.565 364.872 917.171 348.35 917.171 345.99C917.171 343.629 917.513 337.223 921.96 335.2C921.247 332.216 920.165 328.045 919.29 323.256C964.316 300.64 1026.05 308.776 1050.15 325.066Z" fill="url(#paint51_linear_6162_154705)" fill-opacity="0.1"/>
<path d="M914.323 266.737C913.892 285.882 914.669 301.686 917.199 322.519C917.407 324.232 919.852 324.827 921.049 323.599C929.533 314.894 948.556 308.773 985.789 308.773C1034.11 308.773 1052.1 325.061 1052.07 327.775L1052.69 266.245C1052.85 249.289 1043.02 233.387 1027.02 228.32C1014.67 224.408 999.816 221 984.966 221C966.791 221 947.175 227.32 932.982 234.173C920.754 240.078 914.632 253.037 914.323 266.737Z" fill="url(#paint52_linear_6162_154705)" fill-opacity="0.1"/>
<path d="M1047.41 324.156L1046.04 335.198C1050.49 337.221 1050.83 343.628 1050.83 345.988C1050.83 348.348 1048.43 364.87 1047.41 372.288C1046.59 378.223 1039.09 380.156 1035.44 380.381C1032.47 390.159 1025.86 412.48 1023.12 423.54C1027.91 438.376 1045.36 446.805 1053.91 447.817C1062.46 448.829 1082.98 452.538 1099.06 458.607C1115.13 464.676 1118.21 480.861 1118.21 488.953C1118.21 506.597 1107.11 522.39 1090.34 528.58L1057.51 540.708C1009.54 558.429 956.675 558.429 908.7 540.708L875.866 528.58C859.105 522.39 848 506.597 848 488.953C848 480.861 851.078 464.676 867.154 458.607C883.23 452.538 903.752 448.829 912.303 447.817C920.854 446.805 938.298 438.376 943.087 423.54C940.35 412.48 933.738 390.159 930.773 380.381C927.125 380.156 919.623 378.223 918.802 372.288C917.776 364.87 915.382 348.348 915.382 345.988C915.382 343.628 915.724 337.221 920.17 335.198V324.156M1047.83 335.2C1052.28 337.223 1052.62 343.629 1052.62 345.99C1052.62 348.35 1050.22 364.872 1049.2 372.29C1048.38 378.224 1040.88 380.157 1037.23 380.382C1034.26 390.16 1027.65 412.482 1024.91 423.541C1029.7 438.377 1047.15 446.807 1055.7 447.819C1064.25 448.83 1084.77 452.539 1100.85 458.608C1116.92 464.678 1120 480.862 1120 488.955C1120 506.599 1108.89 522.391 1092.13 528.582L1059.3 540.71C1011.33 558.43 958.464 558.43 910.489 540.71L877.655 528.582C860.895 522.391 849.789 506.599 849.789 488.955C849.789 480.862 852.868 464.678 868.944 458.608C885.019 452.539 905.542 448.83 914.093 447.819C922.644 446.807 940.088 438.377 944.876 423.541C942.14 412.482 935.527 390.16 932.563 380.382C928.914 380.157 921.412 378.224 920.591 372.29C919.565 364.872 917.171 348.35 917.171 345.99C917.171 343.629 917.513 337.223 921.96 335.2C921.247 332.216 920.165 328.045 919.29 323.256C964.316 300.64 1026.05 308.776 1050.15 325.066C1049.35 329.095 1048.45 332.599 1047.83 335.2ZM917.199 322.519C914.669 301.686 913.892 285.882 914.323 266.737C914.632 253.037 920.754 240.078 932.982 234.173C947.175 227.32 966.791 221 984.966 221C999.816 221 1014.67 224.408 1027.02 228.32C1043.02 233.387 1052.85 249.289 1052.69 266.245L1052.07 327.775C1052.1 325.061 1034.11 308.773 985.789 308.773C948.556 308.773 929.533 314.894 921.049 323.599C919.852 324.827 917.407 324.232 917.199 322.519Z" stroke="url(#paint53_linear_6162_154705)" stroke-width="0.789474"/>
<path d="M930.93 403.489V372.456C930.93 369.799 932.418 367.359 934.827 366.18C947.972 359.748 971.197 349.805 983.288 349.805C995.376 349.805 1018.43 359.743 1031.47 366.175C1033.87 367.357 1035.35 369.791 1035.35 372.439V403.511C1035.35 404.735 1035.04 405.935 1034.4 406.987C1026.13 420.71 1005.83 445.29 983.288 445.29C960.75 445.29 940.274 420.725 931.893 407C931.246 405.94 930.93 404.727 930.93 403.489Z" fill="#D9D9D9" fill-opacity="0.1"/>
<path d="M930.812 401.962V370.929C930.812 368.272 932.301 365.831 934.71 364.652C947.854 358.22 971.08 348.277 983.171 348.277C995.259 348.277 1018.31 358.215 1031.35 364.647C1033.75 365.83 1035.23 368.264 1035.23 370.912V401.983C1035.23 403.208 1034.92 404.407 1034.29 405.459C1026.01 419.182 1005.72 443.763 983.171 443.763C960.632 443.763 940.157 419.198 931.776 405.472C931.129 404.412 930.812 403.2 930.812 401.962Z" stroke="white"/>
<ellipse cx="983.021" cy="384.878" rx="52.2085" ry="12.2798" stroke="white" stroke-width="0.434955"/>
<path d="M1035.23 401.008C1035.23 409.314 1011.85 416.047 983.021 416.047C954.187 416.047 930.812 409.314 930.812 401.008" stroke="white" stroke-width="0.434955"/>
<path d="M977.085 353.677C983.782 351.563 995.466 355.082 1001.74 357.051C1008.72 360.143 1008.15 367.9 985.777 365.077C967.02 362.71 945.991 373.589 950.297 383.802C954.572 393.939 970.246 389.441 984.495 388.877C998.743 388.314 989.339 404.505 978.225 403.238C975.253 402.899 959.941 397.972 957.422 404.083C953.489 413.62 966.216 413.179 972.383 421.259C978.938 429.847 966.114 433.508 960.984 429.847C955.854 426.187 942.888 412.53 938.044 406.476C933.199 400.422 935.621 399.155 935.621 394.791C935.621 390.426 935.336 376.066 935.621 373.813C935.906 371.56 938.044 369.589 940.323 368.463C942.603 367.337 955.705 360.427 977.085 353.677Z" fill="#D9D9D9" fill-opacity="0.12"/>
</g>
<defs>
<filter id="filter0_d_6162_154705" x="1313" y="334" width="272" height="151" filterUnits="userSpaceOnUse" color-interpolation-filters="sRGB">
<feFlood flood-opacity="0" result="BackgroundImageFix"/>
<feColorMatrix in="SourceAlpha" type="matrix" values="0 0 0 0 0 0 0 0 0 0 0 0 0 0 0 0 0 0 127 0" result="hardAlpha"/>
<feOffset/>
<feGaussianBlur stdDeviation="2"/>
<feComposite in2="hardAlpha" operator="out"/>
<feColorMatrix type="matrix" values="0 0 0 0 0.305882 0 0 0 0 0.886275 0 0 0 0 0.807843 0 0 0 1 0"/>
<feBlend mode="normal" in2="BackgroundImageFix" result="effect1_dropShadow_6162_154705"/>
<feBlend mode="normal" in="SourceGraphic" in2="effect1_dropShadow_6162_154705" result="shape"/>
</filter>
<linearGradient id="paint0_linear_6162_154705" x1="1431.96" y1="308.845" x2="1562.71" y2="388.072" gradientUnits="userSpaceOnUse">
<stop stop-color="#D9D9D9"/>
<stop offset="1" stop-color="#D9D9D9" stop-opacity="0.5"/>
</linearGradient>
<linearGradient id="paint1_linear_6162_154705" x1="1375.96" y1="252.526" x2="1533.05" y2="324.139" gradientUnits="userSpaceOnUse">
<stop stop-color="white"/>
<stop offset="1" stop-color="white" stop-opacity="0.2"/>
</linearGradient>
<linearGradient id="paint2_linear_6162_154705" x1="1432.14" y1="374.293" x2="1515.97" y2="457.481" gradientUnits="userSpaceOnUse">
<stop stop-color="#D9D9D9"/>
<stop offset="1" stop-color="#D9D9D9" stop-opacity="0.5"/>
</linearGradient>
<linearGradient id="paint3_linear_6162_154705" x1="1380.02" y1="342.284" x2="1493.42" y2="426.944" gradientUnits="userSpaceOnUse">
<stop stop-color="white"/>
<stop offset="1" stop-color="white" stop-opacity="0.2"/>
</linearGradient>
<linearGradient id="paint4_linear_6162_154705" x1="1380.58" y1="369.284" x2="1493.71" y2="453.044" gradientUnits="userSpaceOnUse">
<stop stop-color="white"/>
<stop offset="1" stop-color="white" stop-opacity="0.2"/>
</linearGradient>
<linearGradient id="paint5_linear_6162_154705" x1="1380.58" y1="397.284" x2="1493.71" y2="481.044" gradientUnits="userSpaceOnUse">
<stop stop-color="white"/>
<stop offset="1" stop-color="white" stop-opacity="0.2"/>
</linearGradient>
<linearGradient id="paint6_linear_6162_154705" x1="1338" y1="402" x2="1452" y2="402" gradientUnits="userSpaceOnUse">
<stop stop-color="#D0D0D0"/>
<stop offset="1" stop-color="#959595"/>
</linearGradient>
<linearGradient id="paint7_linear_6162_154705" x1="1338" y1="429" x2="1418" y2="429" gradientUnits="userSpaceOnUse">
<stop stop-color="#D0D0D0"/>
<stop offset="1" stop-color="#959595"/>
</linearGradient>
<linearGradient id="paint8_linear_6162_154705" x1="1500.96" y1="415.845" x2="1631.71" y2="495.072" gradientUnits="userSpaceOnUse">
<stop stop-color="#D9D9D9"/>
<stop offset="1" stop-color="#D9D9D9" stop-opacity="0.5"/>
</linearGradient>
<linearGradient id="paint9_linear_6162_154705" x1="1444.96" y1="359.526" x2="1602.05" y2="431.139" gradientUnits="userSpaceOnUse">
<stop stop-color="white"/>
<stop offset="1" stop-color="white" stop-opacity="0.2"/>
</linearGradient>
<linearGradient id="paint10_linear_6162_154705" x1="1501.14" y1="481.293" x2="1584.97" y2="564.481" gradientUnits="userSpaceOnUse">
<stop stop-color="#D9D9D9"/>
<stop offset="1" stop-color="#D9D9D9" stop-opacity="0.5"/>
</linearGradient>
<linearGradient id="paint11_linear_6162_154705" x1="1449.02" y1="449.284" x2="1562.42" y2="533.944" gradientUnits="userSpaceOnUse">
<stop stop-color="white"/>
<stop offset="1" stop-color="white" stop-opacity="0.2"/>
</linearGradient>
<linearGradient id="paint12_linear_6162_154705" x1="1449.58" y1="476.284" x2="1562.71" y2="560.044" gradientUnits="userSpaceOnUse">
<stop stop-color="white"/>
<stop offset="1" stop-color="white" stop-opacity="0.2"/>
</linearGradient>
<linearGradient id="paint13_linear_6162_154705" x1="1449.58" y1="504.284" x2="1562.71" y2="588.044" gradientUnits="userSpaceOnUse">
<stop stop-color="white"/>
<stop offset="1" stop-color="white" stop-opacity="0.2"/>
</linearGradient>
<linearGradient id="paint14_linear_6162_154705" x1="1407" y1="509" x2="1521" y2="509" gradientUnits="userSpaceOnUse">
<stop stop-color="#D0D0D0"/>
<stop offset="1" stop-color="#959595"/>
</linearGradient>
<linearGradient id="paint15_linear_6162_154705" x1="1407" y1="536" x2="1487" y2="536" gradientUnits="userSpaceOnUse">
<stop stop-color="#D0D0D0"/>
<stop offset="1" stop-color="#959595"/>
</linearGradient>
<linearGradient id="paint16_linear_6162_154705" x1="1585.96" y1="210.845" x2="1716.71" y2="290.072" gradientUnits="userSpaceOnUse">
<stop stop-color="#D9D9D9"/>
<stop offset="1" stop-color="#D9D9D9" stop-opacity="0.5"/>
</linearGradient>
<linearGradient id="paint17_linear_6162_154705" x1="1529.96" y1="154.526" x2="1687.05" y2="226.139" gradientUnits="userSpaceOnUse">
<stop stop-color="white"/>
<stop offset="1" stop-color="white" stop-opacity="0.2"/>
</linearGradient>
<linearGradient id="paint18_linear_6162_154705" x1="1586.14" y1="276.293" x2="1669.97" y2="359.481" gradientUnits="userSpaceOnUse">
<stop stop-color="#D9D9D9"/>
<stop offset="1" stop-color="#D9D9D9" stop-opacity="0.5"/>
</linearGradient>
<linearGradient id="paint19_linear_6162_154705" x1="1534.02" y1="244.284" x2="1647.42" y2="328.944" gradientUnits="userSpaceOnUse">
<stop stop-color="white"/>
<stop offset="1" stop-color="white" stop-opacity="0.2"/>
</linearGradient>
<linearGradient id="paint20_linear_6162_154705" x1="1534.58" y1="271.284" x2="1647.71" y2="355.044" gradientUnits="userSpaceOnUse">
<stop stop-color="white"/>
<stop offset="1" stop-color="white" stop-opacity="0.2"/>
</linearGradient>
<linearGradient id="paint21_linear_6162_154705" x1="1534.58" y1="299.284" x2="1647.71" y2="383.044" gradientUnits="userSpaceOnUse">
<stop stop-color="white"/>
<stop offset="1" stop-color="white" stop-opacity="0.2"/>
</linearGradient>
<linearGradient id="paint22_linear_6162_154705" x1="1492" y1="304" x2="1606" y2="304" gradientUnits="userSpaceOnUse">
<stop stop-color="#D0D0D0"/>
<stop offset="1" stop-color="#959595"/>
</linearGradient>
<linearGradient id="paint23_linear_6162_154705" x1="1492" y1="331" x2="1572" y2="331" gradientUnits="userSpaceOnUse">
<stop stop-color="#D0D0D0"/>
<stop offset="1" stop-color="#959595"/>
</linearGradient>
<linearGradient id="paint24_linear_6162_154705" x1="1374.83" y1="248.009" x2="1535.06" y2="320.097" gradientUnits="userSpaceOnUse">
<stop stop-color="#4FE2CE"/>
<stop offset="1" stop-color="#4FE2CE"/>
</linearGradient>
<radialGradient id="paint25_radial_6162_154705" cx="0" cy="0" r="1" gradientUnits="userSpaceOnUse" gradientTransform="translate(488.089 413.396) rotate(-179.127) scale(234.412 224.997)">
<stop offset="0.344819" stop-color="#D9D9D9"/>
<stop offset="1" stop-color="#D9D9D9" stop-opacity="0"/>
</radialGradient>
<linearGradient id="paint26_linear_6162_154705" x1="553.516" y1="186.803" x2="553.516" y2="604.93" gradientUnits="userSpaceOnUse">
<stop stop-color="white" stop-opacity="0"/>
<stop offset="0.485577" stop-color="white"/>
<stop offset="1" stop-color="white" stop-opacity="0"/>
</linearGradient>
<linearGradient id="paint27_linear_6162_154705" x1="571.695" y1="186.803" x2="571.695" y2="604.93" gradientUnits="userSpaceOnUse">
<stop stop-color="white" stop-opacity="0"/>
<stop offset="0.485577" stop-color="white"/>
<stop offset="1" stop-color="white" stop-opacity="0"/>
</linearGradient>
<linearGradient id="paint28_linear_6162_154705" x1="523.801" y1="348.147" x2="371.517" y2="392.107" gradientUnits="userSpaceOnUse">
<stop stop-color="#D9D9D9"/>
<stop offset="1" stop-color="#D9D9D9" stop-opacity="0.1"/>
</linearGradient>
<linearGradient id="paint29_linear_6162_154705" x1="505.946" y1="362.106" x2="387.866" y2="360.463" gradientUnits="userSpaceOnUse">
<stop stop-color="white"/>
<stop offset="1" stop-color="white" stop-opacity="0.1"/>
</linearGradient>
<linearGradient id="paint30_linear_6162_154705" x1="182.141" y1="196.692" x2="182.141" y2="467.151" gradientUnits="userSpaceOnUse">
<stop stop-color="white" stop-opacity="0"/>
<stop offset="0.485577" stop-color="white"/>
<stop offset="1" stop-color="white" stop-opacity="0"/>
</linearGradient>
<linearGradient id="paint31_linear_6162_154705" x1="287.511" y1="441.386" x2="554.124" y2="338.422" gradientUnits="userSpaceOnUse">
<stop stop-color="#1DA593"/>
<stop offset="1" stop-color="#1DA593" stop-opacity="0"/>
</linearGradient>
<linearGradient id="paint32_linear_6162_154705" x1="329.289" y1="467.869" x2="446.069" y2="369.893" gradientUnits="userSpaceOnUse">
<stop stop-color="#4FE2CE"/>
<stop offset="1" stop-color="#4FE2CE" stop-opacity="0"/>
</linearGradient>
<linearGradient id="paint33_linear_6162_154705" x1="351.785" y1="512.051" x2="323.869" y2="593.667" gradientUnits="userSpaceOnUse">
<stop stop-color="#36353D"/>
<stop offset="1" stop-color="#36353D" stop-opacity="0"/>
</linearGradient>
<linearGradient id="paint34_linear_6162_154705" x1="363.557" y1="494.798" x2="325.555" y2="601.117" gradientUnits="userSpaceOnUse">
<stop stop-color="#8E8B9B"/>
<stop offset="1" stop-color="#8E8B9B" stop-opacity="0"/>
</linearGradient>
<linearGradient id="paint35_linear_6162_154705" x1="304.932" y1="434.984" x2="259.052" y2="577.116" gradientUnits="userSpaceOnUse">
<stop stop-color="#1E1E1E"/>
<stop offset="0.605085" stop-color="#605C72" stop-opacity="0.3"/>
<stop offset="0.789295" stop-color="#605C72" stop-opacity="0.05"/>
<stop offset="0.938169" stop-color="#605C72" stop-opacity="0"/>
</linearGradient>
<linearGradient id="paint36_linear_6162_154705" x1="290.033" y1="461.599" x2="250.301" y2="572.073" gradientUnits="userSpaceOnUse">
<stop stop-color="white"/>
<stop offset="1" stop-color="white" stop-opacity="0"/>
</linearGradient>
<linearGradient id="paint37_linear_6162_154705" x1="283.64" y1="373.99" x2="254.86" y2="599.404" gradientUnits="userSpaceOnUse">
<stop stop-color="#2B2B2B"/>
<stop offset="1" stop-color="#605C72" stop-opacity="0"/>
</linearGradient>
<linearGradient id="paint38_linear_6162_154705" x1="291.866" y1="432.964" x2="254.037" y2="559.307" gradientUnits="userSpaceOnUse">
<stop stop-color="white"/>
<stop offset="1" stop-color="white" stop-opacity="0"/>
</linearGradient>
<linearGradient id="paint39_linear_6162_154705" x1="288.989" y1="470.941" x2="249.822" y2="589.25" gradientUnits="userSpaceOnUse">
<stop stop-color="#141421"/>
<stop offset="1" stop-color="#111128" stop-opacity="0"/>
</linearGradient>
<linearGradient id="paint40_linear_6162_154705" x1="294.257" y1="426.756" x2="253.934" y2="561.162" gradientUnits="userSpaceOnUse">
<stop stop-color="#1C1C2D"/>
<stop offset="1" stop-opacity="0"/>
</linearGradient>
<linearGradient id="paint41_linear_6162_154705" x1="243.968" y1="484.201" x2="214.752" y2="587.109" gradientUnits="userSpaceOnUse">
<stop stop-color="#D9D9D9"/>
<stop offset="0.995699" stop-color="#737373" stop-opacity="0"/>
</linearGradient>
<linearGradient id="paint42_linear_6162_154705" x1="211.843" y1="481.819" x2="300.525" y2="550.328" gradientUnits="userSpaceOnUse">
<stop stop-color="#4FE2CE" stop-opacity="0.194709"/>
<stop offset="0.191376" stop-color="#4FE2CE"/>
<stop offset="0.85185" stop-color="#4FE2CE"/>
<stop offset="1" stop-color="#4FE2CE" stop-opacity="0"/>
</linearGradient>
<linearGradient id="paint43_linear_6162_154705" x1="251.666" y1="503.908" x2="265.146" y2="464.022" gradientUnits="userSpaceOnUse">
<stop stop-color="#1DA593"/>
<stop offset="1" stop-color="#1DA593" stop-opacity="0"/>
</linearGradient>
<linearGradient id="paint44_linear_6162_154705" x1="244.9" y1="535.379" x2="266.121" y2="471.214" gradientUnits="userSpaceOnUse">
<stop stop-color="#4FE2CE"/>
<stop offset="1" stop-color="#4FE2CE" stop-opacity="0"/>
</linearGradient>
<linearGradient id="paint45_linear_6162_154705" x1="1110.1" y1="495.598" x2="1110.1" y2="604.11" gradientUnits="userSpaceOnUse">
<stop stop-color="white" stop-opacity="0.5"/>
<stop offset="1" stop-color="white" stop-opacity="0.05"/>
</linearGradient>
<linearGradient id="paint46_linear_6162_154705" x1="1110.1" y1="495.598" x2="1110.1" y2="604.11" gradientUnits="userSpaceOnUse">
<stop stop-color="white"/>
<stop offset="1" stop-color="white" stop-opacity="0.5"/>
</linearGradient>
<linearGradient id="paint47_linear_6162_154705" x1="1110.1" y1="502.695" x2="1110.1" y2="597.014" gradientUnits="userSpaceOnUse">
<stop stop-color="white"/>
<stop offset="1" stop-color="white" stop-opacity="0.5"/>
</linearGradient>
<linearGradient id="paint48_linear_6162_154705" x1="1109.35" y1="501.955" x2="1111.44" y2="571.302" gradientUnits="userSpaceOnUse">
<stop stop-color="white"/>
<stop offset="1" stop-color="white" stop-opacity="0.2"/>
</linearGradient>
<linearGradient id="paint49_linear_6162_154705" x1="963.288" y1="119.724" x2="1165.55" y2="174.792" gradientUnits="userSpaceOnUse">
<stop stop-color="#D9D9D9"/>
<stop offset="1" stop-color="#D9D9D9" stop-opacity="0.5"/>
</linearGradient>
<linearGradient id="paint50_linear_6162_154705" x1="895.226" y1="-32.6207" x2="1116.55" y2="12.7103" gradientUnits="userSpaceOnUse">
<stop stop-color="white"/>
<stop offset="1" stop-color="white" stop-opacity="0.2"/>
</linearGradient>
<linearGradient id="paint51_linear_6162_154705" x1="1019.13" y1="260.873" x2="868.853" y2="324.715" gradientUnits="userSpaceOnUse">
<stop stop-color="#D9D9D9"/>
<stop offset="1" stop-color="#D9D9D9" stop-opacity="0.5"/>
</linearGradient>
<linearGradient id="paint52_linear_6162_154705" x1="999.051" y1="252.941" x2="947.863" y2="295.725" gradientUnits="userSpaceOnUse">
<stop stop-color="#D9D9D9"/>
<stop offset="1" stop-color="#D9D9D9" stop-opacity="0.5"/>
</linearGradient>
<linearGradient id="paint53_linear_6162_154705" x1="1011.85" y1="243.429" x2="939.451" y2="269.698" gradientUnits="userSpaceOnUse">
<stop stop-color="#999999" stop-opacity="0.2"/>
<stop offset="1" stop-color="white"/>
</linearGradient>
<clipPath id="clip0_6162_154705">
<rect width="284.519" height="372.846" fill="white" transform="translate(194.227 298.648) rotate(16.6686)"/>
</clipPath>
</defs>
</svg>
