<svg width="80" height="80" viewBox="0 0 80 80" fill="none" xmlns="http://www.w3.org/2000/svg">
<path d="M44.0622 13.0113C45.3963 13.8435 46.6615 14.7763 47.8432 15.8C58.775 24.9827 61.0768 41.8916 53.6552 53.2138C46.6489 64.8468 31.0908 69.4669 19.3902 64.1823C18.0933 63.6252 16.8439 62.9668 15.6531 62.2172C16.8976 62.8738 18.1861 63.4304 19.5059 63.8812C31.4849 68.1784 45.5193 62.3477 50.8653 51.603C56.647 41.0389 53.2029 27.0951 43.997 20.5616C42.9974 19.8232 41.9419 19.165 40.8406 18.5913C40.0842 18.1928 39.5298 17.5144 39.3089 16.6888C39.0875 15.864 39.2177 14.9591 39.6614 14.1905C40.1052 13.4218 40.8237 12.8567 41.6488 12.636C42.4742 12.4145 43.3389 12.5555 44.0622 13.0113Z" fill="white"/>
<path d="M40.1482 13.6737C35.4961 11.502 26.6901 17.6827 32.1832 29.1078C39.0497 43.3891 32.1832 47.609 23.6939 44.609" stroke="white" stroke-opacity="0.15" stroke-width="2" stroke-linecap="round"/>
</svg>
