<svg width="702" height="463" viewBox="0 0 702 463" fill="none" xmlns="http://www.w3.org/2000/svg">
<path d="M553.673 47.0813C561.38 61.2236 560.096 76.6516 562.665 92.0797C563.949 83.08 575.51 84.3613 584.502 88.2183C593.494 92.0753 596.063 116.503 598.633 147.359C600.688 172.044 599.84 210.133 598.633 225.633C597.425 241.133 609.414 246.395 606.34 270.782C605.697 275.884 606.34 308.067 602.486 331.209C598.633 354.351 583.218 395.492 579.364 404.492C576.281 411.691 578.08 440.919 579.364 454.633L454.762 445.64C455.618 434.926 456.817 412.47 454.762 408.356C452.193 403.213 453.477 396.785 454.762 394.213C450.908 389.071 426.502 365.928 421.364 349.215C416.225 332.501 408.518 323.501 405.949 317.073C403.38 310.645 398.242 290.074 402.095 268.218C405.949 246.361 402.095 241.219 399.526 234.79C396.957 228.362 396.957 212.934 395.672 205.22C394.388 197.506 387.965 188.506 386.68 183.364C385.396 178.221 386.68 160.222 409.802 170.507C432.924 180.792 433.34 188.133 436.34 191.633C437.624 186.49 444.486 146.072 444.486 133.216C444.486 120.359 448.339 106.217 450.908 88.2173C453.477 70.2179 461.185 43.2188 481.738 47.0759C483.682 47.4407 485.282 48.0703 486.586 48.922C486.158 46.3359 488.444 36.8565 490.729 27.6875C492.114 22.1323 499.722 12.718 509.998 14.9761C521.55 17.5145 525.063 34.5767 526.84 38.1328C530.694 27.8475 545.966 32.9389 553.673 47.0813Z" fill="url(#paint0_linear_4794_67507)" fill-opacity="0.1"/>
<path d="M539.543 183.362C546.394 185.505 560.866 191.076 563.949 196.219C566.519 174.362 566.519 169.22 566.519 153.792C566.519 138.364 565.234 107.508 562.665 92.0797C560.096 76.6516 561.38 61.2236 553.673 47.0813C545.966 32.9389 529.266 29.0819 525.413 39.3672M495.868 176.825C503.147 177.254 518.99 178.368 524.128 179.396C524.128 169.111 529.266 151.112 529.266 142.112C529.266 133.112 527.982 124.113 527.982 115.113C527.982 106.113 529.266 81.6856 527.982 73.9716C526.697 66.2575 527.982 39.2585 524.128 31.5445C522.351 27.9884 521.55 17.5145 509.998 14.9761C499.722 12.718 492.114 22.1323 490.729 27.6875C488.444 36.8565 486.158 46.3359 486.586 48.922M486.586 48.922C486.639 49.2428 486.734 49.4575 486.876 49.5524M486.586 48.922C499.072 57.0734 484.55 85.5765 486.876 97.2169C489.445 110.074 486.876 138.358 486.876 146.072C486.876 153.786 486.876 171.786 484.307 179.396C482.252 185.485 464.61 188.859 456.047 189.785M486.586 48.922C485.282 48.0703 483.682 47.4407 481.738 47.0759C461.185 43.2188 453.477 70.2179 450.908 88.2173C448.339 106.217 444.486 120.359 444.486 133.216C444.486 146.072 438.063 184.642 436.778 189.785M579.364 454.633C578.08 440.919 576.281 411.691 579.364 404.492C583.218 395.492 598.633 354.351 602.486 331.209C606.34 308.067 606.34 275.925 606.34 270.782V245.069C606.34 236.069 597.348 218.07 574.226 203.927M598.633 225.785C599.489 209.928 600.688 172.044 598.633 147.359C596.063 116.503 593.494 92.0753 584.502 88.2183C575.51 84.3613 565.234 85.647 563.949 94.6467M490.73 198.785C498.865 213.784 518.476 245.326 531.835 251.497C548.535 259.211 588.356 259.211 594.779 265.64C601.202 272.068 606.34 270.782 606.34 275.925M454.762 445.64C455.618 434.926 456.817 412.47 454.762 408.356C452.193 403.213 453.477 396.785 454.762 394.213C450.908 389.071 426.502 365.929 421.364 349.215C416.225 332.501 408.518 323.501 405.949 317.073C403.38 310.645 398.242 290.074 402.095 268.218C405.949 246.361 402.095 241.219 399.526 234.79C396.957 228.362 396.957 212.934 395.672 205.22C394.388 197.506 387.965 188.506 386.68 183.364C385.396 178.221 386.68 160.222 409.802 170.507C432.924 180.792 441.916 200.084 443.201 205.22C444.486 210.356 443.201 215.498 439.347 215.498M427.786 311.924C434.637 300.353 448.853 274.125 450.908 261.783C452.824 250.279 453.311 241.635 452.37 234.783M443.201 212.927C447.055 216.784 448.339 220.641 450.908 228.355C451.562 230.317 452.049 232.446 452.37 234.783M452.37 234.783C454.88 233.926 461.699 233.498 468.892 238.64C477.884 245.069 489.445 263.068 502.291 269.497" stroke="url(#paint1_linear_4794_67507)" stroke-width="2"/>
<path d="M482.84 58.6291C487.84 60.1291 486.84 55.1291 485.34 53.6291C472.34 45.13 462.84 59.6291 459.84 66.1291C453.378 80.1299 455.34 93.6299 452.34 109.13C449.873 121.874 446.84 154.129 446.84 164.629C448.84 148.63 453.408 128.425 454.84 124.13C457.84 115.13 456.34 88.1299 464.84 70.1291C470.194 58.7898 477.84 57.1291 482.84 58.6291Z" fill="#D9D9D9" fill-opacity="0.15"/>
<path d="M439.84 208.13C440.64 211.73 436.173 213.963 433.84 214.63C436.84 203.63 420.84 190.63 416.84 187.13C412.84 183.63 402.34 181.63 398.34 182.63C394.34 183.63 391.34 180.63 391.34 177.13C391.34 173.63 396.34 171.13 399.84 171.63C403.34 172.13 409.34 172.63 421.84 182.63C434.34 192.63 438.84 203.63 439.84 208.13Z" fill="#D9D9D9" fill-opacity="0.15"/>
<path d="M506.557 19.5567C511.072 19.4541 514.458 23.3536 516.716 26.5348C520.821 31.1511 514.151 31.874 512.611 29.3085C511.072 26.743 510.969 25.5116 506.557 25.5116C502.144 25.5116 498.347 29.3085 497.424 31.874C496.5 34.4395 494.755 42.4439 494.755 45.3173C494.755 48.1906 497.526 55.4767 495.576 59.5815C495.658 53.2601 492.532 48.1906 490.958 46.4461C491.711 42.5123 493.524 33.5775 494.755 29.3085C496.295 23.9723 502.041 19.6593 506.557 19.5567Z" fill="#D9D9D9" fill-opacity="0.15"/>
<mask id="mask0_4794_67507" style="mask-type:alpha" maskUnits="userSpaceOnUse" x="-95" y="-41" width="658" height="496">
<ellipse cx="233.809" cy="206.816" rx="328.657" ry="247.816" fill="url(#paint2_linear_4794_67507)"/>
</mask>
<g mask="url(#mask0_4794_67507)">
<path d="M81.6421 150.786L98.9158 153.55M88.1419 149.204L96.2213 150.496M75.4576 152.018L101.128 156.125M76.1426 154.639L103.125 158.743M78.064 157.054L105.457 161.437M80.3138 159.859L108.015 164.292M82.4858 162.395L110.149 166.821M84.8006 165.072L112.524 169.508M86.8833 167.711L114.5 172.13M89.1947 170.385L116.898 174.819M91.5108 173.063L118.981 177.458M93.598 175.707L121.295 180.135M95.6755 178.34L123.607 182.809M97.9978 181.025L125.922 185.487M100.305 183.694L128.005 188.126M102.398 186.344L130.32 190.803M104.706 189.014L132.633 193.479M106.784 191.649L134.716 196.118M109.329 194.363L137.03 198.794M111.414 197.003L139.113 201.434M113.498 199.643L141.409 204.107M115.805 202.323L143.512 206.751M118.17 204.999L145.823 209.425M120.203 207.63L147.906 212.064M122.518 210.307L151.143 214.888M124.607 212.952L154.612 217.75M126.922 215.63L158.062 220.608M129.694 218.376L161.317 223.435M133.158 221.233L164.785 226.295M136.63 224.098L168.253 229.156M139.982 226.943L171.563 231.992M143.319 229.767L174.958 234.841M146.797 232.638L178.426 237.702M150.277 235.511L181.888 240.562M153.518 238.338L185.132 243.387M156.967 241.18L188.599 246.247M160.436 244.042L192.067 249.108M163.91 246.909L195.389 251.946M167.151 249.736L198.773 254.794M170.556 252.586L202.14 257.638M174.085 255.457L205.479 260.48M177.556 258.32L208.946 263.339M187.846 266.982L219.336 272.02M180.791 261.142L212.413 266.199M191.086 269.809L218.325 274.167M184.258 264.002L215.651 269.024M194.55 272.666L211.914 275.444M198.013 275.522L205.505 276.72" stroke="white" stroke-width="1.20555" stroke-linecap="round" stroke-linejoin="round" stroke-dasharray="0.4 3.62"/>
<path d="M382.075 11.0391L382.608 10.9685M373.577 15.2015L385.574 13.6146M369.81 18.6682L388.731 16.1579M372.7 21.2461L391.355 18.7717M375.586 23.8207L394.512 21.3151M378.476 26.3991L397.136 23.9289M381.372 28.9822L400.294 26.4731M383.885 31.2244L402.807 28.7153M386.399 33.4667L405.321 30.9576M388.912 35.7089L407.834 33.1998M391.425 37.9511L410.347 35.442M393.939 40.1934L412.861 37.6843M396.452 42.4356L415.374 39.9265M398.966 44.6778L417.888 42.1688M401.479 46.9201L420.401 44.411M403.992 49.1623L422.914 46.6532M406.506 51.4046L425.428 48.8955M409.019 53.6468L427.941 51.1377M411.533 55.889L430.455 53.3799M414.046 58.1313L432.968 55.6222M416.56 60.3735L435.482 57.8644M419.073 62.6157L437.995 60.1066M421.586 64.858L440.508 62.3489M424.1 67.1002L443.022 64.5911M426.613 69.3424L445.535 66.8334M429.127 71.5847L448.049 69.0756M431.64 73.8269L450.562 71.3178M434.153 76.0691L453.075 73.5601M436.667 78.3114L455.589 75.8023M439.18 80.5537L458.102 78.0446M441.694 82.7959L460.616 80.2868M444.207 85.0381L463.129 82.529M446.721 87.2804L465.642 84.7713M449.234 89.5226L468.156 87.0135M451.747 91.7648L470.669 89.2558M454.261 94.0071L473.183 91.498M456.774 96.2493L475.696 93.7402M459.288 98.4916L478.21 95.9825M461.801 100.734L480.723 98.2247M464.314 102.976L483.236 100.467M466.828 105.218L485.75 102.709M469.341 107.46L488.263 104.951M471.855 109.703L490.777 107.194M474.368 111.945L493.29 109.436M476.881 114.187L495.803 111.678M479.395 116.429L498.317 113.92M481.908 118.672L500.83 116.163M484.422 120.914L503.344 118.405M486.935 123.156L505.857 120.647M489.449 125.398L508.37 122.889M491.962 127.641L510.884 125.132M494.475 129.883L513.397 127.374M496.989 132.125L513.131 129.99M499.502 134.367L508.566 133.168M502.016 136.61L502.284 136.576" stroke="white" stroke-width="1.23546" stroke-linecap="round" stroke-linejoin="round" stroke-dasharray="0.41 3.71"/>
<path d="M476.601 159.931C469.481 163.953 460.242 169.513 449.604 176.269C275.512 281.07 279.091 266.743 175.97 285.184C167.166 286.758 150.315 300.865 153.675 309.154L204.265 433.978C206.647 439.854 214.943 440.061 217.667 434.337C240.367 386.634 284.17 305.568 329.861 265.094C368.612 230.769 416.06 197.573 449.604 176.269C458.162 171.117 467.15 165.677 476.601 159.931Z" fill="#D9D9D9" fill-opacity="0.07"/>
<path d="M333.026 262.799C378.838 222.219 434.258 185.069 466.514 165.808C468.781 164.454 470.562 162.552 471.757 160.357C461.865 163.416 436.266 185.333 421.848 194.488C321.906 257.947 264.887 307.005 166.043 289.606C160.828 298.327 145.311 252.933 143.449 256.673C139.105 265.401 139.516 275.743 143.206 284.768L203.51 432.266C206.183 438.803 215.45 439.03 218.538 432.677C242.011 384.371 287.835 302.83 333.026 262.799Z" fill="url(#paint3_linear_4794_67507)" fill-opacity="0.4"/>
<path d="M476.601 159.931C447.029 176.633 384.064 217.586 333.024 262.796C288.982 301.81 244.338 380.251 220.368 428.929C216.553 436.676 205.198 436.397 201.93 428.403L144.488 287.905C139.976 276.871 139.879 264.4 145.179 253.722C147.746 248.55 150.376 243.722 153.029 239.48M249.889 111.288C241.589 117.846 230.432 128.82 221.651 138.765" stroke="url(#paint4_linear_4794_67507)" stroke-width="0.89354"/>
<path opacity="0.6" d="M467.699 164.546C463.502 165.407 461.58 165.735 457.77 167.662C425.012 187.603 372.607 223.156 328.987 261.795C283.796 301.825 240.649 380.435 217.175 428.742C213.286 436.745 205.495 436.643 202.822 430.106" stroke="url(#paint5_linear_4794_67507)" stroke-width="0.44677"/>
<path d="M234.02 105.786C286.687 77.6789 342.443 36.7432 372.925 12.2867C379.518 6.99737 388.997 7.12123 395.304 12.7477L518.351 122.513C522.361 126.09 521.813 132.507 517.226 135.306C471.66 163.116 390.976 209.788 347.098 236.475C306.849 260.955 224.735 278.845 178.438 284.567C165.798 286.13 153.448 281.187 144.54 272.083L42.7607 168.061C36.8922 162.063 40.7295 151.871 49.0831 151.077C100.659 146.17 181.795 133.657 234.02 105.786Z" fill="#D9D9D9" fill-opacity="0.07"/>
<path d="M77.2827 162.095C75.3089 159.764 71.2479 158.145 68.2122 158.479L53.5208 160.091C50.4851 160.424 49.6242 162.584 51.598 164.914C53.5718 167.244 57.6328 168.863 60.6685 168.53L75.3598 166.918C78.3956 166.585 79.2564 164.425 77.2827 162.095Z" stroke="white" stroke-width="0.89354"/>
<path d="M180.702 266.192C178.728 263.862 174.667 262.243 171.631 262.576L156.94 264.189C153.904 264.522 153.043 266.681 155.017 269.012C156.991 271.342 161.052 272.961 164.088 272.628L178.779 271.015C181.815 270.682 182.676 268.523 180.702 266.192Z" stroke="white" stroke-width="0.89354"/>
<path d="M154.864 245.939C152.89 243.608 148.829 241.989 145.793 242.322L133.894 243.628C130.858 243.961 129.997 246.121 131.971 248.451C133.945 250.782 138.006 252.401 141.042 252.067L152.941 250.761C155.977 250.428 156.837 248.269 154.864 245.939Z" stroke="white" stroke-width="0.89354"/>
<path d="M129.702 227.187C127.728 224.857 123.667 223.238 120.631 223.571L114.785 224.213C111.749 224.546 110.888 226.705 112.862 229.035C114.836 231.366 118.897 232.985 121.933 232.652L127.779 232.01C130.815 231.677 131.676 229.518 129.702 227.187Z" stroke="white" stroke-width="0.89354"/>
<path d="M109.67 207.637C107.696 205.307 103.635 203.688 100.6 204.021L94.7531 204.663C91.7174 204.996 90.8565 207.155 92.8303 209.485C94.8041 211.816 98.8651 213.435 101.901 213.102L107.747 212.46C110.783 212.127 111.644 209.968 109.67 207.637Z" stroke="white" stroke-width="0.89354"/>
<path d="M93.8671 186.264C91.8934 183.934 87.8324 182.314 84.7967 182.648L75.7591 183.64C72.7233 183.973 71.8625 186.132 73.8363 188.462C75.81 190.793 79.871 192.412 82.9067 192.079L91.9443 191.087C94.9801 190.754 95.8409 188.594 93.8671 186.264Z" stroke="white" stroke-width="0.89354"/>
<path d="M234.02 105.786C286.687 77.6789 342.443 36.7432 372.925 12.2867C379.518 6.99737 388.997 7.12123 395.304 12.7477L518.351 122.513C522.361 126.09 521.813 132.507 517.226 135.306C471.66 163.116 390.976 209.788 347.098 236.475C306.849 260.955 224.735 278.845 178.438 284.567C165.798 286.13 153.448 281.187 144.54 272.083L42.7607 168.061C36.8922 162.063 40.7295 151.871 49.0831 151.077C100.659 146.17 181.795 133.657 234.02 105.786Z" stroke="white" stroke-width="0.89354"/>
<path opacity="0.5" d="M42.748 151.992C35.2622 155.144 35.4171 163.476 40.2169 168.382L147.263 277.787C154.549 285.233 164.659 289.278 175.008 288.094C220.528 282.886 305.956 264.701 347.272 239.573C391.694 212.554 473.844 165.051 519.082 137.376C522.831 135.083 522.32 129.036 521.199 125.841" stroke="white" stroke-width="0.44677"/>
<path d="M244.774 117.269C285.196 95.6965 327.913 64.5934 352.526 45.0374C359.144 39.7794 368.618 39.9087 374.925 45.5352L468.541 129.046C472.551 132.623 472.01 139.034 467.42 141.827C430.989 163.994 368.616 200.091 334.428 220.884C302.756 240.148 262.051 252.812 232.3 257.023C222.846 258.361 213.344 255.644 205.576 250.093C170.062 224.716 153.061 204.152 125.403 169.263C120.481 163.055 124.535 153.769 132.397 152.8C166.067 148.649 204.699 138.656 244.774 117.269Z" stroke="white" stroke-width="0.89354"/>
<path d="M267.183 115.619C309.889 101.174 333.392 73.0787 351.078 53.9193C357.639 46.8116 368.551 47.8501 374.638 55.3684C395.858 81.5819 414.569 99.7966 449.748 125.328C454.412 128.713 454.162 135.686 448.926 138.095C414.952 153.726 361.581 160.692 322.652 197.156C297.259 220.94 263.784 238.358 236.98 244.111C227.646 246.115 218.123 243.275 210.285 237.823C178.635 215.808 167.693 203.727 143.568 173.494C138.599 167.266 142.794 157.975 150.728 157.245C224.99 150.412 217.509 132.421 267.183 115.619Z" stroke="white" stroke-width="0.89354"/>
<path d="M464.947 115.866C464.726 105.292 471.063 89.8474 474.26 83.4467L433.597 47.1712C431.044 49.1304 424.903 54.1085 420.76 58.3479C415.582 63.6472 404.716 77.8489 398.423 97.0322C392.13 116.215 368.248 127.823 354.756 141.937C341.264 156.05 342.604 187.904 335.972 207.686C329.34 227.469 320.431 249.377 322.496 248.633C324.561 247.889 333.438 243.737 338.037 241.481C341.717 239.676 348.895 229.198 352.024 224.185C354.691 220.631 361.113 211.9 365.462 205.402C370.898 197.28 367.243 191.908 367.859 171.943C368.474 151.979 379.56 131.098 387.82 122.177C396.081 113.256 418.32 117.408 420.462 121.432C422.605 125.455 418.857 140.815 410.052 151.362C401.247 161.908 403.534 168.474 392.585 186.158C383.825 200.305 381.459 211.93 381.371 215.975L417.602 194.298C426.315 186.786 444.61 170.787 448.086 166.89C452.432 162.019 465.333 150.601 466.069 146.732C466.805 142.864 465.222 129.083 464.947 115.866Z" fill="#D9D9D9" fill-opacity="0.07"/>
<path d="M356.136 25.3747C355.876 24.1201 355.702 23.3263 356.102 25.4002L341.982 36.0334C343.451 37.3439 345.73 41.0025 343.092 45.1532C339.795 50.3415 341.52 62.8361 339.775 70.2649C338.03 77.6938 320.674 92.174 308.092 100.307C295.51 108.44 276.974 119.766 287.697 116.904C298.42 114.042 310.553 118.864 304.066 127.815C297.58 136.766 298.555 153.874 292.578 168.974C286.601 184.075 272.337 219.665 268.26 231.515C264.998 240.996 261.624 260.235 260.345 268.669L292.173 259.593C296.766 242.154 318.333 202.995 325.185 179.128C332.037 155.26 324.818 117.503 332.843 100.681C336.089 93.5539 350.533 72.728 351.698 69.791C353.155 66.1197 362.27 56.5502 358.495 37.5427C357.137 30.7047 356.428 27.095 356.102 25.4002L356.136 25.3747Z" fill="#D9D9D9" fill-opacity="0.07"/>
<path d="M238.059 103.915C240.819 102.739 256.8 92.9022 264.446 88.1305C268.87 94.8465 253.901 107.44 252.896 113.007C251.891 118.574 243.841 125.495 236.857 129.349C231.271 132.433 223.726 140.874 220.652 144.71C219.081 151.301 216.49 166.434 218.691 174.236C221.442 183.988 237.054 192.703 240.327 213.341C243.601 233.979 217.757 238.875 223.935 223.535C230.113 208.196 207.265 188.23 205.768 187.103C204.272 185.977 196.475 196.119 197.751 204.972C199.027 213.825 206.551 233.673 205.722 234.602C204.893 235.531 202.043 239.66 198.886 242.265C195.728 244.869 194.045 254.002 193.483 257.67C192.921 261.339 180.565 284.304 173.573 285.363C166.581 286.423 157.53 282.311 152.406 279.407C148.306 277.085 138.246 266.22 133.729 261.077C142.362 254.199 162.127 237.64 172.126 226.433C184.624 212.423 172.206 204.065 173.033 181.003C173.86 157.941 195.422 149.609 203.068 147.335C210.714 145.061 208.69 136.835 210.039 133.224C211.389 129.612 226.645 126.904 232.685 123.732C238.725 120.56 234.608 105.384 238.059 103.915Z" fill="#D9D9D9" fill-opacity="0.07"/>
<path d="M110.376 143.241L136.763 138.222C132.699 140.073 124.259 144.476 123.012 147.277C121.454 150.777 129.67 152.093 131.597 152.784C133.524 153.474 131.988 157.827 129.824 161.569C127.659 165.311 136.983 173.279 141.405 179.725C145.826 186.171 141.774 189.836 133.187 178.85C126.317 170.061 125.369 171.679 125.753 173.587C124.649 178.992 121.971 190.282 120.1 192.204C117.76 194.607 111.07 202.546 107.921 207.171C105.403 210.871 104.693 224.896 104.653 231.447L84.5667 210.984L95.3563 197.135C97.7957 193.378 103.057 184.952 104.586 181.308C106.497 176.753 106.243 163.224 105.82 155.804C105.481 149.869 108.716 144.956 110.376 143.241Z" fill="#D9D9D9" fill-opacity="0.07"/>
</g>
<path opacity="0.5" d="M440.152 306C440.152 356.81 398.963 398 348.152 398C297.342 398 256.152 356.81 256.152 306" stroke="white"/>
<g filter="url(#filter0_d_4794_67507)">
<circle cx="348.152" cy="299" r="92" fill="#1B1B2D"/>
<circle cx="348.152" cy="299" r="92" fill="url(#paint6_linear_4794_67507)" fill-opacity="0.4"/>
</g>
<circle cx="347.652" cy="298.5" r="87.5" stroke="#E4255B" stroke-width="12"/>
<path d="M336.008 263C336.008 261.343 337.351 260 339.008 260H354.539C356.196 260 357.539 261.343 357.539 263V271.678C357.539 283.173 355.58 295.647 354.385 307.172C354.226 308.713 352.932 309.892 351.383 309.892H342.275C340.739 309.892 339.452 308.733 339.279 307.207C337.971 295.672 336.008 283.184 336.008 271.678V263ZM338.152 342.403C336.495 342.403 335.152 341.06 335.152 339.403V324.3C335.152 322.643 336.495 321.3 338.152 321.3H354.967C356.624 321.3 357.967 322.643 357.967 324.3V339.403C357.967 341.06 356.624 342.403 354.967 342.403H338.152Z" fill="#E4255B"/>
<circle cx="348.152" cy="299" r="81" stroke="white" stroke-width="2"/>
<defs>
<filter id="filter0_d_4794_67507" x="208.152" y="183" width="280" height="280" filterUnits="userSpaceOnUse" color-interpolation-filters="sRGB">
<feFlood flood-opacity="0" result="BackgroundImageFix"/>
<feColorMatrix in="SourceAlpha" type="matrix" values="0 0 0 0 0 0 0 0 0 0 0 0 0 0 0 0 0 0 127 0" result="hardAlpha"/>
<feOffset dy="24"/>
<feGaussianBlur stdDeviation="24"/>
<feComposite in2="hardAlpha" operator="out"/>
<feColorMatrix type="matrix" values="0 0 0 0 0.894118 0 0 0 0 0.145098 0 0 0 0 0.356863 0 0 0 0.5 0"/>
<feBlend mode="normal" in2="BackgroundImageFix" result="effect1_dropShadow_4794_67507"/>
<feBlend mode="normal" in="SourceGraphic" in2="effect1_dropShadow_4794_67507" result="shape"/>
</filter>
<linearGradient id="paint0_linear_4794_67507" x1="496.378" y1="234.633" x2="496.378" y2="432.633" gradientUnits="userSpaceOnUse">
<stop stop-color="#D9D9D9"/>
<stop offset="1" stop-color="#737373" stop-opacity="0"/>
</linearGradient>
<linearGradient id="paint1_linear_4794_67507" x1="496.34" y1="167.543" x2="496.34" y2="443.418" gradientUnits="userSpaceOnUse">
<stop stop-color="white"/>
<stop offset="1" stop-color="white" stop-opacity="0"/>
</linearGradient>
<linearGradient id="paint2_linear_4794_67507" x1="233.809" y1="105.798" x2="381.27" y2="186.628" gradientUnits="userSpaceOnUse">
<stop stop-color="#D9D9D9"/>
<stop offset="1" stop-color="#737373" stop-opacity="0"/>
</linearGradient>
<linearGradient id="paint3_linear_4794_67507" x1="353.587" y1="153.47" x2="220.775" y2="351.467" gradientUnits="userSpaceOnUse">
<stop/>
<stop offset="1" stop-opacity="0"/>
</linearGradient>
<linearGradient id="paint4_linear_4794_67507" x1="297.953" y1="261.741" x2="199.675" y2="140.52" gradientUnits="userSpaceOnUse">
<stop stop-color="white"/>
<stop offset="1" stop-color="#999999" stop-opacity="0.2"/>
</linearGradient>
<linearGradient id="paint5_linear_4794_67507" x1="297.071" y1="259.189" x2="198.792" y2="137.969" gradientUnits="userSpaceOnUse">
<stop stop-color="white"/>
<stop offset="1" stop-color="#999999" stop-opacity="0.2"/>
</linearGradient>
<linearGradient id="paint6_linear_4794_67507" x1="440.152" y1="416.11" x2="277.33" y2="267.39" gradientUnits="userSpaceOnUse">
<stop stop-color="#E4255B"/>
<stop offset="1" stop-color="#E4255B" stop-opacity="0.2"/>
</linearGradient>
</defs>
</svg>
