<svg width="32" height="32" viewBox="0 0 32 32" fill="none" xmlns="http://www.w3.org/2000/svg">
<path fill-rule="evenodd" clip-rule="evenodd" d="M17.6289 5.92303C16.5923 5.47446 15.4025 5.47446 14.3659 5.92303L5.02796 9.96367C4.99045 9.9799 4.9779 9.99588 4.97138 10.006C4.96199 10.0206 4.9534 10.0441 4.9534 10.0739C4.9534 10.1037 4.96199 10.1272 4.97138 10.1418C4.9779 10.1519 4.99045 10.1679 5.02795 10.1841L14.3659 14.2248C15.4025 14.6733 16.5923 14.6733 17.6289 14.2248L26.9668 10.1841C27.0043 10.1679 27.0169 10.1519 27.0234 10.1418C27.0328 10.1272 27.0414 10.1037 27.0414 10.0739C27.0414 10.0441 27.0328 10.0206 27.0234 10.006C27.0169 9.99588 27.0043 9.9799 26.9668 9.96367L17.6289 5.92303ZM13.4185 3.939C15.0571 3.22997 16.9377 3.22997 18.5763 3.939L27.9142 7.97964C29.8029 8.79692 29.8029 11.3509 27.9142 12.1681L18.5762 16.2088C16.9377 16.9178 15.0571 16.9178 13.4185 16.2088L4.08062 12.1681C2.19187 11.3509 2.19188 8.79692 4.08062 7.97964L13.4185 3.939Z" fill="black"/>
<path fill-rule="evenodd" clip-rule="evenodd" d="M2.7613 15.9247C3.0108 15.357 3.66254 15.1038 4.217 15.3593L14.4413 20.0706C15.4309 20.5266 16.5639 20.5266 17.5535 20.0706L27.7778 15.3593C28.3322 15.1038 28.984 15.357 29.2335 15.9247C29.483 16.4925 29.2358 17.1598 28.6813 17.4153L18.457 22.1266C16.8928 22.8474 15.102 22.8474 13.5378 22.1266L3.31346 17.4153C2.75901 17.1598 2.51179 16.4925 2.7613 15.9247Z" fill="black"/>
<path fill-rule="evenodd" clip-rule="evenodd" d="M2.78053 21.7681C3.05244 21.2477 3.71372 21.0368 4.25754 21.297L14.3016 26.1028C15.3691 26.6136 16.6257 26.6136 17.6932 26.1028L27.7373 21.297C28.2811 21.0368 28.9424 21.2477 29.2143 21.7681C29.4862 22.2886 29.2657 22.9214 28.7219 23.1816L18.6779 27.9874C16.9905 28.7948 15.0043 28.7948 13.3169 27.9874L3.27286 23.1816C2.72905 22.9214 2.50862 22.2886 2.78053 21.7681Z" fill="black"/>
</svg>
