<svg width="63" height="81" viewBox="0 0 63 81" fill="none" xmlns="http://www.w3.org/2000/svg">
<path d="M31.3541 38.1462C39.8395 38.1463 47.5628 40.423 53.1795 44.1038C65.8844 52.4193 65.8848 66.341 53.1795 74.6565C33.512 87.5325 0.000751996 78.2628 0 59.3802C0 53.3526 3.64104 47.9548 9.52345 44.1038C15.1481 40.423 22.8687 38.1462 31.3541 38.1462ZM31.3541 43.5212C24.2494 43.5212 17.9446 45.3155 13.3605 48.0423L12.4681 48.6005C7.58348 51.7981 5.37498 55.7086 5.37498 59.3802C5.37537 65.1615 10.6685 70.9211 20.6776 73.7554C30.3557 76.4957 41.9723 75.569 50.2348 70.1598V70.1581C55.4411 66.7507 57.3329 62.7232 57.3332 59.3802C57.3332 56.0369 55.4415 52.008 50.2348 48.6005L50.233 48.5987C45.6027 45.5643 38.9337 43.5212 31.3541 43.5212ZM31.3541 0C47.0232 0.000280246 54.9245 18.5177 43.8292 29.3086C32.7375 40.0987 13.7052 32.4102 13.7052 17.1695C13.7092 7.68781 21.6116 0 31.3541 0ZM31.3541 5.37497C24.441 5.37497 19.0826 10.795 19.0801 17.173C19.0826 27.3617 32.1844 33.1406 40.0832 25.4559C47.4877 18.2545 42.5246 5.37525 31.3541 5.37497Z" fill="white"/>
<path d="M31.3545 49.2695C32.3439 49.2697 33.1455 50.0721 33.1455 51.0615V57.332H39.417C40.4064 57.3322 41.208 58.1346 41.208 59.124C41.2078 60.1133 40.4062 60.9149 39.417 60.915H33.1455V67.1865C33.1453 68.1758 32.3437 68.9774 31.3545 68.9775C30.3651 68.9775 29.5627 68.1759 29.5625 67.1865V60.915H23.292C22.3026 60.915 21.5002 60.1134 21.5 59.124C21.5 58.1345 22.3025 57.332 23.292 57.332H29.5625V51.0615C29.5625 50.072 30.365 49.2695 31.3545 49.2695Z" fill="white"/>
</svg>
