<svg width="86" height="86" viewBox="0 0 86 86" fill="none" xmlns="http://www.w3.org/2000/svg">
<path d="M42.1041 39.9392C50.5895 39.9392 58.3128 42.216 63.9295 45.8968C76.6344 54.2122 76.6348 68.134 63.9295 76.4494C44.262 89.3255 10.7508 80.0558 10.75 61.1731C10.75 55.1456 14.391 49.7478 20.2735 45.8968C25.8981 42.2159 33.6187 39.9392 42.1041 39.9392ZM42.1041 45.3142C34.9994 45.3142 28.6946 47.1085 24.1105 49.8353L23.2181 50.3934C18.3335 53.591 16.125 57.5016 16.125 61.1731C16.1254 66.9544 21.4185 72.7141 31.4276 75.5484C41.1057 78.2887 52.7223 77.362 60.9848 71.9528V71.9511C66.1911 68.5437 68.0829 64.5162 68.0832 61.1731C68.0832 57.8299 66.1915 53.801 60.9848 50.3934L60.983 50.3917C56.3527 47.3573 49.6837 45.3142 42.1041 45.3142ZM42.1041 1.79297C57.7732 1.79325 65.6745 20.3107 54.5792 31.1016C43.4875 41.8917 24.4552 34.2032 24.4552 18.9624C24.4592 9.48077 32.3616 1.79297 42.1041 1.79297ZM42.1041 7.16794C35.191 7.16794 29.8326 12.588 29.8301 18.9659C29.8326 29.1546 42.9344 34.9335 50.8332 27.2489C58.2377 20.0475 53.2746 7.16821 42.1041 7.16794Z" fill="black"/>
<path d="M42.1045 51.0625C43.0939 51.0627 43.8955 51.8651 43.8955 52.8545V59.125H50.167C51.1564 59.1252 51.958 59.9276 51.958 60.917C51.9578 61.9062 51.1562 62.7078 50.167 62.708H43.8955V68.9795C43.8953 69.9687 43.0937 70.7703 42.1045 70.7705C41.1151 70.7705 40.3127 69.9689 40.3125 68.9795V62.708H34.042C33.0526 62.708 32.2502 61.9064 32.25 60.917C32.25 59.9275 33.0525 59.125 34.042 59.125H40.3125V52.8545C40.3125 51.865 41.115 51.0625 42.1045 51.0625Z" fill="black"/>
</svg>
