<svg width="66" height="66" viewBox="0 0 66 66" fill="none" xmlns="http://www.w3.org/2000/svg">
<path d="M32.3124 30.65C38.8245 30.65 44.7517 32.3973 49.0621 35.2221C58.8125 41.6037 58.8128 52.2879 49.0621 58.6695C33.9685 68.5511 8.25058 61.4372 8.25 46.9458C8.25 42.32 11.0443 38.1776 15.5587 35.2221C19.8753 32.3973 25.8004 30.65 32.3124 30.65ZM32.3124 34.775C26.86 34.775 22.0214 36.152 18.5034 38.2447L17.8186 38.673C14.0699 41.127 12.375 44.1281 12.375 46.9458C12.3753 51.3826 16.4374 55.8028 24.1189 57.978C31.5462 60.081 40.4613 59.3698 46.8023 55.2186V55.2173C50.7978 52.6023 52.2497 49.5114 52.2499 46.9458C52.2499 44.3801 50.7981 41.2881 46.8023 38.673L46.8009 38.6717C43.2474 36.343 38.1293 34.775 32.3124 34.775ZM32.3124 1.375C44.3376 1.37522 50.4014 15.5863 41.8864 23.8677C33.3741 32.1484 18.7679 26.2479 18.7679 14.5516C18.771 7.27494 24.8357 1.375 32.3124 1.375ZM32.3124 5.49998C27.007 5.49998 22.8948 9.65954 22.8929 14.5543C22.8948 22.3735 32.9496 26.8085 39.0115 20.9109C44.694 15.3843 40.8851 5.50019 32.3124 5.49998Z" fill="white"/>
<path d="M38.5 45.375C39.2594 45.375 39.875 45.9906 39.875 46.75C39.875 47.5094 39.2594 48.125 38.5 48.125H26.125C25.3656 48.125 24.75 47.5094 24.75 46.75C24.75 45.9906 25.3656 45.375 26.125 45.375H38.5Z" fill="white"/>
</svg>
