<svg width="153" height="154" viewBox="0 0 153 154" fill="none" xmlns="http://www.w3.org/2000/svg">
<path d="M110.043 154C126.41 154 134.594 154 140.605 150.316C143.969 148.255 146.798 145.426 148.859 142.062C152.543 136.051 152.543 127.867 152.543 111.5V42.5C152.543 26.133 152.543 17.9492 148.859 11.9375C146.798 8.57361 143.969 5.74498 140.605 3.68359C134.594 -0.000305176 126.41 0 110.043 0H0C16.367 0 24.5508 -0.000305176 30.5625 3.68359C33.9264 5.74498 36.755 8.57361 38.8164 11.9375C42.5003 17.9492 42.5 26.133 42.5 42.5V111.5C42.5 127.867 42.5003 136.051 38.8164 142.062C36.755 145.426 33.9264 148.255 30.5625 150.316C24.5508 154 16.367 154 0 154H110.043Z" fill="white" fill-opacity="0.08"/>
</svg>
