<svg width="560" height="402" viewBox="50 90 460 312" fill="none" xmlns="http://www.w3.org/2000/svg">
<mask id="mask0_4794_61709" style="mask-type:alpha" maskUnits="userSpaceOnUse" x="144" y="110" width="255" height="298">
<ellipse cx="271.596" cy="259.029" rx="120.939" ry="153.466" transform="rotate(24.7084 271.596 259.029)" fill="url(#paint0_radial_4794_61709)"/>
</mask>
<g mask="url(#mask0_4794_61709)">
<ellipse cx="265.348" cy="284.974" rx="6.23429" ry="2.2822" stroke="white" stroke-width="0.517938"/>
<ellipse cx="218.533" cy="267.19" rx="5.12102" ry="1.5864" stroke="white" stroke-width="0.517938"/>
<path d="M270.021 286.414C270.619 286.091 270.967 285.703 270.967 285.286C270.967 284.165 268.451 283.256 265.347 283.256C262.243 283.256 259.727 284.165 259.727 285.286C259.727 285.703 260.075 286.091 260.672 286.414" stroke="white" stroke-width="0.207175" stroke-linecap="round"/>
<path d="M222.367 268.177C222.857 267.958 223.143 267.695 223.143 267.412C223.143 266.65 221.079 266.033 218.533 266.033C215.988 266.033 213.924 266.65 213.924 267.412C213.924 267.695 214.21 267.958 214.699 268.177" stroke="white" stroke-width="0.207175" stroke-linecap="round"/>
<path d="M279.54 280.074L279.665 279.848L279.54 280.074ZM244.249 263.793L244.334 263.548L244.259 263.522L244.183 263.543L244.249 263.793ZM280.792 276.484L280.867 276.732C280.974 276.7 281.049 276.602 281.051 276.49C281.054 276.378 280.983 276.276 280.877 276.24L280.792 276.484ZM241.777 287.444L241.879 287.205V287.205L241.777 287.444ZM209.15 273.601L209.049 273.839L209.15 273.601ZM209.188 273.076L209.121 272.825L209.121 272.825L209.188 273.076ZM245.641 286.929L245.718 287.176L245.721 287.175L245.641 286.929ZM243.696 287.538L243.618 287.291V287.291L243.696 287.538ZM211.158 272.554L211.224 272.805L211.232 272.802L211.158 272.554ZM234.592 266.357L234.645 266.61L234.658 266.607L234.592 266.357ZM212.02 269.183L211.916 269.42L211.918 269.421L212.02 269.183ZM224.712 265.571L224.802 265.328L224.802 265.328L224.712 265.571ZM225.24 265.769L225.347 265.533L225.339 265.53L225.331 265.527L225.24 265.769ZM272.176 287.728L272.08 287.488L272.176 287.728ZM265.179 288.869V288.61C262.423 288.61 259.954 288.168 258.235 287.47L258.137 287.71L258.04 287.95C259.837 288.679 262.376 289.128 265.179 289.128V288.869ZM279.54 280.074L279.415 280.301C280.018 280.635 280.534 280.997 280.914 281.372C281.296 281.749 281.523 282.12 281.585 282.469C281.644 282.804 281.559 283.155 281.238 283.524C280.91 283.901 280.338 284.292 279.439 284.67L279.54 284.909L279.64 285.148C280.575 284.754 281.228 284.325 281.629 283.864C282.037 283.394 282.185 282.888 282.095 282.378C282.007 281.882 281.7 281.419 281.278 281.003C280.854 280.585 280.295 280.196 279.665 279.848L279.54 280.074ZM244.249 263.793L244.164 264.038L280.707 276.729L280.792 276.484L280.877 276.24L244.334 263.548L244.249 263.793ZM241.777 287.444L241.879 287.205L209.251 273.362L209.15 273.601L209.049 273.839L241.676 287.682L241.777 287.444ZM209.15 273.601L209.251 273.362C209.246 273.36 209.244 273.358 209.243 273.358C209.242 273.357 209.242 273.357 209.242 273.356C209.241 273.354 209.239 273.35 209.24 273.343C209.24 273.337 209.242 273.333 209.243 273.331C209.244 273.33 209.244 273.33 209.245 273.329C209.246 273.329 209.249 273.327 209.254 273.326L209.188 273.076L209.121 272.825C208.627 272.956 208.578 273.639 209.049 273.839L209.15 273.601ZM251.152 286.086V286.345C254.103 286.345 256.298 287.187 258.09 287.966L258.193 287.728L258.296 287.491C256.483 286.703 254.21 285.827 251.152 285.827V286.086ZM245.641 286.929L245.721 287.175C247.335 286.648 249.34 286.345 251.152 286.345V286.086V285.827C249.29 285.827 247.231 286.137 245.56 286.683L245.641 286.929ZM243.696 287.538L243.773 287.785L245.718 287.176L245.641 286.929L245.564 286.682L243.618 287.291L243.696 287.538ZM209.188 273.076L209.254 273.326L211.224 272.805L211.158 272.554L211.091 272.304L209.121 272.825L209.188 273.076ZM234.592 266.357L234.658 266.607L244.316 264.043L244.249 263.793L244.183 263.543L234.525 266.106L234.592 266.357ZM241.777 287.444L241.676 287.682C242.341 287.964 243.084 288.001 243.773 287.785L243.696 287.538L243.618 287.291C243.047 287.47 242.43 287.439 241.879 287.205L241.777 287.444ZM279.54 280.074L279.665 279.848C278.948 279.451 278.658 278.924 278.658 278.486H278.399H278.14C278.14 279.166 278.584 279.842 279.415 280.301L279.54 280.074ZM278.399 278.486H278.658C278.658 278.169 278.781 277.867 279.111 277.576C279.45 277.277 280.008 276.989 280.867 276.732L280.792 276.484L280.718 276.236C279.827 276.503 279.188 276.817 278.768 277.188C278.339 277.567 278.14 278.005 278.14 278.486H278.399ZM210.295 267.467H210.554C210.554 267.19 210.719 266.887 211.108 266.575C211.496 266.264 212.072 265.973 212.807 265.724C214.275 265.227 216.319 264.915 218.589 264.915V264.656V264.397C216.278 264.397 214.175 264.714 212.641 265.234C211.875 265.493 211.237 265.808 210.785 266.17C210.335 266.531 210.036 266.967 210.036 267.467H210.295ZM212.02 269.183L212.124 268.946C211.6 268.716 211.199 268.463 210.933 268.204C210.667 267.945 210.554 267.697 210.554 267.467H210.295H210.036C210.036 267.882 210.244 268.256 210.571 268.575C210.897 268.893 211.359 269.176 211.916 269.42L212.02 269.183ZM218.589 264.656V264.915C220.992 264.915 223.142 265.265 224.621 265.813L224.712 265.571L224.802 265.328C223.248 264.752 221.034 264.397 218.589 264.397V264.656ZM230.863 266.715V266.456C228.575 266.456 226.57 266.086 225.347 265.533L225.24 265.769L225.134 266.005C226.448 266.599 228.534 266.974 230.863 266.974V266.715ZM234.592 266.357L234.538 266.103C233.48 266.326 232.219 266.456 230.863 266.456V266.715V266.974C232.25 266.974 233.547 266.841 234.645 266.61L234.592 266.357ZM212.02 269.183L211.918 269.421C212.389 269.623 212.748 269.849 212.985 270.08C213.222 270.311 213.32 270.529 213.32 270.723H213.579H213.838C213.838 270.342 213.644 269.999 213.346 269.709C213.048 269.418 212.628 269.162 212.122 268.945L212.02 269.183ZM213.579 270.723H213.32C213.32 270.968 213.162 271.246 212.771 271.535C212.385 271.822 211.81 272.087 211.083 272.306L211.158 272.554L211.232 272.802C211.99 272.573 212.627 272.287 213.079 271.952C213.527 271.62 213.838 271.207 213.838 270.723H213.579ZM225.24 265.769L225.331 265.527L224.802 265.328L224.712 265.571L224.621 265.813L225.149 266.011L225.24 265.769ZM272.176 287.728L272.08 287.488C270.363 288.175 267.911 288.61 265.179 288.61V288.869V289.128C267.958 289.128 270.479 288.687 272.272 287.969L272.176 287.728ZM279.54 284.909L279.439 284.67C277.611 285.441 276.493 285.856 275.474 286.223C274.452 286.59 273.523 286.91 272.08 287.488L272.176 287.728L272.272 287.969C273.705 287.395 274.624 287.079 275.649 286.71C276.676 286.341 277.802 285.922 279.64 285.148L279.54 284.909Z" fill="white"/>
<path d="M257.512 291.015C259.423 291.751 262.035 291.988 265.057 291.988C268.18 291.988 271.034 291.468 273.086 290.569C276.02 289.567 282.247 287.41 283.32 285.734C284.393 284.057 283.953 281.834 280.382 279.557M257.572 291.033C255.612 290.225 254.475 289.567 251.208 289.567C248.631 289.567 246.794 290.477 244.333 291.208C243.053 291.733 241.467 291.988 240.446 291.463L207.185 277.234C207.039 277.171 206.974 277.001 207.043 276.858C207.328 276.269 208.025 274.826 208.413 274.029C208.571 273.702 208.789 273.409 209.055 273.161L209.071 273.146M210.574 266.771C210.156 267.133 209.85 267.634 209.349 268.803C208.904 269.842 209.878 270.711 210.907 271.169C211.687 271.515 211.492 272.393 210.685 272.672" stroke="white" stroke-width="0.517938"/>
<ellipse cx="243.693" cy="275.149" rx="21.0407" ry="6.5961" stroke="white" stroke-width="0.517938"/>
<ellipse cx="243.693" cy="275.623" rx="18.7029" ry="5.23235" stroke="white" stroke-width="0.517938"/>
<path d="M261.563 277.182C261.393 276.843 261.096 276.516 260.685 276.203C258.195 274.308 251.528 272.951 243.694 272.951C235.86 272.951 229.193 274.308 226.703 276.203C226.293 276.515 225.996 276.842 225.826 277.18" stroke="white" stroke-width="0.517938"/>
<path d="M263.945 284.263C264.086 284.265 264.235 284.289 264.354 284.342L265.437 284.824L266.624 284.381C266.749 284.334 266.899 284.315 267.041 284.317C267.182 284.32 267.331 284.344 267.449 284.396C267.553 284.443 267.689 284.54 267.672 284.701C267.664 284.777 267.622 284.836 267.576 284.877C267.53 284.918 267.473 284.949 267.41 284.973L266.52 285.305L267.315 285.659C267.419 285.705 267.555 285.802 267.538 285.964C267.53 286.04 267.488 286.099 267.442 286.14C267.397 286.181 267.339 286.212 267.276 286.235C267.151 286.282 267.001 286.301 266.859 286.299C266.718 286.296 266.57 286.272 266.451 286.22L265.367 285.736L264.181 286.181C264.056 286.227 263.905 286.247 263.764 286.244C263.623 286.242 263.474 286.218 263.355 286.165C263.252 286.119 263.116 286.021 263.133 285.859C263.141 285.784 263.183 285.725 263.229 285.685C263.274 285.644 263.332 285.612 263.395 285.589L264.284 285.256L263.489 284.902C263.385 284.856 263.25 284.758 263.267 284.597C263.275 284.521 263.317 284.463 263.362 284.422C263.408 284.381 263.466 284.35 263.528 284.326C263.653 284.279 263.804 284.26 263.945 284.263Z" stroke="white" stroke-width="0.310763"/>
<path d="M217.64 266.502C217.755 266.504 217.875 266.522 217.97 266.561L218.896 266.939L219.908 266.591C220.008 266.556 220.13 266.542 220.246 266.544C220.362 266.546 220.482 266.564 220.576 266.603C220.623 266.622 220.667 266.648 220.699 266.682C220.732 266.717 220.758 266.766 220.751 266.824C220.745 266.88 220.711 266.922 220.676 266.951C220.64 266.98 220.596 267.003 220.546 267.021L219.757 267.291L220.465 267.58C220.512 267.599 220.555 267.625 220.587 267.659C220.62 267.694 220.645 267.743 220.639 267.802C220.632 267.858 220.599 267.9 220.563 267.929C220.528 267.958 220.484 267.981 220.434 267.998C220.333 268.033 220.211 268.047 220.095 268.045C219.979 268.043 219.859 268.025 219.765 267.986L218.838 267.606L217.826 267.956C217.726 267.99 217.604 268.005 217.488 268.003C217.373 268.001 217.253 267.983 217.158 267.944C217.111 267.925 217.067 267.899 217.035 267.865C217.002 267.83 216.977 267.781 216.983 267.723C216.99 267.667 217.024 267.624 217.059 267.596C217.094 267.567 217.139 267.544 217.188 267.526L217.977 267.255L217.27 266.967C217.223 266.948 217.18 266.921 217.147 266.888C217.114 266.853 217.089 266.804 217.096 266.745C217.102 266.689 217.135 266.647 217.17 266.618C217.205 266.589 217.251 266.566 217.301 266.549C217.401 266.514 217.524 266.5 217.64 266.502Z" stroke="white" stroke-width="0.207175"/>
<path d="M243.248 263.99L244.473 263.662V219.682" stroke="white" stroke-width="0.517938"/>
<path d="M243.975 265.353L213.516 273.614C213.209 273.698 213.181 274.122 213.474 274.245L241.271 285.914C241.794 286.134 242.377 286.165 242.921 286.002L275.505 276.256C275.817 276.163 275.825 275.724 275.517 275.62L245.404 265.398C244.943 265.241 244.445 265.226 243.975 265.353Z" stroke="white" stroke-width="0.207175"/>
<path d="M279.97 327.401L278.945 326.468L279.674 323.623C279.901 322.674 280.443 320.641 280.789 320.095C281.221 319.412 282.223 319.048 282.929 318.752C283.493 318.515 307.26 309.276 319.073 304.686L330.295 308.874L279.674 329.586L279.97 329.199L280.129 328.608L279.97 327.401Z" fill="url(#paint1_linear_4794_61709)" fill-opacity="0.5"/>
<path d="M242.859 269.472C242.859 269.764 242.622 270.001 242.33 270.001C242.038 270.001 241.801 269.764 241.801 269.472C241.801 269.18 242.038 268.943 242.33 268.943C242.622 268.943 242.859 269.18 242.859 269.472Z" stroke="white" stroke-width="0.207175"/>
<path d="M240.466 269.583C240.466 269.876 240.229 270.112 239.937 270.112C239.645 270.112 239.408 269.876 239.408 269.583C239.408 269.291 239.645 269.055 239.937 269.055C240.229 269.055 240.466 269.291 240.466 269.583Z" stroke="white" stroke-width="0.207175"/>
<path d="M238.128 269.75C238.128 270.043 237.891 270.279 237.599 270.279C237.307 270.279 237.07 270.043 237.07 269.75C237.07 269.458 237.307 269.222 237.599 269.222C237.891 269.222 238.128 269.458 238.128 269.75Z" stroke="white" stroke-width="0.207175"/>
<path d="M235.845 269.973C235.845 270.265 235.634 270.502 235.372 270.502C235.111 270.502 234.899 270.265 234.899 269.973C234.899 269.681 235.111 269.444 235.372 269.444C235.634 269.444 235.845 269.681 235.845 269.973Z" stroke="white" stroke-width="0.207175"/>
<path d="M233.73 270.307C233.73 270.599 233.518 270.836 233.257 270.836C232.996 270.836 232.784 270.599 232.784 270.307C232.784 270.015 232.996 269.778 233.257 269.778C233.518 269.778 233.73 270.015 233.73 270.307Z" stroke="white" stroke-width="0.207175"/>
<path d="M231.671 270.808C231.671 271.1 231.471 271.337 231.225 271.337C230.979 271.337 230.78 271.1 230.78 270.808C230.78 270.516 230.979 270.279 231.225 270.279C231.471 270.279 231.671 270.516 231.671 270.808Z" stroke="white" stroke-width="0.207175"/>
<path d="M229.778 271.29C229.79 271.582 229.601 271.827 229.355 271.837C229.11 271.848 228.9 271.62 228.888 271.328C228.876 271.036 229.065 270.791 229.31 270.781C229.556 270.77 229.765 270.998 229.778 271.29Z" stroke="white" stroke-width="0.207175"/>
<path d="M228.108 271.846C228.123 272.138 227.96 272.383 227.745 272.394C227.531 272.405 227.344 272.177 227.329 271.885C227.315 271.594 227.477 271.348 227.692 271.338C227.907 271.327 228.093 271.554 228.108 271.846Z" stroke="white" stroke-width="0.207175"/>
<path d="M226.594 272.484C226.651 272.796 226.549 273.076 226.368 273.109C226.186 273.142 225.993 272.916 225.937 272.603C225.88 272.291 225.981 272.011 226.163 271.978C226.344 271.945 226.537 272.171 226.594 272.484Z" stroke="white" stroke-width="0.207175"/>
<path d="M225.349 273.33C225.447 273.688 225.407 274.011 225.259 274.052C225.111 274.093 224.911 273.836 224.812 273.478C224.714 273.12 224.754 272.797 224.902 272.756C225.05 272.715 225.25 272.972 225.349 273.33Z" stroke="white" stroke-width="0.207175"/>
<path d="M224.442 274.217C224.661 274.517 224.752 274.824 224.644 274.902C224.537 274.981 224.272 274.802 224.052 274.502C223.833 274.203 223.742 273.896 223.85 273.817C223.958 273.739 224.223 273.918 224.442 274.217Z" stroke="white" stroke-width="0.207175"/>
<path d="M245.308 269.472C245.308 269.764 245.071 270.001 244.779 270.001C244.487 270.001 244.251 269.764 244.251 269.472C244.251 269.18 244.487 268.943 244.779 268.943C245.071 268.943 245.308 269.18 245.308 269.472Z" stroke="white" stroke-width="0.207175"/>
<path d="M247.646 269.583C247.646 269.876 247.409 270.112 247.117 270.112C246.825 270.112 246.588 269.876 246.588 269.583C246.588 269.291 246.825 269.055 247.117 269.055C247.409 269.055 247.646 269.291 247.646 269.583Z" stroke="white" stroke-width="0.207175"/>
<path d="M249.873 269.75C249.873 270.043 249.636 270.279 249.344 270.279C249.052 270.279 248.815 270.043 248.815 269.75C248.815 269.458 249.052 269.222 249.344 269.222C249.636 269.222 249.873 269.458 249.873 269.75Z" stroke="white" stroke-width="0.207175"/>
<path d="M251.876 269.917C251.876 270.21 251.665 270.446 251.403 270.446C251.142 270.446 250.93 270.21 250.93 269.917C250.93 269.625 251.142 269.389 251.403 269.389C251.665 269.389 251.876 269.625 251.876 269.917Z" stroke="white" stroke-width="0.207175"/>
<path d="M253.825 270.251C253.825 270.543 253.613 270.78 253.352 270.78C253.09 270.78 252.878 270.543 252.878 270.251C252.878 269.959 253.09 269.723 253.352 269.723C253.613 269.723 253.825 269.959 253.825 270.251Z" stroke="white" stroke-width="0.207175"/>
<path d="M255.662 270.585C255.662 270.877 255.475 271.114 255.244 271.114C255.014 271.114 254.827 270.877 254.827 270.585C254.827 270.293 255.014 270.057 255.244 270.057C255.475 270.057 255.662 270.293 255.662 270.585Z" stroke="white" stroke-width="0.207175"/>
<path d="M257.276 270.975C257.276 271.267 257.089 271.504 256.858 271.504C256.628 271.504 256.441 271.267 256.441 270.975C256.441 270.683 256.628 270.446 256.858 270.446C257.089 270.446 257.276 270.683 257.276 270.975Z" stroke="white" stroke-width="0.207175"/>
<path d="M258.944 271.508C258.922 271.8 258.717 272.021 258.487 272.003C258.257 271.985 258.089 271.735 258.112 271.444C258.135 271.153 258.339 270.931 258.569 270.949C258.799 270.967 258.967 271.217 258.944 271.508Z" stroke="white" stroke-width="0.207175"/>
<path d="M260.341 272.062C260.305 272.352 260.115 272.567 259.917 272.542C259.719 272.518 259.587 272.263 259.623 271.973C259.659 271.683 259.849 271.468 260.047 271.493C260.245 271.517 260.377 271.772 260.341 272.062Z" stroke="white" stroke-width="0.207175"/>
<path d="M261.479 272.71C261.398 272.99 261.212 273.183 261.064 273.14C260.917 273.098 260.863 272.835 260.944 272.555C261.026 272.274 261.211 272.082 261.359 272.124C261.507 272.167 261.56 272.429 261.479 272.71Z" stroke="white" stroke-width="0.207175"/>
<path d="M262.453 273.401C262.339 273.692 262.131 273.882 261.988 273.826C261.845 273.77 261.821 273.489 261.934 273.199C262.048 272.908 262.256 272.718 262.399 272.774C262.542 272.83 262.566 273.111 262.453 273.401Z" stroke="white" stroke-width="0.207175"/>
<path d="M263.219 274.29C263.016 274.55 262.763 274.692 262.652 274.606C262.542 274.52 262.617 274.239 262.819 273.979C263.022 273.719 263.276 273.577 263.386 273.663C263.497 273.749 263.422 274.03 263.219 274.29Z" stroke="white" stroke-width="0.207175"/>
<path d="M263.638 275.353C263.332 275.554 263.03 275.634 262.963 275.532C262.896 275.431 263.09 275.185 263.396 274.985C263.702 274.784 264.004 274.704 264.071 274.805C264.137 274.907 263.944 275.152 263.638 275.353Z" stroke="white" stroke-width="0.207175"/>
<path d="M280.489 279.625C279.765 279.096 280.017 278.644 281.129 278.261L289.233 275.879M330.017 264.176L315.878 268.348" stroke="white" stroke-width="0.517938"/>
<path d="M326.901 250.072L312.741 253.91M281.377 262.302L287.568 260.605" stroke="white" stroke-width="0.517938"/>
<path d="M326.901 249.227L311.15 253.458M281.377 261.456L289.697 259.221" stroke="white" stroke-width="0.207175"/>
<path d="M319.007 304.678L328.048 308.435C329.121 308.881 330.327 308.89 331.406 308.459L340.604 304.79L342.329 304.045C346.485 302.251 349.176 298.157 349.176 293.629V275.845C349.176 271.336 347.061 269.328 344.139 270.111C342.497 270.551 263.405 296.796 262.314 297.154C257.496 298.734 253.992 303.535 253.992 309.212V330.965C253.992 335.154 258.105 338.107 262.075 336.766L262.314 336.685L279.414 329.539C279.829 329.366 280.098 328.961 280.098 328.512V327.685C280.098 327.331 279.902 327.008 279.589 326.845L278.707 326.386" stroke="white" stroke-width="1.34664"/>
<path d="M255.939 318.79H256.524C256.524 316.934 256.524 314.186 256.524 311.915C256.524 309.644 255.605 301.534 264.873 298.445C272.079 296.043 342.496 272.311 343.526 271.949C344.555 271.587 345.613 271.504 345.919 271.726" stroke="white" stroke-width="0.207175"/>
<path d="M280.376 276.582L280.826 276.462C281.07 276.396 281.239 276.176 281.239 275.924V229.867C281.239 227.228 279.548 224.886 277.044 224.055L252.248 215.831C251.297 215.515 250.625 214.662 250.541 213.663L249.147 197.042C249.07 196.123 249.716 195.299 250.627 195.156L255.266 194.425C255.749 194.349 256.225 194.598 256.439 195.037L259.731 202.074C260.057 202.743 260.787 203.115 261.52 202.987L320.329 192.717C320.618 192.667 320.897 192.85 320.966 193.135L325.937 213.746C326.473 215.969 326.744 218.247 326.744 220.533V260.584C326.744 262.005 327.643 263.271 328.986 263.738L346.504 269.916" stroke="white" stroke-width="0.621525"/>
<path d="M216.141 188.898L249.316 195.522" stroke="white" stroke-width="0.621525"/>
<path d="M242.552 215.004L234.014 212.805C233.687 212.721 233.367 212.968 233.367 213.307V216.242C233.367 217.185 234.004 218.009 234.916 218.247L240.728 219.761C241.928 220.074 243.184 220.114 244.402 219.876L253.267 218.149L242.552 215.004Z" stroke="white" stroke-width="0.621525"/>
<path d="M251.348 215.422L216.077 207.007C214.64 206.664 213.69 205.296 213.872 203.829L215.481 190.857C215.641 189.568 216.639 188.542 217.924 188.347L222.542 187.646L255.711 194.444" stroke="white" stroke-width="0.621525"/>
<path d="M211.409 266.034C202.987 268.222 196.192 270.003 195.907 270.093C192.166 271.282 189.422 275.189 189.422 279.825L189.434 289.661C189.444 297.487 193.862 304.639 200.856 308.151L257.47 336.574M216.307 264.762C229.389 261.371 244.013 257.615 244.473 257.615" stroke="white" stroke-width="0.621525"/>
<path d="M255.829 319.177V309.334C255.829 304.22 258.984 299.896 263.323 298.473C264.306 298.151 342.888 271.624 344.083 271.336C346.114 270.846 347.784 271.53 347.784 275.705V284.638L255.829 319.177ZM255.829 319.177V326.884M279.847 327.361L261.942 334.696C259.012 335.896 255.801 333.742 255.801 330.575V326.884M347.212 284.909V292.911C347.212 297.214 344.605 301.088 340.618 302.709L330.677 306.75C329.994 307.027 329.229 307.023 328.549 306.737L321.539 303.786" stroke="white" stroke-width="0.621525"/>
<path d="M255.967 322.519L257.13 323.076C257.684 323.342 258.324 323.367 258.897 323.144L273.111 317.635M344.694 285.809V289.185C344.694 289.883 344.261 290.507 343.607 290.75L334.369 294.194M273.111 317.635L273.677 317.416C273.709 317.403 273.741 317.392 273.774 317.382M273.111 317.635L273.774 317.382M334.369 294.194L334.314 294.214M334.369 294.194C334.35 294.201 334.332 294.207 334.314 294.214M273.774 317.382L334.314 294.214M273.774 317.382C274.839 317.04 275.95 317.834 275.95 318.973V326.001C275.95 326.787 276.743 327.325 277.473 327.036L278.214 326.742C278.73 326.538 279.111 326.09 279.23 325.548L280.131 321.451C280.37 320.362 281.138 319.464 282.177 319.058L325.232 302.224C326.062 301.9 327.001 302.284 327.365 303.098L328.778 306.258C329.009 306.775 329.607 307.018 330.134 306.809L330.537 306.649C330.959 306.481 331.254 306.093 331.302 305.641L332.231 296.947C332.362 295.718 333.166 294.665 334.314 294.214" stroke="white" stroke-width="0.932288"/>
<path d="M276.535 327.055L263.176 321.6" stroke="white" stroke-width="0.932288"/>
<path d="M253.991 308.77L189.449 279.881" stroke="white" stroke-width="0.932288"/>
<path d="M280.653 227.585L250.623 218.707" stroke="white" stroke-width="0.932288"/>
<path d="M233.313 213.14L214.666 206.711" stroke="white" stroke-width="0.621525"/>
<path d="M270.746 313.613V314.457C270.746 314.614 270.903 314.721 271.049 314.665L275.976 312.75C276.061 312.717 276.118 312.634 276.118 312.543V311.554M287.389 307.463V308.306C287.389 308.463 287.547 308.57 287.693 308.514L292.619 306.599C292.705 306.566 292.761 306.484 292.761 306.392V305.403M303.031 301.674V302.517C303.031 302.674 303.188 302.781 303.334 302.725L308.26 300.81C308.346 300.777 308.402 300.695 308.402 300.603V299.614M317.448 296.163V297.007C317.448 297.163 317.605 297.271 317.751 297.214L322.677 295.3C322.763 295.266 322.819 295.184 322.819 295.092V294.103M331.252 290.819V291.663C331.252 291.819 331.409 291.927 331.555 291.87L336.482 289.956C336.567 289.923 336.624 289.84 336.624 289.749V288.76" stroke="white" stroke-width="0.621525"/>
<path d="M243.648 272.883C252.429 272.883 259.753 274.694 261.439 277.1C259.156 279.236 252.055 280.794 243.648 280.794C235.241 280.794 228.14 279.236 225.857 277.1C227.543 274.693 234.868 272.883 243.648 272.883Z" fill="white" fill-opacity="0.2"/>
<path d="M255.588 192.51L321.379 183.062M321.379 183.062V191.393C321.379 191.924 321.154 192.43 320.759 192.786M321.379 183.062L310.645 181.683M222.588 186.075L280.877 178.429C281.734 178.317 282.602 178.312 283.46 178.415L293.141 179.579M245.662 190.483L310.645 181.683M310.645 181.683L293.141 179.579M232.527 187.982L293.141 179.579" stroke="white" stroke-width="0.621525"/>
<path d="M222.57 187.65V186.298C222.57 186.168 222.689 186.07 222.817 186.095L255.528 192.456V194.369" stroke="white" stroke-width="0.621525"/>
<path d="M242.785 215.1L233.548 212.719C233.475 213.861 233.327 216.253 233.327 216.683C233.327 217.22 233.548 217.892 234.328 218.056C235.108 218.22 238.967 219.082 240.157 219.616C241.11 220.043 242.306 220.095 242.785 220.067V215.1Z" fill="#D9D9D9" fill-opacity="0.07"/>
<path d="M249.319 195.553L216.105 188.91C215.957 189.093 215.657 189.503 215.638 189.679C215.615 189.897 213.663 204.695 213.663 204.764C213.663 204.833 213.702 205.561 213.8 205.837C213.879 206.058 214.27 206.389 214.456 206.527L250.872 215.307H251.303C251.072 214.929 250.602 214.079 250.566 213.698C250.521 213.222 249.104 196.868 249.059 196.347C249.022 195.93 249.217 195.644 249.319 195.553Z" fill="#D9D9D9" fill-opacity="0.07"/>
<path d="M280.808 227.615L250.872 218.606L244.495 219.873L244.388 260.791V263.78L280.565 276.409C280.665 276.409 280.892 276.388 281.005 276.304L281.022 276.291C281.154 276.192 281.251 276.12 281.251 275.935V263.136C281.192 253.174 281.11 232.83 281.251 231.157C281.392 229.483 281.014 228.098 280.808 227.615Z" fill="#D9D9D9" fill-opacity="0.07"/>
<path d="M253.978 308.765L189.445 279.953L189.299 291.013C189.367 293.036 189.445 297.286 189.445 297.286C189.445 297.286 242.719 322.894 253.978 328.297V308.765Z" fill="#D9D9D9" fill-opacity="0.07"/>
<path d="M210.651 268.247C210.305 267.92 210.282 267.47 210.314 267.285C210.122 267.285 209.281 268.775 209.209 269.256C209.137 269.737 209.665 270.41 210.026 270.698C210.386 270.986 211.276 271.347 211.396 271.756C211.492 272.082 211.067 272.468 210.843 272.621C210.899 272.661 211.266 272.616 212.285 272.116C213.559 271.491 213.438 271.083 213.535 270.698C213.631 270.314 213.126 269.761 212.573 269.424C212.021 269.088 211.083 268.655 210.651 268.247Z" fill="#D9D9D9" fill-opacity="0.07"/>
<path d="M270.497 291.311L270.04 288.571C268.978 288.649 266.679 288.804 265.981 288.804H262.566L262.434 291.875C262.849 291.928 264.075 292.034 265.653 292.034C267.232 292.034 269.54 291.552 270.497 291.311Z" fill="#D9D9D9" fill-opacity="0.07"/>
<path d="M258.756 291.456L259.343 288.145L257.91 287.698C257.621 288.528 257.008 290.315 256.877 290.822C257.14 290.991 258.239 291.315 258.756 291.456Z" fill="#D9D9D9" fill-opacity="0.07"/>
<path d="M241.603 291.759L242.65 287.698L241.994 287.529L209.178 273.655L208.929 273.385L208.514 273.8C208.04 274.726 207.081 276.637 207.031 276.869C206.981 277.102 207.232 277.27 207.363 277.326C217.9 281.82 239.138 290.883 239.8 291.179C240.462 291.475 241.278 291.689 241.603 291.759Z" fill="#D9D9D9" fill-opacity="0.07"/>
<path d="M222.62 187.749V186.082L255.533 192.451V194.381L255.357 194.419L222.62 187.749Z" fill="#D9D9D9" fill-opacity="0.07"/>
<path d="M255.512 302.888C256.089 301.317 256.421 301.381 256.877 300.958L191.611 273.188C191.212 273.632 190.762 274.135 190.517 274.867C190.272 275.599 189.932 276.488 189.707 277.326L254.431 305.69C254.514 305.218 254.936 304.459 255.512 302.888Z" fill="#D9D9D9" fill-opacity="0.07"/>
<path d="M311.091 254.404H310.832V254.748L311.162 254.652L311.091 254.404ZM289.146 260.129L289.211 260.379V260.379L289.146 260.129ZM312.94 253.87L313.011 254.119V254.119L312.94 253.87ZM287.283 261.216H287.024L287.024 261.217L287.283 261.216ZM287.866 260.462L287.801 260.212H287.801L287.866 260.462ZM287.921 274.085L287.85 273.836L287.921 274.085ZM287.296 274.267L287.037 274.268C287.037 274.349 287.076 274.426 287.142 274.475C287.207 274.524 287.292 274.539 287.371 274.515L287.296 274.267ZM313.013 266.956L312.942 266.707L313.013 266.956ZM313.579 266.789L313.656 267.037L313.838 266.98V266.789H313.579ZM310.467 251.123L310.53 251.374L310.467 251.123ZM290.318 256.199L290.254 255.948V255.948L290.318 256.199ZM290.318 256.199L290.381 256.45L310.53 251.374L310.467 251.123L310.404 250.872L290.254 255.948L290.318 256.199ZM313.013 266.956L312.942 266.707L287.85 273.836L287.921 274.085L287.992 274.334L313.084 267.205L313.013 266.956ZM287.296 274.267L287.555 274.267L287.542 261.216L287.283 261.216L287.024 261.217L287.037 274.268L287.296 274.267ZM313.579 254.352H313.32V266.789H313.579H313.838V254.352H313.579ZM311.091 251.609H310.832V254.404H311.091H311.35V251.609H311.091ZM311.091 254.404L311.162 254.652L313.011 254.119L312.94 253.87L312.868 253.622L311.019 254.155L311.091 254.404ZM287.866 260.462L287.931 260.713L289.211 260.379L289.146 260.129L289.081 259.878L287.801 260.212L287.866 260.462ZM289.729 259.375H289.988V256.955H289.729H289.47V259.375H289.729ZM289.146 260.129L289.211 260.379C289.669 260.26 289.988 259.847 289.988 259.375H289.729H289.47C289.47 259.612 289.31 259.819 289.081 259.878L289.146 260.129ZM313.579 254.352H313.838C313.838 253.846 313.354 253.481 312.868 253.622L312.94 253.87L313.011 254.119C313.166 254.075 313.32 254.191 313.32 254.352H313.579ZM287.283 261.216H287.542C287.542 260.98 287.702 260.773 287.931 260.713L287.866 260.462L287.801 260.212C287.343 260.331 287.024 260.744 287.024 261.216H287.283ZM287.921 274.085L287.85 273.836C287.689 273.882 287.532 273.928 287.416 273.962C287.357 273.979 287.309 273.993 287.275 274.003C287.258 274.008 287.245 274.012 287.236 274.015C287.231 274.016 287.228 274.018 287.226 274.018C287.224 274.019 287.224 274.019 287.223 274.019C287.223 274.019 287.222 274.019 287.222 274.019C287.222 274.019 287.222 274.019 287.222 274.019C287.222 274.019 287.222 274.019 287.222 274.019C287.222 274.019 287.222 274.019 287.222 274.019C287.222 274.019 287.222 274.019 287.296 274.267C287.371 274.515 287.371 274.515 287.371 274.515C287.371 274.515 287.371 274.515 287.371 274.515C287.371 274.515 287.371 274.515 287.371 274.515C287.371 274.515 287.371 274.515 287.371 274.515C287.371 274.515 287.371 274.515 287.371 274.515C287.372 274.515 287.373 274.515 287.374 274.514C287.376 274.514 287.38 274.513 287.384 274.511C287.393 274.509 287.406 274.505 287.423 274.5C287.456 274.49 287.504 274.476 287.562 274.459C287.678 274.425 287.833 274.38 287.992 274.334L287.921 274.085ZM313.013 266.956L313.084 267.205C313.253 267.157 313.396 267.115 313.496 267.085C313.546 267.07 313.586 267.058 313.614 267.05C313.627 267.046 313.638 267.042 313.645 267.04C313.649 267.039 313.651 267.038 313.653 267.038C313.654 267.037 313.655 267.037 313.655 267.037C313.656 267.037 313.656 267.037 313.656 267.037C313.656 267.037 313.656 267.037 313.656 267.037C313.656 267.037 313.656 267.037 313.656 267.037C313.656 267.037 313.656 267.037 313.656 267.037C313.656 267.037 313.656 267.037 313.579 266.789C313.503 266.542 313.503 266.542 313.503 266.542C313.503 266.542 313.503 266.542 313.503 266.542C313.503 266.542 313.503 266.542 313.503 266.542C313.503 266.542 313.503 266.542 313.503 266.542C313.503 266.542 313.502 266.542 313.502 266.542C313.502 266.542 313.501 266.543 313.5 266.543C313.499 266.543 313.496 266.544 313.493 266.545C313.486 266.547 313.476 266.55 313.462 266.554C313.436 266.563 313.397 266.574 313.348 266.589C313.249 266.619 313.109 266.66 312.942 266.707L313.013 266.956ZM310.467 251.123L310.53 251.374C310.683 251.335 310.832 251.451 310.832 251.609H311.091H311.35C311.35 251.114 310.884 250.751 310.404 250.872L310.467 251.123ZM290.318 256.199L290.254 255.948C289.793 256.064 289.47 256.479 289.47 256.955H289.729H289.988C289.988 256.716 290.15 256.508 290.381 256.45L290.318 256.199Z" fill="white"/>
<path d="M290.457 273.395V257.098C290.457 256.971 290.544 256.86 290.667 256.829L311.037 251.676V267.581" stroke="white" stroke-width="0.207175"/>
<path d="M287.324 274.233L287.606 274.369C289.211 275.142 291.046 275.296 292.758 274.802L315.119 268.358C315.49 268.251 315.526 267.741 315.175 267.582L313.523 266.836" stroke="white" stroke-width="0.517938"/>
<path d="M315.859 267.936V268.485C315.859 268.669 315.737 268.831 315.56 268.883L292.542 275.558C290.969 276.014 289.283 275.873 287.808 275.161C287.448 274.987 287.219 274.622 287.219 274.222V274.144" stroke="white" stroke-width="0.207175"/>
</g>
<path d="M330.064 193.151C327.44 193.379 324.692 192.485 323.646 192.01L323.764 108.504L335.721 100.824V192.01C334.929 192.295 332.688 192.923 330.064 193.151Z" fill="url(#paint2_linear_4794_61709)" fill-opacity="0.07"/>
<path d="M345.534 199.874C345.594 199.33 345.294 197.746 345.137 197.022L346.232 195.568L347.328 195.304C347.554 195.669 348.034 196.497 348.14 196.89C348.246 197.283 348.31 199.194 348.329 200.101C347.372 200.252 345.473 200.418 345.534 199.874Z" fill="url(#paint3_linear_4794_61709)" fill-opacity="0.07"/>
<path d="M325.932 215.761L338.094 213.253C339.941 212.927 341.464 211.143 341.497 209.268L341.724 196.265C341.757 194.39 340.286 193.134 338.439 193.46L322.248 196.315M323.64 191.059L321.701 191.295M339.544 193.39L335.549 192.595M344.569 198.199H341.783M341.783 202.391H344.569M344.445 196.869L346.476 195.252C346.759 195.026 347.148 194.896 347.382 195.172C347.964 195.858 348.383 197.783 348.383 200.051C348.383 202.453 347.913 204.47 347.278 205.038C347.078 205.217 346.79 205.131 346.555 205.003L344.39 203.822M343.635 198.364C343.815 197.466 344.112 196.879 344.449 196.879C344.998 196.879 345.443 198.436 345.443 200.357C345.443 202.278 344.998 203.835 344.449 203.835C344.112 203.835 343.815 203.248 343.635 202.35M335.794 17.957L335.791 191.948C335.889 192.598 333.252 193.124 329.901 193.124C326.55 193.124 323.754 192.598 323.656 191.948L323.656 17.957H335.794Z" stroke="url(#paint4_linear_4794_61709)" stroke-width="1.06577"/>
<path d="M326.799 248.233C387.48 256.877 430.736 279.36 430.736 305.735C430.736 339.584 359.488 367.024 271.599 367.024C183.709 367.024 112.461 339.584 112.461 305.735C112.461 275.438 169.54 250.276 244.542 245.328" stroke="url(#paint5_linear_4794_61709)" stroke-linecap="round" stroke-dasharray="6 6"/>
<path d="M18.8233 257.556L0.61669 270.735M37.3396 257.463L8.53994 278.31M55.8558 257.369L16.4632 285.885M74.372 257.276L24.3864 293.459M92.8882 257.183L32.3097 301.034M115.515 252.411L40.2329 308.608M143.848 244.49L48.1562 316.183M162.364 244.397L56.0794 323.758M180.88 244.304L64.0027 331.332M199.397 244.211L71.9259 338.907M217.913 244.117L79.8492 346.482M236.429 244.024L207.553 265.397M87.7724 354.056L188.002 279.869M96.3577 361.152L188.575 292.989M110.239 364.413L193.835 302.659M203.394 309.241L128.756 364.32M214.818 314.533L147.272 364.226M165.788 364.133L225.57 319.971M347.195 243.704L325.406 259.801M184.304 364.04L236.526 325.461M366.043 243.371L336.191 265.423M202.821 363.947L247.486 330.951M384.559 243.278L347.409 270.721M221.337 363.853L259.028 336.01M402.744 243.424L348.201 283.718M239.853 363.76L319.95 304.588M415.158 249.666L258.369 363.667M429.959 251.064L276.885 363.573M444.365 255.65L295.402 363.48M457.254 259.631L313.918 363.387M465.177 267.205L332.434 363.294M473.1 274.78L350.95 363.2M481.024 282.354L369.466 363.107M488.947 289.929L387.983 363.014M496.87 297.504L406.499 362.921M503.803 304.132L422.701 362.839M510.736 310.759L438.902 362.757M517.669 317.387L455.104 362.676M524.602 324.015L471.306 362.594M531.534 330.643L487.507 362.512M538.467 337.271L503.709 362.431M545.4 343.898L519.911 362.349M552.333 350.526L536.112 362.268M559.266 357.154L552.314 362.186M235.554 258.264L243.113 252.676" stroke="url(#paint6_radial_4794_61709)" stroke-linecap="round" stroke-linejoin="round" stroke-dasharray="2.61 6.43"/>
<g filter="url(#filter0_d_4794_61709)">
<path fill-rule="evenodd" clip-rule="evenodd" d="M253.056 277.473C252.75 277.239 251.886 276.544 251.098 276.012C250.312 275.48 249.633 275.151 248.679 274.844C248.269 274.713 247.292 274.489 246.848 274.425C246.245 274.34 245.366 274.261 244.729 274.238C244.284 274.221 243.552 274.217 243.21 274.229C242.216 274.265 240.944 274.393 240.242 274.525C237.557 275.035 235.127 276.218 234.209 278.587C234.145 278.749 234.103 278.795 234.062 278.739C234.045 278.714 234.089 278.443 234.209 278.188C235.41 275.633 238.166 274.548 240.888 274.196C242.727 273.958 244.357 273.937 246.161 274.13C246.984 274.219 247.411 274.291 248.164 274.471C248.899 274.646 249.373 274.766 250.106 275.07C250.941 275.415 251.631 275.77 252.297 276.178C252.962 276.586 253.256 276.789 253.626 277.113C253.995 277.437 253.361 277.707 253.056 277.473Z" fill="url(#paint7_linear_4794_61709)" fill-opacity="0.8"/>
<path d="M240.884 274.157C242.725 273.919 244.358 273.898 246.165 274.091C246.99 274.18 247.418 274.253 248.173 274.433C248.909 274.608 249.385 274.728 250.121 275.033C250.958 275.38 251.65 275.735 252.317 276.145C252.983 276.553 253.279 276.758 253.651 277.084C253.75 277.17 253.79 277.261 253.774 277.347C253.759 277.43 253.693 277.495 253.612 277.537C253.531 277.58 253.427 277.603 253.324 277.601C253.221 277.598 253.116 277.569 253.031 277.505C252.725 277.27 251.863 276.577 251.076 276.045C250.293 275.515 249.618 275.187 248.667 274.882C248.361 274.784 247.736 274.634 247.257 274.538L246.843 274.465C246.241 274.38 245.363 274.3 244.728 274.277C244.283 274.26 243.552 274.257 243.212 274.269C242.219 274.305 240.948 274.432 240.249 274.563C237.568 275.073 235.156 276.252 234.246 278.601V278.602C234.23 278.643 234.215 278.677 234.2 278.705C234.186 278.732 234.172 278.755 234.156 278.771C234.141 278.788 234.118 278.803 234.09 278.801C234.076 278.8 234.065 278.794 234.055 278.787L234.029 278.762C234.023 278.753 234.021 278.743 234.021 278.738C234.019 278.732 234.019 278.726 234.019 278.72C234.018 278.707 234.02 278.691 234.021 278.674C234.025 278.639 234.034 278.593 234.046 278.541C234.07 278.436 234.113 278.301 234.174 278.171C235.383 275.598 238.157 274.51 240.884 274.157Z" stroke="black" stroke-opacity="0.13" stroke-width="0.0792298"/>
<ellipse cx="0.196817" cy="0.259688" rx="0.196817" ry="0.259688" transform="matrix(0.624534 0.780998 -0.851308 0.524666 253.51 277.047)" fill="#616161"/>
<path d="M253.323 277.252C253.417 277.155 253.585 277.21 253.674 277.273C254.14 277.621 254.432 277.924 254.959 278.491C255.043 278.581 255.016 278.714 254.904 278.795C254.791 278.876 254.643 278.882 254.551 278.783C254.013 278.205 253.745 277.857 253.323 277.542C253.212 277.459 253.229 277.349 253.323 277.252Z" fill="#B4B4B4"/>
<ellipse cx="0.1736" cy="0.229054" rx="0.1736" ry="0.229054" transform="matrix(0.624534 0.780998 -0.851308 0.524666 254.842 278.389)" fill="url(#paint8_linear_4794_61709)"/>
<path d="M254.532 278.421C254.693 278.523 254.812 278.717 254.777 278.735C254.742 278.753 254.776 278.694 254.501 278.474L254.532 278.421Z" fill="url(#paint9_linear_4794_61709)"/>
<path d="M254.378 278.455C254.552 278.539 254.696 278.719 254.664 278.741C254.632 278.762 254.658 278.7 254.354 278.511L254.378 278.455Z" fill="url(#paint10_linear_4794_61709)"/>
<path d="M254.501 278.495C254.663 278.595 254.785 278.788 254.75 278.806C254.716 278.825 254.749 278.765 254.47 278.548L254.501 278.495Z" fill="url(#paint11_linear_4794_61709)"/>
<path d="M254.489 278.18C254.738 278.306 254.941 278.573 254.894 278.604C254.846 278.634 254.886 278.544 254.451 278.261L254.489 278.18Z" fill="url(#paint12_linear_4794_61709)"/>
<path d="M254.41 278.244C254.699 278.391 254.935 278.7 254.88 278.736C254.825 278.772 254.871 278.666 254.366 278.338L254.41 278.244Z" fill="url(#paint13_linear_4794_61709)"/>
<path d="M254.406 278.388C254.582 278.477 254.726 278.665 254.693 278.687C254.659 278.709 254.687 278.644 254.38 278.444L254.406 278.388Z" fill="url(#paint14_linear_4794_61709)"/>
<path opacity="0.5" d="M254.482 278.644C254.361 278.452 253.484 277.548 253.364 277.49C253.244 277.432 253.39 277.269 253.463 277.312C253.584 277.382 254.22 277.912 254.659 278.467C254.504 278.536 254.522 278.707 254.482 278.644Z" fill="black" fill-opacity="0.4"/>
<path d="M254.441 278.597C254.353 278.436 253.44 277.534 253.371 277.506C253.302 277.477 253.328 277.392 253.395 277.441C253.462 277.49 254.055 277.975 254.494 278.53C254.54 278.587 254.476 278.662 254.441 278.597Z" fill="black" fill-opacity="0.5"/>
<path opacity="0.5" d="M254.697 278.345C254.412 277.971 253.682 277.337 253.612 277.309C253.542 277.282 253.616 277.269 253.684 277.317C253.753 277.365 254.326 277.8 254.78 278.345C254.826 278.402 254.742 278.405 254.697 278.345Z" fill="black" fill-opacity="0.4"/>
<path d="M247.875 274.473C247.97 274.491 248.065 274.512 248.159 274.534C249.853 274.941 251.699 275.84 253.07 276.809C253.144 276.863 253.222 276.922 253.293 276.978C253.311 276.992 253.321 277.011 253.322 277.031C253.323 277.052 253.314 277.072 253.298 277.087C253.282 277.102 253.26 277.111 253.237 277.112C253.213 277.113 253.191 277.105 253.174 277.091C253.106 277.035 253.032 276.975 252.962 276.921C251.643 275.929 249.833 274.992 248.156 274.541C248.063 274.517 247.969 274.494 247.875 274.473Z" fill="white"/>
<path d="M249.57 275.119C249.631 275.144 249.692 275.17 249.752 275.196C250.827 275.677 252.128 276.493 253.009 277.208C253.051 277.245 253.028 277.325 253.067 277.363C253.077 277.372 253.081 277.382 253.079 277.391C253.076 277.4 253.067 277.407 253.054 277.411C253.041 277.414 253.025 277.414 253.009 277.41C252.994 277.406 252.98 277.399 252.97 277.39C252.934 277.353 252.893 277.315 252.854 277.278C252.118 276.612 250.806 275.695 249.749 275.199C249.69 275.172 249.63 275.145 249.57 275.119Z" fill="black" fill-opacity="0.4"/>
<path d="M237.614 275.114C236.975 275.398 236.418 275.82 235.875 276.225C235.846 276.246 235.819 276.267 235.791 276.289C235.237 276.793 234.694 277.422 234.353 277.986C234.324 278.054 234.297 278.125 234.277 278.195C234.291 278.124 234.313 278.051 234.337 277.981C234.699 277.361 235.133 276.788 235.733 276.231C235.761 276.21 235.789 276.188 235.818 276.166C236.367 275.759 236.946 275.35 237.607 275.101C237.789 275.035 237.8 275.034 237.614 275.114Z" fill="white"/>
</g>
<defs>
<filter id="filter0_d_4794_61709" x="233.279" y="273.92" width="22.4801" height="6.38047" filterUnits="userSpaceOnUse" color-interpolation-filters="sRGB">
<feFlood flood-opacity="0" result="BackgroundImageFix"/>
<feColorMatrix in="SourceAlpha" type="matrix" values="0 0 0 0 0 0 0 0 0 0 0 0 0 0 0 0 0 0 127 0" result="hardAlpha"/>
<feOffset dy="0.7"/>
<feGaussianBlur stdDeviation="0.35"/>
<feComposite in2="hardAlpha" operator="out"/>
<feColorMatrix type="matrix" values="0 0 0 0 0 0 0 0 0 0 0 0 0 0 0 0 0 0 0.33 0"/>
<feBlend mode="normal" in2="BackgroundImageFix" result="effect1_dropShadow_4794_61709"/>
<feBlend mode="normal" in="SourceGraphic" in2="effect1_dropShadow_4794_61709" result="shape"/>
</filter>
<radialGradient id="paint0_radial_4794_61709" cx="0" cy="0" r="1" gradientUnits="userSpaceOnUse" gradientTransform="translate(271.596 259.029) rotate(90) scale(120.442 102.282)">
<stop stop-color="#151522"/>
<stop offset="0.167553" stop-color="#151522"/>
<stop offset="1" stop-color="#161420" stop-opacity="0"/>
</radialGradient>
<linearGradient id="paint1_linear_4794_61709" x1="299.899" y1="310.227" x2="304.62" y2="320.078" gradientUnits="userSpaceOnUse">
<stop/>
<stop offset="1" stop-opacity="0"/>
</linearGradient>
<linearGradient id="paint2_linear_4794_61709" x1="335.988" y1="163.073" x2="335.988" y2="114.41" gradientUnits="userSpaceOnUse">
<stop stop-color="#D9D9D9"/>
<stop offset="0.4375" stop-color="#D9D9D9" stop-opacity="0"/>
</linearGradient>
<linearGradient id="paint3_linear_4794_61709" x1="335.988" y1="163.073" x2="335.988" y2="114.41" gradientUnits="userSpaceOnUse">
<stop stop-color="#D9D9D9"/>
<stop offset="0.4375" stop-color="#D9D9D9" stop-opacity="0"/>
</linearGradient>
<linearGradient id="paint4_linear_4794_61709" x1="335.042" y1="268.564" x2="335.042" y2="91.3227" gradientUnits="userSpaceOnUse">
<stop stop-color="white" stop-opacity="0.8"/>
<stop offset="0.653846" stop-color="white" stop-opacity="0"/>
</linearGradient>
<linearGradient id="paint5_linear_4794_61709" x1="262.285" y1="362.856" x2="262.285" y2="259.854" gradientUnits="userSpaceOnUse">
<stop stop-color="white"/>
<stop offset="1" stop-color="white" stop-opacity="0.4"/>
</linearGradient>
<radialGradient id="paint6_radial_4794_61709" cx="0" cy="0" r="1" gradientUnits="userSpaceOnUse" gradientTransform="translate(269.262 301.119) scale(155.418 60.0839)">
<stop stop-color="white" stop-opacity="0"/>
<stop offset="0.408122" stop-color="#DEDEDE" stop-opacity="0.1"/>
<stop offset="0.747946" stop-color="#B2B2B2" stop-opacity="0.75"/>
<stop offset="1" stop-color="#999999" stop-opacity="0"/>
</radialGradient>
<linearGradient id="paint7_linear_4794_61709" x1="251.146" y1="279.305" x2="246.506" y2="269.362" gradientUnits="userSpaceOnUse">
<stop stop-color="white"/>
<stop offset="1" stop-color="white" stop-opacity="0.5"/>
</linearGradient>
<linearGradient id="paint8_linear_4794_61709" x1="0.0552687" y1="0.217496" x2="0.426343" y2="0.22064" gradientUnits="userSpaceOnUse">
<stop stop-color="#353736"/>
<stop offset="1" stop-color="#A6A6A6"/>
</linearGradient>
<linearGradient id="paint9_linear_4794_61709" x1="254.766" y1="278.711" x2="254.715" y2="278.607" gradientUnits="userSpaceOnUse">
<stop stop-color="#DCDCDC"/>
<stop offset="1" stop-color="#DCDCDC" stop-opacity="0"/>
</linearGradient>
<linearGradient id="paint10_linear_4794_61709" x1="254.65" y1="278.718" x2="254.587" y2="278.62" gradientUnits="userSpaceOnUse">
<stop stop-color="#DCDCDC"/>
<stop offset="1" stop-color="#DCDCDC" stop-opacity="0"/>
</linearGradient>
<linearGradient id="paint11_linear_4794_61709" x1="254.739" y1="278.782" x2="254.687" y2="278.679" gradientUnits="userSpaceOnUse">
<stop stop-color="#DCDCDC"/>
<stop offset="1" stop-color="#DCDCDC" stop-opacity="0"/>
</linearGradient>
<linearGradient id="paint12_linear_4794_61709" x1="254.861" y1="278.553" x2="254.808" y2="278.447" gradientUnits="userSpaceOnUse">
<stop stop-color="#DCDCDC"/>
<stop offset="1" stop-color="#DCDCDC" stop-opacity="0"/>
</linearGradient>
<linearGradient id="paint13_linear_4794_61709" x1="254.807" y1="278.637" x2="254.702" y2="278.476" gradientUnits="userSpaceOnUse">
<stop stop-color="#DCDCDC"/>
<stop offset="1" stop-color="#DCDCDC" stop-opacity="0"/>
</linearGradient>
<linearGradient id="paint14_linear_4794_61709" x1="254.652" y1="278.632" x2="254.592" y2="278.562" gradientUnits="userSpaceOnUse">
<stop stop-color="#DCDCDC"/>
<stop offset="1" stop-color="#DCDCDC" stop-opacity="0"/>
</linearGradient>
</defs>
</svg>
