<svg width="101" height="125" viewBox="0 0 101 125" fill="none" xmlns="http://www.w3.org/2000/svg">
<path fill-rule="evenodd" clip-rule="evenodd" d="M100.206 42.8563V42.8255C100.206 42.7438 100.211 42.9069 100.206 42.8255C100.211 42.917 100.206 42.7644 100.206 42.8563L58.327 0.0350692C58.157 0.0118376 57.9847 0 57.8109 0H19.2703C8.62763 0 0 8.71531 0 19.4661V105.117C0 115.868 8.62763 124.583 19.2703 124.583H80.9353C91.5779 124.583 100.206 115.868 100.206 105.117V42.8563ZM53.9569 27.2526C53.9569 38.0034 62.5846 46.7188 73.2272 46.7188H92.4975V105.117C92.4975 111.568 87.3211 116.797 80.9353 116.797H19.2703C12.8847 116.797 7.70812 111.568 7.70812 105.117V19.4661C7.70812 13.0156 12.8847 7.78646 19.2703 7.78646H53.9569V27.2526ZM61.665 13.2923L87.0471 38.9323H73.2272C66.8414 38.9323 61.665 33.7031 61.665 27.2526V13.2923Z" fill="white"/>
<rect x="29.4609" y="51.293" width="42" height="42" rx="21" fill="#D2B2FF" stroke="black" stroke-width="2"/>
<path d="M59.0443 64.3667C59.5589 63.7246 60.5208 63.6032 61.1921 64.0954C61.8632 64.5878 61.99 65.5082 61.4756 66.1506L50.2082 80.2196C49.9435 80.5497 49.5445 80.7565 49.111 80.7886C48.6773 80.8206 48.2494 80.6754 47.9348 80.3879L39.5988 72.7672C38.9873 72.2082 38.9647 71.2801 39.5486 70.6948C40.1327 70.1097 41.1026 70.088 41.7142 70.6467L48.8167 77.1385L59.0443 64.3667Z" fill="black"/>
</svg>
