<svg width="996" height="700" viewBox="0 0 996 700" fill="none" xmlns="http://www.w3.org/2000/svg">
<mask id="mask0_7357_63934" style="mask-type:alpha" maskUnits="userSpaceOnUse" x="0" y="8" width="828" height="829">
<circle cx="414" cy="422.668" r="414" fill="url(#paint0_radial_7357_63934)"/>
</mask>
<g mask="url(#mask0_7357_63934)">
<path d="M466.626 399.924C470.574 399.924 474.19 402.136 475.987 405.651L532.495 521.258H367.758C363.398 521.258 359.491 518.567 357.936 514.494L314.195 399.924H466.626Z" fill="#D2B2FF"/>
<path fill-rule="evenodd" clip-rule="evenodd" d="M466.913 336.467C470.861 336.467 474.477 338.679 476.275 342.194L565.233 516.158C566.425 518.49 564.731 521.257 562.112 521.258H532.494L475.986 405.651C474.189 402.136 470.573 399.924 466.625 399.924H314.195L292.237 342.41C291.143 339.542 293.261 336.467 296.33 336.467H466.913Z" fill="#D2B2FF" fill-opacity="0.4"/>
<path fill-rule="evenodd" clip-rule="evenodd" d="M275.173 399.924C279.121 399.924 282.736 402.136 284.534 405.651L327.79 522.135H173.87C161.716 522.135 154.359 514.378 151.863 504.623L123.012 409.678C121.435 402.781 124.62 399.924 127.58 399.924H275.173Z" fill="#D9D9D9" fill-opacity="0.1"/>
<path fill-rule="evenodd" clip-rule="evenodd" d="M277.057 337.342C281.417 337.342 285.324 340.033 286.879 344.106L352.123 515.001C353.437 518.442 350.895 522.133 347.212 522.133H327.796L284.54 405.65C282.742 402.135 279.127 399.923 275.179 399.923H127.586C124.626 399.923 121.441 402.779 123.017 409.674L107.809 359.627C103.898 347.513 116.209 337.342 128.362 337.342H277.057Z" fill="#D9D9D9" fill-opacity="0.1"/>
<path d="M636.69 399.709C652.367 399.709 656.649 399.709 667.998 416.553L728.971 521.922L728.901 522.134H582.535C578.587 522.134 574.971 519.922 573.174 516.406L513.5 399.709H636.69Z" fill="#D9D9D9" fill-opacity="0.1"/>
<path d="M642.258 337.342C654.412 337.342 662.602 345.56 668.977 354.854L756.887 501.872C761.88 510.064 749.084 522.133 736.93 522.133H728.904L728.972 521.922L667.998 416.552C656.65 399.709 652.367 399.709 636.691 399.709H513.501L484.217 342.442C483.025 340.11 484.718 337.342 487.337 337.342H642.258Z" fill="#D9D9D9" fill-opacity="0.1"/>
<path d="M162.218 331.902H127.999C112.327 331.902 97.6656 343.235 101.578 360.039L145.136 504.712C148.525 517.133 157.84 527.293 173.512 527.293H737.11C752.782 527.293 770.572 512.443 761.965 499.547L675.527 354.483C666.898 342.063 657.531 331.902 641.859 331.902H601.954M668.578 354.483L756.488 501.501C761.482 509.693 748.684 521.763 736.531 521.763H582.137C578.189 521.763 574.573 519.551 572.775 516.036L483.818 342.072C482.625 339.74 484.319 336.971 486.938 336.971H641.859C654.013 336.971 662.203 345.189 668.578 354.483ZM151.506 504.251L107.446 359.257C103.534 347.143 115.845 336.971 127.999 336.971H276.693C281.053 336.971 284.961 339.662 286.516 343.736L351.759 514.631C353.073 518.072 350.532 521.763 346.848 521.763H173.512C161.358 521.763 154.002 514.006 151.506 504.251ZM477.189 342.699L566.147 516.662C567.339 518.995 565.645 521.763 563.026 521.763H368.672C364.312 521.763 360.404 519.072 358.849 514.999L293.152 342.915C292.057 340.047 294.175 336.971 297.245 336.971H467.828C471.776 336.971 475.392 339.183 477.189 342.699Z" stroke="white" stroke-width="2"/>
<path d="M314.289 399.553H466.263C470.211 399.553 473.826 401.765 475.624 405.28L532.569 521.781" stroke="white" stroke-width="2"/>
<path d="M327.102 520.905L284.176 405.28C282.378 401.765 278.763 399.553 274.815 399.553H127.222C124.155 399.553 120.846 402.619 122.841 410.067" stroke="white" stroke-width="2"/>
<path d="M641.855 337.342V399.551M668.574 354.866V419.266M472.751 338.218V400.428M281.741 338.218V402.618M126.781 337.78V399.551" stroke="white"/>
<path d="M71.1734 111.121C59.0241 111.121 55.5852 119.638 58.0135 130.349L94.9725 289.557C97.1759 302.859 114.616 314.028 126.765 314.028H275.79H630.269C642.418 314.028 649.721 305.282 648.139 294.8L614.885 133.369C615.742 124.374 596.858 111.121 594.876 111.121M160.088 319.594H129.324C113.657 319.594 93.282 307.15 88.7118 288.699L51.413 129.843C48.5322 116.205 52.7162 105.049 68.3824 105.049L592.664 105.049C608.33 105.049 623.441 121.354 621.346 135.514L655.086 294.8C656.761 308.792 648.493 319.594 632.827 319.594H598.881" stroke="url(#paint1_linear_7357_63934)" stroke-width="2"/>
<path d="M160.516 317.008H598.119L601.239 333.655H163.636L160.516 317.008Z" stroke="url(#paint2_linear_7357_63934)" stroke-width="2"/>
<path d="M176.325 611.407H729.477C743.114 611.407 758.164 600.737 756.387 587.905L764.214 508.233M176.325 611.407C157.931 611.407 148.148 599.656 145.149 585.786M176.325 611.407V527.035M145.149 585.786L101.409 428.717C101.104 427.255 100.951 425.816 100.938 424.408V354.684M145.149 585.786V505.1M728.612 521.551L667.639 416.182C656.29 399.338 652.008 399.338 636.331 399.338H513.664" stroke="white" stroke-width="2"/>
<path d="M531.141 416.646H533.56L540.304 427.869H537.884L531.141 416.646Z" fill="white"/>
<path d="M538.11 419.492H540.283L541.195 420.899C541.126 419.776 542.23 419.302 543.843 419.302C546.509 419.302 548.683 420.646 549.785 422.479L553.023 427.869H550.649L547.723 423.001C546.831 421.515 545.697 420.709 544.039 420.709C542.314 420.709 541.7 421.515 542.593 423.001L545.518 427.869H543.144L538.11 419.492Z" fill="white"/>
<path d="M560.069 422.432C559.186 421.373 557.651 420.756 556.307 420.756C554.29 420.756 553.758 421.847 554.86 423.68C555.962 425.514 557.804 426.605 559.821 426.605C561.232 426.605 562.008 425.957 561.551 424.787L564.095 424.882C564.914 426.842 563.428 428.059 560.694 428.059C557.244 428.059 553.991 426.336 552.396 423.68C550.8 421.025 551.983 419.302 555.433 419.302C558.076 419.302 561.032 420.456 562.476 422.337L560.069 422.432Z" fill="white"/>
<path d="M572.983 428.059C569.555 428.059 566.289 426.352 564.684 423.68C563.079 421.009 564.293 419.302 567.721 419.302C571.126 419.302 574.392 421.009 575.998 423.68C577.603 426.352 576.388 428.059 572.983 428.059ZM567.148 423.68C568.25 425.514 570.093 426.605 572.109 426.605C574.125 426.605 574.635 425.514 573.533 423.68C572.431 421.847 570.611 420.756 568.595 420.756C566.579 420.756 566.046 421.847 567.148 423.68Z" fill="white"/>
<path d="M575.544 419.492H577.717L578.588 420.867C578.572 419.871 579.44 419.302 581.03 419.302C582.733 419.302 584.345 419.934 585.525 421.041C585.389 419.918 586.25 419.302 588.043 419.302C590.44 419.302 592.558 420.44 593.783 422.479L597.021 427.869H594.647L591.721 423.001C590.829 421.515 589.605 420.709 588.261 420.709C586.558 420.709 586.121 421.547 586.994 423.001L589.92 427.869H587.679L584.754 423.001C583.88 421.547 582.615 420.709 581.293 420.709C579.613 420.709 579.153 421.547 580.027 423.001L582.952 427.869H580.577L575.544 419.492Z" fill="white"/>
<path d="M600.941 430.24L594.483 419.492H596.701L597.518 420.74C597.608 419.808 598.558 419.302 600.261 419.302C603.734 419.302 606.585 421.325 608 423.68C609.415 426.036 608.995 428.059 605.523 428.059C603.91 428.059 602.393 427.585 601.189 426.7L603.316 430.24H600.941ZM599.173 423.68C600.075 425.182 601.903 426.621 604.098 426.621C606.339 426.621 606.434 425.214 605.513 423.68C604.601 422.163 602.783 420.74 600.565 420.74C598.37 420.74 598.271 422.179 599.173 423.68Z" fill="white"/>
<path d="M608.861 422.005C608.315 420.314 609.589 419.302 612.322 419.302C615.548 419.302 618.078 420.567 619.455 422.859L621.326 425.972C621.582 426.399 621.946 426.557 622.417 426.557H622.887L623.675 427.869H622.936C621.87 427.885 620.338 427.759 619.514 426.573C619.46 427.379 618.547 428.059 616.576 428.059C614.178 428.059 611.755 427.158 610.862 425.672C609.856 423.997 611.331 423.507 613.846 423.143L616.966 422.669C616.136 421.325 614.864 420.661 613.139 420.661C611.75 420.661 611.135 421.167 611.391 422.116L608.861 422.005ZM613.308 425.641C613.678 426.257 614.744 426.763 616.312 426.763C618.072 426.747 618.93 425.862 617.847 424.06L617.78 423.949L615.439 424.265C613.927 424.471 612.671 424.581 613.308 425.641Z" fill="white"/>
<path d="M619.656 417.595H622.031L623.17 419.492H626.307L627.124 420.851H623.987L626.76 425.467C627.169 426.146 627.848 426.494 628.767 426.494H630.492L631.318 427.869H629.347C627.061 427.869 625.326 427.032 624.386 425.467L621.612 420.851H619.798L618.981 419.492H620.795L619.656 417.595Z" fill="white"/>
<path d="M628.307 419.492H630.682L635.715 427.869H633.341L628.307 419.492ZM627.521 418.259L626.562 416.662H629.049L630.008 418.259H627.521Z" fill="white"/>
<path d="M631.228 416.646H633.603L635.987 420.614C636.175 419.808 637.26 419.302 638.805 419.302C641.897 419.302 644.84 420.993 646.455 423.68C648.069 426.368 647.159 428.059 644.067 428.059C642.432 428.059 640.72 427.522 639.535 426.668L640.189 427.869H637.971L631.228 416.646ZM637.65 423.68C638.733 425.482 640.649 426.621 642.598 426.621C644.502 426.621 645.073 425.482 643.99 423.68C642.889 421.847 640.963 420.693 639.036 420.693C637.087 420.693 636.548 421.847 637.65 423.68Z" fill="white"/>
<path d="M644.457 416.646H646.832L652.407 425.925C652.635 426.304 653.04 426.494 653.556 426.494H654.519L655.345 427.869H653.867C652.276 427.869 650.764 427.142 650.08 426.004L644.457 416.646Z" fill="white"/>
<path d="M653.998 423.68C652.403 421.025 653.585 419.302 657.036 419.302C659.881 419.302 663.085 420.646 664.983 423.617L665.328 424.155H656.793C657.89 425.72 659.583 426.636 661.443 426.636C662.607 426.636 663.388 426.146 663.375 425.34L665.937 425.467C666.202 427.063 664.717 428.059 662.297 428.059C658.847 428.059 655.594 426.336 653.998 423.68ZM656.087 422.906H662.069C660.841 421.309 659.235 420.725 657.89 420.725C656.165 420.725 655.53 421.531 656.087 422.906Z" fill="white"/>
<path d="M153.201 423.266C153.626 425.82 152.001 427.474 148.268 427.474C143.636 427.474 139.821 424.821 138.445 421.415C137.069 418.01 138.728 415.324 143.36 415.324C146.845 415.324 149.812 416.88 151.488 419.303L148.964 419.401C147.857 417.829 146.061 416.945 143.992 416.945C140.642 416.945 139.978 418.976 140.964 421.415C141.943 423.839 144.263 425.853 147.591 425.853C149.772 425.853 150.843 424.887 150.576 423.167L153.201 423.266Z" fill="white"/>
<path d="M162.006 427.408C158.565 427.408 155.602 425.64 154.484 422.873C153.366 420.105 154.9 418.337 158.341 418.337C161.758 418.337 164.722 420.105 165.84 422.873C166.958 425.64 165.424 427.408 162.006 427.408ZM156.958 422.873C157.725 424.772 159.373 425.902 161.397 425.902C163.421 425.902 164.134 424.772 163.366 422.873C162.599 420.973 160.973 419.843 158.949 419.843C156.926 419.843 156.19 420.973 156.958 422.873Z" fill="white"/>
<path d="M166.157 418.534H168.338L168.994 419.991C169.132 418.828 170.327 418.337 171.946 418.337C174.622 418.337 176.556 419.729 177.323 421.628L179.579 427.212H177.196L175.158 422.169C174.536 420.629 173.547 419.794 171.883 419.794C170.152 419.794 169.387 420.629 170.009 422.169L172.047 427.212H169.663L166.157 418.534Z" fill="white"/>
<path d="M178.933 416.569H181.317L182.111 418.534H185.259L185.828 419.942H182.68L184.611 424.723C184.896 425.427 185.514 425.787 186.436 425.787H188.167L188.743 427.212H186.764C184.47 427.212 182.883 426.344 182.228 424.723L180.296 419.942H178.475L177.906 418.534H179.727L178.933 416.569Z" fill="white"/>
<path d="M187.823 421.137C187.588 419.385 189.053 418.337 191.796 418.337C195.034 418.337 197.34 419.647 198.299 422.021L199.602 425.247C199.781 425.689 200.117 425.853 200.589 425.853H201.061L201.61 427.212H200.868C199.796 427.228 198.281 427.097 197.673 425.869C197.47 426.704 196.428 427.408 194.449 427.408C192.044 427.408 189.778 426.475 189.156 424.936C188.455 423.2 190.026 422.693 192.617 422.316L195.836 421.825C195.251 420.433 194.097 419.745 192.365 419.745C190.971 419.745 190.261 420.269 190.343 421.252L187.823 421.137ZM191.616 424.903C191.874 425.542 192.85 426.066 194.424 426.066C196.194 426.049 197.217 425.132 196.463 423.266L196.417 423.151L194.008 423.479C192.453 423.691 191.173 423.806 191.616 424.903Z" fill="white"/>
<path d="M199.907 418.534H202.088L202.708 419.958C202.876 418.927 203.852 418.337 205.449 418.337C207.158 418.337 208.659 418.992 209.639 420.138C209.709 418.976 210.688 418.337 212.487 418.337C214.893 418.337 216.808 419.516 217.661 421.628L219.917 427.212H217.534L215.496 422.169C214.874 420.629 213.795 419.794 212.446 419.794C210.737 419.794 210.143 420.662 210.752 422.169L212.789 427.212H210.541L208.503 422.169C207.895 420.662 206.78 419.794 205.453 419.794C203.767 419.794 203.15 420.662 203.759 422.169L205.797 427.212H203.413L199.907 418.534Z" fill="white"/>
<path d="M219.333 418.534H221.716L225.222 427.212H222.839L219.333 418.534ZM218.772 417.256L218.103 415.603H220.599L221.268 417.256H218.772Z" fill="white"/>
<path d="M224.332 418.534H226.513L227.169 419.991C227.307 418.828 228.502 418.337 230.121 418.337C232.797 418.337 234.731 419.729 235.498 421.628L237.754 427.212H235.371L233.333 422.169C232.711 420.629 231.722 419.794 230.058 419.794C228.326 419.794 227.562 420.629 228.184 422.169L230.222 427.212H227.838L224.332 418.534Z" fill="white"/>
<path d="M237.464 421.137C237.228 419.385 238.694 418.337 241.437 418.337C244.675 418.337 246.98 419.647 247.939 422.021L249.243 425.247C249.421 425.689 249.757 425.853 250.23 425.853H250.702L251.251 427.212H250.509C249.436 427.228 247.922 427.097 247.313 425.869C247.111 426.704 246.069 427.408 244.09 427.408C241.684 427.408 239.418 426.475 238.796 424.936C238.095 423.2 239.666 422.693 242.257 422.316L245.477 421.825C244.892 420.433 243.737 419.745 242.006 419.745C240.612 419.745 239.901 420.269 239.984 421.252L237.464 421.137ZM241.256 424.903C241.514 425.542 242.491 426.066 244.065 426.066C245.834 426.049 246.858 425.132 246.104 423.266L246.057 423.151L243.649 423.479C242.094 423.691 240.813 423.806 241.256 424.903Z" fill="white"/>
<path d="M249.112 416.569H251.496L252.29 418.534H255.438L256.007 419.942H252.859L254.79 424.723C255.075 425.427 255.693 425.787 256.614 425.787H258.346L258.921 427.212H256.943C254.649 427.212 253.062 426.344 252.407 424.723L250.475 419.942H248.654L248.085 418.534H249.906L249.112 416.569Z" fill="white"/>
<path d="M258.194 422.873C257.082 420.122 258.587 418.337 262.05 418.337C264.906 418.337 267.874 419.729 269.23 422.807L269.477 423.364H260.91C261.723 424.985 263.253 425.935 265.12 425.935C266.289 425.935 267.163 425.427 267.298 424.592L269.847 424.723C269.818 426.377 268.143 427.408 265.715 427.408C262.252 427.408 259.305 425.624 258.194 422.873ZM260.433 422.07H266.436C265.498 420.417 263.994 419.811 262.645 419.811C260.914 419.811 260.127 420.646 260.433 422.07Z" fill="white"/>
<path d="M278.909 415.586L283.606 427.212H281.38L280.81 425.967C280.493 426.852 279.324 427.408 277.682 427.408C274.579 427.408 271.938 425.656 270.813 422.873C269.688 420.089 270.914 418.337 274.017 418.337C275.569 418.337 277.174 418.861 278.186 419.696L276.526 415.586H278.909ZM273.286 422.873C274.04 424.739 275.776 425.918 277.687 425.918C279.643 425.918 280.404 424.739 279.65 422.873C278.882 420.973 277.163 419.778 275.206 419.778C273.273 419.778 272.519 420.973 273.286 422.873Z" fill="white"/>
<path d="M367.385 428.347L361.164 416.646H366.738C370.677 416.646 373.207 417.701 374.373 419.893C375.083 421.228 374.459 422.118 372.698 422.299C375.099 422.48 376.955 423.485 377.778 425.034C378.917 427.177 377.525 428.347 373.854 428.347H367.385ZM368.953 426.748H373.026C375.019 426.748 375.872 426.122 375.259 424.968C374.636 423.798 373.108 423.156 371.116 423.156H367.043L368.953 426.748ZM366.236 421.64H369.482C371.608 421.64 372.502 421.046 371.923 419.959C371.319 418.822 369.871 418.245 367.677 418.245H364.431L366.236 421.64Z" fill="#0E0C14"/>
<path d="M377.395 419.613H379.567L380.51 421.261C380.339 420.14 380.954 419.613 382.476 419.613H383.618L384.38 421.046H383.216C381.359 421.046 380.933 421.804 381.704 423.255L384.412 428.347H382.039L377.395 419.613Z" fill="#0E0C14"/>
<path d="M394.822 428.544C391.398 428.544 388.213 426.765 386.732 423.98C385.252 421.195 386.544 419.415 389.968 419.415C393.37 419.415 396.555 421.195 398.036 423.98C399.517 426.765 398.225 428.544 394.822 428.544ZM389.195 423.98C390.211 425.891 392.002 427.028 394.016 427.028C396.031 427.028 396.59 425.891 395.574 423.98C394.557 422.068 392.789 420.931 390.774 420.931C388.76 420.931 388.178 422.068 389.195 423.98Z" fill="#0E0C14"/>
<path d="M396.198 416.646H398.57L402.443 423.93L405.408 419.613H408.474L405.764 423.271L413.32 428.347H410.567L404.762 424.375L403.565 426.04L404.792 428.347H402.419L396.198 416.646Z" fill="#0E0C14"/>
<path d="M411.309 423.98C409.837 421.211 411.098 419.415 414.545 419.415C417.387 419.415 420.527 420.816 422.286 423.914L422.607 424.474H414.079C415.103 426.106 416.753 427.061 418.61 427.061C419.774 427.061 420.577 426.55 420.6 425.71L423.155 425.842C423.346 427.506 421.816 428.544 419.399 428.544C415.952 428.544 412.781 426.748 411.309 423.98ZM413.431 423.172H419.408C418.254 421.508 416.676 420.898 415.333 420.898C413.61 420.898 412.937 421.739 413.431 423.172Z" fill="#0E0C14"/>
<path d="M422.089 419.613H424.26L425.107 421.079C425.09 419.909 426.215 419.415 427.826 419.415C430.49 419.415 432.6 420.816 433.616 422.727L436.604 428.347H434.232L431.533 423.271C430.709 421.722 429.613 420.882 427.957 420.882C426.233 420.882 425.583 421.722 426.407 423.271L429.106 428.347H426.733L422.089 419.613Z" fill="#0E0C14"/>
</g>
<mask id="mask1_7357_63934" style="mask-type:alpha" maskUnits="userSpaceOnUse" x="245" y="0" width="782" height="269">
<rect x="245" width="781.562" height="268.99" fill="url(#paint3_linear_7357_63934)"/>
</mask>
<g mask="url(#mask1_7357_63934)">
<path d="M320.238 38.9844C289.088 53.5117 326.684 117.001 347.63 143.366C366.407 167.001 388.695 169.42 402.398 169.42C412.36 169.42 483.141 169.29 520.728 169.407C523.179 169.415 525.571 168.691 527.608 167.328C529.632 165.973 532.012 165.249 534.447 165.249H654.873" stroke="url(#paint4_linear_7357_63934)"/>
<path d="M332.035 96.5955C369.091 165.218 397.322 160.884 408.118 160.884H937.152C945.873 160.884 948.151 156.911 941.495 148.243C934.838 139.575 904.48 108.514 888.886 93.7061C873.293 78.8981 867.055 72.397 847.931 57.2278C828.808 42.0587 813.233 40.2525 797.869 40.2525C782.504 40.2525 343.372 39.8911 334.86 40.2523C326.348 40.6134 299.739 36.7864 332.035 96.5955Z" stroke="white"/>
<path d="M490.399 216.003C502.856 216.003 522.789 205.16 537.738 205.16C665.495 205.16 793.255 203.492 921.017 203.492C931.814 203.492 936.848 199.676 941.645 194.481C945.952 189.817 953.822 170.545 952.161 156.366C950.5 142.186 874.112 74.676 855.175 56.2026C832.617 34.1977 794.19 34.1977 789.622 34.1977C785.055 34.1977 754.415 34.6148 714.551 34.1977C674.686 33.7807 357.434 35.8662 339.993 35.8661C322.948 35.8661 311.34 40.8706 305.941 51.2965C302.589 57.7687 290.5 82.567 308.962 132.606C318.361 158.08 326.149 178.878 346.021 200.938C359.592 216.003 376.204 216.003 393.23 216.003H490.399Z" stroke="white" stroke-width="2"/>
<path d="M347.679 51.2682C345.815 47.9493 347.397 45.2812 351.228 45.2812H790.079C792.966 45.2812 796.442 46.8169 798.832 49.1483L902.379 150.162C905.872 153.57 905.088 157.244 900.868 157.244H413.26C409.916 157.244 405.852 154.876 404.226 151.979L347.679 51.2682Z" fill="#1C192D"/>
<path d="M347.679 51.2682C345.815 47.9493 347.397 45.2812 351.228 45.2812H790.079C792.966 45.2812 796.442 46.8169 798.832 49.1483L902.379 150.162C905.872 153.57 905.088 157.244 900.868 157.244H413.26C409.916 157.244 405.852 154.876 404.226 151.979L347.679 51.2682Z" stroke="white" stroke-width="2"/>
<path d="M389.199 185.362H407.962C409.067 185.362 409.962 186.258 409.962 187.362V195.04C409.962 196.144 409.067 197.04 407.962 197.04H389.199M389.199 185.362V197.04M389.199 185.362C380.894 185.362 362.623 186.614 355.148 176.188M389.199 197.04C382.14 197.318 361.792 197.874 357.64 188.699" stroke="url(#paint5_linear_7357_63934)"/>
<rect x="431.836" y="187.297" width="56.4745" height="10.8432" rx="5.42158" stroke="white" stroke-width="2"/>
<rect x="551.062" y="181.918" width="56.4745" height="10.8432" rx="5.42158" stroke="white" stroke-width="2"/>
<path d="M488.719 192.719V190.216C488.719 187.222 486.302 184.795 483.321 184.795H436.812C433.831 184.795 431.414 187.222 431.414 190.216V192.302" stroke="white"/>
<path d="M607.953 187.338V184.836C607.953 181.841 605.537 179.414 602.555 179.414H556.047C553.065 179.414 550.648 181.841 550.648 184.836V186.921" stroke="white"/>
<ellipse cx="6.64406" cy="3.75171" rx="6.64406" ry="3.75171" transform="matrix(1 0 0.499325 0.866414 372.336 133.143)" stroke="white" stroke-width="2"/>
<ellipse cx="2.90678" cy="1.66743" rx="2.90678" ry="1.66743" transform="matrix(1 0 0.499325 0.866414 342.258 70.9453)" stroke="white" stroke-width="2"/>
<ellipse cx="2.90678" cy="1.66743" rx="2.90678" ry="1.66743" transform="matrix(1 0 0.499325 0.866414 336.891 63.1953)" stroke="white" stroke-width="2"/>
<path d="M336.145 84.2197C335.826 83.628 336.115 83.1582 336.798 83.1582C337.498 83.1582 338.347 83.6492 338.696 84.2549L350.153 104.135C350.604 104.917 350.238 105.551 349.335 105.551C348.412 105.551 347.29 104.889 346.859 104.089L336.145 84.2197Z" fill="white"/>
<rect width="6.64406" height="27.5126" rx="3.32203" transform="matrix(1 0 0.499325 0.866414 348.031 81.4902)" stroke="white" stroke-width="2"/>
<path d="M307.847 92.328C308.065 91.1498 308.208 89.7759 308.51 88.8179C309.143 86.8118 310.371 86.9145 311.469 89.3851C318.194 104.829 321.733 112.122 331.797 130.559C333.151 133.604 333.683 138.847 332.927 141.687L328.527 163.864C327.826 166.498 326.367 166.356 325.112 163.53C318.348 147.775 313.454 134.695 307.729 118.658C307.21 117.206 306.634 115.914 306.183 114.276C305.661 112.377 305.342 110.149 305.297 108.083C305.258 106.319 305.512 104.942 305.757 103.617L307.847 92.328Z" stroke="white" stroke-width="2" stroke-linecap="round"/>
<path d="M310.711 98.9973C310.93 97.751 311.525 97.6779 312.038 98.834L327.905 134.27C328.419 135.426 328.657 137.374 328.438 138.62L325.974 151.899C325.754 153.145 325.16 153.218 324.646 152.062L309.854 113.398C309.34 112.241 309.101 110.294 309.321 109.048L310.711 98.9973Z" stroke="white" stroke-width="2" stroke-linecap="round"/>
<path d="M329.649 133.624L311.608 93.0298C310.982 91.6227 310.284 91.5323 309.908 92.6184C309.706 93.2028 309.613 94.0853 309.469 94.8277L307.323 105.874C307.148 106.776 306.967 107.721 307.007 108.948C307.065 110.758 307.45 112.737 308.043 114.073L324.075 157.678C324.866 159.458 325.784 159.546 326.226 157.886L330.308 140.114M329.649 133.624C330.438 135.4 330.749 138.457 330.308 140.114M329.649 133.624L328.314 135.536M330.308 140.114L328.853 139.112M325.608 152.512L326.034 158.236M324.534 152.512L324.088 157.481M308.958 109.468L307.082 108.217M309.495 112.696L308.021 113.952M320.127 130.394C319.765 132.451 318.785 132.571 317.937 130.664C317.089 128.756 316.695 125.543 317.057 123.486C317.419 121.43 318.4 121.309 319.247 123.217C320.095 125.125 320.489 128.338 320.127 130.394ZM325.084 142.755C324.656 145.185 323.497 145.328 322.495 143.073C321.493 140.819 321.028 137.021 321.456 134.591C321.883 132.161 323.042 132.018 324.044 134.273C325.046 136.527 325.512 140.325 325.084 142.755ZM315.845 116.951C315.373 119.631 314.096 119.788 312.991 117.302C311.886 114.817 311.373 110.63 311.845 107.95C312.316 105.271 313.594 105.113 314.699 107.599C315.804 110.085 316.317 114.272 315.845 116.951Z" stroke="white"/>
<path d="M310.571 99.4208L309.498 94.404M312.355 99.4208L312.355 94.404" stroke="white"/>
<path d="M364.973 54.5213L607.58 54.9608L628.999 54.3049C632.936 54.1844 636 57.6938 635.35 61.5786L621.923 141.822C621.43 144.772 618.915 146.958 615.925 147.035L603.919 147.347L419.323 145.671C415.746 145.639 412.444 143.744 410.612 140.671L362.175 59.4357C360.882 57.2671 362.448 54.5168 364.973 54.5213Z" fill="url(#paint6_linear_7357_63934)" fill-opacity="0.1" stroke="url(#paint7_linear_7357_63934)" stroke-opacity="0.2" stroke-width="1.53713"/>
</g>
<mask id="mask2_7357_63934" style="mask-type:alpha" maskUnits="userSpaceOnUse" x="401" y="442" width="59" height="84">
<path d="M430.183 482.304C433.935 491.18 442.252 521.743 442.61 525.195C448.172 518.406 459.25 504.367 459.059 502.526C458.821 500.226 449.276 480.176 443.553 467.193C438.974 456.806 423.61 446.208 416.5 442.206L412.874 446.97L413.491 447.956L411.878 447.298L412.804 448.778L411.19 448.12L401.041 452.059C404.987 454.526 414.366 460.872 420.308 466.526C427.736 473.595 426.431 473.429 430.183 482.304Z" fill="#D9D9D9"/>
</mask>
<g mask="url(#mask2_7357_63934)">
<g filter="url(#filter0_d_7357_63934)">
<mask id="path-39-outside-1_7357_63934" maskUnits="userSpaceOnUse" x="348.487" y="436.53" width="98.1375" height="66.4818" fill="black">
<rect fill="white" x="348.487" y="436.53" width="98.1375" height="66.4818"/>
<path fill-rule="evenodd" clip-rule="evenodd" d="M357.1 443.436C356.797 441.576 359.603 438.795 362.832 440.731C366.06 442.667 371.54 448.838 374.221 452.298C378.697 458.077 385.288 465.67 390.42 470.715C398.511 478.676 404.893 483.521 413.142 487.907C416.686 489.79 425.242 491.795 428.186 493.695C431.13 495.596 444.405 501.101 434.473 498.013C424.541 494.925 424.778 496.007 418.559 493.513C412.483 491.074 409.339 489.378 402.681 484.939C395.103 479.897 391.85 477.27 376.974 464.294C364.98 453.824 362.767 451.771 360.189 448.654C358.175 446.24 357.326 444.793 357.1 443.436Z"/>
</mask>
<path fill-rule="evenodd" clip-rule="evenodd" d="M357.1 443.436C356.797 441.576 359.603 438.795 362.832 440.731C366.06 442.667 371.54 448.838 374.221 452.298C378.697 458.077 385.288 465.67 390.42 470.715C398.511 478.676 404.893 483.521 413.142 487.907C416.686 489.79 425.242 491.795 428.186 493.695C431.13 495.596 444.405 501.101 434.473 498.013C424.541 494.925 424.778 496.007 418.559 493.513C412.483 491.074 409.339 489.378 402.681 484.939C395.103 479.897 391.85 477.27 376.974 464.294C364.98 453.824 362.767 451.771 360.189 448.654C358.175 446.24 357.326 444.793 357.1 443.436Z" fill="url(#paint8_linear_7357_63934)" fill-opacity="0.8"/>
<path d="M357.1 443.436L355.777 443.331L355.778 443.334L357.1 443.436ZM362.832 440.731L363.388 439.795L363.388 439.795L362.832 440.731ZM374.221 452.298L373.174 452.802L373.174 452.802L374.221 452.298ZM390.42 470.715L391.316 470.042L391.315 470.042L390.42 470.715ZM413.142 487.907L412.669 488.889L412.669 488.889L413.142 487.907ZM428.186 493.695L427.578 494.599L427.578 494.599L428.186 493.695ZM434.473 498.013L434.635 496.901L434.635 496.901L434.473 498.013ZM418.559 493.513L418.263 494.578L418.263 494.578L418.559 493.513ZM402.681 484.939L403.312 484.051L403.311 484.05L402.681 484.939ZM376.974 464.294L376.156 465.039L376.156 465.04L376.974 464.294ZM360.189 448.654L361.204 448.11L361.199 448.104L360.189 448.654ZM357.1 443.436L358.424 443.541C358.395 443.364 358.432 443.046 358.644 442.662C358.847 442.292 359.172 441.937 359.579 441.675C360.392 441.153 361.325 441.096 362.276 441.666L362.832 440.731L363.388 439.795C361.11 438.43 359.025 438.796 357.704 439.645C357.043 440.069 356.522 440.637 356.184 441.251C355.854 441.851 355.654 442.578 355.777 443.331L357.1 443.436ZM362.832 440.731L362.276 441.666C363.654 442.493 365.684 444.354 367.796 446.575C369.864 448.75 371.868 451.115 373.174 452.802L374.221 452.298L375.268 451.795C373.894 450.021 371.817 447.57 369.668 445.311C367.563 443.097 365.238 440.905 363.388 439.795L362.832 440.731ZM374.221 452.298L373.174 452.802C377.685 458.624 384.325 466.278 389.524 471.389L390.42 470.715L391.315 470.042C386.25 465.063 379.709 457.529 375.268 451.795L374.221 452.298ZM390.42 470.715L389.524 471.388C397.709 479.441 404.23 484.402 412.669 488.889L413.142 487.907L413.615 486.925C405.556 482.639 399.314 477.911 391.316 470.042L390.42 470.715ZM413.142 487.907L412.669 488.889C414.616 489.924 417.836 490.952 420.697 491.897C422.175 492.385 423.596 492.861 424.824 493.33C426.08 493.809 427.015 494.235 427.578 494.599L428.186 493.695L428.794 492.792C427.885 492.206 426.646 491.669 425.359 491.178C424.045 490.677 422.553 490.178 421.081 489.692C418.042 488.688 415.213 487.773 413.615 486.924L413.142 487.907ZM428.186 493.695L427.578 494.599C428.425 495.145 429.914 495.895 431.389 496.617C432.928 497.369 434.508 498.117 435.723 498.727C436.331 499.032 436.79 499.275 437.074 499.443C437.23 499.537 437.253 499.561 437.215 499.529C437.21 499.525 437.064 499.407 436.941 499.202C436.871 499.086 436.779 498.893 436.768 498.658C436.755 498.405 436.842 498.186 436.993 498.028C437.244 497.764 437.586 497.752 437.613 497.75C437.694 497.745 437.738 497.753 437.705 497.749C437.647 497.742 437.504 497.717 437.233 497.651C436.705 497.523 435.869 497.284 434.635 496.901L434.473 498.013L434.31 499.125C435.56 499.513 436.481 499.778 437.117 499.933C437.428 500.008 437.718 500.069 437.961 500.099C438.079 500.113 438.24 500.127 438.408 500.117C438.521 500.11 438.919 500.08 439.197 499.788C439.36 499.616 439.453 499.381 439.44 499.108C439.427 498.855 439.327 498.639 439.243 498.499C439.09 498.245 438.888 498.069 438.802 497.997C438.602 497.828 438.363 497.678 438.176 497.567C437.77 497.325 437.208 497.031 436.593 496.723C435.363 496.105 433.692 495.313 432.225 494.596C430.693 493.847 429.419 493.196 428.794 492.792L428.186 493.695ZM434.473 498.013L434.635 496.901C429.601 495.335 427.124 494.822 425.144 494.39C423.248 493.977 421.85 493.649 418.855 492.449L418.559 493.513L418.263 494.578C421.488 495.871 423.08 496.249 425.104 496.69C427.043 497.112 429.412 497.602 434.31 499.125L434.473 498.013ZM418.559 493.513L418.856 492.449C412.917 490.065 409.885 488.434 403.312 484.051L402.681 484.939L402.051 485.827C408.792 490.322 412.049 492.083 418.263 494.578L418.559 493.513ZM402.681 484.939L403.311 484.05C395.84 479.08 392.663 476.52 377.792 463.549L376.974 464.294L376.156 465.04C391.037 478.019 394.366 480.715 402.052 485.828L402.681 484.939ZM376.974 464.294L377.792 463.55C365.759 453.045 363.673 451.096 361.204 448.11L360.189 448.654L359.175 449.198C361.861 452.446 364.201 454.603 376.156 465.039L376.974 464.294ZM360.189 448.654L361.199 448.104C359.219 445.731 358.59 444.54 358.423 443.537L357.1 443.436L355.778 443.334C356.063 445.046 357.132 446.749 359.18 449.204L360.189 448.654Z" fill="black" fill-opacity="0.13" mask="url(#path-39-outside-1_7357_63934)"/>
<g filter="url(#filter1_d_7357_63934)">
<path fill-rule="evenodd" clip-rule="evenodd" d="M441.672 489.497C440.364 486.64 436.772 478.236 433.185 471.525C429.608 464.824 426.117 460.269 420.731 455.334C418.417 453.215 412.622 449.013 409.879 447.459C406.139 445.359 400.55 442.73 396.398 441.147C393.494 440.03 388.649 438.425 386.35 437.802C379.645 436.012 370.808 434.486 365.745 434.226C346.362 433.276 326.603 439.213 313.221 459.568C312.298 460.959 311.878 461.301 311.775 460.691C311.737 460.418 312.87 457.953 314.45 455.807C330.28 434.309 351.906 429.993 371.048 432.513C383.974 434.215 394.855 437.514 406.227 443.202C411.414 445.803 414.025 447.4 418.465 450.707C422.802 453.939 425.579 456.08 429.507 460.52C433.983 465.568 437.466 470.394 440.623 475.667C443.78 480.939 445.105 483.483 446.561 487.331C448.016 491.179 442.979 492.355 441.672 489.497Z" fill="url(#paint9_linear_7357_63934)" fill-opacity="0.8"/>
<path d="M371.055 432.26C384.023 433.968 394.947 437.279 406.359 442.988L406.36 442.988C411.566 445.599 414.196 447.207 418.655 450.527C422.998 453.765 425.798 455.923 429.748 460.388L430.578 461.335C434.673 466.059 437.929 470.623 440.897 475.58C444.058 480.859 445.392 483.418 446.855 487.286C447.624 489.319 446.684 490.702 445.302 491.167C444.618 491.398 443.824 491.402 443.1 491.137C442.369 490.87 441.741 490.341 441.383 489.558C440.071 486.691 436.486 478.302 432.904 471.601L432.904 471.6C429.341 464.924 425.871 460.397 420.515 455.49C418.22 453.389 412.449 449.204 409.73 447.664L409.73 447.665C406.006 445.574 400.435 442.954 396.301 441.377L396.3 441.377C393.407 440.264 388.574 438.662 386.291 438.044L386.291 438.045C379.606 436.26 370.798 434.739 365.769 434.48C346.492 433.536 326.83 439.433 313.498 459.713L313.497 459.714C313.04 460.402 312.686 460.867 312.42 461.076C312.351 461.13 312.271 461.182 312.18 461.211C312.085 461.242 311.942 461.258 311.791 461.188C311.653 461.123 311.582 461.017 311.545 460.944C311.506 460.866 311.483 460.779 311.469 460.692L311.467 460.686C311.46 460.632 311.468 460.579 311.475 460.541C311.483 460.498 311.497 460.449 311.513 460.397C311.546 460.291 311.596 460.158 311.66 460.004C311.788 459.694 311.978 459.288 312.218 458.825C312.698 457.899 313.381 456.737 314.179 455.654C330.065 434.078 351.799 429.725 371.055 432.26Z" stroke="black" stroke-opacity="0.13" stroke-width="0.572271"/>
<ellipse cx="1.91634" cy="2.08981" rx="1.91634" ry="2.08981" transform="matrix(0.178533 0.893612 -0.902506 0.387578 446.008 486.451)" fill="#616161"/>
<path d="M444.137 487.993C445.062 487.279 446.003 488.165 446.401 488.943C448.42 493.224 449.423 496.704 451.173 503.181C451.452 504.211 450.869 505.409 449.873 505.928C448.877 506.447 447.871 506.189 447.566 505.06C445.782 498.455 445.072 494.598 443.246 490.726C442.766 489.708 443.213 488.707 444.137 487.993Z" fill="#B4B4B4"/>
<ellipse cx="1.69028" cy="1.8433" rx="1.69028" ry="1.8433" transform="matrix(0.178533 0.893612 -0.902506 0.387578 450.711 501.959)" fill="url(#paint10_linear_7357_63934)"/>
<path d="M448.553 501.607C449.306 502.906 449.495 504.993 449.207 505.089C448.92 505.186 449.332 504.697 448.178 502.037L448.553 501.607Z" fill="url(#paint11_linear_7357_63934)"/>
<path d="M447.429 501.596C448.323 502.754 448.728 504.763 448.448 504.899C448.168 505.036 448.533 504.498 447.095 502.07L447.429 501.596Z" fill="url(#paint12_linear_7357_63934)"/>
<path d="M448.116 502.237C448.885 503.522 449.097 505.602 448.81 505.702C448.524 505.803 448.931 505.309 447.746 502.672L448.116 502.237Z" fill="url(#paint13_linear_7357_63934)"/>
<path d="M449.015 499.236C450.278 500.961 450.808 503.909 450.398 504.096C449.988 504.284 450.533 503.515 448.518 499.914L449.015 499.236Z" fill="url(#paint14_linear_7357_63934)"/>
<path d="M448.28 499.674C449.746 501.678 450.361 505.101 449.885 505.319C449.409 505.537 450.042 504.643 447.702 500.461L448.28 499.674Z" fill="url(#paint15_linear_7357_63934)"/>
<path d="M447.831 501.017C448.724 502.236 449.098 504.32 448.808 504.452C448.519 504.585 448.904 504.041 447.48 501.496L447.831 501.017Z" fill="url(#paint16_linear_7357_63934)"/>
<path opacity="0.5" d="M447.542 503.606C447.329 501.528 444.298 491.128 443.678 490.327C443.058 489.526 444.532 488.303 444.884 488.858C445.468 489.78 448.055 496.143 449.259 502.314C448.019 502.63 447.611 504.283 447.542 503.606Z" fill="black" fill-opacity="0.4"/>
<path d="M447.408 503.065C447.322 501.36 444.042 490.901 443.674 490.48C443.305 490.059 443.737 489.314 444.03 489.919C444.324 490.524 446.768 496.374 447.972 502.544C448.096 503.179 447.443 503.751 447.408 503.065Z" fill="black" fill-opacity="0.5"/>
<path opacity="0.5" d="M449.883 501.235C449.147 497.099 446.258 489.551 445.88 489.142C445.501 488.733 446.027 488.777 446.334 489.371C446.64 489.966 449.105 495.298 450.433 501.413C450.57 502.043 450 501.896 449.883 501.235Z" fill="black" fill-opacity="0.4"/>
<path d="M416.547 450.1C417.118 450.479 417.685 450.876 418.241 451.283C428.228 458.761 437.708 471.188 443.816 483.268C444.14 483.933 444.475 484.651 444.776 485.336C444.849 485.502 444.858 485.704 444.802 485.898C444.745 486.092 444.626 486.264 444.473 486.373C444.319 486.483 444.144 486.519 443.988 486.477C443.831 486.434 443.705 486.316 443.637 486.147C443.363 485.469 443.054 484.751 442.754 484.083C437.06 471.91 427.935 459.195 418.202 451.347C417.659 450.919 417.106 450.501 416.547 450.1Z" fill="white"/>
<path d="M425.812 459.838C426.138 460.205 426.461 460.579 426.777 460.955C432.435 467.793 438.551 478.275 442.193 486.906C442.356 487.339 441.957 488.048 442.105 488.484C442.14 488.59 442.136 488.693 442.092 488.773C442.048 488.852 441.968 488.902 441.87 488.908C441.772 488.915 441.664 488.88 441.571 488.81C441.479 488.74 441.409 488.641 441.376 488.536C441.245 488.112 441.094 487.657 440.946 487.23C438.114 479.376 432.236 467.919 426.75 460.975C426.444 460.593 426.13 460.212 425.812 459.838Z" fill="black" fill-opacity="0.4"/>
</g>
</g>
</g>
<mask id="mask3_7357_63934" style="mask-type:alpha" maskUnits="userSpaceOnUse" x="602" y="72" width="59" height="84">
<path d="M631.41 112.847C635.162 121.723 643.479 152.286 643.836 155.738C649.399 148.949 660.476 134.91 660.286 133.069C660.047 130.769 650.502 110.719 644.779 97.7357C640.201 87.3492 624.837 76.7505 617.727 72.7494L614.1 77.5131L614.718 78.4992L613.104 77.8414L614.03 79.3206L612.417 78.6627L602.267 82.6023C606.214 85.0685 615.592 91.4147 621.534 97.0694C628.962 104.138 627.657 103.972 631.41 112.847Z" fill="#D9D9D9"/>
</mask>
<g mask="url(#mask3_7357_63934)">
<g filter="url(#filter2_d_7357_63934)">
<mask id="path-58-outside-2_7357_63934" maskUnits="userSpaceOnUse" x="549.714" y="67.0733" width="98.1375" height="66.4818" fill="black">
<rect fill="white" x="549.714" y="67.0733" width="98.1375" height="66.4818"/>
<path fill-rule="evenodd" clip-rule="evenodd" d="M558.327 73.9786C558.023 72.1194 560.83 69.3378 564.058 71.2736C567.287 73.2097 572.767 79.3806 575.448 82.8414C579.924 88.6195 586.514 96.2134 591.646 101.258C599.738 109.219 606.12 114.064 614.369 118.45C617.913 120.333 626.468 122.338 629.413 124.238C632.357 126.139 645.631 131.644 635.699 128.556C625.767 125.468 626.005 126.55 619.786 124.056C613.71 121.617 610.565 119.921 603.908 115.482C596.33 110.44 593.077 107.813 578.201 94.8373C566.206 84.3674 563.993 82.3141 561.416 79.197C559.402 76.783 558.553 75.3359 558.327 73.9786Z"/>
</mask>
<path fill-rule="evenodd" clip-rule="evenodd" d="M558.327 73.9786C558.023 72.1194 560.83 69.3378 564.058 71.2736C567.287 73.2097 572.767 79.3806 575.448 82.8414C579.924 88.6195 586.514 96.2134 591.646 101.258C599.738 109.219 606.12 114.064 614.369 118.45C617.913 120.333 626.468 122.338 629.413 124.238C632.357 126.139 645.631 131.644 635.699 128.556C625.767 125.468 626.005 126.55 619.786 124.056C613.71 121.617 610.565 119.921 603.908 115.482C596.33 110.44 593.077 107.813 578.201 94.8373C566.206 84.3674 563.993 82.3141 561.416 79.197C559.402 76.783 558.553 75.3359 558.327 73.9786Z" fill="url(#paint17_linear_7357_63934)" fill-opacity="0.8"/>
<path d="M558.327 73.9786L557.004 73.8737L557.004 73.877L558.327 73.9786ZM564.058 71.2736L564.614 70.3381L564.614 70.338L564.058 71.2736ZM575.448 82.8414L574.401 83.3446L574.401 83.3446L575.448 82.8414ZM591.646 101.258L592.542 100.585L592.542 100.585L591.646 101.258ZM614.369 118.45L613.895 119.432L613.896 119.432L614.369 118.45ZM629.413 124.238L628.805 125.142L628.805 125.142L629.413 124.238ZM635.699 128.556L635.862 127.444L635.862 127.444L635.699 128.556ZM619.786 124.056L619.489 125.121L619.49 125.121L619.786 124.056ZM603.908 115.482L604.539 114.594L604.537 114.593L603.908 115.482ZM578.201 94.8373L577.382 95.5821L577.383 95.5825L578.201 94.8373ZM561.416 79.197L562.43 78.6531L562.426 78.6473L561.416 79.197ZM558.327 73.9786L559.65 74.0836C559.621 73.9067 559.659 73.5888 559.87 73.2048C560.074 72.8348 560.399 72.4796 560.805 72.2185C561.619 71.6956 562.551 71.6389 563.502 72.2091L564.058 71.2736L564.614 70.338C562.337 68.9725 560.252 69.3387 558.931 70.1875C558.27 70.6122 557.748 71.18 557.41 71.794C557.08 72.394 556.881 73.121 557.004 73.8737L558.327 73.9786ZM564.058 71.2736L563.502 72.209C564.881 73.0355 566.91 74.8968 569.022 77.1175C571.091 79.2929 573.094 81.6578 574.401 83.3446L575.448 82.8414L576.495 82.3382C575.121 80.5642 573.044 78.1133 570.895 75.854C568.789 73.64 566.465 71.4477 564.614 70.3381L564.058 71.2736ZM575.448 82.8414L574.401 83.3446C578.911 89.1674 585.552 96.821 590.751 101.932L591.646 101.258L592.542 100.585C587.477 95.6058 580.936 88.0717 576.495 82.3382L575.448 82.8414ZM591.646 101.258L590.75 101.931C598.935 109.984 605.457 114.945 613.895 119.432L614.369 118.45L614.842 117.468C606.783 113.182 600.54 108.454 592.542 100.585L591.646 101.258ZM614.369 118.45L613.896 119.432C615.842 120.467 619.063 121.495 621.924 122.44C623.402 122.928 624.822 123.404 626.051 123.873C627.307 124.352 628.241 124.778 628.805 125.142L629.413 124.238L630.02 123.335C629.112 122.749 627.873 122.212 626.586 121.721C625.272 121.22 623.78 120.721 622.307 120.235C619.269 119.231 616.439 118.316 614.841 117.467L614.369 118.45ZM629.413 124.238L628.805 125.142C629.651 125.688 631.141 126.438 632.616 127.16C634.155 127.912 635.734 128.66 636.949 129.27C637.558 129.575 638.017 129.818 638.3 129.986C638.457 130.08 638.48 130.104 638.442 130.072C638.437 130.068 638.291 129.95 638.167 129.745C638.098 129.629 638.006 129.436 637.994 129.201C637.982 128.948 638.069 128.729 638.219 128.571C638.471 128.307 638.813 128.295 638.84 128.293C638.921 128.288 638.964 128.296 638.932 128.292C638.874 128.285 638.73 128.26 638.46 128.194C637.932 128.066 637.095 127.827 635.862 127.444L635.699 128.556L635.537 129.668C636.787 130.056 637.708 130.321 638.343 130.476C638.655 130.551 638.944 130.612 639.187 130.642C639.305 130.656 639.466 130.67 639.634 130.66C639.747 130.653 640.145 130.623 640.423 130.331C640.587 130.159 640.68 129.924 640.666 129.651C640.654 129.397 640.554 129.182 640.47 129.042C640.317 128.788 640.115 128.612 640.029 128.54C639.828 128.371 639.59 128.221 639.402 128.109C638.996 127.868 638.434 127.574 637.82 127.266C636.59 126.648 634.919 125.856 633.451 125.139C631.92 124.39 630.646 123.739 630.02 123.335L629.413 124.238ZM635.699 128.556L635.862 127.444C630.828 125.878 628.35 125.365 626.37 124.933C624.475 124.52 623.076 124.192 620.082 122.992L619.786 124.056L619.49 125.121C622.714 126.414 624.307 126.792 626.33 127.233C628.269 127.655 630.639 128.145 635.537 129.668L635.699 128.556ZM619.786 124.056L620.082 122.992C614.144 120.608 611.112 118.977 604.539 114.594L603.908 115.482L603.277 116.37C610.019 120.865 613.276 122.626 619.489 125.121L619.786 124.056ZM603.908 115.482L604.537 114.593C597.066 109.623 593.89 107.063 579.019 94.0921L578.201 94.8373L577.383 95.5825C592.264 108.562 595.593 111.258 603.279 116.371L603.908 115.482ZM578.201 94.8373L579.019 94.0926C566.986 83.5884 564.899 81.6392 562.43 78.6531L561.416 79.197L560.402 79.741C563.087 82.9891 565.427 85.1463 577.382 95.5821L578.201 94.8373ZM561.416 79.197L562.426 78.6473C560.445 76.2741 559.817 75.0829 559.65 74.0802L558.327 73.9786L557.004 73.877C557.289 75.5888 558.358 77.292 560.407 79.7468L561.416 79.197Z" fill="black" fill-opacity="0.13" mask="url(#path-58-outside-2_7357_63934)"/>
<g filter="url(#filter3_d_7357_63934)">
<path fill-rule="evenodd" clip-rule="evenodd" d="M642.898 120.04C641.591 117.183 637.999 108.779 634.412 102.068C630.835 95.367 627.344 90.8116 621.958 85.877C619.643 83.7577 613.849 79.5556 611.105 78.0016C607.365 75.902 601.777 73.2734 597.624 71.6898C594.721 70.573 589.875 68.9676 587.576 68.3451C580.871 66.5551 572.035 65.029 566.972 64.7686C547.589 63.8187 527.829 69.756 514.447 90.1112C513.524 91.5019 513.104 91.8441 513.002 91.2343C512.963 90.9609 514.096 88.496 515.676 86.3503C531.506 64.8517 553.132 60.5356 572.274 63.0558C585.201 64.7576 596.082 68.0565 607.454 73.7446C612.64 76.3459 615.252 77.9429 619.692 81.2495C624.029 84.482 626.806 86.6228 630.733 91.063C635.209 96.1112 638.693 100.937 641.85 106.21C645.007 111.482 646.332 114.026 647.787 117.874C649.243 121.722 644.206 122.898 642.898 120.04Z" fill="url(#paint18_linear_7357_63934)" fill-opacity="0.8"/>
<path d="M572.282 62.8034C585.25 64.5107 596.174 67.8223 607.586 73.5306L607.587 73.5309C612.793 76.1417 615.423 77.7502 619.881 81.0702C624.225 84.3079 627.025 86.4656 630.975 90.9311L631.805 91.8784C635.9 96.6016 639.156 101.166 642.124 106.123C645.285 111.402 646.618 113.961 648.082 117.829C648.851 119.862 647.911 121.245 646.528 121.71C645.844 121.941 645.051 121.945 644.327 121.68C643.596 121.413 642.968 120.884 642.61 120.101C641.298 117.234 637.713 108.845 634.131 102.144L634.131 102.143C630.567 95.4673 627.097 90.9402 621.741 86.0331C619.446 83.9319 613.676 79.7472 610.957 78.2067L610.956 78.2075C607.233 76.117 601.662 73.4965 597.528 71.9199L597.527 71.9196C594.634 70.8067 589.801 69.2047 587.517 68.5865L587.518 68.5876C580.832 66.8027 572.024 65.282 566.995 65.0232C547.719 64.0787 528.057 69.9761 514.724 90.2557L514.724 90.2565C514.267 90.9452 513.913 91.4096 513.646 91.6193C513.578 91.6731 513.498 91.7249 513.406 91.7543C513.311 91.7848 513.168 91.8008 513.018 91.7306C512.88 91.6658 512.808 91.5603 512.772 91.4866C512.733 91.4088 512.71 91.3218 512.695 91.235L512.694 91.2292C512.686 91.1753 512.694 91.1215 512.702 91.0843C512.71 91.0412 512.724 90.9922 512.74 90.9395C512.773 90.8339 512.822 90.7008 512.886 90.5465C513.015 90.237 513.205 89.8305 513.445 89.3676C513.924 88.4419 514.608 87.2798 515.405 86.1966C531.292 64.6211 553.026 60.2683 572.282 62.8034Z" stroke="black" stroke-opacity="0.13" stroke-width="0.572271"/>
<ellipse cx="1.91634" cy="2.08981" rx="1.91634" ry="2.08981" transform="matrix(0.178533 0.893612 -0.902506 0.387578 647.234 116.994)" fill="#616161"/>
<path d="M645.364 118.536C646.288 117.822 647.229 118.708 647.628 119.486C649.647 123.767 650.65 127.247 652.4 133.724C652.678 134.754 652.095 135.952 651.1 136.471C650.104 136.99 649.098 136.732 648.793 135.603C647.008 128.998 646.299 125.141 644.472 121.269C643.992 120.251 644.439 119.25 645.364 118.536Z" fill="#B4B4B4"/>
<ellipse cx="1.69028" cy="1.8433" rx="1.69028" ry="1.8433" transform="matrix(0.178533 0.893612 -0.902506 0.387578 651.938 132.502)" fill="url(#paint19_linear_7357_63934)"/>
<path d="M649.779 132.15C650.533 133.449 650.721 135.536 650.434 135.632C650.147 135.729 650.558 135.24 649.404 132.58L649.779 132.15Z" fill="url(#paint20_linear_7357_63934)"/>
<path d="M648.656 132.139C649.549 133.297 649.954 135.306 649.674 135.442C649.394 135.579 649.759 135.041 648.322 132.613L648.656 132.139Z" fill="url(#paint21_linear_7357_63934)"/>
<path d="M649.343 132.78C650.112 134.065 650.324 136.144 650.037 136.245C649.75 136.346 650.157 135.852 648.972 133.215L649.343 132.78Z" fill="url(#paint22_linear_7357_63934)"/>
<path d="M650.242 129.779C651.505 131.504 652.034 134.452 651.624 134.639C651.215 134.827 651.759 134.058 649.744 130.457L650.242 129.779Z" fill="url(#paint23_linear_7357_63934)"/>
<path d="M649.506 130.217C650.973 132.221 651.588 135.644 651.112 135.862C650.636 136.08 651.269 135.186 648.928 131.004L649.506 130.217Z" fill="url(#paint24_linear_7357_63934)"/>
<path d="M649.058 131.56C649.95 132.779 650.325 134.863 650.035 134.995C649.745 135.128 650.13 134.584 648.706 132.039L649.058 131.56Z" fill="url(#paint25_linear_7357_63934)"/>
<path opacity="0.5" d="M648.769 134.149C648.556 132.071 645.525 121.671 644.905 120.87C644.285 120.069 645.759 118.846 646.11 119.401C646.695 120.323 649.281 126.686 650.485 132.857C649.246 133.173 648.838 134.826 648.769 134.149Z" fill="black" fill-opacity="0.4"/>
<path d="M648.635 133.608C648.549 131.903 645.269 121.444 644.9 121.023C644.531 120.602 644.963 119.857 645.257 120.462C645.55 121.067 647.995 126.917 649.199 133.087C649.323 133.722 648.67 134.294 648.635 133.608Z" fill="black" fill-opacity="0.5"/>
<path opacity="0.5" d="M651.109 131.778C650.373 127.642 647.484 120.094 647.106 119.685C646.728 119.276 647.254 119.32 647.56 119.914C647.867 120.509 650.331 125.84 651.66 131.956C651.796 132.586 651.227 132.439 651.109 131.778Z" fill="black" fill-opacity="0.4"/>
<path d="M617.773 80.6426C618.344 81.022 618.911 81.4185 619.468 81.8255C629.454 89.3041 638.935 101.731 645.043 113.811C645.367 114.476 645.702 115.194 646.003 115.879C646.076 116.045 646.085 116.247 646.028 116.441C645.971 116.635 645.853 116.807 645.699 116.916C645.546 117.025 645.371 117.062 645.214 117.02C645.058 116.977 644.931 116.859 644.863 116.69C644.59 116.011 644.281 115.294 643.981 114.626C638.286 102.453 629.162 89.7379 619.429 81.8898C618.886 81.4617 618.332 81.0441 617.773 80.6426Z" fill="white"/>
<path d="M627.039 90.3809C627.365 90.7478 627.687 91.1219 628.003 91.498C633.661 98.3361 639.778 108.818 643.42 117.449C643.583 117.882 643.184 118.591 643.331 119.027C643.367 119.132 643.362 119.236 643.318 119.316C643.274 119.395 643.194 119.444 643.096 119.451C642.998 119.458 642.891 119.423 642.798 119.353C642.706 119.283 642.635 119.184 642.602 119.079C642.471 118.655 642.32 118.2 642.173 117.773C639.341 109.919 633.463 98.4622 627.977 91.5182C627.67 91.1356 627.357 90.755 627.039 90.3809Z" fill="black" fill-opacity="0.4"/>
</g>
</g>
</g>
<mask id="mask4_7357_63934" style="mask-type:alpha" maskUnits="userSpaceOnUse" x="267" y="170" width="328" height="389">
<path d="M346.099 201.648C343.646 198.844 320.253 165.264 314.266 170.667L280.385 326.725L267.242 351.258L307.547 548.401C394.29 552.198 570.054 559.441 579.166 558.039C588.278 556.637 592.893 535.258 594.061 524.744L475.776 238.449L446.861 216.982H413.566C400.861 216.982 377.204 217.42 365.814 214.353C354.423 211.286 349.166 205.153 346.099 201.648Z" fill="#D9D9D9"/>
</mask>
<g mask="url(#mask4_7357_63934)">
<path d="M369.771 93.668L293.579 337.789C292.981 339.704 293.04 341.764 293.747 343.641L357.536 513.067C359.883 519.302 365.848 523.43 372.51 523.43H571.285L475.78 340.744L369.771 93.668Z" fill="url(#paint26_linear_7357_63934)" stroke="url(#paint27_linear_7357_63934)" stroke-width="2"/>
</g>
<defs>
<filter id="filter0_d_7357_63934" x="281.452" y="412.856" width="193.692" height="130.415" filterUnits="userSpaceOnUse" color-interpolation-filters="sRGB">
<feFlood flood-opacity="0" result="BackgroundImageFix"/>
<feColorMatrix in="SourceAlpha" type="matrix" values="0 0 0 0 0 0 0 0 0 0 0 0 0 0 0 0 0 0 127 0" result="hardAlpha"/>
<feOffset dx="-10.1121" dy="16.4322"/>
<feGaussianBlur stdDeviation="9.7961"/>
<feComposite in2="hardAlpha" operator="out"/>
<feColorMatrix type="matrix" values="0 0 0 0 0 0 0 0 0 0 0 0 0 0 0 0 0 0 0.25 0"/>
<feBlend mode="normal" in2="BackgroundImageFix" result="effect1_dropShadow_7357_63934"/>
<feBlend mode="normal" in="SourceGraphic" in2="effect1_dropShadow_7357_63934" result="shape"/>
</filter>
<filter id="filter1_d_7357_63934" x="301.044" y="416.016" width="164.62" height="101.343" filterUnits="userSpaceOnUse" color-interpolation-filters="sRGB">
<feFlood flood-opacity="0" result="BackgroundImageFix"/>
<feColorMatrix in="SourceAlpha" type="matrix" values="0 0 0 0 0 0 0 0 0 0 0 0 0 0 0 0 0 0 127 0" result="hardAlpha"/>
<feOffset dx="-5.05605" dy="5.05605"/>
<feGaussianBlur stdDeviation="2.52803"/>
<feComposite in2="hardAlpha" operator="out"/>
<feColorMatrix type="matrix" values="0 0 0 0 0 0 0 0 0 0 0 0 0 0 0 0 0 0 0.25 0"/>
<feBlend mode="normal" in2="BackgroundImageFix" result="effect1_dropShadow_7357_63934"/>
<feBlend mode="normal" in="SourceGraphic" in2="effect1_dropShadow_7357_63934" result="shape"/>
</filter>
<filter id="filter2_d_7357_63934" x="482.679" y="43.3986" width="193.692" height="130.415" filterUnits="userSpaceOnUse" color-interpolation-filters="sRGB">
<feFlood flood-opacity="0" result="BackgroundImageFix"/>
<feColorMatrix in="SourceAlpha" type="matrix" values="0 0 0 0 0 0 0 0 0 0 0 0 0 0 0 0 0 0 127 0" result="hardAlpha"/>
<feOffset dx="-10.1121" dy="16.4322"/>
<feGaussianBlur stdDeviation="9.7961"/>
<feComposite in2="hardAlpha" operator="out"/>
<feColorMatrix type="matrix" values="0 0 0 0 0 0 0 0 0 0 0 0 0 0 0 0 0 0 0.25 0"/>
<feBlend mode="normal" in2="BackgroundImageFix" result="effect1_dropShadow_7357_63934"/>
<feBlend mode="normal" in="SourceGraphic" in2="effect1_dropShadow_7357_63934" result="shape"/>
</filter>
<filter id="filter3_d_7357_63934" x="502.271" y="46.5586" width="164.62" height="101.343" filterUnits="userSpaceOnUse" color-interpolation-filters="sRGB">
<feFlood flood-opacity="0" result="BackgroundImageFix"/>
<feColorMatrix in="SourceAlpha" type="matrix" values="0 0 0 0 0 0 0 0 0 0 0 0 0 0 0 0 0 0 127 0" result="hardAlpha"/>
<feOffset dx="-5.05605" dy="5.05605"/>
<feGaussianBlur stdDeviation="2.52803"/>
<feComposite in2="hardAlpha" operator="out"/>
<feColorMatrix type="matrix" values="0 0 0 0 0 0 0 0 0 0 0 0 0 0 0 0 0 0 0.25 0"/>
<feBlend mode="normal" in2="BackgroundImageFix" result="effect1_dropShadow_7357_63934"/>
<feBlend mode="normal" in="SourceGraphic" in2="effect1_dropShadow_7357_63934" result="shape"/>
</filter>
<radialGradient id="paint0_radial_7357_63934" cx="0" cy="0" r="1" gradientUnits="userSpaceOnUse" gradientTransform="translate(414 422.668) rotate(90) scale(325.943 456.174)">
<stop offset="0.44145" stop-color="#D9D9D9"/>
<stop offset="1" stop-color="#D9D9D9" stop-opacity="0"/>
</radialGradient>
<linearGradient id="paint1_linear_7357_63934" x1="372.99" y1="221.247" x2="348.884" y2="347.014" gradientUnits="userSpaceOnUse">
<stop stop-color="white" stop-opacity="0"/>
<stop offset="1" stop-color="white"/>
</linearGradient>
<linearGradient id="paint2_linear_7357_63934" x1="503.106" y1="270.753" x2="500.916" y2="342.162" gradientUnits="userSpaceOnUse">
<stop stop-color="white" stop-opacity="0"/>
<stop offset="1" stop-color="white"/>
</linearGradient>
<linearGradient id="paint3_linear_7357_63934" x1="662.943" y1="-35.4857" x2="635.781" y2="111.714" gradientUnits="userSpaceOnUse">
<stop stop-color="#D9D9D9" stop-opacity="0"/>
<stop offset="1" stop-color="#D9D9D9"/>
</linearGradient>
<linearGradient id="paint4_linear_7357_63934" x1="559.78" y1="124.379" x2="654.873" y2="124.379" gradientUnits="userSpaceOnUse">
<stop stop-color="white"/>
<stop offset="1" stop-color="#999999" stop-opacity="0"/>
</linearGradient>
<linearGradient id="paint5_linear_7357_63934" x1="395.013" y1="187.865" x2="358.469" y2="185.797" gradientUnits="userSpaceOnUse">
<stop stop-color="white"/>
<stop offset="1" stop-color="#999999" stop-opacity="0"/>
</linearGradient>
<linearGradient id="paint6_linear_7357_63934" x1="499.298" y1="93.874" x2="601.377" y2="92.3535" gradientUnits="userSpaceOnUse">
<stop stop-color="#BBA1FF"/>
<stop offset="1" stop-color="#C891FF" stop-opacity="0"/>
</linearGradient>
<linearGradient id="paint7_linear_7357_63934" x1="449.916" y1="100.093" x2="547.271" y2="97.6234" gradientUnits="userSpaceOnUse">
<stop stop-color="#A041FF"/>
<stop offset="1" stop-color="#4FE2CE" stop-opacity="0"/>
</linearGradient>
<linearGradient id="paint8_linear_7357_63934" x1="362.066" y1="454.393" x2="415.158" y2="519.994" gradientUnits="userSpaceOnUse">
<stop stop-color="white"/>
<stop offset="1" stop-color="white" stop-opacity="0"/>
</linearGradient>
<linearGradient id="paint9_linear_7357_63934" x1="423.36" y1="502.668" x2="396.502" y2="406.447" gradientUnits="userSpaceOnUse">
<stop stop-color="white"/>
<stop offset="1" stop-color="white" stop-opacity="0.5"/>
</linearGradient>
<linearGradient id="paint10_linear_7357_63934" x1="0.538131" y1="1.75028" x2="4.15103" y2="1.78731" gradientUnits="userSpaceOnUse">
<stop stop-color="#353736"/>
<stop offset="1" stop-color="#A6A6A6"/>
</linearGradient>
<linearGradient id="paint11_linear_7357_63934" x1="449.208" y1="504.84" x2="448.904" y2="503.839" gradientUnits="userSpaceOnUse">
<stop stop-color="#DCDCDC"/>
<stop offset="1" stop-color="#DCDCDC" stop-opacity="0"/>
</linearGradient>
<linearGradient id="paint12_linear_7357_63934" x1="448.423" y1="504.656" x2="448.002" y2="503.729" gradientUnits="userSpaceOnUse">
<stop stop-color="#DCDCDC"/>
<stop offset="1" stop-color="#DCDCDC" stop-opacity="0"/>
</linearGradient>
<linearGradient id="paint13_linear_7357_63934" x1="448.808" y1="505.454" x2="448.491" y2="504.46" gradientUnits="userSpaceOnUse">
<stop stop-color="#DCDCDC"/>
<stop offset="1" stop-color="#DCDCDC" stop-opacity="0"/>
</linearGradient>
<linearGradient id="paint14_linear_7357_63934" x1="450.337" y1="503.552" x2="450.017" y2="502.531" gradientUnits="userSpaceOnUse">
<stop stop-color="#DCDCDC"/>
<stop offset="1" stop-color="#DCDCDC" stop-opacity="0"/>
</linearGradient>
<linearGradient id="paint15_linear_7357_63934" x1="449.706" y1="504.229" x2="449.003" y2="502.718" gradientUnits="userSpaceOnUse">
<stop stop-color="#DCDCDC"/>
<stop offset="1" stop-color="#DCDCDC" stop-opacity="0"/>
</linearGradient>
<linearGradient id="paint16_linear_7357_63934" x1="448.706" y1="503.848" x2="448.296" y2="503.204" gradientUnits="userSpaceOnUse">
<stop stop-color="#DCDCDC"/>
<stop offset="1" stop-color="#DCDCDC" stop-opacity="0"/>
</linearGradient>
<linearGradient id="paint17_linear_7357_63934" x1="563.293" y1="84.9363" x2="616.384" y2="150.537" gradientUnits="userSpaceOnUse">
<stop stop-color="white"/>
<stop offset="1" stop-color="white" stop-opacity="0"/>
</linearGradient>
<linearGradient id="paint18_linear_7357_63934" x1="624.587" y1="133.211" x2="597.729" y2="36.9899" gradientUnits="userSpaceOnUse">
<stop stop-color="white"/>
<stop offset="1" stop-color="white" stop-opacity="0.5"/>
</linearGradient>
<linearGradient id="paint19_linear_7357_63934" x1="0.538131" y1="1.75028" x2="4.15103" y2="1.78731" gradientUnits="userSpaceOnUse">
<stop stop-color="#353736"/>
<stop offset="1" stop-color="#A6A6A6"/>
</linearGradient>
<linearGradient id="paint20_linear_7357_63934" x1="650.434" y1="135.383" x2="650.13" y2="134.382" gradientUnits="userSpaceOnUse">
<stop stop-color="#DCDCDC"/>
<stop offset="1" stop-color="#DCDCDC" stop-opacity="0"/>
</linearGradient>
<linearGradient id="paint21_linear_7357_63934" x1="649.649" y1="135.199" x2="649.229" y2="134.272" gradientUnits="userSpaceOnUse">
<stop stop-color="#DCDCDC"/>
<stop offset="1" stop-color="#DCDCDC" stop-opacity="0"/>
</linearGradient>
<linearGradient id="paint22_linear_7357_63934" x1="650.035" y1="135.997" x2="649.717" y2="135.003" gradientUnits="userSpaceOnUse">
<stop stop-color="#DCDCDC"/>
<stop offset="1" stop-color="#DCDCDC" stop-opacity="0"/>
</linearGradient>
<linearGradient id="paint23_linear_7357_63934" x1="651.564" y1="134.095" x2="651.244" y2="133.074" gradientUnits="userSpaceOnUse">
<stop stop-color="#DCDCDC"/>
<stop offset="1" stop-color="#DCDCDC" stop-opacity="0"/>
</linearGradient>
<linearGradient id="paint24_linear_7357_63934" x1="650.932" y1="134.772" x2="650.229" y2="133.261" gradientUnits="userSpaceOnUse">
<stop stop-color="#DCDCDC"/>
<stop offset="1" stop-color="#DCDCDC" stop-opacity="0"/>
</linearGradient>
<linearGradient id="paint25_linear_7357_63934" x1="649.933" y1="134.391" x2="649.522" y2="133.747" gradientUnits="userSpaceOnUse">
<stop stop-color="#DCDCDC"/>
<stop offset="1" stop-color="#DCDCDC" stop-opacity="0"/>
</linearGradient>
<linearGradient id="paint26_linear_7357_63934" x1="269.697" y1="321.468" x2="465.948" y2="372.668" gradientUnits="userSpaceOnUse">
<stop stop-color="#1DA593"/>
<stop offset="1" stop-color="#1DA593" stop-opacity="0"/>
</linearGradient>
<linearGradient id="paint27_linear_7357_63934" x1="352.497" y1="385.43" x2="564.759" y2="454.11" gradientUnits="userSpaceOnUse">
<stop stop-color="#4FE2CE"/>
<stop offset="1" stop-color="#4FE2CE" stop-opacity="0"/>
</linearGradient>
</defs>
</svg>
