<svg width="996" height="700" viewBox="0 0 996 700" fill="none" xmlns="http://www.w3.org/2000/svg">
<mask id="mask0_7357_47758" style="mask-type:alpha" maskUnits="userSpaceOnUse" x="0" y="8" width="828" height="829">
<circle cx="414" cy="422.668" r="414" fill="url(#paint0_radial_7357_47758)"/>
</mask>
<g mask="url(#mask0_7357_47758)">
<path d="M466.626 399.924C470.574 399.924 474.19 402.136 475.987 405.651L532.495 521.258H367.758C363.398 521.258 359.491 518.567 357.936 514.494L314.195 399.924H466.626Z" fill="#D9D9D9" fill-opacity="0.1"/>
<path fill-rule="evenodd" clip-rule="evenodd" d="M466.913 336.467C470.861 336.467 474.477 338.679 476.275 342.194L565.233 516.158C566.425 518.49 564.731 521.257 562.112 521.258H532.494L475.986 405.651C474.189 402.136 470.573 399.924 466.625 399.924H314.195L292.237 342.41C291.143 339.542 293.261 336.467 296.33 336.467H466.913Z" fill="#D9D9D9" fill-opacity="0.1"/>
<path fill-rule="evenodd" clip-rule="evenodd" d="M275.173 399.924C279.121 399.924 282.736 402.136 284.534 405.651L327.79 522.135H173.87C161.716 522.135 154.359 514.378 151.863 504.623L123.012 409.678C121.435 402.781 124.62 399.924 127.58 399.924H275.173Z" fill="#D2B2FF"/>
<path fill-rule="evenodd" clip-rule="evenodd" d="M277.057 337.342C281.417 337.342 285.324 340.033 286.879 344.106L352.123 515.001C353.437 518.442 350.895 522.133 347.212 522.133H327.796L284.54 405.65C282.742 402.135 279.127 399.923 275.179 399.923H127.586C124.626 399.923 121.441 402.779 123.017 409.674L107.809 359.627C103.898 347.513 116.209 337.342 128.362 337.342H277.057Z" fill="#D2B2FF" fill-opacity="0.4"/>
<path d="M636.69 399.709C652.367 399.709 656.649 399.709 667.998 416.553L728.971 521.922L728.901 522.134H582.535C578.587 522.134 574.971 519.922 573.174 516.406L513.5 399.709H636.69Z" fill="#D9D9D9" fill-opacity="0.1"/>
<path fill-rule="evenodd" clip-rule="evenodd" d="M642.258 337.342C654.412 337.342 662.602 345.56 668.977 354.854L756.887 501.872C761.88 510.064 749.084 522.133 736.93 522.133H728.904L728.972 521.922L667.998 416.552C656.65 399.709 652.367 399.709 636.691 399.709H513.501L484.217 342.442C483.025 340.11 484.718 337.342 487.337 337.342H642.258Z" fill="#D9D9D9" fill-opacity="0.1"/>
<path d="M162.218 331.902H127.999C112.327 331.902 97.6656 343.235 101.578 360.039L145.136 504.712C148.525 517.133 157.84 527.293 173.512 527.293H737.11C752.782 527.293 770.572 512.443 761.965 499.547L675.527 354.483C666.898 342.063 657.531 331.902 641.859 331.902H601.954M668.578 354.483L756.488 501.501C761.482 509.693 748.684 521.763 736.531 521.763H582.137C578.189 521.763 574.573 519.551 572.775 516.036L483.818 342.072C482.625 339.74 484.319 336.971 486.938 336.971H641.859C654.013 336.971 662.203 345.189 668.578 354.483ZM151.506 504.251L107.446 359.257C103.534 347.143 115.845 336.971 127.999 336.971H276.693C281.053 336.971 284.961 339.662 286.516 343.736L351.759 514.631C353.073 518.072 350.532 521.763 346.848 521.763H173.512C161.358 521.763 154.002 514.006 151.506 504.251ZM477.189 342.699L566.147 516.662C567.339 518.995 565.645 521.763 563.026 521.763H368.672C364.312 521.763 360.404 519.072 358.849 514.999L293.152 342.915C292.057 340.047 294.175 336.971 297.245 336.971H467.828C471.776 336.971 475.392 339.183 477.189 342.699Z" stroke="white" stroke-width="2"/>
<path d="M314.289 399.553H466.263C470.211 399.553 473.826 401.765 475.624 405.28L532.569 521.781" stroke="white" stroke-width="2"/>
<path d="M327.102 520.905L284.176 405.28C282.378 401.765 278.763 399.553 274.815 399.553H127.222C124.155 399.553 120.846 402.619 122.841 410.067" stroke="white" stroke-width="2"/>
<path d="M641.855 337.342V399.551M668.574 354.866V419.266M472.751 338.218V400.428M281.741 338.218V402.618M126.781 337.78V399.551" stroke="white"/>
<path d="M71.1734 111.121C59.0241 111.121 55.5852 119.638 58.0135 130.349L94.9725 289.557C97.1759 302.859 114.616 314.028 126.765 314.028H275.79H630.269C642.418 314.028 649.721 305.282 648.139 294.8L614.885 133.369C615.742 124.374 596.858 111.121 594.876 111.121M160.088 319.594H129.324C113.657 319.594 93.282 307.15 88.7118 288.699L51.413 129.843C48.5322 116.205 52.7162 105.049 68.3824 105.049L592.664 105.049C608.33 105.049 623.441 121.354 621.346 135.514L655.086 294.8C656.761 308.792 648.493 319.594 632.827 319.594H598.881" stroke="url(#paint1_linear_7357_47758)" stroke-width="2"/>
<path d="M160.516 317.008H598.119L601.239 333.655H163.636L160.516 317.008Z" stroke="url(#paint2_linear_7357_47758)" stroke-width="2"/>
<path d="M176.325 611.407H729.477C743.114 611.407 758.164 600.737 756.387 587.905L764.214 508.233M176.325 611.407C157.931 611.407 148.148 599.656 145.149 585.786M176.325 611.407V527.035M145.149 585.786L101.409 428.717C101.104 427.255 100.951 425.816 100.938 424.408V354.684M145.149 585.786V505.1M728.612 521.551L667.639 416.182C656.29 399.338 652.008 399.338 636.331 399.338H513.664" stroke="white" stroke-width="2"/>
<path d="M531.141 416.646H533.56L540.304 427.869H537.884L531.141 416.646Z" fill="white"/>
<path d="M538.11 419.492H540.283L541.195 420.899C541.126 419.776 542.23 419.302 543.843 419.302C546.509 419.302 548.683 420.646 549.785 422.479L553.023 427.869H550.649L547.723 423.001C546.831 421.515 545.697 420.709 544.039 420.709C542.314 420.709 541.7 421.515 542.593 423.001L545.518 427.869H543.144L538.11 419.492Z" fill="white"/>
<path d="M560.069 422.432C559.186 421.373 557.651 420.756 556.307 420.756C554.29 420.756 553.758 421.847 554.86 423.68C555.962 425.514 557.804 426.605 559.821 426.605C561.232 426.605 562.008 425.957 561.551 424.787L564.095 424.882C564.914 426.842 563.428 428.059 560.694 428.059C557.244 428.059 553.991 426.336 552.396 423.68C550.8 421.025 551.983 419.302 555.433 419.302C558.076 419.302 561.032 420.456 562.476 422.337L560.069 422.432Z" fill="white"/>
<path d="M572.983 428.059C569.555 428.059 566.289 426.352 564.684 423.68C563.079 421.009 564.293 419.302 567.721 419.302C571.126 419.302 574.392 421.009 575.998 423.68C577.603 426.352 576.388 428.059 572.983 428.059ZM567.148 423.68C568.25 425.514 570.093 426.605 572.109 426.605C574.125 426.605 574.635 425.514 573.533 423.68C572.431 421.847 570.611 420.756 568.595 420.756C566.579 420.756 566.046 421.847 567.148 423.68Z" fill="white"/>
<path d="M575.544 419.492H577.717L578.588 420.867C578.572 419.871 579.44 419.302 581.03 419.302C582.733 419.302 584.345 419.934 585.525 421.041C585.389 419.918 586.25 419.302 588.043 419.302C590.44 419.302 592.558 420.44 593.783 422.479L597.021 427.869H594.647L591.721 423.001C590.829 421.515 589.605 420.709 588.261 420.709C586.558 420.709 586.121 421.547 586.994 423.001L589.92 427.869H587.679L584.754 423.001C583.88 421.547 582.615 420.709 581.293 420.709C579.613 420.709 579.153 421.547 580.027 423.001L582.952 427.869H580.577L575.544 419.492Z" fill="white"/>
<path d="M600.941 430.24L594.483 419.492H596.701L597.518 420.74C597.608 419.808 598.558 419.302 600.261 419.302C603.734 419.302 606.585 421.325 608 423.68C609.415 426.036 608.995 428.059 605.523 428.059C603.91 428.059 602.393 427.585 601.189 426.7L603.316 430.24H600.941ZM599.173 423.68C600.075 425.182 601.903 426.621 604.098 426.621C606.339 426.621 606.434 425.214 605.513 423.68C604.601 422.163 602.783 420.74 600.565 420.74C598.37 420.74 598.271 422.179 599.173 423.68Z" fill="white"/>
<path d="M608.861 422.005C608.315 420.314 609.589 419.302 612.322 419.302C615.548 419.302 618.078 420.567 619.455 422.859L621.326 425.972C621.582 426.399 621.946 426.557 622.417 426.557H622.887L623.675 427.869H622.936C621.87 427.885 620.338 427.759 619.514 426.573C619.46 427.379 618.547 428.059 616.576 428.059C614.178 428.059 611.755 427.158 610.862 425.672C609.856 423.997 611.331 423.507 613.846 423.143L616.966 422.669C616.136 421.325 614.864 420.661 613.139 420.661C611.75 420.661 611.135 421.167 611.391 422.116L608.861 422.005ZM613.308 425.641C613.678 426.257 614.744 426.763 616.312 426.763C618.072 426.747 618.93 425.862 617.847 424.06L617.78 423.949L615.439 424.265C613.927 424.471 612.671 424.581 613.308 425.641Z" fill="white"/>
<path d="M619.656 417.595H622.031L623.17 419.492H626.307L627.124 420.851H623.987L626.76 425.467C627.169 426.146 627.848 426.494 628.767 426.494H630.492L631.318 427.869H629.347C627.061 427.869 625.326 427.032 624.386 425.467L621.612 420.851H619.798L618.981 419.492H620.795L619.656 417.595Z" fill="white"/>
<path d="M628.307 419.492H630.682L635.715 427.869H633.341L628.307 419.492ZM627.521 418.259L626.562 416.662H629.049L630.008 418.259H627.521Z" fill="white"/>
<path d="M631.228 416.646H633.603L635.987 420.614C636.175 419.808 637.26 419.302 638.805 419.302C641.897 419.302 644.84 420.993 646.455 423.68C648.069 426.368 647.159 428.059 644.067 428.059C642.432 428.059 640.72 427.522 639.535 426.668L640.189 427.869H637.971L631.228 416.646ZM637.65 423.68C638.733 425.482 640.649 426.621 642.598 426.621C644.502 426.621 645.073 425.482 643.99 423.68C642.889 421.847 640.963 420.693 639.036 420.693C637.087 420.693 636.548 421.847 637.65 423.68Z" fill="white"/>
<path d="M644.457 416.646H646.832L652.407 425.925C652.635 426.304 653.04 426.494 653.556 426.494H654.519L655.345 427.869H653.867C652.276 427.869 650.764 427.142 650.08 426.004L644.457 416.646Z" fill="white"/>
<path d="M653.998 423.68C652.403 421.025 653.585 419.302 657.036 419.302C659.881 419.302 663.085 420.646 664.983 423.617L665.328 424.155H656.793C657.89 425.72 659.583 426.636 661.443 426.636C662.607 426.636 663.388 426.146 663.375 425.34L665.937 425.467C666.202 427.063 664.717 428.059 662.297 428.059C658.847 428.059 655.594 426.336 653.998 423.68ZM656.087 422.906H662.069C660.841 421.309 659.235 420.725 657.89 420.725C656.165 420.725 655.53 421.531 656.087 422.906Z" fill="white"/>
<path d="M153.201 423.266C153.626 425.82 152.001 427.474 148.268 427.474C143.636 427.474 139.821 424.821 138.445 421.415C137.069 418.01 138.728 415.324 143.36 415.324C146.845 415.324 149.812 416.88 151.488 419.303L148.964 419.401C147.857 417.829 146.061 416.945 143.992 416.945C140.642 416.945 139.978 418.976 140.964 421.415C141.943 423.839 144.263 425.853 147.591 425.853C149.772 425.853 150.843 424.887 150.576 423.167L153.201 423.266Z" fill="#0E0C14"/>
<path d="M162.006 427.408C158.565 427.408 155.602 425.64 154.484 422.873C153.366 420.105 154.9 418.337 158.341 418.337C161.758 418.337 164.722 420.105 165.84 422.873C166.958 425.64 165.424 427.408 162.006 427.408ZM156.958 422.873C157.725 424.772 159.373 425.902 161.397 425.902C163.421 425.902 164.134 424.772 163.366 422.873C162.599 420.973 160.973 419.843 158.949 419.843C156.926 419.843 156.19 420.973 156.958 422.873Z" fill="#0E0C14"/>
<path d="M166.157 418.534H168.338L168.994 419.991C169.132 418.828 170.327 418.337 171.946 418.337C174.622 418.337 176.556 419.729 177.323 421.628L179.579 427.212H177.196L175.158 422.169C174.536 420.629 173.547 419.794 171.883 419.794C170.152 419.794 169.387 420.629 170.009 422.169L172.047 427.212H169.663L166.157 418.534Z" fill="#0E0C14"/>
<path d="M178.933 416.569H181.317L182.111 418.534H185.259L185.828 419.942H182.68L184.611 424.723C184.896 425.427 185.514 425.787 186.436 425.787H188.167L188.743 427.212H186.764C184.47 427.212 182.883 426.344 182.228 424.723L180.296 419.942H178.475L177.906 418.534H179.727L178.933 416.569Z" fill="#0E0C14"/>
<path d="M187.823 421.137C187.588 419.385 189.053 418.337 191.796 418.337C195.034 418.337 197.34 419.647 198.299 422.021L199.602 425.247C199.781 425.689 200.117 425.853 200.589 425.853H201.061L201.61 427.212H200.868C199.796 427.228 198.281 427.097 197.673 425.869C197.47 426.704 196.428 427.408 194.449 427.408C192.044 427.408 189.778 426.475 189.156 424.936C188.455 423.2 190.026 422.693 192.617 422.316L195.836 421.825C195.251 420.433 194.097 419.745 192.365 419.745C190.971 419.745 190.261 420.269 190.343 421.252L187.823 421.137ZM191.616 424.903C191.874 425.542 192.85 426.066 194.424 426.066C196.194 426.049 197.217 425.132 196.463 423.266L196.417 423.151L194.008 423.479C192.453 423.691 191.173 423.806 191.616 424.903Z" fill="#0E0C14"/>
<path d="M199.907 418.534H202.088L202.708 419.958C202.876 418.927 203.852 418.337 205.449 418.337C207.158 418.337 208.659 418.992 209.639 420.138C209.709 418.976 210.688 418.337 212.487 418.337C214.893 418.337 216.808 419.516 217.661 421.628L219.917 427.212H217.534L215.496 422.169C214.874 420.629 213.795 419.794 212.446 419.794C210.737 419.794 210.143 420.662 210.752 422.169L212.789 427.212H210.541L208.503 422.169C207.895 420.662 206.78 419.794 205.453 419.794C203.767 419.794 203.15 420.662 203.759 422.169L205.797 427.212H203.413L199.907 418.534Z" fill="#0E0C14"/>
<path d="M219.333 418.534H221.716L225.222 427.212H222.839L219.333 418.534ZM218.772 417.256L218.103 415.603H220.599L221.268 417.256H218.772Z" fill="#0E0C14"/>
<path d="M224.332 418.534H226.513L227.169 419.991C227.307 418.828 228.502 418.337 230.121 418.337C232.797 418.337 234.731 419.729 235.498 421.628L237.754 427.212H235.371L233.333 422.169C232.711 420.629 231.722 419.794 230.058 419.794C228.326 419.794 227.562 420.629 228.184 422.169L230.222 427.212H227.838L224.332 418.534Z" fill="#0E0C14"/>
<path d="M237.464 421.137C237.228 419.385 238.694 418.337 241.437 418.337C244.675 418.337 246.98 419.647 247.939 422.021L249.243 425.247C249.421 425.689 249.757 425.853 250.23 425.853H250.702L251.251 427.212H250.509C249.436 427.228 247.922 427.097 247.313 425.869C247.111 426.704 246.069 427.408 244.09 427.408C241.684 427.408 239.418 426.475 238.796 424.936C238.095 423.2 239.666 422.693 242.257 422.316L245.477 421.825C244.892 420.433 243.737 419.745 242.006 419.745C240.612 419.745 239.901 420.269 239.984 421.252L237.464 421.137ZM241.256 424.903C241.514 425.542 242.491 426.066 244.065 426.066C245.834 426.049 246.858 425.132 246.104 423.266L246.057 423.151L243.649 423.479C242.094 423.691 240.813 423.806 241.256 424.903Z" fill="#0E0C14"/>
<path d="M249.112 416.569H251.496L252.29 418.534H255.438L256.007 419.942H252.859L254.79 424.723C255.075 425.427 255.693 425.787 256.614 425.787H258.346L258.921 427.212H256.943C254.649 427.212 253.062 426.344 252.407 424.723L250.475 419.942H248.654L248.085 418.534H249.906L249.112 416.569Z" fill="#0E0C14"/>
<path d="M258.194 422.873C257.082 420.122 258.587 418.337 262.05 418.337C264.906 418.337 267.874 419.729 269.23 422.807L269.477 423.364H260.91C261.723 424.985 263.253 425.935 265.12 425.935C266.289 425.935 267.163 425.427 267.298 424.592L269.847 424.723C269.818 426.377 268.143 427.408 265.715 427.408C262.252 427.408 259.305 425.624 258.194 422.873ZM260.433 422.07H266.436C265.498 420.417 263.994 419.811 262.645 419.811C260.914 419.811 260.127 420.646 260.433 422.07Z" fill="#0E0C14"/>
<path d="M278.909 415.586L283.606 427.212H281.38L280.81 425.967C280.493 426.852 279.324 427.408 277.682 427.408C274.579 427.408 271.938 425.656 270.813 422.873C269.688 420.089 270.914 418.337 274.017 418.337C275.569 418.337 277.174 418.861 278.186 419.696L276.526 415.586H278.909ZM273.286 422.873C274.04 424.739 275.776 425.918 277.687 425.918C279.643 425.918 280.404 424.739 279.65 422.873C278.882 420.973 277.163 419.778 275.206 419.778C273.273 419.778 272.519 420.973 273.286 422.873Z" fill="#0E0C14"/>
<path d="M367.385 428.347L361.164 416.646H366.738C370.677 416.646 373.207 417.701 374.373 419.893C375.083 421.228 374.459 422.118 372.698 422.299C375.099 422.48 376.955 423.485 377.778 425.034C378.917 427.177 377.525 428.347 373.854 428.347H367.385ZM368.953 426.748H373.026C375.019 426.748 375.872 426.122 375.259 424.968C374.636 423.798 373.108 423.156 371.116 423.156H367.043L368.953 426.748ZM366.236 421.64H369.482C371.608 421.64 372.502 421.046 371.923 419.959C371.319 418.822 369.871 418.245 367.677 418.245H364.431L366.236 421.64Z" fill="white"/>
<path d="M377.395 419.613H379.567L380.51 421.261C380.339 420.14 380.954 419.613 382.476 419.613H383.618L384.38 421.046H383.216C381.359 421.046 380.933 421.804 381.704 423.255L384.412 428.347H382.039L377.395 419.613Z" fill="white"/>
<path d="M394.822 428.544C391.398 428.544 388.213 426.765 386.732 423.98C385.252 421.195 386.544 419.415 389.968 419.415C393.37 419.415 396.555 421.195 398.036 423.98C399.517 426.765 398.225 428.544 394.822 428.544ZM389.195 423.98C390.211 425.891 392.002 427.028 394.016 427.028C396.031 427.028 396.59 425.891 395.574 423.98C394.557 422.068 392.789 420.931 390.774 420.931C388.76 420.931 388.178 422.068 389.195 423.98Z" fill="white"/>
<path d="M396.198 416.646H398.57L402.443 423.93L405.408 419.613H408.474L405.764 423.271L413.32 428.347H410.567L404.762 424.375L403.565 426.04L404.792 428.347H402.419L396.198 416.646Z" fill="white"/>
<path d="M411.309 423.98C409.837 421.211 411.098 419.415 414.545 419.415C417.387 419.415 420.527 420.816 422.286 423.914L422.607 424.474H414.079C415.103 426.106 416.753 427.061 418.61 427.061C419.774 427.061 420.577 426.55 420.6 425.71L423.155 425.842C423.346 427.506 421.816 428.544 419.399 428.544C415.952 428.544 412.781 426.748 411.309 423.98ZM413.431 423.172H419.408C418.254 421.508 416.676 420.898 415.333 420.898C413.61 420.898 412.937 421.739 413.431 423.172Z" fill="white"/>
<path d="M422.089 419.613H424.26L425.107 421.079C425.09 419.909 426.215 419.415 427.826 419.415C430.49 419.415 432.6 420.816 433.616 422.727L436.604 428.347H434.232L431.533 423.271C430.709 421.722 429.613 420.882 427.957 420.882C426.233 420.882 425.583 421.722 426.407 423.271L429.106 428.347H426.733L422.089 419.613Z" fill="white"/>
</g>
<mask id="mask1_7357_47758" style="mask-type:alpha" maskUnits="userSpaceOnUse" x="239" y="0" width="782" height="269">
<rect x="239.203" width="781.562" height="268.99" fill="url(#paint3_linear_7357_47758)"/>
</mask>
<g mask="url(#mask1_7357_47758)">
<path d="M320.246 38.9844C289.096 53.5117 326.691 117.001 347.637 143.366C366.415 167.001 388.703 169.42 402.406 169.42C412.367 169.42 483.149 169.29 520.736 169.407C523.187 169.415 525.579 168.691 527.616 167.328C529.64 165.973 532.02 165.249 534.455 165.249H654.881" stroke="url(#paint4_linear_7357_47758)"/>
<path d="M332.043 96.5955C369.098 165.218 397.33 160.884 408.126 160.884H937.16C945.881 160.884 948.159 156.911 941.502 148.243C934.846 139.575 904.488 108.514 888.894 93.7061C873.301 78.8981 867.063 72.397 847.939 57.2278C828.816 42.0587 813.241 40.2525 797.876 40.2525C782.512 40.2525 343.38 39.8911 334.868 40.2523C326.355 40.6134 299.746 36.7864 332.043 96.5955Z" stroke="white"/>
<path d="M490.407 216.003C502.864 216.003 522.796 205.16 537.746 205.16C665.503 205.16 793.263 203.492 921.025 203.492C931.822 203.492 936.856 199.676 941.653 194.481C945.96 189.817 953.83 170.545 952.169 156.366C950.508 142.186 874.12 74.676 855.183 56.2026C832.625 34.1977 794.198 34.1977 789.63 34.1977C785.062 34.1977 754.423 34.6148 714.559 34.1977C674.694 33.7807 357.442 35.8662 340.001 35.8661C322.955 35.8661 311.348 40.8706 305.949 51.2965C302.597 57.7687 290.508 82.567 308.97 132.606C318.369 158.08 326.157 178.878 346.029 200.938C359.6 216.003 376.212 216.003 393.238 216.003H490.407Z" stroke="white" stroke-width="2"/>
<path d="M347.687 51.2682C345.823 47.9493 347.405 45.2812 351.236 45.2812H790.087C792.974 45.2812 796.45 46.8169 798.839 49.1483L902.387 150.162C905.88 153.57 905.096 157.244 900.876 157.244H413.267C409.923 157.244 405.86 154.876 404.233 151.979L347.687 51.2682Z" fill="#1C192D"/>
<path d="M347.687 51.2682C345.823 47.9493 347.405 45.2812 351.236 45.2812H790.087C792.974 45.2812 796.45 46.8169 798.839 49.1483L902.387 150.162C905.88 153.57 905.096 157.244 900.876 157.244H413.267C409.923 157.244 405.86 154.876 404.233 151.979L347.687 51.2682Z" stroke="white" stroke-width="2"/>
<path d="M389.207 185.362H407.97C409.074 185.362 409.97 186.258 409.97 187.362V195.04C409.97 196.144 409.074 197.04 407.97 197.04H389.207M389.207 185.362V197.04M389.207 185.362C380.902 185.362 362.631 186.614 355.156 176.188M389.207 197.04C382.148 197.318 361.8 197.874 357.648 188.699" stroke="url(#paint5_linear_7357_47758)"/>
<rect x="431.844" y="187.297" width="56.4745" height="10.8432" rx="5.42158" stroke="white" stroke-width="2"/>
<rect x="551.07" y="181.918" width="56.4745" height="10.8432" rx="5.42158" stroke="white" stroke-width="2"/>
<path d="M488.727 192.719V190.216C488.727 187.222 486.31 184.795 483.329 184.795H436.82C433.839 184.795 431.422 187.222 431.422 190.216V192.302" stroke="white"/>
<path d="M607.961 187.338V184.836C607.961 181.841 605.544 179.414 602.563 179.414H556.055C553.073 179.414 550.656 181.841 550.656 184.836V186.921" stroke="white"/>
<ellipse cx="6.64406" cy="3.75171" rx="6.64406" ry="3.75171" transform="matrix(1 0 0.499325 0.866414 372.344 133.143)" stroke="white" stroke-width="2"/>
<ellipse cx="2.90678" cy="1.66743" rx="2.90678" ry="1.66743" transform="matrix(1 0 0.499325 0.866414 342.266 70.9453)" stroke="white" stroke-width="2"/>
<ellipse cx="2.90678" cy="1.66743" rx="2.90678" ry="1.66743" transform="matrix(1 0 0.499325 0.866414 336.898 63.1953)" stroke="white" stroke-width="2"/>
<path d="M336.153 84.2197C335.834 83.628 336.123 83.1582 336.806 83.1582C337.505 83.1582 338.355 83.6492 338.704 84.2549L350.161 104.135C350.612 104.917 350.245 105.551 349.343 105.551C348.42 105.551 347.298 104.889 346.867 104.089L336.153 84.2197Z" fill="white"/>
<rect width="6.64406" height="27.5126" rx="3.32203" transform="matrix(1 0 0.499325 0.866414 348.039 81.4902)" stroke="white" stroke-width="2"/>
<path d="M307.855 92.328C308.073 91.1498 308.216 89.7759 308.518 88.8179C309.15 86.8118 310.379 86.9145 311.477 89.3851C318.202 104.829 321.741 112.122 331.805 130.559C333.158 133.604 333.691 138.847 332.934 141.687L328.535 163.864C327.834 166.498 326.375 166.356 325.119 163.53C318.355 147.775 313.462 134.695 307.736 118.658C307.218 117.206 306.642 115.914 306.191 114.276C305.669 112.377 305.35 110.149 305.304 108.083C305.266 106.319 305.519 104.942 305.765 103.617L307.855 92.328Z" stroke="white" stroke-width="2" stroke-linecap="round"/>
<path d="M310.719 98.9973C310.938 97.751 311.532 97.6779 312.046 98.834L327.913 134.27C328.426 135.426 328.665 137.374 328.446 138.62L325.981 151.899C325.762 153.145 325.168 153.218 324.654 152.062L309.862 113.398C309.348 112.241 309.109 110.294 309.329 109.048L310.719 98.9973Z" stroke="white" stroke-width="2" stroke-linecap="round"/>
<path d="M329.657 133.624L311.615 93.0298C310.99 91.6227 310.292 91.5323 309.916 92.6184C309.714 93.2028 309.621 94.0853 309.477 94.8277L307.331 105.874C307.156 106.776 306.975 107.721 307.014 108.948C307.073 110.758 307.458 112.737 308.051 114.073L324.082 157.678C324.873 159.458 325.792 159.546 326.234 157.886L330.316 140.114M329.657 133.624C330.446 135.4 330.757 138.457 330.316 140.114M329.657 133.624L328.322 135.536M330.316 140.114L328.861 139.112M325.616 152.512L326.042 158.236M324.542 152.512L324.096 157.481M308.966 109.468L307.09 108.217M309.503 112.696L308.029 113.952M320.135 130.394C319.773 132.451 318.792 132.571 317.945 130.664C317.097 128.756 316.703 125.543 317.065 123.486C317.427 121.43 318.407 121.309 319.255 123.217C320.103 125.125 320.497 128.338 320.135 130.394ZM325.092 142.755C324.664 145.185 323.505 145.328 322.503 143.073C321.501 140.819 321.036 137.021 321.464 134.591C321.891 132.161 323.05 132.018 324.052 134.273C325.054 136.527 325.52 140.325 325.092 142.755ZM315.853 116.951C315.381 119.631 314.103 119.788 312.999 117.302C311.894 114.817 311.381 110.63 311.852 107.95C312.324 105.271 313.602 105.113 314.707 107.599C315.811 110.085 316.325 114.272 315.853 116.951Z" stroke="white"/>
<path d="M310.579 99.4208L309.506 94.404M312.363 99.4208L312.363 94.404" stroke="white"/>
</g>
<path d="M367.496 57.8729L610.104 58.3124L631.522 57.6565C635.459 57.5359 638.524 61.0453 637.874 64.9302L624.447 145.174C623.953 148.123 621.438 150.309 618.449 150.387L606.442 150.698L421.846 149.023C418.269 148.991 414.968 147.095 413.136 144.023L364.699 62.7873C363.406 60.6187 364.971 57.8683 367.496 57.8729Z" fill="url(#paint6_linear_7357_47758)" fill-opacity="0.1" stroke="url(#paint7_linear_7357_47758)" stroke-opacity="0.2" stroke-width="1.53713"/>
<g filter="url(#filter0_d_7357_47758)">
<path fill-rule="evenodd" clip-rule="evenodd" d="M650.874 121.575C650.506 119.155 649.621 112.044 648.361 106.351C647.106 100.666 645.44 96.7795 642.402 92.5364C641.096 90.7141 637.581 87.076 635.82 85.7183C633.414 83.883 629.707 81.5668 626.869 80.1551C624.888 79.1602 621.522 77.716 619.895 77.1474C615.142 75.5104 608.693 74.0503 604.861 73.7279C590.181 72.5331 573.675 77.0977 558.854 93.8667C557.835 95.0121 557.436 95.29 557.493 94.7773C557.525 94.5476 558.945 92.5069 560.637 90.7428C577.593 73.0668 595.172 69.8983 609.317 72.403C618.869 74.0944 626.494 77.081 633.963 82.0784C637.368 84.3635 639.019 85.7545 641.693 88.6149C644.304 91.411 645.961 93.2609 647.988 97.0599C650.302 101.379 651.902 105.492 653.152 109.972C654.402 114.452 654.853 116.61 655.113 119.862C655.374 123.114 651.241 123.995 650.874 121.575Z" fill="url(#paint8_linear_7357_47758)" fill-opacity="0.8"/>
<path d="M609.379 72.1921C618.962 73.889 626.617 76.887 634.112 81.9021C637.53 84.1956 639.193 85.5965 641.878 88.4682C644.494 91.269 646.164 93.1336 648.204 96.9544L648.203 96.954C650.523 101.286 652.128 105.413 653.382 109.905C654.633 114.391 655.088 116.561 655.35 119.83C655.487 121.549 654.456 122.687 653.29 123.048C652.713 123.227 652.103 123.215 651.606 122.978C651.104 122.74 650.74 122.283 650.639 121.62C650.27 119.191 649.386 112.093 648.128 106.408C646.879 100.745 645.222 96.8826 642.201 92.6633C640.906 90.8566 637.406 87.2329 635.66 85.8869L635.659 85.8877C633.265 84.0605 629.568 81.7513 626.743 80.3459L626.742 80.3456C624.768 79.3541 621.413 77.9129 619.796 77.3482L619.797 77.3494C615.354 75.8189 609.425 74.4449 605.565 74.0152L604.823 73.9419C590.222 72.7537 573.8 77.2866 559.035 93.9934L559.034 93.9942C558.529 94.5616 558.154 94.9435 557.902 95.1134C557.838 95.1569 557.765 95.1977 557.688 95.2204C557.609 95.244 557.495 95.2552 557.395 95.1932C557.303 95.1361 557.272 95.0467 557.26 94.9842C557.247 94.9184 557.249 94.8448 557.257 94.7719L557.258 94.7669C557.264 94.7215 557.283 94.6766 557.297 94.6456C557.313 94.6097 557.333 94.5688 557.358 94.5251C557.406 94.4373 557.475 94.3271 557.558 94.1992C557.726 93.9426 557.962 93.6062 558.25 93.2236C558.825 92.4584 559.609 91.4993 560.463 90.6087C577.48 72.8696 595.149 69.6725 609.379 72.1921Z" stroke="black" stroke-opacity="0.13" stroke-width="0.452742"/>
<ellipse cx="1.51608" cy="1.65332" rx="1.51608" ry="1.65332" transform="matrix(-0.0784618 0.950484 -0.985729 0.386721 654.875 119.113)" fill="#616161"/>
<path d="M653.097 120.367C653.966 119.788 654.492 120.549 654.624 121.21C655.221 124.836 655.216 127.771 655.116 133.23C655.101 134.098 654.385 135.09 653.505 135.504C652.624 135.918 651.909 135.681 651.926 134.729C652.027 129.162 652.342 125.918 651.802 122.637C651.661 121.775 652.227 120.946 653.097 120.367Z" fill="#B4B4B4"/>
<ellipse cx="1.33724" cy="1.45829" rx="1.33724" ry="1.45829" transform="matrix(-0.0784618 0.950484 -0.985729 0.386721 655.031 132.197)" fill="url(#paint9_linear_7357_47758)"/>
<path d="M653.454 131.859C653.743 132.962 653.423 134.713 653.181 134.788C652.938 134.863 653.364 134.462 653.07 132.211L653.454 131.859Z" fill="url(#paint10_linear_7357_47758)"/>
<path d="M652.593 131.825C653.021 132.813 652.884 134.504 652.639 134.612C652.393 134.721 652.794 134.278 652.23 132.215L652.593 131.825Z" fill="url(#paint11_linear_7357_47758)"/>
<path d="M652.979 132.376C653.284 133.467 652.983 135.213 652.74 135.292C652.497 135.37 652.92 134.965 652.597 132.732L652.979 132.376Z" fill="url(#paint12_linear_7357_47758)"/>
<path d="M654.34 129.882C654.926 131.353 654.675 133.832 654.319 133.981C653.962 134.129 654.552 133.496 653.807 130.44L654.34 129.882Z" fill="url(#paint13_linear_7357_47758)"/>
<path d="M653.677 130.233C654.357 131.941 654.066 134.821 653.652 134.993C653.238 135.166 653.923 134.431 653.057 130.881L653.677 130.233Z" fill="url(#paint14_linear_7357_47758)"/>
<path d="M653.032 131.349C653.445 132.388 653.268 134.14 653.016 134.245C652.764 134.35 653.181 133.903 652.655 131.743L653.032 131.349Z" fill="url(#paint15_linear_7357_47758)"/>
<path opacity="0.5" d="M652.235 133.51C652.535 131.765 652.525 122.994 652.227 122.31C651.929 121.627 653.335 120.634 653.481 121.105C653.724 121.889 654.293 127.271 653.842 132.463C652.819 132.702 652.137 134.078 652.235 133.51Z" fill="black" fill-opacity="0.4"/>
<path d="M652.247 133.053C652.561 131.624 652.373 122.798 652.184 122.438C651.994 122.078 652.492 121.463 652.583 121.976C652.673 122.488 653.247 127.437 652.797 132.629C652.75 133.163 652.121 133.628 652.247 133.053Z" fill="black" fill-opacity="0.5"/>
<path opacity="0.5" d="M654.559 131.574C654.916 128.096 654.379 121.715 654.18 121.365C653.981 121.015 654.375 121.062 654.478 121.567C654.58 122.071 655.285 126.586 654.942 131.735C654.907 132.265 654.502 132.13 654.559 131.574Z" fill="black" fill-opacity="0.4"/>
<path d="M640.352 88.0664C640.706 88.3959 641.053 88.7396 641.39 89.0918C647.395 95.5599 651.909 106.161 653.908 116.402C654.009 116.966 654.106 117.574 654.185 118.154C654.204 118.294 654.166 118.463 654.079 118.625C653.992 118.787 653.862 118.928 653.72 119.016C653.578 119.104 653.435 119.132 653.324 119.093C653.213 119.054 653.143 118.952 653.128 118.809C653.069 118.236 652.992 117.628 652.91 117.063C651.249 106.752 647.074 95.9171 641.345 89.1449C641.024 88.7752 640.691 88.4141 640.352 88.0664Z" fill="white"/>
<path d="M645.297 96.4121C645.465 96.7261 645.63 97.046 645.789 97.3674C648.611 103.21 650.974 112.113 651.848 119.415C651.876 119.781 651.411 120.367 651.427 120.735C651.431 120.824 651.405 120.911 651.353 120.977C651.302 121.042 651.229 121.082 651.152 121.086C651.075 121.089 651.001 121.057 650.945 120.997C650.89 120.936 650.858 120.853 650.856 120.763C650.85 120.406 650.835 120.022 650.817 119.661C650.392 113.026 648.431 103.311 645.764 97.3838C645.613 97.0571 645.457 96.7319 645.297 96.4121Z" fill="black" fill-opacity="0.4"/>
<path d="M590.097 73.2685C585.878 74.2536 581.421 76.4795 577.102 78.6007C576.877 78.712 576.653 78.8254 576.432 78.9404C571.621 81.8158 566.301 85.6896 562.207 89.4456C561.768 89.9242 561.328 90.4265 560.922 90.9409C561.306 90.4071 561.73 89.8811 562.155 89.3786C566.595 85.2237 571.161 81.5812 576.418 78.3785C576.644 78.2613 576.872 78.1451 577.101 78.0324C581.456 75.9066 585.958 73.8221 590.124 73.1516C591.258 72.9861 591.315 73.0016 590.097 73.2685Z" fill="white"/>
</g>
<g filter="url(#filter1_d_7357_47758)">
<path fill-rule="evenodd" clip-rule="evenodd" d="M282.686 495.774C282.319 493.355 281.433 486.243 280.173 480.55C278.919 474.865 277.253 470.979 274.215 466.736C272.909 464.913 269.394 461.275 267.632 459.917C265.227 458.082 261.519 455.766 258.682 454.354C256.7 453.359 253.335 451.915 251.707 451.347C246.955 449.71 240.506 448.25 236.674 447.927C221.993 446.732 205.487 451.297 190.667 468.066C189.647 469.211 189.249 469.489 189.306 468.977C189.337 468.747 190.757 466.706 192.45 464.942C209.406 447.266 226.984 444.097 241.13 446.602C250.682 448.294 258.307 451.28 265.776 456.278C269.181 458.563 270.831 459.954 273.505 462.814C276.117 465.61 277.773 467.46 279.801 471.259C282.114 475.579 283.715 479.691 284.965 484.171C286.215 488.651 286.665 490.809 286.926 494.061C287.186 497.313 283.054 498.194 282.686 495.774Z" fill="url(#paint16_linear_7357_47758)" fill-opacity="0.8"/>
<path d="M241.191 446.391C250.775 448.088 258.43 451.086 265.925 456.101C269.343 458.395 271.006 459.796 273.691 462.667C276.306 465.468 277.977 467.333 280.016 471.154L280.015 471.153C282.336 475.486 283.941 479.612 285.194 484.104C286.446 488.59 286.9 490.76 287.162 494.03C287.3 495.748 286.269 496.886 285.103 497.248C284.526 497.426 283.916 497.414 283.419 497.177C282.916 496.939 282.552 496.482 282.452 495.819C282.083 493.391 281.199 486.292 279.941 480.607C278.691 474.944 277.034 471.082 274.013 466.863C272.719 465.056 269.218 461.432 267.472 460.086L267.472 460.087C265.077 458.26 261.38 455.951 258.556 454.545L258.555 454.545C256.58 453.553 253.225 452.112 251.609 451.547L251.609 451.549C247.166 450.018 241.238 448.644 237.378 448.214L236.635 448.141C222.035 446.953 205.613 451.486 190.847 468.193L190.847 468.193C190.342 468.761 189.967 469.143 189.715 469.313C189.65 469.356 189.578 469.397 189.501 469.42C189.421 469.443 189.307 469.454 189.207 469.392C189.116 469.335 189.084 469.246 189.072 469.183C189.06 469.118 189.061 469.044 189.069 468.971L189.07 468.966C189.076 468.921 189.095 468.876 189.109 468.845C189.125 468.809 189.146 468.768 189.17 468.724C189.219 468.637 189.287 468.526 189.371 468.398C189.538 468.142 189.775 467.805 190.062 467.423C190.637 466.658 191.421 465.698 192.275 464.808C209.292 447.069 226.962 443.872 241.191 446.391Z" stroke="black" stroke-opacity="0.13" stroke-width="0.452742"/>
<ellipse cx="1.51608" cy="1.65332" rx="1.51608" ry="1.65332" transform="matrix(-0.0784618 0.950484 -0.985729 0.386721 286.688 493.312)" fill="#616161"/>
<path d="M284.909 494.566C285.779 493.987 286.304 494.749 286.437 495.409C287.034 499.035 287.028 501.97 286.929 507.429C286.913 508.298 286.198 509.289 285.317 509.703C284.436 510.117 283.721 509.88 283.739 508.928C283.84 503.361 284.155 500.117 283.615 496.836C283.473 495.975 284.04 495.145 284.909 494.566Z" fill="#B4B4B4"/>
<ellipse cx="1.33724" cy="1.45829" rx="1.33724" ry="1.45829" transform="matrix(-0.0784618 0.950484 -0.985729 0.386721 286.844 506.396)" fill="url(#paint17_linear_7357_47758)"/>
<path d="M285.267 506.058C285.556 507.161 285.236 508.912 284.993 508.987C284.751 509.062 285.176 508.661 284.883 506.41L285.267 506.058Z" fill="url(#paint18_linear_7357_47758)"/>
<path d="M284.405 506.024C284.834 507.012 284.697 508.703 284.451 508.811C284.206 508.92 284.606 508.477 284.043 506.415L284.405 506.024Z" fill="url(#paint19_linear_7357_47758)"/>
<path d="M284.792 506.575C285.096 507.667 284.795 509.413 284.552 509.491C284.31 509.57 284.732 509.164 284.41 506.931L284.792 506.575Z" fill="url(#paint20_linear_7357_47758)"/>
<path d="M286.153 504.081C286.738 505.552 286.488 508.031 286.131 508.18C285.774 508.328 286.364 507.695 285.619 504.639L286.153 504.081Z" fill="url(#paint21_linear_7357_47758)"/>
<path d="M285.489 504.432C286.17 506.14 285.879 509.02 285.465 509.193C285.05 509.365 285.736 508.63 284.87 505.08L285.489 504.432Z" fill="url(#paint22_linear_7357_47758)"/>
<path d="M284.844 505.548C285.258 506.587 285.081 508.339 284.829 508.444C284.577 508.549 284.994 508.102 284.467 505.942L284.844 505.548Z" fill="url(#paint23_linear_7357_47758)"/>
<path opacity="0.5" d="M284.048 507.709C284.347 505.964 284.338 497.193 284.04 496.51C283.742 495.826 285.147 494.833 285.294 495.305C285.537 496.089 286.106 501.47 285.655 506.662C284.632 506.902 283.95 508.277 284.048 507.709Z" fill="black" fill-opacity="0.4"/>
<path d="M284.06 507.252C284.373 505.823 284.186 496.997 283.996 496.637C283.807 496.277 284.304 495.662 284.395 496.175C284.486 496.688 285.06 501.636 284.609 506.828C284.563 507.362 283.934 507.827 284.06 507.252Z" fill="black" fill-opacity="0.5"/>
<path opacity="0.5" d="M286.372 505.774C286.729 502.295 286.192 495.915 285.993 495.564C285.793 495.214 286.187 495.262 286.29 495.766C286.393 496.27 287.098 500.785 286.755 505.934C286.72 506.464 286.315 506.329 286.372 505.774Z" fill="black" fill-opacity="0.4"/>
<path d="M272.164 462.266C272.518 462.595 272.865 462.939 273.202 463.291C279.208 469.759 283.721 480.36 285.721 490.602C285.821 491.165 285.919 491.773 285.997 492.353C286.016 492.494 285.978 492.663 285.891 492.824C285.804 492.986 285.675 493.127 285.533 493.216C285.39 493.304 285.248 493.331 285.137 493.292C285.026 493.253 284.955 493.152 284.941 493.009C284.882 492.435 284.804 491.827 284.723 491.263C283.062 480.951 278.886 470.116 273.158 463.344C272.836 462.974 272.504 462.613 272.164 462.266Z" fill="white"/>
<path d="M277.109 470.611C277.278 470.925 277.442 471.245 277.601 471.567C280.424 477.409 282.786 486.312 283.66 493.615C283.688 493.981 283.224 494.566 283.24 494.934C283.244 495.023 283.217 495.11 283.166 495.176C283.114 495.242 283.042 495.281 282.965 495.285C282.888 495.289 282.813 495.256 282.758 495.196C282.702 495.136 282.67 495.052 282.669 494.963C282.662 494.605 282.648 494.221 282.629 493.861C282.205 487.225 280.243 477.511 277.576 471.583C277.426 471.256 277.27 470.931 277.109 470.611Z" fill="black" fill-opacity="0.4"/>
<path d="M221.909 447.468C217.69 448.453 213.233 450.679 208.915 452.8C208.69 452.911 208.466 453.025 208.244 453.14C203.434 456.015 198.113 459.889 194.019 463.645C193.58 464.123 193.14 464.626 192.735 465.14C193.119 464.606 193.542 464.08 193.967 463.578C198.407 459.423 202.974 455.78 208.23 452.578C208.456 452.461 208.684 452.344 208.913 452.232C213.269 450.106 217.77 448.021 221.937 447.351C223.07 447.185 223.127 447.201 221.909 447.468Z" fill="white"/>
</g>
<mask id="mask2_7357_47758" style="mask-type:alpha" maskUnits="userSpaceOnUse" x="64" y="57" width="362" height="518">
<path d="M350.444 206.782C344.748 202.84 335.548 191.011 326.786 177.868L273.258 57.168L64.7578 275.125C76.4343 335.217 99.6634 521.795 101.462 536.246L101.558 537.011C102.259 542.619 206.409 564.465 258.396 574.687L391.577 548.401L425.358 216.421C421.999 216.275 410.112 216.07 389.434 216.421C363.586 216.859 356.139 210.725 350.444 206.782Z" fill="#D9D9D9"/>
</mask>
<g mask="url(#mask2_7357_47758)">
<path d="M376.258 99.668L110.647 339.681C106.627 343.313 105.064 348.938 106.633 354.124L153.28 508.234C155.716 516.283 163.152 521.773 171.561 521.73L354.777 520.802L376.258 99.668Z" fill="url(#paint24_linear_7357_47758)" stroke="url(#paint25_linear_7357_47758)" stroke-width="2"/>
</g>
<defs>
<filter id="filter0_d_7357_47758" x="548.758" y="57.668" width="126.883" height="86.9531" filterUnits="userSpaceOnUse" color-interpolation-filters="sRGB">
<feFlood flood-opacity="0" result="BackgroundImageFix"/>
<feColorMatrix in="SourceAlpha" type="matrix" values="0 0 0 0 0 0 0 0 0 0 0 0 0 0 0 0 0 0 127 0" result="hardAlpha"/>
<feOffset dx="-4" dy="4"/>
<feGaussianBlur stdDeviation="2"/>
<feComposite in2="hardAlpha" operator="out"/>
<feColorMatrix type="matrix" values="0 0 0 0 0 0 0 0 0 0 0 0 0 0 0 0 0 0 0.25 0"/>
<feBlend mode="normal" in2="BackgroundImageFix" result="effect1_dropShadow_7357_47758"/>
<feBlend mode="normal" in="SourceGraphic" in2="effect1_dropShadow_7357_47758" result="shape"/>
</filter>
<filter id="filter1_d_7357_47758" x="180.57" y="431.867" width="126.883" height="86.9531" filterUnits="userSpaceOnUse" color-interpolation-filters="sRGB">
<feFlood flood-opacity="0" result="BackgroundImageFix"/>
<feColorMatrix in="SourceAlpha" type="matrix" values="0 0 0 0 0 0 0 0 0 0 0 0 0 0 0 0 0 0 127 0" result="hardAlpha"/>
<feOffset dx="-4" dy="4"/>
<feGaussianBlur stdDeviation="2"/>
<feComposite in2="hardAlpha" operator="out"/>
<feColorMatrix type="matrix" values="0 0 0 0 0 0 0 0 0 0 0 0 0 0 0 0 0 0 0.25 0"/>
<feBlend mode="normal" in2="BackgroundImageFix" result="effect1_dropShadow_7357_47758"/>
<feBlend mode="normal" in="SourceGraphic" in2="effect1_dropShadow_7357_47758" result="shape"/>
</filter>
<radialGradient id="paint0_radial_7357_47758" cx="0" cy="0" r="1" gradientUnits="userSpaceOnUse" gradientTransform="translate(414 422.668) rotate(90) scale(325.943 456.174)">
<stop offset="0.44145" stop-color="#D9D9D9"/>
<stop offset="1" stop-color="#D9D9D9" stop-opacity="0"/>
</radialGradient>
<linearGradient id="paint1_linear_7357_47758" x1="372.99" y1="221.247" x2="348.884" y2="347.014" gradientUnits="userSpaceOnUse">
<stop stop-color="white" stop-opacity="0"/>
<stop offset="1" stop-color="white"/>
</linearGradient>
<linearGradient id="paint2_linear_7357_47758" x1="503.106" y1="270.753" x2="500.916" y2="342.162" gradientUnits="userSpaceOnUse">
<stop stop-color="white" stop-opacity="0"/>
<stop offset="1" stop-color="white"/>
</linearGradient>
<linearGradient id="paint3_linear_7357_47758" x1="657.146" y1="-35.4857" x2="629.984" y2="111.714" gradientUnits="userSpaceOnUse">
<stop stop-color="#D9D9D9" stop-opacity="0"/>
<stop offset="1" stop-color="#D9D9D9"/>
</linearGradient>
<linearGradient id="paint4_linear_7357_47758" x1="559.787" y1="124.379" x2="654.881" y2="124.379" gradientUnits="userSpaceOnUse">
<stop stop-color="white"/>
<stop offset="1" stop-color="#999999" stop-opacity="0"/>
</linearGradient>
<linearGradient id="paint5_linear_7357_47758" x1="395.021" y1="187.865" x2="358.477" y2="185.797" gradientUnits="userSpaceOnUse">
<stop stop-color="white"/>
<stop offset="1" stop-color="#999999" stop-opacity="0"/>
</linearGradient>
<linearGradient id="paint6_linear_7357_47758" x1="501.821" y1="97.2256" x2="603.901" y2="95.705" gradientUnits="userSpaceOnUse">
<stop stop-color="#BBA1FF"/>
<stop offset="1" stop-color="#C891FF" stop-opacity="0"/>
</linearGradient>
<linearGradient id="paint7_linear_7357_47758" x1="452.44" y1="103.444" x2="549.795" y2="100.975" gradientUnits="userSpaceOnUse">
<stop stop-color="#A041FF"/>
<stop offset="1" stop-color="#4FE2CE" stop-opacity="0"/>
</linearGradient>
<linearGradient id="paint8_linear_7357_47758" x1="633.868" y1="132.226" x2="614.388" y2="56.3095" gradientUnits="userSpaceOnUse">
<stop stop-color="white"/>
<stop offset="1" stop-color="white" stop-opacity="0.5"/>
</linearGradient>
<linearGradient id="paint9_linear_7357_47758" x1="0.425733" y1="1.3847" x2="3.28401" y2="1.414" gradientUnits="userSpaceOnUse">
<stop stop-color="#353736"/>
<stop offset="1" stop-color="#A6A6A6"/>
</linearGradient>
<linearGradient id="paint10_linear_7357_47758" x1="653.237" y1="134.579" x2="653.017" y2="133.794" gradientUnits="userSpaceOnUse">
<stop stop-color="#DCDCDC"/>
<stop offset="1" stop-color="#DCDCDC" stop-opacity="0"/>
</linearGradient>
<linearGradient id="paint11_linear_7357_47758" x1="652.674" y1="134.408" x2="652.38" y2="133.696" gradientUnits="userSpaceOnUse">
<stop stop-color="#DCDCDC"/>
<stop offset="1" stop-color="#DCDCDC" stop-opacity="0"/>
</linearGradient>
<linearGradient id="paint12_linear_7357_47758" x1="652.793" y1="135.084" x2="652.565" y2="134.306" gradientUnits="userSpaceOnUse">
<stop stop-color="#DCDCDC"/>
<stop offset="1" stop-color="#DCDCDC" stop-opacity="0"/>
</linearGradient>
<linearGradient id="paint13_linear_7357_47758" x1="654.393" y1="133.524" x2="654.162" y2="132.724" gradientUnits="userSpaceOnUse">
<stop stop-color="#DCDCDC"/>
<stop offset="1" stop-color="#DCDCDC" stop-opacity="0"/>
</linearGradient>
<linearGradient id="paint14_linear_7357_47758" x1="653.757" y1="134.077" x2="653.267" y2="132.918" gradientUnits="userSpaceOnUse">
<stop stop-color="#DCDCDC"/>
<stop offset="1" stop-color="#DCDCDC" stop-opacity="0"/>
</linearGradient>
<linearGradient id="paint15_linear_7357_47758" x1="653.073" y1="133.737" x2="652.797" y2="133.248" gradientUnits="userSpaceOnUse">
<stop stop-color="#DCDCDC"/>
<stop offset="1" stop-color="#DCDCDC" stop-opacity="0"/>
</linearGradient>
<linearGradient id="paint16_linear_7357_47758" x1="265.681" y1="506.426" x2="246.2" y2="430.509" gradientUnits="userSpaceOnUse">
<stop stop-color="white"/>
<stop offset="1" stop-color="white" stop-opacity="0.5"/>
</linearGradient>
<linearGradient id="paint17_linear_7357_47758" x1="0.425733" y1="1.3847" x2="3.28401" y2="1.414" gradientUnits="userSpaceOnUse">
<stop stop-color="#353736"/>
<stop offset="1" stop-color="#A6A6A6"/>
</linearGradient>
<linearGradient id="paint18_linear_7357_47758" x1="285.049" y1="508.779" x2="284.829" y2="507.993" gradientUnits="userSpaceOnUse">
<stop stop-color="#DCDCDC"/>
<stop offset="1" stop-color="#DCDCDC" stop-opacity="0"/>
</linearGradient>
<linearGradient id="paint19_linear_7357_47758" x1="284.486" y1="508.607" x2="284.192" y2="507.895" gradientUnits="userSpaceOnUse">
<stop stop-color="#DCDCDC"/>
<stop offset="1" stop-color="#DCDCDC" stop-opacity="0"/>
</linearGradient>
<linearGradient id="paint20_linear_7357_47758" x1="284.606" y1="509.283" x2="284.377" y2="508.505" gradientUnits="userSpaceOnUse">
<stop stop-color="#DCDCDC"/>
<stop offset="1" stop-color="#DCDCDC" stop-opacity="0"/>
</linearGradient>
<linearGradient id="paint21_linear_7357_47758" x1="286.206" y1="507.723" x2="285.975" y2="506.923" gradientUnits="userSpaceOnUse">
<stop stop-color="#DCDCDC"/>
<stop offset="1" stop-color="#DCDCDC" stop-opacity="0"/>
</linearGradient>
<linearGradient id="paint22_linear_7357_47758" x1="285.569" y1="508.276" x2="285.079" y2="507.117" gradientUnits="userSpaceOnUse">
<stop stop-color="#DCDCDC"/>
<stop offset="1" stop-color="#DCDCDC" stop-opacity="0"/>
</linearGradient>
<linearGradient id="paint23_linear_7357_47758" x1="284.885" y1="507.936" x2="284.609" y2="507.447" gradientUnits="userSpaceOnUse">
<stop stop-color="#DCDCDC"/>
<stop offset="1" stop-color="#DCDCDC" stop-opacity="0"/>
</linearGradient>
<linearGradient id="paint24_linear_7357_47758" x1="152.377" y1="278.535" x2="193.903" y2="470.606" gradientUnits="userSpaceOnUse">
<stop stop-color="#1DA593"/>
<stop offset="1" stop-color="#1DA593" stop-opacity="0"/>
</linearGradient>
<linearGradient id="paint25_linear_7357_47758" x1="171.913" y1="391.564" x2="384.175" y2="460.244" gradientUnits="userSpaceOnUse">
<stop stop-color="#4FE2CE"/>
<stop offset="1" stop-color="#4FE2CE" stop-opacity="0"/>
</linearGradient>
</defs>
</svg>
