<svg width="996" height="700" viewBox="0 0 996 700" fill="none" xmlns="http://www.w3.org/2000/svg">
<mask id="mask0_7357_48091" style="mask-type:alpha" maskUnits="userSpaceOnUse" x="0" y="8" width="828" height="829">
<circle cx="414" cy="422.668" r="414" fill="url(#paint0_radial_7357_48091)"/>
</mask>
<g mask="url(#mask0_7357_48091)">
<path d="M466.626 399.924C470.574 399.924 474.19 402.136 475.987 405.651L532.495 521.258H367.758C363.398 521.258 359.491 518.567 357.936 514.494L314.195 399.924H466.626Z" fill="#D9D9D9" fill-opacity="0.1"/>
<path fill-rule="evenodd" clip-rule="evenodd" d="M466.913 336.467C470.861 336.467 474.477 338.679 476.275 342.194L565.233 516.158C566.425 518.49 564.731 521.257 562.112 521.258H532.494L475.986 405.651C474.189 402.136 470.573 399.924 466.625 399.924H314.195L292.237 342.41C291.143 339.542 293.261 336.467 296.33 336.467H466.913Z" fill="#D9D9D9" fill-opacity="0.1"/>
<path fill-rule="evenodd" clip-rule="evenodd" d="M275.173 399.924C279.121 399.924 282.736 402.136 284.534 405.651L327.79 522.135H173.87C161.716 522.135 154.359 514.378 151.863 504.623L123.012 409.678C121.435 402.781 124.62 399.924 127.58 399.924H275.173Z" fill="#D9D9D9" fill-opacity="0.1"/>
<path fill-rule="evenodd" clip-rule="evenodd" d="M277.057 337.342C281.417 337.342 285.324 340.033 286.879 344.106L352.123 515.001C353.437 518.442 350.895 522.133 347.212 522.133H327.796L284.54 405.65C282.742 402.135 279.127 399.923 275.179 399.923H127.586C124.626 399.923 121.441 402.779 123.017 409.674L107.809 359.627C103.898 347.513 116.209 337.342 128.362 337.342H277.057Z" fill="#D9D9D9" fill-opacity="0.1"/>
<path d="M636.69 399.709C652.367 399.709 656.649 399.709 667.998 416.553L728.971 521.922L728.901 522.134H582.535C578.587 522.134 574.971 519.922 573.174 516.406L513.5 399.709H636.69Z" fill="#D2B2FF"/>
<path d="M642.258 337.342C654.412 337.342 662.602 345.56 668.977 354.854L756.887 501.872C761.88 510.064 749.084 522.133 736.93 522.133H728.904L728.972 521.922L667.998 416.552C656.65 399.709 652.367 399.709 636.691 399.709H513.501L484.217 342.442C483.025 340.11 484.718 337.342 487.337 337.342H642.258Z" fill="#D2B2FF" fill-opacity="0.4"/>
<path d="M162.218 331.902H127.999C112.327 331.902 97.6656 343.235 101.578 360.039L145.136 504.712C148.525 517.133 157.84 527.293 173.512 527.293H737.11C752.782 527.293 770.572 512.443 761.965 499.547L675.527 354.483C666.898 342.063 657.531 331.902 641.859 331.902H601.954M668.578 354.483L756.488 501.501C761.482 509.693 748.684 521.763 736.531 521.763H582.137C578.189 521.763 574.573 519.551 572.775 516.036L483.818 342.072C482.625 339.74 484.319 336.971 486.938 336.971H641.859C654.013 336.971 662.203 345.189 668.578 354.483ZM151.506 504.251L107.446 359.257C103.534 347.143 115.845 336.971 127.999 336.971H276.693C281.053 336.971 284.961 339.662 286.516 343.736L351.759 514.631C353.073 518.072 350.532 521.763 346.848 521.763H173.512C161.358 521.763 154.002 514.006 151.506 504.251ZM477.189 342.699L566.147 516.662C567.339 518.995 565.645 521.763 563.026 521.763H368.672C364.312 521.763 360.404 519.072 358.849 514.999L293.152 342.915C292.057 340.047 294.175 336.971 297.245 336.971H467.828C471.776 336.971 475.392 339.183 477.189 342.699Z" stroke="white" stroke-width="2"/>
<path d="M314.289 399.553H466.263C470.211 399.553 473.826 401.765 475.624 405.28L532.569 521.781" stroke="white" stroke-width="2"/>
<path d="M327.102 520.905L284.176 405.28C282.378 401.765 278.763 399.553 274.815 399.553H127.222C124.155 399.553 120.846 402.619 122.841 410.067" stroke="white" stroke-width="2"/>
<path d="M641.855 337.342V399.551M668.574 354.866V419.266M472.751 338.218V400.428M281.741 338.218V402.618M126.781 337.78V399.551" stroke="white"/>
<path d="M71.1734 111.121C59.0241 111.121 55.5852 119.638 58.0135 130.349L94.9725 289.557C97.1759 302.859 114.616 314.028 126.765 314.028H275.79H630.269C642.418 314.028 649.721 305.282 648.139 294.8L614.885 133.369C615.742 124.374 596.858 111.121 594.876 111.121M160.088 319.594H129.324C113.657 319.594 93.282 307.15 88.7118 288.699L51.413 129.843C48.5322 116.205 52.7162 105.049 68.3824 105.049L592.664 105.049C608.33 105.049 623.441 121.354 621.346 135.514L655.086 294.8C656.761 308.792 648.493 319.594 632.827 319.594H598.881" stroke="url(#paint1_linear_7357_48091)" stroke-width="2"/>
<path d="M160.516 317.008H598.119L601.239 333.655H163.636L160.516 317.008Z" stroke="url(#paint2_linear_7357_48091)" stroke-width="2"/>
<path d="M176.325 611.407H729.477C743.114 611.407 758.164 600.737 756.387 587.905L764.214 508.233M176.325 611.407C157.931 611.407 148.148 599.656 145.149 585.786M176.325 611.407V527.035M145.149 585.786L101.409 428.717C101.104 427.255 100.951 425.816 100.938 424.408V354.684M145.149 585.786V505.1M728.612 521.551L667.639 416.182C656.29 399.338 652.008 399.338 636.331 399.338H513.664" stroke="white" stroke-width="2"/>
<path d="M531.141 416.646H533.56L540.304 427.869H537.884L531.141 416.646Z" fill="#0E0C14"/>
<path d="M538.11 419.492H540.283L541.195 420.899C541.126 419.776 542.23 419.302 543.843 419.302C546.509 419.302 548.683 420.646 549.785 422.479L553.023 427.869H550.649L547.723 423.001C546.831 421.515 545.697 420.709 544.039 420.709C542.314 420.709 541.7 421.515 542.593 423.001L545.518 427.869H543.144L538.11 419.492Z" fill="#0E0C14"/>
<path d="M560.069 422.432C559.186 421.373 557.651 420.756 556.307 420.756C554.29 420.756 553.758 421.847 554.86 423.68C555.962 425.514 557.804 426.605 559.821 426.605C561.232 426.605 562.008 425.957 561.551 424.787L564.095 424.882C564.914 426.842 563.428 428.059 560.694 428.059C557.244 428.059 553.991 426.336 552.396 423.68C550.8 421.025 551.983 419.302 555.433 419.302C558.076 419.302 561.032 420.456 562.476 422.337L560.069 422.432Z" fill="#0E0C14"/>
<path d="M572.983 428.059C569.555 428.059 566.289 426.352 564.684 423.68C563.079 421.009 564.293 419.302 567.721 419.302C571.126 419.302 574.392 421.009 575.998 423.68C577.603 426.352 576.388 428.059 572.983 428.059ZM567.148 423.68C568.25 425.514 570.093 426.605 572.109 426.605C574.125 426.605 574.635 425.514 573.533 423.68C572.431 421.847 570.611 420.756 568.595 420.756C566.579 420.756 566.046 421.847 567.148 423.68Z" fill="#0E0C14"/>
<path d="M575.544 419.492H577.717L578.588 420.867C578.572 419.871 579.44 419.302 581.03 419.302C582.733 419.302 584.345 419.934 585.525 421.041C585.389 419.918 586.25 419.302 588.043 419.302C590.44 419.302 592.558 420.44 593.783 422.479L597.021 427.869H594.647L591.721 423.001C590.829 421.515 589.605 420.709 588.261 420.709C586.558 420.709 586.121 421.547 586.994 423.001L589.92 427.869H587.679L584.754 423.001C583.88 421.547 582.615 420.709 581.293 420.709C579.613 420.709 579.153 421.547 580.027 423.001L582.952 427.869H580.577L575.544 419.492Z" fill="#0E0C14"/>
<path d="M600.941 430.24L594.483 419.492H596.701L597.518 420.74C597.608 419.808 598.558 419.302 600.261 419.302C603.734 419.302 606.585 421.325 608 423.68C609.415 426.036 608.995 428.059 605.523 428.059C603.91 428.059 602.393 427.585 601.189 426.7L603.316 430.24H600.941ZM599.173 423.68C600.075 425.182 601.903 426.621 604.098 426.621C606.339 426.621 606.434 425.214 605.513 423.68C604.601 422.163 602.783 420.74 600.565 420.74C598.37 420.74 598.271 422.179 599.173 423.68Z" fill="#0E0C14"/>
<path d="M608.861 422.005C608.315 420.314 609.589 419.302 612.322 419.302C615.548 419.302 618.078 420.567 619.455 422.859L621.326 425.972C621.582 426.399 621.946 426.557 622.417 426.557H622.887L623.675 427.869H622.936C621.87 427.885 620.338 427.759 619.514 426.573C619.46 427.379 618.547 428.059 616.576 428.059C614.178 428.059 611.755 427.158 610.862 425.672C609.856 423.997 611.331 423.507 613.846 423.143L616.966 422.669C616.136 421.325 614.864 420.661 613.139 420.661C611.75 420.661 611.135 421.167 611.391 422.116L608.861 422.005ZM613.308 425.641C613.678 426.257 614.744 426.763 616.312 426.763C618.072 426.747 618.93 425.862 617.847 424.06L617.78 423.949L615.439 424.265C613.927 424.471 612.671 424.581 613.308 425.641Z" fill="#0E0C14"/>
<path d="M619.656 417.595H622.031L623.17 419.492H626.307L627.124 420.851H623.987L626.76 425.467C627.169 426.146 627.848 426.494 628.767 426.494H630.492L631.318 427.869H629.347C627.061 427.869 625.326 427.032 624.386 425.467L621.612 420.851H619.798L618.981 419.492H620.795L619.656 417.595Z" fill="#0E0C14"/>
<path d="M628.307 419.492H630.682L635.715 427.869H633.341L628.307 419.492ZM627.521 418.259L626.562 416.662H629.049L630.008 418.259H627.521Z" fill="#0E0C14"/>
<path d="M631.228 416.646H633.603L635.987 420.614C636.175 419.808 637.26 419.302 638.805 419.302C641.897 419.302 644.84 420.993 646.455 423.68C648.069 426.368 647.159 428.059 644.067 428.059C642.432 428.059 640.72 427.522 639.535 426.668L640.189 427.869H637.971L631.228 416.646ZM637.65 423.68C638.733 425.482 640.649 426.621 642.598 426.621C644.502 426.621 645.073 425.482 643.99 423.68C642.889 421.847 640.963 420.693 639.036 420.693C637.087 420.693 636.548 421.847 637.65 423.68Z" fill="#0E0C14"/>
<path d="M644.457 416.646H646.832L652.407 425.925C652.635 426.304 653.04 426.494 653.556 426.494H654.519L655.345 427.869H653.867C652.276 427.869 650.764 427.142 650.08 426.004L644.457 416.646Z" fill="#0E0C14"/>
<path d="M653.998 423.68C652.403 421.025 653.585 419.302 657.036 419.302C659.881 419.302 663.085 420.646 664.983 423.617L665.328 424.155H656.793C657.89 425.72 659.583 426.636 661.443 426.636C662.607 426.636 663.388 426.146 663.375 425.34L665.937 425.467C666.202 427.063 664.717 428.059 662.297 428.059C658.847 428.059 655.594 426.336 653.998 423.68ZM656.087 422.906H662.069C660.841 421.309 659.235 420.725 657.89 420.725C656.165 420.725 655.53 421.531 656.087 422.906Z" fill="#0E0C14"/>
<path d="M153.201 423.266C153.626 425.82 152.001 427.474 148.268 427.474C143.636 427.474 139.821 424.821 138.445 421.415C137.069 418.01 138.728 415.324 143.36 415.324C146.845 415.324 149.812 416.88 151.488 419.303L148.964 419.401C147.857 417.829 146.061 416.945 143.992 416.945C140.642 416.945 139.978 418.976 140.964 421.415C141.943 423.839 144.263 425.853 147.591 425.853C149.772 425.853 150.843 424.887 150.576 423.167L153.201 423.266Z" fill="white"/>
<path d="M162.006 427.408C158.565 427.408 155.602 425.64 154.484 422.873C153.366 420.105 154.9 418.337 158.341 418.337C161.758 418.337 164.722 420.105 165.84 422.873C166.958 425.64 165.424 427.408 162.006 427.408ZM156.958 422.873C157.725 424.772 159.373 425.902 161.397 425.902C163.421 425.902 164.134 424.772 163.366 422.873C162.599 420.973 160.973 419.843 158.949 419.843C156.926 419.843 156.19 420.973 156.958 422.873Z" fill="white"/>
<path d="M166.157 418.534H168.338L168.994 419.991C169.132 418.828 170.327 418.337 171.946 418.337C174.622 418.337 176.556 419.729 177.323 421.628L179.579 427.212H177.196L175.158 422.169C174.536 420.629 173.547 419.794 171.883 419.794C170.152 419.794 169.387 420.629 170.009 422.169L172.047 427.212H169.663L166.157 418.534Z" fill="white"/>
<path d="M178.933 416.569H181.317L182.111 418.534H185.259L185.828 419.942H182.68L184.611 424.723C184.896 425.427 185.514 425.787 186.436 425.787H188.167L188.743 427.212H186.764C184.47 427.212 182.883 426.344 182.228 424.723L180.296 419.942H178.475L177.906 418.534H179.727L178.933 416.569Z" fill="white"/>
<path d="M187.823 421.137C187.588 419.385 189.053 418.337 191.796 418.337C195.034 418.337 197.34 419.647 198.299 422.021L199.602 425.247C199.781 425.689 200.117 425.853 200.589 425.853H201.061L201.61 427.212H200.868C199.796 427.228 198.281 427.097 197.673 425.869C197.47 426.704 196.428 427.408 194.449 427.408C192.044 427.408 189.778 426.475 189.156 424.936C188.455 423.2 190.026 422.693 192.617 422.316L195.836 421.825C195.251 420.433 194.097 419.745 192.365 419.745C190.971 419.745 190.261 420.269 190.343 421.252L187.823 421.137ZM191.616 424.903C191.874 425.542 192.85 426.066 194.424 426.066C196.194 426.049 197.217 425.132 196.463 423.266L196.417 423.151L194.008 423.479C192.453 423.691 191.173 423.806 191.616 424.903Z" fill="white"/>
<path d="M199.907 418.534H202.088L202.708 419.958C202.876 418.927 203.852 418.337 205.449 418.337C207.158 418.337 208.659 418.992 209.639 420.138C209.709 418.976 210.688 418.337 212.487 418.337C214.893 418.337 216.808 419.516 217.661 421.628L219.917 427.212H217.534L215.496 422.169C214.874 420.629 213.795 419.794 212.446 419.794C210.737 419.794 210.143 420.662 210.752 422.169L212.789 427.212H210.541L208.503 422.169C207.895 420.662 206.78 419.794 205.453 419.794C203.767 419.794 203.15 420.662 203.759 422.169L205.797 427.212H203.413L199.907 418.534Z" fill="white"/>
<path d="M219.333 418.534H221.716L225.222 427.212H222.839L219.333 418.534ZM218.772 417.256L218.103 415.603H220.599L221.268 417.256H218.772Z" fill="white"/>
<path d="M224.332 418.534H226.513L227.169 419.991C227.307 418.828 228.502 418.337 230.121 418.337C232.797 418.337 234.731 419.729 235.498 421.628L237.754 427.212H235.371L233.333 422.169C232.711 420.629 231.722 419.794 230.058 419.794C228.326 419.794 227.562 420.629 228.184 422.169L230.222 427.212H227.838L224.332 418.534Z" fill="white"/>
<path d="M237.464 421.137C237.228 419.385 238.694 418.337 241.437 418.337C244.675 418.337 246.98 419.647 247.939 422.021L249.243 425.247C249.421 425.689 249.757 425.853 250.23 425.853H250.702L251.251 427.212H250.509C249.436 427.228 247.922 427.097 247.313 425.869C247.111 426.704 246.069 427.408 244.09 427.408C241.684 427.408 239.418 426.475 238.796 424.936C238.095 423.2 239.666 422.693 242.257 422.316L245.477 421.825C244.892 420.433 243.737 419.745 242.006 419.745C240.612 419.745 239.901 420.269 239.984 421.252L237.464 421.137ZM241.256 424.903C241.514 425.542 242.491 426.066 244.065 426.066C245.834 426.049 246.858 425.132 246.104 423.266L246.057 423.151L243.649 423.479C242.094 423.691 240.813 423.806 241.256 424.903Z" fill="white"/>
<path d="M249.112 416.569H251.496L252.29 418.534H255.438L256.007 419.942H252.859L254.79 424.723C255.075 425.427 255.693 425.787 256.614 425.787H258.346L258.921 427.212H256.943C254.649 427.212 253.062 426.344 252.407 424.723L250.475 419.942H248.654L248.085 418.534H249.906L249.112 416.569Z" fill="white"/>
<path d="M258.194 422.873C257.082 420.122 258.587 418.337 262.05 418.337C264.906 418.337 267.874 419.729 269.23 422.807L269.477 423.364H260.91C261.723 424.985 263.253 425.935 265.12 425.935C266.289 425.935 267.163 425.427 267.298 424.592L269.847 424.723C269.818 426.377 268.143 427.408 265.715 427.408C262.252 427.408 259.305 425.624 258.194 422.873ZM260.433 422.07H266.436C265.498 420.417 263.994 419.811 262.645 419.811C260.914 419.811 260.127 420.646 260.433 422.07Z" fill="white"/>
<path d="M278.909 415.586L283.606 427.212H281.38L280.81 425.967C280.493 426.852 279.324 427.408 277.682 427.408C274.579 427.408 271.938 425.656 270.813 422.873C269.688 420.089 270.914 418.337 274.017 418.337C275.569 418.337 277.174 418.861 278.186 419.696L276.526 415.586H278.909ZM273.286 422.873C274.04 424.739 275.776 425.918 277.687 425.918C279.643 425.918 280.404 424.739 279.65 422.873C278.882 420.973 277.163 419.778 275.206 419.778C273.273 419.778 272.519 420.973 273.286 422.873Z" fill="white"/>
<path d="M367.385 428.347L361.164 416.646H366.738C370.677 416.646 373.207 417.701 374.373 419.893C375.083 421.228 374.459 422.118 372.698 422.299C375.099 422.48 376.955 423.485 377.778 425.034C378.917 427.177 377.525 428.347 373.854 428.347H367.385ZM368.953 426.748H373.026C375.019 426.748 375.872 426.122 375.259 424.968C374.636 423.798 373.108 423.156 371.116 423.156H367.043L368.953 426.748ZM366.236 421.64H369.482C371.608 421.64 372.502 421.046 371.923 419.959C371.319 418.822 369.871 418.245 367.677 418.245H364.431L366.236 421.64Z" fill="white"/>
<path d="M377.395 419.613H379.567L380.51 421.261C380.339 420.14 380.954 419.613 382.476 419.613H383.618L384.38 421.046H383.216C381.359 421.046 380.933 421.804 381.704 423.255L384.412 428.347H382.039L377.395 419.613Z" fill="white"/>
<path d="M394.822 428.544C391.398 428.544 388.213 426.765 386.732 423.98C385.252 421.195 386.544 419.415 389.968 419.415C393.37 419.415 396.555 421.195 398.036 423.98C399.517 426.765 398.225 428.544 394.822 428.544ZM389.195 423.98C390.211 425.891 392.002 427.028 394.016 427.028C396.031 427.028 396.59 425.891 395.574 423.98C394.557 422.068 392.789 420.931 390.774 420.931C388.76 420.931 388.178 422.068 389.195 423.98Z" fill="white"/>
<path d="M396.198 416.646H398.57L402.443 423.93L405.408 419.613H408.474L405.764 423.271L413.32 428.347H410.567L404.762 424.375L403.565 426.04L404.792 428.347H402.419L396.198 416.646Z" fill="white"/>
<path d="M411.309 423.98C409.837 421.211 411.098 419.415 414.545 419.415C417.387 419.415 420.527 420.816 422.286 423.914L422.607 424.474H414.079C415.103 426.106 416.753 427.061 418.61 427.061C419.774 427.061 420.577 426.55 420.6 425.71L423.155 425.842C423.346 427.506 421.816 428.544 419.399 428.544C415.952 428.544 412.781 426.748 411.309 423.98ZM413.431 423.172H419.408C418.254 421.508 416.676 420.898 415.333 420.898C413.61 420.898 412.937 421.739 413.431 423.172Z" fill="white"/>
<path d="M422.089 419.613H424.26L425.107 421.079C425.09 419.909 426.215 419.415 427.826 419.415C430.49 419.415 432.6 420.816 433.616 422.727L436.604 428.347H434.232L431.533 423.271C430.709 421.722 429.613 420.882 427.957 420.882C426.233 420.882 425.583 421.722 426.407 423.271L429.106 428.347H426.733L422.089 419.613Z" fill="white"/>
</g>
<mask id="mask1_7357_48091" style="mask-type:alpha" maskUnits="userSpaceOnUse" x="239" y="0" width="782" height="269">
<rect x="239.195" width="781.562" height="268.99" fill="url(#paint3_linear_7357_48091)"/>
</mask>
<g mask="url(#mask1_7357_48091)">
<path d="M320.231 38.9844C289.08 53.5117 326.676 117.001 347.622 143.366C366.4 167.001 388.687 169.42 402.391 169.42C412.352 169.42 483.133 169.29 520.721 169.407C523.172 169.415 525.564 168.691 527.6 167.328C529.624 165.973 532.004 165.249 534.439 165.249H654.865" stroke="url(#paint4_linear_7357_48091)"/>
<path d="M332.027 96.5955C369.083 165.218 397.314 160.884 408.111 160.884H937.145C945.865 160.884 948.143 156.911 941.487 148.243C934.83 139.575 904.472 108.514 888.879 93.7061C873.285 78.8981 867.047 72.397 847.924 57.2278C828.8 42.0587 813.225 40.2525 797.861 40.2525C782.496 40.2525 343.364 39.8911 334.852 40.2523C326.34 40.6134 299.731 36.7864 332.027 96.5955Z" stroke="white"/>
<path d="M490.391 216.003C502.849 216.003 522.781 205.16 537.73 205.16C665.487 205.16 793.247 203.492 921.009 203.492C931.806 203.492 936.84 199.676 941.637 194.481C945.945 189.817 953.814 170.545 952.153 156.366C950.492 142.186 874.104 74.676 855.167 56.2026C832.609 34.1977 794.182 34.1977 789.615 34.1977C785.047 34.1977 754.407 34.6148 714.543 34.1977C674.679 33.7807 357.426 35.8662 339.985 35.8661C322.94 35.8661 311.333 40.8706 305.933 51.2965C302.581 57.7687 290.493 82.567 308.954 132.606C318.353 158.08 326.142 178.878 346.013 200.938C359.584 216.003 376.197 216.003 393.222 216.003H490.391Z" stroke="white" stroke-width="2"/>
<path d="M347.671 51.2682C345.808 47.9493 347.389 45.2812 351.22 45.2812H790.071C792.958 45.2812 796.434 46.8169 798.824 49.1483L902.371 150.162C905.864 153.57 905.081 157.244 900.861 157.244H413.252C409.908 157.244 405.844 154.876 404.218 151.979L347.671 51.2682Z" fill="#1C192D"/>
<path d="M347.671 51.2682C345.808 47.9493 347.389 45.2812 351.22 45.2812H790.071C792.958 45.2812 796.434 46.8169 798.824 49.1483L902.371 150.162C905.864 153.57 905.081 157.244 900.861 157.244H413.252C409.908 157.244 405.844 154.876 404.218 151.979L347.671 51.2682Z" stroke="white" stroke-width="2"/>
<path d="M389.191 185.362H407.954C409.059 185.362 409.954 186.258 409.954 187.362V195.04C409.954 196.144 409.059 197.04 407.954 197.04H389.191M389.191 185.362V197.04M389.191 185.362C380.886 185.362 362.615 186.614 355.141 176.188M389.191 197.04C382.132 197.318 361.785 197.874 357.632 188.699" stroke="url(#paint5_linear_7357_48091)"/>
<rect x="431.828" y="187.297" width="56.4745" height="10.8432" rx="5.42158" stroke="white" stroke-width="2"/>
<rect x="551.055" y="181.918" width="56.4745" height="10.8432" rx="5.42158" stroke="white" stroke-width="2"/>
<path d="M488.711 192.719V190.216C488.711 187.222 486.294 184.795 483.313 184.795H436.805C433.823 184.795 431.406 187.222 431.406 190.216V192.302" stroke="white"/>
<path d="M607.946 187.338V184.836C607.946 181.841 605.529 179.414 602.547 179.414H556.039C553.058 179.414 550.641 181.841 550.641 184.836V186.921" stroke="white"/>
<ellipse cx="6.64406" cy="3.75171" rx="6.64406" ry="3.75171" transform="matrix(1 0 0.499325 0.866414 372.328 133.143)" stroke="white" stroke-width="2"/>
<ellipse cx="2.90678" cy="1.66743" rx="2.90678" ry="1.66743" transform="matrix(1 0 0.499325 0.866414 342.25 70.9453)" stroke="white" stroke-width="2"/>
<ellipse cx="2.90678" cy="1.66743" rx="2.90678" ry="1.66743" transform="matrix(1 0 0.499325 0.866414 336.883 63.1953)" stroke="white" stroke-width="2"/>
<path d="M336.137 84.2197C335.818 83.628 336.107 83.1582 336.791 83.1582C337.49 83.1582 338.339 83.6492 338.688 84.2549L350.145 104.135C350.596 104.917 350.23 105.551 349.327 105.551C348.404 105.551 347.283 104.889 346.851 104.089L336.137 84.2197Z" fill="white"/>
<rect width="6.64406" height="27.5126" rx="3.32203" transform="matrix(1 0 0.499325 0.866414 348.023 81.4902)" stroke="white" stroke-width="2"/>
<path d="M307.839 92.328C308.057 91.1498 308.2 89.7759 308.502 88.8179C309.135 86.8118 310.364 86.9145 311.462 89.3851C318.187 104.829 321.726 112.122 331.789 130.559C333.143 133.604 333.675 138.847 332.919 141.687L328.519 163.864C327.818 166.498 326.359 166.356 325.104 163.53C318.34 147.775 313.447 134.695 307.721 118.658C307.203 117.206 306.626 115.914 306.175 114.276C305.653 112.377 305.334 110.149 305.289 108.083C305.25 106.319 305.504 104.942 305.749 103.617L307.839 92.328Z" stroke="white" stroke-width="2" stroke-linecap="round"/>
<path d="M310.703 98.9973C310.922 97.751 311.517 97.6779 312.031 98.834L327.897 134.27C328.411 135.426 328.65 137.374 328.43 138.62L325.966 151.899C325.746 153.145 325.152 153.218 324.638 152.062L309.846 113.398C309.332 112.241 309.094 110.294 309.313 109.048L310.703 98.9973Z" stroke="white" stroke-width="2" stroke-linecap="round"/>
<path d="M329.641 133.624L311.6 93.0298C310.974 91.6227 310.276 91.5323 309.9 92.6184C309.698 93.2028 309.606 94.0853 309.461 94.8277L307.316 105.874C307.141 106.776 306.959 107.721 306.999 108.948C307.058 110.758 307.442 112.737 308.036 114.073L324.067 157.678C324.858 159.458 325.776 159.546 326.218 157.886L330.301 140.114M329.641 133.624C330.431 135.4 330.741 138.457 330.301 140.114M329.641 133.624L328.306 135.536M330.301 140.114L328.845 139.112M325.6 152.512L326.026 158.236M324.526 152.512L324.081 157.481M308.951 109.468L307.074 108.217M309.488 112.696L308.013 113.952M320.119 130.394C319.757 132.451 318.777 132.571 317.929 130.664C317.081 128.756 316.687 125.543 317.049 123.486C317.411 121.43 318.392 121.309 319.24 123.217C320.087 125.125 320.481 128.338 320.119 130.394ZM325.076 142.755C324.648 145.185 323.489 145.328 322.488 143.073C321.486 140.819 321.02 137.021 321.448 134.591C321.876 132.161 323.035 132.018 324.037 134.273C325.038 136.527 325.504 140.325 325.076 142.755ZM315.837 116.951C315.366 119.631 314.088 119.788 312.983 117.302C311.878 114.817 311.365 110.63 311.837 107.95C312.308 105.271 313.586 105.113 314.691 107.599C315.796 110.085 316.309 114.272 315.837 116.951Z" stroke="white"/>
<path d="M310.563 99.4208L309.49 94.404M312.347 99.4208L312.347 94.404" stroke="white"/>
<path d="M368.473 56.2733L611.08 56.7128L632.499 56.0569C636.436 55.9363 639.5 59.4457 638.85 63.3306L625.423 143.574C624.93 146.524 622.415 148.71 619.425 148.787L607.419 149.099L422.823 147.423C419.246 147.391 415.944 145.496 414.112 142.423L365.675 61.1877C364.382 59.0191 365.948 56.2687 368.473 56.2733Z" fill="url(#paint6_linear_7357_48091)" fill-opacity="0.1" stroke="url(#paint7_linear_7357_48091)" stroke-opacity="0.2" stroke-width="1.53713"/>
</g>
<g filter="url(#filter0_d_7357_48091)">
<path fill-rule="evenodd" clip-rule="evenodd" d="M665.937 123.783C664.574 121.246 660.828 113.769 657.092 107.844C653.366 101.926 649.737 97.9703 644.142 93.7854C641.738 91.9882 635.723 88.5003 632.876 87.2482C628.995 85.5583 623.198 83.4996 618.891 82.3085C615.88 81.4671 610.855 80.2994 608.471 79.8731C601.52 78.6529 592.361 77.8082 587.116 77.8869C567.032 78.2315 546.579 84.9118 532.776 104.406C531.824 105.738 531.39 106.078 531.282 105.526C531.241 105.278 532.408 102.948 534.038 100.882C550.374 80.1865 572.765 74.8751 592.603 75.9848C606 76.7341 617.282 79.0754 629.08 83.5756C634.461 85.6344 637.171 86.9344 641.781 89.6865C646.283 92.3771 649.167 94.1651 653.249 97.9883C657.901 102.334 661.524 106.539 664.81 111.173C668.096 115.807 669.476 118.056 670.996 121.491C672.515 124.926 667.3 126.32 665.937 123.783Z" fill="url(#paint8_linear_7357_48091)" fill-opacity="0.8"/>
<path d="M592.641 75.7659C606.061 76.5166 617.367 78.8634 629.187 83.372L631.092 84.1144C635.288 85.784 637.877 87.0846 641.92 89.4984L643.541 90.4716C647.17 92.6719 649.837 94.4674 653.422 97.8251C658.084 102.18 661.715 106.395 665.009 111.04C668.298 115.678 669.687 117.938 671.213 121.39C671.611 122.29 671.58 123.088 671.246 123.733C670.914 124.376 670.302 124.832 669.611 125.08C668.241 125.571 666.466 125.275 665.726 123.897C664.359 121.353 660.619 113.887 656.888 107.969C653.406 102.439 650.012 98.6322 645.008 94.7417L643.986 93.962C641.594 92.1742 635.592 88.6938 632.759 87.4479L632.759 87.4469C628.888 85.7613 623.101 83.7071 618.805 82.519L618.804 82.5187C616.174 81.7838 612.003 80.7991 609.411 80.2799L608.406 80.0882C601.898 78.946 593.456 78.1337 588.12 78.1013L587.096 78.1061C567.065 78.4498 546.707 85.1084 532.967 104.514L532.966 104.514C532.726 104.85 532.516 105.127 532.334 105.345C532.154 105.559 531.993 105.728 531.848 105.837C531.718 105.936 531.521 106.046 531.325 105.977C531.231 105.943 531.17 105.878 531.13 105.811C531.092 105.745 531.068 105.667 531.052 105.586L531.051 105.581C531.042 105.527 531.052 105.471 531.059 105.434C531.069 105.391 531.082 105.343 531.1 105.293C531.134 105.192 531.186 105.065 531.252 104.919C531.385 104.626 531.581 104.24 531.829 103.8C532.324 102.92 533.031 101.809 533.856 100.764C550.261 79.9809 572.75 74.6533 592.641 75.7659Z" stroke="black" stroke-opacity="0.13" stroke-width="0.452742"/>
<ellipse cx="1.68232" cy="2.01579" rx="1.68232" ry="2.01579" transform="matrix(0.213705 0.920165 -0.968117 0.426912 670.414 120.721)" fill="#616161"/>
<path d="M668.488 122.252C669.443 121.539 670.421 122.292 670.836 122.981C672.94 126.778 673.99 129.904 675.822 135.73C676.113 136.657 675.513 137.792 674.483 138.33C673.453 138.868 672.41 138.694 672.091 137.678C670.222 131.738 669.476 128.247 667.572 124.812C667.072 123.91 667.532 122.964 668.488 122.252Z" fill="#B4B4B4"/>
<ellipse cx="1.48387" cy="1.77801" rx="1.48387" ry="1.77801" transform="matrix(0.213705 0.920165 -0.968117 0.426912 675.336 134.639)" fill="url(#paint9_linear_7357_48091)"/>
<path d="M673.099 134.451C673.883 135.594 674.085 137.495 673.787 137.601C673.49 137.707 673.915 137.234 672.712 134.868L673.099 134.451Z" fill="url(#paint10_linear_7357_48091)"/>
<path d="M671.936 134.512C672.866 135.517 673.291 137.333 673.001 137.475C672.712 137.618 673.088 137.102 671.592 134.967L671.936 134.512Z" fill="url(#paint11_linear_7357_48091)"/>
<path d="M672.654 135.056C673.455 136.185 673.681 138.077 673.384 138.188C673.087 138.298 673.507 137.82 672.272 135.477L672.654 135.056Z" fill="url(#paint12_linear_7357_48091)"/>
<path d="M673.573 132.249C674.886 133.751 675.443 136.42 675.019 136.617C674.595 136.815 675.157 136.075 673.059 132.902L673.573 132.249Z" fill="url(#paint13_linear_7357_48091)"/>
<path d="M672.815 132.697C674.34 134.441 674.988 137.541 674.495 137.77C674.003 138 674.656 137.141 672.219 133.455L672.815 132.697Z" fill="url(#paint14_linear_7357_48091)"/>
<path d="M672.354 133.955C673.282 135.017 673.676 136.903 673.377 137.042C673.077 137.182 673.474 136.659 671.991 134.417L672.354 133.955Z" fill="url(#paint15_linear_7357_48091)"/>
<path opacity="0.5" d="M672.06 136.346C671.833 134.455 668.663 125.113 668.018 124.418C667.373 123.723 668.897 122.51 669.262 122.996C669.87 123.805 672.569 129.474 673.835 135.054C672.551 135.422 672.134 136.963 672.06 136.346Z" fill="black" fill-opacity="0.4"/>
<path d="M671.92 135.859C671.825 134.302 668.396 124.921 668.013 124.559C667.63 124.196 668.075 123.486 668.381 124.023C668.687 124.559 671.237 129.766 672.502 135.346C672.632 135.92 671.958 136.485 671.92 135.859Z" fill="black" fill-opacity="0.5"/>
<path opacity="0.5" d="M674.474 134.027C673.699 130.283 670.684 123.546 670.291 123.195C669.898 122.843 670.443 122.851 670.762 123.377C671.081 123.903 673.65 128.634 675.044 134.156C675.188 134.724 674.597 134.625 674.474 134.027Z" fill="black" fill-opacity="0.4"/>
<path d="M639.797 89.25C640.39 89.5619 640.978 89.8898 641.556 90.2279C651.924 96.4559 661.782 107.25 668.146 117.939C668.484 118.528 668.833 119.165 669.147 119.774C669.222 119.922 669.233 120.106 669.174 120.288C669.116 120.469 668.994 120.634 668.835 120.744C668.677 120.853 668.495 120.898 668.333 120.869C668.17 120.84 668.039 120.739 667.968 120.589C667.683 119.984 667.361 119.346 667.048 118.753C661.113 107.953 651.622 96.8718 641.516 90.2893C640.952 89.931 640.377 89.5829 639.797 89.25Z" fill="white"/>
<path d="M649.422 97.5957C649.761 97.9115 650.096 98.2342 650.424 98.5591C656.306 104.471 662.674 113.694 666.472 121.376C666.642 121.763 666.231 122.438 666.385 122.828C666.422 122.923 666.418 123.018 666.373 123.094C666.327 123.169 666.244 123.219 666.143 123.232C666.041 123.244 665.93 123.218 665.834 123.16C665.738 123.102 665.665 123.016 665.63 122.921C665.493 122.541 665.335 122.134 665.181 121.752C662.224 114.731 656.101 104.599 650.397 98.5793C650.078 98.2479 649.752 97.9187 649.422 97.5957Z" fill="black" fill-opacity="0.4"/>
<path d="M567.187 79.0254C561.894 80.5394 556.728 83.4014 551.711 86.1365C551.45 86.2799 551.191 86.4253 550.936 86.5722C545.531 90.1649 539.803 94.8772 535.675 99.329C535.259 99.8871 534.851 100.471 534.493 101.063C534.815 100.452 535.193 99.8454 535.581 99.2633C540.029 94.3485 544.831 89.9657 550.715 85.9753C550.975 85.8255 551.238 85.6767 551.505 85.5314C556.569 82.7872 561.845 80.0711 567.181 78.8978C568.639 78.5967 568.721 78.6069 567.187 79.0254Z" fill="white"/>
</g>
<g filter="url(#filter1_d_7357_48091)">
<path fill-rule="evenodd" clip-rule="evenodd" d="M688.076 489.077C686.977 487.033 683.958 481.007 680.947 476.231C677.945 471.462 675.019 468.274 670.51 464.901C668.573 463.453 663.725 460.642 661.43 459.633C658.303 458.271 653.63 456.612 650.16 455.652C647.733 454.973 643.683 454.032 641.762 453.689C636.16 452.705 628.778 452.025 624.551 452.088C608.365 452.366 591.881 457.75 580.757 473.461C579.989 474.535 579.64 474.809 579.552 474.363C579.52 474.163 580.46 472.285 581.774 470.621C594.939 453.941 612.985 449.661 628.974 450.555C639.77 451.159 648.863 453.046 658.371 456.673C662.708 458.332 664.892 459.38 668.607 461.598C672.236 463.766 674.56 465.207 677.85 468.288C681.599 471.791 684.519 475.18 687.167 478.915C689.816 482.65 690.928 484.462 692.153 487.23C693.377 489.999 689.174 491.122 688.076 489.077Z" fill="url(#paint16_linear_7357_48091)" fill-opacity="0.8"/>
<path d="M629.012 450.337C639.831 450.942 648.947 452.834 658.477 456.469L658.478 456.469C662.826 458.132 665.021 459.186 668.747 461.41C672.379 463.581 674.718 465.03 678.023 468.126L678.023 468.125C681.781 471.637 684.71 475.035 687.366 478.781C690.018 482.52 691.137 484.344 692.369 487.129C692.694 487.863 692.671 488.519 692.395 489.053C692.121 489.584 691.615 489.959 691.049 490.162C689.928 490.564 688.473 490.323 687.865 489.192C686.762 487.14 683.75 481.124 680.743 476.356L680.742 476.356C677.752 471.606 674.842 468.436 670.353 465.078C668.549 463.729 664.187 461.18 661.77 460.041L661.314 459.833C658.391 458.56 654.11 457.025 650.735 456.05L650.073 455.862C647.651 455.185 643.609 454.245 641.696 453.903L641.697 453.904C636.105 452.922 628.739 452.243 624.53 452.306C608.398 452.583 592.009 457.946 580.948 473.568L580.947 473.569C580.753 473.84 580.583 474.064 580.435 474.241C580.29 474.415 580.156 474.554 580.035 474.646C579.928 474.727 579.75 474.831 579.568 474.767C579.48 474.736 579.425 474.675 579.391 474.616C579.357 474.558 579.336 474.492 579.323 474.424L579.322 474.418C579.313 474.367 579.322 474.316 579.329 474.286C579.337 474.249 579.348 474.208 579.362 474.167C579.391 474.084 579.434 473.98 579.487 473.861C579.595 473.623 579.753 473.311 579.953 472.956C580.353 472.245 580.925 471.348 581.591 470.503C594.826 453.736 612.97 449.44 629.012 450.337Z" stroke="black" stroke-opacity="0.13" stroke-width="0.452742"/>
<ellipse cx="1.35584" cy="1.6246" rx="1.35584" ry="1.6246" transform="matrix(0.213706 0.920165 -0.968117 0.426912 691.688 486.609)" fill="#616161"/>
<path d="M690.128 487.843C690.898 487.269 691.686 487.876 692.021 488.431C693.717 491.491 694.563 494.011 696.039 498.706C696.274 499.453 695.79 500.368 694.96 500.802C694.13 501.235 693.29 501.095 693.032 500.276C691.526 495.488 690.925 492.675 689.39 489.907C688.987 489.18 689.358 488.418 690.128 487.843Z" fill="#B4B4B4"/>
<ellipse cx="1.1959" cy="1.43296" rx="1.1959" ry="1.43296" transform="matrix(0.213706 0.920165 -0.968117 0.426912 695.656 497.826)" fill="url(#paint17_linear_7357_48091)"/>
<path d="M693.85 497.676C694.483 498.598 694.645 500.129 694.405 500.215C694.166 500.301 694.508 499.919 693.538 498.012L693.85 497.676Z" fill="url(#paint18_linear_7357_48091)"/>
<path d="M692.913 497.723C693.662 498.533 694.005 499.996 693.771 500.111C693.538 500.226 693.841 499.811 692.635 498.09L692.913 497.723Z" fill="url(#paint19_linear_7357_48091)"/>
<path d="M693.492 498.162C694.137 499.072 694.319 500.598 694.08 500.687C693.841 500.776 694.179 500.39 693.184 498.502L693.492 498.162Z" fill="url(#paint20_linear_7357_48091)"/>
<path d="M694.227 495.902C695.285 497.112 695.735 499.263 695.393 499.422C695.051 499.581 695.504 498.985 693.813 496.428L694.227 495.902Z" fill="url(#paint21_linear_7357_48091)"/>
<path d="M693.616 496.262C694.846 497.668 695.368 500.166 694.971 500.351C694.574 500.535 695.1 499.843 693.136 496.873L693.616 496.262Z" fill="url(#paint22_linear_7357_48091)"/>
<path d="M693.244 497.275C693.992 498.13 694.31 499.65 694.068 499.762C693.827 499.875 694.147 499.454 692.952 497.646L693.244 497.275Z" fill="url(#paint23_linear_7357_48091)"/>
<path opacity="0.5" d="M693.008 499.202C692.825 497.678 690.27 490.149 689.75 489.589C689.231 489.029 690.459 488.051 690.753 488.443C691.243 489.094 693.418 493.664 694.438 498.161C693.404 498.457 693.067 499.699 693.008 499.202Z" fill="black" fill-opacity="0.4"/>
<path d="M692.898 498.81C692.822 497.555 690.059 489.995 689.75 489.703C689.441 489.41 689.799 488.838 690.046 489.271C690.293 489.703 692.348 493.9 693.368 498.397C693.473 498.859 692.929 499.315 692.898 498.81Z" fill="black" fill-opacity="0.5"/>
<path opacity="0.5" d="M694.959 497.335C694.335 494.317 691.905 488.887 691.588 488.604C691.271 488.321 691.711 488.327 691.968 488.751C692.225 489.175 694.296 492.988 695.419 497.438C695.535 497.896 695.059 497.816 694.959 497.335Z" fill="black" fill-opacity="0.4"/>
<path d="M667.008 461.246C667.486 461.497 667.96 461.762 668.425 462.034C676.781 467.054 684.727 475.753 689.855 484.368C690.127 484.842 690.409 485.356 690.662 485.847C690.723 485.965 690.731 486.114 690.684 486.26C690.637 486.407 690.539 486.54 690.411 486.628C690.283 486.716 690.137 486.753 690.006 486.729C689.875 486.706 689.769 486.625 689.712 486.503C689.482 486.016 689.222 485.501 688.97 485.024C684.187 476.319 676.538 467.389 668.393 462.084C667.939 461.795 667.475 461.514 667.008 461.246Z" fill="white"/>
<path d="M674.766 467.973C675.039 468.227 675.309 468.487 675.573 468.749C680.314 473.514 685.446 480.947 688.507 487.138C688.644 487.45 688.313 487.994 688.437 488.308C688.467 488.385 688.463 488.461 688.427 488.522C688.39 488.583 688.324 488.624 688.242 488.634C688.16 488.644 688.07 488.623 687.993 488.576C687.915 488.529 687.856 488.46 687.829 488.383C687.718 488.077 687.591 487.749 687.467 487.441C685.083 481.783 680.148 473.617 675.551 468.765C675.294 468.498 675.032 468.233 674.766 467.973Z" fill="black" fill-opacity="0.4"/>
<path d="M608.489 453.006C604.223 454.226 600.06 456.533 596.017 458.737C595.806 458.853 595.598 458.97 595.392 459.088C591.036 461.984 586.42 465.782 583.093 469.37C582.758 469.819 582.429 470.29 582.14 470.767C582.4 470.275 582.704 469.786 583.017 469.317C586.602 465.356 590.472 461.823 595.214 458.607C595.424 458.487 595.636 458.367 595.85 458.25C599.932 456.038 604.184 453.849 608.485 452.903C609.66 452.661 609.726 452.669 608.489 453.006Z" fill="white"/>
</g>
<mask id="mask2_7357_48091" style="mask-type:alpha" maskUnits="userSpaceOnUse" x="249" y="192" width="579" height="354">
<path d="M371.619 215.107C354.972 212.478 349.277 203.278 340.077 192.764C328.248 195.83 302.488 203.015 294.077 207.221C283.562 212.478 267.791 226.935 253.772 245.773C239.753 264.611 264.724 393.754 267.791 415.659C270.858 437.564 356.724 530.002 371.619 538.764C386.515 547.526 699.239 540.954 740.858 544.459C782.477 547.964 804.819 545.773 824.096 533.068C839.517 522.905 793.137 431.284 768.019 386.745L683.029 204.421C674.532 204.625 609.348 204.81 540.753 204.737C525.73 204.721 505.044 216.693 490.253 216.65C427.503 216.467 377.38 216.016 371.619 215.107Z" fill="#D9D9D9"/>
</mask>
<g mask="url(#mask2_7357_48091)">
<path d="M582.71 522.991H771.579L660.75 343.668L366.25 97.668L576.446 519.116C577.63 521.491 580.056 522.991 582.71 522.991Z" fill="url(#paint24_linear_7357_48091)" stroke="url(#paint25_linear_7357_48091)" stroke-width="2"/>
</g>
<defs>
<filter id="filter0_d_7357_48091" x="522.758" y="63.668" width="167.945" height="83.8242" filterUnits="userSpaceOnUse" color-interpolation-filters="sRGB">
<feFlood flood-opacity="0" result="BackgroundImageFix"/>
<feColorMatrix in="SourceAlpha" type="matrix" values="0 0 0 0 0 0 0 0 0 0 0 0 0 0 0 0 0 0 127 0" result="hardAlpha"/>
<feOffset dx="-4" dy="4"/>
<feGaussianBlur stdDeviation="2"/>
<feComposite in2="hardAlpha" operator="out"/>
<feColorMatrix type="matrix" values="0 0 0 0 0 0 0 0 0 0 0 0 0 0 0 0 0 0 0.25 0"/>
<feBlend mode="normal" in2="BackgroundImageFix" result="effect1_dropShadow_7357_48091"/>
<feBlend mode="normal" in="SourceGraphic" in2="effect1_dropShadow_7357_48091" result="shape"/>
</filter>
<filter id="filter1_d_7357_48091" x="571.086" y="440.629" width="136.953" height="69.1094" filterUnits="userSpaceOnUse" color-interpolation-filters="sRGB">
<feFlood flood-opacity="0" result="BackgroundImageFix"/>
<feColorMatrix in="SourceAlpha" type="matrix" values="0 0 0 0 0 0 0 0 0 0 0 0 0 0 0 0 0 0 127 0" result="hardAlpha"/>
<feOffset dx="-4" dy="4"/>
<feGaussianBlur stdDeviation="2"/>
<feComposite in2="hardAlpha" operator="out"/>
<feColorMatrix type="matrix" values="0 0 0 0 0 0 0 0 0 0 0 0 0 0 0 0 0 0 0.25 0"/>
<feBlend mode="normal" in2="BackgroundImageFix" result="effect1_dropShadow_7357_48091"/>
<feBlend mode="normal" in="SourceGraphic" in2="effect1_dropShadow_7357_48091" result="shape"/>
</filter>
<radialGradient id="paint0_radial_7357_48091" cx="0" cy="0" r="1" gradientUnits="userSpaceOnUse" gradientTransform="translate(414 422.668) rotate(90) scale(325.943 456.174)">
<stop offset="0.44145" stop-color="#D9D9D9"/>
<stop offset="1" stop-color="#D9D9D9" stop-opacity="0"/>
</radialGradient>
<linearGradient id="paint1_linear_7357_48091" x1="372.99" y1="221.247" x2="348.884" y2="347.014" gradientUnits="userSpaceOnUse">
<stop stop-color="white" stop-opacity="0"/>
<stop offset="1" stop-color="white"/>
</linearGradient>
<linearGradient id="paint2_linear_7357_48091" x1="503.106" y1="270.753" x2="500.916" y2="342.162" gradientUnits="userSpaceOnUse">
<stop stop-color="white" stop-opacity="0"/>
<stop offset="1" stop-color="white"/>
</linearGradient>
<linearGradient id="paint3_linear_7357_48091" x1="724.605" y1="-12.7048" x2="650.129" y2="229.562" gradientUnits="userSpaceOnUse">
<stop stop-color="#D9D9D9" stop-opacity="0"/>
<stop offset="1" stop-color="#D9D9D9"/>
</linearGradient>
<linearGradient id="paint4_linear_7357_48091" x1="559.772" y1="124.379" x2="654.865" y2="124.379" gradientUnits="userSpaceOnUse">
<stop stop-color="white"/>
<stop offset="1" stop-color="#999999" stop-opacity="0"/>
</linearGradient>
<linearGradient id="paint5_linear_7357_48091" x1="395.005" y1="187.865" x2="358.462" y2="185.797" gradientUnits="userSpaceOnUse">
<stop stop-color="white"/>
<stop offset="1" stop-color="#999999" stop-opacity="0"/>
</linearGradient>
<linearGradient id="paint6_linear_7357_48091" x1="502.798" y1="95.626" x2="604.877" y2="94.1054" gradientUnits="userSpaceOnUse">
<stop stop-color="#BBA1FF"/>
<stop offset="1" stop-color="#C891FF" stop-opacity="0"/>
</linearGradient>
<linearGradient id="paint7_linear_7357_48091" x1="453.416" y1="101.845" x2="550.771" y2="99.3753" gradientUnits="userSpaceOnUse">
<stop stop-color="#A041FF"/>
<stop offset="1" stop-color="#4FE2CE" stop-opacity="0"/>
</linearGradient>
<linearGradient id="paint8_linear_7357_48091" x1="647.006" y1="137.002" x2="620.261" y2="50.08" gradientUnits="userSpaceOnUse">
<stop stop-color="white"/>
<stop offset="1" stop-color="white" stop-opacity="0.5"/>
</linearGradient>
<linearGradient id="paint9_linear_7357_48091" x1="0.472414" y1="1.68829" x2="3.64417" y2="1.71787" gradientUnits="userSpaceOnUse">
<stop stop-color="#353736"/>
<stop offset="1" stop-color="#A6A6A6"/>
</linearGradient>
<linearGradient id="paint10_linear_7357_48091" x1="673.787" y1="137.373" x2="673.489" y2="136.468" gradientUnits="userSpaceOnUse">
<stop stop-color="#DCDCDC"/>
<stop offset="1" stop-color="#DCDCDC" stop-opacity="0"/>
</linearGradient>
<linearGradient id="paint11_linear_7357_48091" x1="672.974" y1="137.254" x2="672.584" y2="136.408" gradientUnits="userSpaceOnUse">
<stop stop-color="#DCDCDC"/>
<stop offset="1" stop-color="#DCDCDC" stop-opacity="0"/>
</linearGradient>
<linearGradient id="paint12_linear_7357_48091" x1="673.381" y1="137.96" x2="673.072" y2="137.061" gradientUnits="userSpaceOnUse">
<stop stop-color="#DCDCDC"/>
<stop offset="1" stop-color="#DCDCDC" stop-opacity="0"/>
</linearGradient>
<linearGradient id="paint13_linear_7357_48091" x1="674.955" y1="136.122" x2="674.643" y2="135.199" gradientUnits="userSpaceOnUse">
<stop stop-color="#DCDCDC"/>
<stop offset="1" stop-color="#DCDCDC" stop-opacity="0"/>
</linearGradient>
<linearGradient id="paint14_linear_7357_48091" x1="674.306" y1="136.783" x2="673.654" y2="135.403" gradientUnits="userSpaceOnUse">
<stop stop-color="#DCDCDC"/>
<stop offset="1" stop-color="#DCDCDC" stop-opacity="0"/>
</linearGradient>
<linearGradient id="paint15_linear_7357_48091" x1="673.269" y1="136.495" x2="672.895" y2="135.897" gradientUnits="userSpaceOnUse">
<stop stop-color="#DCDCDC"/>
<stop offset="1" stop-color="#DCDCDC" stop-opacity="0"/>
</linearGradient>
<linearGradient id="paint16_linear_7357_48091" x1="672.819" y1="499.731" x2="651.264" y2="429.678" gradientUnits="userSpaceOnUse">
<stop stop-color="white"/>
<stop offset="1" stop-color="white" stop-opacity="0.5"/>
</linearGradient>
<linearGradient id="paint17_linear_7357_48091" x1="0.380736" y1="1.36065" x2="2.93696" y2="1.38449" gradientUnits="userSpaceOnUse">
<stop stop-color="#353736"/>
<stop offset="1" stop-color="#A6A6A6"/>
</linearGradient>
<linearGradient id="paint18_linear_7357_48091" x1="694.405" y1="500.031" x2="694.165" y2="499.302" gradientUnits="userSpaceOnUse">
<stop stop-color="#DCDCDC"/>
<stop offset="1" stop-color="#DCDCDC" stop-opacity="0"/>
</linearGradient>
<linearGradient id="paint19_linear_7357_48091" x1="693.749" y1="499.933" x2="693.434" y2="499.251" gradientUnits="userSpaceOnUse">
<stop stop-color="#DCDCDC"/>
<stop offset="1" stop-color="#DCDCDC" stop-opacity="0"/>
</linearGradient>
<linearGradient id="paint20_linear_7357_48091" x1="694.077" y1="500.503" x2="693.828" y2="499.779" gradientUnits="userSpaceOnUse">
<stop stop-color="#DCDCDC"/>
<stop offset="1" stop-color="#DCDCDC" stop-opacity="0"/>
</linearGradient>
<linearGradient id="paint21_linear_7357_48091" x1="695.341" y1="499.023" x2="695.089" y2="498.279" gradientUnits="userSpaceOnUse">
<stop stop-color="#DCDCDC"/>
<stop offset="1" stop-color="#DCDCDC" stop-opacity="0"/>
</linearGradient>
<linearGradient id="paint22_linear_7357_48091" x1="694.818" y1="499.555" x2="694.293" y2="498.443" gradientUnits="userSpaceOnUse">
<stop stop-color="#DCDCDC"/>
<stop offset="1" stop-color="#DCDCDC" stop-opacity="0"/>
</linearGradient>
<linearGradient id="paint23_linear_7357_48091" x1="693.981" y1="499.321" x2="693.68" y2="498.84" gradientUnits="userSpaceOnUse">
<stop stop-color="#DCDCDC"/>
<stop offset="1" stop-color="#DCDCDC" stop-opacity="0"/>
</linearGradient>
<linearGradient id="paint24_linear_7357_48091" x1="383.25" y1="263.168" x2="623.336" y2="539.092" gradientUnits="userSpaceOnUse">
<stop stop-color="#1DA593"/>
<stop offset="1" stop-color="#1DA593" stop-opacity="0"/>
</linearGradient>
<linearGradient id="paint25_linear_7357_48091" x1="456.963" y1="384.991" x2="669.225" y2="453.671" gradientUnits="userSpaceOnUse">
<stop stop-color="#4FE2CE"/>
<stop offset="1" stop-color="#4FE2CE" stop-opacity="0"/>
</linearGradient>
</defs>
</svg>
