<svg viewBox="0 0 26 42" fill="none" xmlns="http://www.w3.org/2000/svg">
<path d="M14.5104 7.51041L21.9896 14.9896C24.3043 17.3043 25.4616 18.4616 25.7908 19.8328C25.975 20.6 25.975 21.4 25.7908 22.1672C25.4616 23.5384 24.3043 24.6957 21.9896 27.0104L14.5104 34.4896C9.49618 39.5038 6.98906 42.0109 4.8037 41.9251C3.6141 41.8783 2.48022 41.4087 1.606 40.6005C-1.08445e-07 39.116 4.65383e-08 35.5704 3.56504e-07 28.4792L1.01036e-06 13.5208C1.32032e-06 6.42962 1.4753e-06 2.88402 1.606 1.39945C2.48022 0.591332 3.6141 0.121662 4.8037 0.074922C6.98906 -0.0109405 9.49618 2.49617 14.5104 7.51041Z" fill="white" fill-opacity="0.1"/>
</svg>