<svg width="348" height="287" viewBox="0 0 348 287" fill="none" xmlns="http://www.w3.org/2000/svg">
<mask id="mask0_4794_61700" style="mask-type:alpha" maskUnits="userSpaceOnUse" x="15" y="26" width="316" height="261">
<path d="M331 156.5C331 228.573 260.261 287 173 287C85.7391 287 15.0001 228.573 15 156.5C15 84.4268 85.739 26 173 26C260.261 26 331 84.4268 331 156.5Z" fill="url(#paint0_radial_4794_61700)"/>
</mask>
<g mask="url(#mask0_4794_61700)">
<ellipse cx="112.045" cy="222.909" rx="16.2797" ry="5.95952" fill="#713ADA" fill-opacity="0.4"/>
<ellipse cx="112.045" cy="222.909" rx="16.2797" ry="5.95952" stroke="white" stroke-width="0.910468"/>
<path d="M124.252 226.67C125.812 225.828 126.721 224.815 126.721 223.726C126.721 220.798 120.151 218.424 112.045 218.424C103.94 218.424 97.3691 220.798 97.3691 223.726C97.3691 224.815 98.2788 225.828 99.8387 226.67" stroke="white" stroke-width="0.364187" stroke-linecap="round"/>
<path d="M149.11 210.118L149.33 209.719L149.11 210.118ZM56.9554 167.602L57.1048 167.172L56.9732 167.126L56.8386 167.162L56.9554 167.602ZM152.38 200.742L152.511 201.178C152.7 201.122 152.831 200.95 152.836 200.752C152.84 200.555 152.716 200.377 152.53 200.312L152.38 200.742ZM50.5003 229.361L50.6781 228.942V228.942L50.5003 229.361ZM-34.6996 193.213L-34.8774 193.632L-34.6996 193.213ZM-34.6017 191.842L-34.7182 191.401L-34.7182 191.401L-34.6017 191.842ZM60.5893 228.017L60.7253 228.452L60.7308 228.45L60.5893 228.017ZM55.5094 229.607L55.3734 229.172V229.172L55.5094 229.607ZM-29.4577 190.48L-29.3412 190.92L-29.3336 190.918L-29.326 190.916L-29.4577 190.48ZM31.7365 174.296L31.8303 174.741L31.8419 174.739L31.8533 174.736L31.7365 174.296ZM-27.2047 181.678L-27.3876 182.094L-27.3839 182.096L-27.2047 181.678ZM5.9361 172.244L6.096 171.817L6.09435 171.817L5.9361 172.244ZM7.31697 172.762L7.50457 172.347L7.49091 172.341L7.47686 172.335L7.31697 172.762ZM129.881 230.104L129.712 229.681L129.881 230.104ZM111.609 233.084V232.628C104.392 232.628 97.914 231.47 93.3924 229.636L93.2213 230.057L93.0502 230.479C97.7085 232.369 104.309 233.539 111.609 233.539V233.084ZM149.11 210.118L148.89 210.516C150.477 211.393 151.843 212.351 152.854 213.348C153.869 214.349 154.494 215.357 154.667 216.331C154.836 217.281 154.586 218.264 153.712 219.27C152.824 220.29 151.296 221.328 148.933 222.323L149.11 222.742L149.287 223.162C151.712 222.14 153.382 221.036 154.399 219.867C155.428 218.684 155.787 217.429 155.564 216.172C155.345 214.939 154.578 213.77 153.493 212.7C152.404 211.626 150.963 210.621 149.33 209.719L149.11 210.118ZM56.9554 167.602L56.8061 168.032L152.231 201.172L152.38 200.742L152.53 200.312L57.1048 167.172L56.9554 167.602ZM50.5003 229.361L50.6781 228.942L-34.5218 192.794L-34.6996 193.213L-34.8774 193.632L50.3225 229.78L50.5003 229.361ZM-34.6996 193.213L-34.5218 192.794C-34.7599 192.693 -34.7353 192.348 -34.4852 192.282L-34.6017 191.842L-34.7182 191.401C-35.8068 191.69 -35.914 193.192 -34.8774 193.632L-34.6996 193.213ZM74.9794 225.816V226.271C82.733 226.271 88.4979 228.485 93.1853 230.521L93.3667 230.104L93.5481 229.686C88.822 227.633 82.92 225.361 74.9794 225.361V225.816ZM60.5893 228.017L60.7308 228.45C64.9691 227.064 70.2265 226.271 74.9794 226.271V225.816V225.361C70.1389 225.361 64.7853 226.166 60.4478 227.585L60.5893 228.017ZM55.5094 229.607L55.6453 230.041L60.7252 228.452L60.5893 228.017L60.4533 227.583L55.3734 229.172L55.5094 229.607ZM-34.6017 191.842L-34.4853 192.282L-29.3412 190.92L-29.4577 190.48L-29.5741 190.04L-34.7182 191.401L-34.6017 191.842ZM31.7365 174.296L31.8533 174.736L57.0722 168.042L56.9554 167.602L56.8386 167.162L31.6197 173.856L31.7365 174.296ZM50.5003 229.361L50.3225 229.78C52.0096 230.496 53.8963 230.589 55.6453 230.041L55.5094 229.607L55.3734 229.172C53.8306 229.655 52.1663 229.574 50.6781 228.942L50.5003 229.361ZM149.11 210.118L149.33 209.719C147.409 208.658 146.585 207.217 146.585 205.971H146.13H145.675C145.675 207.642 146.77 209.345 148.89 210.516L149.11 210.118ZM146.13 205.971H146.585C146.585 205.071 146.939 204.226 147.843 203.428C148.764 202.615 150.255 201.854 152.511 201.178L152.38 200.742L152.25 200.306C149.937 200.999 148.303 201.808 147.241 202.746C146.162 203.698 145.675 204.783 145.675 205.971H146.13ZM-31.7106 177.195H-31.2554C-31.2554 176.377 -30.7672 175.529 -29.724 174.693C-28.6851 173.86 -27.1538 173.091 -25.2211 172.436C-21.3603 171.127 -15.9975 170.31 -10.0529 170.31V169.855V169.399C-16.0694 169.399 -21.5355 170.225 -25.5134 171.573C-27.5 172.247 -29.1404 173.059 -30.2933 173.982C-31.442 174.903 -32.1659 175.985 -32.1659 177.195H-31.7106ZM-27.2047 181.678L-27.0217 181.261C-28.406 180.653 -29.479 179.981 -30.1992 179.278C-30.9181 178.577 -31.2554 177.876 -31.2554 177.195H-31.7106H-32.1659C-32.1659 178.201 -31.6628 179.122 -30.835 179.93C-30.0085 180.737 -28.8285 181.462 -27.3876 182.094L-27.2047 181.678ZM-10.0529 169.855V170.31C-3.75792 170.31 1.88234 171.226 5.77785 172.67L5.9361 172.244L6.09435 171.817C2.06961 170.325 -3.68435 169.399 -10.0529 169.399V169.855ZM21.9986 175.233V174.777C16.0082 174.777 10.7369 173.809 7.50457 172.347L7.31697 172.762L7.12936 173.176C10.5225 174.711 15.9361 175.688 21.9986 175.688V175.233ZM31.7365 174.296L31.6426 173.85C28.8611 174.436 25.5527 174.777 21.9986 174.777V175.233V175.688C25.608 175.688 28.9799 175.342 31.8303 174.741L31.7365 174.296ZM-27.2047 181.678L-27.3839 182.096C-26.1407 182.628 -25.1774 183.231 -24.5319 183.86C-23.8864 184.489 -23.59 185.111 -23.59 185.698H-23.1347H-22.6795C-22.6795 184.784 -23.144 183.941 -23.8965 183.208C-24.6489 182.475 -25.7205 181.818 -27.0255 181.259L-27.2047 181.678ZM-23.1347 185.698H-23.59C-23.59 186.439 -24.0664 187.223 -25.1124 187.997C-26.1502 188.765 -27.6764 189.466 -29.5893 190.044L-29.4577 190.48L-29.326 190.916C-27.3598 190.322 -25.7246 189.583 -24.5707 188.729C-23.425 187.881 -22.6795 186.86 -22.6795 185.698H-23.1347ZM7.31697 172.762L7.47686 172.335L6.096 171.817L5.9361 172.244L5.77621 172.67L7.15707 173.188L7.31697 172.762ZM129.881 230.104L129.712 229.681C125.195 231.489 118.765 232.628 111.609 232.628V233.084V233.539C118.847 233.539 125.399 232.388 130.05 230.527L129.881 230.104ZM149.11 222.742L148.933 222.323C144.155 224.336 141.232 225.422 138.567 226.38C135.898 227.339 133.475 228.175 129.712 229.681L129.881 230.104L130.05 230.527C133.795 229.027 136.199 228.199 138.875 227.237C141.553 226.275 144.49 225.183 149.287 223.162L149.11 222.742Z" fill="white"/>
<path d="M91.5857 238.685C96.5766 240.607 103.397 241.228 111.289 241.228C119.444 241.228 126.896 239.87 132.255 237.522C139.917 234.905 156.178 229.273 158.98 224.896C161.782 220.518 160.633 214.712 151.307 208.767M91.7438 238.733C86.6259 236.622 83.6566 234.905 75.1239 234.905C68.3942 234.905 63.5983 237.281 57.1727 239.189C53.8295 240.561 49.6869 241.228 47.0226 239.856L-39.8329 202.699C-40.2139 202.536 -40.3834 202.091 -40.2031 201.718C-39.4599 200.18 -37.6387 196.413 -36.6274 194.331C-36.2131 193.478 -35.6441 192.711 -34.9509 192.064L-34.9092 192.025M-30.9846 175.379C-32.0748 176.324 -32.8743 177.632 -34.1824 180.684C-35.3453 183.398 -32.8016 185.667 -30.1125 186.862C-28.0776 187.766 -28.5863 190.06 -30.6939 190.786" stroke="white" stroke-width="0.910468"/>
<ellipse cx="55.5025" cy="197.254" rx="54.9439" ry="17.2245" stroke="white" stroke-width="0.910468"/>
<ellipse cx="55.5011" cy="198.489" rx="48.839" ry="13.6633" stroke="white" stroke-width="0.910468"/>
<path d="M102.163 202.561C101.719 201.677 100.943 200.822 99.8706 200.005C93.3684 195.056 75.9585 191.514 55.5025 191.514C35.0464 191.514 17.6365 195.056 11.1343 200.005C10.0629 200.821 9.28768 201.675 8.84375 202.557" stroke="white" stroke-width="0.910468"/>
<path d="M108.383 221.185C108.74 221.191 109.108 221.252 109.396 221.38L112.276 222.661L115.426 221.483C115.732 221.369 116.108 221.32 116.466 221.326C116.823 221.332 117.191 221.394 117.479 221.522C117.742 221.639 118.018 221.855 117.983 222.184C117.967 222.339 117.881 222.465 117.777 222.558C117.674 222.65 117.538 222.724 117.385 222.781L114.758 223.764L117.132 224.819C117.394 224.936 117.67 225.152 117.636 225.481C117.619 225.637 117.532 225.763 117.429 225.855C117.325 225.948 117.19 226.021 117.037 226.078C116.73 226.193 116.354 226.242 115.996 226.235C115.639 226.229 115.27 226.168 114.982 226.04L112.102 224.758L108.953 225.937C108.647 226.051 108.271 226.1 107.913 226.094C107.556 226.087 107.188 226.026 106.899 225.897C106.637 225.781 106.361 225.565 106.396 225.236C106.412 225.081 106.499 224.955 106.603 224.862C106.706 224.77 106.841 224.696 106.994 224.639L109.62 223.655L107.247 222.601C106.985 222.484 106.708 222.268 106.743 221.938C106.76 221.783 106.847 221.658 106.95 221.565C107.054 221.473 107.188 221.399 107.342 221.342C107.648 221.227 108.024 221.178 108.383 221.185Z" stroke="white" stroke-width="0.546281"/>
<path d="M54.3379 168.112L57.5357 167.255V52.4102" stroke="white" stroke-width="0.910468"/>
<path d="M56.2352 171.674L-23.3034 193.247C-24.1043 193.465 -24.1778 194.572 -23.4126 194.893L49.1734 225.366C50.5395 225.939 52.0623 226.021 53.4818 225.596L138.57 200.145C139.384 199.902 139.405 198.757 138.6 198.484L59.9652 171.791C58.7611 171.382 57.4624 171.341 56.2352 171.674Z" stroke="white" stroke-width="0.364187"/>
<path d="M150.231 333.699L147.557 331.262L149.459 323.832C150.053 321.356 151.468 316.046 152.371 314.619C153.5 312.836 156.116 311.885 157.958 311.113C159.432 310.494 221.496 286.367 252.344 274.381L281.646 285.317L149.459 339.405L150.231 338.394L150.647 336.849L150.231 333.699Z" fill="url(#paint1_linear_4794_61700)" fill-opacity="0.5"/>
<path d="M53.3213 182.428C53.3213 183.19 52.7031 183.809 51.9404 183.809C51.1778 183.809 50.5596 183.19 50.5596 182.428C50.5596 181.665 51.1778 181.047 51.9404 181.047C52.7031 181.047 53.3213 181.665 53.3213 182.428Z" stroke="white" stroke-width="0.364187"/>
<path d="M47.0711 182.718C47.0711 183.481 46.4528 184.099 45.6902 184.099C44.9276 184.099 44.3093 183.481 44.3093 182.718C44.3093 181.956 44.9276 181.338 45.6902 181.338C46.4528 181.338 47.0711 181.956 47.0711 182.718Z" stroke="white" stroke-width="0.364187"/>
<path d="M40.9662 183.155C40.9662 183.917 40.3479 184.535 39.5853 184.535C38.8227 184.535 38.2045 183.917 38.2045 183.155C38.2045 182.392 38.8227 181.774 39.5853 181.774C40.3479 181.774 40.9662 182.392 40.9662 183.155Z" stroke="white" stroke-width="0.364187"/>
<path d="M35.0067 183.736C35.0067 184.499 34.4535 185.117 33.7711 185.117C33.0888 185.117 32.5356 184.499 32.5356 183.736C32.5356 182.973 33.0888 182.355 33.7711 182.355C34.4535 182.355 35.0067 182.973 35.0067 183.736Z" stroke="white" stroke-width="0.364187"/>
<path d="M29.4832 184.608C29.4832 185.371 28.93 185.989 28.2477 185.989C27.5653 185.989 27.0122 185.371 27.0122 184.608C27.0122 183.845 27.5653 183.227 28.2477 183.227C28.93 183.227 29.4832 183.845 29.4832 184.608Z" stroke="white" stroke-width="0.364187"/>
<path d="M24.1051 185.916C24.1051 186.679 23.5845 187.297 22.9423 187.297C22.3 187.297 21.7794 186.679 21.7794 185.916C21.7794 185.154 22.3 184.535 22.9423 184.535C23.5845 184.535 24.1051 185.154 24.1051 185.916Z" stroke="white" stroke-width="0.364187"/>
<path d="M19.162 187.175C19.1944 187.937 18.7006 188.577 18.059 188.604C17.4173 188.631 16.8709 188.036 16.8384 187.274C16.806 186.512 17.2998 185.872 17.9415 185.845C18.5831 185.817 19.1295 186.413 19.162 187.175Z" stroke="white" stroke-width="0.364187"/>
<path d="M14.8011 188.626C14.8398 189.388 14.4162 190.029 13.8549 190.057C13.2937 190.086 12.8074 189.491 12.7688 188.73C12.7301 187.968 13.1537 187.327 13.7149 187.299C14.2761 187.27 14.7624 187.865 14.8011 188.626Z" stroke="white" stroke-width="0.364187"/>
<path d="M10.8479 190.292C10.996 191.108 10.7318 191.839 10.2579 191.925C9.784 192.011 9.27977 191.42 9.13169 190.604C8.9836 189.788 9.24774 189.057 9.72166 188.971C10.1956 188.885 10.6998 189.476 10.8479 190.292Z" stroke="white" stroke-width="0.364187"/>
<path d="M7.59678 192.502C7.85432 193.437 7.7494 194.281 7.36244 194.388C6.97548 194.494 6.453 193.823 6.19546 192.888C5.93792 191.954 6.04284 191.11 6.4298 191.003C6.81676 190.896 7.33924 191.568 7.59678 192.502Z" stroke="white" stroke-width="0.364187"/>
<path d="M5.22831 194.819C5.80094 195.601 6.03741 196.402 5.75647 196.608C5.47553 196.813 4.78357 196.346 4.21093 195.563C3.6383 194.781 3.40183 193.98 3.68277 193.775C3.96372 193.569 4.65568 194.036 5.22831 194.819Z" stroke="white" stroke-width="0.364187"/>
<path d="M59.7169 182.428C59.7169 183.19 59.0986 183.809 58.336 183.809C57.5734 183.809 56.9551 183.19 56.9551 182.428C56.9551 181.665 57.5734 181.047 58.336 181.047C59.0986 181.047 59.7169 181.665 59.7169 182.428Z" stroke="white" stroke-width="0.364187"/>
<path d="M65.8218 182.718C65.8218 183.481 65.2035 184.099 64.4409 184.099C63.6783 184.099 63.06 183.481 63.06 182.718C63.06 181.956 63.6783 181.338 64.4409 181.338C65.2035 181.338 65.8218 181.956 65.8218 182.718Z" stroke="white" stroke-width="0.364187"/>
<path d="M71.6359 183.155C71.6359 183.917 71.0177 184.535 70.2551 184.535C69.4924 184.535 68.8742 183.917 68.8742 183.155C68.8742 182.392 69.4924 181.774 70.2551 181.774C71.0177 181.774 71.6359 182.392 71.6359 183.155Z" stroke="white" stroke-width="0.364187"/>
<path d="M76.8687 183.591C76.8687 184.353 76.3155 184.971 75.6332 184.971C74.9508 184.971 74.3977 184.353 74.3977 183.591C74.3977 182.828 74.9508 182.21 75.6332 182.21C76.3155 182.21 76.8687 182.828 76.8687 183.591Z" stroke="white" stroke-width="0.364187"/>
<path d="M81.9561 184.463C81.9561 185.225 81.4029 185.844 80.7206 185.844C80.0382 185.844 79.485 185.225 79.485 184.463C79.485 183.7 80.0382 183.082 80.7206 183.082C81.4029 183.082 81.9561 183.7 81.9561 184.463Z" stroke="white" stroke-width="0.364187"/>
<path d="M86.7528 185.335C86.7528 186.097 86.2647 186.716 85.6626 186.716C85.0605 186.716 84.5724 186.097 84.5724 185.335C84.5724 184.572 85.0605 183.954 85.6626 183.954C86.2647 183.954 86.7528 184.572 86.7528 185.335Z" stroke="white" stroke-width="0.364187"/>
<path d="M90.968 186.352C90.968 187.115 90.48 187.733 89.8779 187.733C89.2758 187.733 88.7877 187.115 88.7877 186.352C88.7877 185.59 89.2758 184.971 89.8779 184.971C90.48 184.971 90.968 185.59 90.968 186.352Z" stroke="white" stroke-width="0.364187"/>
<path d="M95.3254 187.745C95.2664 188.505 94.732 189.084 94.1317 189.037C93.5314 188.991 93.0926 188.337 93.1517 187.576C93.2107 186.816 93.7451 186.237 94.3454 186.284C94.9457 186.331 95.3844 186.985 95.3254 187.745Z" stroke="white" stroke-width="0.364187"/>
<path d="M98.9723 189.19C98.8787 189.947 98.383 190.509 97.8652 190.445C97.3473 190.381 97.0034 189.715 97.097 188.958C97.1905 188.201 97.6862 187.64 98.204 187.704C98.7219 187.768 99.0658 188.433 98.9723 189.19Z" stroke="white" stroke-width="0.364187"/>
<path d="M101.944 190.882C101.732 191.615 101.247 192.118 100.861 192.006C100.476 191.895 100.335 191.21 100.548 190.478C100.76 189.745 101.245 189.242 101.63 189.354C102.016 189.466 102.156 190.15 101.944 190.882Z" stroke="white" stroke-width="0.364187"/>
<path d="M104.487 192.688C104.191 193.447 103.647 193.944 103.273 193.798C102.899 193.652 102.837 192.918 103.133 192.159C103.429 191.401 103.973 190.904 104.346 191.05C104.72 191.196 104.783 191.929 104.487 192.688Z" stroke="white" stroke-width="0.364187"/>
<path d="M106.488 195.009C105.958 195.689 105.296 196.058 105.008 195.834C104.72 195.609 104.915 194.876 105.444 194.197C105.974 193.517 106.636 193.148 106.924 193.372C107.212 193.596 107.017 194.329 106.488 195.009Z" stroke="white" stroke-width="0.364187"/>
<path d="M107.581 197.785C106.783 198.309 105.994 198.518 105.819 198.253C105.645 197.987 106.151 197.347 106.95 196.822C107.748 196.298 108.537 196.088 108.711 196.354C108.886 196.62 108.38 197.26 107.581 197.785Z" stroke="white" stroke-width="0.364187"/>
<path d="M151.584 208.945C149.695 207.564 150.354 206.384 153.256 205.383L170.769 200.075M280.086 168.182L239.952 180.3" stroke="white" stroke-width="0.910468" stroke-linecap="round" stroke-linejoin="round"/>
<path d="M170.727 200.02L173.205 201.178C175.445 202.225 177.99 202.42 180.364 201.726L242.621 183.536C244.283 183.065 245.202 182.221 243.522 181.64L239.997 180.35" stroke="white" stroke-width="0.364187"/>
<path d="M272.783 131.773L238.222 141.146M153.906 163.709L169.096 159.421M239.944 155.509V180.222M170.499 170.837V200.281" stroke="white" stroke-width="0.910468" stroke-linecap="round" stroke-linejoin="round"/>
<path d="M272.783 129.564L238.09 139.028M153.906 161.5L169.229 157.435" stroke="white" stroke-width="0.364187"/>
<path d="M252.166 274.365L275.774 284.176C278.578 285.341 281.725 285.364 284.545 284.239L308.564 274.658L313.067 272.714C323.92 268.027 330.948 257.337 330.948 245.515V199.074C330.948 187.3 325.425 182.055 317.794 184.1C313.506 185.249 106.973 253.785 104.123 254.719C91.5418 258.844 82.3926 271.38 82.3926 286.204V343.009C82.3926 353.949 93.1335 361.658 103.498 358.157L104.123 357.946L148.778 339.285C149.859 338.833 150.564 337.776 150.564 336.603V334.443C150.564 333.521 150.051 332.676 149.233 332.251L146.93 331.053" stroke="white" stroke-width="2.36722"/>
<path d="M87.4805 311.212H89.0067C89.0067 306.367 89.0067 299.191 89.0067 293.261C89.0067 287.33 86.6083 266.152 110.81 258.085C129.626 251.813 313.506 189.841 316.195 188.896C318.884 187.951 321.646 187.733 322.446 188.315" stroke="white" stroke-width="0.364187"/>
<path d="M151.29 201L152.466 200.685C153.101 200.514 153.543 199.938 153.543 199.28V79.0105C153.543 72.1197 149.128 66.004 142.588 63.8346L77.84 42.3584C75.3551 41.5342 73.601 39.3076 73.3813 36.6988L69.6235 -8.09613C69.4878 -9.713 70.6236 -11.1602 72.2264 -11.4128L85.72 -13.5388C86.9816 -13.7366 88.2245 -13.0879 88.7838 -11.9399L97.3798 6.43437C98.2309 8.18167 100.136 9.15478 102.05 8.82043L255.619 -17.9977C256.374 -18.1296 257.102 -17.652 257.282 -16.9066L270.263 36.9154C271.663 42.7187 272.37 48.6673 272.37 54.6369V159.223C272.37 162.935 274.72 166.24 278.226 167.46L323.971 183.592" stroke="white" stroke-width="1.09256"/>
<path d="M52.5225 40.199L29.6766 34.3145C29.1004 34.1661 28.5391 34.6012 28.5391 35.1962V44.7977C28.5391 46.4553 29.6585 47.9038 31.2625 48.3219L49.3159 53.0267C51.4267 53.5768 53.634 53.6458 55.7751 53.2287L80.5032 48.4116L52.5225 40.199Z" stroke="white" stroke-width="1.09256"/>
<path d="M75.4885 41.2896L-18.7689 18.8011C-21.2956 18.1982 -22.9652 15.7921 -22.6455 13.2141L-17.9411 -24.7189C-17.6599 -26.9863 -15.9046 -28.7898 -13.6456 -29.1324L0.267674 -31.2422L86.8819 -13.4906" stroke="white" stroke-width="1.09256"/>
<path d="M-28.8038 173.452C-50.7956 179.168 -68.5388 183.816 -69.285 184.053C-79.0531 187.158 -86.2188 197.359 -86.2188 209.465L-86.1737 246.043C-86.1568 259.8 -78.3896 272.373 -66.0952 278.545L91.4768 357.654M-16.0127 170.132C18.1483 161.277 56.3368 151.469 57.5366 151.469" stroke="white" stroke-width="1.09256"/>
<path d="M87.1879 312.224V286.522C87.1879 273.168 95.4281 261.876 106.759 258.16C109.326 257.318 314.528 188.049 317.647 187.297C322.952 186.018 327.313 187.803 327.313 198.704V222.032L87.1879 312.224ZM87.1879 312.224V332.349M149.908 333.596L103.151 352.75C95.5007 355.884 87.1152 350.257 87.1152 341.989V332.349M325.818 222.739V243.636C325.818 254.873 319.01 264.989 308.6 269.221L282.64 279.773C280.857 280.498 278.858 280.486 277.084 279.739L258.779 272.034" stroke="white" stroke-width="1.09256"/>
<path d="M87.5527 320.951L90.5893 322.407C92.037 323.101 93.7073 323.166 95.2042 322.585L132.322 308.199M319.247 225.09V233.908C319.247 235.729 318.116 237.358 316.41 237.994L292.284 246.986M132.322 308.199L133.798 307.626C133.883 307.594 133.967 307.564 134.052 307.537M132.322 308.199L134.052 307.537M292.284 246.986L292.143 247.04M292.284 246.986C292.237 247.004 292.19 247.022 292.143 247.04M134.052 307.537L292.143 247.04M134.052 307.537C136.835 306.644 139.735 308.718 139.735 311.692V330.044C139.735 332.097 141.805 333.503 143.713 332.747L145.648 331.98C146.995 331.446 147.989 330.278 148.3 328.863L150.653 318.163C151.278 315.318 153.282 312.974 155.995 311.913L268.427 267.957C270.594 267.109 273.045 268.113 273.995 270.238L277.686 278.49C278.29 279.84 279.851 280.475 281.226 279.929L282.278 279.511C283.381 279.073 284.151 278.059 284.277 276.879L286.701 254.177C287.044 250.966 289.145 248.217 292.143 247.04" stroke="white" stroke-width="1.63884"/>
<path d="M82.3917 285.048L-86.1465 209.609" stroke="white" stroke-width="1.63884"/>
<path d="M152.016 73.0492L73.5977 49.8652" stroke="white" stroke-width="1.63884"/>
<path d="M28.3929 35.3294L-20.3008 18.541" stroke="white" stroke-width="1.09256"/>
<path d="M126.145 297.694V299.896C126.145 300.305 126.555 300.586 126.937 300.438L139.8 295.439C140.024 295.353 140.171 295.137 140.171 294.897V292.316M169.605 281.632V283.835C169.605 284.244 170.016 284.525 170.397 284.377L183.261 279.378C183.485 279.291 183.632 279.076 183.632 278.836V276.254M210.45 266.515V268.718C210.45 269.127 210.861 269.408 211.242 269.26L224.106 264.261C224.329 264.174 224.477 263.959 224.477 263.719V261.137M248.097 252.125V254.328C248.097 254.737 248.508 255.018 248.889 254.87L261.753 249.871C261.976 249.784 262.123 249.569 262.123 249.329V246.747M284.145 238.171V240.374C284.145 240.783 284.555 241.064 284.937 240.916L297.8 235.917C298.024 235.83 298.171 235.615 298.171 235.375V232.793" stroke="white" stroke-width="1.09256"/>
<path fill-rule="evenodd" clip-rule="evenodd" d="M55.3838 191.338C78.3122 191.338 97.4387 196.066 101.841 202.35C95.8781 207.928 77.3364 211.997 55.3838 211.997C33.4305 211.997 14.8878 207.928 8.92578 202.35C13.3271 196.066 32.4547 191.338 55.3838 191.338Z" fill="#EFEFEF" fill-opacity="0.4"/>
<path d="M53.1294 40.4494L29.0099 34.2321C28.8177 37.2143 28.4333 43.4592 28.4333 44.5814C28.4333 45.9841 29.0099 47.7389 31.0466 48.1677C33.0833 48.5965 43.16 50.8477 46.2687 52.2412C48.7557 53.3561 51.8787 53.4919 53.1294 53.4204V40.4494Z" fill="#D9D9D9" fill-opacity="0.07"/>
<path d="M70.1934 -10.5933L-16.5407 -27.9421C-16.9267 -27.4634 -17.7107 -26.3917 -17.7588 -25.9346C-17.819 -25.3632 -22.9176 13.2779 -22.9176 13.4579C-22.9176 13.6379 -22.8148 15.5406 -22.5577 16.2605C-22.352 16.8365 -21.3308 17.7018 -20.8459 18.0625L74.2478 40.9897H75.3724C74.7706 40.0032 73.5434 37.7817 73.4487 36.7873C73.3303 35.5443 69.631 -7.16047 69.5126 -8.52181C69.4179 -9.61089 69.927 -10.3566 70.1934 -10.5933Z" fill="#D9D9D9" fill-opacity="0.07"/>
<path d="M152.42 73.1286L74.2478 49.6053L57.5959 52.9128L57.3153 159.762V167.566L151.786 200.546C152.046 200.546 152.64 200.491 152.934 200.271L152.98 200.237C153.324 199.98 153.577 199.791 153.577 199.307V165.886C153.424 139.871 153.209 86.7484 153.577 82.3779C153.944 78.0074 152.958 74.3906 152.42 73.1286Z" fill="#D9D9D9" fill-opacity="0.07"/>
<path d="M82.3581 285.037L-86.1568 209.801L-86.5391 238.682C-86.3615 243.964 -86.1568 255.061 -86.1568 255.061C-86.1568 255.061 52.9589 321.932 82.3581 336.042V285.037Z" fill="#D9D9D9" fill-opacity="0.07"/>
<path d="M-30.7827 179.232C-31.6864 178.378 -31.745 177.202 -31.6613 176.721C-32.1634 176.721 -34.3599 180.612 -34.5482 181.867C-34.7364 183.122 -33.3558 184.88 -32.4144 185.633C-31.4731 186.386 -29.1511 187.327 -28.8373 188.394C-28.5863 189.247 -29.695 190.256 -30.2807 190.653C-30.1343 190.758 -29.1762 190.641 -26.5153 189.335C-23.1892 187.704 -23.503 186.637 -23.2519 185.633C-23.0009 184.629 -24.3188 183.185 -25.7622 182.307C-27.2056 181.428 -29.6531 180.298 -30.7827 179.232Z" fill="#D9D9D9" fill-opacity="0.07"/>
<path d="M125.495 239.461L124.303 232.304C121.529 232.507 115.526 232.914 113.701 232.914H104.785L104.439 240.932C105.524 241.07 108.724 241.347 112.846 241.347C116.968 241.347 122.996 240.089 125.495 239.461Z" fill="#D9D9D9" fill-opacity="0.07"/>
<path d="M94.8342 239.838L96.3673 231.191L92.6265 230.026C91.8702 232.193 90.2717 236.857 89.9283 238.182C90.6151 238.624 93.4851 239.47 94.8342 239.838Z" fill="#D9D9D9" fill-opacity="0.07"/>
<path d="M50.043 240.63L52.7781 230.026L51.0651 229.584L-34.6295 193.353L-35.2793 192.649L-36.3625 193.732C-37.5991 196.151 -40.1047 201.141 -40.2347 201.747C-40.3647 202.354 -39.7112 202.795 -39.3682 202.939C-11.8538 214.675 43.6071 238.341 45.3354 239.115C47.0637 239.889 49.1939 240.448 50.043 240.63Z" fill="#D9D9D9" fill-opacity="0.07"/>
<path d="M0.473969 -30.9723V-35.3262L86.4202 -18.6957V-13.6547L85.9601 -13.5569L0.473969 -30.9723Z" fill="#D9D9D9" fill-opacity="0.07"/>
<path d="M86.3653 269.69C87.8714 265.587 88.7382 265.755 89.9283 264.652L-80.5007 192.136C-81.5426 193.294 -82.7195 194.607 -83.3589 196.519C-83.9983 198.431 -84.886 200.752 -85.4737 202.939L83.5411 277.008C83.7575 275.774 84.8592 273.793 86.3653 269.69Z" fill="#D9D9D9" fill-opacity="0.07"/>
<path d="M231.495 116.715H231.039V117.32L231.621 117.152L231.495 116.715ZM174.19 131.665L174.305 132.106V132.106L174.19 131.665ZM236.323 115.322L236.449 115.76V115.76L236.323 115.322ZM169.326 134.505H168.871L168.871 134.505L169.326 134.505ZM170.848 132.536L170.733 132.095V132.095L170.848 132.536ZM170.992 168.11L170.867 167.672L170.992 168.11ZM169.36 168.585L168.905 168.586C168.905 168.73 168.973 168.865 169.089 168.951C169.204 169.036 169.353 169.063 169.491 169.021L169.36 168.585ZM236.515 149.494L236.391 149.056L236.515 149.494ZM237.994 149.058L238.129 149.493L238.449 149.393V149.058H237.994ZM229.867 108.148L229.978 108.589L229.867 108.148ZM177.25 121.403L177.139 120.962L177.25 121.403ZM177.25 121.403L177.361 121.845L229.978 108.589L229.867 108.148L229.756 107.706L177.139 120.962L177.25 121.403ZM236.515 149.494L236.391 149.056L170.867 167.672L170.992 168.11L171.116 168.548L236.639 149.932L236.515 149.494ZM169.36 168.585L169.816 168.585L169.781 134.505L169.326 134.505L168.871 134.505L168.905 168.586L169.36 168.585ZM237.994 116.579H237.539V149.058H237.994H238.449V116.579H237.994ZM231.495 109.416H231.039V116.715H231.495H231.95V109.416H231.495ZM231.495 116.715L231.621 117.152L236.449 115.76L236.323 115.322L236.197 114.885L231.368 116.277L231.495 116.715ZM170.848 132.536L170.963 132.976L174.305 132.106L174.19 131.665L174.075 131.225L170.733 132.095L170.848 132.536ZM175.712 129.696H176.167V123.377H175.712H175.257V129.696H175.712ZM174.19 131.665L174.305 132.106C175.402 131.82 176.167 130.829 176.167 129.696H175.712H175.257C175.257 130.415 174.771 131.043 174.075 131.225L174.19 131.665ZM237.994 116.579H238.449C238.449 115.406 237.324 114.56 236.197 114.885L236.323 115.322L236.449 115.76C236.995 115.602 237.539 116.012 237.539 116.579H237.994ZM169.326 134.505H169.781C169.781 133.786 170.267 133.158 170.963 132.976L170.848 132.536L170.733 132.095C169.636 132.381 168.871 133.371 168.871 134.505H169.326ZM170.992 168.11L170.867 167.672C170.448 167.791 170.039 167.91 169.734 168C169.582 168.045 169.456 168.082 169.368 168.108C169.324 168.121 169.29 168.131 169.266 168.138C169.254 168.142 169.245 168.145 169.239 168.146C169.236 168.147 169.234 168.148 169.232 168.149C169.231 168.149 169.231 168.149 169.23 168.149C169.23 168.149 169.23 168.149 169.23 168.149C169.23 168.149 169.23 168.149 169.23 168.149C169.23 168.149 169.23 168.149 169.23 168.149C169.23 168.149 169.23 168.149 169.36 168.585C169.491 169.021 169.491 169.021 169.491 169.021C169.491 169.021 169.491 169.021 169.491 169.021C169.491 169.021 169.491 169.021 169.491 169.021C169.491 169.021 169.491 169.021 169.492 169.021C169.492 169.021 169.492 169.021 169.493 169.021C169.495 169.02 169.497 169.02 169.5 169.019C169.506 169.017 169.515 169.014 169.526 169.011C169.55 169.004 169.584 168.994 169.628 168.981C169.715 168.955 169.84 168.918 169.991 168.873C170.294 168.784 170.7 168.666 171.116 168.548L170.992 168.11ZM236.515 149.494L236.639 149.932C237.079 149.807 237.451 149.697 237.713 149.619C237.844 149.58 237.948 149.548 238.019 149.527C238.054 149.516 238.081 149.507 238.1 149.502C238.109 149.499 238.116 149.497 238.121 149.495C238.124 149.494 238.125 149.494 238.127 149.493C238.127 149.493 238.128 149.493 238.128 149.493C238.128 149.493 238.128 149.493 238.129 149.493C238.129 149.493 238.129 149.493 238.129 149.493C238.129 149.493 238.129 149.493 238.129 149.493C238.129 149.493 238.129 149.493 237.994 149.058C237.859 148.623 237.859 148.623 237.859 148.623C237.859 148.623 237.859 148.623 237.859 148.623C237.859 148.623 237.859 148.623 237.859 148.623C237.859 148.623 237.859 148.623 237.859 148.623C237.858 148.623 237.858 148.624 237.857 148.624C237.856 148.624 237.855 148.625 237.852 148.625C237.848 148.627 237.841 148.629 237.832 148.631C237.814 148.637 237.788 148.645 237.753 148.656C237.683 148.677 237.581 148.708 237.452 148.747C237.193 148.824 236.826 148.932 236.391 149.056L236.515 149.494ZM229.867 108.148L229.978 108.589C230.517 108.453 231.039 108.861 231.039 109.416H231.495H231.95C231.95 108.268 230.869 107.426 229.756 107.706L229.867 108.148ZM177.25 121.403L177.139 120.962C176.032 121.241 175.257 122.236 175.257 123.377H175.712H176.167C176.167 122.653 176.659 122.022 177.361 121.845L177.25 121.403Z" fill="white"/>
<path d="M177.613 166.306V123.75C177.613 123.417 177.839 123.127 178.162 123.045L231.355 109.59V151.124" stroke="white" stroke-width="0.364187"/>
<path d="M169.436 168.495L172.299 169.872C175.121 171.231 178.346 171.502 181.356 170.635L242.941 152.886C243.592 152.698 243.657 151.801 243.039 151.522L237.848 149.178" stroke="white" stroke-width="0.910468"/>
<path d="M243.948 152.053V153.753C243.948 154.077 243.733 154.362 243.422 154.452L181.416 172.435C178.369 173.318 175.102 173.034 172.253 171.637L170.366 170.712C169.617 170.345 169.143 169.584 169.143 168.75V168.2" stroke="white" stroke-width="0.364187"/>
<path d="M173.774 225.11L170.907 199.711L170.615 170.992C171.131 171.258 172.633 171.961 174.511 172.64C176.859 173.489 179.481 172.965 180.855 172.64C181.954 172.381 220.699 161.143 239.934 155.557V180.048L283.153 189.879L173.774 225.11Z" fill="url(#paint2_linear_4794_61700)" fill-opacity="0.2"/>
<g filter="url(#filter0_d_4794_61700)">
<path fill-rule="evenodd" clip-rule="evenodd" d="M80.0873 204.088C79.4907 203.611 77.8038 202.193 76.2654 201.106C74.7305 200.02 73.4052 199.349 71.5424 198.723C70.742 198.455 68.8341 197.999 67.9686 197.868C66.7906 197.694 65.0743 197.533 63.8313 197.486C62.9614 197.451 61.5319 197.443 60.8657 197.467C58.9253 197.541 56.4404 197.802 55.0701 198.071C49.8279 199.113 45.0844 201.527 43.2923 206.361C43.1674 206.692 43.0855 206.785 43.0051 206.672C42.9711 206.621 43.0584 206.067 43.2923 205.546C45.6367 200.334 51.018 198.119 56.3326 197.4C59.9214 196.915 63.1048 196.872 66.6264 197.266C68.2334 197.447 69.0673 197.594 70.5368 197.961C71.9723 198.319 72.8977 198.562 74.3292 199.183C75.9597 199.888 77.3067 200.613 78.6055 201.446C79.9044 202.278 80.4782 202.692 81.2003 203.354C81.9223 204.015 80.6838 204.565 80.0873 204.088Z" fill="url(#paint3_linear_4794_61700)" fill-opacity="0.8"/>
<path d="M56.3281 197.367C59.9195 196.882 63.1056 196.839 66.6299 197.233C68.2381 197.415 69.0739 197.562 70.5449 197.929C71.9808 198.287 72.9088 198.531 74.3428 199.153C75.9746 199.859 77.3228 200.584 78.623 201.418C79.9224 202.251 80.4986 202.666 81.2227 203.329C81.408 203.499 81.4738 203.668 81.4473 203.82C81.421 203.971 81.3061 204.094 81.1543 204.177C80.8516 204.342 80.3774 204.362 80.0664 204.113C79.4686 203.635 77.7832 202.219 76.2461 201.133C74.714 200.049 73.3919 199.379 71.5322 198.755C70.7338 198.487 68.8276 198.031 67.9639 197.9C66.787 197.726 65.0719 197.566 63.8301 197.519C62.961 197.484 61.5325 197.476 60.8672 197.5C58.9279 197.574 56.4444 197.834 55.0762 198.104C49.8382 199.144 45.1093 201.555 43.3232 206.372C43.2919 206.455 43.2625 206.524 43.2354 206.579C43.2084 206.634 43.1824 206.676 43.1562 206.705C43.1306 206.733 43.0996 206.754 43.0635 206.751C43.0281 206.748 43.0004 206.722 42.9785 206.691L42.9775 206.69C42.9715 206.681 42.9692 206.67 42.9678 206.662C42.9663 206.653 42.9651 206.642 42.9648 206.631C42.9644 206.608 42.9662 206.579 42.9697 206.545C42.9769 206.476 42.9921 206.384 43.0156 206.278C43.0628 206.067 43.1447 205.796 43.2627 205.533C45.6141 200.305 51.0094 198.086 56.3281 197.367Z" stroke="black" stroke-opacity="0.13" stroke-width="0.0659172"/>
<ellipse cx="0.39497" cy="0.513434" rx="0.39497" ry="0.513434" transform="matrix(0.607602 0.794241 -0.840656 0.541569 80.9766 203.217)" fill="#616161"/>
<path d="M80.6111 203.637C80.7951 203.438 81.1226 203.552 81.2963 203.679C82.206 204.39 82.7757 205.008 83.8047 206.165C83.9685 206.35 83.9174 206.621 83.6976 206.786C83.4776 206.951 83.1874 206.964 83.008 206.762C81.9587 205.582 81.4343 204.871 80.6114 204.228C80.3952 204.059 80.4271 203.835 80.6111 203.637Z" fill="#B4B4B4"/>
<ellipse cx="0.348379" cy="0.452868" rx="0.348379" ry="0.452868" transform="matrix(0.607602 0.794241 -0.840656 0.541569 83.5762 205.957)" fill="url(#paint4_linear_4794_61700)"/>
<path d="M82.9718 206.024C83.2853 206.231 83.517 206.628 83.4489 206.665C83.3808 206.702 83.4479 206.58 82.9094 206.132L82.9718 206.024Z" fill="url(#paint5_linear_4794_61700)"/>
<path d="M82.671 206.092C83.0096 206.262 83.2921 206.63 83.2294 206.675C83.1667 206.719 83.2172 206.591 82.6234 206.206L82.671 206.092Z" fill="url(#paint6_linear_4794_61700)"/>
<path d="M82.9113 206.174C83.2277 206.377 83.465 206.771 83.3974 206.809C83.3299 206.847 83.3952 206.724 82.8505 206.283L82.9113 206.174Z" fill="url(#paint7_linear_4794_61700)"/>
<path d="M82.8879 205.53C83.374 205.788 83.7713 206.332 83.6785 206.394C83.5858 206.457 83.6638 206.272 82.8144 205.694L82.8879 205.53Z" fill="url(#paint8_linear_4794_61700)"/>
<path d="M82.7311 205.662C83.2957 205.962 83.7572 206.593 83.6494 206.666C83.5417 206.739 83.6324 206.524 82.6457 205.853L82.7311 205.662Z" fill="url(#paint9_linear_4794_61700)"/>
<path d="M82.7273 205.955C83.0709 206.137 83.3517 206.521 83.2861 206.566C83.2206 206.61 83.2757 206.479 82.6754 206.071L82.7273 205.955Z" fill="url(#paint10_linear_4794_61700)"/>
<path opacity="0.5" d="M82.8761 206.478C82.6387 206.085 80.9275 204.24 80.6928 204.122C80.4581 204.005 80.7442 203.672 80.886 203.758C81.1217 203.902 82.3636 204.984 83.2207 206.116C82.9182 206.257 82.9534 206.606 82.8761 206.478Z" fill="black" fill-opacity="0.4"/>
<path d="M82.7932 206.381C82.622 206.053 80.8395 204.212 80.7047 204.153C80.5699 204.094 80.6201 203.921 80.7508 204.021C80.8816 204.121 82.041 205.111 82.8981 206.243C82.9863 206.36 82.8622 206.513 82.7932 206.381Z" fill="black" fill-opacity="0.5"/>
<path opacity="0.5" d="M83.2936 205.867C82.738 205.103 81.3125 203.808 81.1763 203.752C81.0401 203.696 81.1839 203.671 81.3172 203.768C81.4505 203.865 82.5701 204.753 83.4555 205.867C83.5467 205.982 83.3823 205.989 83.2936 205.867Z" fill="black" fill-opacity="0.4"/>
<path d="M69.9746 197.963C70.1596 198.001 70.345 198.043 70.5285 198.087C73.8372 198.919 77.4414 200.753 80.1178 202.732C80.2619 202.841 80.4135 202.961 80.5532 203.076C80.5869 203.104 80.6069 203.143 80.6087 203.184C80.6105 203.226 80.5939 203.267 80.5625 203.298C80.5312 203.329 80.4878 203.348 80.4424 203.349C80.397 203.351 80.3531 203.336 80.3202 203.307C80.1885 203.191 80.0438 203.07 79.906 202.959C77.3315 200.935 73.797 199.023 70.5238 198.102C70.342 198.053 70.1583 198.006 69.9746 197.963Z" fill="white"/>
<path d="M73.2871 199.283C73.4058 199.334 73.5241 199.387 73.6409 199.441C75.7416 200.422 78.2813 202.087 80.0013 203.547C80.0823 203.621 80.0378 203.786 80.1149 203.862C80.1336 203.88 80.1414 203.901 80.1366 203.919C80.1318 203.937 80.1148 203.952 80.0893 203.96C80.0638 203.967 80.032 203.967 80.0013 203.959C79.9707 203.951 79.9434 203.936 79.9255 203.918C79.8536 203.843 79.7739 203.764 79.6975 203.689C78.2607 202.331 75.6998 200.459 73.6356 199.447C73.5207 199.391 73.4041 199.336 73.2871 199.283Z" fill="black" fill-opacity="0.4"/>
<path d="M49.9419 199.276C48.6942 199.855 47.6066 200.716 46.5461 201.542C46.491 201.585 46.4367 201.629 46.3835 201.673C45.3018 202.701 44.2406 203.985 43.5749 205.136C43.5183 205.275 43.4659 205.42 43.4277 205.564C43.4548 205.418 43.4969 205.27 43.5441 205.127C44.2502 203.861 45.0992 202.693 46.2693 201.556C46.3236 201.511 46.3787 201.467 46.435 201.423C47.5072 200.592 48.6374 199.757 49.9286 199.249C50.2831 199.114 50.3056 199.112 49.9419 199.276Z" fill="white"/>
</g>
</g>
<path d="M204.052 131.858V80.5914L192.306 95.8194C191.321 97.0964 189.724 97.4069 188.739 96.5128C187.754 95.6187 187.754 93.8583 188.739 92.5813L204.791 71.7711C205.776 70.494 207.373 70.1837 208.358 71.0778L224.41 85.6476C225.395 86.5417 225.395 88.3021 224.41 89.5791C223.425 90.8561 221.827 91.1666 220.842 90.2725L209.096 79.6108V130.878C209.096 132.413 207.967 133.877 206.574 134.148C205.181 134.418 204.052 133.393 204.052 131.858Z" fill="white"/>
<defs>
<filter id="filter0_d_4794_61700" x="42.3493" y="196.934" width="42.2331" height="11.2312" filterUnits="userSpaceOnUse" color-interpolation-filters="sRGB">
<feFlood flood-opacity="0" result="BackgroundImageFix"/>
<feColorMatrix in="SourceAlpha" type="matrix" values="0 0 0 0 0 0 0 0 0 0 0 0 0 0 0 0 0 0 127 0" result="hardAlpha"/>
<feOffset dy="0.582383"/>
<feGaussianBlur stdDeviation="0.291191"/>
<feComposite in2="hardAlpha" operator="out"/>
<feColorMatrix type="matrix" values="0 0 0 0 0 0 0 0 0 0 0 0 0 0 0 0 0 0 0.33 0"/>
<feBlend mode="normal" in2="BackgroundImageFix" result="effect1_dropShadow_4794_61700"/>
<feBlend mode="normal" in="SourceGraphic" in2="effect1_dropShadow_4794_61700" result="shape"/>
</filter>
<radialGradient id="paint0_radial_4794_61700" cx="0" cy="0" r="1" gradientUnits="userSpaceOnUse" gradientTransform="translate(173 156.5) rotate(90) scale(102.418 133.626)">
<stop stop-color="#151522"/>
<stop offset="0.167553" stop-color="#151522"/>
<stop offset="1" stop-color="#161420" stop-opacity="0"/>
</radialGradient>
<linearGradient id="paint1_linear_4794_61700" x1="202.273" y1="288.851" x2="214.601" y2="314.574" gradientUnits="userSpaceOnUse">
<stop/>
<stop offset="1" stop-opacity="0"/>
</linearGradient>
<linearGradient id="paint2_linear_4794_61700" x1="212.011" y1="164.656" x2="223.152" y2="207.17" gradientUnits="userSpaceOnUse">
<stop offset="0.0126424" stop-color="white" stop-opacity="0.2"/>
<stop offset="0.521391" stop-color="white"/>
<stop offset="1" stop-color="white" stop-opacity="0"/>
</linearGradient>
<linearGradient id="paint3_linear_4794_61700" x1="76.3583" y1="207.827" x2="66.6221" y2="187.864" gradientUnits="userSpaceOnUse">
<stop stop-color="white"/>
<stop offset="1" stop-color="white" stop-opacity="0.5"/>
</linearGradient>
<linearGradient id="paint4_linear_4794_61700" x1="0.110912" y1="0.430016" x2="0.855578" y2="0.436419" gradientUnits="userSpaceOnUse">
<stop stop-color="#353736"/>
<stop offset="1" stop-color="#A6A6A6"/>
</linearGradient>
<linearGradient id="paint5_linear_4794_61700" x1="83.4273" y1="206.616" x2="83.3207" y2="206.408" gradientUnits="userSpaceOnUse">
<stop stop-color="#DCDCDC"/>
<stop offset="1" stop-color="#DCDCDC" stop-opacity="0"/>
</linearGradient>
<linearGradient id="paint6_linear_4794_61700" x1="83.2015" y1="206.629" x2="83.0701" y2="206.433" gradientUnits="userSpaceOnUse">
<stop stop-color="#DCDCDC"/>
<stop offset="1" stop-color="#DCDCDC" stop-opacity="0"/>
</linearGradient>
<linearGradient id="paint7_linear_4794_61700" x1="83.3752" y1="206.76" x2="83.2659" y2="206.553" gradientUnits="userSpaceOnUse">
<stop stop-color="#DCDCDC"/>
<stop offset="1" stop-color="#DCDCDC" stop-opacity="0"/>
</linearGradient>
<linearGradient id="paint8_linear_4794_61700" x1="83.615" y1="206.291" x2="83.5041" y2="206.079" gradientUnits="userSpaceOnUse">
<stop stop-color="#DCDCDC"/>
<stop offset="1" stop-color="#DCDCDC" stop-opacity="0"/>
</linearGradient>
<linearGradient id="paint9_linear_4794_61700" x1="83.5068" y1="206.464" x2="83.2881" y2="206.144" gradientUnits="userSpaceOnUse">
<stop stop-color="#DCDCDC"/>
<stop offset="1" stop-color="#DCDCDC" stop-opacity="0"/>
</linearGradient>
<linearGradient id="paint10_linear_4794_61700" x1="83.2064" y1="206.454" x2="83.0834" y2="206.316" gradientUnits="userSpaceOnUse">
<stop stop-color="#DCDCDC"/>
<stop offset="1" stop-color="#DCDCDC" stop-opacity="0"/>
</linearGradient>
</defs>
</svg>
