<svg width="21" height="24" viewBox="0 0 21 24" fill="none" xmlns="http://www.w3.org/2000/svg">
<path fill-rule="evenodd" clip-rule="evenodd" d="M10.2488 1.88764C9.80591 1.88764 9.37372 2.03126 9.01718 2.29877C8.49807 2.68822 8.18899 3.30267 8.18899 3.95914V4.02043H12.811V3.95914C12.811 3.30267 12.5019 2.68822 11.9828 2.29877C11.6263 2.03126 11.1941 1.88764 10.7512 1.88764H10.2488ZM14.7201 4.02043V3.95914C14.7201 2.71742 14.1358 1.54447 13.1368 0.795004C12.4498 0.279589 11.6127 0 10.7512 0H10.2488C9.38727 0 8.55022 0.279587 7.86322 0.795004C6.86425 1.54447 6.2799 2.71742 6.2799 3.95914V4.02043H0.954545C0.427364 4.02043 0 4.44299 0 4.96425C0 5.48551 0.427364 5.90807 0.954545 5.90807H2.00956V14.5397C2.00956 17.8164 2.43665 20.2672 3.85006 21.8645C5.29966 23.5028 7.55656 24 10.5 24C13.4434 24 15.7003 23.5028 17.1499 21.8645C18.5633 20.2672 18.9904 17.8164 18.9904 14.5397V5.90807H20.0455C20.5726 5.90807 21 5.48551 21 4.96425C21 4.44299 20.5726 4.02043 20.0455 4.02043H14.7201ZM17.0813 5.90807H3.91865V14.5397C3.91865 17.7834 4.37471 19.5907 5.28685 20.6216C6.16276 21.6115 7.67384 22.1124 10.5 22.1124C13.3262 22.1124 14.8372 21.6115 15.7132 20.6216C16.6253 19.5907 17.0813 17.7834 17.0813 14.5397V5.90807ZM7.73684 9.67416C8.26402 9.67416 8.69138 10.0967 8.69138 10.618V16.8999C8.69138 17.4212 8.26402 17.8437 7.73684 17.8437C7.20965 17.8437 6.78229 17.4212 6.78229 16.8999V10.618C6.78229 10.0967 7.20965 9.67416 7.73684 9.67416ZM13.2632 9.67416C13.7903 9.67416 14.2177 10.0967 14.2177 10.618V16.8999C14.2177 17.4212 13.7903 17.8437 13.2632 17.8437C12.736 17.8437 12.3086 17.4212 12.3086 16.8999V10.618C12.3086 10.0967 12.736 9.67416 13.2632 9.67416Z" fill="#FF7083"/>
</svg>
