<svg width="28" height="28" viewBox="0 0 28 28" fill="none" xmlns="http://www.w3.org/2000/svg">
<path fill-rule="evenodd" clip-rule="evenodd" d="M12.7578 4.97353C13.1895 5.38616 13.1895 6.05517 12.7578 6.4678L9.60954 9.47748H14.9237C18.9253 9.47748 22.1693 12.5786 22.1693 16.4041C22.1693 20.2296 18.9253 23.3307 14.9237 23.3307H9.88857C9.27815 23.3307 8.78331 22.8577 8.78331 22.2741C8.78331 21.6906 9.27815 21.2175 9.88857 21.2175H14.9237C17.7045 21.2175 19.9587 19.0625 19.9587 16.4041C19.9587 13.7457 17.7045 11.5907 14.9237 11.5907H9.60955L12.7578 14.6003C13.1895 15.013 13.1895 15.682 12.7578 16.0946C12.3262 16.5072 11.6264 16.5072 11.1948 16.0946L6.15966 11.2812C5.95239 11.0831 5.83594 10.8143 5.83594 10.5341C5.83594 10.2539 5.95238 9.9851 6.15966 9.78695L11.1947 4.97353C11.6264 4.56091 12.3262 4.56091 12.7578 4.97353Z" fill="black"/>
</svg>
