<svg viewBox="0 0 28 28" fill="none" xmlns="http://www.w3.org/2000/svg">
<path fill-rule="evenodd" clip-rule="evenodd" d="M12.7539 4.97549C13.1856 5.38812 13.1856 6.05712 12.7539 6.46975L9.60564 9.47943H14.9198C18.9214 9.47943 22.1654 12.5806 22.1654 16.4061C22.1654 20.2315 18.9214 23.3327 14.9198 23.3327H9.88466C9.27424 23.3327 8.7794 22.8596 8.7794 22.2761C8.7794 21.6925 9.27424 21.2195 9.88466 21.2195H14.9198C17.7006 21.2195 19.9548 19.0644 19.9548 16.4061C19.9548 13.7477 17.7006 11.5926 14.9198 11.5926H9.60565L12.7539 14.6023C13.1856 15.0149 13.1856 15.6839 12.7539 16.0966C12.3223 16.5092 11.6225 16.5092 11.1908 16.0966L6.15576 11.2832C5.94848 11.085 5.83203 10.8163 5.83203 10.536C5.83203 10.2558 5.94848 9.98706 6.15576 9.78891L11.1908 4.97549C11.6225 4.56286 12.3223 4.56286 12.7539 4.97549Z" fill="black"/>
</svg>
