<svg width="66" height="66" viewBox="0 0 66 66" fill="none" xmlns="http://www.w3.org/2000/svg">
<path d="M41.8857 39.6631C43.1077 39.6631 44.1074 40.6629 44.1074 41.8848C44.1073 43.1066 43.1076 44.1064 41.8857 44.1064H24.1123C15.5368 44.1066 8.56055 51.0827 8.56055 59.6582C8.56033 60.8799 7.56065 61.8799 6.33887 61.8799C5.1173 61.8796 4.1174 60.8798 4.11719 59.6582C4.11719 48.6389 13.093 39.6633 24.1123 39.6631H41.8857ZM33 4.11719C41.5756 4.11719 48.5518 11.0933 48.5518 19.6689C48.5516 28.2444 41.5755 35.2207 33 35.2207C24.4247 35.2205 17.4494 28.2443 17.4492 19.6689C17.4492 11.0935 24.4246 4.11739 33 4.11719ZM33 8.56055C26.8684 8.56075 21.8916 13.5373 21.8916 19.6689C21.8918 25.8004 26.8685 30.7771 33 30.7773C39.1317 30.7773 44.1082 25.8006 44.1084 19.6689C44.1084 13.5372 39.1318 8.56055 33 8.56055Z" fill="white"/>
<path fill-rule="evenodd" clip-rule="evenodd" d="M48.8322 47.2275C49.4689 46.5908 50.5022 46.5908 51.1389 47.2275C51.7754 47.8641 51.7755 48.8975 51.1389 49.5341L46.4192 54.2529H63.4768C64.3863 54.253 65.124 54.9255 65.1242 55.7538C65.1242 56.5824 64.3864 57.2547 63.4768 57.2548H46.4172L51.1389 61.9765C51.7753 62.6132 51.7754 63.6466 51.1389 64.2831C50.5023 64.9196 49.4689 64.9195 48.8322 64.2831L41.5871 57.0371C41.2359 56.6858 41.0782 56.2143 41.1145 55.7548C41.0783 55.2955 41.2361 54.8237 41.5871 54.4726L48.8322 47.2275Z" fill="white"/>
</svg>
