<svg viewBox="0 0 48 48" fill="none" xmlns="http://www.w3.org/2000/svg">
<path fill-rule="evenodd" clip-rule="evenodd" d="M15.4637 2.01323C15.4325 2.0187 15.3303 2.04246 15.2364 2.06605C14.6814 2.20562 14.1686 2.58316 13.8222 3.10732C13.4439 3.67968 13.3024 4.06883 13.0959 5.10567C12.8572 6.30362 12.6268 6.9535 12.0564 8.03786C11.9607 8.21985 11.6666 8.68931 11.5209 8.89268C11.4636 8.97255 11.3607 9.11772 11.2921 9.21526C11.0171 9.60639 10.2512 10.5602 10.1009 10.6988C10.0873 10.7112 10.0058 10.8031 9.9197 10.903C9.83362 11.0028 9.70675 11.1462 9.63778 11.2217C9.42126 11.4585 9.29047 11.6042 9.13827 11.7779C9.01036 11.9239 8.77206 12.1851 8.60249 12.3652L8.55026 12.4207L8.3965 12.2731C8.20472 12.089 8.07483 11.9998 7.83857 11.8902C7.45439 11.712 7.56378 11.7198 5.46544 11.7198C3.36494 11.7198 3.47703 11.7117 3.08844 11.892C2.60179 12.1178 2.24096 12.5076 2.07165 12.9904L2.00799 13.172L2.002 19.4911C1.99679 24.9831 2.00037 25.8341 2.02946 25.9918C2.05288 26.1189 2.09868 26.2448 2.18213 26.4116C2.28211 26.6115 2.33247 26.6813 2.49473 26.845C2.78395 27.1368 3.05776 27.2952 3.44291 27.3936C3.63882 27.4436 3.65444 27.444 5.4541 27.444C7.1349 27.444 7.28088 27.4409 7.44555 27.4023C7.84766 27.3079 8.20005 27.1064 8.46517 26.8193C8.58209 26.6926 8.74809 26.4512 8.78366 26.356C8.78917 26.3413 8.82187 26.3487 8.86907 26.3753C9.12011 26.517 9.51769 26.72 9.6712 26.785C10.0351 26.9392 10.8516 27.1556 11.2954 27.2156C11.8442 27.2897 11.9939 27.3023 12.4969 27.3162C13.1655 27.3348 19.8933 27.3279 20.0511 27.3085C20.334 27.2737 20.5924 27.1996 20.8006 27.0935C21.7144 26.6278 22.2023 25.7605 22.2853 24.4539C22.303 24.1757 22.3104 24.158 22.4345 24.097C22.5707 24.0301 22.8902 23.7886 23.0412 23.6384C23.246 23.4347 23.3242 23.3286 23.4913 23.0276C23.7989 22.4733 23.8419 21.6468 23.6012 20.9107C23.577 20.8366 23.5632 20.757 23.5705 20.734C23.5778 20.7109 23.6263 20.6652 23.6782 20.6324C23.835 20.5333 24.1137 20.2894 24.2374 20.143C24.4039 19.946 24.571 19.6518 24.6656 19.389L24.7474 19.1621L24.7476 18.6516L24.7478 18.1411L24.6714 17.8809C24.6294 17.7378 24.5452 17.5121 24.4844 17.3794C24.4235 17.2467 24.3737 17.1061 24.3737 17.0669C24.3737 17.0096 24.4077 16.9587 24.5461 16.8083C24.9189 16.403 25.1585 15.9473 25.2732 15.425C25.3299 15.1666 25.3293 14.5262 25.272 14.2497C25.1956 13.8812 25.0174 13.4477 24.8571 13.2403C24.6978 13.0343 24.3435 12.6845 24.2048 12.5964C23.8816 12.3909 23.7019 12.2965 23.5284 12.241C23.4634 12.2202 23.3452 12.1778 23.2657 12.1469C23.0636 12.0681 22.6444 11.9884 22.1519 11.9353C21.7596 11.893 21.5749 11.89 19.2934 11.89C17.9518 11.89 16.8487 11.8844 16.8419 11.8776C16.8268 11.8625 16.9046 11.6568 17.2276 10.8576C17.5656 10.021 17.8757 9.1486 18.026 8.61128C18.0539 8.51144 18.1051 8.33276 18.1398 8.2142C18.1964 8.0203 18.2264 7.89434 18.3339 7.39736C18.3901 7.13727 18.4993 6.44159 18.5279 6.16076C18.5622 5.82354 18.5612 5.05923 18.5259 4.7491C18.495 4.4768 18.398 4.06556 18.2969 3.77831C18.0689 3.13019 17.5425 2.51622 16.9658 2.22584C16.6128 2.04801 16.3621 1.99605 15.8779 2.00023C15.6812 2.00193 15.4949 2.00779 15.4637 2.01323ZM40.6598 20.3183C40.0638 20.4285 39.5073 20.8223 39.2638 21.3063C39.2356 21.3625 39.2103 21.4122 39.2078 21.4169C39.2052 21.4215 39.1542 21.3962 39.0944 21.3607C38.7491 21.1556 38.3047 20.9457 38.0108 20.8488C37.2578 20.6005 36.6835 20.4915 35.8117 20.4313C35.5212 20.4113 28.1068 20.4137 27.9365 20.4339C27.3838 20.4995 26.9558 20.7188 26.5375 21.1509C26.3682 21.3256 26.1195 21.6516 26.1195 21.6985C26.1195 21.705 26.0785 21.7982 26.0284 21.9056C25.9783 22.0131 25.9227 22.1545 25.9048 22.2199C25.8869 22.2852 25.8572 22.3864 25.8388 22.4448C25.7927 22.5905 25.7324 23.0121 25.713 23.3237C25.6945 23.6206 25.722 23.5808 25.3826 23.8002C24.9251 24.096 24.5401 24.571 24.3721 25.0469C24.3109 25.2201 24.2377 25.6983 24.2377 25.9245C24.2377 26.198 24.3054 26.6 24.4067 26.9277C24.4489 27.0644 24.4327 27.1177 24.3331 27.1692C24.2549 27.2097 23.9561 27.4578 23.8551 27.5661C23.6155 27.823 23.4492 28.099 23.3341 28.431L23.2515 28.6692L23.2519 29.1911L23.2524 29.713L23.3367 29.9891C23.3831 30.141 23.4633 30.3554 23.5148 30.4656C23.5663 30.5758 23.6135 30.7083 23.6197 30.76C23.6306 30.8514 23.6259 30.8595 23.4545 31.0429C23.1794 31.3373 22.9417 31.728 22.8202 32.0856C22.7118 32.4046 22.6854 32.5904 22.6868 33.0257C22.6882 33.4682 22.7079 33.6109 22.8135 33.9447C22.9608 34.4103 23.1904 34.7633 23.5732 35.113C23.9646 35.4705 24.6078 35.7603 25.2806 35.8824C25.8902 35.993 25.9374 35.9947 28.6241 36.0037C30.0204 36.0083 31.1653 36.0146 31.1684 36.0177C31.1761 36.0254 31.0392 36.3907 30.9418 36.6221C29.8772 39.152 29.3578 41.334 29.452 42.8799C29.4884 43.4757 29.5843 43.9339 29.7617 44.3594C29.8442 44.5573 29.9036 44.6577 30.1579 45.0287C30.2505 45.164 30.5515 45.45 30.7445 45.5862C30.9629 45.7403 31.2765 45.8873 31.4927 45.9367C31.725 45.9898 32.1426 46.0151 32.3845 45.9906C32.7994 45.9486 33.1107 45.8382 33.4461 45.614C33.806 45.3735 34.0886 45.0503 34.3748 44.5522C34.5807 44.194 34.7695 43.6017 34.8703 42.998C34.8964 42.842 34.9316 42.6633 34.9486 42.6009C34.9656 42.5385 34.9967 42.4058 35.0176 42.3059C35.222 41.3309 35.7783 40.0639 36.406 39.1438C36.471 39.0485 36.582 38.8837 36.6527 38.7776C36.7235 38.6716 36.8236 38.5337 36.8752 38.4713C36.9268 38.4089 37.0045 38.309 37.0478 38.2493C37.1816 38.0649 37.392 37.7918 37.4187 37.7679C37.4326 37.7555 37.4707 37.7095 37.5033 37.6658C37.5359 37.6222 37.5926 37.5558 37.6293 37.5183C37.6661 37.4809 37.8173 37.3073 37.9653 37.1326C38.1134 36.9579 38.2913 36.7534 38.3607 36.6781C38.5128 36.5131 38.7476 36.2492 38.8981 36.0738C38.9588 36.0032 39.1053 35.8386 39.2238 35.7082L39.4391 35.4711L39.5905 35.6135C39.8657 35.8724 40.1483 36.0323 40.5019 36.1291C40.6853 36.1794 40.6943 36.1796 42.5338 36.1796H44.3816L44.5706 36.1279C45.1821 35.9606 45.6641 35.5497 45.8819 35.0101C46.0105 34.6915 46.0035 35.1028 45.9972 28.1762C45.9916 22.1632 45.989 21.7865 45.9515 21.662C45.7583 21.0211 45.2653 20.5538 44.563 20.3462C44.4091 20.3007 44.3493 20.2991 42.6132 20.2938C41.2068 20.2895 40.7873 20.2948 40.6598 20.3183Z" fill="#FF9143"/>
</svg>
