<svg width="80" height="80" viewBox="0 0 80 80" fill="none" xmlns="http://www.w3.org/2000/svg">
<path d="M48.8926 13.9348C51.9098 16.5038 53.634 20.2132 53.6317 24.1058C53.6316 31.5061 47.5239 37.5499 39.9979 37.5521C36.3494 37.5521 32.9251 36.1524 30.3504 33.6108C27.7757 31.0689 26.3607 27.6968 26.3607 24.1067C26.3607 20.211 28.0848 16.5033 31.1007 13.9357C32.1876 13.0099 32.3414 11.4046 31.4666 10.2953L31.3791 10.1902C30.4104 9.08128 28.7267 8.96605 27.6128 9.91596C23.4198 13.4871 21.0099 18.6595 21.0122 24.1075C21.0111 27.3628 21.8513 30.4915 23.423 33.2565C20.282 33.2929 17.1083 34.0973 14.1982 35.7548C9.42461 38.4765 6.08809 43.1184 5.04838 48.4917C4.7687 49.9393 5.73116 51.3229 7.17327 51.5961L7.17994 51.5969C8.61405 51.8574 10.0201 50.9378 10.3018 49.4912C11.0485 45.6362 13.4394 42.3033 16.8641 40.3506L16.8649 40.3514C23.3813 36.6413 31.7433 38.858 35.4997 45.2756C39.2507 51.6872 37.0195 59.9245 30.5096 63.6344C27.1891 65.5261 23.215 65.9388 19.5459 64.789L19.1916 64.6731C17.8421 64.2039 16.3719 64.8758 15.8387 66.1753L15.7904 66.3028C15.3 67.6942 16.0483 69.2038 17.4385 69.6815C19.4813 70.3848 21.6008 70.7318 23.7115 70.7318C27.0012 70.7318 30.2672 69.8876 33.1764 68.2302C36.0945 66.567 38.394 64.2459 40.0004 61.5654C41.6064 64.2455 43.9056 66.5683 46.8261 68.2327C49.7329 69.8902 52.9982 70.7343 56.2868 70.7343C58.3955 70.7331 60.5177 70.3869 62.5606 69.6848C63.95 69.2061 64.6991 67.6971 64.2087 66.3053C63.7188 64.9156 62.1926 64.205 60.81 64.6731L60.8059 64.6748C57.0422 65.9699 52.9175 65.5876 49.4945 63.6361C42.9821 59.925 40.7516 51.6873 44.5028 45.2756C48.2579 38.8583 56.6174 36.6407 63.1375 40.3531C66.5634 42.3032 68.9536 45.6342 69.6956 49.4887C69.9743 50.9409 71.384 51.8571 72.8166 51.5969L72.8225 51.5961C74.2633 51.3233 75.2298 49.9425 74.9499 48.4934C73.9139 43.1174 70.5767 38.4751 65.8017 35.7557C62.8859 34.0941 59.7036 33.29 56.5561 33.2565C58.0401 30.6482 58.9165 27.6582 58.9786 24.4718L58.9819 24.1067C58.9843 18.6602 56.5722 13.4888 52.3805 9.91429L52.3796 9.91346C51.3008 8.99657 49.6875 9.07397 48.7084 10.0869L48.6158 10.1877C47.6459 11.2973 47.7691 12.9763 48.8918 13.934L48.8926 13.9348Z" fill="white"/>
<path d="M52.3746 40.4307C52.3746 33.5947 46.833 28.0531 39.9971 28.0531C33.1611 28.0531 27.6195 33.5947 27.6195 40.4307C27.6195 47.2666 33.1611 52.8082 39.9971 52.8082V55.3691C31.7468 55.3691 25.0586 48.6809 25.0586 40.4307C25.0586 32.1804 31.7468 25.4922 39.9971 25.4922C48.2473 25.4922 54.9355 32.1804 54.9355 40.4307C54.9355 48.6809 48.2473 55.3691 39.9971 55.3691V52.8082C46.833 52.8082 52.3746 47.2666 52.3746 40.4307Z" fill="white"/>
</svg>
