<svg width="600" height="600" viewBox="30 50 600 600" fill="none" xmlns="http://www.w3.org/2000/svg">
<ellipse cx="313.789" cy="461.615" rx="22.328" ry="8.17364" stroke="white" stroke-width="0.996786"/>
<ellipse cx="146.13" cy="397.92" rx="18.3409" ry="5.68168" stroke="white" stroke-width="0.996786"/>
<path d="M330.527 466.771C332.666 465.616 333.914 464.227 333.914 462.733C333.914 458.717 324.902 455.461 313.785 455.461C302.668 455.461 293.656 458.717 293.656 462.733C293.656 464.227 294.904 465.616 297.043 466.771" stroke="white" stroke-width="0.398714" stroke-linecap="round"/>
<path d="M159.857 401.46C161.612 400.676 162.635 399.733 162.635 398.718C162.635 395.992 155.244 393.781 146.126 393.781C137.009 393.781 129.617 395.992 129.617 398.718C129.617 399.733 130.64 400.676 132.395 401.46" stroke="white" stroke-width="0.398714" stroke-linecap="round"/>
<path d="M364.621 444.071L364.862 443.635L364.621 444.071ZM238.229 385.759L238.392 385.288L238.262 385.243L238.126 385.272L238.229 385.759ZM369.107 431.213L369.25 431.69C369.457 431.628 369.6 431.44 369.605 431.224C369.61 431.007 369.475 430.813 369.27 430.742L369.107 431.213ZM229.376 470.464L229.57 470.006V470.006L229.376 470.464ZM112.522 420.886L112.327 421.345L112.522 420.886ZM112.656 419.005L112.528 418.523L112.528 418.523L112.656 419.005ZM243.213 468.621L243.362 469.097L243.368 469.095L243.213 468.621ZM236.246 470.801L236.097 470.326V470.326L236.246 470.801ZM119.711 417.138L119.839 417.619L119.847 417.617L119.855 417.615L119.711 417.138ZM122.801 405.065L122.601 405.521L122.605 405.523L122.801 405.065ZM202.843 382.945L203.018 382.478L203.016 382.477L202.843 382.945ZM204.737 383.655L204.942 383.201L204.927 383.194L204.912 383.189L204.737 383.655ZM338.248 471.483L338.063 471.02L338.248 471.483ZM140.02 388.219L140.155 388.699L140.02 388.219ZM313.187 475.57V475.071C303.278 475.071 294.376 473.481 288.156 470.957L287.969 471.419L287.781 471.881C294.151 474.465 303.188 476.068 313.187 476.068V475.57ZM364.621 444.071L364.38 444.507C366.563 445.714 368.447 447.035 369.844 448.412C371.246 449.795 372.124 451.199 372.367 452.571C372.606 453.917 372.248 455.302 371.027 456.706C369.792 458.127 367.677 459.558 364.428 460.927L364.621 461.386L364.815 461.846C368.132 460.448 370.404 458.943 371.78 457.36C373.17 455.762 373.647 454.079 373.349 452.397C373.055 450.742 372.022 449.16 370.544 447.703C369.062 446.241 367.095 444.869 364.862 443.635L364.621 444.071ZM238.229 385.759L238.065 386.23L368.943 431.684L369.107 431.213L369.27 430.742L238.392 385.288L238.229 385.759ZM229.376 470.464L229.57 470.006L112.716 420.427L112.522 420.886L112.327 421.345L229.181 470.923L229.376 470.464ZM112.522 420.886L112.716 420.427C112.279 420.242 112.324 419.608 112.783 419.487L112.656 419.005L112.528 418.523C111.151 418.888 111.016 420.789 112.327 421.345L112.522 420.886ZM262.949 465.602V466.1C273.609 466.1 281.535 469.144 287.969 471.94L288.168 471.483L288.367 471.026C281.89 468.212 273.814 465.103 262.949 465.103V465.602ZM243.213 468.621L243.368 469.095C249.195 467.19 256.418 466.1 262.949 466.1V465.602V465.103C256.323 465.103 248.993 466.207 243.058 468.147L243.213 468.621ZM236.246 470.801L236.394 471.277L243.362 469.097L243.213 468.621L243.064 468.145L236.097 470.326L236.246 470.801ZM112.656 419.005L112.783 419.487L119.839 417.619L119.711 417.138L119.584 416.656L112.528 418.523L112.656 419.005ZM229.376 470.464L229.181 470.923C231.467 471.893 234.024 472.019 236.394 471.277L236.246 470.801L236.097 470.326C233.952 470.997 231.639 470.883 229.57 470.006L229.376 470.464ZM364.621 444.071L364.862 443.635C362.2 442.164 361.033 440.152 361.033 438.383H360.535H360.036C360.036 440.617 361.5 442.916 364.38 444.507L364.621 444.071ZM360.535 438.383H361.033C361.033 437.11 361.536 435.918 362.8 434.802C364.083 433.67 366.147 432.619 369.25 431.69L369.107 431.213L368.964 430.735C365.799 431.683 363.578 432.786 362.141 434.055C360.685 435.34 360.036 436.795 360.036 438.383H360.535ZM122.801 405.065L123.001 404.608C121.098 403.773 119.579 402.812 118.544 401.799C117.506 400.784 116.994 399.76 116.994 398.785H116.496H115.997C115.997 400.126 116.701 401.391 117.847 402.512C118.996 403.635 120.629 404.656 122.601 405.521L122.801 405.065ZM180.914 379.668V380.166C189.558 380.166 197.309 381.425 202.67 383.412L202.843 382.945L203.016 382.477C197.514 380.438 189.638 379.17 180.914 379.17V379.668ZM224.873 387.044V386.546C216.647 386.546 209.398 385.216 204.942 383.201L204.737 383.655L204.532 384.109C209.163 386.204 216.568 387.543 224.873 387.543V387.044ZM238.229 385.759L238.126 385.272C234.302 386.077 229.755 386.546 224.873 386.546V387.044V387.543C229.816 387.543 234.432 387.069 238.332 386.247L238.229 385.759ZM122.801 405.065L122.605 405.523C124.318 406.257 125.655 407.091 126.555 407.968C127.455 408.845 127.885 409.729 127.885 410.579H128.383H128.882C128.882 409.371 128.268 408.246 127.25 407.254C126.233 406.263 124.779 405.369 122.997 404.607L122.801 405.065ZM128.383 410.579H127.885C127.885 411.653 127.194 412.761 125.746 413.834C124.306 414.899 122.198 415.866 119.567 416.66L119.711 417.138L119.855 417.615C122.545 416.802 124.772 415.794 126.339 414.635C127.896 413.482 128.882 412.114 128.882 410.579H128.383ZM204.737 383.655L204.912 383.189L203.018 382.478L202.843 382.945L202.668 383.411L204.562 384.122L204.737 383.655ZM338.248 471.483L338.063 471.02C331.85 473.507 323.013 475.071 313.187 475.071V475.57V476.068C323.104 476.068 332.072 474.492 338.433 471.946L338.248 471.483ZM364.621 461.386L364.428 460.927C357.871 463.689 353.861 465.18 350.203 466.494C346.543 467.81 343.222 468.955 338.063 471.02L338.248 471.483L338.433 471.946C343.572 469.888 346.872 468.751 350.541 467.432C354.212 466.113 358.239 464.616 364.815 461.846L364.621 461.386ZM116.496 398.785H116.994C116.994 397.99 117.514 397.166 118.685 396.294C119.844 395.429 121.546 394.592 123.68 393.758C127.946 392.091 133.796 390.49 140.155 388.699L140.02 388.219L139.885 387.74C133.553 389.523 127.641 391.14 123.317 392.829C121.157 393.674 119.357 394.549 118.089 395.495C116.831 396.432 115.997 397.515 115.997 398.785H116.496ZM140.02 388.219L140.155 388.699C147.482 386.635 155.497 384.5 162.775 382.882C170.066 381.26 176.577 380.166 180.914 380.166V379.668V379.17C176.457 379.17 169.852 380.287 162.559 381.909C155.254 383.533 147.219 385.674 139.885 387.74L140.02 388.219Z" fill="white"/>
<path d="M285.726 483.252C292.571 485.888 301.925 486.739 312.749 486.739C323.934 486.739 334.156 484.877 341.505 481.657C352.013 478.067 374.316 470.343 378.159 464.339C382.002 458.335 380.427 450.372 367.635 442.219M285.943 483.318C278.923 480.423 274.851 478.067 263.148 478.067C253.918 478.067 247.341 481.326 238.528 483.944C233.942 485.824 228.261 486.739 224.606 484.858L105.482 433.896C104.959 433.672 104.727 433.062 104.974 432.551C105.993 430.441 108.491 425.274 109.878 422.419C110.447 421.249 111.227 420.197 112.178 419.31L112.235 419.257M117.617 396.426C116.122 397.722 115.026 399.516 113.232 403.702C111.637 407.424 115.126 410.536 118.814 412.175C121.605 413.415 120.907 416.561 118.016 417.558" stroke="white" stroke-width="0.996786"/>
<ellipse cx="236.24" cy="426.429" rx="75.357" ry="23.6238" stroke="white" stroke-width="0.996786"/>
<ellipse cx="236.242" cy="428.122" rx="66.984" ry="18.7396" stroke="white" stroke-width="0.996786"/>
<path d="M300.232 433.704C299.624 432.492 298.559 431.319 297.088 430.199C288.17 423.411 264.292 418.553 236.236 418.553C208.18 418.553 184.302 423.411 175.384 430.199C173.914 431.318 172.851 432.489 172.242 433.699" stroke="white" stroke-width="0.996786"/>
<path d="M308.767 459.323C309.25 459.332 309.745 459.415 310.128 459.585L314.107 461.354L318.454 459.729C318.863 459.575 319.369 459.509 319.854 459.518C320.337 459.526 320.832 459.609 321.215 459.779C321.57 459.937 321.903 460.212 321.861 460.61C321.841 460.8 321.735 460.955 321.603 461.074C321.47 461.193 321.294 461.29 321.089 461.366L317.313 462.779L320.737 464.302C321.092 464.459 321.426 464.735 321.384 465.133C321.364 465.322 321.259 465.478 321.126 465.597C320.993 465.715 320.817 465.812 320.612 465.889C320.203 466.042 319.697 466.108 319.212 466.1C318.728 466.091 318.234 466.008 317.852 465.838L313.87 464.066L309.525 465.694C309.116 465.848 308.61 465.914 308.125 465.905C307.641 465.897 307.148 465.813 306.765 465.643C306.41 465.485 306.076 465.21 306.118 464.812C306.138 464.623 306.244 464.466 306.377 464.348C306.51 464.229 306.686 464.132 306.891 464.056L310.666 462.643L307.241 461.12C306.887 460.962 306.554 460.688 306.596 460.29C306.616 460.101 306.721 459.944 306.854 459.825C306.986 459.706 307.163 459.61 307.367 459.533C307.776 459.38 308.282 459.315 308.767 459.323Z" stroke="white" stroke-width="0.598072"/>
<path d="M142.926 395.627C143.327 395.633 143.734 395.698 144.046 395.825L147.422 397.204L151.107 395.938C151.442 395.822 151.86 395.772 152.262 395.778C152.663 395.785 153.07 395.848 153.382 395.976C153.538 396.039 153.669 396.119 153.762 396.216C153.856 396.315 153.917 396.444 153.9 396.59C153.884 396.731 153.799 396.846 153.694 396.933C153.589 397.02 153.447 397.092 153.279 397.149L150.024 398.269L152.98 399.477C153.136 399.54 153.267 399.62 153.359 399.717C153.454 399.816 153.516 399.945 153.499 400.092C153.483 400.233 153.398 400.347 153.293 400.434C153.187 400.521 153.045 400.593 152.878 400.65C152.543 400.766 152.126 400.816 151.724 400.81C151.322 400.803 150.916 400.739 150.604 400.611L147.227 399.231L143.542 400.5C143.207 400.615 142.79 400.666 142.388 400.659C141.986 400.653 141.58 400.589 141.268 400.461C141.112 400.397 140.981 400.319 140.889 400.222C140.794 400.122 140.732 399.993 140.749 399.847C140.765 399.705 140.85 399.59 140.955 399.504C141.061 399.417 141.203 399.346 141.37 399.288L144.624 398.167L141.669 396.96C141.513 396.896 141.382 396.818 141.29 396.721C141.196 396.621 141.134 396.492 141.15 396.346C141.167 396.204 141.251 396.089 141.356 396.003C141.462 395.916 141.604 395.845 141.771 395.787C142.107 395.672 142.524 395.62 142.926 395.627Z" stroke="white" stroke-width="0.398714"/>
<path d="M234.641 386.458L239.026 385.283V227.77" stroke="white" stroke-width="0.996786"/>
<path d="M237.246 391.345L128.157 420.933C127.058 421.231 126.957 422.75 128.007 423.191L227.56 464.984C229.434 465.771 231.523 465.883 233.469 465.3L350.17 430.394C351.286 430.06 351.315 428.49 350.212 428.115L242.362 391.505C240.71 390.944 238.929 390.888 237.246 391.345Z" stroke="white" stroke-width="0.398714"/>
<path d="M366.161 613.565L362.492 610.223L365.101 600.033C365.916 596.636 367.856 589.354 369.095 587.397C370.644 584.952 374.231 583.647 376.758 582.588C378.78 581.74 463.902 548.649 506.21 532.209L546.399 547.209L365.101 621.391L366.161 620.005L366.731 617.886L366.161 613.565Z" fill="url(#paint0_linear_7228_283412)" fill-opacity="0.5"/>
<path d="M233.251 406.093C233.251 407.139 232.403 407.987 231.357 407.987C230.311 407.987 229.463 407.139 229.463 406.093C229.463 405.047 230.311 404.199 231.357 404.199C232.403 404.199 233.251 405.047 233.251 406.093Z" stroke="white" stroke-width="0.398714"/>
<path d="M224.678 406.492C224.678 407.538 223.83 408.386 222.784 408.386C221.738 408.386 220.89 407.538 220.89 406.492C220.89 405.446 221.738 404.598 222.784 404.598C223.83 404.598 224.678 405.446 224.678 406.492Z" stroke="white" stroke-width="0.398714"/>
<path d="M216.305 407.09C216.305 408.136 215.457 408.984 214.411 408.984C213.365 408.984 212.517 408.136 212.517 407.09C212.517 406.044 213.365 405.196 214.411 405.196C215.457 405.196 216.305 406.044 216.305 407.09Z" stroke="white" stroke-width="0.398714"/>
<path d="M208.132 407.887C208.132 408.933 207.373 409.781 206.437 409.781C205.501 409.781 204.743 408.933 204.743 407.887C204.743 406.841 205.501 405.993 206.437 405.993C207.373 405.993 208.132 406.841 208.132 407.887Z" stroke="white" stroke-width="0.398714"/>
<path d="M200.556 409.083C200.556 410.129 199.797 410.977 198.862 410.977C197.926 410.977 197.167 410.129 197.167 409.083C197.167 408.038 197.926 407.19 198.862 407.19C199.797 407.19 200.556 408.038 200.556 409.083Z" stroke="white" stroke-width="0.398714"/>
<path d="M193.18 410.878C193.18 411.924 192.466 412.772 191.585 412.772C190.704 412.772 189.99 411.924 189.99 410.878C189.99 409.832 190.704 408.984 191.585 408.984C192.466 408.984 193.18 409.832 193.18 410.878Z" stroke="white" stroke-width="0.398714"/>
<path d="M186.4 412.604C186.445 413.649 185.767 414.526 184.887 414.564C184.007 414.601 183.258 413.785 183.213 412.739C183.169 411.694 183.846 410.817 184.726 410.779C185.606 410.742 186.356 411.559 186.4 412.604Z" stroke="white" stroke-width="0.398714"/>
<path d="M180.419 414.595C180.472 415.639 179.891 416.518 179.122 416.557C178.352 416.596 177.685 415.781 177.632 414.736C177.579 413.692 178.16 412.813 178.929 412.774C179.699 412.735 180.366 413.55 180.419 414.595Z" stroke="white" stroke-width="0.398714"/>
<path d="M174.997 416.88C175.2 417.999 174.838 419.001 174.188 419.119C173.538 419.237 172.847 418.426 172.643 417.307C172.44 416.188 172.803 415.185 173.453 415.067C174.103 414.949 174.794 415.761 174.997 416.88Z" stroke="white" stroke-width="0.398714"/>
<path d="M170.538 419.911C170.891 421.193 170.748 422.35 170.217 422.497C169.686 422.643 168.97 421.722 168.616 420.44C168.263 419.158 168.407 418.001 168.938 417.854C169.468 417.708 170.185 418.629 170.538 419.911Z" stroke="white" stroke-width="0.398714"/>
<path d="M167.29 423.088C168.075 424.161 168.4 425.259 168.014 425.541C167.629 425.823 166.68 425.182 165.894 424.109C165.109 423.036 164.785 421.938 165.17 421.656C165.555 421.374 166.504 422.015 167.29 423.088Z" stroke="white" stroke-width="0.398714"/>
<path d="M242.022 406.093C242.022 407.139 241.174 407.987 240.128 407.987C239.082 407.987 238.235 407.139 238.235 406.093C238.235 405.047 239.082 404.199 240.128 404.199C241.174 404.199 242.022 405.047 242.022 406.093Z" stroke="white" stroke-width="0.398714"/>
<path d="M250.395 406.492C250.395 407.538 249.547 408.386 248.501 408.386C247.455 408.386 246.608 407.538 246.608 406.492C246.608 405.446 247.455 404.598 248.501 404.598C249.547 404.598 250.395 405.446 250.395 406.492Z" stroke="white" stroke-width="0.398714"/>
<path d="M258.37 407.09C258.37 408.136 257.522 408.984 256.476 408.984C255.43 408.984 254.582 408.136 254.582 407.09C254.582 406.044 255.43 405.196 256.476 405.196C257.522 405.196 258.37 406.044 258.37 407.09Z" stroke="white" stroke-width="0.398714"/>
<path d="M265.547 407.688C265.547 408.734 264.788 409.582 263.852 409.582C262.916 409.582 262.157 408.734 262.157 407.688C262.157 406.642 262.916 405.794 263.852 405.794C264.788 405.794 265.547 406.642 265.547 407.688Z" stroke="white" stroke-width="0.398714"/>
<path d="M272.524 408.884C272.524 409.93 271.765 410.778 270.829 410.778C269.894 410.778 269.135 409.93 269.135 408.884C269.135 407.838 269.894 406.99 270.829 406.99C271.765 406.99 272.524 407.838 272.524 408.884Z" stroke="white" stroke-width="0.398714"/>
<path d="M279.103 410.08C279.103 411.126 278.433 411.974 277.608 411.974C276.782 411.974 276.112 411.126 276.112 410.08C276.112 409.034 276.782 408.186 277.608 408.186C278.433 408.186 279.103 409.034 279.103 410.08Z" stroke="white" stroke-width="0.398714"/>
<path d="M284.884 411.476C284.884 412.522 284.215 413.37 283.389 413.37C282.563 413.37 281.894 412.522 281.894 411.476C281.894 410.43 282.563 409.582 283.389 409.582C284.215 409.582 284.884 410.43 284.884 411.476Z" stroke="white" stroke-width="0.398714"/>
<path d="M290.86 413.386C290.78 414.429 290.046 415.222 289.223 415.158C288.4 415.095 287.798 414.197 287.879 413.154C287.96 412.112 288.693 411.318 289.516 411.382C290.34 411.446 290.941 412.343 290.86 413.386Z" stroke="white" stroke-width="0.398714"/>
<path d="M295.862 415.368C295.734 416.406 295.054 417.176 294.344 417.088C293.634 417.001 293.162 416.088 293.29 415.05C293.418 414.012 294.098 413.241 294.809 413.329C295.519 413.417 295.991 414.33 295.862 415.368Z" stroke="white" stroke-width="0.398714"/>
<path d="M299.938 417.689C299.647 418.694 298.982 419.384 298.453 419.23C297.924 419.077 297.732 418.139 298.023 417.134C298.314 416.129 298.979 415.439 299.508 415.592C300.036 415.746 300.229 416.684 299.938 417.689Z" stroke="white" stroke-width="0.398714"/>
<path d="M303.426 420.166C303.019 421.206 302.274 421.887 301.761 421.687C301.248 421.487 301.162 420.481 301.569 419.44C301.975 418.4 302.72 417.718 303.233 417.919C303.746 418.119 303.832 419.125 303.426 420.166Z" stroke="white" stroke-width="0.398714"/>
<path d="M306.17 423.349C305.444 424.281 304.535 424.787 304.14 424.48C303.745 424.172 304.013 423.167 304.739 422.234C305.465 421.302 306.373 420.796 306.768 421.104C307.164 421.411 306.896 422.416 306.17 423.349Z" stroke="white" stroke-width="0.398714"/>
<path d="M307.67 427.155C306.574 427.875 305.492 428.162 305.253 427.797C305.014 427.433 305.708 426.555 306.803 425.836C307.899 425.117 308.981 424.829 309.22 425.194C309.459 425.558 308.765 426.436 307.67 427.155Z" stroke="white" stroke-width="0.398714"/>
<path d="M368.018 442.461C365.426 440.567 366.33 438.95 370.311 437.577L399.337 429.047M545.404 387.131L494.765 402.072" stroke="white" stroke-width="0.996786"/>
<path d="M534.245 336.617L483.533 350.361M371.203 380.417L393.377 374.339" stroke="white" stroke-width="0.996786"/>
<path d="M534.245 333.588L477.836 348.742M371.203 377.388L401 369.383" stroke="white" stroke-width="0.398714"/>
<path d="M505.966 532.188L538.345 545.645C542.19 547.242 546.508 547.273 550.375 545.731L583.317 532.59L589.493 529.923C604.379 523.495 614.018 508.833 614.018 492.619V428.925C614.018 412.777 606.442 405.583 595.976 408.388C590.095 409.964 306.83 503.962 302.921 505.243C285.666 510.901 273.117 528.094 273.117 548.426V626.335C273.117 641.34 287.849 651.913 302.064 647.111L302.921 646.822L364.166 621.228C365.65 620.608 366.616 619.157 366.616 617.549V614.587C366.616 613.322 365.912 612.163 364.79 611.58L361.632 609.938" stroke="white" stroke-width="2.59164"/>
<path d="M280.094 582.725H282.187C282.187 576.08 282.187 566.238 282.187 558.104C282.187 549.971 278.898 520.924 312.091 509.86C337.897 501.258 590.094 416.262 593.782 414.966C597.47 413.67 601.258 413.371 602.355 414.168" stroke="white" stroke-width="0.398714"/>
<path d="M137.555 117.523L256.372 141.247" stroke="white" stroke-width="1.19614"/>
<path d="M232.152 211.023L200.503 202.872C199.872 202.709 199.258 203.185 199.258 203.837V218.109C199.258 219.924 200.483 221.51 202.239 221.968L228.641 228.848C230.952 229.45 233.369 229.526 235.713 229.069L270.528 222.287L232.152 211.023Z" stroke="white" stroke-width="1.19614"/>
<path d="M126.07 392.406C95.9076 400.245 66.1158 407.996 65.0923 408.321C51.695 412.579 41.8672 426.571 41.8672 443.174L41.9366 499.55C41.9552 514.611 50.4587 528.377 63.9187 535.134L285.581 646.419M171.424 380.544C218.276 368.399 237.386 363.631 239.031 363.631" stroke="white" stroke-width="1.19614"/>
<path d="M279.701 584.112V548.861C279.701 530.546 291.003 515.058 306.544 509.962C310.064 508.807 591.504 413.803 595.782 412.772C603.059 411.018 609.039 413.465 609.039 428.417V460.411L279.701 584.112ZM279.701 584.112V611.715M365.724 613.425L301.596 639.694C291.102 643.993 279.602 636.275 279.602 624.936V611.715M606.988 461.382V490.043C606.988 505.454 597.651 519.329 583.374 525.132L547.769 539.605C545.323 540.599 542.582 540.582 540.149 539.558L515.042 528.99" stroke="white" stroke-width="1.19614"/>
<path d="M280.195 596.082L284.36 598.078C286.346 599.03 288.636 599.119 290.69 598.323L341.597 578.591M597.971 464.605V476.7C597.971 479.197 596.419 481.431 594.079 482.304L560.99 494.637M341.597 578.591L343.622 577.806C343.738 577.762 343.854 577.721 343.97 577.684M341.597 578.591L343.97 577.684M560.99 494.637L560.796 494.711M560.99 494.637C560.925 494.661 560.86 494.686 560.796 494.711M343.97 577.684L560.796 494.711M343.97 577.684C347.787 576.459 351.765 579.303 351.765 583.383V608.553C351.765 611.368 354.604 613.297 357.221 612.259L359.874 611.208C361.722 610.475 363.085 608.873 363.511 606.932L366.739 592.257C367.597 588.356 370.345 585.141 374.066 583.686L528.269 523.398C531.241 522.236 534.603 523.613 535.906 526.527L540.967 537.845C541.796 539.697 543.938 540.568 545.824 539.818L547.266 539.245C548.779 538.644 549.834 537.254 550.007 535.635L553.333 504.499C553.803 500.095 556.684 496.326 560.796 494.711" stroke="white" stroke-width="1.79421"/>
<path d="M353.861 612.328L306.016 592.791" stroke="white" stroke-width="1.79421"/>
<path d="M273.116 546.839L41.9609 443.373" stroke="white" stroke-width="1.79421"/>
<path d="M368.608 256.077L261.055 224.279" stroke="white" stroke-width="1.79421"/>
<path d="M199.058 204.344L132.273 181.318" stroke="white" stroke-width="1.19614"/>
<path d="M333.125 564.185V567.206C333.125 567.767 333.689 568.152 334.211 567.949L351.854 561.093C352.161 560.974 352.363 560.679 352.363 560.35V556.809M392.733 542.156V545.177C392.733 545.738 393.296 546.123 393.819 545.92L411.462 539.064C411.769 538.945 411.971 538.65 411.971 538.321V534.78M448.752 521.423V524.444C448.752 525.005 449.316 525.39 449.838 525.187L467.482 518.331C467.788 518.212 467.99 517.917 467.99 517.588V514.047M500.386 501.686V504.707C500.386 505.268 500.949 505.654 501.472 505.451L519.115 498.595C519.422 498.475 519.624 498.18 519.624 497.851V494.31M549.826 482.548V485.569C549.826 486.13 550.39 486.516 550.913 486.312L568.556 479.456C568.862 479.337 569.064 479.042 569.064 478.713V475.172" stroke="white" stroke-width="1.19614"/>
<path fill-rule="evenodd" clip-rule="evenodd" d="M236.078 418.312C267.525 418.312 293.758 424.797 299.796 433.415C291.618 441.066 266.187 446.647 236.078 446.647C205.968 446.647 180.536 441.066 172.359 433.415C178.396 424.797 204.63 418.313 236.078 418.312Z" fill="#713ADA" fill-opacity="0.1"/>
<path d="M232.981 211.365L199.9 202.838C199.637 206.928 199.109 215.493 199.109 217.032C199.109 218.956 199.9 221.363 202.694 221.951C205.487 222.539 219.308 225.626 223.571 227.538C226.982 229.067 231.266 229.253 232.981 229.155V211.365Z" fill="#D9D9D9" fill-opacity="0.07"/>
<path d="M256.385 141.359L137.426 117.564C136.897 118.221 135.822 119.691 135.756 120.318C135.673 121.101 128.68 174.099 128.68 174.345C128.68 174.592 128.821 177.202 129.174 178.189C129.456 178.979 130.857 180.166 131.522 180.661L261.945 212.106H263.488C262.662 210.753 260.979 207.706 260.849 206.342C260.687 204.638 255.613 146.067 255.451 144.2C255.321 142.706 256.019 141.683 256.385 141.359Z" fill="#D9D9D9" fill-opacity="0.07"/>
<path d="M369.16 256.185L261.945 223.923L239.107 228.459L238.722 375.005V385.709L368.291 430.942C368.648 430.942 369.462 430.867 369.865 430.565L369.928 430.517C370.4 430.165 370.747 429.906 370.747 429.242V383.404C370.537 347.724 370.243 274.865 370.747 268.871C371.251 262.877 369.899 257.916 369.16 256.185Z" fill="#D9D9D9" fill-opacity="0.07"/>
<path d="M273.069 546.823L41.9462 443.635L41.4219 483.246C41.6654 490.491 41.9462 505.711 41.9462 505.711C41.9462 505.711 232.747 597.426 273.069 616.778V546.823Z" fill="#D9D9D9" fill-opacity="0.07"/>
<path d="M117.893 401.708C116.654 400.538 116.573 398.925 116.688 398.265C116 398.265 112.987 403.602 112.729 405.323C112.471 407.045 114.364 409.455 115.655 410.488C116.946 411.521 120.131 412.812 120.561 414.275C120.906 415.445 119.385 416.828 118.582 417.373C118.783 417.517 120.097 417.356 123.746 415.566C128.308 413.328 127.878 411.865 128.222 410.488C128.566 409.111 126.759 407.131 124.779 405.926C122.799 404.721 119.442 403.172 117.893 401.708Z" fill="#D9D9D9" fill-opacity="0.07"/>
<path d="M332.233 484.314L330.597 474.499C326.793 474.778 318.559 475.335 316.056 475.335H303.827L303.353 486.332C304.841 486.522 309.23 486.901 314.883 486.901C320.537 486.901 328.805 485.177 332.233 484.314Z" fill="#D9D9D9" fill-opacity="0.07"/>
<path d="M290.18 484.831L292.283 472.972L287.152 471.374C286.115 474.346 283.923 480.744 283.452 482.561C284.394 483.166 288.33 484.327 290.18 484.831Z" fill="#D9D9D9" fill-opacity="0.07"/>
<path d="M228.748 485.918L232.499 471.374L230.15 470.768L112.617 421.077L111.726 420.111L110.24 421.597C108.544 424.914 105.108 431.758 104.93 432.59C104.751 433.421 105.648 434.026 106.118 434.224C143.855 450.32 219.921 482.779 222.291 483.84C224.662 484.901 227.583 485.668 228.748 485.918Z" fill="#D9D9D9" fill-opacity="0.07"/>
<path d="M278.565 525.775C280.63 520.148 281.819 520.378 283.452 518.864L49.7036 419.407C48.2747 420.996 46.6605 422.796 45.7835 425.419C44.9065 428.041 43.6891 431.225 42.883 434.224L274.691 535.811C274.988 534.119 276.499 531.402 278.565 525.775Z" fill="#D9D9D9" fill-opacity="0.07"/>
<path d="M477.617 352.127H477.119V352.79L477.755 352.606L477.617 352.127ZM399.023 372.632L399.148 373.115V373.115L399.023 372.632ZM484.24 350.218L484.378 350.697L484.24 350.218ZM392.352 376.527H391.853L391.853 376.528L392.352 376.527ZM394.439 373.826L394.313 373.344V373.344L394.439 373.826ZM394.636 422.617L394.5 422.138L394.636 422.617ZM392.399 423.269L391.9 423.27C391.9 423.427 391.975 423.575 392.101 423.669C392.227 423.763 392.391 423.792 392.541 423.747L392.399 423.269ZM484.503 397.085L484.367 396.605L484.503 397.085ZM486.531 396.487L486.679 396.963L487.029 396.854V396.487H486.531ZM475.385 340.378L475.506 340.861V340.861L475.385 340.378ZM403.219 358.558L403.098 358.075L403.219 358.558ZM403.219 358.558L403.341 359.041L475.506 340.861L475.385 340.378L475.263 339.894L403.098 358.075L403.219 358.558ZM484.503 397.085L484.367 396.605L394.5 422.138L394.636 422.617L394.772 423.096L484.639 397.564L484.503 397.085ZM392.399 423.269L392.897 423.269L392.85 376.527L392.352 376.527L391.853 376.528L391.9 423.27L392.399 423.269ZM486.531 351.942H486.033V396.487H486.531H487.029V351.942H486.531ZM477.617 342.117H477.119V352.127H477.617H478.116V342.117H477.617ZM477.617 352.127L477.755 352.606L484.378 350.697L484.24 350.218L484.102 349.739L477.479 351.648L477.617 352.127ZM394.439 373.826L394.565 374.309L399.148 373.115L399.023 372.632L398.897 372.15L394.313 373.344L394.439 373.826ZM401.11 369.931H401.609V361.264H401.11H400.612V369.931H401.11ZM399.023 372.632L399.148 373.115C400.597 372.737 401.609 371.429 401.609 369.931H401.11H400.612C400.612 370.975 399.907 371.887 398.897 372.15L399.023 372.632ZM486.531 351.942H487.029C487.029 350.416 485.567 349.316 484.102 349.739L484.24 350.218L484.378 350.697C485.206 350.458 486.033 351.079 486.033 351.942H486.531ZM392.352 376.527H392.85C392.85 375.484 393.555 374.572 394.565 374.309L394.439 373.826L394.313 373.344C392.864 373.722 391.853 375.03 391.853 376.527H392.352ZM394.636 422.617L394.5 422.138C393.925 422.301 393.364 422.464 392.947 422.587C392.739 422.648 392.566 422.7 392.445 422.735C392.385 422.753 392.337 422.767 392.305 422.777C392.289 422.782 392.277 422.786 392.268 422.788C392.264 422.789 392.261 422.79 392.259 422.791C392.258 422.791 392.257 422.791 392.256 422.792C392.256 422.792 392.256 422.792 392.256 422.792C392.256 422.792 392.256 422.792 392.256 422.792C392.256 422.792 392.256 422.792 392.256 422.792C392.256 422.792 392.256 422.792 392.399 423.269C392.541 423.747 392.541 423.747 392.541 423.747C392.542 423.747 392.542 423.747 392.542 423.747C392.542 423.747 392.542 423.747 392.542 423.747C392.542 423.747 392.542 423.747 392.542 423.747C392.543 423.746 392.544 423.746 392.545 423.746C392.547 423.745 392.55 423.744 392.554 423.743C392.562 423.741 392.574 423.737 392.59 423.732C392.622 423.723 392.669 423.709 392.729 423.691C392.849 423.655 393.021 423.604 393.228 423.543C393.644 423.421 394.202 423.259 394.772 423.096L394.636 422.617ZM484.503 397.085L484.639 397.564C485.242 397.393 485.751 397.243 486.11 397.136C486.289 397.082 486.431 397.039 486.528 397.009C486.577 396.994 486.614 396.983 486.64 396.975C486.652 396.971 486.662 396.968 486.669 396.966C486.672 396.965 486.674 396.964 486.676 396.964C486.677 396.964 486.678 396.963 486.678 396.963C486.678 396.963 486.678 396.963 486.678 396.963C486.679 396.963 486.679 396.963 486.679 396.963C486.679 396.963 486.679 396.963 486.679 396.963C486.679 396.963 486.679 396.963 486.531 396.487C486.383 396.011 486.383 396.011 486.383 396.011C486.383 396.011 486.383 396.011 486.383 396.011C486.383 396.011 486.383 396.011 486.383 396.011C486.383 396.011 486.383 396.011 486.383 396.011C486.383 396.011 486.382 396.011 486.381 396.012C486.38 396.012 486.377 396.013 486.374 396.014C486.368 396.016 486.359 396.019 486.347 396.022C486.322 396.03 486.285 396.041 486.237 396.056C486.142 396.085 486.002 396.127 485.824 396.181C485.469 396.287 484.964 396.436 484.367 396.605L484.503 397.085ZM475.385 340.378L475.506 340.861C476.325 340.655 477.119 341.273 477.119 342.117H477.617H478.116C478.116 340.624 476.711 339.529 475.263 339.894L475.385 340.378ZM403.219 358.558L403.098 358.075C401.636 358.443 400.612 359.757 400.612 361.264H401.11H401.609C401.609 360.214 402.322 359.298 403.341 359.041L403.219 358.558Z" fill="white"/>
<path d="M403.719 420.145V361.778C403.719 361.322 404.029 360.924 404.471 360.812L477.427 342.357V399.323" stroke="white" stroke-width="0.398714"/>
<path d="M392.5 423.146L397.64 425.619C400.73 427.107 404.26 427.404 407.555 426.454L493.841 401.586C494.554 401.381 494.625 400.399 493.949 400.093L486.33 396.652" stroke="white" stroke-width="0.996786"/>
<path d="M494.7 400.596V403.079C494.7 403.434 494.466 403.746 494.125 403.845L407.578 428.944C404.271 429.903 400.726 429.606 397.625 428.109L393.365 426.053C392.607 425.687 392.125 424.92 392.125 424.078V422.833" stroke="white" stroke-width="0.398714"/>
<path d="M263.651 212.517L133.146 181.381C130.38 180.721 128.552 178.087 128.902 175.264L135.641 120.924C135.949 118.442 137.871 116.467 140.344 116.092L160.484 113.038M270.429 135.267L168.956 114.751M367.616 431.565L369.228 431.133C370.1 430.899 370.706 430.11 370.706 429.207V264.253C370.706 254.802 364.651 246.414 355.68 243.438L266.877 213.983C263.469 212.853 261.063 209.799 260.762 206.221L255.541 143.99C255.393 142.22 256.636 140.635 258.391 140.359L277.685 137.319C304.197 133.162 332.468 129.633 359.852 125.799C361.661 125.545 363.467 125.795 365.092 126.472M604.452 407.69L541.712 385.564C536.903 383.892 533.68 379.358 533.68 374.267V230.823C533.68 222.636 532.71 214.477 530.791 206.518C522.818 173.463 518.031 140.849 510.706 108.951C510.409 107.655 507.938 104.648 503.278 105.362L496.224 106.368M496.224 106.368L425.635 116.43C423.272 116.766 421.335 118.476 420.708 120.78L417.11 133.999C416.288 137.017 413.778 139.276 410.691 139.776L386.034 143.771C383.106 144.245 380.164 143.36 377.998 141.444M496.224 106.368L486.086 104.648M377.998 141.444C377.463 140.97 376.975 140.434 376.547 139.839L369.346 129.847C368.247 128.322 366.765 127.17 365.092 126.472M377.998 141.444L405.208 137.393C408.296 136.892 410.806 134.633 411.627 131.615L415.226 118.396C415.853 116.093 417.789 114.383 420.153 114.046L486.086 104.648M377.998 141.444L377.982 141.446M365.092 126.472C363.125 125.486 360.887 124.627 359.641 124.102C358.008 123.414 356.191 123.16 354.37 123.415C326.985 127.249 298.714 130.779 272.202 134.935L269.831 135.309M365.092 126.472C365.746 126.801 366.37 127.143 366.918 127.491M486.086 104.648L389.19 88.2114C384.931 87.4891 380.589 87.3997 376.305 87.9463L313.269 95.9018C310.901 96.1975 308.935 97.8734 308.268 100.165L304.618 112.708C303.744 115.711 301.195 117.926 298.099 118.372L275.432 122.163C272.803 122.542 270.183 121.831 268.132 120.276M383.365 87.9463V127.591M383.365 127.591L410.378 133.971M383.365 127.591L370.606 130.382M160.484 113.038C186.28 109.452 217.959 105.334 245.178 101.915C247.253 101.655 249.311 102.057 251.091 103.004L255.17 105.056M505.371 105.285L389.19 85.4204C384.931 84.6981 380.589 84.6087 376.305 85.1553L309.482 93.5095C307.113 93.8052 305.147 95.4811 304.48 97.7732L300.83 110.315C299.956 113.319 297.407 115.534 294.312 115.98L270.648 119.77L268.132 120.276M268.132 120.276L267.937 120.315M268.132 120.276C267.327 119.664 266.609 118.922 266.014 118.065L259.382 108.512C258.525 107.278 257.42 106.278 256.164 105.555M255.17 105.056L256.164 105.555M255.17 105.056C255.51 105.204 255.842 105.37 256.164 105.555M255.17 105.056C253.562 104.356 251.768 104.081 249.962 104.308C222.744 107.726 194.753 111.147 168.956 114.733M256.164 105.555L256.574 105.762" stroke="white" stroke-width="1.19614"/>
<g clip-path="url(#clip0_7228_283412)">
<path opacity="0.5" d="M439 307C439 356.706 398.706 397 349 397C299.294 397 259 356.706 259 307" stroke="white"/>
<g filter="url(#filter0_d_7228_283412)">
<circle cx="349" cy="299" r="90" fill="#1B1B2D"/>
<circle cx="349" cy="299" r="90" fill="url(#paint1_linear_7228_283412)" fill-opacity="0.4"/>
</g>
<circle cx="348.5" cy="298.5" r="87.5" stroke="#D2B2FF" stroke-width="8"/>
<circle cx="349" cy="299" r="83" stroke="white" stroke-width="2"/>
<circle opacity="0.4" cx="299" cy="300" r="11.25" fill="#D2B2FF"/>
<circle opacity="0.8" cx="399" cy="300" r="11.25" fill="#D2B2FF"/>
<ellipse opacity="0.6" cx="349" cy="350" rx="11.25" ry="11.25" transform="rotate(-90 349 350)" fill="#D2B2FF"/>
<ellipse cx="349" cy="250" rx="11.25" ry="11.25" transform="rotate(-90 349 250)" fill="#D2B2FF"/>
<circle opacity="0.5" cx="313.481" cy="335.516" r="11.0795" transform="rotate(-45 313.481 335.516)" fill="#D2B2FF"/>
<circle cx="384.52" cy="264.484" r="11.0795" transform="rotate(-45 384.52 264.484)" fill="#D2B2FF"/>
<circle opacity="0.7" cx="384.516" cy="335.515" r="11.0795" transform="rotate(-135 384.516 335.515)" fill="#D2B2FF"/>
<circle opacity="0.3" cx="313.484" cy="264.483" r="11.0795" transform="rotate(-135 313.484 264.483)" fill="#D2B2FF"/>
</g>
<defs>
<filter id="filter0_d_7228_283412" x="211" y="185" width="276" height="276" filterUnits="userSpaceOnUse" color-interpolation-filters="sRGB">
<feFlood flood-opacity="0" result="BackgroundImageFix"/>
<feColorMatrix in="SourceAlpha" type="matrix" values="0 0 0 0 0 0 0 0 0 0 0 0 0 0 0 0 0 0 127 0" result="hardAlpha"/>
<feOffset dy="24"/>
<feGaussianBlur stdDeviation="24"/>
<feComposite in2="hardAlpha" operator="out"/>
<feColorMatrix type="matrix" values="0 0 0 0 0.179721 0 0 0 0 0.199393 0 0 0 0 0.364633 0 0 0 1 0"/>
<feBlend mode="normal" in2="BackgroundImageFix" result="effect1_dropShadow_7228_283412"/>
<feBlend mode="normal" in="SourceGraphic" in2="effect1_dropShadow_7228_283412" result="shape"/>
</filter>
<linearGradient id="paint0_linear_7228_283412" x1="437.538" y1="552.056" x2="454.446" y2="587.335" gradientUnits="userSpaceOnUse">
<stop/>
<stop offset="1" stop-opacity="0"/>
</linearGradient>
<linearGradient id="paint1_linear_7228_283412" x1="403.293" y1="422.75" x2="166.302" y2="266.098" gradientUnits="userSpaceOnUse">
<stop stop-color="#78DDFF"/>
<stop offset="1" stop-color="#8C00FF" stop-opacity="0.2"/>
</linearGradient>
<clipPath id="clip0_7228_283412">
<rect width="240" height="240" fill="white" transform="translate(229 192)"/>
</clipPath>
</defs>
</svg>
