<svg width="518" height="515" viewBox="0 0 518 515" fill="none" xmlns="http://www.w3.org/2000/svg">
<ellipse cx="245.582" cy="344.809" rx="20.1208" ry="7.36566" fill="#713ADA" fill-opacity="0.4"/>
<ellipse cx="94.4966" cy="287.681" rx="16.5278" ry="5.29968" fill="#713ADA" fill-opacity="0.4"/>
<ellipse cx="245.582" cy="344.809" rx="20.1208" ry="7.36566" stroke="white" stroke-width="0.898251"/>
<ellipse cx="94.4966" cy="287.411" rx="16.5278" ry="5.12003" stroke="white" stroke-width="0.898251"/>
<path d="M260.671 349.456C262.599 348.415 263.723 347.163 263.723 345.817C263.723 342.198 255.602 339.264 245.584 339.264C235.566 339.264 227.445 342.198 227.445 345.817C227.445 347.163 228.57 348.415 230.498 349.456" stroke="white" stroke-width="0.359301" stroke-linecap="round"/>
<path d="M106.876 290.601C108.457 289.894 109.379 289.045 109.379 288.13C109.379 285.673 102.719 283.682 94.5021 283.682C86.2857 283.682 79.625 285.673 79.625 288.13C79.625 289.045 80.5471 289.894 82.1284 290.601" stroke="white" stroke-width="0.359301" stroke-linecap="round"/>
<path d="M291.398 329L291.616 328.607L291.398 329ZM177.5 276.452L177.648 276.028L177.53 275.987L177.408 276.013L177.5 276.452ZM295.441 317.412L295.569 317.843C295.756 317.787 295.885 317.617 295.89 317.422C295.894 317.227 295.772 317.052 295.588 316.988L295.441 317.412ZM169.522 352.784L169.697 352.37V352.37L169.522 352.784ZM64.2194 308.107L64.044 308.52L64.2194 308.107ZM64.3403 306.411L64.2254 305.977L64.2254 305.977L64.3403 306.411ZM181.991 351.123L182.126 351.551L182.131 351.55L181.991 351.123ZM175.713 353.087L175.579 352.659H175.579L175.713 353.087ZM70.6981 304.729L70.8131 305.163L70.8206 305.161L70.828 305.158L70.6981 304.729ZM73.4827 293.849L73.3022 294.26L73.3059 294.262L73.4827 293.849ZM145.612 273.916L145.77 273.495L145.768 273.495L145.612 273.916ZM147.319 274.556L147.504 274.147L147.491 274.141L147.477 274.135L147.319 274.556ZM267.632 353.702L267.465 353.285L267.632 353.702ZM88.9993 278.669L89.1211 279.101L88.9993 278.669ZM245.049 357.384V356.935C236.119 356.935 228.097 355.502 222.492 353.228L222.323 353.644L222.154 354.06C227.894 356.389 236.038 357.834 245.049 357.834V357.384ZM291.398 329L291.181 329.393C293.149 330.48 294.846 331.67 296.105 332.912C297.368 334.157 298.159 335.423 298.379 336.66C298.594 337.872 298.272 339.12 297.171 340.386C296.058 341.666 294.152 342.956 291.224 344.189L291.398 344.603L291.573 345.017C294.562 343.758 296.609 342.401 297.849 340.975C299.102 339.534 299.532 338.018 299.263 336.503C298.998 335.011 298.068 333.586 296.736 332.272C295.4 330.955 293.628 329.719 291.616 328.607L291.398 329ZM177.5 276.452L177.353 276.876L295.293 317.837L295.441 317.412L295.588 316.988L177.648 276.028L177.5 276.452ZM169.522 352.784L169.697 352.37L64.3948 307.693L64.2194 308.107L64.044 308.52L169.347 353.197L169.522 352.784ZM64.2194 308.107L64.3948 307.693C64.0009 307.526 64.0417 306.955 64.4553 306.846L64.3403 306.411L64.2254 305.977C62.9845 306.306 62.8624 308.019 64.044 308.52L64.2194 308.107ZM199.777 348.402V348.851C209.383 348.851 216.525 351.594 222.324 354.114L222.503 353.702L222.682 353.29C216.845 350.754 209.568 347.953 199.777 347.953V348.402ZM181.991 351.123L182.131 351.55C187.382 349.833 193.892 348.851 199.777 348.851V348.402V347.953C193.805 347.953 187.2 348.947 181.852 350.696L181.991 351.123ZM175.713 353.087L175.847 353.516L182.126 351.551L181.991 351.123L181.857 350.694L175.579 352.659L175.713 353.087ZM64.3403 306.411L64.4552 306.846L70.8131 305.163L70.6981 304.729L70.5832 304.294L64.2254 305.977L64.3403 306.411ZM169.522 352.784L169.347 353.197C171.407 354.071 173.711 354.184 175.847 353.516L175.713 353.087L175.579 352.659C173.646 353.264 171.562 353.161 169.697 352.37L169.522 352.784ZM291.398 329L291.616 328.607C289.216 327.281 288.165 325.468 288.165 323.874H287.716H287.267C287.267 325.887 288.586 327.959 291.181 329.393L291.398 329ZM287.716 323.874H288.165C288.165 322.726 288.619 321.652 289.758 320.647C290.913 319.627 292.773 318.68 295.569 317.843L295.441 317.412L295.312 316.982C292.46 317.836 290.458 318.83 289.163 319.973C287.851 321.131 287.267 322.443 287.267 323.874H287.716ZM73.4827 293.849L73.6632 293.438C71.9481 292.685 70.5792 291.819 69.6462 290.906C68.7111 289.992 68.2497 289.069 68.2497 288.19H67.8006H67.3515C67.3515 289.398 67.9852 290.538 69.0182 291.548C70.0533 292.561 71.5255 293.481 73.3022 294.26L73.4827 293.849ZM125.851 270.963V271.412C133.64 271.412 140.625 272.546 145.456 274.337L145.612 273.916L145.768 273.495C140.81 271.656 133.713 270.514 125.851 270.514V270.963ZM165.465 277.61V277.161C158.052 277.161 151.519 275.963 147.504 274.147L147.319 274.556L147.134 274.965C151.308 276.853 157.981 278.059 165.465 278.059V277.61ZM177.5 276.452L177.408 276.013C173.961 276.739 169.864 277.161 165.465 277.161V277.61V278.059C169.919 278.059 174.078 277.632 177.593 276.892L177.5 276.452ZM73.4827 293.849L73.3059 294.262C74.8501 294.923 76.0542 295.675 76.8653 296.466C77.6765 297.256 78.0638 298.053 78.0638 298.819H78.5129H78.9621C78.9621 297.729 78.4089 296.715 77.4923 295.822C76.5756 294.929 75.2646 294.124 73.6595 293.436L73.4827 293.849ZM78.5129 298.819H78.0638C78.0638 299.786 77.4414 300.785 76.1362 301.751C74.839 302.711 72.9391 303.583 70.5683 304.299L70.6981 304.729L70.828 305.158C73.2515 304.427 75.259 303.518 76.6706 302.473C78.0742 301.434 78.9621 300.202 78.9621 298.819H78.5129ZM147.319 274.556L147.477 274.135L145.77 273.495L145.612 273.916L145.455 274.336L147.161 274.976L147.319 274.556ZM267.632 353.702L267.465 353.285C261.866 355.526 253.903 356.935 245.049 356.935V357.384V357.834C253.985 357.834 262.067 356.413 267.799 354.119L267.632 353.702ZM291.398 344.603L291.224 344.189C285.316 346.679 281.702 348.022 278.406 349.206C275.107 350.392 272.115 351.423 267.465 353.285L267.632 353.702L267.799 354.119C272.43 352.265 275.404 351.24 278.71 350.052C282.018 348.863 285.647 347.514 291.573 345.017L291.398 344.603ZM67.8006 288.19H68.2497C68.2497 287.474 68.7183 286.731 69.7731 285.945C70.8183 285.166 72.3514 284.412 74.2749 283.66C78.119 282.158 83.3911 280.715 89.1211 279.101L88.9993 278.669L88.8776 278.237C83.1714 279.844 77.8441 281.301 73.9479 282.823C72.0012 283.584 70.3789 284.373 69.2363 285.225C68.1032 286.07 67.3515 287.045 67.3515 288.19H67.8006ZM88.9993 278.669L89.1211 279.101C95.7235 277.242 102.946 275.318 109.505 273.859C116.075 272.398 121.943 271.412 125.851 271.412V270.963V270.514C121.835 270.514 115.882 271.52 109.31 272.982C102.728 274.446 95.4865 276.375 88.8776 278.237L88.9993 278.669Z" fill="white"/>
<path d="M220.302 364.306C226.47 366.682 234.899 367.448 244.653 367.448C254.733 367.448 263.944 365.77 270.567 362.868C280.036 359.633 300.135 352.673 303.598 347.263C307.06 341.852 305.641 334.676 294.114 327.329M220.497 364.365C214.172 361.756 210.502 359.633 199.956 359.633C191.638 359.633 185.711 362.57 177.769 364.929C173.637 366.624 168.517 367.448 165.224 365.753L57.875 319.828C57.4041 319.627 57.1946 319.077 57.4175 318.616C58.336 316.716 60.587 312.059 61.8369 309.486C62.3489 308.432 63.0521 307.484 63.9089 306.685L63.9604 306.636M68.811 286.062C67.4636 287.23 66.4755 288.847 64.8587 292.62C63.4215 295.973 66.5654 298.778 69.8889 300.255C72.404 301.373 71.7752 304.207 69.1703 305.105" stroke="white" stroke-width="0.898251"/>
<ellipse cx="175.705" cy="313.101" rx="67.9078" ry="21.2886" stroke="white" stroke-width="0.898251"/>
<ellipse cx="175.698" cy="314.627" rx="60.3625" ry="16.8871" stroke="white" stroke-width="0.898251"/>
<path d="M233.369 319.657C232.821 318.565 231.862 317.508 230.536 316.499C222.499 310.382 200.982 306.004 175.699 306.004C150.416 306.004 128.899 310.382 120.862 316.499C119.538 317.507 118.58 318.562 118.031 319.653" stroke="white" stroke-width="0.898251"/>
<path d="M241.058 342.743C241.494 342.751 241.939 342.826 242.284 342.979L245.871 344.573L249.787 343.108C250.156 342.97 250.612 342.91 251.049 342.918C251.485 342.926 251.93 343.001 252.275 343.154C252.595 343.296 252.895 343.545 252.857 343.903C252.839 344.074 252.745 344.214 252.625 344.321C252.505 344.428 252.347 344.516 252.162 344.585L248.76 345.857L251.845 347.229C252.164 347.372 252.466 347.62 252.428 347.979C252.41 348.149 252.314 348.289 252.194 348.396C252.075 348.503 251.917 348.591 251.732 348.66C251.364 348.798 250.908 348.857 250.471 348.85C250.035 348.842 249.589 348.767 249.244 348.613L245.658 347.019L241.741 348.484C241.372 348.622 240.916 348.682 240.479 348.675C240.044 348.667 239.598 348.592 239.253 348.438C238.933 348.296 238.633 348.048 238.671 347.689C238.689 347.519 238.784 347.379 238.904 347.271C239.024 347.165 239.182 347.077 239.366 347.008L242.768 345.734L239.684 344.363C239.364 344.221 239.063 343.973 239.101 343.614C239.119 343.444 239.214 343.303 239.334 343.196C239.454 343.089 239.612 343.002 239.797 342.933C240.166 342.795 240.621 342.736 241.058 342.743Z" stroke="white" stroke-width="0.538951"/>
<path d="M91.6123 285.345C91.974 285.351 92.3406 285.407 92.6221 285.522L95.6641 286.766L98.9863 285.624C99.2883 285.52 99.664 285.475 100.026 285.48C100.388 285.486 100.754 285.543 101.035 285.658C101.175 285.716 101.294 285.787 101.377 285.874C101.462 285.964 101.518 286.08 101.503 286.212C101.488 286.339 101.412 286.443 101.317 286.521C101.222 286.599 101.094 286.664 100.943 286.716L98.0098 287.724L100.674 288.813C100.814 288.871 100.933 288.942 101.016 289.029C101.101 289.119 101.156 289.235 101.141 289.367C101.126 289.495 101.05 289.598 100.955 289.676C100.86 289.754 100.732 289.818 100.581 289.87C100.279 289.974 99.9034 290.02 99.541 290.015C99.1795 290.009 98.8136 289.951 98.5322 289.836L95.4883 288.592L92.168 289.734C91.866 289.838 91.4903 289.885 91.1279 289.879C90.7662 289.873 90.3996 289.815 90.1182 289.7C89.9778 289.643 89.8594 289.572 89.7764 289.484C89.6913 289.395 89.6362 289.278 89.6514 289.146C89.666 289.019 89.7422 288.916 89.8369 288.838C89.9323 288.76 90.0601 288.694 90.2109 288.643L93.1436 287.634L90.4805 286.545C90.3401 286.488 90.2218 286.417 90.1387 286.329C90.0536 286.24 89.9976 286.123 90.0127 285.991C90.0274 285.864 90.1045 285.76 90.1992 285.683C90.2945 285.604 90.4218 285.54 90.5723 285.488C90.8742 285.384 91.25 285.339 91.6123 285.345Z" stroke="white" stroke-width="0.359301"/>
<path d="M174.266 277.082L178.218 276.023V134.08" stroke="white" stroke-width="0.898251"/>
<path d="M176.609 281.485L78.3037 308.148C77.3138 308.417 77.2229 309.785 78.1686 310.182L167.881 347.845C169.57 348.553 171.452 348.654 173.206 348.129L278.371 316.673C279.377 316.373 279.402 314.958 278.408 314.62L181.219 281.628C179.731 281.123 178.126 281.073 176.609 281.485Z" stroke="white" stroke-width="0.359301"/>
<path d="M292.782 481.738L289.477 478.726L291.827 469.543C292.562 466.482 294.31 459.92 295.427 458.157C296.823 455.953 300.055 454.777 302.332 453.822C304.154 453.058 380.862 423.238 418.988 408.424L455.204 421.941L291.827 488.79L292.782 487.541L293.297 485.631L292.782 481.738Z" fill="url(#paint0_linear_7228_282424)" fill-opacity="0.5"/>
<path d="M173.005 294.777C173.005 295.72 172.241 296.484 171.298 296.484C170.355 296.484 169.591 295.72 169.591 294.777C169.591 293.834 170.355 293.07 171.298 293.07C172.241 293.07 173.005 293.834 173.005 294.777Z" stroke="white" stroke-width="0.359301"/>
<path d="M165.28 295.136C165.28 296.079 164.516 296.843 163.573 296.843C162.63 296.843 161.866 296.079 161.866 295.136C161.866 294.194 162.63 293.43 163.573 293.43C164.516 293.43 165.28 294.194 165.28 295.136Z" stroke="white" stroke-width="0.359301"/>
<path d="M157.734 295.675C157.734 296.618 156.97 297.382 156.028 297.382C155.085 297.382 154.321 296.618 154.321 295.675C154.321 294.733 155.085 293.969 156.028 293.969C156.97 293.969 157.734 294.733 157.734 295.675Z" stroke="white" stroke-width="0.359301"/>
<path d="M150.369 296.394C150.369 297.336 149.685 298.101 148.842 298.101C147.998 298.101 147.315 297.336 147.315 296.394C147.315 295.451 147.998 294.687 148.842 294.687C149.685 294.687 150.369 295.451 150.369 296.394Z" stroke="white" stroke-width="0.359301"/>
<path d="M143.542 297.472C143.542 298.414 142.858 299.178 142.015 299.178C141.172 299.178 140.488 298.414 140.488 297.472C140.488 296.529 141.172 295.765 142.015 295.765C142.858 295.765 143.542 296.529 143.542 297.472Z" stroke="white" stroke-width="0.359301"/>
<path d="M136.895 299.089C136.895 300.031 136.252 300.795 135.458 300.795C134.664 300.795 134.021 300.031 134.021 299.089C134.021 298.146 134.664 297.382 135.458 297.382C136.252 297.382 136.895 298.146 136.895 299.089Z" stroke="white" stroke-width="0.359301"/>
<path d="M130.786 300.644C130.826 301.586 130.215 302.377 129.422 302.41C128.629 302.444 127.954 301.708 127.914 300.766C127.874 299.825 128.484 299.034 129.277 299C130.07 298.966 130.745 299.702 130.786 300.644Z" stroke="white" stroke-width="0.359301"/>
<path d="M125.396 302.438C125.444 303.38 124.92 304.171 124.226 304.206C123.533 304.242 122.932 303.507 122.884 302.566C122.836 301.624 123.36 300.833 124.053 300.797C124.747 300.762 125.348 301.497 125.396 302.438Z" stroke="white" stroke-width="0.359301"/>
<path d="M120.51 304.497C120.693 305.506 120.366 306.409 119.781 306.516C119.195 306.622 118.572 305.891 118.389 304.882C118.206 303.874 118.532 302.97 119.118 302.864C119.704 302.758 120.327 303.489 120.51 304.497Z" stroke="white" stroke-width="0.359301"/>
<path d="M116.492 307.229C116.81 308.384 116.68 309.427 116.202 309.559C115.724 309.691 115.078 308.861 114.76 307.706C114.441 306.551 114.571 305.507 115.049 305.376C115.527 305.244 116.173 306.073 116.492 307.229Z" stroke="white" stroke-width="0.359301"/>
<path d="M113.564 310.092C114.272 311.058 114.564 312.048 114.217 312.302C113.87 312.557 113.015 311.979 112.307 311.012C111.599 310.045 111.307 309.055 111.654 308.801C112.001 308.547 112.857 309.125 113.564 310.092Z" stroke="white" stroke-width="0.359301"/>
<path d="M180.909 294.777C180.909 295.72 180.145 296.484 179.203 296.484C178.26 296.484 177.496 295.72 177.496 294.777C177.496 293.834 178.26 293.07 179.203 293.07C180.145 293.07 180.909 293.834 180.909 294.777Z" stroke="white" stroke-width="0.359301"/>
<path d="M188.455 295.136C188.455 296.079 187.69 296.843 186.748 296.843C185.805 296.843 185.041 296.079 185.041 295.136C185.041 294.194 185.805 293.43 186.748 293.43C187.69 293.43 188.455 294.194 188.455 295.136Z" stroke="white" stroke-width="0.359301"/>
<path d="M195.641 295.675C195.641 296.618 194.877 297.382 193.934 297.382C192.991 297.382 192.227 296.618 192.227 295.675C192.227 294.733 192.991 293.969 193.934 293.969C194.877 293.969 195.641 294.733 195.641 295.675Z" stroke="white" stroke-width="0.359301"/>
<path d="M202.108 296.214C202.108 297.157 201.424 297.921 200.581 297.921C199.738 297.921 199.054 297.157 199.054 296.214C199.054 295.272 199.738 294.508 200.581 294.508C201.424 294.508 202.108 295.272 202.108 296.214Z" stroke="white" stroke-width="0.359301"/>
<path d="M208.396 297.292C208.396 298.235 207.712 298.999 206.869 298.999C206.025 298.999 205.342 298.235 205.342 297.292C205.342 296.35 206.025 295.585 206.869 295.585C207.712 295.585 208.396 296.35 208.396 297.292Z" stroke="white" stroke-width="0.359301"/>
<path d="M214.324 298.37C214.324 299.313 213.721 300.077 212.977 300.077C212.233 300.077 211.629 299.313 211.629 298.37C211.629 297.427 212.233 296.663 212.977 296.663C213.721 296.663 214.324 297.427 214.324 298.37Z" stroke="white" stroke-width="0.359301"/>
<path d="M219.534 299.628C219.534 300.57 218.931 301.334 218.187 301.334C217.443 301.334 216.839 300.57 216.839 299.628C216.839 298.685 217.443 297.921 218.187 297.921C218.931 297.921 219.534 298.685 219.534 299.628Z" stroke="white" stroke-width="0.359301"/>
<path d="M224.92 301.349C224.847 302.289 224.186 303.004 223.444 302.946C222.702 302.889 222.16 302.08 222.233 301.14C222.306 300.201 222.966 299.485 223.708 299.543C224.45 299.601 224.993 300.409 224.92 301.349Z" stroke="white" stroke-width="0.359301"/>
<path d="M229.427 303.135C229.311 304.07 228.699 304.765 228.059 304.685C227.419 304.606 226.993 303.784 227.109 302.848C227.225 301.913 227.837 301.219 228.477 301.298C229.117 301.377 229.543 302.199 229.427 303.135Z" stroke="white" stroke-width="0.359301"/>
<path d="M233.1 305.227C232.837 306.132 232.238 306.754 231.762 306.616C231.285 306.478 231.112 305.632 231.374 304.726C231.636 303.821 232.235 303.199 232.712 303.337C233.188 303.475 233.362 304.321 233.1 305.227Z" stroke="white" stroke-width="0.359301"/>
<path d="M236.243 307.458C235.876 308.396 235.205 309.01 234.743 308.83C234.281 308.649 234.203 307.743 234.569 306.805C234.935 305.867 235.607 305.253 236.069 305.434C236.531 305.614 236.609 306.521 236.243 307.458Z" stroke="white" stroke-width="0.359301"/>
<path d="M238.716 310.327C238.061 311.167 237.242 311.623 236.886 311.346C236.53 311.069 236.772 310.163 237.426 309.323C238.08 308.483 238.899 308.026 239.255 308.304C239.611 308.581 239.37 309.487 238.716 310.327Z" stroke="white" stroke-width="0.359301"/>
<path d="M240.067 313.757C239.08 314.405 238.105 314.664 237.889 314.336C237.674 314.007 238.299 313.216 239.286 312.568C240.273 311.92 241.248 311.661 241.464 311.989C241.68 312.318 241.054 313.109 240.067 313.757Z" stroke="white" stroke-width="0.359301"/>
<path d="M294.451 327.548C292.116 325.842 292.93 324.384 296.517 323.147L322.674 315.46M454.302 277.688L408.669 291.152" stroke="white" stroke-width="0.898251"/>
<path d="M444.253 232.168L398.554 244.553M297.328 271.638L317.31 266.16" stroke="white" stroke-width="0.898251"/>
<path d="M444.253 229.438L393.42 243.094M297.328 268.908L324.18 261.694" stroke="white" stroke-width="0.359301"/>
<path d="M418.769 408.405L447.947 420.531C451.412 421.971 455.303 421.999 458.788 420.609L488.473 408.768L494.039 406.364C507.453 400.572 516.139 387.359 516.139 372.748V315.35C516.139 300.798 509.313 294.316 499.881 296.843C494.581 298.263 239.318 382.969 235.795 384.124C220.245 389.222 208.938 404.716 208.938 423.038V493.246C208.938 506.768 222.213 516.295 235.023 511.968L235.795 511.707L290.986 488.644C292.323 488.085 293.193 486.777 293.193 485.328V482.659C293.193 481.519 292.559 480.475 291.548 479.949L288.702 478.469" stroke="white" stroke-width="2.33545"/>
<path d="M215.227 453.947H217.113C217.113 447.959 217.113 439.09 217.113 431.76C217.113 424.431 214.149 398.255 244.06 388.285C267.316 380.533 494.583 303.939 497.906 302.771C501.23 301.604 504.643 301.334 505.631 302.053" stroke="white" stroke-width="0.359301"/>
<path d="M294.092 317.729L295.545 317.34C296.331 317.13 296.877 316.418 296.877 315.605V166.957C296.877 158.441 291.42 150.882 283.337 148.201L203.312 121.657C200.241 120.638 198.073 117.887 197.801 114.662L193.097 58.5827C192.963 56.9875 194.084 55.5597 195.665 55.3105L213.051 52.5711C214.611 52.3267 216.147 53.1284 216.838 54.5474L227.462 77.2569C228.514 79.4165 230.868 80.6192 233.235 80.206L423.038 47.0602C423.971 46.8972 424.871 47.4874 425.093 48.4087L441.137 114.93C442.867 122.102 443.741 129.455 443.741 136.833V266.095C443.741 270.683 446.645 274.769 450.979 276.276L507.517 296.214" stroke="white" stroke-width="1.0779"/>
<path d="M86.7734 34.7324L193.845 56.1108" stroke="white" stroke-width="1.0779"/>
<path d="M172.017 118.989L143.497 111.643C142.929 111.496 142.375 111.925 142.375 112.512V125.374C142.375 127.01 143.479 128.439 145.062 128.851L168.854 135.051C170.936 135.594 173.114 135.662 175.226 135.251L206.6 129.139L172.017 118.989Z" stroke="white" stroke-width="1.0779"/>
<path d="M200.404 120.337L82.8005 92.2782C80.3076 91.6835 78.6605 89.3096 78.9759 86.7663L85.0489 37.7977C85.3264 35.5607 87.0581 33.7814 89.2867 33.4435L107.435 30.6914L214.486 52.6315" stroke="white" stroke-width="1.0779"/>
<path d="M76.4181 282.442C49.2374 289.506 22.3906 296.491 21.4683 296.784C9.39542 300.621 0.539062 313.23 0.539062 328.192L0.601628 378.995C0.618342 392.568 8.28132 404.972 20.4107 411.062L220.162 511.346M117.289 271.753C159.51 260.808 176.73 256.512 178.213 256.512" stroke="white" stroke-width="1.0779"/>
<path d="M214.863 455.197V423.43C214.863 406.926 225.048 392.969 239.052 388.376C242.225 387.336 495.844 301.723 499.699 300.794C506.256 299.213 511.646 301.419 511.646 314.892V343.724L214.863 455.197ZM214.863 455.197V480.07M292.382 481.612L234.593 505.284C225.137 509.158 214.773 502.203 214.773 491.985V480.07M509.797 344.598V370.426C509.797 384.314 501.383 396.817 488.517 402.047L456.432 415.089C454.228 415.985 451.758 415.97 449.565 415.047L426.94 405.523" stroke="white" stroke-width="1.0779"/>
<path d="M215.312 465.983L219.066 467.783C220.855 468.641 222.919 468.72 224.769 468.003L270.645 450.222M501.675 347.504V358.403C501.675 360.653 500.277 362.667 498.168 363.453L468.35 374.567M270.645 450.222L272.47 449.515C272.574 449.474 272.678 449.437 272.783 449.404M270.645 450.222L272.783 449.404M468.35 374.567L468.175 374.633M468.35 374.567C468.291 374.588 468.233 374.611 468.175 374.633M272.783 449.404L468.175 374.633M272.783 449.404C276.223 448.3 279.807 450.864 279.807 454.54V477.222C279.807 479.759 282.365 481.497 284.724 480.562L287.115 479.614C288.78 478.954 290.008 477.511 290.393 475.762L293.301 462.537C294.074 459.022 296.551 456.124 299.904 454.813L438.863 400.485C441.542 399.438 444.571 400.679 445.745 403.304L450.307 413.503C451.053 415.173 452.983 415.957 454.683 415.282L455.982 414.766C457.346 414.224 458.297 412.971 458.453 411.512L461.45 383.454C461.873 379.485 464.47 376.088 468.175 374.633" stroke="white" stroke-width="1.61685"/>
<path d="M281.694 480.625L238.578 463.02" stroke="white" stroke-width="1.61685"/>
<path d="M208.937 421.61L0.632812 328.371" stroke="white" stroke-width="1.61685"/>
<path d="M294.992 159.59L198.07 130.936" stroke="white" stroke-width="1.61685"/>
<path d="M142.198 112.97L82.0156 92.2207" stroke="white" stroke-width="1.0779"/>
<path d="M263.016 437.239V439.962C263.016 440.467 263.523 440.815 263.995 440.631L279.894 434.453C280.17 434.346 280.352 434.08 280.352 433.783V430.592M316.731 417.388V420.11C316.731 420.616 317.239 420.963 317.71 420.78L333.609 414.602C333.885 414.494 334.067 414.228 334.067 413.932V410.741M367.213 398.704V401.427C367.213 401.932 367.721 402.28 368.192 402.097L384.091 395.918C384.367 395.811 384.549 395.545 384.549 395.248V392.057M413.742 380.919V383.641C413.742 384.147 414.25 384.494 414.721 384.311L430.62 378.133C430.896 378.025 431.078 377.759 431.078 377.463V374.272M458.295 363.672V366.395C458.295 366.9 458.803 367.248 459.274 367.065L475.173 360.886C475.45 360.779 475.632 360.513 475.632 360.217V357.025" stroke="white" stroke-width="1.0779"/>
<path fill-rule="evenodd" clip-rule="evenodd" d="M175.561 305.787C203.9 305.787 227.541 311.631 232.98 319.397C225.611 326.292 202.693 331.321 175.561 331.321C148.427 331.321 125.509 326.292 118.141 319.397C123.58 311.631 147.221 305.787 175.561 305.787Z" fill="#713ADA" fill-opacity="0.1"/>
<path d="M214.091 46.3909L426.43 15.8989M426.43 15.8989V43.0772C426.43 44.6054 425.782 46.0618 424.645 47.0839L424.428 47.2797M426.43 15.8989L391.784 11.4462M107.586 25.6228L297.637 0.692121C299.124 0.4971 300.629 0.488967 302.118 0.667915L335.294 4.65579M182.055 39.8473L391.784 11.4462M391.784 11.4462L335.294 4.65579M139.663 31.7764L335.294 4.65579" stroke="white" stroke-width="1.0779"/>
<path d="M107.523 30.7002V25.9613C107.523 25.7353 107.73 25.5655 107.951 25.6086L213.892 46.2089V52.3849" stroke="white" stroke-width="1.0779"/>
<path d="M172.771 119.297L142.961 111.613C142.723 115.299 142.248 123.017 142.248 124.404C142.248 126.138 142.961 128.307 145.478 128.837C147.996 129.367 160.45 132.149 164.292 133.871C167.366 135.249 171.226 135.417 172.771 135.329V119.297Z" fill="#D9D9D9" fill-opacity="0.07"/>
<path d="M193.862 56.2111L86.6628 34.7689C86.1857 35.3605 85.2167 36.6851 85.1573 37.2501C85.0829 37.9563 78.7812 85.7147 78.7812 85.9372C78.7812 86.1596 78.9083 88.5113 79.2261 89.4011C79.4804 90.1129 80.7425 91.1824 81.3418 91.6282L198.873 119.965H200.263C199.519 118.746 198.002 116 197.885 114.771C197.739 113.235 193.167 60.4539 193.02 58.7714C192.903 57.4253 193.532 56.5037 193.862 56.2111Z" fill="#D9D9D9" fill-opacity="0.07"/>
<path d="M295.489 159.687L198.873 130.613L178.292 134.701L177.945 266.761V276.407L294.706 317.169C295.028 317.169 295.761 317.101 296.125 316.828L296.181 316.786C296.607 316.468 296.919 316.235 296.919 315.637V274.33C296.73 242.177 296.465 176.52 296.919 171.119C297.373 165.717 296.155 161.247 295.489 159.687Z" fill="#D9D9D9" fill-opacity="0.07"/>
<path d="M208.897 421.595L0.62089 328.607L0.148438 364.302C0.367887 370.831 0.62089 384.546 0.62089 384.546C0.62089 384.546 172.561 467.195 208.897 484.635V421.595Z" fill="#D9D9D9" fill-opacity="0.07"/>
<path d="M69.0603 290.825C67.9434 289.77 67.871 288.317 67.9744 287.722C67.3539 287.722 64.6392 292.531 64.4065 294.082C64.1738 295.634 65.8802 297.805 67.0437 298.736C68.2071 299.667 71.077 300.83 71.4648 302.149C71.7751 303.204 70.4048 304.45 69.6809 304.941C69.8618 305.071 71.046 304.926 74.3347 303.312C78.4456 301.296 78.0578 299.977 78.368 298.736C78.6783 297.495 77.0494 295.711 75.2655 294.625C73.4815 293.539 70.4565 292.143 69.0603 290.825Z" fill="#D9D9D9" fill-opacity="0.07"/>
<path d="M262.212 365.265L260.738 356.42C257.31 356.671 249.89 357.173 247.635 357.173H236.615L236.187 367.083C237.528 367.254 241.483 367.596 246.578 367.596C251.672 367.596 259.123 366.042 262.212 365.265Z" fill="#D9D9D9" fill-opacity="0.07"/>
<path d="M224.316 365.731L226.211 355.044L221.588 353.604C220.653 356.282 218.677 362.047 218.253 363.684C219.102 364.23 222.649 365.276 224.316 365.731Z" fill="#D9D9D9" fill-opacity="0.07"/>
<path d="M168.957 366.711L172.337 353.604L170.22 353.057L64.306 308.278L63.5028 307.408L62.1641 308.747C60.6357 311.737 57.5389 317.904 57.3783 318.653C57.2176 319.403 58.0253 319.947 58.4492 320.126C92.4556 334.631 161.002 363.881 163.138 364.837C165.274 365.794 167.907 366.485 168.957 366.711Z" fill="#D9D9D9" fill-opacity="0.07"/>
<path d="M107.692 31.0237V25.6426L213.917 46.197V52.4273L213.348 52.5483L107.692 31.0237Z" fill="#D9D9D9" fill-opacity="0.07"/>
<path d="M213.849 402.627C215.711 397.556 216.782 397.764 218.253 396.4L7.61148 306.774C6.32382 308.206 4.86919 309.828 4.07891 312.191C3.28863 314.555 2.19157 317.423 1.46514 320.126L210.359 411.671C210.626 410.146 211.988 407.698 213.849 402.627Z" fill="#D9D9D9" fill-opacity="0.07"/>
<path d="M393.22 246.144H392.771V246.741L393.344 246.576L393.22 246.144ZM322.395 264.622L322.508 265.057V265.057L322.395 264.622ZM399.188 244.423L399.312 244.855V244.855L399.188 244.423ZM316.383 268.132H315.934L315.934 268.132L316.383 268.132ZM318.264 265.698L318.151 265.263V265.263L318.264 265.698ZM318.442 309.666L318.319 309.233L318.442 309.666ZM316.425 310.253L315.976 310.254C315.976 310.396 316.043 310.529 316.157 310.614C316.271 310.698 316.418 310.724 316.554 310.684L316.425 310.253ZM399.425 286.657L399.302 286.225L399.425 286.657ZM401.252 286.119L401.386 286.548L401.702 286.45V286.119H401.252ZM391.208 235.556L391.318 235.991L391.208 235.556ZM326.176 251.939L326.067 251.503L326.176 251.939ZM326.176 251.939L326.286 252.374L391.318 235.991L391.208 235.556L391.098 235.12L326.067 251.503L326.176 251.939ZM399.425 286.657L399.302 286.225L318.319 309.233L318.442 309.666L318.564 310.098L399.547 287.089L399.425 286.657ZM316.425 310.253L316.874 310.253L316.832 268.131L316.383 268.132L315.934 268.132L315.976 310.254L316.425 310.253ZM401.252 245.977H400.803V286.119H401.252H401.702V245.977H401.252ZM393.22 237.124H392.771V246.144H393.22H393.669V237.124H393.22ZM393.22 246.144L393.344 246.576L399.312 244.855L399.188 244.423L399.063 243.992L393.095 245.712L393.22 246.144ZM318.264 265.698L318.377 266.133L322.508 265.057L322.395 264.622L322.281 264.187L318.151 265.263L318.264 265.698ZM324.276 262.188H324.725V254.378H324.276H323.827V262.188H324.276ZM322.395 264.622L322.508 265.057C323.814 264.716 324.725 263.537 324.725 262.188H324.276H323.827C323.827 263.128 323.191 263.95 322.281 264.187L322.395 264.622ZM401.252 245.977H401.702C401.702 244.602 400.384 243.611 399.063 243.992L399.188 244.423L399.312 244.855C400.059 244.639 400.803 245.2 400.803 245.977H401.252ZM316.383 268.132H316.832C316.832 267.191 317.467 266.37 318.377 266.133L318.264 265.698L318.151 265.263C316.845 265.604 315.934 266.783 315.934 268.132H316.383ZM318.442 309.666L318.319 309.233C317.801 309.381 317.295 309.528 316.919 309.639C316.732 309.694 316.576 309.74 316.467 309.772C316.413 309.788 316.37 309.801 316.341 309.81C316.327 309.814 316.315 309.817 316.308 309.82C316.304 309.821 316.301 309.822 316.299 309.822C316.298 309.823 316.298 309.823 316.297 309.823C316.297 309.823 316.297 309.823 316.297 309.823C316.296 309.823 316.296 309.823 316.296 309.823C316.296 309.823 316.296 309.823 316.296 309.823C316.296 309.823 316.296 309.823 316.425 310.253C316.554 310.684 316.554 310.684 316.554 310.684C316.554 310.684 316.554 310.684 316.554 310.684C316.554 310.684 316.554 310.684 316.554 310.684C316.554 310.684 316.554 310.684 316.555 310.683C316.555 310.683 316.556 310.683 316.557 310.683C316.559 310.682 316.561 310.681 316.565 310.68C316.572 310.678 316.583 310.675 316.598 310.671C316.627 310.662 316.669 310.649 316.723 310.633C316.831 310.601 316.986 310.555 317.173 310.5C317.547 310.39 318.05 310.244 318.564 310.098L318.442 309.666ZM399.425 286.657L399.547 287.089C400.091 286.935 400.55 286.8 400.873 286.703C401.035 286.655 401.162 286.616 401.25 286.589C401.294 286.576 401.328 286.565 401.35 286.558C401.362 286.555 401.37 286.552 401.376 286.55C401.379 286.549 401.382 286.549 401.383 286.548C401.384 286.548 401.384 286.548 401.385 286.548C401.385 286.548 401.385 286.548 401.385 286.548C401.385 286.548 401.385 286.548 401.385 286.548C401.385 286.548 401.385 286.548 401.385 286.548C401.385 286.548 401.386 286.548 401.252 286.119C401.119 285.69 401.119 285.69 401.119 285.69C401.119 285.69 401.119 285.69 401.119 285.69C401.119 285.69 401.119 285.69 401.119 285.69C401.119 285.69 401.119 285.69 401.119 285.69C401.119 285.69 401.118 285.69 401.117 285.69C401.116 285.691 401.114 285.691 401.111 285.692C401.106 285.694 401.097 285.697 401.086 285.7C401.064 285.707 401.031 285.717 400.988 285.73C400.902 285.756 400.775 285.795 400.615 285.843C400.295 285.938 399.84 286.072 399.302 286.225L399.425 286.657ZM391.208 235.556L391.318 235.991C392.055 235.805 392.771 236.363 392.771 237.124H393.22H393.669C393.669 235.778 392.403 234.791 391.098 235.12L391.208 235.556ZM326.176 251.939L326.067 251.503C324.75 251.835 323.827 253.02 323.827 254.378H324.276H324.725C324.725 253.431 325.368 252.606 326.286 252.374L326.176 251.939Z" fill="white"/>
<path d="M326.625 307.438V254.841C326.625 254.43 326.904 254.071 327.303 253.97L393.047 237.34V288.674" stroke="white" stroke-width="0.359301"/>
<path d="M316.516 310.144L321.147 312.373C323.932 313.713 327.113 313.981 330.083 313.125L407.839 290.716C408.481 290.531 408.545 289.646 407.936 289.37L401.07 286.27" stroke="white" stroke-width="0.898251"/>
<path d="M408.615 289.82V292.058C408.615 292.378 408.404 292.659 408.097 292.748L330.105 315.366C327.125 316.231 323.93 315.963 321.136 314.614L317.297 312.761C316.614 312.432 316.18 311.74 316.18 310.981V309.859" stroke="white" stroke-width="0.359301"/>
<g clip-path="url(#clip0_7228_282424)">
<path opacity="0.5" d="M359.915 216.605C359.915 261.367 323.629 297.653 278.867 297.653C234.106 297.653 197.82 261.367 197.82 216.605" stroke="white" stroke-width="0.900524"/>
<g filter="url(#filter0_d_7228_282424)">
<circle cx="278.867" cy="209.401" r="81.0471" fill="#1B1B2D"/>
<circle cx="278.867" cy="209.401" r="81.0471" fill="url(#paint1_linear_7228_282424)" fill-opacity="0.4"/>
</g>
<circle cx="278.421" cy="208.95" r="78.7958" stroke="#D2B2FF" stroke-width="7.20419"/>
<circle cx="278.868" cy="209.4" r="74.7435" stroke="white" stroke-width="1.80105"/>
<circle opacity="0.4" cx="233.842" cy="210.301" r="10.1309" fill="#D2B2FF"/>
<circle opacity="0.8" cx="323.897" cy="210.301" r="10.1309" fill="#D2B2FF"/>
<ellipse opacity="0.6" cx="278.865" cy="255.328" rx="10.1309" ry="10.1309" transform="rotate(-90 278.865 255.328)" fill="#D2B2FF"/>
<ellipse cx="278.865" cy="165.275" rx="10.1309" ry="10.1309" transform="rotate(-90 278.865 165.275)" fill="#D2B2FF"/>
<circle opacity="0.5" cx="246.884" cy="242.283" r="9.97739" transform="rotate(-45 246.884 242.283)" fill="#D2B2FF"/>
<circle cx="310.852" cy="178.318" r="9.97739" transform="rotate(-45 310.852 178.318)" fill="#D2B2FF"/>
<circle opacity="0.7" cx="310.852" cy="242.282" r="9.97739" transform="rotate(-135 310.852 242.282)" fill="#D2B2FF"/>
<circle opacity="0.3" cx="246.883" cy="178.318" r="9.97739" transform="rotate(-135 246.883 178.318)" fill="#D2B2FF"/>
</g>
<defs>
<filter id="filter0_d_7228_282424" x="154.595" y="106.741" width="248.544" height="248.544" filterUnits="userSpaceOnUse" color-interpolation-filters="sRGB">
<feFlood flood-opacity="0" result="BackgroundImageFix"/>
<feColorMatrix in="SourceAlpha" type="matrix" values="0 0 0 0 0 0 0 0 0 0 0 0 0 0 0 0 0 0 127 0" result="hardAlpha"/>
<feOffset dy="21.6126"/>
<feGaussianBlur stdDeviation="21.6126"/>
<feComposite in2="hardAlpha" operator="out"/>
<feColorMatrix type="matrix" values="0 0 0 0 0.179721 0 0 0 0 0.199393 0 0 0 0 0.364633 0 0 0 1 0"/>
<feBlend mode="normal" in2="BackgroundImageFix" result="effect1_dropShadow_7228_282424"/>
<feBlend mode="normal" in="SourceGraphic" in2="effect1_dropShadow_7228_282424" result="shape"/>
</filter>
<linearGradient id="paint0_linear_7228_282424" x1="357.104" y1="426.309" x2="372.34" y2="458.101" gradientUnits="userSpaceOnUse">
<stop/>
<stop offset="1" stop-opacity="0"/>
</linearGradient>
<linearGradient id="paint1_linear_7228_282424" x1="327.76" y1="320.84" x2="114.344" y2="179.771" gradientUnits="userSpaceOnUse">
<stop stop-color="#78DDFF"/>
<stop offset="1" stop-color="#8C00FF" stop-opacity="0.2"/>
</linearGradient>
<clipPath id="clip0_7228_282424">
<rect width="216.126" height="216.126" fill="white" transform="translate(170.805 113.045)"/>
</clipPath>
</defs>
</svg>
