<svg width="32" height="32" viewBox="0 0 32 32" fill="none" xmlns="http://www.w3.org/2000/svg">
<path fill-rule="evenodd" clip-rule="evenodd" d="M15.9997 0.667969C17.5834 0.667969 19.0483 1.48617 19.8395 2.81445L31.4059 22.2246C32.1984 23.5545 32.1984 25.1908 31.4059 26.5205C30.6147 27.8489 29.1499 28.668 27.5661 28.668H4.43423C2.85042 28.668 1.38556 27.8489 0.594384 26.5205C-0.198136 25.1906 -0.19812 23.5544 0.594384 22.2246L12.1608 2.81445C12.9519 1.48632 14.4161 0.668115 15.9997 0.667969ZM15.9997 3.55859C15.4826 3.55875 15.0036 3.82607 14.7458 4.26074L3.17837 23.6699C2.92047 24.1047 2.92047 24.6404 3.17837 25.0752C3.43778 25.5097 3.9157 25.7764 4.43423 25.7764H27.5661C28.0846 25.782 28.5669 25.5126 28.8219 25.0752C29.0856 24.6418 29.0856 24.1033 28.8219 23.6699L17.2565 4.26074C16.9971 3.82594 16.5169 3.55859 15.9997 3.55859ZM14.4791 22.3184C14.4791 20.3504 17.525 20.3504 17.525 22.3184C17.5247 24.2845 14.4794 24.2845 14.4791 22.3184ZM15.9977 8.66797C16.8222 8.66811 17.4899 9.31435 17.4899 10.1133V17.1367C17.4899 17.9356 16.8222 18.5819 15.9977 18.582C15.173 18.582 14.5055 17.9357 14.5055 17.1367V10.1133C14.5055 9.31426 15.173 8.66797 15.9977 8.66797Z" fill="white"/>
</svg>
