<svg width="40" height="40" viewBox="0 0 40 40" fill="none" xmlns="http://www.w3.org/2000/svg">
<mask id="path-1-inside-1_3244_91220" fill="white">
<path d="M19.999 0.832031C21.9788 0.832031 23.8099 1.85606 24.7988 3.5166L39.2559 27.7783C40.2466 29.4408 40.2466 31.4861 39.2559 33.1484C38.2669 34.8089 36.4367 35.832 34.457 35.832H5.54199C3.56223 35.832 1.73116 34.809 0.742188 33.1484C-0.248481 31.4861 -0.248531 29.4406 0.742188 27.7783L15.2002 3.5166C16.1891 1.85616 18.0194 0.832148 19.999 0.832031Z"/>
</mask>
<path d="M19.999 0.832031C21.9788 0.832031 23.8099 1.85606 24.7988 3.5166L39.2559 27.7783C40.2466 29.4408 40.2466 31.4861 39.2559 33.1484C38.2669 34.8089 36.4367 35.832 34.457 35.832H5.54199C3.56223 35.832 1.73116 34.809 0.742188 33.1484C-0.248481 31.4861 -0.248531 29.4406 0.742188 27.7783L15.2002 3.5166C16.1891 1.85616 18.0194 0.832148 19.999 0.832031Z" fill="#FF4400"/>
<path d="M19.999 0.832031V-0.167969H19.999L19.999 0.832031ZM24.7988 3.5166L23.9397 4.0283L23.9398 4.02849L24.7988 3.5166ZM39.2559 27.7783L38.3968 28.2902L38.3969 28.2903L39.2559 27.7783ZM39.2559 33.1484L38.3969 32.6364L38.3967 32.6367L39.2559 33.1484ZM34.457 35.832V36.832H34.457L34.457 35.832ZM0.742188 33.1484L1.60135 32.6367L1.60122 32.6365L0.742188 33.1484ZM0.742188 27.7783L1.60119 28.2903L1.60122 28.2902L0.742188 27.7783ZM15.2002 3.5166L16.0592 4.02852L16.0594 4.0283L15.2002 3.5166ZM19.999 0.832031V1.83203C21.637 1.83203 23.1364 2.67955 23.9397 4.0283L24.7988 3.5166L25.658 3.00491C24.4833 1.03258 22.3206 -0.167969 19.999 -0.167969V0.832031ZM24.7988 3.5166L23.9398 4.02849L38.3968 28.2902L39.2559 27.7783L40.1149 27.2664L25.6579 3.00471L24.7988 3.5166ZM39.2559 27.7783L38.3969 28.2903C39.1997 29.6373 39.1996 31.2896 38.3969 32.6364L39.2559 33.1484L40.1149 33.6604C41.2937 31.6827 41.2936 29.2442 40.1149 27.2664L39.2559 27.7783ZM39.2559 33.1484L38.3967 32.6367C37.5935 33.9853 36.095 34.832 34.457 34.832L34.457 35.832L34.457 36.832C36.7784 36.832 38.9403 35.6325 40.115 33.6602L39.2559 33.1484ZM34.457 35.832V34.832H5.54199V35.832V36.832H34.457V35.832ZM5.54199 35.832V34.832C3.90371 34.832 2.40446 33.9852 1.60135 32.6367L0.742188 33.1484L-0.116979 33.6601C1.05786 35.6328 3.22075 36.832 5.54199 36.832V35.832ZM0.742188 33.1484L1.60122 32.6365C0.79849 31.2895 0.798488 29.6371 1.60119 28.2903L0.742188 27.7783L-0.116811 27.2663C-1.29555 29.244 -1.29545 31.6826 -0.116843 33.6604L0.742188 33.1484ZM0.742188 27.7783L1.60122 28.2902L16.0592 4.02852L15.2002 3.5166L14.3412 3.00469L-0.116848 27.2664L0.742188 27.7783ZM15.2002 3.5166L16.0594 4.0283C16.8627 2.67952 18.3614 1.83213 19.9991 1.83203L19.999 0.832031L19.999 -0.167969C17.6774 -0.167832 15.5156 1.03279 14.341 3.00491L15.2002 3.5166Z" fill="white" mask="url(#path-1-inside-1_3244_91220)"/>
<path d="M18.0938 27.8945C18.0942 25.4352 21.8999 25.4352 21.9004 27.8945C21.9004 30.3527 18.0938 30.3527 18.0938 27.8945ZM19.998 10.832C21.0288 10.8321 21.8633 11.6409 21.8633 12.6396V21.4189C21.8631 22.4175 21.0287 23.2255 19.998 23.2256C18.9673 23.2256 18.1329 22.4176 18.1328 21.4189V12.6396C18.1328 11.6409 18.9672 10.832 19.998 10.832Z" fill="white"/>
</svg>
