<svg viewBox="0 0 60 60" fill="none" xmlns="http://www.w3.org/2000/svg">
<path d="M30 1.25C32.9696 1.25 35.7158 2.78556 37.1992 5.27637L58.8848 41.6689C60.3709 44.1625 60.3709 47.2302 58.8848 49.7236C57.4013 52.2144 54.6562 53.75 51.6865 53.75H8.31348C5.34391 53.7499 2.59866 52.2144 1.11523 49.7236C-0.370814 47.23 -0.370905 44.1623 1.11523 41.6689L22.8018 5.27637C24.2852 2.78558 27.0304 1.25002 30 1.25ZM30 6.6709C29.0302 6.67095 28.131 7.17112 27.6475 7.98633L5.95898 44.3799C5.47544 45.1951 5.47543 46.1984 5.95898 47.0137C6.44527 47.8287 7.34111 48.329 8.31348 48.3291H51.6865C52.6589 48.3397 53.5629 47.834 54.041 47.0137C54.5354 46.2012 54.5363 45.1924 54.042 44.3799L32.3555 7.98633C31.8692 7.17106 30.9698 6.6709 30 6.6709ZM27.1455 41.8438C27.1457 38.1541 32.8553 38.1541 32.8555 41.8438C32.8555 45.531 27.1455 45.531 27.1455 41.8438ZM30 16.25C31.5463 16.25 32.7979 17.4628 32.7979 18.9609V32.1299C32.7977 33.6279 31.5461 34.8398 30 34.8398C28.4539 34.8398 27.2023 33.6279 27.2021 32.1299V18.9609C27.2021 17.4628 28.4538 16.25 30 16.25Z" fill="#FF7083"/>
</svg>
