<svg viewBox="0 0 28 28" fill="none" xmlns="http://www.w3.org/2000/svg">
<path fill-rule="evenodd" clip-rule="evenodd" d="M20.7249 7.27567C21.1349 7.68572 21.1541 8.33132 20.7678 8.71767L8.72008 20.7654C8.33373 21.1517 7.68812 21.1325 7.27807 20.7225C6.86802 20.3124 6.84881 19.6668 7.23515 19.2805L19.2829 7.23275C19.6692 6.8464 20.3148 6.86561 20.7249 7.27567Z" fill="white"/>
<path fill-rule="evenodd" clip-rule="evenodd" d="M7.27902 7.27567C7.68907 6.86561 8.33468 6.8464 8.72103 7.23275L20.7688 19.2805C21.1551 19.6668 21.1359 20.3124 20.7258 20.7225C20.3158 21.1325 19.6702 21.1517 19.2838 20.7654L7.23611 8.71767C6.84976 8.33132 6.86897 7.68572 7.27902 7.27567Z" fill="white"/>
</svg>
