<svg viewBox="0 0 32 32" fill="none" xmlns="http://www.w3.org/2000/svg">
<rect width="32" height="32" rx="16" fill="white"/>
<path d="M16.4681 8.25911C16.1437 8.579 16.1132 9.08447 16.3792 9.43913L16.4591 9.53187L21.95 15.1L7.9 15.1C7.40294 15.1 7 15.5029 7 16C7 16.4588 7.34334 16.8375 7.78711 16.893L7.9 16.9H21.95L16.4591 22.4681C16.1392 22.7926 16.116 23.2984 16.3869 23.6493L16.4681 23.7409C16.7926 24.0608 17.2985 24.084 17.6493 23.8131L17.7409 23.7319L24.7409 16.6319C25.0576 16.3107 25.084 15.8109 24.8201 15.4599L24.7409 15.3681L17.7409 8.26813C17.3919 7.91418 16.8221 7.91014 16.4681 8.25911Z" fill="black"/>
</svg>
